<?xml version="1.0" encoding="UTF-8"?>
<svg xmlns="http://www.w3.org/2000/svg" xmlns:xlink="http://www.w3.org/1999/xlink" width="16" height="16" viewBox="0 0 16 16">
<path fill-rule="nonzero" fill="rgb(100%, 100%, 100%)" fill-opacity="1" d="M 12.777344 1 C 9.820312 1 9.261719 5 10.929688 5 C 12.59375 5 15.742188 1 12.777344 1 Z M 8.230469 2 C 8.183594 2 8.128906 2.003906 8.078125 2.011719 C 6.382812 2.214844 6.980469 4.949219 7.882812 5 C 8.753906 5.050781 9.710938 2.007812 8.230469 2 Z M 5.140625 3 C 5.019531 2.996094 4.882812 3.011719 4.734375 3.050781 C 3.148438 3.449219 4.492188 5.105469 5.382812 4.992188 C 6.1875 4.894531 6.304688 3.046875 5.140625 3 Z M 2.929688 5 C 2.785156 4.996094 2.632812 5.027344 2.46875 5.105469 C 1.164062 5.722656 2.910156 7.207031 3.675781 6.976562 C 4.347656 6.773438 3.917969 5.023438 2.929688 5 Z M 9.011719 6 C 6.675781 5.964844 3.597656 7.066406 3.074219 9.277344 C 2.503906 11.675781 5.414062 15 8.449219 15 C 9.941406 15 11.664062 14.328125 11.988281 12.722656 C 12.230469 11.496094 8.894531 12.023438 9.007812 12.835938 C 9.144531 13.808594 8.445312 13.652344 7.570312 13.023438 C 5 11 12.179688 10.035156 11.695312 7.308594 C 11.542969 6.457031 10.410156 6.023438 9.011719 6.003906 Z M 9.011719 6 "/>
</svg>
