<?xml version="1.0" encoding="UTF-8"?>
<svg xmlns="http://www.w3.org/2000/svg" xmlns:xlink="http://www.w3.org/1999/xlink" width="16" height="16" viewBox="0 0 16 16">
<path fill-rule="nonzero" fill="rgb(100%, 100%, 100%)" fill-opacity="1" d="M 4.5 4 C 2.015625 4 0 6.015625 0 8.5 C 0 10.984375 2.015625 13 4.5 13 C 6.40625 12.996094 8.101562 11.796875 8.734375 10 L 12 10 L 12 12 L 15 12 L 15 10 L 16 10 L 16 7 L 8.734375 7 C 8.101562 5.203125 6.40625 4.003906 4.5 4 Z M 4.5 7 C 5.328125 7 6 7.671875 6 8.5 C 6 9.328125 5.328125 10 4.5 10 C 3.671875 10 3 9.328125 3 8.5 C 3 7.671875 3.671875 7 4.5 7 Z M 4.5 7 "/>
</svg>
