<?xml version="1.0" encoding="UTF-8"?>
<svg xmlns="http://www.w3.org/2000/svg" xmlns:xlink="http://www.w3.org/1999/xlink" width="16" height="16" viewBox="0 0 16 16">
<defs>
<filter id="filter-remove-color" x="0%" y="0%" width="100%" height="100%">
<feColorMatrix color-interpolation-filters="sRGB" values="0 0 0 0 1 0 0 0 0 1 0 0 0 0 1 0 0 0 1 0" />
</filter>
<mask id="mask-0">
<g filter="url(#filter-remove-color)">
<rect x="-1.6" y="-1.6" width="19.2" height="19.2" fill="rgb(0%, 0%, 0%)" fill-opacity="0.5"/>
</g>
</mask>
<clipPath id="clip-0">
<rect x="0" y="0" width="16" height="16"/>
</clipPath>
<g id="source-5653" clip-path="url(#clip-0)">
<path fill-rule="nonzero" fill="rgb(21.176471%, 22.352941%, 28.627451%)" fill-opacity="1" d="M 2 1 L 14 1 C 14.550781 1 15 1.449219 15 2 L 15 5 C 15 5.550781 14.550781 6 14 6 L 2 6 C 1.449219 6 1 5.550781 1 5 L 1 2 C 1 1.449219 1.449219 1 2 1 Z M 2 1 "/>
</g>
<mask id="mask-1">
<g filter="url(#filter-remove-color)">
<rect x="-1.6" y="-1.6" width="19.2" height="19.2" fill="rgb(0%, 0%, 0%)" fill-opacity="0.25"/>
</g>
</mask>
<clipPath id="clip-1">
<rect x="0" y="0" width="16" height="16"/>
</clipPath>
<g id="source-5658" clip-path="url(#clip-1)">
<path fill-rule="nonzero" fill="rgb(100%, 100%, 100%)" fill-opacity="1" d="M 8.917969 3 L 7.859375 3.28125 L 7 5 L 1.453125 5 L 0.28125 5.3125 C 0.109375 5.492188 0 5.730469 0 6 L 0 7.460938 L 15.628906 3.273438 C 15.625 3.265625 15.617188 3.265625 15.613281 3.261719 C 15.527344 3.1875 15.4375 3.125 15.339844 3.082031 C 15.230469 3.03125 15.113281 3 15 3 Z M 16 4.226562 L 0 8.519531 L 0 10.589844 L 16 6.296875 Z M 16 7.351562 L 0 11.644531 L 0 13.714844 L 16 9.425781 Z M 16 10.480469 L 0.28125 14.695312 C 0.464844 14.882812 0.714844 15 1 15 L 6.863281 15 L 16 12.550781 Z M 16 13.609375 L 10.804688 15 L 15 15 C 15.554688 15 16 14.554688 16 14 Z M 16 13.609375 "/>
</g>
</defs>
<g mask="url(#mask-0)">
<use xlink:href="#source-5653"/>
</g>
<path fill-rule="nonzero" fill="rgb(21.176471%, 22.352941%, 28.627451%)" fill-opacity="1" d="M 8 3 L 7 5 L 1 5 C 0.445312 5 0 5.445312 0 6 L 0 14 C 0 14.554688 0.445312 15 1 15 L 15 15 C 15.554688 15 16 14.554688 16 14 L 16 4 C 16 3.5 15.5 3 15 3 Z M 8 3 "/>
<g mask="url(#mask-1)">
<use xlink:href="#source-5658"/>
</g>
</svg>
