<?xml version="1.0" encoding="UTF-8"?>
<svg xmlns="http://www.w3.org/2000/svg" xmlns:xlink="http://www.w3.org/1999/xlink" width="16" height="16" viewBox="0 0 16 16">
<path fill-rule="nonzero" fill="rgb(44.705882%, 44.705882%, 44.705882%)" fill-opacity="1" d="M 3 1 C 1 1 1 3 1 3 L 1 12 C 1 14 3 14 3 14 L 13 14 C 15 14 15 12 15 12 L 15 3 C 15 3 15 1 13 1 Z M 6 4 L 11 4 L 11 9.5 C 11 10.328125 10.328125 11 9.5 11 C 8.671875 11 8 10.328125 8 9.5 C 8 8.671875 8.671875 8 9.5 8 C 9.671875 8 9.84375 8.039062 10 8.09375 L 10 6 L 7 6 L 7 9.5 C 7 10.328125 6.328125 11 5.5 11 C 4.671875 11 4 10.328125 4 9.5 C 4 8.671875 4.671875 8 5.5 8 C 5.671875 8 5.84375 8.039062 6 8.09375 Z M 6 4 "/>
</svg>
