<?xml version="1.0" encoding="UTF-8"?>
<svg xmlns="http://www.w3.org/2000/svg" xmlns:xlink="http://www.w3.org/1999/xlink" width="16" height="16" viewBox="0 0 16 16">
<path fill-rule="nonzero" fill="rgb(44.705882%, 44.705882%, 44.705882%)" fill-opacity="1" d="M 2 1.003906 C 1 1.003906 1 2.003906 1 2.003906 L 1 12.003906 C 1 12 2 13.003906 2 13.003906 L 1 13.003906 C 1 13.003906 0 13.003906 0 14.003906 L 0 15 L 16 15 L 16 14.003906 C 16 13.003906 15.023438 13.003906 15.023438 13.003906 L 14 13.003906 L 15 12 L 15 2.003906 C 15 2.003906 15 1.003906 14 1.003906 Z M 3 3.003906 L 13 3.003906 L 13 10.980469 L 3 11.003906 Z M 3 3.003906 "/>
</svg>
