<?xml version="1.0" encoding="UTF-8"?>
<svg xmlns="http://www.w3.org/2000/svg" xmlns:xlink="http://www.w3.org/1999/xlink" width="16" height="16" viewBox="0 0 16 16">
<path fill-rule="nonzero" fill="rgb(44.705882%, 44.705882%, 44.705882%)" fill-opacity="1" d="M 8 2 C 4.675781 2 2 4.675781 2 8 L 2 12 C 2 12 2 14 4 14 L 6 14 L 6 9 L 4 9 L 4 8 C 4 5.785156 5.785156 4 8 4 C 10.214844 4 12 5.785156 12 8 L 12 9 L 10 9 L 10 14 L 12 14 C 12 14 14 14 14 12 L 14 8 C 14 4.675781 11.324219 2 8 2 Z M 8 2 "/>
</svg>
