<?xml version="1.0" encoding="UTF-8"?>
<svg xmlns="http://www.w3.org/2000/svg" xmlns:xlink="http://www.w3.org/1999/xlink" width="16" height="16" viewBox="0 0 16 16">
<path fill-rule="nonzero" fill="rgb(44.705882%, 44.705882%, 44.705882%)" fill-opacity="1" d="M 3 1 L 3 2 L 2 2 C 2 2 1 2 1 3 L 1 13 C 1 13 1 14 2 14 L 14 14 C 14 14 15 14 15 13 L 15 3 C 15 2 14 2 14 2 L 6 2 L 6 1 Z M 8 4 C 10.210938 4 12 5.789062 12 8 C 12 10.210938 10.210938 12 8 12 C 5.789062 12 4 10.210938 4 8 C 4 5.789062 5.789062 4 8 4 Z M 8 6 C 6.894531 6 6 6.894531 6 8 C 6 9.105469 6.894531 10 8 10 C 9.105469 10 10 9.105469 10 8 C 10 6.894531 9.105469 6 8 6 Z M 8 6 "/>
</svg>
