<?xml version="1.0" encoding="UTF-8"?>
<svg xmlns="http://www.w3.org/2000/svg" xmlns:xlink="http://www.w3.org/1999/xlink" width="16" height="16" viewBox="0 0 16 16">
<path fill-rule="nonzero" fill="rgb(44.705882%, 44.705882%, 44.705882%)" fill-opacity="1" d="M 3 1 C 2 1 2 2 2 2 L 2 14 C 2 14 2 15 3 15 L 13 15 C 13 15 14 15 14 14 L 14 2 C 14 2 14 1 13 1 Z M 8 3 C 13.332031 3 13.332031 11 8 11 L 4 11 L 4 7 C 4 4.789062 5.789062 3 8 3 Z M 8 3 "/>
<path fill-rule="nonzero" fill="rgb(44.705882%, 44.705882%, 44.705882%)" fill-opacity="1" d="M 8 4 L 5 10 L 6 10 L 9 4 Z M 8 4 "/>
<path fill-rule="nonzero" fill="rgb(44.705882%, 44.705882%, 44.705882%)" fill-opacity="1" d="M 8 9 L 10 9 L 10 10 L 8 10 Z M 8 9 "/>
</svg>
