<?xml version="1.0" encoding="UTF-8"?>
<svg xmlns="http://www.w3.org/2000/svg" xmlns:xlink="http://www.w3.org/1999/xlink" width="16" height="16" viewBox="0 0 16 16">
<path fill-rule="nonzero" fill="rgb(44.705882%, 44.705882%, 44.705882%)" fill-opacity="1" d="M 4 0 C 3 0 3 1 3 1 L 3 15 C 3 15 3 16 4 16 L 12 16 C 13 16 13 15 13 15 L 13 1 C 13 1 13 0 12 0 Z M 5 3.003906 L 11 3.003906 L 11 12 L 5 12 Z M 8 13 C 8.550781 13 9 13.449219 9 14 C 9 14.550781 8.550781 15 8 15 C 7.449219 15 7 14.550781 7 14 C 7 13.449219 7.449219 13 8 13 Z M 8 13 "/>
</svg>
