<?xml version="1.0" encoding="UTF-8"?>
<svg xmlns="http://www.w3.org/2000/svg" xmlns:xlink="http://www.w3.org/1999/xlink" width="16" height="16" viewBox="0 0 16 16">
<defs>
<filter id="filter-remove-color" x="0%" y="0%" width="100%" height="100%">
<feColorMatrix color-interpolation-filters="sRGB" values="0 0 0 0 1 0 0 0 0 1 0 0 0 0 1 0 0 0 1 0" />
</filter>
<mask id="mask-0">
<g filter="url(#filter-remove-color)">
<rect x="-1.6" y="-1.6" width="19.2" height="19.2" fill="rgb(0%, 0%, 0%)" fill-opacity="0.3"/>
</g>
</mask>
<clipPath id="clip-0">
<path clip-rule="nonzero" d="M 0 0 L 16 0 L 16 15 L 0 15 Z M 0 0 "/>
</clipPath>
<clipPath id="clip-1">
<rect x="0" y="0" width="16" height="16"/>
</clipPath>
<g id="source-4318" clip-path="url(#clip-1)">
<g clip-path="url(#clip-0)">
<path fill-rule="nonzero" fill="rgb(44.705882%, 44.705882%, 44.705882%)" fill-opacity="1" d="M 10 -0.00390625 C 10.003906 0 10 1.328125 10 1.996094 L 7 1.996094 L 7 6.996094 L 10 6.996094 L 10 8.996094 L 15.5 4.496094 Z M 6 5.996094 L 0.5 10.496094 L 6 14.996094 C 5.996094 14.992188 6 13.664062 6 12.996094 L 9 12.996094 L 9 7.996094 L 6 7.996094 Z M 6 5.996094 "/>
</g>
</g>
</defs>
<g mask="url(#mask-0)">
<use xlink:href="#source-4318"/>
</g>
</svg>
