<?xml version="1.0" encoding="UTF-8"?>
<svg xmlns="http://www.w3.org/2000/svg" xmlns:xlink="http://www.w3.org/1999/xlink" width="16" height="16" viewBox="0 0 16 16">
<path fill-rule="nonzero" fill="rgb(44.705882%, 44.705882%, 44.705882%)" fill-opacity="1" d="M 14 14 C 14.554688 14 15 13.554688 15 13 L 15 11 L 14 11 L 14 5 L 15 5 L 15 3 C 15 2.445312 14.554688 2 14 2 L 2 2 C 1.445312 2 1 2.445312 1 3 L 1 10 L 5 14 Z M 3 9 L 3 8 L 6 8 L 6 9 Z M 3 7 L 3 6 L 6 6 L 6 7 Z M 3 5 L 3 4 L 6 4 L 6 5 Z M 4 11 L 4 10 L 6 10 L 6 11 Z M 4 11 "/>
</svg>
