<?xml version="1.0" encoding="UTF-8"?>
<svg xmlns="http://www.w3.org/2000/svg" xmlns:xlink="http://www.w3.org/1999/xlink" width="16" height="16" viewBox="0 0 16 16">
<path fill-rule="nonzero" fill="rgb(44.705882%, 44.705882%, 44.705882%)" fill-opacity="1" d="M 2 7 C 1.445312 7 1 7.445312 1 8 L 1 13 C 1 13.554688 1.445312 14 2 14 L 14 14 C 14.554688 14 15 13.554688 15 13 L 15 8 C 15 7.445312 14.554688 7 14 7 Z M 8 10 L 9 10 L 9 11 L 8 11 Z M 10 10 L 11 10 L 11 11 L 10 11 Z M 12 10 L 13 10 L 13 11 L 12 11 Z M 12 10 "/>
<path fill-rule="nonzero" fill="rgb(44.705882%, 44.705882%, 44.705882%)" fill-opacity="1" d="M 6 2 C 4.34375 2 3 3.34375 3 5 L 4 5 C 4 3.894531 4.894531 3 6 3 C 7.105469 3 8 3.894531 8 5 L 9 5 C 9 3.34375 7.65625 2 6 2 Z M 6 4 C 5.449219 4 5 4.449219 5 5 C 5 5.550781 5.449219 6 6 6 C 6.550781 6 7 5.550781 7 5 C 7 4.449219 6.550781 4 6 4 Z M 6 4 "/>
</svg>
