<?xml version="1.0" encoding="UTF-8"?>
<svg xmlns="http://www.w3.org/2000/svg" xmlns:xlink="http://www.w3.org/1999/xlink" width="16" height="16" viewBox="0 0 16 16">
<path fill-rule="nonzero" fill="rgb(44.705882%, 44.705882%, 44.705882%)" fill-opacity="1" d="M 2 2 C 2 2 1 2 1 3 L 1 12 C 1 13 2 13 2 13 L 4 13 L 5 14 L 11 14 L 12 13 L 14 13 C 14 13 15 13.128906 15 12 L 15 3 C 15 2 14 2 14 2 Z M 3 4 L 13 4 L 13 11 L 11 11 L 10 12 L 6 12 L 5 11 L 3 11 Z M 3 4 "/>
<path fill-rule="nonzero" fill="rgb(44.705882%, 44.705882%, 44.705882%)" fill-opacity="1" d="M 5 6 L 7 6 L 7 9 L 5 9 Z M 5 6 "/>
<path fill-rule="nonzero" fill="rgb(44.705882%, 44.705882%, 44.705882%)" fill-opacity="1" d="M 9 6 L 11 6 L 11 9 L 9 9 Z M 9 6 "/>
</svg>
