<?xml version="1.0" encoding="UTF-8"?>
<svg xmlns="http://www.w3.org/2000/svg" xmlns:xlink="http://www.w3.org/1999/xlink" width="16" height="16" viewBox="0 0 16 16">
<path fill-rule="nonzero" fill="rgb(44.705882%, 44.705882%, 44.705882%)" fill-opacity="1" d="M 2 0 C 1.445312 0 1 0.445312 1 1 L 1 4 L 15 4 L 15 1 C 15 0.445312 14.554688 0 14 0 Z M 8 1 L 9 1 L 9 3 L 8 3 Z M 10 1 L 11 1 L 11 3 L 10 3 Z M 12 1 L 13 1 L 13 3 L 12 3 Z M 1 5 L 1 9 L 15 9 L 15 5 Z M 8 6 L 9 6 L 9 8 L 8 8 Z M 10 6 L 11 6 L 11 8 L 10 8 Z M 12 6 L 13 6 L 13 8 L 12 8 Z M 1 10 L 1 13 C 1 13.554688 1.445312 14 2 14 L 7 14 L 7 16 L 9 16 L 9 14 L 14 14 C 14.554688 14 15 13.554688 15 13 L 15 10 Z M 8 11 L 9 11 L 9 13 L 8 13 Z M 10 11 L 11 11 L 11 13 L 10 13 Z M 12 11 L 13 11 L 13 13 L 12 13 Z M 12 11 "/>
</svg>
