<?xml version="1.0" encoding="UTF-8"?>
<svg xmlns="http://www.w3.org/2000/svg" xmlns:xlink="http://www.w3.org/1999/xlink" width="16" height="16" viewBox="0 0 16 16">
<path fill-rule="nonzero" fill="rgb(44.705882%, 44.705882%, 44.705882%)" fill-opacity="1" d="M 1 2 C 0.445312 2 0 2.445312 0 3 L 0 13 C 0 13.554688 0.445312 14 1 14 L 15 14 C 15.554688 14 16 13.554688 16 13 L 16 3 C 16 2.445312 15.554688 2 15 2 Z M 3 4 L 13 4 L 13 12 L 3 12 Z M 1 7 L 2 7 L 2 9 L 1 9 Z M 14 7 L 15 7 L 15 9 L 14 9 Z M 14 7 "/>
</svg>
