<?xml version="1.0" encoding="UTF-8"?>
<svg xmlns="http://www.w3.org/2000/svg" xmlns:xlink="http://www.w3.org/1999/xlink" width="16" height="16" viewBox="0 0 16 16">
<path fill-rule="nonzero" fill="rgb(44.705882%, 44.705882%, 44.705882%)" fill-opacity="1" d="M 4 0 C 4 0 2 0 2 2 L 2 16 L 14 16 L 14 2 C 14 0 12 0 12 0 Z M 8 2 L 8 5 L 11 5 L 8 10 L 8 7 L 5 7 Z M 5 12 C 5.550781 12 6 12.449219 6 13 C 6 13.550781 5.550781 14 5 14 C 4.449219 14 4 13.550781 4 13 C 4 12.449219 4.449219 12 5 12 Z M 5 12 "/>
</svg>
