<?xml version="1.0" encoding="UTF-8"?>
<svg xmlns="http://www.w3.org/2000/svg" xmlns:xlink="http://www.w3.org/1999/xlink" width="22" height="22" viewBox="0 0 22 22">
<path fill="none" stroke-width="0.963852" stroke-linecap="round" stroke-linejoin="round" stroke="rgb(12.54902%, 60.392157%, 90.588235%)" stroke-opacity="1" stroke-miterlimit="4" d="M 4.34375 1033.842651 L 17.65625 1033.842651 C 18.132812 1033.842651 18.519531 1034.22937 18.519531 1034.705933 L 18.519531 1048.018433 C 18.519531 1048.494995 18.132812 1048.881714 17.65625 1048.881714 L 4.34375 1048.881714 C 3.867188 1048.881714 3.480469 1048.494995 3.480469 1048.018433 L 3.480469 1034.705933 C 3.480469 1034.22937 3.867188 1033.842651 4.34375 1033.842651 Z M 4.34375 1033.842651 " transform="matrix(1, 0, 0, 1, 0, -1030.362183)"/>
<path fill-rule="nonzero" fill="rgb(12.54902%, 60.392157%, 90.588235%)" fill-opacity="1" d="M 9.804688 4.617188 L 9.804688 7.015625 L 8.53125 7.015625 L 11.003906 9.816406 L 13.480469 7.015625 L 12.203125 7.015625 L 12.203125 4.617188 Z M 9.804688 4.617188 "/>
<path fill-rule="nonzero" fill="rgb(12.54902%, 60.392157%, 90.588235%)" fill-opacity="1" d="M 10.566406 10.214844 C 10.496094 10.214844 10.453125 10.335938 10.453125 10.480469 L 10.453125 11.390625 C 10.175781 11.453125 9.914062 11.570312 9.679688 11.714844 L 9.03125 11.066406 C 8.925781 10.964844 8.816406 10.917969 8.765625 10.964844 L 8.15625 11.578125 C 8.105469 11.628906 8.152344 11.738281 8.253906 11.839844 L 8.90625 12.492188 C 8.757812 12.726562 8.644531 12.988281 8.578125 13.265625 L 7.667969 13.265625 C 7.523438 13.265625 7.40625 13.308594 7.40625 13.378906 L 7.40625 14.253906 C 7.40625 14.324219 7.523438 14.367188 7.667969 14.367188 L 8.578125 14.367188 C 8.644531 14.644531 8.757812 14.90625 8.90625 15.140625 L 8.253906 15.792969 C 8.152344 15.894531 8.105469 16.003906 8.15625 16.054688 L 8.765625 16.667969 C 8.816406 16.714844 8.925781 16.667969 9.03125 16.566406 L 9.679688 15.917969 C 9.914062 16.066406 10.175781 16.179688 10.453125 16.242188 L 10.453125 17.152344 C 10.453125 17.296875 10.496094 17.417969 10.566406 17.417969 L 11.441406 17.417969 C 11.511719 17.417969 11.554688 17.296875 11.554688 17.152344 L 11.554688 16.242188 C 11.832031 16.179688 12.09375 16.066406 12.328125 15.917969 L 12.980469 16.566406 C 13.082031 16.667969 13.191406 16.714844 13.242188 16.667969 L 13.855469 16.054688 C 13.902344 16.003906 13.855469 15.894531 13.753906 15.792969 L 13.105469 15.140625 C 13.253906 14.90625 13.367188 14.644531 13.429688 14.367188 L 14.34375 14.367188 C 14.488281 14.367188 14.605469 14.324219 14.605469 14.253906 L 14.605469 13.378906 C 14.605469 13.308594 14.488281 13.265625 14.34375 13.265625 L 13.429688 13.265625 C 13.367188 12.988281 13.253906 12.726562 13.105469 12.492188 L 13.753906 11.839844 C 13.855469 11.738281 13.902344 11.628906 13.855469 11.578125 L 13.242188 10.964844 C 13.191406 10.917969 13.082031 10.964844 12.980469 11.066406 L 12.328125 11.714844 C 12.09375 11.570312 11.832031 11.453125 11.554688 11.390625 L 11.554688 10.480469 C 11.554688 10.335938 11.511719 10.214844 11.441406 10.214844 Z M 11.003906 12.703125 C 11.617188 12.703125 12.117188 13.207031 12.117188 13.816406 C 12.117188 14.429688 11.617188 14.929688 11.003906 14.929688 C 10.394531 14.929688 9.890625 14.429688 9.890625 13.816406 C 9.890625 13.207031 10.394531 12.703125 11.003906 12.703125 Z M 11.003906 12.703125 "/>
</svg>
