<?xml version="1.0" encoding="UTF-8"?>
<svg xmlns="http://www.w3.org/2000/svg" xmlns:xlink="http://www.w3.org/1999/xlink" width="16" height="16" viewBox="0 0 16 16">
<path fill-rule="nonzero" fill="rgb(100%, 100%, 100%)" fill-opacity="1" d="M 2 2 C 0.890625 2 0 2.890625 0 4 L 0 13 C 0 14.109375 0.890625 15 2 15 L 14 15 C 15.109375 15 16 14.109375 16 13 L 16 5 C 16 3.890625 15.109375 3 14 3 L 6.371094 3 C 5.792969 2.976562 5.765625 3.078125 5.332031 2.644531 C 4.898438 2.207031 4.71875 2 4 2 Z M 2 3 L 4 3 C 4.3125 3 4.519531 3 5 3.46875 C 5.476562 3.941406 5.636719 4 6 4 L 14 4 C 14.554688 4 15 4.445312 15 5 L 15 6 L 1 6 L 1 4 C 1 3.445312 1.445312 3 2 3 Z M 1 7 L 15 7 L 15 13 C 15 13.554688 14.554688 14 14 14 L 2 14 C 1.445312 14 1 13.554688 1 13 Z M 1 7 "/>
</svg>
