<?xml version="1.0" encoding="UTF-8"?>
<svg xmlns="http://www.w3.org/2000/svg" xmlns:xlink="http://www.w3.org/1999/xlink" width="16" height="16" viewBox="0 0 16 16">
<path fill-rule="nonzero" fill="rgb(100%, 100%, 100%)" fill-opacity="1" d="M 1.859375 1.324219 L 2.390625 1.851562 L 2.644531 1.851562 L 2.644531 2.109375 L 2.910156 2.371094 L 2.910156 1.851562 C 3.003906 1.6875 3.179688 1.585938 3.367188 1.585938 L 3.703125 1.585938 L 3.703125 2.644531 L 3.367188 2.644531 C 3.28125 2.644531 3.195312 2.621094 3.121094 2.582031 L 3.449219 2.910156 L 3.96875 2.910156 L 3.96875 1.324219 L 3.367188 1.324219 C 3.144531 1.324219 2.929688 1.417969 2.777344 1.585938 L 2.382812 1.585938 L 2.382812 1.324219 Z M 0.265625 1.585938 L 0.265625 2.644531 L 2.113281 2.644531 L 1.847656 2.382812 L 0.527344 2.382812 L 0.527344 1.851562 L 1.316406 1.851562 L 1.054688 1.585938 Z M 0.265625 1.585938 "/>
<path fill-rule="nonzero" fill="rgb(85.490196%, 26.666667%, 32.54902%)" fill-opacity="1" d="M 0.527344 0.714844 L 0.714844 0.527344 L 3.703125 3.511719 L 3.515625 3.703125 Z M 0.527344 0.714844 "/>
</svg>
