<?xml version="1.0" encoding="UTF-8"?>
<svg xmlns="http://www.w3.org/2000/svg" xmlns:xlink="http://www.w3.org/1999/xlink" width="16" height="16" viewBox="0 0 16 16">
<path fill-rule="nonzero" fill="rgb(100%, 100%, 100%)" fill-opacity="1" d="M 3.96875 2.910156 L 3.367188 2.910156 C 3.144531 2.910156 2.929688 2.8125 2.777344 2.644531 L 0.265625 2.644531 L 0.265625 1.585938 L 1.585938 1.585938 L 1.585938 1.324219 L 2.117188 1.324219 L 2.117188 1.585938 L 2.777344 1.585938 C 2.929688 1.417969 3.144531 1.324219 3.367188 1.324219 L 3.96875 1.324219 Z M 3.703125 2.644531 L 3.703125 1.585938 L 3.367188 1.585938 C 3.179688 1.585938 3.003906 1.6875 2.910156 1.851562 L 2.910156 2.382812 C 3.003906 2.542969 3.179688 2.644531 3.367188 2.644531 Z M 2.644531 2.382812 L 2.644531 1.851562 L 0.527344 1.851562 L 0.527344 2.382812 Z M 2.644531 2.382812 "/>
</svg>
