<?xml version="1.0" encoding="UTF-8"?>
<svg xmlns="http://www.w3.org/2000/svg" xmlns:xlink="http://www.w3.org/1999/xlink" width="16" height="16" viewBox="0 0 16 16">
<path fill-rule="nonzero" fill="rgb(100%, 100%, 100%)" fill-opacity="1" d="M 0.527344 0.792969 L 0.527344 1.058594 L 1.324219 1.058594 L 1.324219 0.792969 Z M 0.527344 0.792969 "/>
<path fill-rule="nonzero" fill="rgb(100%, 100%, 100%)" fill-opacity="1" d="M 0.527344 3.441406 L 0.527344 3.175781 L 2.910156 3.175781 L 2.910156 3.441406 Z M 0.527344 3.441406 "/>
<path fill-rule="nonzero" fill="rgb(100%, 100%, 100%)" fill-opacity="1" d="M 0.527344 1.585938 L 0.527344 1.851562 L 1.851562 1.851562 L 1.851562 1.585938 Z M 0.527344 1.585938 "/>
<path fill-rule="nonzero" fill="rgb(100%, 100%, 100%)" fill-opacity="1" d="M 0.527344 2.382812 L 0.527344 2.644531 L 2.382812 2.644531 L 2.382812 2.382812 Z M 0.527344 2.382812 "/>
<path fill-rule="nonzero" fill="rgb(100%, 100%, 100%)" fill-opacity="1" d="M 2.777344 0.527344 L 1.851562 1.457031 L 2.039062 1.640625 L 2.644531 1.035156 L 2.644531 2.117188 L 2.910156 2.117188 L 2.910156 1.035156 L 3.515625 1.640625 L 3.703125 1.457031 Z M 2.777344 0.527344 "/>
</svg>
