<?xml version="1.0" encoding="UTF-8"?>
<svg xmlns="http://www.w3.org/2000/svg" xmlns:xlink="http://www.w3.org/1999/xlink" width="16" height="16" viewBox="0 0 16 16">
<path fill-rule="nonzero" fill="rgb(100%, 100%, 100%)" fill-opacity="1" d="M 5 2 L 5 9 L 6 9 L 6 4 L 13 4 L 13 9 L 14 9 L 14 2 Z M 2.085938 9.300781 L 1.378906 10.007812 L 2.792969 11.421875 L 1.378906 12.835938 L 2.085938 13.542969 L 3.5 12.128906 L 4.914062 13.542969 L 5.621094 12.835938 L 4.207031 11.421875 L 5.621094 10.007812 L 4.914062 9.300781 L 3.5 10.714844 Z M 10.085938 9.300781 L 9.378906 10.007812 L 10.792969 11.421875 L 9.378906 12.835938 L 10.085938 13.542969 L 11.5 12.128906 L 12.914062 13.542969 L 13.621094 12.835938 L 12.207031 11.421875 L 13.621094 10.007812 L 12.914062 9.300781 L 11.5 10.714844 Z M 10.085938 9.300781 "/>
</svg>
