<?xml version="1.0" encoding="UTF-8"?>
<svg xmlns="http://www.w3.org/2000/svg" xmlns:xlink="http://www.w3.org/1999/xlink" width="16" height="16" viewBox="0 0 16 16">
<path fill-rule="nonzero" fill="rgb(100%, 100%, 100%)" fill-opacity="1" d="M 8 2.910156 C 7.808594 2.910156 7.621094 2.984375 7.484375 3.121094 C 7.347656 3.257812 7.273438 3.445312 7.273438 3.636719 L 7.273438 3.644531 C 5.988281 3.976562 5.09375 5.21875 5.089844 6.546875 C 5.089844 6.546875 5.089844 10.183594 3.882812 10.632812 C 3.871094 10.640625 3.867188 10.65625 3.855469 10.664062 C 3.808594 10.699219 3.769531 10.742188 3.738281 10.792969 C 3.722656 10.8125 3.710938 10.828125 3.699219 10.847656 C 3.660156 10.921875 3.636719 11.007812 3.636719 11.089844 C 3.636719 11.394531 3.878906 11.636719 4.183594 11.636719 L 11.816406 11.636719 C 12.121094 11.636719 12.363281 11.394531 12.363281 11.089844 C 12.363281 11.007812 12.339844 10.921875 12.300781 10.847656 C 12.289062 10.828125 12.277344 10.8125 12.261719 10.792969 C 12.230469 10.742188 12.191406 10.699219 12.144531 10.664062 C 12.132812 10.65625 12.128906 10.640625 12.117188 10.632812 C 10.910156 10.183594 10.910156 6.546875 10.910156 6.546875 C 10.90625 5.21875 10.011719 3.972656 8.726562 3.644531 L 8.726562 3.636719 C 8.726562 3.445312 8.652344 3.257812 8.515625 3.121094 C 8.378906 2.984375 8.191406 2.910156 8 2.910156 Z M 6.59375 12.363281 C 6.675781 12.675781 6.855469 12.953125 7.109375 13.148438 C 7.363281 13.347656 7.679688 13.453125 8 13.453125 C 8.324219 13.453125 8.636719 13.347656 8.890625 13.148438 C 9.144531 12.953125 9.328125 12.675781 9.40625 12.363281 Z M 6.59375 12.363281 "/>
<path fill-rule="nonzero" fill="rgb(85.490196%, 26.666667%, 32.54902%)" fill-opacity="1" d="M 2.183594 2.695312 L 13.304688 13.816406 L 13.816406 13.304688 L 2.695312 2.183594 Z M 2.183594 2.695312 "/>
</svg>
