<?xml version="1.0" encoding="UTF-8"?>
<svg xmlns="http://www.w3.org/2000/svg" xmlns:xlink="http://www.w3.org/1999/xlink" width="16" height="16" viewBox="0 0 16 16">
<defs>
<filter id="filter-remove-color" x="0%" y="0%" width="100%" height="100%">
<feColorMatrix color-interpolation-filters="sRGB" values="0 0 0 0 1 0 0 0 0 1 0 0 0 0 1 0 0 0 1 0" />
</filter>
<mask id="mask-0">
<g filter="url(#filter-remove-color)">
<rect x="-1.6" y="-1.6" width="19.2" height="19.2" fill="rgb(0%, 0%, 0%)" fill-opacity="0.5"/>
</g>
</mask>
<clipPath id="clip-0">
<rect x="0" y="0" width="5" height="5"/>
</clipPath>
<g id="source-5529" clip-path="url(#clip-0)">
<path fill-rule="nonzero" fill="rgb(100%, 100%, 100%)" fill-opacity="1" d="M 1.058594 0.792969 L 1.058594 1.058594 L 3.175781 1.058594 L 3.175781 0.792969 Z M 1.058594 3.441406 L 1.058594 3.703125 L 3.175781 3.703125 L 3.175781 3.441406 Z M 1.058594 3.441406 "/>
</g>
</defs>
<g mask="url(#mask-0)">
<use xlink:href="#source-5529"/>
</g>
<path fill-rule="nonzero" fill="rgb(100%, 100%, 100%)" fill-opacity="1" d="M 1.058594 1.851562 L 1.058594 2.117188 L 3.175781 2.117188 L 3.175781 1.851562 Z M 1.058594 2.382812 L 1.058594 2.644531 L 3.175781 2.644531 L 3.175781 2.382812 Z M 1.058594 2.382812 "/>
<path fill-rule="nonzero" fill="rgb(100%, 100%, 100%)" fill-opacity="1" d="M 0.527344 0.792969 L 0.527344 1.324219 L 0 1.324219 L 0 1.585938 L 0.527344 1.585938 L 0.527344 3.175781 L 3.441406 3.175781 L 3.441406 3.703125 L 3.703125 3.703125 L 3.703125 3.175781 L 4.234375 3.175781 L 4.234375 2.910156 L 3.703125 2.910156 L 3.703125 1.324219 L 0.792969 1.324219 L 0.792969 0.792969 Z M 0.792969 1.585938 L 3.441406 1.585938 L 3.441406 2.910156 L 0.792969 2.910156 Z M 0.792969 1.585938 "/>
</svg>
