<?xml version="1.0" encoding="UTF-8"?>
<svg xmlns="http://www.w3.org/2000/svg" xmlns:xlink="http://www.w3.org/1999/xlink" width="16" height="16" viewBox="0 0 16 16">
<path fill-rule="nonzero" fill="rgb(100%, 100%, 100%)" fill-opacity="1" d="M 1.058594 1.585938 L 1.058594 1.851562 L 3.175781 1.851562 L 3.175781 1.585938 Z M 1.058594 2.382812 L 1.058594 2.644531 L 3.175781 2.644531 L 3.175781 2.382812 Z M 1.058594 2.910156 L 1.058594 3.175781 L 3.175781 3.175781 L 3.175781 2.910156 Z M 1.058594 3.441406 L 1.058594 3.703125 L 2.644531 3.703125 L 2.644531 3.441406 Z M 1.058594 3.441406 "/>
<path fill-rule="nonzero" fill="rgb(100%, 100%, 100%)" fill-opacity="1" d="M 0.527344 0.527344 L 0.527344 1.058594 L 0 1.058594 L 0 1.324219 L 0.527344 1.324219 L 0.527344 3.703125 L 0.792969 3.703125 L 0.792969 1.324219 L 3.441406 1.324219 L 3.441406 3.703125 L 3.703125 3.703125 L 3.703125 1.058594 L 0.792969 1.058594 L 0.792969 0.527344 Z M 0.527344 0.527344 "/>
</svg>
