<?xml version="1.0" encoding="UTF-8"?>
<svg xmlns="http://www.w3.org/2000/svg" xmlns:xlink="http://www.w3.org/1999/xlink" width="32" height="32" viewBox="0 0 32 32">
<path fill-rule="nonzero" fill="rgb(0%, 0%, 0%)" fill-opacity="0.152941" stroke-width="1" stroke-linecap="round" stroke-linejoin="miter" stroke="rgb(0%, 0%, 0%)" stroke-opacity="0.380392" stroke-miterlimit="4" d="M 2 1020.862183 L 30 1020.862183 C 30.828125 1020.862183 31.5 1021.534058 31.5 1022.362183 L 31.5 1050.362183 C 31.5 1051.190308 30.828125 1051.862183 30 1051.862183 L 2 1051.862183 C 1.171875 1051.862183 0.5 1051.190308 0.5 1050.362183 L 0.5 1022.362183 C 0.5 1021.534058 1.171875 1020.862183 2 1020.862183 Z M 2 1020.862183 " transform="matrix(1, 0, 0, 1, 0, -1020.362183)"/>
<path fill-rule="nonzero" fill="rgb(32.156863%, 58.039216%, 88.627451%)" fill-opacity="1" d="M 2.5 1 L 3 1 L 3 31 L 2.5 31 C 1.667969 31 1 30.332031 1 29.5 L 1 2.5 C 1 1.667969 1.667969 1 2.5 1 Z M 2.5 1 "/>
</svg>
