<?xml version="1.0" encoding="UTF-8"?>
<svg xmlns="http://www.w3.org/2000/svg" xmlns:xlink="http://www.w3.org/1999/xlink" width="84" height="32" viewBox="0 0 84 32">
<defs>
<filter id="filter-remove-color" x="0%" y="0%" width="100%" height="100%">
<feColorMatrix color-interpolation-filters="sRGB" values="0 0 0 0 1 0 0 0 0 1 0 0 0 0 1 0 0 0 1 0" />
</filter>
<mask id="mask-0">
<g filter="url(#filter-remove-color)">
<rect x="-8.4" y="-3.2" width="100.8" height="38.4" fill="rgb(0%, 0%, 0%)" fill-opacity="0.64"/>
</g>
</mask>
<clipPath id="clip-0">
<path clip-rule="nonzero" d="M 0 0 L 32 0 L 32 84 L 0 84 Z M 0 0 "/>
</clipPath>
<clipPath id="clip-1">
<rect x="0" y="0" width="32" height="84"/>
</clipPath>
<g id="source-587" clip-path="url(#clip-1)">
<g clip-path="url(#clip-0)">
<path fill="none" stroke-width="1" stroke-linecap="round" stroke-linejoin="miter" stroke="rgb(0%, 0%, 0%)" stroke-opacity="1" stroke-miterlimit="4" d="M 6.5 972.862183 L 25.5 972.862183 C 26.605469 972.862183 27.5 973.756714 27.5 974.862183 L 27.5 1044.862183 C 27.5 1045.967651 26.605469 1046.862183 25.5 1046.862183 L 6.5 1046.862183 C 5.394531 1046.862183 4.5 1045.967651 4.5 1044.862183 L 4.5 974.862183 C 4.5 973.756714 5.394531 972.862183 6.5 972.862183 Z M 6.5 972.862183 " transform="matrix(1, 0, 0, 1, 0, -968.362183)"/>
</g>
</g>
<clipPath id="clip-2">
<path clip-rule="nonzero" d="M 5 5 L 27 5 L 27 18 L 5 18 Z M 5 5 "/>
</clipPath>
<clipPath id="clip-3">
<path clip-rule="nonzero" d="M -4 18 L 36 18 C 36.828125 18 37.5 17.539062 37.5 16.972656 L 37.5 2.261719 C 37.5 1.695312 36.828125 1.238281 36 1.238281 L -4 1.238281 C -4.828125 1.238281 -5.5 1.695312 -5.5 2.261719 L -5.5 16.972656 C -5.5 17.539062 -4.828125 18 -4 18 Z M -4 18 "/>
</clipPath>
<mask id="mask-1">
<g filter="url(#filter-remove-color)">
<rect x="-8.4" y="-3.2" width="100.8" height="38.4" fill="rgb(0%, 0%, 0%)" fill-opacity="0.65"/>
</g>
</mask>
<mask id="mask-2">
<g filter="url(#filter-remove-color)">
<rect x="-18.48" y="-7.04" width="120.96" height="46.08" fill="rgb(0%, 0%, 0%)" fill-opacity="0.02"/>
</g>
</mask>
<clipPath id="clip-4">
<path clip-rule="nonzero" d="M 0 0 L 32 0 L 32 84 L 0 84 Z M 0 0 "/>
</clipPath>
<clipPath id="clip-5">
<rect x="0" y="0" width="32" height="84"/>
</clipPath>
<g id="source-594" clip-path="url(#clip-5)">
<g clip-path="url(#clip-4)">
<path fill="none" stroke-width="1" stroke-linecap="round" stroke-linejoin="miter" stroke="rgb(0%, 0%, 0%)" stroke-opacity="1" stroke-miterlimit="4" d="M 434.499939 362.499939 L 449.499939 362.499939 C 453.917908 362.499939 457.499939 366.08197 457.499939 370.499939 L 457.499939 437.499939 C 457.499939 441.917908 453.917908 445.499939 449.499939 445.499939 L 434.499939 445.499939 C 430.08197 445.499939 426.499939 441.917908 426.499939 437.499939 L 426.499939 370.499939 C 426.499939 366.08197 430.08197 362.499939 434.499939 362.499939 Z M 434.499939 362.499939 " transform="matrix(1, 0, 0, 1, -425.999939, -361.999939)"/>
</g>
</g>
<mask id="mask-3">
<g filter="url(#filter-remove-color)">
<rect x="-18.48" y="-7.04" width="120.96" height="46.08" fill="rgb(0%, 0%, 0%)" fill-opacity="0.07"/>
</g>
</mask>
<clipPath id="clip-6">
<path clip-rule="nonzero" d="M 0 0 L 32 0 L 32 84 L 0 84 Z M 0 0 "/>
</clipPath>
<clipPath id="clip-7">
<rect x="0" y="0" width="32" height="84"/>
</clipPath>
<g id="source-598" clip-path="url(#clip-7)">
<g clip-path="url(#clip-6)">
<path fill="none" stroke-width="1" stroke-linecap="round" stroke-linejoin="miter" stroke="rgb(0%, 0%, 0%)" stroke-opacity="1" stroke-miterlimit="4" d="M 434.499939 363.499939 L 449.499939 363.499939 C 453.367126 363.499939 456.499939 366.632751 456.499939 370.499939 L 456.499939 437.499939 C 456.499939 441.367126 453.367126 444.499939 449.499939 444.499939 L 434.499939 444.499939 C 430.632751 444.499939 427.499939 441.367126 427.499939 437.499939 L 427.499939 370.499939 C 427.499939 366.632751 430.632751 363.499939 434.499939 363.499939 Z M 434.499939 363.499939 " transform="matrix(1, 0, 0, 1, -425.999939, -361.999939)"/>
</g>
</g>
<mask id="mask-4">
<g filter="url(#filter-remove-color)">
<rect x="-18.48" y="-7.04" width="120.96" height="46.08" fill="rgb(0%, 0%, 0%)" fill-opacity="0.13"/>
</g>
</mask>
<clipPath id="clip-8">
<path clip-rule="nonzero" d="M 0 0 L 32 0 L 32 84 L 0 84 Z M 0 0 "/>
</clipPath>
<clipPath id="clip-9">
<rect x="0" y="0" width="32" height="84"/>
</clipPath>
<g id="source-602" clip-path="url(#clip-9)">
<g clip-path="url(#clip-8)">
<path fill="none" stroke-width="1" stroke-linecap="round" stroke-linejoin="miter" stroke="rgb(0%, 0%, 0%)" stroke-opacity="1" stroke-miterlimit="4" d="M 434.499939 364.499939 L 449.499939 364.499939 C 452.812439 364.499939 455.499939 367.187439 455.499939 370.499939 L 455.499939 437.499939 C 455.499939 440.812439 452.812439 443.499939 449.499939 443.499939 L 434.499939 443.499939 C 431.187439 443.499939 428.499939 440.812439 428.499939 437.499939 L 428.499939 370.499939 C 428.499939 367.187439 431.187439 364.499939 434.499939 364.499939 Z M 434.499939 364.499939 " transform="matrix(1, 0, 0, 1, -425.999939, -361.999939)"/>
</g>
</g>
<mask id="mask-5">
<g filter="url(#filter-remove-color)">
<rect x="-18.48" y="-7.04" width="120.96" height="46.08" fill="rgb(0%, 0%, 0%)" fill-opacity="0.2"/>
</g>
</mask>
<clipPath id="clip-10">
<path clip-rule="nonzero" d="M 0 0 L 32 0 L 32 84 L 0 84 Z M 0 0 "/>
</clipPath>
<clipPath id="clip-11">
<rect x="0" y="0" width="32" height="84"/>
</clipPath>
<g id="source-606" clip-path="url(#clip-11)">
<g clip-path="url(#clip-10)">
<path fill="none" stroke-width="1" stroke-linecap="round" stroke-linejoin="miter" stroke="rgb(0%, 0%, 0%)" stroke-opacity="1" stroke-miterlimit="4" d="M 434.499939 365.499939 L 449.499939 365.499939 C 452.261658 365.499939 454.499939 367.73822 454.499939 370.499939 L 454.499939 437.499939 C 454.499939 440.261658 452.261658 442.499939 449.499939 442.499939 L 434.499939 442.499939 C 431.73822 442.499939 429.499939 440.261658 429.499939 437.499939 L 429.499939 370.499939 C 429.499939 367.73822 431.73822 365.499939 434.499939 365.499939 Z M 434.499939 365.499939 " transform="matrix(1, 0, 0, 1, -425.999939, -361.999939)"/>
</g>
</g>
<mask id="mask-6">
<g filter="url(#filter-remove-color)">
<rect x="-18.48" y="-7.04" width="120.96" height="46.08" fill="rgb(0%, 0%, 0%)" fill-opacity="0.25"/>
</g>
</mask>
<clipPath id="clip-12">
<path clip-rule="nonzero" d="M 0 72 L 32 72 L 32 84 L 0 84 Z M 0 72 "/>
</clipPath>
<clipPath id="clip-13">
<rect x="0" y="0" width="32" height="84"/>
</clipPath>
<g id="source-610" clip-path="url(#clip-13)">
<g clip-path="url(#clip-12)">
<path fill="none" stroke-width="1" stroke-linecap="round" stroke-linejoin="miter" stroke="rgb(0%, 0%, 0%)" stroke-opacity="1" stroke-miterlimit="4" d="M 431.648376 440.304626 C 432.374939 441.042908 433.378845 441.499939 434.499939 441.499939 L 449.499939 441.499939 C 450.621033 441.499939 451.628845 441.042908 452.351501 440.304626 C 452.093689 440.42572 451.808533 440.499939 451.499939 440.499939 L 432.499939 440.499939 C 432.195251 440.499939 431.906189 440.42572 431.648376 440.304626 Z M 431.648376 440.304626 " transform="matrix(1, 0, 0, 1, -425.999939, -361.999939)"/>
</g>
</g>
<clipPath id="clip-14">
<rect x="0" y="0" width="32" height="84"/>
</clipPath>
<g id="source-612" clip-path="url(#clip-14)">
<g mask="url(#mask-2)">
<use xlink:href="#source-594"/>
</g>
<g mask="url(#mask-3)">
<use xlink:href="#source-598"/>
</g>
<g mask="url(#mask-4)">
<use xlink:href="#source-602"/>
</g>
<g mask="url(#mask-5)">
<use xlink:href="#source-606"/>
</g>
<g mask="url(#mask-6)">
<use xlink:href="#source-610"/>
</g>
</g>
</defs>
<g mask="url(#mask-0)">
<use xlink:href="#source-587"/>
</g>
<g clip-path="url(#clip-2)">
<g clip-path="url(#clip-3)">
<path fill-rule="nonzero" fill="rgb(19.607843%, 21.176471%, 26.666667%)" fill-opacity="1" d="M 6.398438 5 L 25.601562 5 C 26.375 5 27 5.628906 27 6.402344 L 27 17.96875 C 27 18.742188 26.375 19.367188 25.601562 19.367188 L 6.398438 19.367188 C 5.625 19.367188 5 18.742188 5 17.96875 L 5 6.402344 C 5 5.628906 5.625 5 6.398438 5 Z M 6.398438 5 "/>
</g>
</g>
<g mask="url(#mask-1)">
<use xlink:href="#source-612"/>
</g>
</svg>
