<?xml version="1.0" encoding="UTF-8"?>
<svg xmlns="http://www.w3.org/2000/svg" xmlns:xlink="http://www.w3.org/1999/xlink" width="16" height="16" viewBox="0 0 16 16">
<path fill-rule="nonzero" fill="rgb(87.058824%, 87.058824%, 87.058824%)" fill-opacity="1" d="M 4.667969 7.332031 C 4.113281 7.332031 4 7.632812 4 8 C 4 8.367188 4.113281 8.667969 4.667969 8.667969 C 4.703125 8.667969 4.738281 8.664062 4.773438 8.664062 C 4.796875 8.664062 4.824219 8.667969 4.847656 8.667969 L 11.152344 8.667969 C 11.175781 8.667969 11.199219 8.664062 11.226562 8.664062 C 11.261719 8.664062 11.296875 8.667969 11.332031 8.667969 C 11.886719 8.667969 12 8.367188 12 8 C 12 7.632812 11.886719 7.332031 11.332031 7.332031 C 11.296875 7.332031 11.261719 7.335938 11.226562 7.335938 C 11.203125 7.335938 11.175781 7.332031 11.152344 7.332031 L 4.847656 7.332031 C 4.824219 7.332031 4.800781 7.335938 4.773438 7.335938 C 4.738281 7.335938 4.703125 7.332031 4.667969 7.332031 Z M 4.667969 7.332031 "/>
<path fill-rule="nonzero" fill="rgb(87.058824%, 87.058824%, 87.058824%)" fill-opacity="1" d="M 0.117188 8.382812 L 3.113281 11.832031 C 3.304688 12.054688 3.613281 12.054688 3.808594 11.835938 C 4 11.617188 4 11.261719 3.808594 11.042969 L 1.15625 7.988281 L 3.828125 4.957031 C 4.019531 4.738281 4.023438 4.382812 3.832031 4.164062 C 3.640625 3.945312 3.328125 3.941406 3.136719 4.160156 L 0.117188 7.589844 C 0.0234375 7.699219 -0.0273438 7.839844 -0.0273438 7.984375 C -0.0273438 8.128906 0.0195312 8.269531 0.117188 8.378906 Z M 0.117188 8.382812 "/>
<path fill-rule="nonzero" fill="rgb(87.058824%, 87.058824%, 87.058824%)" fill-opacity="1" d="M 15.882812 7.617188 L 12.886719 4.167969 C 12.695312 3.945312 12.386719 3.945312 12.191406 4.164062 C 12 4.382812 12 4.738281 12.191406 4.957031 L 14.84375 8.011719 L 12.171875 11.042969 C 11.980469 11.261719 11.976562 11.617188 12.167969 11.835938 C 12.359375 12.054688 12.671875 12.058594 12.863281 11.839844 L 15.882812 8.410156 C 15.976562 8.300781 16.027344 8.160156 16.027344 8.015625 C 16.027344 7.871094 15.980469 7.730469 15.882812 7.621094 Z M 15.882812 7.617188 "/>
</svg>
