<?xml version="1.0" encoding="UTF-8"?>
<svg xmlns="http://www.w3.org/2000/svg" xmlns:xlink="http://www.w3.org/1999/xlink" width="32" height="32" viewBox="0 0 32 32">
<defs>
<filter id="filter-remove-color" x="0%" y="0%" width="100%" height="100%">
<feColorMatrix color-interpolation-filters="sRGB" values="0 0 0 0 1 0 0 0 0 1 0 0 0 0 1 0 0 0 1 0" />
</filter>
<mask id="mask-0">
<g filter="url(#filter-remove-color)">
<rect x="-3.2" y="-3.2" width="38.4" height="38.4" fill="rgb(0%, 0%, 0%)" fill-opacity="0.65"/>
</g>
</mask>
<mask id="mask-1">
<g filter="url(#filter-remove-color)">
<rect x="-7.04" y="-7.04" width="46.08" height="46.08" fill="rgb(0%, 0%, 0%)" fill-opacity="0.02"/>
</g>
</mask>
<clipPath id="clip-0">
<path clip-rule="nonzero" d="M 0 0 L 32 0 L 32 32 L 0 32 Z M 0 0 "/>
</clipPath>
<clipPath id="clip-1">
<rect x="0" y="0" width="32" height="32"/>
</clipPath>
<g id="source-17092" clip-path="url(#clip-1)">
<g clip-path="url(#clip-0)">
<path fill="none" stroke-width="1" stroke-linecap="round" stroke-linejoin="miter" stroke="rgb(0%, 0%, 0%)" stroke-opacity="1" stroke-miterlimit="4" d="M 434.499939 362.499939 L 449.499939 362.499939 C 453.917908 362.499939 457.499939 366.08197 457.499939 370.499939 L 457.499939 385.499939 C 457.499939 389.917908 453.917908 393.499939 449.499939 393.499939 L 434.499939 393.499939 C 430.08197 393.499939 426.499939 389.917908 426.499939 385.499939 L 426.499939 370.499939 C 426.499939 366.08197 430.08197 362.499939 434.499939 362.499939 Z M 434.499939 362.499939 " transform="matrix(1, 0, 0, 1, -425.999939, -361.999939)"/>
</g>
</g>
<mask id="mask-2">
<g filter="url(#filter-remove-color)">
<rect x="-7.04" y="-7.04" width="46.08" height="46.08" fill="rgb(0%, 0%, 0%)" fill-opacity="0.07"/>
</g>
</mask>
<clipPath id="clip-2">
<path clip-rule="nonzero" d="M 0 0 L 32 0 L 32 32 L 0 32 Z M 0 0 "/>
</clipPath>
<clipPath id="clip-3">
<rect x="0" y="0" width="32" height="32"/>
</clipPath>
<g id="source-17096" clip-path="url(#clip-3)">
<g clip-path="url(#clip-2)">
<path fill="none" stroke-width="1" stroke-linecap="round" stroke-linejoin="miter" stroke="rgb(0%, 0%, 0%)" stroke-opacity="1" stroke-miterlimit="4" d="M 434.499939 363.499939 L 449.499939 363.499939 C 453.367126 363.499939 456.499939 366.632751 456.499939 370.499939 L 456.499939 385.499939 C 456.499939 389.367126 453.367126 392.499939 449.499939 392.499939 L 434.499939 392.499939 C 430.632751 392.499939 427.499939 389.367126 427.499939 385.499939 L 427.499939 370.499939 C 427.499939 366.632751 430.632751 363.499939 434.499939 363.499939 Z M 434.499939 363.499939 " transform="matrix(1, 0, 0, 1, -425.999939, -361.999939)"/>
</g>
</g>
<mask id="mask-3">
<g filter="url(#filter-remove-color)">
<rect x="-7.04" y="-7.04" width="46.08" height="46.08" fill="rgb(0%, 0%, 0%)" fill-opacity="0.13"/>
</g>
</mask>
<clipPath id="clip-4">
<path clip-rule="nonzero" d="M 0 0 L 32 0 L 32 32 L 0 32 Z M 0 0 "/>
</clipPath>
<clipPath id="clip-5">
<rect x="0" y="0" width="32" height="32"/>
</clipPath>
<g id="source-17100" clip-path="url(#clip-5)">
<g clip-path="url(#clip-4)">
<path fill="none" stroke-width="1" stroke-linecap="round" stroke-linejoin="miter" stroke="rgb(0%, 0%, 0%)" stroke-opacity="1" stroke-miterlimit="4" d="M 434.499939 364.499939 L 449.499939 364.499939 C 452.812439 364.499939 455.499939 367.187439 455.499939 370.499939 L 455.499939 385.499939 C 455.499939 388.812439 452.812439 391.499939 449.499939 391.499939 L 434.499939 391.499939 C 431.187439 391.499939 428.499939 388.812439 428.499939 385.499939 L 428.499939 370.499939 C 428.499939 367.187439 431.187439 364.499939 434.499939 364.499939 Z M 434.499939 364.499939 " transform="matrix(1, 0, 0, 1, -425.999939, -361.999939)"/>
</g>
</g>
<mask id="mask-4">
<g filter="url(#filter-remove-color)">
<rect x="-7.04" y="-7.04" width="46.08" height="46.08" fill="rgb(0%, 0%, 0%)" fill-opacity="0.2"/>
</g>
</mask>
<clipPath id="clip-6">
<path clip-rule="nonzero" d="M 0 0 L 32 0 L 32 32 L 0 32 Z M 0 0 "/>
</clipPath>
<clipPath id="clip-7">
<rect x="0" y="0" width="32" height="32"/>
</clipPath>
<g id="source-17104" clip-path="url(#clip-7)">
<g clip-path="url(#clip-6)">
<path fill="none" stroke-width="1" stroke-linecap="round" stroke-linejoin="miter" stroke="rgb(0%, 0%, 0%)" stroke-opacity="1" stroke-miterlimit="4" d="M 434.499939 365.499939 L 449.499939 365.499939 C 452.261658 365.499939 454.499939 367.73822 454.499939 370.499939 L 454.499939 385.499939 C 454.499939 388.261658 452.261658 390.499939 449.499939 390.499939 L 434.499939 390.499939 C 431.73822 390.499939 429.499939 388.261658 429.499939 385.499939 L 429.499939 370.499939 C 429.499939 367.73822 431.73822 365.499939 434.499939 365.499939 Z M 434.499939 365.499939 " transform="matrix(1, 0, 0, 1, -425.999939, -361.999939)"/>
</g>
</g>
<mask id="mask-5">
<g filter="url(#filter-remove-color)">
<rect x="-7.04" y="-7.04" width="46.08" height="46.08" fill="rgb(0%, 0%, 0%)" fill-opacity="0.25"/>
</g>
</mask>
<clipPath id="clip-8">
<path clip-rule="nonzero" d="M 0 20 L 32 20 L 32 32 L 0 32 Z M 0 20 "/>
</clipPath>
<clipPath id="clip-9">
<rect x="0" y="0" width="32" height="32"/>
</clipPath>
<g id="source-17108" clip-path="url(#clip-9)">
<g clip-path="url(#clip-8)">
<path fill="none" stroke-width="1" stroke-linecap="round" stroke-linejoin="miter" stroke="rgb(0%, 0%, 0%)" stroke-opacity="1" stroke-miterlimit="4" d="M 431.648438 388.304626 C 432.375 389.042908 433.378906 389.499939 434.5 389.499939 L 449.5 389.499939 C 450.621094 389.499939 451.628906 389.042908 452.351562 388.304626 C 452.09375 388.42572 451.808594 388.499939 451.5 388.499939 L 432.5 388.499939 C 432.195312 388.499939 431.90625 388.42572 431.648438 388.304626 Z M 431.648438 388.304626 " transform="matrix(1, 0, 0, 1, -426, -361.999939)"/>
</g>
</g>
<clipPath id="clip-10">
<rect x="0" y="0" width="32" height="32"/>
</clipPath>
<g id="source-17110" clip-path="url(#clip-10)">
<g mask="url(#mask-1)">
<use xlink:href="#source-17092"/>
</g>
<g mask="url(#mask-2)">
<use xlink:href="#source-17096"/>
</g>
<g mask="url(#mask-3)">
<use xlink:href="#source-17100"/>
</g>
<g mask="url(#mask-4)">
<use xlink:href="#source-17104"/>
</g>
<g mask="url(#mask-5)">
<use xlink:href="#source-17108"/>
</g>
</g>
</defs>
<path fill="none" stroke-width="1" stroke-linecap="round" stroke-linejoin="miter" stroke="rgb(13.72549%, 15.686275%, 19.215686%)" stroke-opacity="1" stroke-miterlimit="4" d="M 6.5 1024.862183 L 25.5 1024.862183 C 26.605469 1024.862183 27.5 1025.756714 27.5 1026.862183 L 27.5 1044.862183 C 27.5 1045.967651 26.605469 1046.862183 25.5 1046.862183 L 6.5 1046.862183 C 5.394531 1046.862183 4.5 1045.967651 4.5 1044.862183 L 4.5 1026.862183 C 4.5 1025.756714 5.394531 1024.862183 6.5 1024.862183 Z M 6.5 1024.862183 " transform="matrix(1, 0, 0, 1, 0, -1020.362183)"/>
<path fill-rule="nonzero" fill="rgb(11.764706%, 12.156863%, 16.078431%)" fill-opacity="1" d="M 6.398438 5 L 25.601562 5 C 26.375 5 27 5.625 27 6.398438 L 27 24.601562 C 27 25.375 26.375 26 25.601562 26 L 6.398438 26 C 5.625 26 5 25.375 5 24.601562 L 5 6.398438 C 5 5.625 5.625 5 6.398438 5 Z M 6.398438 5 "/>
<g mask="url(#mask-0)">
<use xlink:href="#source-17110"/>
</g>
</svg>
