<?xml version="1.0" encoding="UTF-8"?>
<svg xmlns="http://www.w3.org/2000/svg" xmlns:xlink="http://www.w3.org/1999/xlink" width="22" height="22" viewBox="0 0 22 22">
<path fill-rule="nonzero" fill="rgb(44.705882%, 44.705882%, 44.705882%)" fill-opacity="1" d="M 4 4 C 3.445312 4 3 4.445312 3 5 L 3 9 C 3 9.554688 3.445312 10 4 10 L 5 10 L 5 11 L 4 11 C 3.445312 11 3 11.445312 3 12 L 3 16 C 3 16.554688 3.445312 17 4 17 L 5 17 L 5 18 L 6 18 L 6 17 L 16 17 L 16 18 L 17 18 L 17 17 L 18 17 C 18.554688 17 19 16.554688 19 16 L 19 12 C 19 11.445312 18.554688 11 18 11 L 17 11 L 17 10 L 18 10 C 18.554688 10 19 9.554688 19 9 L 19 5 C 19 4.445312 18.554688 4 18 4 Z M 16 6 C 16.550781 6 17 6.449219 17 7 C 17 7.550781 16.550781 8 16 8 C 15.449219 8 15 7.550781 15 7 C 15 6.449219 15.449219 6 16 6 Z M 6 10 L 16 10 L 16 11 L 6 11 Z M 16 13 C 16.550781 13 17 13.449219 17 14 C 17 14.550781 16.550781 15 16 15 C 15.449219 15 15 14.550781 15 14 C 15 13.449219 15.449219 13 16 13 Z M 16 13 "/>
</svg>
