<?xml version="1.0" encoding="UTF-8"?>
<svg xmlns="http://www.w3.org/2000/svg" xmlns:xlink="http://www.w3.org/1999/xlink" width="22" height="22" viewBox="0 0 22 22">
<path fill-rule="nonzero" fill="rgb(44.705882%, 44.705882%, 44.705882%)" fill-opacity="1" d="M 6 4 C 5 4 5 5 5 5 L 5 17 C 5 17 5 18 6 18 L 16 18 C 16 18 17 18 17 17 L 17 5 C 17 5 17 4 16 4 Z M 11 6 C 16.332031 6 16.332031 14 11 14 L 7 14 L 7 10 C 7 7.789062 8.789062 6 11 6 Z M 10.996094 7 C 10.929688 7 10.859375 7.003906 10.792969 7.011719 C 9.773438 7.117188 9 7.976562 8.996094 9 L 9 10 L 8 10 L 8 13 L 11 13 C 12.636719 13 13.96875 11.6875 13.996094 10.050781 L 13.996094 10 L 12.996094 10 L 12.996094 9 C 12.996094 7.949219 12.1875 7.078125 11.136719 7.007812 C 11.089844 7.003906 11.042969 7 10.996094 7 Z M 10.996094 8 C 11.550781 8 11.996094 8.449219 11.996094 9 L 11.996094 10 L 9.996094 10 L 9.996094 9 C 9.996094 8.449219 10.445312 8 10.996094 8 Z M 10.996094 8 "/>
</svg>
