<?xml version="1.0" encoding="UTF-8"?>
<svg xmlns="http://www.w3.org/2000/svg" xmlns:xlink="http://www.w3.org/1999/xlink" width="22" height="22" viewBox="0 0 22 22">
<path fill-rule="nonzero" fill="rgb(44.705882%, 44.705882%, 44.705882%)" fill-opacity="1" d="M 6 4 C 5 4 5 5 5 5 L 5 17 C 5 17 5 18 6 18 L 16 18 C 16 18 17 18 17 17 L 17 5 C 17 5 17 4 16 4 Z M 11 6 C 16.332031 6 16.332031 14 11 14 L 7 14 L 7 10 C 7 7.789062 8.789062 6 11 6 Z M 11 7 L 8 13 L 9 13 L 12 7 Z M 11 12 L 11 13 L 13 13 L 13 12 Z M 11 12 "/>
</svg>
