<?xml version="1.0" encoding="UTF-8"?>
<svg xmlns="http://www.w3.org/2000/svg" xmlns:xlink="http://www.w3.org/1999/xlink" width="22" height="22" viewBox="0 0 22 22">
<path fill-rule="nonzero" fill="rgb(44.705882%, 44.705882%, 44.705882%)" fill-opacity="1" d="M 10.996094 3 L 8.496094 7 L 9.996094 7 L 9.996094 12 L 6.996094 12 L 6.996094 10.726562 C 7.613281 10.371094 7.992188 9.714844 7.996094 9 C 7.996094 7.894531 7.097656 7 5.996094 7 C 4.890625 7 3.996094 7.894531 3.996094 9 C 3.996094 9.714844 4.375 10.375 4.996094 10.730469 L 4.996094 12 C 4.996094 14 6.996094 14 6.996094 14 L 9.996094 14 L 9.996094 15.273438 C 9.378906 15.628906 8.996094 16.285156 8.996094 17 C 8.996094 18.105469 9.890625 19 10.996094 19 C 12.097656 19 12.996094 18.105469 12.996094 17 C 12.996094 16.285156 12.613281 15.625 11.996094 15.269531 L 11.996094 14 L 14.996094 14 C 14.996094 14 16.996094 14 16.996094 12 L 16.996094 11 C 16.996094 11 18.121094 10.8125 17.996094 10 L 17.996094 8 C 18.121094 6.875 16.996094 7 16.996094 7 L 14.996094 7 C 13.933594 7 13.996094 8 13.996094 8 L 13.996094 10 C 13.996094 11 14.996094 11 14.996094 11 L 14.996094 12 L 11.996094 12 L 11.996094 7 L 13.496094 7 Z M 10.996094 3 "/>
</svg>
