<?xml version="1.0" encoding="UTF-8"?>
<svg xmlns="http://www.w3.org/2000/svg" xmlns:xlink="http://www.w3.org/1999/xlink" width="22" height="22" viewBox="0 0 22 22">
<defs>
<filter id="filter-remove-color" x="0%" y="0%" width="100%" height="100%">
<feColorMatrix color-interpolation-filters="sRGB" values="0 0 0 0 1 0 0 0 0 1 0 0 0 0 1 0 0 0 1 0" />
</filter>
<mask id="mask-0">
<g filter="url(#filter-remove-color)">
<rect x="-2.2" y="-2.2" width="26.4" height="26.4" fill="rgb(0%, 0%, 0%)" fill-opacity="0.2"/>
</g>
</mask>
<clipPath id="clip-0">
<rect x="0" y="0" width="6" height="6"/>
</clipPath>
<g id="source-5063" clip-path="url(#clip-0)">
<path fill-rule="nonzero" fill="rgb(0%, 0%, 0%)" fill-opacity="1" d="M 1.320312 2.117188 L 1.320312 2.382812 L 2.644531 2.382812 L 2.644531 2.117188 Z M 1.320312 2.648438 L 1.320312 2.910156 L 3.441406 2.910156 L 3.441406 2.644531 Z M 1.320312 3.175781 L 1.320312 3.441406 L 3.441406 3.441406 L 3.441406 3.175781 Z M 1.320312 3.703125 L 1.320312 3.96875 L 3.441406 3.96875 L 3.441406 3.703125 Z M 1.320312 3.703125 "/>
</g>
</defs>
<path fill="none" stroke-width="0.529" stroke-linecap="square" stroke-linejoin="miter" stroke="rgb(100%, 100%, 100%)" stroke-opacity="1" stroke-miterlimit="4" d="M 1.917969 3.101562 L 2.515625 3.695312 L 3.902344 2.109375 "/>
<path fill-rule="nonzero" fill="rgb(84.705882%, 84.705882%, 84.705882%)" fill-opacity="1" d="M 5.289062 4.496094 L 5.289062 0.53125 C 5.289062 0.382812 5.171875 0.265625 5.027344 0.265625 L 1.851562 0.265625 C 1.707031 0.265625 1.585938 0.382812 1.585938 0.53125 L 1.585938 4.496094 C 1.585938 4.644531 1.707031 4.761719 1.851562 4.761719 L 5.027344 4.761719 C 5.171875 4.761719 5.289062 4.644531 5.289062 4.496094 Z M 5.289062 4.496094 "/>
<path fill-rule="nonzero" fill="rgb(94.901961%, 94.901961%, 94.901961%)" fill-opacity="1" d="M 4.230469 5.292969 L 4.230469 1.324219 C 4.230469 1.175781 4.113281 1.058594 3.96875 1.058594 L 0.792969 1.058594 C 0.648438 1.058594 0.527344 1.175781 0.527344 1.324219 L 0.527344 5.292969 C 0.527344 5.4375 0.648438 5.558594 0.792969 5.558594 L 3.96875 5.558594 C 4.113281 5.558594 4.230469 5.4375 4.230469 5.292969 Z M 4.230469 5.292969 "/>
<g mask="url(#mask-0)">
<use xlink:href="#source-5063"/>
</g>
</svg>
