<?xml version="1.0" encoding="UTF-8"?>
<svg xmlns="http://www.w3.org/2000/svg" xmlns:xlink="http://www.w3.org/1999/xlink" width="22" height="22" viewBox="0 0 22 22">
<path fill-rule="nonzero" fill="rgb(24.705882%, 31.764706%, 70.980392%)" fill-opacity="1" d="M 5.027344 2.910156 C 5.027344 1.742188 4.078125 0.792969 2.910156 0.792969 C 1.742188 0.792969 0.792969 1.742188 0.792969 2.910156 C 0.792969 4.078125 1.742188 5.027344 2.910156 5.027344 C 4.078125 5.027344 5.027344 4.078125 5.027344 2.910156 Z M 5.027344 2.910156 "/>
<path fill-rule="nonzero" fill="rgb(100%, 100%, 100%)" fill-opacity="1" d="M 3.242188 1.585938 L 3.269531 1.933594 C 3.382812 1.976562 3.484375 2.035156 3.574219 2.109375 L 3.890625 1.960938 L 4.222656 2.535156 L 3.933594 2.734375 C 3.945312 2.792969 3.949219 2.851562 3.949219 2.910156 C 3.949219 2.96875 3.945312 3.027344 3.933594 3.085938 L 4.222656 3.285156 L 3.890625 3.855469 L 3.574219 3.710938 C 3.484375 3.785156 3.378906 3.84375 3.269531 3.882812 L 3.242188 4.234375 L 2.578125 4.234375 L 2.550781 3.882812 C 2.441406 3.84375 2.335938 3.785156 2.246094 3.707031 L 1.929688 3.859375 L 1.601562 3.285156 L 1.886719 3.085938 C 1.875 3.027344 1.871094 2.96875 1.871094 2.910156 C 1.871094 2.851562 1.875 2.792969 1.886719 2.734375 L 1.597656 2.535156 L 1.929688 1.960938 L 2.246094 2.109375 C 2.335938 2.035156 2.441406 1.976562 2.550781 1.9375 L 2.578125 1.585938 Z M 2.910156 2.46875 C 2.667969 2.46875 2.46875 2.664062 2.46875 2.910156 C 2.46875 3.027344 2.515625 3.136719 2.597656 3.222656 C 2.679688 3.304688 2.792969 3.351562 2.910156 3.351562 C 3.152344 3.351562 3.351562 3.152344 3.351562 2.910156 C 3.351562 2.667969 3.152344 2.46875 2.910156 2.46875 Z M 2.910156 2.46875 "/>
</svg>
