<?xml version="1.0" encoding="UTF-8"?>
<svg xmlns="http://www.w3.org/2000/svg" xmlns:xlink="http://www.w3.org/1999/xlink" width="22" height="22" viewBox="0 0 22 22">
<path fill-rule="nonzero" fill="rgb(89.803922%, 22.352941%, 20.784314%)" fill-opacity="1" d="M 5.027344 2.910156 C 5.027344 1.742188 4.078125 0.792969 2.910156 0.792969 C 1.742188 0.792969 0.792969 1.742188 0.792969 2.910156 C 0.792969 4.078125 1.742188 5.027344 2.910156 5.027344 C 4.078125 5.027344 5.027344 4.078125 5.027344 2.910156 Z M 5.027344 2.910156 "/>
<path fill-rule="nonzero" fill="rgb(100%, 100%, 100%)" fill-opacity="1" d="M 4.496094 2.910156 C 4.496094 3.785156 3.785156 4.496094 2.910156 4.496094 C 2.035156 4.496094 1.324219 3.785156 1.324219 2.910156 C 1.324219 2.035156 2.035156 1.324219 2.910156 1.324219 C 3.785156 1.324219 4.496094 2.035156 4.496094 2.910156 Z M 4.496094 2.910156 "/>
<path fill-rule="nonzero" fill="rgb(89.803922%, 22.352941%, 20.784314%)" fill-opacity="1" d="M 2.644531 1.851562 L 2.644531 3.175781 L 3.175781 3.175781 L 3.175781 1.851562 Z M 2.644531 3.4375 L 2.644531 3.96875 L 3.175781 3.96875 L 3.175781 3.4375 Z M 2.644531 3.4375 "/>
</svg>
