<?xml version="1.0" encoding="UTF-8"?>
<svg xmlns="http://www.w3.org/2000/svg" xmlns:xlink="http://www.w3.org/1999/xlink" width="22" height="22" viewBox="0 0 22 22">
<path fill-rule="nonzero" fill="rgb(50.196078%, 50.196078%, 50.196078%)" fill-opacity="1" d="M 2.910156 0.792969 L 0.890625 2.097656 L 0.878906 2.105469 L 0.875 2.109375 C 0.824219 2.148438 0.792969 2.210938 0.792969 2.273438 L 0.792969 4.285156 C 0.792969 4.402344 0.886719 4.496094 1.003906 4.496094 L 4.816406 4.496094 C 4.871094 4.5 4.925781 4.476562 4.964844 4.4375 C 5.003906 4.394531 5.027344 4.34375 5.027344 4.285156 L 5.027344 2.273438 C 5.027344 2.207031 4.996094 2.144531 4.941406 2.105469 L 2.910156 0.796875 Z M 2.910156 0.792969 "/>
<path fill-rule="nonzero" fill="rgb(97.647059%, 97.647059%, 97.647059%)" fill-opacity="1" d="M 1.324219 1.324219 L 4.496094 1.324219 L 4.496094 3.96875 L 1.324219 3.96875 Z M 1.324219 1.324219 "/>
<path fill-rule="nonzero" fill="rgb(60%, 60%, 60%)" fill-opacity="1" d="M 0.792969 2.273438 L 4.816406 5.027344 L 1.019531 5.027344 C 1.003906 5.027344 0.792969 5.027344 0.792969 4.800781 Z M 0.792969 2.273438 "/>
<path fill-rule="nonzero" fill="rgb(70.196078%, 70.196078%, 70.196078%)" fill-opacity="1" d="M 4.800781 5.027344 C 5.027344 5.027344 5.027344 4.800781 5.027344 4.800781 L 5.027344 2.273438 L 1.003906 5.027344 Z M 4.800781 5.027344 "/>
</svg>
