<?xml version="1.0" encoding="UTF-8"?>
<svg xmlns="http://www.w3.org/2000/svg" xmlns:xlink="http://www.w3.org/1999/xlink" width="22" height="22" viewBox="0 0 22 22">
<path fill-rule="nonzero" fill="rgb(74.901961%, 47.843137%, 83.529412%)" fill-opacity="1" d="M 5.027344 2.910156 C 5.027344 1.742188 4.078125 0.792969 2.910156 0.792969 C 1.742188 0.792969 0.792969 1.742188 0.792969 2.910156 C 0.792969 4.078125 1.742188 5.027344 2.910156 5.027344 C 4.078125 5.027344 5.027344 4.078125 5.027344 2.910156 Z M 5.027344 2.910156 "/>
<path fill-rule="nonzero" fill="rgb(100%, 100%, 100%)" fill-opacity="1" d="M 2.910156 1.621094 L 4.195312 2.511719 L 2.910156 3.40625 L 2.910156 2.910156 L 2.777344 2.910156 C 2.507812 2.910156 2.269531 3.085938 2.195312 3.308594 C 2.109375 3.574219 2.480469 4.101562 2.480469 4.101562 C 2.480469 4.101562 1.6875 3.804688 1.6875 3.15625 C 1.6875 2.539062 2.085938 2.117188 2.679688 2.117188 L 2.910156 2.117188 Z M 2.910156 1.621094 "/>
</svg>
