<?xml version="1.0" encoding="UTF-8"?>
<svg xmlns="http://www.w3.org/2000/svg" xmlns:xlink="http://www.w3.org/1999/xlink" width="22" height="22" viewBox="0 0 22 22">
<path fill-rule="nonzero" fill="rgb(100%, 59.607843%, 0%)" fill-opacity="1" d="M 5.027344 2.910156 C 5.027344 1.742188 4.078125 0.792969 2.910156 0.792969 C 1.742188 0.792969 0.792969 1.742188 0.792969 2.910156 C 0.792969 4.078125 1.742188 5.027344 2.910156 5.027344 C 4.078125 5.027344 5.027344 4.078125 5.027344 2.910156 Z M 5.027344 2.910156 "/>
<path fill-rule="nonzero" fill="rgb(100%, 100%, 100%)" fill-opacity="1" d="M 1.851562 2.644531 L 3.96875 2.644531 L 3.96875 3.96875 L 1.851562 3.96875 Z M 1.851562 2.644531 "/>
<path fill="none" stroke-width="0.265" stroke-linecap="butt" stroke-linejoin="round" stroke="rgb(100%, 100%, 100%)" stroke-opacity="1" stroke-miterlimit="4" d="M -1.058844 291.31076 C -0.691656 291.31076 -0.398688 291.607635 -0.398688 291.970917 L -0.398688 292.502167 C -0.398688 292.865448 -0.691656 293.162323 -1.058844 293.162323 C -1.422125 293.162323 -1.719 292.865448 -1.719 292.502167 L -1.719 291.970917 C -1.719 291.607635 -1.422125 291.31076 -1.058844 291.31076 Z M -1.058844 291.31076 " transform="matrix(1, 0, 0, 1, 3.969, -289.59201)"/>
</svg>
