<?xml version="1.0" encoding="UTF-8"?>
<svg xmlns="http://www.w3.org/2000/svg" xmlns:xlink="http://www.w3.org/1999/xlink" width="22" height="22" viewBox="0 0 22 22">
<path fill-rule="nonzero" fill="rgb(40.392157%, 22.745098%, 71.764706%)" fill-opacity="1" d="M 5.027344 2.910156 C 5.027344 1.742188 4.082031 0.792969 2.910156 0.792969 C 1.742188 0.792969 0.796875 1.742188 0.796875 2.910156 C 0.796875 4.078125 1.742188 5.027344 2.910156 5.027344 C 4.082031 5.027344 5.027344 4.078125 5.027344 2.910156 Z M 5.027344 2.910156 "/>
<path fill-rule="nonzero" fill="rgb(100%, 100%, 100%)" fill-opacity="1" d="M 3.308594 1.851562 C 3.089844 1.851562 2.910156 2.03125 2.910156 2.25 C 2.910156 2.277344 2.917969 2.308594 2.925781 2.335938 L 2.496094 2.601562 C 2.335938 2.46875 2.101562 2.488281 1.960938 2.640625 C 1.816406 2.792969 1.816406 3.027344 1.960938 3.179688 C 2.101562 3.332031 2.335938 3.351562 2.496094 3.21875 L 2.925781 3.484375 C 2.917969 3.511719 2.910156 3.542969 2.910156 3.570312 C 2.910156 3.757812 3.039062 3.917969 3.21875 3.957031 C 3.398438 4 3.585938 3.910156 3.664062 3.746094 C 3.746094 3.578125 3.699219 3.378906 3.554688 3.261719 C 3.410156 3.144531 3.207031 3.144531 3.0625 3.261719 L 2.632812 2.996094 C 2.640625 2.96875 2.644531 2.9375 2.648438 2.910156 C 2.644531 2.878906 2.640625 2.851562 2.632812 2.824219 L 3.058594 2.558594 C 3.195312 2.667969 3.386719 2.675781 3.53125 2.578125 C 3.675781 2.480469 3.738281 2.296875 3.6875 2.132812 C 3.636719 1.964844 3.480469 1.851562 3.308594 1.851562 Z M 3.308594 1.851562 "/>
</svg>
