<?xml version="1.0" encoding="UTF-8"?>
<svg xmlns="http://www.w3.org/2000/svg" xmlns:xlink="http://www.w3.org/1999/xlink" width="22" height="22" viewBox="0 0 22 22">
<path fill-rule="nonzero" fill="rgb(0%, 67.45098%, 75.686275%)" fill-opacity="1" d="M 5.027344 2.910156 C 5.027344 1.742188 4.078125 0.792969 2.910156 0.792969 C 1.742188 0.792969 0.792969 1.742188 0.792969 2.910156 C 0.792969 4.078125 1.742188 5.027344 2.910156 5.027344 C 4.078125 5.027344 5.027344 4.078125 5.027344 2.910156 Z M 5.027344 2.910156 "/>
<path fill-rule="nonzero" fill="rgb(100%, 100%, 100%)" fill-opacity="1" d="M 2.910156 1.585938 C 2.179688 1.585938 1.585938 2.179688 1.585938 2.910156 L 1.324219 2.910156 L 1.71875 3.570312 L 2.117188 2.910156 L 1.851562 2.910156 C 1.851562 2.554688 2.027344 2.226562 2.320312 2.027344 C 2.617188 1.832031 2.988281 1.796875 3.316406 1.933594 C 3.382812 1.960938 3.460938 1.929688 3.488281 1.859375 C 3.515625 1.792969 3.484375 1.714844 3.417969 1.6875 C 3.257812 1.621094 3.085938 1.585938 2.910156 1.589844 Z M 4.101562 2.246094 L 3.703125 2.910156 L 3.96875 2.910156 C 3.96875 3.261719 3.792969 3.59375 3.5 3.789062 C 3.203125 3.984375 2.832031 4.023438 2.507812 3.886719 C 2.4375 3.859375 2.359375 3.890625 2.332031 3.960938 C 2.304688 4.027344 2.335938 4.105469 2.402344 4.132812 L 2.417969 4.136719 C 2.824219 4.300781 3.289062 4.25 3.652344 4.003906 C 4.015625 3.757812 4.234375 3.347656 4.234375 2.910156 L 4.496094 2.910156 Z M 4.101562 2.246094 "/>
</svg>
