<?xml version="1.0" encoding="UTF-8"?>
<svg xmlns="http://www.w3.org/2000/svg" xmlns:xlink="http://www.w3.org/1999/xlink" width="26" height="26" viewBox="0 0 26 26">
<defs>
<filter id="filter-remove-color" x="0%" y="0%" width="100%" height="100%">
<feColorMatrix color-interpolation-filters="sRGB" values="0 0 0 0 1 0 0 0 0 1 0 0 0 0 1 0 0 0 1 0" />
</filter>
<mask id="mask-0">
<g filter="url(#filter-remove-color)">
<rect x="-2.6" y="-2.6" width="31.2" height="31.2" fill="rgb(0%, 0%, 0%)" fill-opacity="0.1"/>
</g>
</mask>
<clipPath id="clip-0">
<rect x="0" y="0" width="19" height="19"/>
</clipPath>
<g id="source-701" clip-path="url(#clip-0)">
<path fill-rule="nonzero" fill="rgb(0%, 0%, 0%)" fill-opacity="1" d="M 17.453125 10.183594 C 17.453125 14.601562 13.871094 18.183594 9.453125 18.183594 C 5.035156 18.183594 1.453125 14.601562 1.453125 10.183594 C 1.453125 5.761719 5.035156 2.183594 9.453125 2.183594 C 13.871094 2.183594 17.453125 5.761719 17.453125 10.183594 Z M 17.453125 10.183594 "/>
</g>
</defs>
<g mask="url(#mask-0)">
<use xlink:href="#source-701"/>
</g>
<path fill-rule="nonzero" fill="rgb(96.862745%, 35.294118%, 38.039216%)" fill-opacity="1" d="M 17.453125 9.453125 C 17.453125 13.871094 13.871094 17.453125 9.453125 17.453125 C 5.035156 17.453125 1.453125 13.871094 1.453125 9.453125 C 1.453125 5.035156 5.035156 1.453125 9.453125 1.453125 C 13.871094 1.453125 17.453125 5.035156 17.453125 9.453125 Z M 17.453125 9.453125 "/>
<path fill-rule="nonzero" fill="rgb(100%, 100%, 100%)" fill-opacity="1" d="M 6.550781 6.574219 L 7.277344 6.574219 C 7.285156 6.574219 7.292969 6.574219 7.300781 6.574219 C 7.488281 6.582031 7.671875 6.667969 7.800781 6.800781 L 9.460938 8.460938 L 11.140625 6.800781 C 11.335938 6.632812 11.46875 6.578125 11.640625 6.574219 L 12.371094 6.574219 L 12.371094 7.300781 C 12.371094 7.507812 12.34375 7.699219 12.1875 7.84375 L 10.527344 9.503906 L 12.164062 11.140625 C 12.300781 11.277344 12.371094 11.46875 12.371094 11.664062 L 12.371094 12.390625 L 11.640625 12.390625 C 11.449219 12.390625 11.257812 12.324219 11.121094 12.1875 L 9.460938 10.527344 L 7.800781 12.1875 C 7.664062 12.324219 7.472656 12.390625 7.277344 12.390625 L 6.550781 12.390625 L 6.550781 11.664062 C 6.550781 11.46875 6.617188 11.277344 6.753906 11.140625 L 8.414062 9.503906 L 6.753906 7.84375 C 6.601562 7.703125 6.535156 7.503906 6.550781 7.300781 Z M 6.550781 6.574219 "/>
</svg>
