<?xml version="1.0" encoding="UTF-8"?>
<svg xmlns="http://www.w3.org/2000/svg" xmlns:xlink="http://www.w3.org/1999/xlink" width="22.999983" height="32.000011" viewBox="0 0 22.999983 32.000011">
<defs>
<filter id="filter-remove-color" x="0%" y="0%" width="100%" height="100%">
<feColorMatrix color-interpolation-filters="sRGB" values="0 0 0 0 1 0 0 0 0 1 0 0 0 0 1 0 0 0 1 0" />
</filter>
<clipPath id="clip-0">
<path clip-rule="nonzero" d="M 0 0 L 23 0 L 23 23 L 0 23 Z M 0 0 "/>
</clipPath>
<mask id="mask-0">
<g filter="url(#filter-remove-color)">
<rect x="-2.299998" y="-3.200001" width="27.599979" height="38.400014" fill="rgb(0%, 0%, 0%)" fill-opacity="0.95"/>
</g>
</mask>
<clipPath id="clip-1">
<path clip-rule="nonzero" d="M 5 0 L 27 0 L 27 18 L 5 18 Z M 5 0 "/>
</clipPath>
<clipPath id="clip-2">
<rect x="0" y="0" width="33" height="23"/>
</clipPath>
<g id="source-4857" clip-path="url(#clip-2)">
<g clip-path="url(#clip-1)">
<path fill-rule="nonzero" fill="rgb(11.764706%, 12.156863%, 16.078431%)" fill-opacity="1" d="M 6.398438 -3.800781 L 25.601562 -3.800781 C 26.375 -3.800781 27 -3.171875 27 -2.398438 L 27 15.800781 C 27 16.574219 26.375 17.199219 25.601562 17.199219 L 6.398438 17.199219 C 5.625 17.199219 5 16.574219 5 15.800781 L 5 -2.398438 C 5 -3.171875 5.625 -3.800781 6.398438 -3.800781 Z M 6.398438 -3.800781 "/>
</g>
</g>
<mask id="mask-1">
<g filter="url(#filter-remove-color)">
<rect x="-2.299998" y="-3.200001" width="27.599979" height="38.400014" fill="rgb(0%, 0%, 0%)" fill-opacity="0.75"/>
</g>
</mask>
<mask id="mask-2">
<g filter="url(#filter-remove-color)">
<rect x="-5.059996" y="-7.040003" width="33.119975" height="46.080016" fill="rgb(0%, 0%, 0%)" fill-opacity="0.02"/>
</g>
</mask>
<clipPath id="clip-3">
<path clip-rule="nonzero" d="M 0 0 L 33 0 L 33 23 L 0 23 Z M 0 0 "/>
</clipPath>
<clipPath id="clip-4">
<rect x="0" y="0" width="33" height="23"/>
</clipPath>
<g id="source-4862" clip-path="url(#clip-4)">
<g clip-path="url(#clip-3)">
<path fill="none" stroke-width="1" stroke-linecap="round" stroke-linejoin="miter" stroke="rgb(0%, 0%, 0%)" stroke-opacity="1" stroke-miterlimit="4" d="M 434.499928 362.499174 L 449.499928 362.499174 C 453.917897 362.499174 457.499928 366.081205 457.499928 370.499174 L 457.499928 385.499174 C 457.499928 389.917143 453.917897 393.499174 449.499928 393.499174 L 434.499928 393.499174 C 430.081959 393.499174 426.499928 389.917143 426.499928 385.499174 L 426.499928 370.499174 C 426.499928 366.081205 430.081959 362.499174 434.499928 362.499174 Z M 434.499928 362.499174 " transform="matrix(1, 0, 0, 1, -425.999928, -370.799955)"/>
</g>
</g>
<mask id="mask-3">
<g filter="url(#filter-remove-color)">
<rect x="-5.059996" y="-7.040003" width="33.119975" height="46.080016" fill="rgb(0%, 0%, 0%)" fill-opacity="0.07"/>
</g>
</mask>
<clipPath id="clip-5">
<path clip-rule="nonzero" d="M 0 0 L 33 0 L 33 23 L 0 23 Z M 0 0 "/>
</clipPath>
<clipPath id="clip-6">
<rect x="0" y="0" width="33" height="23"/>
</clipPath>
<g id="source-4866" clip-path="url(#clip-6)">
<g clip-path="url(#clip-5)">
<path fill="none" stroke-width="1" stroke-linecap="round" stroke-linejoin="miter" stroke="rgb(0%, 0%, 0%)" stroke-opacity="1" stroke-miterlimit="4" d="M 434.499928 363.499174 L 449.499928 363.499174 C 453.367115 363.499174 456.499928 366.635893 456.499928 370.499174 L 456.499928 385.499174 C 456.499928 389.366362 453.367115 392.499174 449.499928 392.499174 L 434.499928 392.499174 C 430.63274 392.499174 427.499928 389.366362 427.499928 385.499174 L 427.499928 370.499174 C 427.499928 366.635893 430.63274 363.499174 434.499928 363.499174 Z M 434.499928 363.499174 " transform="matrix(1, 0, 0, 1, -425.999928, -370.799955)"/>
</g>
</g>
<mask id="mask-4">
<g filter="url(#filter-remove-color)">
<rect x="-5.059996" y="-7.040003" width="33.119975" height="46.080016" fill="rgb(0%, 0%, 0%)" fill-opacity="0.13"/>
</g>
</mask>
<clipPath id="clip-7">
<path clip-rule="nonzero" d="M 0 0 L 33 0 L 33 23 L 0 23 Z M 0 0 "/>
</clipPath>
<clipPath id="clip-8">
<rect x="0" y="0" width="33" height="23"/>
</clipPath>
<g id="source-4870" clip-path="url(#clip-8)">
<g clip-path="url(#clip-7)">
<path fill="none" stroke-width="1" stroke-linecap="round" stroke-linejoin="miter" stroke="rgb(0%, 0%, 0%)" stroke-opacity="1" stroke-miterlimit="4" d="M 434.499928 364.499174 L 449.499928 364.499174 C 452.812428 364.499174 455.499928 367.186674 455.499928 370.499174 L 455.499928 385.499174 C 455.499928 388.81558 452.812428 391.499174 449.499928 391.499174 L 434.499928 391.499174 C 431.187428 391.499174 428.499928 388.81558 428.499928 385.499174 L 428.499928 370.499174 C 428.499928 367.186674 431.187428 364.499174 434.499928 364.499174 Z M 434.499928 364.499174 " transform="matrix(1, 0, 0, 1, -425.999928, -370.799955)"/>
</g>
</g>
<mask id="mask-5">
<g filter="url(#filter-remove-color)">
<rect x="-5.059996" y="-7.040003" width="33.119975" height="46.080016" fill="rgb(0%, 0%, 0%)" fill-opacity="0.2"/>
</g>
</mask>
<clipPath id="clip-9">
<path clip-rule="nonzero" d="M 0 0 L 33 0 L 33 23 L 0 23 Z M 0 0 "/>
</clipPath>
<clipPath id="clip-10">
<rect x="0" y="0" width="33" height="23"/>
</clipPath>
<g id="source-4874" clip-path="url(#clip-10)">
<g clip-path="url(#clip-9)">
<path fill="none" stroke-width="1" stroke-linecap="round" stroke-linejoin="miter" stroke="rgb(0%, 0%, 0%)" stroke-opacity="1" stroke-miterlimit="4" d="M 434.499928 365.499174 L 449.499928 365.499174 C 452.261647 365.499174 454.499928 367.737455 454.499928 370.499174 L 454.499928 385.499174 C 454.499928 388.260893 452.261647 390.499174 449.499928 390.499174 L 434.499928 390.499174 C 431.738209 390.499174 429.499928 388.260893 429.499928 385.499174 L 429.499928 370.499174 C 429.499928 367.737455 431.738209 365.499174 434.499928 365.499174 Z M 434.499928 365.499174 " transform="matrix(1, 0, 0, 1, -425.999928, -370.799955)"/>
</g>
</g>
<mask id="mask-6">
<g filter="url(#filter-remove-color)">
<rect x="-5.059996" y="-7.040003" width="33.119975" height="46.080016" fill="rgb(0%, 0%, 0%)" fill-opacity="0.25"/>
</g>
</mask>
<clipPath id="clip-11">
<path clip-rule="nonzero" d="M 0 11 L 33 11 L 33 23 L 0 23 Z M 0 11 "/>
</clipPath>
<clipPath id="clip-12">
<rect x="0" y="0" width="33" height="23"/>
</clipPath>
<g id="source-4878" clip-path="url(#clip-12)">
<g clip-path="url(#clip-11)">
<path fill="none" stroke-width="1" stroke-linecap="round" stroke-linejoin="miter" stroke="rgb(0%, 0%, 0%)" stroke-opacity="1" stroke-miterlimit="4" d="M 431.648427 388.303862 C 432.374989 389.042143 433.378895 389.499174 434.499989 389.499174 L 449.499989 389.499174 C 450.621083 389.499174 451.628895 389.042143 452.351552 388.303862 C 452.093739 388.424955 451.808583 388.499174 451.499989 388.499174 L 432.499989 388.499174 C 432.195302 388.499174 431.906239 388.424955 431.648427 388.303862 Z M 431.648427 388.303862 " transform="matrix(1, 0, 0, 1, -425.999989, -370.799955)"/>
</g>
</g>
<clipPath id="clip-13">
<rect x="0" y="0" width="33" height="23"/>
</clipPath>
<g id="source-4880" clip-path="url(#clip-13)">
<g mask="url(#mask-2)">
<use xlink:href="#source-4862"/>
</g>
<g mask="url(#mask-3)">
<use xlink:href="#source-4866"/>
</g>
<g mask="url(#mask-4)">
<use xlink:href="#source-4870"/>
</g>
<g mask="url(#mask-5)">
<use xlink:href="#source-4874"/>
</g>
<g mask="url(#mask-6)">
<use xlink:href="#source-4878"/>
</g>
</g>
</defs>
<g clip-path="url(#clip-0)">
<path fill="none" stroke-width="1" stroke-linecap="round" stroke-linejoin="miter" stroke="rgb(13.72549%, 15.686275%, 19.215686%)" stroke-opacity="1" stroke-miterlimit="4" d="M 6.499989 1024.861418 L 25.499989 1024.861418 C 26.605458 1024.861418 27.499989 1025.755949 27.499989 1026.861418 L 27.499989 1044.861418 C 27.499989 1045.966887 26.605458 1046.861418 25.499989 1046.861418 L 6.499989 1046.861418 C 5.39452 1046.861418 4.499989 1045.966887 4.499989 1044.861418 L 4.499989 1026.861418 C 4.499989 1025.755949 5.39452 1024.861418 6.499989 1024.861418 Z M 6.499989 1024.861418 " transform="matrix(1, 0, 0, 1, 0.0000109756, -1029.162199)"/>
</g>
<g mask="url(#mask-0)">
<use xlink:href="#source-4857"/>
</g>
<g mask="url(#mask-1)">
<use xlink:href="#source-4880"/>
</g>
</svg>
