<?xml version="1.0" encoding="UTF-8"?>
<svg xmlns="http://www.w3.org/2000/svg" xmlns:xlink="http://www.w3.org/1999/xlink" width="16" height="16" viewBox="0 0 16 16">
<path fill-rule="nonzero" fill="rgb(33.333333%, 33.333333%, 33.333333%)" fill-opacity="1" d="M 3 1 C 1.890625 1 1 1.890625 1 3 L 1 13 C 1 14.109375 1.890625 15 3 15 L 13 15 C 14.109375 15 15 14.109375 15 13 L 15 3 C 15 1.890625 14.109375 1 13 1 L 11 1 L 12 5 L 11 5 L 10 1 L 8 1 L 9 5 L 8 5 L 7 1 L 5 1 L 6 5 L 5 5 L 4 1 Z M 3 6 L 13 6 L 13 13 L 3 13 Z M 3 6 "/>
</svg>
