<?xml version="1.0" encoding="UTF-8"?>
<svg xmlns="http://www.w3.org/2000/svg" xmlns:xlink="http://www.w3.org/1999/xlink" width="16" height="16" viewBox="0 0 16 16">
<path fill-rule="nonzero" fill="rgb(33.333333%, 33.333333%, 33.333333%)" fill-opacity="1" d="M 8 1 C 4.132812 1 1 4.132812 1 8 C 1 11.867188 4.132812 15 8 15 C 11.867188 15 15 11.867188 15 8 C 15 4.132812 11.867188 1 8 1 Z M 8 3 C 10.761719 3 13 5.238281 13 8 C 13 10.761719 10.761719 13 8 13 C 5.238281 13 3 10.761719 3 8 C 3 5.238281 5.238281 3 8 3 Z M 8 3 "/>
<path fill-rule="nonzero" fill="rgb(33.333333%, 33.333333%, 33.333333%)" fill-opacity="1" d="M 7.621094 4 C 7.675781 3.996094 7.742188 4.003906 7.792969 4 C 7.800781 4.027344 7.757812 4.117188 7.695312 4.246094 C 7.3125 5.082031 7.292969 6.058594 7.648438 6.582031 C 7.710938 6.675781 7.769531 6.765625 7.769531 6.777344 C 7.769531 6.789062 7.699219 6.804688 7.621094 6.804688 C 7.4375 6.804688 7.265625 6.691406 6.910156 6.410156 C 6.753906 6.285156 6.546875 6.179688 6.46875 6.164062 C 6.34375 6.140625 6.308594 6.152344 6.148438 6.3125 C 6 6.460938 5.953125 6.542969 5.953125 6.679688 C 5.953125 7.203125 6.570312 7.617188 7.722656 7.859375 C 9.285156 8.191406 9.667969 8.488281 9.710938 9.308594 C 9.765625 10.339844 9.21875 11.117188 8.015625 11.71875 C 7.871094 11.789062 7.78125 11.816406 7.722656 11.839844 C 7.695312 11.839844 7.675781 11.84375 7.648438 11.839844 C 7.636719 11.808594 7.621094 11.734375 7.621094 11.597656 C 7.621094 11.046875 7.40625 10.484375 7.082031 10.171875 C 6.996094 10.085938 6.75 9.90625 6.542969 9.777344 C 6.332031 9.648438 6.121094 9.496094 6.074219 9.433594 C 5.996094 9.328125 5.992188 9.261719 6.050781 9.0625 C 6.160156 8.707031 6.289062 8.503906 6.542969 8.277344 C 6.675781 8.160156 6.808594 8.058594 6.835938 8.058594 C 6.867188 8.054688 6.667969 7.996094 6.371094 7.933594 C 6.070312 7.871094 5.636719 7.746094 5.410156 7.664062 C 5 7.515625 4.445312 7.203125 4.230469 6.976562 C 4.222656 6.964844 4.214844 6.960938 4.207031 6.949219 C 4.511719 5.742188 5.363281 4.75 6.492188 4.273438 C 6.730469 4.171875 6.972656 4.105469 7.230469 4.050781 C 7.359375 4.023438 7.492188 4.015625 7.621094 4 Z M 11.308594 5.84375 C 11.402344 5.902344 11.75 6.65625 11.851562 7.023438 C 11.976562 7.5 11.96875 8.320312 11.851562 8.792969 C 11.804688 8.972656 11.746094 9.140625 11.726562 9.164062 C 11.707031 9.183594 11.636719 9.0625 11.554688 8.917969 C 11.472656 8.769531 11.207031 8.460938 10.988281 8.230469 C 10.355469 7.5625 10.257812 7.214844 10.523438 6.679688 C 10.65625 6.410156 11.238281 5.800781 11.308594 5.84375 Z M 11.308594 5.84375 "/>
</svg>
