<?xml version="1.0" encoding="UTF-8"?>
<svg xmlns="http://www.w3.org/2000/svg" xmlns:xlink="http://www.w3.org/1999/xlink" width="16" height="16" viewBox="0 0 16 16">
<path fill-rule="nonzero" fill="rgb(33.333333%, 33.333333%, 33.333333%)" fill-opacity="1" d="M 6 0.992188 C 5 0.992188 5 1.992188 5 1.992188 L 2 1.992188 C 2 1.992188 1 1.996094 1 2.996094 L 1 4 L 14 3.996094 L 14 2.996094 C 14 1.996094 13 1.992188 13 1.992188 L 10 1.992188 C 10 1.992188 10 0.992188 9 0.992188 Z M 2 5 L 2 14 C 2 14.523438 2.476562 15 3 15 L 12 15 C 12.523438 15 13 14.523438 13 14 L 13 5 L 11 5 L 11 13 L 4 13 L 4 5 Z M 2 5 "/>
</svg>
