<?xml version="1.0" encoding="UTF-8"?>
<svg xmlns="http://www.w3.org/2000/svg" xmlns:xlink="http://www.w3.org/1999/xlink" width="64" height="64" viewBox="0 0 64 64">
<defs>
<filter id="filter-remove-color" x="0%" y="0%" width="100%" height="100%">
<feColorMatrix color-interpolation-filters="sRGB" values="0 0 0 0 1 0 0 0 0 1 0 0 0 0 1 0 0 0 1 0" />
</filter>
<mask id="mask-0">
<g filter="url(#filter-remove-color)">
<rect x="-6.4" y="-6.4" width="76.8" height="76.8" fill="rgb(0%, 0%, 0%)" fill-opacity="0.1"/>
</g>
</mask>
<linearGradient id="linear-pattern-0" gradientUnits="userSpaceOnUse" x1="49.570999" y1="52.714001" x2="51.714001" y2="54.856998" gradientTransform="matrix(0.617345, 0, 0, 0.617345, -18.167916, -19.050025)">
<stop offset="0" stop-color="rgb(0%, 0%, 0%)" stop-opacity="1"/>
<stop offset="1" stop-color="rgb(0%, 0%, 0%)" stop-opacity="0"/>
</linearGradient>
<clipPath id="clip-0">
<rect x="0" y="0" width="17" height="17"/>
</clipPath>
<g id="source-9225" clip-path="url(#clip-0)">
<path fill-rule="evenodd" fill="url(#linear-pattern-0)" d="M 14.816406 12.171875 L 11.113281 15.875 L 13.492188 15.875 C 14.226562 15.875 14.816406 15.285156 14.816406 14.550781 Z M 14.816406 12.171875 "/>
</g>
</defs>
<path fill-rule="nonzero" fill="rgb(95.686275%, 95.686275%, 95.686275%)" fill-opacity="1" d="M 3.441406 1.058594 L 13.492188 1.058594 C 14.222656 1.058594 14.816406 1.652344 14.816406 2.382812 L 14.816406 14.550781 C 14.816406 15.28125 14.222656 15.875 13.492188 15.875 L 3.441406 15.875 C 2.707031 15.875 2.117188 15.28125 2.117188 14.550781 L 2.117188 2.382812 C 2.117188 1.652344 2.707031 1.058594 3.441406 1.058594 Z M 3.441406 1.058594 "/>
<g mask="url(#mask-0)">
<use xlink:href="#source-9225"/>
</g>
<path fill-rule="nonzero" fill="rgb(34.117647%, 40.784314%, 55.686275%)" fill-opacity="0.471" d="M 10.332031 5.21875 C 10.273438 5.28125 10.222656 5.347656 10.171875 5.414062 L 10.039062 5.589844 L 9.992188 5.558594 C 9.925781 5.511719 9.863281 5.503906 9.804688 5.53125 C 9.765625 5.546875 9.664062 5.671875 9.03125 6.507812 C 8.78125 6.828125 8.539062 7.152344 8.300781 7.480469 C 8.300781 7.484375 8.464844 7.613281 8.660156 7.757812 L 9.015625 8.03125 L 9.492188 7.40625 C 9.75 7.0625 9.96875 6.785156 9.972656 6.789062 C 9.992188 6.800781 10.019531 7.070312 10.015625 7.15625 C 10.007812 7.222656 9.992188 7.285156 9.972656 7.347656 C 9.941406 7.449219 9.9375 7.457031 9.347656 8.234375 C 9.023438 8.664062 8.75 9.027344 8.746094 9.042969 C 8.734375 9.082031 8.746094 9.15625 8.777344 9.199219 C 8.828125 9.273438 8.953125 9.296875 9.023438 9.246094 C 9.074219 9.207031 10.238281 7.65625 10.277344 7.578125 C 10.386719 7.34375 10.410156 7.046875 10.34375 6.757812 C 10.320312 6.652344 10.289062 6.550781 10.246094 6.449219 C 10.238281 6.425781 10.253906 6.398438 10.363281 6.253906 C 10.46875 6.117188 10.488281 6.078125 10.492188 6.042969 C 10.496094 5.964844 10.472656 5.921875 10.398438 5.863281 L 10.328125 5.808594 L 10.46875 5.625 C 10.582031 5.46875 10.609375 5.429688 10.609375 5.394531 C 10.617188 5.242188 10.460938 5.140625 10.332031 5.21875 "/>
<path fill-rule="nonzero" fill="rgb(34.117647%, 40.784314%, 55.686275%)" fill-opacity="0.471" d="M 7.125 9.015625 C 6.289062 10.121094 6.167969 10.285156 6.09375 10.425781 C 5.9375 10.703125 5.769531 11.132812 5.65625 11.523438 C 5.585938 11.773438 5.582031 11.75 5.679688 11.695312 C 5.988281 11.53125 6.390625 11.265625 6.625 11.070312 C 6.855469 10.875 6.894531 10.828125 7.867188 9.546875 L 8.800781 8.3125 L 8.441406 8.039062 C 8.242188 7.890625 8.078125 7.769531 8.078125 7.769531 C 8.074219 7.769531 7.644531 8.332031 7.125 9.015625 M 8.058594 10.628906 C 7.898438 10.671875 7.757812 10.78125 7.675781 10.929688 C 7.644531 10.988281 7.621094 11.050781 7.601562 11.113281 C 7.589844 11.15625 7.578125 11.195312 7.5625 11.238281 C 7.550781 11.25 7.273438 11.316406 7.113281 11.34375 C 6.726562 11.410156 6.625 11.4375 6.585938 11.472656 C 6.511719 11.539062 6.570312 11.609375 6.671875 11.578125 C 6.703125 11.570312 6.820312 11.546875 6.933594 11.527344 C 7.046875 11.503906 7.222656 11.46875 7.320312 11.449219 C 7.382812 11.429688 7.445312 11.417969 7.507812 11.414062 C 7.5 11.472656 7.488281 11.53125 7.46875 11.589844 L 7.421875 11.757812 L 7.316406 11.800781 C 7.253906 11.832031 7.191406 11.863281 7.136719 11.902344 C 7.003906 11.988281 6.980469 12.09375 7.070312 12.164062 C 7.121094 12.203125 7.261719 12.203125 7.347656 12.164062 C 7.421875 12.128906 7.46875 12.082031 7.527344 11.953125 C 7.558594 11.886719 7.582031 11.855469 7.601562 11.851562 C 7.617188 11.84375 7.753906 11.816406 7.910156 11.785156 L 8.21875 11.722656 C 8.25 11.714844 8.25 11.714844 8.242188 11.746094 C 8.226562 11.78125 8.207031 11.820312 8.1875 11.855469 C 8.164062 11.886719 8.148438 11.925781 8.140625 11.96875 C 8.140625 12.011719 8.175781 12.054688 8.203125 12.042969 C 8.214844 12.039062 8.226562 12.035156 8.238281 12.035156 C 8.261719 12.023438 8.285156 12.003906 8.304688 11.984375 C 8.363281 11.933594 8.5 11.679688 8.5 11.628906 C 8.5 11.601562 8.523438 11.59375 8.535156 11.617188 C 8.539062 11.621094 8.570312 11.636719 8.605469 11.644531 C 8.65625 11.65625 8.667969 11.664062 8.667969 11.6875 C 8.667969 11.730469 8.738281 11.792969 8.804688 11.808594 C 8.863281 11.8125 8.925781 11.804688 8.980469 11.777344 C 9.003906 11.769531 9.003906 11.769531 8.996094 11.808594 C 8.972656 11.863281 8.941406 11.917969 8.90625 11.964844 C 8.8125 12.105469 8.734375 12.257812 8.675781 12.414062 C 8.652344 12.496094 8.664062 12.558594 8.707031 12.585938 C 8.742188 12.613281 8.808594 12.601562 8.84375 12.566406 C 8.933594 12.398438 9.015625 12.222656 9.085938 12.046875 C 9.117188 11.953125 9.171875 11.871094 9.242188 11.808594 C 9.320312 11.726562 9.347656 11.707031 9.328125 11.738281 C 9.304688 11.796875 9.304688 11.84375 9.335938 11.871094 C 9.398438 11.933594 9.496094 11.871094 9.578125 11.726562 C 9.625 11.632812 9.660156 11.609375 9.84375 11.523438 L 9.9375 11.480469 L 9.929688 11.53125 C 9.910156 11.59375 9.886719 11.652344 9.855469 11.707031 C 9.789062 11.84375 9.777344 11.933594 9.816406 12.007812 C 9.84375 12.058594 9.871094 12.058594 10 12.015625 C 10.179688 11.957031 10.410156 11.820312 10.46875 11.738281 C 10.550781 11.628906 10.578125 11.519531 10.527344 11.484375 C 10.476562 11.445312 10.445312 11.460938 10.378906 11.558594 C 10.304688 11.675781 10.203125 11.773438 10.082031 11.839844 C 10.03125 11.867188 9.988281 11.882812 9.984375 11.878906 C 10.03125 11.730469 10.085938 11.582031 10.148438 11.433594 C 10.160156 11.410156 10.167969 11.382812 10.171875 11.355469 C 10.171875 11.316406 10.121094 11.269531 10.082031 11.269531 C 10.011719 11.289062 9.941406 11.320312 9.878906 11.355469 C 9.6875 11.449219 9.699219 11.457031 9.746094 11.28125 C 9.777344 11.167969 9.769531 11.140625 9.703125 11.132812 C 9.636719 11.125 9.613281 11.148438 9.554688 11.253906 C 9.507812 11.335938 9.445312 11.410156 9.371094 11.46875 C 9.242188 11.585938 9.238281 11.589844 9.207031 11.570312 C 9.164062 11.539062 9.140625 11.542969 9.03125 11.597656 C 8.925781 11.652344 8.890625 11.65625 8.863281 11.625 C 8.839844 11.601562 8.875 11.585938 9.070312 11.546875 C 9.257812 11.511719 9.28125 11.5 9.28125 11.460938 C 9.28125 11.402344 9.230469 11.339844 9.136719 11.300781 C 8.980469 11.230469 8.960938 11.226562 8.890625 11.242188 C 8.816406 11.261719 8.703125 11.371094 8.6875 11.4375 C 8.671875 11.503906 8.625 11.484375 8.625 11.410156 C 8.621094 11.359375 8.597656 11.316406 8.566406 11.28125 C 8.519531 11.25 8.441406 11.320312 8.382812 11.445312 L 8.335938 11.546875 L 8.234375 11.566406 C 8.101562 11.597656 7.710938 11.675781 7.660156 11.683594 C 7.625 11.691406 7.621094 11.691406 7.628906 11.667969 L 7.667969 11.53125 C 7.710938 11.359375 7.722656 11.335938 7.785156 11.3125 C 7.917969 11.261719 8.050781 11.207031 8.179688 11.144531 C 8.230469 11.113281 8.277344 11.078125 8.320312 11.039062 C 8.460938 10.910156 8.480469 10.789062 8.382812 10.699219 C 8.355469 10.679688 8.332031 10.660156 8.300781 10.644531 C 8.222656 10.621094 8.140625 10.617188 8.0625 10.628906 Z M 8.238281 10.820312 C 8.265625 10.847656 8.265625 10.851562 8.242188 10.902344 C 8.214844 10.945312 8.179688 10.980469 8.136719 11.007812 C 8.050781 11.066406 7.785156 11.171875 7.777344 11.15625 C 7.765625 11.121094 7.851562 10.933594 7.90625 10.871094 C 7.980469 10.789062 8 10.78125 8.113281 10.785156 C 8.1875 10.792969 8.21875 10.796875 8.238281 10.820312 M 7.332031 11.980469 C 7.3125 12.011719 7.265625 12.039062 7.238281 12.027344 C 7.210938 12.015625 7.21875 12 7.265625 11.972656 C 7.328125 11.941406 7.351562 11.945312 7.332031 11.980469 Z M 7.332031 11.980469 "/>
</svg>
