<?xml version="1.0" encoding="UTF-8"?>
<svg xmlns="http://www.w3.org/2000/svg" xmlns:xlink="http://www.w3.org/1999/xlink" width="64" height="64" viewBox="0 0 64 64">
<defs>
<filter id="filter-remove-color" x="0%" y="0%" width="100%" height="100%">
<feColorMatrix color-interpolation-filters="sRGB" values="0 0 0 0 1 0 0 0 0 1 0 0 0 0 1 0 0 0 1 0" />
</filter>
<mask id="mask-0">
<g filter="url(#filter-remove-color)">
<rect x="-6.4" y="-6.4" width="76.8" height="76.8" fill="rgb(0%, 0%, 0%)" fill-opacity="0.15"/>
</g>
</mask>
<linearGradient id="linear-pattern-0" gradientUnits="userSpaceOnUse" x1="49.570999" y1="52.714001" x2="51.714001" y2="54.856998" gradientTransform="matrix(0.617345, 0, 0, 0.617345, -18.167916, -19.050025)">
<stop offset="0" stop-color="rgb(0%, 0%, 0%)" stop-opacity="1"/>
<stop offset="1" stop-color="rgb(0%, 0%, 0%)" stop-opacity="0"/>
</linearGradient>
<clipPath id="clip-0">
<rect x="0" y="0" width="17" height="17"/>
</clipPath>
<g id="source-16613" clip-path="url(#clip-0)">
<path fill-rule="evenodd" fill="url(#linear-pattern-0)" d="M 14.816406 12.171875 L 11.113281 15.875 L 13.492188 15.875 C 14.226562 15.875 14.816406 15.285156 14.816406 14.550781 Z M 14.816406 12.171875 "/>
</g>
</defs>
<path fill-rule="nonzero" fill="rgb(78.823529%, 14.117647%, 16.078431%)" fill-opacity="1" d="M 3.441406 1.058594 L 13.492188 1.058594 C 14.222656 1.058594 14.816406 1.652344 14.816406 2.382812 L 14.816406 14.550781 C 14.816406 15.28125 14.222656 15.875 13.492188 15.875 L 3.441406 15.875 C 2.707031 15.875 2.117188 15.28125 2.117188 14.550781 L 2.117188 2.382812 C 2.117188 1.652344 2.707031 1.058594 3.441406 1.058594 Z M 3.441406 1.058594 "/>
<g mask="url(#mask-0)">
<use xlink:href="#source-16613"/>
</g>
<path fill-rule="nonzero" fill="rgb(100%, 100%, 100%)" fill-opacity="1" d="M 8.632812 4.761719 C 7.339844 4.992188 6.050781 5.296875 4.761719 5.523438 C 4.761719 7.484375 4.757812 9.449219 4.761719 11.414062 C 6.042969 11.636719 7.328125 11.9375 8.609375 12.171875 L 8.992188 12.171875 L 8.992188 4.761719 Z M 10.152344 5.789062 C 9.851562 5.789062 9.554688 5.816406 9.257812 5.855469 L 9.257812 6.953125 C 10.089844 7.078125 10.953125 7.050781 11.753906 6.78125 C 11.921875 6.707031 12.136719 6.613281 12.171875 6.410156 C 12.125 6.15625 11.84375 6.0625 11.632812 5.984375 C 11.152344 5.839844 10.652344 5.78125 10.152344 5.789062 Z M 12.171875 6.835938 C 11.855469 7.085938 11.453125 7.171875 11.0625 7.226562 C 10.464844 7.308594 9.855469 7.308594 9.257812 7.230469 L 9.257812 8.375 C 10.007812 8.472656 10.773438 8.464844 11.511719 8.292969 C 11.734375 8.226562 11.988281 8.160156 12.144531 7.972656 C 12.199219 7.597656 12.152344 7.214844 12.171875 6.835938 Z M 7.089844 7.09375 C 7.386719 8.082031 7.667969 9.074219 7.957031 10.0625 C 7.753906 10.046875 7.550781 10.035156 7.347656 10.015625 C 7.292969 9.792969 7.238281 9.574219 7.179688 9.355469 C 6.910156 9.355469 6.636719 9.34375 6.367188 9.332031 C 6.316406 9.539062 6.261719 9.75 6.210938 9.957031 C 6.035156 9.945312 5.863281 9.929688 5.691406 9.921875 C 5.949219 8.992188 6.21875 8.066406 6.472656 7.136719 C 6.679688 7.121094 6.882812 7.109375 7.089844 7.09375 Z M 6.757812 7.621094 C 6.699219 8.039062 6.566406 8.441406 6.476562 8.855469 C 6.671875 8.855469 6.867188 8.859375 7.0625 8.859375 C 6.960938 8.445312 6.839844 8.039062 6.757812 7.621094 Z M 12.171875 8.246094 C 11.859375 8.496094 11.457031 8.582031 11.070312 8.636719 C 10.46875 8.71875 9.859375 8.71875 9.257812 8.644531 L 9.257812 9.785156 C 10.007812 9.882812 10.777344 9.878906 11.515625 9.703125 C 11.742188 9.636719 11.992188 9.570312 12.144531 9.382812 C 12.199219 9.007812 12.152344 8.625 12.171875 8.246094 Z M 12.171875 9.65625 C 11.855469 9.910156 11.453125 9.992188 11.066406 10.050781 C 10.464844 10.128906 9.859375 10.128906 9.257812 10.054688 C 9.257812 10.433594 9.261719 10.8125 9.253906 11.195312 C 9.882812 11.285156 10.527344 11.28125 11.15625 11.1875 C 11.5 11.117188 11.894531 11.066406 12.144531 10.792969 C 12.199219 10.417969 12.152344 10.035156 12.171875 9.65625 Z M 12.171875 9.65625 "/>
</svg>
