<?xml version="1.0" encoding="UTF-8"?>
<svg xmlns="http://www.w3.org/2000/svg" xmlns:xlink="http://www.w3.org/1999/xlink" width="64" height="64" viewBox="0 0 64 64">
<defs>
<filter id="filter-remove-color" x="0%" y="0%" width="100%" height="100%">
<feColorMatrix color-interpolation-filters="sRGB" values="0 0 0 0 1 0 0 0 0 1 0 0 0 0 1 0 0 0 1 0" />
</filter>
<mask id="mask-0">
<g filter="url(#filter-remove-color)">
<rect x="-6.4" y="-6.4" width="76.8" height="76.8" fill="rgb(0%, 0%, 0%)" fill-opacity="0.1"/>
</g>
</mask>
<linearGradient id="linear-pattern-0" gradientUnits="userSpaceOnUse" x1="49.570999" y1="52.714001" x2="51.714001" y2="54.856998" gradientTransform="matrix(0.617345, 0, 0, 0.617345, -18.167916, -19.050025)">
<stop offset="0" stop-color="rgb(0%, 0%, 0%)" stop-opacity="1"/>
<stop offset="1" stop-color="rgb(0%, 0%, 0%)" stop-opacity="0"/>
</linearGradient>
<clipPath id="clip-0">
<rect x="0" y="0" width="17" height="17"/>
</clipPath>
<g id="source-1883" clip-path="url(#clip-0)">
<path fill-rule="evenodd" fill="url(#linear-pattern-0)" d="M 14.816406 12.171875 L 11.113281 15.875 L 13.492188 15.875 C 14.226562 15.875 14.816406 15.285156 14.816406 14.550781 Z M 14.816406 12.171875 "/>
</g>
</defs>
<path fill-rule="nonzero" fill="rgb(95.686275%, 95.686275%, 95.686275%)" fill-opacity="1" d="M 3.441406 1.058594 L 13.492188 1.058594 C 14.222656 1.058594 14.816406 1.652344 14.816406 2.382812 L 14.816406 14.550781 C 14.816406 15.28125 14.222656 15.875 13.492188 15.875 L 3.441406 15.875 C 2.707031 15.875 2.117188 15.28125 2.117188 14.550781 L 2.117188 2.382812 C 2.117188 1.652344 2.707031 1.058594 3.441406 1.058594 Z M 3.441406 1.058594 "/>
<g mask="url(#mask-0)">
<use xlink:href="#source-1883"/>
</g>
<path fill-rule="nonzero" fill="rgb(70.196078%, 70.196078%, 70.196078%)" fill-opacity="1" d="M 5.292969 7.410156 C 4.707031 7.410156 4.234375 7.878906 4.234375 8.464844 C 4.234375 9.054688 4.707031 9.523438 5.292969 9.523438 L 6.878906 9.523438 C 7.269531 9.523438 7.609375 9.3125 7.792969 8.996094 L 7.460938 8.996094 C 7.316406 9.15625 7.113281 9.261719 6.878906 9.261719 L 5.292969 9.261719 C 4.851562 9.261719 4.496094 8.90625 4.496094 8.464844 C 4.496094 8.027344 4.851562 7.671875 5.292969 7.671875 L 6.878906 7.671875 C 7.113281 7.671875 7.316406 7.777344 7.460938 7.9375 L 7.792969 7.9375 C 7.609375 7.621094 7.269531 7.410156 6.878906 7.410156 Z M 5.292969 7.410156 "/>
<path fill-rule="nonzero" fill="rgb(70.196078%, 70.196078%, 70.196078%)" fill-opacity="1" d="M 10.054688 7.410156 C 9.660156 7.410156 9.324219 7.621094 9.140625 7.9375 L 9.472656 7.9375 C 9.617188 7.777344 9.820312 7.671875 10.054688 7.671875 L 11.640625 7.671875 C 12.082031 7.671875 12.433594 8.027344 12.433594 8.464844 C 12.433594 8.90625 12.082031 9.261719 11.640625 9.261719 L 10.054688 9.261719 C 9.820312 9.261719 9.617188 9.15625 9.472656 8.996094 L 9.140625 8.996094 C 9.324219 9.3125 9.660156 9.523438 10.054688 9.523438 L 11.640625 9.523438 C 12.226562 9.523438 12.699219 9.054688 12.699219 8.464844 C 12.699219 7.878906 12.226562 7.410156 11.640625 7.410156 Z M 10.054688 7.410156 "/>
<path fill-rule="nonzero" fill="rgb(70.196078%, 70.196078%, 70.196078%)" fill-opacity="1" d="M 7.671875 8.203125 L 9.261719 8.203125 C 9.40625 8.203125 9.523438 8.320312 9.523438 8.464844 C 9.523438 8.613281 9.40625 8.730469 9.261719 8.730469 L 7.671875 8.730469 C 7.527344 8.730469 7.410156 8.613281 7.410156 8.464844 C 7.410156 8.320312 7.527344 8.203125 7.671875 8.203125 Z M 7.671875 8.203125 "/>
</svg>
