<?xml version="1.0" encoding="UTF-8"?>
<svg xmlns="http://www.w3.org/2000/svg" xmlns:xlink="http://www.w3.org/1999/xlink" width="64" height="64" viewBox="0 0 64 64">
<defs>
<filter id="filter-remove-color" x="0%" y="0%" width="100%" height="100%">
<feColorMatrix color-interpolation-filters="sRGB" values="0 0 0 0 1 0 0 0 0 1 0 0 0 0 1 0 0 0 1 0" />
</filter>
<mask id="mask-0">
<g filter="url(#filter-remove-color)">
<rect x="-6.4" y="-6.4" width="76.8" height="76.8" fill="rgb(0%, 0%, 0%)" fill-opacity="0.15"/>
</g>
</mask>
<linearGradient id="linear-pattern-0" gradientUnits="userSpaceOnUse" x1="49.570999" y1="52.714001" x2="51.714001" y2="54.856998" gradientTransform="matrix(2.3333, 0, 0, 2.3333, -68.667999, -72.000999)">
<stop offset="0" stop-color="rgb(0%, 0%, 0%)" stop-opacity="1"/>
<stop offset="1" stop-color="rgb(0%, 0%, 0%)" stop-opacity="0"/>
</linearGradient>
<clipPath id="clip-0">
<rect x="0" y="0" width="64" height="64"/>
</clipPath>
<g id="source-4111" clip-path="url(#clip-0)">
<path fill-rule="evenodd" fill="url(#linear-pattern-0)" d="M 56 46.003906 L 42 60.003906 L 51 60.003906 C 53.769531 60.003906 56 57.773438 56 55.003906 Z M 56 46.003906 "/>
</g>
</defs>
<path fill-rule="nonzero" fill="rgb(97.254902%, 34.509804%, 47.45098%)" fill-opacity="1" d="M 13 4 L 51 4 C 53.761719 4 56 6.238281 56 9 L 56 55 C 56 57.761719 53.761719 60 51 60 L 13 60 C 10.238281 60 8 57.761719 8 55 L 8 9 C 8 6.238281 10.238281 4 13 4 Z M 13 4 "/>
<g mask="url(#mask-0)">
<use xlink:href="#source-4111"/>
</g>
<path fill-rule="nonzero" fill="rgb(100%, 100%, 100%)" fill-opacity="1" d="M 30.003906 25 L 30.003906 31.5 C 30.003906 31.777344 30.226562 32 30.503906 32 L 33.503906 32 C 33.777344 32 34.003906 31.777344 34.003906 31.5 L 34.003906 25 Z M 31.003906 29 L 33.003906 29 L 33.003906 31 L 31.003906 31 Z M 31.003906 29 "/>
<path fill-rule="nonzero" fill="rgb(100%, 100%, 100%)" fill-opacity="1" d="M 32.003906 4 L 30.003906 4 L 30.003906 6 L 32.003906 6 Z M 32.003906 6 L 32.003906 8 L 34.003906 8 L 34.003906 6 Z M 32.003906 8 L 30.003906 8 L 30.003906 10 L 32.003906 10 Z M 32.003906 10 L 32.003906 12 L 34.003906 12 L 34.003906 10 Z M 32.003906 12 L 30.003906 12 L 30.003906 14 L 32.003906 14 Z M 32.003906 14 L 32.003906 16 L 34.003906 16 L 34.003906 14 Z M 32.003906 16 L 30.003906 16 L 30.003906 18 L 32.003906 18 Z M 32.003906 18 L 32.003906 20 L 34.003906 20 L 34.003906 18 Z M 32.003906 20 L 30.003906 20 L 30.003906 22 L 32.003906 22 Z M 32.003906 22 L 32.003906 24 L 34.003906 24 L 34.003906 22 Z M 32.003906 22 "/>
<path fill-rule="nonzero" fill="rgb(84.313725%, 2.745098%, 31.764706%)" fill-opacity="1" d="M 25.355469 34.800781 C 24.664062 34.855469 23.976562 34.894531 23.300781 34.980469 L 23.597656 35.019531 C 24.09375 34.835938 24.824219 34.917969 25.355469 34.800781 Z M 22.34375 35.113281 C 21.222656 35.179688 19.664062 35.765625 20.144531 35.234375 C 18.316406 36.050781 15.070312 37.199219 13.25 38.910156 L 13.191406 38.523438 C 12.355469 39.527344 9.550781 41.511719 9.328125 42.8125 L 9.101562 42.867188 C 8.667969 43.601562 8.382812 44.4375 8.039062 45.195312 C 8.027344 45.21875 8.015625 45.230469 8 45.253906 L 8 51.246094 C 8.300781 50.425781 8.949219 49.496094 9.472656 48.1875 L 9.078125 48.117188 C 9.835938 46.789062 13.417969 42.78125 15.078125 42.988281 C 15.878906 41.980469 14.917969 42.984375 14.761719 42.734375 C 16.527344 40.90625 17.082031 41.441406 18.273438 41.113281 C 19.558594 40.351562 17.175781 41.410156 17.785156 40.824219 C 20.007812 40.253906 19.355469 39.535156 22.253906 39.246094 C 22.558594 39.421875 21.546875 39.515625 21.292969 39.742188 C 23.140625 38.835938 27.144531 39.039062 29.75 40.242188 C 32.769531 41.652344 36.160156 45.824219 36.296875 49.75 L 36.453125 49.792969 C 36.375 51.351562 36.6875 53.15625 36.140625 54.8125 L 36.511719 54.027344 C 36.554688 55.21875 36.164062 55.796875 35.808594 56.820312 L 35.171875 57.140625 C 34.652344 58.15625 35.21875 57.785156 34.847656 58.589844 C 34.441406 58.949219 33.832031 59.507812 33.253906 60 L 35.527344 60 C 35.828125 59.707031 36.082031 59.476562 36.195312 59.46875 C 35.910156 59.898438 36.070312 59.855469 36.066406 60 L 36.109375 60 C 36.585938 59.074219 35.703125 59.585938 36.8125 57.972656 L 37.261719 58.589844 C 37.09375 57.484375 38.632812 56.140625 38.476562 54.390625 C 38.832031 53.855469 38.875 54.96875 38.5 56.199219 C 39.019531 54.832031 38.636719 54.613281 38.769531 53.488281 C 38.910156 53.867188 39.101562 54.269531 39.199219 54.667969 C 38.859375 53.347656 39.546875 52.441406 39.71875 51.675781 C 39.546875 51.601562 39.195312 52.257812 39.113281 50.699219 C 39.125 50.023438 39.300781 50.347656 39.367188 50.183594 C 39.234375 50.105469 38.886719 49.582031 38.675781 48.585938 C 38.828125 48.351562 39.089844 49.191406 39.300781 49.226562 C 39.164062 48.433594 38.929688 47.832031 38.921875 47.226562 C 38.308594 45.945312 38.703125 47.398438 38.210938 46.679688 C 37.558594 44.648438 38.746094 46.210938 38.828125 45.289062 C 39.8125 46.714844 40.378906 48.933594 40.636719 49.851562 C 40.441406 48.730469 40.117188 47.644531 39.730469 46.597656 C 40.03125 46.722656 39.253906 44.296875 40.125 45.90625 C 39.191406 42.476562 36.136719 39.269531 33.328125 37.769531 C 33.667969 38.082031 34.097656 38.480469 33.945312 38.542969 C 32.546875 37.710938 32.792969 37.640625 32.59375 37.292969 C 31.457031 36.828125 31.378906 37.328125 30.628906 37.292969 C 28.480469 36.152344 28.070312 36.273438 26.09375 35.5625 L 26.179688 35.980469 C 24.757812 35.507812 24.523438 36.15625 22.988281 35.980469 C 22.894531 35.910156 23.480469 35.71875 23.964844 35.652344 C 22.589844 35.832031 22.65625 35.375 21.308594 35.695312 C 21.640625 35.464844 21.992188 35.308594 22.34375 35.113281 Z M 23.453125 35.371094 C 23.84375 35.4375 24.300781 35.496094 24.238281 35.589844 C 24.667969 35.496094 24.765625 35.40625 23.453125 35.371094 Z M 24.238281 35.589844 L 23.964844 35.648438 L 24.21875 35.625 Z M 25.222656 47.070312 C 23.039062 47.105469 20.996094 48.488281 20.316406 49.996094 C 19.199219 50.699219 19.066406 52.707031 18.582031 53.074219 C 18.140625 56.300781 18.863281 58.292969 20.335938 60 L 22.058594 60 C 20.71875 58.636719 19.824219 56.785156 19.855469 54.703125 C 19.808594 55.035156 19.730469 54.953125 19.640625 55.085938 C 19.425781 52.398438 20.886719 49.699219 23.339844 48.59375 C 25.742188 47.40625 28.554688 47.890625 30.273438 49.496094 C 29.328125 48.257812 27.449219 46.949219 25.222656 47.070312 Z M 31.558594 52.636719 C 31.464844 52.640625 31.347656 52.867188 31.289062 53.121094 C 31.425781 53.191406 31.535156 54.058594 31.667969 53.523438 C 31.714844 52.859375 31.648438 52.636719 31.558594 52.636719 Z M 39.617188 54.871094 L 39.515625 55.144531 C 39.316406 56.554688 38.882812 57.953125 38.226562 59.25 C 38.953125 57.882812 39.417969 56.386719 39.617188 54.871094 Z M 31.082031 55.371094 C 30.980469 55.859375 30.714844 56.28125 30.464844 56.726562 C 29.085938 57.59375 30.332031 56.214844 30.464844 55.6875 C 28.980469 57.554688 30.261719 56.804688 30.207031 57.328125 C 30.648438 56.71875 30.96875 56.058594 31.082031 55.371094 Z M 28.074219 58.21875 C 27.472656 58.363281 26.867188 58.367188 26.25 58.3125 C 25.511719 58.320312 26.386719 58.691406 27.351562 58.839844 C 27.617188 58.632812 27.855469 58.421875 28.074219 58.21875 Z M 18.765625 58.316406 C 18.929688 58.914062 19.265625 59.421875 19.574219 59.945312 L 19.34375 59.277344 C 19.085938 58.992188 18.9375 58.65625 18.765625 58.316406 Z M 18.203125 59.324219 L 18.097656 59.84375 C 18.132812 59.894531 18.167969 59.945312 18.207031 60 L 18.589844 60 C 18.460938 59.78125 18.359375 59.625 18.203125 59.324219 Z M 18.203125 59.324219 "/>
</svg>
