<?xml version="1.0" encoding="UTF-8"?>
<svg xmlns="http://www.w3.org/2000/svg" xmlns:xlink="http://www.w3.org/1999/xlink" width="64" height="64" viewBox="0 0 64 64">
<defs>
<filter id="filter-remove-color" x="0%" y="0%" width="100%" height="100%">
<feColorMatrix color-interpolation-filters="sRGB" values="0 0 0 0 1 0 0 0 0 1 0 0 0 0 1 0 0 0 1 0" />
</filter>
<mask id="mask-0">
<g filter="url(#filter-remove-color)">
<rect x="-6.4" y="-6.4" width="76.8" height="76.8" fill="rgb(0%, 0%, 0%)" fill-opacity="0.15"/>
</g>
</mask>
<linearGradient id="linear-pattern-0" gradientUnits="userSpaceOnUse" x1="49.570999" y1="52.714001" x2="51.714001" y2="54.856998" gradientTransform="matrix(2.3333, 0, 0, 2.3333, -68.667, -72.000999)">
<stop offset="0" stop-color="rgb(0%, 0%, 0%)" stop-opacity="1"/>
<stop offset="1" stop-color="rgb(0%, 0%, 0%)" stop-opacity="0"/>
</linearGradient>
<clipPath id="clip-0">
<rect x="0" y="0" width="64" height="64"/>
</clipPath>
<g id="source-12788" clip-path="url(#clip-0)">
<path fill-rule="evenodd" fill="url(#linear-pattern-0)" d="M 56 46 L 42 60 L 51 60 C 53.769531 60 56 57.769531 56 55 Z M 56 46 "/>
</g>
<mask id="mask-1">
<g filter="url(#filter-remove-color)">
<rect x="-6.4" y="-6.4" width="76.8" height="76.8" fill="rgb(0%, 0%, 0%)" fill-opacity="0.75"/>
</g>
</mask>
<clipPath id="clip-1">
<rect x="0" y="0" width="64" height="64"/>
</clipPath>
<g id="source-12792" clip-path="url(#clip-1)">
<path fill-rule="nonzero" fill="rgb(100%, 100%, 100%)" fill-opacity="1" d="M 35.734375 22.011719 C 31.75 22.011719 28.523438 25.238281 28.523438 29.21875 C 28.523438 30.300781 28.769531 31.320312 29.195312 32.238281 L 27.960938 33.699219 L 27.855469 35.066406 C 27.84375 35.078125 26.511719 35.117188 26.511719 35.117188 L 25.824219 35.613281 C 25.824219 35.613281 25.828125 37.105469 25.824219 37.085938 L 25.820312 37.089844 L 24.355469 37.113281 L 23.734375 37.820312 L 23.71875 39.160156 C 23.71875 39.160156 22.453125 39.078125 22.324219 39.195312 C 21.515625 39.941406 20.96875 40.472656 20.96875 40.472656 L 20.976562 43.980469 C 20.976562 43.980469 21.445312 43.976562 21.664062 43.976562 L 31.003906 34.640625 C 31.496094 35.070312 32.050781 35.433594 32.648438 35.71875 L 32.652344 35.71875 C 33.589844 36.160156 34.632812 36.417969 35.734375 36.417969 C 39.71875 36.417969 42.945312 33.191406 42.945312 29.210938 C 42.945312 25.230469 39.71875 22.003906 35.734375 22.007812 M 37.109375 25.441406 C 38.4375 25.441406 39.511719 26.515625 39.511719 27.84375 C 39.511719 29.171875 38.4375 30.246094 37.109375 30.246094 C 35.78125 30.246094 34.707031 29.171875 34.707031 27.84375 C 34.707031 26.515625 35.78125 25.441406 37.109375 25.441406 "/>
</g>
<mask id="mask-2">
<g filter="url(#filter-remove-color)">
<rect x="-6.4" y="-6.4" width="76.8" height="76.8" fill="rgb(0%, 0%, 0%)" fill-opacity="0.5"/>
</g>
</mask>
<clipPath id="clip-2">
<rect x="0" y="0" width="64" height="64"/>
</clipPath>
<g id="source-12796" clip-path="url(#clip-2)">
<path fill-rule="nonzero" fill="rgb(100%, 100%, 100%)" fill-opacity="1" d="M 37.109375 25.445312 C 35.78125 25.445312 34.707031 26.523438 34.707031 27.847656 C 34.707031 29.175781 35.78125 30.25 37.109375 30.25 C 38.4375 30.25 39.511719 29.175781 39.511719 27.847656 C 39.511719 26.523438 38.4375 25.445312 37.109375 25.445312 M 37.109375 26.816406 C 37.679688 26.816406 38.140625 27.28125 38.140625 27.847656 C 38.140625 28.417969 37.679688 28.878906 37.109375 28.878906 C 36.539062 28.878906 36.078125 28.417969 36.078125 27.847656 C 36.078125 27.28125 36.542969 26.816406 37.109375 26.816406 M 31 34.644531 L 21.660156 43.984375 L 25.09375 43.984375 L 33.246094 35.976562 C 32.414062 35.667969 31.65625 35.21875 31 34.648438 "/>
</g>
</defs>
<path fill-rule="nonzero" fill="rgb(31.764706%, 85.882353%, 31.764706%)" fill-opacity="1" d="M 13 4 L 51 4 C 53.761719 4 56 6.238281 56 9 L 56 55 C 56 57.761719 53.761719 60 51 60 L 13 60 C 10.238281 60 8 57.761719 8 55 L 8 9 C 8 6.238281 10.238281 4 13 4 Z M 13 4 "/>
<g mask="url(#mask-0)">
<use xlink:href="#source-12788"/>
</g>
<g mask="url(#mask-1)">
<use xlink:href="#source-12792"/>
</g>
<g mask="url(#mask-2)">
<use xlink:href="#source-12796"/>
</g>
</svg>
