<?xml version="1.0" encoding="UTF-8"?>
<svg xmlns="http://www.w3.org/2000/svg" xmlns:xlink="http://www.w3.org/1999/xlink" width="64" height="64" viewBox="0 0 64 64">
<defs>
<filter id="filter-remove-color" x="0%" y="0%" width="100%" height="100%">
<feColorMatrix color-interpolation-filters="sRGB" values="0 0 0 0 1 0 0 0 0 1 0 0 0 0 1 0 0 0 1 0" />
</filter>
<mask id="mask-0">
<g filter="url(#filter-remove-color)">
<rect x="-6.4" y="-6.4" width="76.8" height="76.8" fill="rgb(0%, 0%, 0%)" fill-opacity="0.15"/>
</g>
</mask>
<linearGradient id="linear-pattern-0" gradientUnits="userSpaceOnUse" x1="49.570999" y1="52.714001" x2="51.714001" y2="54.856998" gradientTransform="matrix(0.61734, 0, 0, 0.61734, -18.167999, -19.049999)">
<stop offset="0" stop-color="rgb(0%, 0%, 0%)" stop-opacity="1"/>
<stop offset="1" stop-color="rgb(0%, 0%, 0%)" stop-opacity="0"/>
</linearGradient>
<clipPath id="clip-0">
<rect x="0" y="0" width="17" height="17"/>
</clipPath>
<g id="source-7536" clip-path="url(#clip-0)">
<path fill-rule="evenodd" fill="url(#linear-pattern-0)" d="M 14.816406 12.171875 L 11.113281 15.875 L 13.492188 15.875 C 14.226562 15.875 14.816406 15.285156 14.816406 14.550781 Z M 14.816406 12.171875 "/>
</g>
<mask id="mask-1">
<g filter="url(#filter-remove-color)">
<rect x="-6.4" y="-6.4" width="76.8" height="76.8" fill="rgb(0%, 0%, 0%)" fill-opacity="0.5"/>
</g>
</mask>
<clipPath id="clip-1">
<rect x="0" y="0" width="17" height="17"/>
</clipPath>
<g id="source-7542" clip-path="url(#clip-1)">
<path fill-rule="nonzero" fill="rgb(100%, 100%, 100%)" fill-opacity="1" d="M 5.097656 8.722656 C 5.089844 8.722656 5.085938 8.722656 5.082031 8.722656 C 4.765625 8.730469 4.453125 8.742188 4.25 8.773438 C 3.328125 8.914062 2.59375 9.234375 2.117188 9.703125 C 2.117188 9.707031 2.117188 9.707031 2.117188 9.707031 L 2.117188 12.410156 C 2.359375 12.675781 2.683594 12.925781 3.101562 13.175781 C 3.46875 13.390625 3.75 13.53125 4.566406 13.902344 C 5.542969 14.339844 5.839844 14.515625 5.980469 14.738281 C 6.035156 14.828125 6.054688 14.871094 6.046875 14.980469 C 6.03125 15.148438 5.949219 15.234375 5.746094 15.308594 C 5.613281 15.355469 5.566406 15.367188 5.3125 15.367188 C 4.851562 15.363281 4.445312 15.277344 3.882812 15.078125 C 3.492188 14.941406 3.117188 14.757812 2.769531 14.53125 C 2.441406 14.316406 2.414062 14.308594 2.320312 14.359375 C 2.300781 14.371094 2.191406 14.46875 2.117188 14.53125 L 2.117188 14.550781 C 2.117188 15.285156 2.707031 15.875 3.441406 15.875 L 9.144531 15.875 C 9.300781 15.683594 9.40625 15.507812 9.492188 15.269531 C 9.585938 15.003906 9.613281 14.476562 9.542969 14.15625 C 9.425781 13.636719 9.113281 13.167969 8.609375 12.773438 C 8.105469 12.375 7.59375 12.113281 6.363281 11.621094 C 5.503906 11.277344 5.183594 11.097656 5.097656 10.90625 C 5.050781 10.804688 5.078125 10.621094 5.148438 10.554688 C 5.28125 10.417969 5.542969 10.367188 5.882812 10.410156 C 6.507812 10.484375 7.316406 10.773438 8.027344 11.171875 C 8.164062 11.25 8.296875 11.3125 8.328125 11.316406 C 8.441406 11.347656 8.511719 11.300781 8.976562 10.773438 C 9.546875 10.121094 9.539062 10.144531 9.226562 9.921875 C 8.289062 9.253906 7.207031 8.863281 5.964844 8.746094 C 5.675781 8.722656 5.386719 8.714844 5.097656 8.722656 Z M 5.097656 8.722656 "/>
</g>
</defs>
<path fill-rule="nonzero" fill="rgb(100%, 46.27451%, 26.27451%)" fill-opacity="1" d="M 3.441406 1.058594 L 13.492188 1.058594 C 14.222656 1.058594 14.816406 1.652344 14.816406 2.382812 L 14.816406 14.550781 C 14.816406 15.28125 14.222656 15.875 13.492188 15.875 L 3.441406 15.875 C 2.707031 15.875 2.117188 15.28125 2.117188 14.550781 L 2.117188 2.382812 C 2.117188 1.652344 2.707031 1.058594 3.441406 1.058594 Z M 3.441406 1.058594 "/>
<g mask="url(#mask-0)">
<use xlink:href="#source-7536"/>
</g>
<path fill-rule="nonzero" fill="rgb(100%, 100%, 100%)" fill-opacity="1" d="M 7.9375 6.613281 L 7.9375 8.335938 C 7.9375 8.40625 7.996094 8.464844 8.070312 8.464844 L 8.863281 8.464844 C 8.9375 8.464844 8.996094 8.40625 8.996094 8.335938 L 8.996094 6.613281 Z M 8.203125 7.671875 L 8.730469 7.671875 L 8.730469 8.203125 L 8.203125 8.203125 Z M 8.203125 7.671875 "/>
<path fill-rule="nonzero" fill="rgb(100%, 100%, 100%)" fill-opacity="1" d="M 8.46875 1.058594 L 7.9375 1.058594 L 7.9375 1.585938 L 8.46875 1.585938 Z M 8.46875 1.585938 L 8.46875 2.117188 L 8.996094 2.117188 L 8.996094 1.585938 Z M 8.46875 2.117188 L 7.9375 2.117188 L 7.9375 2.644531 L 8.46875 2.644531 Z M 8.46875 2.644531 L 8.46875 3.175781 L 8.996094 3.175781 L 8.996094 2.644531 Z M 8.46875 3.175781 L 7.9375 3.175781 L 7.9375 3.703125 L 8.46875 3.703125 Z M 8.46875 3.703125 L 8.46875 4.234375 L 8.996094 4.234375 L 8.996094 3.703125 Z M 8.46875 4.234375 L 7.9375 4.234375 L 7.9375 4.761719 L 8.46875 4.761719 Z M 8.46875 4.761719 L 8.46875 5.292969 L 8.996094 5.292969 L 8.996094 4.761719 Z M 8.46875 5.292969 L 7.9375 5.292969 L 7.9375 5.820312 L 8.46875 5.820312 Z M 8.46875 5.820312 L 8.46875 6.351562 L 8.996094 6.351562 L 8.996094 5.820312 Z M 8.46875 5.820312 "/>
<g mask="url(#mask-1)">
<use xlink:href="#source-7542"/>
</g>
</svg>
