<?xml version="1.0" encoding="UTF-8"?>
<svg xmlns="http://www.w3.org/2000/svg" xmlns:xlink="http://www.w3.org/1999/xlink" width="64" height="64" viewBox="0 0 64 64">
<defs>
<filter id="filter-remove-color" x="0%" y="0%" width="100%" height="100%">
<feColorMatrix color-interpolation-filters="sRGB" values="0 0 0 0 1 0 0 0 0 1 0 0 0 0 1 0 0 0 1 0" />
</filter>
<mask id="mask-0">
<g filter="url(#filter-remove-color)">
<rect x="-6.4" y="-6.4" width="76.8" height="76.8" fill="rgb(0%, 0%, 0%)" fill-opacity="0.1"/>
</g>
</mask>
<linearGradient id="linear-pattern-0" gradientUnits="userSpaceOnUse" x1="49.570999" y1="52.714001" x2="51.714001" y2="54.856998" gradientTransform="matrix(0.61734, 0, 0, 0.61734, -18.167999, -19.049999)">
<stop offset="0" stop-color="rgb(0%, 0%, 0%)" stop-opacity="1"/>
<stop offset="1" stop-color="rgb(0%, 0%, 0%)" stop-opacity="0"/>
</linearGradient>
<clipPath id="clip-0">
<rect x="0" y="0" width="17" height="17"/>
</clipPath>
<g id="source-4065" clip-path="url(#clip-0)">
<path fill-rule="evenodd" fill="url(#linear-pattern-0)" d="M 14.816406 12.171875 L 11.113281 15.875 L 13.492188 15.875 C 14.226562 15.875 14.816406 15.285156 14.816406 14.550781 Z M 14.816406 12.171875 "/>
</g>
</defs>
<path fill-rule="nonzero" fill="rgb(95.686275%, 95.686275%, 95.686275%)" fill-opacity="1" d="M 3.441406 1.058594 L 13.492188 1.058594 C 14.222656 1.058594 14.816406 1.652344 14.816406 2.382812 L 14.816406 14.550781 C 14.816406 15.28125 14.222656 15.875 13.492188 15.875 L 3.441406 15.875 C 2.707031 15.875 2.117188 15.28125 2.117188 14.550781 L 2.117188 2.382812 C 2.117188 1.652344 2.707031 1.058594 3.441406 1.058594 Z M 3.441406 1.058594 "/>
<path fill-rule="nonzero" fill="rgb(94.117647%, 56.470588%, 12.54902%)" fill-opacity="1" d="M 11.121094 13.757812 L 10.59375 13.761719 L 10.59375 12.363281 C 10.347656 12.597656 9.792969 13.070312 9.792969 13.070312 L 9.003906 12.363281 L 9.003906 13.757812 L 8.476562 13.757812 L 8.476562 11.640625 C 8.476562 11.640625 8.839844 11.644531 8.980469 11.648438 C 9 11.648438 9.015625 11.664062 9.03125 11.679688 C 9.242188 11.886719 9.796875 12.355469 9.796875 12.355469 C 9.796875 12.355469 10.382812 11.859375 10.554688 11.6875 C 10.578125 11.65625 10.617188 11.644531 10.652344 11.644531 C 10.761719 11.648438 11.007812 11.640625 11.121094 11.640625 Z M 11.121094 13.757812 "/>
<path fill-rule="nonzero" fill="rgb(94.117647%, 56.470588%, 12.54902%)" fill-opacity="1" d="M 6.832031 12.246094 C 6.832031 12.246094 7.210938 11.867188 7.402344 11.679688 C 7.417969 11.664062 7.445312 11.644531 7.464844 11.644531 C 7.628906 11.640625 7.945312 11.640625 7.945312 11.640625 L 7.945312 13.757812 L 7.417969 13.757812 L 7.417969 12.382812 C 7.417969 12.382812 6.519531 13.28125 6.089844 13.710938 C 6.058594 13.742188 6.015625 13.761719 5.972656 13.757812 C 5.773438 13.757812 5.316406 13.757812 5.316406 13.757812 Z M 6.832031 12.246094 "/>
<path fill-rule="nonzero" fill="rgb(94.117647%, 56.470588%, 12.54902%)" fill-opacity="1" d="M 5.070312 12.742188 L 3.96875 11.640625 C 3.96875 11.640625 4.398438 11.640625 4.542969 11.644531 C 4.582031 11.640625 4.621094 11.65625 4.648438 11.683594 C 4.875 11.917969 5.105469 12.144531 5.335938 12.375 C 5.351562 12.390625 5.367188 12.40625 5.386719 12.421875 C 5.628906 12.179688 5.871094 11.941406 6.109375 11.699219 C 6.152344 11.660156 6.1875 11.640625 6.246094 11.640625 C 6.355469 11.640625 6.800781 11.640625 6.800781 11.640625 C 6.800781 11.640625 5.996094 12.449219 5.652344 12.789062 C 5.347656 13.097656 5.035156 13.402344 4.730469 13.710938 C 4.699219 13.742188 4.652344 13.761719 4.605469 13.757812 C 4.453125 13.757812 4.0625 13.757812 4.0625 13.757812 Z M 5.070312 12.742188 "/>
<path fill-rule="nonzero" fill="rgb(94.117647%, 56.470588%, 12.54902%)" fill-opacity="1" d="M 11.648438 11.640625 L 12.179688 11.640625 L 12.179688 13.363281 C 12.179688 13.363281 12.871094 13.363281 13.1875 13.359375 C 13.226562 13.359375 13.265625 13.375 13.292969 13.402344 C 13.394531 13.507812 13.496094 13.613281 13.597656 13.714844 C 13.609375 13.726562 13.621094 13.742188 13.636719 13.757812 L 11.648438 13.757812 Z M 11.648438 11.640625 "/>
<path fill="none" stroke-width="8" stroke-linecap="butt" stroke-linejoin="round" stroke="rgb(60%, 60%, 60%)" stroke-opacity="1" stroke-miterlimit="4" d="M 204.002561 115.98174 C 204.002561 127.025185 180.734552 136.001676 151.974349 136.001676 C 123.273201 136.001676 100.005192 127.025185 100.005192 115.98174 C 100.005192 104.938294 123.273201 95.961803 151.974349 95.961803 C 180.734552 95.961803 204.002561 104.938294 204.002561 115.98174 Z M 204.002561 115.98174 " transform="matrix(0.066145, 0, 0, 0.066145, -1.5875, -1.8513)"/>
<path fill="none" stroke-width="8" stroke-linecap="butt" stroke-linejoin="miter" stroke="rgb(60%, 60%, 60%)" stroke-opacity="1" stroke-miterlimit="4" d="M 100.005192 115.98174 L 100.005192 163.994154 " transform="matrix(0.066145, 0, 0, 0.066145, -1.5875, -1.8513)"/>
<path fill="none" stroke-width="8" stroke-linecap="butt" stroke-linejoin="round" stroke="rgb(60%, 60%, 60%)" stroke-opacity="1" stroke-miterlimit="4" d="M 204.002561 131.985878 C 204.002561 139.131637 194.081177 145.745893 178.017983 149.289244 C 161.895733 152.891652 142.11202 152.891652 125.98977 149.289244 C 109.926577 145.745893 100.005192 139.131637 100.005192 131.985878 " transform="matrix(0.066145, 0, 0, 0.066145, -1.5875, -1.8513)"/>
<path fill="none" stroke-width="8" stroke-linecap="butt" stroke-linejoin="round" stroke="rgb(60%, 60%, 60%)" stroke-opacity="1" stroke-miterlimit="4" d="M 204.002561 147.990016 C 204.002561 155.135775 194.081177 161.750031 178.017983 165.293382 C 161.895733 168.89579 142.11202 168.89579 125.98977 165.293382 C 109.926577 161.750031 100.005192 155.135775 100.005192 147.990016 " transform="matrix(0.066145, 0, 0, 0.066145, -1.5875, -1.8513)"/>
<path fill="none" stroke-width="8" stroke-linecap="butt" stroke-linejoin="round" stroke="rgb(60%, 60%, 60%)" stroke-opacity="1" stroke-miterlimit="4" d="M 204.002561 163.994154 C 204.002561 171.139913 194.081177 177.754169 178.017983 181.29752 C 161.895733 184.899928 142.11202 184.899928 125.98977 181.29752 C 109.926577 177.754169 100.005192 171.139913 100.005192 163.994154 " transform="matrix(0.066145, 0, 0, 0.066145, -1.5875, -1.8513)"/>
<path fill="none" stroke-width="8" stroke-linecap="butt" stroke-linejoin="miter" stroke="rgb(60%, 60%, 60%)" stroke-opacity="1" stroke-miterlimit="4" d="M 204.002561 115.98174 L 204.002561 163.994154 " transform="matrix(0.066145, 0, 0, 0.066145, -1.5875, -1.8513)"/>
<g mask="url(#mask-0)">
<use xlink:href="#source-4065"/>
</g>
</svg>
