<?xml version="1.0" encoding="UTF-8"?>
<svg xmlns="http://www.w3.org/2000/svg" xmlns:xlink="http://www.w3.org/1999/xlink" width="64" height="64" viewBox="0 0 64 64">
<defs>
<filter id="filter-remove-color" x="0%" y="0%" width="100%" height="100%">
<feColorMatrix color-interpolation-filters="sRGB" values="0 0 0 0 1 0 0 0 0 1 0 0 0 0 1 0 0 0 1 0" />
</filter>
<mask id="mask-0">
<g filter="url(#filter-remove-color)">
<rect x="-6.4" y="-6.4" width="76.8" height="76.8" fill="rgb(0%, 0%, 0%)" fill-opacity="0.15"/>
</g>
</mask>
<linearGradient id="linear-pattern-0" gradientUnits="userSpaceOnUse" x1="49.570999" y1="52.714001" x2="51.714001" y2="54.856998" gradientTransform="matrix(2.3333, 0, 0, 2.3333, -68.667, -72.000999)">
<stop offset="0" stop-color="rgb(0%, 0%, 0%)" stop-opacity="1"/>
<stop offset="1" stop-color="rgb(0%, 0%, 0%)" stop-opacity="0"/>
</linearGradient>
<clipPath id="clip-0">
<rect x="0" y="0" width="64" height="64"/>
</clipPath>
<g id="source-16931" clip-path="url(#clip-0)">
<path fill-rule="evenodd" fill="url(#linear-pattern-0)" d="M 56 46 L 42 60 L 51 60 C 53.769531 60 56 57.769531 56 55 Z M 56 46 "/>
</g>
</defs>
<path fill-rule="nonzero" fill="rgb(27.843137%, 27.843137%, 70.980392%)" fill-opacity="1" d="M 13 4 L 51 4 C 53.761719 4 56 6.238281 56 9 L 56 55 C 56 57.761719 53.761719 60 51 60 L 13 60 C 10.238281 60 8 57.761719 8 55 L 8 9 C 8 6.238281 10.238281 4 13 4 Z M 13 4 "/>
<g mask="url(#mask-0)">
<use xlink:href="#source-16931"/>
</g>
<path fill-rule="nonzero" fill="rgb(100%, 100%, 100%)" fill-opacity="1" d="M 33.132812 18 C 28.253906 18.867188 23.375 20.019531 18.5 20.875 C 18.5 28.289062 18.496094 35.710938 18.5 43.132812 C 23.351562 43.984375 28.203125 45.117188 33.046875 46 L 34.5 46 L 34.5 18 Z M 31.246094 27.070312 L 29 36.5 L 27.15625 36.355469 C 26.730469 34.25 26.238281 32.15625 25.859375 30.039062 C 25.488281 32.09375 25.003906 34.132812 24.578125 36.171875 C 23.96875 36.140625 23.355469 36.101562 22.738281 36.0625 C 22.210938 33.261719 21.589844 30.480469 21.097656 27.675781 C 21.640625 27.652344 22.1875 27.628906 22.734375 27.609375 C 23.0625 29.636719 23.433594 31.652344 23.71875 33.683594 C 24.167969 31.601562 24.625 29.523438 25.070312 27.441406 C 25.675781 27.40625 26.28125 27.382812 26.882812 27.347656 C 27.308594 29.496094 27.738281 31.640625 28.199219 33.777344 C 28.558594 31.570312 28.957031 29.367188 29.339844 27.164062 C 29.976562 27.140625 30.613281 27.109375 31.246094 27.070312 Z M 31.246094 27.070312 "/>
<path fill-rule="nonzero" fill="rgb(100%, 100%, 100%)" fill-opacity="1" d="M 35.5 22 L 45.5 22 L 45.5 42 L 35.5 42 L 35.5 40 L 43.5 40 L 43.5 39 L 35.5 39 L 35.5 37 L 43.5 37 L 43.5 36 L 35.5 36 L 35.5 34 L 43.5 34 L 43.5 33 L 35.5 33 L 35.5 31 L 43.5 31 L 43.5 30 L 35.5 30 L 35.5 28.003906 L 43.5 28.003906 L 43.5 27 L 35.5 27 L 35.5 25 L 43.5 25 L 43.5 24 L 35.5 24 Z M 35.5 22 "/>
</svg>
