<?xml version="1.0" encoding="UTF-8"?>
<svg xmlns="http://www.w3.org/2000/svg" xmlns:xlink="http://www.w3.org/1999/xlink" width="64" height="64" viewBox="0 0 64 64">
<defs>
<filter id="filter-remove-color" x="0%" y="0%" width="100%" height="100%">
<feColorMatrix color-interpolation-filters="sRGB" values="0 0 0 0 1 0 0 0 0 1 0 0 0 0 1 0 0 0 1 0" />
</filter>
<mask id="mask-0">
<g filter="url(#filter-remove-color)">
<rect x="-6.4" y="-6.4" width="76.8" height="76.8" fill="rgb(0%, 0%, 0%)" fill-opacity="0.15"/>
</g>
</mask>
<linearGradient id="linear-pattern-0" gradientUnits="userSpaceOnUse" x1="49.570999" y1="52.714001" x2="51.714001" y2="54.856998" gradientTransform="matrix(0.617345, 0, 0, 0.617345, -18.167916, -19.050025)">
<stop offset="0" stop-color="rgb(0%, 0%, 0%)" stop-opacity="1"/>
<stop offset="1" stop-color="rgb(0%, 0%, 0%)" stop-opacity="0"/>
</linearGradient>
<clipPath id="clip-0">
<rect x="0" y="0" width="17" height="17"/>
</clipPath>
<g id="source-2102" clip-path="url(#clip-0)">
<path fill-rule="evenodd" fill="url(#linear-pattern-0)" d="M 14.816406 12.171875 L 11.113281 15.875 L 13.492188 15.875 C 14.226562 15.875 14.816406 15.285156 14.816406 14.550781 Z M 14.816406 12.171875 "/>
</g>
<mask id="mask-1">
<g filter="url(#filter-remove-color)">
<rect x="-6.4" y="-6.4" width="76.8" height="76.8" fill="rgb(0%, 0%, 0%)" fill-opacity="0.75"/>
</g>
</mask>
<clipPath id="clip-1">
<rect x="0" y="0" width="17" height="17"/>
</clipPath>
<g id="source-2107" clip-path="url(#clip-1)">
<path fill-rule="nonzero" fill="rgb(100%, 100%, 100%)" fill-opacity="1" d="M 7.9375 8.203125 L 7.9375 9.921875 C 7.9375 9.996094 7.996094 10.054688 8.070312 10.054688 L 8.863281 10.054688 C 8.9375 10.054688 8.996094 9.996094 8.996094 9.921875 L 8.996094 8.203125 Z M 8.203125 9.261719 L 8.730469 9.261719 L 8.730469 9.789062 L 8.203125 9.789062 Z M 8.203125 9.261719 "/>
<path fill-rule="nonzero" fill="rgb(100%, 100%, 100%)" fill-opacity="1" d="M 8.464844 1.058594 L 8.464844 1.585938 L 8.996094 1.585938 L 8.996094 1.058594 Z M 8.464844 1.585938 L 7.9375 1.585938 L 7.9375 2.117188 L 8.464844 2.117188 Z M 8.464844 2.117188 L 8.464844 2.644531 L 8.996094 2.644531 L 8.996094 2.117188 Z M 8.464844 2.644531 L 7.9375 2.644531 L 7.9375 3.175781 L 8.464844 3.175781 Z M 8.464844 3.175781 L 8.464844 3.703125 L 8.996094 3.703125 L 8.996094 3.175781 Z M 8.464844 3.703125 L 7.9375 3.703125 L 7.9375 4.234375 L 8.464844 4.234375 Z M 8.464844 4.234375 L 8.464844 4.761719 L 8.996094 4.761719 L 8.996094 4.234375 Z M 8.464844 4.761719 L 7.9375 4.761719 L 7.9375 5.292969 L 8.464844 5.292969 Z M 8.464844 5.292969 L 8.464844 5.820312 L 8.996094 5.820312 L 8.996094 5.292969 Z M 8.464844 5.820312 L 7.9375 5.820312 L 7.9375 6.351562 L 8.464844 6.351562 Z M 8.464844 6.351562 L 8.464844 6.878906 L 8.996094 6.878906 L 8.996094 6.351562 Z M 8.464844 6.878906 L 7.9375 6.878906 L 7.9375 7.410156 L 8.464844 7.410156 Z M 8.464844 7.410156 L 8.464844 7.9375 L 8.996094 7.9375 L 8.996094 7.410156 Z M 8.464844 7.410156 "/>
</g>
</defs>
<path fill-rule="nonzero" fill="rgb(92.54902%, 66.27451%, 45.098039%)" fill-opacity="1" d="M 3.441406 1.058594 L 13.492188 1.058594 C 14.222656 1.058594 14.816406 1.652344 14.816406 2.382812 L 14.816406 14.550781 C 14.816406 15.28125 14.222656 15.875 13.492188 15.875 L 3.441406 15.875 C 2.707031 15.875 2.117188 15.28125 2.117188 14.550781 L 2.117188 2.382812 C 2.117188 1.652344 2.707031 1.058594 3.441406 1.058594 Z M 3.441406 1.058594 "/>
<g mask="url(#mask-0)">
<use xlink:href="#source-2102"/>
</g>
<g mask="url(#mask-1)">
<use xlink:href="#source-2107"/>
</g>
<path fill-rule="nonzero" fill="rgb(84.313725%, 54.117647%, 30.196078%)" fill-opacity="1" d="M 3.703125 11.90625 L 3.703125 12.171875 L 6.878906 12.171875 L 6.878906 11.90625 Z M 3.703125 12.433594 L 3.703125 12.699219 L 6.351562 12.699219 L 6.351562 12.433594 Z M 3.703125 12.964844 L 3.703125 13.230469 L 6.878906 13.230469 L 6.878906 12.964844 Z M 3.703125 13.492188 L 3.703125 13.757812 L 5.820312 13.757812 L 5.820312 13.492188 Z M 3.703125 13.492188 "/>
</svg>
