<?xml version="1.0" encoding="UTF-8"?>
<svg xmlns="http://www.w3.org/2000/svg" xmlns:xlink="http://www.w3.org/1999/xlink" width="64" height="64" viewBox="0 0 64 64">
<defs>
<filter id="filter-remove-color" x="0%" y="0%" width="100%" height="100%">
<feColorMatrix color-interpolation-filters="sRGB" values="0 0 0 0 1 0 0 0 0 1 0 0 0 0 1 0 0 0 1 0" />
</filter>
<mask id="mask-0">
<g filter="url(#filter-remove-color)">
<rect x="-6.4" y="-6.4" width="76.8" height="76.8" fill="rgb(0%, 0%, 0%)" fill-opacity="0.15"/>
</g>
</mask>
<linearGradient id="linear-pattern-0" gradientUnits="userSpaceOnUse" x1="49.570999" y1="52.714001" x2="51.714001" y2="54.856998" gradientTransform="matrix(0.617345, 0, 0, 0.617345, -18.167916, -19.050025)">
<stop offset="0" stop-color="rgb(0%, 0%, 0%)" stop-opacity="1"/>
<stop offset="1" stop-color="rgb(0%, 0%, 0%)" stop-opacity="0"/>
</linearGradient>
<clipPath id="clip-0">
<rect x="0" y="0" width="17" height="17"/>
</clipPath>
<g id="source-16537" clip-path="url(#clip-0)">
<path fill-rule="evenodd" fill="url(#linear-pattern-0)" d="M 14.816406 12.171875 L 11.113281 15.875 L 13.492188 15.875 C 14.226562 15.875 14.816406 15.285156 14.816406 14.550781 Z M 14.816406 12.171875 "/>
</g>
</defs>
<path fill-rule="nonzero" fill="rgb(95.686275%, 37.647059%, 38.431373%)" fill-opacity="1" d="M 3.441406 1.058594 L 13.492188 1.058594 C 14.222656 1.058594 14.816406 1.652344 14.816406 2.382812 L 14.816406 14.550781 C 14.816406 15.28125 14.222656 15.875 13.492188 15.875 L 3.441406 15.875 C 2.707031 15.875 2.117188 15.28125 2.117188 14.550781 L 2.117188 2.382812 C 2.117188 1.652344 2.707031 1.058594 3.441406 1.058594 Z M 3.441406 1.058594 "/>
<g mask="url(#mask-0)">
<use xlink:href="#source-16537"/>
</g>
<path fill-rule="nonzero" fill="rgb(100%, 100%, 100%)" fill-opacity="1" d="M 5.160156 10.578125 C 5.160156 10.457031 5.175781 10.355469 5.210938 10.269531 C 5.273438 10.113281 5.40625 9.996094 5.566406 9.949219 C 5.738281 9.902344 5.914062 9.902344 6.085938 9.949219 C 6.246094 9.996094 6.378906 10.113281 6.441406 10.269531 C 6.480469 10.371094 6.5 10.472656 6.496094 10.578125 C 6.5 10.683594 6.480469 10.785156 6.441406 10.882812 C 6.378906 11.039062 6.246094 11.160156 6.082031 11.207031 C 5.914062 11.257812 5.734375 11.257812 5.566406 11.207031 C 5.402344 11.160156 5.269531 11.039062 5.210938 10.882812 C 5.171875 10.785156 5.15625 10.683594 5.160156 10.578125 "/>
<path fill-rule="nonzero" fill="rgb(100%, 100%, 100%)" fill-opacity="1" d="M 8.828125 8.84375 C 8.828125 9.304688 8.894531 9.648438 9.023438 9.886719 C 9.15625 10.117188 9.363281 10.230469 9.65625 10.230469 C 9.945312 10.230469 10.15625 10.113281 10.285156 9.882812 C 10.414062 9.644531 10.480469 9.300781 10.480469 8.84375 C 10.480469 8.382812 10.414062 8.039062 10.285156 7.8125 C 10.15625 7.585938 9.945312 7.46875 9.648438 7.46875 C 9.359375 7.46875 9.148438 7.585938 9.019531 7.8125 C 8.894531 8.039062 8.832031 8.382812 8.832031 8.84375 M 11.765625 8.84375 C 11.765625 9.230469 11.714844 9.570312 11.617188 9.867188 C 11.53125 10.144531 11.386719 10.402344 11.195312 10.621094 C 11.011719 10.824219 10.78125 10.984375 10.527344 11.089844 C 10.242188 11.195312 9.941406 11.25 9.640625 11.246094 C 9.335938 11.246094 9.054688 11.191406 8.796875 11.089844 C 8.542969 10.984375 8.316406 10.824219 8.132812 10.621094 C 7.9375 10.402344 7.789062 10.144531 7.699219 9.867188 C 7.589844 9.539062 7.535156 9.191406 7.539062 8.84375 C 7.539062 8.460938 7.589844 8.117188 7.683594 7.820312 C 7.785156 7.523438 7.925781 7.273438 8.105469 7.074219 C 8.292969 6.871094 8.519531 6.710938 8.777344 6.609375 C 9.039062 6.507812 9.335938 6.453125 9.664062 6.453125 C 9.972656 6.453125 10.253906 6.507812 10.507812 6.609375 C 10.765625 6.714844 10.984375 6.871094 11.171875 7.074219 C 11.359375 7.273438 11.503906 7.523438 11.609375 7.820312 C 11.714844 8.117188 11.765625 8.460938 11.765625 8.84375 "/>
</svg>
