<?xml version="1.0" encoding="UTF-8"?>
<svg xmlns="http://www.w3.org/2000/svg" xmlns:xlink="http://www.w3.org/1999/xlink" width="64" height="64" viewBox="0 0 64 64">
<defs>
<filter id="filter-remove-color" x="0%" y="0%" width="100%" height="100%">
<feColorMatrix color-interpolation-filters="sRGB" values="0 0 0 0 1 0 0 0 0 1 0 0 0 0 1 0 0 0 1 0" />
</filter>
<mask id="mask-0">
<g filter="url(#filter-remove-color)">
<rect x="-6.4" y="-6.4" width="76.8" height="76.8" fill="rgb(0%, 0%, 0%)" fill-opacity="0.15"/>
</g>
</mask>
<linearGradient id="linear-pattern-0" gradientUnits="userSpaceOnUse" x1="49.570999" y1="52.714001" x2="51.714001" y2="54.856998" gradientTransform="matrix(0.617345, 0, 0, 0.617345, -18.167916, -19.050025)">
<stop offset="0" stop-color="rgb(0%, 0%, 0%)" stop-opacity="1"/>
<stop offset="1" stop-color="rgb(0%, 0%, 0%)" stop-opacity="0"/>
</linearGradient>
<clipPath id="clip-0">
<rect x="0" y="0" width="17" height="17"/>
</clipPath>
<g id="source-7080" clip-path="url(#clip-0)">
<path fill-rule="evenodd" fill="url(#linear-pattern-0)" d="M 14.816406 12.171875 L 11.113281 15.875 L 13.492188 15.875 C 14.226562 15.875 14.816406 15.285156 14.816406 14.550781 Z M 14.816406 12.171875 "/>
</g>
</defs>
<path fill-rule="nonzero" fill="rgb(92.156863%, 14.509804%, 24.313725%)" fill-opacity="1" d="M 3.441406 1.058594 L 13.492188 1.058594 C 14.222656 1.058594 14.816406 1.652344 14.816406 2.382812 L 14.816406 14.550781 C 14.816406 15.28125 14.222656 15.875 13.492188 15.875 L 3.441406 15.875 C 2.707031 15.875 2.117188 15.28125 2.117188 14.550781 L 2.117188 2.382812 C 2.117188 1.652344 2.707031 1.058594 3.441406 1.058594 Z M 3.441406 1.058594 "/>
<g mask="url(#mask-0)">
<use xlink:href="#source-7080"/>
</g>
<path fill-rule="evenodd" fill="rgb(100%, 100%, 100%)" fill-opacity="1" d="M 9.078125 4.804688 L 6.058594 8.386719 C 6.84375 8.511719 8.171875 9.507812 7.972656 10.828125 C 8.382812 9.847656 7.632812 8.652344 6.910156 8.167969 L 9.546875 5.019531 C 9.40625 4.917969 9.292969 4.867188 9.078125 4.804688 Z M 8.0625 5.054688 C 7.945312 5.054688 7.855469 5.074219 7.859375 5.074219 L 6.894531 6.179688 C 6.355469 6.210938 5.828125 6.246094 5.316406 6.296875 C 4.949219 6.335938 4.660156 6.625 4.609375 7.011719 C 4.535156 7.6875 4.496094 8.398438 4.496094 9.136719 C 4.496094 9.871094 4.535156 10.582031 4.609375 11.265625 C 4.660156 11.695312 4.949219 11.910156 5.316406 11.980469 C 6.324219 12.140625 7.785156 11.984375 7.785156 10.597656 C 7.785156 9.296875 5.65625 8.742188 4.929688 9.097656 L 8.292969 5.082031 C 8.214844 5.0625 8.132812 5.054688 8.0625 5.054688 Z M 10.28125 6.195312 C 10.28125 6.195312 8.386719 10.398438 8.203125 10.828125 C 7.921875 11.464844 7.535156 11.933594 6.976562 12.097656 C 7.46875 12.121094 7.957031 12.128906 8.460938 12.128906 C 9.570312 12.128906 10.625 12.074219 11.609375 11.980469 C 11.976562 11.941406 12.273438 11.644531 12.316406 11.265625 C 12.398438 10.582031 12.433594 9.871094 12.433594 9.136719 C 12.433594 8.398438 12.398438 7.6875 12.316406 7.011719 C 12.273438 6.625 11.976562 6.335938 11.609375 6.296875 C 11.179688 6.253906 10.734375 6.214844 10.28125 6.195312 Z M 10.28125 6.195312 "/>
</svg>
