<?xml version="1.0" encoding="UTF-8"?>
<svg xmlns="http://www.w3.org/2000/svg" xmlns:xlink="http://www.w3.org/1999/xlink" width="64" height="64" viewBox="0 0 64 64">
<defs>
<filter id="filter-remove-color" x="0%" y="0%" width="100%" height="100%">
<feColorMatrix color-interpolation-filters="sRGB" values="0 0 0 0 1 0 0 0 0 1 0 0 0 0 1 0 0 0 1 0" />
</filter>
<mask id="mask-0">
<g filter="url(#filter-remove-color)">
<rect x="-6.4" y="-6.4" width="76.8" height="76.8" fill="rgb(0%, 0%, 0%)" fill-opacity="0.1"/>
</g>
</mask>
<linearGradient id="linear-pattern-0" gradientUnits="userSpaceOnUse" x1="49.570999" y1="52.714001" x2="51.714001" y2="54.856998" gradientTransform="matrix(0.617345, 0, 0, 0.617345, -18.167916, -19.050025)">
<stop offset="0" stop-color="rgb(0%, 0%, 0%)" stop-opacity="1"/>
<stop offset="1" stop-color="rgb(0%, 0%, 0%)" stop-opacity="0"/>
</linearGradient>
<clipPath id="clip-0">
<rect x="0" y="0" width="17" height="17"/>
</clipPath>
<g id="source-4625" clip-path="url(#clip-0)">
<path fill-rule="evenodd" fill="url(#linear-pattern-0)" d="M 14.816406 12.171875 L 11.113281 15.875 L 13.492188 15.875 C 14.226562 15.875 14.816406 15.285156 14.816406 14.550781 Z M 14.816406 12.171875 "/>
</g>
</defs>
<path fill-rule="nonzero" fill="rgb(95.686275%, 95.686275%, 95.686275%)" fill-opacity="1" d="M 3.441406 1.058594 L 13.492188 1.058594 C 14.222656 1.058594 14.816406 1.652344 14.816406 2.382812 L 14.816406 14.550781 C 14.816406 15.28125 14.222656 15.875 13.492188 15.875 L 3.441406 15.875 C 2.707031 15.875 2.117188 15.28125 2.117188 14.550781 L 2.117188 2.382812 C 2.117188 1.652344 2.707031 1.058594 3.441406 1.058594 Z M 3.441406 1.058594 "/>
<g mask="url(#mask-0)">
<use xlink:href="#source-4625"/>
</g>
<path fill-rule="nonzero" fill="rgb(56.078431%, 46.27451%, 89.411765%)" fill-opacity="1" d="M 8.371094 6.324219 C 8.183594 6.324219 8.003906 6.347656 7.832031 6.390625 C 7.664062 6.433594 7.515625 6.492188 7.382812 6.5625 L 7.535156 6.988281 C 7.785156 6.855469 8.039062 6.789062 8.300781 6.789062 C 8.507812 6.789062 8.664062 6.839844 8.769531 6.949219 C 8.875 7.050781 8.929688 7.183594 8.929688 7.351562 C 8.929688 7.453125 8.90625 7.546875 8.859375 7.636719 C 8.816406 7.722656 8.757812 7.804688 8.6875 7.886719 C 8.617188 7.964844 8.539062 8.042969 8.460938 8.121094 C 8.382812 8.199219 8.308594 8.28125 8.234375 8.371094 C 8.164062 8.457031 8.105469 8.554688 8.058594 8.65625 C 8.015625 8.757812 7.992188 8.875 7.992188 9 C 7.992188 9.085938 8 9.171875 8.015625 9.25 L 8.480469 9.25 C 8.476562 9.230469 8.472656 9.207031 8.472656 9.183594 L 8.472656 9.121094 C 8.472656 8.988281 8.5 8.871094 8.550781 8.769531 C 8.601562 8.664062 8.664062 8.566406 8.738281 8.476562 C 8.816406 8.386719 8.898438 8.300781 8.988281 8.21875 C 9.078125 8.132812 9.164062 8.046875 9.238281 7.957031 C 9.3125 7.863281 9.375 7.769531 9.429688 7.664062 C 9.480469 7.558594 9.503906 7.4375 9.503906 7.304688 C 9.503906 7.195312 9.488281 7.085938 9.453125 6.972656 C 9.421875 6.851562 9.359375 6.746094 9.273438 6.652344 C 9.1875 6.554688 9.070312 6.480469 8.921875 6.417969 C 8.78125 6.355469 8.597656 6.324219 8.371094 6.324219 Z M 6.796875 7.433594 L 4.234375 8.519531 L 4.234375 8.996094 L 6.796875 10.082031 L 6.949219 9.625 L 4.84375 8.757812 L 6.949219 7.890625 Z M 10.136719 7.433594 L 9.980469 7.890625 L 12.089844 8.757812 L 9.980469 9.625 L 10.136719 10.082031 L 12.699219 8.996094 L 12.699219 8.519531 Z M 8.277344 9.8125 C 8.152344 9.8125 8.058594 9.851562 7.984375 9.933594 C 7.914062 10.011719 7.878906 10.105469 7.878906 10.210938 C 7.878906 10.316406 7.914062 10.410156 7.984375 10.488281 C 8.058594 10.570312 8.152344 10.609375 8.277344 10.609375 C 8.398438 10.609375 8.496094 10.570312 8.566406 10.488281 C 8.640625 10.410156 8.675781 10.316406 8.675781 10.210938 C 8.675781 10.105469 8.640625 10.011719 8.566406 9.933594 C 8.496094 9.851562 8.398438 9.8125 8.277344 9.8125 Z M 8.277344 9.8125 "/>
</svg>
