<?xml version="1.0" encoding="UTF-8"?>
<svg xmlns="http://www.w3.org/2000/svg" xmlns:xlink="http://www.w3.org/1999/xlink" width="64" height="64" viewBox="0 0 64 64">
<defs>
<filter id="filter-remove-color" x="0%" y="0%" width="100%" height="100%">
<feColorMatrix color-interpolation-filters="sRGB" values="0 0 0 0 1 0 0 0 0 1 0 0 0 0 1 0 0 0 1 0" />
</filter>
<mask id="mask-0">
<g filter="url(#filter-remove-color)">
<rect x="-6.4" y="-6.4" width="76.8" height="76.8" fill="rgb(0%, 0%, 0%)" fill-opacity="0.35"/>
</g>
</mask>
<clipPath id="clip-0">
<rect x="0" y="0" width="64" height="64"/>
</clipPath>
<g id="source-11243" clip-path="url(#clip-0)">
<path fill-rule="evenodd" fill="rgb(100%, 100%, 100%)" fill-opacity="1" d="M 21.390625 21.054688 C 23.210938 28.21875 14.976562 30.382812 12.007812 34.84375 C 9.984375 37.882812 13 41.148438 17.113281 44.859375 C 15.507812 41.234375 10.070312 38.058594 17.113281 32.496094 C 25.898438 25.5625 21.390625 21.054688 21.390625 21.054688 Z M 26.828125 29.917969 C 26.828125 29.917969 11.972656 33.625 19.066406 41.800781 C 21.160156 44.210938 18.519531 46.378906 18.519531 46.378906 C 18.519531 46.378906 23.832031 43.632812 21.390625 40.199219 C 19.109375 36.996094 17.363281 35.402344 26.828125 29.917969 Z M 29.457031 44.519531 C 28.933594 44.519531 28.378906 44.609375 27.8125 44.808594 C 27.355469 44.96875 27.117188 45.347656 27.117188 45.347656 C 27.117188 45.347656 27.40625 45.230469 28.046875 45.097656 C 30.675781 44.550781 34.4375 48.613281 26.296875 52.84375 C 26.257812 52.941406 26.136719 53.054688 26.136719 53.054688 C 35.816406 50.511719 33.707031 44.511719 29.457031 44.519531 Z M 12.011719 44.929688 C 11.558594 44.921875 10.027344 44.949219 8 45.53125 L 8 46.386719 C 9.058594 45.671875 12.152344 44.9375 12.152344 44.9375 C 12.152344 44.9375 12.105469 44.933594 12.015625 44.929688 Z M 26.332031 46.515625 C 26.332031 46.515625 23.054688 47.101562 19.792969 47.375 C 15.796875 47.710938 11.511719 47.777344 9.359375 47.488281 C 8.703125 47.402344 8.269531 47.292969 8 47.171875 L 8 48.46875 C 12.289062 48.984375 19.609375 48.824219 24.347656 47.578125 C 25.179688 47.011719 26.332031 46.515625 26.332031 46.515625 Z M 10.3125 49.859375 C 8.796875 50.363281 8.089844 50.878906 8 51.359375 L 8 51.558594 C 8.3125 53.28125 16.832031 54.355469 24.675781 52.058594 C 23.582031 51.675781 22.890625 50.972656 22.890625 50.972656 C 17.867188 51.9375 14.96875 51.90625 11.292969 51.527344 C 8.453125 51.234375 10.3125 49.859375 10.3125 49.859375 Z M 11.351562 54.609375 C 4.683594 56.472656 15.410156 60.320312 23.90625 56.683594 C 22.515625 56.140625 21.519531 55.519531 21.519531 55.519531 C 17.730469 56.234375 15.972656 56.289062 12.535156 55.898438 C 9.699219 55.570312 11.355469 54.609375 11.355469 54.609375 Z M 30.296875 58.121094 C 30.296875 58.121094 31.523438 59.132812 28.945312 59.914062 C 28.847656 59.945312 28.71875 59.972656 28.609375 60 L 30.171875 60 C 31.332031 59.339844 31.492188 58.660156 30.296875 58.121094 Z M 30.296875 58.121094 "/>
</g>
<mask id="mask-1">
<g filter="url(#filter-remove-color)">
<rect x="-6.4" y="-6.4" width="76.8" height="76.8" fill="rgb(0%, 0%, 0%)" fill-opacity="0.15"/>
</g>
</mask>
<linearGradient id="linear-pattern-0" gradientUnits="userSpaceOnUse" x1="49.570999" y1="52.714001" x2="51.714001" y2="54.856998" gradientTransform="matrix(2.3333, 0, 0, 2.3333, -68.667, -72.000999)">
<stop offset="0" stop-color="rgb(0%, 0%, 0%)" stop-opacity="1"/>
<stop offset="1" stop-color="rgb(0%, 0%, 0%)" stop-opacity="0"/>
</linearGradient>
<clipPath id="clip-1">
<rect x="0" y="0" width="64" height="64"/>
</clipPath>
<g id="source-11247" clip-path="url(#clip-1)">
<path fill-rule="evenodd" fill="url(#linear-pattern-0)" d="M 56 46 L 42 60 L 51 60 C 53.769531 60 56 57.769531 56 55 Z M 56 46 "/>
</g>
</defs>
<path fill-rule="nonzero" fill="rgb(100%, 57.254902%, 18.823529%)" fill-opacity="1" d="M 13 4 L 51 4 C 53.761719 4 56 6.238281 56 9 L 56 55 C 56 57.761719 53.761719 60 51 60 L 13 60 C 10.238281 60 8 57.761719 8 55 L 8 9 C 8 6.238281 10.238281 4 13 4 Z M 13 4 "/>
<path fill-rule="nonzero" fill="rgb(100%, 100%, 100%)" fill-opacity="1" d="M 30.003906 31 L 30.003906 37.5 C 30.003906 37.777344 30.226562 38 30.503906 38 L 33.503906 38 C 33.78125 38 34.003906 37.777344 34.003906 37.5 L 34.003906 31 Z M 31.003906 35 L 33.003906 35 L 33.003906 37 L 31.003906 37 Z M 31.003906 35 "/>
<path fill-rule="nonzero" fill="rgb(100%, 100%, 100%)" fill-opacity="1" d="M 32.003906 4 L 32.003906 6 L 34.003906 6 L 34.003906 4 Z M 32.003906 6 L 30.003906 6 L 30.003906 8 L 32.003906 8 Z M 32.003906 8 L 32.003906 10 L 34.003906 10 L 34.003906 8 Z M 32.003906 10 L 30.003906 10 L 30.003906 12 L 32.003906 12 Z M 32.003906 12 L 32.003906 14 L 34.003906 14 L 34.003906 12 Z M 32.003906 14 L 30.003906 14 L 30.003906 16 L 32.003906 16 Z M 32.003906 16 L 32.003906 18 L 34.003906 18 L 34.003906 16 Z M 32.003906 18 L 30.003906 18 L 30.003906 20 L 32.003906 20 Z M 32.003906 20 L 32.003906 22 L 34.003906 22 L 34.003906 20 Z M 32.003906 22 L 30.003906 22 L 30.003906 24 L 32.003906 24 Z M 32.003906 24 L 32.003906 26 L 34.003906 26 L 34.003906 24 Z M 32.003906 26 L 30.003906 26 L 30.003906 28 L 32.003906 28 Z M 32.003906 28 L 32.003906 30 L 34.003906 30 L 34.003906 28 Z M 32.003906 28 "/>
<g mask="url(#mask-0)">
<use xlink:href="#source-11243"/>
</g>
<g mask="url(#mask-1)">
<use xlink:href="#source-11247"/>
</g>
</svg>
