<?xml version="1.0" encoding="UTF-8"?>
<svg xmlns="http://www.w3.org/2000/svg" xmlns:xlink="http://www.w3.org/1999/xlink" width="64" height="64" viewBox="0 0 64 64">
<defs>
<filter id="filter-remove-color" x="0%" y="0%" width="100%" height="100%">
<feColorMatrix color-interpolation-filters="sRGB" values="0 0 0 0 1 0 0 0 0 1 0 0 0 0 1 0 0 0 1 0" />
</filter>
<mask id="mask-0">
<g filter="url(#filter-remove-color)">
<rect x="-6.4" y="-6.4" width="76.8" height="76.8" fill="rgb(0%, 0%, 0%)" fill-opacity="0.15"/>
</g>
</mask>
<linearGradient id="linear-pattern-0" gradientUnits="userSpaceOnUse" x1="49.570999" y1="52.714001" x2="51.714001" y2="54.856998" gradientTransform="matrix(2.3333, 0, 0, 2.3333, -68.667, -72.000999)">
<stop offset="0" stop-color="rgb(0%, 0%, 0%)" stop-opacity="1"/>
<stop offset="1" stop-color="rgb(0%, 0%, 0%)" stop-opacity="0"/>
</linearGradient>
<clipPath id="clip-0">
<rect x="0" y="0" width="64" height="64"/>
</clipPath>
<g id="source-10055" clip-path="url(#clip-0)">
<path fill-rule="evenodd" fill="url(#linear-pattern-0)" d="M 56 46 L 42 60 L 51 60 C 53.769531 60 56 57.769531 56 55 Z M 56 46 "/>
</g>
</defs>
<path fill-rule="nonzero" fill="rgb(50.588235%, 23.921569%, 9.019608%)" fill-opacity="1" d="M 13 4 L 51 4 C 53.761719 4 56 6.238281 56 9 L 56 55 C 56 57.761719 53.761719 60 51 60 L 13 60 C 10.238281 60 8 57.761719 8 55 L 8 9 C 8 6.238281 10.238281 4 13 4 Z M 13 4 "/>
<g mask="url(#mask-0)">
<use xlink:href="#source-10055"/>
</g>
<path fill-rule="nonzero" fill="rgb(100%, 100%, 100%)" fill-opacity="1" d="M 33.132812 18 C 28.253906 18.867188 23.375 20.019531 18.5 20.871094 C 18.5 28.289062 18.496094 35.710938 18.5 43.132812 C 23.351562 43.984375 28.203125 45.117188 33.046875 46 L 34.5 46 L 34.5 18 Z M 25.792969 26.816406 C 26.757812 26.796875 27.679688 26.933594 28.429688 27.613281 C 29.867188 29.355469 29.488281 32.5625 27.355469 33.605469 C 26.601562 33.992188 25.734375 33.941406 24.910156 33.914062 C 24.90625 35.21875 24.902344 36.519531 24.90625 37.824219 C 24.246094 37.765625 23.582031 37.710938 22.921875 37.65625 C 22.894531 34.097656 22.886719 30.699219 22.925781 27.136719 C 23.863281 27.019531 24.832031 26.835938 25.792969 26.816406 Z M 25.683594 28.75 C 25.421875 28.742188 25.152344 28.765625 24.90625 28.777344 C 24.898438 29.898438 24.890625 31.011719 24.960938 32.128906 C 25.625 32.050781 26.484375 32.117188 26.863281 31.429688 C 27.179688 30.757812 27.199219 29.898438 26.820312 29.242188 C 26.542969 28.859375 26.121094 28.761719 25.683594 28.75 Z M 25.683594 28.75 "/>
<path fill-rule="nonzero" fill="rgb(100%, 100%, 100%)" fill-opacity="1" d="M 35.5 22 L 35.5 25.324219 C 35.96875 25.222656 36.480469 25.035156 37 25.003906 L 37 29.5 L 41.472656 29.5 C 41.3125 30.863281 40.703125 32.265625 39.5 32.980469 C 38.320312 33.773438 36.820312 33.785156 35.5 33.375 C 35.503906 34.027344 35.5 35.347656 35.5 36 L 43.5 36 L 43.5 37 L 35.5 37 L 35.5 39 L 43.5 39 L 43.5 40 L 35.5 40 L 35.5 43 L 45.5 43 L 45.5 22 Z M 38 24.394531 C 40.128906 24.617188 41.886719 26.378906 42.117188 28.5 L 38 28.5 Z M 38 24.394531 "/>
</svg>
