<?xml version="1.0" encoding="UTF-8"?>
<svg xmlns="http://www.w3.org/2000/svg" xmlns:xlink="http://www.w3.org/1999/xlink" width="64" height="64" viewBox="0 0 64 64">
<defs>
<filter id="filter-remove-color" x="0%" y="0%" width="100%" height="100%">
<feColorMatrix color-interpolation-filters="sRGB" values="0 0 0 0 1 0 0 0 0 1 0 0 0 0 1 0 0 0 1 0" />
</filter>
<mask id="mask-0">
<g filter="url(#filter-remove-color)">
<rect x="-6.4" y="-6.4" width="76.8" height="76.8" fill="rgb(0%, 0%, 0%)" fill-opacity="0.15"/>
</g>
</mask>
<linearGradient id="linear-pattern-0" gradientUnits="userSpaceOnUse" x1="49.570999" y1="52.714001" x2="51.714001" y2="54.856998" gradientTransform="matrix(2.3333, 0, 0, 2.3333, -68.667, -72.000999)">
<stop offset="0" stop-color="rgb(0%, 0%, 0%)" stop-opacity="1"/>
<stop offset="1" stop-color="rgb(0%, 0%, 0%)" stop-opacity="0"/>
</linearGradient>
<clipPath id="clip-0">
<rect x="0" y="0" width="64" height="64"/>
</clipPath>
<g id="source-14417" clip-path="url(#clip-0)">
<path fill-rule="evenodd" fill="url(#linear-pattern-0)" d="M 56 46 L 42 60 L 51 60 C 53.769531 60 56 57.769531 56 55 Z M 56 46 "/>
</g>
<mask id="mask-1">
<g filter="url(#filter-remove-color)">
<rect x="-6.4" y="-6.4" width="76.8" height="76.8" fill="rgb(0%, 0%, 0%)" fill-opacity="0.75"/>
</g>
</mask>
<clipPath id="clip-1">
<rect x="0" y="0" width="64" height="64"/>
</clipPath>
<g id="source-14421" clip-path="url(#clip-1)">
<path fill-rule="nonzero" fill="rgb(100%, 100%, 100%)" fill-opacity="1" d="M 32 21 C 25.90625 21 21 25.90625 21 32 C 21 38.09375 25.90625 43 32 43 C 38.09375 43 43 38.09375 43 32 C 43 25.90625 38.09375 21 32 21 M 32 22 C 33.660156 22 35.222656 22.40625 36.597656 23.117188 C 36.601562 23.160156 36.601562 23.1875 36.597656 23.230469 C 36.65625 23.257812 36.691406 23.367188 36.785156 23.421875 C 36.824219 23.441406 36.847656 23.449219 36.882812 23.46875 C 36.9375 23.5 36.988281 23.550781 36.976562 23.609375 C 36.960938 23.691406 36.84375 23.6875 36.785156 23.746094 C 36.796875 23.863281 36.722656 23.859375 36.691406 23.9375 C 36.710938 23.984375 36.777344 23.96875 36.785156 24.03125 C 36.777344 24.09375 36.667969 24.101562 36.691406 24.167969 C 36.800781 24.253906 36.917969 24.183594 37.019531 24.167969 C 37.246094 24.140625 37.445312 24.183594 37.582031 24.074219 C 37.5625 23.96875 37.734375 23.9375 37.722656 23.839844 C 37.714844 23.769531 37.589844 23.753906 37.535156 23.703125 C 37.523438 23.691406 37.507812 23.664062 37.492188 23.640625 C 37.660156 23.75 37.816406 23.867188 37.972656 23.984375 C 37.933594 24.015625 37.902344 24.058594 37.863281 24.074219 C 37.820312 24.09375 37.761719 24.097656 37.722656 24.121094 C 37.664062 24.160156 37.644531 24.21875 37.582031 24.261719 C 37.535156 24.292969 37.394531 24.402344 37.347656 24.402344 C 37.289062 24.402344 37.203125 24.34375 37.160156 24.355469 C 37.097656 24.375 37.132812 24.472656 37.066406 24.496094 C 36.933594 24.542969 36.6875 24.390625 36.644531 24.589844 C 36.699219 24.703125 36.871094 24.667969 36.972656 24.730469 C 37.03125 24.769531 37.144531 24.945312 37.160156 25.011719 C 37.175781 25.066406 37.183594 25.28125 37.160156 25.339844 C 37.097656 25.5 36.921875 25.484375 36.738281 25.480469 C 36.6875 25.480469 36.640625 25.484375 36.597656 25.480469 C 36.285156 25.460938 35.988281 25.351562 35.847656 25.574219 C 35.859375 25.746094 35.886719 25.847656 35.847656 25.996094 C 35.820312 26.105469 35.699219 26.183594 35.707031 26.277344 C 35.710938 26.324219 35.789062 26.398438 35.800781 26.464844 C 35.808594 26.503906 35.785156 26.574219 35.800781 26.605469 C 35.851562 26.703125 35.988281 26.589844 36.082031 26.605469 C 36.171875 26.621094 36.269531 26.742188 36.269531 26.839844 C 36.269531 26.910156 36.21875 27.054688 36.175781 27.121094 C 36.085938 27.253906 35.925781 27.238281 35.800781 27.308594 C 35.695312 27.371094 35.675781 27.488281 35.613281 27.59375 C 35.546875 27.703125 35.492188 27.761719 35.519531 27.921875 C 35.429688 28.097656 35.328125 28.210938 35.140625 28.296875 C 35.085938 28.320312 35.003906 28.355469 34.953125 28.390625 C 34.914062 28.417969 34.867188 28.46875 34.8125 28.53125 C 34.742188 28.609375 34.660156 28.660156 34.625 28.71875 C 34.597656 28.765625 34.605469 28.84375 34.578125 28.90625 C 34.53125 28.992188 34.445312 29.058594 34.390625 29.140625 C 34.363281 29.179688 34.324219 29.230469 34.296875 29.28125 C 34.230469 29.398438 34.140625 29.507812 34.152344 29.609375 C 34.164062 29.707031 34.289062 29.710938 34.296875 29.796875 C 34.300781 29.847656 34.246094 29.886719 34.246094 29.9375 C 34.25 30.011719 34.289062 30.066406 34.296875 30.125 C 34.308594 30.273438 34.230469 30.304688 34.199219 30.40625 C 34.1875 30.453125 34.214844 30.511719 34.199219 30.546875 C 34.175781 30.621094 34.0625 30.691406 34.058594 30.78125 C 34.058594 30.84375 34.148438 30.882812 34.152344 30.96875 C 34.15625 31.027344 34.097656 31.101562 34.109375 31.15625 C 34.132812 31.265625 34.351562 31.402344 34.4375 31.484375 C 34.550781 31.597656 34.667969 31.691406 34.71875 31.8125 C 34.761719 31.914062 34.78125 32.066406 34.859375 32.140625 C 34.917969 32.195312 35.019531 32.222656 35.09375 32.28125 C 35.164062 32.335938 35.25 32.363281 35.324219 32.421875 C 35.445312 32.515625 35.601562 32.714844 35.792969 32.703125 C 35.894531 32.695312 36.007812 32.628906 36.121094 32.609375 C 36.238281 32.589844 36.378906 32.550781 36.496094 32.5625 C 36.589844 32.574219 36.683594 32.613281 36.78125 32.609375 C 36.878906 32.601562 36.992188 32.5625 37.109375 32.515625 C 37.304688 32.429688 37.613281 32.285156 37.902344 32.324219 C 38.121094 32.359375 38.125 32.601562 38.28125 32.699219 C 38.457031 32.71875 38.605469 32.667969 38.746094 32.699219 C 38.851562 32.726562 38.972656 32.898438 38.980469 32.984375 C 38.992188 33.070312 38.898438 33.160156 38.886719 33.214844 C 38.859375 33.332031 38.859375 33.46875 38.839844 33.542969 C 38.824219 33.601562 38.792969 33.675781 38.796875 33.730469 C 38.796875 33.785156 38.882812 33.898438 38.9375 33.964844 C 39.003906 34.050781 39.089844 34.109375 39.167969 34.199219 C 39.3125 34.367188 39.394531 34.585938 39.496094 34.808594 C 39.523438 34.863281 39.472656 34.878906 39.496094 34.949219 C 39.453125 35.285156 39.339844 35.515625 39.121094 35.886719 C 39.015625 36.007812 38.886719 36.160156 38.886719 36.308594 C 38.878906 36.671875 39.089844 36.851562 39.074219 37.199219 C 39.039062 37.667969 39.066406 37.746094 39.03125 37.996094 C 39.1875 38.074219 39.121094 38.296875 39.074219 38.464844 C 39.007812 38.660156 38.925781 38.707031 38.886719 38.839844 C 39.011719 38.894531 39.148438 38.882812 39.285156 38.847656 C 37.464844 40.789062 34.878906 42.003906 31.992188 42.003906 C 30.765625 42.003906 29.59375 41.773438 28.511719 41.371094 C 28.46875 41.355469 28.425781 41.347656 28.386719 41.324219 C 28.324219 41.289062 28.285156 41.214844 28.292969 41.136719 C 28.398438 41.09375 28.59375 41.238281 28.671875 41.089844 C 28.707031 41.019531 28.621094 40.878906 28.671875 40.808594 C 28.707031 40.761719 28.925781 40.726562 28.996094 40.714844 C 29.105469 40.699219 29.21875 40.707031 29.277344 40.667969 C 29.34375 40.628906 29.433594 40.511719 29.421875 40.386719 C 29.414062 40.328125 29.371094 40.300781 29.324219 40.246094 C 29.289062 40.203125 29.304688 40.148438 29.277344 40.109375 C 29.230469 40.039062 29.15625 40.023438 29.136719 39.921875 C 29.28125 39.890625 29.492188 40.070312 29.699219 40.015625 C 29.800781 39.984375 29.9375 39.777344 29.980469 39.6875 C 29.996094 39.65625 29.964844 39.578125 29.980469 39.546875 C 30 39.507812 30.070312 39.472656 30.078125 39.449219 C 30.09375 39.398438 30.066406 39.390625 30.078125 39.355469 C 30.113281 39.253906 30.207031 39.195312 30.265625 39.121094 C 30.3125 39.066406 30.363281 38.992188 30.40625 38.933594 C 30.453125 38.871094 30.46875 38.847656 30.5 38.792969 C 30.53125 38.613281 30.410156 38.488281 30.453125 38.328125 C 30.503906 38.148438 30.75 38.03125 30.921875 37.949219 C 30.984375 37.921875 31.0625 37.875 31.109375 37.855469 C 31.230469 37.8125 31.375 37.800781 31.484375 37.761719 C 31.675781 37.695312 31.722656 37.511719 31.8125 37.339844 C 31.859375 37.261719 31.902344 37.164062 31.910156 37.105469 C 31.917969 37.054688 31.898438 37.027344 31.910156 36.96875 C 31.921875 36.90625 31.9375 36.84375 31.953125 36.777344 C 31.976562 36.691406 32.003906 36.546875 32.003906 36.453125 C 32.003906 36.371094 31.957031 36.335938 31.953125 36.261719 C 31.941406 36.003906 32.046875 35.984375 32.144531 35.839844 C 32.191406 35.769531 32.203125 35.660156 32.238281 35.609375 C 32.398438 35.367188 32.679688 35.269531 32.660156 34.902344 C 32.652344 34.785156 32.609375 34.519531 32.519531 34.480469 C 32.46875 34.460938 32.359375 34.464844 32.285156 34.4375 C 32.050781 34.347656 31.875 34.078125 31.628906 34.058594 C 31.578125 34.058594 31.546875 34.0625 31.488281 34.058594 C 31.394531 34.058594 31.269531 33.976562 31.164062 33.964844 C 31.09375 33.957031 30.96875 33.984375 30.929688 33.964844 C 30.867188 33.9375 30.886719 33.8125 30.835938 33.777344 C 30.796875 33.75 30.707031 33.753906 30.644531 33.730469 C 30.546875 33.691406 30.480469 33.644531 30.363281 33.636719 C 30.328125 33.636719 30.265625 33.644531 30.222656 33.636719 C 30.160156 33.628906 30.09375 33.578125 30.035156 33.542969 C 29.964844 33.5 29.925781 33.464844 29.894531 33.402344 C 29.960938 33.1875 29.753906 33.152344 29.707031 33.027344 C 29.6875 32.96875 29.726562 32.890625 29.707031 32.839844 C 29.679688 32.765625 29.601562 32.714844 29.519531 32.652344 C 29.375 32.539062 29.257812 32.441406 29.050781 32.417969 C 28.957031 32.40625 28.832031 32.425781 28.722656 32.417969 C 28.605469 32.410156 28.480469 32.328125 28.394531 32.230469 C 28.308594 32.132812 28.28125 32.039062 28.207031 31.996094 C 28.136719 31.949219 28.019531 31.945312 27.972656 31.902344 C 27.949219 31.882812 27.945312 31.851562 27.925781 31.808594 C 27.890625 31.734375 27.835938 31.707031 27.878906 31.617188 C 27.800781 31.578125 27.828125 31.679688 27.742188 31.664062 C 27.664062 31.554688 27.589844 31.488281 27.414062 31.523438 C 27.332031 31.539062 27.273438 31.664062 27.179688 31.664062 C 27.101562 31.667969 27.046875 31.539062 26.945312 31.523438 C 26.867188 31.515625 26.765625 31.582031 26.710938 31.570312 C 26.625 31.554688 26.601562 31.480469 26.523438 31.429688 C 26.464844 31.390625 26.367188 31.289062 26.335938 31.289062 C 26.234375 31.292969 26.144531 31.503906 26.007812 31.429688 C 25.9375 31.34375 26.132812 31.320312 26.050781 31.242188 C 25.992188 31.183594 25.960938 31.257812 25.914062 31.289062 C 25.855469 31.328125 25.785156 31.359375 25.726562 31.382812 C 25.585938 31.433594 25.503906 31.421875 25.398438 31.476562 C 25.296875 31.527344 25.265625 31.609375 25.207031 31.710938 C 25.160156 31.796875 25.089844 31.9375 25.019531 31.941406 C 24.9375 31.949219 24.863281 31.835938 24.785156 31.804688 C 24.554688 31.703125 24.414062 31.847656 24.226562 31.847656 C 24.050781 31.851562 23.796875 31.59375 23.804688 31.425781 C 23.808594 31.324219 23.886719 31.179688 23.898438 31.050781 C 23.90625 30.953125 23.988281 30.859375 23.992188 30.769531 C 23.992188 30.648438 23.789062 30.550781 23.707031 30.535156 C 23.519531 30.503906 23.269531 30.621094 23.054688 30.535156 C 23.015625 30.46875 23.125 30.414062 23.148438 30.347656 C 23.160156 30.308594 23.132812 30.296875 23.148438 30.253906 C 23.171875 30.191406 23.257812 30.132812 23.285156 30.066406 C 23.308594 30.015625 23.3125 29.941406 23.335938 29.878906 C 23.359375 29.804688 23.421875 29.742188 23.429688 29.691406 C 23.4375 29.621094 23.386719 29.546875 23.335938 29.5 C 23.167969 29.511719 23.054688 29.503906 22.957031 29.546875 C 22.742188 29.644531 22.800781 29.949219 22.582031 30.015625 C 22.507812 30.039062 22.386719 30.046875 22.300781 30.0625 C 22.265625 30.070312 22.222656 30.074219 22.183594 30.085938 C 22.320312 29.359375 22.539062 28.660156 22.824219 28 C 22.871094 28 22.921875 27.996094 22.957031 28 C 23.03125 28.015625 23.078125 28.089844 23.144531 28.09375 C 23.328125 28.109375 23.367188 27.941406 23.519531 27.859375 C 23.675781 27.882812 23.753906 27.84375 23.898438 27.859375 C 23.992188 27.871094 24.101562 27.996094 24.179688 28.003906 C 24.242188 28.003906 24.257812 27.945312 24.320312 27.953125 C 24.378906 27.964844 24.496094 28.070312 24.507812 28.144531 C 24.515625 28.234375 24.433594 28.324219 24.460938 28.425781 C 24.554688 28.523438 24.746094 28.558594 24.882812 28.613281 C 24.96875 28.542969 24.894531 28.390625 24.882812 28.285156 C 24.878906 28.238281 24.886719 28.1875 24.882812 28.144531 C 24.871094 28.074219 24.835938 28.019531 24.835938 27.957031 C 24.835938 27.671875 25.066406 27.554688 25.257812 27.441406 C 25.339844 27.394531 25.421875 27.289062 25.492188 27.253906 C 25.59375 27.203125 25.644531 27.207031 25.726562 27.160156 C 25.878906 27.074219 26.03125 26.972656 26.148438 26.875 C 26.203125 26.746094 26.144531 26.582031 26.148438 26.453125 C 26.203125 26.421875 26.230469 26.460938 26.289062 26.453125 C 26.378906 26.433594 26.425781 26.316406 26.476562 26.265625 C 26.507812 26.234375 26.578125 26.203125 26.617188 26.171875 C 26.707031 26.101562 26.722656 26.015625 26.804688 25.984375 C 26.832031 25.972656 26.902344 25.949219 26.945312 25.9375 C 27.003906 25.921875 27.082031 25.878906 27.179688 25.84375 C 27.242188 25.820312 27.390625 25.820312 27.414062 25.796875 C 27.441406 25.769531 27.40625 25.65625 27.414062 25.609375 C 27.460938 25.382812 27.820312 25.359375 28.023438 25.28125 C 28.160156 25.230469 28.289062 25.113281 28.445312 25.140625 C 28.414062 25.25 28.277344 25.246094 28.304688 25.375 C 28.335938 25.558594 28.566406 25.308594 28.632812 25.28125 C 28.753906 25.230469 28.988281 25.199219 29.148438 25.140625 C 29.285156 25.089844 29.511719 25.023438 29.382812 24.859375 C 29.269531 24.851562 29.242188 24.960938 29.148438 25 C 29.082031 25.007812 29.0625 24.957031 29.007812 24.953125 C 28.953125 24.953125 28.921875 25.007812 28.867188 25 C 28.8125 24.988281 28.734375 24.875 28.726562 24.8125 C 28.703125 24.644531 28.890625 24.605469 28.960938 24.484375 C 28.914062 24.332031 28.714844 24.449219 28.585938 24.390625 C 28.597656 24.300781 28.664062 24.21875 28.773438 24.199219 C 28.859375 24.1875 29.050781 24.203125 29.101562 24.246094 C 29.132812 24.273438 29.101562 24.34375 29.144531 24.386719 C 29.199219 24.433594 29.265625 24.398438 29.335938 24.386719 C 29.359375 24.273438 29.175781 24.320312 29.195312 24.246094 C 29.328125 24.15625 29.589844 24.222656 29.757812 24.199219 C 29.851562 24.1875 29.953125 24.105469 30.039062 24.058594 C 30.117188 24.015625 30.1875 23.9375 30.273438 24.015625 C 30.296875 24.097656 30.222656 24.160156 30.179688 24.203125 C 30.023438 24.339844 29.875 24.46875 29.757812 24.625 C 29.828125 24.695312 29.960938 24.65625 30.085938 24.671875 C 30.132812 24.675781 30.171875 24.710938 30.222656 24.71875 C 30.28125 24.726562 30.363281 24.707031 30.410156 24.71875 C 30.496094 24.738281 30.515625 24.859375 30.601562 24.859375 C 30.734375 24.859375 30.722656 24.714844 30.644531 24.625 C 30.667969 24.53125 30.726562 24.457031 30.691406 24.390625 C 30.628906 24.265625 30.375 24.40625 30.363281 24.25 C 30.355469 24.148438 30.46875 24.136719 30.503906 24.0625 C 30.488281 23.867188 30.664062 23.859375 30.644531 23.6875 C 30.632812 23.613281 30.554688 23.613281 30.503906 23.546875 C 30.480469 23.507812 30.488281 23.429688 30.457031 23.402344 C 30.355469 23.316406 30.140625 23.339844 30.128906 23.171875 C 30.125 23.070312 30.144531 22.996094 30.128906 22.890625 C 30.117188 22.785156 30.03125 22.488281 29.941406 22.46875 C 29.828125 22.441406 29.746094 22.640625 29.613281 22.699219 C 29.542969 22.734375 29.40625 22.761719 29.332031 22.746094 C 29.285156 22.738281 29.199219 22.699219 29.191406 22.605469 C 29.183594 22.5 29.265625 22.484375 29.285156 22.371094 C 30.148438 22.132812 31.054688 21.992188 31.992188 21.992188 M 27.964844 22.839844 C 27.933594 23.253906 27.566406 23.464844 27.136719 23.453125 C 27.042969 23.542969 27.089844 23.707031 27.039062 23.828125 C 27 23.929688 26.863281 24.027344 26.761719 24.019531 C 26.6875 24.011719 26.570312 23.898438 26.570312 23.828125 C 26.570312 23.742188 26.691406 23.695312 26.617188 23.597656 C 26.621094 23.578125 26.648438 23.554688 26.667969 23.535156 C 27.082031 23.273438 27.511719 23.039062 27.964844 22.839844 M 36.3125 23.316406 C 36.273438 23.324219 36.253906 23.34375 36.222656 23.363281 C 36.144531 23.410156 36.136719 23.480469 36.078125 23.503906 C 35.996094 23.535156 35.90625 23.523438 35.890625 23.597656 C 35.882812 23.660156 35.941406 23.679688 35.9375 23.738281 C 35.910156 23.8125 35.859375 23.835938 35.84375 23.925781 C 35.945312 24.089844 36.1875 23.914062 36.3125 23.878906 C 36.367188 23.863281 36.421875 23.878906 36.453125 23.832031 C 36.488281 23.777344 36.472656 23.675781 36.496094 23.601562 C 36.527344 23.515625 36.601562 23.535156 36.59375 23.460938 C 36.585938 23.386719 36.433594 23.308594 36.3125 23.320312 M 25.363281 24.511719 C 25.460938 24.5625 25.625 24.785156 25.4375 24.867188 C 25.417969 24.878906 25.15625 24.921875 25.109375 24.910156 C 25.070312 24.90625 25.039062 24.871094 25.007812 24.835938 C 25.121094 24.722656 25.242188 24.617188 25.363281 24.511719 M 25.71875 24.960938 C 25.765625 24.960938 25.800781 25.050781 25.859375 25.054688 C 25.910156 25.058594 25.96875 24.996094 26 25.007812 C 26.082031 25.027344 26.125 25.179688 26.042969 25.238281 C 25.976562 25.246094 25.953125 25.183594 25.90625 25.195312 C 25.769531 25.21875 25.722656 25.484375 25.621094 25.476562 C 25.527344 25.464844 25.480469 25.265625 25.578125 25.195312 C 25.578125 25.136719 25.527344 25.113281 25.53125 25.054688 C 25.558594 25.015625 25.636719 24.953125 25.71875 24.960938 Z M 25.25 25.007812 C 25.277344 25.007812 25.285156 24.992188 25.296875 25.007812 C 25.28125 25.113281 25.238281 25.144531 25.15625 25.195312 C 25.015625 25.28125 24.917969 25.386719 24.871094 25.570312 C 24.859375 25.625 24.710938 25.769531 24.640625 25.757812 C 24.484375 25.722656 24.699219 25.429688 24.734375 25.382812 C 24.773438 25.332031 24.828125 25.296875 24.875 25.242188 C 24.921875 25.1875 24.925781 25.085938 24.96875 25.054688 C 25.015625 25.019531 25.167969 25.003906 25.25 25.007812 Z M 39.398438 25.273438 C 39.464844 25.34375 39.527344 25.410156 39.589844 25.484375 C 39.527344 25.410156 39.421875 25.382812 39.398438 25.273438 M 38.789062 25.292969 C 38.945312 25.285156 39.046875 25.480469 39.117188 25.574219 C 39.175781 25.652344 39.347656 25.753906 39.445312 25.808594 C 39.5 25.839844 39.570312 25.875 39.632812 25.902344 C 39.761719 25.960938 40.003906 26.148438 40.007812 26.277344 C 40.011719 26.34375 39.953125 26.40625 39.964844 26.46875 C 40.0625 26.484375 40.148438 26.332031 40.152344 26.234375 C 40.152344 26.210938 40.144531 26.195312 40.132812 26.179688 C 40.414062 26.574219 40.671875 26.992188 40.894531 27.429688 C 40.808594 27.453125 40.730469 27.496094 40.71875 27.582031 C 40.695312 27.695312 40.789062 27.84375 40.621094 27.863281 C 40.515625 27.878906 40.390625 27.753906 40.246094 27.722656 C 40.1875 27.707031 40.105469 27.738281 40.058594 27.722656 C 39.949219 27.683594 39.964844 27.554688 39.871094 27.488281 C 39.816406 27.453125 39.671875 27.40625 39.585938 27.394531 C 39.53125 27.390625 39.503906 27.402344 39.449219 27.394531 C 39.378906 27.386719 39.269531 27.382812 39.214844 27.347656 C 39.160156 27.316406 39.039062 27.253906 39.027344 27.207031 C 39.003906 27.132812 39.160156 27.039062 39.164062 26.976562 C 39.167969 26.929688 39.128906 26.90625 39.121094 26.835938 C 39.113281 26.789062 39.128906 26.722656 39.121094 26.695312 C 39.105469 26.640625 39.011719 26.601562 38.929688 26.601562 C 38.859375 26.601562 38.804688 26.648438 38.742188 26.648438 C 38.65625 26.648438 38.476562 26.589844 38.367188 26.601562 C 38.300781 26.605469 38.242188 26.644531 38.179688 26.648438 C 38.003906 26.660156 37.894531 26.636719 37.757812 26.648438 C 37.660156 26.652344 37.472656 26.699219 37.382812 26.742188 C 37.335938 26.761719 37.300781 26.804688 37.242188 26.835938 C 37.214844 26.847656 37.183594 26.863281 37.148438 26.878906 C 37.089844 26.90625 37.015625 26.960938 36.960938 26.976562 C 36.882812 26.996094 36.773438 26.96875 36.632812 26.976562 C 36.527344 26.980469 36.351562 26.957031 36.351562 26.835938 C 36.347656 26.648438 36.691406 26.726562 36.867188 26.695312 C 36.933594 26.679688 36.972656 26.601562 37.054688 26.554688 C 37.09375 26.53125 37.113281 26.53125 37.148438 26.507812 C 37.207031 26.464844 37.324219 26.367188 37.335938 26.320312 C 37.34375 26.277344 37.285156 26.210938 37.289062 26.179688 C 37.300781 26.136719 37.375 26.09375 37.429688 26.039062 C 37.515625 25.957031 37.558594 25.859375 37.664062 25.804688 C 37.734375 25.769531 37.867188 25.769531 37.898438 25.710938 C 37.90625 25.648438 37.894531 25.628906 37.898438 25.570312 C 37.941406 25.53125 37.957031 25.484375 37.992188 25.476562 C 38.101562 25.453125 38.195312 25.527344 38.320312 25.523438 C 38.375 25.519531 38.449219 25.515625 38.507812 25.476562 C 38.554688 25.445312 38.601562 25.40625 38.648438 25.382812 C 38.699219 25.355469 38.726562 25.292969 38.789062 25.289062 M 26.277344 25.386719 C 26.324219 25.382812 26.367188 25.386719 26.417969 25.386719 C 26.46875 25.386719 26.539062 25.363281 26.558594 25.386719 C 26.527344 25.515625 26.238281 25.476562 26.136719 25.429688 C 26.140625 25.378906 26.214844 25.390625 26.277344 25.386719 M 39.589844 25.480469 C 39.648438 25.546875 39.707031 25.613281 39.761719 25.679688 C 39.753906 25.675781 39.738281 25.671875 39.730469 25.664062 C 39.675781 25.621094 39.648438 25.546875 39.589844 25.480469 M 25.808594 25.617188 C 25.84375 25.617188 25.867188 25.605469 25.902344 25.617188 C 25.8125 25.695312 25.6875 25.757812 25.527344 25.808594 C 25.449219 25.832031 25.351562 25.84375 25.339844 25.761719 C 25.324219 25.65625 25.410156 25.675781 25.480469 25.664062 C 25.566406 25.65625 25.703125 25.621094 25.804688 25.621094 Z M 38.839844 25.621094 C 38.773438 25.644531 38.738281 25.789062 38.839844 25.808594 C 38.882812 25.78125 38.898438 25.703125 38.886719 25.621094 C 38.859375 25.59375 38.859375 25.613281 38.839844 25.621094 M 38.792969 25.902344 C 38.761719 25.910156 38.734375 25.910156 38.699219 25.945312 C 38.699219 26.058594 38.722656 26.132812 38.699219 26.230469 C 38.761719 26.355469 38.898438 26.265625 38.929688 26.183594 C 38.96875 25.976562 38.886719 25.875 38.792969 25.902344 M 39.679688 26.464844 C 39.59375 26.460938 39.5 26.46875 39.449219 26.511719 C 39.523438 26.628906 39.65625 26.667969 39.824219 26.699219 C 39.882812 26.652344 39.890625 26.542969 39.917969 26.464844 C 39.847656 26.464844 39.773438 26.46875 39.683594 26.464844 Z M 22.109375 30.585938 C 22.222656 30.6875 22.300781 30.855469 22.433594 30.925781 C 22.484375 30.949219 22.558594 30.957031 22.621094 30.972656 C 22.675781 30.980469 22.714844 31 22.765625 31.015625 C 22.871094 31.050781 23.007812 31.074219 23.09375 31.113281 C 23.21875 31.167969 23.308594 31.375 23.421875 31.4375 C 23.425781 31.503906 23.398438 31.578125 23.421875 31.628906 C 23.472656 31.695312 23.570312 31.71875 23.652344 31.765625 C 23.757812 31.820312 23.789062 31.957031 23.886719 32 C 23.921875 32.015625 23.976562 31.984375 24.027344 32 C 24.160156 32.039062 24.195312 32.222656 24.308594 32.1875 C 24.382812 32.164062 24.390625 32.070312 24.402344 32 C 24.453125 31.945312 24.515625 31.859375 24.59375 31.859375 C 24.714844 31.855469 24.734375 32.019531 24.78125 32.140625 C 24.804688 32.210938 24.855469 32.257812 24.875 32.328125 C 24.902344 32.453125 24.898438 32.820312 24.875 32.894531 C 24.84375 32.984375 24.714844 33.023438 24.640625 33.125 C 24.605469 33.171875 24.574219 33.234375 24.546875 33.265625 C 24.496094 33.324219 24.441406 33.351562 24.40625 33.40625 C 24.386719 33.4375 24.378906 33.503906 24.359375 33.546875 C 24.300781 33.675781 24.214844 33.769531 24.265625 33.921875 C 24.285156 33.984375 24.359375 34.035156 24.359375 34.109375 C 24.359375 34.199219 24.1875 34.25 24.171875 34.34375 C 24.160156 34.414062 24.242188 34.53125 24.265625 34.625 C 24.28125 34.695312 24.410156 34.769531 24.453125 34.8125 C 24.523438 34.890625 24.578125 34.996094 24.644531 35.097656 C 24.769531 35.289062 24.84375 35.515625 24.96875 35.707031 C 25.035156 35.804688 25.160156 35.882812 25.203125 35.988281 C 25.226562 36.039062 25.183594 36.128906 25.203125 36.175781 C 25.273438 36.335938 25.605469 36.515625 25.765625 36.597656 C 25.84375 36.636719 25.929688 36.652344 26 36.691406 C 26.105469 36.753906 26.320312 36.878906 26.375 36.972656 C 26.421875 37.058594 26.445312 37.261719 26.46875 37.394531 C 26.5 37.570312 26.460938 37.722656 26.46875 37.910156 C 26.476562 38.015625 26.515625 38.089844 26.515625 38.191406 C 26.515625 38.230469 26.519531 38.296875 26.515625 38.335938 C 26.515625 38.457031 26.527344 38.582031 26.515625 38.710938 C 26.511719 38.777344 26.511719 38.839844 26.515625 38.898438 C 26.523438 38.960938 26.558594 38.984375 26.5625 39.035156 C 26.566406 39.09375 26.511719 39.179688 26.515625 39.226562 C 26.53125 39.351562 26.632812 39.4375 26.65625 39.550781 C 26.675781 39.644531 26.714844 39.863281 26.703125 39.972656 C 26.695312 40.03125 26.664062 40.097656 26.65625 40.164062 C 26.652344 40.214844 26.664062 40.257812 26.65625 40.300781 C 26.652344 40.347656 26.640625 40.382812 26.628906 40.421875 C 23.847656 38.652344 22 35.546875 22 31.992188 C 22 31.511719 22.046875 31.046875 22.109375 30.585938 M 26 31.679688 C 26.097656 31.636719 26.078125 31.808594 26 31.820312 C 25.925781 31.832031 25.929688 31.714844 26 31.679688 "/>
</g>
</defs>
<path fill-rule="nonzero" fill="rgb(19.607843%, 40.392157%, 58.823529%)" fill-opacity="1" d="M 13 4 L 51 4 C 53.761719 4 56 6.238281 56 9 L 56 55 C 56 57.761719 53.761719 60 51 60 L 13 60 C 10.238281 60 8 57.761719 8 55 L 8 9 C 8 6.238281 10.238281 4 13 4 Z M 13 4 "/>
<g mask="url(#mask-0)">
<use xlink:href="#source-14417"/>
</g>
<g mask="url(#mask-1)">
<use xlink:href="#source-14421"/>
</g>
</svg>
