<?xml version="1.0" encoding="UTF-8"?>
<svg xmlns="http://www.w3.org/2000/svg" xmlns:xlink="http://www.w3.org/1999/xlink" width="64" height="64" viewBox="0 0 64 64">
<defs>
<filter id="filter-remove-color" x="0%" y="0%" width="100%" height="100%">
<feColorMatrix color-interpolation-filters="sRGB" values="0 0 0 0 1 0 0 0 0 1 0 0 0 0 1 0 0 0 1 0" />
</filter>
<mask id="mask-0">
<g filter="url(#filter-remove-color)">
<rect x="-6.4" y="-6.4" width="76.8" height="76.8" fill="rgb(0%, 0%, 0%)" fill-opacity="0.1"/>
</g>
</mask>
<linearGradient id="linear-pattern-0" gradientUnits="userSpaceOnUse" x1="49.570999" y1="52.714001" x2="51.714001" y2="54.856998" gradientTransform="matrix(0.617345, 0, 0, 0.617345, -18.167916, -19.050025)">
<stop offset="0" stop-color="rgb(0%, 0%, 0%)" stop-opacity="1"/>
<stop offset="1" stop-color="rgb(0%, 0%, 0%)" stop-opacity="0"/>
</linearGradient>
<clipPath id="clip-0">
<rect x="0" y="0" width="17" height="17"/>
</clipPath>
<g id="source-746" clip-path="url(#clip-0)">
<path fill-rule="evenodd" fill="url(#linear-pattern-0)" d="M 14.816406 12.171875 L 11.113281 15.875 L 13.492188 15.875 C 14.226562 15.875 14.816406 15.285156 14.816406 14.550781 Z M 14.816406 12.171875 "/>
</g>
</defs>
<path fill-rule="nonzero" fill="rgb(95.686275%, 95.686275%, 95.686275%)" fill-opacity="1" d="M 3.441406 1.058594 L 13.492188 1.058594 C 14.222656 1.058594 14.816406 1.652344 14.816406 2.382812 L 14.816406 14.550781 C 14.816406 15.28125 14.222656 15.875 13.492188 15.875 L 3.441406 15.875 C 2.707031 15.875 2.117188 15.28125 2.117188 14.550781 L 2.117188 2.382812 C 2.117188 1.652344 2.707031 1.058594 3.441406 1.058594 Z M 3.441406 1.058594 "/>
<g mask="url(#mask-0)">
<use xlink:href="#source-746"/>
</g>
<path fill-rule="nonzero" fill="rgb(34.509804%, 51.764706%, 95.686275%)" fill-opacity="1" d="M 4.851562 8.464844 L 6.988281 9.34375 L 6.832031 9.808594 L 4.234375 8.707031 L 4.234375 8.226562 L 6.832031 7.125 L 6.988281 7.589844 Z M 4.851562 8.464844 "/>
<path fill-rule="nonzero" fill="rgb(34.509804%, 51.764706%, 95.686275%)" fill-opacity="1" d="M 7.738281 11.378906 L 7.164062 11.378906 L 9.203125 5.554688 L 9.765625 5.554688 Z M 7.738281 11.378906 "/>
<path fill-rule="nonzero" fill="rgb(34.509804%, 51.764706%, 95.686275%)" fill-opacity="1" d="M 9.945312 7.589844 L 10.101562 7.125 L 12.699219 8.226562 L 12.699219 8.707031 L 10.101562 9.808594 L 9.945312 9.34375 L 12.078125 8.464844 Z M 9.945312 7.589844 "/>
</svg>
