<?xml version="1.0" encoding="UTF-8"?>
<svg xmlns="http://www.w3.org/2000/svg" xmlns:xlink="http://www.w3.org/1999/xlink" width="64" height="64" viewBox="0 0 64 64">
<defs>
<filter id="filter-remove-color" x="0%" y="0%" width="100%" height="100%">
<feColorMatrix color-interpolation-filters="sRGB" values="0 0 0 0 1 0 0 0 0 1 0 0 0 0 1 0 0 0 1 0" />
</filter>
<mask id="mask-0">
<g filter="url(#filter-remove-color)">
<rect x="-6.4" y="-6.4" width="76.8" height="76.8" fill="rgb(0%, 0%, 0%)" fill-opacity="0.1"/>
</g>
</mask>
<linearGradient id="linear-pattern-0" gradientUnits="userSpaceOnUse" x1="49.570999" y1="52.714001" x2="51.714001" y2="54.856998" gradientTransform="matrix(0.617345, 0, 0, 0.617345, -18.167916, -19.050025)">
<stop offset="0" stop-color="rgb(0%, 0%, 0%)" stop-opacity="1"/>
<stop offset="1" stop-color="rgb(0%, 0%, 0%)" stop-opacity="0"/>
</linearGradient>
<clipPath id="clip-0">
<rect x="0" y="0" width="17" height="17"/>
</clipPath>
<g id="source-11217" clip-path="url(#clip-0)">
<path fill-rule="evenodd" fill="url(#linear-pattern-0)" d="M 14.816406 12.171875 L 11.113281 15.875 L 13.492188 15.875 C 14.226562 15.875 14.816406 15.285156 14.816406 14.550781 Z M 14.816406 12.171875 "/>
</g>
</defs>
<path fill-rule="nonzero" fill="rgb(95.686275%, 95.686275%, 95.686275%)" fill-opacity="1" d="M 3.441406 1.058594 L 13.492188 1.058594 C 14.222656 1.058594 14.816406 1.652344 14.816406 2.382812 L 14.816406 14.550781 C 14.816406 15.28125 14.222656 15.875 13.492188 15.875 L 3.441406 15.875 C 2.707031 15.875 2.117188 15.28125 2.117188 14.550781 L 2.117188 2.382812 C 2.117188 1.652344 2.707031 1.058594 3.441406 1.058594 Z M 3.441406 1.058594 "/>
<g mask="url(#mask-0)">
<use xlink:href="#source-11217"/>
</g>
<path fill-rule="nonzero" fill="rgb(60%, 60%, 60%)" fill-opacity="1" d="M 4.496094 5.554688 L 4.496094 11.640625 L 7.410156 11.640625 C 7.996094 11.640625 8.359375 12.117188 8.359375 12.117188 L 8.464844 12.253906 L 8.570312 12.117188 C 8.570312 12.117188 8.945312 11.652344 9.523438 11.640625 L 12.433594 11.640625 L 12.433594 5.554688 L 9.523438 5.554688 C 9.015625 5.554688 8.742188 5.773438 8.558594 5.953125 L 8.464844 6.042969 L 8.375 5.953125 C 8.191406 5.773438 7.917969 5.554688 7.410156 5.554688 Z M 4.761719 5.820312 L 7.410156 5.820312 C 8 5.820312 8.359375 6.292969 8.359375 6.292969 L 8.359375 6.296875 L 8.464844 6.4375 L 8.574219 6.296875 L 8.574219 6.292969 C 8.574219 6.292969 8.933594 5.820312 9.523438 5.820312 L 12.171875 5.820312 L 12.171875 11.375 L 9.523438 11.375 C 9.019531 11.382812 8.742188 11.601562 8.558594 11.777344 L 8.46875 11.863281 L 8.375 11.773438 C 8.199219 11.601562 7.894531 11.351562 7.410156 11.375 L 4.761719 11.375 Z M 4.761719 5.820312 "/>
<path fill-rule="nonzero" fill="rgb(60%, 60%, 60%)" fill-opacity="1" d="M 6.746094 6.746094 L 6.746094 6.878906 L 7.671875 6.878906 L 7.671875 6.746094 Z M 9.261719 6.746094 L 9.261719 6.878906 L 11.640625 6.878906 L 11.640625 6.746094 Z M 6.746094 7.277344 L 6.746094 7.40625 L 7.671875 7.40625 L 7.671875 7.277344 Z M 9.261719 7.277344 L 9.261719 7.40625 L 11.640625 7.40625 L 11.640625 7.277344 Z M 6.746094 7.804688 L 6.746094 7.9375 L 7.671875 7.9375 L 7.671875 7.804688 Z M 9.261719 7.804688 L 9.261719 7.9375 L 11.640625 7.9375 L 11.640625 7.804688 Z M 5.292969 8.335938 L 5.292969 8.464844 L 7.671875 8.464844 L 7.671875 8.335938 Z M 9.261719 8.335938 L 9.261719 8.464844 L 11.640625 8.464844 L 11.640625 8.335938 Z M 5.292969 8.863281 L 5.292969 8.996094 L 7.671875 8.996094 L 7.671875 8.863281 Z M 9.261719 8.863281 L 9.261719 8.996094 L 11.640625 8.996094 L 11.640625 8.863281 Z M 5.292969 9.390625 L 5.292969 9.523438 L 7.671875 9.523438 L 7.671875 9.390625 Z M 9.261719 9.390625 L 9.261719 9.523438 L 11.640625 9.523438 L 11.640625 9.390625 Z M 5.292969 9.921875 L 5.292969 10.054688 L 7.671875 10.054688 L 7.671875 9.921875 Z M 9.261719 9.921875 L 9.261719 10.054688 L 11.640625 10.054688 L 11.640625 9.921875 Z M 5.292969 10.449219 L 5.292969 10.582031 L 7.671875 10.582031 L 7.671875 10.449219 Z M 9.261719 10.449219 L 9.261719 10.582031 L 10.582031 10.582031 L 10.582031 10.449219 Z M 9.261719 10.449219 "/>
<path fill-rule="nonzero" fill="rgb(50.196078%, 50.196078%, 50.196078%)" fill-opacity="1" d="M 5.8125 6.746094 L 5.394531 7.851562 L 5.292969 7.851562 L 5.292969 7.9375 L 5.589844 7.9375 L 5.589844 7.851562 L 5.492188 7.851562 L 5.59375 7.597656 L 6.085938 7.597656 L 6.1875 7.851562 L 6.058594 7.851562 L 6.058594 7.9375 L 6.484375 7.9375 L 6.484375 7.851562 L 6.367188 7.851562 L 5.945312 6.746094 Z M 5.839844 6.9375 L 6.058594 7.511719 L 5.625 7.511719 Z M 5.839844 6.9375 "/>
</svg>
