<?xml version="1.0" encoding="UTF-8"?>
<svg xmlns="http://www.w3.org/2000/svg" xmlns:xlink="http://www.w3.org/1999/xlink" width="64" height="64" viewBox="0 0 64 64">
<defs>
<filter id="filter-remove-color" x="0%" y="0%" width="100%" height="100%">
<feColorMatrix color-interpolation-filters="sRGB" values="0 0 0 0 1 0 0 0 0 1 0 0 0 0 1 0 0 0 1 0" />
</filter>
<mask id="mask-0">
<g filter="url(#filter-remove-color)">
<rect x="-6.4" y="-6.4" width="76.8" height="76.8" fill="rgb(0%, 0%, 0%)" fill-opacity="0.15"/>
</g>
</mask>
<linearGradient id="linear-pattern-0" gradientUnits="userSpaceOnUse" x1="49.570999" y1="52.714001" x2="51.714001" y2="54.856998" gradientTransform="matrix(0.617345, 0, 0, 0.617345, -18.167916, -19.050025)">
<stop offset="0" stop-color="rgb(0%, 0%, 0%)" stop-opacity="1"/>
<stop offset="1" stop-color="rgb(0%, 0%, 0%)" stop-opacity="0"/>
</linearGradient>
<clipPath id="clip-0">
<rect x="0" y="0" width="17" height="17"/>
</clipPath>
<g id="source-126" clip-path="url(#clip-0)">
<path fill-rule="evenodd" fill="url(#linear-pattern-0)" d="M 14.816406 12.171875 L 11.113281 15.875 L 13.492188 15.875 C 14.226562 15.875 14.816406 15.285156 14.816406 14.550781 Z M 14.816406 12.171875 "/>
</g>
<mask id="mask-1">
<g filter="url(#filter-remove-color)">
<rect x="-6.4" y="-6.4" width="76.8" height="76.8" fill="rgb(0%, 0%, 0%)" fill-opacity="0.5"/>
</g>
</mask>
<clipPath id="clip-1">
<rect x="0" y="0" width="17" height="17"/>
</clipPath>
<g id="source-132" clip-path="url(#clip-1)">
<path fill-rule="nonzero" fill="rgb(4.705882%, 15.686275%, 3.529412%)" fill-opacity="1" d="M 10.644531 10.769531 L 11.449219 9.96875 C 11.570312 9.84375 11.570312 9.652344 11.449219 9.527344 C 11.324219 9.40625 11.132812 9.40625 11.011719 9.527344 L 10.097656 10.441406 C 9.609375 10.195312 9.054688 10.054688 8.464844 10.054688 C 7.875 10.054688 7.320312 10.195312 6.824219 10.441406 L 5.90625 9.527344 C 5.78125 9.40625 5.589844 9.40625 5.464844 9.527344 C 5.34375 9.652344 5.34375 9.84375 5.464844 9.96875 L 6.273438 10.777344 C 5.363281 11.449219 4.761719 12.527344 4.761719 13.757812 L 12.171875 13.757812 C 12.171875 12.527344 11.570312 11.441406 10.644531 10.769531 Z M 7.144531 12.433594 L 6.613281 12.433594 L 6.613281 11.90625 L 7.144531 11.90625 Z M 10.320312 12.433594 L 9.789062 12.433594 L 9.789062 11.90625 L 10.320312 11.90625 Z M 10.320312 12.433594 "/>
</g>
</defs>
<path fill-rule="nonzero" fill="rgb(51.764706%, 78.431373%, 20.784314%)" fill-opacity="1" d="M 3.441406 1.058594 L 13.492188 1.058594 C 14.222656 1.058594 14.816406 1.652344 14.816406 2.382812 L 14.816406 14.550781 C 14.816406 15.28125 14.222656 15.875 13.492188 15.875 L 3.441406 15.875 C 2.707031 15.875 2.117188 15.28125 2.117188 14.550781 L 2.117188 2.382812 C 2.117188 1.652344 2.707031 1.058594 3.441406 1.058594 Z M 3.441406 1.058594 "/>
<g mask="url(#mask-0)">
<use xlink:href="#source-126"/>
</g>
<path fill-rule="nonzero" fill="rgb(100%, 100%, 100%)" fill-opacity="1" d="M 7.9375 6.613281 L 7.9375 8.335938 C 7.9375 8.40625 7.996094 8.464844 8.070312 8.464844 L 8.863281 8.464844 C 8.9375 8.464844 8.996094 8.40625 8.996094 8.335938 L 8.996094 6.613281 Z M 8.203125 7.671875 L 8.730469 7.671875 L 8.730469 8.203125 L 8.203125 8.203125 Z M 8.203125 7.671875 "/>
<path fill-rule="nonzero" fill="rgb(100%, 100%, 100%)" fill-opacity="1" d="M 8.46875 1.058594 L 7.9375 1.058594 L 7.9375 1.585938 L 8.46875 1.585938 Z M 8.46875 1.585938 L 8.46875 2.117188 L 8.996094 2.117188 L 8.996094 1.585938 Z M 8.46875 2.117188 L 7.9375 2.117188 L 7.9375 2.644531 L 8.46875 2.644531 Z M 8.46875 2.644531 L 8.46875 3.175781 L 8.996094 3.175781 L 8.996094 2.644531 Z M 8.46875 3.175781 L 7.9375 3.175781 L 7.9375 3.703125 L 8.46875 3.703125 Z M 8.46875 3.703125 L 8.46875 4.234375 L 8.996094 4.234375 L 8.996094 3.703125 Z M 8.46875 4.234375 L 7.9375 4.234375 L 7.9375 4.761719 L 8.46875 4.761719 Z M 8.46875 4.761719 L 8.46875 5.292969 L 8.996094 5.292969 L 8.996094 4.761719 Z M 8.46875 5.292969 L 7.9375 5.292969 L 7.9375 5.820312 L 8.46875 5.820312 Z M 8.46875 5.820312 L 8.46875 6.351562 L 8.996094 6.351562 L 8.996094 5.820312 Z M 8.46875 5.820312 "/>
<g mask="url(#mask-1)">
<use xlink:href="#source-132"/>
</g>
</svg>
