<?xml version="1.0" encoding="UTF-8"?>
<svg xmlns="http://www.w3.org/2000/svg" xmlns:xlink="http://www.w3.org/1999/xlink" width="64" height="64" viewBox="0 0 64 64">
<defs>
<filter id="filter-remove-color" x="0%" y="0%" width="100%" height="100%">
<feColorMatrix color-interpolation-filters="sRGB" values="0 0 0 0 1 0 0 0 0 1 0 0 0 0 1 0 0 0 1 0" />
</filter>
<mask id="mask-0">
<g filter="url(#filter-remove-color)">
<rect x="-6.4" y="-6.4" width="76.8" height="76.8" fill="rgb(0%, 0%, 0%)" fill-opacity="0.15"/>
</g>
</mask>
<linearGradient id="linear-pattern-0" gradientUnits="userSpaceOnUse" x1="49.570999" y1="52.714001" x2="51.714001" y2="54.856998" gradientTransform="matrix(0.61734, 0, 0, 0.61734, -18.167999, -19.049999)">
<stop offset="0" stop-color="rgb(0%, 0%, 0%)" stop-opacity="1"/>
<stop offset="1" stop-color="rgb(0%, 0%, 0%)" stop-opacity="0"/>
</linearGradient>
<clipPath id="clip-0">
<rect x="0" y="0" width="17" height="17"/>
</clipPath>
<g id="source-14192" clip-path="url(#clip-0)">
<path fill-rule="evenodd" fill="url(#linear-pattern-0)" d="M 14.816406 12.171875 L 11.113281 15.875 L 13.492188 15.875 C 14.226562 15.875 14.816406 15.285156 14.816406 14.550781 Z M 14.816406 12.171875 "/>
</g>
<mask id="mask-1">
<g filter="url(#filter-remove-color)">
<rect x="-6.4" y="-6.4" width="76.8" height="76.8" fill="rgb(0%, 0%, 0%)" fill-opacity="0.35"/>
</g>
</mask>
<clipPath id="clip-1">
<rect x="0" y="0" width="17" height="17"/>
</clipPath>
<g id="source-14200" clip-path="url(#clip-1)">
<path fill-rule="nonzero" fill="rgb(100%, 100%, 100%)" fill-opacity="1" d="M 5.160156 9.128906 C 4.011719 9.128906 2.914062 9.59375 2.117188 10.417969 L 2.117188 11.25 C 2.808594 10.253906 3.945312 9.65625 5.160156 9.65625 C 7.207031 9.65625 8.863281 11.316406 8.863281 13.359375 C 8.863281 14.292969 8.507812 15.191406 7.875 15.875 L 8.558594 15.875 C 9.097656 15.148438 9.390625 14.265625 9.394531 13.359375 C 9.394531 11.023438 7.496094 9.128906 5.160156 9.128906 Z M 5.160156 9.128906 "/>
<path fill-rule="nonzero" fill="rgb(100%, 100%, 100%)" fill-opacity="1" d="M 5.160156 10.714844 C 4.511719 10.714844 3.886719 10.957031 3.402344 11.386719 L 3.78125 11.761719 C 4.164062 11.429688 4.652344 11.246094 5.160156 11.246094 C 6.328125 11.246094 7.277344 12.191406 7.277344 13.359375 L 7.804688 13.359375 C 7.804688 11.898438 6.621094 10.714844 5.160156 10.714844 Z M 2.765625 12.242188 C 2.601562 12.59375 2.515625 12.976562 2.515625 13.359375 L 3.042969 13.359375 C 3.042969 13.117188 3.085938 12.875 3.167969 12.648438 Z M 2.765625 12.242188 "/>
<path fill-rule="nonzero" fill="rgb(100%, 100%, 100%)" fill-opacity="1" d="M 5.871094 11.859375 L 4.734375 14.496094 C 4.660156 14.582031 4.609375 14.691406 4.589844 14.804688 L 4.585938 14.8125 C 4.539062 15.109375 4.703125 15.386719 4.96875 15.453125 C 5.230469 15.519531 5.507812 15.351562 5.609375 15.070312 L 5.609375 15.054688 L 5.625 15.015625 C 5.648438 14.917969 5.648438 14.816406 5.628906 14.722656 Z M 5.871094 11.859375 "/>
</g>
</defs>
<path fill-rule="nonzero" fill="rgb(98.039216%, 41.568627%, 36.470588%)" fill-opacity="1" d="M 3.441406 1.058594 L 13.492188 1.058594 C 14.222656 1.058594 14.816406 1.652344 14.816406 2.382812 L 14.816406 14.550781 C 14.816406 15.28125 14.222656 15.875 13.492188 15.875 L 3.441406 15.875 C 2.707031 15.875 2.117188 15.28125 2.117188 14.550781 L 2.117188 2.382812 C 2.117188 1.652344 2.707031 1.058594 3.441406 1.058594 Z M 3.441406 1.058594 "/>
<g mask="url(#mask-0)">
<use xlink:href="#source-14192"/>
</g>
<path fill-rule="nonzero" fill="rgb(100%, 100%, 100%)" fill-opacity="1" d="M 7.9375 6.613281 L 7.9375 8.335938 C 7.9375 8.40625 7.996094 8.464844 8.070312 8.464844 L 8.863281 8.464844 C 8.9375 8.464844 8.996094 8.40625 8.996094 8.335938 L 8.996094 6.613281 Z M 8.203125 7.671875 L 8.730469 7.671875 L 8.730469 8.203125 L 8.203125 8.203125 Z M 8.203125 7.671875 "/>
<path fill-rule="nonzero" fill="rgb(100%, 100%, 100%)" fill-opacity="1" d="M 8.46875 1.058594 L 7.9375 1.058594 L 7.9375 1.585938 L 8.46875 1.585938 Z M 8.46875 1.585938 L 8.46875 2.117188 L 8.996094 2.117188 L 8.996094 1.585938 Z M 8.46875 2.117188 L 7.9375 2.117188 L 7.9375 2.644531 L 8.46875 2.644531 Z M 8.46875 2.644531 L 8.46875 3.175781 L 8.996094 3.175781 L 8.996094 2.644531 Z M 8.46875 3.175781 L 7.9375 3.175781 L 7.9375 3.703125 L 8.46875 3.703125 Z M 8.46875 3.703125 L 8.46875 4.234375 L 8.996094 4.234375 L 8.996094 3.703125 Z M 8.46875 4.234375 L 7.9375 4.234375 L 7.9375 4.761719 L 8.46875 4.761719 Z M 8.46875 4.761719 L 8.46875 5.292969 L 8.996094 5.292969 L 8.996094 4.761719 Z M 8.46875 5.292969 L 7.9375 5.292969 L 7.9375 5.820312 L 8.46875 5.820312 Z M 8.46875 5.820312 L 8.46875 6.351562 L 8.996094 6.351562 L 8.996094 5.820312 Z M 8.46875 5.820312 "/>
<g mask="url(#mask-1)">
<use xlink:href="#source-14200"/>
</g>
</svg>
