<?xml version="1.0" encoding="UTF-8"?>
<svg xmlns="http://www.w3.org/2000/svg" xmlns:xlink="http://www.w3.org/1999/xlink" width="64" height="64" viewBox="0 0 64 64">
<defs>
<filter id="filter-remove-color" x="0%" y="0%" width="100%" height="100%">
<feColorMatrix color-interpolation-filters="sRGB" values="0 0 0 0 1 0 0 0 0 1 0 0 0 0 1 0 0 0 1 0" />
</filter>
<mask id="mask-0">
<g filter="url(#filter-remove-color)">
<rect x="-6.4" y="-6.4" width="76.8" height="76.8" fill="rgb(0%, 0%, 0%)" fill-opacity="0.1"/>
</g>
</mask>
<linearGradient id="linear-pattern-0" gradientUnits="userSpaceOnUse" x1="49.570999" y1="52.714001" x2="51.714001" y2="54.856998" gradientTransform="matrix(0.617345, 0, 0, 0.617345, -18.167916, -19.050025)">
<stop offset="0" stop-color="rgb(0%, 0%, 0%)" stop-opacity="1"/>
<stop offset="1" stop-color="rgb(0%, 0%, 0%)" stop-opacity="0"/>
</linearGradient>
<clipPath id="clip-0">
<rect x="0" y="0" width="17" height="17"/>
</clipPath>
<g id="source-13515" clip-path="url(#clip-0)">
<path fill-rule="evenodd" fill="url(#linear-pattern-0)" d="M 14.816406 12.171875 L 11.113281 15.875 L 13.492188 15.875 C 14.226562 15.875 14.816406 15.285156 14.816406 14.550781 Z M 14.816406 12.171875 "/>
</g>
</defs>
<path fill-rule="nonzero" fill="rgb(95.686275%, 95.686275%, 95.686275%)" fill-opacity="1" d="M 3.441406 1.058594 L 13.492188 1.058594 C 14.222656 1.058594 14.816406 1.652344 14.816406 2.382812 L 14.816406 14.550781 C 14.816406 15.28125 14.222656 15.875 13.492188 15.875 L 3.441406 15.875 C 2.707031 15.875 2.117188 15.28125 2.117188 14.550781 L 2.117188 2.382812 C 2.117188 1.652344 2.707031 1.058594 3.441406 1.058594 Z M 3.441406 1.058594 "/>
<g mask="url(#mask-0)">
<use xlink:href="#source-13515"/>
</g>
<path fill-rule="nonzero" fill="rgb(44.313725%, 80.392157%, 30.980392%)" fill-opacity="1" d="M 7.753906 4.402344 C 7.265625 4.371094 6.714844 4.71875 6.734375 5.253906 C 6.675781 5.570312 6.984375 5.808594 6.96875 6.09375 C 6.789062 6.175781 6.652344 6.175781 6.523438 6.175781 L 4.40625 6.175781 C 4.40625 6.785156 4.40625 7.660156 4.40625 8.269531 C 4.574219 8.628906 4.910156 8.117188 5.175781 8.171875 C 5.6875 8.0625 6.144531 8.511719 6.167969 9.003906 C 6.238281 9.476562 6.054688 10.085938 5.523438 10.179688 C 5.234375 10.230469 4.925781 10.175781 4.6875 10 C 4.402344 9.828125 4.386719 10.207031 4.40625 10.390625 L 4.40625 12.523438 L 6.84375 12.523438 C 7.203125 12.359375 6.6875 12.023438 6.742188 11.753906 C 6.636719 11.246094 7.082031 10.789062 7.578125 10.761719 C 8.046875 10.695312 8.660156 10.878906 8.753906 11.410156 C 8.800781 11.699219 8.75 12.007812 8.574219 12.246094 C 8.402344 12.527344 8.777344 12.546875 8.964844 12.523438 L 10.757812 12.523438 L 10.757812 10.101562 C 10.925781 9.738281 11.265625 10.269531 11.539062 10.191406 C 11.980469 10.277344 12.429688 9.960938 12.496094 9.515625 C 12.609375 9.023438 12.46875 8.371094 11.929688 8.199219 C 11.589844 8.082031 11.25 8.230469 10.960938 8.40625 C 10.695312 8.445312 10.765625 8.125 10.757812 7.957031 C 10.757812 7.453125 10.757812 6.679688 10.757812 6.175781 L 8.675781 6.175781 C 8.3125 6.003906 8.84375 5.667969 8.761719 5.394531 C 8.851562 4.953125 8.535156 4.503906 8.089844 4.4375 C 7.980469 4.414062 7.867188 4.402344 7.753906 4.402344 Z M 7.753906 4.402344 "/>
</svg>
