<?xml version="1.0" encoding="UTF-8"?>
<svg xmlns="http://www.w3.org/2000/svg" xmlns:xlink="http://www.w3.org/1999/xlink" width="64" height="64" viewBox="0 0 64 64">
<defs>
<filter id="filter-remove-color" x="0%" y="0%" width="100%" height="100%">
<feColorMatrix color-interpolation-filters="sRGB" values="0 0 0 0 1 0 0 0 0 1 0 0 0 0 1 0 0 0 1 0" />
</filter>
<mask id="mask-0">
<g filter="url(#filter-remove-color)">
<rect x="-6.4" y="-6.4" width="76.8" height="76.8" fill="rgb(0%, 0%, 0%)" fill-opacity="0.15"/>
</g>
</mask>
<linearGradient id="linear-pattern-0" gradientUnits="userSpaceOnUse" x1="49.570999" y1="52.714001" x2="51.714001" y2="54.856998" gradientTransform="matrix(0.617345, 0, 0, 0.617345, -18.167916, -19.050025)">
<stop offset="0" stop-color="rgb(0%, 0%, 0%)" stop-opacity="1"/>
<stop offset="1" stop-color="rgb(0%, 0%, 0%)" stop-opacity="0"/>
</linearGradient>
<clipPath id="clip-0">
<rect x="0" y="0" width="17" height="17"/>
</clipPath>
<g id="source-546" clip-path="url(#clip-0)">
<path fill-rule="evenodd" fill="url(#linear-pattern-0)" d="M 14.816406 12.171875 L 11.113281 15.875 L 13.492188 15.875 C 14.226562 15.875 14.816406 15.285156 14.816406 14.550781 Z M 14.816406 12.171875 "/>
</g>
</defs>
<path fill-rule="nonzero" fill="rgb(89.019608%, 30.588235%, 16.862745%)" fill-opacity="1" d="M 3.441406 1.058594 L 13.492188 1.058594 C 14.222656 1.058594 14.816406 1.652344 14.816406 2.382812 L 14.816406 14.550781 C 14.816406 15.28125 14.222656 15.875 13.492188 15.875 L 3.441406 15.875 C 2.707031 15.875 2.117188 15.28125 2.117188 14.550781 L 2.117188 2.382812 C 2.117188 1.652344 2.707031 1.058594 3.441406 1.058594 Z M 3.441406 1.058594 "/>
<g mask="url(#mask-0)">
<use xlink:href="#source-546"/>
</g>
<path fill-rule="nonzero" fill="rgb(100%, 100%, 100%)" fill-opacity="1" d="M 8.765625 4.761719 C 7.476562 4.992188 6.183594 5.296875 4.894531 5.523438 C 4.894531 7.484375 4.894531 9.449219 4.894531 11.414062 C 6.179688 11.636719 7.460938 11.9375 8.742188 12.171875 L 9.128906 12.171875 L 9.128906 4.761719 Z M 6.824219 7.09375 C 7.078125 7.089844 7.324219 7.125 7.523438 7.304688 C 7.902344 7.765625 7.800781 8.617188 7.238281 8.890625 C 7.039062 8.992188 6.808594 8.980469 6.589844 8.972656 C 6.589844 9.316406 6.589844 9.664062 6.589844 10.007812 C 6.414062 9.992188 6.238281 9.976562 6.066406 9.964844 C 6.058594 9.019531 6.054688 8.121094 6.066406 7.179688 C 6.3125 7.148438 6.570312 7.101562 6.824219 7.09375 Z M 6.796875 7.605469 C 6.726562 7.605469 6.65625 7.609375 6.589844 7.613281 C 6.585938 7.910156 6.585938 8.207031 6.605469 8.5 C 6.78125 8.480469 7.007812 8.496094 7.109375 8.316406 C 7.191406 8.136719 7.195312 7.910156 7.097656 7.738281 C 7.023438 7.636719 6.910156 7.609375 6.796875 7.605469 Z M 6.796875 7.605469 "/>
<path fill-rule="nonzero" fill="rgb(100%, 100%, 100%)" fill-opacity="1" d="M 9.394531 5.820312 L 9.394531 6.699219 C 9.515625 6.671875 9.652344 6.625 9.789062 6.613281 L 9.789062 7.804688 L 10.972656 7.804688 C 10.929688 8.167969 10.769531 8.539062 10.449219 8.726562 C 10.140625 8.9375 9.742188 8.9375 9.394531 8.828125 C 9.394531 9.003906 9.390625 9.351562 9.394531 9.523438 L 11.507812 9.523438 L 11.507812 9.789062 L 9.394531 9.789062 L 9.394531 10.320312 L 11.507812 10.320312 L 11.507812 10.582031 L 9.394531 10.582031 L 9.394531 11.375 L 12.039062 11.375 L 12.039062 5.820312 Z M 10.054688 6.453125 C 10.617188 6.511719 11.082031 6.980469 11.144531 7.539062 L 10.054688 7.539062 Z M 10.054688 6.453125 "/>
</svg>
