<?xml version="1.0" encoding="UTF-8"?>
<svg xmlns="http://www.w3.org/2000/svg" xmlns:xlink="http://www.w3.org/1999/xlink" width="64" height="64" viewBox="0 0 64 64">
<defs>
<filter id="filter-remove-color" x="0%" y="0%" width="100%" height="100%">
<feColorMatrix color-interpolation-filters="sRGB" values="0 0 0 0 1 0 0 0 0 1 0 0 0 0 1 0 0 0 1 0" />
</filter>
<mask id="mask-0">
<g filter="url(#filter-remove-color)">
<rect x="-6.4" y="-6.4" width="76.8" height="76.8" fill="rgb(0%, 0%, 0%)" fill-opacity="0.1"/>
</g>
</mask>
<linearGradient id="linear-pattern-0" gradientUnits="userSpaceOnUse" x1="46.997299" y1="50.996899" x2="51.997601" y2="55.9972">
<stop offset="0" stop-color="rgb(0%, 0%, 0%)" stop-opacity="1"/>
<stop offset="1" stop-color="rgb(0%, 0%, 0%)" stop-opacity="0"/>
</linearGradient>
<clipPath id="clip-0">
<rect x="0" y="0" width="64" height="64"/>
</clipPath>
<g id="source-1036" clip-path="url(#clip-0)">
<path fill-rule="evenodd" fill="url(#linear-pattern-0)" d="M 56 46 L 42 60 L 51 60 C 53.769531 60 56 57.769531 56 55 Z M 56 46 "/>
</g>
</defs>
<path fill-rule="nonzero" fill="rgb(95.686275%, 95.686275%, 95.686275%)" fill-opacity="1" d="M 51 4 L 13 4 C 10.238281 4 8 6.238281 8 9 L 8 55 C 8 57.761719 10.238281 60 13 60 L 51 60 C 53.761719 60 56 57.761719 56 55 L 56 9 C 56 6.238281 53.761719 4 51 4 Z M 51 4 "/>
<g mask="url(#mask-0)">
<use xlink:href="#source-1036"/>
</g>
<path fill-rule="nonzero" fill="rgb(91.764706%, 70.196078%, 1.960784%)" fill-opacity="1" d="M 23.625 21.375 L 25.875 21.375 L 25.875 23.625 L 23.625 23.625 L 23.625 29.25 C 23.625 29.847656 23.386719 30.417969 22.964844 30.839844 C 22.542969 31.261719 21.972656 31.5 21.375 31.5 C 21.972656 31.5 22.542969 31.738281 22.964844 32.160156 C 23.386719 32.582031 23.625 33.152344 23.625 33.75 L 23.625 39.375 L 25.875 39.375 L 25.875 41.625 L 23.625 41.625 C 22.421875 41.320312 21.375 40.613281 21.375 39.375 L 21.375 34.875 C 21.375 34.277344 21.136719 33.707031 20.714844 33.285156 C 20.292969 32.863281 19.722656 32.625 19.125 32.625 L 18 32.625 L 18 30.375 L 19.125 30.375 C 19.722656 30.375 20.292969 30.136719 20.714844 29.714844 C 21.136719 29.292969 21.375 28.722656 21.375 28.125 L 21.375 23.625 C 21.375 23.027344 21.613281 22.457031 22.035156 22.035156 C 22.457031 21.613281 23.027344 21.375 23.625 21.375 Z M 39.375 21.375 C 39.972656 21.375 40.542969 21.613281 40.964844 22.035156 C 41.386719 22.457031 41.625 23.027344 41.625 23.625 L 41.625 28.125 C 41.625 28.722656 41.863281 29.292969 42.285156 29.714844 C 42.707031 30.136719 43.277344 30.375 43.875 30.375 L 45 30.375 L 45 32.625 L 43.875 32.625 C 43.277344 32.625 42.707031 32.863281 42.285156 33.285156 C 41.863281 33.707031 41.625 34.277344 41.625 34.875 L 41.625 39.375 C 41.625 39.972656 41.386719 40.542969 40.964844 40.964844 C 40.542969 41.386719 39.972656 41.625 39.375 41.625 L 37.125 41.625 L 37.125 39.375 L 39.375 39.375 L 39.375 33.75 C 39.375 33.152344 39.613281 32.582031 40.035156 32.160156 C 40.457031 31.738281 41.027344 31.5 41.625 31.5 C 41.027344 31.5 40.457031 31.261719 40.035156 30.839844 C 39.613281 30.417969 39.375 29.847656 39.375 29.25 L 39.375 23.625 L 37.125 23.625 L 37.125 21.375 Z M 31.5 34.875 C 31.796875 34.875 32.085938 34.992188 32.296875 35.203125 C 32.507812 35.414062 32.625 35.703125 32.625 36 C 32.625 36.296875 32.507812 36.585938 32.296875 36.796875 C 32.085938 37.007812 31.796875 37.125 31.5 37.125 C 31.203125 37.125 30.914062 37.007812 30.703125 36.796875 C 30.492188 36.585938 30.375 36.296875 30.375 36 C 30.375 35.703125 30.492188 35.414062 30.703125 35.203125 C 30.914062 34.992188 31.203125 34.875 31.5 34.875 Z M 27 34.875 C 27.296875 34.875 27.585938 34.992188 27.796875 35.203125 C 28.007812 35.414062 28.125 35.703125 28.125 36 C 28.125 36.296875 28.007812 36.585938 27.796875 36.796875 C 27.585938 37.007812 27.296875 37.125 27 37.125 C 26.703125 37.125 26.414062 37.007812 26.203125 36.796875 C 25.992188 36.585938 25.875 36.296875 25.875 36 C 25.875 35.703125 25.992188 35.414062 26.203125 35.203125 C 26.414062 34.992188 26.703125 34.875 27 34.875 Z M 36 34.875 C 36.296875 34.875 36.585938 34.992188 36.796875 35.203125 C 37.007812 35.414062 37.125 35.703125 37.125 36 C 37.125 36.296875 37.007812 36.585938 36.796875 36.796875 C 36.585938 37.007812 36.296875 37.125 36 37.125 C 35.703125 37.125 35.414062 37.007812 35.203125 36.796875 C 34.992188 36.585938 34.875 36.296875 34.875 36 C 34.875 35.703125 34.992188 35.414062 35.203125 35.203125 C 35.414062 34.992188 35.703125 34.875 36 34.875 Z M 36 34.875 "/>
</svg>
