<?xml version="1.0" encoding="UTF-8"?>
<svg xmlns="http://www.w3.org/2000/svg" xmlns:xlink="http://www.w3.org/1999/xlink" width="64" height="64" viewBox="0 0 64 64">
<defs>
<filter id="filter-remove-color" x="0%" y="0%" width="100%" height="100%">
<feColorMatrix color-interpolation-filters="sRGB" values="0 0 0 0 1 0 0 0 0 1 0 0 0 0 1 0 0 0 1 0" />
</filter>
<mask id="mask-0">
<g filter="url(#filter-remove-color)">
<rect x="-6.4" y="-6.4" width="76.8" height="76.8" fill="rgb(0%, 0%, 0%)" fill-opacity="0.15"/>
</g>
</mask>
<linearGradient id="linear-pattern-0" gradientUnits="userSpaceOnUse" x1="49.570999" y1="52.714001" x2="51.714001" y2="54.856998" gradientTransform="matrix(2.3333, 0, 0, 2.3333, -68.667, -72.000999)">
<stop offset="0" stop-color="rgb(0%, 0%, 0%)" stop-opacity="1"/>
<stop offset="1" stop-color="rgb(0%, 0%, 0%)" stop-opacity="0"/>
</linearGradient>
<clipPath id="clip-0">
<rect x="0" y="0" width="64" height="64"/>
</clipPath>
<g id="source-16300" clip-path="url(#clip-0)">
<path fill-rule="evenodd" fill="url(#linear-pattern-0)" d="M 56 46 L 42 60 L 51 60 C 53.769531 60 56 57.769531 56 55 Z M 56 46 "/>
</g>
<mask id="mask-1">
<g filter="url(#filter-remove-color)">
<rect x="-6.4" y="-6.4" width="76.8" height="76.8" fill="rgb(0%, 0%, 0%)" fill-opacity="0.75"/>
</g>
</mask>
<clipPath id="clip-1">
<rect x="0" y="0" width="64" height="64"/>
</clipPath>
<g id="source-16304" clip-path="url(#clip-1)">
<path fill-rule="nonzero" fill="rgb(100%, 100%, 100%)" fill-opacity="1" d="M 32 22 C 31.285156 22 30.574219 22.019531 29.875 22.058594 C 29.855469 22.058594 29.835938 22.058594 29.8125 22.0625 C 29.753906 22.0625 29.699219 22.070312 29.640625 22.074219 C 28.984375 22.109375 28.339844 22.167969 27.71875 22.238281 C 27.71875 22.238281 27.71875 22.238281 27.714844 22.238281 C 27.09375 22.308594 26.496094 22.398438 25.933594 22.5 C 25.898438 22.507812 25.859375 22.511719 25.824219 22.519531 C 25.28125 22.621094 24.773438 22.734375 24.304688 22.863281 C 24.269531 22.871094 24.226562 22.878906 24.191406 22.890625 C 23.746094 23.011719 23.339844 23.144531 22.976562 23.289062 C 22.921875 23.3125 22.859375 23.332031 22.804688 23.355469 C 22.726562 23.386719 22.652344 23.421875 22.582031 23.457031 C 22.46875 23.507812 22.359375 23.558594 22.261719 23.609375 C 22.195312 23.644531 22.128906 23.679688 22.066406 23.71875 C 21.972656 23.773438 21.882812 23.824219 21.800781 23.878906 C 21.75 23.914062 21.703125 23.949219 21.660156 23.984375 C 21.582031 24.042969 21.503906 24.105469 21.441406 24.164062 C 21.40625 24.199219 21.375 24.234375 21.34375 24.265625 C 21.285156 24.328125 21.230469 24.390625 21.191406 24.457031 C 21.164062 24.496094 21.140625 24.535156 21.121094 24.578125 C 21.09375 24.632812 21.0625 24.6875 21.046875 24.742188 C 21.019531 24.828125 21.003906 24.914062 21 25 L 21 35 C 21.003906 35.429688 21.34375 35.851562 22 36.242188 C 22.003906 36.246094 22.007812 36.246094 22.011719 36.25 C 22.15625 36.335938 22.316406 36.417969 22.488281 36.5 C 22.5 36.503906 22.507812 36.507812 22.519531 36.515625 C 22.691406 36.59375 22.875 36.671875 23.070312 36.746094 C 23.089844 36.753906 23.113281 36.761719 23.132812 36.769531 C 23.320312 36.839844 23.515625 36.90625 23.722656 36.972656 C 23.769531 36.984375 23.8125 37 23.855469 37.011719 C 24.066406 37.074219 24.28125 37.132812 24.507812 37.191406 C 24.539062 37.199219 24.574219 37.207031 24.605469 37.21875 C 24.855469 37.277344 25.113281 37.335938 25.378906 37.394531 C 25.398438 37.394531 25.414062 37.398438 25.433594 37.402344 C 25.695312 37.457031 25.96875 37.507812 26.246094 37.554688 C 26.292969 37.5625 26.339844 37.570312 26.386719 37.578125 C 26.640625 37.617188 26.902344 37.65625 27.164062 37.691406 C 27.238281 37.703125 27.3125 37.710938 27.386719 37.722656 C 27.628906 37.75 27.875 37.777344 28.121094 37.804688 C 28.246094 37.816406 28.367188 37.828125 28.488281 37.839844 C 28.667969 37.855469 28.847656 37.871094 29.027344 37.886719 C 29.226562 37.898438 29.421875 37.914062 29.621094 37.925781 C 29.785156 37.933594 29.945312 37.945312 30.109375 37.953125 C 30.300781 37.960938 30.496094 37.96875 30.6875 37.976562 C 30.839844 37.980469 30.996094 37.984375 31.148438 37.988281 C 31.433594 37.996094 31.714844 38 32 38 C 32.320312 38 32.640625 37.996094 32.957031 37.988281 C 33.097656 37.984375 33.234375 37.976562 33.375 37.972656 C 33.613281 37.964844 33.851562 37.957031 34.089844 37.945312 C 34.207031 37.9375 34.320312 37.929688 34.4375 37.921875 C 34.671875 37.90625 34.910156 37.890625 35.140625 37.875 C 35.25 37.863281 35.355469 37.855469 35.460938 37.84375 C 35.71875 37.820312 35.976562 37.796875 36.230469 37.769531 C 36.289062 37.761719 36.347656 37.753906 36.40625 37.746094 C 36.683594 37.714844 36.953125 37.675781 37.21875 37.640625 C 37.289062 37.628906 37.359375 37.617188 37.429688 37.605469 C 37.660156 37.570312 37.886719 37.53125 38.109375 37.492188 C 38.210938 37.472656 38.316406 37.453125 38.421875 37.429688 C 38.625 37.390625 38.824219 37.351562 39.015625 37.304688 C 39.082031 37.292969 39.148438 37.277344 39.210938 37.261719 C 39.441406 37.207031 39.660156 37.148438 39.875 37.09375 C 39.878906 37.089844 39.882812 37.089844 39.886719 37.089844 C 39.894531 37.085938 39.902344 37.082031 39.910156 37.082031 C 40.15625 37.011719 40.390625 36.9375 40.613281 36.863281 C 40.839844 36.78125 41.050781 36.703125 41.25 36.617188 C 41.253906 36.617188 41.253906 36.617188 41.257812 36.613281 C 41.449219 36.53125 41.628906 36.449219 41.792969 36.359375 C 41.792969 36.359375 41.796875 36.359375 41.796875 36.355469 C 41.867188 36.320312 41.933594 36.28125 42 36.242188 C 42.65625 35.851562 42.996094 35.429688 43 35 L 43 31 L 40.613281 31 C 38.882812 31.597656 35.691406 32 32 32 C 26.476562 32 22 31.101562 22 30 L 22 26.242188 C 22 26.242188 22.003906 26.242188 22.003906 26.242188 C 22.21875 26.371094 22.46875 26.496094 22.75 26.613281 C 22.757812 26.621094 22.769531 26.625 22.777344 26.628906 C 23.058594 26.75 23.371094 26.863281 23.707031 26.96875 C 24.039062 27.070312 24.390625 27.167969 24.765625 27.257812 C 24.796875 27.261719 24.824219 27.269531 24.855469 27.277344 C 25.613281 27.453125 26.460938 27.601562 27.367188 27.71875 C 27.402344 27.722656 27.441406 27.726562 27.476562 27.730469 C 27.902344 27.785156 28.34375 27.832031 28.792969 27.867188 C 28.832031 27.871094 28.867188 27.875 28.90625 27.878906 C 29.367188 27.914062 29.832031 27.945312 30.304688 27.964844 C 30.414062 27.96875 30.523438 27.96875 30.632812 27.972656 C 31.085938 27.992188 31.542969 28 32 28 C 33.015625 28 34.023438 27.960938 35 27.882812 L 35 26.90625 C 34.671875 26.925781 34.335938 26.945312 34 26.957031 L 34 26.949219 C 33.351562 26.980469 32.691406 27 32 27 C 31.308594 27 30.636719 26.984375 29.984375 26.960938 C 29.390625 26.933594 28.820312 26.898438 28.269531 26.855469 C 28.171875 26.847656 28.078125 26.839844 27.980469 26.832031 C 27.457031 26.785156 26.953125 26.730469 26.480469 26.667969 C 26.449219 26.664062 26.414062 26.660156 26.386719 26.65625 C 25.898438 26.589844 25.449219 26.511719 25.03125 26.429688 C 24.984375 26.421875 24.9375 26.414062 24.890625 26.402344 C 24.5 26.324219 24.144531 26.238281 23.824219 26.144531 C 23.765625 26.128906 23.707031 26.113281 23.652344 26.097656 C 23.359375 26.007812 23.109375 25.914062 22.886719 25.816406 C 22.828125 25.789062 22.765625 25.765625 22.710938 25.738281 C 22.683594 25.722656 22.65625 25.707031 22.628906 25.691406 C 22.542969 25.648438 22.464844 25.601562 22.394531 25.550781 C 22.363281 25.53125 22.339844 25.507812 22.3125 25.488281 C 22.261719 25.449219 22.21875 25.410156 22.179688 25.371094 C 22.152344 25.339844 22.132812 25.3125 22.113281 25.28125 C 22.082031 25.242188 22.058594 25.207031 22.042969 25.167969 C 22.019531 25.109375 22 25.058594 22 25 C 22 24.867188 22.066406 24.734375 22.199219 24.605469 C 22.335938 24.46875 22.546875 24.335938 22.824219 24.207031 C 23.050781 24.101562 23.328125 24 23.636719 23.90625 C 23.671875 23.894531 23.707031 23.882812 23.742188 23.871094 C 23.742188 23.871094 23.746094 23.871094 23.746094 23.871094 C 24.085938 23.769531 24.476562 23.679688 24.898438 23.59375 C 24.914062 23.589844 24.929688 23.585938 24.945312 23.582031 C 25.367188 23.5 25.828125 23.421875 26.320312 23.355469 C 26.367188 23.347656 26.414062 23.339844 26.460938 23.335938 C 26.917969 23.273438 27.410156 23.222656 27.914062 23.175781 C 28.027344 23.167969 28.144531 23.15625 28.261719 23.144531 C 28.773438 23.105469 29.308594 23.070312 29.855469 23.046875 C 29.929688 23.042969 30.003906 23.042969 30.078125 23.039062 C 30.699219 23.011719 31.34375 23 32 23 C 32.691406 23 33.351562 23.019531 34 23.050781 L 34 23.039062 C 34.335938 23.054688 34.671875 23.074219 35 23.09375 L 35 22.113281 C 34.023438 22.039062 33.015625 22 32 22 M 32 38 L 31 38 L 31 41 L 32 41 L 32 42 L 24 42 L 24 41 L 21 41 L 21 44 L 24 44 L 24 43 L 40 43 L 40 44 L 43 44 L 43 41 L 40 41 L 40 42 L 33 42 L 33 41 L 34 41 L 34 38 Z M 39 22 L 39 25 L 40 25 L 40 23.78125 C 40.609375 24.324219 41 25.113281 41 26 C 41 27.660156 39.660156 29 38 29 L 36 29 L 36 30 L 38 30 C 40.214844 30 42 28.214844 42 26 C 42 24.796875 41.464844 23.726562 40.628906 23 L 42 23 L 42 22 Z M 22 31.238281 C 23.785156 32.308594 27.691406 33 32 33 C 36.308594 33 40.21875 32.308594 42 31.238281 L 42 35 C 42 36.105469 37.523438 37 32 37 C 26.476562 37 22 36.105469 22 35 Z M 32 39 L 33 39 L 33 40 L 32 40 Z M 22 42 L 23 42 L 23 43 L 22 43 Z M 41 42 L 42 42 L 42 43 L 41 43 Z M 41 42 "/>
</g>
</defs>
<path fill-rule="nonzero" fill="rgb(52.156863%, 25.882353%, 76.078431%)" fill-opacity="1" d="M 13 4 L 51 4 C 53.761719 4 56 6.238281 56 9 L 56 55 C 56 57.761719 53.761719 60 51 60 L 13 60 C 10.238281 60 8 57.761719 8 55 L 8 9 C 8 6.238281 10.238281 4 13 4 Z M 13 4 "/>
<g mask="url(#mask-0)">
<use xlink:href="#source-16300"/>
</g>
<g mask="url(#mask-1)">
<use xlink:href="#source-16304"/>
</g>
</svg>
