<?xml version="1.0" encoding="UTF-8"?>
<svg xmlns="http://www.w3.org/2000/svg" xmlns:xlink="http://www.w3.org/1999/xlink" width="64" height="64" viewBox="0 0 64 64">
<defs>
<filter id="filter-remove-color" x="0%" y="0%" width="100%" height="100%">
<feColorMatrix color-interpolation-filters="sRGB" values="0 0 0 0 1 0 0 0 0 1 0 0 0 0 1 0 0 0 1 0" />
</filter>
<mask id="mask-0">
<g filter="url(#filter-remove-color)">
<rect x="-6.4" y="-6.4" width="76.8" height="76.8" fill="rgb(0%, 0%, 0%)" fill-opacity="0.15"/>
</g>
</mask>
<linearGradient id="linear-pattern-0" gradientUnits="userSpaceOnUse" x1="49.570999" y1="52.714001" x2="51.714001" y2="54.856998" gradientTransform="matrix(0.617345, 0, 0, 0.617345, -18.167916, -19.050025)">
<stop offset="0" stop-color="rgb(0%, 0%, 0%)" stop-opacity="1"/>
<stop offset="1" stop-color="rgb(0%, 0%, 0%)" stop-opacity="0"/>
</linearGradient>
<clipPath id="clip-0">
<rect x="0" y="0" width="17" height="17"/>
</clipPath>
<g id="source-2808" clip-path="url(#clip-0)">
<path fill-rule="evenodd" fill="url(#linear-pattern-0)" d="M 14.816406 12.171875 L 11.113281 15.875 L 13.492188 15.875 C 14.226562 15.875 14.816406 15.285156 14.816406 14.550781 Z M 14.816406 12.171875 "/>
</g>
</defs>
<path fill-rule="nonzero" fill="rgb(0%, 54.117647%, 31.372549%)" fill-opacity="1" d="M 3.441406 1.058594 L 13.492188 1.058594 C 14.222656 1.058594 14.816406 1.652344 14.816406 2.382812 L 14.816406 14.550781 C 14.816406 15.28125 14.222656 15.875 13.492188 15.875 L 3.441406 15.875 C 2.707031 15.875 2.117188 15.28125 2.117188 14.550781 L 2.117188 2.382812 C 2.117188 1.652344 2.707031 1.058594 3.441406 1.058594 Z M 3.441406 1.058594 "/>
<g mask="url(#mask-0)">
<use xlink:href="#source-2808"/>
</g>
<path fill-rule="nonzero" fill="rgb(100%, 100%, 100%)" fill-opacity="1" d="M 8.765625 4.761719 C 7.476562 4.992188 6.183594 5.296875 4.894531 5.523438 C 4.894531 7.484375 4.894531 9.449219 4.894531 11.414062 C 6.179688 11.636719 7.460938 11.9375 8.742188 12.171875 L 9.128906 12.171875 L 9.128906 4.761719 Z M 7.90625 7.070312 C 7.679688 7.53125 7.453125 7.992188 7.226562 8.449219 C 7.457031 8.921875 7.695312 9.390625 7.925781 9.863281 C 7.722656 9.847656 7.519531 9.835938 7.316406 9.824219 C 7.175781 9.472656 7 9.132812 6.898438 8.765625 C 6.785156 9.105469 6.621094 9.429688 6.488281 9.765625 C 6.304688 9.761719 6.121094 9.753906 5.9375 9.746094 C 6.152344 9.324219 6.363281 8.898438 6.585938 8.476562 C 6.394531 8.042969 6.1875 7.617188 5.992188 7.1875 C 6.175781 7.175781 6.363281 7.164062 6.546875 7.15625 C 6.671875 7.484375 6.808594 7.808594 6.914062 8.144531 C 7.023438 7.789062 7.191406 7.453125 7.332031 7.105469 C 7.523438 7.09375 7.714844 7.082031 7.90625 7.070312 Z M 7.90625 7.070312 "/>
<path fill-rule="nonzero" fill="rgb(100%, 100%, 100%)" fill-opacity="1" d="M 9.390625 5.820312 L 9.390625 6.351562 L 10.1875 6.351562 L 10.1875 6.878906 L 9.390625 6.878906 L 9.390625 7.144531 L 10.1875 7.144531 L 10.1875 7.671875 L 9.390625 7.671875 L 9.390625 7.9375 L 10.1875 7.9375 L 10.1875 8.464844 L 9.390625 8.464844 L 9.390625 8.730469 L 10.1875 8.730469 L 10.1875 9.261719 L 9.390625 9.261719 L 9.390625 9.523438 L 10.1875 9.523438 L 10.1875 10.054688 L 9.390625 10.054688 L 9.390625 10.320312 L 10.1875 10.320312 L 10.1875 10.847656 L 9.390625 10.847656 L 9.390625 11.375 L 12.039062 11.375 L 12.039062 5.820312 Z M 10.449219 6.351562 L 11.507812 6.351562 L 11.507812 6.878906 L 10.449219 6.878906 Z M 10.449219 7.144531 L 11.507812 7.144531 L 11.507812 7.671875 L 10.449219 7.671875 Z M 10.449219 7.9375 L 11.507812 7.9375 L 11.507812 8.464844 L 10.449219 8.464844 Z M 10.449219 8.730469 L 11.507812 8.730469 L 11.507812 9.261719 L 10.449219 9.261719 Z M 10.449219 9.523438 L 11.507812 9.523438 L 11.507812 10.054688 L 10.449219 10.054688 Z M 10.449219 10.320312 L 11.507812 10.320312 L 11.507812 10.847656 L 10.449219 10.847656 Z M 10.449219 10.320312 "/>
</svg>
