<?xml version="1.0" encoding="UTF-8"?>
<svg xmlns="http://www.w3.org/2000/svg" xmlns:xlink="http://www.w3.org/1999/xlink" width="64" height="64" viewBox="0 0 64 64">
<defs>
<filter id="filter-remove-color" x="0%" y="0%" width="100%" height="100%">
<feColorMatrix color-interpolation-filters="sRGB" values="0 0 0 0 1 0 0 0 0 1 0 0 0 0 1 0 0 0 1 0" />
</filter>
<mask id="mask-0">
<g filter="url(#filter-remove-color)">
<rect x="-6.4" y="-6.4" width="76.8" height="76.8" fill="rgb(0%, 0%, 0%)" fill-opacity="0.1"/>
</g>
</mask>
<linearGradient id="linear-pattern-0" gradientUnits="userSpaceOnUse" x1="49.570999" y1="52.714001" x2="51.714001" y2="54.856998" gradientTransform="matrix(0.617345, 0, 0, 0.617345, -18.167916, -19.050025)">
<stop offset="0" stop-color="rgb(0%, 0%, 0%)" stop-opacity="1"/>
<stop offset="1" stop-color="rgb(0%, 0%, 0%)" stop-opacity="0"/>
</linearGradient>
<clipPath id="clip-0">
<rect x="0" y="0" width="17" height="17"/>
</clipPath>
<g id="source-1199" clip-path="url(#clip-0)">
<path fill-rule="evenodd" fill="url(#linear-pattern-0)" d="M 14.816406 12.171875 L 11.113281 15.875 L 13.492188 15.875 C 14.226562 15.875 14.816406 15.285156 14.816406 14.550781 Z M 14.816406 12.171875 "/>
</g>
</defs>
<path fill-rule="nonzero" fill="rgb(95.686275%, 95.686275%, 95.686275%)" fill-opacity="1" d="M 3.441406 1.058594 L 13.492188 1.058594 C 14.222656 1.058594 14.816406 1.652344 14.816406 2.382812 L 14.816406 14.550781 C 14.816406 15.28125 14.222656 15.875 13.492188 15.875 L 3.441406 15.875 C 2.707031 15.875 2.117188 15.28125 2.117188 14.550781 L 2.117188 2.382812 C 2.117188 1.652344 2.707031 1.058594 3.441406 1.058594 Z M 3.441406 1.058594 "/>
<g mask="url(#mask-0)">
<use xlink:href="#source-1199"/>
</g>
<path fill-rule="nonzero" fill="rgb(70.196078%, 70.196078%, 70.196078%)" fill-opacity="1" d="M 5.753906 6.585938 L 5.445312 6.585938 L 5.445312 4.980469 C 5.445312 4.757812 5.449219 4.546875 5.460938 4.347656 L 4.980469 4.757812 L 4.8125 4.546875 L 5.488281 4.011719 L 5.753906 4.011719 Z M 5.753906 6.585938 "/>
<path fill-rule="nonzero" fill="rgb(70.196078%, 70.196078%, 70.196078%)" fill-opacity="1" d="M 6.65625 5.292969 C 6.65625 4.851562 6.722656 4.523438 6.851562 4.304688 C 6.992188 4.082031 7.199219 3.96875 7.472656 3.96875 C 7.753906 3.96875 7.960938 4.082031 8.089844 4.304688 C 8.230469 4.523438 8.300781 4.851562 8.300781 5.292969 C 8.300781 5.734375 8.230469 6.066406 8.089844 6.289062 C 7.960938 6.507812 7.753906 6.613281 7.472656 6.613281 C 7.199219 6.613281 6.992188 6.507812 6.851562 6.289062 C 6.722656 6.066406 6.65625 5.734375 6.65625 5.292969 Z M 7.980469 5.292969 C 7.980469 4.898438 7.933594 4.625 7.839844 4.476562 C 7.753906 4.324219 7.632812 4.25 7.472656 4.25 C 7.320312 4.25 7.199219 4.324219 7.105469 4.476562 C 7.023438 4.617188 6.980469 4.886719 6.980469 5.292969 C 6.980469 5.703125 7.023438 5.984375 7.105469 6.136719 C 7.199219 6.277344 7.320312 6.347656 7.472656 6.347656 C 7.632812 6.347656 7.753906 6.273438 7.839844 6.121094 C 7.933594 5.972656 7.980469 5.695312 7.980469 5.292969 Z M 7.980469 5.292969 "/>
<path fill-rule="nonzero" fill="rgb(70.196078%, 70.196078%, 70.196078%)" fill-opacity="1" d="M 8.640625 5.292969 C 8.640625 4.851562 8.707031 4.523438 8.835938 4.304688 C 8.976562 4.082031 9.183594 3.96875 9.457031 3.96875 C 9.738281 3.96875 9.945312 4.082031 10.074219 4.304688 C 10.214844 4.523438 10.285156 4.851562 10.285156 5.292969 C 10.285156 5.734375 10.214844 6.066406 10.074219 6.289062 C 9.945312 6.507812 9.738281 6.613281 9.457031 6.613281 C 9.183594 6.613281 8.976562 6.507812 8.835938 6.289062 C 8.707031 6.066406 8.640625 5.734375 8.640625 5.292969 Z M 9.964844 5.292969 C 9.964844 4.898438 9.917969 4.625 9.824219 4.476562 C 9.738281 4.324219 9.617188 4.25 9.457031 4.25 C 9.304688 4.25 9.183594 4.324219 9.089844 4.476562 C 9.007812 4.617188 8.964844 4.886719 8.964844 5.292969 C 8.964844 5.703125 9.007812 5.984375 9.089844 6.136719 C 9.183594 6.277344 9.304688 6.347656 9.457031 6.347656 C 9.617188 6.347656 9.738281 6.273438 9.824219 6.121094 C 9.917969 5.972656 9.964844 5.695312 9.964844 5.292969 Z M 9.964844 5.292969 "/>
<path fill-rule="nonzero" fill="rgb(70.196078%, 70.196078%, 70.196078%)" fill-opacity="1" d="M 10.625 5.292969 C 10.625 4.851562 10.691406 4.523438 10.820312 4.304688 C 10.960938 4.082031 11.167969 3.96875 11.441406 3.96875 C 11.722656 3.96875 11.929688 4.082031 12.058594 4.304688 C 12.199219 4.523438 12.269531 4.851562 12.269531 5.292969 C 12.269531 5.734375 12.199219 6.066406 12.058594 6.289062 C 11.929688 6.507812 11.722656 6.613281 11.441406 6.613281 C 11.167969 6.613281 10.960938 6.507812 10.820312 6.289062 C 10.691406 6.066406 10.625 5.734375 10.625 5.292969 Z M 11.949219 5.292969 C 11.949219 4.898438 11.902344 4.625 11.808594 4.476562 C 11.722656 4.324219 11.601562 4.25 11.441406 4.25 C 11.289062 4.25 11.167969 4.324219 11.074219 4.476562 C 10.992188 4.617188 10.949219 4.886719 10.949219 5.292969 C 10.949219 5.703125 10.992188 5.984375 11.074219 6.136719 C 11.167969 6.277344 11.289062 6.347656 11.441406 6.347656 C 11.601562 6.347656 11.722656 6.273438 11.808594 6.121094 C 11.902344 5.972656 11.949219 5.695312 11.949219 5.292969 Z M 11.949219 5.292969 "/>
<path fill-rule="nonzero" fill="rgb(70.196078%, 70.196078%, 70.196078%)" fill-opacity="1" d="M 4.671875 8.464844 C 4.671875 8.027344 4.738281 7.695312 4.867188 7.480469 C 5.007812 7.257812 5.214844 7.144531 5.488281 7.144531 C 5.769531 7.144531 5.976562 7.257812 6.105469 7.480469 C 6.246094 7.695312 6.316406 8.027344 6.316406 8.464844 C 6.316406 8.90625 6.246094 9.242188 6.105469 9.464844 C 5.976562 9.679688 5.769531 9.789062 5.488281 9.789062 C 5.214844 9.789062 5.007812 9.679688 4.867188 9.464844 C 4.738281 9.242188 4.671875 8.90625 4.671875 8.464844 Z M 5.996094 8.464844 C 5.996094 8.074219 5.949219 7.800781 5.855469 7.648438 C 5.769531 7.5 5.648438 7.425781 5.488281 7.425781 C 5.335938 7.425781 5.214844 7.5 5.121094 7.648438 C 5.039062 7.789062 4.996094 8.0625 4.996094 8.464844 C 4.996094 8.878906 5.039062 9.160156 5.121094 9.3125 C 5.214844 9.453125 5.335938 9.523438 5.488281 9.523438 C 5.648438 9.523438 5.769531 9.445312 5.855469 9.296875 C 5.949219 9.148438 5.996094 8.871094 5.996094 8.464844 Z M 5.996094 8.464844 "/>
<path fill-rule="nonzero" fill="rgb(70.196078%, 70.196078%, 70.196078%)" fill-opacity="1" d="M 7.738281 9.761719 L 7.429688 9.761719 L 7.429688 8.15625 C 7.429688 7.933594 7.433594 7.722656 7.445312 7.523438 L 6.964844 7.933594 L 6.796875 7.722656 L 7.472656 7.1875 L 7.738281 7.1875 Z M 7.738281 9.761719 "/>
<path fill-rule="nonzero" fill="rgb(70.196078%, 70.196078%, 70.196078%)" fill-opacity="1" d="M 8.640625 8.464844 C 8.640625 8.027344 8.707031 7.695312 8.835938 7.480469 C 8.976562 7.257812 9.183594 7.144531 9.457031 7.144531 C 9.738281 7.144531 9.945312 7.257812 10.074219 7.480469 C 10.214844 7.695312 10.285156 8.027344 10.285156 8.464844 C 10.285156 8.90625 10.214844 9.242188 10.074219 9.464844 C 9.945312 9.679688 9.738281 9.789062 9.457031 9.789062 C 9.183594 9.789062 8.976562 9.679688 8.835938 9.464844 C 8.707031 9.242188 8.640625 8.90625 8.640625 8.464844 Z M 9.964844 8.464844 C 9.964844 8.074219 9.917969 7.800781 9.824219 7.648438 C 9.738281 7.5 9.617188 7.425781 9.457031 7.425781 C 9.304688 7.425781 9.183594 7.5 9.089844 7.648438 C 9.007812 7.789062 8.964844 8.0625 8.964844 8.464844 C 8.964844 8.878906 9.007812 9.160156 9.089844 9.3125 C 9.183594 9.453125 9.304688 9.523438 9.457031 9.523438 C 9.617188 9.523438 9.738281 9.445312 9.824219 9.296875 C 9.917969 9.148438 9.964844 8.871094 9.964844 8.464844 Z M 9.964844 8.464844 "/>
<path fill-rule="nonzero" fill="rgb(70.196078%, 70.196078%, 70.196078%)" fill-opacity="1" d="M 10.625 8.464844 C 10.625 8.027344 10.691406 7.695312 10.820312 7.480469 C 10.960938 7.257812 11.167969 7.144531 11.441406 7.144531 C 11.722656 7.144531 11.929688 7.257812 12.058594 7.480469 C 12.199219 7.695312 12.269531 8.027344 12.269531 8.464844 C 12.269531 8.90625 12.199219 9.242188 12.058594 9.464844 C 11.929688 9.679688 11.722656 9.789062 11.441406 9.789062 C 11.167969 9.789062 10.960938 9.679688 10.820312 9.464844 C 10.691406 9.242188 10.625 8.90625 10.625 8.464844 Z M 11.949219 8.464844 C 11.949219 8.074219 11.902344 7.800781 11.808594 7.648438 C 11.722656 7.5 11.601562 7.425781 11.441406 7.425781 C 11.289062 7.425781 11.167969 7.5 11.074219 7.648438 C 10.992188 7.789062 10.949219 8.0625 10.949219 8.464844 C 10.949219 8.878906 10.992188 9.160156 11.074219 9.3125 C 11.167969 9.453125 11.289062 9.523438 11.441406 9.523438 C 11.601562 9.523438 11.722656 9.445312 11.808594 9.296875 C 11.902344 9.148438 11.949219 8.871094 11.949219 8.464844 Z M 11.949219 8.464844 "/>
<path fill-rule="nonzero" fill="rgb(70.196078%, 70.196078%, 70.196078%)" fill-opacity="1" d="M 4.660156 11.640625 C 4.660156 11.199219 4.726562 10.871094 4.859375 10.65625 C 5 10.429688 5.207031 10.320312 5.476562 10.320312 C 5.757812 10.320312 5.964844 10.429688 6.097656 10.65625 C 6.238281 10.871094 6.308594 11.199219 6.308594 11.640625 C 6.308594 12.082031 6.238281 12.414062 6.097656 12.640625 C 5.964844 12.855469 5.757812 12.964844 5.476562 12.964844 C 5.207031 12.964844 5 12.855469 4.859375 12.640625 C 4.726562 12.414062 4.660156 12.082031 4.660156 11.640625 Z M 5.984375 11.640625 C 5.984375 11.246094 5.9375 10.976562 5.84375 10.824219 C 5.757812 10.675781 5.636719 10.601562 5.476562 10.601562 C 5.328125 10.601562 5.207031 10.675781 5.113281 10.824219 C 5.027344 10.964844 4.984375 11.238281 4.984375 11.640625 C 4.984375 12.054688 5.027344 12.335938 5.113281 12.484375 C 5.207031 12.625 5.328125 12.695312 5.476562 12.695312 C 5.636719 12.695312 5.757812 12.621094 5.84375 12.472656 C 5.9375 12.320312 5.984375 12.046875 5.984375 11.640625 Z M 5.984375 11.640625 "/>
<path fill-rule="nonzero" fill="rgb(70.196078%, 70.196078%, 70.196078%)" fill-opacity="1" d="M 6.644531 11.640625 C 6.644531 11.199219 6.710938 10.871094 6.84375 10.65625 C 6.984375 10.429688 7.191406 10.320312 7.460938 10.320312 C 7.742188 10.320312 7.949219 10.429688 8.082031 10.65625 C 8.222656 10.871094 8.292969 11.199219 8.292969 11.640625 C 8.292969 12.082031 8.222656 12.414062 8.082031 12.640625 C 7.949219 12.855469 7.742188 12.964844 7.460938 12.964844 C 7.191406 12.964844 6.984375 12.855469 6.84375 12.640625 C 6.710938 12.414062 6.644531 12.082031 6.644531 11.640625 Z M 7.96875 11.640625 C 7.96875 11.246094 7.921875 10.976562 7.828125 10.824219 C 7.742188 10.675781 7.621094 10.601562 7.460938 10.601562 C 7.3125 10.601562 7.191406 10.675781 7.097656 10.824219 C 7.011719 10.964844 6.96875 11.238281 6.96875 11.640625 C 6.96875 12.054688 7.011719 12.335938 7.097656 12.484375 C 7.191406 12.625 7.3125 12.695312 7.460938 12.695312 C 7.621094 12.695312 7.742188 12.621094 7.828125 12.472656 C 7.921875 12.320312 7.96875 12.046875 7.96875 11.640625 Z M 7.96875 11.640625 "/>
<path fill-rule="nonzero" fill="rgb(70.196078%, 70.196078%, 70.196078%)" fill-opacity="1" d="M 9.714844 12.9375 L 9.40625 12.9375 L 9.40625 11.332031 C 9.40625 11.105469 9.410156 10.894531 9.417969 10.699219 L 8.941406 11.105469 L 8.769531 10.894531 L 9.445312 10.359375 L 9.714844 10.359375 Z M 9.714844 12.9375 "/>
<path fill-rule="nonzero" fill="rgb(70.196078%, 70.196078%, 70.196078%)" fill-opacity="1" d="M 10.613281 11.640625 C 10.613281 11.199219 10.679688 10.871094 10.8125 10.65625 C 10.953125 10.429688 11.160156 10.320312 11.429688 10.320312 C 11.710938 10.320312 11.917969 10.429688 12.050781 10.65625 C 12.191406 10.871094 12.261719 11.199219 12.261719 11.640625 C 12.261719 12.082031 12.191406 12.414062 12.050781 12.640625 C 11.917969 12.855469 11.710938 12.964844 11.429688 12.964844 C 11.160156 12.964844 10.953125 12.855469 10.8125 12.640625 C 10.679688 12.414062 10.613281 12.082031 10.613281 11.640625 Z M 11.9375 11.640625 C 11.9375 11.246094 11.890625 10.976562 11.796875 10.824219 C 11.710938 10.675781 11.589844 10.601562 11.429688 10.601562 C 11.28125 10.601562 11.160156 10.675781 11.066406 10.824219 C 10.980469 10.964844 10.9375 11.238281 10.9375 11.640625 C 10.9375 12.054688 10.980469 12.335938 11.066406 12.484375 C 11.160156 12.625 11.28125 12.695312 11.429688 12.695312 C 11.589844 12.695312 11.710938 12.621094 11.796875 12.472656 C 11.890625 12.320312 11.9375 12.046875 11.9375 11.640625 Z M 11.9375 11.640625 "/>
</svg>
