<?xml version="1.0" encoding="UTF-8"?>
<svg xmlns="http://www.w3.org/2000/svg" xmlns:xlink="http://www.w3.org/1999/xlink" width="64" height="64" viewBox="0 0 64 64">
<defs>
<filter id="filter-remove-color" x="0%" y="0%" width="100%" height="100%">
<feColorMatrix color-interpolation-filters="sRGB" values="0 0 0 0 1 0 0 0 0 1 0 0 0 0 1 0 0 0 1 0" />
</filter>
<mask id="mask-0">
<g filter="url(#filter-remove-color)">
<rect x="-6.4" y="-6.4" width="76.8" height="76.8" fill="rgb(0%, 0%, 0%)" fill-opacity="0.15"/>
</g>
</mask>
<linearGradient id="linear-pattern-0" gradientUnits="userSpaceOnUse" x1="49.570999" y1="52.714001" x2="51.714001" y2="54.856998" gradientTransform="matrix(2.3333, 0, 0, 2.3333, -68.667, -72.000999)">
<stop offset="0" stop-color="rgb(0%, 0%, 0%)" stop-opacity="1"/>
<stop offset="1" stop-color="rgb(0%, 0%, 0%)" stop-opacity="0"/>
</linearGradient>
<clipPath id="clip-0">
<rect x="0" y="0" width="64" height="64"/>
</clipPath>
<g id="source-8936" clip-path="url(#clip-0)">
<path fill-rule="evenodd" fill="url(#linear-pattern-0)" d="M 56 46 L 42 60 L 51 60 C 53.769531 60 56 57.769531 56 55 Z M 56 46 "/>
</g>
</defs>
<path fill-rule="nonzero" fill="rgb(24.705882%, 45.882353%, 35.294118%)" fill-opacity="1" d="M 13 4 L 51 4 C 53.761719 4 56 6.238281 56 9 L 56 55 C 56 57.761719 53.761719 60 51 60 L 13 60 C 10.238281 60 8 57.761719 8 55 L 8 9 C 8 6.238281 10.238281 4 13 4 Z M 13 4 "/>
<g mask="url(#mask-0)">
<use xlink:href="#source-8936"/>
</g>
<path fill-rule="nonzero" fill="rgb(100%, 100%, 100%)" fill-opacity="1" d="M 33.132812 18 C 28.253906 18.867188 23.375 20.019531 18.5 20.875 C 18.5 28.292969 18.496094 35.710938 18.5 43.132812 C 23.351562 43.984375 28.203125 45.117188 33.046875 46 L 34.5 46 L 34.5 18 Z M 29.875 26.726562 C 29.027344 28.46875 28.175781 30.207031 27.308594 31.941406 C 28.183594 33.722656 29.078125 35.492188 29.957031 37.273438 C 29.191406 37.226562 28.425781 37.179688 27.660156 37.125 C 27.121094 35.800781 26.460938 34.519531 26.074219 33.128906 C 25.640625 34.421875 25.023438 35.640625 24.527344 36.90625 C 23.828125 36.898438 23.132812 36.867188 22.4375 36.839844 C 23.253906 35.238281 24.042969 33.625 24.886719 32.035156 C 24.171875 30.398438 23.382812 28.792969 22.648438 27.164062 C 23.347656 27.121094 24.046875 27.082031 24.746094 27.042969 C 25.21875 28.285156 25.738281 29.515625 26.128906 30.789062 C 26.550781 29.4375 27.175781 28.164062 27.714844 26.859375 C 28.433594 26.808594 29.15625 26.761719 29.875 26.726562 Z M 29.875 26.726562 "/>
<path fill-rule="nonzero" fill="rgb(100%, 100%, 100%)" fill-opacity="1" d="M 35.496094 22 L 35.496094 24 L 38.496094 24 L 38.496094 26 L 35.496094 26 L 35.496094 27 L 38.496094 27 L 38.496094 29.003906 L 35.496094 29.003906 L 35.496094 30 L 38.496094 30 L 38.496094 32 L 35.496094 32 L 35.496094 33 L 38.496094 33 L 38.496094 35 L 35.496094 35 L 35.496094 36 L 38.496094 36 L 38.496094 38 L 35.496094 38 L 35.496094 39 L 38.496094 39 L 38.496094 41 L 35.496094 41 L 35.496094 43 L 45.496094 43 L 45.496094 22 Z M 39.496094 24 L 43.496094 24 L 43.496094 26 L 39.496094 26 Z M 39.496094 27 L 43.496094 27 L 43.496094 29.003906 L 39.496094 29.003906 Z M 39.496094 30 L 43.496094 30 L 43.496094 32 L 39.496094 32 Z M 39.496094 33 L 43.496094 33 L 43.496094 35 L 39.496094 35 Z M 39.496094 36 L 43.496094 36 L 43.496094 38 L 39.496094 38 Z M 39.496094 39 L 43.496094 39 L 43.496094 41 L 39.496094 41 Z M 39.496094 39 "/>
</svg>
