<?xml version="1.0" encoding="UTF-8"?>
<svg xmlns="http://www.w3.org/2000/svg" xmlns:xlink="http://www.w3.org/1999/xlink" width="64" height="64" viewBox="0 0 64 64">
<defs>
<filter id="filter-remove-color" x="0%" y="0%" width="100%" height="100%">
<feColorMatrix color-interpolation-filters="sRGB" values="0 0 0 0 1 0 0 0 0 1 0 0 0 0 1 0 0 0 1 0" />
</filter>
<mask id="mask-0">
<g filter="url(#filter-remove-color)">
<rect x="-6.4" y="-6.4" width="76.8" height="76.8" fill="rgb(0%, 0%, 0%)" fill-opacity="0.15"/>
</g>
</mask>
<linearGradient id="linear-pattern-0" gradientUnits="userSpaceOnUse" x1="49.570999" y1="52.714001" x2="51.714001" y2="54.856998" gradientTransform="matrix(2.3333, 0, 0, 2.3333, -68.667, -72.000999)">
<stop offset="0" stop-color="rgb(0%, 0%, 0%)" stop-opacity="1"/>
<stop offset="1" stop-color="rgb(0%, 0%, 0%)" stop-opacity="0"/>
</linearGradient>
<clipPath id="clip-0">
<rect x="0" y="0" width="64" height="64"/>
</clipPath>
<g id="source-5525" clip-path="url(#clip-0)">
<path fill-rule="evenodd" fill="url(#linear-pattern-0)" d="M 56 46 L 42 60 L 51 60 C 53.769531 60 56 57.769531 56 55 Z M 56 46 "/>
</g>
<mask id="mask-1">
<g filter="url(#filter-remove-color)">
<rect x="-6.4" y="-6.4" width="76.8" height="76.8" fill="rgb(0%, 0%, 0%)" fill-opacity="0.75"/>
</g>
</mask>
<clipPath id="clip-1">
<rect x="0" y="0" width="64" height="64"/>
</clipPath>
<g id="source-5530" clip-path="url(#clip-1)">
<path fill-rule="nonzero" fill="rgb(100%, 100%, 100%)" fill-opacity="1" d="M 42 31 L 42 37.5 C 42 37.777344 42.222656 38 42.5 38 L 45.5 38 C 45.777344 38 46 37.777344 46 37.5 L 46 31 Z M 43 35 L 45 35 L 45 37 L 43 37 Z M 43 35 "/>
<path fill-rule="nonzero" fill="rgb(100%, 100%, 100%)" fill-opacity="1" d="M 44 4 L 44 6 L 46 6 L 46 4 Z M 44 6 L 42 6 L 42 8 L 44 8 Z M 44 8 L 44 10 L 46 10 L 46 8 Z M 44 10 L 42 10 L 42 12 L 44 12 Z M 44 12 L 44 14 L 46 14 L 46 12 Z M 44 14 L 42 14 L 42 16 L 44 16 Z M 44 16 L 44 18 L 46 18 L 46 16 Z M 44 18 L 42 18 L 42 20 L 44 20 Z M 44 20 L 44 22 L 46 22 L 46 20 Z M 44 22 L 42 22 L 42 24 L 44 24 Z M 44 24 L 44 26 L 46 26 L 46 24 Z M 44 26 L 42 26 L 42 28 L 44 28 Z M 44 28 L 44 30 L 46 30 L 46 28 Z M 44 28 "/>
</g>
<mask id="mask-2">
<g filter="url(#filter-remove-color)">
<rect x="-6.4" y="-6.4" width="76.8" height="76.8" fill="rgb(0%, 0%, 0%)" fill-opacity="0.75"/>
</g>
</mask>
<clipPath id="clip-2">
<rect x="0" y="0" width="64" height="64"/>
</clipPath>
<g id="source-5534" clip-path="url(#clip-2)">
<path fill-rule="nonzero" fill="rgb(100%, 100%, 100%)" fill-opacity="1" d="M 32.882812 44.933594 L 35.050781 42.765625 C 35.382812 42.433594 35.382812 41.917969 35.050781 41.582031 C 34.714844 41.25 34.199219 41.25 33.867188 41.582031 L 31.398438 44.050781 C 30.082031 43.382812 28.582031 43 27 43 C 25.398438 43 23.898438 43.382812 22.566406 44.050781 L 20.082031 41.582031 C 19.75 41.25 19.234375 41.25 18.898438 41.582031 C 18.566406 41.917969 18.566406 42.433594 18.898438 42.765625 L 21.082031 44.949219 C 18.617188 46.765625 17 49.683594 17 53 L 37 53 C 37 49.683594 35.382812 46.75 32.882812 44.933594 Z M 23.429688 49.429688 L 22 49.429688 L 22 48 L 23.429688 48 Z M 32 49.429688 L 30.570312 49.429688 L 30.570312 48 L 32 48 Z M 32 49.429688 "/>
</g>
</defs>
<path fill-rule="nonzero" fill="rgb(62.352941%, 85.490196%, 11.764706%)" fill-opacity="1" d="M 13 4 L 51 4 C 53.761719 4 56 6.238281 56 9 L 56 55 C 56 57.761719 53.761719 60 51 60 L 13 60 C 10.238281 60 8 57.761719 8 55 L 8 9 C 8 6.238281 10.238281 4 13 4 Z M 13 4 "/>
<g mask="url(#mask-0)">
<use xlink:href="#source-5525"/>
</g>
<g mask="url(#mask-1)">
<use xlink:href="#source-5530"/>
</g>
<g mask="url(#mask-2)">
<use xlink:href="#source-5534"/>
</g>
</svg>
