<?xml version="1.0" encoding="UTF-8"?>
<svg xmlns="http://www.w3.org/2000/svg" xmlns:xlink="http://www.w3.org/1999/xlink" width="64" height="64" viewBox="0 0 64 64">
<defs>
<filter id="filter-remove-color" x="0%" y="0%" width="100%" height="100%">
<feColorMatrix color-interpolation-filters="sRGB" values="0 0 0 0 1 0 0 0 0 1 0 0 0 0 1 0 0 0 1 0" />
</filter>
<mask id="mask-0">
<g filter="url(#filter-remove-color)">
<rect x="-6.4" y="-6.4" width="76.8" height="76.8" fill="rgb(0%, 0%, 0%)" fill-opacity="0.15"/>
</g>
</mask>
<linearGradient id="linear-pattern-0" gradientUnits="userSpaceOnUse" x1="49.570999" y1="52.714001" x2="51.714001" y2="54.856998" gradientTransform="matrix(0.617345, 0, 0, 0.617345, -18.167916, -19.050025)">
<stop offset="0" stop-color="rgb(0%, 0%, 0%)" stop-opacity="1"/>
<stop offset="1" stop-color="rgb(0%, 0%, 0%)" stop-opacity="0"/>
</linearGradient>
<clipPath id="clip-0">
<rect x="0" y="0" width="17" height="17"/>
</clipPath>
<g id="source-1192" clip-path="url(#clip-0)">
<path fill-rule="evenodd" fill="url(#linear-pattern-0)" d="M 14.816406 12.171875 L 11.113281 15.875 L 13.492188 15.875 C 14.226562 15.875 14.816406 15.285156 14.816406 14.550781 Z M 14.816406 12.171875 "/>
</g>
</defs>
<path fill-rule="nonzero" fill="rgb(20%, 45.490196%, 83.137255%)" fill-opacity="1" d="M 3.441406 1.058594 L 13.492188 1.058594 C 14.222656 1.058594 14.816406 1.652344 14.816406 2.382812 L 14.816406 14.550781 C 14.816406 15.28125 14.222656 15.875 13.492188 15.875 L 3.441406 15.875 C 2.707031 15.875 2.117188 15.28125 2.117188 14.550781 L 2.117188 2.382812 C 2.117188 1.652344 2.707031 1.058594 3.441406 1.058594 Z M 3.441406 1.058594 "/>
<g mask="url(#mask-0)">
<use xlink:href="#source-1192"/>
</g>
<path fill-rule="nonzero" fill="rgb(100%, 100%, 100%)" fill-opacity="1" d="M 8.765625 4.761719 C 7.476562 4.992188 6.183594 5.296875 4.894531 5.523438 C 4.894531 7.484375 4.894531 9.449219 4.894531 11.414062 C 6.179688 11.636719 7.460938 11.9375 8.742188 12.171875 L 9.128906 12.171875 L 9.128906 4.761719 Z M 8.265625 7.160156 L 7.671875 9.65625 L 7.183594 9.617188 C 7.074219 9.0625 6.941406 8.507812 6.84375 7.949219 C 6.742188 8.492188 6.617188 9.03125 6.503906 9.570312 C 6.339844 9.5625 6.179688 9.550781 6.015625 9.542969 C 5.875 8.800781 5.710938 8.066406 5.582031 7.324219 C 5.726562 7.316406 5.871094 7.308594 6.015625 7.304688 C 6.101562 7.839844 6.199219 8.375 6.277344 8.910156 C 6.394531 8.359375 6.515625 7.8125 6.632812 7.261719 C 6.792969 7.25 6.953125 7.246094 7.113281 7.234375 C 7.226562 7.804688 7.339844 8.371094 7.460938 8.9375 C 7.554688 8.351562 7.660156 7.769531 7.761719 7.1875 C 7.929688 7.179688 8.097656 7.171875 8.265625 7.160156 Z M 8.265625 7.160156 "/>
<path fill-rule="nonzero" fill="rgb(100%, 100%, 100%)" fill-opacity="1" d="M 9.394531 5.820312 L 12.039062 5.820312 L 12.039062 11.113281 L 9.394531 11.113281 L 9.394531 10.582031 L 11.507812 10.582031 L 11.507812 10.320312 L 9.394531 10.320312 L 9.394531 9.789062 L 11.507812 9.789062 L 11.507812 9.523438 L 9.394531 9.523438 L 9.394531 8.996094 L 11.507812 8.996094 L 11.507812 8.730469 L 9.394531 8.730469 L 9.394531 8.203125 L 11.507812 8.203125 L 11.507812 7.9375 L 9.394531 7.9375 L 9.394531 7.410156 L 11.507812 7.410156 L 11.507812 7.144531 L 9.394531 7.144531 L 9.394531 6.613281 L 11.507812 6.613281 L 11.507812 6.351562 L 9.394531 6.351562 Z M 9.394531 5.820312 "/>
</svg>
