<?xml version="1.0" encoding="UTF-8"?>
<svg xmlns="http://www.w3.org/2000/svg" xmlns:xlink="http://www.w3.org/1999/xlink" width="64" height="64" viewBox="0 0 64 64">
<defs>
<filter id="filter-remove-color" x="0%" y="0%" width="100%" height="100%">
<feColorMatrix color-interpolation-filters="sRGB" values="0 0 0 0 1 0 0 0 0 1 0 0 0 0 1 0 0 0 1 0" />
</filter>
<mask id="mask-0">
<g filter="url(#filter-remove-color)">
<rect x="-6.4" y="-6.4" width="76.8" height="76.8" fill="rgb(0%, 0%, 0%)" fill-opacity="0.1"/>
</g>
</mask>
<linearGradient id="linear-pattern-0" gradientUnits="userSpaceOnUse" x1="49.570999" y1="52.714001" x2="51.714001" y2="54.856998" gradientTransform="matrix(0.617345, 0, 0, 0.617345, -18.167916, -19.050025)">
<stop offset="0" stop-color="rgb(0%, 0%, 0%)" stop-opacity="1"/>
<stop offset="1" stop-color="rgb(0%, 0%, 0%)" stop-opacity="0"/>
</linearGradient>
<clipPath id="clip-0">
<rect x="0" y="0" width="17" height="17"/>
</clipPath>
<g id="source-2519" clip-path="url(#clip-0)">
<path fill-rule="evenodd" fill="url(#linear-pattern-0)" d="M 14.816406 12.171875 L 11.113281 15.875 L 13.492188 15.875 C 14.226562 15.875 14.816406 15.285156 14.816406 14.550781 Z M 14.816406 12.171875 "/>
</g>
</defs>
<path fill-rule="nonzero" fill="rgb(95.686275%, 95.686275%, 95.686275%)" fill-opacity="1" d="M 3.441406 1.058594 L 13.492188 1.058594 C 14.222656 1.058594 14.816406 1.652344 14.816406 2.382812 L 14.816406 14.550781 C 14.816406 15.28125 14.222656 15.875 13.492188 15.875 L 3.441406 15.875 C 2.707031 15.875 2.117188 15.28125 2.117188 14.550781 L 2.117188 2.382812 C 2.117188 1.652344 2.707031 1.058594 3.441406 1.058594 Z M 3.441406 1.058594 "/>
<g mask="url(#mask-0)">
<use xlink:href="#source-2519"/>
</g>
<path fill-rule="nonzero" fill="rgb(92.156863%, 34.117647%, 47.843137%)" fill-opacity="1" d="M 10.847656 5.292969 C 10.753906 5.289062 10.628906 5.304688 10.460938 5.332031 L 7.695312 5.753906 C 7.027344 5.894531 7.03125 5.941406 7.027344 6.503906 L 7.027344 11.082031 C 7 11.0625 6.972656 11.042969 6.945312 11.023438 C 6.734375 10.882812 6.507812 10.78125 6.203125 10.78125 C 5.824219 10.78125 5.59375 10.925781 5.457031 11.117188 C 5.320312 11.308594 5.273438 11.550781 5.273438 11.738281 C 5.273438 11.964844 5.351562 12.203125 5.519531 12.386719 C 5.6875 12.570312 5.941406 12.699219 6.3125 12.699219 C 6.730469 12.699219 7.023438 12.582031 7.1875 12.355469 C 7.316406 12.175781 7.390625 11.9375 7.417969 11.644531 L 7.417969 11.640625 C 7.417969 11.605469 7.421875 11.570312 7.425781 11.53125 C 7.429688 11.472656 7.425781 11.363281 7.425781 11.363281 L 7.425781 7.859375 C 7.425781 7.359375 7.425781 7.328125 8.09375 7.214844 L 10.0625 6.90625 C 10.730469 6.816406 10.730469 6.878906 10.730469 7.253906 L 10.730469 10.472656 C 10.703125 10.453125 10.679688 10.433594 10.648438 10.414062 C 10.4375 10.273438 10.210938 10.171875 9.90625 10.171875 C 9.527344 10.171875 9.300781 10.316406 9.164062 10.507812 C 9.027344 10.703125 8.980469 10.941406 8.980469 11.128906 C 8.980469 11.355469 9.058594 11.597656 9.222656 11.78125 C 9.390625 11.964844 9.648438 12.089844 10.015625 12.089844 C 10.433594 12.089844 10.726562 11.976562 10.894531 11.746094 C 11.023438 11.570312 11.09375 11.328125 11.121094 11.035156 C 11.125 10.996094 11.128906 10.960938 11.128906 10.921875 C 11.132812 10.863281 11.132812 10.757812 11.132812 10.757812 L 11.132812 5.878906 C 11.132812 5.441406 11.128906 5.292969 10.847656 5.292969 Z M 10.847656 5.292969 "/>
</svg>
