<?xml version="1.0" encoding="UTF-8"?>
<svg xmlns="http://www.w3.org/2000/svg" xmlns:xlink="http://www.w3.org/1999/xlink" width="64" height="64" viewBox="0 0 64 64">
<defs>
<filter id="filter-remove-color" x="0%" y="0%" width="100%" height="100%">
<feColorMatrix color-interpolation-filters="sRGB" values="0 0 0 0 1 0 0 0 0 1 0 0 0 0 1 0 0 0 1 0" />
</filter>
<mask id="mask-0">
<g filter="url(#filter-remove-color)">
<rect x="-6.4" y="-6.4" width="76.8" height="76.8" fill="rgb(0%, 0%, 0%)" fill-opacity="0.1"/>
</g>
</mask>
<linearGradient id="linear-pattern-0" gradientUnits="userSpaceOnUse" x1="49.570999" y1="52.714001" x2="51.714001" y2="54.856998" gradientTransform="matrix(0.617345, 0, 0, 0.617345, -18.167916, -19.050025)">
<stop offset="0" stop-color="rgb(0%, 0%, 0%)" stop-opacity="1"/>
<stop offset="1" stop-color="rgb(0%, 0%, 0%)" stop-opacity="0"/>
</linearGradient>
<clipPath id="clip-0">
<rect x="0" y="0" width="17" height="17"/>
</clipPath>
<g id="source-16314" clip-path="url(#clip-0)">
<path fill-rule="evenodd" fill="url(#linear-pattern-0)" d="M 14.816406 12.171875 L 11.113281 15.875 L 13.492188 15.875 C 14.226562 15.875 14.816406 15.285156 14.816406 14.550781 Z M 14.816406 12.171875 "/>
</g>
<mask id="mask-1">
<g filter="url(#filter-remove-color)">
<rect x="-6.4" y="-6.4" width="76.8" height="76.8" fill="rgb(0%, 0%, 0%)" fill-opacity="0.75"/>
</g>
</mask>
<clipPath id="clip-1">
<rect x="0" y="0" width="17" height="17"/>
</clipPath>
<g id="source-16321" clip-path="url(#clip-1)">
<path fill-rule="nonzero" fill="rgb(60%, 60%, 60%)" fill-opacity="1" d="M 9.109375 4.4375 L 7.804688 4.632812 L 7.804688 5.304688 C 8.238281 5.214844 8.679688 5.214844 9.109375 5.304688 Z M 6.441406 5.027344 L 5.449219 5.871094 L 5.9375 6.457031 C 6.210938 6.109375 6.550781 5.824219 6.9375 5.617188 Z M 10.46875 5.035156 L 9.976562 5.621094 C 10.007812 5.636719 10.035156 5.648438 10.0625 5.664062 C 10.414062 5.871094 10.726562 6.140625 10.976562 6.460938 L 11.476562 5.867188 Z M 4.714844 7.125 L 4.496094 8.410156 L 5.25 8.542969 C 5.234375 8.101562 5.3125 7.664062 5.472656 7.257812 Z M 12.191406 7.125 L 11.4375 7.257812 C 11.601562 7.667969 11.679688 8.101562 11.667969 8.542969 L 12.429688 8.410156 Z M 5.410156 9.453125 L 4.742188 9.839844 L 5.402344 10.964844 L 6.066406 10.582031 C 5.773438 10.253906 5.550781 9.867188 5.410156 9.453125 Z M 11.507812 9.453125 C 11.441406 9.664062 11.351562 9.863281 11.242188 10.054688 C 11.132812 10.246094 11.003906 10.421875 10.859375 10.585938 L 11.523438 10.96875 L 12.167969 9.835938 Z M 6.773438 11.175781 L 6.507812 11.902344 L 7.734375 12.339844 L 7.996094 11.625 C 7.59375 11.566406 7.207031 11.429688 6.855469 11.226562 C 6.828125 11.210938 6.800781 11.191406 6.773438 11.175781 Z M 10.148438 11.183594 C 9.773438 11.414062 9.359375 11.5625 8.921875 11.625 L 9.183594 12.347656 L 10.410156 11.894531 Z M 10.148438 11.183594 "/>
<path fill="none" stroke-width="0.53382" stroke-linecap="square" stroke-linejoin="round" stroke="rgb(60%, 60%, 60%)" stroke-opacity="1" stroke-miterlimit="4" d="M 342.43761 147.999264 C 342.43761 151.553768 339.553023 154.438354 335.998519 154.438354 C 332.444015 154.438354 329.559429 151.553768 329.559429 147.999264 C 329.559429 144.44476 332.444015 141.560174 335.998519 141.560174 C 339.553023 141.560174 342.43761 144.44476 342.43761 147.999264 Z M 342.43761 147.999264 " transform="matrix(0.49563, 0, 0, 0.49563, -158.070007, -64.931)"/>
<path fill="none" stroke-width="0.53382" stroke-linecap="square" stroke-linejoin="round" stroke="rgb(60%, 60%, 60%)" stroke-opacity="1" stroke-miterlimit="4" d="M 340.44362 147.999264 C 340.44362 150.450374 338.44963 152.436483 335.998519 152.436483 C 333.547409 152.436483 331.561301 150.450374 331.561301 147.999264 C 331.561301 145.548154 333.547409 143.562045 335.998519 143.562045 C 338.44963 143.562045 340.44362 145.548154 340.44362 147.999264 Z M 340.44362 147.999264 " transform="matrix(0.49563, 0, 0, 0.49563, -158.070007, -64.931)"/>
</g>
</defs>
<path fill-rule="nonzero" fill="rgb(95.686275%, 95.686275%, 95.686275%)" fill-opacity="1" d="M 3.441406 1.058594 L 13.492188 1.058594 C 14.222656 1.058594 14.816406 1.652344 14.816406 2.382812 L 14.816406 14.550781 C 14.816406 15.28125 14.222656 15.875 13.492188 15.875 L 3.441406 15.875 C 2.707031 15.875 2.117188 15.28125 2.117188 14.550781 L 2.117188 2.382812 C 2.117188 1.652344 2.707031 1.058594 3.441406 1.058594 Z M 3.441406 1.058594 "/>
<g mask="url(#mask-0)">
<use xlink:href="#source-16314"/>
</g>
<g mask="url(#mask-1)">
<use xlink:href="#source-16321"/>
</g>
</svg>
