<?xml version="1.0" encoding="UTF-8"?>
<svg xmlns="http://www.w3.org/2000/svg" xmlns:xlink="http://www.w3.org/1999/xlink" width="64" height="64" viewBox="0 0 64 64">
<defs>
<filter id="filter-remove-color" x="0%" y="0%" width="100%" height="100%">
<feColorMatrix color-interpolation-filters="sRGB" values="0 0 0 0 1 0 0 0 0 1 0 0 0 0 1 0 0 0 1 0" />
</filter>
<mask id="mask-0">
<g filter="url(#filter-remove-color)">
<rect x="-6.4" y="-6.4" width="76.8" height="76.8" fill="rgb(0%, 0%, 0%)" fill-opacity="0.1"/>
</g>
</mask>
<linearGradient id="linear-pattern-0" gradientUnits="userSpaceOnUse" x1="49.570999" y1="52.714001" x2="51.714001" y2="54.856998" gradientTransform="matrix(0.617345, 0, 0, 0.617345, -18.167916, -19.050025)">
<stop offset="0" stop-color="rgb(0%, 0%, 0%)" stop-opacity="1"/>
<stop offset="1" stop-color="rgb(0%, 0%, 0%)" stop-opacity="0"/>
</linearGradient>
<clipPath id="clip-0">
<rect x="0" y="0" width="17" height="17"/>
</clipPath>
<g id="source-3407" clip-path="url(#clip-0)">
<path fill-rule="evenodd" fill="url(#linear-pattern-0)" d="M 14.816406 12.171875 L 11.113281 15.875 L 13.492188 15.875 C 14.226562 15.875 14.816406 15.285156 14.816406 14.550781 Z M 14.816406 12.171875 "/>
</g>
</defs>
<path fill-rule="nonzero" fill="rgb(95.686275%, 95.686275%, 95.686275%)" fill-opacity="1" d="M 3.441406 1.058594 L 13.492188 1.058594 C 14.222656 1.058594 14.816406 1.652344 14.816406 2.382812 L 14.816406 14.550781 C 14.816406 15.28125 14.222656 15.875 13.492188 15.875 L 3.441406 15.875 C 2.707031 15.875 2.117188 15.28125 2.117188 14.550781 L 2.117188 2.382812 C 2.117188 1.652344 2.707031 1.058594 3.441406 1.058594 Z M 3.441406 1.058594 "/>
<g mask="url(#mask-0)">
<use xlink:href="#source-3407"/>
</g>
<path fill-rule="nonzero" fill="rgb(63.529412%, 66.666667%, 72.54902%)" fill-opacity="1" d="M 4.894531 10.054688 L 5.425781 10.054688 C 5.496094 10.054688 5.554688 10.113281 5.554688 10.1875 L 5.554688 10.714844 C 5.554688 10.75 5.542969 10.785156 5.515625 10.808594 C 5.492188 10.835938 5.457031 10.847656 5.421875 10.847656 L 4.894531 10.847656 C 4.820312 10.847656 4.761719 10.789062 4.761719 10.714844 L 4.761719 10.1875 C 4.761719 10.113281 4.820312 10.054688 4.894531 10.054688 Z M 6.195312 10.054688 C 6.136719 10.058594 6.085938 10.105469 6.085938 10.15625 L 6.085938 10.746094 C 6.085938 10.800781 6.144531 10.847656 6.207031 10.847656 L 10.726562 10.847656 C 10.789062 10.847656 10.847656 10.800781 10.847656 10.746094 L 10.847656 10.15625 C 10.847656 10.101562 10.789062 10.054688 10.726562 10.054688 Z M 6.195312 10.054688 "/>
<path fill-rule="nonzero" fill="rgb(67.058824%, 83.529412%, 41.960784%)" fill-opacity="1" d="M 5.421875 11.640625 L 5.953125 11.640625 C 6.027344 11.640625 6.085938 11.699219 6.085938 11.773438 L 6.085938 12.304688 C 6.085938 12.339844 6.070312 12.371094 6.046875 12.398438 C 6.019531 12.421875 5.988281 12.433594 5.953125 12.433594 L 5.421875 12.433594 C 5.351562 12.433594 5.292969 12.375 5.292969 12.304688 L 5.292969 11.773438 C 5.292969 11.699219 5.351562 11.640625 5.421875 11.640625 Z M 6.726562 11.640625 C 6.664062 11.644531 6.613281 11.691406 6.613281 11.742188 L 6.613281 12.332031 C 6.613281 12.386719 6.671875 12.4375 6.738281 12.433594 L 11.253906 12.433594 C 11.320312 12.433594 11.378906 12.386719 11.375 12.335938 L 11.375 11.742188 C 11.375 11.691406 11.320312 11.640625 11.253906 11.640625 Z M 6.726562 11.640625 "/>
<path fill-rule="nonzero" fill="rgb(63.529412%, 66.666667%, 72.54902%)" fill-opacity="1" d="M 4.894531 13.230469 L 5.425781 13.230469 C 5.496094 13.230469 5.554688 13.289062 5.554688 13.359375 L 5.554688 13.890625 C 5.554688 13.925781 5.542969 13.960938 5.515625 13.984375 C 5.492188 14.007812 5.457031 14.023438 5.421875 14.023438 L 4.894531 14.023438 C 4.820312 14.023438 4.761719 13.964844 4.761719 13.890625 L 4.761719 13.359375 C 4.761719 13.289062 4.820312 13.230469 4.894531 13.230469 Z M 6.195312 13.230469 C 6.136719 13.234375 6.085938 13.28125 6.085938 13.332031 L 6.085938 13.921875 C 6.085938 13.976562 6.144531 14.023438 6.207031 14.023438 L 10.726562 14.023438 C 10.789062 14.023438 10.847656 13.976562 10.847656 13.921875 L 10.847656 13.332031 C 10.847656 13.277344 10.789062 13.230469 10.726562 13.230469 Z M 4.894531 3.703125 L 5.425781 3.703125 C 5.496094 3.703125 5.554688 3.761719 5.554688 3.835938 L 5.554688 4.367188 C 5.554688 4.402344 5.542969 4.433594 5.515625 4.460938 C 5.492188 4.484375 5.457031 4.5 5.421875 4.5 L 4.894531 4.5 C 4.820312 4.5 4.761719 4.4375 4.761719 4.367188 L 4.761719 3.835938 C 4.761719 3.761719 4.820312 3.703125 4.894531 3.703125 Z M 6.195312 3.703125 C 6.136719 3.707031 6.085938 3.753906 6.085938 3.804688 L 6.085938 4.394531 C 6.085938 4.449219 6.144531 4.5 6.207031 4.5 L 10.726562 4.5 C 10.789062 4.5 10.847656 4.449219 10.847656 4.394531 L 10.847656 3.804688 C 10.847656 3.753906 10.789062 3.703125 10.726562 3.703125 Z M 6.195312 3.703125 "/>
<path fill-rule="nonzero" fill="rgb(67.058824%, 83.529412%, 41.960784%)" fill-opacity="1" d="M 5.421875 5.292969 L 5.953125 5.292969 C 6.027344 5.292969 6.085938 5.351562 6.085938 5.425781 L 6.085938 5.953125 C 6.085938 5.988281 6.070312 6.023438 6.046875 6.046875 C 6.019531 6.070312 5.988281 6.085938 5.953125 6.085938 L 5.421875 6.085938 C 5.351562 6.085938 5.292969 6.027344 5.292969 5.953125 L 5.292969 5.421875 C 5.292969 5.351562 5.351562 5.292969 5.421875 5.292969 Z M 6.726562 5.292969 C 6.664062 5.296875 6.613281 5.34375 6.613281 5.394531 L 6.613281 5.984375 C 6.613281 6.035156 6.671875 6.085938 6.738281 6.085938 L 11.253906 6.085938 C 11.320312 6.085938 11.378906 6.035156 11.375 5.984375 L 11.375 5.394531 C 11.375 5.339844 11.320312 5.292969 11.253906 5.292969 Z M 5.421875 8.46875 L 5.953125 8.46875 C 6.027344 8.46875 6.085938 8.527344 6.085938 8.597656 L 6.085938 9.128906 C 6.085938 9.164062 6.070312 9.195312 6.046875 9.222656 C 6.019531 9.246094 5.988281 9.261719 5.953125 9.261719 L 5.421875 9.261719 C 5.351562 9.261719 5.292969 9.199219 5.292969 9.128906 L 5.292969 8.597656 C 5.292969 8.527344 5.351562 8.46875 5.421875 8.46875 Z M 6.726562 8.46875 C 6.664062 8.472656 6.613281 8.515625 6.613281 8.566406 L 6.613281 9.15625 C 6.613281 9.210938 6.671875 9.261719 6.738281 9.261719 L 11.253906 9.261719 C 11.320312 9.261719 11.378906 9.210938 11.375 9.160156 L 11.375 8.570312 C 11.375 8.515625 11.320312 8.464844 11.253906 8.46875 Z M 6.726562 8.46875 "/>
<path fill-rule="nonzero" fill="rgb(93.72549%, 70.588235%, 34.509804%)" fill-opacity="1" d="M 5.953125 6.878906 L 6.480469 6.878906 C 6.554688 6.878906 6.613281 6.9375 6.613281 7.011719 L 6.613281 7.542969 C 6.613281 7.613281 6.554688 7.671875 6.480469 7.671875 L 5.953125 7.671875 C 5.878906 7.671875 5.820312 7.613281 5.820312 7.542969 L 5.820312 7.011719 C 5.820312 6.9375 5.878906 6.878906 5.953125 6.878906 Z M 7.253906 6.878906 C 7.195312 6.882812 7.140625 6.929688 7.144531 6.980469 L 7.144531 7.570312 C 7.144531 7.625 7.203125 7.671875 7.265625 7.671875 L 11.785156 7.671875 C 11.847656 7.671875 11.90625 7.625 11.90625 7.570312 L 11.90625 6.980469 C 11.90625 6.925781 11.847656 6.878906 11.785156 6.878906 Z M 7.253906 6.878906 "/>
</svg>
