<?xml version="1.0" encoding="UTF-8"?>
<svg xmlns="http://www.w3.org/2000/svg" xmlns:xlink="http://www.w3.org/1999/xlink" width="64" height="64" viewBox="0 0 64 64">
<defs>
<filter id="filter-remove-color" x="0%" y="0%" width="100%" height="100%">
<feColorMatrix color-interpolation-filters="sRGB" values="0 0 0 0 1 0 0 0 0 1 0 0 0 0 1 0 0 0 1 0" />
</filter>
<mask id="mask-0">
<g filter="url(#filter-remove-color)">
<rect x="-6.4" y="-6.4" width="76.8" height="76.8" fill="rgb(0%, 0%, 0%)" fill-opacity="0.15"/>
</g>
</mask>
<linearGradient id="linear-pattern-0" gradientUnits="userSpaceOnUse" x1="49.570999" y1="52.714001" x2="51.714001" y2="54.856998" gradientTransform="matrix(0, 0.617345, 0.617345, 0, -19.050085, -18.167976)">
<stop offset="0" stop-color="rgb(0%, 0%, 0%)" stop-opacity="1"/>
<stop offset="1" stop-color="rgb(0%, 0%, 0%)" stop-opacity="0"/>
</linearGradient>
<clipPath id="clip-0">
<rect x="0" y="0" width="17" height="17"/>
</clipPath>
<g id="source-6617" clip-path="url(#clip-0)">
<path fill-rule="evenodd" fill="url(#linear-pattern-0)" d="M 12.171875 14.816406 L 15.875 11.113281 L 15.875 13.492188 C 15.875 14.226562 15.285156 14.816406 14.550781 14.816406 Z M 12.171875 14.816406 "/>
</g>
<mask id="mask-1">
<g filter="url(#filter-remove-color)">
<rect x="-6.4" y="-6.4" width="76.8" height="76.8" fill="rgb(0%, 0%, 0%)" fill-opacity="0.25"/>
</g>
</mask>
<clipPath id="clip-1">
<rect x="0" y="0" width="17" height="17"/>
</clipPath>
<g id="source-6621" clip-path="url(#clip-1)">
<path fill-rule="nonzero" fill="rgb(100%, 100%, 100%)" fill-opacity="1" d="M 9.855469 8.203125 L 8.796875 9.832031 L 10.320312 12.171875 L 12.433594 12.171875 Z M 9.855469 8.203125 "/>
</g>
<mask id="mask-2">
<g filter="url(#filter-remove-color)">
<rect x="-6.4" y="-6.4" width="76.8" height="76.8" fill="rgb(0%, 0%, 0%)" fill-opacity="0.65"/>
</g>
</mask>
<clipPath id="clip-2">
<rect x="0" y="0" width="17" height="17"/>
</clipPath>
<g id="source-6625" clip-path="url(#clip-2)">
<path fill-rule="nonzero" fill="rgb(100%, 100%, 100%)" fill-opacity="1" d="M 6.878906 6.878906 L 3.441406 12.171875 L 10.320312 12.171875 Z M 6.878906 6.878906 "/>
</g>
<mask id="mask-3">
<g filter="url(#filter-remove-color)">
<rect x="-6.4" y="-6.4" width="76.8" height="76.8" fill="rgb(0%, 0%, 0%)" fill-opacity="0.65"/>
</g>
</mask>
<clipPath id="clip-3">
<rect x="0" y="0" width="17" height="17"/>
</clipPath>
<g id="source-6629" clip-path="url(#clip-3)">
<path fill-rule="nonzero" fill="rgb(100%, 100%, 100%)" fill-opacity="1" d="M 11.378906 4.761719 C 10.644531 4.761719 10.054688 5.355469 10.054688 6.085938 C 10.054688 6.816406 10.644531 7.40625 11.378906 7.40625 C 12.109375 7.40625 12.699219 6.816406 12.699219 6.085938 C 12.699219 5.355469 12.109375 4.761719 11.378906 4.761719 Z M 11.378906 4.761719 "/>
</g>
</defs>
<path fill-rule="nonzero" fill="rgb(49.803922%, 49.803922%, 100%)" fill-opacity="1" d="M 1.058594 3.441406 L 1.058594 13.492188 C 1.058594 14.222656 1.652344 14.816406 2.382812 14.816406 L 14.550781 14.816406 C 15.28125 14.816406 15.875 14.222656 15.875 13.492188 L 15.875 3.441406 C 15.875 2.707031 15.28125 2.117188 14.550781 2.117188 L 2.382812 2.117188 C 1.652344 2.117188 1.058594 2.707031 1.058594 3.441406 Z M 1.058594 3.441406 "/>
<g mask="url(#mask-0)">
<use xlink:href="#source-6617"/>
</g>
<g mask="url(#mask-1)">
<use xlink:href="#source-6621"/>
</g>
<g mask="url(#mask-2)">
<use xlink:href="#source-6625"/>
</g>
<g mask="url(#mask-3)">
<use xlink:href="#source-6629"/>
</g>
</svg>
