<?xml version="1.0" encoding="UTF-8"?>
<svg xmlns="http://www.w3.org/2000/svg" xmlns:xlink="http://www.w3.org/1999/xlink" width="64" height="64" viewBox="0 0 64 64">
<path fill-rule="evenodd" fill="rgb(97.647059%, 97.647059%, 97.647059%)" fill-opacity="1" d="M 3.441406 1.058594 C 2.707031 1.058594 2.117188 1.648438 2.117188 2.382812 L 2.117188 14.550781 C 2.117188 15.285156 2.707031 15.875 3.441406 15.875 L 13.492188 15.875 C 14.226562 15.875 14.816406 15.285156 14.816406 14.550781 L 14.816406 4.234375 L 11.640625 1.058594 Z M 3.441406 1.058594 "/>
<path fill-rule="nonzero" fill="rgb(15.294118%, 55.294118%, 7.843137%)" fill-opacity="1" d="M 3.441406 1.058594 C 2.707031 1.058594 2.117188 1.648438 2.117188 2.382812 L 2.117188 14.550781 C 2.117188 15.285156 2.707031 15.875 3.441406 15.875 L 13.492188 15.875 C 14.226562 15.875 14.816406 15.285156 14.816406 14.550781 L 14.816406 4.234375 L 11.640625 1.058594 Z M 3.441406 1.585938 L 11.421875 1.585938 L 14.289062 4.453125 L 14.289062 14.550781 C 14.289062 15 13.941406 15.34375 13.492188 15.34375 L 3.441406 15.34375 C 2.992188 15.34375 2.644531 15 2.644531 14.550781 L 2.644531 2.378906 C 2.644531 1.929688 2.992188 1.585938 3.441406 1.585938 Z M 3.441406 1.585938 "/>
<path fill-rule="evenodd" fill="rgb(15.294118%, 55.294118%, 7.843137%)" fill-opacity="1" d="M 12.171875 1.058594 L 14.816406 3.703125 L 14.816406 2.382812 C 14.816406 1.648438 14.226562 1.058594 13.492188 1.058594 Z M 12.171875 1.058594 "/>
<path fill-rule="nonzero" fill="rgb(9.019608%, 60%, 1.176471%)" fill-opacity="1" d="M 4.761719 5.820312 L 4.761719 12.433594 L 12.433594 12.433594 L 12.433594 5.820312 Z M 4.761719 5.820312 "/>
<path fill-rule="nonzero" fill="rgb(69.803922%, 90.980392%, 67.45098%)" fill-opacity="1" d="M 5.027344 6.085938 L 6.613281 6.085938 L 6.613281 6.878906 L 5.027344 6.878906 Z M 5.027344 6.085938 "/>
<path fill-rule="nonzero" fill="rgb(69.803922%, 90.980392%, 67.45098%)" fill-opacity="1" d="M 6.878906 6.085938 L 8.464844 6.085938 L 8.464844 6.878906 L 6.878906 6.878906 Z M 6.878906 6.085938 "/>
<path fill-rule="nonzero" fill="rgb(69.803922%, 90.980392%, 67.45098%)" fill-opacity="1" d="M 8.730469 6.085938 L 10.320312 6.085938 L 10.320312 6.878906 L 8.730469 6.878906 Z M 8.730469 6.085938 "/>
<path fill-rule="nonzero" fill="rgb(69.803922%, 90.980392%, 67.45098%)" fill-opacity="1" d="M 10.582031 6.085938 L 12.171875 6.085938 L 12.171875 6.878906 L 10.582031 6.878906 Z M 10.582031 6.085938 "/>
<path fill-rule="nonzero" fill="rgb(69.803922%, 90.980392%, 67.45098%)" fill-opacity="1" d="M 5.027344 7.144531 L 6.613281 7.144531 L 6.613281 7.9375 L 5.027344 7.9375 Z M 5.027344 7.144531 "/>
<path fill-rule="nonzero" fill="rgb(69.803922%, 90.980392%, 67.45098%)" fill-opacity="1" d="M 6.878906 7.144531 L 8.464844 7.144531 L 8.464844 7.9375 L 6.878906 7.9375 Z M 6.878906 7.144531 "/>
<path fill-rule="nonzero" fill="rgb(69.803922%, 90.980392%, 67.45098%)" fill-opacity="1" d="M 8.730469 7.144531 L 10.320312 7.144531 L 10.320312 7.9375 L 8.730469 7.9375 Z M 8.730469 7.144531 "/>
<path fill-rule="nonzero" fill="rgb(69.803922%, 90.980392%, 67.45098%)" fill-opacity="1" d="M 10.582031 7.144531 L 12.171875 7.144531 L 12.171875 7.9375 L 10.582031 7.9375 Z M 10.582031 7.144531 "/>
<path fill-rule="nonzero" fill="rgb(69.803922%, 90.980392%, 67.45098%)" fill-opacity="1" d="M 5.027344 8.203125 L 6.613281 8.203125 L 6.613281 8.996094 L 5.027344 8.996094 Z M 5.027344 8.203125 "/>
<path fill-rule="nonzero" fill="rgb(69.803922%, 90.980392%, 67.45098%)" fill-opacity="1" d="M 6.878906 8.203125 L 8.464844 8.203125 L 8.464844 8.996094 L 6.878906 8.996094 Z M 6.878906 8.203125 "/>
<path fill-rule="nonzero" fill="rgb(69.803922%, 90.980392%, 67.45098%)" fill-opacity="1" d="M 8.730469 8.203125 L 10.320312 8.203125 L 10.320312 8.996094 L 8.730469 8.996094 Z M 8.730469 8.203125 "/>
<path fill-rule="nonzero" fill="rgb(69.803922%, 90.980392%, 67.45098%)" fill-opacity="1" d="M 10.582031 8.203125 L 12.171875 8.203125 L 12.171875 8.996094 L 10.582031 8.996094 Z M 10.582031 8.203125 "/>
<path fill-rule="nonzero" fill="rgb(69.803922%, 90.980392%, 67.45098%)" fill-opacity="1" d="M 5.027344 9.261719 L 6.613281 9.261719 L 6.613281 10.054688 L 5.027344 10.054688 Z M 5.027344 9.261719 "/>
<path fill-rule="nonzero" fill="rgb(69.803922%, 90.980392%, 67.45098%)" fill-opacity="1" d="M 6.878906 9.261719 L 8.464844 9.261719 L 8.464844 10.054688 L 6.878906 10.054688 Z M 6.878906 9.261719 "/>
<path fill-rule="nonzero" fill="rgb(69.803922%, 90.980392%, 67.45098%)" fill-opacity="1" d="M 8.730469 9.261719 L 10.320312 9.261719 L 10.320312 10.054688 L 8.730469 10.054688 Z M 8.730469 9.261719 "/>
<path fill-rule="nonzero" fill="rgb(69.803922%, 90.980392%, 67.45098%)" fill-opacity="1" d="M 10.582031 9.261719 L 12.171875 9.261719 L 12.171875 10.054688 L 10.582031 10.054688 Z M 10.582031 9.261719 "/>
<path fill-rule="nonzero" fill="rgb(69.803922%, 90.980392%, 67.45098%)" fill-opacity="1" d="M 5.027344 10.320312 L 6.613281 10.320312 L 6.613281 11.113281 L 5.027344 11.113281 Z M 5.027344 10.320312 "/>
<path fill-rule="nonzero" fill="rgb(69.803922%, 90.980392%, 67.45098%)" fill-opacity="1" d="M 6.878906 10.320312 L 8.464844 10.320312 L 8.464844 11.113281 L 6.878906 11.113281 Z M 6.878906 10.320312 "/>
<path fill-rule="nonzero" fill="rgb(69.803922%, 90.980392%, 67.45098%)" fill-opacity="1" d="M 8.730469 10.320312 L 10.320312 10.320312 L 10.320312 11.113281 L 8.730469 11.113281 Z M 8.730469 10.320312 "/>
<path fill-rule="nonzero" fill="rgb(69.803922%, 90.980392%, 67.45098%)" fill-opacity="1" d="M 10.582031 10.320312 L 12.171875 10.320312 L 12.171875 11.113281 L 10.582031 11.113281 Z M 10.582031 10.320312 "/>
<path fill-rule="nonzero" fill="rgb(69.803922%, 90.980392%, 67.45098%)" fill-opacity="1" d="M 5.027344 11.378906 L 6.613281 11.378906 L 6.613281 12.171875 L 5.027344 12.171875 Z M 5.027344 11.378906 "/>
<path fill-rule="nonzero" fill="rgb(69.803922%, 90.980392%, 67.45098%)" fill-opacity="1" d="M 6.878906 11.378906 L 8.464844 11.378906 L 8.464844 12.171875 L 6.878906 12.171875 Z M 6.878906 11.378906 "/>
<path fill-rule="nonzero" fill="rgb(69.803922%, 90.980392%, 67.45098%)" fill-opacity="1" d="M 8.730469 11.378906 L 10.320312 11.378906 L 10.320312 12.171875 L 8.730469 12.171875 Z M 8.730469 11.378906 "/>
<path fill-rule="nonzero" fill="rgb(69.803922%, 90.980392%, 67.45098%)" fill-opacity="1" d="M 10.582031 11.378906 L 12.171875 11.378906 L 12.171875 12.171875 L 10.582031 12.171875 Z M 10.582031 11.378906 "/>
</svg>
