<?xml version="1.0" encoding="UTF-8"?>
<svg xmlns="http://www.w3.org/2000/svg" xmlns:xlink="http://www.w3.org/1999/xlink" width="64" height="64" viewBox="0 0 64 64">
<defs>
<filter id="filter-remove-color" x="0%" y="0%" width="100%" height="100%">
<feColorMatrix color-interpolation-filters="sRGB" values="0 0 0 0 1 0 0 0 0 1 0 0 0 0 1 0 0 0 1 0" />
</filter>
<clipPath id="clip-0">
<path clip-rule="nonzero" d="M 8 8 L 13 8 L 13 13 L 8 13 Z M 8 8 "/>
</clipPath>
<clipPath id="clip-1">
<path clip-rule="nonzero" d="M 12.703125 10.324219 C 12.703125 11.640625 11.636719 12.707031 10.324219 12.707031 C 9.007812 12.707031 7.941406 11.640625 7.941406 10.324219 C 7.941406 9.007812 9.007812 7.941406 10.324219 7.941406 C 11.636719 7.941406 12.703125 9.007812 12.703125 10.324219 Z M 12.703125 10.324219 "/>
</clipPath>
<clipPath id="clip-2">
<path clip-rule="nonzero" d="M 8 9 L 12 9 L 12 13 L 8 13 Z M 8 9 "/>
</clipPath>
<clipPath id="clip-3">
<path clip-rule="nonzero" d="M 12.582031 10.300781 C 12.582031 11.550781 11.570312 12.5625 10.320312 12.5625 C 9.070312 12.5625 8.054688 11.550781 8.054688 10.300781 C 8.054688 9.054688 9.070312 8.039062 10.320312 8.039062 C 11.570312 8.039062 12.582031 9.054688 12.582031 10.300781 Z M 12.582031 10.300781 "/>
</clipPath>
<clipPath id="clip-4">
<path clip-rule="nonzero" d="M 8 8 L 12 8 L 12 13 L 8 13 Z M 8 8 "/>
</clipPath>
<clipPath id="clip-5">
<path clip-rule="nonzero" d="M 12.613281 10.324219 C 12.613281 11.589844 11.585938 12.613281 10.320312 12.613281 C 9.058594 12.613281 8.03125 11.589844 8.03125 10.324219 C 8.03125 9.058594 9.058594 8.035156 10.320312 8.035156 C 11.585938 8.035156 12.613281 9.058594 12.613281 10.324219 Z M 12.613281 10.324219 "/>
</clipPath>
<clipPath id="clip-6">
<path clip-rule="nonzero" d="M 8 8 L 13 8 L 13 12 L 8 12 Z M 8 8 "/>
</clipPath>
<clipPath id="clip-7">
<path clip-rule="nonzero" d="M 12.652344 10.203125 C 12.652344 11.46875 11.625 12.492188 10.363281 12.492188 C 9.097656 12.492188 8.074219 11.46875 8.074219 10.203125 C 8.074219 8.941406 9.097656 7.914062 10.363281 7.914062 C 11.625 7.914062 12.652344 8.941406 12.652344 10.203125 Z M 12.652344 10.203125 "/>
</clipPath>
<clipPath id="clip-8">
<path clip-rule="nonzero" d="M 9 8 L 13 8 L 13 13 L 9 13 Z M 9 8 "/>
</clipPath>
<clipPath id="clip-9">
<path clip-rule="nonzero" d="M 12.613281 10.324219 C 12.613281 11.589844 11.585938 12.613281 10.320312 12.613281 C 9.058594 12.613281 8.03125 11.589844 8.03125 10.324219 C 8.03125 9.058594 9.058594 8.035156 10.320312 8.035156 C 11.585938 8.035156 12.613281 9.058594 12.613281 10.324219 Z M 12.613281 10.324219 "/>
</clipPath>
<clipPath id="clip-10">
<path clip-rule="nonzero" d="M 8 8 L 13 8 L 13 13 L 8 13 Z M 8 8 "/>
</clipPath>
<clipPath id="clip-11">
<path clip-rule="nonzero" d="M 12.613281 10.324219 C 12.613281 11.589844 11.585938 12.613281 10.320312 12.613281 C 9.058594 12.613281 8.03125 11.589844 8.03125 10.324219 C 8.03125 9.058594 9.058594 8.035156 10.320312 8.035156 C 11.585938 8.035156 12.613281 9.058594 12.613281 10.324219 Z M 12.613281 10.324219 "/>
</clipPath>
<clipPath id="clip-12">
<path clip-rule="nonzero" d="M 8 10 L 13 10 L 13 13 L 8 13 Z M 8 10 "/>
</clipPath>
<clipPath id="clip-13">
<path clip-rule="nonzero" d="M 12.613281 10.324219 C 12.613281 11.589844 11.585938 12.613281 10.320312 12.613281 C 9.058594 12.613281 8.03125 11.589844 8.03125 10.324219 C 8.03125 9.058594 9.058594 8.035156 10.320312 8.035156 C 11.585938 8.035156 12.613281 9.058594 12.613281 10.324219 Z M 12.613281 10.324219 "/>
</clipPath>
<clipPath id="clip-14">
<path clip-rule="nonzero" d="M 8 9 L 13 9 L 13 13 L 8 13 Z M 8 9 "/>
</clipPath>
<clipPath id="clip-15">
<path clip-rule="nonzero" d="M 12.613281 10.324219 C 12.613281 11.589844 11.585938 12.613281 10.320312 12.613281 C 9.058594 12.613281 8.03125 11.589844 8.03125 10.324219 C 8.03125 9.058594 9.058594 8.035156 10.320312 8.035156 C 11.585938 8.035156 12.613281 9.058594 12.613281 10.324219 Z M 12.613281 10.324219 "/>
</clipPath>
<clipPath id="clip-16">
<path clip-rule="nonzero" d="M 8 8 L 13 8 L 13 13 L 8 13 Z M 8 8 "/>
</clipPath>
<clipPath id="clip-17">
<path clip-rule="nonzero" d="M 12.613281 10.324219 C 12.613281 11.589844 11.585938 12.613281 10.320312 12.613281 C 9.058594 12.613281 8.03125 11.589844 8.03125 10.324219 C 8.03125 9.058594 9.058594 8.035156 10.320312 8.035156 C 11.585938 8.035156 12.613281 9.058594 12.613281 10.324219 Z M 12.613281 10.324219 "/>
</clipPath>
<mask id="mask-0">
<g filter="url(#filter-remove-color)">
<rect x="-6.4" y="-6.4" width="76.8" height="76.8" fill="rgb(0%, 0%, 0%)" fill-opacity="0.75"/>
</g>
</mask>
<clipPath id="clip-18">
<rect x="0" y="0" width="17" height="17"/>
</clipPath>
<g id="source-5351" clip-path="url(#clip-18)">
<path fill-rule="nonzero" fill="rgb(100%, 100%, 100%)" fill-opacity="1" d="M 4.234375 5.820312 L 4.234375 5.953125 L 12.699219 5.953125 L 12.699219 5.820312 Z M 4.234375 6.878906 L 4.234375 7.011719 L 12.699219 7.011719 L 12.699219 6.878906 Z M 10.320312 7.671875 C 9.90625 7.671875 9.519531 7.769531 9.171875 7.9375 L 4.234375 7.9375 L 4.234375 8.070312 L 9.171875 8.070312 C 9.519531 7.902344 9.90625 7.804688 10.320312 7.804688 C 10.730469 7.804688 11.121094 7.902344 11.46875 8.070312 L 12.699219 8.070312 L 12.699219 7.9375 L 11.46875 7.9375 C 11.121094 7.769531 10.730469 7.671875 10.320312 7.671875 Z M 12.285156 8.597656 C 12.441406 8.757812 12.527344 8.933594 12.527344 9.128906 L 12.699219 9.128906 L 12.699219 8.996094 L 12.609375 8.996094 C 12.527344 8.855469 12.433594 8.722656 12.328125 8.597656 Z M 8.214844 8.722656 C 8.148438 8.808594 8.085938 8.898438 8.027344 8.996094 L 4.234375 8.996094 L 4.234375 9.128906 L 8.113281 9.128906 C 8.113281 8.984375 8.167969 8.847656 8.214844 8.722656 Z M 7.691406 10.023438 C 7.6875 10.035156 7.6875 10.042969 7.6875 10.054688 L 4.234375 10.054688 L 4.234375 10.1875 L 7.6875 10.1875 C 7.691406 10.132812 7.691406 10.078125 7.691406 10.023438 Z M 4.234375 11.113281 L 4.234375 11.246094 L 7.796875 11.246094 C 7.785156 11.199219 7.773438 11.15625 7.761719 11.113281 Z M 4.234375 12.171875 L 4.234375 12.300781 L 8.429688 12.300781 C 8.355469 12.226562 8.339844 12.199219 8.328125 12.171875 Z M 4.234375 12.171875 "/>
</g>
</defs>
<path fill-rule="evenodd" fill="rgb(97.647059%, 97.647059%, 97.647059%)" fill-opacity="1" d="M 3.441406 1.058594 C 2.707031 1.058594 2.117188 1.648438 2.117188 2.382812 L 2.117188 14.550781 C 2.117188 15.285156 2.707031 15.875 3.441406 15.875 L 13.492188 15.875 C 14.226562 15.875 14.816406 15.285156 14.816406 14.550781 L 14.816406 4.234375 L 11.640625 1.058594 Z M 3.441406 1.058594 "/>
<path fill-rule="nonzero" fill="rgb(32.54902%, 32.54902%, 32.54902%)" fill-opacity="1" d="M 3.441406 1.058594 C 2.707031 1.058594 2.117188 1.648438 2.117188 2.382812 L 2.117188 14.550781 C 2.117188 15.285156 2.707031 15.875 3.441406 15.875 L 13.492188 15.875 C 14.226562 15.875 14.816406 15.285156 14.816406 14.550781 L 14.816406 4.234375 L 11.640625 1.058594 Z M 3.441406 1.585938 L 11.421875 1.585938 L 14.289062 4.453125 L 14.289062 14.550781 C 14.289062 15 13.941406 15.34375 13.492188 15.34375 L 3.441406 15.34375 C 2.992188 15.34375 2.644531 15 2.644531 14.550781 L 2.644531 2.378906 C 2.644531 1.929688 2.992188 1.585938 3.441406 1.585938 Z M 3.441406 1.585938 "/>
<path fill-rule="evenodd" fill="rgb(32.54902%, 32.54902%, 32.54902%)" fill-opacity="1" d="M 12.171875 1.058594 L 14.816406 3.703125 L 14.816406 2.382812 C 14.816406 1.648438 14.226562 1.058594 13.492188 1.058594 Z M 12.171875 1.058594 "/>
<path fill-rule="nonzero" fill="rgb(12.941176%, 60.784314%, 83.921569%)" fill-opacity="1" d="M 4.234375 5.292969 L 4.234375 5.820312 L 12.699219 5.820312 L 12.699219 5.292969 Z M 4.234375 6.351562 L 4.234375 6.878906 L 12.699219 6.878906 L 12.699219 6.351562 Z M 4.234375 7.40625 L 4.234375 7.9375 L 9.171875 7.9375 C 9.519531 7.769531 9.90625 7.671875 10.320312 7.671875 C 10.730469 7.671875 11.121094 7.769531 11.46875 7.9375 L 12.699219 7.9375 L 12.699219 7.40625 Z M 4.234375 8.464844 L 4.234375 8.996094 L 8.027344 8.996094 C 8.140625 8.804688 8.273438 8.625 8.429688 8.464844 Z M 12.207031 8.464844 C 12.363281 8.625 12.496094 8.804688 12.609375 8.996094 L 12.699219 8.996094 L 12.699219 8.464844 Z M 4.234375 9.523438 L 4.234375 10.054688 L 7.6875 10.054688 C 7.703125 9.871094 7.742188 9.695312 7.796875 9.523438 Z M 4.234375 10.582031 L 4.234375 11.113281 L 7.796875 11.113281 C 7.742188 10.941406 7.703125 10.765625 7.6875 10.582031 Z M 4.234375 11.640625 L 4.234375 12.171875 L 8.429688 12.171875 C 8.273438 12.011719 8.140625 11.835938 8.027344 11.640625 Z M 4.234375 11.640625 "/>
<g clip-path="url(#clip-0)">
<g clip-path="url(#clip-1)">
<path fill-rule="nonzero" fill="rgb(0%, 43.137255%, 67.45098%)" fill-opacity="1" d="M 12.621094 10.324219 C 12.621094 11.59375 11.589844 12.625 10.320312 12.625 C 9.046875 12.625 8.019531 11.59375 8.019531 10.324219 C 8.019531 9.050781 9.046875 8.019531 10.320312 8.019531 C 11.589844 8.019531 12.621094 9.050781 12.621094 10.324219 Z M 12.621094 10.324219 "/>
</g>
</g>
<g clip-path="url(#clip-2)">
<g clip-path="url(#clip-3)">
<path fill="none" stroke-width="0.87703" stroke-linecap="round" stroke-linejoin="miter" stroke="rgb(62.745098%, 86.27451%, 100%)" stroke-opacity="1" stroke-miterlimit="4" d="M 3066.197028 -1069.310343 C 3064.151871 -1082.056563 3052.605794 -1084.440002 3046.988084 -1082.496981 " transform="matrix(0.15089, 0, 0, 0.15078, -452.01001, 173.839996)"/>
</g>
</g>
<g clip-path="url(#clip-4)">
<g clip-path="url(#clip-5)">
<path fill="none" stroke-width="0.86661" stroke-linecap="round" stroke-linejoin="miter" stroke="rgb(62.745098%, 86.27451%, 100%)" stroke-opacity="1" stroke-miterlimit="4" d="M 3068.201346 -1099.503568 C 3052.361394 -1093.925038 3052.003139 -1078.673646 3055.790398 -1071.969175 " transform="matrix(0.15265, 0, 0, 0.15265, -457.399994, 175.889999)"/>
</g>
</g>
<g clip-path="url(#clip-6)">
<g clip-path="url(#clip-7)">
<path fill="none" stroke-width="0.86661" stroke-linecap="round" stroke-linejoin="miter" stroke="rgb(62.745098%, 86.27451%, 100%)" stroke-opacity="1" stroke-miterlimit="4" d="M 3078.507751 -1088.404885 C 3062.949284 -1098.077748 3048.235273 -1089.556416 3044.320067 -1082.59605 " transform="matrix(0.15265, 0, 0, 0.15265, -457.359985, 175.770004)"/>
</g>
</g>
<g clip-path="url(#clip-8)">
<g clip-path="url(#clip-9)">
<path fill="none" stroke-width="0.86661" stroke-linecap="round" stroke-linejoin="miter" stroke="rgb(62.745098%, 86.27451%, 100%)" stroke-opacity="1" stroke-miterlimit="4" d="M 3062.801944 -1100.092128 C 3078.232463 -1093.541195 3077.643903 -1078.289802 3073.447211 -1071.841227 " transform="matrix(0.15265, 0, 0, 0.15265, -457.399994, 175.889999)"/>
</g>
</g>
<g clip-path="url(#clip-10)">
<g clip-path="url(#clip-11)">
<path fill="none" stroke-width="0.86661" stroke-linecap="round" stroke-linejoin="miter" stroke="rgb(62.745098%, 86.27451%, 100%)" stroke-opacity="1" stroke-miterlimit="4" d="M 3072.398038 -1068.207506 C 3074.035771 -1088.448867 3059.014685 -1094.948622 3050.595712 -1093.310888 " transform="matrix(0.15265, 0, 0, 0.15265, -457.399994, 175.889999)"/>
</g>
</g>
<g clip-path="url(#clip-12)">
<g clip-path="url(#clip-13)">
<path fill="none" stroke-width="0.86661" stroke-linecap="round" stroke-linejoin="miter" stroke="rgb(62.745098%, 86.27451%, 100%)" stroke-opacity="1" stroke-miterlimit="4" d="M 3084.988113 -1076.907965 C 3069.122571 -1082.332957 3059.398529 -1070.612927 3058.195819 -1062.987231 " transform="matrix(0.15265, 0, 0, 0.15265, -457.399994, 175.889999)"/>
</g>
</g>
<g clip-path="url(#clip-14)">
<g clip-path="url(#clip-15)">
<path fill="none" stroke-width="0.86661" stroke-linecap="round" stroke-linejoin="miter" stroke="rgb(62.745098%, 86.27451%, 100%)" stroke-opacity="1" stroke-miterlimit="4" d="M 3086.190824 -1079.901946 C 3072.065373 -1088.935069 3059.833552 -1079.850767 3056.86516 -1072.736863 " transform="matrix(0.15265, 0, 0, 0.15265, -457.399994, 175.889999)"/>
</g>
</g>
<g clip-path="url(#clip-16)">
<g clip-path="url(#clip-17)">
<path fill="none" stroke-width="0.86661" stroke-linecap="round" stroke-linejoin="miter" stroke="rgb(62.745098%, 86.27451%, 100%)" stroke-opacity="1" stroke-miterlimit="4" d="M 3078.488359 -1092.210536 C 3061.727181 -1092.824686 3055.790398 -1078.776004 3056.86516 -1071.150308 " transform="matrix(0.15265, 0, 0, 0.15265, -457.399994, 175.889999)"/>
</g>
</g>
<g mask="url(#mask-0)">
<use xlink:href="#source-5351"/>
</g>
</svg>
