<?xml version="1.0" encoding="UTF-8"?>
<svg xmlns="http://www.w3.org/2000/svg" xmlns:xlink="http://www.w3.org/1999/xlink" width="64" height="64" viewBox="0 0 64 64">
<defs>
<filter id="filter-remove-color" x="0%" y="0%" width="100%" height="100%">
<feColorMatrix color-interpolation-filters="sRGB" values="0 0 0 0 1 0 0 0 0 1 0 0 0 0 1 0 0 0 1 0" />
</filter>
<mask id="mask-0">
<g filter="url(#filter-remove-color)">
<rect x="-6.4" y="-6.4" width="76.8" height="76.8" fill="rgb(0%, 0%, 0%)" fill-opacity="0.6"/>
</g>
</mask>
<clipPath id="clip-0">
<rect x="0" y="0" width="17" height="17"/>
</clipPath>
<g id="source-16963" clip-path="url(#clip-0)">
<path fill-rule="nonzero" fill="rgb(100%, 100%, 100%)" fill-opacity="1" d="M 10.589844 5.027344 L 12.707031 5.027344 L 12.707031 6.480469 L 10.589844 6.480469 Z M 10.589844 5.027344 "/>
</g>
<mask id="mask-1">
<g filter="url(#filter-remove-color)">
<rect x="-6.4" y="-6.4" width="76.8" height="76.8" fill="rgb(0%, 0%, 0%)" fill-opacity="0.5"/>
</g>
</mask>
<clipPath id="clip-1">
<rect x="0" y="0" width="17" height="17"/>
</clipPath>
<g id="source-16968" clip-path="url(#clip-1)">
<path fill-rule="nonzero" fill="rgb(100%, 100%, 100%)" fill-opacity="1" d="M 12.566406 5.679688 C 12.203125 5.679688 11.90625 5.386719 11.90625 5.019531 L 12.566406 5.019531 Z M 12.566406 5.679688 "/>
</g>
<mask id="mask-2">
<g filter="url(#filter-remove-color)">
<rect x="-6.4" y="-6.4" width="76.8" height="76.8" fill="rgb(0%, 0%, 0%)" fill-opacity="0.35"/>
</g>
</mask>
<clipPath id="clip-2">
<rect x="0" y="0" width="17" height="17"/>
</clipPath>
<g id="source-16972" clip-path="url(#clip-2)">
<path fill="none" stroke-width="0.13229" stroke-linecap="butt" stroke-linejoin="miter" stroke="rgb(100%, 100%, 100%)" stroke-opacity="1" stroke-miterlimit="4" d="M 10.789062 5.09375 L 12.507812 5.09375 L 12.507812 6.152344 L 10.789062 6.152344 Z M 10.789062 5.09375 "/>
</g>
<mask id="mask-3">
<g filter="url(#filter-remove-color)">
<rect x="-6.4" y="-6.4" width="76.8" height="76.8" fill="rgb(0%, 0%, 0%)" fill-opacity="0.5"/>
</g>
</mask>
<clipPath id="clip-3">
<rect x="0" y="0" width="17" height="17"/>
</clipPath>
<g id="source-16983" clip-path="url(#clip-3)">
<path fill-rule="nonzero" fill="rgb(100%, 100%, 100%)" fill-opacity="1" d="M 8.066406 5.679688 C 7.703125 5.679688 7.40625 5.386719 7.40625 5.019531 L 8.066406 5.019531 Z M 8.066406 5.679688 "/>
</g>
<mask id="mask-4">
<g filter="url(#filter-remove-color)">
<rect x="-6.4" y="-6.4" width="76.8" height="76.8" fill="rgb(0%, 0%, 0%)" fill-opacity="0.35"/>
</g>
</mask>
<clipPath id="clip-4">
<rect x="0" y="0" width="17" height="17"/>
</clipPath>
<g id="source-16987" clip-path="url(#clip-4)">
<path fill="none" stroke-width="0.13229" stroke-linecap="butt" stroke-linejoin="miter" stroke="rgb(100%, 100%, 100%)" stroke-opacity="1" stroke-miterlimit="4" d="M 6.289062 5.09375 L 8.007812 5.09375 L 8.007812 6.152344 L 6.289062 6.152344 Z M 6.289062 5.09375 "/>
</g>
<mask id="mask-5">
<g filter="url(#filter-remove-color)">
<rect x="-6.4" y="-6.4" width="76.8" height="76.8" fill="rgb(0%, 0%, 0%)" fill-opacity="0.6"/>
</g>
</mask>
<clipPath id="clip-5">
<rect x="0" y="0" width="17" height="17"/>
</clipPath>
<g id="source-16997" clip-path="url(#clip-5)">
<path fill-rule="nonzero" fill="rgb(100%, 100%, 100%)" fill-opacity="1" d="M 10.589844 8.996094 L 12.707031 8.996094 L 12.707031 10.449219 L 10.589844 10.449219 Z M 10.589844 8.996094 "/>
</g>
<mask id="mask-6">
<g filter="url(#filter-remove-color)">
<rect x="-6.4" y="-6.4" width="76.8" height="76.8" fill="rgb(0%, 0%, 0%)" fill-opacity="0.5"/>
</g>
</mask>
<clipPath id="clip-6">
<rect x="0" y="0" width="17" height="17"/>
</clipPath>
<g id="source-17002" clip-path="url(#clip-6)">
<path fill-rule="nonzero" fill="rgb(100%, 100%, 100%)" fill-opacity="1" d="M 12.566406 9.648438 C 12.203125 9.648438 11.90625 9.355469 11.90625 8.988281 L 12.566406 8.988281 Z M 12.566406 9.648438 "/>
</g>
<mask id="mask-7">
<g filter="url(#filter-remove-color)">
<rect x="-6.4" y="-6.4" width="76.8" height="76.8" fill="rgb(0%, 0%, 0%)" fill-opacity="0.35"/>
</g>
</mask>
<clipPath id="clip-7">
<rect x="0" y="0" width="17" height="17"/>
</clipPath>
<g id="source-17006" clip-path="url(#clip-7)">
<path fill="none" stroke-width="0.13229" stroke-linecap="butt" stroke-linejoin="miter" stroke="rgb(100%, 100%, 100%)" stroke-opacity="1" stroke-miterlimit="4" d="M 10.789062 9.0625 L 12.507812 9.0625 L 12.507812 10.121094 L 10.789062 10.121094 Z M 10.789062 9.0625 "/>
</g>
<mask id="mask-8">
<g filter="url(#filter-remove-color)">
<rect x="-6.4" y="-6.4" width="76.8" height="76.8" fill="rgb(0%, 0%, 0%)" fill-opacity="0.5"/>
</g>
</mask>
<clipPath id="clip-8">
<rect x="0" y="0" width="17" height="17"/>
</clipPath>
<g id="source-17017" clip-path="url(#clip-8)">
<path fill-rule="nonzero" fill="rgb(100%, 100%, 100%)" fill-opacity="1" d="M 8.066406 9.648438 C 7.703125 9.648438 7.40625 9.355469 7.40625 8.988281 L 8.066406 8.988281 Z M 8.066406 9.648438 "/>
</g>
<mask id="mask-9">
<g filter="url(#filter-remove-color)">
<rect x="-6.4" y="-6.4" width="76.8" height="76.8" fill="rgb(0%, 0%, 0%)" fill-opacity="0.35"/>
</g>
</mask>
<clipPath id="clip-9">
<rect x="0" y="0" width="17" height="17"/>
</clipPath>
<g id="source-17021" clip-path="url(#clip-9)">
<path fill="none" stroke-width="0.13229" stroke-linecap="butt" stroke-linejoin="miter" stroke="rgb(100%, 100%, 100%)" stroke-opacity="1" stroke-miterlimit="4" d="M 6.289062 9.0625 L 8.007812 9.0625 L 8.007812 10.121094 L 6.289062 10.121094 Z M 6.289062 9.0625 "/>
</g>
</defs>
<path fill-rule="evenodd" fill="rgb(97.647059%, 97.647059%, 97.647059%)" fill-opacity="1" d="M 3.441406 1.058594 C 2.707031 1.058594 2.117188 1.648438 2.117188 2.382812 L 2.117188 14.550781 C 2.117188 15.285156 2.707031 15.875 3.441406 15.875 L 13.492188 15.875 C 14.226562 15.875 14.816406 15.285156 14.816406 14.550781 L 14.816406 4.234375 L 11.640625 1.058594 Z M 3.441406 1.058594 "/>
<path fill-rule="nonzero" fill="rgb(35.686275%, 35.686275%, 35.686275%)" fill-opacity="1" d="M 3.441406 1.058594 C 2.707031 1.058594 2.117188 1.648438 2.117188 2.382812 L 2.117188 14.550781 C 2.117188 15.285156 2.707031 15.875 3.441406 15.875 L 13.492188 15.875 C 14.226562 15.875 14.816406 15.285156 14.816406 14.550781 L 14.816406 4.234375 L 11.640625 1.058594 Z M 3.441406 1.585938 L 11.421875 1.585938 L 14.289062 4.453125 L 14.289062 14.550781 C 14.289062 15 13.941406 15.34375 13.492188 15.34375 L 3.441406 15.34375 C 2.992188 15.34375 2.644531 15 2.644531 14.550781 L 2.644531 2.378906 C 2.644531 1.929688 2.992188 1.585938 3.441406 1.585938 Z M 3.441406 1.585938 "/>
<path fill-rule="evenodd" fill="rgb(35.686275%, 35.686275%, 35.686275%)" fill-opacity="1" d="M 12.171875 1.058594 L 14.816406 3.703125 L 14.816406 2.382812 C 14.816406 1.648438 14.226562 1.058594 13.492188 1.058594 Z M 12.171875 1.058594 "/>
<g mask="url(#mask-0)">
<use xlink:href="#source-16963"/>
</g>
<path fill-rule="nonzero" fill="rgb(10.980392%, 60%, 87.843137%)" fill-opacity="1" d="M 10.589844 4.894531 L 12.707031 4.894531 L 12.707031 6.351562 L 10.589844 6.351562 Z M 10.589844 4.894531 "/>
<g mask="url(#mask-1)">
<use xlink:href="#source-16968"/>
</g>
<g mask="url(#mask-2)">
<use xlink:href="#source-16972"/>
</g>
<path fill-rule="nonzero" fill="rgb(10.980392%, 60%, 87.843137%)" fill-opacity="1" d="M 8.738281 5.027344 L 10.324219 5.027344 L 10.324219 5.292969 L 8.738281 5.292969 Z M 8.738281 5.027344 "/>
<path fill-rule="nonzero" fill="rgb(10.980392%, 60%, 87.843137%)" fill-opacity="1" d="M 8.738281 5.554688 L 10.324219 5.554688 L 10.324219 5.820312 L 8.738281 5.820312 Z M 8.738281 5.554688 "/>
<path fill-rule="nonzero" fill="rgb(10.980392%, 60%, 87.843137%)" fill-opacity="1" d="M 8.738281 6.085938 L 10.324219 6.085938 L 10.324219 6.351562 L 8.738281 6.351562 Z M 8.738281 6.085938 "/>
<path fill-rule="nonzero" fill="rgb(10.980392%, 60%, 87.843137%)" fill-opacity="1" d="M 8.738281 6.613281 L 12.707031 6.613281 L 12.707031 6.878906 L 8.738281 6.878906 Z M 8.738281 6.613281 "/>
<path fill-rule="nonzero" fill="rgb(10.980392%, 60%, 87.843137%)" fill-opacity="1" d="M 8.738281 7.144531 L 12.707031 7.144531 L 12.707031 7.40625 L 8.738281 7.40625 Z M 8.738281 7.144531 "/>
<path fill-rule="nonzero" fill="rgb(10.980392%, 60%, 87.843137%)" fill-opacity="1" d="M 8.738281 7.671875 L 11.914062 7.671875 L 11.914062 7.9375 L 8.738281 7.9375 Z M 8.738281 7.671875 "/>
<path fill-rule="nonzero" fill="rgb(10.980392%, 60%, 87.843137%)" fill-opacity="1" d="M 6.089844 4.894531 L 8.207031 4.894531 L 8.207031 6.351562 L 6.089844 6.351562 Z M 6.089844 4.894531 "/>
<g mask="url(#mask-3)">
<use xlink:href="#source-16983"/>
</g>
<g mask="url(#mask-4)">
<use xlink:href="#source-16987"/>
</g>
<path fill-rule="nonzero" fill="rgb(10.980392%, 60%, 87.843137%)" fill-opacity="1" d="M 4.238281 5.027344 L 5.824219 5.027344 L 5.824219 5.292969 L 4.238281 5.292969 Z M 4.238281 5.027344 "/>
<path fill-rule="nonzero" fill="rgb(10.980392%, 60%, 87.843137%)" fill-opacity="1" d="M 4.238281 5.554688 L 5.824219 5.554688 L 5.824219 5.820312 L 4.238281 5.820312 Z M 4.238281 5.554688 "/>
<path fill-rule="nonzero" fill="rgb(10.980392%, 60%, 87.843137%)" fill-opacity="1" d="M 4.238281 6.085938 L 5.824219 6.085938 L 5.824219 6.351562 L 4.238281 6.351562 Z M 4.238281 6.085938 "/>
<path fill-rule="nonzero" fill="rgb(10.980392%, 60%, 87.843137%)" fill-opacity="1" d="M 4.238281 6.613281 L 8.207031 6.613281 L 8.207031 6.878906 L 4.238281 6.878906 Z M 4.238281 6.613281 "/>
<path fill-rule="nonzero" fill="rgb(10.980392%, 60%, 87.843137%)" fill-opacity="1" d="M 4.238281 7.144531 L 8.207031 7.144531 L 8.207031 7.40625 L 4.238281 7.40625 Z M 4.238281 7.144531 "/>
<path fill-rule="nonzero" fill="rgb(10.980392%, 60%, 87.843137%)" fill-opacity="1" d="M 4.238281 7.671875 L 7.414062 7.671875 L 7.414062 7.9375 L 4.238281 7.9375 Z M 4.238281 7.671875 "/>
<g mask="url(#mask-5)">
<use xlink:href="#source-16997"/>
</g>
<path fill-rule="nonzero" fill="rgb(10.980392%, 60%, 87.843137%)" fill-opacity="1" d="M 10.589844 8.863281 L 12.707031 8.863281 L 12.707031 10.320312 L 10.589844 10.320312 Z M 10.589844 8.863281 "/>
<g mask="url(#mask-6)">
<use xlink:href="#source-17002"/>
</g>
<g mask="url(#mask-7)">
<use xlink:href="#source-17006"/>
</g>
<path fill-rule="nonzero" fill="rgb(10.980392%, 60%, 87.843137%)" fill-opacity="1" d="M 8.738281 8.996094 L 10.324219 8.996094 L 10.324219 9.261719 L 8.738281 9.261719 Z M 8.738281 8.996094 "/>
<path fill-rule="nonzero" fill="rgb(10.980392%, 60%, 87.843137%)" fill-opacity="1" d="M 8.738281 9.523438 L 10.324219 9.523438 L 10.324219 9.789062 L 8.738281 9.789062 Z M 8.738281 9.523438 "/>
<path fill-rule="nonzero" fill="rgb(10.980392%, 60%, 87.843137%)" fill-opacity="1" d="M 8.738281 10.054688 L 10.324219 10.054688 L 10.324219 10.320312 L 8.738281 10.320312 Z M 8.738281 10.054688 "/>
<path fill-rule="nonzero" fill="rgb(10.980392%, 60%, 87.843137%)" fill-opacity="1" d="M 8.738281 10.582031 L 12.707031 10.582031 L 12.707031 10.847656 L 8.738281 10.847656 Z M 8.738281 10.582031 "/>
<path fill-rule="nonzero" fill="rgb(10.980392%, 60%, 87.843137%)" fill-opacity="1" d="M 8.738281 11.113281 L 12.707031 11.113281 L 12.707031 11.375 L 8.738281 11.375 Z M 8.738281 11.113281 "/>
<path fill-rule="nonzero" fill="rgb(10.980392%, 60%, 87.843137%)" fill-opacity="1" d="M 8.738281 11.640625 L 11.914062 11.640625 L 11.914062 11.90625 L 8.738281 11.90625 Z M 8.738281 11.640625 "/>
<path fill-rule="nonzero" fill="rgb(10.980392%, 60%, 87.843137%)" fill-opacity="1" d="M 6.089844 8.863281 L 8.207031 8.863281 L 8.207031 10.320312 L 6.089844 10.320312 Z M 6.089844 8.863281 "/>
<g mask="url(#mask-8)">
<use xlink:href="#source-17017"/>
</g>
<g mask="url(#mask-9)">
<use xlink:href="#source-17021"/>
</g>
<path fill-rule="nonzero" fill="rgb(10.980392%, 60%, 87.843137%)" fill-opacity="1" d="M 4.238281 8.996094 L 5.824219 8.996094 L 5.824219 9.261719 L 4.238281 9.261719 Z M 4.238281 8.996094 "/>
<path fill-rule="nonzero" fill="rgb(10.980392%, 60%, 87.843137%)" fill-opacity="1" d="M 4.238281 9.523438 L 5.824219 9.523438 L 5.824219 9.789062 L 4.238281 9.789062 Z M 4.238281 9.523438 "/>
<path fill-rule="nonzero" fill="rgb(10.980392%, 60%, 87.843137%)" fill-opacity="1" d="M 4.238281 10.054688 L 5.824219 10.054688 L 5.824219 10.320312 L 4.238281 10.320312 Z M 4.238281 10.054688 "/>
<path fill-rule="nonzero" fill="rgb(10.980392%, 60%, 87.843137%)" fill-opacity="1" d="M 4.238281 10.582031 L 8.207031 10.582031 L 8.207031 10.847656 L 4.238281 10.847656 Z M 4.238281 10.582031 "/>
<path fill-rule="nonzero" fill="rgb(10.980392%, 60%, 87.843137%)" fill-opacity="1" d="M 4.238281 11.113281 L 8.207031 11.113281 L 8.207031 11.375 L 4.238281 11.375 Z M 4.238281 11.113281 "/>
<path fill-rule="nonzero" fill="rgb(10.980392%, 60%, 87.843137%)" fill-opacity="1" d="M 4.238281 11.640625 L 7.414062 11.640625 L 7.414062 11.90625 L 4.238281 11.90625 Z M 4.238281 11.640625 "/>
</svg>
