<?xml version="1.0" encoding="UTF-8"?>
<svg xmlns="http://www.w3.org/2000/svg" xmlns:xlink="http://www.w3.org/1999/xlink" width="64" height="64" viewBox="0 0 64 64">
<path fill-rule="evenodd" fill="rgb(97.647059%, 97.647059%, 97.647059%)" fill-opacity="1" d="M 3.441406 1.058594 C 2.707031 1.058594 2.117188 1.648438 2.117188 2.382812 L 2.117188 14.550781 C 2.117188 15.285156 2.707031 15.875 3.441406 15.875 L 13.492188 15.875 C 14.226562 15.875 14.816406 15.285156 14.816406 14.550781 L 14.816406 4.234375 L 11.640625 1.058594 Z M 3.441406 1.058594 "/>
<path fill-rule="nonzero" fill="rgb(69.411765%, 21.960784%, 70.588235%)" fill-opacity="1" d="M 3.441406 1.058594 C 2.707031 1.058594 2.117188 1.648438 2.117188 2.382812 L 2.117188 14.550781 C 2.117188 15.285156 2.707031 15.875 3.441406 15.875 L 13.492188 15.875 C 14.226562 15.875 14.816406 15.285156 14.816406 14.550781 L 14.816406 4.234375 L 11.640625 1.058594 Z M 3.441406 1.585938 L 11.421875 1.585938 L 14.289062 4.453125 L 14.289062 14.550781 C 14.289062 15 13.941406 15.34375 13.492188 15.34375 L 3.441406 15.34375 C 2.992188 15.34375 2.644531 15 2.644531 14.550781 L 2.644531 2.378906 C 2.644531 1.929688 2.992188 1.585938 3.441406 1.585938 Z M 3.441406 1.585938 "/>
<path fill-rule="evenodd" fill="rgb(69.411765%, 21.960784%, 70.588235%)" fill-opacity="1" d="M 12.171875 1.058594 L 14.816406 3.703125 L 14.816406 2.382812 C 14.816406 1.648438 14.226562 1.058594 13.492188 1.058594 Z M 12.171875 1.058594 "/>
<path fill-rule="nonzero" fill="rgb(86.27451%, 52.156863%, 91.372549%)" fill-opacity="1" d="M 4.761719 5.226562 L 4.761719 5.574219 L 6.382812 5.574219 L 6.382812 5.226562 Z M 6.613281 5.226562 L 6.613281 5.574219 L 8.351562 5.574219 L 8.351562 5.226562 Z M 8.582031 5.226562 L 8.582031 5.574219 L 10.316406 5.574219 L 10.316406 5.226562 Z M 10.550781 5.226562 L 10.550781 5.574219 L 12.171875 5.574219 L 12.171875 5.226562 Z M 4.761719 5.808594 L 4.761719 6.269531 L 6.382812 6.269531 L 6.382812 5.808594 Z M 6.613281 5.808594 L 6.613281 6.269531 L 8.351562 6.269531 L 8.351562 5.808594 Z M 8.582031 5.808594 L 8.582031 6.269531 L 10.316406 6.269531 L 10.316406 5.808594 Z M 10.550781 5.808594 L 10.550781 6.269531 L 12.171875 6.269531 L 12.171875 5.808594 Z M 4.761719 6.5 L 4.761719 6.964844 L 6.382812 6.964844 L 6.382812 6.5 Z M 6.613281 6.5 L 6.613281 6.964844 L 8.351562 6.964844 L 8.351562 6.5 Z M 8.582031 6.5 L 8.582031 6.964844 L 10.316406 6.964844 L 10.316406 6.5 Z M 10.550781 6.5 L 10.550781 6.964844 L 12.171875 6.964844 L 12.171875 6.5 Z M 4.761719 7.195312 L 4.761719 7.660156 L 6.382812 7.660156 L 6.382812 7.195312 Z M 6.613281 7.195312 L 6.613281 7.660156 L 8.351562 7.660156 L 8.351562 7.195312 Z M 8.582031 7.195312 L 8.582031 7.660156 L 10.316406 7.660156 L 10.316406 7.195312 Z M 10.550781 7.195312 L 10.550781 7.660156 L 12.171875 7.660156 L 12.171875 7.195312 Z M 4.761719 7.890625 L 4.761719 8.351562 L 6.382812 8.351562 L 6.382812 7.890625 Z M 6.613281 7.890625 L 6.613281 8.351562 L 8.351562 8.351562 L 8.351562 7.890625 Z M 8.582031 7.890625 L 8.582031 8.351562 L 10.316406 8.351562 L 10.316406 7.890625 Z M 10.550781 7.890625 L 10.550781 8.351562 L 12.171875 8.351562 L 12.171875 7.890625 Z M 4.761719 8.585938 L 4.761719 9.046875 L 6.382812 9.046875 L 6.382812 8.585938 Z M 6.613281 8.585938 L 6.613281 9.046875 L 8.351562 9.046875 L 8.351562 8.585938 Z M 8.582031 8.585938 L 8.582031 9.046875 L 10.316406 9.046875 L 10.316406 8.585938 Z M 10.550781 8.585938 L 10.550781 9.046875 L 12.171875 9.046875 L 12.171875 8.585938 Z M 4.761719 9.277344 L 4.761719 9.742188 L 6.382812 9.742188 L 6.382812 9.277344 Z M 6.613281 9.277344 L 6.613281 9.742188 L 8.351562 9.742188 L 8.351562 9.277344 Z M 8.582031 9.277344 L 8.582031 9.742188 L 10.316406 9.742188 L 10.316406 9.277344 Z M 10.550781 9.277344 L 10.550781 9.742188 L 12.171875 9.742188 L 12.171875 9.277344 Z M 4.761719 9.972656 L 4.761719 10.4375 L 6.382812 10.4375 L 6.382812 9.972656 Z M 6.613281 9.972656 L 6.613281 10.4375 L 8.351562 10.4375 L 8.351562 9.972656 Z M 8.582031 9.972656 L 8.582031 10.4375 L 10.316406 10.4375 L 10.316406 9.972656 Z M 10.550781 9.972656 L 10.550781 10.4375 L 12.171875 10.4375 L 12.171875 9.972656 Z M 4.761719 10.667969 L 4.761719 11.132812 L 6.382812 11.132812 L 6.382812 10.667969 Z M 6.613281 10.667969 L 6.613281 11.132812 L 8.351562 11.132812 L 8.351562 10.667969 Z M 8.582031 10.667969 L 8.582031 11.132812 L 10.316406 11.132812 L 10.316406 10.667969 Z M 10.550781 10.667969 L 10.550781 11.132812 L 12.171875 11.132812 L 12.171875 10.667969 Z M 4.761719 11.363281 L 4.761719 11.710938 L 6.382812 11.710938 L 6.382812 11.363281 Z M 6.613281 11.363281 L 6.613281 11.710938 L 8.351562 11.710938 L 8.351562 11.363281 Z M 8.582031 11.363281 L 8.582031 11.710938 L 10.316406 11.710938 L 10.316406 11.363281 Z M 10.550781 11.363281 L 10.550781 11.710938 L 12.171875 11.710938 L 12.171875 11.363281 Z M 10.550781 11.363281 "/>
<path fill-rule="nonzero" fill="rgb(100%, 100%, 100%)" fill-opacity="1" d="M 5.6875 7.078125 L 5.6875 10.089844 C 5.6875 10.503906 6.933594 10.84375 8.464844 10.84375 C 10 10.84375 11.242188 10.503906 11.242188 10.089844 L 11.242188 7.078125 Z M 5.6875 7.078125 "/>
<path fill-rule="nonzero" fill="rgb(60.392157%, 7.843137%, 66.666667%)" fill-opacity="1" d="M 6.492188 6.367188 C 6.238281 6.433594 6.03125 6.519531 5.882812 6.617188 C 5.734375 6.710938 5.636719 6.824219 5.636719 6.960938 C 5.632812 8.097656 5.632812 9.179688 5.632812 10.085938 C 5.632812 10.21875 5.730469 10.332031 5.878906 10.425781 C 6.027344 10.523438 6.234375 10.605469 6.492188 10.671875 C 7 10.8125 7.699219 10.894531 8.46875 10.894531 C 9.242188 10.894531 9.9375 10.8125 10.449219 10.671875 C 10.703125 10.605469 10.914062 10.523438 11.0625 10.425781 C 11.210938 10.332031 11.304688 10.21875 11.304688 10.085938 L 11.304688 6.957031 C 11.304688 6.824219 11.207031 6.710938 11.058594 6.617188 C 10.910156 6.519531 10.699219 6.4375 10.445312 6.367188 C 9.9375 6.230469 9.242188 6.148438 8.46875 6.148438 C 7.691406 6.148438 7.039062 6.230469 6.492188 6.367188 Z M 8.46875 6.265625 C 9.234375 6.261719 9.921875 6.347656 10.417969 6.484375 C 10.667969 6.550781 10.867188 6.632812 11 6.71875 C 11.132812 6.804688 11.199219 6.886719 11.191406 6.960938 C 11.179688 7.085938 11.042969 7.175781 10.945312 7.230469 C 10.789062 7.320312 10.601562 7.386719 10.433594 7.429688 C 9.855469 7.582031 9.277344 7.636719 8.722656 7.648438 C 7.957031 7.664062 7.195312 7.609375 6.496094 7.429688 C 6.332031 7.386719 6.191406 7.332031 6.050781 7.261719 C 5.925781 7.199219 5.757812 7.097656 5.746094 6.960938 C 5.738281 6.886719 5.804688 6.804688 5.9375 6.71875 C 6.070312 6.632812 6.269531 6.539062 6.519531 6.484375 C 7.210938 6.328125 7.886719 6.265625 8.46875 6.265625 Z M 5.75 7.199219 C 5.785156 7.234375 5.828125 7.273438 5.882812 7.304688 C 6.070312 7.417969 6.304688 7.503906 6.492188 7.550781 C 7.25 7.726562 8.003906 7.789062 8.726562 7.765625 C 9.3125 7.746094 9.902344 7.703125 10.445312 7.550781 C 10.714844 7.476562 11 7.382812 11.1875 7.199219 L 11.1875 7.945312 C 11.1875 7.976562 11.1875 8.015625 11.183594 8.042969 C 11.167969 8.105469 11.101562 8.183594 10.988281 8.25 C 10.800781 8.363281 10.59375 8.429688 10.410156 8.480469 C 9.761719 8.636719 9.082031 8.695312 8.46875 8.695312 C 7.804688 8.691406 7.105469 8.628906 6.519531 8.476562 C 6.265625 8.398438 6.015625 8.328125 5.832031 8.160156 C 5.789062 8.121094 5.765625 8.078125 5.757812 8.042969 C 5.746094 8.011719 5.75 7.976562 5.75 7.945312 Z M 5.75 8.242188 C 5.773438 8.265625 5.796875 8.285156 5.824219 8.308594 C 6.046875 8.460938 6.324219 8.550781 6.5625 8.609375 C 7.226562 8.761719 7.816406 8.808594 8.46875 8.8125 C 9.125 8.796875 9.769531 8.765625 10.375 8.609375 C 10.589844 8.554688 10.820312 8.472656 10.996094 8.382812 C 11.058594 8.347656 11.164062 8.265625 11.191406 8.242188 L 11.191406 8.984375 C 11.191406 9.019531 11.191406 9.054688 11.183594 9.085938 C 11.167969 9.148438 11.101562 9.222656 10.988281 9.292969 C 10.742188 9.4375 10.445312 9.519531 10.1875 9.574219 C 9.585938 9.691406 9.035156 9.738281 8.46875 9.738281 C 8.183594 9.738281 7.90625 9.726562 7.648438 9.703125 C 7.066406 9.632812 6.550781 9.578125 6.054688 9.351562 C 5.972656 9.3125 5.894531 9.257812 5.832031 9.203125 C 5.789062 9.164062 5.769531 9.121094 5.757812 9.085938 C 5.753906 9.070312 5.75 9.054688 5.75 9.042969 C 5.746094 8.777344 5.75 8.507812 5.75 8.242188 Z M 5.75 9.285156 C 5.839844 9.371094 5.960938 9.441406 6.070312 9.484375 C 6.570312 9.695312 7.164062 9.777344 7.640625 9.820312 C 7.925781 9.84375 8.203125 9.851562 8.46875 9.851562 C 9.128906 9.84375 9.769531 9.800781 10.375 9.652344 C 10.621094 9.585938 10.847656 9.511719 11.050781 9.390625 C 11.105469 9.359375 11.148438 9.324219 11.191406 9.285156 L 11.191406 10.085938 C 11.191406 10.160156 11.128906 10.242188 10.996094 10.328125 C 10.867188 10.414062 10.667969 10.492188 10.417969 10.558594 C 9.921875 10.695312 9.230469 10.78125 8.46875 10.78125 C 7.707031 10.78125 7.015625 10.695312 6.519531 10.558594 C 6.273438 10.492188 6.074219 10.414062 5.941406 10.328125 C 5.808594 10.242188 5.75 10.160156 5.75 10.085938 Z M 5.75 9.285156 "/>
<path fill-rule="nonzero" fill="rgb(100%, 100%, 100%)" fill-opacity="1" d="M 11.183594 6.964844 C 11.191406 7.210938 10.675781 7.441406 9.832031 7.570312 C 8.988281 7.695312 7.945312 7.695312 7.101562 7.570312 C 6.253906 7.441406 5.738281 7.210938 5.746094 6.964844 C 5.738281 6.714844 6.253906 6.484375 7.101562 6.359375 C 7.945312 6.234375 8.988281 6.234375 9.832031 6.359375 C 10.675781 6.484375 11.191406 6.714844 11.183594 6.964844 Z M 11.183594 6.964844 "/>
</svg>
