<?xml version="1.0" encoding="UTF-8"?>
<svg xmlns="http://www.w3.org/2000/svg" xmlns:xlink="http://www.w3.org/1999/xlink" width="64" height="64" viewBox="0 0 64 64">
<path fill-rule="evenodd" fill="rgb(97.647059%, 97.647059%, 97.647059%)" fill-opacity="1" d="M 3.441406 1.058594 C 2.707031 1.058594 2.117188 1.648438 2.117188 2.382812 L 2.117188 14.550781 C 2.117188 15.285156 2.707031 15.875 3.441406 15.875 L 13.492188 15.875 C 14.226562 15.875 14.816406 15.285156 14.816406 14.550781 L 14.816406 4.234375 L 11.640625 1.058594 Z M 3.441406 1.058594 "/>
<path fill-rule="nonzero" fill="rgb(67.843137%, 27.058824%, 5.098039%)" fill-opacity="1" d="M 3.441406 1.058594 C 2.707031 1.058594 2.117188 1.648438 2.117188 2.382812 L 2.117188 14.550781 C 2.117188 15.285156 2.707031 15.875 3.441406 15.875 L 13.492188 15.875 C 14.226562 15.875 14.816406 15.285156 14.816406 14.550781 L 14.816406 4.234375 L 11.640625 1.058594 Z M 3.441406 1.585938 L 11.421875 1.585938 L 14.289062 4.453125 L 14.289062 14.550781 C 14.289062 15 13.941406 15.34375 13.492188 15.34375 L 3.441406 15.34375 C 2.992188 15.34375 2.644531 15 2.644531 14.550781 L 2.644531 2.378906 C 2.644531 1.929688 2.992188 1.585938 3.441406 1.585938 Z M 3.441406 1.585938 "/>
<path fill-rule="evenodd" fill="rgb(67.843137%, 27.058824%, 5.098039%)" fill-opacity="1" d="M 12.171875 1.058594 L 14.816406 3.703125 L 14.816406 2.382812 C 14.816406 1.648438 14.226562 1.058594 13.492188 1.058594 Z M 12.171875 1.058594 "/>
<path fill-rule="nonzero" fill="rgb(50.196078%, 50.196078%, 50.196078%)" fill-opacity="1" d="M 8.25 10.640625 L 6.847656 11.566406 L 7.410156 11.566406 L 7.609375 11.5 L 8.699219 10.640625 Z M 8.25 10.640625 "/>
<path fill-rule="nonzero" fill="rgb(50.196078%, 50.196078%, 50.196078%)" fill-opacity="1" d="M 8.625 10.640625 L 10.027344 11.566406 L 9.464844 11.566406 L 9.265625 11.5 L 8.175781 10.640625 Z M 8.625 10.640625 "/>
<path fill-rule="nonzero" fill="rgb(50.196078%, 50.196078%, 50.196078%)" fill-opacity="1" d="M 8.699219 10.640625 L 10.085938 11.566406 L 9.507812 11.566406 L 9.328125 11.515625 L 8.234375 10.640625 Z M 8.699219 10.640625 "/>
<path fill-rule="nonzero" fill="rgb(50.196078%, 50.196078%, 50.196078%)" fill-opacity="1" d="M 8.121094 10.40625 L 8.8125 10.40625 L 8.8125 10.753906 L 8.121094 10.753906 Z M 8.121094 10.40625 "/>
<path fill-rule="nonzero" fill="rgb(100%, 90.196078%, 83.529412%)" fill-opacity="1" d="M 4.878906 5.199219 L 12.054688 5.199219 C 12.117188 5.199219 12.171875 5.25 12.171875 5.316406 L 12.171875 10.40625 C 12.171875 10.472656 12.117188 10.523438 12.054688 10.523438 L 4.878906 10.523438 C 4.8125 10.523438 4.761719 10.472656 4.761719 10.40625 L 4.761719 5.316406 C 4.761719 5.25 4.8125 5.199219 4.878906 5.199219 Z M 4.878906 5.199219 "/>
<path fill-rule="nonzero" fill="rgb(66.666667%, 26.666667%, 0%)" fill-opacity="1" d="M 6.152344 7.6875 L 7.886719 7.6875 L 7.886719 7.917969 L 6.152344 7.917969 Z M 6.152344 7.6875 "/>
<path fill-rule="nonzero" fill="rgb(100%, 49.803922%, 16.470588%)" fill-opacity="1" d="M 5.804688 7.800781 C 5.804688 7.867188 5.753906 7.917969 5.6875 7.917969 C 5.625 7.917969 5.574219 7.867188 5.574219 7.800781 C 5.574219 7.738281 5.625 7.6875 5.6875 7.6875 C 5.753906 7.6875 5.804688 7.738281 5.804688 7.800781 Z M 5.804688 7.800781 "/>
<path fill-rule="nonzero" fill="rgb(66.666667%, 26.666667%, 0%)" fill-opacity="1" d="M 5.457031 5.894531 L 11.476562 5.894531 L 11.476562 6.183594 L 5.457031 6.183594 Z M 5.457031 5.894531 "/>
<path fill-rule="nonzero" fill="rgb(50.196078%, 50.196078%, 50.196078%)" fill-opacity="1" d="M 8.464844 7.628906 L 11.476562 7.628906 L 11.476562 9.714844 L 8.464844 9.714844 Z M 8.464844 7.628906 "/>
<path fill-rule="nonzero" fill="rgb(94.901961%, 94.901961%, 94.901961%)" fill-opacity="1" d="M 8.640625 7.804688 L 11.300781 7.804688 L 11.300781 9.539062 L 8.640625 9.539062 Z M 8.640625 7.804688 "/>
<path fill-rule="nonzero" fill="rgb(66.666667%, 26.666667%, 0%)" fill-opacity="1" d="M 6.613281 6.472656 L 10.320312 6.472656 L 10.320312 6.761719 L 6.613281 6.761719 Z M 6.613281 6.472656 "/>
<path fill-rule="nonzero" fill="rgb(66.666667%, 26.666667%, 0%)" fill-opacity="1" d="M 6.152344 8.265625 L 7.886719 8.265625 L 7.886719 8.496094 L 6.152344 8.496094 Z M 6.152344 8.265625 "/>
<path fill-rule="nonzero" fill="rgb(100%, 49.803922%, 16.470588%)" fill-opacity="1" d="M 5.804688 8.382812 C 5.804688 8.445312 5.753906 8.496094 5.6875 8.496094 C 5.625 8.496094 5.574219 8.445312 5.574219 8.382812 C 5.574219 8.316406 5.625 8.265625 5.6875 8.265625 C 5.753906 8.265625 5.804688 8.316406 5.804688 8.382812 Z M 5.804688 8.382812 "/>
<path fill-rule="nonzero" fill="rgb(66.666667%, 26.666667%, 0%)" fill-opacity="1" d="M 6.152344 8.84375 L 7.886719 8.84375 L 7.886719 9.078125 L 6.152344 9.078125 Z M 6.152344 8.84375 "/>
<path fill-rule="nonzero" fill="rgb(100%, 49.803922%, 16.470588%)" fill-opacity="1" d="M 5.804688 8.960938 C 5.804688 9.023438 5.753906 9.074219 5.6875 9.074219 C 5.625 9.074219 5.574219 9.023438 5.574219 8.960938 C 5.574219 8.894531 5.625 8.84375 5.6875 8.84375 C 5.753906 8.84375 5.804688 8.894531 5.804688 8.960938 Z M 5.804688 8.960938 "/>
<path fill-rule="nonzero" fill="rgb(66.666667%, 26.666667%, 0%)" fill-opacity="1" d="M 6.152344 9.425781 L 7.886719 9.425781 L 7.886719 9.65625 L 6.152344 9.65625 Z M 6.152344 9.425781 "/>
<path fill-rule="nonzero" fill="rgb(100%, 49.803922%, 16.470588%)" fill-opacity="1" d="M 5.804688 9.539062 C 5.804688 9.601562 5.753906 9.65625 5.6875 9.65625 C 5.625 9.65625 5.574219 9.601562 5.574219 9.539062 C 5.574219 9.476562 5.625 9.421875 5.6875 9.421875 C 5.753906 9.421875 5.804688 9.476562 5.804688 9.539062 Z M 5.804688 9.539062 "/>
</svg>
