<?xml version="1.0" encoding="UTF-8"?>
<svg xmlns="http://www.w3.org/2000/svg" xmlns:xlink="http://www.w3.org/1999/xlink" width="64" height="64" viewBox="0 0 64 64">
<defs>
<filter id="filter-remove-color" x="0%" y="0%" width="100%" height="100%">
<feColorMatrix color-interpolation-filters="sRGB" values="0 0 0 0 1 0 0 0 0 1 0 0 0 0 1 0 0 0 1 0" />
</filter>
<mask id="mask-0">
<g filter="url(#filter-remove-color)">
<rect x="-6.4" y="-6.4" width="76.8" height="76.8" fill="rgb(0%, 0%, 0%)" fill-opacity="0.8"/>
</g>
</mask>
<clipPath id="clip-0">
<rect x="0" y="0" width="17" height="17"/>
</clipPath>
<g id="source-3855" clip-path="url(#clip-0)">
<path fill-rule="nonzero" fill="rgb(52.54902%, 52.156863%, 51.372549%)" fill-opacity="1" d="M 7.941406 5.359375 L 11.914062 5.359375 L 11.914062 6.15625 L 11.515625 6.15625 L 11.515625 5.890625 L 8.273438 5.890625 L 6.65625 9.726562 L 6.421875 9.726562 L 5.429688 7.613281 L 5.042969 7.816406 L 4.902344 7.320312 L 5.703125 7.015625 L 6.535156 8.640625 L 7.941406 5.359375 "/>
</g>
<mask id="mask-1">
<g filter="url(#filter-remove-color)">
<rect x="-6.4" y="-6.4" width="76.8" height="76.8" fill="rgb(0%, 0%, 0%)" fill-opacity="0.8"/>
</g>
</mask>
<clipPath id="clip-1">
<rect x="0" y="0" width="17" height="17"/>
</clipPath>
<g id="source-3859" clip-path="url(#clip-1)">
<path fill-rule="nonzero" fill="rgb(52.54902%, 52.156863%, 51.372549%)" fill-opacity="1" d="M 11.671875 6.683594 L 11.015625 6.683594 L 10.210938 7.742188 L 10.1875 7.742188 L 9.410156 6.683594 L 8.699219 6.683594 L 9.816406 8.167969 L 9.816406 8.1875 L 8.660156 9.726562 L 9.316406 9.726562 L 10.175781 8.582031 L 10.195312 8.582031 L 11.058594 9.726562 L 11.769531 9.726562 L 10.582031 8.160156 L 10.582031 8.144531 L 11.671875 6.683594 "/>
</g>
</defs>
<path fill-rule="evenodd" fill="rgb(97.647059%, 97.647059%, 97.647059%)" fill-opacity="1" d="M 3.441406 1.058594 C 2.707031 1.058594 2.117188 1.648438 2.117188 2.382812 L 2.117188 14.550781 C 2.117188 15.285156 2.707031 15.875 3.441406 15.875 L 13.492188 15.875 C 14.226562 15.875 14.816406 15.285156 14.816406 14.550781 L 14.816406 4.234375 L 11.640625 1.058594 Z M 3.441406 1.058594 "/>
<path fill-rule="nonzero" fill="rgb(35.686275%, 35.686275%, 35.686275%)" fill-opacity="1" d="M 3.441406 1.058594 C 2.707031 1.058594 2.117188 1.648438 2.117188 2.382812 L 2.117188 14.550781 C 2.117188 15.285156 2.707031 15.875 3.441406 15.875 L 13.492188 15.875 C 14.226562 15.875 14.816406 15.285156 14.816406 14.550781 L 14.816406 4.234375 L 11.640625 1.058594 Z M 3.441406 1.585938 L 11.421875 1.585938 L 14.289062 4.453125 L 14.289062 14.550781 C 14.289062 15 13.941406 15.34375 13.492188 15.34375 L 3.441406 15.34375 C 2.992188 15.34375 2.644531 15 2.644531 14.550781 L 2.644531 2.378906 C 2.644531 1.929688 2.992188 1.585938 3.441406 1.585938 Z M 3.441406 1.585938 "/>
<path fill-rule="evenodd" fill="rgb(35.686275%, 35.686275%, 35.686275%)" fill-opacity="1" d="M 12.171875 1.058594 L 14.816406 3.703125 L 14.816406 2.382812 C 14.816406 1.648438 14.226562 1.058594 13.492188 1.058594 Z M 12.171875 1.058594 "/>
<path fill-rule="nonzero" fill="rgb(80%, 80%, 80%)" fill-opacity="1" d="M 4.238281 10.191406 L 12.703125 10.191406 L 12.703125 12.042969 L 4.238281 12.042969 Z M 4.238281 10.191406 "/>
<path fill-rule="nonzero" fill="rgb(94.901961%, 94.901961%, 94.901961%)" fill-opacity="1" d="M 4.238281 4.765625 L 12.703125 4.765625 L 12.703125 10.320312 L 4.238281 10.320312 Z M 4.238281 4.765625 "/>
<path fill-rule="nonzero" fill="rgb(30.196078%, 30.196078%, 30.196078%)" fill-opacity="1" d="M 6.65625 10.847656 L 6.65625 10.949219 C 6.628906 10.929688 6.597656 10.917969 6.566406 10.910156 C 6.539062 10.902344 6.507812 10.898438 6.476562 10.898438 C 6.429688 10.898438 6.394531 10.90625 6.371094 10.921875 C 6.347656 10.933594 6.335938 10.957031 6.335938 10.988281 C 6.335938 11.019531 6.34375 11.039062 6.363281 11.054688 C 6.378906 11.066406 6.421875 11.082031 6.492188 11.09375 L 6.53125 11.101562 C 6.585938 11.113281 6.625 11.132812 6.648438 11.160156 C 6.675781 11.191406 6.691406 11.226562 6.691406 11.277344 C 6.691406 11.339844 6.667969 11.386719 6.625 11.421875 C 6.578125 11.457031 6.515625 11.476562 6.4375 11.476562 C 6.40625 11.476562 6.375 11.472656 6.339844 11.464844 C 6.304688 11.457031 6.269531 11.449219 6.226562 11.4375 L 6.226562 11.328125 C 6.265625 11.347656 6.304688 11.363281 6.339844 11.375 C 6.375 11.382812 6.410156 11.386719 6.441406 11.386719 C 6.484375 11.386719 6.523438 11.378906 6.546875 11.359375 C 6.574219 11.339844 6.585938 11.316406 6.585938 11.28125 C 6.585938 11.234375 6.539062 11.199219 6.445312 11.179688 L 6.441406 11.179688 L 6.402344 11.171875 C 6.34375 11.160156 6.300781 11.140625 6.269531 11.113281 C 6.242188 11.085938 6.230469 11.046875 6.230469 11 C 6.230469 10.9375 6.25 10.890625 6.292969 10.859375 C 6.332031 10.824219 6.390625 10.808594 6.46875 10.808594 C 6.5 10.808594 6.535156 10.8125 6.566406 10.820312 C 6.597656 10.824219 6.628906 10.835938 6.660156 10.847656 "/>
<path fill-rule="nonzero" fill="rgb(30.196078%, 30.196078%, 30.196078%)" fill-opacity="1" d="M 6.988281 11.152344 C 6.988281 11.230469 7 11.292969 7.027344 11.332031 C 7.050781 11.375 7.089844 11.394531 7.140625 11.394531 C 7.191406 11.394531 7.230469 11.375 7.253906 11.332031 C 7.28125 11.292969 7.292969 11.230469 7.292969 11.152344 C 7.292969 11.070312 7.28125 11.011719 7.253906 10.96875 C 7.230469 10.925781 7.191406 10.90625 7.140625 10.90625 C 7.089844 10.90625 7.050781 10.925781 7.027344 10.96875 C 7 11.007812 6.988281 11.070312 6.988281 11.152344 M 7.292969 11.386719 C 7.277344 11.417969 7.253906 11.441406 7.222656 11.460938 C 7.195312 11.476562 7.164062 11.484375 7.125 11.484375 C 7.046875 11.484375 6.988281 11.453125 6.945312 11.394531 C 6.902344 11.335938 6.878906 11.257812 6.878906 11.152344 C 6.878906 11.046875 6.902344 10.964844 6.945312 10.90625 C 6.988281 10.847656 7.046875 10.816406 7.125 10.816406 C 7.160156 10.816406 7.195312 10.828125 7.222656 10.84375 C 7.253906 10.859375 7.277344 10.882812 7.292969 10.914062 L 7.292969 10.832031 L 7.398438 10.832031 L 7.398438 11.707031 L 7.292969 11.707031 L 7.292969 11.386719 "/>
<path fill-rule="nonzero" fill="rgb(30.196078%, 30.196078%, 30.196078%)" fill-opacity="1" d="M 8.140625 10.980469 C 8.117188 10.960938 8.09375 10.949219 8.070312 10.941406 C 8.050781 10.933594 8.023438 10.929688 7.996094 10.929688 C 7.929688 10.929688 7.882812 10.949219 7.847656 10.992188 C 7.8125 11.03125 7.796875 11.089844 7.796875 11.167969 L 7.796875 11.480469 L 7.691406 11.480469 L 7.691406 10.847656 L 7.796875 10.847656 L 7.796875 10.972656 C 7.8125 10.925781 7.839844 10.894531 7.875 10.867188 C 7.910156 10.84375 7.953125 10.832031 8.003906 10.832031 C 8.03125 10.832031 8.054688 10.835938 8.074219 10.84375 C 8.097656 10.847656 8.121094 10.859375 8.140625 10.871094 L 8.140625 10.980469 "/>
<path fill-rule="nonzero" fill="rgb(30.196078%, 30.196078%, 30.196078%)" fill-opacity="1" d="M 8.589844 10.660156 L 8.589844 10.84375 L 8.828125 10.84375 L 8.828125 10.921875 L 8.589844 10.921875 L 8.589844 11.265625 C 8.589844 11.3125 8.597656 11.347656 8.617188 11.363281 C 8.632812 11.382812 8.664062 11.394531 8.710938 11.394531 L 8.828125 11.394531 L 8.828125 11.476562 L 8.699219 11.476562 C 8.621094 11.476562 8.566406 11.460938 8.535156 11.429688 C 8.5 11.398438 8.484375 11.34375 8.484375 11.265625 L 8.484375 10.921875 L 8.316406 10.921875 L 8.316406 10.84375 L 8.484375 10.84375 L 8.484375 10.660156 L 8.589844 10.660156 "/>
<path fill-rule="nonzero" fill="rgb(30.196078%, 30.196078%, 30.196078%)" fill-opacity="1" d="M 9.554688 11.535156 L 9.554688 11.617188 L 9.519531 11.617188 C 9.425781 11.617188 9.363281 11.601562 9.332031 11.574219 C 9.296875 11.546875 9.28125 11.492188 9.28125 11.40625 L 9.28125 11.273438 C 9.28125 11.214844 9.273438 11.175781 9.253906 11.152344 C 9.230469 11.132812 9.195312 11.121094 9.144531 11.121094 L 9.109375 11.121094 L 9.109375 11.039062 L 9.144531 11.039062 C 9.195312 11.039062 9.234375 11.03125 9.253906 11.007812 C 9.273438 10.988281 9.28125 10.949219 9.28125 10.890625 L 9.28125 10.753906 C 9.28125 10.671875 9.296875 10.617188 9.332031 10.589844 C 9.363281 10.558594 9.425781 10.546875 9.519531 10.546875 L 9.554688 10.546875 L 9.554688 10.628906 L 9.515625 10.628906 C 9.464844 10.628906 9.429688 10.636719 9.414062 10.652344 C 9.398438 10.667969 9.390625 10.703125 9.390625 10.757812 L 9.390625 10.898438 C 9.390625 10.957031 9.378906 11 9.363281 11.027344 C 9.347656 11.054688 9.316406 11.070312 9.273438 11.082031 C 9.316406 11.089844 9.347656 11.109375 9.363281 11.136719 C 9.378906 11.164062 9.390625 11.207031 9.390625 11.265625 L 9.390625 11.40625 C 9.390625 11.460938 9.398438 11.496094 9.414062 11.511719 C 9.429688 11.527344 9.464844 11.535156 9.515625 11.535156 L 9.554688 11.535156 "/>
<path fill-rule="nonzero" fill="rgb(30.196078%, 30.196078%, 30.196078%)" fill-opacity="1" d="M 10.257812 10.835938 L 10.03125 11.136719 L 10.277344 11.46875 L 10.160156 11.46875 L 9.972656 11.214844 L 9.789062 11.46875 L 9.667969 11.46875 L 9.917969 11.136719 L 9.6875 10.835938 L 9.804688 10.835938 L 9.972656 11.0625 L 10.140625 10.835938 L 10.257812 10.835938 "/>
<path fill-rule="nonzero" fill="rgb(30.196078%, 30.196078%, 30.196078%)" fill-opacity="1" d="M 10.441406 11.535156 L 10.480469 11.535156 C 10.535156 11.535156 10.570312 11.527344 10.585938 11.511719 C 10.601562 11.492188 10.609375 11.457031 10.609375 11.40625 L 10.609375 11.265625 C 10.609375 11.207031 10.617188 11.164062 10.632812 11.136719 C 10.652344 11.109375 10.679688 11.089844 10.722656 11.082031 C 10.679688 11.070312 10.652344 11.054688 10.632812 11.027344 C 10.617188 11 10.609375 10.957031 10.609375 10.898438 L 10.609375 10.757812 C 10.609375 10.703125 10.601562 10.667969 10.585938 10.652344 C 10.570312 10.636719 10.535156 10.628906 10.480469 10.628906 L 10.441406 10.628906 L 10.441406 10.546875 L 10.476562 10.546875 C 10.570312 10.546875 10.632812 10.558594 10.664062 10.589844 C 10.699219 10.617188 10.714844 10.671875 10.714844 10.753906 L 10.714844 10.890625 C 10.714844 10.949219 10.722656 10.988281 10.742188 11.007812 C 10.761719 11.03125 10.800781 11.039062 10.855469 11.039062 L 10.890625 11.039062 L 10.890625 11.121094 L 10.855469 11.121094 C 10.800781 11.121094 10.761719 11.132812 10.742188 11.152344 C 10.722656 11.175781 10.714844 11.214844 10.714844 11.273438 L 10.714844 11.40625 C 10.714844 11.492188 10.699219 11.546875 10.664062 11.574219 C 10.632812 11.601562 10.570312 11.617188 10.476562 11.617188 L 10.441406 11.617188 L 10.441406 11.535156 "/>
<g mask="url(#mask-0)">
<use xlink:href="#source-3855"/>
</g>
<g mask="url(#mask-1)">
<use xlink:href="#source-3859"/>
</g>
</svg>
