<?xml version="1.0" encoding="UTF-8"?>
<svg xmlns="http://www.w3.org/2000/svg" xmlns:xlink="http://www.w3.org/1999/xlink" width="64" height="64" viewBox="0 0 64 64">
<path fill-rule="evenodd" fill="rgb(97.647059%, 97.647059%, 97.647059%)" fill-opacity="1" d="M 3.441406 1.058594 C 2.707031 1.058594 2.117188 1.648438 2.117188 2.382812 L 2.117188 14.550781 C 2.117188 15.285156 2.707031 15.875 3.441406 15.875 L 13.492188 15.875 C 14.226562 15.875 14.816406 15.285156 14.816406 14.550781 L 14.816406 4.234375 L 11.640625 1.058594 Z M 3.441406 1.058594 "/>
<path fill-rule="nonzero" fill="rgb(1.176471%, 43.529412%, 67.843137%)" fill-opacity="1" d="M 3.441406 1.058594 C 2.707031 1.058594 2.117188 1.648438 2.117188 2.382812 L 2.117188 14.550781 C 2.117188 15.285156 2.707031 15.875 3.441406 15.875 L 13.492188 15.875 C 14.226562 15.875 14.816406 15.285156 14.816406 14.550781 L 14.816406 4.234375 L 11.640625 1.058594 Z M 3.441406 1.585938 L 11.421875 1.585938 L 14.289062 4.453125 L 14.289062 14.550781 C 14.289062 15 13.941406 15.34375 13.492188 15.34375 L 3.441406 15.34375 C 2.992188 15.34375 2.644531 15 2.644531 14.550781 L 2.644531 2.378906 C 2.644531 1.929688 2.992188 1.585938 3.441406 1.585938 Z M 3.441406 1.585938 "/>
<path fill-rule="evenodd" fill="rgb(1.176471%, 43.529412%, 67.843137%)" fill-opacity="1" d="M 12.171875 1.058594 L 14.816406 3.703125 L 14.816406 2.382812 C 14.816406 1.648438 14.226562 1.058594 13.492188 1.058594 Z M 12.171875 1.058594 "/>
<path fill-rule="nonzero" fill="rgb(11.372549%, 54.901961%, 74.901961%)" fill-opacity="1" d="M 7.242188 5.292969 L 12.273438 5.292969 L 12.273438 8.648438 L 7.242188 8.648438 Z M 7.242188 5.292969 "/>
<path fill-rule="nonzero" fill="rgb(14.117647%, 60.784314%, 81.568627%)" fill-opacity="1" d="M 5.144531 5.296875 L 7.003906 5.296875 L 7.003906 5.59375 L 5.144531 5.59375 Z M 5.144531 5.296875 "/>
<path fill-rule="nonzero" fill="rgb(14.117647%, 60.784314%, 81.568627%)" fill-opacity="1" d="M 4.605469 8.890625 L 12.273438 8.890625 L 12.273438 9.1875 L 4.605469 9.1875 Z M 4.605469 8.890625 "/>
<path fill-rule="nonzero" fill="rgb(14.117647%, 60.784314%, 81.568627%)" fill-opacity="1" d="M 4.605469 11.285156 L 9.636719 11.285156 L 9.636719 11.585938 L 4.605469 11.585938 Z M 4.605469 11.285156 "/>
<path fill-rule="nonzero" fill="rgb(14.117647%, 60.784314%, 81.568627%)" fill-opacity="1" d="M 4.605469 5.894531 L 7.003906 5.894531 L 7.003906 6.195312 L 4.605469 6.195312 Z M 4.605469 5.894531 "/>
<path fill-rule="nonzero" fill="rgb(14.117647%, 60.784314%, 81.568627%)" fill-opacity="1" d="M 4.605469 6.492188 L 7.003906 6.492188 L 7.003906 6.792969 L 4.605469 6.792969 Z M 4.605469 6.492188 "/>
<path fill-rule="nonzero" fill="rgb(14.117647%, 60.784314%, 81.568627%)" fill-opacity="1" d="M 4.605469 7.09375 L 7.003906 7.09375 L 7.003906 7.390625 L 4.605469 7.390625 Z M 4.605469 7.09375 "/>
<path fill-rule="nonzero" fill="rgb(14.117647%, 60.784314%, 81.568627%)" fill-opacity="1" d="M 4.605469 7.691406 L 7.003906 7.691406 L 7.003906 7.992188 L 4.605469 7.992188 Z M 4.605469 7.691406 "/>
<path fill-rule="nonzero" fill="rgb(14.117647%, 60.784314%, 81.568627%)" fill-opacity="1" d="M 4.605469 8.289062 L 7.003906 8.289062 L 7.003906 8.589844 L 4.605469 8.589844 Z M 4.605469 8.289062 "/>
<path fill-rule="nonzero" fill="rgb(14.117647%, 60.784314%, 81.568627%)" fill-opacity="1" d="M 4.605469 9.488281 L 12.273438 9.488281 L 12.273438 9.789062 L 4.605469 9.789062 Z M 4.605469 9.488281 "/>
<path fill-rule="nonzero" fill="rgb(14.117647%, 60.784314%, 81.568627%)" fill-opacity="1" d="M 4.605469 10.089844 L 12.273438 10.089844 L 12.273438 10.386719 L 4.605469 10.386719 Z M 4.605469 10.089844 "/>
<path fill-rule="nonzero" fill="rgb(14.117647%, 60.784314%, 81.568627%)" fill-opacity="1" d="M 4.605469 10.6875 L 12.273438 10.6875 L 12.273438 10.988281 L 4.605469 10.988281 Z M 4.605469 10.6875 "/>
<path fill-rule="nonzero" fill="rgb(54.509804%, 80.784314%, 95.294118%)" fill-opacity="1" d="M 7.480469 5.53125 L 12.035156 5.53125 L 12.035156 8.40625 L 7.480469 8.40625 Z M 7.480469 5.53125 "/>
<path fill-rule="nonzero" fill="rgb(9.411765%, 63.529412%, 1.176471%)" fill-opacity="1" d="M 12.035156 7.648438 L 11.839844 7.648438 L 10.972656 7.800781 C 10.972656 7.800781 10.117188 7.570312 9.988281 7.570312 C 9.859375 7.570312 9.453125 7.648438 9.378906 7.648438 C 9.324219 7.648438 9 7.496094 8.921875 7.496094 C 8.792969 7.496094 8.648438 7.65625 8.269531 7.722656 C 8.269531 7.722656 8.160156 7.480469 8.089844 7.496094 C 7.632812 7.671875 7.480469 7.648438 7.480469 7.648438 L 7.480469 8.40625 L 12.035156 8.40625 Z M 12.035156 7.648438 "/>
<path fill-rule="nonzero" fill="rgb(100%, 83.137255%, 25.490196%)" fill-opacity="1" d="M 12.035156 6.429688 C 11.539062 6.429688 11.136719 6.027344 11.136719 5.53125 L 12.035156 5.53125 Z M 12.035156 6.429688 "/>
</svg>
