<?xml version="1.0" encoding="UTF-8"?>
<svg xmlns="http://www.w3.org/2000/svg" xmlns:xlink="http://www.w3.org/1999/xlink" width="64" height="64" viewBox="0 0 64 64">
<defs>
<filter id="filter-remove-color" x="0%" y="0%" width="100%" height="100%">
<feColorMatrix color-interpolation-filters="sRGB" values="0 0 0 0 1 0 0 0 0 1 0 0 0 0 1 0 0 0 1 0" />
</filter>
<mask id="mask-0">
<g filter="url(#filter-remove-color)">
<rect x="-6.4" y="-6.4" width="76.8" height="76.8" fill="rgb(0%, 0%, 0%)" fill-opacity="0.75"/>
</g>
</mask>
<clipPath id="clip-0">
<rect x="0" y="0" width="17" height="17"/>
</clipPath>
<g id="source-1368" clip-path="url(#clip-0)">
<path fill-rule="nonzero" fill="rgb(61.960784%, 94.901961%, 56.470588%)" fill-opacity="1" d="M 4.960938 10.964844 L 5.609375 10.964844 L 5.609375 11.613281 L 4.960938 11.613281 Z M 4.960938 10.964844 "/>
</g>
<mask id="mask-1">
<g filter="url(#filter-remove-color)">
<rect x="-6.4" y="-6.4" width="76.8" height="76.8" fill="rgb(0%, 0%, 0%)" fill-opacity="0.75"/>
</g>
</mask>
<clipPath id="clip-1">
<rect x="0" y="0" width="17" height="17"/>
</clipPath>
<g id="source-1373" clip-path="url(#clip-1)">
<path fill-rule="nonzero" fill="rgb(61.960784%, 94.901961%, 56.470588%)" fill-opacity="1" d="M 7.3125 7.203125 L 7.960938 7.203125 L 7.960938 7.851562 L 7.3125 7.851562 Z M 7.3125 7.203125 "/>
</g>
<mask id="mask-2">
<g filter="url(#filter-remove-color)">
<rect x="-6.4" y="-6.4" width="76.8" height="76.8" fill="rgb(0%, 0%, 0%)" fill-opacity="0.75"/>
</g>
</mask>
<clipPath id="clip-2">
<rect x="0" y="0" width="17" height="17"/>
</clipPath>
<g id="source-1377" clip-path="url(#clip-2)">
<path fill-rule="nonzero" fill="rgb(61.960784%, 94.901961%, 56.470588%)" fill-opacity="1" d="M 9.664062 10.964844 L 10.3125 10.964844 L 10.3125 11.613281 L 9.664062 11.613281 Z M 9.664062 10.964844 "/>
</g>
</defs>
<path fill-rule="evenodd" fill="rgb(97.647059%, 97.647059%, 97.647059%)" fill-opacity="1" d="M 3.441406 1.058594 C 2.707031 1.058594 2.117188 1.648438 2.117188 2.382812 L 2.117188 14.550781 C 2.117188 15.285156 2.707031 15.875 3.441406 15.875 L 13.492188 15.875 C 14.226562 15.875 14.816406 15.285156 14.816406 14.550781 L 14.816406 4.234375 L 11.640625 1.058594 Z M 3.441406 1.058594 "/>
<path fill-rule="nonzero" fill="rgb(81.960784%, 45.882353%, 12.54902%)" fill-opacity="1" d="M 3.441406 1.058594 C 2.707031 1.058594 2.117188 1.648438 2.117188 2.382812 L 2.117188 14.550781 C 2.117188 15.285156 2.707031 15.875 3.441406 15.875 L 13.492188 15.875 C 14.226562 15.875 14.816406 15.285156 14.816406 14.550781 L 14.816406 4.234375 L 11.640625 1.058594 Z M 3.441406 1.585938 L 11.421875 1.585938 L 14.289062 4.453125 L 14.289062 14.550781 C 14.289062 15 13.941406 15.34375 13.492188 15.34375 L 3.441406 15.34375 C 2.992188 15.34375 2.644531 15 2.644531 14.550781 L 2.644531 2.378906 C 2.644531 1.929688 2.992188 1.585938 3.441406 1.585938 Z M 3.441406 1.585938 "/>
<path fill-rule="evenodd" fill="rgb(81.960784%, 45.882353%, 12.54902%)" fill-opacity="1" d="M 12.171875 1.058594 L 14.816406 3.703125 L 14.816406 2.382812 C 14.816406 1.648438 14.226562 1.058594 13.492188 1.058594 Z M 12.171875 1.058594 "/>
<path fill-rule="nonzero" fill="rgb(96.862745%, 74.901961%, 68.627451%)" fill-opacity="1" d="M 9.28125 7.46875 C 9.28125 8.699219 8.28125 9.703125 7.046875 9.703125 C 5.8125 9.703125 4.8125 8.699219 4.8125 7.46875 C 4.8125 6.234375 5.8125 5.234375 7.046875 5.234375 C 8.28125 5.234375 9.28125 6.234375 9.28125 7.46875 Z M 9.28125 7.46875 "/>
<path fill-rule="nonzero" fill="rgb(82.745098%, 61.568627%, 11.372549%)" fill-opacity="1" d="M 8.472656 6.761719 L 12 6.761719 L 12 10.289062 L 8.472656 10.289062 Z M 8.472656 6.761719 "/>
<path fill-rule="nonzero" fill="rgb(97.647059%, 82.352941%, 32.941176%)" fill-opacity="1" d="M 9.871094 11.230469 L 5.402344 11.230469 L 7.636719 7.644531 Z M 9.871094 11.230469 "/>
<g mask="url(#mask-0)">
<use xlink:href="#source-1368"/>
</g>
<g mask="url(#mask-1)">
<use xlink:href="#source-1373"/>
</g>
<g mask="url(#mask-2)">
<use xlink:href="#source-1377"/>
</g>
</svg>
