<?xml version="1.0" encoding="UTF-8"?>
<svg xmlns="http://www.w3.org/2000/svg" xmlns:xlink="http://www.w3.org/1999/xlink" width="64" height="64" viewBox="0 0 64 64">
<defs>
<filter id="filter-remove-color" x="0%" y="0%" width="100%" height="100%">
<feColorMatrix color-interpolation-filters="sRGB" values="0 0 0 0 1 0 0 0 0 1 0 0 0 0 1 0 0 0 1 0" />
</filter>
<mask id="mask-0">
<g filter="url(#filter-remove-color)">
<rect x="-6.4" y="-6.4" width="76.8" height="76.8" fill="rgb(0%, 0%, 0%)" fill-opacity="0.15"/>
</g>
</mask>
<linearGradient id="linear-pattern-0" gradientUnits="userSpaceOnUse" x1="49.570999" y1="52.714001" x2="51.714001" y2="54.856998" gradientTransform="matrix(2.3333, 0, 0, 2.3333, -68.667, -72.000999)">
<stop offset="0" stop-color="rgb(0%, 0%, 0%)" stop-opacity="1"/>
<stop offset="1" stop-color="rgb(0%, 0%, 0%)" stop-opacity="0"/>
</linearGradient>
<clipPath id="clip-0">
<rect x="0" y="0" width="64" height="64"/>
</clipPath>
<g id="source-11663" clip-path="url(#clip-0)">
<path fill-rule="evenodd" fill="url(#linear-pattern-0)" d="M 56 46 L 42 60 L 51 60 C 53.769531 60 56 57.769531 56 55 Z M 56 46 "/>
</g>
</defs>
<path fill-rule="nonzero" fill="rgb(38.039216%, 43.137255%, 48.235294%)" fill-opacity="1" d="M 13 4 L 51 4 C 53.761719 4 56 6.238281 56 9 L 56 55 C 56 57.761719 53.761719 60 51 60 L 13 60 C 10.238281 60 8 57.761719 8 55 L 8 9 C 8 6.238281 10.238281 4 13 4 Z M 13 4 "/>
<g mask="url(#mask-0)">
<use xlink:href="#source-11663"/>
</g>
<path fill-rule="nonzero" fill="rgb(98.431373%, 98.431373%, 98.431373%)" fill-opacity="1" d="M 23 21 L 23 27 L 19 27 L 19 40.5 C 19 41.886719 20.113281 43 21.5 43 L 42.5 43 C 43.886719 43 45 41.886719 45 40.5 L 45 21 Z M 25 23 L 43 23 L 43 27 L 25 27 Z M 26 24 L 26 26 L 42 26 L 42 24 Z M 20 28 L 23 28 L 23 42 L 21.5 42 C 20.667969 42 20 41.332031 20 40.5 Z M 25 29 L 35 29 L 35 38 L 25 38 Z M 36 29 L 43 29 L 43 30 L 36 30 Z M 36 33 L 43 33 L 43 34 L 36 34 Z M 36 37 L 43 37 L 43 38 L 36 38 Z M 25 40 L 43 40 L 43 41 L 25 41 Z M 25 40 "/>
</svg>
