<?xml version="1.0" encoding="UTF-8"?>
<svg xmlns="http://www.w3.org/2000/svg" xmlns:xlink="http://www.w3.org/1999/xlink" width="64" height="64" viewBox="0 0 64 64">
<defs>
<filter id="filter-remove-color" x="0%" y="0%" width="100%" height="100%">
<feColorMatrix color-interpolation-filters="sRGB" values="0 0 0 0 1 0 0 0 0 1 0 0 0 0 1 0 0 0 1 0" />
</filter>
<mask id="mask-0">
<g filter="url(#filter-remove-color)">
<rect x="-6.4" y="-6.4" width="76.8" height="76.8" fill="rgb(0%, 0%, 0%)" fill-opacity="0.1"/>
</g>
</mask>
<linearGradient id="linear-pattern-0" gradientUnits="userSpaceOnUse" x1="49.570999" y1="52.714001" x2="51.714001" y2="54.856998" gradientTransform="matrix(0.617345, 0, 0, 0.617345, -18.167916, -19.050025)">
<stop offset="0" stop-color="rgb(0%, 0%, 0%)" stop-opacity="1"/>
<stop offset="1" stop-color="rgb(0%, 0%, 0%)" stop-opacity="0"/>
</linearGradient>
<clipPath id="clip-0">
<rect x="0" y="0" width="17" height="17"/>
</clipPath>
<g id="source-4445" clip-path="url(#clip-0)">
<path fill-rule="evenodd" fill="url(#linear-pattern-0)" d="M 14.816406 12.171875 L 11.113281 15.875 L 13.492188 15.875 C 14.226562 15.875 14.816406 15.285156 14.816406 14.550781 Z M 14.816406 12.171875 "/>
</g>
</defs>
<path fill-rule="nonzero" fill="rgb(95.686275%, 95.686275%, 95.686275%)" fill-opacity="1" d="M 3.441406 1.058594 L 13.492188 1.058594 C 14.222656 1.058594 14.816406 1.652344 14.816406 2.382812 L 14.816406 14.550781 C 14.816406 15.28125 14.222656 15.875 13.492188 15.875 L 3.441406 15.875 C 2.707031 15.875 2.117188 15.28125 2.117188 14.550781 L 2.117188 2.382812 C 2.117188 1.652344 2.707031 1.058594 3.441406 1.058594 Z M 3.441406 1.058594 "/>
<g mask="url(#mask-0)">
<use xlink:href="#source-4445"/>
</g>
<path fill-rule="nonzero" fill="rgb(47.058824%, 22.352941%, 71.764706%)" fill-opacity="1" d="M 7.6875 12.039062 L 7.535156 5.53125 C 7.085938 5.699219 6.738281 5.960938 6.488281 6.316406 C 6.238281 6.675781 6.117188 7.117188 6.117188 7.648438 C 6.117188 7.769531 6.121094 7.867188 6.132812 7.945312 C 6.148438 8.019531 6.164062 8.082031 6.179688 8.128906 C 6.195312 8.171875 6.210938 8.203125 6.222656 8.230469 C 6.238281 8.253906 6.246094 8.277344 6.246094 8.292969 C 6.082031 8.292969 5.9375 8.277344 5.808594 8.246094 C 5.683594 8.214844 5.574219 8.160156 5.488281 8.089844 C 5.402344 8.019531 5.339844 7.925781 5.292969 7.804688 C 5.25 7.6875 5.226562 7.542969 5.226562 7.367188 C 5.226562 7.15625 5.273438 6.949219 5.363281 6.746094 C 5.457031 6.542969 5.582031 6.347656 5.738281 6.164062 C 5.898438 5.980469 6.085938 5.8125 6.300781 5.65625 C 6.519531 5.503906 6.75 5.367188 6.996094 5.257812 C 7.242188 5.144531 7.5 5.054688 7.765625 4.992188 C 8.035156 4.925781 8.304688 4.894531 8.570312 4.894531 C 8.644531 4.894531 8.707031 4.894531 8.765625 4.898438 C 8.828125 4.902344 8.890625 4.90625 8.953125 4.914062 L 9.035156 10.773438 L 11.039062 4.941406 L 11.707031 4.941406 L 9.058594 12.039062 Z M 7.6875 12.039062 "/>
</svg>
