<?xml version="1.0" encoding="UTF-8"?>
<svg xmlns="http://www.w3.org/2000/svg" xmlns:xlink="http://www.w3.org/1999/xlink" width="64" height="64" viewBox="0 0 64 64">
<defs>
<filter id="filter-remove-color" x="0%" y="0%" width="100%" height="100%">
<feColorMatrix color-interpolation-filters="sRGB" values="0 0 0 0 1 0 0 0 0 1 0 0 0 0 1 0 0 0 1 0" />
</filter>
<mask id="mask-0">
<g filter="url(#filter-remove-color)">
<rect x="-6.4" y="-6.4" width="76.8" height="76.8" fill="rgb(0%, 0%, 0%)" fill-opacity="0.1"/>
</g>
</mask>
<linearGradient id="linear-pattern-0" gradientUnits="userSpaceOnUse" x1="49.570999" y1="52.714001" x2="51.714001" y2="54.856998" gradientTransform="matrix(0.617345, 0, 0, 0.617345, -18.167916, -19.050025)">
<stop offset="0" stop-color="rgb(0%, 0%, 0%)" stop-opacity="1"/>
<stop offset="1" stop-color="rgb(0%, 0%, 0%)" stop-opacity="0"/>
</linearGradient>
<clipPath id="clip-0">
<rect x="0" y="0" width="17" height="17"/>
</clipPath>
<g id="source-18108" clip-path="url(#clip-0)">
<path fill-rule="evenodd" fill="url(#linear-pattern-0)" d="M 14.816406 12.171875 L 11.113281 15.875 L 13.492188 15.875 C 14.226562 15.875 14.816406 15.285156 14.816406 14.550781 Z M 14.816406 12.171875 "/>
</g>
</defs>
<path fill-rule="nonzero" fill="rgb(95.686275%, 95.686275%, 95.686275%)" fill-opacity="1" d="M 3.441406 1.058594 L 13.492188 1.058594 C 14.222656 1.058594 14.816406 1.652344 14.816406 2.382812 L 14.816406 14.550781 C 14.816406 15.28125 14.222656 15.875 13.492188 15.875 L 3.441406 15.875 C 2.707031 15.875 2.117188 15.28125 2.117188 14.550781 L 2.117188 2.382812 C 2.117188 1.652344 2.707031 1.058594 3.441406 1.058594 Z M 3.441406 1.058594 "/>
<g mask="url(#mask-0)">
<use xlink:href="#source-18108"/>
</g>
<path fill="none" stroke-width="0.52916" stroke-linecap="butt" stroke-linejoin="round" stroke="rgb(60%, 60%, 60%)" stroke-opacity="1" stroke-miterlimit="4" d="M 31.74925 3.771038 C 31.74925 4.501506 30.210188 5.09135 28.31175 5.09135 C 26.409407 5.09135 24.870344 4.501506 24.870344 3.771038 C 24.870344 3.040569 26.409407 2.446819 28.31175 2.446819 C 30.210188 2.446819 31.74925 3.040569 31.74925 3.771038 Z M 31.74925 3.771038 " transform="matrix(1, 0, 0, 1, -19.843, 2.3149)"/>
<path fill="none" stroke-width="0.52916" stroke-linecap="butt" stroke-linejoin="miter" stroke="rgb(60%, 60%, 60%)" stroke-opacity="1" stroke-miterlimit="4" d="M 24.870344 3.704631 L 24.870344 8.532756 " transform="matrix(1, 0, 0, 1, -19.843, 2.3149)"/>
<path fill="none" stroke-width="0.52916" stroke-linecap="butt" stroke-linejoin="round" stroke="rgb(60%, 60%, 60%)" stroke-opacity="1" stroke-miterlimit="4" d="M 31.74925 5.356975 C 31.74925 5.829631 31.093 6.267131 30.0305 6.501506 C 28.964094 6.739788 27.6555 6.739788 26.589094 6.501506 C 25.526594 6.267131 24.870344 5.829631 24.870344 5.356975 " transform="matrix(1, 0, 0, 1, -19.843, 2.3149)"/>
<path fill="none" stroke-width="0.52916" stroke-linecap="butt" stroke-linejoin="round" stroke="rgb(60%, 60%, 60%)" stroke-opacity="1" stroke-miterlimit="4" d="M 31.74925 6.942913 C 31.74925 7.415569 31.093 7.853069 30.0305 8.09135 C 28.964094 8.325725 27.6555 8.325725 26.589094 8.09135 C 25.526594 7.853069 24.870344 7.415569 24.870344 6.942913 " transform="matrix(1, 0, 0, 1, -19.843, 2.3149)"/>
<path fill="none" stroke-width="0.52916" stroke-linecap="butt" stroke-linejoin="round" stroke="rgb(60%, 60%, 60%)" stroke-opacity="1" stroke-miterlimit="4" d="M 31.74925 8.532756 C 31.74925 9.005413 31.093 9.442913 30.0305 9.677288 C 28.964094 9.915569 27.6555 9.915569 26.589094 9.677288 C 25.526594 9.442913 24.870344 9.005413 24.870344 8.532756 " transform="matrix(1, 0, 0, 1, -19.843, 2.3149)"/>
<path fill="none" stroke-width="0.52916" stroke-linecap="butt" stroke-linejoin="miter" stroke="rgb(60%, 60%, 60%)" stroke-opacity="1" stroke-miterlimit="4" d="M 31.74925 3.704631 L 31.74925 8.532756 " transform="matrix(1, 0, 0, 1, -19.843, 2.3149)"/>
</svg>
