<?xml version="1.0" encoding="UTF-8"?>
<svg xmlns="http://www.w3.org/2000/svg" xmlns:xlink="http://www.w3.org/1999/xlink" width="64" height="64" viewBox="0 0 64 64">
<defs>
<filter id="filter-remove-color" x="0%" y="0%" width="100%" height="100%">
<feColorMatrix color-interpolation-filters="sRGB" values="0 0 0 0 1 0 0 0 0 1 0 0 0 0 1 0 0 0 1 0" />
</filter>
<mask id="mask-0">
<g filter="url(#filter-remove-color)">
<rect x="-6.4" y="-6.4" width="76.8" height="76.8" fill="rgb(0%, 0%, 0%)" fill-opacity="0.1"/>
</g>
</mask>
<linearGradient id="linear-pattern-0" gradientUnits="userSpaceOnUse" x1="49.570999" y1="52.714001" x2="51.714001" y2="54.856998" gradientTransform="matrix(0.617345, 0, 0, 0.617345, -18.167916, -19.050025)">
<stop offset="0" stop-color="rgb(0%, 0%, 0%)" stop-opacity="1"/>
<stop offset="1" stop-color="rgb(0%, 0%, 0%)" stop-opacity="0"/>
</linearGradient>
<clipPath id="clip-0">
<rect x="0" y="0" width="17" height="17"/>
</clipPath>
<g id="source-11154" clip-path="url(#clip-0)">
<path fill-rule="evenodd" fill="url(#linear-pattern-0)" d="M 14.816406 12.171875 L 11.113281 15.875 L 13.492188 15.875 C 14.226562 15.875 14.816406 15.285156 14.816406 14.550781 Z M 14.816406 12.171875 "/>
</g>
</defs>
<path fill-rule="nonzero" fill="rgb(95.686275%, 95.686275%, 95.686275%)" fill-opacity="1" d="M 3.441406 1.058594 L 13.492188 1.058594 C 14.222656 1.058594 14.816406 1.652344 14.816406 2.382812 L 14.816406 14.550781 C 14.816406 15.28125 14.222656 15.875 13.492188 15.875 L 3.441406 15.875 C 2.707031 15.875 2.117188 15.28125 2.117188 14.550781 L 2.117188 2.382812 C 2.117188 1.652344 2.707031 1.058594 3.441406 1.058594 Z M 3.441406 1.058594 "/>
<g mask="url(#mask-0)">
<use xlink:href="#source-11154"/>
</g>
<path fill-rule="nonzero" fill="rgb(19.215686%, 77.647059%, 71.764706%)" fill-opacity="1" d="M 8.375 7.472656 C 8.007812 7.566406 7.753906 7.636719 7.390625 7.730469 C 7.304688 7.753906 7.296875 7.761719 7.222656 7.671875 C 7.132812 7.574219 7.070312 7.507812 6.945312 7.449219 C 6.574219 7.269531 6.21875 7.320312 5.882812 7.539062 C 5.484375 7.796875 5.28125 8.175781 5.285156 8.652344 C 5.292969 9.121094 5.613281 9.507812 6.078125 9.574219 C 6.476562 9.625 6.8125 9.484375 7.074219 9.183594 C 7.128906 9.121094 7.175781 9.050781 7.234375 8.96875 L 6.101562 8.96875 C 5.976562 8.96875 5.949219 8.890625 5.988281 8.792969 C 6.066406 8.609375 6.207031 8.304688 6.289062 8.152344 C 6.304688 8.117188 6.347656 8.058594 6.433594 8.058594 L 8.570312 8.058594 C 8.558594 8.21875 8.558594 8.375 8.535156 8.535156 C 8.46875 8.957031 8.3125 9.34375 8.054688 9.683594 C 7.632812 10.242188 7.082031 10.585938 6.382812 10.679688 C 5.808594 10.757812 5.273438 10.644531 4.804688 10.292969 C 4.371094 9.964844 4.125 9.53125 4.0625 8.992188 C 3.984375 8.351562 4.171875 7.777344 4.558594 7.273438 C 4.976562 6.730469 5.527344 6.382812 6.199219 6.261719 C 6.75 6.160156 7.28125 6.226562 7.753906 6.546875 C 8.066406 6.753906 8.289062 7.035156 8.433594 7.375 C 8.46875 7.425781 8.445312 7.457031 8.375 7.472656 Z M 8.375 7.472656 "/>
<path fill-rule="nonzero" fill="rgb(19.215686%, 77.647059%, 71.764706%)" fill-opacity="1" d="M 10.316406 10.714844 C 9.78125 10.703125 9.296875 10.550781 8.886719 10.199219 C 8.539062 9.902344 8.324219 9.519531 8.253906 9.066406 C 8.148438 8.40625 8.328125 7.820312 8.726562 7.296875 C 9.15625 6.734375 9.671875 6.441406 10.367188 6.320312 C 10.964844 6.214844 11.527344 6.273438 12.039062 6.617188 C 12.503906 6.933594 12.789062 7.363281 12.867188 7.925781 C 12.964844 8.714844 12.738281 9.363281 12.191406 9.914062 C 11.804688 10.304688 11.328125 10.550781 10.785156 10.664062 C 10.625 10.691406 10.46875 10.699219 10.316406 10.714844 Z M 11.710938 8.347656 C 11.703125 8.269531 11.703125 8.210938 11.691406 8.152344 C 11.585938 7.574219 11.054688 7.246094 10.496094 7.375 C 9.953125 7.496094 9.601562 7.84375 9.472656 8.394531 C 9.367188 8.851562 9.589844 9.316406 10.011719 9.503906 C 10.332031 9.644531 10.65625 9.625 10.964844 9.46875 C 11.429688 9.226562 11.679688 8.851562 11.710938 8.347656 Z M 11.710938 8.347656 "/>
</svg>
