<?xml version="1.0" encoding="UTF-8"?>
<svg xmlns="http://www.w3.org/2000/svg" xmlns:xlink="http://www.w3.org/1999/xlink" width="64" height="64" viewBox="0 0 64 64">
<path fill-rule="nonzero" fill="rgb(89.019608%, 90.196078%, 96.078431%)" fill-opacity="1" d="M 1.058594 4.496094 L 1.058594 14.550781 C 1.058594 15.136719 1.53125 15.609375 2.117188 15.609375 L 14.816406 15.609375 C 15.402344 15.609375 15.875 15.136719 15.875 14.550781 L 15.875 4.496094 Z M 1.058594 4.496094 "/>
<path fill-rule="nonzero" fill="rgb(24.705882%, 31.764706%, 70.980392%)" fill-opacity="1" d="M 2.117188 1.058594 C 1.53125 1.058594 1.058594 1.53125 1.058594 2.117188 L 1.058594 4.761719 L 15.875 4.761719 L 15.875 2.117188 C 15.875 1.53125 15.402344 1.058594 14.816406 1.058594 Z M 2.117188 1.058594 "/>
<path fill-rule="nonzero" fill="rgb(100%, 100%, 100%)" fill-opacity="1" d="M 3.703125 3.175781 C 3.703125 3.46875 3.46875 3.703125 3.175781 3.703125 C 2.882812 3.703125 2.644531 3.46875 2.644531 3.175781 C 2.644531 2.882812 2.882812 2.644531 3.175781 2.644531 C 3.46875 2.644531 3.703125 2.882812 3.703125 3.175781 Z M 3.703125 3.175781 "/>
<path fill-rule="nonzero" fill="rgb(100%, 100%, 100%)" fill-opacity="1" d="M 14.289062 3.175781 C 14.289062 3.46875 14.050781 3.703125 13.757812 3.703125 C 13.464844 3.703125 13.230469 3.46875 13.230469 3.175781 C 13.230469 2.882812 13.464844 2.644531 13.757812 2.644531 C 14.050781 2.644531 14.289062 2.882812 14.289062 3.175781 Z M 14.289062 3.175781 "/>
</svg>
