<?xml version="1.0" encoding="UTF-8"?>
<svg xmlns="http://www.w3.org/2000/svg" xmlns:xlink="http://www.w3.org/1999/xlink" width="64" height="64" viewBox="0 0 64 64">
<defs>
<filter id="filter-remove-color" x="0%" y="0%" width="100%" height="100%">
<feColorMatrix color-interpolation-filters="sRGB" values="0 0 0 0 1 0 0 0 0 1 0 0 0 0 1 0 0 0 1 0" />
</filter>
<mask id="mask-0">
<g filter="url(#filter-remove-color)">
<rect x="-6.4" y="-6.4" width="76.8" height="76.8" fill="rgb(0%, 0%, 0%)" fill-opacity="0.1"/>
</g>
</mask>
<linearGradient id="linear-pattern-0" gradientUnits="userSpaceOnUse" x1="49.570999" y1="52.714001" x2="51.714001" y2="54.856998" gradientTransform="matrix(0.617345, 0, 0, 0.617345, -18.167916, -19.050025)">
<stop offset="0" stop-color="rgb(0%, 0%, 0%)" stop-opacity="1"/>
<stop offset="1" stop-color="rgb(0%, 0%, 0%)" stop-opacity="0"/>
</linearGradient>
<clipPath id="clip-0">
<rect x="0" y="0" width="17" height="17"/>
</clipPath>
<g id="source-3410" clip-path="url(#clip-0)">
<path fill-rule="evenodd" fill="url(#linear-pattern-0)" d="M 14.816406 12.171875 L 11.113281 15.875 L 13.492188 15.875 C 14.226562 15.875 14.816406 15.285156 14.816406 14.550781 Z M 14.816406 12.171875 "/>
</g>
</defs>
<path fill-rule="nonzero" fill="rgb(95.686275%, 95.686275%, 95.686275%)" fill-opacity="1" d="M 3.441406 1.058594 L 13.492188 1.058594 C 14.222656 1.058594 14.816406 1.652344 14.816406 2.382812 L 14.816406 14.550781 C 14.816406 15.28125 14.222656 15.875 13.492188 15.875 L 3.441406 15.875 C 2.707031 15.875 2.117188 15.28125 2.117188 14.550781 L 2.117188 2.382812 C 2.117188 1.652344 2.707031 1.058594 3.441406 1.058594 Z M 3.441406 1.058594 "/>
<g mask="url(#mask-0)">
<use xlink:href="#source-3410"/>
</g>
<path fill-rule="nonzero" fill="rgb(0%, 47.843137%, 80%)" fill-opacity="1" d="M 6.382812 6.613281 L 6.382812 12.171875 L 5.265625 12.171875 L 5.265625 6.613281 L 3.441406 6.613281 L 3.441406 5.554688 L 8.199219 5.554688 L 8.199219 6.613281 Z M 8.464844 10.949219 L 9.367188 10.554688 C 9.453125 10.847656 9.609375 11.070312 9.835938 11.226562 C 10.066406 11.378906 10.355469 11.453125 10.710938 11.453125 C 11.046875 11.453125 11.3125 11.367188 11.507812 11.191406 C 11.707031 11.015625 11.808594 10.777344 11.808594 10.484375 C 11.808594 10.097656 11.46875 9.753906 10.792969 9.453125 C 10.71875 9.417969 10.644531 9.386719 10.574219 9.355469 C 9.808594 9.003906 9.347656 8.683594 9.09375 8.398438 C 8.839844 8.109375 8.703125 7.738281 8.714844 7.351562 C 8.714844 6.816406 8.90625 6.386719 9.289062 6.054688 C 9.671875 5.722656 10.175781 5.554688 10.800781 5.554688 C 11.3125 5.554688 11.742188 5.648438 12.085938 5.839844 C 12.429688 6.023438 12.671875 6.292969 12.804688 6.640625 L 11.921875 7.070312 C 11.804688 6.886719 11.648438 6.730469 11.460938 6.617188 C 11.289062 6.519531 11.089844 6.46875 10.890625 6.472656 C 10.585938 6.472656 10.34375 6.550781 10.164062 6.699219 C 9.988281 6.847656 9.890625 7.066406 9.898438 7.296875 C 9.898438 7.691406 10.292969 8.058594 11.078125 8.398438 L 11.21875 8.464844 C 11.90625 8.761719 12.324219 9.054688 12.578125 9.339844 C 12.835938 9.625 12.964844 9.980469 12.964844 10.40625 C 12.964844 11.027344 12.757812 11.523438 12.34375 11.890625 C 11.929688 12.253906 11.367188 12.433594 10.664062 12.433594 C 10.074219 12.433594 9.585938 12.308594 9.207031 12.050781 C 8.832031 11.792969 8.582031 11.425781 8.464844 10.949219 Z M 8.464844 10.949219 "/>
</svg>
