<?xml version="1.0" encoding="UTF-8"?>
<svg xmlns="http://www.w3.org/2000/svg" xmlns:xlink="http://www.w3.org/1999/xlink" width="64" height="64" viewBox="0 0 64 64">
<defs>
<filter id="filter-remove-color" x="0%" y="0%" width="100%" height="100%">
<feColorMatrix color-interpolation-filters="sRGB" values="0 0 0 0 1 0 0 0 0 1 0 0 0 0 1 0 0 0 1 0" />
</filter>
<mask id="mask-0">
<g filter="url(#filter-remove-color)">
<rect x="-6.4" y="-6.4" width="76.8" height="76.8" fill="rgb(0%, 0%, 0%)" fill-opacity="0.1"/>
</g>
</mask>
<linearGradient id="linear-pattern-0" gradientUnits="userSpaceOnUse" x1="49.570999" y1="52.714001" x2="51.714001" y2="54.856998" gradientTransform="matrix(0.617345, 0, 0, 0.617345, -18.167916, -19.050025)">
<stop offset="0" stop-color="rgb(0%, 0%, 0%)" stop-opacity="1"/>
<stop offset="1" stop-color="rgb(0%, 0%, 0%)" stop-opacity="0"/>
</linearGradient>
<clipPath id="clip-0">
<rect x="0" y="0" width="17" height="17"/>
</clipPath>
<g id="source-4299" clip-path="url(#clip-0)">
<path fill-rule="evenodd" fill="url(#linear-pattern-0)" d="M 14.816406 12.171875 L 11.113281 15.875 L 13.492188 15.875 C 14.226562 15.875 14.816406 15.285156 14.816406 14.550781 Z M 14.816406 12.171875 "/>
</g>
</defs>
<path fill-rule="nonzero" fill="rgb(95.686275%, 95.686275%, 95.686275%)" fill-opacity="1" d="M 3.441406 1.058594 L 13.492188 1.058594 C 14.222656 1.058594 14.816406 1.652344 14.816406 2.382812 L 14.816406 14.550781 C 14.816406 15.28125 14.222656 15.875 13.492188 15.875 L 3.441406 15.875 C 2.707031 15.875 2.117188 15.28125 2.117188 14.550781 L 2.117188 2.382812 C 2.117188 1.652344 2.707031 1.058594 3.441406 1.058594 Z M 3.441406 1.058594 "/>
<g mask="url(#mask-0)">
<use xlink:href="#source-4299"/>
</g>
<path fill-rule="nonzero" fill="rgb(10.196078%, 49.803922%, 83.137255%)" fill-opacity="1" d="M 10.960938 6.070312 C 11.226562 6.136719 11.433594 6.257812 11.621094 6.449219 C 11.71875 6.554688 11.863281 6.746094 11.875 6.789062 C 11.878906 6.804688 11.417969 7.113281 11.140625 7.285156 C 11.128906 7.289062 11.089844 7.246094 11.042969 7.179688 C 10.90625 6.980469 10.765625 6.898438 10.546875 6.882812 C 10.226562 6.859375 10.019531 7.027344 10.023438 7.308594 C 10.023438 7.390625 10.035156 7.4375 10.066406 7.503906 C 10.136719 7.652344 10.269531 7.738281 10.679688 7.917969 C 11.4375 8.242188 11.757812 8.457031 11.960938 8.761719 C 12.183594 9.101562 12.234375 9.644531 12.082031 10.046875 C 11.914062 10.488281 11.5 10.785156 10.914062 10.886719 C 10.734375 10.917969 10.304688 10.910156 10.109375 10.875 C 9.6875 10.800781 9.285156 10.589844 9.035156 10.316406 C 8.9375 10.210938 8.75 9.929688 8.761719 9.910156 C 8.765625 9.902344 8.808594 9.875 8.859375 9.847656 C 8.90625 9.820312 9.082031 9.71875 9.25 9.621094 L 9.554688 9.445312 L 9.617188 9.539062 C 9.707031 9.675781 9.902344 9.859375 10.019531 9.921875 C 10.355469 10.101562 10.816406 10.074219 11.046875 9.871094 C 11.144531 9.78125 11.183594 9.691406 11.183594 9.554688 C 11.183594 9.429688 11.167969 9.378906 11.105469 9.285156 C 11.023438 9.167969 10.855469 9.070312 10.378906 8.863281 C 9.832031 8.628906 9.597656 8.484375 9.382812 8.25 C 9.261719 8.117188 9.144531 7.902344 9.09375 7.722656 C 9.054688 7.574219 9.042969 7.199219 9.074219 7.050781 C 9.1875 6.523438 9.585938 6.15625 10.160156 6.046875 C 10.34375 6.011719 10.777344 6.023438 10.960938 6.070312 Z M 8.480469 6.511719 L 8.484375 6.945312 L 7.109375 6.945312 L 7.109375 10.851562 L 6.136719 10.851562 L 6.136719 6.945312 L 4.761719 6.945312 L 4.761719 6.519531 C 4.761719 6.285156 4.769531 6.089844 4.773438 6.082031 C 4.78125 6.078125 5.617188 6.074219 6.628906 6.074219 L 8.476562 6.082031 Z M 8.480469 6.511719 "/>
</svg>
