<?xml version="1.0" encoding="UTF-8"?>
<svg xmlns="http://www.w3.org/2000/svg" xmlns:xlink="http://www.w3.org/1999/xlink" width="64" height="64" viewBox="0 0 64 64">
<defs>
<filter id="filter-remove-color" x="0%" y="0%" width="100%" height="100%">
<feColorMatrix color-interpolation-filters="sRGB" values="0 0 0 0 1 0 0 0 0 1 0 0 0 0 1 0 0 0 1 0" />
</filter>
<mask id="mask-0">
<g filter="url(#filter-remove-color)">
<rect x="-6.4" y="-6.4" width="76.8" height="76.8" fill="rgb(0%, 0%, 0%)" fill-opacity="0.1"/>
</g>
</mask>
<linearGradient id="linear-pattern-0" gradientUnits="userSpaceOnUse" x1="49.570999" y1="52.714001" x2="51.714001" y2="54.856998" gradientTransform="matrix(0.617345, 0, 0, 0.617345, -18.167916, -19.050025)">
<stop offset="0" stop-color="rgb(0%, 0%, 0%)" stop-opacity="1"/>
<stop offset="1" stop-color="rgb(0%, 0%, 0%)" stop-opacity="0"/>
</linearGradient>
<clipPath id="clip-0">
<rect x="0" y="0" width="17" height="17"/>
</clipPath>
<g id="source-4073" clip-path="url(#clip-0)">
<path fill-rule="evenodd" fill="url(#linear-pattern-0)" d="M 14.816406 12.171875 L 11.113281 15.875 L 13.492188 15.875 C 14.226562 15.875 14.816406 15.285156 14.816406 14.550781 Z M 14.816406 12.171875 "/>
</g>
</defs>
<path fill-rule="nonzero" fill="rgb(95.686275%, 95.686275%, 95.686275%)" fill-opacity="1" d="M 3.441406 1.058594 L 13.492188 1.058594 C 14.222656 1.058594 14.816406 1.652344 14.816406 2.382812 L 14.816406 14.550781 C 14.816406 15.28125 14.222656 15.875 13.492188 15.875 L 3.441406 15.875 C 2.707031 15.875 2.117188 15.28125 2.117188 14.550781 L 2.117188 2.382812 C 2.117188 1.652344 2.707031 1.058594 3.441406 1.058594 Z M 3.441406 1.058594 "/>
<g mask="url(#mask-0)">
<use xlink:href="#source-4073"/>
</g>
<path fill-rule="nonzero" fill="rgb(13.72549%, 30.196078%, 72.156863%)" fill-opacity="1" d="M 4.695312 10.421875 C 4.460938 10.371094 4.332031 10.277344 4.257812 10.113281 C 4.222656 10.035156 4.21875 9.976562 4.207031 9.507812 C 4.199219 9.015625 4.195312 8.984375 4.152344 8.898438 C 4.101562 8.789062 3.996094 8.734375 3.824219 8.71875 L 3.703125 8.707031 L 3.703125 8.246094 L 3.828125 8.234375 C 4.003906 8.21875 4.105469 8.164062 4.15625 8.066406 C 4.191406 7.996094 4.195312 7.953125 4.199219 7.695312 C 4.214844 6.988281 4.21875 6.914062 4.25 6.835938 C 4.296875 6.734375 4.363281 6.664062 4.472656 6.609375 C 4.644531 6.519531 4.746094 6.503906 5.222656 6.492188 L 5.675781 6.484375 L 5.679688 7.78125 C 5.683594 9.039062 5.6875 9.085938 5.722656 9.15625 C 5.789062 9.289062 5.835938 9.308594 6.074219 9.308594 L 6.285156 9.308594 L 6.296875 9.390625 C 6.304688 9.4375 6.308594 9.523438 6.308594 9.582031 L 6.308594 9.691406 L 6.144531 9.714844 C 6.054688 9.726562 5.910156 9.734375 5.816406 9.726562 C 5.519531 9.710938 5.335938 9.605469 5.238281 9.402344 C 5.144531 9.210938 5.136719 9.097656 5.136719 7.960938 L 5.136719 6.917969 L 5.039062 6.929688 C 4.898438 6.949219 4.828125 6.988281 4.789062 7.070312 C 4.761719 7.128906 4.753906 7.203125 4.746094 7.609375 C 4.738281 8.050781 4.734375 8.085938 4.695312 8.167969 C 4.640625 8.28125 4.59375 8.324219 4.429688 8.410156 L 4.296875 8.480469 L 4.40625 8.523438 C 4.542969 8.574219 4.636719 8.652344 4.691406 8.765625 C 4.734375 8.851562 4.738281 8.878906 4.746094 9.335938 C 4.757812 9.855469 4.761719 9.890625 4.863281 9.964844 C 4.890625 9.988281 4.953125 10.007812 5.015625 10.011719 L 5.160156 10.019531 L 5.160156 10.449219 L 4.964844 10.449219 C 4.878906 10.449219 4.757812 10.4375 4.695312 10.421875 Z M 11.773438 10.234375 L 11.773438 10.015625 L 11.902344 10.015625 C 12.023438 10.015625 12.113281 9.96875 12.160156 9.875 C 12.191406 9.808594 12.195312 9.75 12.207031 9.316406 C 12.214844 8.867188 12.21875 8.832031 12.257812 8.757812 C 12.308594 8.664062 12.382812 8.601562 12.539062 8.53125 L 12.652344 8.476562 L 12.546875 8.429688 C 12.421875 8.378906 12.3125 8.28125 12.253906 8.175781 C 12.21875 8.105469 12.214844 8.066406 12.207031 7.621094 C 12.195312 7.179688 12.191406 7.132812 12.15625 7.070312 C 12.113281 6.996094 12.027344 6.945312 11.902344 6.929688 L 11.773438 6.917969 L 11.773438 6.480469 L 12 6.496094 C 12.410156 6.519531 12.613281 6.632812 12.703125 6.867188 C 12.726562 6.933594 12.734375 7.058594 12.742188 7.476562 C 12.753906 7.960938 12.757812 8.011719 12.792969 8.074219 C 12.839844 8.15625 12.972656 8.222656 13.117188 8.238281 L 13.230469 8.246094 L 13.230469 8.707031 L 13.109375 8.71875 C 12.957031 8.730469 12.84375 8.792969 12.792969 8.894531 C 12.757812 8.960938 12.753906 9.011719 12.742188 9.488281 C 12.730469 10.046875 12.722656 10.105469 12.625 10.234375 C 12.53125 10.359375 12.257812 10.449219 11.96875 10.449219 L 11.773438 10.449219 Z M 7.203125 9.742188 C 7.175781 9.738281 7.105469 9.722656 7.042969 9.710938 C 6.890625 9.683594 6.652344 9.566406 6.546875 9.460938 C 6.355469 9.277344 6.25 9.046875 6.214844 8.730469 C 6.171875 8.371094 6.246094 8.011719 6.414062 7.765625 C 6.554688 7.554688 6.769531 7.410156 7.011719 7.359375 C 7.136719 7.332031 7.414062 7.332031 7.539062 7.355469 C 7.796875 7.410156 8.011719 7.578125 8.132812 7.816406 C 8.230469 8.007812 8.261719 8.15625 8.261719 8.425781 L 8.261719 8.65625 L 6.738281 8.65625 L 6.746094 8.726562 C 6.777344 8.960938 6.835938 9.082031 6.96875 9.203125 C 7.085938 9.304688 7.1875 9.335938 7.40625 9.335938 C 7.609375 9.335938 7.816406 9.292969 7.992188 9.207031 L 8.105469 9.152344 L 8.179688 9.542969 L 8.058594 9.601562 C 7.988281 9.632812 7.867188 9.675781 7.789062 9.695312 C 7.648438 9.730469 7.300781 9.757812 7.203125 9.742188 Z M 7.753906 8.195312 C 7.734375 7.949219 7.605469 7.78125 7.402344 7.730469 C 7.085938 7.65625 6.820312 7.867188 6.761719 8.238281 L 6.75 8.316406 L 7.765625 8.316406 Z M 8.9375 9.734375 C 8.660156 9.703125 8.367188 9.601562 8.382812 9.546875 C 8.386719 9.53125 8.398438 9.4375 8.410156 9.339844 C 8.425781 9.246094 8.4375 9.167969 8.441406 9.167969 C 8.445312 9.167969 8.480469 9.183594 8.523438 9.203125 C 8.738281 9.316406 9.164062 9.386719 9.339844 9.335938 C 9.503906 9.292969 9.597656 9.132812 9.539062 8.992188 C 9.5 8.898438 9.414062 8.847656 9.078125 8.707031 C 8.753906 8.574219 8.636719 8.503906 8.523438 8.382812 C 8.339844 8.179688 8.347656 7.757812 8.542969 7.5625 C 8.710938 7.390625 8.929688 7.328125 9.320312 7.34375 C 9.589844 7.351562 9.734375 7.378906 9.933594 7.460938 L 10.007812 7.488281 L 9.941406 7.671875 C 9.90625 7.773438 9.875 7.855469 9.875 7.859375 C 9.871094 7.859375 9.804688 7.839844 9.722656 7.808594 C 9.257812 7.644531 8.894531 7.707031 8.894531 7.957031 C 8.894531 8.074219 9 8.148438 9.351562 8.28125 C 9.738281 8.425781 9.914062 8.542969 10.007812 8.722656 C 10.050781 8.808594 10.058594 8.835938 10.058594 9.027344 C 10.058594 9.214844 10.050781 9.242188 10.003906 9.339844 C 9.917969 9.519531 9.753906 9.644531 9.535156 9.703125 C 9.402344 9.738281 9.109375 9.753906 8.9375 9.734375 Z M 10.722656 9.734375 C 10.546875 9.714844 10.417969 9.683594 10.277344 9.625 L 10.167969 9.582031 L 10.195312 9.378906 C 10.207031 9.265625 10.222656 9.171875 10.226562 9.171875 C 10.226562 9.167969 10.265625 9.183594 10.304688 9.203125 C 10.523438 9.316406 10.949219 9.386719 11.125 9.339844 C 11.238281 9.304688 11.332031 9.214844 11.34375 9.117188 C 11.367188 8.949219 11.269531 8.867188 10.855469 8.703125 C 10.316406 8.488281 10.160156 8.3125 10.183594 7.941406 C 10.199219 7.628906 10.371094 7.445312 10.710938 7.363281 C 10.808594 7.339844 10.902344 7.335938 11.109375 7.34375 C 11.378906 7.351562 11.480469 7.371094 11.6875 7.449219 L 11.796875 7.488281 L 11.730469 7.671875 C 11.695312 7.769531 11.664062 7.855469 11.660156 7.855469 C 11.660156 7.859375 11.574219 7.832031 11.46875 7.796875 C 11.140625 7.6875 10.878906 7.691406 10.75 7.808594 C 10.699219 7.851562 10.691406 7.875 10.691406 7.945312 C 10.691406 8.085938 10.753906 8.132812 11.183594 8.300781 C 11.714844 8.503906 11.867188 8.675781 11.847656 9.058594 C 11.839844 9.277344 11.789062 9.398438 11.667969 9.515625 C 11.5625 9.613281 11.464844 9.667969 11.320312 9.703125 C 11.1875 9.738281 10.894531 9.753906 10.722656 9.734375 Z M 10.722656 9.734375 "/>
</svg>
