<?xml version="1.0" encoding="UTF-8"?>
<svg xmlns="http://www.w3.org/2000/svg" xmlns:xlink="http://www.w3.org/1999/xlink" width="64" height="64" viewBox="0 0 64 64">
<defs>
<filter id="filter-remove-color" x="0%" y="0%" width="100%" height="100%">
<feColorMatrix color-interpolation-filters="sRGB" values="0 0 0 0 1 0 0 0 0 1 0 0 0 0 1 0 0 0 1 0" />
</filter>
<mask id="mask-0">
<g filter="url(#filter-remove-color)">
<rect x="-6.4" y="-6.4" width="76.8" height="76.8" fill="rgb(0%, 0%, 0%)" fill-opacity="0.1"/>
</g>
</mask>
<linearGradient id="linear-pattern-0" gradientUnits="userSpaceOnUse" x1="49.570999" y1="52.714001" x2="51.714001" y2="54.856998" gradientTransform="matrix(2.3333, 0, 0, 2.3333, -68.667, -72.000999)">
<stop offset="0" stop-color="rgb(0%, 0%, 0%)" stop-opacity="1"/>
<stop offset="1" stop-color="rgb(0%, 0%, 0%)" stop-opacity="0"/>
</linearGradient>
<clipPath id="clip-0">
<rect x="0" y="0" width="64" height="64"/>
</clipPath>
<g id="source-13152" clip-path="url(#clip-0)">
<path fill-rule="evenodd" fill="url(#linear-pattern-0)" d="M 56 46 L 42 60 L 51 60 C 53.769531 60 56 57.769531 56 55 Z M 56 46 "/>
</g>
</defs>
<path fill-rule="nonzero" fill="rgb(95.686275%, 95.686275%, 95.686275%)" fill-opacity="1" d="M 13 4 L 51 4 C 53.761719 4 56 6.238281 56 9 L 56 55 C 56 57.761719 53.761719 60 51 60 L 13 60 C 10.238281 60 8 57.761719 8 55 L 8 9 C 8 6.238281 10.238281 4 13 4 Z M 13 4 "/>
<g mask="url(#mask-0)">
<use xlink:href="#source-13152"/>
</g>
<path fill-rule="nonzero" fill="rgb(90.196078%, 26.666667%, 42.745098%)" fill-opacity="1" d="M 32.246094 22.667969 L 32.246094 31.6875 L 36.332031 31.6875 C 37.839844 31.6875 39.007812 31.296875 39.835938 30.511719 C 40.660156 29.730469 41.074219 28.617188 41.074219 27.167969 C 41.074219 25.734375 40.660156 24.625 39.835938 23.839844 C 39.007812 23.058594 37.839844 22.667969 36.332031 22.667969 Z M 29 20 L 36.332031 20 C 39.019531 20 41.050781 20.609375 42.421875 21.832031 C 43.804688 23.042969 44.496094 24.820312 44.496094 27.167969 C 44.496094 29.539062 43.804688 31.328125 42.421875 32.539062 C 41.050781 33.75 39.019531 34.355469 36.332031 34.355469 L 32.246094 34.355469 L 32.246094 44 L 29 44 Z M 29 20 "/>
<path fill-rule="nonzero" fill="rgb(90.196078%, 26.666667%, 42.745098%)" fill-opacity="1" d="M 25 30.5 C 25 31.328125 24.328125 32 23.5 32 C 22.671875 32 22 31.328125 22 30.5 C 22 29.671875 22.671875 29 23.5 29 C 24.328125 29 25 29.671875 25 30.5 Z M 25 30.5 "/>
</svg>
