<?xml version="1.0" encoding="UTF-8"?>
<svg xmlns="http://www.w3.org/2000/svg" xmlns:xlink="http://www.w3.org/1999/xlink" width="64" height="64" viewBox="0 0 64 64">
<defs>
<filter id="filter-remove-color" x="0%" y="0%" width="100%" height="100%">
<feColorMatrix color-interpolation-filters="sRGB" values="0 0 0 0 1 0 0 0 0 1 0 0 0 0 1 0 0 0 1 0" />
</filter>
<mask id="mask-0">
<g filter="url(#filter-remove-color)">
<rect x="-6.4" y="-6.4" width="76.8" height="76.8" fill="rgb(0%, 0%, 0%)" fill-opacity="0.1"/>
</g>
</mask>
<linearGradient id="linear-pattern-0" gradientUnits="userSpaceOnUse" x1="49.570999" y1="52.714001" x2="51.714001" y2="54.856998" gradientTransform="matrix(0.617345, 0, 0, 0.617345, -18.167916, -19.050025)">
<stop offset="0" stop-color="rgb(0%, 0%, 0%)" stop-opacity="1"/>
<stop offset="1" stop-color="rgb(0%, 0%, 0%)" stop-opacity="0"/>
</linearGradient>
<clipPath id="clip-0">
<rect x="0" y="0" width="17" height="17"/>
</clipPath>
<g id="source-5336" clip-path="url(#clip-0)">
<path fill-rule="evenodd" fill="url(#linear-pattern-0)" d="M 14.816406 12.171875 L 11.113281 15.875 L 13.492188 15.875 C 14.226562 15.875 14.816406 15.285156 14.816406 14.550781 Z M 14.816406 12.171875 "/>
</g>
</defs>
<path fill-rule="nonzero" fill="rgb(95.686275%, 95.686275%, 95.686275%)" fill-opacity="1" d="M 3.441406 1.058594 L 13.492188 1.058594 C 14.222656 1.058594 14.816406 1.652344 14.816406 2.382812 L 14.816406 14.550781 C 14.816406 15.28125 14.222656 15.875 13.492188 15.875 L 3.441406 15.875 C 2.707031 15.875 2.117188 15.28125 2.117188 14.550781 L 2.117188 2.382812 C 2.117188 1.652344 2.707031 1.058594 3.441406 1.058594 Z M 3.441406 1.058594 "/>
<g mask="url(#mask-0)">
<use xlink:href="#source-5336"/>
</g>
<path fill-rule="nonzero" fill="rgb(85.490196%, 8.627451%, 21.176471%)" fill-opacity="1" d="M 6.214844 4.628906 L 6.214844 12.304688 L 7.542969 12.304688 C 7.546875 11.304688 7.535156 10.300781 7.554688 9.304688 C 7.585938 8.832031 7.613281 8.234375 8.058594 7.976562 C 8.304688 7.835938 8.636719 7.800781 8.90625 7.890625 C 9.304688 8.019531 9.371094 8.53125 9.386719 8.902344 C 9.394531 10.035156 9.390625 11.167969 9.390625 12.304688 L 10.714844 12.304688 C 10.710938 11.027344 10.722656 9.742188 10.714844 8.464844 C 10.699219 7.828125 10.4375 7.125 9.824219 6.832031 C 9.300781 6.582031 8.679688 6.65625 8.148438 6.859375 C 7.898438 6.953125 7.554688 7.417969 7.554688 7.417969 C 7.550781 6.488281 7.546875 5.558594 7.542969 4.628906 Z M 6.214844 4.628906 "/>
</svg>
