<?xml version="1.0" encoding="UTF-8"?>
<svg xmlns="http://www.w3.org/2000/svg" xmlns:xlink="http://www.w3.org/1999/xlink" width="64" height="64" viewBox="0 0 64 64">
<defs>
<filter id="filter-remove-color" x="0%" y="0%" width="100%" height="100%">
<feColorMatrix color-interpolation-filters="sRGB" values="0 0 0 0 1 0 0 0 0 1 0 0 0 0 1 0 0 0 1 0" />
</filter>
<mask id="mask-0">
<g filter="url(#filter-remove-color)">
<rect x="-6.4" y="-6.4" width="76.8" height="76.8" fill="rgb(0%, 0%, 0%)" fill-opacity="0.1"/>
</g>
</mask>
<linearGradient id="linear-pattern-0" gradientUnits="userSpaceOnUse" x1="49.570999" y1="52.714001" x2="51.714001" y2="54.856998" gradientTransform="matrix(0.617345, 0, 0, 0.617345, -18.167916, -19.050025)">
<stop offset="0" stop-color="rgb(0%, 0%, 0%)" stop-opacity="1"/>
<stop offset="1" stop-color="rgb(0%, 0%, 0%)" stop-opacity="0"/>
</linearGradient>
<clipPath id="clip-0">
<rect x="0" y="0" width="17" height="17"/>
</clipPath>
<g id="source-8882" clip-path="url(#clip-0)">
<path fill-rule="evenodd" fill="url(#linear-pattern-0)" d="M 14.816406 12.171875 L 11.113281 15.875 L 13.492188 15.875 C 14.226562 15.875 14.816406 15.285156 14.816406 14.550781 Z M 14.816406 12.171875 "/>
</g>
</defs>
<path fill-rule="nonzero" fill="rgb(95.686275%, 95.686275%, 95.686275%)" fill-opacity="1" d="M 3.441406 1.058594 L 13.492188 1.058594 C 14.222656 1.058594 14.816406 1.652344 14.816406 2.382812 L 14.816406 14.550781 C 14.816406 15.28125 14.222656 15.875 13.492188 15.875 L 3.441406 15.875 C 2.707031 15.875 2.117188 15.28125 2.117188 14.550781 L 2.117188 2.382812 C 2.117188 1.652344 2.707031 1.058594 3.441406 1.058594 Z M 3.441406 1.058594 "/>
<g mask="url(#mask-0)">
<use xlink:href="#source-8882"/>
</g>
<path fill-rule="evenodd" fill="rgb(24.705882%, 31.764706%, 70.980392%)" fill-opacity="1" d="M 9.460938 8.929688 C 9.460938 8.929688 9.765625 9.019531 9.945312 9.109375 C 10.003906 9.140625 10.109375 9.203125 10.1875 9.285156 C 10.261719 9.363281 10.300781 9.445312 10.300781 9.445312 L 11.515625 11.640625 L 9.300781 11.640625 L 8.394531 9.976562 C 8.394531 9.976562 8.207031 9.65625 8.09375 9.5625 C 8 9.484375 7.957031 9.457031 7.863281 9.457031 L 7.402344 9.457031 L 7.402344 11.640625 L 5.417969 11.640625 L 5.417969 5.292969 L 8.492188 5.292969 C 9.585938 5.292969 11.027344 5.617188 11.027344 7.113281 C 11.027344 8.605469 9.460938 8.929688 9.460938 8.929688 Z M 7.402344 6.480469 L 7.402344 8.070312 L 8.34375 8.070312 C 8.34375 8.070312 9.074219 8.070312 9.125 7.292969 C 9.171875 6.480469 8.34375 6.484375 8.34375 6.484375 Z M 7.402344 6.480469 "/>
</svg>
