<?xml version="1.0" encoding="UTF-8"?>
<svg xmlns="http://www.w3.org/2000/svg" xmlns:xlink="http://www.w3.org/1999/xlink" width="64" height="64" viewBox="0 0 64 64">
<defs>
<filter id="filter-remove-color" x="0%" y="0%" width="100%" height="100%">
<feColorMatrix color-interpolation-filters="sRGB" values="0 0 0 0 1 0 0 0 0 1 0 0 0 0 1 0 0 0 1 0" />
</filter>
<mask id="mask-0">
<g filter="url(#filter-remove-color)">
<rect x="-6.4" y="-6.4" width="76.8" height="76.8" fill="rgb(0%, 0%, 0%)" fill-opacity="0.1"/>
</g>
</mask>
<linearGradient id="linear-pattern-0" gradientUnits="userSpaceOnUse" x1="49.570999" y1="52.714001" x2="51.714001" y2="54.856998" gradientTransform="matrix(0.617345, 0, 0, 0.617345, -18.167916, -19.050025)">
<stop offset="0" stop-color="rgb(0%, 0%, 0%)" stop-opacity="1"/>
<stop offset="1" stop-color="rgb(0%, 0%, 0%)" stop-opacity="0"/>
</linearGradient>
<clipPath id="clip-0">
<rect x="0" y="0" width="17" height="17"/>
</clipPath>
<g id="source-500" clip-path="url(#clip-0)">
<path fill-rule="evenodd" fill="url(#linear-pattern-0)" d="M 14.816406 12.171875 L 11.113281 15.875 L 13.492188 15.875 C 14.226562 15.875 14.816406 15.285156 14.816406 14.550781 Z M 14.816406 12.171875 "/>
</g>
</defs>
<path fill-rule="nonzero" fill="rgb(95.686275%, 95.686275%, 95.686275%)" fill-opacity="1" d="M 3.441406 1.058594 L 13.492188 1.058594 C 14.222656 1.058594 14.816406 1.652344 14.816406 2.382812 L 14.816406 14.550781 C 14.816406 15.28125 14.222656 15.875 13.492188 15.875 L 3.441406 15.875 C 2.707031 15.875 2.117188 15.28125 2.117188 14.550781 L 2.117188 2.382812 C 2.117188 1.652344 2.707031 1.058594 3.441406 1.058594 Z M 3.441406 1.058594 "/>
<g mask="url(#mask-0)">
<use xlink:href="#source-500"/>
</g>
<path fill-rule="nonzero" fill="rgb(40%, 40%, 40%)" fill-opacity="1" d="M 8.46875 4.496094 C 8.429688 4.496094 8.390625 4.515625 8.371094 4.546875 L 8.164062 4.882812 L 8.066406 4.890625 L 7.796875 4.605469 C 7.742188 4.546875 7.632812 4.566406 7.605469 4.644531 L 7.46875 5.007812 L 7.375 5.039062 L 7.058594 4.808594 C 6.992188 4.761719 6.890625 4.804688 6.878906 4.882812 L 6.8125 5.269531 L 6.726562 5.316406 L 6.371094 5.15625 C 6.296875 5.121094 6.207031 5.183594 6.207031 5.261719 L 6.222656 5.65625 L 6.148438 5.71875 L 5.765625 5.628906 C 5.6875 5.609375 5.609375 5.6875 5.628906 5.765625 L 5.71875 6.148438 L 5.65625 6.222656 L 5.261719 6.207031 C 5.183594 6.207031 5.121094 6.296875 5.15625 6.371094 L 5.316406 6.726562 L 5.269531 6.8125 L 4.882812 6.878906 C 4.804688 6.890625 4.761719 6.992188 4.808594 7.058594 L 5.039062 7.375 L 5.007812 7.46875 L 4.644531 7.605469 C 4.570312 7.632812 4.546875 7.742188 4.605469 7.796875 L 4.890625 8.066406 L 4.882812 8.164062 L 4.546875 8.367188 C 4.480469 8.410156 4.480469 8.523438 4.546875 8.5625 L 4.882812 8.769531 L 4.890625 8.867188 L 4.605469 9.136719 C 4.546875 9.191406 4.570312 9.296875 4.644531 9.328125 L 5.007812 9.464844 L 5.039062 9.558594 L 4.808594 9.875 C 4.761719 9.941406 4.804688 10.042969 4.882812 10.054688 L 5.269531 10.117188 L 5.316406 10.207031 L 5.15625 10.5625 C 5.121094 10.632812 5.183594 10.726562 5.261719 10.722656 L 5.65625 10.710938 L 5.71875 10.785156 L 5.628906 11.167969 C 5.609375 11.246094 5.6875 11.324219 5.765625 11.304688 L 6.148438 11.214844 L 6.222656 11.277344 L 6.207031 11.671875 C 6.207031 11.75 6.296875 11.8125 6.371094 11.777344 L 6.726562 11.617188 L 6.8125 11.664062 L 6.878906 12.046875 C 6.890625 12.128906 6.992188 12.167969 7.058594 12.125 L 7.375 11.894531 L 7.46875 11.921875 L 7.605469 12.289062 C 7.632812 12.363281 7.742188 12.386719 7.796875 12.328125 L 8.066406 12.042969 L 8.164062 12.050781 L 8.367188 12.382812 C 8.410156 12.453125 8.523438 12.453125 8.5625 12.382812 L 8.769531 12.050781 L 8.867188 12.042969 L 9.136719 12.328125 C 9.191406 12.386719 9.300781 12.363281 9.328125 12.289062 L 9.464844 11.921875 L 9.558594 11.894531 L 9.875 12.125 C 9.941406 12.167969 10.042969 12.128906 10.054688 12.046875 L 10.121094 11.664062 L 10.207031 11.617188 L 10.5625 11.777344 C 10.632812 11.8125 10.726562 11.75 10.722656 11.671875 L 10.710938 11.277344 L 10.785156 11.214844 L 11.167969 11.304688 C 11.246094 11.324219 11.324219 11.246094 11.304688 11.167969 L 11.214844 10.785156 L 11.277344 10.710938 L 11.671875 10.722656 C 11.75 10.726562 11.8125 10.632812 11.777344 10.5625 L 11.617188 10.207031 L 11.664062 10.117188 L 12.050781 10.054688 C 12.128906 10.042969 12.171875 9.941406 12.125 9.875 L 11.894531 9.558594 L 11.921875 9.464844 L 12.289062 9.328125 C 12.363281 9.296875 12.386719 9.191406 12.328125 9.136719 L 12.042969 8.867188 L 12.050781 8.769531 L 12.382812 8.5625 C 12.453125 8.523438 12.453125 8.410156 12.382812 8.367188 L 12.050781 8.164062 L 12.042969 8.066406 L 12.328125 7.796875 C 12.386719 7.742188 12.363281 7.632812 12.289062 7.605469 L 11.921875 7.46875 L 11.894531 7.375 L 12.125 7.058594 C 12.171875 6.992188 12.128906 6.890625 12.050781 6.878906 L 11.664062 6.8125 L 11.617188 6.726562 L 11.777344 6.371094 C 11.8125 6.296875 11.75 6.207031 11.671875 6.207031 L 11.277344 6.222656 L 11.214844 6.148438 L 11.304688 5.765625 C 11.324219 5.6875 11.246094 5.609375 11.167969 5.628906 L 10.785156 5.71875 L 10.710938 5.65625 L 10.722656 5.261719 C 10.726562 5.183594 10.632812 5.121094 10.5625 5.15625 L 10.207031 5.316406 L 10.121094 5.269531 L 10.054688 4.882812 C 10.042969 4.804688 9.941406 4.761719 9.875 4.808594 L 9.558594 5.039062 L 9.464844 5.007812 L 9.328125 4.644531 C 9.300781 4.566406 9.191406 4.546875 9.136719 4.605469 L 8.867188 4.890625 L 8.769531 4.882812 L 8.5625 4.546875 C 8.542969 4.515625 8.503906 4.496094 8.464844 4.496094 Z M 8.453125 5.195312 C 8.570312 5.195312 8.691406 5.277344 8.691406 5.433594 C 8.691406 5.746094 8.21875 5.746094 8.21875 5.433594 C 8.21875 5.277344 8.335938 5.195312 8.453125 5.195312 Z M 9 5.585938 C 9.839844 5.742188 10.566406 6.261719 10.988281 7 L 10.710938 7.628906 C 10.664062 7.738281 10.710938 7.867188 10.820312 7.914062 L 11.355469 8.152344 C 11.375 8.320312 11.375 8.488281 11.363281 8.65625 L 11.066406 8.65625 C 11.035156 8.65625 11.023438 8.675781 11.023438 8.707031 L 11.023438 8.84375 C 11.023438 9.164062 10.839844 9.234375 10.683594 9.253906 C 10.53125 9.269531 10.363281 9.1875 10.34375 9.097656 C 10.253906 8.59375 10.105469 8.484375 9.867188 8.300781 C 10.160156 8.113281 10.464844 7.839844 10.464844 7.476562 C 10.464844 7.078125 10.191406 6.832031 10.007812 6.707031 C 9.75 6.539062 9.460938 6.523438 9.386719 6.523438 L 6.300781 6.523438 C 6.730469 6.046875 7.300781 5.703125 7.925781 5.585938 L 8.289062 5.96875 C 8.375 6.054688 8.507812 6.058594 8.59375 5.972656 Z M 5.640625 7.332031 C 5.757812 7.332031 5.875 7.410156 5.875 7.570312 C 5.875 7.882812 5.402344 7.882812 5.402344 7.570312 C 5.402344 7.410156 5.523438 7.332031 5.640625 7.332031 Z M 11.269531 7.34375 C 11.386719 7.34375 11.503906 7.421875 11.503906 7.578125 C 11.503906 7.894531 11.03125 7.894531 11.03125 7.578125 C 11.03125 7.421875 11.152344 7.34375 11.269531 7.34375 Z M 6.136719 7.4375 L 6.480469 7.4375 L 6.480469 9.277344 L 5.671875 9.277344 C 5.570312 8.914062 5.539062 8.5 5.578125 8.128906 L 6.085938 7.902344 C 6.195312 7.855469 6.246094 7.726562 6.195312 7.617188 Z M 7.703125 7.4375 L 8.777344 7.4375 C 8.828125 7.4375 9.132812 7.457031 9.132812 7.6875 C 9.132812 7.878906 8.898438 7.972656 8.703125 7.972656 L 7.703125 7.972656 Z M 7.703125 8.660156 L 8.558594 8.660156 C 8.628906 8.660156 8.925781 8.753906 9.019531 9.136719 C 9.050781 9.253906 9.117188 9.632812 9.160156 9.753906 C 9.207031 9.890625 9.386719 10.183594 9.582031 10.183594 L 10.808594 10.183594 C 10.726562 10.292969 10.636719 10.378906 10.539062 10.476562 L 10.039062 10.371094 C 9.921875 10.34375 9.808594 10.417969 9.785156 10.535156 L 9.664062 11.085938 C 8.894531 11.4375 8.011719 11.433594 7.242188 11.074219 L 7.125 10.523438 C 7.101562 10.40625 6.984375 10.332031 6.871094 10.359375 L 6.382812 10.460938 C 6.289062 10.371094 6.207031 10.289062 6.128906 10.183594 L 8.464844 10.183594 L 8.464844 9.269531 L 7.703125 9.269531 Z M 6.707031 10.65625 C 6.824219 10.65625 6.941406 10.734375 6.941406 10.894531 C 6.941406 11.207031 6.46875 11.207031 6.46875 10.894531 C 6.46875 10.734375 6.589844 10.65625 6.707031 10.65625 Z M 10.203125 10.667969 C 10.320312 10.667969 10.4375 10.746094 10.4375 10.90625 C 10.4375 11.21875 9.964844 11.21875 9.964844 10.90625 C 9.964844 10.746094 10.082031 10.667969 10.203125 10.667969 Z M 10.203125 10.667969 "/>
</svg>
