<?xml version="1.0" encoding="UTF-8"?>
<svg xmlns="http://www.w3.org/2000/svg" xmlns:xlink="http://www.w3.org/1999/xlink" width="64" height="64" viewBox="0 0 64 64">
<defs>
<filter id="filter-remove-color" x="0%" y="0%" width="100%" height="100%">
<feColorMatrix color-interpolation-filters="sRGB" values="0 0 0 0 1 0 0 0 0 1 0 0 0 0 1 0 0 0 1 0" />
</filter>
<mask id="mask-0">
<g filter="url(#filter-remove-color)">
<rect x="-6.4" y="-6.4" width="76.8" height="76.8" fill="rgb(0%, 0%, 0%)" fill-opacity="0.1"/>
</g>
</mask>
<linearGradient id="linear-pattern-0" gradientUnits="userSpaceOnUse" x1="49.570999" y1="52.714001" x2="51.714001" y2="54.856998" gradientTransform="matrix(2.3333, 0, 0, 2.3333, -68.667, -72.000999)">
<stop offset="0" stop-color="rgb(0%, 0%, 0%)" stop-opacity="1"/>
<stop offset="1" stop-color="rgb(0%, 0%, 0%)" stop-opacity="0"/>
</linearGradient>
<clipPath id="clip-0">
<rect x="0" y="0" width="64" height="64"/>
</clipPath>
<g id="source-11125" clip-path="url(#clip-0)">
<path fill-rule="evenodd" fill="url(#linear-pattern-0)" d="M 56 46 L 42 60 L 51 60 C 53.769531 60 56 57.769531 56 55 Z M 56 46 "/>
</g>
</defs>
<path fill-rule="nonzero" fill="rgb(95.686275%, 95.686275%, 95.686275%)" fill-opacity="1" d="M 13 4 L 51 4 C 53.761719 4 56 6.238281 56 9 L 56 55 C 56 57.761719 53.761719 60 51 60 L 13 60 C 10.238281 60 8 57.761719 8 55 L 8 9 C 8 6.238281 10.238281 4 13 4 Z M 13 4 "/>
<g mask="url(#mask-0)">
<use xlink:href="#source-11125"/>
</g>
<path fill-rule="nonzero" fill="rgb(53.72549%, 16.470588%, 12.156863%)" fill-opacity="1" d="M 43 32 C 31.078125 36.371094 26.148438 36.113281 21 36 L 21 43 C 28.355469 42.371094 35.730469 42.222656 43 39 Z M 42 33.367188 L 42 38.292969 C 35.484375 41.023438 28.8125 41.355469 22 41.902344 L 22 37.007812 C 26.613281 37.105469 31.78125 36.957031 42 33.367188 "/>
<path fill-rule="nonzero" fill="rgb(53.72549%, 16.470588%, 12.156863%)" fill-opacity="1" d="M 43 21 C 31.078125 25.371094 26.148438 25.113281 21 25 L 21 32 C 28.355469 31.371094 35.730469 31.222656 43 28 Z M 42 22.367188 L 42 27.292969 C 35.484375 30.023438 28.8125 30.355469 22 30.902344 L 22 26.007812 C 26.613281 26.105469 31.78125 25.957031 42 22.367188 "/>
</svg>
