<?xml version="1.0" encoding="UTF-8"?>
<svg xmlns="http://www.w3.org/2000/svg" xmlns:xlink="http://www.w3.org/1999/xlink" width="64" height="64" viewBox="0 0 64 64">
<defs>
<filter id="filter-remove-color" x="0%" y="0%" width="100%" height="100%">
<feColorMatrix color-interpolation-filters="sRGB" values="0 0 0 0 1 0 0 0 0 1 0 0 0 0 1 0 0 0 1 0" />
</filter>
<mask id="mask-0">
<g filter="url(#filter-remove-color)">
<rect x="-6.4" y="-6.4" width="76.8" height="76.8" fill="rgb(0%, 0%, 0%)" fill-opacity="0.1"/>
</g>
</mask>
<linearGradient id="linear-pattern-0" gradientUnits="userSpaceOnUse" x1="49.570999" y1="52.714001" x2="51.714001" y2="54.856998" gradientTransform="matrix(0.617345, 0, 0, 0.617345, -18.167916, -19.050025)">
<stop offset="0" stop-color="rgb(0%, 0%, 0%)" stop-opacity="1"/>
<stop offset="1" stop-color="rgb(0%, 0%, 0%)" stop-opacity="0"/>
</linearGradient>
<clipPath id="clip-0">
<rect x="0" y="0" width="17" height="17"/>
</clipPath>
<g id="source-4974" clip-path="url(#clip-0)">
<path fill-rule="evenodd" fill="url(#linear-pattern-0)" d="M 14.816406 12.171875 L 11.113281 15.875 L 13.492188 15.875 C 14.226562 15.875 14.816406 15.285156 14.816406 14.550781 Z M 14.816406 12.171875 "/>
</g>
</defs>
<path fill-rule="nonzero" fill="rgb(95.686275%, 95.686275%, 95.686275%)" fill-opacity="1" d="M 3.441406 1.058594 L 13.492188 1.058594 C 14.222656 1.058594 14.816406 1.652344 14.816406 2.382812 L 14.816406 14.550781 C 14.816406 15.28125 14.222656 15.875 13.492188 15.875 L 3.441406 15.875 C 2.707031 15.875 2.117188 15.28125 2.117188 14.550781 L 2.117188 2.382812 C 2.117188 1.652344 2.707031 1.058594 3.441406 1.058594 Z M 3.441406 1.058594 "/>
<g mask="url(#mask-0)">
<use xlink:href="#source-4974"/>
</g>
<path fill-rule="nonzero" fill="rgb(68.235294%, 65.490196%, 58.431373%)" fill-opacity="1" d="M 5.160156 4.761719 L 5.160156 5.292969 L 5.554688 5.292969 C 5.738281 5.292969 5.890625 5.28125 6.035156 5.328125 C 6.183594 5.375 6.300781 5.5 6.359375 5.691406 C 6.480469 6.074219 6.480469 6.761719 6.480469 8.207031 C 6.480469 8.753906 6.476562 9.167969 6.46875 9.523438 L 6.476562 9.523438 L 6.472656 9.660156 C 6.464844 10.222656 6.449219 10.792969 6.417969 10.988281 C 6.382812 11.183594 6.316406 11.285156 6.253906 11.359375 C 6.183594 11.441406 6.101562 11.511719 5.988281 11.5625 C 5.878906 11.609375 5.742188 11.632812 5.5625 11.640625 C 5.375 11.648438 5.253906 11.644531 5.160156 11.640625 L 5.160156 12.171875 L 8.863281 12.171875 L 8.863281 11.640625 C 8.765625 11.644531 8.636719 11.648438 8.460938 11.640625 C 8.132812 11.628906 7.941406 11.527344 7.796875 11.378906 C 7.695312 11.28125 7.628906 11.148438 7.59375 10.9375 C 7.5625 10.726562 7.546875 10.160156 7.539062 9.660156 L 7.539062 8.730469 L 7.9375 8.730469 C 8.480469 8.730469 8.921875 8.851562 9.175781 9.179688 L 9.1875 9.191406 L 9.191406 9.207031 C 9.367188 9.578125 9.382812 9.972656 9.386719 10.316406 L 9.921875 10.316406 L 9.921875 6.878906 L 9.390625 6.878906 L 9.390625 7.03125 C 9.390625 7.441406 9.246094 7.753906 8.980469 7.941406 C 8.71875 8.132812 8.339844 8.335938 7.9375 8.203125 L 7.539062 8.203125 L 7.539062 5.292969 L 8.730469 5.292969 C 9.78125 5.292969 10.230469 5.285156 10.519531 5.453125 L 10.527344 5.457031 L 10.539062 5.46875 C 10.878906 5.769531 11.058594 6.09375 11.152344 6.4375 C 11.230469 6.742188 11.238281 7.0625 11.242188 7.410156 L 11.773438 7.410156 L 11.773438 4.761719 Z M 5.160156 4.761719 "/>
</svg>
