<?xml version="1.0" encoding="UTF-8"?>
<svg xmlns="http://www.w3.org/2000/svg" xmlns:xlink="http://www.w3.org/1999/xlink" width="64" height="64" viewBox="0 0 64 64">
<defs>
<filter id="filter-remove-color" x="0%" y="0%" width="100%" height="100%">
<feColorMatrix color-interpolation-filters="sRGB" values="0 0 0 0 1 0 0 0 0 1 0 0 0 0 1 0 0 0 1 0" />
</filter>
<mask id="mask-0">
<g filter="url(#filter-remove-color)">
<rect x="-6.4" y="-6.4" width="76.8" height="76.8" fill="rgb(0%, 0%, 0%)" fill-opacity="0.1"/>
</g>
</mask>
<linearGradient id="linear-pattern-0" gradientUnits="userSpaceOnUse" x1="49.570999" y1="52.714001" x2="51.714001" y2="54.856998" gradientTransform="matrix(0.617345, 0, 0, 0.617345, -18.167916, -19.050025)">
<stop offset="0" stop-color="rgb(0%, 0%, 0%)" stop-opacity="1"/>
<stop offset="1" stop-color="rgb(0%, 0%, 0%)" stop-opacity="0"/>
</linearGradient>
<clipPath id="clip-0">
<rect x="0" y="0" width="17" height="17"/>
</clipPath>
<g id="source-9255" clip-path="url(#clip-0)">
<path fill-rule="evenodd" fill="url(#linear-pattern-0)" d="M 14.816406 12.171875 L 11.113281 15.875 L 13.492188 15.875 C 14.226562 15.875 14.816406 15.285156 14.816406 14.550781 Z M 14.816406 12.171875 "/>
</g>
</defs>
<path fill-rule="nonzero" fill="rgb(95.686275%, 95.686275%, 95.686275%)" fill-opacity="1" d="M 3.441406 1.058594 L 13.492188 1.058594 C 14.222656 1.058594 14.816406 1.652344 14.816406 2.382812 L 14.816406 14.550781 C 14.816406 15.28125 14.222656 15.875 13.492188 15.875 L 3.441406 15.875 C 2.707031 15.875 2.117188 15.28125 2.117188 14.550781 L 2.117188 2.382812 C 2.117188 1.652344 2.707031 1.058594 3.441406 1.058594 Z M 3.441406 1.058594 "/>
<g mask="url(#mask-0)">
<use xlink:href="#source-9255"/>
</g>
<path fill-rule="nonzero" fill="rgb(46.27451%, 76.078431%, 16.862745%)" fill-opacity="1" d="M 6.351562 3.570312 L 6.351562 3.835938 L 9.523438 3.835938 L 9.523438 3.570312 Z M 6.351562 4.367188 L 6.351562 4.628906 L 12.171875 4.628906 L 12.171875 4.367188 Z M 6.351562 5.160156 L 6.351562 5.425781 L 8.464844 5.425781 L 8.464844 5.160156 Z M 6.351562 5.160156 "/>
<path fill-rule="nonzero" fill="rgb(46.27451%, 76.078431%, 16.862745%)" fill-opacity="1" d="M 4.761719 11.507812 L 4.761719 11.773438 L 12.171875 11.773438 L 12.171875 11.507812 Z M 4.761719 11.507812 "/>
<path fill-rule="nonzero" fill="rgb(56.078431%, 46.27451%, 89.411765%)" fill-opacity="1" d="M 5.820312 6.746094 L 5.820312 7.011719 L 10.183594 7.011719 L 10.183594 6.746094 Z M 5.820312 7.539062 L 5.820312 7.804688 L 7.40625 7.804688 L 7.40625 7.539062 Z M 5.820312 8.335938 L 5.820312 8.597656 L 9.523438 8.597656 L 9.523438 8.335938 Z M 5.820312 8.335938 "/>
<path fill-rule="nonzero" fill="rgb(27.45098%, 66.27451%, 14.901961%)" fill-opacity="1" d="M 4.761719 5.953125 L 4.761719 6.21875 L 6.878906 6.21875 L 6.878906 5.953125 Z M 4.761719 5.953125 "/>
<path fill-rule="nonzero" fill="rgb(46.27451%, 76.078431%, 16.862745%)" fill-opacity="1" d="M 7.40625 9.128906 L 7.40625 9.390625 L 8.996094 9.390625 L 8.996094 9.128906 Z M 5.820312 9.921875 L 5.820312 10.1875 L 8.996094 10.1875 L 8.996094 9.921875 Z M 5.820312 9.921875 "/>
<path fill-rule="nonzero" fill="rgb(27.45098%, 66.27451%, 14.901961%)" fill-opacity="1" d="M 4.761719 9.128906 L 4.761719 9.390625 L 6.878906 9.390625 L 6.878906 9.128906 Z M 4.761719 10.714844 L 4.761719 10.980469 L 6.878906 10.980469 L 6.878906 10.714844 Z M 4.761719 10.714844 "/>
<path fill-rule="nonzero" fill="rgb(27.45098%, 66.27451%, 14.901961%)" fill-opacity="1" d="M 4.761719 3.570312 L 4.761719 3.835938 L 5.820312 3.835938 L 5.820312 3.570312 Z M 4.761719 4.367188 L 4.761719 4.628906 L 5.820312 4.628906 L 5.820312 4.367188 Z M 4.761719 5.160156 L 4.761719 5.425781 L 5.820312 5.425781 L 5.820312 5.160156 Z M 4.761719 5.160156 "/>
<path fill-rule="nonzero" fill="rgb(94.901961%, 17.254902%, 25.882353%)" fill-opacity="1" d="M 9.523438 9.921875 L 9.523438 10.1875 L 11.113281 10.1875 L 11.113281 9.921875 Z M 9.523438 9.921875 "/>
<path fill-rule="nonzero" fill="rgb(94.901961%, 17.254902%, 25.882353%)" fill-opacity="1" d="M 7.9375 7.539062 L 7.9375 7.804688 L 9.523438 7.804688 L 9.523438 7.539062 Z M 7.9375 7.539062 "/>
<path fill-rule="nonzero" fill="rgb(46.27451%, 76.078431%, 16.862745%)" fill-opacity="1" d="M 4.761719 12.304688 L 4.761719 12.566406 L 12.171875 12.566406 L 12.171875 12.304688 Z M 4.761719 13.097656 L 4.761719 13.363281 L 8.464844 13.363281 L 8.464844 13.097656 Z M 4.761719 13.097656 "/>
</svg>
