<?xml version="1.0" encoding="UTF-8"?>
<svg xmlns="http://www.w3.org/2000/svg" xmlns:xlink="http://www.w3.org/1999/xlink" width="64" height="64" viewBox="0 0 64 64">
<defs>
<filter id="filter-remove-color" x="0%" y="0%" width="100%" height="100%">
<feColorMatrix color-interpolation-filters="sRGB" values="0 0 0 0 1 0 0 0 0 1 0 0 0 0 1 0 0 0 1 0" />
</filter>
<mask id="mask-0">
<g filter="url(#filter-remove-color)">
<rect x="-6.4" y="-6.4" width="76.8" height="76.8" fill="rgb(0%, 0%, 0%)" fill-opacity="0.1"/>
</g>
</mask>
<linearGradient id="linear-pattern-0" gradientUnits="userSpaceOnUse" x1="49.570999" y1="52.714001" x2="51.714001" y2="54.856998" gradientTransform="matrix(0.617345, 0, 0, 0.617345, -18.167916, -19.050025)">
<stop offset="0" stop-color="rgb(0%, 0%, 0%)" stop-opacity="1"/>
<stop offset="1" stop-color="rgb(0%, 0%, 0%)" stop-opacity="0"/>
</linearGradient>
<clipPath id="clip-0">
<rect x="0" y="0" width="17" height="17"/>
</clipPath>
<g id="source-91" clip-path="url(#clip-0)">
<path fill-rule="evenodd" fill="url(#linear-pattern-0)" d="M 14.816406 12.171875 L 11.113281 15.875 L 13.492188 15.875 C 14.226562 15.875 14.816406 15.285156 14.816406 14.550781 Z M 14.816406 12.171875 "/>
</g>
</defs>
<path fill-rule="nonzero" fill="rgb(95.686275%, 95.686275%, 95.686275%)" fill-opacity="1" d="M 3.441406 1.058594 L 13.492188 1.058594 C 14.222656 1.058594 14.816406 1.652344 14.816406 2.382812 L 14.816406 14.550781 C 14.816406 15.28125 14.222656 15.875 13.492188 15.875 L 3.441406 15.875 C 2.707031 15.875 2.117188 15.28125 2.117188 14.550781 L 2.117188 2.382812 C 2.117188 1.652344 2.707031 1.058594 3.441406 1.058594 Z M 3.441406 1.058594 "/>
<g mask="url(#mask-0)">
<use xlink:href="#source-91"/>
</g>
<path fill-rule="nonzero" fill="rgb(53.333333%, 53.333333%, 53.333333%)" fill-opacity="1" d="M 8.464844 4.496094 C 6.277344 4.496094 4.496094 6.277344 4.496094 8.464844 C 4.496094 10.65625 6.277344 12.433594 8.464844 12.433594 C 10.65625 12.433594 12.433594 10.65625 12.433594 8.464844 C 12.433594 6.277344 10.65625 4.496094 8.464844 4.496094 Z M 8.46875 4.894531 C 10.441406 4.894531 12.039062 6.492188 12.039062 8.464844 C 12.039062 10.4375 10.441406 12.039062 8.46875 12.039062 C 6.496094 12.039062 4.894531 10.4375 4.894531 8.464844 C 4.894531 6.492188 6.496094 4.894531 8.46875 4.894531 Z M 8.46875 4.894531 "/>
<path fill-rule="nonzero" fill="rgb(53.333333%, 53.333333%, 53.333333%)" fill-opacity="1" d="M 8.203125 7.9375 L 8.203125 10.582031 L 8.730469 10.582031 L 8.730469 7.9375 Z M 8.203125 7.9375 "/>
<path fill-rule="nonzero" fill="rgb(53.333333%, 53.333333%, 53.333333%)" fill-opacity="1" d="M 8.464844 6.480469 C 8.246094 6.480469 8.070312 6.660156 8.070312 6.878906 C 8.070312 7.097656 8.246094 7.277344 8.464844 7.277344 C 8.6875 7.277344 8.863281 7.097656 8.863281 6.878906 C 8.863281 6.660156 8.6875 6.480469 8.464844 6.480469 Z M 8.464844 6.480469 "/>
</svg>
