<?xml version="1.0" encoding="UTF-8"?>
<svg xmlns="http://www.w3.org/2000/svg" xmlns:xlink="http://www.w3.org/1999/xlink" width="64" height="64" viewBox="0 0 64 64">
<defs>
<filter id="filter-remove-color" x="0%" y="0%" width="100%" height="100%">
<feColorMatrix color-interpolation-filters="sRGB" values="0 0 0 0 1 0 0 0 0 1 0 0 0 0 1 0 0 0 1 0" />
</filter>
<mask id="mask-0">
<g filter="url(#filter-remove-color)">
<rect x="-6.4" y="-6.4" width="76.8" height="76.8" fill="rgb(0%, 0%, 0%)" fill-opacity="0.1"/>
</g>
</mask>
<linearGradient id="linear-pattern-0" gradientUnits="userSpaceOnUse" x1="49.570999" y1="52.714001" x2="51.714001" y2="54.856998" gradientTransform="matrix(0.617345, 0, 0, 0.617345, -18.167916, -19.050025)">
<stop offset="0" stop-color="rgb(0%, 0%, 0%)" stop-opacity="1"/>
<stop offset="1" stop-color="rgb(0%, 0%, 0%)" stop-opacity="0"/>
</linearGradient>
<clipPath id="clip-0">
<rect x="0" y="0" width="17" height="17"/>
</clipPath>
<g id="source-7338" clip-path="url(#clip-0)">
<path fill-rule="evenodd" fill="url(#linear-pattern-0)" d="M 14.816406 12.171875 L 11.113281 15.875 L 13.492188 15.875 C 14.226562 15.875 14.816406 15.285156 14.816406 14.550781 Z M 14.816406 12.171875 "/>
</g>
</defs>
<path fill-rule="nonzero" fill="rgb(95.686275%, 95.686275%, 95.686275%)" fill-opacity="1" d="M 3.441406 1.058594 L 13.492188 1.058594 C 14.222656 1.058594 14.816406 1.652344 14.816406 2.382812 L 14.816406 14.550781 C 14.816406 15.28125 14.222656 15.875 13.492188 15.875 L 3.441406 15.875 C 2.707031 15.875 2.117188 15.28125 2.117188 14.550781 L 2.117188 2.382812 C 2.117188 1.652344 2.707031 1.058594 3.441406 1.058594 Z M 3.441406 1.058594 "/>
<g mask="url(#mask-0)">
<use xlink:href="#source-7338"/>
</g>
<path fill-rule="nonzero" fill="rgb(30.196078%, 30.196078%, 30.196078%)" fill-opacity="1" d="M 9.484375 6.085938 L 9.484375 6.242188 L 9.589844 6.242188 C 9.867188 6.242188 9.960938 6.277344 10.054688 6.417969 L 10.980469 7.820312 L 10.148438 9.03125 C 10.078125 9.132812 9.929688 9.363281 9.421875 9.363281 L 9.421875 9.519531 L 9.984375 9.5 C 10.167969 9.5 10.445312 9.503906 10.628906 9.519531 L 10.628906 9.363281 C 10.394531 9.359375 10.304688 9.214844 10.304688 9.125 C 10.304688 9.082031 10.320312 9.066406 10.355469 9.011719 L 11.074219 7.953125 L 11.863281 9.15625 C 11.871094 9.175781 11.894531 9.195312 11.894531 9.207031 C 11.894531 9.269531 11.777344 9.359375 11.5625 9.363281 L 11.5625 9.519531 C 11.738281 9.503906 12.105469 9.5 12.296875 9.5 L 12.953125 9.519531 L 12.953125 9.363281 L 12.859375 9.363281 C 12.597656 9.363281 12.484375 9.332031 12.378906 9.179688 L 11.324219 7.578125 L 12.007812 6.574219 C 12.117188 6.414062 12.296875 6.246094 12.742188 6.242188 L 12.742188 6.085938 L 12.183594 6.105469 C 11.984375 6.105469 11.742188 6.101562 11.539062 6.085938 L 11.539062 6.242188 C 11.742188 6.246094 11.851562 6.355469 11.851562 6.46875 C 11.851562 6.519531 11.84375 6.539062 11.808594 6.59375 L 11.230469 7.433594 L 10.585938 6.46875 C 10.574219 6.453125 10.554688 6.417969 10.554688 6.398438 C 10.554688 6.335938 10.660156 6.246094 10.875 6.242188 L 10.875 6.085938 C 10.699219 6.101562 10.332031 6.105469 10.140625 6.105469 Z M 4.074219 6.085938 L 3.980469 7.21875 L 4.105469 7.21875 C 4.175781 6.40625 4.25 6.242188 5.007812 6.242188 C 5.097656 6.242188 5.226562 6.242188 5.277344 6.25 C 5.382812 6.273438 5.394531 6.324219 5.394531 6.4375 L 5.394531 9.140625 C 5.394531 9.3125 5.390625 9.402344 4.863281 9.390625 L 4.65625 9.390625 L 4.65625 9.546875 C 4.863281 9.53125 5.378906 9.527344 5.609375 9.527344 C 5.839844 9.527344 6.359375 9.53125 6.566406 9.546875 L 6.566406 9.390625 L 6.359375 9.390625 C 5.832031 9.390625 5.839844 9.3125 5.839844 9.140625 L 5.839844 6.4375 C 5.839844 6.339844 5.832031 6.273438 5.921875 6.25 C 5.976562 6.242188 6.117188 6.242188 6.210938 6.242188 C 6.972656 6.242188 7.042969 6.40625 7.113281 7.21875 L 7.238281 7.21875 L 7.144531 6.085938 Z M 6.769531 7.410156 L 6.769531 7.5625 L 6.894531 7.5625 C 7.28125 7.5625 7.289062 7.613281 7.289062 7.792969 L 7.289062 10.453125 C 7.289062 10.632812 7.28125 10.691406 6.894531 10.691406 L 6.769531 10.691406 L 6.769531 10.847656 L 9.664062 10.847656 L 9.882812 9.550781 L 9.746094 9.550781 C 9.621094 10.324219 9.511719 10.691406 8.648438 10.691406 L 7.984375 10.691406 C 7.746094 10.691406 7.734375 10.648438 7.734375 10.484375 L 7.734375 9.132812 L 8.179688 9.132812 C 8.667969 9.132812 8.730469 9.296875 8.730469 9.722656 L 8.855469 9.722656 L 8.855469 8.386719 L 8.730469 8.386719 C 8.730469 8.816406 8.667969 8.976562 8.179688 8.976562 L 7.734375 8.976562 L 7.734375 7.761719 C 7.734375 7.59375 7.746094 7.5625 7.984375 7.5625 L 8.625 7.5625 C 9.394531 7.5625 9.53125 7.832031 9.613281 8.527344 L 9.738281 8.527344 L 9.589844 7.410156 Z M 6.769531 7.410156 "/>
</svg>
