<?xml version="1.0" encoding="UTF-8"?>
<svg xmlns="http://www.w3.org/2000/svg" xmlns:xlink="http://www.w3.org/1999/xlink" width="64" height="64" viewBox="0 0 64 64">
<defs>
<filter id="filter-remove-color" x="0%" y="0%" width="100%" height="100%">
<feColorMatrix color-interpolation-filters="sRGB" values="0 0 0 0 1 0 0 0 0 1 0 0 0 0 1 0 0 0 1 0" />
</filter>
<mask id="mask-0">
<g filter="url(#filter-remove-color)">
<rect x="-6.4" y="-6.4" width="76.8" height="76.8" fill="rgb(0%, 0%, 0%)" fill-opacity="0.25"/>
</g>
</mask>
<linearGradient id="linear-pattern-0" gradientUnits="userSpaceOnUse" x1="49.570999" y1="52.714001" x2="51.714001" y2="54.856998" gradientTransform="matrix(0, 0.617345, 0.617345, 0, -19.050085, -18.167976)">
<stop offset="0" stop-color="rgb(0%, 0%, 0%)" stop-opacity="1"/>
<stop offset="1" stop-color="rgb(0%, 0%, 0%)" stop-opacity="0"/>
</linearGradient>
<clipPath id="clip-0">
<rect x="0" y="0" width="17" height="17"/>
</clipPath>
<g id="source-2982" clip-path="url(#clip-0)">
<path fill-rule="evenodd" fill="url(#linear-pattern-0)" d="M 12.171875 14.816406 L 15.875 11.113281 L 15.875 13.492188 C 15.875 14.226562 15.285156 14.816406 14.550781 14.816406 Z M 12.171875 14.816406 "/>
</g>
</defs>
<path fill-rule="nonzero" fill="rgb(29.803922%, 21.568627%, 81.960784%)" fill-opacity="1" d="M 1.058594 3.441406 L 1.058594 13.492188 C 1.058594 14.222656 1.652344 14.816406 2.382812 14.816406 L 14.550781 14.816406 C 15.28125 14.816406 15.875 14.222656 15.875 13.492188 L 15.875 3.441406 C 15.875 2.707031 15.28125 2.117188 14.550781 2.117188 L 2.382812 2.117188 C 1.652344 2.117188 1.058594 2.707031 1.058594 3.441406 Z M 1.058594 3.441406 "/>
<g mask="url(#mask-0)">
<use xlink:href="#source-2982"/>
</g>
<path fill-rule="nonzero" fill="rgb(100%, 100%, 100%)" fill-opacity="1" d="M 8.464844 4.761719 C 6.421875 4.761719 4.761719 6.421875 4.761719 8.464844 C 4.761719 10.511719 6.421875 12.171875 8.464844 12.171875 C 10.511719 12.171875 12.171875 10.511719 12.171875 8.464844 C 12.171875 6.421875 10.511719 4.761719 8.464844 4.761719 Z M 8.464844 5.554688 C 10.074219 5.554688 11.375 6.859375 11.375 8.464844 C 11.375 10.074219 10.074219 11.375 8.464844 11.375 C 6.859375 11.375 5.554688 10.074219 5.554688 8.464844 C 5.554688 6.859375 6.859375 5.554688 8.464844 5.554688 Z M 7.40625 6.746094 L 7.40625 10.1875 L 10.320312 8.464844 Z M 7.40625 6.746094 "/>
</svg>
