<?xml version="1.0" encoding="UTF-8"?>
<svg xmlns="http://www.w3.org/2000/svg" xmlns:xlink="http://www.w3.org/1999/xlink" width="64" height="64" viewBox="0 0 64 64">
<defs>
<filter id="filter-remove-color" x="0%" y="0%" width="100%" height="100%">
<feColorMatrix color-interpolation-filters="sRGB" values="0 0 0 0 1 0 0 0 0 1 0 0 0 0 1 0 0 0 1 0" />
</filter>
<mask id="mask-0">
<g filter="url(#filter-remove-color)">
<rect x="-6.4" y="-6.4" width="76.8" height="76.8" fill="rgb(0%, 0%, 0%)" fill-opacity="0.15"/>
</g>
</mask>
<linearGradient id="linear-pattern-0" gradientUnits="userSpaceOnUse" x1="49.570999" y1="52.714001" x2="51.714001" y2="54.856998" gradientTransform="matrix(0.617345, 0, 0, 0.617345, -18.167916, -19.050025)">
<stop offset="0" stop-color="rgb(0%, 0%, 0%)" stop-opacity="1"/>
<stop offset="1" stop-color="rgb(0%, 0%, 0%)" stop-opacity="0"/>
</linearGradient>
<clipPath id="clip-0">
<rect x="0" y="0" width="17" height="17"/>
</clipPath>
<g id="source-15954" clip-path="url(#clip-0)">
<path fill-rule="evenodd" fill="url(#linear-pattern-0)" d="M 14.816406 12.171875 L 11.113281 15.875 L 13.492188 15.875 C 14.226562 15.875 14.816406 15.285156 14.816406 14.550781 Z M 14.816406 12.171875 "/>
</g>
<mask id="mask-1">
<g filter="url(#filter-remove-color)">
<rect x="-6.4" y="-6.4" width="76.8" height="76.8" fill="rgb(0%, 0%, 0%)" fill-opacity="0.25"/>
</g>
</mask>
<clipPath id="clip-1">
<rect x="0" y="0" width="17" height="17"/>
</clipPath>
<g id="source-15958" clip-path="url(#clip-1)">
<path fill-rule="nonzero" fill="rgb(100%, 100%, 100%)" fill-opacity="1" d="M 9.261719 1.058594 L 10.320312 1.058594 L 10.320312 15.875 L 9.261719 15.875 Z M 9.261719 1.058594 "/>
</g>
<mask id="mask-2">
<g filter="url(#filter-remove-color)">
<rect x="-6.4" y="-6.4" width="76.8" height="76.8" fill="rgb(0%, 0%, 0%)" fill-opacity="0.25"/>
</g>
</mask>
<clipPath id="clip-2">
<rect x="0" y="0" width="17" height="17"/>
</clipPath>
<g id="source-15962" clip-path="url(#clip-2)">
<path fill-rule="nonzero" fill="rgb(100%, 100%, 100%)" fill-opacity="1" d="M 9.78125 1.058594 L 10.320312 1.058594 L 10.320312 15.875 L 9.78125 15.875 Z M 9.78125 1.058594 "/>
</g>
<mask id="mask-3">
<g filter="url(#filter-remove-color)">
<rect x="-6.4" y="-6.4" width="76.8" height="76.8" fill="rgb(0%, 0%, 0%)" fill-opacity="0.5"/>
</g>
</mask>
<clipPath id="clip-3">
<rect x="0" y="0" width="17" height="17"/>
</clipPath>
<g id="source-15966" clip-path="url(#clip-3)">
<path fill-rule="nonzero" fill="rgb(100%, 100%, 100%)" fill-opacity="1" d="M 4.234375 10.054688 C 3.941406 10.054688 3.703125 10.289062 3.703125 10.582031 L 3.703125 13.757812 C 3.703125 14.050781 3.941406 14.289062 4.234375 14.289062 L 7.40625 14.289062 C 7.703125 14.289062 7.9375 14.050781 7.9375 13.757812 L 7.9375 10.582031 C 7.9375 10.289062 7.703125 10.054688 7.40625 10.054688 Z M 4.234375 10.582031 L 7.40625 10.582031 L 7.40625 11.113281 L 4.234375 11.113281 Z M 4.234375 11.640625 L 6.613281 11.640625 L 6.613281 12.433594 L 4.234375 12.433594 Z M 6.878906 11.640625 L 7.40625 11.640625 L 7.40625 12.433594 L 6.878906 12.433594 Z M 4.234375 12.964844 L 6.613281 12.964844 L 6.613281 13.757812 L 4.234375 13.757812 Z M 6.878906 12.964844 L 7.40625 12.964844 L 7.40625 13.757812 L 6.878906 13.757812 Z M 6.878906 12.964844 "/>
</g>
</defs>
<path fill-rule="nonzero" fill="rgb(58.431373%, 31.372549%, 69.803922%)" fill-opacity="1" d="M 3.441406 1.058594 L 13.492188 1.058594 C 14.222656 1.058594 14.816406 1.652344 14.816406 2.382812 L 14.816406 14.550781 C 14.816406 15.28125 14.222656 15.875 13.492188 15.875 L 3.441406 15.875 C 2.707031 15.875 2.117188 15.28125 2.117188 14.550781 L 2.117188 2.382812 C 2.117188 1.652344 2.707031 1.058594 3.441406 1.058594 Z M 3.441406 1.058594 "/>
<g mask="url(#mask-0)">
<use xlink:href="#source-15954"/>
</g>
<g mask="url(#mask-1)">
<use xlink:href="#source-15958"/>
</g>
<g mask="url(#mask-2)">
<use xlink:href="#source-15962"/>
</g>
<g mask="url(#mask-3)">
<use xlink:href="#source-15966"/>
</g>
</svg>
