<?xml version="1.0" encoding="UTF-8"?>
<svg xmlns="http://www.w3.org/2000/svg" xmlns:xlink="http://www.w3.org/1999/xlink" width="16" height="16" viewBox="0 0 16 16">
<path fill-rule="nonzero" fill="rgb(33.333333%, 33.333333%, 33.333333%)" fill-opacity="1" d="M 5 0 C 3.890625 0 3 0.890625 3 2 L 3 14 C 3 15.109375 3.890625 16 5 16 L 11 16 C 12.109375 16 13 15.109375 13 14 L 13 2 C 13 0.890625 12.109375 0 11 0 Z M 5 1 L 6 1 C 6 1.554688 6.445312 2 7 2 L 9 2 C 9.554688 2 10 1.554688 10 1 L 11 1 C 11.554688 1 12 1.445312 12 2 L 12 14 C 12 14.554688 11.554688 15 11 15 L 5 15 C 4.445312 15 4 14.554688 4 14 L 4 2 C 4 1.445312 4.445312 1 5 1 Z M 5 1 "/>
<path fill-rule="nonzero" fill="rgb(33.333333%, 33.333333%, 33.333333%)" fill-opacity="1" d="M 5.5 5.5 L 6.875 5.5 L 8 6.59375 L 9.09375 5.5 L 10.5 5.5 L 10.5 6.96875 L 9.40625 8.03125 L 10.5 9.09375 L 10.5 10.5 L 9.0625 10.5 L 8 9.4375 L 6.9375 10.5 L 5.5 10.5 L 5.5 9.09375 L 6.5625 8.03125 L 5.5 6.96875 Z M 5.5 5.5 "/>
</svg>
