<?xml version="1.0" encoding="UTF-8"?>
<svg xmlns="http://www.w3.org/2000/svg" xmlns:xlink="http://www.w3.org/1999/xlink" width="32" height="32" viewBox="0 0 32 32">
<path fill-rule="nonzero" fill="rgb(100%, 37.254902%, 31.372549%)" fill-opacity="1" d="M 0.726562 11.636719 C 0.726562 5.613281 5.613281 0.726562 11.636719 0.726562 C 17.660156 0.726562 22.546875 5.613281 22.546875 11.636719 C 22.546875 17.660156 17.660156 22.546875 11.636719 22.546875 C 5.613281 22.546875 0.726562 17.660156 0.726562 11.636719 Z M 0.726562 11.636719 "/>
<path fill-rule="nonzero" fill="rgb(92.54902%, 92.54902%, 92.54902%)" fill-opacity="1" d="M 8.953125 7.28125 L 11.597656 9.949219 L 14.277344 7.28125 C 15.394531 6.355469 17.039062 7.859375 15.945312 8.960938 L 13.300781 11.628906 L 15.910156 14.261719 C 17.214844 15.578125 15.414062 17.125 14.242188 15.941406 L 11.597656 13.273438 L 8.953125 15.941406 C 7.925781 16.976562 6.210938 15.347656 7.285156 14.261719 L 9.929688 11.628906 L 7.285156 8.960938 C 6.148438 7.816406 7.839844 6.160156 8.953125 7.28125 Z M 8.953125 7.28125 "/>
</svg>
