<?xml version="1.0" encoding="UTF-8"?>
<svg xmlns="http://www.w3.org/2000/svg" xmlns:xlink="http://www.w3.org/1999/xlink" width="64" height="64" viewBox="0 0 64 64">
<defs>
<filter id="filter-remove-color" x="0%" y="0%" width="100%" height="100%">
<feColorMatrix color-interpolation-filters="sRGB" values="0 0 0 0 1 0 0 0 0 1 0 0 0 0 1 0 0 0 1 0" />
</filter>
<clipPath id="clip-0">
<path clip-rule="nonzero" d="M 1 1 L 16 1 L 16 16 L 1 16 Z M 1 1 "/>
</clipPath>
<clipPath id="clip-1">
<path clip-rule="nonzero" d="M 15.609375 8.347656 C 15.609375 12.292969 12.414062 15.492188 8.464844 15.492188 C 4.519531 15.492188 1.324219 12.292969 1.324219 8.347656 C 1.324219 4.402344 4.519531 1.203125 8.464844 1.203125 C 12.414062 1.203125 15.609375 4.402344 15.609375 8.347656 Z M 15.609375 8.347656 "/>
</clipPath>
<mask id="mask-0">
<g filter="url(#filter-remove-color)">
<rect x="-6.4" y="-6.4" width="76.8" height="76.8" fill="rgb(0%, 0%, 0%)" fill-opacity="0.35"/>
</g>
</mask>
<clipPath id="clip-2">
<rect x="0" y="0" width="17" height="17"/>
</clipPath>
<g id="source-12260" clip-path="url(#clip-2)">
<path fill="none" stroke-width="0.127" stroke-linecap="butt" stroke-linejoin="miter" stroke="rgb(100%, 100%, 100%)" stroke-opacity="0.937" stroke-miterlimit="4" d="M 1.483904 287.739399 C 2.206099 287.893618 2.875634 288.363798 3.46618 289.721676 C 4.143238 291.263864 5.09112 291.948445 6.238357 292.004867 C 7.720363 292.072572 8.912738 290.778639 9.698877 289.620117 C 11.301249 287.257936 14.216361 287.483622 15.514056 288.367559 " transform="matrix(1.0385, 0, 0, 1.0385, -0.32619, -291.290009)"/>
</g>
<mask id="mask-1">
<g filter="url(#filter-remove-color)">
<rect x="-6.4" y="-6.4" width="76.8" height="76.8" fill="rgb(0%, 0%, 0%)" fill-opacity="0.35"/>
</g>
</mask>
<clipPath id="clip-3">
<rect x="0" y="0" width="17" height="17"/>
</clipPath>
<g id="source-12264" clip-path="url(#clip-3)">
<path fill="none" stroke-width="0.127" stroke-linecap="butt" stroke-linejoin="miter" stroke="rgb(100%, 100%, 100%)" stroke-opacity="0.937" stroke-miterlimit="4" d="M 1.491426 288.130589 C 2.386648 287.780775 3.575261 287.705546 4.365163 288.958104 C 5.087358 290.101581 5.941204 291.824318 8.412467 291.666337 C 9.890711 291.572302 11.368955 290.955426 12.132526 289.514797 C 12.662888 288.581961 13.392607 287.645364 14.42324 287.412155 C 14.806906 287.329403 15.081491 287.340687 15.401213 287.468576 " transform="matrix(1.0385, 0, 0, 1.0385, -0.32619, -291.290009)"/>
</g>
<mask id="mask-2">
<g filter="url(#filter-remove-color)">
<rect x="-6.4" y="-6.4" width="76.8" height="76.8" fill="rgb(0%, 0%, 0%)" fill-opacity="0.35"/>
</g>
</mask>
<clipPath id="clip-4">
<rect x="0" y="0" width="17" height="17"/>
</clipPath>
<g id="source-12268" clip-path="url(#clip-4)">
<path fill="none" stroke-width="0.127" stroke-linecap="butt" stroke-linejoin="miter" stroke="rgb(100%, 100%, 100%)" stroke-opacity="0.937" stroke-miterlimit="4" d="M 1.773534 290.248277 C 2.721416 289.804427 4.519382 289.296633 5.971295 289.721676 C 7.26899 290.097819 8.908976 291.56854 12.027206 291.222488 C 12.85096 291.135975 13.550587 290.662034 14.212599 289.75929 C 14.690302 289.108562 14.961125 288.739941 15.517817 288.593245 " transform="matrix(1.0385, 0, 0, 1.0385, -0.32619, -291.290009)"/>
</g>
</defs>
<path fill-rule="nonzero" fill="rgb(84.705882%, 43.137255%, 69.019608%)" fill-opacity="1" d="M 15.609375 8.464844 C 15.609375 12.410156 12.410156 15.609375 8.464844 15.609375 C 4.519531 15.609375 1.324219 12.410156 1.324219 8.464844 C 1.324219 4.519531 4.519531 1.324219 8.464844 1.324219 C 12.410156 1.324219 15.609375 4.519531 15.609375 8.464844 Z M 15.609375 8.464844 "/>
<path fill-rule="nonzero" fill="rgb(100%, 100%, 100%)" fill-opacity="1" d="M 8.464844 5.289062 L 8.46875 5.289062 C 9.34375 5.289062 10.054688 6 10.054688 6.878906 L 10.054688 8.996094 C 10.054688 9.871094 9.34375 10.582031 8.46875 10.582031 L 8.464844 10.582031 C 7.589844 10.582031 6.878906 9.871094 6.878906 8.996094 L 6.878906 6.878906 C 6.878906 6 7.589844 5.289062 8.464844 5.289062 Z M 8.464844 5.289062 "/>
<path fill-rule="nonzero" fill="rgb(100%, 100%, 100%)" fill-opacity="1" d="M 6.21875 8.863281 C 6.183594 8.863281 6.148438 8.875 6.125 8.902344 C 6.097656 8.925781 6.085938 8.960938 6.085938 8.996094 C 6.085938 9 6.085938 9.007812 6.085938 9.011719 C 6.097656 10.320312 7.160156 11.375 8.46875 11.378906 C 9.777344 11.375 10.839844 10.320312 10.847656 9.007812 C 10.847656 9.003906 10.847656 9.003906 10.847656 9 C 10.847656 8.996094 10.847656 8.996094 10.847656 8.996094 C 10.847656 8.921875 10.789062 8.863281 10.714844 8.863281 C 10.640625 8.863281 10.582031 8.921875 10.582031 8.996094 C 10.582031 10.164062 9.636719 11.113281 8.46875 11.113281 C 7.296875 11.113281 6.351562 10.164062 6.351562 8.996094 L 6.347656 8.996094 C 6.347656 8.921875 6.289062 8.863281 6.21875 8.863281 Z M 6.21875 8.863281 "/>
<g clip-path="url(#clip-0)">
<g clip-path="url(#clip-1)">
<g mask="url(#mask-0)">
<use xlink:href="#source-12260"/>
</g>
<g mask="url(#mask-1)">
<use xlink:href="#source-12264"/>
</g>
<g mask="url(#mask-2)">
<use xlink:href="#source-12268"/>
</g>
</g>
</g>
</svg>
