<?xml version="1.0" encoding="UTF-8"?>
<svg xmlns="http://www.w3.org/2000/svg" xmlns:xlink="http://www.w3.org/1999/xlink" width="64" height="64" viewBox="0 0 64 64">
<path fill-rule="nonzero" fill="rgb(36.078431%, 62.745098%, 83.921569%)" fill-opacity="1" d="M 15.347656 8.464844 C 15.347656 12.265625 12.265625 15.34375 8.46875 15.34375 C 4.667969 15.34375 1.589844 12.265625 1.589844 8.464844 C 1.589844 4.667969 4.667969 1.585938 8.46875 1.585938 C 12.265625 1.585938 15.347656 4.667969 15.347656 8.464844 Z M 15.347656 8.464844 "/>
<path fill-rule="nonzero" fill="rgb(100%, 100%, 100%)" fill-opacity="1" d="M 8.46875 4.234375 C 6.128906 4.234375 4.234375 6.128906 4.234375 8.464844 C 4.234375 10.804688 6.128906 12.699219 8.46875 12.699219 C 10.804688 12.699219 12.699219 10.804688 12.699219 8.464844 C 12.699219 6.128906 10.804688 4.234375 8.46875 4.234375 Z M 8.84375 4.683594 C 9.257812 4.722656 9.652344 4.816406 10.015625 4.976562 C 9.984375 5.011719 9.960938 5.054688 9.949219 5.097656 C 9.835938 5.433594 9.671875 5.273438 9.867188 5.691406 C 10.0625 6.109375 10.222656 6.21875 10.28125 6.023438 C 10.335938 5.828125 10.140625 5.554688 10.363281 5.664062 C 10.585938 5.777344 10.75 5.632812 10.582031 5.886719 C 10.414062 6.136719 10.421875 6.273438 10.226562 6.21875 C 10.027344 6.160156 10.03125 6.546875 9.839844 6.601562 C 9.644531 6.660156 9.574219 6.519531 9.574219 6.65625 C 9.574219 6.796875 9.6875 6.667969 9.660156 6.894531 C 9.648438 6.960938 9.652344 6.972656 9.644531 7.003906 C 9.460938 6.949219 9.378906 6.921875 9.242188 6.976562 C 9.105469 7.03125 8.941406 7.390625 8.941406 7.390625 C 9.113281 7.5625 9.195312 7.6875 9.257812 7.75 C 9.21875 7.765625 9.171875 7.777344 9.132812 7.804688 C 8.855469 8 8.636719 8.035156 8.554688 8.3125 C 8.472656 8.59375 8.5 8.335938 8.5 8.671875 C 8.5 9.007812 8.414062 8.78125 8.582031 9.085938 C 8.75 9.394531 9.160156 9.539062 9.355469 9.710938 C 9.550781 9.875 9.75 9.34375 10.140625 9.847656 C 10.53125 10.347656 10.558594 10.148438 10.417969 10.425781 C 10.277344 10.703125 10.140625 10.796875 10.085938 10.910156 C 10.03125 11.019531 10.195312 11.40625 10.390625 11.488281 L 10.402344 11.488281 C 10.394531 11.511719 10.386719 11.535156 10.375 11.558594 C 10.121094 11.671875 9.8125 11.832031 9.757812 11.847656 C 9.617188 11.886719 9.128906 11.96875 8.777344 12.066406 C 8.730469 12.082031 8.695312 12.082031 8.679688 12.082031 C 8.722656 12.035156 9.070312 11.851562 9.246094 11.753906 C 9.480469 11.613281 9.230469 11.628906 9.230469 11.628906 C 9.230469 11.628906 8.855469 11.585938 8.085938 11.585938 C 7.699219 11.585938 7.535156 11.601562 7.449219 11.628906 C 7.417969 11.632812 7.390625 11.648438 7.367188 11.667969 C 7.347656 11.6875 7.332031 11.703125 7.296875 11.722656 C 7.160156 11.804688 7.378906 11.886719 7.199219 11.945312 C 7.066406 11.988281 7.054688 11.945312 6.9375 11.863281 C 7.019531 11.78125 7.132812 11.683594 7.269531 11.515625 C 7.519531 11.214844 7.601562 11.269531 7.683594 10.992188 C 7.769531 10.714844 6.980469 10.800781 6.980469 10.632812 C 6.980469 10.46875 6.84375 10.355469 6.59375 10.246094 C 6.34375 10.136719 6.515625 10.082031 6.234375 9.996094 C 5.957031 9.914062 5.640625 10.414062 5.558594 10.246094 C 5.476562 10.082031 5.820312 10.082031 5.820312 9.886719 C 5.820312 9.699219 5.421875 10.03125 5.351562 9.789062 C 5.347656 9.78125 5.339844 9.78125 5.339844 9.777344 C 5.332031 9.742188 5.335938 9.722656 5.339844 9.695312 C 5.355469 9.496094 5.585938 9.417969 5.683594 9.222656 C 5.792969 9.003906 5.738281 9.390625 5.875 9.585938 C 6.015625 9.777344 5.960938 9.335938 5.875 9.089844 C 5.792969 8.839844 5.929688 8.839844 6.125 8.507812 C 6.320312 8.175781 6.316406 7.984375 6.316406 7.734375 C 6.316406 7.484375 6.453125 7.457031 6.730469 7.210938 C 6.859375 7.097656 6.960938 6.996094 7.035156 6.90625 C 7.054688 6.898438 7.070312 6.898438 7.089844 6.890625 C 7.386719 6.773438 7.511719 6.597656 7.765625 6.0625 C 8.023438 5.53125 7.667969 6.027344 7.589844 6.007812 C 7.507812 5.988281 7.394531 5.847656 7.117188 5.691406 C 7.070312 5.664062 7.019531 5.644531 6.96875 5.636719 L 7.476562 4.792969 C 7.640625 4.75 7.816406 4.71875 7.988281 4.695312 C 8.050781 5.054688 8.015625 5.386719 8.015625 5.386719 C 8.015625 5.386719 7.917969 5.503906 7.917969 5.582031 C 7.917969 5.660156 8.445312 4.929688 8.527344 4.890625 C 8.605469 4.851562 8.804688 5.097656 8.84375 4.726562 C 8.847656 4.703125 8.84375 4.703125 8.84375 4.683594 Z M 9.542969 6.175781 C 9.527344 6.179688 9.511719 6.183594 9.492188 6.191406 C 9.492188 6.285156 9.453125 6.359375 9.4375 6.398438 C 9.425781 6.378906 9.398438 6.355469 9.398438 6.355469 C 9.355469 6.433594 9.265625 6.5 9.355469 6.480469 C 9.445312 6.460938 9.515625 6.515625 9.453125 6.4375 C 9.441406 6.421875 9.445312 6.429688 9.4375 6.421875 C 9.449219 6.433594 9.472656 6.4375 9.519531 6.4375 L 9.644531 6.4375 C 9.578125 6.488281 9.503906 6.507812 9.605469 6.535156 C 9.734375 6.570312 9.796875 6.578125 9.796875 6.550781 C 9.789062 6.507812 9.773438 6.464844 9.753906 6.425781 C 9.78125 6.414062 9.804688 6.402344 9.78125 6.355469 C 9.742188 6.273438 9.675781 6.1875 9.589844 6.175781 C 9.574219 6.171875 9.558594 6.171875 9.542969 6.175781 Z M 11.699219 6.410156 C 11.769531 6.515625 11.835938 6.628906 11.894531 6.742188 C 11.855469 6.964844 11.757812 7.113281 11.921875 7.113281 C 11.96875 7.113281 12.007812 7.105469 12.046875 7.101562 C 12.050781 7.113281 12.054688 7.128906 12.058594 7.140625 C 11.78125 7.140625 11.648438 7.222656 11.507812 7.195312 C 11.367188 7.167969 10.980469 7.144531 11.230469 6.890625 C 11.378906 6.746094 11.5625 6.511719 11.703125 6.410156 Z M 9.960938 6.917969 L 9.960938 6.921875 C 9.988281 6.929688 10.011719 6.957031 10.03125 7.003906 C 10.113281 7.199219 10.253906 7.359375 10.140625 7.390625 C 10.03125 7.417969 9.976562 7.445312 9.976562 7.445312 C 9.976562 7.445312 10.363281 7.695312 10.390625 7.417969 C 10.417969 7.136719 10.28125 6.976562 10.28125 6.976562 C 10.28125 6.976562 10.472656 7.167969 10.527344 7.277344 C 10.585938 7.390625 10.582031 7.277344 10.722656 7.417969 C 10.859375 7.558594 10.828125 6.863281 11.023438 7.058594 C 11.21875 7.253906 11.34375 7.25 11.285156 7.390625 C 11.230469 7.527344 11.644531 7.222656 11.644531 7.5 C 11.644531 7.769531 11.816406 7.878906 11.480469 8.011719 C 11.351562 8.003906 11.25 7.980469 11.230469 7.941406 C 11.175781 7.828125 10.859375 7.914062 10.859375 7.914062 C 10.023438 7.707031 9.664062 7.640625 9.425781 7.679688 C 9.429688 7.671875 9.433594 7.671875 9.4375 7.664062 C 9.558594 7.445312 9.789062 7.140625 9.714844 7.03125 C 9.820312 6.96875 9.902344 6.902344 9.964844 6.921875 Z M 12.308594 8.316406 C 12.3125 8.371094 12.308594 8.425781 12.308594 8.480469 C 12.308594 8.636719 12.300781 8.796875 12.28125 8.949219 C 12.03125 8.726562 11.675781 8.730469 11.675781 8.730469 C 11.675781 8.730469 11.890625 8.480469 12.199219 8.371094 C 12.238281 8.355469 12.273438 8.339844 12.308594 8.316406 Z M 12.308594 8.316406 "/>
</svg>
