<?xml version="1.0" encoding="UTF-8"?>
<svg xmlns="http://www.w3.org/2000/svg" xmlns:xlink="http://www.w3.org/1999/xlink" width="24" height="24" viewBox="0 0 24 24">
<path fill-rule="nonzero" fill="rgb(44.705882%, 44.705882%, 44.705882%)" fill-opacity="1" d="M 11.996094 4 L 9.496094 8 L 10.996094 8 L 10.996094 13 L 7.996094 13 L 7.996094 11.726562 C 8.613281 11.371094 8.992188 10.714844 8.996094 10 C 8.996094 8.894531 8.097656 8 6.996094 8 C 5.890625 8 4.996094 8.894531 4.996094 10 C 4.996094 10.714844 5.375 11.375 5.996094 11.730469 L 5.996094 13 C 5.996094 15 7.996094 15 7.996094 15 L 10.996094 15 L 10.996094 16.273438 C 10.378906 16.628906 9.996094 17.285156 9.996094 18 C 9.996094 19.105469 10.890625 20 11.996094 20 C 13.097656 20 13.996094 19.105469 13.996094 18 C 13.996094 17.285156 13.613281 16.625 12.996094 16.269531 L 12.996094 15 L 15.996094 15 C 15.996094 15 17.996094 15 17.996094 13 L 17.996094 12 C 17.996094 12 19.121094 11.8125 18.996094 11 L 18.996094 9 C 19.121094 7.875 17.996094 8 17.996094 8 L 15.996094 8 C 14.933594 8 14.996094 9 14.996094 9 L 14.996094 11 C 14.996094 12 15.996094 12 15.996094 12 L 15.996094 13 L 12.996094 13 L 12.996094 8 L 14.496094 8 Z M 11.996094 4 "/>
</svg>
