<?xml version="1.0" encoding="UTF-8"?>
<svg xmlns="http://www.w3.org/2000/svg" xmlns:xlink="http://www.w3.org/1999/xlink" width="24" height="24" viewBox="0 0 24 24">
<path fill-rule="nonzero" fill="rgb(44.705882%, 44.705882%, 44.705882%)" fill-opacity="1" d="M 5 5 C 4.445312 5 4 5.445312 4 6 L 4 10 C 4 10.554688 4.445312 11 5 11 L 6 11 L 6 12 L 5 12 C 4.445312 12 4 12.445312 4 13 L 4 17 C 4 17.554688 4.445312 18 5 18 L 6 18 L 6 19 L 7 19 L 7 18 L 17 18 L 17 19 L 18 19 L 18 18 L 19 18 C 19.554688 18 20 17.554688 20 17 L 20 13 C 20 12.445312 19.554688 12 19 12 L 18 12 L 18 11 L 19 11 C 19.554688 11 20 10.554688 20 10 L 20 6 C 20 5.445312 19.554688 5 19 5 Z M 17 7 C 17.550781 7 18 7.449219 18 8 C 18 8.550781 17.550781 9 17 9 C 16.449219 9 16 8.550781 16 8 C 16 7.449219 16.449219 7 17 7 Z M 7 11 L 17 11 L 17 12 L 7 12 Z M 17 14 C 17.550781 14 18 14.449219 18 15 C 18 15.550781 17.550781 16 17 16 C 16.449219 16 16 15.550781 16 15 C 16 14.449219 16.449219 14 17 14 Z M 17 14 "/>
</svg>
