<?xml version="1.0" encoding="UTF-8"?>
<svg xmlns="http://www.w3.org/2000/svg" xmlns:xlink="http://www.w3.org/1999/xlink" width="24" height="24" viewBox="0 0 24 24">
<path fill-rule="nonzero" fill="rgb(44.705882%, 44.705882%, 44.705882%)" fill-opacity="1" d="M 7 5 C 6 5 6 6 6 6 L 6 18 C 6 18 6 19 7 19 L 17 19 C 17 19 18 19 18 18 L 18 6 C 18 6 18 5 17 5 Z M 12 7 C 17.332031 7 17.332031 15 12 15 L 8 15 L 8 11 C 8 8.789062 9.789062 7 12 7 Z M 12 8 L 9 14 L 10 14 L 13 8 Z M 12 13 L 12 14 L 14 14 L 14 13 Z M 12 13 "/>
</svg>
