<?xml version="1.0" encoding="UTF-8"?>
<svg xmlns="http://www.w3.org/2000/svg" xmlns:xlink="http://www.w3.org/1999/xlink" width="24" height="24" viewBox="0 0 24 24">
<path fill-rule="nonzero" fill="rgb(44.705882%, 44.705882%, 44.705882%)" fill-opacity="1" d="M 7 5 C 6 5 6 6 6 6 L 6 18 C 6 18 6 19 7 19 L 17 19 C 17 19 18 19 18 18 L 18 6 C 18 6 18 5 17 5 Z M 12 7 C 17.332031 7 17.332031 15 12 15 L 8 15 L 8 11 C 8 8.789062 9.789062 7 12 7 Z M 11.996094 8 C 11.929688 8 11.859375 8.003906 11.792969 8.011719 C 10.773438 8.117188 10 8.976562 9.996094 10 L 10 11 L 9 11 L 9 14 L 12 14 C 13.636719 14 14.96875 12.6875 14.996094 11.050781 L 14.996094 11 L 13.996094 11 L 13.996094 10 C 13.996094 8.949219 13.1875 8.078125 12.136719 8.007812 C 12.089844 8.003906 12.042969 8 11.996094 8 Z M 11.996094 9 C 12.550781 9 12.996094 9.449219 12.996094 10 L 12.996094 11 L 10.996094 11 L 10.996094 10 C 10.996094 9.449219 11.445312 9 11.996094 9 Z M 11.996094 9 "/>
</svg>
