<?xml version="1.0" encoding="UTF-8"?>
<svg xmlns="http://www.w3.org/2000/svg" xmlns:xlink="http://www.w3.org/1999/xlink" width="32" height="32" viewBox="0 0 32 32">
<path fill-rule="nonzero" fill="rgb(21.176471%, 21.176471%, 21.176471%)" fill-opacity="1" d="M 6.734375 2.910156 C 6.320312 2.910156 5.929688 3.105469 5.679688 3.441406 L 4.761719 3.441406 L 4.761719 3.175781 L 3.96875 3.175781 L 3.96875 3.433594 L 4.238281 3.703125 L 5.554688 3.703125 L 5.554688 4.761719 L 5.296875 4.761719 L 5.558594 5.027344 L 5.679688 5.027344 C 5.929688 5.359375 6.320312 5.554688 6.734375 5.554688 L 7.9375 5.554688 L 7.9375 2.910156 Z M 6.734375 3.175781 L 7.671875 3.175781 L 7.671875 5.292969 L 6.734375 5.292969 C 6.359375 5.292969 6.007812 5.089844 5.820312 4.761719 L 5.820312 3.703125 C 6.007812 3.378906 6.359375 3.175781 6.734375 3.175781 Z M 0.527344 3.441406 L 0.527344 5.027344 L 4.492188 5.027344 L 4.230469 4.761719 L 0.792969 4.761719 L 0.792969 3.703125 L 3.171875 3.703125 L 2.90625 3.441406 Z M 0.527344 3.441406 "/>
<path fill-rule="nonzero" fill="rgb(85.490196%, 26.666667%, 32.54902%)" fill-opacity="1" d="M 0.527344 0.714844 L 0.714844 0.527344 L 7.9375 7.75 L 7.75 7.9375 Z M 0.527344 0.714844 "/>
</svg>
