<?xml version="1.0" encoding="UTF-8"?>
<svg xmlns="http://www.w3.org/2000/svg" xmlns:xlink="http://www.w3.org/1999/xlink" width="32" height="32" viewBox="0 0 32 32">
<path fill-rule="nonzero" fill="rgb(21.176471%, 21.176471%, 21.176471%)" fill-opacity="1" d="M 7.9375 5.554688 L 6.734375 5.554688 C 6.320312 5.554688 5.929688 5.359375 5.679688 5.027344 L 0.527344 5.027344 L 0.527344 3.441406 L 3.96875 3.441406 L 3.96875 3.175781 L 4.761719 3.175781 L 4.761719 3.441406 L 5.679688 3.441406 C 5.929688 3.105469 6.320312 2.910156 6.734375 2.910156 L 7.9375 2.910156 Z M 7.671875 5.292969 L 7.671875 3.175781 L 6.734375 3.175781 C 6.359375 3.175781 6.007812 3.378906 5.820312 3.703125 L 5.820312 4.761719 C 6.007812 5.089844 6.359375 5.292969 6.734375 5.292969 Z M 5.554688 4.761719 L 5.554688 3.703125 L 0.792969 3.703125 L 0.792969 4.761719 Z M 5.554688 4.761719 "/>
</svg>
