<?xml version="1.0" encoding="UTF-8"?>
<svg xmlns="http://www.w3.org/2000/svg" xmlns:xlink="http://www.w3.org/1999/xlink" width="32" height="32" viewBox="0 0 32 32">
<path fill-rule="nonzero" fill="rgb(21.176471%, 21.176471%, 21.176471%)" fill-opacity="1" d="M 1.585938 1.585938 L 1.585938 1.851562 L 5.292969 1.851562 L 5.292969 1.585938 Z M 1.585938 2.382812 L 1.585938 2.644531 L 6.878906 2.644531 L 6.878906 2.382812 Z M 1.585938 2.910156 L 1.585938 3.175781 L 6.878906 3.175781 L 6.878906 2.910156 Z M 1.585938 3.441406 L 1.585938 3.703125 L 6.878906 3.703125 L 6.878906 3.441406 Z M 1.585938 3.96875 L 1.585938 4.234375 L 6.878906 4.234375 L 6.878906 3.96875 Z M 1.585938 4.496094 L 1.585938 4.761719 L 6.085938 4.761719 L 6.085938 4.496094 Z M 2.117188 5.027344 L 2.117188 5.292969 L 6.878906 5.292969 L 6.878906 5.027344 Z M 1.585938 5.554688 L 1.585938 5.820312 L 6.878906 5.820312 L 6.878906 5.554688 Z M 1.585938 6.085938 L 1.585938 6.351562 L 6.878906 6.351562 L 6.878906 6.085938 Z M 1.585938 6.613281 L 1.585938 6.878906 L 5.292969 6.878906 L 5.292969 6.613281 Z M 1.585938 6.613281 "/>
<path fill-rule="nonzero" fill="rgb(21.176471%, 21.176471%, 21.176471%)" fill-opacity="1" d="M 1.058594 0.527344 L 1.058594 1.058594 L 0.527344 1.058594 L 0.527344 1.324219 L 1.058594 1.324219 L 1.058594 7.410156 L 7.144531 7.410156 L 7.144531 7.9375 L 7.410156 7.9375 L 7.410156 7.410156 L 7.9375 7.410156 L 7.9375 7.144531 L 7.410156 7.144531 L 7.410156 1.058594 L 1.324219 1.058594 L 1.324219 0.527344 Z M 1.324219 1.324219 L 7.144531 1.324219 L 7.144531 7.144531 L 1.324219 7.144531 Z M 1.324219 1.324219 "/>
</svg>
