<?xml version="1.0" encoding="UTF-8"?>
<svg xmlns="http://www.w3.org/2000/svg" xmlns:xlink="http://www.w3.org/1999/xlink" width="32" height="32" viewBox="0 0 32 32">
<defs>
<filter id="filter-remove-color" x="0%" y="0%" width="100%" height="100%">
<feColorMatrix color-interpolation-filters="sRGB" values="0 0 0 0 1 0 0 0 0 1 0 0 0 0 1 0 0 0 1 0" />
</filter>
<mask id="mask-0">
<g filter="url(#filter-remove-color)">
<rect x="-3.2" y="-3.2" width="38.4" height="38.4" fill="rgb(0%, 0%, 0%)" fill-opacity="0.5"/>
</g>
</mask>
<clipPath id="clip-0">
<rect x="0" y="0" width="9" height="9"/>
</clipPath>
<g id="source-347" clip-path="url(#clip-0)">
<path fill-rule="nonzero" fill="rgb(21.176471%, 21.176471%, 21.176471%)" fill-opacity="1" d="M 1.585938 0.792969 L 1.585938 1.058594 L 6.878906 1.058594 L 6.878906 0.792969 Z M 1.585938 1.324219 L 1.585938 1.585938 L 6.878906 1.585938 L 6.878906 1.324219 Z M 1.585938 1.851562 L 1.585938 2.117188 L 6.878906 2.117188 L 6.878906 1.851562 Z M 1.585938 2.382812 L 1.585938 2.644531 L 6.878906 2.644531 L 6.878906 2.382812 Z M 2.117188 2.910156 L 2.117188 3.175781 L 6.878906 3.175781 L 6.878906 2.910156 Z M 1.585938 6.085938 L 1.585938 6.351562 L 6.351562 6.351562 L 6.351562 6.085938 Z M 1.585938 6.613281 L 1.585938 6.878906 L 6.878906 6.878906 L 6.878906 6.613281 Z M 1.585938 7.144531 L 1.585938 7.410156 L 6.878906 7.410156 L 6.878906 7.144531 Z M 1.585938 7.671875 L 1.585938 7.9375 L 6.878906 7.9375 L 6.878906 7.671875 Z M 1.585938 7.671875 "/>
</g>
</defs>
<g mask="url(#mask-0)">
<use xlink:href="#source-347"/>
</g>
<path fill-rule="nonzero" fill="rgb(21.176471%, 21.176471%, 21.176471%)" fill-opacity="1" d="M 2.117188 3.96875 L 2.117188 4.234375 L 6.351562 4.234375 L 6.351562 3.96875 Z M 2.117188 4.496094 L 2.117188 4.761719 L 6.351562 4.761719 L 6.351562 4.496094 Z M 2.117188 5.027344 L 2.117188 5.292969 L 6.351562 5.292969 L 6.351562 5.027344 Z M 2.117188 5.027344 "/>
<path fill-rule="nonzero" fill="rgb(21.176471%, 21.176471%, 21.176471%)" fill-opacity="1" d="M 1.585938 2.910156 L 1.585938 3.441406 L 1.058594 3.441406 L 1.058594 3.703125 L 1.585938 3.703125 L 1.585938 5.820312 L 6.613281 5.820312 L 6.613281 6.351562 L 6.878906 6.351562 L 6.878906 5.820312 L 7.410156 5.820312 L 7.410156 5.554688 L 6.878906 5.554688 L 6.878906 3.441406 L 1.851562 3.441406 L 1.851562 2.910156 Z M 1.851562 3.703125 L 6.613281 3.703125 L 6.613281 5.554688 L 1.851562 5.554688 Z M 1.851562 3.703125 "/>
</svg>
