<?xml version="1.0" encoding="UTF-8"?>
<svg xmlns="http://www.w3.org/2000/svg" xmlns:xlink="http://www.w3.org/1999/xlink" width="32" height="32" viewBox="0 0 32 32">
<path fill-rule="nonzero" fill="rgb(21.176471%, 21.176471%, 21.176471%)" fill-opacity="1" d="M 1.058594 7.144531 L 1.058594 6.878906 L 2.382812 6.878906 L 2.382812 7.144531 Z M 1.058594 7.144531 "/>
<path fill-rule="nonzero" fill="rgb(21.176471%, 21.176471%, 21.176471%)" fill-opacity="1" d="M 1.058594 3.96875 L 1.058594 3.703125 L 4.496094 3.703125 L 4.496094 3.96875 Z M 1.058594 3.96875 "/>
<path fill-rule="nonzero" fill="rgb(21.176471%, 21.176471%, 21.176471%)" fill-opacity="1" d="M 1.058594 3.175781 L 1.058594 2.910156 L 5.027344 2.910156 L 5.027344 3.175781 Z M 1.058594 3.175781 "/>
<path fill-rule="nonzero" fill="rgb(21.176471%, 21.176471%, 21.176471%)" fill-opacity="1" d="M 1.058594 1.324219 L 1.058594 1.585938 L 6.085938 1.585938 L 6.085938 1.324219 Z M 1.058594 1.324219 "/>
<path fill-rule="nonzero" fill="rgb(21.176471%, 21.176471%, 21.176471%)" fill-opacity="1" d="M 1.058594 2.117188 L 1.058594 2.382812 L 5.554688 2.382812 L 5.554688 2.117188 Z M 1.058594 2.117188 "/>
<path fill-rule="nonzero" fill="rgb(21.176471%, 21.176471%, 21.176471%)" fill-opacity="1" d="M 6.351562 4.761719 L 6.351562 6.902344 L 5.742188 6.296875 L 5.554688 6.480469 L 6.480469 7.410156 L 7.410156 6.480469 L 7.222656 6.296875 L 6.613281 6.902344 L 6.613281 4.761719 Z M 6.351562 4.761719 "/>
<path fill-rule="nonzero" fill="rgb(21.176471%, 21.176471%, 21.176471%)" fill-opacity="1" d="M 1.058594 4.761719 L 1.058594 4.496094 L 3.96875 4.496094 L 3.96875 4.761719 Z M 1.058594 4.761719 "/>
<path fill-rule="nonzero" fill="rgb(21.176471%, 21.176471%, 21.176471%)" fill-opacity="1" d="M 1.058594 5.554688 L 1.058594 5.292969 L 3.441406 5.292969 L 3.441406 5.554688 Z M 1.058594 5.554688 "/>
<path fill-rule="nonzero" fill="rgb(21.176471%, 21.176471%, 21.176471%)" fill-opacity="1" d="M 1.058594 6.351562 L 1.058594 6.085938 L 2.910156 6.085938 L 2.910156 6.351562 Z M 1.058594 6.351562 "/>
</svg>
