<?xml version="1.0" encoding="UTF-8"?>
<svg xmlns="http://www.w3.org/2000/svg" xmlns:xlink="http://www.w3.org/1999/xlink" width="32" height="32" viewBox="0 0 32 32">
<path fill-rule="nonzero" fill="rgb(21.176471%, 21.176471%, 21.176471%)" fill-opacity="1" d="M 1.058594 1.324219 L 1.058594 1.585938 L 2.382812 1.585938 L 2.382812 1.324219 Z M 1.058594 1.324219 "/>
<path fill-rule="nonzero" fill="rgb(21.176471%, 21.176471%, 21.176471%)" fill-opacity="1" d="M 1.058594 4.496094 L 1.058594 4.761719 L 4.496094 4.761719 L 4.496094 4.496094 Z M 1.058594 4.496094 "/>
<path fill-rule="nonzero" fill="rgb(21.176471%, 21.176471%, 21.176471%)" fill-opacity="1" d="M 1.058594 5.292969 L 1.058594 5.554688 L 5.027344 5.554688 L 5.027344 5.292969 Z M 1.058594 5.292969 "/>
<path fill-rule="nonzero" fill="rgb(21.176471%, 21.176471%, 21.176471%)" fill-opacity="1" d="M 1.058594 7.144531 L 1.058594 6.878906 L 6.085938 6.878906 L 6.085938 7.144531 Z M 1.058594 7.144531 "/>
<path fill-rule="nonzero" fill="rgb(21.176471%, 21.176471%, 21.176471%)" fill-opacity="1" d="M 1.058594 6.351562 L 1.058594 6.085938 L 5.554688 6.085938 L 5.554688 6.351562 Z M 1.058594 6.351562 "/>
<path fill-rule="nonzero" fill="rgb(21.176471%, 21.176471%, 21.176471%)" fill-opacity="1" d="M 6.351562 3.703125 L 6.351562 1.566406 L 5.742188 2.171875 L 5.554688 1.984375 L 6.480469 1.058594 L 7.410156 1.984375 L 7.222656 2.171875 L 6.613281 1.566406 L 6.613281 3.703125 Z M 6.351562 3.703125 "/>
<path fill-rule="nonzero" fill="rgb(21.176471%, 21.176471%, 21.176471%)" fill-opacity="1" d="M 1.058594 3.703125 L 1.058594 3.96875 L 3.96875 3.96875 L 3.96875 3.703125 Z M 1.058594 3.703125 "/>
<path fill-rule="nonzero" fill="rgb(21.176471%, 21.176471%, 21.176471%)" fill-opacity="1" d="M 1.058594 2.910156 L 1.058594 3.175781 L 3.441406 3.175781 L 3.441406 2.910156 Z M 1.058594 2.910156 "/>
<path fill-rule="nonzero" fill="rgb(21.176471%, 21.176471%, 21.176471%)" fill-opacity="1" d="M 1.058594 2.117188 L 1.058594 2.382812 L 2.910156 2.382812 L 2.910156 2.117188 Z M 1.058594 2.117188 "/>
</svg>
