<?xml version="1.0" encoding="UTF-8"?>
<svg xmlns="http://www.w3.org/2000/svg" xmlns:xlink="http://www.w3.org/1999/xlink" width="32" height="32" viewBox="0 0 32 32">
<path fill-rule="nonzero" fill="rgb(21.176471%, 21.176471%, 21.176471%)" fill-opacity="1" d="M 1.058594 1.324219 L 1.058594 1.585938 L 4.761719 1.585938 L 4.761719 1.324219 Z M 1.058594 1.324219 "/>
<path fill-rule="nonzero" fill="rgb(21.176471%, 21.176471%, 21.176471%)" fill-opacity="1" d="M 1.058594 4.496094 L 1.058594 4.761719 L 4.761719 4.761719 L 4.761719 4.496094 Z M 1.058594 4.496094 "/>
<path fill-rule="nonzero" fill="rgb(21.176471%, 21.176471%, 21.176471%)" fill-opacity="1" d="M 1.058594 5.292969 L 1.058594 5.554688 L 4.761719 5.554688 L 4.761719 5.292969 Z M 1.058594 5.292969 "/>
<path fill-rule="nonzero" fill="rgb(21.176471%, 21.176471%, 21.176471%)" fill-opacity="1" d="M 1.058594 7.144531 L 1.058594 6.878906 L 4.761719 6.878906 L 4.761719 7.144531 Z M 1.058594 7.144531 "/>
<path fill-rule="nonzero" fill="rgb(21.176471%, 21.176471%, 21.176471%)" fill-opacity="1" d="M 1.058594 6.351562 L 1.058594 6.085938 L 4.761719 6.085938 L 4.761719 6.351562 Z M 1.058594 6.351562 "/>
<path fill-rule="nonzero" fill="rgb(21.176471%, 21.176471%, 21.176471%)" fill-opacity="1" d="M 6.351562 4.761719 L 6.351562 6.902344 L 5.742188 6.296875 L 5.554688 6.480469 L 6.480469 7.410156 L 7.410156 6.480469 L 7.222656 6.296875 L 6.613281 6.902344 L 6.613281 4.761719 Z M 6.351562 4.761719 "/>
<path fill-rule="nonzero" fill="rgb(21.176471%, 21.176471%, 21.176471%)" fill-opacity="1" d="M 1.058594 3.703125 L 1.058594 3.96875 L 4.234375 3.96875 L 4.234375 3.703125 Z M 1.058594 3.703125 "/>
<path fill-rule="nonzero" fill="rgb(21.176471%, 21.176471%, 21.176471%)" fill-opacity="1" d="M 1.058594 2.910156 L 1.058594 3.175781 L 4.761719 3.175781 L 4.761719 2.910156 Z M 1.058594 2.910156 "/>
<path fill-rule="nonzero" fill="rgb(21.176471%, 21.176471%, 21.176471%)" fill-opacity="1" d="M 1.058594 2.117188 L 1.058594 2.382812 L 4.761719 2.382812 L 4.761719 2.117188 Z M 1.058594 2.117188 "/>
<path fill-rule="nonzero" fill="rgb(21.176471%, 21.176471%, 21.176471%)" fill-opacity="1" d="M 5.554688 5.554688 L 5.554688 3.417969 L 4.949219 4.023438 L 4.761719 3.835938 L 5.6875 2.910156 L 6.613281 3.835938 L 6.425781 4.023438 L 5.820312 3.417969 L 5.820312 5.554688 Z M 5.554688 5.554688 "/>
</svg>
