<?xml version="1.0" encoding="UTF-8"?>
<svg xmlns="http://www.w3.org/2000/svg" xmlns:xlink="http://www.w3.org/1999/xlink" width="24" height="24" viewBox="0 0 24 24">
<path fill-rule="nonzero" fill="rgb(100%, 100%, 100%)" fill-opacity="1" d="M 5.554688 3.96875 L 4.691406 3.96875 C 4.464844 3.96875 4.25 3.871094 4.101562 3.703125 L 0.792969 3.703125 L 0.792969 2.644531 L 3.175781 2.644531 L 3.175781 2.382812 L 3.703125 2.382812 L 3.703125 2.644531 L 4.101562 2.644531 C 4.25 2.476562 4.464844 2.382812 4.691406 2.382812 L 5.554688 2.382812 Z M 5.292969 3.703125 L 5.292969 2.644531 L 4.691406 2.644531 C 4.503906 2.644531 4.328125 2.746094 4.234375 2.910156 L 4.234375 3.441406 C 4.328125 3.601562 4.503906 3.703125 4.691406 3.703125 Z M 3.96875 3.441406 L 3.96875 2.910156 L 1.058594 2.910156 L 1.058594 3.441406 Z M 3.96875 3.441406 "/>
</svg>
