<?xml version="1.0" encoding="UTF-8"?>
<svg xmlns="http://www.w3.org/2000/svg" xmlns:xlink="http://www.w3.org/1999/xlink" width="24" height="24" viewBox="0 0 24 24">
<path fill-rule="nonzero" fill="rgb(100%, 100%, 100%)" fill-opacity="1" d="M 3.175781 2.382812 L 3.175781 2.644531 L 3.441406 2.910156 L 3.96875 2.910156 L 3.96875 3.4375 L 4.460938 3.929688 C 4.535156 3.953125 4.613281 3.96875 4.691406 3.96875 L 5.554688 3.96875 L 5.554688 2.382812 L 4.691406 2.382812 C 4.464844 2.382812 4.25 2.476562 4.101562 2.644531 L 3.703125 2.644531 L 3.703125 2.382812 Z M 0.792969 2.644531 L 0.792969 3.703125 L 3.171875 3.703125 L 2.90625 3.441406 L 1.058594 3.441406 L 1.058594 2.910156 L 2.375 2.910156 L 2.113281 2.644531 Z M 4.691406 2.644531 L 5.292969 2.644531 L 5.292969 3.703125 L 4.691406 3.703125 C 4.503906 3.703125 4.328125 3.601562 4.234375 3.441406 L 4.234375 2.910156 C 4.328125 2.746094 4.503906 2.644531 4.691406 2.644531 Z M 4.691406 2.644531 "/>
<path fill-rule="nonzero" fill="rgb(85.490196%, 26.666667%, 32.54902%)" fill-opacity="1" d="M 1.058594 1.246094 L 1.246094 1.058594 L 5.292969 5.105469 L 5.105469 5.292969 Z M 1.058594 1.246094 "/>
</svg>
