<?xml version="1.0" encoding="UTF-8"?>
<svg xmlns="http://www.w3.org/2000/svg" xmlns:xlink="http://www.w3.org/1999/xlink" width="24" height="24" viewBox="0 0 24 24">
<path fill-rule="nonzero" fill="rgb(100%, 100%, 100%)" fill-opacity="1" d="M 4 4 L 4 20 L 13 20 L 13 19 L 5 19 L 5 5 L 12 5 L 12 6 L 13 6 L 13 5 L 19 5 L 19 13 L 20 13 L 20 4 Z M 12 6 L 11 6 L 11 7 L 12 7 Z M 12 7 L 12 8 L 13 8 L 13 7 Z M 12 8 L 11 8 L 11 9 L 12 9 Z M 12 9 L 12 10 L 13 10 L 13 9 Z M 12 10 L 11 10 L 11 12 L 13 12 L 13 11 L 12 11 Z M 12 10 "/>
<path fill-rule="nonzero" fill="rgb(100%, 100%, 100%)" fill-opacity="1" d="M 16.5 13 L 13 16.5 L 13.707031 17.207031 L 16 14.914062 L 16 20 L 17 20 L 17 14.914062 L 19.292969 17.207031 L 20 16.5 Z M 16.5 13 "/>
</svg>
