<?xml version="1.0" encoding="UTF-8"?>
<svg xmlns="http://www.w3.org/2000/svg" xmlns:xlink="http://www.w3.org/1999/xlink" width="24" height="24" viewBox="0 0 24 24">
<path fill-rule="nonzero" fill="rgb(100%, 100%, 100%)" fill-opacity="1" d="M 12 4.363281 C 11.710938 4.363281 11.433594 4.480469 11.230469 4.683594 C 11.023438 4.886719 10.910156 5.164062 10.910156 5.453125 L 10.910156 5.464844 C 8.984375 5.964844 7.636719 7.832031 7.636719 9.816406 C 7.636719 9.816406 7.636719 15.273438 5.824219 15.949219 C 5.808594 15.960938 5.800781 15.984375 5.78125 15.996094 C 5.714844 16.050781 5.652344 16.117188 5.605469 16.1875 C 5.585938 16.21875 5.5625 16.242188 5.546875 16.273438 C 5.488281 16.382812 5.457031 16.507812 5.453125 16.636719 C 5.453125 17.089844 5.820312 17.453125 6.273438 17.453125 L 17.726562 17.453125 C 18.179688 17.453125 18.546875 17.089844 18.546875 16.636719 C 18.542969 16.507812 18.511719 16.382812 18.453125 16.273438 C 18.4375 16.242188 18.414062 16.21875 18.394531 16.1875 C 18.347656 16.117188 18.289062 16.050781 18.21875 15.996094 C 18.199219 15.984375 18.191406 15.960938 18.175781 15.949219 C 16.363281 15.273438 16.363281 9.816406 16.363281 9.816406 C 16.363281 7.828125 15.015625 5.960938 13.089844 5.464844 L 13.089844 5.453125 C 13.089844 5.164062 12.976562 4.886719 12.769531 4.683594 C 12.566406 4.480469 12.289062 4.363281 12 4.363281 Z M 9.890625 18.546875 C 10.011719 19.011719 10.285156 19.425781 10.667969 19.722656 C 11.046875 20.019531 11.515625 20.179688 12 20.183594 C 12.484375 20.183594 12.953125 20.019531 13.335938 19.726562 C 13.71875 19.429688 13.992188 19.015625 14.113281 18.546875 Z M 9.890625 18.546875 "/>
</svg>
