<?xml version="1.0" encoding="UTF-8"?>
<svg xmlns="http://www.w3.org/2000/svg" xmlns:xlink="http://www.w3.org/1999/xlink" width="24" height="24" viewBox="0 0 24 24">
<path fill-rule="nonzero" fill="rgb(100%, 100%, 100%)" fill-opacity="1" d="M 1.585938 2.117188 L 1.585938 2.382812 L 4.761719 2.382812 L 4.761719 2.117188 Z M 1.585938 2.910156 L 1.585938 3.175781 L 4.761719 3.175781 L 4.761719 2.910156 Z M 1.585938 3.441406 L 1.585938 3.703125 L 4.761719 3.703125 L 4.761719 3.441406 Z M 1.585938 3.96875 L 1.585938 4.234375 L 4.761719 4.234375 L 4.761719 3.96875 Z M 1.585938 4.496094 L 1.585938 4.761719 L 4.761719 4.761719 L 4.761719 4.496094 Z M 1.585938 5.027344 L 1.585938 5.292969 L 4.234375 5.292969 L 4.234375 5.027344 Z M 1.585938 5.027344 "/>
<path fill-rule="nonzero" fill="rgb(100%, 100%, 100%)" fill-opacity="1" d="M 1.058594 1.058594 L 1.058594 1.585938 L 0.527344 1.585938 L 0.527344 1.851562 L 1.058594 1.851562 L 1.058594 5.292969 L 1.324219 5.292969 L 1.324219 1.851562 L 5.027344 1.851562 L 5.027344 5.292969 L 5.292969 5.292969 L 5.292969 1.585938 L 1.324219 1.585938 L 1.324219 1.058594 Z M 1.058594 1.058594 "/>
</svg>
