<?xml version="1.0" encoding="UTF-8"?>
<svg xmlns="http://www.w3.org/2000/svg" xmlns:xlink="http://www.w3.org/1999/xlink" width="24" height="24" viewBox="0 0 24 24">
<defs>
<filter id="filter-remove-color" x="0%" y="0%" width="100%" height="100%">
<feColorMatrix color-interpolation-filters="sRGB" values="0 0 0 0 1 0 0 0 0 1 0 0 0 0 1 0 0 0 1 0" />
</filter>
<mask id="mask-0">
<g filter="url(#filter-remove-color)">
<rect x="-2.4" y="-2.4" width="28.8" height="28.8" fill="rgb(0%, 0%, 0%)" fill-opacity="0.5"/>
</g>
</mask>
<clipPath id="clip-0">
<rect x="0" y="0" width="7" height="7"/>
</clipPath>
<g id="source-22" clip-path="url(#clip-0)">
<path fill-rule="nonzero" fill="rgb(100%, 100%, 100%)" fill-opacity="1" d="M 1.585938 1.324219 L 1.585938 1.585938 L 4.761719 1.585938 L 4.761719 1.324219 Z M 1.851562 1.851562 L 1.851562 2.117188 L 4.761719 2.117188 L 4.761719 1.851562 Z M 1.585938 5.027344 L 1.585938 5.292969 L 4.496094 5.292969 L 4.496094 5.027344 Z M 1.585938 5.027344 "/>
</g>
</defs>
<g mask="url(#mask-0)">
<use xlink:href="#source-22"/>
</g>
<path fill-rule="nonzero" fill="rgb(100%, 100%, 100%)" fill-opacity="1" d="M 1.851562 2.910156 L 1.851562 3.175781 L 4.496094 3.175781 L 4.496094 2.910156 Z M 1.851562 3.441406 L 1.851562 3.703125 L 4.496094 3.703125 L 4.496094 3.441406 Z M 1.851562 3.96875 L 1.851562 4.234375 L 4.496094 4.234375 L 4.496094 3.96875 Z M 1.851562 3.96875 "/>
<path fill-rule="nonzero" fill="rgb(100%, 100%, 100%)" fill-opacity="1" d="M 1.324219 1.851562 L 1.324219 2.382812 L 0.792969 2.382812 L 0.792969 2.644531 L 1.324219 2.644531 L 1.324219 4.761719 L 4.761719 4.761719 L 4.761719 5.292969 L 5.027344 5.292969 L 5.027344 4.761719 L 5.554688 4.761719 L 5.554688 4.496094 L 5.027344 4.496094 L 5.027344 2.382812 L 1.585938 2.382812 L 1.585938 1.851562 Z M 1.585938 2.644531 L 4.761719 2.644531 L 4.761719 4.496094 L 1.585938 4.496094 Z M 1.585938 2.644531 "/>
</svg>
