<?xml version="1.0" encoding="UTF-8"?>
<svg xmlns="http://www.w3.org/2000/svg" xmlns:xlink="http://www.w3.org/1999/xlink" width="24" height="24" viewBox="0 0 24 24">
<path fill-rule="nonzero" fill="rgb(100%, 100%, 100%)" fill-opacity="1" d="M 4.234375 2.910156 L 4.234375 4.785156 L 3.625 4.179688 L 3.441406 4.367188 L 4.367188 5.292969 L 5.292969 4.367188 L 5.105469 4.179688 L 4.496094 4.785156 L 4.496094 2.910156 Z M 4.234375 2.910156 "/>
<path fill-rule="nonzero" fill="rgb(100%, 100%, 100%)" fill-opacity="1" d="M 1.058594 1.058594 L 1.058594 1.324219 L 4.761719 1.324219 L 4.761719 1.058594 Z M 1.058594 1.058594 "/>
<path fill-rule="nonzero" fill="rgb(100%, 100%, 100%)" fill-opacity="1" d="M 1.058594 1.851562 L 1.058594 2.117188 L 4.234375 2.117188 L 4.234375 1.851562 Z M 1.058594 1.851562 "/>
<path fill-rule="nonzero" fill="rgb(100%, 100%, 100%)" fill-opacity="1" d="M 1.058594 2.644531 L 1.058594 2.910156 L 3.703125 2.910156 L 3.703125 2.644531 Z M 1.058594 2.644531 "/>
<path fill-rule="nonzero" fill="rgb(100%, 100%, 100%)" fill-opacity="1" d="M 1.058594 5.292969 L 1.058594 5.027344 L 2.117188 5.027344 L 2.117188 5.292969 Z M 1.058594 5.292969 "/>
<path fill-rule="nonzero" fill="rgb(100%, 100%, 100%)" fill-opacity="1" d="M 1.058594 4.496094 L 1.058594 4.234375 L 2.644531 4.234375 L 2.644531 4.496094 Z M 1.058594 4.496094 "/>
<path fill-rule="nonzero" fill="rgb(100%, 100%, 100%)" fill-opacity="1" d="M 1.058594 3.703125 L 1.058594 3.441406 L 3.175781 3.441406 L 3.175781 3.703125 Z M 1.058594 3.703125 "/>
</svg>
