<?xml version="1.0" encoding="UTF-8"?>
<svg xmlns="http://www.w3.org/2000/svg" xmlns:xlink="http://www.w3.org/1999/xlink" width="24" height="24" viewBox="0 0 24 24">
<path fill-rule="nonzero" fill="rgb(100%, 100%, 100%)" fill-opacity="1" d="M 18 4 C 19.109375 4 20 4.890625 20 6 L 20 7 L 19 7 L 19 6 C 19 5.445312 18.554688 5 18 5 L 17 5 L 17 4 Z M 7 4 L 7 5 L 6 5 C 5.445312 5 5 5.445312 5 6 L 5 7 L 4 7 L 4 6 C 4 4.890625 4.890625 4 6 4 Z M 10.714844 8.324219 L 14.390625 12 L 10.714844 15.675781 L 10.007812 14.96875 L 12.976562 12 L 10.007812 9.03125 Z M 20 17 L 20 18 C 20 19.109375 19.109375 20 18 20 L 17 20 L 17 19 L 18 19 C 18.554688 19 19 18.554688 19 18 L 19 17 Z M 5 17 L 5 18 C 5 18.554688 5.445312 19 6 19 L 7 19 L 7 20 L 6 20 C 4.890625 20 4 19.109375 4 18 L 4 17 Z M 5 17 "/>
</svg>
