<?xml version="1.0" encoding="UTF-8"?>
<svg xmlns="http://www.w3.org/2000/svg" xmlns:xlink="http://www.w3.org/1999/xlink" width="24" height="24" viewBox="0 0 24 24">
<path fill-rule="nonzero" fill="rgb(100%, 100%, 100%)" fill-opacity="1" d="M 6 4 C 4.890625 4 4 4.890625 4 6 L 4 7 L 5 7 L 5 6 C 5 5.445312 5.445312 5 6 5 L 7 5 L 7 4 Z M 9 4 L 9 5 L 11 5 L 11 4 Z M 13 4 L 13 5 L 15 5 L 15 4 Z M 17 4 L 17 5 L 18 5 C 18.554688 5 19 5.445312 19 6 L 19 7 L 20 7 L 20 6 C 20 4.890625 19.109375 4 18 4 Z M 12 8 L 12 9 L 14.292969 9 L 11 12.292969 L 11.707031 13 L 15 9.707031 L 15 12 L 16 12 L 16 8 Z M 4 9 L 4 11 L 5 11 L 5 9 Z M 19 9 L 19 11 L 20 11 L 20 9 Z M 19 13 L 19 15 L 20 15 L 20 13 Z M 6 14 C 4.890625 14 4 14.890625 4 16 L 4 18 C 4 19.109375 4.890625 20 6 20 L 8 20 C 9.109375 20 10 19.109375 10 18 L 10 16 C 10 14.890625 9.109375 14 8 14 Z M 6 15 L 8 15 C 8.554688 15 9 15.445312 9 16 L 9 18 C 9 18.554688 8.554688 19 8 19 L 6 19 C 5.445312 19 5 18.554688 5 18 L 5 16 C 5 15.445312 5.445312 15 6 15 Z M 19 17 L 19 18 C 19 18.554688 18.554688 19 18 19 L 17 19 L 17 20 L 18 20 C 19.109375 20 20 19.109375 20 18 L 20 17 Z M 19 17 "/>
</svg>
