<?xml version="1.0" encoding="UTF-8"?>
<svg xmlns="http://www.w3.org/2000/svg" xmlns:xlink="http://www.w3.org/1999/xlink" width="16" height="16" viewBox="0 0 16 16">
<defs>
<filter id="filter-remove-color" x="0%" y="0%" width="100%" height="100%">
<feColorMatrix color-interpolation-filters="sRGB" values="0 0 0 0 1 0 0 0 0 1 0 0 0 0 1 0 0 0 1 0" />
</filter>
<mask id="mask-0">
<g filter="url(#filter-remove-color)">
<rect x="-1.6" y="-1.6" width="19.2" height="19.2" fill="rgb(0%, 0%, 0%)" fill-opacity="0.1"/>
</g>
</mask>
<clipPath id="clip-0">
<rect x="0" y="0" width="5" height="5"/>
</clipPath>
<g id="source-10836" clip-path="url(#clip-0)">
<path fill-rule="nonzero" fill="rgb(21.176471%, 21.176471%, 21.176471%)" fill-opacity="0.931" d="M 3.703125 1.058594 L 2.117188 1.058594 L 2.117188 3.175781 L 3.703125 3.175781 Z M 1.851562 0.53125 L 0.265625 0.53125 L 0.265625 3.703125 L 1.851562 3.703125 Z M 1.851562 0.53125 "/>
</g>
</defs>
<path fill-rule="nonzero" fill="rgb(21.176471%, 21.176471%, 21.176471%)" fill-opacity="1" d="M 4.234375 1.851562 L 3.570312 1.851562 L 3.570312 2.382812 L 4.234375 2.382812 Z M 3.703125 0.925781 C 3.703125 0.851562 3.644531 0.792969 3.570312 0.792969 L 2.25 0.792969 C 2.175781 0.792969 2.117188 0.851562 2.117188 0.925781 L 2.117188 1.625 C 2.15625 1.601562 2.203125 1.589844 2.25 1.589844 L 2.382812 1.589844 L 2.382812 1.058594 L 3.441406 1.058594 L 3.441406 1.625 C 3.480469 1.601562 3.523438 1.589844 3.570312 1.589844 L 3.703125 1.589844 Z M 3.703125 2.644531 L 3.570312 2.644531 C 3.523438 2.644531 3.480469 2.632812 3.441406 2.609375 L 3.441406 3.175781 L 2.378906 3.175781 L 2.378906 2.644531 L 2.25 2.644531 C 2.203125 2.644531 2.15625 2.632812 2.117188 2.609375 L 2.117188 3.308594 C 2.117188 3.382812 2.175781 3.441406 2.25 3.441406 L 3.574219 3.441406 C 3.609375 3.441406 3.640625 3.425781 3.667969 3.402344 C 3.691406 3.375 3.707031 3.34375 3.703125 3.308594 Z M 3.042969 1.851562 L 2.25 1.851562 L 2.25 2.382812 L 3.042969 2.382812 Z M 1.851562 0.398438 C 1.851562 0.363281 1.839844 0.328125 1.8125 0.304688 C 1.789062 0.277344 1.753906 0.265625 1.71875 0.265625 L 0.398438 0.265625 C 0.324219 0.265625 0.265625 0.324219 0.265625 0.398438 L 0.265625 1.589844 L 0.398438 1.589844 C 0.441406 1.589844 0.488281 1.601562 0.527344 1.621094 L 0.527344 0.53125 L 1.585938 0.53125 L 1.585938 1.589844 L 1.71875 1.589844 C 1.765625 1.589844 1.8125 1.601562 1.851562 1.625 Z M 1.851562 2.609375 C 1.8125 2.632812 1.765625 2.644531 1.71875 2.644531 L 1.585938 2.644531 L 1.585938 3.703125 L 0.53125 3.703125 L 0.53125 2.609375 C 0.488281 2.632812 0.445312 2.644531 0.398438 2.644531 L 0.265625 2.644531 L 0.265625 3.835938 C 0.265625 3.910156 0.324219 3.96875 0.398438 3.96875 L 1.71875 3.96875 C 1.753906 3.96875 1.789062 3.957031 1.8125 3.929688 C 1.839844 3.90625 1.851562 3.871094 1.851562 3.835938 Z M 1.71875 1.851562 L 0.925781 1.851562 L 0.925781 2.382812 L 1.71875 2.382812 Z M 0.398438 1.851562 L 0 1.851562 L 0 2.382812 L 0.398438 2.382812 Z M 0.398438 1.851562 "/>
<g mask="url(#mask-0)">
<use xlink:href="#source-10836"/>
</g>
</svg>
