<?xml version="1.0" encoding="UTF-8"?>
<svg xmlns="http://www.w3.org/2000/svg" xmlns:xlink="http://www.w3.org/1999/xlink" width="16" height="16" viewBox="0 0 16 16">
<defs>
<filter id="filter-remove-color" x="0%" y="0%" width="100%" height="100%">
<feColorMatrix color-interpolation-filters="sRGB" values="0 0 0 0 1 0 0 0 0 1 0 0 0 0 1 0 0 0 1 0" />
</filter>
<mask id="mask-0">
<g filter="url(#filter-remove-color)">
<rect x="-1.6" y="-1.6" width="19.2" height="19.2" fill="rgb(0%, 0%, 0%)" fill-opacity="0.1"/>
</g>
</mask>
<clipPath id="clip-0">
<rect x="0" y="0" width="5" height="5"/>
</clipPath>
<g id="source-7265" clip-path="url(#clip-0)">
<path fill-rule="nonzero" fill="rgb(21.176471%, 21.176471%, 21.176471%)" fill-opacity="0.931" d="M 3.175781 3.703125 L 2.382812 3.703125 L 2.382812 1.585938 L 3.175781 1.585938 Z M 1.589844 3.703125 L 0.792969 3.703125 L 0.792969 0.792969 L 1.589844 0.792969 Z M 1.589844 3.703125 "/>
</g>
</defs>
<path fill-rule="nonzero" fill="rgb(21.176471%, 21.176471%, 21.176471%)" fill-opacity="1" d="M 4.234375 3.96875 L 0 3.96875 L 0 3.4375 L 0.53125 3.4375 L 0.53125 0.660156 C 0.53125 0.589844 0.585938 0.53125 0.660156 0.53125 L 1.71875 0.53125 C 1.792969 0.53125 1.851562 0.589844 1.851562 0.660156 L 1.851562 3.441406 L 2.117188 3.441406 L 2.117188 1.453125 C 2.117188 1.382812 2.175781 1.324219 2.25 1.324219 L 3.308594 1.324219 C 3.382812 1.324219 3.441406 1.382812 3.441406 1.453125 L 3.441406 3.441406 L 4.234375 3.441406 Z M 3.175781 3.4375 L 3.175781 1.589844 L 2.382812 1.589844 L 2.382812 3.441406 Z M 1.589844 3.4375 L 1.589844 0.796875 L 0.792969 0.796875 L 0.792969 3.441406 Z M 1.589844 3.4375 "/>
<g mask="url(#mask-0)">
<use xlink:href="#source-7265"/>
</g>
</svg>
