<?xml version="1.0" encoding="UTF-8"?>
<svg xmlns="http://www.w3.org/2000/svg" xmlns:xlink="http://www.w3.org/1999/xlink" width="16" height="16" viewBox="0 0 16 16">
<path fill-rule="nonzero" fill="rgb(21.176471%, 21.176471%, 21.176471%)" fill-opacity="1" d="M 13 5 L 13 7 C 13 8.109375 12.109375 9 11 9 L 3.707031 9 L 5.683594 7.023438 C 5.878906 6.828125 5.878906 6.511719 5.683594 6.316406 C 5.582031 6.21875 5.457031 6.167969 5.328125 6.167969 C 5.199219 6.167969 5.074219 6.21875 4.976562 6.316406 L 2.148438 9.144531 C 2 9.292969 1.964844 9.503906 2.039062 9.683594 L 2.039062 9.6875 C 2.0625 9.746094 2.097656 9.804688 2.148438 9.851562 L 4.976562 12.679688 C 5.171875 12.878906 5.484375 12.878906 5.683594 12.679688 C 5.878906 12.484375 5.878906 12.171875 5.683594 11.972656 L 3.710938 10 L 11 10 C 12.660156 10 14 8.660156 14 7 L 14 5 Z M 13 5 "/>
</svg>
