<?xml version="1.0" encoding="UTF-8"?>
<svg xmlns="http://www.w3.org/2000/svg" xmlns:xlink="http://www.w3.org/1999/xlink" width="16" height="16" viewBox="0 0 16 16">
<path fill-rule="nonzero" fill="rgb(21.176471%, 21.176471%, 21.176471%)" fill-opacity="1" d="M 5.027344 2.046875 C 3.472656 2.09375 2.25 2.359375 1.503906 2.703125 C 1.101562 2.886719 0.800781 3.082031 0.59375 3.246094 C 0.386719 3.40625 0.226562 3.585938 0.226562 3.585938 C 0.0820312 3.765625 0 3.992188 0 4.222656 L 0 13 C 0 13.875 1.042969 14.328125 1.679688 13.730469 C 1.679688 13.730469 1.636719 13.761719 1.722656 13.710938 C 1.8125 13.660156 1.980469 13.570312 2.25 13.472656 C 2.796875 13.28125 3.769531 13.058594 5.34375 13.058594 C 6.585938 13.058594 7.519531 13.269531 8.53125 13.503906 C 9.546875 13.738281 10.640625 14 12.023438 14 C 14.390625 14 15.765625 12.421875 15.765625 12.421875 C 15.917969 12.242188 16 12.011719 16 11.777344 L 16 3 C 16 2.144531 15 1.683594 14.347656 2.242188 C 14.347656 2.242188 13.625 2.910156 11.992188 2.910156 C 10.519531 2.910156 9.738281 2.710938 8.839844 2.484375 C 8.003906 2.273438 6.980469 2.066406 5.578125 2.035156 C 5.398438 2.039062 5.195312 2.039062 5.027344 2.046875 Z M 5.34375 3 C 8.292969 3 8.851562 3.910156 11.992188 3.910156 C 13.9375 3.910156 15 3 15 3 L 15 11.777344 C 15 11.777344 13.96875 13 12.023438 13 C 9.507812 13 8.058594 12.058594 5.34375 12.058594 C 2.007812 12.058594 1 13 1 13 L 1 4.222656 C 1 4.222656 2.007812 3 5.34375 3 Z M 5.34375 3 "/>
<path fill-rule="nonzero" fill="rgb(21.176471%, 21.176471%, 21.176471%)" fill-opacity="1" d="M 7.578125 5.054688 C 8.902344 5.054688 9.945312 6.132812 9.945312 7.484375 C 9.945312 8.839844 8.902344 9.949219 7.578125 9.949219 C 6.253906 9.949219 5.179688 8.839844 5.179688 7.484375 C 5.179688 6.132812 6.253906 5.054688 7.578125 5.054688 Z M 3.027344 6.019531 L 3.992188 7.050781 L 3.058594 7.019531 L 3.992188 8.015625 L 3.027344 7.984375 L 3.992188 9.011719 L 2.996094 8.980469 L 3.027344 7.984375 L 2.996094 7.984375 L 3.027344 7.019531 L 2.996094 7.019531 Z M 7.578125 6.019531 C 6.785156 6.019531 6.113281 6.675781 6.113281 7.484375 C 6.113281 8.292969 6.785156 8.949219 7.578125 8.949219 C 8.371094 8.949219 9.011719 8.292969 9.011719 7.484375 C 9.011719 6.675781 8.371094 6.019531 7.578125 6.019531 Z M 11.941406 6.019531 L 11.941406 7.019531 L 11.972656 7.984375 L 11.941406 7.984375 L 11.972656 8.980469 L 10.976562 9.011719 L 11.941406 7.984375 L 10.976562 8.015625 L 11.910156 7.019531 L 10.976562 7.050781 Z M 4.023438 8.980469 L 4.992188 10.011719 L 3.992188 9.980469 Z M 10.945312 8.980469 L 10.976562 9.980469 L 9.976562 10.011719 Z M 5.023438 9.980469 L 5.988281 11.007812 L 4.992188 10.976562 Z M 9.945312 9.980469 L 9.976562 10.976562 L 8.980469 11.007812 Z M 9.945312 9.980469 "/>
</svg>
