<?xml version="1.0" encoding="UTF-8"?>
<svg xmlns="http://www.w3.org/2000/svg" xmlns:xlink="http://www.w3.org/1999/xlink" width="16" height="16" viewBox="0 0 16 16">
<path fill-rule="nonzero" fill="rgb(21.176471%, 21.176471%, 21.176471%)" fill-opacity="1" d="M 2.117188 0.523438 C 1.96875 0.523438 1.851562 0.40625 1.851562 0.261719 C 1.851562 0.113281 1.96875 -0.00390625 2.117188 -0.00390625 C 2.261719 -0.00390625 2.378906 0.113281 2.378906 0.261719 C 2.378906 0.40625 2.261719 0.523438 2.117188 0.523438 Z M 2.117188 0.523438 "/>
<path fill-rule="nonzero" fill="rgb(21.176471%, 21.176471%, 21.176471%)" fill-opacity="1" d="M 2.117188 2.375 C 1.96875 2.375 1.851562 2.257812 1.851562 2.109375 C 1.851562 1.964844 1.96875 1.84375 2.117188 1.84375 C 2.261719 1.84375 2.378906 1.964844 2.378906 2.109375 C 2.378906 2.257812 2.261719 2.375 2.117188 2.375 Z M 2.117188 2.375 "/>
<path fill-rule="nonzero" fill="rgb(21.176471%, 21.176471%, 21.176471%)" fill-opacity="1" d="M 2.117188 4.234375 C 1.96875 4.234375 1.851562 4.117188 1.851562 3.96875 C 1.851562 3.824219 1.96875 3.707031 2.117188 3.707031 C 2.261719 3.707031 2.378906 3.824219 2.378906 3.96875 C 2.378906 4.117188 2.261719 4.234375 2.117188 4.234375 Z M 2.117188 4.234375 "/>
</svg>
