<?xml version="1.0" encoding="UTF-8"?>
<svg xmlns="http://www.w3.org/2000/svg" xmlns:xlink="http://www.w3.org/1999/xlink" width="16" height="16" viewBox="0 0 16 16">
<path fill-rule="nonzero" fill="rgb(21.176471%, 21.176471%, 21.176471%)" fill-opacity="1" d="M 0.527344 2.109375 C 0.527344 2.257812 0.410156 2.375 0.265625 2.375 C 0.117188 2.375 0 2.257812 0 2.109375 C 0 1.964844 0.117188 1.84375 0.265625 1.84375 C 0.410156 1.84375 0.527344 1.964844 0.527344 2.109375 Z M 0.527344 2.109375 "/>
<path fill-rule="nonzero" fill="rgb(21.176471%, 21.176471%, 21.176471%)" fill-opacity="1" d="M 2.382812 2.109375 C 2.382812 2.257812 2.261719 2.375 2.117188 2.375 C 1.96875 2.375 1.851562 2.257812 1.851562 2.109375 C 1.851562 1.964844 1.96875 1.84375 2.117188 1.84375 C 2.261719 1.84375 2.382812 1.964844 2.382812 2.109375 Z M 2.382812 2.109375 "/>
<path fill-rule="nonzero" fill="rgb(21.176471%, 21.176471%, 21.176471%)" fill-opacity="1" d="M 4.234375 2.109375 C 4.234375 2.257812 4.113281 2.375 3.96875 2.375 C 3.824219 2.375 3.703125 2.257812 3.703125 2.109375 C 3.703125 1.964844 3.824219 1.84375 3.96875 1.84375 C 4.113281 1.84375 4.234375 1.964844 4.234375 2.109375 Z M 4.234375 2.109375 "/>
</svg>
