<?xml version="1.0" encoding="UTF-8"?>
<svg xmlns="http://www.w3.org/2000/svg" xmlns:xlink="http://www.w3.org/1999/xlink" width="16" height="16" viewBox="0 0 16 16">
<path fill-rule="nonzero" fill="rgb(21.176471%, 21.176471%, 21.176471%)" fill-opacity="1" d="M 8 1 C 7.71875 1 7.449219 1.121094 7.257812 1.328125 C 7.070312 1.539062 6.976562 1.820312 7.007812 2.101562 C 4.671875 2.570312 2.996094 4.621094 3 7 L 3 11.5 L 1 13.5 L 1 14 L 15 14 L 15 13.5 L 13 11.5 L 13 7 C 13.003906 4.621094 11.328125 2.566406 8.992188 2.101562 C 9.023438 1.820312 8.929688 1.539062 8.742188 1.328125 C 8.550781 1.121094 8.28125 1 8 1 Z M 8 3 C 10.210938 3 12 4.789062 12 7 L 12 11.921875 L 13 13 L 3 13 L 4 11.921875 L 4 7 C 4 4.789062 5.789062 3 8 3 Z M 6.269531 15 C 6.625 15.617188 7.285156 16 8 16 C 8.714844 16 9.371094 15.617188 9.730469 15 Z M 6.269531 15 "/>
</svg>
