<?xml version="1.0" encoding="UTF-8"?>
<svg xmlns="http://www.w3.org/2000/svg" xmlns:xlink="http://www.w3.org/1999/xlink" width="16" height="16" viewBox="0 0 16 16">
<path fill-rule="nonzero" fill="rgb(21.176471%, 21.176471%, 21.176471%)" fill-opacity="1" d="M 3 2 C 1.890625 2 1 2.890625 1 4 L 1 10 C 1 11.109375 1.890625 12 3 12 L 9 12 L 9 15 L 12 12 L 13 12 C 14.109375 12 15 11.109375 15 10 L 15 4 C 15 2.890625 14.109375 2 13 2 Z M 3 3 L 13 3 C 13.554688 3 14 3.445312 14 4 L 14 10 C 14 10.554688 13.554688 11 13 11 L 3 11 C 2.445312 11 2 10.554688 2 10 L 2 4 C 2 3.445312 2.445312 3 3 3 Z M 3 3 "/>
<path fill-rule="nonzero" fill="rgb(21.176471%, 21.176471%, 21.176471%)" fill-opacity="1" d="M 3 5 L 13 5 L 13 6 L 3 6 Z M 3 8 L 10 8 L 10 9 L 3 9 Z M 3 8 "/>
</svg>
