<?xml version="1.0" encoding="UTF-8"?>
<svg xmlns="http://www.w3.org/2000/svg" xmlns:xlink="http://www.w3.org/1999/xlink" width="16" height="16" viewBox="0 0 16 16">
<path fill-rule="nonzero" fill="rgb(97.254902%, 59.607843%, 11.372549%)" fill-opacity="1" d="M 1.851562 0.53125 L 1.851562 1.324219 L 2.117188 1.324219 L 2.117188 0.527344 Z M 1.320312 0.792969 L 1.320312 1.324219 L 1.585938 1.324219 L 1.585938 0.792969 Z M 2.382812 0.792969 L 2.382812 1.324219 L 2.644531 1.324219 L 2.644531 0.792969 Z M 0.792969 1.058594 L 0.792969 1.324219 L 1.058594 1.324219 L 1.058594 1.058594 Z M 0.527344 1.589844 L 0.527344 2.644531 C 0.527344 3.125 0.796875 3.441406 1.324219 3.441406 L 0.792969 3.441406 L 0.792969 3.703125 L 2.910156 3.703125 L 2.910156 3.441406 L 2.382812 3.441406 C 2.796875 3.441406 3.046875 3.246094 3.175781 2.910156 L 3.441406 2.910156 C 3.703125 2.910156 3.703125 2.910156 3.703125 2.621094 L 3.703125 2.332031 C 3.703125 1.851562 3.703125 1.851562 3.441406 1.851562 L 3.175781 1.851562 L 3.175781 1.585938 Z M 0.792969 1.851562 L 2.910156 1.851562 L 2.910156 2.644531 C 2.910156 3.046875 2.554688 3.175781 2.117188 3.175781 L 1.585938 3.175781 C 1.148438 3.175781 0.792969 3.046875 0.792969 2.644531 Z M 3.175781 2.117188 L 3.441406 2.117188 L 3.441406 2.644531 L 3.175781 2.644531 Z M 3.175781 2.117188 "/>
</svg>
