<?xml version="1.0" encoding="UTF-8"?>
<svg xmlns="http://www.w3.org/2000/svg" xmlns:xlink="http://www.w3.org/1999/xlink" width="16" height="16" viewBox="0 0 16 16">
<path fill-rule="nonzero" fill="rgb(56.078431%, 79.215686%, 20.784314%)" fill-opacity="1" d="M 2.117188 0.53125 L 2.117188 0.792969 L 1.851562 0.792969 L 1.851562 1.058594 L 2.117188 1.058594 L 2.117188 1.324219 L 2.382812 1.324219 L 2.382812 1.058594 L 2.644531 1.058594 L 2.644531 0.792969 L 2.378906 0.792969 L 2.378906 0.527344 Z M 3.175781 0.53125 L 3.175781 0.792969 L 2.910156 0.792969 L 2.910156 1.058594 L 3.175781 1.058594 L 3.175781 1.324219 L 3.441406 1.324219 L 3.441406 1.058594 L 3.703125 1.058594 L 3.703125 0.792969 L 3.441406 0.792969 L 3.441406 0.527344 Z M 0.792969 1.851562 C 0.722656 1.851562 0.65625 1.878906 0.605469 1.929688 C 0.554688 1.976562 0.527344 2.046875 0.527344 2.117188 L 0.527344 3.441406 C 0.527344 3.585938 0.648438 3.703125 0.792969 3.703125 L 2.117188 3.703125 C 2.261719 3.703125 2.382812 3.585938 2.382812 3.441406 L 2.382812 3.261719 L 2.117188 3.175781 C 2.117188 3.246094 2.089844 3.3125 2.039062 3.363281 C 1.988281 3.414062 1.921875 3.441406 1.851562 3.441406 L 1.058594 3.441406 C 0.988281 3.441406 0.921875 3.410156 0.871094 3.363281 C 0.820312 3.3125 0.792969 3.246094 0.792969 3.175781 L 0.792969 2.382812 C 0.792969 2.234375 0.910156 2.117188 1.058594 2.117188 L 1.851562 2.117188 C 2 2.117188 2.117188 2.234375 2.117188 2.382812 L 2.382812 2.292969 L 2.382812 2.117188 C 2.382812 2.046875 2.355469 1.980469 2.304688 1.929688 C 2.253906 1.878906 2.1875 1.851562 2.117188 1.851562 Z M 0.792969 1.851562 "/>
</svg>
