<?xml version="1.0" encoding="UTF-8"?>
<svg xmlns="http://www.w3.org/2000/svg" xmlns:xlink="http://www.w3.org/1999/xlink" width="16" height="16" viewBox="0 0 16 16">
<path fill-rule="evenodd" fill="rgb(97.647059%, 70.588235%, 14.509804%)" fill-opacity="1" d="M 4 2 L 4 5 L 5 5 L 5 6.648438 C 4.402344 6.863281 4 7.425781 4 8.0625 C 4 8.695312 4.402344 9.261719 5 9.472656 L 5 11 L 4 11 L 4 14 L 7 14 L 7 12.191406 C 8.316406 13.34375 10.117188 13.996094 12 14 L 12 13 C 9.320312 13 6.964844 11.515625 6.230469 9.367188 C 6.703125 9.105469 7 8.605469 7 8.0625 C 7 7.507812 6.691406 7 6.199219 6.738281 C 6.886719 4.539062 9.269531 3 12 3 L 12 2 C 10.117188 2 8.316406 2.648438 7 3.800781 L 7 2 Z M 5 3 L 6 3 L 6 4 L 5 4 Z M 5 12 L 6 12 L 6 13 L 5 13 Z M 5 12 "/>
</svg>
