<?xml version="1.0" encoding="UTF-8"?>
<svg xmlns="http://www.w3.org/2000/svg" xmlns:xlink="http://www.w3.org/1999/xlink" width="16" height="16" viewBox="0 0 16 16">
<path fill-rule="nonzero" fill="rgb(96.078431%, 61.960784%, 8.627451%)" fill-opacity="1" d="M 7 2 C 5.890625 2 5 2.890625 5 4 L 8 4 L 8 5 L 4 5 C 2.890625 5 2 5.890625 2 7 L 2 9 C 2 10.109375 2.890625 11 4 11 L 4 10 C 4 9.109375 4.390625 8.324219 5 7.773438 L 5.003906 7.773438 C 5.132812 7.652344 5.277344 7.546875 5.429688 7.453125 C 5.429688 7.453125 5.429688 7.453125 5.433594 7.449219 C 5.582031 7.359375 5.738281 7.277344 5.902344 7.214844 C 5.933594 7.199219 5.964844 7.195312 5.996094 7.183594 C 6.136719 7.132812 6.277344 7.085938 6.425781 7.058594 C 6.613281 7.019531 6.804688 7 7 7 L 11 7 L 11 4 C 11 2.890625 10.109375 2 9 2 Z M 7 2.5 C 7.277344 2.5 7.5 2.722656 7.5 3 C 7.5 3.277344 7.277344 3.5 7 3.5 C 6.722656 3.5 6.5 3.277344 6.5 3 C 6.5 2.722656 6.722656 2.5 7 2.5 M 12 5 L 12 6 C 12 6.890625 11.609375 7.679688 11 8.226562 C 10.867188 8.347656 10.726562 8.453125 10.574219 8.546875 C 10.574219 8.546875 10.570312 8.546875 10.570312 8.550781 C 10.421875 8.640625 10.265625 8.722656 10.097656 8.785156 C 10.070312 8.800781 10.035156 8.804688 10.007812 8.816406 C 9.867188 8.867188 9.722656 8.914062 9.574219 8.941406 C 9.390625 8.980469 9.199219 9 9 9 L 5 9 L 5 12 C 5 13.109375 5.894531 14 7 14 L 9 14 C 10.109375 14 11 13.109375 11 12 L 8 12 L 8 11 L 12 11 C 13.109375 11 14 10.109375 14 9 L 14 7 C 14 5.890625 13.109375 5 12 5 M 9 12.5 C 9.277344 12.5 9.5 12.722656 9.5 13 C 9.5 13.277344 9.277344 13.5 9 13.5 C 8.722656 13.5 8.5 13.277344 8.5 13 C 8.5 12.722656 8.722656 12.5 9 12.5 "/>
</svg>
