<?xml version="1.0" encoding="UTF-8"?>
<svg xmlns="http://www.w3.org/2000/svg" xmlns:xlink="http://www.w3.org/1999/xlink" width="64" height="64" viewBox="0 0 64 64">
<path fill-rule="nonzero" fill="rgb(21.176471%, 22.352941%, 28.627451%)" fill-opacity="1" d="M 15.609375 8.464844 C 15.609375 12.410156 12.410156 15.609375 8.464844 15.609375 C 4.519531 15.609375 1.324219 12.410156 1.324219 8.464844 C 1.324219 4.519531 4.519531 1.324219 8.464844 1.324219 C 12.410156 1.324219 15.609375 4.519531 15.609375 8.464844 Z M 15.609375 8.464844 "/>
<path fill-rule="nonzero" fill="rgb(100%, 100%, 100%)" fill-opacity="1" d="M 4.851562 8.203125 L 4.847656 5.621094 L 7.742188 5.191406 L 7.742188 8.203125 Z M 8.226562 5.113281 L 12.082031 4.496094 L 12.082031 8.203125 L 8.226562 8.203125 Z M 12.085938 8.730469 L 12.082031 12.433594 L 8.226562 11.839844 L 8.226562 8.730469 Z M 7.742188 11.773438 L 4.851562 11.339844 L 4.851562 8.730469 L 7.742188 8.730469 Z M 7.742188 11.773438 "/>
</svg>
