<?xml version="1.0" encoding="UTF-8"?>
<svg xmlns="http://www.w3.org/2000/svg" xmlns:xlink="http://www.w3.org/1999/xlink" width="64" height="64" viewBox="0 0 64 64">
<path fill-rule="nonzero" fill="rgb(23.921569%, 89.019608%, 39.607843%)" fill-opacity="1" d="M 59 32 C 59 46.910156 46.910156 59 32 59 C 17.089844 59 5 46.910156 5 32 C 5 17.089844 17.089844 5 32 5 C 46.910156 5 59 17.089844 59 32 Z M 59 32 "/>
<path fill-rule="nonzero" fill="rgb(9.803922%, 36.078431%, 15.686275%)" fill-opacity="1" d="M 25.925781 24.378906 C 25.070312 23.707031 23.992188 23.308594 22.828125 23.308594 C 20.078125 23.308594 17.839844 25.523438 17.773438 28.285156 C 14.933594 29.363281 12.914062 32.128906 12.914062 35.375 C 12.914062 39.207031 15.734375 42.375 19.386719 42.875 L 19.386719 42.941406 L 45.28125 42.941406 L 45.28125 42.929688 C 48.890625 42.71875 51.753906 39.691406 51.753906 35.988281 C 51.753906 32.417969 49.089844 29.472656 45.664062 29.078125 C 45.675781 28.859375 45.683594 28.640625 45.683594 28.421875 C 45.683594 22.886719 41.066406 18.398438 35.367188 18.398438 C 31.152344 18.398438 27.523438 20.855469 25.925781 24.378906 Z M 25.925781 24.378906 "/>
</svg>
