<?xml version="1.0" encoding="UTF-8"?>
<svg xmlns="http://www.w3.org/2000/svg" xmlns:xlink="http://www.w3.org/1999/xlink" width="64" height="64" viewBox="0 0 64 64">
<path fill-rule="nonzero" fill="rgb(97.647059%, 97.647059%, 97.647059%)" fill-opacity="1" d="M 15.609375 8.464844 C 15.609375 12.410156 12.410156 15.609375 8.464844 15.609375 C 4.519531 15.609375 1.324219 12.410156 1.324219 8.464844 C 1.324219 4.519531 4.519531 1.324219 8.464844 1.324219 C 12.410156 1.324219 15.609375 4.519531 15.609375 8.464844 Z M 15.609375 8.464844 "/>
<path fill-rule="nonzero" fill="rgb(29.803922%, 56.078431%, 84.705882%)" fill-opacity="1" d="M 8.292969 3.292969 C 6.980469 3.335938 5.726562 3.878906 4.796875 4.808594 C 2.949219 6.660156 2.769531 9.59375 4.371094 11.65625 L 5.464844 10.566406 C 4.453125 9.113281 4.625 7.144531 5.875 5.890625 C 6.875 4.894531 8.359375 4.558594 9.6875 5.03125 L 9.6875 6.339844 L 11.644531 4.382812 C 10.691406 3.640625 9.503906 3.253906 8.292969 3.292969 Z M 8.292969 3.292969 "/>
<path fill-rule="nonzero" fill="rgb(42.745098%, 86.27451%, 90.588235%)" fill-opacity="1" d="M 12.5625 5.300781 L 11.46875 6.390625 C 12.480469 7.847656 12.308594 9.816406 11.054688 11.070312 C 10.058594 12.066406 8.574219 12.398438 7.246094 11.929688 L 7.246094 10.617188 L 5.949219 11.910156 L 5.285156 12.574219 C 7.351562 14.179688 10.285156 13.996094 12.136719 12.148438 C 13.980469 10.300781 14.164062 7.367188 12.5625 5.300781 Z M 12.5625 5.300781 "/>
<path fill-rule="nonzero" fill="rgb(46.27451%, 39.215686%, 76.862745%)" fill-opacity="1" d="M 16.667969 13.230469 C 16.667969 15.128906 15.128906 16.667969 13.230469 16.667969 C 11.328125 16.667969 9.789062 15.128906 9.789062 13.230469 C 9.789062 11.328125 11.328125 9.789062 13.230469 9.789062 C 15.128906 9.789062 16.667969 11.328125 16.667969 13.230469 Z M 16.667969 13.230469 "/>
<path fill-rule="nonzero" fill="rgb(100%, 100%, 100%)" fill-opacity="1" d="M 12.179688 13.511719 C 12.179688 14.121094 12.191406 14.335938 11.800781 14.335938 C 11.410156 14.335938 11.097656 14.460938 11.097656 14.816406 C 11.097656 15.171875 11.464844 15.34375 11.695312 15.34375 C 11.925781 15.34375 12.378906 15.183594 12.378906 14.703125 L 12.378906 12.519531 L 14.332031 12.066406 L 14.332031 13.738281 C 14.332031 13.738281 14.355469 13.9375 14.097656 13.9375 C 13.839844 13.9375 13.269531 13.863281 13.269531 14.410156 C 13.269531 14.953125 13.820312 14.921875 13.90625 14.921875 C 13.996094 14.921875 14.550781 14.828125 14.550781 14.179688 L 14.550781 11.113281 L 12.167969 11.570312 Z M 12.179688 13.511719 "/>
</svg>
