<?xml version="1.0" encoding="UTF-8"?>
<svg xmlns="http://www.w3.org/2000/svg" xmlns:xlink="http://www.w3.org/1999/xlink" width="64" height="64" viewBox="0 0 64 64">
<path fill-rule="nonzero" fill="rgb(30.588235%, 60%, 95.294118%)" fill-opacity="1" d="M 15.609375 8.460938 C 15.609375 12.40625 12.410156 15.605469 8.464844 15.605469 C 4.519531 15.605469 1.324219 12.40625 1.324219 8.460938 C 1.324219 4.515625 4.519531 1.316406 8.464844 1.316406 C 12.410156 1.316406 15.609375 4.515625 15.609375 8.460938 Z M 15.609375 8.460938 "/>
<path fill-rule="nonzero" fill="rgb(100%, 100%, 100%)" fill-opacity="0.993" d="M 11.300781 5.277344 C 10.742188 4.953125 9.96875 4.9375 9.285156 5.242188 C 8.65625 5.519531 8.199219 6.136719 7.929688 6.597656 C 7.808594 6.566406 7.683594 6.625 7.628906 6.734375 C 7.570312 6.847656 7.597656 6.980469 7.691406 7.0625 C 7.675781 7.097656 7.660156 7.132812 7.644531 7.167969 L 6.335938 10.039062 C 6.203125 9.984375 6.050781 10.042969 5.988281 10.171875 C 5.925781 10.304688 5.976562 10.460938 6.105469 10.527344 L 6.113281 10.53125 L 5.820312 11.179688 L 5.089844 11.179688 C 4.941406 11.179688 4.820312 11.300781 4.820312 11.449219 C 4.820312 11.597656 4.941406 11.71875 5.089844 11.71875 L 6.4375 11.71875 C 6.589844 11.71875 6.710938 11.597656 6.710938 11.449219 C 6.710938 11.300781 6.589844 11.179688 6.4375 11.179688 L 6.414062 11.179688 L 6.601562 10.765625 C 6.625 10.773438 6.648438 10.777344 6.675781 10.777344 C 6.796875 10.777344 6.902344 10.699219 6.933594 10.585938 C 6.96875 10.46875 6.921875 10.347656 6.820312 10.28125 L 8.175781 7.308594 C 8.308594 7.375 8.46875 7.324219 8.539062 7.191406 C 8.605469 7.058594 8.554688 6.894531 8.421875 6.828125 C 8.652344 6.4375 9.019531 5.949219 9.503906 5.734375 C 10.023438 5.503906 10.625 5.507812 11.03125 5.742188 C 11.332031 5.917969 11.503906 6.191406 11.546875 6.5625 C 11.621094 7.257812 11.554688 7.722656 11.355469 7.945312 C 11.335938 7.964844 11.316406 7.984375 11.296875 8 L 11.296875 8.605469 C 11.460938 8.546875 11.621094 8.457031 11.757812 8.304688 C 12.070312 7.957031 12.175781 7.367188 12.082031 6.503906 C 12.023438 5.96875 11.746094 5.53125 11.300781 5.277344 Z M 11.300781 5.277344 "/>
<path fill-rule="nonzero" fill="rgb(100%, 100%, 100%)" fill-opacity="0.993" d="M 10.535156 9.828125 C 10.710938 9.828125 10.875 9.867188 11.027344 9.9375 L 11.027344 7.804688 C 11.027344 7.65625 11.039062 7.667969 10.890625 7.667969 L 10.363281 7.667969 C 10.214844 7.667969 8.710938 7.792969 8.3125 9.757812 L 8.058594 11.378906 C 8.058594 11.53125 8.179688 11.71875 8.328125 11.71875 L 9.609375 11.71875 C 9.449219 11.511719 9.359375 11.261719 9.359375 11 C 9.359375 10.355469 9.886719 9.828125 10.535156 9.828125 Z M 10.535156 9.828125 "/>
<path fill-rule="nonzero" fill="rgb(100%, 100%, 100%)" fill-opacity="0.993" d="M 11.160156 10.351562 C 10.992188 10.191406 10.769531 10.101562 10.535156 10.097656 C 10.199219 9.984375 9.828125 10.082031 9.585938 10.34375 C 9.347656 10.605469 9.285156 10.984375 9.425781 11.308594 C 9.566406 11.636719 9.882812 11.847656 10.238281 11.851562 C 10.625 11.988281 11.054688 11.84375 11.28125 11.503906 C 11.527344 11.144531 11.476562 10.65625 11.160156 10.351562 Z M 11.160156 10.351562 "/>
</svg>
