<?xml version="1.0" encoding="UTF-8"?>
<svg xmlns="http://www.w3.org/2000/svg" xmlns:xlink="http://www.w3.org/1999/xlink" width="64" height="64" viewBox="0 0 64 64">
<path fill-rule="nonzero" fill="rgb(75.294118%, 25.882353%, 25.882353%)" fill-opacity="1" d="M 15.609375 8.460938 C 15.609375 12.40625 12.410156 15.605469 8.464844 15.605469 C 4.519531 15.605469 1.324219 12.40625 1.324219 8.460938 C 1.324219 4.515625 4.519531 1.316406 8.464844 1.316406 C 12.410156 1.316406 15.609375 4.515625 15.609375 8.460938 Z M 15.609375 8.460938 "/>
<path fill-rule="nonzero" fill="rgb(86.27451%, 86.27451%, 86.27451%)" fill-opacity="1" d="M 9.164062 4.769531 C 9.011719 4.730469 8.851562 4.820312 8.8125 4.972656 L 7.300781 10.832031 C 7.261719 10.988281 7.351562 11.144531 7.503906 11.191406 L 10.96875 12.15625 C 11.042969 12.175781 11.121094 12.164062 11.1875 12.125 C 11.253906 12.085938 11.304688 12.023438 11.320312 11.949219 L 12.832031 6.09375 C 12.871094 5.9375 12.78125 5.777344 12.628906 5.730469 "/>
<path fill-rule="nonzero" fill="rgb(85.882353%, 39.607843%, 39.607843%)" fill-opacity="1" d="M 10.402344 7.179688 L 9.140625 8.207031 L 9.738281 9.75 L 10.996094 8.722656 "/>
<path fill-rule="nonzero" fill="rgb(97.647059%, 97.647059%, 97.647059%)" fill-opacity="1" d="M 4.328125 5.613281 C 4.171875 5.644531 4.070312 5.792969 4.09375 5.953125 L 5.109375 11.925781 C 5.136719 12.082031 5.285156 12.191406 5.441406 12.164062 L 8.972656 11.515625 C 9.128906 11.484375 9.234375 11.332031 9.207031 11.175781 L 8.191406 5.203125 C 8.179688 5.128906 8.136719 5.0625 8.074219 5.015625 C 8.011719 4.972656 7.933594 4.953125 7.859375 4.96875 "/>
<path fill-rule="nonzero" fill="rgb(84.313725%, 28.627451%, 28.627451%)" fill-opacity="1" d="M 6.078125 7.808594 C 5.945312 7.835938 5.828125 7.910156 5.75 8.023438 C 5.671875 8.132812 5.644531 8.269531 5.667969 8.402344 C 5.828125 9.230469 6.953125 9.699219 6.953125 9.699219 C 6.953125 9.699219 7.820312 8.84375 7.660156 8.019531 C 7.601562 7.742188 7.332031 7.5625 7.054688 7.621094 C 6.828125 7.664062 6.65625 7.855469 6.640625 8.085938 C 6.535156 7.878906 6.304688 7.765625 6.078125 7.808594 Z M 6.078125 7.808594 "/>
</svg>
