<?xml version="1.0" encoding="UTF-8"?>
<svg xmlns="http://www.w3.org/2000/svg" xmlns:xlink="http://www.w3.org/1999/xlink" width="64" height="64" viewBox="0 0 64 64">
<path fill-rule="evenodd" fill="rgb(40%, 44.313725%, 76.078431%)" fill-opacity="1" d="M 59 32 C 59 46.910156 46.910156 59 32 59 C 17.089844 59 5 46.910156 5 32 C 5 17.089844 17.089844 5 32 5 C 46.910156 5 59 17.089844 59 32 Z M 59 32 "/>
<path fill-rule="nonzero" fill="rgb(100%, 100%, 100%)" fill-opacity="1" d="M 31.996094 19.402344 C 25.167969 19.402344 19.648438 24.765625 19.398438 31.527344 C 21.199219 36.257812 25.777344 39.601562 31.15625 39.601562 C 34.960938 39.601562 38.347656 37.933594 40.648438 35.277344 C 39.699219 39.710938 36.4375 43.253906 32.175781 44.601562 C 39.082031 44.515625 44.601562 38.933594 44.601562 32.003906 C 44.601562 25.015625 38.984375 19.40625 32.003906 19.40625 "/>
</svg>
