<?xml version="1.0" encoding="UTF-8"?>
<svg xmlns="http://www.w3.org/2000/svg" xmlns:xlink="http://www.w3.org/1999/xlink" width="64" height="64" viewBox="0 0 64 64">
<defs>
<filter id="filter-remove-color" x="0%" y="0%" width="100%" height="100%">
<feColorMatrix color-interpolation-filters="sRGB" values="0 0 0 0 1 0 0 0 0 1 0 0 0 0 1 0 0 0 1 0" />
</filter>
<mask id="mask-0">
<g filter="url(#filter-remove-color)">
<rect x="-6.4" y="-6.4" width="76.8" height="76.8" fill="rgb(0%, 0%, 0%)" fill-opacity="0.1"/>
</g>
</mask>
<clipPath id="clip-0">
<rect x="0" y="0" width="64" height="64"/>
</clipPath>
<g id="source-9173" clip-path="url(#clip-0)">
<path fill-rule="nonzero" fill="rgb(100%, 100%, 100%)" fill-opacity="1" d="M 55 32 C 55 44.703125 44.703125 55 32 55 C 19.296875 55 9 44.703125 9 32 C 9 19.296875 19.296875 9 32 9 C 44.703125 9 55 19.296875 55 32 Z M 55 32 "/>
</g>
</defs>
<path fill-rule="nonzero" fill="rgb(11.764706%, 20.392157%, 25.098039%)" fill-opacity="1" d="M 59 32 C 59 46.910156 46.910156 59 32 59 C 17.089844 59 5 46.910156 5 32 C 5 17.085938 17.089844 5 32 5 C 46.910156 5 59 17.085938 59 32 Z M 59 32 "/>
<g mask="url(#mask-0)">
<use xlink:href="#source-9173"/>
</g>
<path fill-rule="evenodd" fill="rgb(12.156863%, 63.921569%, 96.862745%)" fill-opacity="1" d="M 29.570312 34.144531 L 28.476562 36.695312 L 32 47.257812 L 35.523438 36.695312 L 34.429688 34.144531 Z M 29.570312 34.144531 "/>
<path fill-rule="evenodd" fill="rgb(97.254902%, 56.470588%, 10.588235%)" fill-opacity="1" d="M 29.652344 16.738281 L 19.085938 43.738281 L 23.78125 43.738281 L 32 23.78125 L 40.21875 43.738281 L 44.914062 43.738281 L 34.347656 16.738281 Z M 29.652344 16.738281 "/>
<path fill-rule="evenodd" fill="rgb(75.294118%, 89.803922%, 98.431373%)" fill-opacity="1" d="M 32 28.476562 L 29.570312 34.144531 L 32 40.214844 L 34.429688 34.144531 Z M 32 28.476562 "/>
</svg>
