<?xml version="1.0" encoding="UTF-8"?>
<svg xmlns="http://www.w3.org/2000/svg" xmlns:xlink="http://www.w3.org/1999/xlink" width="64" height="64" viewBox="0 0 64 64">
<path fill-rule="nonzero" fill="rgb(100%, 90.196078%, 83.529412%)" fill-opacity="1" d="M 59 32 C 59 46.910156 46.910156 59 32 59 C 17.089844 59 5 46.910156 5 32 C 5 17.089844 17.089844 5 32 5 C 46.910156 5 59 17.089844 59 32 Z M 59 32 "/>
<path fill-rule="nonzero" fill="rgb(76.862745%, 46.27451%, 18.431373%)" fill-opacity="1" d="M 45.035156 39.242188 C 45.035156 47.929688 39.242188 52.277344 32 52.277344 C 24.757812 52.277344 18.964844 47.933594 18.964844 39.242188 C 18.964844 29.105469 25.957031 11.722656 32 11.722656 C 38.042969 11.722656 45.035156 29.105469 45.035156 39.242188 Z M 45.035156 39.242188 "/>
<path fill-rule="nonzero" fill="rgb(94.509804%, 78.431373%, 32.156863%)" fill-opacity="1" d="M 32 13.171875 C 26.886719 13.171875 20.414062 29.101562 20.414062 39.238281 C 20.414062 46.480469 25.007812 50.824219 32 50.824219 C 34.339844 50.824219 36.398438 50.332031 38.117188 49.414062 C 40.394531 45.960938 42.136719 42.050781 42.136719 37.792969 C 42.96875 39.679688 42.570312 42.878906 41.691406 46.191406 C 42.910156 44.347656 43.585938 42.007812 43.585938 39.238281 C 43.585938 29.101562 37.113281 13.171875 32 13.171875 Z M 29.828125 16.066406 C 29.828125 16.066406 29.101562 21.039062 29.101562 23.308594 C 29.101562 26.246094 30.550781 30.550781 30.550781 32 C 30.550781 34.148438 28.378906 37.792969 28.378906 37.792969 C 28.378906 37.792969 29.101562 35.234375 29.101562 32 C 29.101562 30.550781 27.65625 26.769531 27.65625 23.308594 C 27.65625 20.847656 29.828125 16.066406 29.828125 16.066406 Z M 34.898438 16.066406 C 34.898438 16.066406 39.242188 22.273438 39.242188 29.101562 C 39.242188 32 38.722656 34.304688 37.792969 36.34375 L 37.792969 29.101562 C 37.792969 23.851562 36.34375 20.414062 34.898438 16.066406 Z M 24.757812 24.757812 L 24.757812 29.101562 C 24.757812 32 24.335938 34.570312 23.308594 37.792969 L 23.308594 32 C 23.308594 29.535156 24.757812 24.757812 24.757812 24.757812 Z M 24.757812 24.757812 "/>
<path fill-rule="nonzero" fill="rgb(25.098039%, 23.137255%, 23.529412%)" fill-opacity="1" d="M 25.484375 40.6875 C 24.28125 40.6875 23.308594 41.984375 23.308594 43.585938 C 24.097656 42.136719 24.882812 42.136719 25.484375 42.136719 C 26.085938 42.136719 26.824219 42.136719 27.65625 43.585938 C 27.65625 41.984375 26.683594 40.6875 25.484375 40.6875 Z M 37.070312 40.6875 C 35.867188 40.6875 34.898438 41.984375 34.898438 43.585938 C 35.683594 42.136719 36.46875 42.136719 37.070312 42.136719 C 37.671875 42.136719 38.410156 42.136719 39.242188 43.585938 C 39.242188 41.984375 38.269531 40.6875 37.070312 40.6875 Z M 29.828125 45.035156 C 29.425781 45.035156 29.101562 45.359375 29.101562 45.757812 C 29.101562 46.960938 30.070312 47.929688 31.277344 47.929688 C 32.480469 47.929688 33.449219 46.960938 33.449219 45.757812 C 33.449219 45.359375 33.125 45.035156 32.722656 45.035156 C 32.324219 45.035156 32 45.359375 32 45.757812 C 32 46.160156 31.675781 46.480469 31.277344 46.480469 C 30.875 46.480469 30.550781 46.160156 30.550781 45.757812 C 30.550781 45.359375 30.226562 45.035156 29.828125 45.035156 Z M 29.828125 45.035156 "/>
</svg>
