<?xml version="1.0" encoding="UTF-8"?>
<svg xmlns="http://www.w3.org/2000/svg" xmlns:xlink="http://www.w3.org/1999/xlink" width="64" height="64" viewBox="0 0 64 64">
<path fill-rule="nonzero" fill="rgb(100%, 100%, 100%)" fill-opacity="1" d="M 14.816406 8.460938 C 14.816406 4.953125 11.972656 2.109375 8.464844 2.109375 C 4.957031 2.109375 2.117188 4.953125 2.117188 8.460938 C 2.117188 11.96875 4.957031 14.808594 8.464844 14.808594 C 11.972656 14.808594 14.816406 11.96875 14.816406 8.460938 Z M 14.816406 8.460938 "/>
<path fill-rule="nonzero" fill="rgb(34.117647%, 44.313725%, 74.901961%)" fill-opacity="1" d="M 8.46875 1.324219 C 6.570312 1.320312 4.75 2.070312 3.410156 3.410156 C 2.070312 4.753906 1.320312 6.570312 1.324219 8.46875 C 1.320312 10.363281 2.070312 12.183594 3.410156 13.523438 C 4.75 14.863281 6.570312 15.617188 8.46875 15.609375 C 10.363281 15.617188 12.183594 14.863281 13.523438 13.523438 C 14.863281 12.183594 15.613281 10.363281 15.609375 8.46875 C 15.613281 6.570312 14.863281 4.75 13.523438 3.410156 C 12.179688 2.070312 10.363281 1.320312 8.464844 1.324219 Z M 8.46875 2.421875 C 10.070312 2.421875 11.609375 3.054688 12.742188 4.191406 C 13.878906 5.324219 14.515625 6.863281 14.511719 8.46875 C 14.515625 11.269531 12.589844 13.707031 9.863281 14.347656 C 9.878906 14.101562 9.886719 13.78125 9.917969 13.503906 C 9.949219 13.222656 10.0625 10.882812 10.46875 10.265625 C 10.871094 9.644531 12.015625 8.902344 12.417969 8.824219 C 12.824219 8.746094 12.753906 8.585938 12.753906 8.445312 C 12.753906 8.304688 12.683594 8 12.574219 7.953125 C 12.46875 7.910156 12.046875 8.179688 11.90625 8.210938 C 11.765625 8.242188 11.097656 8.300781 11 8.144531 C 10.910156 7.988281 11.75 6.410156 11.863281 6.222656 C 12.003906 6.003906 11.984375 5.71875 11.816406 5.519531 C 11.617188 5.257812 11.480469 4.996094 11.40625 4.996094 C 11.148438 4.996094 10.652344 5.582031 10.46875 5.675781 C 10.28125 5.769531 8.808594 6.820312 8.671875 7.003906 C 8.554688 7.175781 8.351562 7.269531 8.144531 7.25 C 7.945312 7.234375 7.300781 7.226562 7.085938 7.347656 C 6.867188 7.472656 5.871094 8.484375 5.621094 8.613281 C 5.371094 8.734375 5.050781 8.808594 4.894531 8.824219 C 4.738281 8.839844 4.230469 9.40625 4.089844 9.515625 C 3.953125 9.625 2.851562 10.105469 2.699219 10.199219 C 2.542969 10.292969 3.828125 11.597656 4.011719 11.628906 C 4.15625 11.648438 4 12.070312 3.753906 12.261719 C 2.890625 11.1875 2.417969 9.847656 2.421875 8.46875 C 2.417969 6.863281 3.054688 5.324219 4.1875 4.191406 C 5.324219 3.054688 6.863281 2.421875 8.464844 2.421875 Z M 8.210938 7.90625 C 8.273438 7.910156 8.3125 7.917969 8.3125 7.917969 C 8.386719 8.082031 8.054688 8.597656 7.746094 8.667969 C 7.441406 8.738281 6.730469 9.785156 6.710938 9.550781 C 6.683594 9.3125 6.988281 8.53125 7.34375 8.175781 C 7.511719 8.019531 7.730469 7.925781 7.960938 7.910156 L 7.957031 7.910156 C 8.058594 7.898438 8.144531 7.902344 8.210938 7.90625 Z M 8.210938 7.90625 "/>
</svg>
