<?xml version="1.0" encoding="UTF-8"?>
<svg xmlns="http://www.w3.org/2000/svg" xmlns:xlink="http://www.w3.org/1999/xlink" width="64" height="64" viewBox="0 0 64 64">
<path fill-rule="nonzero" fill="rgb(90.196078%, 90.196078%, 90.196078%)" fill-opacity="1" d="M 15.609375 8.464844 C 15.609375 12.410156 12.410156 15.609375 8.464844 15.609375 C 4.519531 15.609375 1.324219 12.410156 1.324219 8.464844 C 1.324219 4.519531 4.519531 1.324219 8.464844 1.324219 C 12.410156 1.324219 15.609375 4.519531 15.609375 8.464844 Z M 15.609375 8.464844 "/>
<path fill-rule="evenodd" fill="rgb(12.54902%, 12.156863%, 12.156863%)" fill-opacity="1" d="M 9.074219 7.871094 C 9.074219 8.316406 9.085938 8.6875 8.867188 9.078125 C 8.695312 9.402344 8.421875 9.597656 8.113281 9.597656 C 7.695312 9.597656 7.453125 9.265625 7.453125 8.773438 C 7.453125 7.800781 8.285156 7.625 9.074219 7.625 L 9.074219 7.871094 M 10.171875 10.648438 C 10.101562 10.714844 9.996094 10.722656 9.914062 10.675781 C 9.554688 10.363281 9.488281 10.21875 9.289062 9.917969 C 8.691406 10.554688 8.269531 10.746094 7.492188 10.746094 C 6.574219 10.746094 5.859375 10.15625 5.859375 8.96875 C 5.859375 8.046875 6.339844 7.414062 7.023438 7.105469 C 7.613281 6.835938 8.441406 6.785156 9.070312 6.710938 L 9.070312 6.5625 C 9.070312 6.292969 9.09375 5.972656 8.941406 5.738281 C 8.808594 5.527344 8.554688 5.441406 8.328125 5.441406 C 7.914062 5.441406 7.542969 5.664062 7.453125 6.125 C 7.433594 6.230469 7.363281 6.328125 7.261719 6.335938 L 6.207031 6.21875 C 6.117188 6.195312 6.019531 6.121094 6.042969 5.976562 C 6.289062 4.640625 7.445312 4.234375 8.480469 4.234375 C 9.011719 4.234375 9.703125 4.382812 10.121094 4.800781 C 10.652344 5.320312 10.601562 6.011719 10.601562 6.761719 L 10.601562 8.539062 C 10.601562 9.074219 10.8125 9.304688 11.011719 9.59375 C 11.082031 9.695312 11.097656 9.820312 11.011719 9.898438 C 10.730469 10.148438 10.449219 10.398438 10.175781 10.65625 L 10.171875 10.652344 "/>
<path fill-rule="evenodd" fill="rgb(100%, 60%, 0%)" fill-opacity="1" d="M 11.886719 11.625 C 10.960938 12.324219 9.617188 12.699219 8.457031 12.699219 C 6.90625 12.703125 5.40625 12.117188 4.269531 11.0625 C 4.183594 10.980469 4.261719 10.871094 4.367188 10.933594 C 5.636719 11.679688 7.082031 12.074219 8.554688 12.070312 C 9.65625 12.066406 10.742188 11.839844 11.753906 11.402344 C 11.910156 11.335938 12.039062 11.507812 11.886719 11.625 "/>
<path fill-rule="evenodd" fill="rgb(100%, 60%, 0%)" fill-opacity="1" d="M 12.273438 11.171875 C 12.152344 11.019531 11.488281 11.097656 11.191406 11.136719 C 11.097656 11.148438 11.085938 11.066406 11.167969 11.007812 C 11.695312 10.625 12.566406 10.734375 12.667969 10.863281 C 12.769531 10.992188 12.640625 11.886719 12.144531 12.3125 C 12.066406 12.378906 11.996094 12.34375 12.027344 12.253906 C 12.140625 11.96875 12.390625 11.328125 12.273438 11.171875 "/>
</svg>
