<?xml version="1.0" encoding="UTF-8"?>
<svg xmlns="http://www.w3.org/2000/svg" xmlns:xlink="http://www.w3.org/1999/xlink" width="64" height="64" viewBox="0 0 64 64">
<defs>
<linearGradient id="linear-pattern-0" gradientUnits="userSpaceOnUse" x1="0" y1="528.799988" x2="0" y2="524.799988" gradientTransform="matrix(2, 0, 0, 2, -769.140015, -1031.599976)">
<stop offset="0" stop-color="rgb(50.588235%, 29.411765%, 7.45098%)" stop-opacity="1"/>
<stop offset="1" stop-color="rgb(61.568627%, 35.686275%, 9.019608%)" stop-opacity="1"/>
</linearGradient>
<linearGradient id="linear-pattern-1" gradientUnits="userSpaceOnUse" x1="0" y1="528.799988" x2="0" y2="524.799988" gradientTransform="matrix(2, 0, 0, 2, -769.140015, -1031.599976)">
<stop offset="0" stop-color="rgb(50.588235%, 29.411765%, 7.45098%)" stop-opacity="1"/>
<stop offset="1" stop-color="rgb(61.568627%, 35.686275%, 9.019608%)" stop-opacity="1"/>
</linearGradient>
<linearGradient id="linear-pattern-2" gradientUnits="userSpaceOnUse" x1="0" y1="538.799988" x2="0" y2="534.799988" gradientTransform="matrix(2, 0, 0, 2, -769.140015, -1031.599976)">
<stop offset="0" stop-color="rgb(50.588235%, 29.411765%, 7.45098%)" stop-opacity="1"/>
<stop offset="1" stop-color="rgb(61.568627%, 35.686275%, 9.019608%)" stop-opacity="1"/>
</linearGradient>
</defs>
<path fill-rule="nonzero" fill="rgb(99.215686%, 81.176471%, 44.313725%)" fill-opacity="1" d="M 32 5 C 46.910156 5 59 17.089844 59 32 C 59 46.910156 46.910156 59 32 59 C 17.089844 59 5 46.910156 5 32 C 5 17.089844 17.089844 5 32 5 Z M 32 5 "/>
<path fill-rule="nonzero" fill="url(#linear-pattern-0)" d="M 26 22 C 26 24.210938 24.210938 26 22 26 C 19.789062 26 18 24.210938 18 22 C 18 19.789062 19.789062 18 22 18 C 24.210938 18 26 19.789062 26 22 Z M 26 22 "/>
<path fill-rule="nonzero" fill="url(#linear-pattern-1)" d="M 46 22 C 46 24.210938 44.210938 26 42 26 C 39.789062 26 38 24.210938 38 22 C 38 19.789062 39.789062 18 42 18 C 44.210938 18 46 19.789062 46 22 Z M 46 22 "/>
<path fill-rule="nonzero" fill="url(#linear-pattern-2)" d="M 21.359375 38.601562 C 23.558594 43.167969 27.617188 45.984375 32.011719 45.988281 C 36.40625 45.980469 40.460938 43.164062 42.65625 38.601562 L 41.160156 38.601562 C 38.832031 41.726562 35.507812 43.515625 32.011719 43.523438 C 28.519531 43.515625 25.191406 41.726562 22.859375 38.601562 Z M 21.359375 38.601562 "/>
</svg>
