<?xml version="1.0" encoding="UTF-8"?>
<svg xmlns="http://www.w3.org/2000/svg" xmlns:xlink="http://www.w3.org/1999/xlink" width="64" height="64" viewBox="0 0 64 64">
<path fill-rule="nonzero" fill="rgb(20%, 20%, 20%)" fill-opacity="1" d="M 58 34 C 58 48.359375 46.359375 60 32 60 C 17.640625 60 6 48.359375 6 34 C 6 19.640625 17.640625 8 32 8 C 46.359375 8 58 19.640625 58 34 Z M 58 34 "/>
<path fill-rule="nonzero" fill="rgb(86.27451%, 88.235294%, 89.411765%)" fill-opacity="1" d="M 32 3 C 25.464844 3 19.121094 5.207031 14 9.265625 L 14 50 L 50 50 L 50 9.300781 C 44.882812 5.230469 38.539062 3.011719 32 3 Z M 32 3 "/>
<path fill-rule="nonzero" fill="rgb(12.54902%, 13.333333%, 14.117647%)" fill-opacity="1" d="M 20 14 L 28 14 L 28 24 L 20 24 Z M 20 14 "/>
<path fill-rule="nonzero" fill="rgb(99.215686%, 73.72549%, 29.019608%)" fill-opacity="1" d="M 22 14 L 26 14 L 26 24 L 22 24 Z M 22 14 "/>
<path fill-rule="nonzero" fill="rgb(51.764706%, 72.54902%, 21.960784%)" fill-opacity="1" d="M 44.503906 27.417969 C 44.054688 27.449219 43.632812 27.695312 43.390625 28.117188 L 38.496094 36.59375 C 36.566406 36.09375 34.421875 35.800781 32 35.800781 C 29.578125 35.800781 27.433594 36.09375 25.507812 36.59375 L 20.613281 28.117188 C 20.324219 27.613281 19.769531 27.359375 19.230469 27.425781 C 19.046875 27.449219 18.867188 27.507812 18.699219 27.605469 C 18.027344 27.992188 17.800781 28.84375 18.191406 29.515625 L 22.792969 37.484375 C 16.542969 40.066406 13.28125 45.214844 11.550781 50.046875 C 15.277344 54.789062 20.535156 58.085938 26.429688 59.378906 C 26.625 59.425781 26.820312 59.46875 27.019531 59.507812 C 27.539062 59.605469 28.066406 59.683594 28.59375 59.746094 C 28.980469 59.800781 29.367188 59.847656 29.757812 59.886719 C 30.503906 59.957031 31.25 59.992188 32 60 C 32.742188 59.992188 33.484375 59.957031 34.222656 59.886719 C 34.765625 59.839844 35.304688 59.773438 35.839844 59.691406 C 36.113281 59.652344 36.386719 59.613281 36.65625 59.566406 C 42.90625 58.421875 48.523438 55.023438 52.441406 50.019531 C 50.707031 45.195312 47.449219 40.0625 41.210938 37.484375 L 45.8125 29.511719 C 46.203125 28.839844 45.972656 27.992188 45.300781 27.601562 C 45.046875 27.457031 44.769531 27.398438 44.5 27.417969 Z M 44.503906 27.417969 "/>
<path fill-rule="nonzero" fill="rgb(100%, 100%, 100%)" fill-opacity="1" d="M 27 49 C 27 50.65625 25.65625 52 24 52 C 22.34375 52 21 50.65625 21 49 C 21 47.34375 22.34375 46 24 46 C 25.65625 46 27 47.34375 27 49 Z M 27 49 "/>
<path fill-rule="nonzero" fill="rgb(100%, 100%, 100%)" fill-opacity="1" d="M 43 49 C 43 50.65625 41.65625 52 40 52 C 38.34375 52 37 50.65625 37 49 C 37 47.34375 38.34375 46 40 46 C 41.65625 46 43 47.34375 43 49 Z M 43 49 "/>
<path fill-rule="nonzero" fill="rgb(12.54902%, 13.333333%, 14.117647%)" fill-opacity="1" d="M 36 14 L 44 14 L 44 24 L 36 24 Z M 36 14 "/>
<path fill-rule="nonzero" fill="rgb(99.215686%, 73.72549%, 29.019608%)" fill-opacity="1" d="M 38 14 L 42 14 L 42 24 L 38 24 Z M 38 14 "/>
</svg>
