<?xml version="1.0" encoding="UTF-8"?>
<svg xmlns="http://www.w3.org/2000/svg" xmlns:xlink="http://www.w3.org/1999/xlink" width="64" height="64" viewBox="0 0 64 64">
<path fill-rule="nonzero" fill="rgb(92.54902%, 92.54902%, 92.54902%)" fill-opacity="1" d="M 15.609375 8.460938 C 15.609375 12.40625 12.414062 15.605469 8.464844 15.605469 C 4.519531 15.605469 1.324219 12.40625 1.324219 8.460938 C 1.324219 4.515625 4.519531 1.316406 8.464844 1.316406 C 12.414062 1.316406 15.609375 4.515625 15.609375 8.460938 Z M 15.609375 8.460938 "/>
<path fill-rule="nonzero" fill="rgb(99.215686%, 76.862745%, 3.529412%)" fill-opacity="1" d="M 12.964844 12.429688 C 13.113281 12.429688 13.230469 12.3125 13.230469 12.164062 L 13.230469 7.667969 C 13.230469 7.519531 13.113281 7.402344 12.964844 7.402344 L 11.378906 7.402344 L 11.378906 11.105469 C 11.378906 11.253906 11.257812 11.371094 11.113281 11.371094 L 8.46875 11.371094 C 8.320312 11.371094 8.203125 11.253906 8.203125 11.105469 L 8.203125 7.402344 L 6.613281 7.402344 C 6.46875 7.402344 6.351562 7.519531 6.351562 7.667969 L 6.351562 12.164062 C 6.351562 12.3125 6.46875 12.429688 6.613281 12.429688 Z M 12.964844 12.429688 "/>
<path fill-rule="nonzero" fill="rgb(71.372549%, 12.156863%, 11.372549%)" fill-opacity="1" d="M 5.820312 7.410156 L 5.820312 9.789062 L 8.203125 7.410156 Z M 5.820312 7.410156 "/>
<path fill-rule="nonzero" fill="rgb(89.803922%, 21.960784%, 12.156863%)" fill-opacity="1" d="M 4.234375 4.761719 C 4.085938 4.761719 3.96875 4.878906 3.96875 5.023438 L 3.96875 9.523438 C 3.96875 9.667969 4.085938 9.785156 4.234375 9.785156 L 5.820312 9.785156 L 5.820312 6.082031 C 5.820312 5.9375 5.9375 5.816406 6.085938 5.816406 L 8.730469 5.816406 C 8.878906 5.816406 8.996094 5.9375 8.996094 6.082031 L 8.996094 9.785156 L 10.582031 9.785156 C 10.730469 9.785156 10.847656 9.667969 10.847656 9.523438 L 10.847656 5.023438 C 10.847656 4.878906 10.730469 4.761719 10.582031 4.761719 Z M 4.234375 4.761719 "/>
<path fill-rule="nonzero" fill="rgb(90.588235%, 43.529412%, 3.137255%)" fill-opacity="1" d="M 11.375 7.410156 L 8.996094 9.789062 L 11.375 9.789062 Z M 11.375 7.410156 "/>
<path fill-rule="nonzero" fill="rgb(90.588235%, 43.529412%, 3.137255%)" fill-opacity="1" d="M 11.640625 5.550781 L 12.699219 5.550781 L 12.699219 6.609375 L 11.640625 6.609375 Z M 11.640625 5.550781 "/>
<path fill-rule="nonzero" fill="rgb(96.470588%, 66.666667%, 3.137255%)" fill-opacity="1" d="M 5.027344 10.359375 L 5.777344 11.109375 L 5.027344 11.855469 L 4.277344 11.109375 Z M 5.027344 10.359375 "/>
</svg>
