<?xml version="1.0" encoding="UTF-8"?>
<svg xmlns="http://www.w3.org/2000/svg" xmlns:xlink="http://www.w3.org/1999/xlink" width="64" height="64" viewBox="0 0 64 64">
<defs>
<filter id="filter-remove-color" x="0%" y="0%" width="100%" height="100%">
<feColorMatrix color-interpolation-filters="sRGB" values="0 0 0 0 1 0 0 0 0 1 0 0 0 0 1 0 0 0 1 0" />
</filter>
<mask id="mask-0">
<g filter="url(#filter-remove-color)">
<rect x="-6.4" y="-6.4" width="76.8" height="76.8" fill="rgb(0%, 0%, 0%)" fill-opacity="0.1"/>
</g>
</mask>
<clipPath id="clip-0">
<rect x="0" y="0" width="17" height="17"/>
</clipPath>
<g id="source-2743" clip-path="url(#clip-0)">
<path fill-rule="nonzero" fill="rgb(100%, 100%, 100%)" fill-opacity="1" d="M 14.289062 8.46875 C 14.289062 11.683594 11.679688 14.289062 8.464844 14.289062 C 5.25 14.289062 2.644531 11.683594 2.644531 8.46875 C 2.644531 5.253906 5.25 2.648438 8.464844 2.648438 C 11.679688 2.648438 14.289062 5.253906 14.289062 8.46875 Z M 14.289062 8.46875 "/>
</g>
<mask id="mask-1">
<g filter="url(#filter-remove-color)">
<rect x="-6.4" y="-6.4" width="76.8" height="76.8" fill="rgb(0%, 0%, 0%)" fill-opacity="0.988"/>
</g>
</mask>
<clipPath id="clip-1">
<rect x="0" y="0" width="17" height="17"/>
</clipPath>
<g id="source-2747" clip-path="url(#clip-1)">
<path fill-rule="nonzero" fill="rgb(100%, 100%, 100%)" fill-opacity="1" d="M 8.464844 4.238281 C 6.132812 4.238281 4.238281 6.132812 4.238281 8.464844 C 4.238281 10.800781 6.132812 12.695312 8.464844 12.695312 C 10.800781 12.695312 12.695312 10.800781 12.695312 8.464844 C 12.695312 6.132812 10.800781 4.238281 8.464844 4.238281 Z M 8.464844 4.765625 C 10.511719 4.765625 12.167969 6.421875 12.167969 8.464844 C 12.167969 10.507812 10.511719 12.167969 8.464844 12.167969 C 6.421875 12.167969 4.765625 10.507812 4.765625 8.464844 C 4.765625 6.421875 6.421875 4.765625 8.464844 4.765625 Z M 8.464844 4.765625 "/>
</g>
<mask id="mask-2">
<g filter="url(#filter-remove-color)">
<rect x="-6.4" y="-6.4" width="76.8" height="76.8" fill="rgb(0%, 0%, 0%)" fill-opacity="0.988"/>
</g>
</mask>
<clipPath id="clip-2">
<rect x="0" y="0" width="17" height="17"/>
</clipPath>
<g id="source-2751" clip-path="url(#clip-2)">
<path fill-rule="nonzero" fill="rgb(100%, 100%, 100%)" fill-opacity="1" d="M 8.460938 4.757812 L 5.203125 10.21875 L 8.054688 8.613281 L 8.460938 8.386719 Z M 8.460938 4.757812 L 11.722656 10.21875 L 8.871094 8.613281 L 8.460938 8.386719 Z M 8.460938 4.757812 "/>
</g>
</defs>
<path fill-rule="nonzero" fill="rgb(0%, 25.490196%, 35.294118%)" fill-opacity="1" d="M 15.609375 8.46875 C 15.609375 12.414062 12.410156 15.613281 8.464844 15.613281 C 4.519531 15.613281 1.324219 12.414062 1.324219 8.46875 C 1.324219 4.523438 4.519531 1.328125 8.464844 1.328125 C 12.410156 1.328125 15.609375 4.523438 15.609375 8.46875 Z M 15.609375 8.46875 "/>
<g mask="url(#mask-0)">
<use xlink:href="#source-2743"/>
</g>
<g mask="url(#mask-1)">
<use xlink:href="#source-2747"/>
</g>
<g mask="url(#mask-2)">
<use xlink:href="#source-2751"/>
</g>
</svg>
