<?xml version="1.0" encoding="UTF-8"?>
<svg xmlns="http://www.w3.org/2000/svg" xmlns:xlink="http://www.w3.org/1999/xlink" width="64" height="64" viewBox="0 0 64 64">
<path fill-rule="nonzero" fill="rgb(20%, 20%, 20%)" fill-opacity="1" d="M 15.609375 8.464844 C 15.609375 12.410156 12.410156 15.609375 8.464844 15.609375 C 4.519531 15.609375 1.324219 12.410156 1.324219 8.464844 C 1.324219 4.519531 4.519531 1.324219 8.464844 1.324219 C 12.410156 1.324219 15.609375 4.519531 15.609375 8.464844 Z M 15.609375 8.464844 "/>
<path fill-rule="evenodd" fill="rgb(100%, 100%, 100%)" fill-opacity="1" d="M 4.875 3.96875 L 12.058594 3.96875 L 12.058594 6.613281 L 4.875 6.613281 Z M 4.875 3.96875 "/>
<path fill-rule="evenodd" fill="rgb(75.294118%, 78.431373%, 12.156863%)" fill-opacity="1" d="M 6.777344 6.046875 C 6.910156 6.046875 7.015625 5.796875 7.015625 5.472656 C 7.015625 5.144531 6.910156 4.894531 6.777344 4.894531 C 6.644531 4.894531 6.539062 5.144531 6.539062 5.472656 C 6.539062 5.796875 6.644531 6.046875 6.777344 6.046875 Z M 6.777344 6.046875 "/>
<path fill-rule="evenodd" fill="rgb(60.784314%, 34.901961%, 17.647059%)" fill-opacity="1" d="M 13.632812 1.71875 C 13.308594 1.375 11.828125 1.792969 10.929688 2.351562 C 10.222656 1.992188 9.375 1.773438 8.472656 1.773438 C 7.554688 1.773438 6.707031 1.992188 6.003906 2.351562 C 5.101562 1.792969 3.601562 1.359375 3.296875 1.71875 C 2.972656 2.082031 3.53125 3.578125 4.199219 4.40625 C 4.144531 4.625 4.109375 4.839844 4.109375 5.074219 C 4.109375 5.796875 4.414062 6.464844 4.9375 7.003906 L 7.914062 7.003906 C 7.824219 6.824219 7.949219 6.71875 8.492188 6.71875 C 9.035156 6.734375 9.140625 6.824219 9.070312 7.003906 L 12.046875 7.003906 C 12.570312 6.464844 12.875 5.777344 12.875 5.074219 C 12.875 4.839844 12.839844 4.625 12.785156 4.40625 C 13.417969 3.578125 13.957031 2.0625 13.632812 1.71875 Z M 6.777344 6.484375 C 6.148438 6.484375 5.625 5.960938 5.625 5.328125 C 5.625 4.695312 6.148438 4.171875 6.777344 4.171875 C 7.410156 4.171875 7.933594 4.695312 7.933594 5.328125 C 7.933594 5.960938 7.410156 6.484375 6.777344 6.484375 Z M 10.171875 6.484375 C 9.539062 6.484375 9.015625 5.960938 9.015625 5.328125 C 9.015625 4.695312 9.539062 4.171875 10.171875 4.171875 C 10.800781 4.171875 11.324219 4.695312 11.324219 5.328125 C 11.324219 5.960938 10.820312 6.484375 10.171875 6.484375 Z M 10.171875 6.484375 "/>
<path fill-rule="evenodd" fill="rgb(47.45098%, 18.823529%, 0%)" fill-opacity="1" d="M 2.0625 4.070312 C 1.773438 4.070312 1.488281 4.113281 1.214844 4.210938 C 2.746094 4.40625 3.992188 5.003906 5.109375 6.085938 C 4.613281 4.914062 3.316406 4.074219 2.0625 4.070312 Z M 14.867188 4.070312 C 13.617188 4.074219 12.320312 4.914062 11.820312 6.085938 C 12.941406 5.003906 14.183594 4.40625 15.71875 4.210938 C 15.445312 4.113281 15.15625 4.070312 14.867188 4.070312 Z M 1.804688 4.90625 C 1.253906 4.914062 0.71875 5.054688 0.257812 5.347656 C 1.988281 5.074219 3.558594 5.527344 5.039062 6.410156 C 4.292969 5.480469 3.011719 4.882812 1.804688 4.90625 Z M 15.128906 4.90625 C 13.917969 4.882812 12.636719 5.480469 11.894531 6.410156 C 13.371094 5.527344 14.941406 5.074219 16.675781 5.347656 C 16.210938 5.054688 15.675781 4.914062 15.128906 4.90625 Z M 2.503906 5.800781 C 1.773438 5.789062 1.113281 5.992188 0.78125 6.484375 C 2.316406 5.996094 3.648438 6.210938 5.128906 6.789062 C 4.5 6.191406 3.441406 5.816406 2.503906 5.800781 Z M 14.429688 5.800781 C 13.492188 5.816406 12.433594 6.191406 11.804688 6.789062 C 13.285156 6.210938 14.617188 5.996094 16.152344 6.484375 C 15.820312 5.992188 15.160156 5.789062 14.429688 5.800781 Z M 14.429688 5.800781 "/>
<path fill-rule="evenodd" fill="rgb(41.176471%, 31.372549%, 31.372549%)" fill-opacity="1" d="M 3.703125 5.726562 C 3.253906 5.726562 2.875 5.960938 2.695312 6.320312 L 2.640625 6.320312 C 2.152344 6.320312 1.738281 6.679688 1.738281 7.132812 C 1.738281 7.761719 2.386719 8.105469 2.980469 7.890625 C 3.34375 8.414062 4.117188 8.449219 4.40625 7.890625 C 4.839844 7.871094 5.542969 7.800781 5.652344 7.132812 C 5.722656 6.679688 5.253906 6.320312 4.75 6.320312 L 4.695312 6.320312 C 4.550781 5.960938 4.15625 5.726562 3.703125 5.726562 Z M 13.230469 5.726562 C 13.679688 5.726562 14.058594 5.960938 14.238281 6.320312 L 14.292969 6.320312 C 14.546875 6.320312 15.195312 6.679688 15.195312 7.132812 C 15.195312 7.761719 14.546875 8.105469 13.949219 7.890625 C 13.589844 8.414062 12.8125 8.449219 12.527344 7.890625 C 12.09375 7.871094 11.390625 7.800781 11.28125 7.132812 C 11.207031 6.679688 11.929688 6.320312 12.183594 6.320312 L 12.238281 6.320312 C 12.382812 5.960938 12.777344 5.726562 13.230469 5.726562 Z M 13.230469 5.726562 "/>
<path fill-rule="evenodd" fill="rgb(75.294118%, 78.431373%, 12.156863%)" fill-opacity="1" d="M 10.128906 6.046875 C 10.261719 6.046875 10.371094 5.796875 10.371094 5.472656 C 10.371094 5.144531 10.261719 4.894531 10.128906 4.894531 C 9.996094 4.894531 9.890625 5.144531 9.890625 5.472656 C 9.890625 5.796875 9.996094 6.046875 10.128906 6.046875 Z M 10.128906 6.046875 "/>
<path fill-rule="nonzero" fill="rgb(100%, 100%, 100%)" fill-opacity="1" d="M 8.730469 12.09375 L 11.410156 12.09375 C 11.816406 12.09375 11.816406 12.699219 11.410156 12.699219 L 8.730469 12.699219 C 8.328125 12.699219 8.328125 12.09375 8.730469 12.09375 Z M 5.511719 8.824219 C 5.242188 8.539062 5.652344 8.128906 5.9375 8.394531 L 7.832031 10.289062 C 7.953125 10.40625 7.953125 10.597656 7.832031 10.714844 L 5.9375 12.609375 C 5.652344 12.875 5.242188 12.46875 5.511719 12.183594 L 7.191406 10.5 Z M 5.511719 8.824219 "/>
<path fill-rule="nonzero" fill="rgb(100%, 100%, 100%)" fill-opacity="1" d="M 9.191406 6.976562 C 9.191406 7.175781 8.867188 7.339844 8.464844 7.339844 C 8.066406 7.339844 7.742188 7.175781 7.742188 6.976562 C 7.742188 6.777344 8.066406 6.613281 8.464844 6.613281 C 8.867188 6.613281 9.191406 6.777344 9.191406 6.976562 Z M 9.191406 6.976562 "/>
</svg>
