<?xml version="1.0" encoding="UTF-8"?>
<svg xmlns="http://www.w3.org/2000/svg" xmlns:xlink="http://www.w3.org/1999/xlink" width="64" height="64" viewBox="0 0 64 64">
<path fill-rule="nonzero" fill="rgb(18.431373%, 22.352941%, 25.882353%)" fill-opacity="1" d="M 32 5 C 17.085938 5 5 17.089844 5 32 C 5 46.910156 17.085938 59 32 59 C 46.910156 59 59 46.910156 59 32 C 59 17.089844 46.910156 5 32 5 Z M 32 5 "/>
<path fill-rule="nonzero" fill="rgb(9.019608%, 57.647059%, 93.72549%)" fill-opacity="1" d="M 32 11.75 C 31.875 11.746094 31.753906 11.796875 31.664062 11.886719 C 30.40625 13.195312 29.128906 14.667969 27.976562 16.070312 C 27.976562 16.070312 27.976562 16.074219 27.976562 16.074219 C 25.132812 19.625 22.96875 23.269531 21.402344 27.167969 C 19.945312 30.804688 19.089844 33.945312 18.316406 38.53125 C 18.144531 39.535156 17.972656 40.75 17.855469 41.726562 C 17.792969 42.21875 17.75 42.644531 17.722656 42.964844 C 17.710938 43.121094 17.703125 43.253906 17.699219 43.359375 C 17.699219 43.410156 17.699219 43.453125 17.699219 43.507812 C 17.699219 43.535156 17.699219 43.566406 17.71875 43.617188 C 17.734375 43.664062 17.71875 43.765625 17.921875 43.886719 C 18.027344 43.953125 18.042969 43.941406 18.070312 43.949219 C 18.097656 43.953125 18.117188 43.957031 18.136719 43.960938 C 18.179688 43.96875 18.226562 43.972656 18.28125 43.980469 C 18.382812 43.992188 18.515625 44 18.652344 44.007812 C 19.742188 44.070312 21.351562 44.347656 22.417969 44.660156 C 23.136719 44.871094 23.609375 45.042969 24.3125 45.355469 C 24.476562 45.425781 24.625 45.492188 24.738281 45.542969 C 24.792969 45.566406 24.835938 45.585938 24.871094 45.597656 C 24.886719 45.605469 24.902344 45.609375 24.914062 45.617188 C 24.917969 45.617188 24.917969 45.617188 24.917969 45.617188 C 24.917969 45.621094 24.929688 45.625 24.933594 45.628906 L 24.933594 45.625 C 24.949219 45.628906 24.949219 45.632812 24.960938 45.636719 C 24.960938 45.636719 24.972656 45.640625 24.976562 45.644531 C 24.976562 45.640625 24.960938 45.644531 24.960938 45.640625 C 24.992188 45.65625 25.027344 45.679688 25.078125 45.707031 C 25.195312 45.769531 25.359375 45.863281 25.535156 45.964844 C 27.257812 46.929688 28.542969 47.925781 30.597656 49.898438 C 30.871094 50.15625 31.121094 50.390625 31.3125 50.566406 C 31.410156 50.652344 31.488281 50.722656 31.550781 50.777344 C 31.582031 50.804688 31.609375 50.824219 31.636719 50.847656 C 31.652344 50.859375 31.667969 50.867188 31.6875 50.886719 C 31.703125 50.890625 31.714844 50.902344 31.742188 50.914062 C 31.769531 50.925781 31.792969 50.953125 31.917969 50.960938 C 32.0625 50.964844 32.09375 50.933594 32.125 50.921875 C 32.152344 50.90625 32.167969 50.898438 32.183594 50.890625 C 32.207031 50.871094 32.222656 50.863281 32.238281 50.851562 C 32.265625 50.828125 32.296875 50.804688 32.328125 50.777344 C 32.394531 50.71875 32.484375 50.640625 32.589844 50.546875 C 32.796875 50.359375 33.070312 50.105469 33.367188 49.824219 C 35.066406 48.210938 35.890625 47.53125 37.074219 46.746094 C 39.660156 45.027344 41.964844 44.269531 45.5 43.96875 L 45.785156 43.945312 C 46.015625 43.925781 46.195312 43.734375 46.195312 43.503906 L 46.195312 43.332031 C 46.195312 42.980469 46.109375 42.257812 45.996094 41.355469 C 45.882812 40.457031 45.738281 39.433594 45.609375 38.65625 C 44.832031 34.035156 43.949219 30.777344 42.472656 27.097656 C 41.140625 23.78125 39.234375 20.433594 36.957031 17.398438 C 36.957031 17.394531 36.941406 17.386719 36.9375 17.378906 C 35.40625 15.5625 33.921875 13.660156 32.304688 11.890625 C 32.222656 11.800781 32.109375 11.75 31.988281 11.746094 Z M 32 11.75 "/>
<path fill-rule="evenodd" fill="rgb(0%, 0%, 0%)" fill-opacity="0.065" d="M 41.800781 25.574219 L 17.773438 43.753906 C 17.800781 43.796875 17.832031 43.839844 17.914062 43.890625 C 18.019531 43.957031 18.035156 43.941406 18.0625 43.949219 C 18.089844 43.953125 18.109375 43.960938 18.132812 43.964844 C 18.175781 43.96875 18.222656 43.972656 18.273438 43.980469 C 18.378906 43.992188 18.507812 44.003906 18.644531 44.011719 C 19.734375 44.070312 21.34375 44.347656 22.410156 44.660156 C 23.128906 44.871094 23.605469 45.042969 24.308594 45.355469 C 24.46875 45.425781 24.617188 45.492188 24.730469 45.539062 C 24.785156 45.566406 24.828125 45.582031 24.863281 45.597656 C 24.882812 45.605469 24.894531 45.613281 24.90625 45.617188 L 24.910156 45.617188 L 24.914062 45.621094 C 24.921875 45.621094 24.925781 45.625 24.933594 45.628906 L 24.9375 45.628906 C 24.941406 45.632812 24.945312 45.632812 24.960938 45.636719 C 24.964844 45.636719 24.96875 45.644531 24.976562 45.644531 C 24.972656 45.644531 24.964844 45.644531 24.960938 45.640625 C 24.992188 45.65625 25.027344 45.679688 25.078125 45.707031 C 25.195312 45.773438 25.359375 45.863281 25.539062 45.964844 C 27.257812 46.929688 28.546875 47.925781 30.601562 49.898438 C 30.871094 50.15625 31.125 50.390625 31.316406 50.566406 C 31.410156 50.652344 31.488281 50.722656 31.550781 50.777344 C 31.582031 50.804688 31.609375 50.828125 31.640625 50.847656 C 31.652344 50.859375 31.667969 50.871094 31.691406 50.886719 C 31.707031 50.890625 31.71875 50.902344 31.746094 50.914062 C 31.773438 50.925781 31.796875 50.953125 31.917969 50.957031 C 32.066406 50.964844 32.097656 50.933594 32.128906 50.917969 C 32.15625 50.90625 32.171875 50.894531 32.1875 50.886719 C 32.210938 50.871094 32.226562 50.863281 32.242188 50.851562 C 32.269531 50.828125 32.300781 50.804688 32.332031 50.777344 C 32.402344 50.71875 32.488281 50.640625 32.589844 50.546875 C 32.796875 50.359375 33.074219 50.105469 33.371094 49.824219 C 35.070312 48.214844 35.894531 47.53125 37.078125 46.746094 C 39.664062 45.03125 41.964844 44.269531 45.503906 43.972656 L 45.785156 43.949219 C 46.019531 43.929688 46.195312 43.734375 46.195312 43.503906 L 46.195312 43.335938 C 46.195312 42.984375 46.109375 42.257812 46 41.359375 C 45.886719 40.460938 45.742188 39.4375 45.613281 38.660156 C 44.835938 34.035156 43.957031 30.78125 42.476562 27.097656 C 42.273438 26.589844 42.03125 26.082031 41.800781 25.574219 "/>
<path fill-rule="evenodd" fill="rgb(0%, 0%, 0%)" fill-opacity="0.065" d="M 22.171875 25.574219 L 46.199219 43.753906 C 46.171875 43.796875 46.140625 43.839844 46.058594 43.890625 C 45.953125 43.957031 45.9375 43.941406 45.910156 43.949219 C 45.882812 43.953125 45.863281 43.960938 45.839844 43.964844 C 45.796875 43.96875 45.75 43.972656 45.699219 43.980469 C 45.59375 43.992188 45.464844 44.003906 45.328125 44.011719 C 44.238281 44.070312 42.628906 44.347656 41.5625 44.660156 C 40.84375 44.871094 40.367188 45.042969 39.664062 45.355469 C 39.503906 45.425781 39.355469 45.492188 39.242188 45.539062 C 39.1875 45.566406 39.140625 45.582031 39.105469 45.597656 C 39.089844 45.605469 39.078125 45.613281 39.066406 45.617188 L 39.058594 45.617188 L 39.058594 45.621094 C 39.050781 45.621094 39.046875 45.625 39.039062 45.628906 L 39.035156 45.628906 C 39.027344 45.632812 39.023438 45.632812 39.011719 45.636719 C 39.007812 45.636719 39 45.644531 38.996094 45.644531 C 39 45.644531 39.007812 45.644531 39.011719 45.640625 C 38.980469 45.65625 38.945312 45.679688 38.894531 45.707031 C 38.777344 45.773438 38.613281 45.863281 38.433594 45.964844 C 36.710938 46.929688 35.425781 47.925781 33.371094 49.898438 C 33.101562 50.15625 32.847656 50.390625 32.65625 50.566406 C 32.5625 50.652344 32.484375 50.722656 32.417969 50.777344 C 32.386719 50.804688 32.359375 50.828125 32.332031 50.847656 C 32.316406 50.859375 32.304688 50.871094 32.277344 50.886719 C 32.265625 50.890625 32.253906 50.902344 32.226562 50.914062 C 32.199219 50.925781 32.175781 50.953125 32.050781 50.957031 C 31.90625 50.964844 31.875 50.933594 31.84375 50.917969 C 31.816406 50.90625 31.800781 50.894531 31.785156 50.886719 C 31.761719 50.871094 31.746094 50.863281 31.730469 50.851562 C 31.699219 50.828125 31.671875 50.804688 31.640625 50.777344 C 31.570312 50.71875 31.484375 50.640625 31.382812 50.546875 C 31.171875 50.359375 30.898438 50.105469 30.601562 49.824219 C 28.902344 48.214844 28.078125 47.53125 26.894531 46.746094 C 24.308594 45.03125 22.003906 44.269531 18.46875 43.972656 L 18.183594 43.949219 C 17.953125 43.929688 17.777344 43.734375 17.777344 43.503906 L 17.777344 43.335938 C 17.777344 42.984375 17.859375 42.257812 17.972656 41.359375 C 18.085938 40.460938 18.230469 39.4375 18.359375 38.660156 C 19.136719 34.035156 20.015625 30.78125 21.496094 27.097656 C 21.699219 26.589844 21.9375 26.082031 22.171875 25.574219 "/>
</svg>
