<?xml version="1.0" encoding="UTF-8"?>
<svg xmlns="http://www.w3.org/2000/svg" xmlns:xlink="http://www.w3.org/1999/xlink" width="64" height="64" viewBox="0 0 64 64">
<path fill-rule="evenodd" fill="rgb(22.745098%, 50.588235%, 80%)" fill-opacity="1" d="M 15.609375 8.464844 C 15.609375 12.410156 12.410156 15.609375 8.464844 15.609375 C 4.519531 15.609375 1.324219 12.410156 1.324219 8.464844 C 1.324219 4.519531 4.519531 1.324219 8.464844 1.324219 C 12.410156 1.324219 15.609375 4.519531 15.609375 8.464844 Z M 15.609375 8.464844 "/>
<path fill-rule="nonzero" fill="rgb(44.313725%, 67.058824%, 89.019608%)" fill-opacity="1" d="M 11.007812 5.925781 L 11.007812 11.007812 L 15.132812 11.007812 C 15.445312 10.195312 15.605469 9.335938 15.609375 8.464844 C 15.609375 7.597656 15.449219 6.738281 15.140625 5.925781 Z M 11.007812 5.925781 "/>
<path fill-rule="nonzero" fill="rgb(44.313725%, 67.058824%, 89.019608%)" fill-opacity="1" d="M 5.925781 11.007812 L 5.925781 15.132812 C 6.738281 15.445312 7.597656 15.605469 8.464844 15.609375 C 9.335938 15.609375 10.195312 15.449219 11.007812 15.140625 L 11.007812 11.007812 Z M 5.925781 11.007812 "/>
<path fill-rule="nonzero" fill="rgb(12.156863%, 37.647059%, 61.960784%)" fill-opacity="1" d="M 5.925781 1.792969 C 4.023438 2.519531 2.523438 4.023438 1.796875 5.925781 L 5.925781 5.925781 Z M 5.925781 1.792969 "/>
<path fill-rule="nonzero" fill="rgb(15.294118%, 46.666667%, 76.862745%)" fill-opacity="1" d="M 8.464844 1.324219 C 7.597656 1.324219 6.738281 1.484375 5.925781 1.792969 L 5.925781 5.925781 L 11.007812 5.925781 L 11.007812 1.796875 C 10.195312 1.488281 9.335938 1.324219 8.464844 1.324219 Z M 8.464844 1.324219 "/>
<path fill-rule="nonzero" fill="rgb(28.235294%, 57.647059%, 85.882353%)" fill-opacity="1" d="M 11.007812 1.796875 L 11.007812 5.925781 L 15.140625 5.925781 C 14.414062 4.023438 12.910156 2.523438 11.007812 1.796875 Z M 11.007812 1.796875 "/>
<path fill-rule="nonzero" fill="rgb(15.294118%, 46.666667%, 76.862745%)" fill-opacity="1" d="M 1.796875 5.925781 C 1.488281 6.738281 1.324219 7.597656 1.324219 8.464844 C 1.324219 9.335938 1.484375 10.195312 1.792969 11.007812 L 5.925781 11.007812 L 5.925781 5.925781 Z M 1.796875 5.925781 "/>
<path fill-rule="nonzero" fill="rgb(28.235294%, 57.647059%, 85.882353%)" fill-opacity="1" d="M 5.925781 5.925781 L 11.007812 5.925781 L 11.007812 11.007812 L 5.925781 11.007812 Z M 5.925781 5.925781 "/>
<path fill-rule="nonzero" fill="rgb(28.235294%, 57.647059%, 85.882353%)" fill-opacity="1" d="M 1.792969 11.007812 C 2.519531 12.910156 4.023438 14.410156 5.925781 15.132812 L 5.925781 11.007812 Z M 1.792969 11.007812 "/>
<path fill-rule="nonzero" fill="rgb(54.117647%, 72.941176%, 90.980392%)" fill-opacity="1" d="M 11.007812 11.007812 L 11.007812 15.140625 C 12.910156 14.414062 14.410156 12.910156 15.132812 11.007812 Z M 11.007812 11.007812 "/>
<path fill-rule="nonzero" fill="rgb(100%, 100%, 100%)" fill-opacity="1" d="M 12.171875 8.46875 C 12.132812 8.46875 12.089844 8.46875 12.050781 8.472656 C 12.042969 8.472656 12.039062 8.46875 12.03125 8.46875 L 8.617188 8.46875 C 8.539062 8.46875 8.472656 8.53125 8.46875 8.613281 L 8.46875 12.082031 C 8.46875 12.113281 8.46875 12.140625 8.464844 12.171875 C 8.464844 14.214844 10.125 15.875 12.171875 15.875 C 14.214844 15.875 15.875 14.214844 15.875 12.171875 C 15.875 10.125 14.214844 8.464844 12.171875 8.464844 Z M 12.171875 8.46875 "/>
<path fill-rule="nonzero" fill="rgb(32.156863%, 60%, 86.27451%)" fill-opacity="1" d="M 14.074219 12.171875 C 14.074219 13.222656 13.222656 14.074219 12.171875 14.074219 C 11.117188 14.074219 10.265625 13.222656 10.265625 12.171875 C 10.265625 11.117188 11.121094 10.265625 12.171875 10.265625 C 13.222656 10.265625 14.074219 11.117188 14.074219 12.171875 Z M 14.074219 12.171875 "/>
<path fill-rule="nonzero" fill="rgb(100%, 100%, 100%)" fill-opacity="1" d="M 12.097656 11.429688 L 12.097656 12.097656 L 11.429688 12.097656 L 11.429688 12.320312 L 12.097656 12.320312 L 12.109375 12.984375 L 12.320312 12.984375 L 12.320312 12.320312 L 12.984375 12.320312 L 13 12.097656 L 12.320312 12.097656 L 12.320312 11.429688 Z M 12.097656 11.429688 "/>
</svg>
