<?xml version="1.0" encoding="UTF-8"?>
<svg xmlns="http://www.w3.org/2000/svg" xmlns:xlink="http://www.w3.org/1999/xlink" width="64" height="64" viewBox="0 0 64 64">
<path fill-rule="nonzero" fill="rgb(28.235294%, 80.392157%, 48.627451%)" fill-opacity="1" d="M 15.609375 8.460938 C 15.609375 12.40625 12.410156 15.605469 8.464844 15.605469 C 4.519531 15.605469 1.324219 12.40625 1.324219 8.460938 C 1.324219 4.515625 4.519531 1.316406 8.464844 1.316406 C 12.410156 1.316406 15.609375 4.515625 15.609375 8.460938 Z M 15.609375 8.460938 "/>
<path fill-rule="nonzero" fill="rgb(100%, 100%, 100%)" fill-opacity="1" d="M 12.152344 5.707031 C 12.097656 5.484375 11.898438 5.332031 11.671875 5.328125 C 11.445312 5.320312 11.242188 5.46875 11.171875 5.6875 C 11.105469 5.902344 11.191406 6.140625 11.382812 6.265625 C 11.359375 6.714844 11.199219 7.144531 10.914062 7.492188 C 9.984375 6.433594 9.59375 6 9.410156 5.824219 C 9.507812 5.761719 9.589844 5.726562 9.644531 5.703125 C 9.824219 5.851562 10.078125 5.859375 10.265625 5.726562 C 10.457031 5.589844 10.527344 5.34375 10.445312 5.128906 C 10.363281 4.910156 10.144531 4.777344 9.914062 4.804688 C 9.683594 4.832031 9.5 5.007812 9.464844 5.238281 C 9.082031 5.402344 7.769531 6.128906 7.964844 8.394531 C 6.523438 8.433594 5.769531 8.816406 5.425781 9.0625 C 5.214844 8.996094 4.984375 9.074219 4.855469 9.25 C 4.726562 9.429688 4.726562 9.671875 4.855469 9.851562 C 4.984375 10.03125 5.210938 10.105469 5.421875 10.042969 C 5.632812 9.976562 5.777344 9.785156 5.78125 9.5625 L 7.285156 11.144531 C 7.253906 11.164062 7.21875 11.183594 7.183594 11.203125 C 6.996094 11.066406 6.738281 11.074219 6.558594 11.21875 C 6.378906 11.363281 6.320312 11.613281 6.414062 11.824219 C 6.511719 12.035156 6.734375 12.15625 6.964844 12.121094 C 7.195312 12.082031 7.367188 11.894531 7.390625 11.664062 C 8.09375 11.3125 8.675781 10.457031 8.523438 8.890625 C 8.941406 8.894531 9.359375 8.84375 9.765625 8.738281 C 10.324219 8.59375 10.789062 8.339844 11.140625 7.988281 C 11.585938 7.546875 11.839844 6.964844 11.878906 6.296875 C 12.101562 6.191406 12.214844 5.941406 12.152344 5.707031 Z M 7.488281 10.988281 L 5.917969 9.34375 C 6.019531 9.289062 6.144531 9.230469 6.296875 9.175781 L 7.765625 10.636719 C 7.683594 10.78125 7.585938 10.898438 7.488281 10.988281 Z M 7.882812 10.398438 L 6.566406 9.089844 C 6.804688 9.023438 7.042969 8.976562 7.289062 8.945312 L 8.039062 9.664062 C 8.019531 9.957031 7.960938 10.199219 7.882812 10.398438 Z M 7.617188 8.910156 C 7.742188 8.902344 7.878906 8.894531 8.023438 8.890625 C 8.039062 9.046875 8.046875 9.191406 8.050781 9.328125 Z M 8.464844 8.390625 C 8.433594 8.089844 8.4375 7.785156 8.46875 7.480469 L 9.203125 8.34375 C 8.972656 8.378906 8.726562 8.394531 8.464844 8.390625 Z M 9.488281 8.292969 L 8.523438 7.160156 C 8.578125 6.9375 8.648438 6.746094 8.734375 6.582031 C 9.046875 6.921875 9.628906 7.578125 10.089844 8.101562 C 9.90625 8.183594 9.707031 8.246094 9.488281 8.292969 Z M 10.320312 7.988281 C 9.503906 7.054688 9.085938 6.589844 8.863281 6.359375 C 8.976562 6.195312 9.097656 6.070312 9.210938 5.972656 C 9.40625 6.167969 10.171875 7.027344 10.742188 7.679688 C 10.621094 7.796875 10.476562 7.898438 10.320312 7.988281 Z M 10.320312 7.988281 "/>
</svg>
