<?xml version="1.0" encoding="UTF-8"?>
<svg xmlns="http://www.w3.org/2000/svg" xmlns:xlink="http://www.w3.org/1999/xlink" width="64" height="64" viewBox="0 0 64 64">
<defs>
<filter id="filter-remove-color" x="0%" y="0%" width="100%" height="100%">
<feColorMatrix color-interpolation-filters="sRGB" values="0 0 0 0 1 0 0 0 0 1 0 0 0 0 1 0 0 0 1 0" />
</filter>
<mask id="mask-0">
<g filter="url(#filter-remove-color)">
<rect x="-6.4" y="-6.4" width="76.8" height="76.8" fill="rgb(0%, 0%, 0%)" fill-opacity="0.15"/>
</g>
</mask>
<clipPath id="clip-0">
<rect x="0" y="0" width="17" height="17"/>
</clipPath>
<g id="source-9798" clip-path="url(#clip-0)">
<path fill-rule="nonzero" fill="rgb(0%, 0%, 0%)" fill-opacity="1" d="M 8.46875 5.820312 C 7.007812 5.820312 5.820312 7.003906 5.820312 8.464844 C 5.820312 9.925781 7.003906 11.109375 8.46875 11.109375 C 9.929688 11.109375 11.113281 9.925781 11.113281 8.464844 C 11.113281 7.003906 9.925781 5.820312 8.46875 5.820312 Z M 8.46875 7.140625 C 9.199219 7.140625 9.789062 7.734375 9.789062 8.464844 C 9.789062 9.195312 9.199219 9.789062 8.46875 9.789062 C 7.734375 9.789062 7.144531 9.195312 7.144531 8.464844 C 7.144531 7.734375 7.734375 7.140625 8.46875 7.140625 Z M 8.46875 7.140625 "/>
</g>
</defs>
<path fill-rule="nonzero" fill="rgb(43.921569%, 56.862745%, 89.019608%)" fill-opacity="1" d="M 15.609375 8.460938 C 15.609375 12.40625 12.410156 15.605469 8.464844 15.605469 C 4.519531 15.605469 1.324219 12.40625 1.324219 8.460938 C 1.324219 4.515625 4.519531 1.316406 8.464844 1.316406 C 12.410156 1.316406 15.609375 4.515625 15.609375 8.460938 Z M 15.609375 8.460938 "/>
<g mask="url(#mask-0)">
<use xlink:href="#source-9798"/>
</g>
<path fill-rule="nonzero" fill="rgb(100%, 100%, 100%)" fill-opacity="1" d="M 7.957031 3.699219 L 7.957031 4.804688 C 7.347656 5.019531 6.941406 5.597656 6.941406 6.242188 C 6.941406 6.792969 7.238281 7.300781 7.71875 7.570312 L 6.984375 10.308594 L 6.433594 10.308594 L 6.433594 10.820312 L 6.847656 10.820312 L 6.4375 12.351562 L 6.726562 13.226562 L 7.371094 10.820312 L 9.558594 10.820312 L 10.203125 13.226562 L 10.496094 12.351562 L 10.085938 10.820312 L 10.5 10.820312 L 10.5 10.308594 L 9.949219 10.308594 L 9.214844 7.570312 C 9.695312 7.300781 9.992188 6.792969 9.992188 6.242188 C 9.992188 5.597656 9.582031 5.023438 8.976562 4.808594 L 8.976562 3.699219 Z M 8.46875 5.734375 C 8.746094 5.734375 8.976562 5.960938 8.976562 6.242188 C 8.976562 6.523438 8.746094 6.75 8.46875 6.75 C 8.332031 6.75 8.203125 6.699219 8.105469 6.601562 C 8.011719 6.507812 7.957031 6.378906 7.957031 6.242188 C 7.957031 6.109375 8.011719 5.980469 8.105469 5.882812 C 8.203125 5.789062 8.332031 5.734375 8.46875 5.734375 Z M 8.195312 7.742188 C 8.285156 7.757812 8.375 7.765625 8.46875 7.769531 C 8.558594 7.769531 8.648438 7.761719 8.734375 7.742188 L 9.421875 10.308594 L 7.507812 10.308594 Z M 8.195312 7.742188 "/>
</svg>
