<?xml version="1.0" encoding="UTF-8"?>
<svg xmlns="http://www.w3.org/2000/svg" xmlns:xlink="http://www.w3.org/1999/xlink" width="64" height="64" viewBox="0 0 64 64">
<path fill-rule="nonzero" fill="rgb(32.156863%, 56.078431%, 100%)" fill-opacity="1" d="M 60 32 C 60 47.464844 47.464844 60 32 60 C 16.535156 60 4 47.464844 4 32 C 4 16.535156 16.535156 4 32 4 C 47.464844 4 60 16.535156 60 32 Z M 60 32 "/>
<path fill-rule="nonzero" fill="rgb(100%, 100%, 100%)" fill-opacity="1" d="M 18 16 L 28 16 C 29.105469 16 30 16.894531 30 18 L 30 28 C 30 29.105469 29.105469 30 28 30 L 18 30 C 16.894531 30 16 29.105469 16 28 L 16 18 C 16 16.894531 16.894531 16 18 16 Z M 18 16 "/>
<path fill-rule="nonzero" fill="rgb(100%, 100%, 100%)" fill-opacity="1" d="M 36 16 C 34.890625 16 34 16.890625 34 18 L 34 28 C 34 29.109375 34.890625 30 36 30 L 46 30 C 47.109375 30 48 29.109375 48 28 L 48 18 C 48 16.890625 47.109375 16 46 16 Z M 36 18 L 46 18 L 46 28 L 36 28 Z M 36 18 "/>
<path fill-rule="nonzero" fill="rgb(100%, 100%, 100%)" fill-opacity="1" d="M 36 34 C 34.890625 34 34 34.890625 34 36 L 34 46 C 34 47.109375 34.890625 48 36 48 L 46 48 C 47.109375 48 48 47.109375 48 46 L 48 36 C 48 34.890625 47.109375 34 46 34 Z M 36 36 L 46 36 L 46 46 L 36 46 Z M 36 36 "/>
<path fill-rule="nonzero" fill="rgb(100%, 100%, 100%)" fill-opacity="1" d="M 18 34 C 16.890625 34 16 34.890625 16 36 L 16 46 C 16 47.109375 16.890625 48 18 48 L 28 48 C 29.109375 48 30 47.109375 30 46 L 30 36 C 30 34.890625 29.109375 34 28 34 Z M 18 36 L 28 36 L 28 46 L 18 46 Z M 18 36 "/>
</svg>
