<?xml version="1.0" encoding="UTF-8"?>
<svg xmlns="http://www.w3.org/2000/svg" xmlns:xlink="http://www.w3.org/1999/xlink" width="64" height="64" viewBox="0 0 64 64">
<path fill-rule="nonzero" fill="rgb(92.156863%, 56.078431%, 22.745098%)" fill-opacity="1" d="M 59 32 C 59 46.910156 46.910156 59 32 59 C 17.089844 59 5 46.910156 5 32 C 5 17.089844 17.089844 5 32 5 C 46.910156 5 59 17.089844 59 32 Z M 59 32 "/>
<path fill-rule="nonzero" fill="rgb(100%, 100%, 100%)" fill-opacity="1" d="M 31.519531 16 C 30.625 16.035156 30.132812 16.332031 29.816406 16.976562 C 29.609375 17.390625 29.441406 18.078125 29.441406 18.507812 C 29.441406 20.078125 27.855469 21.507812 26.117188 21.507812 C 25.261719 21.507812 24.792969 21.273438 23.066406 19.980469 C 22.277344 19.390625 21.78125 19.542969 20.5625 20.746094 C 19.402344 21.886719 19.371094 22.433594 20.398438 23.796875 C 20.824219 24.359375 21.253906 25.109375 21.355469 25.464844 C 21.601562 26.347656 21.195312 27.960938 20.539062 28.675781 C 20.003906 29.261719 18.667969 29.71875 17.503906 29.71875 C 16.398438 29.71875 16 30.351562 16 32.09375 C 16 33.449219 16.050781 33.636719 16.519531 33.945312 C 16.800781 34.132812 17.625 34.375 18.347656 34.476562 C 19.066406 34.578125 19.902344 34.824219 20.195312 35.019531 C 20.816406 35.433594 21.539062 36.90625 21.542969 37.78125 C 21.546875 38.417969 21.058594 39.542969 20.554688 40.050781 C 20.003906 40.609375 19.605469 41.621094 19.75 42.082031 C 19.933594 42.675781 21.191406 43.941406 21.839844 44.191406 C 22.210938 44.335938 22.484375 44.292969 22.84375 44.035156 C 23.902344 43.285156 25.710938 42.472656 26.320312 42.472656 C 27.242188 42.472656 28.765625 43.285156 29.101562 43.953125 C 29.257812 44.269531 29.457031 45 29.539062 45.582031 C 29.742188 46.988281 30.0625 47.652344 30.597656 47.765625 C 30.84375 47.816406 31.234375 47.90625 31.46875 47.957031 C 31.703125 48.015625 32.230469 48.015625 32.644531 47.957031 C 33.714844 47.816406 34.285156 47.015625 34.464844 45.410156 C 34.628906 43.941406 34.765625 43.707031 35.847656 43.011719 C 36.945312 42.3125 37.804688 42.175781 38.648438 42.566406 C 39.347656 42.890625 39.632812 43.058594 40.78125 43.824219 C 41.625 44.386719 42.148438 44.292969 43.121094 43.402344 C 44.585938 42.066406 44.613281 41.484375 43.304688 39.953125 C 42.054688 38.496094 42.039062 36.707031 43.269531 35.328125 C 43.738281 34.804688 44.160156 34.621094 45.550781 34.339844 C 47.652344 33.921875 47.996094 33.578125 48 31.871094 C 48.007812 30.167969 47.734375 29.890625 45.761719 29.582031 C 43.882812 29.289062 43.28125 28.863281 42.625 27.375 C 42.074219 26.140625 42.226562 25.417969 43.398438 23.71875 C 43.996094 22.847656 44.296875 22.214844 44.226562 21.945312 C 44.074219 21.347656 42.128906 19.5625 41.628906 19.5625 C 41.398438 19.5625 40.785156 19.898438 40.265625 20.296875 C 38.828125 21.40625 37.976562 21.660156 36.75 21.328125 C 35.308594 20.945312 34.792969 20.335938 34.429688 18.574219 C 34.011719 16.554688 33.742188 16.191406 32.554688 16.054688 C 32.15625 16.011719 31.816406 15.992188 31.519531 16.003906 Z M 32 26 C 35.3125 26 38 28.6875 38 32 C 38 35.3125 35.3125 38 32 38 C 28.6875 38 26 35.3125 26 32 C 26 28.6875 28.6875 26 32 26 Z M 32 26 "/>
</svg>
