<?xml version="1.0" encoding="UTF-8"?>
<svg xmlns="http://www.w3.org/2000/svg" xmlns:xlink="http://www.w3.org/1999/xlink" width="64" height="64" viewBox="0 0 64 64">
<path fill-rule="nonzero" fill="rgb(0%, 55.294118%, 57.647059%)" fill-opacity="1" d="M 15.609375 8.460938 C 15.609375 12.40625 12.410156 15.605469 8.464844 15.605469 C 4.519531 15.605469 1.324219 12.40625 1.324219 8.460938 C 1.324219 4.515625 4.519531 1.316406 8.464844 1.316406 C 12.410156 1.316406 15.609375 4.515625 15.609375 8.460938 Z M 15.609375 8.460938 "/>
<path fill-rule="nonzero" fill="rgb(8.627451%, 60.784314%, 63.137255%)" fill-opacity="1" d="M 14.289062 8.460938 C 14.289062 11.675781 11.683594 14.28125 8.46875 14.28125 C 5.253906 14.28125 2.644531 11.675781 2.644531 8.460938 C 2.644531 5.246094 5.253906 2.640625 8.46875 2.640625 C 11.683594 2.640625 14.289062 5.246094 14.289062 8.460938 Z M 14.289062 8.460938 "/>
<path fill-rule="nonzero" fill="rgb(100%, 100%, 100%)" fill-opacity="1" d="M 6.292969 6.347656 C 5.746094 6.347656 5.222656 6.566406 4.84375 6.960938 C 4.449219 7.363281 4.230469 7.902344 4.234375 8.464844 C 4.234375 8.742188 4.285156 9.019531 4.390625 9.277344 C 4.496094 9.535156 4.648438 9.769531 4.84375 9.964844 C 5.21875 10.351562 5.734375 10.574219 6.277344 10.578125 L 6.296875 10.578125 C 6.863281 10.609375 7.421875 10.394531 7.824219 9.988281 C 8.078125 9.734375 8.28125 9.441406 8.46875 9.136719 C 8.652344 9.441406 8.851562 9.734375 9.109375 9.988281 C 9.488281 10.355469 10 10.609375 10.640625 10.578125 L 10.65625 10.578125 C 10.921875 10.574219 11.179688 10.523438 11.421875 10.417969 C 11.671875 10.3125 11.898438 10.160156 12.09375 9.964844 L 12.09375 9.960938 C 12.484375 9.5625 12.703125 9.023438 12.699219 8.464844 C 12.699219 8.183594 12.644531 7.90625 12.542969 7.648438 L 12.539062 7.644531 C 12.4375 7.390625 12.285156 7.15625 12.089844 6.960938 C 11.710938 6.566406 11.183594 6.34375 10.636719 6.347656 C 9.96875 6.347656 9.4375 6.621094 9.042969 7.007812 C 8.816406 7.230469 8.632812 7.484375 8.464844 7.742188 C 8.300781 7.476562 8.109375 7.230469 7.890625 7.007812 C 7.46875 6.582031 6.894531 6.34375 6.292969 6.347656 Z M 6.285156 6.953125 C 6.824219 6.953125 7.167969 7.144531 7.480469 7.460938 C 7.730469 7.714844 7.949219 8.058594 8.164062 8.433594 C 7.917969 8.867188 7.679688 9.265625 7.410156 9.539062 C 7.113281 9.835938 6.808594 10 6.308594 9.972656 L 6.285156 9.972656 C 6.097656 9.972656 5.902344 9.933594 5.726562 9.855469 C 5.554688 9.777344 5.394531 9.667969 5.261719 9.53125 L 5.257812 9.523438 C 4.984375 9.238281 4.835938 8.855469 4.839844 8.460938 C 4.835938 8.066406 4.984375 7.6875 5.257812 7.398438 L 5.261719 7.394531 C 5.527344 7.113281 5.898438 6.953125 6.289062 6.953125 Z M 10.644531 6.953125 C 10.835938 6.953125 11.027344 6.992188 11.207031 7.070312 C 11.378906 7.144531 11.539062 7.257812 11.671875 7.394531 L 11.675781 7.402344 C 11.949219 7.6875 12.097656 8.066406 12.097656 8.464844 C 12.097656 8.65625 12.058594 8.855469 11.988281 9.035156 C 11.914062 9.214844 11.808594 9.386719 11.675781 9.527344 L 11.671875 9.53125 C 11.402344 9.8125 11.03125 9.972656 10.644531 9.972656 L 10.625 9.972656 C 10.125 10.003906 9.820312 9.835938 9.523438 9.539062 C 9.253906 9.269531 9.015625 8.867188 8.769531 8.433594 C 8.984375 8.058594 9.203125 7.714844 9.453125 7.460938 C 9.765625 7.144531 10.109375 6.953125 10.644531 6.953125 Z M 10.28125 7.558594 L 10.28125 8.160156 L 9.675781 8.160156 L 9.675781 8.765625 L 10.28125 8.765625 L 10.28125 9.371094 L 10.886719 9.371094 L 10.886719 8.765625 L 11.488281 8.765625 L 11.488281 8.160156 L 10.886719 8.160156 L 10.886719 7.558594 Z M 5.441406 8.160156 L 5.441406 8.765625 L 7.257812 8.765625 L 7.257812 8.160156 Z M 5.441406 8.160156 "/>
</svg>
