<?xml version="1.0" encoding="UTF-8"?>
<svg xmlns="http://www.w3.org/2000/svg" xmlns:xlink="http://www.w3.org/1999/xlink" width="64" height="64" viewBox="0 0 64 64">
<path fill-rule="nonzero" fill="rgb(63.529412%, 79.215686%, 29.803922%)" fill-opacity="1" d="M 15.609375 8.460938 C 15.609375 12.40625 12.410156 15.605469 8.464844 15.605469 C 4.519531 15.605469 1.324219 12.40625 1.324219 8.460938 C 1.324219 4.515625 4.519531 1.316406 8.464844 1.316406 C 12.410156 1.316406 15.609375 4.515625 15.609375 8.460938 Z M 15.609375 8.460938 "/>
<path fill-rule="nonzero" fill="rgb(100%, 100%, 100%)" fill-opacity="1" d="M 6.949219 4.558594 C 6.867188 4.554688 6.785156 4.5625 6.703125 4.585938 C 6.40625 4.6875 6.21875 4.90625 6.117188 5.277344 C 6.027344 5.601562 6.03125 6.179688 6.125 6.683594 C 6.140625 6.769531 6.15625 6.851562 6.160156 6.863281 C 6.164062 6.882812 6.132812 6.894531 5.992188 6.925781 C 5.308594 7.082031 4.808594 7.320312 4.507812 7.625 C 4.390625 7.734375 4.300781 7.875 4.257812 8.03125 C 4.226562 8.167969 4.226562 8.308594 4.257812 8.445312 C 4.339844 8.730469 4.578125 8.996094 4.949219 9.230469 C 5.210938 9.394531 5.289062 9.410156 5.371094 9.328125 C 5.410156 9.285156 5.421875 9.269531 5.421875 9.21875 C 5.421875 9.128906 5.390625 9.089844 5.269531 9.019531 C 4.503906 8.582031 4.371094 8.144531 4.878906 7.757812 C 5.140625 7.558594 5.503906 7.402344 5.992188 7.28125 C 6.203125 7.230469 6.253906 7.222656 6.253906 7.25 C 6.253906 7.289062 6.410156 7.800781 6.492188 8.019531 L 6.578125 8.25 L 6.464844 8.46875 C 6.023438 9.332031 5.738281 10.214844 5.707031 10.859375 C 5.675781 11.355469 5.765625 11.710938 5.984375 11.933594 C 6.21875 12.171875 6.554688 12.222656 6.980469 12.085938 C 7.214844 11.992188 7.441406 11.878906 7.648438 11.738281 C 7.785156 11.644531 7.816406 11.617188 7.832031 11.570312 C 7.851562 11.523438 7.851562 11.507812 7.832031 11.457031 C 7.804688 11.382812 7.75 11.339844 7.671875 11.339844 C 7.625 11.339844 7.589844 11.355469 7.464844 11.445312 C 7.175781 11.644531 6.902344 11.765625 6.679688 11.804688 C 6.367188 11.859375 6.167969 11.71875 6.074219 11.390625 C 6.035156 11.246094 6.039062 10.789062 6.082031 10.550781 C 6.148438 10.175781 6.261719 9.785156 6.429688 9.371094 C 6.527344 9.128906 6.714844 8.71875 6.738281 8.691406 C 6.753906 8.675781 6.769531 8.699219 6.808594 8.796875 C 7.023438 9.285156 7.351562 9.878906 7.671875 10.359375 C 8.433594 11.503906 9.265625 12.246094 9.910156 12.355469 L 9.902344 12.355469 C 10.183594 12.402344 10.421875 12.332031 10.605469 12.144531 C 10.757812 11.988281 10.855469 11.773438 10.914062 11.46875 C 10.945312 11.28125 10.945312 10.75 10.914062 10.492188 C 10.808594 9.722656 10.53125 8.839844 10.113281 7.960938 C 10.050781 7.820312 10.015625 7.785156 9.929688 7.785156 C 9.886719 7.785156 9.84375 7.804688 9.808594 7.832031 C 9.777344 7.863281 9.761719 7.90625 9.761719 7.953125 C 9.761719 7.984375 9.792969 8.070312 9.84375 8.1875 C 10.355469 9.289062 10.632812 10.359375 10.605469 11.136719 C 10.589844 11.597656 10.472656 11.875 10.257812 11.980469 C 10.144531 12.039062 10.003906 12.035156 9.8125 11.972656 C 8.949219 11.679688 7.78125 10.199219 7.027344 8.445312 L 6.949219 8.273438 L 7.0625 8.082031 C 7.183594 7.867188 7.496094 7.386719 7.640625 7.191406 L 7.734375 7.0625 L 7.992188 7.0625 C 9.535156 7.0625 11.066406 7.414062 11.878906 7.957031 C 12.042969 8.066406 12.242188 8.269531 12.304688 8.386719 C 12.347656 8.46875 12.351562 8.492188 12.351562 8.601562 C 12.351562 8.707031 12.347656 8.734375 12.308594 8.800781 C 12.210938 8.992188 11.949219 9.191406 11.613281 9.335938 C 11.457031 9.402344 11.414062 9.445312 11.414062 9.539062 C 11.414062 9.613281 11.464844 9.679688 11.539062 9.703125 C 11.585938 9.71875 11.601562 9.714844 11.6875 9.679688 C 12.234375 9.460938 12.609375 9.125 12.683594 8.78125 C 12.707031 8.664062 12.707031 8.542969 12.683594 8.425781 C 12.644531 8.246094 12.496094 8.023438 12.328125 7.871094 C 11.585938 7.195312 10.011719 6.761719 8.140625 6.714844 L 8.007812 6.710938 L 8.164062 6.53125 C 8.25 6.433594 8.398438 6.269531 8.5 6.164062 C 9.03125 5.617188 9.527344 5.257812 9.957031 5.109375 C 10.054688 5.066406 10.160156 5.050781 10.265625 5.054688 C 10.398438 5.054688 10.429688 5.058594 10.488281 5.089844 C 10.578125 5.140625 10.648438 5.214844 10.699219 5.304688 C 10.785156 5.480469 10.816406 5.789062 10.773438 6.117188 C 10.757812 6.214844 10.75 6.3125 10.746094 6.410156 C 10.746094 6.484375 10.75 6.496094 10.792969 6.535156 C 10.820312 6.5625 10.859375 6.578125 10.898438 6.574219 C 10.972656 6.574219 11.039062 6.535156 11.0625 6.480469 C 11.121094 6.320312 11.152344 5.757812 11.113281 5.519531 C 11.054688 5.152344 10.898438 4.90625 10.652344 4.785156 C 10.214844 4.574219 9.582031 4.78125 8.84375 5.382812 C 8.382812 5.773438 7.964844 6.207031 7.597656 6.683594 L 7.5625 6.722656 L 7.355469 6.738281 C 7.179688 6.746094 6.894531 6.773438 6.566406 6.816406 L 6.496094 6.824219 L 6.464844 6.648438 C 6.414062 6.40625 6.394531 6.15625 6.398438 5.90625 C 6.398438 5.613281 6.402344 5.554688 6.433594 5.4375 C 6.5 5.140625 6.636719 4.953125 6.816406 4.914062 C 7.0625 4.863281 7.367188 4.988281 7.800781 5.308594 C 7.9375 5.414062 8.105469 5.324219 8.085938 5.160156 C 8.074219 5.089844 8.007812 5.027344 7.789062 4.878906 C 7.621094 4.761719 7.429688 4.667969 7.234375 4.601562 C 7.140625 4.574219 7.046875 4.5625 6.953125 4.558594 Z M 7.28125 7.089844 C 7.28125 7.097656 7.222656 7.1875 7.148438 7.296875 C 7.070312 7.414062 6.992188 7.53125 6.917969 7.648438 C 6.882812 7.710938 6.847656 7.769531 6.804688 7.824219 C 6.792969 7.839844 6.773438 7.800781 6.710938 7.601562 C 6.621094 7.324219 6.582031 7.175781 6.59375 7.160156 C 6.613281 7.140625 7.277344 7.070312 7.277344 7.089844 Z M 8.628906 8.136719 C 8.5 8.136719 8.375 8.1875 8.285156 8.28125 C 8.191406 8.371094 8.140625 8.496094 8.140625 8.625 C 8.140625 8.753906 8.191406 8.878906 8.285156 8.972656 C 8.375 9.0625 8.5 9.113281 8.628906 9.113281 C 8.898438 9.113281 9.117188 8.894531 9.117188 8.625 C 9.117188 8.496094 9.066406 8.371094 8.976562 8.28125 C 8.882812 8.1875 8.757812 8.136719 8.628906 8.136719 Z M 8.628906 8.136719 "/>
</svg>
