<?xml version="1.0" encoding="UTF-8"?>
<svg xmlns="http://www.w3.org/2000/svg" xmlns:xlink="http://www.w3.org/1999/xlink" width="64" height="64" viewBox="0 0 64 64">
<path fill-rule="nonzero" fill="rgb(24.705882%, 26.666667%, 30.980392%)" fill-opacity="1" d="M 59 32 C 59 46.910156 46.910156 59 32 59 C 17.089844 59 5 46.910156 5 32 C 5 17.089844 17.089844 5 32 5 C 46.910156 5 59 17.089844 59 32 Z M 59 32 "/>
<path fill-rule="nonzero" fill="rgb(32.941176%, 63.137255%, 91.764706%)" fill-opacity="1" d="M 32 15.042969 C 24.796875 15.042969 18.957031 20.882812 18.957031 28.085938 L 18.957031 34.953125 C 16.613281 35.78125 15.046875 37.992188 15.042969 40.476562 C 15.042969 43.71875 17.671875 46.347656 20.914062 46.347656 C 22.097656 46.347656 23.253906 45.988281 24.230469 45.320312 C 24.359375 45.902344 24.851562 46.347656 25.476562 46.347656 C 26.199219 46.347656 26.78125 45.765625 26.78125 45.042969 L 26.78125 35.910156 C 26.78125 35.1875 26.199219 34.609375 25.476562 34.609375 C 24.851562 34.609375 24.355469 35.050781 24.226562 35.640625 C 23.804688 35.351562 23.347656 35.121094 22.867188 34.953125 L 22.867188 28.085938 C 22.867188 23.042969 26.957031 18.957031 32 18.957031 C 37.042969 18.957031 41.128906 23.042969 41.128906 28.085938 L 41.128906 34.953125 C 38.785156 35.78125 37.21875 37.992188 37.214844 40.476562 C 37.214844 43.71875 39.84375 46.347656 43.085938 46.347656 C 46.328125 46.347656 48.957031 43.71875 48.957031 40.476562 C 48.953125 37.992188 47.382812 35.78125 45.042969 34.953125 L 45.042969 28.085938 C 45.042969 20.882812 39.203125 15.042969 32 15.042969 Z M 20.910156 37.214844 C 22.710938 37.214844 24.171875 38.675781 24.171875 40.476562 C 24.171875 42.277344 22.714844 43.738281 20.910156 43.738281 C 19.109375 43.738281 17.652344 42.277344 17.652344 40.476562 C 17.652344 38.675781 19.109375 37.214844 20.910156 37.214844 Z M 43.085938 37.214844 C 44.886719 37.214844 46.347656 38.675781 46.347656 40.476562 C 46.347656 42.277344 44.886719 43.738281 43.085938 43.738281 C 41.285156 43.738281 39.824219 42.277344 39.824219 40.476562 C 39.824219 38.675781 41.285156 37.214844 43.085938 37.214844 Z M 43.085938 37.214844 "/>
</svg>
