<?xml version="1.0" encoding="UTF-8"?>
<svg xmlns="http://www.w3.org/2000/svg" xmlns:xlink="http://www.w3.org/1999/xlink" width="64" height="64" viewBox="0 0 64 64">
<path fill-rule="nonzero" fill="rgb(94.901961%, 94.901961%, 94.901961%)" fill-opacity="1" d="M 15.609375 8.464844 C 15.609375 12.410156 12.410156 15.609375 8.464844 15.609375 C 4.519531 15.609375 1.324219 12.410156 1.324219 8.464844 C 1.324219 4.519531 4.519531 1.324219 8.464844 1.324219 C 12.410156 1.324219 15.609375 4.519531 15.609375 8.464844 Z M 15.609375 8.464844 "/>
<path fill-rule="nonzero" fill="rgb(14.901961%, 34.117647%, 56.862745%)" fill-opacity="1" d="M 7.3125 6.796875 L 8.851562 6.554688 L 8.082031 5.410156 L 5.390625 6.902344 M 5.773438 9.996094 L 7.3125 9.996094 L 9.621094 10.378906 L 7.695312 10.757812 L 5.773438 10.378906 "/>
<path fill-rule="nonzero" fill="rgb(50.980392%, 71.372549%, 91.764706%)" fill-opacity="1" d="M 5.386719 6.800781 L 7.3125 6.800781 L 7.3125 9.996094 L 5.386719 9.996094 "/>
<path fill-rule="nonzero" fill="rgb(31.764706%, 50.980392%, 73.333333%)" fill-opacity="1" d="M 10.007812 3.878906 L 4.234375 5.410156 L 4.234375 11.523438 L 10.007812 13.050781 M 8.082031 6.488281 L 8.082031 10.371094 L 5.773438 9.992188 L 5.761719 6.792969 "/>
<path fill-rule="nonzero" fill="rgb(50.980392%, 71.372549%, 91.764706%)" fill-opacity="1" d="M 10.007812 3.878906 L 12.699219 5.027344 L 12.699219 11.90625 L 10.007812 13.050781 "/>
</svg>
