<?xml version="1.0" encoding="UTF-8"?>
<svg xmlns="http://www.w3.org/2000/svg" xmlns:xlink="http://www.w3.org/1999/xlink" width="64" height="64" viewBox="0 0 64 64">
<path fill-rule="nonzero" fill="rgb(82.352941%, 95.686275%, 56.470588%)" fill-opacity="1" d="M 15.609375 8.464844 C 15.609375 12.410156 12.410156 15.609375 8.464844 15.609375 C 4.519531 15.609375 1.324219 12.410156 1.324219 8.464844 C 1.324219 4.519531 4.519531 1.324219 8.464844 1.324219 C 12.410156 1.324219 15.609375 4.519531 15.609375 8.464844 Z M 15.609375 8.464844 "/>
<path fill-rule="nonzero" fill="rgb(58.823529%, 81.960784%, 13.72549%)" fill-opacity="1" d="M 8.492188 3.175781 C 8.261719 3.175781 8.03125 3.222656 7.855469 3.324219 L 6.101562 4.328125 L 4.34375 5.332031 C 4.222656 5.398438 4.109375 5.503906 4.015625 5.628906 L 4.089844 5.671875 L 7.410156 7.609375 C 7.859375 7.871094 8.230469 8.316406 8.464844 8.816406 C 8.703125 8.316406 9.074219 7.871094 9.523438 7.609375 L 12.84375 5.671875 L 12.914062 5.632812 C 12.824219 5.523438 12.726562 5.429688 12.617188 5.367188 L 9.121094 3.328125 C 8.949219 3.226562 8.71875 3.175781 8.492188 3.175781 Z M 13.171875 6.09375 L 13.109375 6.128906 L 9.792969 8.066406 C 9.242188 8.386719 8.730469 9.273438 8.730469 9.914062 C 8.730469 9.917969 8.730469 9.921875 8.730469 9.925781 L 8.730469 10.105469 L 8.746094 13.726562 C 8.867188 13.699219 8.980469 13.664062 9.074219 13.609375 L 12.589844 11.601562 C 12.9375 11.402344 13.222656 10.914062 13.226562 10.511719 L 13.242188 6.464844 C 13.242188 6.34375 13.21875 6.21875 13.171875 6.09375 Z M 3.765625 6.097656 C 3.730469 6.207031 3.707031 6.316406 3.707031 6.421875 L 3.691406 10.46875 C 3.6875 10.871094 3.96875 11.363281 4.316406 11.566406 L 7.8125 13.605469 C 7.917969 13.667969 8.050781 13.707031 8.1875 13.734375 L 8.203125 10.101562 L 8.203125 9.925781 C 8.203125 9.921875 8.203125 9.917969 8.203125 9.914062 C 8.203125 9.273438 7.691406 8.386719 7.140625 8.066406 L 3.824219 6.128906 Z M 3.765625 6.097656 "/>
</svg>
