<?xml version="1.0" encoding="UTF-8"?>
<svg xmlns="http://www.w3.org/2000/svg" xmlns:xlink="http://www.w3.org/1999/xlink" width="64" height="64" viewBox="0 0 64 64">
<path fill-rule="nonzero" fill="rgb(99.215686%, 81.176471%, 44.313725%)" fill-opacity="1" d="M 32 5 C 46.910156 5 59 17.089844 59 32 C 59 46.910156 46.910156 59 32 59 C 17.089844 59 5 46.910156 5 32 C 5 17.089844 17.089844 5 32 5 Z M 32 5 "/>
<path fill="none" stroke-width="3.41" stroke-linecap="round" stroke-linejoin="round" stroke="rgb(50.588235%, 29.411765%, 7.45098%)" stroke-opacity="1" stroke-miterlimit="4" d="M 15.300781 33.699219 C 17.910156 26.300781 22.910156 17.699219 33 17.699219 C 43.089844 17.699219 48.078125 30.96875 48.710938 39.96875 C 46.058594 44.570312 39.710938 46.300781 33 46.300781 C 27.503906 46.386719 22.242188 44.078125 18.589844 39.96875 C 18.589844 39.96875 21.75 31.4375 24.699219 31.417969 C 26.867188 31.417969 28.699219 35.417969 30.429688 35.417969 C 32.160156 35.417969 35.757812 27.738281 35.757812 27.738281 "/>
</svg>
