<?xml version="1.0" encoding="UTF-8"?>
<svg xmlns="http://www.w3.org/2000/svg" xmlns:xlink="http://www.w3.org/1999/xlink" width="64" height="64" viewBox="0 0 64 64">
<defs>
<filter id="filter-remove-color" x="0%" y="0%" width="100%" height="100%">
<feColorMatrix color-interpolation-filters="sRGB" values="0 0 0 0 1 0 0 0 0 1 0 0 0 0 1 0 0 0 1 0" />
</filter>
<mask id="mask-0">
<g filter="url(#filter-remove-color)">
<rect x="-6.4" y="-6.4" width="76.8" height="76.8" fill="rgb(0%, 0%, 0%)" fill-opacity="0.15"/>
</g>
</mask>
<clipPath id="clip-0">
<rect x="0" y="0" width="17" height="17"/>
</clipPath>
<g id="source-7797" clip-path="url(#clip-0)">
<path fill-rule="nonzero" fill="rgb(0%, 0%, 0%)" fill-opacity="1" d="M 14.230469 12.695312 C 14.230469 13.542969 13.542969 14.226562 12.699219 14.226562 C 11.855469 14.226562 11.171875 13.542969 11.171875 12.695312 C 11.171875 11.851562 11.855469 11.167969 12.699219 11.167969 C 13.542969 11.167969 14.230469 11.851562 14.230469 12.695312 Z M 14.230469 12.695312 "/>
</g>
</defs>
<path fill-rule="nonzero" fill="rgb(97.647059%, 97.647059%, 97.647059%)" fill-opacity="1" d="M 15.609375 8.464844 C 15.609375 12.410156 12.410156 15.609375 8.464844 15.609375 C 4.519531 15.609375 1.324219 12.410156 1.324219 8.464844 C 1.324219 4.519531 4.519531 1.324219 8.464844 1.324219 C 12.410156 1.324219 15.609375 4.519531 15.609375 8.464844 Z M 15.609375 8.464844 "/>
<path fill-rule="evenodd" fill="rgb(83.529412%, 51.372549%, 24.705882%)" fill-opacity="1" d="M 8.464844 13.367188 L 12.964844 10.824219 L 12.933594 6.039062 L 8.464844 8.488281 Z M 8.464844 13.367188 "/>
<path fill-rule="evenodd" fill="rgb(78.039216%, 47.058824%, 21.960784%)" fill-opacity="1" d="M 8.46875 13.375 L 3.96875 10.832031 L 4 6.050781 L 8.46875 8.5 Z M 8.46875 13.375 "/>
<path fill-rule="evenodd" fill="rgb(91.764706%, 64.313725%, 38.823529%)" fill-opacity="1" d="M 3.988281 6.0625 L 8.488281 3.558594 L 12.949219 6.066406 L 8.464844 8.523438 Z M 3.988281 6.0625 "/>
<path fill-rule="nonzero" fill="rgb(70.980392%, 73.333333%, 75.294118%)" fill-opacity="1" d="M 15.875 12.695312 C 15.875 14.449219 14.453125 15.871094 12.699219 15.871094 C 10.945312 15.871094 9.523438 14.449219 9.523438 12.695312 C 9.523438 10.945312 10.945312 9.523438 12.699219 9.523438 C 14.453125 9.523438 15.875 10.945312 15.875 12.695312 Z M 15.875 12.695312 "/>
<g mask="url(#mask-0)">
<use xlink:href="#source-7797"/>
</g>
<path fill-rule="nonzero" fill="rgb(100%, 100%, 100%)" fill-opacity="1" d="M 12.699219 11.402344 C 11.984375 11.402344 11.40625 11.984375 11.40625 12.695312 C 11.40625 13.410156 11.984375 13.992188 12.699219 13.992188 C 13.414062 13.992188 13.992188 13.410156 13.992188 12.695312 C 13.992188 11.984375 13.414062 11.402344 12.699219 11.402344 Z M 12.699219 11.992188 C 13.089844 11.992188 13.40625 12.308594 13.40625 12.695312 C 13.40625 13.085938 13.089844 13.402344 12.699219 13.402344 C 12.511719 13.402344 12.332031 13.328125 12.199219 13.195312 C 12.070312 13.0625 11.996094 12.882812 11.996094 12.695312 C 11.996094 12.308594 12.308594 11.992188 12.699219 11.992188 Z M 12.699219 11.992188 "/>
<path fill-rule="nonzero" fill="rgb(100%, 100%, 100%)" fill-opacity="1" d="M 12.464844 10.875 L 12.933594 10.875 L 12.933594 11.699219 L 12.464844 11.699219 Z M 12.464844 13.695312 L 12.933594 13.695312 L 12.933594 14.519531 L 12.464844 14.519531 Z M 14.523438 12.460938 L 14.523438 12.933594 L 13.699219 12.933594 L 13.699219 12.460938 Z M 11.699219 12.460938 L 11.699219 12.933594 L 10.878906 12.933594 L 10.878906 12.460938 Z M 14.15625 13.820312 L 13.824219 14.152344 L 13.242188 13.570312 L 13.574219 13.238281 Z M 12.160156 11.824219 L 11.828125 12.15625 L 11.246094 11.574219 L 11.578125 11.242188 Z M 11.578125 14.152344 L 11.246094 13.820312 L 11.828125 13.238281 L 12.160156 13.570312 Z M 13.574219 12.15625 L 13.242188 11.824219 L 13.824219 11.242188 L 14.15625 11.574219 Z M 13.574219 12.15625 "/>
</svg>
