<?xml version="1.0" encoding="UTF-8"?>
<svg xmlns="http://www.w3.org/2000/svg" xmlns:xlink="http://www.w3.org/1999/xlink" width="64" height="64" viewBox="0 0 64 64">
<path fill-rule="nonzero" fill="rgb(27.45098%, 27.45098%, 27.45098%)" fill-opacity="1" d="M 15.609375 8.464844 C 15.609375 4.507812 12.425781 1.324219 8.464844 1.324219 C 7.757812 1.324219 7.417969 2.144531 6.773438 2.335938 C 4.359375 3.046875 2.140625 4.277344 1.53125 6.734375 C 1.394531 7.289062 1.324219 7.871094 1.324219 8.464844 C 1.324219 12.425781 4.507812 15.609375 8.464844 15.609375 C 8.828125 15.609375 9.25 14.957031 9.597656 14.90625 C 12.222656 14.515625 14.308594 13.332031 15.183594 10.90625 C 15.460938 10.148438 15.609375 9.324219 15.609375 8.464844 Z M 15.609375 8.464844 "/>
<path fill-rule="nonzero" fill="rgb(80%, 80%, 80%)" fill-opacity="1" d="M 12.546875 8.464844 C 12.546875 10.722656 10.722656 12.546875 8.464844 12.546875 C 6.210938 12.546875 4.382812 10.722656 4.382812 8.464844 C 4.382812 6.210938 6.210938 4.382812 8.464844 4.382812 C 10.722656 4.382812 12.546875 6.210938 12.546875 8.464844 Z M 12.546875 8.464844 "/>
<path fill-rule="nonzero" fill="rgb(98.431373%, 28.235294%, 28.235294%)" fill-opacity="1" d="M 1.746094 2.855469 C 1.511719 2.855469 1.324219 3.046875 1.324219 3.285156 L 1.324219 7.015625 C 1.324219 7.253906 1.515625 7.445312 1.753906 7.445312 L 5.484375 7.445312 C 5.660156 7.445312 5.816406 7.339844 5.882812 7.179688 C 5.949219 7.019531 5.914062 6.835938 5.789062 6.710938 L 2.058594 2.980469 C 1.976562 2.898438 1.863281 2.851562 1.746094 2.855469 Z M 1.746094 2.855469 "/>
<path fill-rule="nonzero" fill="rgb(28.235294%, 41.568627%, 98.431373%)" fill-opacity="1" d="M 15.1875 14.078125 C 15.421875 14.074219 15.609375 13.882812 15.609375 13.648438 L 15.609375 9.917969 C 15.609375 9.679688 15.417969 9.488281 15.179688 9.488281 L 11.449219 9.488281 C 11.273438 9.488281 11.117188 9.589844 11.050781 9.753906 C 10.984375 9.914062 11.019531 10.097656 11.144531 10.222656 L 14.875 13.953125 C 14.957031 14.035156 15.070312 14.082031 15.1875 14.078125 Z M 15.1875 14.078125 "/>
<path fill-rule="nonzero" fill="rgb(94.901961%, 94.901961%, 94.901961%)" fill-opacity="1" d="M 9.996094 8.464844 C 9.996094 9.3125 9.3125 9.996094 8.464844 9.996094 C 7.621094 9.996094 6.9375 9.3125 6.9375 8.464844 C 6.9375 7.621094 7.621094 6.9375 8.464844 6.9375 C 9.3125 6.9375 9.996094 7.621094 9.996094 8.464844 Z M 9.996094 8.464844 "/>
<path fill-rule="nonzero" fill="rgb(28.235294%, 41.568627%, 98.431373%)" fill-opacity="1" d="M 15.183594 10.902344 C 14.1875 13.648438 11.554688 15.609375 8.464844 15.609375 L 8.464844 12.546875 C 10.007812 12.546875 11.347656 11.695312 12.042969 10.4375 Z M 15.183594 10.902344 "/>
<path fill-rule="nonzero" fill="rgb(98.431373%, 28.235294%, 28.235294%)" fill-opacity="1" d="M 8.464844 1.324219 C 5.679688 1.324219 3.269531 2.917969 2.089844 5.242188 L 4.65625 6.996094 C 5.246094 5.46875 6.730469 4.382812 8.464844 4.382812 Z M 8.464844 1.324219 "/>
</svg>
