<?xml version="1.0" encoding="UTF-8"?>
<svg xmlns="http://www.w3.org/2000/svg" xmlns:xlink="http://www.w3.org/1999/xlink" width="64" height="64" viewBox="0 0 64 64">
<path fill-rule="nonzero" fill="rgb(20%, 20%, 20%)" fill-opacity="1" d="M 59.003906 32 C 59.003906 46.914062 46.914062 59.003906 32 59.003906 C 17.089844 59.003906 5 46.914062 5 32 C 5 17.089844 17.089844 5 32 5 C 46.914062 5 59.003906 17.089844 59.003906 32 Z M 59.003906 32 "/>
<path fill-rule="nonzero" fill="rgb(97.647059%, 84.313725%, 22.745098%)" fill-opacity="1" d="M 32 12.617188 C 29.921875 12.617188 27.84375 14 27.84375 14 C 26.773438 14.613281 26.015625 15.023438 25.078125 15.546875 L 23.691406 17.460938 L 22.308594 17.09375 C 16.617188 20.265625 14 21.996094 14 25.769531 L 14 38.230469 C 14 43.078125 18.152344 44.460938 27.847656 50 C 27.847656 50 29.921875 51.382812 32 51.382812 C 34.078125 51.382812 36.152344 50 36.152344 50 C 45.847656 44.460938 50 43.078125 50 38.230469 L 50 25.769531 C 50 20.921875 45.847656 19.539062 36.152344 14 C 36.152344 14 34.078125 12.617188 32 12.617188 Z M 32 12.617188 "/>
<path fill-rule="nonzero" fill="rgb(20%, 20%, 20%)" fill-opacity="1" d="M 25.078125 15.550781 C 24.136719 16.074219 23.117188 16.648438 22.308594 17.097656 L 22.308594 34.082031 C 22.308594 36.851562 23.691406 38.925781 29.230469 41.695312 C 29.230469 41.695312 30.617188 42.390625 32 42.390625 C 33.382812 42.390625 34.769531 41.695312 34.769531 41.695312 C 40.308594 38.925781 41.691406 36.851562 41.691406 34.082031 L 41.691406 29.929688 C 41.691406 27.160156 40.308594 25.082031 34.769531 22.3125 C 34.769531 22.3125 33.382812 21.621094 32 21.621094 L 32 25.082031 C 35.824219 25.082031 38.921875 28.179688 38.921875 32.003906 C 38.921875 35.828125 35.824219 38.929688 32 38.929688 C 28.175781 38.929688 25.078125 35.828125 25.078125 32.003906 Z M 30.617188 21.824219 C 29.832031 22.027344 29.230469 22.3125 29.230469 22.3125 L 29.230469 25.664062 C 29.671875 25.472656 30.132812 25.316406 30.617188 25.21875 Z M 27.847656 23.070312 C 27.355469 23.347656 26.871094 23.621094 26.460938 23.886719 L 26.460938 27.886719 C 26.855469 27.359375 27.320312 26.894531 27.847656 26.496094 Z M 27.847656 23.070312 "/>
</svg>
