<?xml version="1.0" encoding="UTF-8"?>
<svg xmlns="http://www.w3.org/2000/svg" xmlns:xlink="http://www.w3.org/1999/xlink" width="64" height="64" viewBox="0 0 64 64">
<path fill-rule="nonzero" fill="rgb(97.254902%, 61.568627%, 18.823529%)" fill-opacity="1" d="M 59 32 C 59 46.910156 46.910156 59 32 59 C 17.089844 59 5 46.910156 5 32 C 5 17.089844 17.089844 5 32 5 C 46.910156 5 59 17.089844 59 32 Z M 59 32 "/>
<path fill-rule="nonzero" fill="rgb(100%, 100%, 100%)" fill-opacity="1" d="M 26.601562 15.800781 L 26.601562 21.199219 C 25.9375 21.226562 24.71875 21.199219 24.082031 21.199219 L 19.851562 21.199219 L 19.851562 23.898438 C 19.851562 23.898438 22.171875 23.859375 22.132812 23.898438 C 23.375 23.882812 23.769531 24.78125 23.898438 25.382812 L 23.898438 38.75 C 23.851562 39.128906 23.894531 40.074219 23.023438 40.101562 C 23.066406 40.136719 19.851562 40.101562 19.851562 40.101562 L 19.851562 42.800781 L 24.242188 42.800781 C 24.984375 42.773438 25.882812 42.800781 26.601562 42.800781 L 26.601562 48.199219 L 29.300781 48.148438 L 29.300781 42.800781 L 31.957031 42.800781 L 32.042969 48.199219 L 34.742188 48.199219 L 34.65625 42.800781 C 42.800781 42.800781 42.800781 38.75 42.800781 36.722656 C 42.800781 34.699219 41.945312 32.003906 38.75 32 C 40.59375 32.003906 41.449219 28.953125 41.449219 26.601562 C 41.449219 23.554688 38.75 21.199219 34.699219 21.199219 L 34.699219 15.800781 L 32 15.800781 L 32 21.199219 C 31.195312 21.199219 30.117188 21.171875 29.300781 21.199219 L 29.300781 15.800781 Z M 29.300781 23.898438 C 32 23.898438 36.050781 23.898438 36.050781 27.273438 C 36.050781 30.648438 32 30.648438 29.300781 30.648438 Z M 29.300781 33.351562 C 34.699219 33.351562 37.402344 33.351562 37.398438 36.726562 C 37.402344 40.101562 34.699219 40.101562 29.300781 40.101562 Z M 29.300781 33.351562 "/>
</svg>
