<?xml version="1.0" encoding="UTF-8"?>
<svg xmlns="http://www.w3.org/2000/svg" xmlns:xlink="http://www.w3.org/1999/xlink" width="64" height="64" viewBox="0 0 64 64">
<path fill-rule="nonzero" fill="rgb(86.27451%, 12.156863%, 20.784314%)" fill-opacity="1" d="M 32 5 C 46.910156 5 59 17.089844 59 32 C 59 46.910156 46.910156 59 32 59 C 17.089844 59 5 46.910156 5 32 C 5 17.089844 17.089844 5 32 5 Z M 32 5 "/>
<path fill-rule="nonzero" fill="rgb(97.647059%, 97.647059%, 97.647059%)" fill-opacity="1" d="M 30 26 C 30 27.105469 29.105469 28 28 28 C 26.894531 28 26 27.105469 26 26 C 26 24.894531 26.894531 24 28 24 C 29.105469 24 30 24.894531 30 26 Z M 30 26 "/>
<path fill-rule="nonzero" fill="rgb(97.647059%, 97.647059%, 97.647059%)" fill-opacity="1" d="M 37 26 C 37 27.105469 36.105469 28 35 28 C 33.894531 28 33 27.105469 33 26 C 33 24.894531 33.894531 24 35 24 C 36.105469 24 37 24.894531 37 26 Z M 37 26 "/>
<path fill-rule="nonzero" fill="rgb(97.647059%, 97.647059%, 97.647059%)" fill-opacity="1" d="M 44.019531 26 C 44.019531 27.105469 43.125 28 42.019531 28 C 40.914062 28 40.019531 27.105469 40.019531 26 C 40.019531 24.894531 40.914062 24 42.019531 24 C 43.125 24 44.019531 24.894531 44.019531 26 Z M 44.019531 26 "/>
<path fill-rule="nonzero" fill="rgb(97.647059%, 97.647059%, 97.647059%)" fill-opacity="1" d="M 23 26 C 23 27.105469 22.105469 28 21 28 C 19.894531 28 19 27.105469 19 26 C 19 24.894531 19.894531 24 21 24 C 22.105469 24 23 24.894531 23 26 Z M 23 26 "/>
<path fill-rule="nonzero" fill="rgb(97.647059%, 97.647059%, 97.647059%)" fill-opacity="1" d="M 16 32 C 16 33.105469 15.105469 34 14 34 C 12.894531 34 12 33.105469 12 32 C 12 30.894531 12.894531 30 14 30 C 15.105469 30 16 30.894531 16 32 Z M 16 32 "/>
<path fill-rule="nonzero" fill="rgb(97.647059%, 97.647059%, 97.647059%)" fill-opacity="1" d="M 23 32 C 23 33.105469 22.105469 34 21 34 C 19.894531 34 19 33.105469 19 32 C 19 30.894531 19.894531 30 21 30 C 22.105469 30 23 30.894531 23 32 Z M 23 32 "/>
<path fill-rule="nonzero" fill="rgb(97.647059%, 97.647059%, 97.647059%)" fill-opacity="1" d="M 30 32 C 30 33.105469 29.105469 34 28 34 C 26.894531 34 26 33.105469 26 32 C 26 30.894531 26.894531 30 28 30 C 29.105469 30 30 30.894531 30 32 Z M 30 32 "/>
<path fill-rule="nonzero" fill="rgb(97.647059%, 97.647059%, 97.647059%)" fill-opacity="1" d="M 37 32 C 37 33.105469 36.105469 34 35 34 C 33.894531 34 33 33.105469 33 32 C 33 30.894531 33.894531 30 35 30 C 36.105469 30 37 30.894531 37 32 Z M 37 32 "/>
<path fill-rule="nonzero" fill="rgb(97.647059%, 97.647059%, 97.647059%)" fill-opacity="1" d="M 44 32 C 44 33.105469 43.105469 34 42 34 C 40.894531 34 40 33.105469 40 32 C 40 30.894531 40.894531 30 42 30 C 43.105469 30 44 30.894531 44 32 Z M 44 32 "/>
<path fill-rule="nonzero" fill="rgb(97.647059%, 97.647059%, 97.647059%)" fill-opacity="1" d="M 51 32 C 51 33.105469 50.105469 34 49 34 C 47.894531 34 47 33.105469 47 32 C 47 30.894531 47.894531 30 49 30 C 50.105469 30 51 30.894531 51 32 Z M 51 32 "/>
<path fill-rule="nonzero" fill="rgb(97.647059%, 97.647059%, 97.647059%)" fill-opacity="1" d="M 19 38 C 19 39.105469 18.105469 40 17 40 C 15.894531 40 15 39.105469 15 38 C 15 36.894531 15.894531 36 17 36 C 18.105469 36 19 36.894531 19 38 Z M 19 38 "/>
<path fill-rule="nonzero" fill="rgb(97.647059%, 97.647059%, 97.647059%)" fill-opacity="1" d="M 26 38 C 26 39.105469 25.105469 40 24 40 C 22.894531 40 22 39.105469 22 38 C 22 36.894531 22.894531 36 24 36 C 25.105469 36 26 36.894531 26 38 Z M 26 38 "/>
<path fill-rule="nonzero" fill="rgb(97.647059%, 97.647059%, 97.647059%)" fill-opacity="1" d="M 45 38 C 45 39.105469 44.105469 40 43 40 C 41.894531 40 41 39.105469 41 38 C 41 36.894531 41.894531 36 43 36 C 44.105469 36 45 36.894531 45 38 Z M 45 38 "/>
<path fill-rule="nonzero" fill="rgb(97.647059%, 97.647059%, 97.647059%)" fill-opacity="1" d="M 52 38 C 52 39.105469 51.105469 40 50 40 C 48.894531 40 48 39.105469 48 38 C 48 36.894531 48.894531 36 50 36 C 51.105469 36 52 36.894531 52 38 Z M 52 38 "/>
</svg>
