<?xml version="1.0" encoding="UTF-8"?>
<svg xmlns="http://www.w3.org/2000/svg" xmlns:xlink="http://www.w3.org/1999/xlink" width="64" height="64" viewBox="0 0 64 64">
<path fill-rule="nonzero" fill="rgb(92.54902%, 92.54902%, 92.54902%)" fill-opacity="1" d="M 15.609375 8.464844 C 15.609375 12.410156 12.410156 15.609375 8.464844 15.609375 C 4.519531 15.609375 1.324219 12.410156 1.324219 8.464844 C 1.324219 4.519531 4.519531 1.324219 8.464844 1.324219 C 12.410156 1.324219 15.609375 4.519531 15.609375 8.464844 Z M 15.609375 8.464844 "/>
<path fill-rule="nonzero" fill="rgb(100%, 53.72549%, 17.254902%)" fill-opacity="1" d="M 8.054688 3.175781 C 7.867188 3.175781 7.691406 3.25 7.5625 3.378906 C 7.429688 3.507812 7.359375 3.6875 7.359375 3.871094 C 7.359375 4.054688 7.429688 4.230469 7.5625 4.359375 L 9.488281 6.289062 L 4.464844 6.289062 C 4.277344 6.289062 4.101562 6.363281 3.972656 6.492188 C 3.839844 6.621094 3.769531 6.800781 3.769531 6.984375 C 3.769531 7.167969 3.839844 7.34375 3.972656 7.472656 C 4.101562 7.605469 4.277344 7.675781 4.464844 7.675781 C 5.1875 7.675781 6.210938 7.675781 7.191406 7.675781 L 3.636719 11.230469 C 3.503906 11.359375 3.433594 11.539062 3.433594 11.722656 C 3.433594 11.90625 3.503906 12.082031 3.636719 12.210938 C 3.765625 12.34375 3.941406 12.414062 4.125 12.414062 C 4.3125 12.414062 4.488281 12.34375 4.617188 12.210938 C 5.140625 11.6875 5.886719 10.941406 6.597656 10.230469 C 6.832031 11.945312 8.296875 13.226562 10.03125 13.230469 C 11.945312 13.230469 13.5 11.675781 13.5 9.757812 C 13.5 8.757812 13.066406 7.804688 12.3125 7.148438 C 11.054688 5.890625 9.796875 4.636719 8.542969 3.378906 C 8.414062 3.25 8.238281 3.175781 8.054688 3.175781 Z M 10.070312 8.933594 C 10.519531 8.933594 10.882812 9.296875 10.882812 9.742188 C 10.882812 10.191406 10.519531 10.554688 10.070312 10.554688 C 9.625 10.554688 9.261719 10.191406 9.261719 9.742188 C 9.261719 9.296875 9.625 8.933594 10.070312 8.933594 Z M 10.070312 8.933594 "/>
<path fill-rule="nonzero" fill="rgb(100%, 100%, 100%)" fill-opacity="0.099" d="M 10.066406 7.078125 C 8.597656 7.078125 7.402344 8.273438 7.402344 9.746094 C 7.402344 11.21875 8.597656 12.410156 10.066406 12.410156 C 11.539062 12.410156 12.734375 11.21875 12.734375 9.746094 C 12.734375 8.273438 11.539062 7.078125 10.066406 7.078125 Z M 10.066406 8.703125 C 10.644531 8.703125 11.109375 9.171875 11.109375 9.746094 C 11.109375 10.320312 10.644531 10.789062 10.066406 10.789062 C 9.492188 10.789062 9.023438 10.320312 9.023438 9.746094 C 9.023438 9.167969 9.492188 8.703125 10.066406 8.703125 Z M 10.066406 8.703125 "/>
<path fill-rule="nonzero" fill="rgb(100%, 100%, 100%)" fill-opacity="1" d="M 10.066406 7.660156 C 8.917969 7.660156 7.984375 8.59375 7.984375 9.742188 C 7.984375 10.894531 8.917969 11.824219 10.066406 11.824219 C 11.21875 11.824219 12.148438 10.894531 12.148438 9.742188 C 12.148438 8.59375 11.21875 7.660156 10.066406 7.660156 Z M 10.066406 8.929688 C 10.519531 8.929688 10.882812 9.292969 10.882812 9.742188 C 10.882812 10.191406 10.519531 10.558594 10.066406 10.558594 C 9.617188 10.558594 9.253906 10.191406 9.253906 9.742188 C 9.253906 9.292969 9.617188 8.929688 10.066406 8.929688 Z M 10.066406 8.929688 "/>
<path fill-rule="nonzero" fill="rgb(18.039216%, 34.117647%, 69.411765%)" fill-opacity="1" d="M 11.132812 9.746094 C 11.132812 10.335938 10.65625 10.8125 10.066406 10.8125 C 9.480469 10.8125 9.003906 10.335938 9.003906 9.746094 C 9.003906 9.15625 9.480469 8.679688 10.066406 8.679688 C 10.65625 8.679688 11.132812 9.15625 11.132812 9.746094 Z M 11.132812 9.746094 "/>
</svg>
