<?xml version="1.0" encoding="UTF-8"?>
<svg xmlns="http://www.w3.org/2000/svg" xmlns:xlink="http://www.w3.org/1999/xlink" width="64" height="64" viewBox="0 0 64 64">
<path fill-rule="nonzero" fill="rgb(22.745098%, 36.470588%, 49.803922%)" fill-opacity="1" d="M 31.664062 5.003906 C 41.390625 4.882812 50.425781 10.003906 55.320312 18.40625 C 60.21875 26.808594 60.21875 37.191406 55.320312 45.59375 C 50.425781 53.996094 41.390625 59.117188 31.664062 59 C 16.882812 58.816406 4.992188 46.785156 4.992188 32 C 4.992188 17.214844 16.882812 5.183594 31.664062 5.003906 Z M 31.664062 5.003906 "/>
<path fill-rule="nonzero" fill="rgb(100%, 100%, 100%)" fill-opacity="1" d="M 31.46875 16.011719 C 27.410156 16.140625 23.550781 17.8125 20.675781 20.683594 C 14.980469 26.390625 14.421875 35.441406 19.367188 41.804688 L 22.730469 38.441406 C 19.613281 33.957031 20.148438 27.878906 24.007812 24.011719 C 27.09375 20.9375 31.667969 19.910156 35.769531 21.367188 L 35.769531 25.410156 L 41.808594 19.371094 C 38.859375 17.078125 35.203125 15.886719 31.46875 16.007812 Z M 44.636719 22.199219 L 41.269531 25.5625 C 44.386719 30.046875 43.851562 36.125 39.992188 39.992188 C 36.90625 43.0625 32.335938 44.09375 28.234375 42.636719 L 28.234375 38.59375 L 24.234375 42.589844 L 22.191406 44.632812 C 28.5625 49.578125 37.617188 49.019531 43.324219 43.320312 C 49.019531 37.613281 49.578125 28.5625 44.632812 22.199219 Z M 44.636719 22.199219 "/>
</svg>
