<?xml version="1.0" encoding="UTF-8"?>
<svg xmlns="http://www.w3.org/2000/svg" xmlns:xlink="http://www.w3.org/1999/xlink" width="64" height="64" viewBox="0 0 64 64">
<path fill-rule="nonzero" fill="rgb(12.941176%, 58.823529%, 95.294118%)" fill-opacity="1" d="M 15.609375 8.464844 C 15.609375 12.410156 12.410156 15.609375 8.464844 15.609375 C 4.519531 15.609375 1.324219 12.410156 1.324219 8.464844 C 1.324219 4.519531 4.519531 1.324219 8.464844 1.324219 C 12.410156 1.324219 15.609375 4.519531 15.609375 8.464844 Z M 15.609375 8.464844 "/>
<path fill-rule="nonzero" fill="rgb(100%, 100%, 100%)" fill-opacity="1" d="M 4.585938 6.246094 L 6.449219 6.246094 C 6.683594 6.246094 6.878906 6.4375 6.878906 6.675781 L 6.878906 7.824219 C 6.878906 8.0625 6.683594 8.253906 6.449219 8.253906 L 4.585938 8.253906 C 4.347656 8.253906 4.15625 8.0625 4.15625 7.824219 L 4.15625 6.675781 C 4.15625 6.4375 4.347656 6.246094 4.585938 6.246094 Z M 4.585938 6.246094 "/>
<path fill-rule="nonzero" fill="rgb(100%, 100%, 100%)" fill-opacity="1" d="M 7.703125 6.246094 L 9.566406 6.246094 C 9.800781 6.246094 9.996094 6.4375 9.996094 6.675781 L 9.996094 7.824219 C 9.996094 8.0625 9.800781 8.253906 9.566406 8.253906 L 7.703125 8.253906 C 7.464844 8.253906 7.273438 8.0625 7.273438 7.824219 L 7.273438 6.675781 C 7.273438 6.4375 7.464844 6.246094 7.703125 6.246094 Z M 7.703125 6.246094 "/>
<path fill-rule="nonzero" fill="rgb(100%, 100%, 100%)" fill-opacity="1" d="M 4.550781 8.679688 L 6.410156 8.679688 C 6.648438 8.679688 6.839844 8.871094 6.839844 9.109375 L 6.839844 10.257812 C 6.839844 10.496094 6.648438 10.6875 6.410156 10.6875 L 4.550781 10.6875 C 4.3125 10.6875 4.121094 10.496094 4.121094 10.257812 L 4.121094 9.109375 C 4.121094 8.871094 4.3125 8.679688 4.550781 8.679688 Z M 4.550781 8.679688 "/>
<path fill-rule="nonzero" fill="rgb(100%, 100%, 100%)" fill-opacity="1" d="M 7.667969 8.679688 L 9.527344 8.679688 C 9.765625 8.679688 9.957031 8.871094 9.957031 9.109375 L 9.957031 10.257812 C 9.957031 10.496094 9.765625 10.6875 9.527344 10.6875 L 7.667969 10.6875 C 7.429688 10.6875 7.238281 10.496094 7.238281 10.257812 L 7.238281 9.109375 C 7.238281 8.871094 7.429688 8.679688 7.667969 8.679688 Z M 7.667969 8.679688 "/>
<path fill-rule="nonzero" fill="rgb(100%, 100%, 100%)" fill-opacity="1" d="M 8.574219 4.234375 C 7.527344 4.238281 6.519531 4.628906 5.746094 5.332031 L 7.117188 5.332031 C 7.574219 5.117188 8.070312 5.003906 8.574219 5 C 10.488281 5 12.042969 6.550781 12.042969 8.460938 L 12.042969 8.464844 C 12.042969 10.378906 10.492188 11.929688 8.582031 11.929688 C 8.070312 11.929688 7.570312 11.816406 7.113281 11.601562 L 5.742188 11.601562 C 6.519531 12.304688 7.53125 12.699219 8.582031 12.699219 C 10.917969 12.699219 12.8125 10.804688 12.8125 8.464844 L 12.8125 8.460938 C 12.808594 6.125 10.914062 4.230469 8.574219 4.234375 Z M 8.574219 4.234375 "/>
</svg>
