<?xml version="1.0" encoding="UTF-8"?>
<svg xmlns="http://www.w3.org/2000/svg" xmlns:xlink="http://www.w3.org/1999/xlink" width="64" height="64" viewBox="0 0 64 64">
<defs>
<filter id="filter-remove-color" x="0%" y="0%" width="100%" height="100%">
<feColorMatrix color-interpolation-filters="sRGB" values="0 0 0 0 1 0 0 0 0 1 0 0 0 0 1 0 0 0 1 0" />
</filter>
<mask id="mask-0">
<g filter="url(#filter-remove-color)">
<rect x="-6.4" y="-6.4" width="76.8" height="76.8" fill="rgb(0%, 0%, 0%)" fill-opacity="0.35"/>
</g>
</mask>
<clipPath id="clip-0">
<rect x="0" y="0" width="17" height="17"/>
</clipPath>
<g id="source-3089" clip-path="url(#clip-0)">
<path fill-rule="nonzero" fill="rgb(0%, 0%, 0%)" fill-opacity="1" d="M 8.46875 1.324219 C 7.082031 1.324219 5.796875 1.710938 4.710938 2.382812 L 12.222656 2.382812 C 11.136719 1.710938 9.851562 1.324219 8.464844 1.324219 Z M 8.46875 1.324219 "/>
</g>
<mask id="mask-1">
<g filter="url(#filter-remove-color)">
<rect x="-6.4" y="-6.4" width="76.8" height="76.8" fill="rgb(0%, 0%, 0%)" fill-opacity="0.35"/>
</g>
</mask>
<clipPath id="clip-1">
<rect x="0" y="0" width="17" height="17"/>
</clipPath>
<g id="source-3093" clip-path="url(#clip-1)">
<path fill-rule="nonzero" fill="rgb(0%, 0%, 0%)" fill-opacity="1" d="M 7.386719 1.585938 L 9.5 1.585938 C 9.648438 1.585938 9.765625 1.707031 9.765625 1.851562 C 9.765625 2 9.648438 2.117188 9.5 2.117188 L 7.386719 2.117188 C 7.238281 2.117188 7.121094 2 7.121094 1.851562 C 7.121094 1.707031 7.238281 1.585938 7.386719 1.585938 Z M 7.386719 1.585938 "/>
</g>
<mask id="mask-2">
<g filter="url(#filter-remove-color)">
<rect x="-6.4" y="-6.4" width="76.8" height="76.8" fill="rgb(0%, 0%, 0%)" fill-opacity="0.35"/>
</g>
</mask>
<clipPath id="clip-2">
<rect x="0" y="0" width="17" height="17"/>
</clipPath>
<g id="source-3097" clip-path="url(#clip-2)">
<path fill-rule="nonzero" fill="rgb(100%, 100%, 100%)" fill-opacity="1" d="M 4.058594 11.378906 L 13.054688 11.378906 C 13.347656 11.378906 13.582031 11.496094 13.582031 11.640625 L 13.582031 12.433594 C 13.582031 12.582031 13.347656 12.699219 13.050781 12.699219 L 4.058594 12.699219 C 3.765625 12.699219 3.527344 12.582031 3.527344 12.433594 L 3.527344 11.640625 C 3.527344 11.496094 3.765625 11.378906 4.058594 11.378906 Z M 4.058594 11.378906 "/>
</g>
</defs>
<path fill-rule="nonzero" fill="rgb(47.058824%, 90.196078%, 53.72549%)" fill-opacity="1" d="M 8.464844 1.324219 C 12.410156 1.324219 15.609375 4.519531 15.609375 8.464844 C 15.609375 12.410156 12.410156 15.609375 8.464844 15.609375 C 4.519531 15.609375 1.324219 12.410156 1.324219 8.464844 C 1.324219 4.519531 4.519531 1.324219 8.464844 1.324219 Z M 8.464844 1.324219 "/>
<g mask="url(#mask-0)">
<use xlink:href="#source-3089"/>
</g>
<g mask="url(#mask-1)">
<use xlink:href="#source-3093"/>
</g>
<g mask="url(#mask-2)">
<use xlink:href="#source-3097"/>
</g>
<path fill-rule="nonzero" fill="rgb(85.882353%, 100%, 83.137255%)" fill-opacity="1" d="M 4.71875 10.582031 L 5.777344 10.582031 C 5.851562 10.582031 5.910156 10.640625 5.910156 10.714844 L 5.910156 11.773438 C 5.910156 11.847656 5.851562 11.90625 5.777344 11.90625 L 4.71875 11.90625 C 4.644531 11.90625 4.585938 11.847656 4.585938 11.773438 L 4.585938 10.714844 C 4.585938 10.640625 4.644531 10.582031 4.71875 10.582031 Z M 4.71875 10.582031 "/>
<path fill-rule="nonzero" fill="rgb(85.882353%, 100%, 83.137255%)" fill-opacity="1" d="M 6.921875 10.582031 L 7.980469 10.582031 C 8.054688 10.582031 8.113281 10.640625 8.113281 10.714844 L 8.113281 11.773438 C 8.113281 11.847656 8.054688 11.90625 7.980469 11.90625 L 6.921875 11.90625 C 6.851562 11.90625 6.789062 11.847656 6.789062 11.773438 L 6.789062 10.714844 C 6.789062 10.640625 6.851562 10.582031 6.921875 10.582031 Z M 6.921875 10.582031 "/>
<path fill-rule="nonzero" fill="rgb(85.882353%, 100%, 83.137255%)" fill-opacity="1" d="M 9.128906 10.582031 L 10.1875 10.582031 C 10.261719 10.582031 10.320312 10.640625 10.320312 10.714844 L 10.320312 11.773438 C 10.320312 11.847656 10.261719 11.90625 10.1875 11.90625 L 9.128906 11.90625 C 9.054688 11.90625 8.996094 11.847656 8.996094 11.773438 L 8.996094 10.714844 C 8.996094 10.640625 9.054688 10.582031 9.128906 10.582031 Z M 9.128906 10.582031 "/>
<path fill-rule="nonzero" fill="rgb(85.882353%, 100%, 83.137255%)" fill-opacity="1" d="M 11.332031 10.582031 L 12.390625 10.582031 C 12.464844 10.582031 12.523438 10.640625 12.523438 10.714844 L 12.523438 11.773438 C 12.523438 11.847656 12.464844 11.90625 12.390625 11.90625 L 11.332031 11.90625 C 11.261719 11.90625 11.199219 11.847656 11.199219 11.773438 L 11.199219 10.714844 C 11.199219 10.640625 11.261719 10.582031 11.332031 10.582031 Z M 11.332031 10.582031 "/>
</svg>
