<?xml version="1.0" encoding="UTF-8"?>
<svg xmlns="http://www.w3.org/2000/svg" xmlns:xlink="http://www.w3.org/1999/xlink" width="64" height="64" viewBox="0 0 64 64">
<path fill-rule="nonzero" fill="rgb(87.843137%, 87.843137%, 87.843137%)" fill-opacity="1" d="M 58.074219 24.988281 C 61.9375 39.390625 53.386719 54.195312 38.984375 58.054688 C 24.582031 61.914062 9.777344 53.367188 5.917969 38.964844 C 2.058594 24.558594 10.605469 9.753906 25.007812 5.894531 C 39.410156 2.035156 54.214844 10.585938 58.074219 24.988281 Z M 58.074219 24.988281 "/>
<path fill-rule="nonzero" fill="rgb(74.117647%, 74.117647%, 74.117647%)" fill-opacity="1" d="M 42 32 C 42 37.523438 37.523438 42 32 42 C 26.476562 42 22 37.523438 22 32 C 22 26.476562 26.476562 22 32 22 C 37.523438 22 42 26.476562 42 32 Z M 42 32 "/>
<path fill-rule="nonzero" fill="rgb(25.882353%, 25.882353%, 25.882353%)" fill-opacity="1" d="M 37 32 C 37 34.761719 34.761719 37 32 37 C 29.238281 37 27 34.761719 27 32 C 27 29.238281 29.238281 27 32 27 C 34.761719 27 37 29.238281 37 32 Z M 37 32 "/>
<path fill-rule="nonzero" fill="rgb(29.019608%, 37.647059%, 41.568627%)" fill-opacity="1" d="M 45 31 L 52 31 C 52.550781 31 53 31.449219 53 32 L 53 40 C 53 40.550781 52.550781 41 52 41 L 45 41 C 44.449219 41 44 40.550781 44 40 L 44 32 C 44 31.449219 44.449219 31 45 31 Z M 45 31 "/>
<path fill-rule="nonzero" fill="rgb(96.470588%, 45.490196%, 29.019608%)" fill-opacity="1" d="M 43 39 C 42.445312 39 42 39.445312 42 40 L 42 56 C 42 57.660156 43.339844 59 45 59 L 52 59 C 53.660156 59 55 57.660156 55 56 L 55 40 C 55 39.445312 54.554688 39 54 39 Z M 43 39 "/>
<path fill-rule="nonzero" fill="rgb(100%, 100%, 100%)" fill-opacity="1" d="M 45.5 42 L 51.5 42 C 51.777344 42 52 42.222656 52 42.5 C 52 42.777344 51.777344 43 51.5 43 L 45.5 43 C 45.222656 43 45 42.777344 45 42.5 C 45 42.222656 45.222656 42 45.5 42 Z M 45.5 42 "/>
<path fill-rule="nonzero" fill="rgb(100%, 100%, 100%)" fill-opacity="1" d="M 46.453125 44 L 50.546875 44 C 50.796875 44 51 44.203125 51 44.453125 L 51 44.546875 C 51 44.796875 50.796875 45 50.546875 45 L 46.453125 45 C 46.203125 45 46 44.796875 46 44.546875 L 46 44.453125 C 46 44.203125 46.203125 44 46.453125 44 Z M 46.453125 44 "/>
<path fill-rule="nonzero" fill="rgb(100%, 100%, 100%)" fill-opacity="1" d="M 47.453125 46 L 49.546875 46 C 49.796875 46 50 46.203125 50 46.453125 L 50 46.546875 C 50 46.796875 49.796875 47 49.546875 47 L 47.453125 47 C 47.203125 47 47 46.796875 47 46.546875 L 47 46.453125 C 47 46.203125 47.203125 46 47.453125 46 Z M 47.453125 46 "/>
<path fill-rule="nonzero" fill="rgb(100%, 83.529412%, 30.980392%)" fill-opacity="1" d="M 46 33 L 47 33 L 47 38 L 46 38 Z M 46 33 "/>
<path fill-rule="nonzero" fill="rgb(100%, 83.529412%, 30.980392%)" fill-opacity="1" d="M 50 33 L 51 33 L 51 38 L 50 38 Z M 50 33 "/>
<path fill-rule="nonzero" fill="rgb(100%, 83.529412%, 30.980392%)" fill-opacity="1" d="M 48 35 L 49 35 L 49 38 L 48 38 Z M 48 35 "/>
</svg>
