<?xml version="1.0" encoding="UTF-8"?>
<svg xmlns="http://www.w3.org/2000/svg" xmlns:xlink="http://www.w3.org/1999/xlink" width="64" height="64" viewBox="0 0 64 64">
<defs>
<filter id="filter-remove-color" x="0%" y="0%" width="100%" height="100%">
<feColorMatrix color-interpolation-filters="sRGB" values="0 0 0 0 1 0 0 0 0 1 0 0 0 0 1 0 0 0 1 0" />
</filter>
<mask id="mask-0">
<g filter="url(#filter-remove-color)">
<rect x="-6.4" y="-6.4" width="76.8" height="76.8" fill="rgb(0%, 0%, 0%)" fill-opacity="0.35"/>
</g>
</mask>
<clipPath id="clip-0">
<rect x="0" y="0" width="17" height="17"/>
</clipPath>
<g id="source-516" clip-path="url(#clip-0)">
<path fill-rule="nonzero" fill="rgb(100%, 100%, 100%)" fill-opacity="1" d="M 10.054688 7.410156 C 10.054688 7.703125 9.816406 7.9375 9.523438 7.9375 C 9.234375 7.9375 8.996094 7.703125 8.996094 7.410156 C 8.996094 7.117188 9.234375 6.882812 9.523438 6.882812 C 9.816406 6.882812 10.054688 7.117188 10.054688 7.410156 Z M 10.054688 7.410156 "/>
</g>
</defs>
<path fill-rule="nonzero" fill="rgb(80.784314%, 80.784314%, 80.784314%)" fill-opacity="1" d="M 15.609375 8.460938 C 15.609375 12.40625 12.410156 15.605469 8.464844 15.605469 C 4.519531 15.605469 1.324219 12.40625 1.324219 8.460938 C 1.324219 4.515625 4.519531 1.316406 8.464844 1.316406 C 12.410156 1.316406 15.609375 4.515625 15.609375 8.460938 Z M 15.609375 8.460938 "/>
<path fill-rule="nonzero" fill="rgb(87.843137%, 87.843137%, 87.843137%)" fill-opacity="1" d="M 13.492188 8.460938 C 13.492188 11.234375 11.242188 13.488281 8.46875 13.488281 C 5.691406 13.488281 3.441406 11.234375 3.441406 8.460938 C 3.441406 5.683594 5.691406 3.433594 8.46875 3.433594 C 11.242188 3.433594 13.492188 5.683594 13.492188 8.460938 Z M 13.492188 8.460938 "/>
<path fill-rule="nonzero" fill="rgb(100%, 100%, 100%)" fill-opacity="1" d="M 11.640625 8.460938 C 11.640625 10.214844 10.21875 11.636719 8.46875 11.636719 C 6.714844 11.636719 5.292969 10.214844 5.292969 8.460938 C 5.292969 6.707031 6.714844 5.285156 8.46875 5.285156 C 10.21875 5.285156 11.640625 6.707031 11.640625 8.460938 Z M 11.640625 8.460938 "/>
<path fill-rule="nonzero" fill="rgb(27.058824%, 27.843137%, 30.980392%)" fill-opacity="1" d="M 11.113281 8.460938 C 11.113281 9.921875 9.929688 11.105469 8.46875 11.105469 C 7.003906 11.105469 5.820312 9.921875 5.820312 8.460938 C 5.820312 7 7.003906 5.8125 8.46875 5.8125 C 9.929688 5.8125 11.113281 7 11.113281 8.460938 Z M 11.113281 8.460938 "/>
<g mask="url(#mask-0)">
<use xlink:href="#source-516"/>
</g>
</svg>
