<?xml version="1.0" encoding="UTF-8"?>
<svg xmlns="http://www.w3.org/2000/svg" xmlns:xlink="http://www.w3.org/1999/xlink" width="64" height="64" viewBox="0 0 64 64">
<defs>
<filter id="filter-remove-color" x="0%" y="0%" width="100%" height="100%">
<feColorMatrix color-interpolation-filters="sRGB" values="0 0 0 0 1 0 0 0 0 1 0 0 0 0 1 0 0 0 1 0" />
</filter>
<mask id="mask-0">
<g filter="url(#filter-remove-color)">
<rect x="-6.4" y="-6.4" width="76.8" height="76.8" fill="rgb(0%, 0%, 0%)" fill-opacity="0.25"/>
</g>
</mask>
<clipPath id="clip-0">
<rect x="0" y="0" width="64" height="64"/>
</clipPath>
<g id="source-10854" clip-path="url(#clip-0)">
<path fill-rule="nonzero" fill="rgb(100%, 100%, 100%)" fill-opacity="1" d="M 35 42 C 35 41.472656 34.859375 40.957031 34.59375 40.5 L 32 40.5 C 31.171875 40.5 30.5 41.171875 30.5 42 C 30.5 42.828125 31.171875 43.5 32 43.5 L 34.597656 43.5 C 34.859375 43.042969 35 42.527344 35 42 Z M 35 42 "/>
</g>
<mask id="mask-1">
<g filter="url(#filter-remove-color)">
<rect x="-6.4" y="-6.4" width="76.8" height="76.8" fill="rgb(0%, 0%, 0%)" fill-opacity="0.25"/>
</g>
</mask>
<clipPath id="clip-1">
<rect x="0" y="0" width="64" height="64"/>
</clipPath>
<g id="source-10859" clip-path="url(#clip-1)">
<path fill-rule="nonzero" fill="rgb(100%, 100%, 100%)" fill-opacity="1" d="M 22.40625 39 C 21.878906 39 21.363281 39.140625 20.90625 39.40625 L 20.90625 42 C 20.90625 42.828125 21.578125 43.5 22.40625 43.5 C 23.234375 43.5 23.90625 42.828125 23.90625 42 L 23.90625 39.402344 C 23.449219 39.140625 22.933594 39 22.40625 39 Z M 22.40625 39 "/>
</g>
<mask id="mask-2">
<g filter="url(#filter-remove-color)">
<rect x="-6.4" y="-6.4" width="76.8" height="76.8" fill="rgb(0%, 0%, 0%)" fill-opacity="0.25"/>
</g>
</mask>
<clipPath id="clip-2">
<rect x="0" y="0" width="64" height="64"/>
</clipPath>
<g id="source-10864" clip-path="url(#clip-2)">
<path fill-rule="nonzero" fill="rgb(100%, 100%, 100%)" fill-opacity="1" d="M 41 45 C 41.527344 45 42.042969 44.859375 42.5 44.59375 L 42.5 42 C 42.5 41.171875 41.828125 40.5 41 40.5 C 40.171875 40.5 39.5 41.171875 39.5 42 L 39.5 44.597656 C 39.957031 44.859375 40.472656 45 41 45 Z M 41 45 "/>
</g>
</defs>
<path fill-rule="nonzero" fill="rgb(100%, 29.411765%, 40.784314%)" fill-opacity="1" d="M 59 32 C 59 46.910156 46.910156 59 32 59 C 17.089844 59 5 46.910156 5 32 C 5 17.089844 17.089844 5 32 5 C 46.910156 5 59 17.089844 59 32 Z M 59 32 "/>
<path fill-rule="nonzero" fill="rgb(23.921569%, 23.921569%, 23.921569%)" fill-opacity="1" d="M 18.667969 16 L 45.332031 16 C 46.804688 16 48 17.195312 48 18.667969 L 48 45.332031 C 48 46.804688 46.804688 48 45.332031 48 L 18.667969 48 C 17.195312 48 16 46.804688 16 45.332031 L 16 18.667969 C 16 17.195312 17.195312 16 18.667969 16 Z M 18.667969 16 "/>
<path fill-rule="nonzero" fill="rgb(50.196078%, 50.196078%, 50.196078%)" fill-opacity="1" d="M 32 39 C 33.65625 39 35 40.34375 35 42 C 35 43.65625 33.65625 45 32 45 C 30.34375 45 29 43.65625 29 42 C 29 40.34375 30.34375 39 32 39 Z M 32 39 "/>
<g mask="url(#mask-0)">
<use xlink:href="#source-10854"/>
</g>
<path fill-rule="nonzero" fill="rgb(50.196078%, 50.196078%, 50.196078%)" fill-opacity="1" d="M 22.40625 39 C 24.0625 39 25.40625 40.34375 25.40625 42 C 25.40625 43.65625 24.0625 45 22.40625 45 C 20.75 45 19.40625 43.65625 19.40625 42 C 19.40625 40.34375 20.75 39 22.40625 39 Z M 22.40625 39 "/>
<g mask="url(#mask-1)">
<use xlink:href="#source-10859"/>
</g>
<path fill-rule="nonzero" fill="rgb(50.196078%, 50.196078%, 50.196078%)" fill-opacity="1" d="M 41 39 C 42.65625 39 44 40.34375 44 42 C 44 43.65625 42.65625 45 41 45 C 39.34375 45 38 43.65625 38 42 C 38 40.34375 39.34375 39 41 39 Z M 41 39 "/>
<g mask="url(#mask-2)">
<use xlink:href="#source-10864"/>
</g>
<path fill-rule="nonzero" fill="rgb(12.54902%, 12.54902%, 12.54902%)" fill-opacity="1" d="M 20 19 L 44 19 C 44.550781 19 45 19.449219 45 20 L 45 36 C 45 36.550781 44.550781 37 44 37 L 20 37 C 19.449219 37 19 36.550781 19 36 L 19 20 C 19 19.449219 19.449219 19 20 19 Z M 20 19 "/>
<path fill-rule="nonzero" fill="rgb(22.745098%, 96.470588%, 51.764706%)" fill-opacity="1" d="M 21 20 L 26 20 L 26 36 L 21 36 Z M 21 20 "/>
<path fill-rule="nonzero" fill="rgb(22.745098%, 96.470588%, 51.764706%)" fill-opacity="1" d="M 29 30 L 35 30 L 35 36 L 29 36 Z M 29 30 "/>
<path fill-rule="nonzero" fill="rgb(5.490196%, 67.058824%, 90.588235%)" fill-opacity="1" d="M 38 26 L 43 26 L 43 36 L 38 36 Z M 38 26 "/>
</svg>
