<?xml version="1.0" encoding="UTF-8"?>
<svg xmlns="http://www.w3.org/2000/svg" xmlns:xlink="http://www.w3.org/1999/xlink" width="64" height="64" viewBox="0 0 64 64">
<defs>
<filter id="filter-remove-color" x="0%" y="0%" width="100%" height="100%">
<feColorMatrix color-interpolation-filters="sRGB" values="0 0 0 0 1 0 0 0 0 1 0 0 0 0 1 0 0 0 1 0" />
</filter>
<mask id="mask-0">
<g filter="url(#filter-remove-color)">
<rect x="-6.4" y="-6.4" width="76.8" height="76.8" fill="rgb(0%, 0%, 0%)" fill-opacity="0.25"/>
</g>
</mask>
<clipPath id="clip-0">
<rect x="0" y="0" width="17" height="17"/>
</clipPath>
<g id="source-2064" clip-path="url(#clip-0)">
<path fill-rule="nonzero" fill="rgb(100%, 100%, 100%)" fill-opacity="1" d="M 12.699219 8.46875 L 12.699219 8.464844 C 12.699219 6.128906 10.804688 4.234375 8.46875 4.234375 L 8.464844 4.234375 C 6.128906 4.234375 4.234375 6.128906 4.234375 8.464844 L 4.234375 8.46875 C 4.234375 10.804688 6.128906 12.699219 8.464844 12.699219 L 8.46875 12.699219 C 10.804688 12.699219 12.699219 10.804688 12.699219 8.46875 Z M 12.699219 8.46875 "/>
</g>
<mask id="mask-1">
<g filter="url(#filter-remove-color)">
<rect x="-6.4" y="-6.4" width="76.8" height="76.8" fill="rgb(0%, 0%, 0%)" fill-opacity="0.25"/>
</g>
</mask>
<clipPath id="clip-1">
<rect x="0" y="0" width="17" height="17"/>
</clipPath>
<g id="source-2068" clip-path="url(#clip-1)">
<path fill-rule="nonzero" fill="rgb(100%, 100%, 100%)" fill-opacity="1" d="M 11.113281 8.464844 C 11.113281 7.003906 9.929688 5.816406 8.46875 5.816406 C 7.003906 5.816406 5.820312 7.003906 5.820312 8.464844 C 5.820312 9.925781 7.003906 11.109375 8.46875 11.109375 C 9.929688 11.109375 11.113281 9.925781 11.113281 8.464844 Z M 11.113281 8.464844 "/>
</g>
</defs>
<path fill="none" stroke-width="0.265" stroke-linecap="butt" stroke-linejoin="miter" stroke="rgb(0%, 0%, 0%)" stroke-opacity="0.13725" stroke-miterlimit="4" d="M -288.534851 -15.609375 C -284.589539 -15.609375 -281.394226 -12.410156 -281.394226 -8.464844 C -281.394226 -4.519531 -284.589539 -1.324219 -288.534851 -1.324219 C -292.480164 -1.324219 -295.679382 -4.519531 -295.679382 -8.464844 C -295.679382 -12.410156 -292.480164 -15.609375 -288.534851 -15.609375 Z M -288.534851 -15.609375 " transform="matrix(0, -1, -1, 0, 0, -280.070007)"/>
<path fill-rule="nonzero" fill="rgb(100%, 100%, 100%)" fill-opacity="1" d="M 15.609375 8.464844 C 15.609375 4.519531 12.410156 1.324219 8.464844 1.324219 C 4.519531 1.324219 1.324219 4.519531 1.324219 8.464844 C 1.324219 12.410156 4.519531 15.609375 8.464844 15.609375 C 12.410156 15.609375 15.609375 12.410156 15.609375 8.464844 Z M 15.609375 8.464844 "/>
<path fill-rule="nonzero" fill="rgb(100%, 100%, 100%)" fill-opacity="1" d="M 15.609375 8.464844 C 15.609375 4.519531 12.410156 1.324219 8.464844 1.324219 C 4.519531 1.324219 1.324219 4.519531 1.324219 8.464844 C 1.324219 12.410156 4.519531 15.609375 8.464844 15.609375 C 12.410156 15.609375 15.609375 12.410156 15.609375 8.464844 Z M 15.609375 8.464844 "/>
<path fill-rule="nonzero" fill="rgb(30.196078%, 55.294118%, 84.705882%)" fill-opacity="1" d="M 14.289062 8.460938 C 14.289062 5.246094 11.683594 2.636719 8.46875 2.636719 C 5.253906 2.636719 2.644531 5.246094 2.644531 8.460938 C 2.644531 11.675781 5.253906 14.28125 8.46875 14.28125 C 11.683594 14.28125 14.289062 11.675781 14.289062 8.460938 Z M 14.289062 8.460938 "/>
<g mask="url(#mask-0)">
<use xlink:href="#source-2064"/>
</g>
<g mask="url(#mask-1)">
<use xlink:href="#source-2068"/>
</g>
<path fill-rule="nonzero" fill="rgb(100%, 100%, 100%)" fill-opacity="1" d="M 9.261719 8.464844 C 9.261719 8.027344 8.90625 7.671875 8.464844 7.671875 C 8.027344 7.671875 7.671875 8.027344 7.671875 8.464844 C 7.671875 8.90625 8.027344 9.261719 8.464844 9.261719 C 8.90625 9.261719 9.261719 8.90625 9.261719 8.464844 Z M 9.261719 8.464844 "/>
<path fill-rule="nonzero" fill="rgb(100%, 100%, 100%)" fill-opacity="1" d="M 8.46875 8.277344 L 12.957031 3.785156 L 13.144531 3.972656 L 8.652344 8.464844 Z M 8.46875 8.277344 "/>
</svg>
