<?xml version="1.0" encoding="UTF-8"?>
<svg xmlns="http://www.w3.org/2000/svg" xmlns:xlink="http://www.w3.org/1999/xlink" width="64" height="64" viewBox="0 0 64 64">
<path fill-rule="nonzero" fill="rgb(43.529412%, 27.45098%, 48.627451%)" fill-opacity="1" d="M 60 32 C 60 46.359375 47.464844 57.996094 32 57.996094 C 16.535156 57.996094 4 46.359375 4 32 C 4 17.640625 16.535156 6 32 6 C 47.464844 6 60 17.640625 60 32 Z M 60 32 "/>
<path fill-rule="nonzero" fill="rgb(100%, 100%, 100%)" fill-opacity="1" d="M 23.601562 19 C 17.929688 18.996094 13.332031 23.570312 13.332031 29.214844 C 13.332031 34.855469 17.929688 39.425781 23.601562 39.425781 L 40.398438 39.425781 C 46.070312 39.425781 50.667969 34.855469 50.667969 29.214844 C 50.667969 23.570312 46.070312 18.996094 40.398438 19 C 37.050781 19 33.914062 20.628906 31.996094 23.355469 C 30.078125 20.628906 26.945312 19 23.601562 19 Z M 23.601562 19 "/>
<path fill-rule="nonzero" fill="rgb(77.647059%, 33.333333%, 49.803922%)" fill-opacity="1" d="M 32 33.855469 C 28.269531 33.855469 24.53125 36.640625 24.53125 39.425781 C 24.53125 42.214844 30.554688 52.425781 32 52.425781 C 33.445312 52.425781 39.464844 42.214844 39.464844 39.425781 C 39.464844 36.640625 35.734375 33.855469 32 33.855469 Z M 32 33.855469 "/>
<path fill-rule="nonzero" fill="rgb(18.431373%, 35.686275%, 57.647059%)" fill-opacity="1" d="M 24.53125 26.429688 C 22.472656 26.429688 20.800781 28.089844 20.800781 30.140625 C 20.800781 32.191406 22.472656 33.855469 24.53125 33.855469 C 26.59375 33.855469 28.265625 32.191406 28.265625 30.140625 C 28.265625 28.089844 26.59375 26.429688 24.53125 26.429688 Z M 39.464844 26.429688 C 37.40625 26.429688 35.734375 28.089844 35.734375 30.140625 C 35.734375 32.191406 37.40625 33.855469 39.464844 33.855469 C 41.527344 33.855469 43.199219 32.191406 43.199219 30.140625 C 43.199219 28.089844 41.527344 26.429688 39.464844 26.429688 Z M 23.601562 28.285156 C 24.117188 28.285156 24.53125 28.699219 24.53125 29.214844 C 24.53125 29.726562 24.117188 30.140625 23.601562 30.140625 C 23.085938 30.140625 22.667969 29.726562 22.667969 29.214844 C 22.667969 28.699219 23.085938 28.285156 23.601562 28.285156 Z M 38.53125 28.285156 C 39.046875 28.285156 39.464844 28.699219 39.464844 29.214844 C 39.464844 29.726562 39.046875 30.140625 38.53125 30.140625 C 38.019531 30.140625 37.601562 29.726562 37.601562 29.214844 C 37.601562 28.699219 38.019531 28.285156 38.53125 28.285156 Z M 38.53125 28.285156 "/>
</svg>
