<?xml version="1.0" encoding="UTF-8"?>
<svg xmlns="http://www.w3.org/2000/svg" xmlns:xlink="http://www.w3.org/1999/xlink" width="64" height="64" viewBox="0 0 64 64">
<path fill-rule="nonzero" fill="rgb(91.372549%, 91.372549%, 91.372549%)" fill-opacity="1" d="M 32 5 C 46.910156 5 59 17.085938 59 32 C 59 46.910156 46.910156 59 32 59 C 17.085938 59 5 46.910156 5 32 C 5 17.085938 17.085938 5 32 5 Z M 32 5 "/>
<path fill-rule="evenodd" fill="rgb(58.823529%, 58.823529%, 58.823529%)" fill-opacity="1" d="M 16.738281 21.433594 L 16.738281 42.5625 L 47.261719 42.5625 L 47.261719 21.433594 Z M 17.914062 22.609375 L 30.824219 22.609375 L 30.824219 41.390625 L 17.914062 41.390625 Z M 33.171875 22.609375 L 46.085938 22.609375 L 46.085938 41.390625 L 33.171875 41.390625 Z M 33.171875 22.609375 "/>
<path fill-rule="nonzero" fill="rgb(20%, 20%, 20%)" fill-opacity="1" d="M 23.335938 37.636719 C 21.425781 37.042969 19.546875 35.234375 19.679688 32.90625 C 19.8125 30.257812 21.652344 28.164062 23.636719 26.847656 C 24.230469 26.3125 25.5625 25.570312 25.894531 26.777344 C 26.160156 28.027344 24.742188 28.191406 23.945312 28.359375 C 22.347656 29.171875 21.195312 31.070312 21.207031 33 C 21.488281 35.039062 23.390625 36.207031 25.109375 36.554688 C 26.429688 36.839844 27.839844 36.707031 29.066406 36.085938 C 27.546875 37.5625 25.152344 38.257812 23.335938 37.632812 Z M 23.335938 37.636719 "/>
<path fill-rule="nonzero" fill="rgb(20%, 20%, 20%)" fill-opacity="1" d="M 35.6875 37.480469 C 34.292969 35.542969 35.234375 31.101562 35.324219 28.648438 C 35.324219 28.648438 36.597656 28.511719 36.601562 29.085938 C 35.648438 30.710938 35.828125 37.746094 37.832031 34.511719 C 38.371094 33.636719 38.535156 32.585938 38.941406 31.644531 C 39.253906 30.921875 40.164062 30.851562 40.429688 31.605469 C 40.742188 32.503906 41.839844 35.882812 42.351562 34.703125 C 42.726562 33.835938 42.871094 32.898438 42.972656 31.972656 C 43.121094 29.445312 42.265625 27.019531 41.875 24.554688 C 43.363281 26.957031 44.386719 31.632812 44.316406 34.015625 C 44.285156 35.226562 43.847656 36.644531 42.78125 37.234375 C 40.320312 38.214844 40.160156 32.652344 38.863281 35.652344 C 38.160156 37.28125 36.441406 38.535156 35.683594 37.484375 Z M 35.6875 37.480469 "/>
</svg>
