<?xml version="1.0" encoding="UTF-8"?>
<svg xmlns="http://www.w3.org/2000/svg" xmlns:xlink="http://www.w3.org/1999/xlink" width="64" height="64" viewBox="0 0 64 64">
<defs>
<filter id="filter-remove-color" x="0%" y="0%" width="100%" height="100%">
<feColorMatrix color-interpolation-filters="sRGB" values="0 0 0 0 1 0 0 0 0 1 0 0 0 0 1 0 0 0 1 0" />
</filter>
<mask id="mask-0">
<g filter="url(#filter-remove-color)">
<rect x="-6.4" y="-6.4" width="76.8" height="76.8" fill="rgb(0%, 0%, 0%)" fill-opacity="0.5"/>
</g>
</mask>
<clipPath id="clip-0">
<rect x="0" y="0" width="64" height="64"/>
</clipPath>
<g id="source-4887" clip-path="url(#clip-0)">
<path fill-rule="nonzero" fill="rgb(97.647059%, 97.647059%, 97.647059%)" fill-opacity="1" d="M 18.5 42 L 45.5 42 C 46.328125 42 47 42.671875 47 43.5 C 47 44.328125 46.328125 45 45.5 45 L 18.5 45 C 17.671875 45 17 44.328125 17 43.5 C 17 42.671875 17.671875 42 18.5 42 Z M 18.5 42 "/>
</g>
</defs>
<path fill-rule="nonzero" fill="rgb(88.235294%, 26.27451%, 30.980392%)" fill-opacity="1" d="M 59 32 C 59 46.910156 46.910156 59 32 59 C 17.089844 59 5 46.910156 5 32 C 5 17.089844 17.089844 5 32 5 C 46.910156 5 59 17.089844 59 32 Z M 59 32 "/>
<g mask="url(#mask-0)">
<use xlink:href="#source-4887"/>
</g>
<path fill-rule="nonzero" fill="rgb(100%, 100%, 100%)" fill-opacity="1" d="M 28 43.5 C 28 45.433594 26.433594 47 24.5 47 C 22.566406 47 21 45.433594 21 43.5 C 21 41.566406 22.566406 40 24.5 40 C 26.433594 40 28 41.566406 28 43.5 Z M 28 43.5 "/>
<path fill-rule="nonzero" fill="rgb(100%, 100%, 100%)" fill-opacity="1" d="M 32 17 C 26.476562 17 22 21.476562 22 27 C 22 32.523438 26.476562 37 32 37 C 37.523438 37 42 32.523438 42 27 C 42 21.476562 37.523438 17 32 17 Z M 29 21 L 38 27 L 29 33 Z M 29 21 "/>
</svg>
