<?xml version="1.0" encoding="UTF-8"?>
<svg xmlns="http://www.w3.org/2000/svg" xmlns:xlink="http://www.w3.org/1999/xlink" width="64" height="64" viewBox="0 0 64 64">
<path fill-rule="nonzero" fill="rgb(30.196078%, 30.196078%, 30.196078%)" fill-opacity="1" d="M 15.609375 8.464844 C 15.609375 12.410156 12.410156 15.609375 8.464844 15.609375 C 4.519531 15.609375 1.324219 12.410156 1.324219 8.464844 C 1.324219 4.519531 4.519531 1.324219 8.464844 1.324219 C 12.410156 1.324219 15.609375 4.519531 15.609375 8.464844 Z M 15.609375 8.464844 "/>
<path fill-rule="nonzero" fill="rgb(100%, 100%, 100%)" fill-opacity="1" d="M 8.203125 5.6875 C 8.203125 7.078125 7.078125 8.203125 5.6875 8.203125 C 4.300781 8.203125 3.175781 7.078125 3.175781 5.6875 C 3.175781 4.300781 4.300781 3.175781 5.6875 3.175781 C 7.078125 3.175781 8.203125 4.300781 8.203125 5.6875 Z M 8.203125 5.6875 "/>
<path fill-rule="nonzero" fill="rgb(20%, 20%, 20%)" fill-opacity="1" d="M 13.757812 5.6875 C 13.757812 7.074219 12.632812 8.199219 11.242188 8.199219 C 9.855469 8.199219 8.730469 7.074219 8.730469 5.6875 C 8.730469 4.296875 9.855469 3.171875 11.242188 3.171875 C 12.632812 3.171875 13.757812 4.296875 13.757812 5.6875 Z M 13.757812 5.6875 "/>
<path fill-rule="nonzero" fill="rgb(20%, 20%, 20%)" fill-opacity="1" d="M 8.203125 11.242188 C 8.203125 12.632812 7.078125 13.757812 5.6875 13.757812 C 4.300781 13.757812 3.175781 12.632812 3.175781 11.242188 C 3.175781 9.855469 4.300781 8.730469 5.6875 8.730469 C 7.078125 8.730469 8.203125 9.855469 8.203125 11.242188 Z M 8.203125 11.242188 "/>
<path fill-rule="nonzero" fill="rgb(100%, 100%, 100%)" fill-opacity="1" d="M 13.757812 11.242188 C 13.757812 12.632812 12.632812 13.757812 11.246094 13.757812 C 9.855469 13.757812 8.730469 12.632812 8.730469 11.242188 C 8.730469 9.855469 9.855469 8.730469 11.246094 8.730469 C 12.632812 8.730469 13.757812 9.855469 13.757812 11.242188 Z M 13.757812 11.242188 "/>
</svg>
