<?xml version="1.0" encoding="UTF-8"?>
<svg xmlns="http://www.w3.org/2000/svg" xmlns:xlink="http://www.w3.org/1999/xlink" width="64" height="64" viewBox="0 0 64 64">
<path fill-rule="nonzero" fill="rgb(94.901961%, 94.901961%, 94.901961%)" fill-opacity="1" d="M 15.609375 8.464844 C 15.609375 12.410156 12.410156 15.609375 8.464844 15.609375 C 4.519531 15.609375 1.324219 12.410156 1.324219 8.464844 C 1.324219 4.519531 4.519531 1.324219 8.464844 1.324219 C 12.410156 1.324219 15.609375 4.519531 15.609375 8.464844 Z M 15.609375 8.464844 "/>
<path fill-rule="nonzero" fill="rgb(31.372549%, 71.764706%, 12.941176%)" fill-opacity="1" d="M 7.679688 4.292969 C 6.300781 4.285156 5.207031 6.644531 5.773438 8.0625 C 7.339844 6.539062 8.835938 6.808594 8.527344 4.882812 C 8.695312 5.082031 8.925781 5.425781 8.972656 5.890625 C 9.050781 6.613281 8.6875 7.636719 6.699219 8.796875 L 6.867188 9.089844 C 8.917969 7.890625 9.398438 6.722656 9.308594 5.851562 C 9.242188 5.242188 8.992188 5.082031 8.796875 4.867188 C 9.320312 4.945312 9.792969 5.0625 10.015625 5.351562 C 10.296875 5.71875 10.402344 6.226562 10.402344 6.753906 C 10.402344 7.804688 9.992188 8.882812 9.992188 8.882812 L 10.308594 9.003906 C 10.308594 9.003906 10.738281 7.890625 10.738281 6.753906 C 10.738281 6.183594 10.628906 5.601562 10.28125 5.148438 C 9.660156 4.507812 8.964844 4.425781 8.171875 4.394531 C 8.003906 4.328125 7.839844 4.292969 7.679688 4.289062 Z M 7.679688 4.292969 "/>
<path fill-rule="nonzero" fill="rgb(91.372549%, 25.098039%, 25.098039%)" fill-opacity="1" d="M 6.785156 8.601562 C 5.667969 8.601562 4.761719 9.507812 4.761719 10.621094 C 4.761719 11.738281 5.667969 12.640625 6.785156 12.640625 C 7.359375 12.640625 7.878906 12.398438 8.246094 12.011719 C 7.960938 11.621094 7.792969 11.140625 7.792969 10.621094 C 7.792969 10.101562 7.960938 9.625 8.246094 9.234375 C 7.878906 8.84375 7.359375 8.601562 6.785156 8.601562 "/>
<path fill-rule="nonzero" fill="rgb(91.372549%, 25.098039%, 25.098039%)" fill-opacity="1" d="M 12.171875 10.621094 C 12.171875 11.738281 11.265625 12.640625 10.152344 12.640625 C 9.035156 12.640625 8.128906 11.738281 8.128906 10.621094 C 8.128906 9.507812 9.035156 8.601562 10.152344 8.601562 C 11.265625 8.601562 12.171875 9.507812 12.171875 10.621094 "/>
</svg>
