<?xml version="1.0" encoding="UTF-8"?>
<svg xmlns="http://www.w3.org/2000/svg" xmlns:xlink="http://www.w3.org/1999/xlink" width="64" height="64" viewBox="0 0 64 64">
<path fill-rule="nonzero" fill="rgb(91.372549%, 91.372549%, 91.372549%)" fill-opacity="1" d="M 32 5 C 46.910156 5 59 17.089844 59 32 C 59 46.910156 46.910156 59 32 59 C 17.089844 59 5 46.910156 5 32 C 5 17.089844 17.089844 5 32 5 Z M 32 5 "/>
<path fill-rule="nonzero" fill="rgb(40%, 40%, 40%)" fill-opacity="1" d="M 28.246094 20.589844 C 20.65625 23.351562 16.480469 30.730469 18.949219 37.039062 C 21.421875 43.347656 29.609375 46.230469 37.195312 43.472656 C 44.78125 40.710938 48.960938 33.328125 46.484375 27.011719 C 44.015625 20.703125 35.828125 17.824219 28.242188 20.582031 M 29.09375 22.753906 C 35.277344 20.5 41.878906 22.828125 43.886719 27.957031 C 45.894531 33.085938 42.535156 39.039062 36.347656 41.292969 C 30.164062 43.542969 23.554688 41.214844 21.550781 36.082031 C 19.542969 30.957031 22.910156 25.003906 29.09375 22.753906 "/>
<path fill-rule="nonzero" fill="rgb(60%, 60%, 100%)" fill-opacity="1" d="M 34.347656 20.847656 C 34.347656 22.46875 33.03125 23.78125 31.414062 23.78125 C 29.792969 23.78125 28.476562 22.46875 28.476562 20.847656 C 28.476562 19.230469 29.792969 17.914062 31.414062 17.914062 C 33.03125 17.914062 34.347656 19.230469 34.347656 20.847656 "/>
<path fill-rule="nonzero" fill="rgb(60%, 60%, 100%)" fill-opacity="1" d="M 47.261719 25.542969 C 47.261719 27.160156 45.945312 28.476562 44.328125 28.476562 C 42.707031 28.476562 41.390625 27.160156 41.390625 25.542969 C 41.390625 23.925781 42.707031 22.609375 44.328125 22.609375 C 45.945312 22.609375 47.261719 23.925781 47.261719 25.542969 "/>
<path fill-rule="nonzero" fill="rgb(60%, 60%, 100%)" fill-opacity="1" d="M 44.914062 38.457031 C 44.914062 40.074219 43.597656 41.390625 41.976562 41.390625 C 40.359375 41.390625 39.042969 40.074219 39.042969 38.457031 C 39.042969 36.839844 40.359375 35.523438 41.976562 35.523438 C 43.597656 35.523438 44.914062 36.839844 44.914062 38.457031 "/>
<path fill-rule="nonzero" fill="rgb(60%, 60%, 100%)" fill-opacity="1" d="M 29.652344 43.152344 C 29.652344 44.769531 28.335938 46.085938 26.71875 46.085938 C 25.097656 46.085938 23.78125 44.769531 23.78125 43.152344 C 23.78125 41.53125 25.097656 40.21875 26.71875 40.21875 C 28.335938 40.21875 29.652344 41.53125 29.652344 43.152344 "/>
<path fill-rule="nonzero" fill="rgb(60%, 60%, 100%)" fill-opacity="1" d="M 22.609375 31.414062 C 22.609375 33.03125 21.292969 34.347656 19.675781 34.347656 C 18.054688 34.347656 16.738281 33.03125 16.738281 31.414062 C 16.738281 29.792969 18.054688 28.476562 19.675781 28.476562 C 21.292969 28.476562 22.609375 29.792969 22.609375 31.414062 "/>
</svg>
