<?xml version="1.0" encoding="UTF-8"?>
<svg xmlns="http://www.w3.org/2000/svg" xmlns:xlink="http://www.w3.org/1999/xlink" width="64" height="64" viewBox="0 0 64 64">
<path fill-rule="evenodd" fill="rgb(39.215686%, 60.392157%, 96.078431%)" fill-opacity="1" d="M 2.753906 4.183594 C 1.824219 5.425781 1.320312 6.9375 1.324219 8.488281 C 1.320312 10.382812 2.070312 12.199219 3.414062 13.535156 C 4.753906 14.871094 6.574219 15.621094 8.46875 15.609375 L 10.964844 10.488281 L 6.324219 9.539062 Z M 2.753906 4.183594 "/>
<path fill-rule="evenodd" fill="rgb(63.529412%, 76.078431%, 97.254902%)" fill-opacity="1" d="M 8.824219 5.253906 L 10.964844 10.46875 L 8.46875 15.609375 C 10.363281 15.613281 12.183594 14.863281 13.523438 13.523438 C 14.863281 12.179688 15.613281 10.363281 15.609375 8.464844 C 15.609375 7.351562 15.347656 6.25 14.84375 5.253906 Z M 8.824219 5.253906 "/>
<path fill-rule="evenodd" fill="rgb(23.137255%, 41.960784%, 83.137255%)" fill-opacity="1" d="M 8.464844 1.324219 C 6.214844 1.320312 4.097656 2.378906 2.75 4.183594 L 6.324219 9.539062 L 10.964844 10.46875 L 8.820312 5.25 L 14.84375 5.25 C 13.632812 2.839844 11.164062 1.316406 8.464844 1.324219 Z M 8.464844 1.324219 "/>
<path fill-rule="nonzero" fill="rgb(100%, 100%, 100%)" fill-opacity="1" d="M 8.464844 5.027344 C 9.378906 5.023438 10.253906 5.386719 10.898438 6.03125 C 11.546875 6.675781 11.90625 7.554688 11.90625 8.464844 C 11.90625 9.378906 11.546875 10.253906 10.902344 10.902344 C 10.253906 11.546875 9.378906 11.90625 8.464844 11.90625 C 7.554688 11.90625 6.675781 11.546875 6.03125 10.898438 C 5.386719 10.253906 5.023438 9.378906 5.027344 8.464844 C 5.023438 7.554688 5.386719 6.675781 6.03125 6.03125 C 6.675781 5.386719 7.554688 5.023438 8.464844 5.027344 Z M 8.464844 5.027344 "/>
<path fill-rule="nonzero" fill="rgb(33.333333%, 60%, 100%)" fill-opacity="1" d="M 8.464844 5.820312 C 9.167969 5.820312 9.839844 6.097656 10.339844 6.59375 C 10.835938 7.089844 11.113281 7.765625 11.113281 8.464844 C 11.113281 9.167969 10.835938 9.84375 10.339844 10.339844 C 9.84375 10.835938 9.167969 11.113281 8.464844 11.113281 C 7.761719 11.113281 7.089844 10.835938 6.59375 10.339844 C 6.097656 9.839844 5.820312 9.167969 5.820312 8.464844 C 5.820312 7.765625 6.097656 7.089844 6.59375 6.59375 C 7.089844 6.097656 7.761719 5.820312 8.464844 5.820312 Z M 8.464844 5.820312 "/>
</svg>
