<?xml version="1.0" encoding="UTF-8"?>
<svg xmlns="http://www.w3.org/2000/svg" xmlns:xlink="http://www.w3.org/1999/xlink" width="64" height="64" viewBox="0 0 64 64">
<path fill-rule="nonzero" fill="rgb(21.568627%, 32.156863%, 58.431373%)" fill-opacity="1" d="M 15.875 8.460938 C 15.875 12.40625 12.675781 15.605469 8.730469 15.605469 C 4.785156 15.605469 1.589844 12.40625 1.589844 8.460938 C 1.589844 4.515625 4.785156 1.316406 8.730469 1.316406 C 12.675781 1.316406 15.875 4.515625 15.875 8.460938 Z M 15.875 8.460938 "/>
<path fill-rule="nonzero" fill="rgb(97.647059%, 97.647059%, 97.647059%)" fill-opacity="1" d="M 6.085938 6.761719 L 7.105469 6.761719 L 7.105469 6.082031 C 7.105469 5.550781 7.183594 5.183594 7.304688 4.925781 C 7.433594 4.664062 7.664062 4.453125 8.003906 4.289062 C 8.34375 4.125 8.773438 4.039062 9.289062 4.039062 C 9.820312 4.039062 10.375 4.175781 10.847656 4.378906 L 10.507812 5.402344 C 10.257812 5.34375 10 5.316406 9.738281 5.320312 C 9.46875 5.320312 9.277344 5.378906 9.15625 5.492188 C 9.039062 5.605469 8.804688 5.761719 8.804688 6.082031 L 8.804688 6.761719 L 10.507812 6.761719 L 10.507812 7.78125 L 8.808594 7.78125 L 8.808594 12.886719 L 7.117188 12.886719 L 7.105469 7.785156 L 6.085938 7.785156 "/>
</svg>
