<?xml version="1.0" encoding="UTF-8"?>
<svg xmlns="http://www.w3.org/2000/svg" xmlns:xlink="http://www.w3.org/1999/xlink" width="64" height="64" viewBox="0 0 64 64">
<path fill-rule="nonzero" fill="rgb(97.647059%, 97.647059%, 97.647059%)" fill-opacity="1" d="M 15.609375 8.464844 C 15.609375 12.410156 12.410156 15.609375 8.464844 15.609375 C 4.519531 15.609375 1.324219 12.410156 1.324219 8.464844 C 1.324219 4.519531 4.519531 1.324219 8.464844 1.324219 C 12.410156 1.324219 15.609375 4.519531 15.609375 8.464844 Z M 15.609375 8.464844 "/>
<path fill-rule="nonzero" fill="rgb(60%, 60%, 60%)" fill-opacity="1" d="M 5.554688 4.496094 L 5.554688 5.554688 L 4.496094 5.554688 L 4.496094 5.820312 L 5.554688 5.820312 L 5.554688 6.878906 L 5.820312 6.878906 L 5.820312 5.820312 L 6.878906 5.820312 L 6.878906 5.554688 L 5.820312 5.554688 L 5.820312 4.496094 Z M 5.554688 4.496094 "/>
<path fill-rule="nonzero" fill="rgb(91.764706%, 43.921569%, 47.058824%)" fill-opacity="1" d="M 14.023438 10.847656 C 14.023438 12.601562 12.601562 14.023438 10.847656 14.023438 C 9.09375 14.023438 7.671875 12.601562 7.671875 10.847656 C 7.671875 9.09375 9.09375 7.671875 10.847656 7.671875 C 12.601562 7.671875 14.023438 9.09375 14.023438 10.847656 Z M 14.023438 10.847656 "/>
<path fill-rule="nonzero" fill="rgb(100%, 100%, 100%)" fill-opacity="1" d="M 9.523438 10.320312 L 12.171875 10.320312 L 12.171875 10.582031 L 9.523438 10.582031 Z M 9.523438 10.320312 "/>
<path fill-rule="nonzero" fill="rgb(100%, 100%, 100%)" fill-opacity="1" d="M 9.523438 11.113281 L 12.171875 11.113281 L 12.171875 11.375 L 9.523438 11.375 Z M 9.523438 11.113281 "/>
<path fill-rule="nonzero" fill="rgb(60%, 60%, 60%)" fill-opacity="1" d="M 4.496094 10.582031 L 6.878906 10.582031 L 6.878906 10.847656 L 4.496094 10.847656 Z M 4.496094 10.582031 "/>
<path fill-rule="nonzero" fill="rgb(60%, 60%, 60%)" fill-opacity="1" d="M 11.859375 4.742188 L 11.113281 5.492188 L 10.363281 4.742188 L 10.175781 4.929688 L 10.925781 5.679688 L 10.175781 6.425781 L 10.363281 6.613281 L 11.113281 5.867188 L 11.859375 6.613281 L 12.046875 6.425781 L 11.300781 5.679688 L 12.046875 4.929688 Z M 11.859375 4.742188 "/>
</svg>
