<?xml version="1.0" encoding="UTF-8"?>
<svg xmlns="http://www.w3.org/2000/svg" xmlns:xlink="http://www.w3.org/1999/xlink" width="64" height="64" viewBox="0 0 64 64">
<defs>
<filter id="filter-remove-color" x="0%" y="0%" width="100%" height="100%">
<feColorMatrix color-interpolation-filters="sRGB" values="0 0 0 0 1 0 0 0 0 1 0 0 0 0 1 0 0 0 1 0" />
</filter>
<mask id="mask-0">
<g filter="url(#filter-remove-color)">
<rect x="-6.4" y="-6.4" width="76.8" height="76.8" fill="rgb(0%, 0%, 0%)" fill-opacity="0.35"/>
</g>
</mask>
<clipPath id="clip-0">
<rect x="0" y="0" width="17" height="17"/>
</clipPath>
<g id="source-10777" clip-path="url(#clip-0)">
<path fill-rule="nonzero" fill="rgb(100%, 100%, 100%)" fill-opacity="1" d="M 3.703125 11.109375 L 13.230469 11.109375 C 13.375 11.109375 13.492188 11.230469 13.492188 11.375 L 13.492188 12.167969 C 13.492188 12.3125 13.375 12.433594 13.230469 12.433594 L 3.703125 12.433594 C 3.558594 12.433594 3.441406 12.3125 3.441406 12.167969 L 3.441406 11.375 C 3.441406 11.230469 3.558594 11.109375 3.703125 11.109375 Z M 3.703125 11.109375 "/>
</g>
<mask id="mask-1">
<g filter="url(#filter-remove-color)">
<rect x="-6.4" y="-6.4" width="76.8" height="76.8" fill="rgb(0%, 0%, 0%)" fill-opacity="0.35"/>
</g>
</mask>
<clipPath id="clip-1">
<rect x="0" y="0" width="17" height="17"/>
</clipPath>
<g id="source-10785" clip-path="url(#clip-1)">
<path fill-rule="nonzero" fill="rgb(0%, 0%, 0%)" fill-opacity="1" d="M 8.464844 1.324219 C 7.089844 1.324219 5.804688 1.710938 4.714844 2.382812 L 12.21875 2.382812 C 11.128906 1.710938 9.84375 1.324219 8.464844 1.324219 Z M 8.464844 1.324219 "/>
</g>
<mask id="mask-2">
<g filter="url(#filter-remove-color)">
<rect x="-6.4" y="-6.4" width="76.8" height="76.8" fill="rgb(0%, 0%, 0%)" fill-opacity="0.35"/>
</g>
</mask>
<clipPath id="clip-2">
<rect x="0" y="0" width="17" height="17"/>
</clipPath>
<g id="source-10789" clip-path="url(#clip-2)">
<path fill-rule="nonzero" fill="rgb(0%, 0%, 0%)" fill-opacity="1" d="M 7.410156 1.578125 L 9.523438 1.578125 C 9.671875 1.578125 9.789062 1.699219 9.789062 1.84375 C 9.789062 1.992188 9.671875 2.109375 9.523438 2.109375 L 7.410156 2.109375 C 7.261719 2.109375 7.144531 1.992188 7.144531 1.84375 C 7.144531 1.699219 7.261719 1.578125 7.410156 1.578125 Z M 7.410156 1.578125 "/>
</g>
<mask id="mask-3">
<g filter="url(#filter-remove-color)">
<rect x="-6.4" y="-6.4" width="76.8" height="76.8" fill="rgb(0%, 0%, 0%)" fill-opacity="0.5"/>
</g>
</mask>
<clipPath id="clip-3">
<rect x="0" y="0" width="17" height="17"/>
</clipPath>
<g id="source-10796" clip-path="url(#clip-3)">
<path fill-rule="nonzero" fill="rgb(100%, 100%, 100%)" fill-opacity="1" d="M 7.570312 6.878906 C 7.507812 7.128906 7.449219 7.390625 7.410156 7.675781 L 7.9375 7.675781 L 7.9375 6.878906 Z M 7.9375 7.675781 L 7.9375 8.46875 L 8.996094 8.46875 L 8.996094 7.675781 Z M 8.996094 7.675781 L 9.519531 7.675781 C 9.484375 7.40625 9.429688 7.140625 9.363281 6.878906 L 8.996094 6.878906 Z M 8.996094 8.46875 L 8.996094 9.261719 L 9.558594 9.261719 C 9.578125 8.984375 9.585938 8.722656 9.578125 8.46875 Z M 8.996094 9.261719 L 7.9375 9.261719 L 7.9375 10.054688 L 8.996094 10.054688 Z M 7.9375 9.261719 L 7.9375 8.46875 L 7.355469 8.46875 C 7.347656 8.722656 7.355469 8.984375 7.375 9.261719 Z M 7.9375 9.261719 "/>
</g>
</defs>
<path fill-rule="nonzero" fill="rgb(54.117647%, 67.45098%, 100%)" fill-opacity="1" d="M 8.464844 1.320312 C 12.410156 1.320312 15.609375 4.519531 15.609375 8.464844 C 15.609375 12.410156 12.410156 15.605469 8.464844 15.605469 C 4.519531 15.605469 1.324219 12.410156 1.324219 8.464844 C 1.324219 4.519531 4.519531 1.320312 8.464844 1.320312 Z M 8.464844 1.320312 "/>
<g mask="url(#mask-0)">
<use xlink:href="#source-10777"/>
</g>
<path fill-rule="nonzero" fill="rgb(80%, 87.45098%, 100%)" fill-opacity="1" d="M 4.628906 10.308594 L 5.6875 10.308594 C 5.761719 10.308594 5.820312 10.367188 5.820312 10.441406 L 5.820312 11.5 C 5.820312 11.574219 5.761719 11.632812 5.6875 11.632812 L 4.628906 11.632812 C 4.558594 11.632812 4.496094 11.574219 4.496094 11.5 L 4.496094 10.441406 C 4.496094 10.367188 4.558594 10.308594 4.628906 10.308594 Z M 4.628906 10.308594 "/>
<path fill-rule="nonzero" fill="rgb(80%, 87.45098%, 100%)" fill-opacity="1" d="M 6.835938 10.308594 L 7.894531 10.308594 C 7.96875 10.308594 8.027344 10.367188 8.027344 10.441406 L 8.027344 11.5 C 8.027344 11.574219 7.96875 11.632812 7.894531 11.632812 L 6.835938 11.632812 C 6.761719 11.632812 6.703125 11.574219 6.703125 11.5 L 6.703125 10.441406 C 6.703125 10.367188 6.761719 10.308594 6.835938 10.308594 Z M 6.835938 10.308594 "/>
<path fill-rule="nonzero" fill="rgb(80%, 87.45098%, 100%)" fill-opacity="1" d="M 9.039062 10.308594 L 10.097656 10.308594 C 10.171875 10.308594 10.230469 10.367188 10.230469 10.441406 L 10.230469 11.5 C 10.230469 11.574219 10.171875 11.632812 10.097656 11.632812 L 9.039062 11.632812 C 8.96875 11.632812 8.90625 11.574219 8.90625 11.5 L 8.90625 10.441406 C 8.90625 10.367188 8.96875 10.308594 9.039062 10.308594 Z M 9.039062 10.308594 "/>
<path fill-rule="nonzero" fill="rgb(80%, 87.45098%, 100%)" fill-opacity="1" d="M 11.246094 10.308594 L 12.304688 10.308594 C 12.375 10.308594 12.4375 10.367188 12.4375 10.441406 L 12.4375 11.5 C 12.4375 11.574219 12.375 11.632812 12.304688 11.632812 L 11.246094 11.632812 C 11.171875 11.632812 11.113281 11.574219 11.113281 11.5 L 11.113281 10.441406 C 11.113281 10.367188 11.171875 10.308594 11.246094 10.308594 Z M 11.246094 10.308594 "/>
<g mask="url(#mask-1)">
<use xlink:href="#source-10785"/>
</g>
<g mask="url(#mask-2)">
<use xlink:href="#source-10789"/>
</g>
<path fill-rule="nonzero" fill="rgb(32.156863%, 32.156863%, 57.254902%)" fill-opacity="1" d="M 9.394531 10.050781 C 9.394531 10.050781 10.570312 11.09375 10.582031 12.695312 C 10.59375 12.894531 10.496094 13.082031 10.328125 13.183594 C 10.160156 13.285156 9.949219 13.285156 9.78125 13.183594 C 9.609375 13.082031 9.511719 12.894531 9.523438 12.695312 C 9.722656 10.839844 9.128906 10.84375 9.128906 10.84375 Z M 9.394531 10.050781 "/>
<path fill-rule="nonzero" fill="rgb(41.176471%, 41.176471%, 65.098039%)" fill-opacity="1" d="M 7.539062 10.050781 C 7.539062 10.050781 6.363281 11.09375 6.351562 12.695312 C 6.339844 12.894531 6.4375 13.082031 6.605469 13.183594 C 6.773438 13.285156 6.984375 13.285156 7.152344 13.183594 C 7.320312 13.082031 7.421875 12.894531 7.40625 12.695312 C 7.210938 10.839844 7.804688 10.84375 7.804688 10.84375 Z M 7.539062 10.050781 "/>
<path fill-rule="nonzero" fill="rgb(41.176471%, 41.176471%, 65.098039%)" fill-opacity="1" d="M 8.46875 4.761719 C 8.46875 4.761719 7.894531 5.546875 7.570312 6.875 L 7.9375 6.875 L 7.9375 7.671875 L 8.996094 7.671875 L 8.996094 6.875 L 9.363281 6.875 C 9.039062 5.546875 8.46875 4.757812 8.46875 4.757812 Z M 9.363281 6.875 C 9.390625 6.980469 9.414062 7.085938 9.4375 7.195312 C 9.414062 7.082031 9.390625 6.980469 9.363281 6.875 Z M 8.996094 7.671875 L 8.996094 8.464844 L 9.578125 8.464844 C 9.574219 8.199219 9.554688 7.933594 9.519531 7.671875 Z M 9.558594 9.257812 L 8.996094 9.257812 L 8.996094 10.050781 L 7.9375 10.050781 L 7.9375 9.257812 L 7.375 9.257812 C 7.394531 9.515625 7.425781 9.777344 7.476562 10.050781 L 7.804688 11.902344 L 9.128906 11.902344 L 9.457031 10.050781 C 9.503906 9.789062 9.539062 9.523438 9.558594 9.257812 Z M 7.355469 8.464844 L 7.9375 8.464844 L 7.9375 7.671875 L 7.410156 7.671875 C 7.378906 7.933594 7.359375 8.199219 7.355469 8.464844 Z M 7.9375 8.464844 L 7.9375 9.257812 L 8.996094 9.257812 L 8.996094 8.464844 Z M 7.570312 6.875 C 7.542969 6.980469 7.515625 7.082031 7.496094 7.195312 C 7.519531 7.085938 7.546875 6.980469 7.570312 6.875 Z M 7.570312 6.875 "/>
<g mask="url(#mask-3)">
<use xlink:href="#source-10796"/>
</g>
</svg>
