<?xml version="1.0" encoding="UTF-8"?>
<svg xmlns="http://www.w3.org/2000/svg" xmlns:xlink="http://www.w3.org/1999/xlink" width="64" height="64" viewBox="0 0 64 64">
<path fill-rule="nonzero" fill="rgb(100%, 53.333333%, 18.823529%)" fill-opacity="1" d="M 8.464844 1.324219 C 11.007812 1.292969 13.371094 2.648438 14.648438 4.871094 C 15.929688 7.09375 15.929688 9.839844 14.648438 12.0625 C 13.371094 14.285156 11.007812 15.640625 8.464844 15.609375 C 5.925781 15.640625 3.5625 14.285156 2.28125 12.0625 C 1.003906 9.839844 1.003906 7.09375 2.28125 4.871094 C 3.5625 2.648438 5.925781 1.292969 8.464844 1.324219 Z M 8.464844 1.324219 "/>
<path fill-rule="nonzero" fill="rgb(97.647059%, 97.647059%, 97.647059%)" fill-opacity="1" d="M 6.453125 3.378906 C 5.058594 3.378906 3.699219 3.796875 2.539062 4.574219 C 2.089844 5.28125 1.769531 6.0625 1.589844 6.882812 C 2.230469 6.109375 2.792969 5.558594 3.363281 5.175781 C 4.476562 8.246094 4.535156 8.253906 3.710938 4.972656 C 4.523438 4.515625 5.367188 4.367188 6.453125 4.359375 C 6.546875 4.359375 6.636719 4.367188 6.730469 4.371094 C 6.71875 6.082031 6.453125 9.605469 5.511719 10.890625 C 4.152344 7.347656 4.316406 7.980469 5.234375 11 C 5.164062 11.035156 5.101562 11.082031 5.042969 11.132812 L 4.621094 10.8125 L 4.832031 11.425781 C 3.933594 11.5625 3.039062 11.335938 2.144531 11.667969 C 2.265625 11.910156 2.386719 12.132812 2.53125 12.359375 C 3.375 12.164062 3.992188 11.4375 4.839844 11.921875 C 4.855469 11.992188 4.886719 12.050781 4.917969 12.109375 L 2.941406 12.914062 C 2.988281 12.972656 3.027344 13.03125 3.078125 13.089844 C 3.742188 12.769531 4.429688 12.644531 5.050781 12.300781 C 5.113281 12.359375 5.195312 12.398438 5.28125 12.429688 L 4.085938 14.070312 C 4.152344 14.125 4.226562 14.183594 4.292969 14.234375 C 4.726562 13.691406 4.929688 13.070312 5.484375 12.46875 C 5.554688 12.472656 5.640625 12.484375 5.722656 12.476562 C 5.625 13.363281 5.6875 14.257812 5.90625 15.125 C 6.183594 15.234375 6.476562 15.324219 6.769531 15.394531 C 6.550781 14.394531 5.957031 13.46875 6.011719 12.414062 C 6.285156 12.519531 6.425781 12.660156 6.730469 12.871094 C 6.59375 12.664062 6.425781 12.53125 6.3125 12.269531 C 6.335938 12.226562 6.359375 12.183594 6.375 12.136719 C 7.773438 12.671875 9.082031 12.824219 10.5 13.6875 L 11.277344 14.269531 C 10.960938 14.75 10.535156 15.148438 10.039062 15.433594 C 10.859375 15.246094 11.640625 14.910156 12.34375 14.445312 C 13.117188 13.277344 13.527344 11.90625 13.53125 10.503906 C 13.53125 6.59375 10.375 3.378906 6.453125 3.378906 M 7.613281 4.476562 C 9.953125 4.941406 11.996094 6.800781 12.4375 8.980469 L 12.332031 9.117188 C 12.136719 9.460938 10.289062 10.054688 9.617188 10.269531 C 8.339844 10.546875 7.421875 11.203125 6.195312 11.25 C 6.121094 11.148438 6.03125 11.0625 5.925781 11 C 6.671875 9.65625 6.425781 6.0625 7.613281 4.476562 M 12.257812 9.582031 L 12.535156 9.851562 C 12.535156 10.070312 12.511719 10.285156 12.476562 10.503906 C 12.292969 11.664062 12.0625 12.8125 11.585938 13.753906 L 10.570312 13.414062 C 9.410156 12.84375 7.671875 12.472656 6.433594 11.648438 C 8.207031 10.617188 10.3125 10.203125 12.257812 9.582031 M 7.738281 14.601562 C 7.878906 15.011719 8.222656 15.289062 8.476562 15.609375 C 8.589844 15.609375 8.707031 15.605469 8.820312 15.597656 C 8.417969 15.265625 8.074219 14.976562 7.738281 14.601562 "/>
</svg>
