<?xml version="1.0" encoding="UTF-8"?>
<svg xmlns="http://www.w3.org/2000/svg" xmlns:xlink="http://www.w3.org/1999/xlink" width="64" height="64" viewBox="0 0 64 64">
<defs>
<filter id="filter-remove-color" x="0%" y="0%" width="100%" height="100%">
<feColorMatrix color-interpolation-filters="sRGB" values="0 0 0 0 1 0 0 0 0 1 0 0 0 0 1 0 0 0 1 0" />
</filter>
<mask id="mask-0">
<g filter="url(#filter-remove-color)">
<rect x="-6.4" y="-6.4" width="76.8" height="76.8" fill="rgb(0%, 0%, 0%)" fill-opacity="0.1"/>
</g>
</mask>
<clipPath id="clip-0">
<rect x="0" y="0" width="17" height="17"/>
</clipPath>
<g id="source-4007" clip-path="url(#clip-0)">
<path fill-rule="nonzero" fill="rgb(0%, 0%, 0%)" fill-opacity="1" d="M 13.488281 11.617188 L 9.226562 9.746094 L 9.101562 8.644531 Z M 8.46875 2.910156 L 8.980469 7.539062 L 8.085938 8.195312 Z M 3.441406 11.617188 L 7.191406 8.859375 L 8.207031 9.304688 Z M 3.441406 11.617188 "/>
</g>
</defs>
<path fill-rule="nonzero" fill="rgb(97.647059%, 97.647059%, 97.647059%)" fill-opacity="1" d="M 15.609375 8.464844 C 15.609375 12.410156 12.410156 15.609375 8.464844 15.609375 C 4.519531 15.609375 1.324219 12.410156 1.324219 8.464844 C 1.324219 4.519531 4.519531 1.324219 8.464844 1.324219 C 12.410156 1.324219 15.609375 4.519531 15.609375 8.464844 Z M 15.609375 8.464844 "/>
<path fill-rule="nonzero" fill="rgb(100%, 100%, 100%)" fill-opacity="1" d="M 8.726562 5.328125 L 5.375 11.132812 L 12.078125 11.132812 Z M 8.726562 5.328125 "/>
<path fill-rule="nonzero" fill="rgb(29.803922%, 68.627451%, 31.372549%)" fill-opacity="1" d="M 8.46875 9.414062 C 8.121094 10.160156 7.9375 10.898438 8.46875 11.617188 L 13.492188 11.617188 C 12.148438 10.9375 11.734375 9.570312 9.226562 9.746094 Z M 8.46875 9.414062 "/>
<path fill-rule="nonzero" fill="rgb(29.803922%, 68.627451%, 31.372549%)" fill-opacity="1" d="M 7.191406 8.855469 C 5.417969 9.253906 4.4375 10.441406 3.441406 11.617188 L 8.46875 11.617188 L 8.46875 9.414062 Z M 7.191406 8.855469 "/>
<path fill-rule="nonzero" fill="rgb(12.941176%, 58.823529%, 95.294118%)" fill-opacity="1" d="M 8.46875 2.910156 L 3.441406 11.617188 L 8.980469 7.539062 C 9.6875 5.757812 8.957031 4.367188 8.46875 2.910156 Z M 8.46875 2.910156 "/>
<path fill-rule="nonzero" fill="rgb(95.686275%, 26.27451%, 21.176471%)" fill-opacity="1" d="M 8.46875 2.910156 L 9.226562 9.746094 L 13.492188 11.617188 Z M 8.46875 2.910156 "/>
<g mask="url(#mask-0)">
<use xlink:href="#source-4007"/>
</g>
</svg>
