<?xml version="1.0" encoding="UTF-8"?>
<svg xmlns="http://www.w3.org/2000/svg" xmlns:xlink="http://www.w3.org/1999/xlink" width="64" height="64" viewBox="0 0 64 64">
<path fill-rule="nonzero" fill="rgb(87.45098%, 23.529412%, 23.529412%)" fill-opacity="1" d="M 15.609375 8.464844 C 15.609375 12.410156 12.410156 15.609375 8.464844 15.609375 C 4.519531 15.609375 1.324219 12.410156 1.324219 8.464844 C 1.324219 4.519531 4.519531 1.324219 8.464844 1.324219 C 12.410156 1.324219 15.609375 4.519531 15.609375 8.464844 Z M 15.609375 8.464844 "/>
<path fill-rule="nonzero" fill="rgb(100%, 100%, 100%)" fill-opacity="1" d="M 8.644531 4.824219 C 8.644531 4.824219 8.878906 7.019531 7.210938 9.917969 C 5.539062 12.8125 5.050781 12.425781 4.875 12.324219 C 4.699219 12.222656 4.472656 11.902344 5.214844 11.246094 C 5.953125 10.59375 6.242188 10.605469 6.242188 10.605469 C 6.242188 10.605469 5.566406 11.019531 5.300781 11.421875 C 5.039062 11.824219 4.824219 12.074219 4.886719 12.1875 C 4.949219 12.296875 5.707031 11.722656 6.019531 11.234375 C 6.519531 10.457031 7.460938 9.011719 7.898438 7.632812 C 8.339844 6.253906 8.640625 4.824219 8.640625 4.824219 "/>
<path fill-rule="nonzero" fill="rgb(100%, 100%, 100%)" fill-opacity="1" d="M 12.941406 9.828125 C 12.941406 9.828125 12.90625 9.929688 12.449219 9.890625 C 11.992188 9.855469 10.21875 9.304688 9.269531 8.175781 C 8.316406 7.050781 8.238281 5.503906 8.171875 4.695312 C 8.105469 3.890625 8.46875 4.113281 8.519531 4.214844 C 8.601562 4.28125 8.640625 4.503906 8.640625 4.503906 C 8.640625 4.503906 8.613281 4.171875 8.46875 4.03125 C 8.324219 3.890625 8.199219 3.890625 8.054688 4.132812 C 7.914062 4.375 7.84375 5.054688 7.964844 5.707031 C 8.082031 6.359375 8.5625 7.855469 9.164062 8.546875 C 9.761719 9.238281 10.960938 9.84375 11.847656 10.023438 C 12.734375 10.199219 12.941406 9.832031 12.941406 9.832031 "/>
<path fill-rule="nonzero" fill="rgb(100%, 100%, 100%)" fill-opacity="1" d="M 7.335938 9.933594 C 7.335938 9.933594 9.027344 9.394531 10.628906 9.246094 C 12.230469 9.09375 12.78125 9.253906 12.925781 9.367188 C 13.066406 9.480469 13.066406 9.605469 13.066406 9.605469 C 13.066406 9.605469 13.242188 9.433594 13.125 9.253906 C 13.027344 9.070312 12.871094 8.917969 11.601562 8.957031 C 10.335938 8.992188 10.242188 9.042969 9.078125 9.257812 C 7.910156 9.46875 7.335938 9.933594 7.335938 9.933594 "/>
</svg>
