<?xml version="1.0" encoding="UTF-8"?>
<svg xmlns="http://www.w3.org/2000/svg" xmlns:xlink="http://www.w3.org/1999/xlink" width="64" height="64" viewBox="0 0 64 64">
<defs>
<filter id="filter-remove-color" x="0%" y="0%" width="100%" height="100%">
<feColorMatrix color-interpolation-filters="sRGB" values="0 0 0 0 1 0 0 0 0 1 0 0 0 0 1 0 0 0 1 0" />
</filter>
<mask id="mask-0">
<g filter="url(#filter-remove-color)">
<rect x="-6.4" y="-6.4" width="76.8" height="76.8" fill="rgb(0%, 0%, 0%)" fill-opacity="0.06"/>
</g>
</mask>
<clipPath id="clip-0">
<rect x="0" y="0" width="17" height="17"/>
</clipPath>
<g id="source-8898" clip-path="url(#clip-0)">
<path fill-rule="nonzero" fill="rgb(0%, 0%, 0%)" fill-opacity="1" d="M 8.464844 1.324219 C 4.519531 1.324219 1.324219 4.519531 1.324219 8.464844 C 1.324219 8.464844 1.324219 8.46875 1.324219 8.46875 L 15.609375 8.46875 C 15.609375 8.46875 15.609375 8.464844 15.609375 8.464844 C 15.609375 4.519531 12.410156 1.324219 8.464844 1.324219 Z M 8.464844 1.324219 "/>
</g>
</defs>
<path fill-rule="nonzero" fill="rgb(97.647059%, 97.647059%, 97.647059%)" fill-opacity="1" d="M 15.609375 8.464844 C 15.609375 12.410156 12.410156 15.609375 8.464844 15.609375 C 4.519531 15.609375 1.324219 12.410156 1.324219 8.464844 C 1.324219 4.519531 4.519531 1.324219 8.464844 1.324219 C 12.410156 1.324219 15.609375 4.519531 15.609375 8.464844 Z M 15.609375 8.464844 "/>
<g mask="url(#mask-0)">
<use xlink:href="#source-8898"/>
</g>
<path fill-rule="nonzero" fill="rgb(20%, 20%, 20%)" fill-opacity="1" d="M 7.445312 12.71875 L 9.515625 8 L 6.746094 8 L 6.746094 7.390625 L 10.183594 7.390625 L 10.183594 7.914062 L 8.144531 12.71875 Z M 7.445312 12.71875 "/>
<path fill-rule="nonzero" fill="rgb(82.745098%, 37.254902%, 37.254902%)" fill-opacity="1" d="M 4.722656 4.761719 L 5.636719 4.761719 L 5.636719 4.941406 L 4.9375 4.941406 L 4.9375 5.410156 L 5.566406 5.410156 L 5.566406 5.59375 L 4.9375 5.59375 L 4.9375 6.351562 L 4.722656 6.351562 Z M 4.722656 4.761719 "/>
<path fill-rule="nonzero" fill="rgb(82.745098%, 37.254902%, 37.254902%)" fill-opacity="1" d="M 6.726562 5.605469 C 6.773438 5.621094 6.820312 5.65625 6.863281 5.707031 C 6.90625 5.757812 6.949219 5.828125 6.992188 5.917969 L 7.210938 6.351562 L 6.980469 6.351562 L 6.777344 5.941406 C 6.726562 5.835938 6.675781 5.765625 6.625 5.730469 C 6.574219 5.695312 6.507812 5.679688 6.425781 5.679688 L 6.191406 5.679688 L 6.191406 6.351562 L 5.976562 6.351562 L 5.976562 4.761719 L 6.460938 4.761719 C 6.640625 4.761719 6.777344 4.800781 6.867188 4.875 C 6.957031 4.953125 7 5.066406 7 5.21875 C 7 5.320312 6.976562 5.402344 6.929688 5.46875 C 6.882812 5.535156 6.816406 5.582031 6.726562 5.605469 Z M 6.191406 4.9375 L 6.191406 5.503906 L 6.460938 5.503906 C 6.5625 5.503906 6.640625 5.480469 6.695312 5.429688 C 6.746094 5.382812 6.773438 5.3125 6.773438 5.21875 C 6.773438 5.125 6.746094 5.058594 6.695312 5.011719 C 6.640625 4.960938 6.5625 4.9375 6.460938 4.9375 Z M 6.191406 4.9375 "/>
<path fill-rule="nonzero" fill="rgb(82.745098%, 37.254902%, 37.254902%)" fill-opacity="1" d="M 7.488281 4.761719 L 7.703125 4.761719 L 7.703125 6.351562 L 7.488281 6.351562 Z M 7.488281 4.761719 "/>
<path fill-rule="nonzero" fill="rgb(82.745098%, 37.254902%, 37.254902%)" fill-opacity="1" d="M 8.34375 4.9375 L 8.34375 6.171875 L 8.605469 6.171875 C 8.824219 6.171875 8.984375 6.125 9.085938 6.023438 C 9.1875 5.925781 9.238281 5.769531 9.238281 5.554688 C 9.238281 5.34375 9.1875 5.1875 9.085938 5.085938 C 8.984375 4.988281 8.824219 4.9375 8.605469 4.9375 Z M 8.128906 4.761719 L 8.570312 4.761719 C 8.878906 4.761719 9.105469 4.828125 9.25 4.953125 C 9.394531 5.082031 9.464844 5.28125 9.464844 5.554688 C 9.464844 5.828125 9.394531 6.027344 9.246094 6.15625 C 9.101562 6.285156 8.878906 6.351562 8.570312 6.351562 L 8.128906 6.351562 Z M 8.128906 4.761719 "/>
<path fill-rule="nonzero" fill="rgb(82.745098%, 37.254902%, 37.254902%)" fill-opacity="1" d="M 10.300781 4.972656 L 10.007812 5.765625 L 10.589844 5.765625 Z M 10.179688 4.761719 L 10.421875 4.761719 L 11.027344 6.351562 L 10.804688 6.351562 L 10.660156 5.941406 L 9.941406 5.941406 L 9.796875 6.351562 L 9.570312 6.351562 Z M 10.179688 4.761719 "/>
<path fill-rule="nonzero" fill="rgb(82.745098%, 37.254902%, 37.254902%)" fill-opacity="1" d="M 10.871094 4.761719 L 11.101562 4.761719 L 11.542969 5.414062 L 11.980469 4.761719 L 12.210938 4.761719 L 11.648438 5.59375 L 11.648438 6.351562 L 11.433594 6.351562 L 11.433594 5.59375 Z M 10.871094 4.761719 "/>
</svg>
