<?xml version="1.0" encoding="UTF-8"?>
<svg xmlns="http://www.w3.org/2000/svg" xmlns:xlink="http://www.w3.org/1999/xlink" width="64" height="64" viewBox="0 0 64 64">
<path fill-rule="nonzero" fill="rgb(90.980392%, 90.980392%, 90.980392%)" fill-opacity="1" d="M 8.464844 1.324219 C 12.410156 1.324219 15.609375 4.519531 15.609375 8.464844 C 15.609375 12.410156 12.410156 15.609375 8.464844 15.609375 C 4.519531 15.609375 1.324219 12.410156 1.324219 8.464844 C 1.324219 4.519531 4.519531 1.324219 8.464844 1.324219 Z M 8.464844 1.324219 "/>
<path fill-rule="nonzero" fill="rgb(90.196078%, 63.921569%, 27.058824%)" fill-opacity="1" d="M 4.992188 5.050781 C 4.855469 5.050781 4.738281 5.191406 4.738281 5.332031 L 4.738281 10.019531 C 4.738281 10.164062 4.90625 10.328125 5.050781 10.328125 L 7.382812 10.328125 L 6.292969 12.503906 L 6.914062 12.503906 L 8.003906 10.328125 L 8.15625 10.328125 L 8.15625 12.503906 L 8.777344 12.503906 L 8.777344 10.328125 L 8.9375 10.328125 L 10.027344 12.503906 L 10.648438 12.503906 L 9.558594 10.328125 L 11.882812 10.328125 C 12.03125 10.328125 12.195312 10.164062 12.195312 10.019531 L 12.195312 5.332031 C 12.195312 5.183594 12.058594 5.050781 11.914062 5.050781 Z M 4.992188 5.050781 "/>
<path fill-rule="nonzero" fill="rgb(26.27451%, 58.431373%, 23.137255%)" fill-opacity="1" d="M 5.671875 5.671875 L 11.261719 5.671875 C 11.433594 5.671875 11.574219 5.808594 11.574219 5.980469 L 11.574219 9.398438 C 11.574219 9.570312 11.433594 9.707031 11.261719 9.707031 L 5.671875 9.707031 C 5.5 9.707031 5.363281 9.570312 5.363281 9.398438 L 5.363281 5.980469 C 5.363281 5.808594 5.5 5.671875 5.671875 5.671875 Z M 5.671875 5.671875 "/>
<path fill-rule="nonzero" fill="rgb(97.647059%, 97.647059%, 97.647059%)" fill-opacity="1" d="M 7.003906 6.3125 C 6.855469 6.34375 6.921875 6.457031 6.910156 6.554688 C 6.890625 6.644531 6.789062 6.796875 6.824219 6.828125 C 6.785156 6.984375 6.761719 7.199219 6.703125 7.371094 C 6.644531 7.523438 6.601562 7.671875 6.5625 7.828125 C 6.519531 7.96875 6.488281 8.117188 6.460938 8.261719 C 6.511719 8.402344 6.414062 8.488281 6.429688 8.625 C 6.558594 8.546875 6.515625 8.730469 6.417969 8.734375 C 6.621094 8.726562 6.574219 8.46875 6.578125 8.339844 C 6.667969 8.273438 6.664062 8.097656 6.714844 7.988281 C 6.617188 8.054688 6.777344 7.898438 6.75 7.84375 C 6.796875 7.628906 7.054688 7.71875 7.210938 7.679688 C 7.289062 7.742188 7.265625 7.90625 7.371094 7.90625 C 7.308594 8.050781 7.441406 8.125 7.460938 8.253906 C 7.453125 8.390625 7.53125 8.671875 7.703125 8.601562 C 7.726562 8.679688 7.613281 8.691406 7.585938 8.648438 C 7.621094 8.921875 7.90625 8.59375 7.726562 8.566406 C 7.667969 8.480469 7.648438 8.324219 7.621094 8.207031 C 7.527344 8.082031 7.566406 7.980469 7.492188 7.828125 C 7.414062 7.675781 7.628906 7.625 7.449219 7.542969 C 7.273438 7.574219 7.460938 7.328125 7.3125 7.273438 C 7.339844 7.195312 7.167969 7.085938 7.292969 7.167969 C 7.226562 7.023438 7.242188 6.6875 7.054688 6.691406 C 7.058594 6.640625 7.160156 6.59375 7.082031 6.542969 C 7.007812 6.476562 7.09375 6.347656 7.003906 6.3125 Z M 7.53125 7.625 C 7.515625 7.640625 7.539062 7.628906 7.53125 7.625 Z M 7.679688 8.609375 C 7.652344 8.617188 7.695312 8.632812 7.679688 8.609375 Z M 6.675781 8.128906 C 6.710938 8.152344 6.6875 8.089844 6.675781 8.128906 Z M 7.03125 6.367188 C 7.074219 6.390625 6.988281 6.386719 7.03125 6.367188 Z M 7.019531 6.449219 C 7.054688 6.476562 6.988281 6.46875 7.019531 6.449219 Z M 8.101562 6.546875 C 8.050781 6.570312 8.152344 6.582031 8.101562 6.546875 Z M 6.890625 6.554688 C 6.910156 6.585938 6.871094 6.570312 6.890625 6.554688 Z M 7.949219 6.5625 C 7.851562 6.609375 7.835938 6.6875 7.917969 6.773438 C 7.925781 6.996094 7.921875 7.222656 7.964844 7.445312 C 7.941406 7.632812 8.027344 7.804688 8 7.992188 C 8.015625 8.140625 8.007812 8.234375 8.015625 8.371094 C 8.027344 8.476562 7.847656 8.664062 7.984375 8.71875 C 8.1875 8.71875 8.425781 8.753906 8.59375 8.703125 C 8.6875 8.636719 8.882812 8.691406 8.949219 8.511719 C 9.058594 8.5 8.902344 8.3125 9.011719 8.40625 C 9.121094 8.46875 9.085938 8.226562 9.132812 8.238281 C 9.003906 8.183594 9.222656 8.230469 9.140625 8.113281 C 9.179688 7.910156 8.933594 7.777344 8.90625 7.625 C 8.808594 7.59375 8.523438 7.585938 8.589844 7.476562 C 8.511719 7.394531 8.667969 7.441406 8.652344 7.332031 C 8.75 7.433594 8.703125 7.179688 8.800781 7.160156 C 8.832031 6.980469 8.800781 6.765625 8.644531 6.648438 C 8.457031 6.566406 8.234375 6.554688 8.046875 6.585938 C 8.015625 6.574219 7.984375 6.558594 7.949219 6.5625 Z M 7.933594 6.621094 C 7.976562 6.652344 7.886719 6.640625 7.933594 6.621094 Z M 8.25 6.625 C 8.28125 6.652344 8.214844 6.648438 8.25 6.625 Z M 8.136719 6.636719 C 8.167969 6.679688 8.101562 6.65625 8.136719 6.636719 Z M 8.402344 6.640625 C 8.445312 6.675781 8.363281 6.664062 8.402344 6.640625 Z M 6.90625 6.648438 C 6.945312 6.675781 6.863281 6.671875 6.90625 6.648438 Z M 8.464844 6.652344 C 8.503906 6.6875 8.421875 6.675781 8.464844 6.652344 Z M 8.089844 6.652344 C 8.125 6.667969 8.058594 6.675781 8.089844 6.652344 Z M 8.265625 6.667969 C 8.425781 6.671875 8.65625 6.703125 8.648438 6.921875 C 8.734375 6.957031 8.648438 7.136719 8.578125 7.226562 C 8.484375 7.347656 8.414062 7.445312 8.285156 7.472656 C 8.171875 7.492188 8.011719 7.574219 8.082031 7.417969 C 8.039062 7.21875 8.070312 7.015625 8.027344 6.8125 C 8.011719 6.648438 8.175781 6.691406 8.265625 6.667969 Z M 8.683594 6.96875 C 8.671875 6.941406 8.671875 6.976562 8.683594 6.96875 Z M 8.542969 6.675781 C 8.625 6.699219 8.480469 6.734375 8.542969 6.675781 Z M 6.96875 6.679688 C 7.089844 6.785156 7.035156 7 7.113281 7.152344 C 7.132812 7.289062 7.203125 7.46875 7.1875 7.566406 C 7.0625 7.5625 6.816406 7.640625 6.757812 7.578125 C 6.835938 7.597656 6.835938 7.429688 6.855469 7.390625 C 6.746094 7.339844 6.894531 7.160156 6.886719 7.054688 C 6.917969 6.933594 6.921875 6.785156 6.96875 6.679688 Z M 6.878906 6.6875 C 6.925781 6.6875 6.804688 6.730469 6.878906 6.6875 Z M 7.027344 6.695312 C 7.070312 6.730469 6.988281 6.71875 7.027344 6.695312 Z M 8.484375 6.699219 C 8.488281 6.730469 8.511719 6.695312 8.484375 6.699219 Z M 8.660156 6.703125 C 8.695312 6.691406 8.699219 6.757812 8.660156 6.703125 Z M 7.082031 6.710938 C 7.113281 6.734375 7.050781 6.730469 7.082031 6.710938 Z M 7.15625 6.75 C 7.199219 6.789062 7.109375 6.777344 7.15625 6.75 Z M 6.835938 6.765625 C 6.871094 6.796875 6.796875 6.789062 6.835938 6.765625 Z M 10.238281 6.796875 C 10.078125 6.808594 9.953125 6.871094 9.832031 6.945312 C 9.730469 6.945312 9.867188 7.144531 9.707031 7.074219 C 9.515625 7.117188 9.558594 7.339844 9.433594 7.460938 C 9.375 7.597656 9.410156 7.75 9.328125 7.878906 C 9.390625 8.046875 9.382812 8.257812 9.542969 8.382812 C 9.550781 8.460938 9.746094 8.589844 9.867188 8.617188 C 10.003906 8.652344 10.15625 8.621094 10.28125 8.695312 C 10.386719 8.703125 10.675781 8.730469 10.535156 8.5625 C 10.578125 8.453125 10.410156 8.53125 10.375 8.484375 C 10.15625 8.519531 9.925781 8.449219 9.757812 8.308594 C 9.632812 8.222656 9.5625 8.054688 9.554688 7.910156 C 9.582031 7.78125 9.613281 7.65625 9.65625 7.535156 C 9.6875 7.441406 9.75 7.375 9.640625 7.320312 C 9.6875 7.320312 9.71875 7.175781 9.75 7.304688 C 9.867188 7.167969 10.003906 7.03125 10.1875 6.988281 C 10.300781 6.910156 10.503906 6.941406 10.585938 6.890625 C 10.53125 6.761719 10.347656 6.804688 10.238281 6.796875 Z M 8.660156 6.777344 C 8.699219 6.8125 8.617188 6.804688 8.660156 6.777344 Z M 7.082031 6.777344 C 7.117188 6.808594 7.046875 6.808594 7.082031 6.777344 Z M 10.226562 6.820312 C 10.292969 6.847656 10.167969 6.875 10.226562 6.820312 Z M 7.152344 6.804688 C 7.175781 6.832031 7.121094 6.8125 7.152344 6.804688 Z M 6.988281 6.8125 C 6.941406 6.851562 7.042969 6.832031 6.988281 6.8125 Z M 7.109375 6.8125 C 7.148438 6.84375 7.058594 6.832031 7.109375 6.8125 Z M 10.359375 6.851562 C 10.433594 6.882812 10.3125 6.90625 10.359375 6.851562 Z M 10.53125 6.855469 C 10.601562 6.878906 10.484375 6.90625 10.53125 6.855469 Z M 7.953125 6.824219 C 7.992188 6.859375 7.910156 6.851562 7.953125 6.824219 Z M 6.917969 6.847656 C 6.945312 6.882812 6.882812 6.863281 6.917969 6.847656 Z M 6.890625 6.855469 C 6.929688 6.882812 6.851562 6.875 6.890625 6.855469 Z M 7.09375 6.863281 C 7.167969 6.882812 7.03125 6.90625 7.09375 6.863281 Z M 8.6875 6.867188 C 8.726562 6.882812 8.648438 6.886719 8.6875 6.867188 Z M 8.023438 6.878906 C 8.058594 6.914062 7.980469 6.90625 8.023438 6.878906 Z M 9.96875 6.917969 C 10.023438 6.96875 9.914062 6.945312 9.96875 6.917969 Z M 7.121094 6.890625 C 7.160156 6.925781 7.078125 6.917969 7.121094 6.890625 Z M 8.78125 6.90625 C 8.820312 6.945312 8.742188 6.925781 8.78125 6.90625 Z M 7.070312 6.90625 C 7.101562 6.941406 7.035156 6.929688 7.070312 6.90625 Z M 9.921875 6.9375 C 9.984375 6.964844 9.867188 6.992188 9.921875 6.9375 Z M 10.089844 6.9375 C 10.160156 6.964844 10.035156 6.992188 10.089844 6.9375 Z M 9.839844 6.957031 C 9.898438 6.996094 9.785156 6.996094 9.839844 6.957031 Z M 9.988281 6.972656 C 10.046875 6.996094 9.964844 7.027344 9.988281 6.972656 Z M 7.167969 6.941406 C 7.203125 6.972656 7.132812 6.964844 7.167969 6.941406 Z M 8.757812 6.941406 C 8.785156 6.964844 8.730469 6.957031 8.757812 6.941406 Z M 10.027344 6.980469 C 10.089844 6.984375 10.066406 7.0625 10.027344 6.980469 Z M 7.121094 6.949219 C 7.15625 6.976562 7.082031 6.976562 7.121094 6.949219 Z M 8.773438 6.957031 C 8.8125 6.984375 8.734375 6.972656 8.773438 6.957031 Z M 7.148438 6.96875 C 7.183594 6.992188 7.113281 6.988281 7.148438 6.96875 Z M 9.769531 7 C 9.707031 7.074219 9.847656 7.046875 9.769531 7 Z M 8.035156 6.980469 C 8.078125 7.019531 7.992188 7.007812 8.035156 6.980469 Z M 9.894531 7.03125 C 9.917969 7.144531 9.78125 7.0625 9.894531 7.03125 Z M 7.144531 7.046875 C 7.183594 7.0625 7.101562 7.105469 7.144531 7.046875 Z M 9.683594 7.085938 C 9.742188 7.125 9.621094 7.128906 9.683594 7.085938 Z M 6.785156 7.058594 C 6.824219 7.09375 6.753906 7.082031 6.785156 7.058594 Z M 8.761719 7.074219 C 8.796875 7.082031 8.738281 7.109375 8.761719 7.074219 Z M 6.746094 7.082031 C 6.707031 7.101562 6.785156 7.105469 6.746094 7.082031 Z M 7.199219 7.09375 C 7.238281 7.125 7.152344 7.113281 7.199219 7.09375 Z M 7.136719 7.09375 C 7.167969 7.125 7.105469 7.113281 7.136719 7.09375 Z M 7.210938 7.136719 C 7.25 7.175781 7.171875 7.160156 7.210938 7.136719 Z M 9.816406 7.167969 C 9.878906 7.199219 9.765625 7.21875 9.816406 7.167969 Z M 9.640625 7.183594 C 9.703125 7.230469 9.621094 7.261719 9.640625 7.183594 Z M 8.761719 7.15625 C 8.789062 7.152344 8.75 7.1875 8.761719 7.15625 Z M 9.597656 7.203125 C 9.640625 7.214844 9.550781 7.21875 9.597656 7.203125 Z M 8.699219 7.210938 C 8.742188 7.242188 8.652344 7.234375 8.699219 7.210938 Z M 8.625 7.210938 C 8.679688 7.230469 8.574219 7.253906 8.625 7.210938 Z M 8.765625 7.222656 C 8.730469 7.257812 8.804688 7.246094 8.765625 7.222656 Z M 9.613281 7.253906 C 9.671875 7.292969 9.558594 7.289062 9.613281 7.253906 Z M 7.304688 7.234375 C 7.292969 7.28125 7.253906 7.246094 7.304688 7.234375 Z M 7.96875 7.253906 C 8.003906 7.289062 7.929688 7.277344 7.96875 7.253906 Z M 6.8125 7.257812 C 6.855469 7.296875 6.769531 7.28125 6.8125 7.257812 Z M 8.691406 7.265625 C 8.726562 7.300781 8.679688 7.292969 8.691406 7.265625 Z M 9.503906 7.300781 C 9.503906 7.304688 9.507812 7.300781 9.503906 7.300781 Z M 9.503906 7.304688 C 9.445312 7.351562 9.519531 7.359375 9.503906 7.304688 Z M 7.25 7.289062 C 7.292969 7.328125 7.199219 7.3125 7.25 7.289062 Z M 7.976562 7.296875 C 8.03125 7.324219 7.921875 7.339844 7.976562 7.296875 Z M 7.234375 7.316406 C 7.21875 7.421875 7.164062 7.34375 7.234375 7.316406 Z M 8.535156 7.320312 C 8.570312 7.351562 8.5 7.339844 8.535156 7.320312 Z M 9.683594 7.371094 C 9.753906 7.40625 9.640625 7.414062 9.683594 7.371094 Z M 8.066406 7.34375 C 8.105469 7.375 8.027344 7.371094 8.066406 7.34375 Z M 6.835938 7.355469 C 6.796875 7.382812 6.875 7.378906 6.835938 7.355469 Z M 8.503906 7.371094 C 8.570312 7.398438 8.472656 7.421875 8.503906 7.371094 Z M 9.457031 7.464844 C 9.515625 7.503906 9.394531 7.515625 9.457031 7.464844 Z M 6.808594 7.441406 C 6.820312 7.550781 6.742188 7.433594 6.808594 7.441406 Z M 7.339844 7.46875 C 7.367188 7.511719 7.304688 7.488281 7.339844 7.46875 Z M 8.453125 7.46875 C 8.492188 7.503906 8.417969 7.503906 8.453125 7.46875 Z M 9.519531 7.5 C 9.554688 7.511719 9.492188 7.523438 9.519531 7.5 Z M 9.480469 7.511719 C 9.453125 7.621094 9.375 7.511719 9.480469 7.511719 Z M 6.683594 7.480469 C 6.726562 7.515625 6.640625 7.503906 6.683594 7.480469 Z M 6.777344 7.492188 C 6.78125 7.53125 6.742188 7.484375 6.777344 7.492188 Z M 7.386719 7.492188 C 7.351562 7.535156 7.4375 7.503906 7.386719 7.492188 Z M 8.484375 7.496094 C 8.539062 7.507812 8.410156 7.539062 8.484375 7.496094 Z M 8.539062 7.5 C 8.578125 7.527344 8.496094 7.519531 8.539062 7.5 Z M 7.277344 7.507812 C 7.3125 7.53125 7.246094 7.527344 7.277344 7.507812 Z M 7.976562 7.515625 C 8.027344 7.539062 7.921875 7.554688 7.976562 7.515625 Z M 7.226562 7.515625 C 7.257812 7.550781 7.195312 7.535156 7.226562 7.515625 Z M 8.058594 7.515625 C 8.066406 7.617188 8.007812 7.535156 8.058594 7.515625 Z M 8.046875 7.546875 C 8.054688 7.546875 8.046875 7.535156 8.046875 7.546875 Z M 9.523438 7.546875 C 9.585938 7.582031 9.460938 7.597656 9.523438 7.546875 Z M 8.140625 7.519531 C 8.191406 7.539062 8.097656 7.5625 8.140625 7.519531 Z M 7.320312 7.53125 C 7.347656 7.558594 7.28125 7.542969 7.320312 7.53125 Z M 7.371094 7.539062 C 7.40625 7.566406 7.332031 7.558594 7.371094 7.539062 Z M 6.777344 7.546875 C 6.804688 7.589844 6.738281 7.566406 6.777344 7.546875 Z M 7.339844 7.546875 C 7.382812 7.585938 7.300781 7.574219 7.339844 7.546875 Z M 6.746094 7.558594 C 6.773438 7.605469 6.691406 7.574219 6.746094 7.558594 Z M 8.398438 7.5625 C 8.4375 7.589844 8.359375 7.582031 8.398438 7.5625 Z M 8.121094 7.574219 C 8.171875 7.773438 8.34375 7.605469 8.476562 7.679688 C 8.695312 7.660156 8.8125 7.839844 8.960938 7.960938 C 9.042969 8.027344 8.929688 8.101562 8.992188 8.167969 C 8.964844 8.261719 8.878906 8.382812 8.808594 8.425781 C 8.773438 8.527344 8.511719 8.441406 8.476562 8.542969 C 8.390625 8.421875 8.335938 8.613281 8.292969 8.617188 C 8.269531 8.605469 8.375 8.476562 8.238281 8.496094 C 8.140625 8.527344 8.128906 8.554688 8.152344 8.445312 C 8.113281 8.289062 8.117188 8.332031 8.117188 8.210938 C 8.15625 8.121094 8.054688 8 8.152344 7.902344 C 8.09375 7.808594 8.050781 7.664062 8.121094 7.574219 Z M 8.121094 8.265625 C 8.125 8.308594 8.132812 8.269531 8.121094 8.265625 Z M 8.128906 8.316406 L 8.128906 8.320312 Z M 8.296875 8.605469 L 8.296875 8.609375 Z M 8.960938 7.960938 C 8.929688 8.015625 9.007812 7.992188 8.960938 7.960938 Z M 7.492188 7.574219 C 7.550781 7.617188 7.449219 7.601562 7.492188 7.574219 Z M 7.402344 7.578125 C 7.445312 7.605469 7.355469 7.597656 7.402344 7.578125 Z M 8.519531 7.578125 C 8.5625 7.617188 8.476562 7.605469 8.519531 7.578125 Z M 9.5625 7.613281 C 9.632812 7.644531 9.515625 7.664062 9.5625 7.613281 Z M 7.40625 7.601562 C 7.476562 7.632812 7.367188 7.648438 7.40625 7.601562 Z M 7.992188 7.605469 C 8.042969 7.648438 7.933594 7.621094 7.992188 7.605469 Z M 6.628906 7.605469 C 6.671875 7.644531 6.59375 7.632812 6.628906 7.605469 Z M 9.390625 7.648438 C 9.347656 7.683594 9.40625 7.6875 9.390625 7.648438 Z M 8.230469 7.628906 C 8.269531 7.667969 8.183594 7.65625 8.230469 7.628906 Z M 7.484375 7.632812 C 7.523438 7.664062 7.441406 7.652344 7.484375 7.632812 Z M 7.199219 7.636719 C 7.234375 7.664062 7.15625 7.648438 7.199219 7.636719 Z M 7.265625 7.636719 C 7.296875 7.671875 7.230469 7.652344 7.265625 7.636719 Z M 7.070312 7.644531 C 7.101562 7.675781 7.035156 7.664062 7.070312 7.644531 Z M 7.433594 7.644531 C 7.460938 7.679688 7.398438 7.660156 7.433594 7.644531 Z M 8.847656 7.660156 C 8.898438 7.675781 8.808594 7.691406 8.847656 7.660156 Z M 6.9375 7.667969 C 6.988281 7.691406 6.886719 7.703125 6.9375 7.667969 Z M 7.355469 7.667969 C 7.390625 7.699219 7.3125 7.695312 7.355469 7.667969 Z M 8.671875 7.667969 C 8.707031 7.703125 8.632812 7.691406 8.671875 7.667969 Z M 6.710938 7.675781 C 6.753906 7.714844 6.667969 7.703125 6.710938 7.675781 Z M 8.804688 7.675781 C 8.859375 7.703125 8.753906 7.714844 8.804688 7.675781 Z M 8.644531 7.679688 C 8.691406 7.722656 8.582031 7.695312 8.644531 7.679688 Z M 9.621094 7.71875 C 9.566406 7.769531 9.691406 7.746094 9.621094 7.71875 Z M 6.6875 7.691406 C 6.726562 7.722656 6.648438 7.707031 6.6875 7.691406 Z M 9.4375 7.726562 C 9.492188 7.738281 9.390625 7.75 9.4375 7.726562 Z M 8.84375 7.703125 C 8.84375 7.773438 8.78125 7.683594 8.84375 7.703125 Z M 7.277344 7.703125 C 7.3125 7.730469 7.246094 7.726562 7.277344 7.703125 Z M 6.667969 7.734375 C 6.71875 7.753906 6.648438 7.785156 6.667969 7.734375 Z M 6.761719 7.746094 C 6.804688 7.785156 6.71875 7.773438 6.761719 7.746094 Z M 6.726562 7.75 C 6.753906 7.785156 6.691406 7.765625 6.726562 7.75 Z M 7.328125 7.757812 C 7.363281 7.84375 7.238281 7.78125 7.328125 7.757812 Z M 7.46875 7.773438 C 7.46875 7.859375 7.410156 7.832031 7.46875 7.773438 Z M 8.820312 7.777344 C 8.867188 7.816406 8.765625 7.792969 8.820312 7.777344 Z M 9.375 7.816406 C 9.441406 7.851562 9.320312 7.855469 9.375 7.816406 Z M 7.421875 7.792969 C 7.460938 7.820312 7.382812 7.8125 7.421875 7.792969 Z M 8.945312 7.800781 C 8.984375 7.832031 8.90625 7.828125 8.945312 7.800781 Z M 8.960938 7.835938 C 8.996094 7.867188 8.902344 7.851562 8.960938 7.835938 Z M 6.667969 7.835938 C 6.71875 7.835938 6.644531 7.867188 6.667969 7.835938 Z M 7.398438 7.839844 C 7.433594 7.859375 7.347656 7.847656 7.398438 7.839844 Z M 8.128906 7.851562 C 8.148438 7.90625 8.078125 7.847656 8.128906 7.851562 Z M 6.671875 7.859375 C 6.710938 7.898438 6.628906 7.886719 6.671875 7.859375 Z M 6.632812 7.859375 C 6.664062 7.886719 6.589844 7.871094 6.632812 7.859375 Z M 9.058594 7.882812 C 9.097656 7.917969 9.023438 7.917969 9.058594 7.882812 Z M 8.933594 7.886719 C 8.976562 7.921875 8.894531 7.914062 8.933594 7.886719 Z M 7.417969 7.890625 C 7.460938 7.925781 7.375 7.914062 7.417969 7.890625 Z M 7.480469 7.898438 C 7.523438 7.9375 7.4375 7.925781 7.480469 7.898438 Z M 7.386719 7.902344 C 7.441406 7.917969 7.347656 7.945312 7.386719 7.902344 Z M 6.65625 7.914062 C 6.726562 7.914062 6.613281 7.980469 6.65625 7.914062 Z M 7.328125 7.925781 C 7.300781 7.960938 7.363281 7.941406 7.328125 7.925781 Z M 9.03125 7.925781 C 9.074219 7.96875 8.976562 7.945312 9.03125 7.925781 Z M 7.519531 7.941406 C 7.5625 7.964844 7.476562 7.964844 7.519531 7.941406 Z M 9.410156 7.976562 C 9.445312 8 9.355469 8.011719 9.410156 7.976562 Z M 6.652344 7.96875 C 6.640625 7.988281 6.617188 7.976562 6.652344 7.96875 Z M 9.117188 7.972656 C 9.15625 8.011719 9.078125 7.996094 9.117188 7.972656 Z M 7.402344 7.976562 C 7.445312 8.003906 7.355469 7.996094 7.402344 7.976562 Z M 6.574219 7.992188 C 6.621094 7.996094 6.5625 8.050781 6.574219 7.992188 Z M 9.394531 8.035156 C 9.460938 8.050781 9.355469 8.089844 9.394531 8.035156 Z M 7.441406 8.007812 C 7.480469 8.039062 7.40625 8.039062 7.441406 8.007812 Z M 7.535156 8.035156 C 7.574219 8.0625 7.492188 8.050781 7.535156 8.035156 Z M 9.4375 8.066406 C 9.488281 8.082031 9.40625 8.101562 9.4375 8.066406 Z M 6.59375 8.039062 C 6.59375 8.082031 6.527344 8.03125 6.59375 8.039062 Z M 6.652344 8.078125 C 6.6875 8.105469 6.613281 8.089844 6.652344 8.078125 Z M 6.542969 8.101562 C 6.582031 8.125 6.5 8.121094 6.542969 8.101562 Z M 9.097656 8.113281 C 9.140625 8.148438 9.058594 8.136719 9.097656 8.113281 Z M 7.484375 8.113281 C 7.519531 8.144531 7.445312 8.132812 7.484375 8.113281 Z M 6.550781 8.121094 C 6.609375 8.152344 6.476562 8.160156 6.550781 8.121094 Z M 6.632812 8.121094 C 6.675781 8.160156 6.589844 8.144531 6.632812 8.121094 Z M 7.609375 8.121094 C 7.566406 8.15625 7.648438 8.148438 7.609375 8.121094 Z M 8.046875 8.140625 C 8.085938 8.175781 8.007812 8.167969 8.046875 8.140625 Z M 6.582031 8.171875 C 6.621094 8.199219 6.539062 8.191406 6.582031 8.171875 Z M 6.53125 8.171875 C 6.566406 8.203125 6.488281 8.191406 6.53125 8.171875 Z M 7.640625 8.171875 C 7.601562 8.199219 7.679688 8.195312 7.640625 8.171875 Z M 9.003906 8.175781 C 9.042969 8.210938 8.960938 8.199219 9.003906 8.175781 Z M 7.515625 8.183594 C 7.554688 8.246094 7.445312 8.222656 7.515625 8.183594 Z M 7.558594 8.207031 C 7.59375 8.238281 7.523438 8.230469 7.558594 8.207031 Z M 7.585938 8.21875 C 7.621094 8.226562 7.582031 8.246094 7.585938 8.21875 Z M 6.59375 8.230469 C 6.636719 8.257812 6.554688 8.253906 6.59375 8.230469 Z M 7.429688 8.234375 C 7.417969 8.265625 7.46875 8.21875 7.429688 8.234375 Z M 6.570312 8.238281 C 6.609375 8.269531 6.527344 8.261719 6.570312 8.238281 Z M 9.640625 8.28125 C 9.707031 8.316406 9.585938 8.332031 9.640625 8.28125 Z M 7.585938 8.25 C 7.625 8.28125 7.546875 8.269531 7.585938 8.25 Z M 7.519531 8.261719 C 7.5625 8.296875 7.480469 8.289062 7.519531 8.261719 Z M 7.542969 8.261719 C 7.585938 8.296875 7.503906 8.289062 7.542969 8.261719 Z M 9.070312 8.269531 C 9.140625 8.269531 9.035156 8.300781 9.070312 8.269531 Z M 9.125 8.269531 C 9.097656 8.339844 9.210938 8.308594 9.125 8.269531 Z M 9.511719 8.300781 C 9.542969 8.316406 9.484375 8.332031 9.511719 8.300781 Z M 6.578125 8.277344 C 6.597656 8.332031 6.527344 8.339844 6.578125 8.277344 Z M 8.964844 8.285156 C 9.011719 8.332031 8.960938 8.328125 8.964844 8.285156 Z M 7.609375 8.289062 C 7.644531 8.320312 7.574219 8.3125 7.609375 8.289062 Z M 7.53125 8.296875 C 7.574219 8.335938 7.488281 8.324219 7.53125 8.296875 Z M 8.902344 8.308594 C 8.859375 8.347656 8.953125 8.328125 8.902344 8.308594 Z M 9.085938 8.308594 C 9.132812 8.355469 9.023438 8.324219 9.085938 8.308594 Z M 7.578125 8.320312 C 7.613281 8.332031 7.515625 8.359375 7.578125 8.320312 Z M 6.492188 8.335938 C 6.523438 8.371094 6.449219 8.351562 6.492188 8.335938 Z M 6.542969 8.347656 C 6.582031 8.371094 6.5 8.367188 6.542969 8.347656 Z M 6.527344 8.371094 C 6.570312 8.40625 6.484375 8.394531 6.527344 8.371094 Z M 6.566406 8.394531 C 6.605469 8.417969 6.527344 8.414062 6.566406 8.394531 Z M 8.125 8.402344 C 8.160156 8.429688 8.085938 8.421875 8.125 8.402344 Z M 6.519531 8.40625 C 6.585938 8.421875 6.445312 8.46875 6.519531 8.40625 Z M 8.941406 8.414062 C 8.972656 8.449219 8.902344 8.4375 8.941406 8.414062 Z M 8.886719 8.421875 C 8.917969 8.457031 8.851562 8.449219 8.886719 8.421875 Z M 8.699219 8.425781 C 8.648438 8.460938 8.75 8.46875 8.699219 8.425781 Z M 7.585938 8.429688 C 7.628906 8.464844 7.546875 8.453125 7.585938 8.429688 Z M 6.558594 8.429688 C 6.589844 8.429688 6.550781 8.464844 6.558594 8.429688 Z M 7.546875 8.4375 C 7.558594 8.464844 7.507812 8.445312 7.546875 8.4375 Z M 8.050781 8.4375 C 8.089844 8.472656 8.007812 8.460938 8.050781 8.4375 Z M 8.945312 8.445312 C 8.984375 8.496094 8.90625 8.503906 8.945312 8.445312 Z M 10.578125 8.480469 C 10.535156 8.621094 10.722656 8.507812 10.578125 8.480469 Z M 6.398438 8.453125 C 6.351562 8.472656 6.441406 8.480469 6.398438 8.453125 Z M 7.621094 8.457031 C 7.652344 8.496094 7.582031 8.484375 7.621094 8.457031 Z M 8.101562 8.457031 C 8.175781 8.488281 8.066406 8.496094 8.101562 8.457031 Z M 7.6875 8.457031 C 7.695312 8.53125 7.742188 8.449219 7.6875 8.457031 Z M 7.570312 8.460938 C 7.558594 8.523438 7.484375 8.46875 7.570312 8.460938 Z M 6.578125 8.464844 C 6.59375 8.507812 6.550781 8.480469 6.578125 8.464844 Z M 6.527344 8.464844 C 6.5625 8.492188 6.515625 8.515625 6.527344 8.464844 Z M 8.886719 8.464844 C 8.914062 8.5 8.851562 8.480469 8.886719 8.464844 Z M 8.742188 8.476562 C 8.785156 8.511719 8.699219 8.5 8.742188 8.476562 Z M 8.476562 8.484375 C 8.433594 8.515625 8.527344 8.503906 8.476562 8.484375 Z M 8.820312 8.484375 C 8.867188 8.523438 8.765625 8.503906 8.820312 8.484375 Z M 9.015625 8.484375 C 8.976562 8.519531 9.066406 8.5 9.015625 8.484375 Z M 9.832031 8.515625 C 9.871094 8.574219 9.789062 8.578125 9.832031 8.515625 Z M 7.585938 8.488281 C 7.625 8.515625 7.546875 8.503906 7.585938 8.488281 Z M 6.402344 8.488281 C 6.371094 8.523438 6.433594 8.519531 6.402344 8.488281 Z M 8.089844 8.5 C 8.132812 8.519531 8.042969 8.53125 8.089844 8.5 Z M 8.398438 8.503906 C 8.4375 8.53125 8.359375 8.523438 8.398438 8.503906 Z M 10.507812 8.539062 C 10.558594 8.621094 10.457031 8.589844 10.507812 8.539062 Z M 8.660156 8.527344 C 8.710938 8.550781 8.609375 8.554688 8.660156 8.527344 Z M 8.246094 8.53125 C 8.28125 8.550781 8.207031 8.558594 8.246094 8.53125 Z M 9.941406 8.5625 C 10.007812 8.597656 9.894531 8.609375 9.941406 8.5625 Z M 7.667969 8.539062 C 7.707031 8.566406 7.625 8.5625 7.667969 8.539062 Z M 8.46875 8.542969 C 8.492188 8.585938 8.441406 8.574219 8.46875 8.542969 Z M 6.542969 8.554688 C 6.582031 8.578125 6.503906 8.574219 6.542969 8.554688 Z M 8.390625 8.554688 C 8.429688 8.589844 8.351562 8.582031 8.390625 8.554688 Z M 8.519531 8.554688 C 8.5625 8.59375 8.472656 8.582031 8.519531 8.554688 Z M 8.417969 8.558594 C 8.472656 8.578125 8.367188 8.597656 8.417969 8.558594 Z M 8.613281 8.558594 C 8.652344 8.597656 8.5625 8.582031 8.613281 8.558594 Z M 8.363281 8.574219 C 8.410156 8.613281 8.308594 8.589844 8.363281 8.574219 Z M 7.660156 8.574219 C 7.703125 8.613281 7.621094 8.601562 7.660156 8.574219 Z M 7.6875 8.574219 C 7.730469 8.613281 7.648438 8.601562 7.6875 8.574219 Z M 6.5 8.578125 C 6.539062 8.609375 6.46875 8.609375 6.5 8.578125 Z M 8.628906 8.589844 C 8.671875 8.605469 8.589844 8.617188 8.628906 8.589844 Z M 8.808594 8.589844 C 8.855469 8.605469 8.765625 8.621094 8.808594 8.589844 Z M 10.527344 8.621094 C 10.570312 8.644531 10.484375 8.648438 10.527344 8.621094 Z M 10.417969 8.628906 C 10.476562 8.652344 10.386719 8.667969 10.417969 8.628906 Z M 8.742188 8.601562 C 8.789062 8.632812 8.714844 8.679688 8.742188 8.601562 Z M 10.476562 8.632812 C 10.539062 8.667969 10.414062 8.679688 10.476562 8.632812 Z M 10.386719 8.632812 C 10.410156 8.652344 10.359375 8.652344 10.386719 8.632812 Z M 10.539062 8.648438 C 10.601562 8.691406 10.472656 8.679688 10.539062 8.648438 Z M 8.25 8.617188 C 8.273438 8.644531 8.214844 8.625 8.25 8.617188 Z M 8.605469 8.617188 C 8.664062 8.6875 8.511719 8.628906 8.605469 8.617188 Z M 6.472656 8.625 C 6.429688 8.667969 6.527344 8.644531 6.472656 8.625 Z M 7.929688 8.628906 C 7.859375 8.644531 7.960938 8.722656 7.929688 8.628906 Z M 8.257812 8.628906 C 8.304688 8.640625 8.222656 8.664062 8.257812 8.628906 Z M 8.136719 8.628906 C 8.167969 8.664062 8.101562 8.644531 8.136719 8.628906 Z M 6.375 8.636719 C 6.304688 8.632812 6.390625 8.71875 6.375 8.636719 Z M 8.367188 8.644531 C 8.40625 8.679688 8.3125 8.65625 8.367188 8.644531 Z M 8.308594 8.652344 C 8.351562 8.691406 8.269531 8.679688 8.308594 8.652344 Z M 8.597656 8.660156 C 8.644531 8.679688 8.554688 8.703125 8.597656 8.660156 Z M 7.976562 8.660156 C 8.03125 8.6875 7.921875 8.699219 7.976562 8.660156 Z M 6.464844 8.683594 C 6.457031 8.699219 6.445312 8.664062 6.464844 8.683594 Z M 8.0625 8.683594 C 8.105469 8.722656 8.015625 8.707031 8.0625 8.683594 Z M 8.207031 8.683594 C 8.296875 8.695312 8.125 8.742188 8.207031 8.683594 Z M 7.703125 8.714844 C 7.742188 8.757812 7.664062 8.746094 7.703125 8.714844 Z M 7.703125 8.714844 "/>
</svg>
