<?xml version="1.0" encoding="UTF-8"?>
<svg xmlns="http://www.w3.org/2000/svg" xmlns:xlink="http://www.w3.org/1999/xlink" width="64" height="64" viewBox="0 0 64 64">
<path fill-rule="nonzero" fill="rgb(95.686275%, 23.921569%, 32.54902%)" fill-opacity="1" d="M 32 5 C 46.910156 5 59 17.089844 59 32 C 59 46.910156 46.910156 59 32 59 C 17.089844 59 5 46.910156 5 32 C 5 17.089844 17.089844 5 32 5 Z M 32 5 "/>
<path fill-rule="nonzero" fill="rgb(100%, 100%, 100%)" fill-opacity="1" d="M 26.039062 24 C 25.992188 24.03125 25.984375 39.9375 26.027344 39.984375 C 26.046875 40.003906 26.09375 40.003906 26.136719 39.984375 C 26.179688 39.96875 28.921875 38.414062 32.230469 36.527344 L 32.230469 36.53125 C 40.167969 32.015625 40 32.113281 40 32.023438 C 40 31.9375 26.105469 23.953125 26.039062 24 Z M 26.039062 24 "/>
<path fill-rule="nonzero" fill="rgb(100%, 100%, 100%)" fill-opacity="1" d="M 12 13.824219 C 11.097656 14.820312 10.273438 15.878906 9.527344 17 L 12 17 Z M 52 13.824219 L 52 17 L 54.472656 17 C 53.726562 15.878906 52.902344 14.820312 52 13.824219 Z M 9 19 L 9 24 L 12 24 L 12 19 Z M 52 19 L 52 24 L 55 24 L 55 19 Z M 9 26 L 9 31 L 12 31 L 12 26 Z M 52 26 L 52 31 L 55 31 L 55 26 Z M 9 33 L 9 38 L 12 38 L 12 33 Z M 52 33 L 52 38 L 55 38 L 55 33 Z M 9 40 L 9 45 L 12 45 L 12 40 Z M 52 40 L 52 45 L 55 45 L 55 40 Z M 9.523438 47 C 10.273438 48.121094 11.097656 49.179688 12 50.171875 L 12 47 Z M 52 47 L 52 50.171875 C 52.902344 49.179688 53.726562 48.121094 54.472656 47 Z M 52 47 "/>
</svg>
