<?xml version="1.0" encoding="UTF-8"?>
<svg xmlns="http://www.w3.org/2000/svg" xmlns:xlink="http://www.w3.org/1999/xlink" width="64" height="64" viewBox="0 0 64 64">
<path fill-rule="nonzero" fill="rgb(87.058824%, 30.980392%, 30.980392%)" fill-opacity="1" d="M 15.609375 8.460938 C 15.609375 12.40625 12.414062 15.605469 8.46875 15.605469 C 4.519531 15.605469 1.324219 12.40625 1.324219 8.460938 C 1.324219 4.515625 4.519531 1.316406 8.46875 1.316406 C 12.414062 1.316406 15.609375 4.515625 15.609375 8.460938 Z M 15.609375 8.460938 "/>
<path fill-rule="nonzero" fill="rgb(100%, 100%, 100%)" fill-opacity="1" d="M 6.5 5.1875 C 7.027344 4.59375 8.074219 4.328125 8.851562 4.464844 C 9.34375 4.546875 9.488281 4.558594 9.925781 4.867188 C 10.203125 4.742188 10.464844 4.71875 10.753906 4.703125 C 10.683594 5.292969 10.714844 5.238281 10.8125 5.570312 C 10.894531 5.832031 10.925781 6.117188 10.808594 6.390625 C 10.71875 6.597656 10.660156 6.664062 10.527344 6.8125 C 10.417969 6.941406 10.277344 7.007812 9.976562 7.058594 C 9.996094 6.921875 10.027344 6.832031 10.058594 6.40625 C 10.109375 5.742188 9.925781 5.679688 9.726562 5.441406 C 9.132812 4.738281 8.09375 4.601562 7.308594 5.113281 C 6.929688 5.355469 6.871094 5.640625 6.894531 6.09375 C 6.90625 6.394531 7.191406 6.679688 7.335938 6.78125 C 7.75 7.089844 8.257812 7.296875 8.722656 7.503906 C 8.894531 7.570312 9.632812 7.847656 9.800781 7.921875 C 10.023438 8.019531 10.277344 8.160156 10.398438 8.253906 C 10.765625 8.53125 10.984375 8.816406 11.109375 9.148438 C 11.335938 9.757812 11.367188 10.945312 10.828125 11.542969 C 10.214844 12.230469 9.164062 12.523438 8.234375 12.503906 C 7.371094 12.507812 7.191406 12.265625 5.917969 12.300781 C 5.878906 12.121094 5.851562 11.679688 5.875 11.589844 C 5.765625 11.402344 5.703125 11.140625 5.675781 10.714844 C 5.660156 10.445312 5.675781 10.226562 5.816406 9.8125 C 5.980469 9.320312 6.554688 8.941406 7.082031 8.890625 C 7.535156 8.894531 7.992188 8.960938 8.363281 9.246094 C 8.679688 9.492188 8.753906 9.964844 8.703125 10.25 C 8.621094 10.695312 8.34375 11.066406 7.882812 11.078125 C 7.644531 11.085938 7.289062 10.804688 7.292969 10.589844 C 7.3125 9.910156 8 10.019531 8.121094 10.113281 C 8.222656 10.191406 8.324219 10.304688 8.285156 10.511719 C 8.453125 10.332031 8.570312 9.929688 8.34375 9.671875 C 7.777344 9.015625 6.894531 9.15625 6.492188 9.589844 C 6.242188 9.863281 6.332031 10.332031 6.382812 10.703125 C 6.441406 11.128906 6.773438 11.472656 7.117188 11.757812 C 7.441406 12.03125 7.828125 12.109375 7.929688 12.117188 C 8.585938 12.15625 8.863281 12.222656 9.59375 11.886719 C 10.042969 11.679688 10.292969 11.441406 10.503906 10.832031 C 10.558594 10.667969 10.542969 10.339844 10.46875 10.082031 C 10.394531 9.824219 10.238281 9.582031 10.027344 9.394531 C 9.558594 8.953125 8.984375 8.800781 8.390625 8.550781 C 7.855469 8.328125 7.449219 8.164062 6.953125 7.875 C 6.605469 7.648438 6.503906 7.574219 6.269531 7.246094 C 6.117188 7.035156 6.011719 6.464844 6.042969 6.226562 C 6.117188 5.839844 6.195312 5.511719 6.5 5.191406 "/>
</svg>
