<?xml version="1.0" encoding="UTF-8"?>
<svg xmlns="http://www.w3.org/2000/svg" xmlns:xlink="http://www.w3.org/1999/xlink" width="64" height="64" viewBox="0 0 64 64">
<path fill-rule="nonzero" fill="rgb(13.72549%, 18.431373%, 24.313725%)" fill-opacity="1" d="M 31.664062 5.003906 C 41.390625 4.882812 50.425781 10.003906 55.320312 18.40625 C 60.21875 26.808594 60.21875 37.191406 55.320312 45.59375 C 50.425781 53.996094 41.390625 59.117188 31.664062 59 C 16.882812 58.816406 4.992188 46.785156 4.992188 32 C 4.992188 17.214844 16.882812 5.183594 31.664062 5.003906 Z M 31.664062 5.003906 "/>
<path fill-rule="nonzero" fill="rgb(90.588235%, 90.588235%, 90.588235%)" fill-opacity="1" d="M 24 16 C 19.566406 16 16 19.566406 16 24 L 16 40 C 16 44.429688 19.566406 48 24 48 L 40 48 C 44.433594 48 48 44.429688 48 40 L 48 24 C 48 19.566406 44.433594 16 40 16 Z M 32 24 C 36.417969 24 40 27.582031 40 32 C 40 36.417969 36.417969 40 32 40 C 27.582031 40 24 36.417969 24 32 C 24 27.582031 27.582031 24 32 24 Z M 32 24 "/>
<path fill-rule="nonzero" fill="rgb(43.137255%, 72.54902%, 18.039216%)" fill-opacity="1" d="M 29.171875 34.828125 C 28.449219 34.101562 28 33.101562 28 32 C 28 29.789062 29.792969 28 32 28 C 33.105469 28 34.105469 28.445312 34.828125 29.171875 C 34.667969 30.664062 30.667969 34.664062 29.171875 34.828125 Z M 29.171875 34.828125 "/>
<path fill-rule="nonzero" fill="rgb(27.058824%, 57.254902%, 83.921569%)" fill-opacity="1" d="M 35.992188 32 C 35.992188 34.207031 34.203125 36 31.992188 36 C 30.890625 36 29.890625 35.550781 29.164062 34.828125 L 34.820312 29.171875 C 35.546875 29.894531 35.992188 30.894531 35.992188 32 Z M 35.992188 32 "/>
</svg>
