<?xml version="1.0" encoding="UTF-8"?>
<svg xmlns="http://www.w3.org/2000/svg" xmlns:xlink="http://www.w3.org/1999/xlink" width="64" height="64" viewBox="0 0 64 64">
<path fill-rule="nonzero" fill="rgb(80.784314%, 31.372549%, 31.372549%)" fill-opacity="1" d="M 32 5 C 46.910156 5 59 17.085938 59 32 C 59 46.910156 46.910156 59 32 59 C 17.085938 59 5 46.910156 5 32 C 5 17.085938 17.085938 5 32 5 Z M 32 5 "/>
<path fill-rule="nonzero" fill="rgb(97.647059%, 97.647059%, 97.647059%)" fill-opacity="1" d="M 17.910156 19.085938 L 17.910156 39.042969 L 28.472656 46.085938 L 28.472656 25.542969 Z M 20.257812 19.085938 L 29.648438 24.957031 L 34.34375 24.957031 L 43.734375 19.085938 C 39.039062 19.085938 36.691406 19.699219 31.996094 23.78125 C 27.300781 19.796875 24.953125 19.085938 20.257812 19.085938 Z M 46.082031 19.085938 L 35.515625 25.542969 L 35.515625 46.085938 L 46.082031 39.042969 Z M 29.648438 26.128906 L 29.648438 47.261719 L 34.34375 47.261719 L 34.34375 26.128906 Z M 29.648438 26.128906 "/>
<path fill-rule="nonzero" fill="rgb(52.156863%, 38.039216%, 77.254902%)" fill-opacity="1" d="M 63 46 C 63 54.285156 56.285156 61 48 61 C 39.714844 61 33 54.285156 33 46 C 33 37.714844 39.714844 31 48 31 C 56.285156 31 63 37.714844 63 46 Z M 63 46 "/>
<path fill-rule="nonzero" fill="rgb(100%, 100%, 100%)" fill-opacity="1" d="M 46 38 L 45.824219 40.105469 C 45.15625 40.355469 44.535156 40.714844 43.988281 41.167969 L 42.070312 40.269531 L 40.070312 43.730469 L 41.808594 44.941406 C 41.75 45.289062 41.714844 45.644531 41.714844 46 C 41.714844 46.355469 41.746094 46.714844 41.804688 47.066406 L 40.070312 48.269531 L 42.070312 51.734375 L 43.980469 50.832031 C 44.53125 51.289062 45.15625 51.644531 45.824219 51.890625 L 46 54 L 50 54 L 50.175781 51.894531 C 50.84375 51.644531 51.464844 51.285156 52.015625 50.832031 L 53.929688 51.734375 L 55.929688 48.269531 L 54.191406 47.0625 C 54.253906 46.710938 54.285156 46.355469 54.285156 46 C 54.285156 45.644531 54.253906 45.289062 54.195312 44.9375 L 55.929688 43.734375 L 53.929688 40.269531 L 52.019531 41.167969 C 51.46875 40.714844 50.847656 40.359375 50.175781 40.113281 L 50 38 Z M 48 43.714844 C 49.261719 43.714844 50.285156 44.738281 50.285156 46 C 50.285156 47.261719 49.261719 48.285156 48 48.285156 C 46.738281 48.285156 45.714844 47.261719 45.714844 46 C 45.714844 44.738281 46.738281 43.714844 48 43.714844 Z M 48 43.714844 "/>
</svg>
