<?xml version="1.0" encoding="UTF-8"?>
<svg xmlns="http://www.w3.org/2000/svg" xmlns:xlink="http://www.w3.org/1999/xlink" width="64" height="64" viewBox="0 0 64 64">
<path fill-rule="nonzero" fill="rgb(97.647059%, 97.647059%, 97.647059%)" fill-opacity="1" d="M 15.609375 8.464844 C 15.609375 12.410156 12.410156 15.609375 8.464844 15.609375 C 4.519531 15.609375 1.324219 12.410156 1.324219 8.464844 C 1.324219 4.519531 4.519531 1.324219 8.464844 1.324219 C 12.410156 1.324219 15.609375 4.519531 15.609375 8.464844 Z M 15.609375 8.464844 "/>
<path fill-rule="evenodd" fill="rgb(20.784314%, 62.745098%, 95.294118%)" fill-opacity="1" d="M 10.730469 3.464844 C 10.625 3.476562 10.519531 3.511719 10.414062 3.582031 C 10.578125 3.785156 10.25 5.699219 10.664062 5.957031 L 10.984375 6.160156 L 10.984375 10.773438 L 10.480469 11.152344 C 10.089844 11.445312 10.515625 13.128906 10.410156 13.34375 C 10.523438 13.414062 10.695312 13.488281 10.839844 13.46875 C 10.886719 13.464844 10.9375 13.449219 10.984375 13.425781 L 13.042969 12.417969 C 13.265625 12.308594 13.492188 12.214844 13.492188 11.964844 L 13.492188 4.96875 C 13.492188 4.71875 13.265625 4.625 13.042969 4.515625 L 10.984375 3.507812 C 10.9375 3.484375 10.886719 3.46875 10.839844 3.464844 C 10.804688 3.460938 10.769531 3.460938 10.730469 3.464844 Z M 10.730469 3.464844 "/>
<path fill-rule="evenodd" fill="rgb(6.666667%, 37.254902%, 71.764706%)" fill-opacity="1" d="M 3.585938 9.867188 L 10.285156 3.675781 C 10.589844 3.394531 10.984375 3.492188 10.984375 4.074219 L 10.984375 6.160156 L 4.792969 10.894531 C 4.683594 10.980469 4.402344 11.183594 4.152344 10.949219 L 3.527344 10.355469 C 3.363281 10.199219 3.457031 9.988281 3.585938 9.867188 Z M 3.585938 9.867188 "/>
<path fill-rule="evenodd" fill="rgb(10.196078%, 50.588235%, 85.490196%)" fill-opacity="1" d="M 3.585938 7.0625 L 10.285156 13.253906 C 10.589844 13.535156 10.984375 13.4375 10.984375 12.855469 L 10.984375 10.769531 L 4.792969 6.035156 C 4.683594 5.949219 4.402344 5.746094 4.152344 5.980469 L 3.527344 6.574219 C 3.363281 6.730469 3.457031 6.941406 3.585938 7.0625 Z M 3.585938 7.0625 "/>
</svg>
