<?xml version="1.0" encoding="UTF-8"?>
<svg xmlns="http://www.w3.org/2000/svg" xmlns:xlink="http://www.w3.org/1999/xlink" width="64" height="64" viewBox="0 0 64 64">
<defs>
<filter id="filter-remove-color" x="0%" y="0%" width="100%" height="100%">
<feColorMatrix color-interpolation-filters="sRGB" values="0 0 0 0 1 0 0 0 0 1 0 0 0 0 1 0 0 0 1 0" />
</filter>
<mask id="mask-0">
<g filter="url(#filter-remove-color)">
<rect x="-6.4" y="-6.4" width="76.8" height="76.8" fill="rgb(0%, 0%, 0%)" fill-opacity="0.15"/>
</g>
</mask>
<clipPath id="clip-0">
<rect x="0" y="0" width="64" height="64"/>
</clipPath>
<g id="source-2934" clip-path="url(#clip-0)">
<path fill-rule="nonzero" fill="rgb(0%, 0%, 0%)" fill-opacity="1" d="M 54 32.03125 C 54 44.183594 44.152344 54.03125 32 54.03125 C 19.851562 54.03125 10 44.183594 10 32.03125 C 10 19.882812 19.851562 10.03125 32 10.03125 C 44.152344 10.03125 54 19.882812 54 32.03125 Z M 54 32.03125 "/>
</g>
</defs>
<path fill-rule="nonzero" fill="rgb(33.333333%, 65.490196%, 24.313725%)" fill-opacity="1" d="M 59 32.03125 C 59 46.945312 46.914062 59.03125 32 59.03125 C 17.089844 59.03125 5 46.945312 5 32.03125 C 5 17.121094 17.089844 5.03125 32 5.03125 C 46.914062 5.03125 59 17.121094 59 32.03125 Z M 59 32.03125 "/>
<g mask="url(#mask-0)">
<use xlink:href="#source-2934"/>
</g>
<path fill-rule="nonzero" fill="rgb(92.54902%, 92.54902%, 92.54902%)" fill-opacity="1" d="M 30.984375 21.199219 L 27.230469 23.367188 L 46.730469 57.140625 L 50.773438 59.808594 L 50.484375 54.972656 Z M 30.984375 21.199219 "/>
<path fill-rule="nonzero" fill="rgb(80%, 80%, 80%)" fill-opacity="1" d="M 47.886719 28.132812 C 47.886719 33.921875 46.167969 35.296875 44.074219 37.742188 C 42.992188 38.988281 41.71875 40.046875 40.261719 40.847656 C 38.285156 41.953125 35.28125 42.5625 32.859375 42.5625 C 30.4375 42.5625 28.152344 41.929688 26.203125 40.847656 C 24.777344 39.699219 21.886719 44.03125 23.800781 44.601562 C 26.484375 46.105469 29.589844 46.921875 32.882812 46.921875 C 36.175781 46.921875 40.003906 46.105469 42.683594 44.601562 C 44.121094 43.800781 45.4375 42.8125 46.589844 41.683594 C 50.070312 38.296875 52.257812 33.402344 52.257812 28.15625 C 50.773438 28.140625 49.203125 28.15625 47.886719 28.140625 Z M 47.886719 28.132812 "/>
<path fill-rule="nonzero" fill="rgb(80%, 80%, 80%)" fill-opacity="1" d="M 33.011719 21.199219 L 36.765625 23.367188 L 17.265625 57.140625 L 13.222656 59.808594 L 13.511719 54.972656 Z M 33.011719 21.199219 "/>
<path fill-rule="nonzero" fill="rgb(21.176471%, 23.529412%, 24.313725%)" fill-opacity="1" d="M 36.496094 20.910156 L 34.886719 20.910156 L 34.886719 16.578125 L 29.109375 16.578125 L 29.109375 20.910156 L 27.476562 20.910156 C 26 20.910156 24.777344 22.132812 24.777344 23.59375 L 24.777344 30.667969 L 24.800781 30.667969 C 24.777344 30.898438 24.917969 31.15625 25.222656 31.457031 L 30.648438 36.242188 C 31.023438 36.613281 31.519531 36.796875 31.988281 36.796875 L 31.988281 36.773438 L 32.011719 36.796875 C 32.503906 36.796875 32.996094 36.613281 33.351562 36.242188 L 38.773438 31.457031 C 39.082031 31.15625 39.199219 30.875 39.199219 30.667969 L 39.222656 30.667969 L 39.222656 23.617188 C 39.199219 22.132812 38 20.910156 36.496094 20.910156 Z M 36.496094 20.910156 "/>
<path fill-rule="nonzero" fill="rgb(100%, 100%, 100%)" fill-opacity="1" d="M 32.007812 29.578125 L 31.988281 29.578125 C 30.410156 29.578125 29.109375 28.289062 29.109375 26.707031 C 29.109375 25.121094 30.410156 23.835938 31.988281 23.835938 L 31.988281 23.800781 L 32.007812 23.835938 C 33.589844 23.855469 34.886719 25.121094 34.886719 26.707031 C 34.886719 28.289062 33.589844 29.558594 32.007812 29.578125 Z M 32.007812 29.578125 "/>
</svg>
