<?xml version="1.0" encoding="UTF-8"?>
<svg xmlns="http://www.w3.org/2000/svg" xmlns:xlink="http://www.w3.org/1999/xlink" width="64" height="64" viewBox="0 0 64 64">
<path fill-rule="nonzero" fill="rgb(32.156863%, 29.803922%, 63.921569%)" fill-opacity="1" d="M 15.609375 8.460938 C 15.609375 12.40625 12.410156 15.605469 8.464844 15.605469 C 4.519531 15.605469 1.324219 12.40625 1.324219 8.460938 C 1.324219 4.515625 4.519531 1.316406 8.464844 1.316406 C 12.410156 1.316406 15.609375 4.515625 15.609375 8.460938 Z M 15.609375 8.460938 "/>
<path fill-rule="nonzero" fill="rgb(100%, 63.137255%, 30.588235%)" fill-opacity="1" d="M 13.359375 7.539062 C 13.359375 8.488281 12.589844 9.261719 11.640625 9.261719 C 10.691406 9.261719 9.921875 8.488281 9.921875 7.539062 C 9.921875 6.589844 10.691406 5.820312 11.640625 5.820312 C 12.589844 5.820312 13.359375 6.589844 13.359375 7.539062 Z M 13.359375 7.539062 "/>
<path fill-rule="nonzero" fill="rgb(100%, 91.764706%, 34.901961%)" fill-opacity="1" d="M 12.832031 7.539062 C 12.832031 8.199219 12.296875 8.730469 11.640625 8.730469 C 10.984375 8.730469 10.449219 8.199219 10.449219 7.539062 C 10.449219 6.882812 10.984375 6.347656 11.640625 6.347656 C 12.296875 6.347656 12.832031 6.882812 12.832031 7.539062 Z M 12.832031 7.539062 "/>
<path fill-rule="nonzero" fill="rgb(100%, 100%, 100%)" fill-opacity="1" d="M 11.378906 8.199219 C 11.378906 9.660156 10.191406 10.847656 8.730469 10.847656 C 7.269531 10.847656 6.085938 9.660156 6.085938 8.199219 C 6.085938 6.738281 7.269531 5.554688 8.730469 5.554688 C 10.191406 5.554688 11.378906 6.738281 11.378906 8.199219 Z M 11.378906 8.199219 "/>
<path fill-rule="nonzero" fill="rgb(100%, 100%, 100%)" fill-opacity="1" d="M 7.9375 9.261719 C 7.9375 10.429688 6.988281 11.378906 5.820312 11.378906 C 4.652344 11.378906 3.703125 10.429688 3.703125 9.261719 C 3.703125 8.089844 4.652344 7.144531 5.820312 7.144531 C 6.988281 7.144531 7.9375 8.089844 7.9375 9.261719 Z M 7.9375 9.261719 "/>
<path fill-rule="nonzero" fill="rgb(100%, 100%, 100%)" fill-opacity="1" d="M 13.226562 9.789062 C 13.226562 10.667969 12.515625 11.378906 11.640625 11.378906 C 10.765625 11.378906 10.054688 10.667969 10.054688 9.789062 C 10.054688 8.914062 10.765625 8.203125 11.640625 8.203125 C 12.515625 8.203125 13.226562 8.914062 13.226562 9.789062 Z M 13.226562 9.789062 "/>
<path fill-rule="nonzero" fill="rgb(100%, 100%, 100%)" fill-opacity="1" d="M 5.820312 8.460938 L 11.640625 8.460938 L 11.640625 11.371094 L 5.820312 11.371094 Z M 5.820312 8.460938 "/>
</svg>
