<?xml version="1.0" encoding="UTF-8"?>
<svg xmlns="http://www.w3.org/2000/svg" xmlns:xlink="http://www.w3.org/1999/xlink" width="64" height="64" viewBox="0 0 64 64">
<path fill-rule="nonzero" fill="rgb(92.54902%, 92.54902%, 92.54902%)" fill-opacity="1" d="M 32 5 C 46.910156 5 59 17.089844 59 32 C 59 46.910156 46.910156 59 32 59 C 17.089844 59 5 46.910156 5 32 C 5 17.089844 17.089844 5 32 5 Z M 32 5 "/>
<path fill-rule="nonzero" fill="rgb(17.647059%, 17.647059%, 17.647059%)" fill-opacity="1" d="M 26.132812 16.992188 L 44.550781 37.988281 C 47.261719 41.253906 42.1875 41.722656 41.078125 41.441406 L 21.871094 19.449219 C 19.34375 16.679688 24.441406 15.644531 26.132812 16.992188 "/>
<path fill-rule="nonzero" fill="rgb(17.647059%, 17.647059%, 17.647059%)" fill-opacity="1" d="M 37.617188 19.492188 L 30.046875 28.09375 L 19.699219 43.042969 C 16.285156 50.859375 22.28125 47.652344 23.40625 45.363281 L 32.265625 30.816406 L 42.988281 19.703125 C 45.066406 16.4375 41.636719 13.429688 37.601562 19.492188 "/>
<path fill-rule="nonzero" fill="rgb(17.647059%, 17.647059%, 17.647059%)" fill-opacity="1" d="M 22.078125 45.230469 C 23.632812 45.527344 24.183594 45.648438 25.148438 45.050781 C 25.050781 45.625 24.953125 46.191406 24.851562 46.765625 C 23.910156 47.0625 22.960938 47.417969 22.019531 46.589844 "/>
<path fill-rule="nonzero" fill="rgb(21.176471%, 52.54902%, 86.666667%)" fill-opacity="1" d="M 41.695312 26.679688 L 26.101562 40.992188 L 24.007812 46.667969 L 29.828125 44.949219 L 29.84375 44.96875 L 29.875 44.9375 L 29.882812 44.9375 L 45.316406 30.601562 C 45.316406 30.601562 45.574219 29.753906 44.011719 28.09375 C 42.878906 26.894531 42.042969 26.703125 41.695312 26.679688 Z M 41.695312 26.679688 "/>
</svg>
