<?xml version="1.0" encoding="UTF-8"?>
<svg xmlns="http://www.w3.org/2000/svg" xmlns:xlink="http://www.w3.org/1999/xlink" width="64" height="64" viewBox="0 0 64 64">
<path fill-rule="nonzero" fill="rgb(20%, 20%, 20%)" fill-opacity="1" d="M 15.609375 8.46875 C 15.609375 12.414062 12.414062 15.609375 8.46875 15.609375 C 4.519531 15.609375 1.324219 12.414062 1.324219 8.46875 C 1.324219 4.519531 4.519531 1.324219 8.46875 1.324219 C 12.414062 1.324219 15.609375 4.519531 15.609375 8.46875 Z M 15.609375 8.46875 "/>
<path fill-rule="evenodd" fill="rgb(97.647059%, 97.647059%, 97.647059%)" fill-opacity="1" d="M 7.242188 3.492188 C 6.367188 3.957031 5.632812 4.820312 5.609375 5.851562 C 5.59375 6.382812 5.707031 6.949219 5.964844 7.410156 C 6.882812 7.425781 7.828125 7.949219 8.148438 8.839844 C 8.621094 10.019531 8.066406 11.582031 6.828125 12.015625 C 6.191406 12.246094 5.484375 12.144531 4.871094 11.898438 C 5.710938 12.425781 6.828125 12.628906 7.730469 12.128906 C 8.203125 11.878906 8.617188 11.5 8.902344 11.050781 C 8.457031 10.25 8.4375 9.171875 9.046875 8.445312 C 9.832031 7.445312 11.460938 7.140625 12.460938 7.992188 C 12.976562 8.429688 13.242188 9.09375 13.335938 9.746094 C 13.371094 8.757812 12.988281 7.6875 12.109375 7.15625 C 11.65625 6.867188 11.121094 6.707031 10.589844 6.671875 C 10.117188 7.460938 9.191406 8.015625 8.257812 7.851562 C 7.003906 7.671875 5.917969 6.414062 6.160156 5.125 C 6.28125 4.460938 6.722656 3.898438 7.242188 3.492188 Z M 7.242188 3.492188 "/>
</svg>
