<?xml version="1.0" encoding="UTF-8"?>
<svg xmlns="http://www.w3.org/2000/svg" xmlns:xlink="http://www.w3.org/1999/xlink" width="64" height="64" viewBox="0 0 64 64">
<path fill-rule="nonzero" fill="rgb(54.509804%, 49.411765%, 94.509804%)" fill-opacity="1" d="M 15.609375 8.464844 C 15.609375 12.410156 12.410156 15.609375 8.464844 15.609375 C 4.519531 15.609375 1.324219 12.410156 1.324219 8.464844 C 1.324219 4.519531 4.519531 1.324219 8.464844 1.324219 C 12.410156 1.324219 15.609375 4.519531 15.609375 8.464844 Z M 15.609375 8.464844 "/>
<path fill-rule="nonzero" fill="rgb(18.823529%, 18.823529%, 18.823529%)" fill-opacity="1" d="M 5.820312 4.496094 L 11.113281 4.496094 C 11.84375 4.496094 12.433594 5.089844 12.433594 5.820312 L 12.433594 11.113281 C 12.433594 11.84375 11.84375 12.433594 11.113281 12.433594 L 5.820312 12.433594 C 5.089844 12.433594 4.496094 11.84375 4.496094 11.113281 L 4.496094 5.820312 C 4.496094 5.089844 5.089844 4.496094 5.820312 4.496094 Z M 5.820312 4.496094 "/>
<path fill-rule="nonzero" fill="rgb(97.647059%, 97.647059%, 97.647059%)" fill-opacity="1" d="M 5.050781 10.953125 L 8.15625 10.953125 L 8.15625 11.574219 L 5.050781 11.574219 Z M 5.050781 10.953125 "/>
<path fill-rule="nonzero" fill="rgb(100%, 100%, 100%)" fill-opacity="1" d="M 6.902344 8.589844 C 7.371094 8.589844 7.777344 8.449219 8.113281 8.175781 L 8.113281 6.78125 L 6.773438 6.78125 L 6.773438 7.277344 L 7.546875 7.277344 L 7.546875 7.949219 C 7.390625 8.03125 7.195312 8.078125 6.976562 8.078125 C 6.324219 8.078125 5.902344 7.640625 5.902344 6.941406 C 5.902344 6.261719 6.296875 5.878906 6.992188 5.878906 C 7.269531 5.878906 7.589844 5.9375 7.832031 6.023438 L 7.996094 5.566406 C 7.726562 5.433594 7.382812 5.363281 7.027344 5.363281 C 5.972656 5.363281 5.292969 6.023438 5.292969 7.007812 C 5.292969 7.957031 5.933594 8.589844 6.902344 8.589844 Z M 6.902344 8.589844 "/>
<path fill-rule="nonzero" fill="rgb(100%, 100%, 100%)" fill-opacity="1" d="M 10.066406 8.585938 C 11.011719 8.585938 11.640625 7.929688 11.640625 6.949219 C 11.640625 6 11.03125 5.363281 10.117188 5.363281 C 9.179688 5.363281 8.5625 6.015625 8.5625 7 C 8.5625 7.953125 9.164062 8.585938 10.066406 8.585938 Z M 10.117188 8.074219 C 9.546875 8.074219 9.171875 7.628906 9.171875 6.949219 C 9.171875 6.300781 9.53125 5.878906 10.066406 5.878906 C 10.652344 5.878906 11.03125 6.320312 11.03125 7 C 11.03125 7.644531 10.667969 8.074219 10.117188 8.074219 Z M 10.117188 8.074219 "/>
</svg>
