<?xml version="1.0" encoding="UTF-8"?>
<svg xmlns="http://www.w3.org/2000/svg" xmlns:xlink="http://www.w3.org/1999/xlink" width="64" height="64" viewBox="0 0 64 64">
<path fill-rule="nonzero" fill="rgb(29.803922%, 68.627451%, 31.372549%)" fill-opacity="1" d="M 15.609375 8.464844 C 15.609375 12.410156 12.410156 15.609375 8.464844 15.609375 C 4.519531 15.609375 1.324219 12.410156 1.324219 8.464844 C 1.324219 4.519531 4.519531 1.324219 8.464844 1.324219 C 12.410156 1.324219 15.609375 4.519531 15.609375 8.464844 Z M 15.609375 8.464844 "/>
<path fill="none" stroke-width="0.9399" stroke-linecap="round" stroke-linejoin="round" stroke="rgb(100%, 100%, 100%)" stroke-opacity="1" stroke-miterlimit="4" d="M 8.464844 8.46875 L 6.113281 8.46875 C 6.113281 8.46875 4.703125 8.46875 4.703125 7.058594 C 4.703125 5.648438 6.113281 5.648438 6.113281 5.648438 L 11.753906 5.648438 M 8.46875 8.46875 L 10.820312 8.46875 C 10.820312 8.46875 12.230469 8.46875 12.230469 9.878906 C 12.230469 11.285156 10.820312 11.285156 10.820312 11.285156 L 5.179688 11.285156 "/>
</svg>
