<?xml version="1.0" encoding="UTF-8"?>
<svg xmlns="http://www.w3.org/2000/svg" xmlns:xlink="http://www.w3.org/1999/xlink" width="64" height="64" viewBox="0 0 64 64">
<path fill-rule="nonzero" fill="rgb(80.784314%, 31.372549%, 31.372549%)" fill-opacity="1" d="M 32 5 C 46.910156 5 59 17.085938 59 32 C 59 46.910156 46.910156 59 32 59 C 17.085938 59 5 46.910156 5 32 C 5 17.085938 17.085938 5 32 5 Z M 32 5 "/>
<path fill-rule="nonzero" fill="rgb(97.647059%, 97.647059%, 97.647059%)" fill-opacity="1" d="M 17.910156 19.085938 L 17.910156 39.042969 L 28.472656 46.085938 L 28.472656 25.542969 Z M 20.257812 19.085938 L 29.648438 24.957031 L 34.34375 24.957031 L 43.734375 19.085938 C 39.039062 19.085938 36.691406 19.695312 31.996094 23.78125 C 27.300781 19.796875 24.953125 19.085938 20.257812 19.085938 Z M 46.082031 19.085938 L 35.515625 25.542969 L 35.515625 46.085938 L 46.082031 39.042969 Z M 29.648438 26.128906 L 29.648438 47.257812 L 34.34375 47.257812 L 34.34375 26.128906 Z M 29.648438 26.128906 "/>
<path fill-rule="nonzero" fill="rgb(30.196078%, 30.196078%, 30.196078%)" fill-opacity="1" d="M 63 46 C 63 54.285156 56.285156 61 48 61 C 39.714844 61 33 54.285156 33 46 C 33 37.714844 39.714844 31 48 31 C 56.285156 31 63 37.714844 63 46 Z M 63 46 "/>
<path fill-rule="evenodd" fill="rgb(100%, 100%, 100%)" fill-opacity="1" d="M 48 39 C 46.0625 39.019531 44.109375 39.519531 42.421875 40.589844 C 41.75 41.082031 40.941406 41.714844 40.332031 42.351562 C 39.375 43.402344 38.554688 44.628906 38 46 C 39.519531 49.753906 42.855469 52.503906 46.53125 52.910156 C 48.9375 53.214844 51.460938 52.75 53.578125 51.414062 C 54.25 50.921875 55.058594 50.289062 55.667969 49.648438 C 56.625 48.597656 57.445312 47.371094 58 46 C 56.480469 42.25 53.144531 39.5 49.46875 39.09375 C 48.984375 39.027344 48.488281 39 48 39 Z M 48.003906 42 C 50.144531 41.953125 52.039062 43.867188 51.996094 45.996094 C 52.066406 48.347656 49.722656 50.378906 47.40625 49.941406 C 45.066406 49.664062 43.421875 47.039062 44.191406 44.816406 C 44.683594 43.179688 46.289062 41.984375 48.007812 42.003906 Z M 48 44 C 47.46875 44 46.960938 44.210938 46.585938 44.585938 C 46.210938 44.960938 46 45.472656 46 46.003906 C 46 47.105469 46.894531 48 48 48 C 49.105469 48 50 47.105469 50 46.003906 C 50 44.898438 49.105469 44.003906 48 44.003906 Z M 48 44 "/>
</svg>
