<?xml version="1.0" encoding="UTF-8"?>
<svg xmlns="http://www.w3.org/2000/svg" xmlns:xlink="http://www.w3.org/1999/xlink" width="64" height="64" viewBox="0 0 64 64">
<path fill-rule="nonzero" fill="rgb(21.960784%, 32.54902%, 45.098039%)" fill-opacity="1" d="M 59 32 C 59 46.910156 46.910156 59 32 59 C 17.089844 59 5 46.910156 5 32 C 5 17.089844 17.089844 5 32 5 C 46.910156 5 59 17.089844 59 32 Z M 59 32 "/>
<path fill-rule="nonzero" fill="rgb(38.823529%, 45.098039%, 74.901961%)" fill-opacity="1" d="M 14.347656 24.175781 C 13.097656 26.617188 12.441406 29.292969 12.433594 32 C 12.433594 42.085938 21.195312 50.261719 32 50.261719 C 42.804688 50.261719 51.566406 42.085938 51.566406 32 C 51.558594 29.292969 50.90625 26.617188 49.652344 24.175781 L 32 22.871094 Z M 14.347656 24.175781 "/>
<path fill-rule="nonzero" fill="rgb(93.333333%, 29.411765%, 37.254902%)" fill-opacity="1" d="M 32 13.738281 C 24.453125 13.75 17.582031 17.808594 14.347656 24.175781 L 49.652344 24.175781 C 46.417969 17.808594 39.546875 13.746094 32 13.738281 Z M 32 13.738281 "/>
<path fill-rule="nonzero" fill="rgb(58.431373%, 18.431373%, 35.686275%)" fill-opacity="1" d="M 32.800781 13.882812 L 32.800781 13.886719 C 31.007812 13.886719 29.457031 14.496094 28.679688 15.398438 C 27.980469 15.167969 27.183594 15.054688 26.339844 15.054688 C 24.144531 15.054688 22.296875 15.914062 21.609375 17.128906 C 21.492188 17.007812 21.335938 16.910156 21.191406 16.804688 C 20.929688 16.972656 20.671875 17.144531 20.417969 17.324219 C 21.027344 17.550781 21.542969 17.871094 21.925781 18.273438 C 22.617188 17.058594 24.46875 16.195312 26.660156 16.195312 C 27.507812 16.195312 28.296875 16.316406 29 16.542969 C 29.773438 15.640625 31.328125 15.027344 33.117188 15.027344 C 35.222656 15.027344 36.996094 15.886719 37.558594 17.046875 C 38.179688 17.011719 38.859375 17.035156 39.394531 17.179688 C 40.242188 17.410156 40.972656 18.191406 41.363281 19.121094 C 41.632812 19.769531 41.6875 20.429688 41.554688 21.007812 C 41.714844 21.097656 41.863281 21.191406 42 21.296875 C 42.035156 21.273438 42.089844 21.234375 42.105469 21.21875 C 42.550781 20.503906 42.617188 19.523438 42.210938 18.5625 C 42.019531 18.101562 41.753906 17.691406 41.414062 17.367188 C 41.835938 17.199219 42.289062 17.09375 42.769531 17.046875 C 42.957031 17.050781 43.144531 17.09375 43.332031 17.132812 C 42.761719 16.757812 42.171875 16.410156 41.5625 16.09375 C 41.171875 16.195312 40.792969 16.320312 40.457031 16.511719 C 39.777344 16.125 38.753906 15.875 37.613281 15.875 C 37.492188 15.875 37.367188 15.894531 37.242188 15.902344 C 36.671875 14.734375 34.898438 13.882812 32.800781 13.882812 Z M 33.589844 18.007812 C 32.324219 18.015625 31.203125 18.507812 30.675781 19.414062 C 30.59375 19.542969 30.53125 19.675781 30.488281 19.8125 L 30.488281 19.839844 L 30.167969 20.980469 C 30.21875 20.84375 30.277344 20.714844 30.355469 20.582031 C 31.203125 19.132812 33.578125 18.714844 35.644531 19.679688 C 36.332031 19.996094 36.890625 20.425781 37.304688 20.914062 C 37.527344 20.804688 37.761719 20.714844 38.007812 20.640625 C 37.460938 19.773438 36.714844 18.929688 35.9375 18.535156 C 35.164062 18.175781 34.351562 18.003906 33.589844 18.007812 Z M 23.066406 18.511719 C 22.464844 18.507812 21.824219 18.621094 21.207031 18.855469 C 20.628906 19.074219 20.144531 19.382812 19.746094 19.734375 C 18.933594 19.574219 18.140625 19.636719 17.453125 19.847656 C 16.902344 20.421875 16.390625 21.03125 15.917969 21.667969 C 16.984375 20.683594 18.957031 20.5 20.726562 21.328125 C 21.203125 21.550781 21.613281 21.824219 21.964844 22.128906 C 22.152344 21.855469 22.402344 21.613281 22.695312 21.417969 C 22.277344 20.9375 21.726562 20.507812 21.046875 20.1875 C 21.316406 20.015625 21.625 19.855469 21.949219 19.734375 C 23.1875 19.265625 24.5 19.308594 25.460938 19.734375 L 25.460938 19.707031 L 24.714844 18.855469 C 24.238281 18.644531 23.667969 18.511719 23.070312 18.511719 Z M 46.28125 19.550781 C 46.304688 19.601562 46.332031 19.652344 46.351562 19.707031 C 46.859375 20.925781 46.789062 22.171875 46.21875 23.082031 L 47.308594 22.421875 C 47.53125 22.058594 47.671875 21.636719 47.738281 21.191406 C 47.289062 20.617188 46.800781 20.070312 46.28125 19.550781 Z M 46.28125 19.550781 "/>
<path fill-rule="nonzero" fill="rgb(100%, 100%, 100%)" fill-opacity="1" d="M 25.480469 20.261719 C 21.15625 20.261719 17.652344 24.058594 17.652344 28.738281 C 17.652344 33.421875 21.15625 37.21875 25.480469 37.21875 L 38.523438 37.21875 C 42.84375 37.21875 46.347656 33.421875 46.347656 28.738281 C 46.347656 24.058594 42.84375 20.261719 38.523438 20.261719 C 35.898438 20.261719 33.449219 21.691406 32 24.066406 C 30.554688 21.691406 28.105469 20.261719 25.480469 20.261719 Z M 25.480469 20.261719 "/>
<path fill-rule="nonzero" fill="rgb(100%, 81.960784%, 3.921569%)" fill-opacity="1" d="M 32 33.304688 C 29.4375 33.304688 26.785156 34.609375 26.785156 37.21875 C 26.785156 39.824219 30.992188 46.347656 32 46.347656 C 33.011719 46.347656 37.21875 39.824219 37.21875 37.21875 C 37.21875 34.609375 34.566406 33.300781 32 33.304688 Z M 32 33.304688 "/>
<path fill-rule="nonzero" fill="rgb(1.176471%, 29.803922%, 46.666667%)" fill-opacity="1" d="M 28.089844 26.78125 C 26.648438 26.78125 25.480469 27.949219 25.480469 29.390625 C 25.480469 30.832031 26.648438 32 28.089844 32 C 29.527344 32 30.695312 30.832031 30.695312 29.390625 C 30.695312 27.949219 29.527344 26.78125 28.089844 26.78125 Z M 35.914062 26.78125 C 34.472656 26.78125 33.304688 27.949219 33.304688 29.390625 C 33.304688 30.832031 34.472656 32 35.914062 32 C 37.355469 32 38.523438 30.832031 38.523438 29.390625 C 38.523438 27.949219 37.355469 26.78125 35.914062 26.78125 Z M 27.4375 28.085938 C 27.796875 28.085938 28.089844 28.378906 28.089844 28.738281 C 28.089844 29.101562 27.796875 29.390625 27.4375 29.390625 C 27.074219 29.390625 26.785156 29.101562 26.785156 28.738281 C 26.785156 28.378906 27.074219 28.085938 27.4375 28.085938 Z M 35.261719 28.085938 C 35.621094 28.085938 35.914062 28.378906 35.914062 28.738281 C 35.914062 29.101562 35.621094 29.390625 35.261719 29.390625 C 34.902344 29.390625 34.609375 29.101562 34.609375 28.738281 C 34.609375 28.378906 34.902344 28.085938 35.261719 28.085938 Z M 35.261719 28.085938 "/>
</svg>
