<?xml version="1.0" encoding="UTF-8"?>
<svg xmlns="http://www.w3.org/2000/svg" xmlns:xlink="http://www.w3.org/1999/xlink" width="64" height="64" viewBox="0 0 64 64">
<path fill-rule="nonzero" fill="rgb(87.45098%, 21.176471%, 26.27451%)" fill-opacity="1" d="M 32 5 C 46.910156 5 59 17.085938 59 32 C 59 46.910156 46.910156 59 32 59 C 17.085938 59 5 46.910156 5 32 C 5 17.085938 17.085938 5 32 5 Z M 32 5 "/>
<path fill-rule="nonzero" fill="rgb(100%, 100%, 100%)" fill-opacity="1" d="M 32 16.152344 C 23.570312 16.152344 16.738281 24.5625 16.738281 34.933594 L 16.738281 37.28125 C 16.738281 41.171875 19.890625 44.324219 23.78125 44.324219 L 23.78125 30.238281 C 22.789062 30.242188 21.808594 30.457031 20.902344 30.863281 C 22.507812 24.191406 26.96875 19.675781 32 19.675781 C 37.027344 19.675781 41.492188 24.191406 43.097656 30.863281 C 42.191406 30.457031 41.210938 30.238281 40.21875 30.238281 L 40.21875 44.324219 C 44.105469 44.324219 47.261719 41.171875 47.261719 37.28125 L 47.261719 34.933594 C 47.261719 24.5625 40.429688 16.152344 32 16.152344 Z M 26.128906 26.71875 L 26.128906 29.066406 L 37.871094 29.066406 L 37.871094 26.71875 Z M 26.128906 31.414062 L 26.128906 33.761719 L 37.871094 33.761719 L 37.871094 31.414062 Z M 26.128906 36.109375 L 26.128906 38.457031 L 37.871094 38.457031 L 37.871094 36.109375 Z M 26.128906 40.804688 L 26.128906 43.152344 L 37.871094 43.152344 L 37.871094 40.804688 Z M 26.128906 45.5 L 26.128906 47.847656 L 37.871094 47.847656 L 37.871094 45.5 Z M 26.128906 45.5 "/>
</svg>
