<?xml version="1.0" encoding="UTF-8"?>
<svg xmlns="http://www.w3.org/2000/svg" xmlns:xlink="http://www.w3.org/1999/xlink" width="64" height="64" viewBox="0 0 64 64">
<defs>
<filter id="filter-remove-color" x="0%" y="0%" width="100%" height="100%">
<feColorMatrix color-interpolation-filters="sRGB" values="0 0 0 0 1 0 0 0 0 1 0 0 0 0 1 0 0 0 1 0" />
</filter>
<mask id="mask-0">
<g filter="url(#filter-remove-color)">
<rect x="-6.4" y="-6.4" width="76.8" height="76.8" fill="rgb(0%, 0%, 0%)" fill-opacity="0.25"/>
</g>
</mask>
<clipPath id="clip-0">
<rect x="0" y="0" width="17" height="17"/>
</clipPath>
<g id="source-6095" clip-path="url(#clip-0)">
<path fill-rule="nonzero" fill="rgb(100%, 100%, 100%)" fill-opacity="1" d="M 12.566406 8.070312 C 12.566406 8.726562 12.035156 9.261719 11.378906 9.261719 C 10.71875 9.261719 10.1875 8.726562 10.1875 8.070312 C 10.1875 7.414062 10.71875 6.878906 11.378906 6.878906 C 12.035156 6.878906 12.566406 7.414062 12.566406 8.070312 Z M 12.566406 8.070312 "/>
</g>
</defs>
<path fill-rule="nonzero" fill="rgb(4.313725%, 57.647059%, 82.745098%)" fill-opacity="1" d="M 15.609375 8.460938 C 15.609375 12.40625 12.410156 15.605469 8.464844 15.605469 C 4.519531 15.605469 1.324219 12.40625 1.324219 8.460938 C 1.324219 4.515625 4.519531 1.316406 8.464844 1.316406 C 12.410156 1.316406 15.609375 4.515625 15.609375 8.460938 Z M 15.609375 8.460938 "/>
<g mask="url(#mask-0)">
<use xlink:href="#source-6095"/>
</g>
<path fill-rule="nonzero" fill="rgb(100%, 100%, 100%)" fill-opacity="1" d="M 11.378906 8.199219 C 11.378906 9.660156 10.191406 10.847656 8.730469 10.847656 C 7.269531 10.847656 6.085938 9.660156 6.085938 8.199219 C 6.085938 6.738281 7.269531 5.554688 8.730469 5.554688 C 10.191406 5.554688 11.378906 6.738281 11.378906 8.199219 Z M 11.378906 8.199219 "/>
<path fill-rule="nonzero" fill="rgb(100%, 100%, 100%)" fill-opacity="1" d="M 7.9375 9.261719 C 7.9375 10.429688 6.988281 11.378906 5.820312 11.378906 C 4.652344 11.378906 3.703125 10.429688 3.703125 9.261719 C 3.703125 8.089844 4.652344 7.144531 5.820312 7.144531 C 6.988281 7.144531 7.9375 8.089844 7.9375 9.261719 Z M 7.9375 9.261719 "/>
<path fill-rule="nonzero" fill="rgb(100%, 100%, 100%)" fill-opacity="1" d="M 13.230469 9.789062 C 13.230469 10.667969 12.519531 11.378906 11.640625 11.378906 C 10.765625 11.378906 10.054688 10.667969 10.054688 9.789062 C 10.054688 8.914062 10.765625 8.203125 11.640625 8.203125 C 12.519531 8.203125 13.230469 8.914062 13.230469 9.789062 Z M 13.230469 9.789062 "/>
<path fill-rule="nonzero" fill="rgb(100%, 100%, 100%)" fill-opacity="1" d="M 5.820312 8.460938 L 11.640625 8.460938 L 11.640625 11.371094 L 5.820312 11.371094 Z M 5.820312 8.460938 "/>
</svg>
