<?xml version="1.0" encoding="UTF-8"?>
<svg xmlns="http://www.w3.org/2000/svg" xmlns:xlink="http://www.w3.org/1999/xlink" width="64" height="64" viewBox="0 0 64 64">
<path fill-rule="nonzero" fill="rgb(89.803922%, 89.803922%, 89.803922%)" fill-opacity="1" d="M 59 32 C 59 46.910156 46.910156 59 32 59 C 28.378906 59 24.925781 58.285156 21.765625 56.996094 C 18.613281 55.703125 15.757812 53.828125 13.332031 51.511719 C 13.324219 51.507812 13.320312 51.5 13.304688 51.492188 C 13.261719 51.453125 13.222656 51.417969 13.179688 51.375 C 8.140625 46.464844 5 39.597656 5 32 C 5 17.085938 17.089844 5 32 5 C 34.261719 5 36.457031 5.273438 38.554688 5.804688 C 41.246094 6.476562 43.773438 7.546875 46.074219 8.957031 C 47.261719 9.683594 48.390625 10.5 49.445312 11.394531 C 52.769531 14.210938 55.402344 17.824219 57.058594 21.929688 C 58.3125 25.050781 59 28.441406 59 32 Z M 59 32 "/>
<path fill-rule="nonzero" fill="rgb(4.705882%, 4.705882%, 4.705882%)" fill-opacity="1" d="M 43.960938 22.679688 C 44.082031 23.765625 43.875 24.894531 43.992188 25.996094 C 44.121094 27.195312 43.957031 28.460938 43.738281 29.640625 C 43.714844 28.679688 43.6875 27.710938 43.636719 26.773438 C 43.585938 25.78125 43.195312 24.765625 42.929688 23.804688 C 43.214844 25.832031 43.339844 27.886719 43.390625 29.925781 C 43.429688 31.496094 43.4375 33.132812 43.175781 34.667969 C 42.921875 36.167969 42.140625 37.671875 41.652344 39.058594 C 40.929688 41.113281 41.160156 43.863281 40.988281 46.121094 C 40.988281 46.121094 40.816406 46.511719 40.523438 44.597656 C 40.128906 42.007812 40.550781 39.171875 40.601562 36.539062 L 40.601562 36.476562 C 40.601562 36.445312 40.59375 36.390625 40.59375 36.390625 C 40.59375 36.390625 40.511719 36.628906 40.5 36.699219 C 40.492188 36.726562 40.480469 36.792969 40.480469 36.8125 L 40.480469 36.820312 C 40.472656 36.851562 40.46875 36.890625 40.460938 36.933594 C 40.453125 36.960938 40.453125 36.980469 40.449219 37.003906 C 40.441406 37.046875 40.429688 37.105469 40.421875 37.15625 C 40.417969 37.179688 40.410156 37.214844 40.410156 37.238281 C 40.371094 37.449219 40.320312 37.707031 40.257812 38.019531 C 39.945312 39.507812 39.726562 41.019531 39.515625 42.523438 C 39.507812 42.554688 39.507812 42.578125 39.503906 42.613281 C 39.332031 43.652344 39.007812 44.097656 38.367188 44.824219 C 37.6875 45.597656 36.871094 46.570312 35.949219 47.117188 C 35.925781 47.132812 35.886719 47.152344 35.847656 47.179688 C 34.617188 48.015625 33.476562 49.074219 32.1875 49.773438 C 32.101562 49.824219 32.066406 49.824219 32.125 49.761719 C 32.167969 49.710938 32.214844 49.664062 32.257812 49.613281 C 32.589844 49.257812 32.90625 48.867188 33.121094 48.464844 L 33.140625 48.429688 C 33.851562 46.980469 34.492188 45.464844 35.132812 43.976562 C 35.132812 43.976562 34.953125 44.242188 34.730469 44.558594 C 34.453125 44.953125 34.085938 45.433594 33.933594 45.617188 C 32.726562 47.078125 31.878906 49.195312 30.617188 50.585938 C 30.160156 51.085938 29.378906 51.277344 28.863281 51.765625 C 28.382812 52.222656 27.691406 52.519531 27.0625 52.628906 C 26.046875 52.800781 24.96875 53.421875 23.9375 53.800781 C 23.9375 53.800781 24.542969 53.070312 24.988281 52.496094 C 25.914062 51.277344 26.769531 49.996094 27.550781 48.667969 C 27.53125 48.683594 27.007812 49.113281 26.664062 49.855469 C 26.066406 51.167969 24.578125 52.152344 23.542969 53.167969 C 22.78125 53.914062 21.710938 54.351562 20.675781 54.574219 C 18.929688 54.503906 17.15625 54.316406 15.460938 53.898438 C 14.050781 53.542969 11.484375 52.722656 10.96875 51.753906 C 10.898438 51.613281 10.867188 51.054688 11.160156 50.523438 C 11.667969 49.597656 12.6875 48.828125 13.308594 47.925781 C 14.476562 46.222656 16.144531 43.632812 17.828125 42.625 C 18.757812 42.066406 20.007812 41.730469 21.101562 41.285156 C 21.601562 41.113281 21.84375 41.027344 22.335938 40.84375 C 21.105469 41.113281 19.921875 41.578125 18.746094 42.023438 C 18.746094 42.023438 18.753906 42.035156 19.382812 41.195312 C 20.078125 40.269531 21 39.503906 21.8125 38.691406 C 23.238281 37.265625 26.714844 34.953125 26.714844 34.953125 C 26.714844 34.953125 24.867188 36.058594 23.902344 36.070312 C 23.320312 36.078125 22.75 36.421875 22.265625 36.726562 C 22.863281 36.050781 23.503906 35.398438 24.121094 34.753906 C 25.363281 33.433594 27.070312 32.488281 28.59375 31.496094 C 27.835938 31.65625 27 31.582031 26.246094 31.464844 C 27.679688 30.566406 29.074219 29.542969 30.273438 28.371094 C 33.222656 25.472656 34.675781 21.222656 36.957031 17.867188 C 38.003906 16.332031 39.453125 14.992188 40.839844 13.734375 C 40.839844 13.734375 41.765625 13.875 41.90625 14.410156 C 42.25 15.734375 42.832031 17.054688 43.285156 18.375 C 43.753906 19.722656 43.804688 21.257812 43.960938 22.679688 Z M 43.960938 22.679688 "/>
<path fill-rule="nonzero" fill="rgb(6.666667%, 48.627451%, 7.45098%)" fill-opacity="1" d="M 39.386719 28.890625 C 39.222656 28.953125 40.136719 32.46875 40.429688 34.0625 C 40.570312 34.820312 40.667969 35.613281 40.601562 36.390625 C 40.601562 36.390625 40.519531 36.628906 40.503906 36.699219 C 40.5 36.726562 40.484375 36.792969 40.484375 36.8125 L 40.484375 36.820312 C 40.480469 36.859375 40.472656 36.890625 40.46875 36.933594 C 40.460938 36.960938 40.460938 36.980469 40.453125 37.003906 C 40.449219 37.046875 40.433594 37.105469 40.429688 37.15625 C 40.421875 37.179688 40.417969 37.214844 40.417969 37.238281 C 40.378906 37.449219 40.328125 37.707031 40.265625 38.019531 C 39.953125 39.507812 39.730469 41.019531 39.523438 42.523438 C 39.515625 42.554688 39.515625 42.578125 39.507812 42.613281 C 39.335938 43.652344 39.015625 44.097656 38.375 44.824219 C 37.695312 45.597656 36.875 46.570312 35.957031 47.117188 C 35.929688 47.132812 35.894531 47.152344 35.855469 47.179688 C 34.625 48.015625 33.484375 49.074219 32.195312 49.773438 C 32.105469 49.824219 32.074219 49.824219 32.132812 49.761719 C 32.175781 49.710938 32.21875 49.664062 32.265625 49.613281 C 32.59375 49.257812 32.910156 48.867188 33.128906 48.464844 L 33.144531 48.429688 C 33.855469 46.980469 34.496094 45.464844 35.136719 43.976562 C 35.171875 43.917969 35.183594 43.886719 35.207031 43.828125 C 35.273438 43.703125 35.316406 43.5625 35.347656 43.410156 C 35.714844 41.488281 36.109375 39.257812 35.683594 37.332031 C 35.304688 35.628906 35.277344 36.046875 35.277344 36.046875 C 35.183594 36.871094 35.03125 37.703125 34.800781 38.496094 C 34.625 39.097656 34.300781 39.625 34.257812 39.933594 C 34.136719 40.753906 34.464844 41.589844 34.484375 41.640625 C 34.464844 41.609375 34.179688 41.128906 34.117188 40.410156 C 34.046875 39.628906 34.515625 38.785156 34.6875 38.070312 C 34.96875 36.910156 34.410156 35.234375 34.65625 34.390625 C 35.296875 32.164062 37.808594 28.726562 38.832031 25.644531 C 39.363281 27.292969 39.777344 29.085938 40.347656 30.621094 C 40.398438 30.761719 40.417969 30.804688 40.367188 30.742188 C 40.097656 30.128906 39.386719 28.890625 39.386719 28.890625 Z M 39.386719 28.890625 "/>
<path fill-rule="nonzero" fill="rgb(16.862745%, 16.862745%, 16.862745%)" fill-opacity="1" d="M 41.855469 17.21875 C 41.863281 17.21875 43.125 19.585938 43.277344 20.859375 C 43.371094 21.683594 43.582031 23.347656 43.582031 23.347656 C 43.582031 23.347656 43.175781 20.851562 42.796875 19.667969 C 42.535156 18.84375 41.855469 17.21875 41.855469 17.21875 Z M 41.855469 17.21875 "/>
<path fill-rule="nonzero" fill="rgb(16.862745%, 16.862745%, 16.862745%)" fill-opacity="1" d="M 41.589844 18.824219 C 41.589844 18.824219 42.3125 20.566406 42.484375 21.488281 C 42.609375 22.179688 42.84375 23.582031 42.84375 23.582031 C 42.84375 23.582031 42.433594 21.78125 42.179688 20.898438 C 41.976562 20.207031 41.589844 18.824219 41.589844 18.824219 Z M 41.589844 18.824219 "/>
<path fill-rule="nonzero" fill="rgb(16.862745%, 16.862745%, 16.862745%)" fill-opacity="1" d="M 40.125 22.097656 C 40.765625 24.125 41.449219 26.234375 41.664062 28.332031 C 41.816406 29.84375 41.589844 32.9375 41.589844 32.9375 C 41.582031 32.9375 41.652344 29.085938 41.285156 27.246094 C 41.050781 26.074219 40.765625 24.90625 40.417969 23.757812 C 40.011719 22.421875 40.027344 22.414062 40.027344 22.414062 Z M 40.125 22.097656 "/>
<path fill-rule="nonzero" fill="rgb(16.862745%, 16.862745%, 16.862745%)" fill-opacity="1" d="M 41.476562 34.90625 C 41.476562 34.90625 41.457031 36.261719 41.378906 36.929688 C 41.304688 37.613281 41.152344 38.304688 41.0625 38.996094 C 40.980469 39.636719 40.808594 40.335938 40.859375 40.949219 C 40.886719 41.261719 40.808594 41.03125 40.855469 40.195312 C 40.90625 39.148438 41.191406 38.082031 41.296875 37.042969 C 41.359375 36.332031 41.476562 34.90625 41.476562 34.90625 Z M 41.476562 34.90625 "/>
<path fill-rule="nonzero" fill="rgb(16.862745%, 16.862745%, 16.862745%)" fill-opacity="1" d="M 41.691406 23.601562 C 41.691406 23.601562 41.96875 24.253906 42.191406 25.070312 C 42.382812 25.777344 42.507812 26.488281 42.585938 27.214844 C 42.648438 27.851562 42.800781 28.910156 42.800781 28.910156 C 42.730469 27.957031 42.660156 26.988281 42.515625 26.046875 C 42.484375 25.828125 42.390625 25.515625 42.3125 25.25 C 42.21875 24.902344 42.101562 24.558594 41.964844 24.234375 C 41.851562 23.988281 41.792969 23.855469 41.691406 23.601562 Z M 41.691406 23.601562 "/>
<path fill-rule="nonzero" fill="rgb(16.862745%, 16.862745%, 16.862745%)" fill-opacity="1" d="M 38.410156 28.871094 C 38.410156 28.871094 38.578125 29.542969 38.722656 30.332031 C 38.835938 30.972656 38.886719 31.636719 38.988281 32.273438 C 39.128906 33.160156 39.757812 34.929688 39.757812 34.929688 C 39.757812 34.929688 39.371094 33.28125 39.191406 32.5 C 39.046875 31.851562 38.996094 31.128906 38.886719 30.457031 C 38.835938 30.128906 38.746094 29.796875 38.632812 29.488281 C 38.542969 29.238281 38.5 29.117188 38.410156 28.871094 Z M 38.410156 28.871094 "/>
<path fill-rule="nonzero" fill="rgb(16.862745%, 16.862745%, 16.862745%)" fill-opacity="1" d="M 37.300781 29.90625 C 37.300781 29.90625 39.371094 37.6875 38.359375 41.03125 C 37.734375 43.121094 35.105469 46.835938 35.105469 46.835938 C 35.101562 46.832031 38.105469 42.332031 38.285156 39.863281 C 38.480469 37.175781 38.054688 34.554688 37.632812 31.871094 C 37.523438 31.21875 37.300781 29.90625 37.300781 29.90625 Z M 37.300781 29.90625 "/>
<path fill-rule="nonzero" fill="rgb(16.862745%, 16.862745%, 16.862745%)" fill-opacity="1" d="M 36.65625 33.6875 C 36.65625 33.6875 36.871094 34.308594 36.945312 35.074219 C 37.023438 35.867188 37.027344 36.691406 37.007812 37.492188 C 36.976562 38.734375 36.476562 41.234375 36.476562 41.234375 C 36.476562 41.234375 37.09375 38.527344 37.136719 37.238281 C 37.15625 36.605469 37.058594 35.90625 37.007812 35.246094 C 36.984375 34.921875 36.925781 34.601562 36.839844 34.296875 C 36.761719 34.054688 36.722656 33.933594 36.65625 33.6875 Z M 36.65625 33.6875 "/>
<path fill-rule="nonzero" fill="rgb(16.862745%, 16.862745%, 16.862745%)" fill-opacity="1" d="M 32.316406 37.890625 C 32.765625 40.757812 32.4375 43.777344 31.371094 46.375 C 30.464844 48.59375 26.753906 52.042969 26.753906 52.042969 C 26.753906 52.042969 28.625 50.421875 29.386719 49.460938 C 30.175781 48.464844 30.734375 47.242188 31.25 46.070312 C 32.105469 44.121094 32.371094 41.632812 32.050781 39.546875 C 31.730469 37.480469 31.964844 38.242188 31.964844 38.242188 Z M 32.316406 37.890625 "/>
<path fill-rule="nonzero" fill="rgb(16.862745%, 16.862745%, 16.862745%)" fill-opacity="1" d="M 33.246094 41.722656 C 33.246094 41.78125 33.253906 41.835938 33.246094 41.902344 C 33.246094 42.039062 33.246094 42.382812 33.292969 42.933594 C 33.316406 43.238281 33.375 43.640625 33.355469 44.046875 C 33.335938 44.402344 33.234375 44.8125 33.144531 45.085938 C 32.90625 45.839844 32.289062 47.332031 32.289062 47.332031 C 32.289062 47.332031 33.046875 45.765625 33.265625 44.984375 C 33.3125 44.824219 33.425781 44.496094 33.457031 44.078125 C 33.488281 43.660156 33.40625 43.214844 33.398438 43.09375 C 33.382812 42.371094 33.296875 41.621094 33.195312 40.890625 C 33.222656 41.230469 33.234375 41.394531 33.246094 41.722656 Z M 33.246094 41.722656 "/>
<path fill-rule="nonzero" fill="rgb(16.862745%, 16.862745%, 16.862745%)" fill-opacity="1" d="M 29.554688 44.089844 C 29.269531 45.6875 28.171875 48.878906 28.171875 48.878906 C 28.171875 48.878906 29.234375 46.417969 29.5 45.175781 C 29.664062 44.386719 30.058594 43.289062 29.835938 42.492188 C 29.828125 42.492188 29.652344 43.550781 29.554688 44.089844 Z M 29.554688 44.089844 "/>
<path fill-rule="nonzero" fill="rgb(16.862745%, 16.862745%, 16.862745%)" fill-opacity="1" d="M 17.332031 51.898438 C 17.128906 52.449219 16.703125 52.988281 16.316406 53.472656 C 16.316406 53.472656 17.179688 52.476562 17.269531 52.261719 C 17.308594 52.164062 17.605469 51.433594 17.492188 51.378906 C 17.496094 51.378906 17.394531 51.726562 17.332031 51.898438 Z M 17.332031 51.898438 "/>
<path fill-rule="nonzero" fill="rgb(16.862745%, 16.862745%, 16.862745%)" fill-opacity="1" d="M 20.820312 50.589844 C 20.714844 51.664062 19.71875 53.789062 19.71875 53.789062 C 19.71875 53.789062 20.695312 52.121094 20.859375 51.277344 C 20.898438 51.097656 21.082031 49.640625 20.878906 49.582031 C 20.882812 49.582031 20.859375 50.253906 20.820312 50.589844 Z M 20.820312 50.589844 "/>
<path fill-rule="nonzero" fill="rgb(16.862745%, 16.862745%, 16.862745%)" fill-opacity="1" d="M 25.433594 47.21875 C 25.269531 48.695312 24.140625 51.65625 24.140625 51.65625 C 24.140625 51.65625 25.253906 49.347656 25.457031 48.175781 C 25.574219 47.507812 25.875 46.425781 25.574219 45.777344 C 25.578125 45.777344 25.488281 46.730469 25.433594 47.21875 Z M 25.433594 47.21875 "/>
<path fill-rule="nonzero" fill="rgb(16.862745%, 16.862745%, 16.862745%)" fill-opacity="1" d="M 40.269531 15.390625 C 39.539062 15.734375 38.804688 16.230469 38.335938 16.894531 C 37.886719 17.542969 37.097656 18.929688 37.097656 18.929688 C 37.105469 18.929688 38.234375 17.332031 38.875 16.71875 C 38.976562 16.621094 39.523438 16.082031 39.589844 16.039062 C 39.71875 15.960938 40.269531 15.390625 40.269531 15.390625 Z M 40.269531 15.390625 "/>
<path fill-rule="nonzero" fill="rgb(16.862745%, 16.862745%, 16.862745%)" fill-opacity="1" d="M 39.386719 18.863281 C 39.269531 18.84375 39.152344 18.835938 39.039062 18.847656 C 38.824219 18.875 38.425781 18.945312 37.9375 19.140625 C 37.195312 19.445312 36.515625 19.992188 35.878906 20.503906 C 35.878906 20.503906 36.507812 20.128906 36.6875 20.042969 C 36.824219 19.972656 37.25 19.722656 37.664062 19.535156 C 37.796875 19.46875 38.113281 19.34375 38.425781 19.25 C 39.085938 19.046875 39.808594 18.925781 39.808594 18.925781 C 39.636719 18.90625 39.554688 18.886719 39.386719 18.863281 Z M 39.386719 18.863281 "/>
<path fill-rule="nonzero" fill="rgb(16.862745%, 16.862745%, 16.862745%)" fill-opacity="1" d="M 38.203125 20.53125 C 38.203125 20.53125 38.152344 20.890625 36.945312 20.753906 C 36.265625 20.675781 35.558594 21.054688 35.171875 21.609375 C 35.09375 21.730469 35.054688 21.785156 34.980469 21.90625 C 35.121094 21.78125 35.1875 21.714844 35.328125 21.582031 C 35.328125 21.582031 35.765625 21.222656 36.015625 21.113281 C 36.242188 21.011719 36.636719 21.019531 36.890625 21.140625 C 37.023438 21.203125 37.25 21.207031 37.441406 21.195312 C 37.75 21.183594 38.023438 20.949219 38.191406 20.535156 C 38.195312 20.542969 38.195312 20.535156 38.203125 20.53125 Z M 38.203125 20.53125 "/>
<path fill-rule="nonzero" fill="rgb(16.862745%, 16.862745%, 16.862745%)" fill-opacity="1" d="M 37.726562 22.457031 C 37.695312 22.402344 34.554688 24.4375 33.457031 25.738281 C 32.246094 27.171875 29.550781 29.847656 29.550781 29.847656 C 29.550781 29.855469 31.066406 29.011719 31.699219 28.492188 C 32.671875 27.703125 33.335938 26.449219 34.292969 25.648438 C 34.878906 25.160156 35.367188 24.507812 35.964844 24.019531 C 36.566406 23.53125 37.726562 22.457031 37.726562 22.457031 Z M 37.726562 22.457031 "/>
<path fill-rule="nonzero" fill="rgb(16.862745%, 16.862745%, 16.862745%)" fill-opacity="1" d="M 37.148438 27.601562 C 34.140625 29.265625 30.835938 30.703125 28.066406 32.734375 C 27.144531 33.40625 26.207031 34.054688 25.269531 34.703125 C 24.96875 34.910156 24.660156 35.105469 24.339844 35.285156 C 24.132812 35.40625 24.023438 35.46875 23.808594 35.582031 C 24.578125 35.34375 25.375 35.0625 26.066406 34.675781 C 26.613281 34.371094 27.132812 33.925781 27.628906 33.539062 C 28.28125 33.03125 28.992188 32.570312 29.714844 32.152344 C 30.050781 31.960938 30.214844 31.867188 30.546875 31.664062 C 31.003906 31.390625 31.472656 31.15625 31.953125 30.972656 C 33.539062 30.34375 35.101562 29.671875 36.640625 28.949219 C 36.859375 28.414062 36.957031 28.148438 37.148438 27.601562 Z M 37.148438 27.601562 "/>
<path fill-rule="nonzero" fill="rgb(16.862745%, 16.862745%, 16.862745%)" fill-opacity="1" d="M 30.113281 33.140625 C 30.160156 33.121094 30.195312 33.101562 30.242188 33.089844 C 30.34375 33.050781 30.589844 32.957031 30.964844 32.746094 C 31.171875 32.628906 31.433594 32.441406 31.71875 32.339844 C 32.722656 31.980469 34.769531 31.28125 34.769531 31.28125 C 34.769531 31.28125 32.714844 31.910156 31.707031 32.226562 C 31.410156 32.324219 31.121094 32.550781 31.039062 32.589844 C 30.871094 32.664062 29.722656 33.273438 29.511719 33.414062 C 29.757812 33.300781 29.875 33.25 30.113281 33.140625 Z M 30.113281 33.140625 "/>
<path fill-rule="nonzero" fill="rgb(16.862745%, 16.862745%, 16.862745%)" fill-opacity="1" d="M 33.101562 34.503906 C 33.101562 34.5 29.199219 35.234375 27.671875 36.1875 C 26.707031 36.789062 25.558594 37.117188 24.59375 37.675781 C 23.972656 38.039062 22.769531 38.9375 22.769531 38.9375 C 22.769531 38.945312 24.558594 38.011719 25.496094 37.683594 C 26.585938 37.300781 27.578125 36.628906 28.65625 36.261719 C 30.140625 35.765625 33.101562 34.503906 33.101562 34.503906 Z M 33.101562 34.503906 "/>
<path fill-rule="nonzero" fill="rgb(16.862745%, 16.862745%, 16.862745%)" fill-opacity="1" d="M 24.070312 39.109375 C 24.070312 39.109375 23.59375 39.046875 22.496094 39.578125 C 21.804688 39.914062 21.113281 40.289062 20.460938 40.714844 C 20.898438 40.492188 21.113281 40.386719 21.539062 40.148438 C 21.660156 40.09375 22.152344 39.808594 22.609375 39.597656 C 22.941406 39.445312 23.453125 39.292969 23.796875 39.191406 C 23.902344 39.160156 23.960938 39.148438 24.070312 39.109375 Z M 24.070312 39.109375 "/>
<path fill-rule="nonzero" fill="rgb(16.862745%, 16.862745%, 16.862745%)" fill-opacity="1" d="M 29.433594 40.246094 C 27.933594 40.265625 26.28125 40.199219 24.847656 40.601562 C 24.214844 40.777344 23.566406 41.011719 22.953125 41.273438 C 23.566406 41.109375 23.871094 41.027344 24.476562 40.847656 C 24.917969 40.714844 25.371094 40.632812 25.820312 40.59375 C 27.023438 40.492188 28.230469 40.378906 29.433594 40.246094 Z M 29.433594 40.246094 "/>
<path fill-rule="nonzero" fill="rgb(16.862745%, 16.862745%, 16.862745%)" fill-opacity="1" d="M 25.160156 42.617188 C 24.875 42.605469 24.589844 42.613281 24.304688 42.628906 C 22.832031 42.730469 21.253906 42.808594 19.871094 43.253906 C 18.910156 43.5625 17.027344 44.445312 17.027344 44.445312 C 17.027344 44.445312 19.476562 43.457031 20.746094 43.246094 C 22.496094 42.953125 24.289062 42.714844 26.078125 42.644531 C 25.710938 42.636719 25.527344 42.628906 25.160156 42.617188 Z M 25.160156 42.617188 "/>
<path fill-rule="nonzero" fill="rgb(16.862745%, 16.862745%, 16.862745%)" fill-opacity="1" d="M 20.125 44.433594 C 18.988281 44.628906 17.769531 44.871094 16.761719 45.421875 C 15.605469 46.050781 15.828125 46.011719 15.828125 46.011719 C 16.246094 45.839844 16.457031 45.75 16.867188 45.5625 C 17.484375 45.277344 18.144531 45.027344 18.796875 44.84375 C 19.335938 44.6875 19.597656 44.605469 20.125 44.433594 Z M 20.125 44.433594 "/>
<path fill-rule="nonzero" fill="rgb(16.862745%, 16.862745%, 16.862745%)" fill-opacity="1" d="M 21.996094 46.171875 C 20.597656 46.324219 19.203125 46.480469 17.8125 46.628906 C 16.75 46.734375 15.671875 47.046875 14.707031 47.527344 C 14.648438 47.558594 14.625 47.574219 14.566406 47.597656 C 15.144531 47.445312 15.726562 47.28125 16.292969 47.089844 C 17.039062 46.863281 17.800781 46.746094 18.574219 46.660156 C 19.722656 46.527344 20.859375 46.367188 21.996094 46.171875 Z M 21.996094 46.171875 "/>
<path fill-rule="nonzero" fill="rgb(16.862745%, 16.862745%, 16.862745%)" fill-opacity="1" d="M 17.839844 48.535156 C 17.839844 48.53125 15.550781 48.023438 14.558594 48.460938 C 13.367188 48.980469 13.226562 49.273438 13.226562 49.273438 C 13.679688 49.058594 13.898438 48.949219 14.324219 48.714844 L 14.628906 48.5625 C 15.023438 48.398438 15.519531 48.339844 15.992188 48.363281 C 16.609375 48.402344 17.839844 48.535156 17.839844 48.535156 Z M 17.839844 48.535156 "/>
<path fill-rule="nonzero" fill="rgb(30.588235%, 30.980392%, 30.588235%)" fill-opacity="1" d="M 41.132812 2.855469 C 42.128906 6.535156 42.148438 10.316406 41.976562 14.070312 C 41.785156 18.15625 40.246094 22.445312 38.914062 26.300781 C 37.511719 30.367188 35.265625 33.808594 33.152344 37.492188 C 31.210938 40.875 28.136719 43.726562 25.109375 46.132812 C 22.46875 48.226562 19.550781 49.824219 16.414062 50.980469 C 15.433594 51.332031 14.34375 51.460938 13.308594 51.492188 C 12.550781 51.511719 12.003906 51.46875 11.976562 51.46875 C 14.222656 50.996094 16.5 50.320312 18.492188 49.171875 C 24.019531 45.980469 29.21875 41.617188 32.460938 36.046875 C 34.523438 32.511719 36.46875 29.042969 37.828125 25.160156 C 39.078125 21.570312 40.441406 17.808594 40.816406 14.015625 C 41.101562 11.117188 41.089844 8.148438 40.570312 5.265625 C 40.746094 4.664062 40.820312 4.359375 40.957031 3.757812 C 41.03125 3.390625 41.070312 3.210938 41.132812 2.855469 Z M 41.132812 2.855469 "/>
<path fill-rule="nonzero" fill="rgb(40%, 40%, 40%)" fill-opacity="1" d="M 41.132812 2.855469 C 42.128906 6.535156 42.148438 10.316406 41.976562 14.070312 C 41.785156 18.15625 40.246094 22.445312 38.914062 26.300781 C 37.511719 30.367188 35.265625 33.808594 33.152344 37.492188 C 31.210938 40.875 28.136719 43.726562 25.109375 46.132812 C 22.46875 48.226562 19.550781 49.824219 16.414062 50.980469 C 15.433594 51.332031 14.351562 51.460938 13.308594 51.492188 L 13.304688 51.492188 C 15.746094 50.984375 18.300781 50.242188 20.394531 48.859375 C 25.851562 45.257812 31.097656 40.898438 34.15625 34.988281 C 36.058594 31.308594 37.769531 27.691406 39.050781 23.726562 C 40.238281 20.058594 41.496094 16.191406 41.683594 12.328125 C 41.832031 9.460938 41.640625 6.550781 40.957031 3.75 C 41.03125 3.390625 41.070312 3.210938 41.132812 2.855469 Z M 41.132812 2.855469 "/>
</svg>
