<?xml version="1.0" encoding="UTF-8"?>
<svg xmlns="http://www.w3.org/2000/svg" xmlns:xlink="http://www.w3.org/1999/xlink" width="64" height="64" viewBox="0 0 64 64">
<defs>
<filter id="filter-remove-color" x="0%" y="0%" width="100%" height="100%">
<feColorMatrix color-interpolation-filters="sRGB" values="0 0 0 0 1 0 0 0 0 1 0 0 0 0 1 0 0 0 1 0" />
</filter>
<clipPath id="clip-0">
<rect x="0" y="0" width="17" height="17"/>
</clipPath>
<g id="source-5607" clip-path="url(#clip-0)">
<path fill-rule="evenodd" fill="rgb(30.196078%, 30.196078%, 30.196078%)" fill-opacity="1" d="M 12.695312 9.574219 L 11.578125 5.390625 C 11.578125 5.378906 11.566406 5.367188 11.542969 5.351562 L 7.359375 4.234375 C 7.347656 4.234375 7.324219 4.234375 7.3125 4.246094 L 4.246094 7.308594 C 4.234375 7.320312 4.234375 7.335938 4.234375 7.359375 L 5.347656 11.542969 C 5.347656 11.554688 5.363281 11.566406 5.386719 11.578125 L 9.566406 12.699219 C 9.582031 12.699219 9.605469 12.699219 9.617188 12.6875 L 12.683594 9.625 C 12.695312 9.597656 12.707031 9.585938 12.695312 9.574219 Z M 8.597656 6.289062 L 7.496094 10.398438 C 7.496094 10.410156 7.484375 10.410156 7.472656 10.398438 L 4.480469 7.394531 C 4.464844 7.382812 4.480469 7.382812 4.480469 7.371094 L 8.585938 6.261719 C 8.585938 6.277344 8.597656 6.277344 8.597656 6.289062 Z M 8.597656 6.289062 "/>
</g>
<mask id="mask-0">
<g filter="url(#filter-remove-color)">
<rect x="-6.4" y="-6.4" width="76.8" height="76.8" fill="rgb(0%, 0%, 0%)" fill-opacity="0.25"/>
</g>
</mask>
<clipPath id="clip-1">
<rect x="0" y="0" width="17" height="17"/>
</clipPath>
<g id="source-5611" clip-path="url(#clip-1)">
<path fill-rule="evenodd" fill="rgb(0%, 0%, 0%)" fill-opacity="1" d="M 12.199219 7.722656 L 7.90625 8.875 L 7.496094 10.398438 C 7.496094 10.410156 7.484375 10.410156 7.472656 10.398438 L 6.363281 9.285156 L 4.855469 9.691406 L 5.347656 11.542969 C 5.347656 11.554688 5.363281 11.566406 5.386719 11.582031 L 9.566406 12.699219 C 9.582031 12.699219 9.605469 12.699219 9.617188 12.6875 L 12.683594 9.625 C 12.695312 9.597656 12.707031 9.585938 12.695312 9.574219 Z M 12.199219 7.722656 "/>
</g>
<mask id="mask-1">
<g filter="url(#filter-remove-color)">
<rect x="-6.4" y="-6.4" width="76.8" height="76.8" fill="rgb(0%, 0%, 0%)" fill-opacity="0.35"/>
</g>
</mask>
<clipPath id="clip-2">
<rect x="0" y="0" width="17" height="17"/>
</clipPath>
<g id="source-5615" clip-path="url(#clip-2)">
<path fill-rule="evenodd" fill="rgb(0%, 0%, 0%)" fill-opacity="1" d="M 7.359375 4.234375 C 7.355469 4.234375 7.351562 4.234375 7.34375 4.234375 L 7.9375 6.4375 L 8.585938 6.261719 C 8.585938 6.277344 8.597656 6.277344 8.597656 6.289062 L 8.246094 7.597656 L 9.613281 12.691406 C 9.613281 12.6875 9.617188 12.6875 9.617188 12.6875 L 12.683594 9.621094 C 12.695312 9.597656 12.707031 9.585938 12.695312 9.574219 L 11.578125 5.390625 C 11.578125 5.378906 11.566406 5.367188 11.542969 5.351562 Z M 7.359375 4.234375 "/>
</g>
</defs>
<path fill-rule="nonzero" fill="rgb(94.901961%, 94.901961%, 94.901961%)" fill-opacity="1" d="M 15.609375 8.460938 C 15.609375 12.40625 12.410156 15.605469 8.464844 15.605469 C 4.519531 15.605469 1.324219 12.40625 1.324219 8.460938 C 1.324219 4.515625 4.519531 1.316406 8.464844 1.316406 C 12.410156 1.316406 15.609375 4.515625 15.609375 8.460938 Z M 15.609375 8.460938 "/>
<use xlink:href="#source-5607"/>
<g mask="url(#mask-0)">
<use xlink:href="#source-5611"/>
</g>
<g mask="url(#mask-1)">
<use xlink:href="#source-5615"/>
</g>
</svg>
