<?xml version="1.0" encoding="UTF-8"?>
<svg xmlns="http://www.w3.org/2000/svg" xmlns:xlink="http://www.w3.org/1999/xlink" width="64" height="64" viewBox="0 0 64 64">
<path fill-rule="nonzero" fill="rgb(94.901961%, 94.901961%, 94.901961%)" fill-opacity="1" d="M 15.609375 8.460938 C 15.609375 12.40625 12.410156 15.605469 8.464844 15.605469 C 4.519531 15.605469 1.324219 12.40625 1.324219 8.460938 C 1.324219 4.515625 4.519531 1.316406 8.464844 1.316406 C 12.410156 1.316406 15.609375 4.515625 15.609375 8.460938 Z M 15.609375 8.460938 "/>
<path fill-rule="nonzero" fill="rgb(91.372549%, 91.372549%, 97.254902%)" fill-opacity="1" d="M 7.539062 6.746094 L 9.195312 6.746094 L 9.195312 9.390625 L 7.539062 9.390625 Z M 7.539062 6.746094 "/>
<path fill-rule="nonzero" fill="rgb(20.784314%, 6.666667%, 20.784314%)" fill-opacity="1" d="M 6.21875 5.421875 L 6.21875 6.085938 L 6.878906 6.085938 L 6.878906 5.421875 Z M 6.21875 6.085938 L 5.558594 6.085938 L 5.558594 6.746094 L 6.21875 6.746094 Z M 5.558594 6.746094 L 4.894531 6.746094 L 4.894531 9.390625 L 5.558594 9.390625 Z M 5.558594 9.390625 L 5.558594 10.054688 L 6.21875 10.054688 L 6.21875 9.390625 Z M 6.21875 10.054688 L 6.21875 10.714844 L 6.878906 10.714844 L 6.878906 10.054688 Z M 6.21875 10.714844 L 5.558594 10.714844 L 5.558594 11.375 L 6.21875 11.375 Z M 5.558594 11.375 L 4.894531 11.375 L 4.894531 12.039062 L 5.558594 12.039062 Z M 9.855469 5.421875 L 9.855469 6.085938 L 10.515625 6.085938 L 10.515625 5.421875 Z M 10.515625 6.085938 L 10.515625 6.746094 L 11.179688 6.746094 L 11.179688 6.085938 Z M 11.179688 6.746094 L 11.179688 8.730469 L 8.203125 8.730469 L 8.203125 9.390625 L 12.171875 9.390625 L 12.171875 8.730469 L 11.839844 8.730469 L 11.839844 6.746094 Z M 12.171875 9.390625 L 12.171875 10.714844 L 12.832031 10.714844 L 12.832031 9.390625 Z M 12.171875 10.714844 L 8.203125 10.714844 L 8.203125 11.375 L 9.523438 11.375 L 9.523438 12.039062 L 10.847656 12.039062 L 10.847656 11.375 L 12.171875 11.375 Z M 8.203125 10.714844 L 8.203125 9.390625 L 7.539062 9.390625 L 7.539062 10.714844 Z M 8.203125 10.714844 "/>
<path fill-rule="nonzero" fill="rgb(40.784314%, 30.980392%, 78.823529%)" fill-opacity="1" d="M 6.878906 4.101562 L 6.878906 4.761719 L 6.21875 4.761719 L 6.21875 5.421875 L 6.878906 5.421875 L 6.878906 6.085938 L 9.855469 6.085938 L 9.855469 4.761719 L 9.195312 4.761719 L 9.195312 4.101562 Z M 6.878906 4.101562 "/>
<path fill-rule="nonzero" fill="rgb(91.372549%, 91.372549%, 97.254902%)" fill-opacity="1" d="M 7.210938 4.761719 L 9.195312 4.761719 L 9.195312 5.421875 L 7.210938 5.421875 Z M 7.210938 4.761719 "/>
<path fill-rule="nonzero" fill="rgb(60%, 37.647059%, 0%)" fill-opacity="1" d="M 6.21875 6.085938 L 6.21875 6.746094 L 6.878906 6.746094 L 6.878906 6.085938 Z M 6.21875 6.746094 L 5.558594 6.746094 L 5.558594 9.390625 L 6.21875 9.390625 L 6.21875 10.054688 L 6.878906 10.054688 L 6.878906 10.714844 L 6.21875 10.714844 L 6.21875 11.375 L 7.871094 11.375 L 7.871094 12.039062 L 9.523438 12.039062 L 9.523438 11.375 L 8.203125 11.375 L 8.203125 10.714844 L 7.539062 10.714844 L 7.539062 9.0625 L 6.878906 9.0625 L 6.878906 8.398438 L 6.21875 8.398438 Z M 8.203125 10.714844 L 12.171875 10.714844 L 12.171875 10.054688 L 9.195312 10.054688 L 9.195312 9.390625 L 8.203125 9.390625 Z M 6.21875 11.375 L 5.558594 11.375 L 5.558594 12.039062 L 6.21875 12.039062 Z M 9.855469 6.085938 L 9.855469 6.746094 L 10.515625 6.746094 L 10.515625 6.085938 Z M 9.855469 6.085938 "/>
<path fill-rule="nonzero" fill="rgb(97.254902%, 75.686275%, 13.72549%)" fill-opacity="1" d="M 6.878906 6.085938 L 6.878906 6.746094 L 6.21875 6.746094 L 6.21875 8.398438 L 6.878906 8.398438 L 6.878906 9.0625 L 7.539062 9.0625 L 7.539062 6.746094 L 9.195312 6.746094 L 9.195312 8.730469 L 9.855469 8.730469 L 9.855469 6.085938 Z M 6.21875 11.375 L 6.21875 12.039062 L 7.871094 12.039062 L 7.871094 11.375 Z M 6.21875 11.375 "/>
<path fill-rule="nonzero" fill="rgb(97.254902%, 50.588235%, 2.745098%)" fill-opacity="1" d="M 9.195312 9.390625 L 12.171875 9.390625 L 12.171875 10.054688 L 9.195312 10.054688 Z M 9.195312 9.390625 "/>
<path fill-rule="nonzero" fill="rgb(40.784314%, 30.980392%, 78.823529%)" fill-opacity="1" d="M 8.53125 7.078125 L 9.195312 7.078125 L 9.195312 8.398438 L 8.53125 8.398438 Z M 8.53125 7.078125 "/>
<path fill-rule="nonzero" fill="rgb(91.372549%, 91.372549%, 97.254902%)" fill-opacity="1" d="M 9.855469 6.746094 L 11.179688 6.746094 L 11.179688 8.730469 L 9.855469 8.730469 Z M 9.855469 6.746094 "/>
<path fill-rule="nonzero" fill="rgb(40.784314%, 30.980392%, 78.823529%)" fill-opacity="1" d="M 9.855469 7.078125 L 10.515625 7.078125 L 10.515625 8.398438 L 9.855469 8.398438 Z M 9.855469 7.078125 "/>
</svg>
