<?xml version="1.0" encoding="UTF-8"?>
<svg xmlns="http://www.w3.org/2000/svg" xmlns:xlink="http://www.w3.org/1999/xlink" width="64" height="64" viewBox="0 0 64 64">
<defs>
<filter id="filter-remove-color" x="0%" y="0%" width="100%" height="100%">
<feColorMatrix color-interpolation-filters="sRGB" values="0 0 0 0 1 0 0 0 0 1 0 0 0 0 1 0 0 0 1 0" />
</filter>
<mask id="mask-0">
<g filter="url(#filter-remove-color)">
<rect x="-6.4" y="-6.4" width="76.8" height="76.8" fill="rgb(0%, 0%, 0%)" fill-opacity="0.1"/>
</g>
</mask>
<clipPath id="clip-0">
<rect x="0" y="0" width="17" height="17"/>
</clipPath>
<g id="source-369" clip-path="url(#clip-0)">
<path fill-rule="nonzero" fill="rgb(100%, 100%, 100%)" fill-opacity="1" d="M 14.289062 8.460938 C 14.289062 11.675781 11.683594 14.28125 8.46875 14.28125 C 5.253906 14.28125 2.644531 11.675781 2.644531 8.460938 C 2.644531 5.246094 5.253906 2.640625 8.46875 2.640625 C 11.683594 2.640625 14.289062 5.246094 14.289062 8.460938 Z M 14.289062 8.460938 "/>
</g>
</defs>
<path fill-rule="nonzero" fill="rgb(63.529412%, 79.215686%, 29.803922%)" fill-opacity="1" d="M 15.609375 8.460938 C 15.609375 12.40625 12.410156 15.605469 8.464844 15.605469 C 4.519531 15.605469 1.324219 12.40625 1.324219 8.460938 C 1.324219 4.515625 4.519531 1.316406 8.464844 1.316406 C 12.410156 1.316406 15.609375 4.515625 15.609375 8.460938 Z M 15.609375 8.460938 "/>
<g mask="url(#mask-0)">
<use xlink:href="#source-369"/>
</g>
<path fill-rule="nonzero" fill="rgb(100%, 100%, 100%)" fill-opacity="1" d="M 5.554688 6.347656 L 5.554688 8.199219 C 5.554688 8.199219 6.878906 7.28125 6.878906 8.859375 C 6.878906 10.445312 5.554688 9.523438 5.554688 9.523438 L 5.554688 11.375 L 7.40625 11.375 C 7.40625 11.375 6.773438 10.050781 8.203125 10.050781 C 9.664062 10.050781 8.996094 11.375 8.996094 11.375 L 10.847656 11.375 L 10.847656 9.523438 C 10.847656 9.523438 11.90625 10.183594 11.90625 8.859375 C 11.90625 7.800781 11.378906 7.933594 10.847656 8.199219 L 10.847656 6.347656 L 8.996094 6.347656 C 8.996094 6.347656 9.789062 5.023438 8.203125 5.023438 C 6.613281 5.023438 7.40625 6.347656 7.40625 6.347656 M 5.554688 6.347656 "/>
</svg>
