<?xml version="1.0" encoding="UTF-8"?>
<svg xmlns="http://www.w3.org/2000/svg" xmlns:xlink="http://www.w3.org/1999/xlink" width="64" height="64" viewBox="0 0 64 64">
<path fill-rule="nonzero" fill="rgb(23.921569%, 78.431373%, 60.392157%)" fill-opacity="1" d="M 15.609375 8.464844 C 15.609375 12.410156 12.410156 15.609375 8.464844 15.609375 C 4.519531 15.609375 1.324219 12.410156 1.324219 8.464844 C 1.324219 4.519531 4.519531 1.324219 8.464844 1.324219 C 12.410156 1.324219 15.609375 4.519531 15.609375 8.464844 Z M 15.609375 8.464844 "/>
<path fill-rule="nonzero" fill="rgb(18.823529%, 18.823529%, 18.823529%)" fill-opacity="1" d="M 5.820312 4.496094 L 11.113281 4.496094 C 11.84375 4.496094 12.433594 5.089844 12.433594 5.820312 L 12.433594 11.113281 C 12.433594 11.84375 11.84375 12.433594 11.113281 12.433594 L 5.820312 12.433594 C 5.089844 12.433594 4.496094 11.84375 4.496094 11.113281 L 4.496094 5.820312 C 4.496094 5.089844 5.089844 4.496094 5.820312 4.496094 Z M 5.820312 4.496094 "/>
<path fill-rule="nonzero" fill="rgb(97.647059%, 97.647059%, 97.647059%)" fill-opacity="1" d="M 5.359375 5.359375 L 6.703125 5.359375 C 7.507812 5.359375 8.15625 5.988281 8.15625 7.0625 L 8.15625 7.078125 C 8.15625 8.160156 7.375 8.765625 6.773438 8.769531 L 6.292969 8.777344 L 5.359375 8.777344 Z M 6.601562 8.15625 C 6.976562 8.15625 7.535156 7.851562 7.535156 7.078125 L 7.535156 7.0625 C 7.535156 6.296875 6.976562 5.980469 6.601562 5.980469 L 5.980469 5.980469 L 5.980469 8.15625 Z M 6.601562 8.15625 "/>
<path fill-rule="nonzero" fill="rgb(97.647059%, 97.647059%, 97.647059%)" fill-opacity="1" d="M 10.175781 5.359375 C 9.683594 5.359375 9.242188 5.523438 8.9375 5.828125 C 8.628906 6.136719 8.464844 6.574219 8.464844 7.070312 C 8.464844 7.5625 8.628906 8 8.9375 8.308594 C 9.242188 8.613281 9.683594 8.777344 10.175781 8.777344 C 10.625 8.777344 10.964844 8.636719 11.183594 8.488281 C 11.402344 8.339844 11.519531 8.164062 11.519531 8.164062 L 11.574219 8.089844 L 11.574219 6.914062 L 10.019531 6.914062 L 10.019531 7.535156 L 10.953125 7.535156 L 10.953125 7.871094 C 10.933594 7.894531 10.925781 7.914062 10.835938 7.972656 C 10.707031 8.0625 10.5 8.15625 10.175781 8.15625 C 9.8125 8.15625 9.554688 8.046875 9.375 7.867188 C 9.195312 7.691406 9.085938 7.429688 9.085938 7.070312 C 9.085938 6.707031 9.195312 6.449219 9.375 6.269531 C 9.554688 6.089844 9.8125 5.980469 10.175781 5.980469 C 10.535156 5.980469 10.796875 6.089844 10.972656 6.269531 L 11.414062 5.828125 C 11.105469 5.523438 10.667969 5.359375 10.175781 5.359375 Z M 10.175781 5.359375 "/>
<path fill-rule="nonzero" fill="rgb(97.647059%, 97.647059%, 97.647059%)" fill-opacity="1" d="M 5.050781 10.949219 L 8.15625 10.949219 L 8.15625 11.570312 L 5.050781 11.570312 Z M 5.050781 10.949219 "/>
</svg>
