<?xml version="1.0" encoding="UTF-8"?>
<svg xmlns="http://www.w3.org/2000/svg" xmlns:xlink="http://www.w3.org/1999/xlink" width="48" height="48" viewBox="0 0 48 48">
<path fill-rule="nonzero" fill="rgb(44.705882%, 47.058824%, 49.411765%)" fill-opacity="1" d="M 12.699219 6.351562 C 12.699219 9.855469 9.855469 12.699219 6.351562 12.699219 C 2.84375 12.699219 0 9.855469 0 6.351562 C 0 2.84375 2.84375 0 6.351562 0 C 9.855469 0 12.699219 2.84375 12.699219 6.351562 Z M 12.699219 6.351562 "/>
<path fill-rule="evenodd" fill="rgb(40%, 40%, 40%)" fill-opacity="1" d="M 5.648438 3.382812 C 5.515625 3.382812 5.398438 3.480469 5.378906 3.617188 L 4.546875 6.378906 L 2.703125 6.378906 C 2.605469 6.378906 2.511719 6.429688 2.464844 6.515625 C 2.414062 6.601562 2.414062 6.707031 2.464844 6.792969 C 2.511719 6.875 2.605469 6.929688 2.703125 6.929688 L 4.753906 6.929688 C 4.875 6.929688 4.984375 6.847656 5.015625 6.730469 L 5.652344 4.621094 L 6.285156 6.730469 L 7.183594 9.71875 L 7.183594 9.722656 C 7.1875 9.726562 7.1875 9.730469 7.191406 9.738281 C 7.191406 9.742188 7.195312 9.746094 7.195312 9.753906 C 7.199219 9.761719 7.203125 9.769531 7.207031 9.777344 C 7.210938 9.785156 7.214844 9.789062 7.21875 9.796875 C 7.222656 9.800781 7.226562 9.804688 7.230469 9.808594 C 7.234375 9.8125 7.234375 9.816406 7.238281 9.820312 C 7.242188 9.824219 7.246094 9.828125 7.25 9.832031 C 7.25 9.832031 7.253906 9.835938 7.257812 9.839844 C 7.257812 9.84375 7.261719 9.84375 7.265625 9.847656 C 7.269531 9.851562 7.273438 9.855469 7.28125 9.859375 C 7.285156 9.863281 7.292969 9.871094 7.300781 9.875 C 7.304688 9.875 7.304688 9.878906 7.308594 9.878906 C 7.3125 9.882812 7.320312 9.886719 7.324219 9.886719 C 7.328125 9.890625 7.332031 9.890625 7.335938 9.894531 C 7.339844 9.894531 7.34375 9.898438 7.351562 9.898438 C 7.359375 9.902344 7.367188 9.90625 7.371094 9.90625 C 7.382812 9.910156 7.390625 9.910156 7.398438 9.914062 C 7.410156 9.914062 7.417969 9.917969 7.425781 9.917969 C 7.433594 9.917969 7.441406 9.917969 7.449219 9.917969 C 7.453125 9.917969 7.453125 9.917969 7.457031 9.917969 C 7.464844 9.917969 7.46875 9.917969 7.476562 9.914062 C 7.480469 9.914062 7.480469 9.914062 7.480469 9.914062 C 7.484375 9.914062 7.484375 9.914062 7.488281 9.914062 C 7.496094 9.914062 7.5 9.914062 7.507812 9.910156 C 7.511719 9.910156 7.511719 9.910156 7.511719 9.910156 C 7.519531 9.910156 7.527344 9.90625 7.535156 9.902344 C 7.539062 9.902344 7.539062 9.902344 7.539062 9.902344 C 7.546875 9.898438 7.554688 9.898438 7.5625 9.894531 C 7.5625 9.894531 7.5625 9.894531 7.566406 9.890625 C 7.574219 9.886719 7.578125 9.886719 7.585938 9.882812 C 7.589844 9.878906 7.59375 9.875 7.597656 9.871094 C 7.601562 9.871094 7.609375 9.867188 7.613281 9.863281 C 7.617188 9.859375 7.625 9.855469 7.628906 9.847656 C 7.632812 9.847656 7.632812 9.847656 7.632812 9.847656 C 7.640625 9.839844 7.644531 9.835938 7.652344 9.828125 C 7.65625 9.824219 7.65625 9.820312 7.660156 9.820312 C 7.664062 9.816406 7.667969 9.808594 7.671875 9.804688 C 7.675781 9.800781 7.679688 9.792969 7.683594 9.785156 C 7.683594 9.785156 7.683594 9.785156 7.6875 9.78125 C 7.691406 9.777344 7.691406 9.769531 7.695312 9.761719 C 7.695312 9.761719 7.699219 9.757812 7.699219 9.757812 C 7.703125 9.75 7.703125 9.746094 7.707031 9.738281 C 7.707031 9.734375 7.707031 9.734375 7.710938 9.730469 C 7.710938 9.726562 7.710938 9.726562 7.710938 9.722656 C 7.714844 9.71875 7.714844 9.714844 7.714844 9.710938 L 8.550781 6.929688 L 10.398438 6.929688 C 10.496094 6.929688 10.585938 6.875 10.636719 6.789062 C 10.6875 6.707031 10.6875 6.601562 10.636719 6.515625 C 10.585938 6.429688 10.496094 6.378906 10.398438 6.378906 L 8.347656 6.378906 C 8.226562 6.378906 8.117188 6.457031 8.082031 6.574219 L 7.449219 8.6875 L 6.816406 6.582031 C 6.816406 6.582031 6.816406 6.578125 6.8125 6.574219 L 5.921875 3.609375 C 5.910156 3.535156 5.867188 3.472656 5.804688 3.429688 C 5.796875 3.425781 5.789062 3.421875 5.78125 3.417969 C 5.78125 3.414062 5.78125 3.414062 5.78125 3.414062 C 5.777344 3.414062 5.777344 3.414062 5.777344 3.414062 C 5.738281 3.394531 5.695312 3.382812 5.648438 3.382812 Z M 5.648438 3.382812 "/>
<path fill-rule="evenodd" fill="rgb(100%, 100%, 100%)" fill-opacity="1" d="M 5.449219 3.082031 C 5.316406 3.082031 5.199219 3.183594 5.179688 3.316406 L 4.347656 6.078125 L 2.503906 6.078125 C 2.402344 6.078125 2.3125 6.128906 2.261719 6.214844 C 2.214844 6.300781 2.214844 6.40625 2.261719 6.492188 C 2.3125 6.578125 2.402344 6.628906 2.503906 6.628906 L 4.554688 6.628906 C 4.675781 6.628906 4.78125 6.546875 4.816406 6.429688 L 5.449219 4.320312 L 6.085938 6.429688 L 6.984375 9.417969 L 6.984375 9.421875 C 6.988281 9.425781 6.988281 9.429688 6.988281 9.4375 C 6.992188 9.441406 6.992188 9.445312 6.996094 9.453125 C 7 9.460938 7.003906 9.46875 7.007812 9.476562 C 7.011719 9.484375 7.015625 9.488281 7.019531 9.496094 C 7.023438 9.5 7.027344 9.503906 7.03125 9.507812 C 7.03125 9.511719 7.035156 9.515625 7.039062 9.519531 C 7.042969 9.523438 7.042969 9.527344 7.046875 9.53125 C 7.050781 9.535156 7.054688 9.535156 7.054688 9.539062 C 7.058594 9.542969 7.0625 9.542969 7.066406 9.546875 C 7.070312 9.550781 7.074219 9.554688 7.078125 9.558594 C 7.085938 9.566406 7.09375 9.570312 7.101562 9.574219 C 7.101562 9.574219 7.105469 9.578125 7.109375 9.578125 C 7.113281 9.582031 7.117188 9.585938 7.125 9.585938 C 7.128906 9.589844 7.132812 9.589844 7.136719 9.59375 C 7.140625 9.59375 7.144531 9.597656 7.148438 9.597656 C 7.148438 9.597656 7.148438 9.597656 7.152344 9.601562 C 7.15625 9.601562 7.164062 9.605469 7.171875 9.605469 C 7.179688 9.609375 7.191406 9.609375 7.199219 9.613281 C 7.207031 9.613281 7.21875 9.617188 7.226562 9.617188 C 7.234375 9.617188 7.242188 9.617188 7.25 9.617188 C 7.25 9.617188 7.253906 9.617188 7.253906 9.617188 C 7.261719 9.617188 7.269531 9.617188 7.277344 9.617188 C 7.277344 9.617188 7.28125 9.617188 7.28125 9.613281 C 7.28125 9.613281 7.285156 9.613281 7.285156 9.613281 C 7.292969 9.613281 7.300781 9.613281 7.308594 9.609375 C 7.308594 9.609375 7.3125 9.609375 7.3125 9.609375 C 7.320312 9.609375 7.328125 9.605469 7.335938 9.605469 C 7.335938 9.601562 7.339844 9.601562 7.339844 9.601562 C 7.347656 9.597656 7.355469 9.597656 7.359375 9.59375 C 7.363281 9.59375 7.363281 9.59375 7.363281 9.589844 C 7.371094 9.589844 7.378906 9.585938 7.386719 9.582031 C 7.390625 9.578125 7.394531 9.574219 7.398438 9.574219 C 7.402344 9.570312 7.40625 9.566406 7.414062 9.5625 C 7.417969 9.558594 7.425781 9.554688 7.429688 9.546875 C 7.429688 9.546875 7.433594 9.546875 7.433594 9.546875 C 7.4375 9.539062 7.445312 9.535156 7.449219 9.527344 C 7.449219 9.527344 7.453125 9.527344 7.453125 9.527344 C 7.453125 9.523438 7.457031 9.523438 7.457031 9.519531 C 7.460938 9.515625 7.464844 9.507812 7.46875 9.503906 C 7.476562 9.5 7.480469 9.492188 7.484375 9.484375 C 7.484375 9.484375 7.484375 9.484375 7.484375 9.480469 C 7.488281 9.476562 7.492188 9.46875 7.496094 9.460938 C 7.496094 9.460938 7.496094 9.460938 7.496094 9.457031 C 7.5 9.449219 7.503906 9.445312 7.507812 9.4375 C 7.507812 9.433594 7.507812 9.433594 7.507812 9.433594 C 7.507812 9.429688 7.511719 9.425781 7.511719 9.421875 C 7.511719 9.417969 7.515625 9.414062 7.515625 9.410156 L 8.351562 6.628906 L 10.199219 6.628906 C 10.296875 6.628906 10.386719 6.574219 10.4375 6.492188 C 10.484375 6.40625 10.484375 6.300781 10.4375 6.214844 C 10.386719 6.128906 10.296875 6.078125 10.199219 6.078125 L 8.148438 6.078125 C 8.023438 6.078125 7.917969 6.15625 7.882812 6.273438 L 7.25 8.386719 L 6.617188 6.285156 C 6.617188 6.28125 6.613281 6.277344 6.613281 6.273438 L 5.722656 3.308594 C 5.710938 3.238281 5.667969 3.171875 5.605469 3.128906 C 5.605469 3.128906 5.601562 3.128906 5.601562 3.128906 C 5.597656 3.125 5.589844 3.121094 5.582031 3.117188 C 5.582031 3.117188 5.578125 3.113281 5.578125 3.113281 C 5.539062 3.09375 5.492188 3.082031 5.449219 3.082031 Z M 5.449219 3.082031 "/>
</svg>
