<?xml version="1.0" encoding="UTF-8"?>
<svg xmlns="http://www.w3.org/2000/svg" xmlns:xlink="http://www.w3.org/1999/xlink" width="64" height="64" viewBox="0 0 64 64">
<path fill-rule="nonzero" fill="rgb(96.470588%, 27.843137%, 41.960784%)" fill-opacity="1" d="M 15.609375 8.46875 C 15.609375 12.414062 12.414062 15.613281 8.464844 15.613281 C 4.519531 15.613281 1.324219 12.414062 1.324219 8.46875 C 1.324219 4.523438 4.519531 1.328125 8.464844 1.328125 C 12.414062 1.328125 15.609375 4.523438 15.609375 8.46875 Z M 15.609375 8.46875 "/>
<path fill-rule="nonzero" fill="rgb(100%, 100%, 100%)" fill-opacity="1" d="M 11.078125 7.855469 C 11.085938 8.082031 11.011719 8.195312 10.941406 8.390625 L 10.820312 8.449219 C 10.722656 8.644531 10.832031 8.574219 10.757812 8.726562 C 10.601562 8.867188 10.285156 9.160156 10.183594 9.1875 C 10.109375 9.1875 10.234375 9.101562 10.25 9.070312 C 10.042969 9.210938 10.082031 9.285156 9.761719 9.371094 L 9.753906 9.351562 C 8.964844 9.71875 7.871094 8.984375 7.886719 7.984375 C 7.878906 8.046875 7.863281 8.03125 7.84375 8.058594 C 7.804688 7.542969 8.082031 7.023438 8.554688 6.8125 C 9.011719 6.585938 9.554688 6.679688 9.882812 6.984375 C 9.699219 6.746094 9.339844 6.496094 8.914062 6.519531 C 8.496094 6.527344 8.105469 6.792969 7.972656 7.082031 C 7.761719 7.214844 7.734375 7.601562 7.640625 7.671875 C 7.515625 8.59375 7.878906 8.992188 8.488281 9.460938 C 8.585938 9.527344 8.515625 9.535156 8.53125 9.585938 C 8.320312 9.488281 8.136719 9.347656 7.988281 9.171875 C 8.070312 9.289062 8.15625 9.40625 8.269531 9.496094 C 8.078125 9.433594 7.820312 9.03125 7.746094 9.015625 C 8.078125 9.609375 9.085938 10.054688 9.617188 9.832031 C 9.371094 9.84375 9.0625 9.835938 8.785156 9.734375 C 8.671875 9.675781 8.511719 9.554688 8.539062 9.53125 C 9.261719 9.800781 10.007812 9.734375 10.632812 9.234375 C 10.792969 9.109375 10.96875 8.898438 11.015625 8.894531 C 10.941406 9.011719 11.03125 8.949219 10.972656 9.050781 C 11.128906 8.796875 10.902344 8.945312 11.136719 8.609375 L 11.222656 8.730469 C 11.1875 8.515625 11.484375 8.257812 11.453125 7.925781 C 11.523438 7.820312 11.53125 8.035156 11.457031 8.269531 C 11.558594 8.007812 11.484375 7.964844 11.511719 7.75 C 11.539062 7.824219 11.574219 7.898438 11.59375 7.976562 C 11.527344 7.722656 11.660156 7.550781 11.691406 7.402344 C 11.660156 7.390625 11.59375 7.515625 11.574219 7.21875 C 11.578125 7.085938 11.613281 7.148438 11.625 7.117188 C 11.601562 7.101562 11.53125 7.003906 11.492188 6.8125 C 11.523438 6.765625 11.570312 6.929688 11.613281 6.933594 C 11.585938 6.78125 11.539062 6.667969 11.539062 6.550781 C 11.421875 6.304688 11.496094 6.585938 11.402344 6.445312 C 11.277344 6.058594 11.507812 6.355469 11.523438 6.179688 C 11.710938 6.453125 11.816406 6.878906 11.867188 7.054688 C 11.828125 6.839844 11.769531 6.632812 11.695312 6.429688 C 11.753906 6.453125 11.601562 5.988281 11.769531 6.296875 C 11.589844 5.640625 11.003906 5.027344 10.46875 4.738281 C 10.53125 4.800781 10.617188 4.875 10.585938 4.886719 C 10.316406 4.726562 10.363281 4.714844 10.324219 4.648438 C 10.109375 4.558594 10.09375 4.65625 9.949219 4.648438 C 9.539062 4.429688 9.460938 4.453125 9.078125 4.316406 L 9.097656 4.398438 C 8.824219 4.304688 8.78125 4.429688 8.484375 4.398438 C 8.46875 4.382812 8.582031 4.347656 8.671875 4.332031 C 8.410156 4.367188 8.421875 4.28125 8.164062 4.34375 C 8.226562 4.296875 8.292969 4.269531 8.363281 4.230469 C 8.148438 4.242188 7.851562 4.355469 7.941406 4.253906 C 7.59375 4.410156 6.96875 4.628906 6.621094 4.957031 L 6.609375 4.882812 C 6.449219 5.074219 5.910156 5.457031 5.867188 5.707031 L 5.824219 5.714844 C 5.742188 5.855469 5.6875 6.015625 5.621094 6.160156 C 5.511719 6.347656 5.460938 6.234375 5.476562 6.261719 C 5.265625 6.695312 5.15625 7.0625 5.066406 7.359375 C 5.132812 7.457031 5.066406 7.949219 5.09375 8.34375 C 4.984375 10.285156 6.453125 12.171875 8.0625 12.605469 C 8.300781 12.691406 8.648438 12.6875 8.945312 12.695312 C 8.597656 12.597656 8.550781 12.644531 8.207031 12.523438 C 7.960938 12.40625 7.90625 12.273438 7.730469 12.121094 L 7.800781 12.246094 C 7.457031 12.125 7.601562 12.09375 7.320312 12.007812 L 7.394531 11.910156 C 7.285156 11.902344 7.101562 11.722656 7.050781 11.621094 L 6.929688 11.628906 C 6.78125 11.449219 6.703125 11.316406 6.710938 11.21875 L 6.671875 11.289062 C 6.628906 11.210938 6.132812 10.609375 6.390625 10.75 C 6.339844 10.707031 6.277344 10.679688 6.210938 10.554688 L 6.261719 10.496094 C 6.140625 10.335938 6.035156 10.132812 6.042969 10.066406 C 6.109375 10.15625 6.152344 10.171875 6.199219 10.1875 C 5.890625 9.414062 5.871094 10.144531 5.636719 9.402344 L 5.683594 9.398438 C 5.648438 9.339844 5.621094 9.277344 5.59375 9.214844 L 5.613281 9 C 5.390625 8.738281 5.550781 7.898438 5.585938 7.4375 C 5.605469 7.246094 5.769531 7.046875 5.894531 6.734375 L 5.820312 6.722656 C 5.964844 6.46875 6.652344 5.699219 6.96875 5.738281 C 7.125 5.546875 6.941406 5.738281 6.910156 5.691406 C 7.246094 5.339844 7.355469 5.441406 7.582031 5.378906 C 7.828125 5.234375 7.371094 5.4375 7.488281 5.324219 C 7.914062 5.214844 7.789062 5.078125 8.34375 5.023438 C 8.402344 5.054688 8.210938 5.074219 8.160156 5.117188 C 8.515625 4.941406 9.28125 4.980469 9.78125 5.214844 C 10.359375 5.484375 11.011719 6.28125 11.035156 7.035156 L 11.066406 7.042969 C 11.050781 7.34375 11.109375 7.6875 11.007812 8.003906 L 11.078125 7.855469 "/>
</svg>
