<?xml version="1.0" encoding="UTF-8"?>
<svg xmlns="http://www.w3.org/2000/svg" xmlns:xlink="http://www.w3.org/1999/xlink" width="64" height="64" viewBox="0 0 64 64">
<path fill-rule="nonzero" fill="rgb(100%, 33.333333%, 33.333333%)" fill-opacity="1" d="M 15.609375 8.460938 C 15.609375 12.40625 12.410156 15.605469 8.464844 15.605469 C 4.519531 15.605469 1.324219 12.40625 1.324219 8.460938 C 1.324219 4.515625 4.519531 1.316406 8.464844 1.316406 C 12.410156 1.316406 15.609375 4.515625 15.609375 8.460938 Z M 15.609375 8.460938 "/>
<path fill-rule="nonzero" fill="rgb(100%, 100%, 100%)" fill-opacity="1" d="M 7.671875 9.523438 L 7.671875 4.230469 L 9.261719 4.230469 L 9.261719 9.523438 Z M 9.523438 11.636719 C 9.523438 11.054688 9.050781 10.578125 8.464844 10.578125 C 7.882812 10.578125 7.40625 11.054688 7.40625 11.636719 C 7.40625 12.222656 7.882812 12.695312 8.46875 12.695312 C 9.050781 12.695312 9.523438 12.222656 9.523438 11.636719 Z M 9.523438 11.636719 "/>
</svg>
