<?xml version="1.0" encoding="UTF-8"?>
<svg xmlns="http://www.w3.org/2000/svg" xmlns:xlink="http://www.w3.org/1999/xlink" width="64" height="64" viewBox="0 0 64 64">
<path fill-rule="nonzero" fill="rgb(24.313725%, 65.490196%, 97.647059%)" fill-opacity="1" d="M 15.609375 8.46875 C 15.609375 12.414062 12.414062 15.613281 8.464844 15.613281 C 4.519531 15.613281 1.324219 12.414062 1.324219 8.46875 C 1.324219 4.523438 4.519531 1.328125 8.464844 1.328125 C 12.414062 1.328125 15.609375 4.523438 15.609375 8.46875 Z M 15.609375 8.46875 "/>
<path fill-rule="evenodd" fill="rgb(100%, 100%, 100%)" fill-opacity="1" d="M 9.140625 4.230469 L 7.671875 4.335938 L 7.671875 10.195312 L 9.140625 10.015625 L 9.140625 7.457031 C 9.777344 8.421875 10.289062 9.316406 11.144531 10.246094 L 12.671875 9.808594 C 11.9375 8.972656 11.273438 8.074219 10.6875 7.125 C 11.265625 6.269531 11.992188 5.414062 12.699219 4.648438 L 11.121094 4.261719 C 10.40625 5.066406 9.746094 5.917969 9.140625 6.8125 M 5.789062 5.433594 C 5.765625 5.4375 5.742188 5.449219 5.722656 5.464844 C 5.550781 5.628906 5.386719 5.792969 5.214844 5.957031 C 5.140625 6.03125 5.214844 6.117188 5.25 6.179688 L 5.597656 6.660156 L 5.859375 7.015625 C 5.898438 7.066406 5.910156 7.070312 5.890625 7.105469 C 5.867188 7.144531 5.847656 7.175781 5.824219 7.210938 C 5.484375 7.785156 5.722656 7.828125 4.996094 8.011719 L 4.4375 8.105469 C 4.355469 8.132812 4.246094 8.132812 4.238281 8.246094 C 4.238281 8.476562 4.234375 8.707031 4.234375 8.9375 C 4.230469 9.042969 4.347656 9.054688 4.417969 9.070312 L 5.011719 9.175781 L 5.457031 9.253906 C 5.515625 9.261719 5.53125 9.25 5.546875 9.296875 C 5.726562 10.0625 5.964844 9.886719 5.566406 10.558594 L 5.246094 11.003906 C 5.207031 11.078125 5.128906 11.15625 5.207031 11.234375 C 5.375 11.398438 5.535156 11.566406 5.707031 11.734375 C 5.78125 11.808594 5.878906 11.734375 5.9375 11.699219 L 6.429688 11.359375 L 6.796875 11.109375 C 6.847656 11.070312 6.855469 11.058594 6.894531 11.082031 C 7.628906 11.53125 7.65625 11.207031 7.871094 11.964844 L 7.976562 12.507812 C 8.003906 12.589844 8.007812 12.691406 8.121094 12.699219 L 8.835938 12.699219 C 8.945312 12.699219 8.953125 12.574219 8.96875 12.507812 L 9.066406 11.929688 L 9.140625 11.503906 C 9.144531 11.460938 9.140625 11.441406 9.148438 11.425781 C 10.015625 11.25 9.800781 11 10.503906 11.398438 L 10.957031 11.710938 C 11.042969 11.75 11.121094 11.824219 11.203125 11.746094 C 11.371094 11.585938 11.539062 11.425781 11.710938 11.265625 C 11.785156 11.1875 11.710938 11.101562 11.675781 11.042969 L 11.667969 11.042969 L 11.335938 10.585938 L 11.117188 10.660156 C 11.058594 10.695312 10.984375 10.683594 10.917969 10.597656 L 10.4375 9.980469 C 9.96875 10.609375 9.230469 10.976562 8.445312 10.972656 C 7.09375 10.972656 5.992188 9.898438 5.992188 8.582031 C 5.992188 7.648438 6.546875 6.835938 7.355469 6.445312 L 7.355469 5.894531 C 7.328125 5.910156 7.296875 5.914062 7.273438 5.925781 C 6.957031 6.050781 6.9375 6.109375 6.421875 5.820312 L 5.964844 5.503906 C 5.898438 5.476562 5.84375 5.425781 5.785156 5.4375 M 7.351562 6.667969 C 6.644531 7.050781 6.203125 7.785156 6.199219 8.589844 C 6.199219 9.804688 7.21875 10.796875 8.46875 10.796875 C 9.242188 10.796875 9.917969 10.414062 10.328125 9.835938 L 10.304688 9.785156 C 9.824219 10.304688 9.285156 10.640625 8.460938 10.660156 C 7.433594 10.675781 6.394531 9.785156 6.390625 8.613281 C 6.382812 7.859375 6.742188 7.351562 7.351562 6.988281 L 7.351562 6.667969 M 7.351562 6.667969 "/>
</svg>
