<?xml version="1.0" encoding="UTF-8"?>
<svg xmlns="http://www.w3.org/2000/svg" xmlns:xlink="http://www.w3.org/1999/xlink" width="64" height="64" viewBox="0 0 64 64">
<path fill-rule="nonzero" fill="rgb(23.529412%, 55.294118%, 83.137255%)" fill-opacity="1" d="M 15.609375 8.464844 C 15.609375 4.519531 12.410156 1.324219 8.464844 1.324219 C 4.519531 1.324219 1.324219 4.519531 1.324219 8.464844 C 1.324219 12.410156 4.519531 15.609375 8.464844 15.609375 C 12.410156 15.609375 15.609375 12.410156 15.609375 8.464844 Z M 15.609375 8.464844 "/>
<path fill-rule="nonzero" fill="rgb(100%, 100%, 100%)" fill-opacity="1" d="M 9.261719 4.761719 C 7.660156 4.761719 6.335938 6.070312 6.335938 7.671875 C 6.335938 8.28125 6.542969 8.839844 6.863281 9.3125 L 4.914062 11.265625 C 4.710938 11.472656 4.710938 11.800781 4.914062 12.007812 C 5.117188 12.214844 5.445312 12.222656 5.65625 12.027344 L 7.605469 10.070312 C 8.078125 10.394531 8.652344 10.585938 9.261719 10.585938 C 10.867188 10.582031 12.167969 9.28125 12.171875 7.671875 C 12.167969 6.066406 10.867188 4.765625 9.261719 4.761719 Z M 9.261719 5.820312 C 10.289062 5.820312 11.113281 6.640625 11.113281 7.671875 C 11.113281 8.703125 10.289062 9.527344 9.261719 9.527344 C 8.769531 9.527344 8.296875 9.332031 7.949219 8.984375 C 7.601562 8.636719 7.40625 8.164062 7.410156 7.671875 C 7.410156 6.640625 8.230469 5.820312 9.261719 5.820312 Z M 9.261719 5.820312 "/>
</svg>
