<?xml version="1.0" encoding="UTF-8"?>
<svg xmlns="http://www.w3.org/2000/svg" xmlns:xlink="http://www.w3.org/1999/xlink" width="64" height="64" viewBox="0 0 64 64">
<defs>
<filter id="filter-remove-color" x="0%" y="0%" width="100%" height="100%">
<feColorMatrix color-interpolation-filters="sRGB" values="0 0 0 0 1 0 0 0 0 1 0 0 0 0 1 0 0 0 1 0" />
</filter>
<mask id="mask-0">
<g filter="url(#filter-remove-color)">
<rect x="-6.4" y="-6.4" width="76.8" height="76.8" fill="rgb(0%, 0%, 0%)" fill-opacity="0.1"/>
</g>
</mask>
<clipPath id="clip-0">
<rect x="0" y="0" width="64" height="64"/>
</clipPath>
<g id="source-7814" clip-path="url(#clip-0)">
<path fill-rule="nonzero" fill="rgb(0%, 0%, 0%)" fill-opacity="1" d="M 24.371094 17.914062 L 26.71875 17.914062 L 26.71875 20.253906 L 24.371094 20.253906 "/>
</g>
</defs>
<path fill-rule="nonzero" fill="rgb(21.960784%, 21.960784%, 21.960784%)" fill-opacity="1" d="M 32 5 C 46.910156 5 59 17.085938 59 32 C 59 46.910156 46.910156 59 32 59 C 17.085938 59 5 46.910156 5 32 C 5 17.085938 17.085938 5 32 5 Z M 32 5 "/>
<g mask="url(#mask-0)">
<use xlink:href="#source-7814"/>
</g>
<path fill-rule="nonzero" fill="rgb(100%, 58.039216%, 3.529412%)" fill-opacity="1" d="M 33.171875 26.128906 L 27.304688 36.695312 L 39.042969 36.695312 M 35.285156 34.347656 L 31.0625 34.347656 L 33.171875 30.355469 "/>
<path fill-rule="nonzero" fill="rgb(97.647059%, 97.647059%, 97.647059%)" fill-opacity="1" d="M 21.433594 15.5625 L 21.433594 19.085938 L 22.609375 19.085938 L 22.609375 20.261719 L 20.261719 20.261719 L 20.261719 23.78125 L 22.609375 23.78125 L 22.609375 40.214844 L 20.261719 40.214844 L 20.261719 43.738281 L 22.609375 43.738281 L 22.609375 44.765625 L 21.433594 44.765625 L 23.78125 48.433594 L 26.128906 44.765625 L 24.957031 44.765625 L 24.957031 43.738281 L 35.519531 43.738281 C 42.023438 43.738281 47.261719 38.503906 47.261719 32 C 47.261719 25.496094 42.023438 20.261719 35.519531 20.261719 L 24.957031 20.261719 L 24.957031 19.085938 L 26.128906 19.085938 L 26.128906 15.5625 Z M 24.957031 23.78125 L 35.519531 23.78125 C 40.074219 23.78125 43.738281 27.445312 43.738281 32 C 43.738281 36.550781 40.074219 40.214844 35.519531 40.214844 L 24.957031 40.214844 Z M 24.957031 23.78125 "/>
</svg>
