<?xml version="1.0" encoding="UTF-8"?>
<svg xmlns="http://www.w3.org/2000/svg" xmlns:xlink="http://www.w3.org/1999/xlink" width="64" height="64" viewBox="0 0 64 64">
<path fill-rule="nonzero" fill="rgb(44.313725%, 66.666667%, 45.882353%)" fill-opacity="1" d="M 15.609375 8.460938 C 15.609375 12.40625 12.410156 15.605469 8.464844 15.605469 C 4.519531 15.605469 1.324219 12.40625 1.324219 8.460938 C 1.324219 4.515625 4.519531 1.316406 8.464844 1.316406 C 12.410156 1.316406 15.609375 4.515625 15.609375 8.460938 Z M 15.609375 8.460938 "/>
<path fill-rule="nonzero" fill="rgb(54.509804%, 78.431373%, 56.862745%)" fill-opacity="1" d="M 14.023438 8.460938 C 14.023438 11.527344 11.535156 14.015625 8.46875 14.015625 C 5.398438 14.015625 2.910156 11.527344 2.910156 8.460938 C 2.910156 5.390625 5.398438 2.902344 8.46875 2.902344 C 11.535156 2.902344 14.023438 5.390625 14.023438 8.460938 Z M 14.023438 8.460938 "/>
<path fill-rule="nonzero" fill="rgb(100%, 100%, 100%)" fill-opacity="1" d="M 8.46875 5.289062 C 7.714844 5.289062 7.0625 5.820312 6.910156 6.558594 C 6.761719 7.296875 7.148438 8.039062 7.84375 8.335938 L 6.878906 11.636719 L 10.054688 11.636719 L 9.089844 8.335938 C 9.78125 8.039062 10.167969 7.296875 10.019531 6.558594 C 9.867188 5.820312 9.21875 5.289062 8.464844 5.289062 Z M 8.46875 5.289062 "/>
</svg>
