<?xml version="1.0" encoding="UTF-8"?>
<svg xmlns="http://www.w3.org/2000/svg" xmlns:xlink="http://www.w3.org/1999/xlink" width="64" height="64" viewBox="0 0 64 64">
<path fill-rule="nonzero" fill="rgb(9.019608%, 56.862745%, 96.078431%)" fill-opacity="1" d="M 58.183594 25.136719 C 58.117188 24.886719 58.046875 24.621094 57.972656 24.359375 C 57.832031 23.859375 57.667969 23.351562 57.488281 22.851562 C 57.121094 21.808594 56.679688 20.789062 56.164062 19.78125 C 55.949219 19.359375 55.710938 18.925781 55.460938 18.5 C 54.292969 16.515625 52.839844 14.652344 51.09375 12.910156 C 45.824219 7.636719 39.457031 5 32 5 C 24.542969 5 18.179688 7.636719 12.910156 12.910156 C 7.636719 18.179688 5 24.542969 5 32 C 5 39.457031 7.636719 45.824219 12.910156 51.09375 C 16.800781 54.988281 21.289062 57.441406 26.34375 58.453125 C 28.171875 58.820312 30.050781 59 32 59 C 39.457031 59 45.824219 56.367188 51.09375 51.09375 C 53.875 48.316406 55.921875 45.230469 57.234375 41.839844 C 58.207031 39.324219 58.78125 36.644531 58.949219 33.789062 C 58.980469 33.203125 59 32.605469 59 32 C 59 29.613281 58.730469 27.332031 58.179688 25.136719 Z M 58.183594 25.136719 "/>
<path fill-rule="nonzero" fill="rgb(100%, 100%, 100%)" fill-opacity="1" d="M 16.84375 14.609375 C 16.84375 17.355469 17.21875 21.253906 19.191406 23.382812 C 20.253906 24.523438 22 24.832031 23.402344 25.335938 C 26.46875 26.441406 29.863281 28.121094 33.128906 28.40625 L 28.832031 27.773438 L 19.105469 25.917969 C 19.125 26.898438 19.324219 27.722656 19.695312 28.632812 C 22.125 34.605469 27.996094 33.382812 33.355469 33.382812 C 31.335938 33.996094 29.109375 34.070312 27.023438 34.351562 C 26.324219 34.445312 24.984375 34.46875 24.550781 35.125 C 23.816406 36.226562 25.890625 37.746094 26.570312 38.296875 C 29.539062 40.710938 32.503906 40.25 35.84375 38.808594 L 34.710938 44.464844 L 38.332031 44.464844 L 36.523438 52.609375 L 40.765625 47.179688 L 45.570312 40.621094 L 40.820312 40.621094 C 42.378906 37.691406 44.292969 34.960938 45.84375 32.023438 C 46.523438 30.738281 47.46875 29.246094 47.054688 27.726562 C 46.40625 25.359375 42.179688 24.316406 40.140625 23.617188 C 34.539062 21.695312 29.117188 19.445312 23.628906 17.242188 C 21.484375 16.382812 19.175781 14.730469 16.84375 14.609375 Z M 16.84375 14.609375 "/>
</svg>
