<?xml version="1.0" encoding="UTF-8"?>
<svg xmlns="http://www.w3.org/2000/svg" xmlns:xlink="http://www.w3.org/1999/xlink" width="64" height="64" viewBox="0 0 64 64">
<path fill-rule="nonzero" fill="rgb(94.901961%, 94.901961%, 94.901961%)" fill-opacity="1" d="M 8.464844 1.324219 C 12.414062 1.324219 15.609375 4.519531 15.609375 8.464844 C 15.609375 12.414062 12.414062 15.609375 8.464844 15.609375 C 4.519531 15.609375 1.324219 12.414062 1.324219 8.464844 C 1.324219 4.519531 4.519531 1.324219 8.464844 1.324219 Z M 8.464844 1.324219 "/>
<path fill-rule="nonzero" fill="rgb(93.72549%, 65.490196%, 14.117647%)" fill-opacity="1" d="M 8.464844 4.34375 L 7.527344 5.285156 L 8.203125 5.285156 L 8.203125 7.445312 L 8.464844 7.710938 L 8.730469 7.445312 L 8.730469 5.285156 L 9.40625 5.285156 Z M 8.464844 4.34375 "/>
<path fill-rule="nonzero" fill="rgb(14.901961%, 14.509804%, 46.666667%)" fill-opacity="1" d="M 11.640625 7.519531 L 11.640625 8.195312 L 9.480469 8.195312 L 9.214844 8.460938 L 9.480469 8.722656 L 11.640625 8.722656 L 11.640625 9.398438 L 12.582031 8.460938 "/>
<path fill-rule="nonzero" fill="rgb(61.176471%, 80.392157%, 16.470588%)" fill-opacity="1" d="M 8.464844 9.207031 L 8.203125 9.472656 L 8.203125 11.632812 L 7.523438 11.632812 L 8.464844 12.574219 L 9.40625 11.636719 L 8.730469 11.636719 L 8.730469 9.472656 "/>
<path fill-rule="nonzero" fill="rgb(57.647059%, 13.333333%, 47.45098%)" fill-opacity="1" d="M 5.289062 7.519531 L 4.351562 8.460938 L 5.289062 9.398438 L 5.289062 8.722656 L 7.453125 8.722656 L 7.71875 8.460938 L 7.453125 8.195312 L 5.289062 8.195312 "/>
<path fill-rule="nonzero" fill="rgb(93.72549%, 65.490196%, 14.117647%)" fill-opacity="1" d="M 8.996094 8.988281 L 8.996094 9.363281 L 10.523438 10.890625 L 10.046875 11.371094 L 11.375 11.371094 L 11.375 10.039062 L 10.898438 10.515625 L 9.367188 8.988281 Z M 9.742188 8.988281 L 10.898438 10.144531 L 11.378906 9.664062 L 11.378906 8.988281 Z M 8.996094 9.738281 L 8.996094 11.371094 L 9.671875 11.371094 L 10.148438 10.890625 Z M 8.996094 9.738281 "/>
<path fill-rule="nonzero" fill="rgb(14.901961%, 14.509804%, 46.666667%)" fill-opacity="1" d="M 5.554688 8.988281 L 5.554688 9.664062 L 6.035156 10.144531 L 7.1875 8.988281 Z M 7.5625 8.988281 L 6.03125 10.515625 L 5.554688 10.039062 L 5.554688 11.367188 L 6.886719 11.367188 L 6.410156 10.890625 L 7.9375 9.363281 L 7.9375 8.988281 Z M 7.9375 9.738281 L 6.78125 10.890625 L 7.261719 11.371094 L 7.9375 11.371094 Z M 7.9375 9.738281 "/>
<path fill-rule="nonzero" fill="rgb(57.647059%, 13.333333%, 47.45098%)" fill-opacity="1" d="M 8.996094 5.550781 L 8.996094 7.183594 L 10.148438 6.027344 L 9.671875 5.550781 Z M 10.046875 5.550781 L 10.523438 6.027344 L 8.996094 7.554688 L 8.996094 7.929688 L 9.371094 7.929688 L 10.898438 6.402344 L 11.378906 6.878906 L 11.378906 5.550781 Z M 10.898438 6.777344 L 9.742188 7.929688 L 11.378906 7.929688 L 11.378906 7.253906 L 10.898438 6.773438 Z M 10.898438 6.777344 "/>
<path fill-rule="nonzero" fill="rgb(61.176471%, 80.392157%, 16.470588%)" fill-opacity="1" d="M 5.554688 5.550781 L 5.554688 6.878906 L 6.035156 6.402344 L 7.5625 7.929688 L 7.9375 7.929688 L 7.9375 7.554688 L 6.410156 6.027344 L 6.886719 5.550781 Z M 7.261719 5.550781 L 6.78125 6.027344 L 7.9375 7.183594 L 7.9375 5.550781 Z M 6.035156 6.777344 L 5.554688 7.253906 L 5.554688 7.929688 L 7.1875 7.929688 Z M 6.035156 6.777344 "/>
</svg>
