<?xml version="1.0" encoding="UTF-8"?>
<svg xmlns="http://www.w3.org/2000/svg" xmlns:xlink="http://www.w3.org/1999/xlink" width="64" height="64" viewBox="0 0 64 64">
<path fill-rule="nonzero" fill="rgb(21.176471%, 29.411765%, 48.235294%)" fill-opacity="1" d="M 8.378906 1.324219 C 10.953125 1.292969 13.34375 2.648438 14.640625 4.871094 C 15.933594 7.09375 15.933594 9.839844 14.640625 12.0625 C 13.34375 14.285156 10.953125 15.640625 8.378906 15.609375 C 4.46875 15.5625 1.324219 12.378906 1.324219 8.464844 C 1.324219 4.554688 4.46875 1.371094 8.378906 1.324219 Z M 8.378906 1.324219 "/>
<path fill-rule="evenodd" fill="rgb(98.431373%, 99.215686%, 98.823529%)" fill-opacity="1" d="M 9.261719 5.554688 C 9.261719 5.996094 8.90625 6.351562 8.464844 6.351562 C 8.027344 6.351562 7.671875 5.996094 7.671875 5.554688 C 7.671875 5.117188 8.027344 4.761719 8.464844 4.761719 C 8.90625 4.761719 9.261719 5.117188 9.261719 5.554688 Z M 9.261719 5.554688 "/>
<path fill-rule="evenodd" fill="rgb(98.431373%, 99.215686%, 98.823529%)" fill-opacity="1" d="M 9.261719 8.464844 C 9.261719 8.90625 8.90625 9.261719 8.464844 9.261719 C 8.027344 9.261719 7.671875 8.90625 7.671875 8.464844 C 7.671875 8.027344 8.027344 7.671875 8.464844 7.671875 C 8.90625 7.671875 9.261719 8.027344 9.261719 8.464844 Z M 9.261719 8.464844 "/>
<path fill-rule="evenodd" fill="rgb(98.431373%, 99.215686%, 98.823529%)" fill-opacity="1" d="M 9.261719 11.378906 C 9.261719 11.816406 8.90625 12.171875 8.464844 12.171875 C 8.027344 12.171875 7.671875 11.816406 7.671875 11.378906 C 7.671875 10.9375 8.027344 10.582031 8.464844 10.582031 C 8.90625 10.582031 9.261719 10.9375 9.261719 11.378906 Z M 9.261719 11.378906 "/>
<path fill-rule="evenodd" fill="rgb(98.431373%, 99.215686%, 98.823529%)" fill-opacity="1" d="M 6.085938 8.464844 C 6.085938 8.90625 5.730469 9.261719 5.292969 9.261719 C 4.851562 9.261719 4.496094 8.90625 4.496094 8.464844 C 4.496094 8.027344 4.851562 7.671875 5.292969 7.671875 C 5.730469 7.671875 6.085938 8.027344 6.085938 8.464844 Z M 6.085938 8.464844 "/>
<path fill-rule="evenodd" fill="rgb(98.431373%, 99.215686%, 98.823529%)" fill-opacity="1" d="M 12.433594 8.464844 C 12.433594 8.90625 12.078125 9.261719 11.640625 9.261719 C 11.203125 9.261719 10.847656 8.90625 10.847656 8.464844 C 10.847656 8.027344 11.203125 7.671875 11.640625 7.671875 C 12.078125 7.671875 12.433594 8.027344 12.433594 8.464844 Z M 12.433594 8.464844 "/>
<path fill-rule="evenodd" fill="rgb(98.431373%, 99.215686%, 98.823529%)" fill-opacity="1" d="M 7.671875 7.007812 C 7.671875 7.445312 7.316406 7.800781 6.878906 7.800781 C 6.441406 7.800781 6.085938 7.445312 6.085938 7.007812 C 6.085938 6.566406 6.441406 6.210938 6.878906 6.210938 C 7.316406 6.210938 7.671875 6.566406 7.671875 7.007812 Z M 7.671875 7.007812 "/>
<path fill-rule="evenodd" fill="rgb(98.431373%, 99.215686%, 98.823529%)" fill-opacity="1" d="M 7.671875 9.910156 C 7.671875 10.351562 7.316406 10.707031 6.878906 10.707031 C 6.441406 10.707031 6.085938 10.351562 6.085938 9.910156 C 6.085938 9.472656 6.441406 9.117188 6.878906 9.117188 C 7.316406 9.117188 7.671875 9.472656 7.671875 9.910156 Z M 7.671875 9.910156 "/>
<path fill-rule="evenodd" fill="rgb(98.431373%, 99.215686%, 98.823529%)" fill-opacity="1" d="M 10.847656 7.007812 C 10.847656 7.445312 10.492188 7.800781 10.054688 7.800781 C 9.617188 7.800781 9.261719 7.445312 9.261719 7.007812 C 9.261719 6.566406 9.617188 6.210938 10.054688 6.210938 C 10.492188 6.210938 10.847656 6.566406 10.847656 7.007812 Z M 10.847656 7.007812 "/>
<path fill-rule="evenodd" fill="rgb(98.431373%, 99.215686%, 98.823529%)" fill-opacity="1" d="M 10.847656 9.910156 C 10.847656 10.351562 10.492188 10.707031 10.054688 10.707031 C 9.617188 10.707031 9.261719 10.351562 9.261719 9.910156 C 9.261719 9.472656 9.617188 9.117188 10.054688 9.117188 C 10.492188 9.117188 10.847656 9.472656 10.847656 9.910156 Z M 10.847656 9.910156 "/>
</svg>
