<?xml version="1.0" encoding="UTF-8"?>
<svg xmlns="http://www.w3.org/2000/svg" xmlns:xlink="http://www.w3.org/1999/xlink" width="64" height="64" viewBox="0 0 64 64">
<path fill-rule="nonzero" fill="rgb(25.098039%, 32.941176%, 45.490196%)" fill-opacity="1" d="M 8.378906 1.324219 C 10.953125 1.292969 13.34375 2.648438 14.640625 4.871094 C 15.933594 7.09375 15.933594 9.839844 14.640625 12.0625 C 13.34375 14.285156 10.953125 15.640625 8.378906 15.609375 C 4.46875 15.5625 1.324219 12.378906 1.324219 8.464844 C 1.324219 4.554688 4.46875 1.371094 8.378906 1.324219 Z M 8.378906 1.324219 "/>
<path fill-rule="nonzero" fill="rgb(97.647059%, 97.647059%, 97.647059%)" fill-opacity="1" d="M 6.765625 7.390625 C 6.660156 7.390625 6.554688 7.429688 6.472656 7.496094 C 5.722656 8.113281 5.289062 9.035156 5.289062 10.003906 C 5.289062 11.78125 6.71875 13.226562 8.46875 13.226562 C 10.21875 13.226562 11.640625 11.78125 11.640625 10.003906 C 11.640625 9.027344 11.210938 8.113281 10.460938 7.496094 C 10.289062 7.355469 10.042969 7.355469 9.871094 7.496094 C 9.476562 7.824219 8.980469 8.003906 8.46875 8.003906 C 7.953125 8.003906 7.46875 7.828125 7.0625 7.496094 C 6.980469 7.429688 6.875 7.390625 6.765625 7.390625 Z M 6.96875 8.558594 C 7.398438 8.839844 7.925781 8.996094 8.46875 8.996094 C 9.007812 8.996094 9.535156 8.839844 9.964844 8.558594 C 10.789062 9.386719 10.789062 10.726562 9.964844 11.550781 C 9.136719 12.378906 7.796875 12.378906 6.972656 11.550781 C 6.144531 10.726562 6.144531 9.386719 6.96875 8.558594 Z M 8.113281 3.703125 C 7.917969 3.707031 7.761719 3.863281 7.761719 4.058594 C 7.761719 4.253906 7.917969 4.414062 8.113281 4.410156 C 8.308594 4.410156 8.46875 4.253906 8.46875 4.058594 C 8.46875 3.863281 8.308594 3.703125 8.113281 3.703125 Z M 9.207031 4.410156 C 9.011719 4.410156 8.855469 4.566406 8.855469 4.761719 C 8.855469 4.957031 9.011719 5.117188 9.207031 5.117188 C 9.402344 5.117188 9.5625 4.957031 9.5625 4.761719 C 9.5625 4.566406 9.402344 4.410156 9.207031 4.410156 Z M 8.289062 4.761719 C 8.011719 4.78125 7.792969 5.011719 7.792969 5.292969 C 7.792969 5.570312 8.011719 5.804688 8.289062 5.820312 C 8.570312 5.804688 8.789062 5.570312 8.789062 5.292969 C 8.789062 5.011719 8.570312 4.78125 8.289062 4.761719 Z M 9.351562 5.820312 C 9.066406 5.832031 8.84375 6.066406 8.84375 6.351562 C 8.84375 6.632812 9.066406 6.867188 9.351562 6.878906 C 9.632812 6.867188 9.855469 6.632812 9.855469 6.351562 C 9.855469 6.066406 9.632812 5.832031 9.351562 5.820312 Z M 7.585938 6.175781 C 7.304688 6.191406 7.089844 6.421875 7.089844 6.703125 C 7.089844 6.984375 7.304688 7.214844 7.585938 7.230469 C 7.867188 7.214844 8.082031 6.984375 8.082031 6.703125 C 8.082031 6.421875 7.867188 6.191406 7.585938 6.175781 Z M 7.585938 6.175781 "/>
</svg>
