<?xml version="1.0" encoding="UTF-8"?>
<svg xmlns="http://www.w3.org/2000/svg" xmlns:xlink="http://www.w3.org/1999/xlink" width="64" height="64" viewBox="0 0 64 64">
<path fill-rule="nonzero" fill="rgb(0%, 26.666667%, 66.666667%)" fill-opacity="1" d="M 8.378906 1.324219 C 10.953125 1.292969 13.34375 2.648438 14.640625 4.871094 C 15.933594 7.09375 15.933594 9.839844 14.640625 12.0625 C 13.34375 14.285156 10.953125 15.640625 8.378906 15.609375 C 4.46875 15.5625 1.324219 12.378906 1.324219 8.464844 C 1.324219 4.554688 4.46875 1.371094 8.378906 1.324219 Z M 8.378906 1.324219 "/>
<path fill-rule="nonzero" fill="rgb(100%, 100%, 100%)" fill-opacity="1" d="M 10.691406 4.21875 C 10.671875 4.234375 10.660156 4.242188 10.664062 4.234375 C 10.4375 4.625 10.433594 5.136719 10.328125 5.597656 C 10.328125 5.605469 10.328125 5.613281 10.328125 5.617188 C 10.277344 6.121094 10.113281 6.632812 10.246094 7.113281 C 10.25 7.125 10.253906 7.132812 10.257812 7.144531 C 10.28125 7.175781 10.3125 7.203125 10.332031 7.210938 C 10.347656 7.210938 10.367188 7.203125 10.414062 7.171875 C 10.464844 7.136719 10.496094 7.070312 10.515625 6.976562 C 10.519531 6.949219 10.527344 6.925781 10.542969 6.90625 C 10.746094 6.089844 10.894531 5.230469 10.839844 4.394531 C 10.839844 4.390625 10.839844 4.386719 10.839844 4.382812 C 10.832031 4.34375 10.820312 4.320312 10.785156 4.277344 C 10.769531 4.257812 10.753906 4.242188 10.734375 4.226562 C 10.730469 4.222656 10.734375 4.21875 10.710938 4.222656 C 10.703125 4.222656 10.699219 4.222656 10.691406 4.222656 Z M 12.582031 4.617188 C 12.578125 4.617188 12.570312 4.617188 12.566406 4.617188 C 12.210938 4.789062 12.027344 5.207031 11.785156 5.542969 C 11.78125 5.558594 11.773438 5.574219 11.765625 5.589844 C 11.457031 6.136719 11.066406 6.675781 11.023438 7.308594 C 11.027344 7.410156 11.082031 7.464844 11.140625 7.480469 C 11.21875 7.484375 11.292969 7.453125 11.34375 7.390625 C 11.34375 7.382812 11.34375 7.375 11.347656 7.367188 C 11.347656 7.363281 11.351562 7.363281 11.351562 7.359375 C 11.910156 6.59375 12.332031 5.679688 12.679688 4.796875 C 12.679688 4.792969 12.679688 4.792969 12.679688 4.792969 C 12.703125 4.734375 12.707031 4.710938 12.683594 4.667969 C 12.679688 4.65625 12.617188 4.613281 12.582031 4.617188 Z M 12.582031 4.617188 "/>
<path fill-rule="nonzero" fill="rgb(100%, 100%, 100%)" fill-opacity="1" d="M 7.085938 4.871094 C 7.027344 4.882812 6.941406 4.933594 6.882812 4.957031 C 6.667969 5.039062 6.550781 5.222656 6.5 5.433594 C 6.449219 5.65625 6.464844 5.898438 6.5 6.148438 C 6.535156 6.394531 6.585938 6.652344 6.636719 6.847656 C 6.683594 7.015625 6.71875 7.097656 6.734375 7.15625 L 6.734375 7.195312 C 6.734375 7.214844 6.726562 7.214844 6.714844 7.230469 C 6.707031 7.234375 6.71875 7.25 6.714844 7.25 C 6.699219 7.261719 6.679688 7.269531 6.660156 7.273438 C 6.621094 7.273438 6.59375 7.261719 6.554688 7.25 C 6.527344 7.242188 6.492188 7.222656 6.5 7.230469 C 6.488281 7.222656 6.464844 7.21875 6.457031 7.207031 C 6.457031 7.214844 6.464844 7.214844 6.457031 7.199219 C 6.449219 7.179688 6.441406 7.140625 6.425781 7.113281 C 6.394531 7.046875 6.371094 6.972656 6.332031 6.878906 C 6.238281 6.664062 6.132812 6.449219 6.023438 6.242188 C 5.917969 6.035156 5.777344 5.847656 5.609375 5.691406 C 5.535156 5.617188 5.441406 5.5625 5.34375 5.53125 C 5.246094 5.511719 5.144531 5.527344 5.058594 5.574219 C 4.839844 5.695312 4.683594 5.902344 4.632812 6.148438 C 4.578125 6.375 4.605469 6.640625 4.644531 6.867188 C 4.683594 7.097656 4.742188 7.285156 4.78125 7.441406 C 4.796875 7.507812 4.816406 7.566406 4.824219 7.601562 C 4.820312 7.652344 4.8125 7.699219 4.804688 7.75 C 4.761719 7.890625 4.664062 8.121094 4.664062 8.121094 C 4.664062 8.121094 2.8125 13.039062 6.785156 12.695312 C 6.820312 12.691406 6.894531 12.675781 6.925781 12.675781 C 7.703125 12.515625 8.445312 12.28125 9.101562 12.015625 C 9.230469 11.953125 9.398438 11.894531 9.589844 11.804688 C 9.96875 11.625 10.445312 11.398438 10.90625 11.144531 C 11.363281 10.894531 11.789062 10.625 12.113281 10.339844 C 12.441406 10.054688 12.679688 9.738281 12.636719 9.425781 C 12.566406 8.921875 12.230469 8.546875 11.785156 8.257812 C 11.339844 7.96875 10.78125 7.769531 10.226562 7.621094 C 9.730469 7.488281 9.226562 7.378906 8.71875 7.292969 C 8.511719 7.261719 8.320312 7.253906 8.199219 7.230469 C 8.164062 7.222656 8.144531 7.214844 8.125 7.207031 C 8.113281 7.207031 8.113281 7.203125 8.105469 7.199219 C 8.089844 7.191406 8.066406 7.1875 8.0625 7.175781 C 8.054688 7.164062 8.0625 7.148438 8.0625 7.132812 L 8.0625 6.804688 C 8.054688 6.503906 8.03125 6.199219 7.984375 5.902344 C 7.933594 5.589844 7.851562 5.289062 7.679688 5.085938 C 7.574219 4.960938 7.417969 4.882812 7.253906 4.871094 C 7.199219 4.863281 7.140625 4.863281 7.085938 4.871094 Z M 7.085938 4.871094 "/>
</svg>
