<?xml version="1.0" encoding="UTF-8"?>
<svg xmlns="http://www.w3.org/2000/svg" xmlns:xlink="http://www.w3.org/1999/xlink" width="64" height="64" viewBox="0 0 64 64">
<path fill-rule="nonzero" fill="rgb(33.333333%, 86.666667%, 100%)" fill-opacity="1" d="M 15.609375 8.476562 C 15.609375 12.421875 12.414062 15.621094 8.464844 15.621094 C 4.519531 15.621094 1.324219 12.421875 1.324219 8.476562 C 1.324219 4.53125 4.519531 1.332031 8.464844 1.332031 C 12.414062 1.332031 15.609375 4.53125 15.609375 8.476562 Z M 15.609375 8.476562 "/>
<path fill-rule="nonzero" fill="rgb(10.196078%, 10.196078%, 10.196078%)" fill-opacity="1" d="M 5.359375 5.898438 L 5.359375 4.304688 L 6.613281 3.960938 L 9.234375 4.988281 L 12.769531 10.6875 L 10.945312 9.320312 L 10.71875 12.511719 L 10.035156 10.914062 L 9.578125 13.878906 L 9.121094 8.179688 L 7.980469 7.722656 L 7.070312 5.898438 L 6.613281 5.445312 L 6.160156 5.214844 Z M 5.359375 5.898438 "/>
</svg>
