<?xml version="1.0" encoding="UTF-8"?>
<svg xmlns="http://www.w3.org/2000/svg" xmlns:xlink="http://www.w3.org/1999/xlink" width="64" height="64" viewBox="0 0 64 64">
<path fill-rule="nonzero" fill="rgb(94.509804%, 43.529412%, 25.490196%)" fill-opacity="1" d="M 8.378906 1.324219 C 10.953125 1.292969 13.34375 2.648438 14.640625 4.871094 C 15.933594 7.09375 15.933594 9.839844 14.640625 12.0625 C 13.34375 14.285156 10.953125 15.640625 8.378906 15.609375 C 4.46875 15.5625 1.324219 12.378906 1.324219 8.464844 C 1.324219 4.554688 4.46875 1.371094 8.378906 1.324219 Z M 8.378906 1.324219 "/>
<path fill-rule="nonzero" fill="rgb(100%, 100%, 100%)" fill-opacity="1" d="M 8.46875 3.703125 C 5.835938 3.703125 3.707031 5.835938 3.707031 8.464844 C 3.707031 11.097656 5.835938 13.230469 8.46875 13.230469 C 11.097656 13.230469 13.230469 11.097656 13.230469 8.464844 C 13.230469 5.835938 11.097656 3.703125 8.46875 3.703125 Z M 10.164062 5.03125 C 10.378906 5.058594 10.5625 5.1875 10.65625 5.378906 C 10.753906 5.570312 10.746094 5.796875 10.636719 5.980469 C 10.480469 6.253906 10.140625 6.371094 9.847656 6.25 C 9.550781 6.128906 9.390625 5.808594 9.472656 5.5 C 9.554688 5.191406 9.847656 4.992188 10.164062 5.03125 Z M 8.46875 5.703125 C 8.722656 5.703125 8.972656 5.738281 9.207031 5.804688 C 9.25 6.070312 9.40625 6.300781 9.640625 6.433594 C 9.871094 6.570312 10.152344 6.59375 10.402344 6.496094 C 10.871094 6.960938 11.179688 7.589844 11.222656 8.289062 L 10.316406 8.300781 C 10.261719 7.699219 9.917969 7.160156 9.394531 6.859375 C 8.871094 6.554688 8.234375 6.527344 7.683594 6.78125 L 7.242188 5.988281 C 7.625 5.800781 8.042969 5.703125 8.46875 5.703125 Z M 6.933594 6.167969 L 7.398438 6.945312 C 6.90625 7.292969 6.609375 7.863281 6.609375 8.464844 C 6.609375 9.070312 6.90625 9.636719 7.398438 9.984375 L 6.933594 10.765625 C 6.371094 10.386719 5.964844 9.816406 5.792969 9.160156 C 6.003906 8.988281 6.125 8.734375 6.125 8.464844 C 6.125 8.199219 6.003906 7.941406 5.792969 7.773438 C 5.964844 7.117188 6.371094 6.546875 6.933594 6.167969 Z M 5.230469 7.832031 C 5.582031 7.832031 5.867188 8.113281 5.867188 8.464844 C 5.867188 8.816406 5.582031 9.101562 5.230469 9.101562 C 4.878906 9.101562 4.59375 8.816406 4.59375 8.46875 C 4.59375 8.117188 4.878906 7.832031 5.230469 7.832031 Z M 10.316406 8.628906 L 11.222656 8.644531 C 11.179688 9.324219 10.886719 9.960938 10.402344 10.4375 C 10.152344 10.339844 9.871094 10.363281 9.640625 10.496094 C 9.40625 10.628906 9.246094 10.863281 9.207031 11.128906 C 8.550781 11.308594 7.851562 11.242188 7.242188 10.941406 L 7.683594 10.152344 C 8.234375 10.40625 8.871094 10.378906 9.398438 10.074219 C 9.921875 9.773438 10.265625 9.234375 10.316406 8.628906 Z M 10.007812 10.640625 C 10.234375 10.609375 10.460938 10.703125 10.597656 10.886719 C 10.734375 11.070312 10.765625 11.3125 10.675781 11.519531 C 10.585938 11.730469 10.390625 11.878906 10.164062 11.902344 C 9.816406 11.945312 9.5 11.695312 9.457031 11.347656 C 9.414062 11 9.660156 10.683594 10.007812 10.640625 Z M 10.007812 10.640625 "/>
</svg>
