<?xml version="1.0" encoding="UTF-8"?>
<svg xmlns="http://www.w3.org/2000/svg" xmlns:xlink="http://www.w3.org/1999/xlink" width="64" height="64" viewBox="0 0 64 64">
<path fill-rule="nonzero" fill="rgb(7.45098%, 55.686275%, 82.745098%)" fill-opacity="1" d="M 15.609375 8.464844 C 15.609375 12.410156 12.410156 15.609375 8.464844 15.609375 C 4.519531 15.609375 1.324219 12.410156 1.324219 8.464844 C 1.324219 4.519531 4.519531 1.324219 8.464844 1.324219 C 12.410156 1.324219 15.609375 4.519531 15.609375 8.464844 Z M 15.609375 8.464844 "/>
<path fill-rule="evenodd" fill="rgb(100%, 100%, 100%)" fill-opacity="1" d="M 8.464844 3.769531 C 8.089844 4.691406 7.863281 5.296875 7.441406 6.195312 C 7.699219 6.46875 8.015625 6.785156 8.527344 7.144531 C 7.976562 6.917969 7.601562 6.6875 7.320312 6.453125 C 6.78125 7.574219 5.941406 9.167969 4.234375 12.238281 C 5.574219 11.464844 6.617188 10.984375 7.585938 10.804688 C 7.542969 10.613281 7.519531 10.421875 7.523438 10.226562 L 7.523438 10.183594 C 7.546875 9.324219 7.992188 8.664062 8.523438 8.710938 C 9.050781 8.753906 9.464844 9.488281 9.441406 10.347656 C 9.4375 10.503906 9.421875 10.65625 9.386719 10.808594 C 10.347656 10.996094 11.375 11.472656 12.699219 12.238281 C 12.4375 11.757812 12.207031 11.324219 11.984375 10.910156 C 11.632812 10.640625 11.265625 10.285156 10.523438 9.902344 C 11.035156 10.035156 11.402344 10.191406 11.6875 10.363281 C 9.425781 6.148438 9.242188 5.589844 8.464844 3.769531 Z M 8.464844 3.769531 "/>
</svg>
