<?xml version="1.0" encoding="UTF-8"?>
<svg xmlns="http://www.w3.org/2000/svg" xmlns:xlink="http://www.w3.org/1999/xlink" width="64" height="64" viewBox="0 0 64 64">
<path fill-rule="nonzero" fill="rgb(0%, 73.72549%, 98.431373%)" fill-opacity="1" d="M 15.609375 8.46875 C 15.609375 12.414062 12.414062 15.613281 8.464844 15.613281 C 4.519531 15.613281 1.324219 12.414062 1.324219 8.46875 C 1.324219 4.523438 4.519531 1.328125 8.464844 1.328125 C 12.414062 1.328125 15.609375 4.523438 15.609375 8.46875 Z M 15.609375 8.46875 "/>
<path fill-rule="nonzero" fill="rgb(100%, 100%, 100%)" fill-opacity="1" d="M 8.199219 4.765625 C 7.75 4.773438 7.78125 4.855469 7.589844 5.242188 C 7.28125 5.867188 7.066406 6.773438 7.109375 7.308594 C 7.15625 7.878906 7.308594 8.253906 7.605469 8.53125 C 7.960938 8.867188 8.398438 8.824219 8.761719 8.433594 C 9.09375 8.078125 9.214844 7.710938 9.242188 6.910156 C 9.261719 6.40625 9.269531 6.34375 9.308594 6.433594 C 9.453125 6.769531 9.492188 7.558594 9.390625 7.953125 C 9.308594 8.277344 9.097656 8.671875 8.929688 8.828125 C 8.703125 9.035156 8.464844 9.128906 8.136719 9.140625 C 7.914062 9.152344 7.824219 9.148438 7.65625 9.09375 C 7.21875 8.945312 6.675781 8.527344 6.367188 8.117188 C 5.925781 7.535156 5.484375 6.351562 5.375 5.40625 C 5.363281 5.285156 5.34375 5.164062 5.308594 5.046875 C 5.230469 4.953125 4.925781 5.332031 4.828125 5.640625 C 4.769531 5.835938 4.765625 5.929688 4.765625 7.671875 L 4.765625 9.507812 L 4.847656 9.558594 C 4.964844 9.632812 5.472656 9.785156 5.890625 9.871094 C 6.207031 9.9375 6.332031 9.953125 7.078125 9.953125 C 7.828125 9.953125 7.96875 9.933594 8.253906 9.871094 C 8.722656 9.769531 9.070312 9.601562 9.363281 9.308594 C 9.769531 8.898438 9.921875 8.484375 9.925781 7.839844 C 9.925781 7.410156 9.863281 7.066406 9.691406 6.730469 C 9.628906 6.605469 9.570312 6.507812 9.574219 6.5 C 9.613281 6.460938 10.039062 6.96875 10.136719 7.175781 C 10.75 8.472656 10.457031 9.527344 9.195312 10.578125 C 8.636719 11.046875 7.667969 11.6875 7.113281 11.96875 C 6.917969 12.066406 6.882812 12.101562 6.929688 12.148438 C 6.941406 12.160156 7.90625 12.171875 9.078125 12.164062 L 11.210938 12.148438 L 11.394531 12.066406 C 11.761719 11.890625 11.992188 11.632812 12.101562 11.273438 C 12.167969 11.070312 12.167969 10.976562 12.167969 8.464844 C 12.167969 5.824219 12.164062 5.597656 12.054688 5.554688 C 12.027344 5.546875 11.777344 5.574219 11.507812 5.621094 C 11.207031 5.675781 10.78125 5.71875 10.417969 5.738281 C 9.777344 5.769531 9.453125 5.832031 9.078125 5.984375 C 8.726562 6.128906 8.523438 6.242188 8.332031 6.398438 C 8.164062 6.539062 8.140625 6.554688 8.085938 6.777344 C 8.007812 7.085938 7.960938 7.222656 7.835938 7.390625 C 7.742188 7.511719 7.652344 7.570312 7.652344 7.507812 C 7.65625 7.386719 7.765625 7.019531 7.867188 6.8125 C 8.175781 6.199219 8.574219 5.765625 9.355469 5.175781 C 9.597656 4.992188 9.800781 4.835938 9.800781 4.808594 C 9.800781 4.773438 9.628906 4.761719 8.84375 4.761719 C 8.5625 4.761719 8.347656 4.757812 8.199219 4.761719 M 8.84375 6.316406 C 8.890625 6.316406 8.894531 6.367188 8.824219 6.863281 C 8.753906 7.382812 8.566406 7.800781 8.328125 8.050781 C 8.160156 8.230469 7.980469 8.277344 7.851562 8.183594 C 7.761719 8.101562 7.703125 7.988281 7.6875 7.871094 C 7.6875 7.828125 7.699219 7.824219 7.75 7.855469 C 7.851562 7.90625 7.894531 7.894531 8.015625 7.789062 C 8.222656 7.605469 8.4375 7.089844 8.546875 6.496094 C 8.558594 6.429688 8.746094 6.3125 8.84375 6.3125 M 8.84375 6.3125 "/>
</svg>
