<?xml version="1.0" encoding="UTF-8"?>
<svg xmlns="http://www.w3.org/2000/svg" xmlns:xlink="http://www.w3.org/1999/xlink" width="64" height="64" viewBox="0 0 64 64">
<path fill-rule="nonzero" fill="rgb(30.588235%, 48.235294%, 62.745098%)" fill-opacity="1" d="M 15.609375 8.46875 C 15.609375 12.414062 12.414062 15.613281 8.464844 15.613281 C 4.519531 15.613281 1.324219 12.414062 1.324219 8.46875 C 1.324219 4.523438 4.519531 1.328125 8.464844 1.328125 C 12.414062 1.328125 15.609375 4.523438 15.609375 8.46875 Z M 15.609375 8.46875 "/>
<path fill-rule="evenodd" fill="rgb(100%, 100%, 100%)" fill-opacity="1" d="M 8.664062 4.351562 C 7.722656 4.382812 11.179688 9.011719 8.515625 8.71875 C 10.734375 9.316406 11.242188 6.53125 10.789062 5.171875 C 10.339844 3.824219 10.109375 4.664062 8.769531 4.363281 C 8.734375 4.355469 8.699219 4.351562 8.664062 4.351562 Z M 6.019531 4.996094 C 4.558594 4.996094 5.3125 5.472656 4.605469 6.617188 C 3.929688 7.707031 9.9375 5.753906 8.789062 8.195312 C 10.058594 6.328125 7.492188 5 6.019531 4.996094 Z M 7.046875 7.089844 C 5.878906 7.085938 4.703125 8.375 4.375 9.351562 C 3.921875 10.699219 4.621094 10.152344 5.523438 11.15625 C 6.382812 12.117188 6.324219 5.964844 8.363281 7.78125 C 7.960938 7.289062 7.503906 7.089844 7.046875 7.089844 Z M 12.105469 7.308594 C 11.378906 7.253906 8.410156 10.972656 7.921875 8.628906 C 8.019531 10.859375 10.902344 10.472656 12.097656 9.632812 C 13.277344 8.800781 12.382812 8.84375 12.261719 7.515625 C 12.25 7.378906 12.195312 7.3125 12.105469 7.304688 Z M 7.824219 8.046875 C 5.667969 8.832031 6.941406 11.371094 8.132812 12.214844 C 9.3125 13.050781 8.992188 12.234375 10.253906 11.714844 C 11.460938 11.214844 5.417969 9.367188 7.824219 8.046875 Z M 7.824219 8.046875 "/>
</svg>
