<?xml version="1.0" encoding="UTF-8"?>
<svg xmlns="http://www.w3.org/2000/svg" xmlns:xlink="http://www.w3.org/1999/xlink" width="64" height="64" viewBox="0 0 64 64">
<path fill-rule="nonzero" fill="rgb(30.196078%, 30.196078%, 30.196078%)" fill-opacity="1" d="M 8.378906 1.324219 C 10.953125 1.292969 13.34375 2.648438 14.640625 4.871094 C 15.933594 7.09375 15.933594 9.839844 14.640625 12.0625 C 13.34375 14.285156 10.953125 15.640625 8.378906 15.609375 C 4.46875 15.5625 1.324219 12.378906 1.324219 8.464844 C 1.324219 4.554688 4.46875 1.371094 8.378906 1.324219 Z M 8.378906 1.324219 "/>
<path fill-rule="nonzero" fill="rgb(100%, 100%, 100%)" fill-opacity="1" d="M 5.773438 12.546875 L 6.132812 12.546875 C 6.199219 12.410156 6.285156 12.339844 6.386719 12.339844 C 6.457031 12.339844 6.609375 12.375 6.851562 12.441406 C 7.601562 12.613281 8.203125 12.699219 8.644531 12.699219 C 10.390625 12.632812 11.332031 11.84375 11.46875 10.339844 C 11.46875 9.722656 11.210938 9.140625 10.699219 8.59375 C 10.289062 8.183594 9.605469 7.738281 8.644531 7.261719 C 7.585938 6.679688 7.054688 6.164062 7.054688 5.722656 C 7.125 5.140625 7.550781 4.832031 8.339844 4.796875 C 9.398438 4.832031 10.117188 5.414062 10.492188 6.542969 L 11.007812 6.542969 L 10.75 4.441406 L 10.492188 4.441406 C 10.425781 4.472656 10.40625 4.488281 10.441406 4.488281 C 10.367188 4.546875 10.28125 4.585938 10.1875 4.59375 C 10.152344 4.59375 10.03125 4.558594 9.824219 4.492188 C 9.210938 4.320312 8.664062 4.234375 8.183594 4.234375 C 6.507812 4.335938 5.617188 5.054688 5.515625 6.390625 C 5.722656 7.65625 6.492188 8.511719 7.824219 8.953125 C 8.953125 9.398438 9.585938 10.03125 9.722656 10.855469 C 9.65625 11.675781 9.160156 12.101562 8.234375 12.136719 C 7.140625 12.136719 6.386719 11.488281 5.976562 10.1875 L 5.464844 10.1875 L 5.773438 12.546875 "/>
</svg>
