<?xml version="1.0" encoding="UTF-8"?>
<svg xmlns="http://www.w3.org/2000/svg" xmlns:xlink="http://www.w3.org/1999/xlink" width="64" height="64" viewBox="0 0 64 64">
<path fill-rule="nonzero" fill="rgb(40%, 40%, 40%)" fill-opacity="1" d="M 15.609375 8.46875 C 15.609375 12.414062 12.414062 15.613281 8.464844 15.613281 C 4.519531 15.613281 1.324219 12.414062 1.324219 8.46875 C 1.324219 4.523438 4.519531 1.328125 8.464844 1.328125 C 12.414062 1.328125 15.609375 4.523438 15.609375 8.46875 Z M 15.609375 8.46875 "/>
<path fill-rule="nonzero" fill="rgb(100%, 100%, 100%)" fill-opacity="1" d="M 8.46875 4.230469 C 6.128906 4.230469 4.234375 6.125 4.234375 8.464844 C 4.234375 10.800781 6.128906 12.695312 8.46875 12.695312 C 10.804688 12.695312 12.699219 10.800781 12.699219 8.464844 C 12.699219 6.125 10.804688 4.230469 8.46875 4.230469 Z M 8.46875 4.582031 C 10.203125 4.582031 11.730469 5.738281 12.203125 7.410156 C 11.804688 8.226562 11.246094 8.957031 10.558594 9.554688 C 10.226562 9.839844 9.867188 10.09375 9.472656 10.273438 C 9.074219 10.453125 8.636719 10.554688 8.199219 10.527344 C 7.871094 10.511719 7.554688 10.417969 7.265625 10.261719 C 8.027344 9.847656 8.707031 9.300781 9.269531 8.644531 C 9.636719 8.214844 9.960938 7.722656 10.082031 7.171875 C 10.148438 6.894531 10.152344 6.605469 10.097656 6.328125 C 10.042969 6.046875 9.910156 5.789062 9.71875 5.578125 C 9.523438 5.378906 9.28125 5.234375 9.011719 5.160156 C 8.742188 5.089844 8.460938 5.082031 8.1875 5.132812 C 7.644531 5.230469 7.160156 5.546875 6.769531 5.941406 C 6.082031 6.632812 5.65625 7.609375 5.734375 8.582031 C 5.773438 9.070312 5.9375 9.546875 6.214844 9.945312 C 6.277344 10.035156 6.347656 10.121094 6.421875 10.203125 C 6.011719 10.34375 5.59375 10.445312 5.164062 10.503906 C 4.425781 9.304688 4.390625 7.800781 5.078125 6.570312 C 5.761719 5.34375 7.058594 4.582031 8.46875 4.582031 Z M 8.492188 5.367188 C 8.765625 5.367188 9.039062 5.449219 9.257812 5.613281 C 9.453125 5.761719 9.597656 5.972656 9.679688 6.203125 C 9.761719 6.4375 9.785156 6.6875 9.757812 6.933594 C 9.699219 7.421875 9.453125 7.867188 9.15625 8.257812 C 8.566406 9.023438 7.792969 9.625 6.90625 10.007812 C 6.734375 9.859375 6.59375 9.683594 6.480469 9.488281 C 6.25 9.078125 6.175781 8.589844 6.21875 8.121094 C 6.261719 7.65625 6.425781 7.203125 6.640625 6.785156 C 6.890625 6.300781 7.230469 5.839844 7.710938 5.578125 C 7.949219 5.445312 8.21875 5.367188 8.492188 5.367188 Z M 12.3125 7.945312 C 12.546875 9.660156 11.609375 11.324219 10.023438 12.019531 C 8.433594 12.714844 6.578125 12.273438 5.476562 10.9375 C 5.914062 10.835938 6.34375 10.691406 6.757812 10.511719 C 6.9375 10.648438 7.136719 10.761719 7.347656 10.839844 C 7.957031 11.074219 8.644531 11.039062 9.261719 10.828125 C 9.878906 10.613281 10.425781 10.230469 10.902344 9.785156 C 11.472656 9.253906 11.949219 8.632812 12.3125 7.945312 Z M 12.3125 7.945312 "/>
</svg>
