<?xml version="1.0" encoding="UTF-8"?>
<svg xmlns="http://www.w3.org/2000/svg" xmlns:xlink="http://www.w3.org/1999/xlink" width="64" height="64" viewBox="0 0 64 64">
<path fill-rule="nonzero" fill="rgb(29.803922%, 32.156863%, 38.823529%)" fill-opacity="1" d="M 15.609375 8.46875 C 15.609375 12.414062 12.410156 15.609375 8.464844 15.609375 C 4.519531 15.609375 1.324219 12.414062 1.324219 8.46875 C 1.324219 4.527344 4.519531 1.328125 8.464844 1.328125 C 12.410156 1.328125 15.609375 4.527344 15.609375 8.46875 Z M 15.609375 8.46875 "/>
<path fill-rule="evenodd" fill="rgb(100%, 100%, 100%)" fill-opacity="1" d="M 15.441406 9.941406 C 14.398438 11.347656 12.476562 12.097656 10.183594 12.429688 C 7.789062 12.777344 5.015625 12.675781 2.542969 12.464844 C 2.660156 12.640625 2.789062 12.8125 2.921875 12.976562 C 5.304688 13.167969 7.789062 13.902344 10.105469 13.566406 C 12.042969 13.285156 13.933594 12.054688 15.132812 10.996094 C 15.265625 10.652344 15.367188 10.300781 15.441406 9.941406 Z M 15.441406 9.941406 "/>
<path fill-rule="nonzero" fill="rgb(32.156863%, 58.039216%, 88.627451%)" fill-opacity="1" d="M 10.25 12.910156 C 7.824219 13.253906 5.355469 13.167969 2.925781 12.980469 C 4.488281 14.976562 7.210938 15.984375 9.722656 15.5 C 12.152344 15.082031 14.277344 13.304688 15.132812 11 C 13.691406 12.023438 11.992188 12.644531 10.25 12.910156 Z M 10.25 12.910156 "/>
<path fill-rule="evenodd" fill="rgb(100%, 100%, 100%)" fill-opacity="1" d="M 6.109375 2.914062 C 5.445312 5.621094 3.539062 8.945312 2.335938 11.070312 C 4.429688 11.574219 6.753906 11.71875 8.554688 11.882812 C 8.523438 11.476562 8.21875 7.035156 8.144531 6.175781 C 7.40625 4.835938 6.800781 4.140625 6.109375 2.914062 Z M 8.65625 6.378906 C 9.636719 8.402344 9.636719 10.40625 9.0625 11.882812 C 9.875 11.890625 11.195312 11.980469 12.628906 11.273438 C 11.453125 8.582031 8.65625 6.378906 8.65625 6.378906 Z M 10.59375 7.605469 C 11.199219 8.011719 11.78125 8.386719 12.222656 8.828125 C 12.816406 9.425781 13.121094 10.230469 13.039062 11.070312 C 13.835938 10.667969 14.363281 10 14.667969 9.4375 C 14.136719 8.949219 13.214844 8.464844 12.222656 8.113281 C 11.675781 7.917969 11.097656 7.742188 10.589844 7.605469 Z M 10.59375 7.605469 "/>
</svg>
