<?xml version="1.0" encoding="UTF-8"?>
<svg xmlns="http://www.w3.org/2000/svg" xmlns:xlink="http://www.w3.org/1999/xlink" width="64" height="64" viewBox="0 0 64 64">
<path fill-rule="evenodd" fill="rgb(47.45098%, 52.54902%, 79.607843%)" fill-opacity="1" d="M 8.46875 1.589844 C 4.9375 1.589844 1.765625 8.289062 1.410156 11.113281 C 0.972656 14.628906 6.351562 15.347656 8.46875 15.347656 C 10.582031 15.347656 15.960938 14.628906 15.523438 11.113281 C 15.167969 8.289062 11.992188 1.589844 8.46875 1.589844 Z M 8.46875 1.589844 "/>
<path fill-rule="nonzero" fill="rgb(100%, 100%, 100%)" fill-opacity="1" d="M 9.464844 12.710938 C 10.378906 10.421875 10.558594 7.464844 9.902344 5.417969 C 9.730469 4.878906 9.652344 5.003906 9.347656 6.300781 C 8.886719 8.261719 7.820312 10.617188 6.824219 11.871094 C 6.550781 12.21875 6.347656 12.566406 6.371094 12.640625 C 6.460938 12.902344 7.550781 13.214844 8.402344 13.222656 L 9.257812 13.230469 Z M 12.648438 9.054688 C 12.648438 7.90625 12.207031 6.828125 11.4375 6.09375 C 11.089844 5.765625 10.949219 5.683594 11.015625 5.851562 C 11.460938 7 11.875 8.617188 12.007812 9.742188 L 12.167969 11.085938 L 12.40625 10.53125 C 12.570312 10.160156 12.648438 9.675781 12.648438 9.054688 Z M 5.257812 9.554688 C 6.210938 8.84375 7.195312 7.859375 7.804688 7.007812 C 8.691406 5.765625 9.125 4.761719 8.777344 4.761719 C 8.710938 4.761719 8.273438 5.046875 7.8125 5.394531 C 7.347656 5.738281 6.453125 6.289062 5.820312 6.613281 C 4.6875 7.199219 4.671875 7.214844 4.476562 7.867188 C 4.195312 8.808594 4.230469 10.023438 4.53125 10.023438 C 4.585938 10.023438 4.910156 9.8125 5.257812 9.554688 Z M 5.257812 9.554688 "/>
</svg>
