<?xml version="1.0" encoding="UTF-8"?>
<svg xmlns="http://www.w3.org/2000/svg" xmlns:xlink="http://www.w3.org/1999/xlink" width="64" height="64" viewBox="0 0 64 64">
<path fill-rule="nonzero" fill="rgb(47.058824%, 71.764706%, 35.686275%)" fill-opacity="1" d="M 8.378906 1.324219 C 10.953125 1.292969 13.34375 2.648438 14.640625 4.871094 C 15.933594 7.09375 15.933594 9.839844 14.640625 12.0625 C 13.34375 14.285156 10.953125 15.640625 8.378906 15.609375 C 4.46875 15.5625 1.324219 12.378906 1.324219 8.464844 C 1.324219 4.554688 4.46875 1.371094 8.378906 1.324219 Z M 8.378906 1.324219 "/>
<path fill-rule="evenodd" fill="rgb(100%, 100%, 100%)" fill-opacity="1" d="M 4.234375 4.671875 L 4.234375 7.097656 L 5.230469 7.097656 L 5.230469 7.585938 L 5.234375 9.496094 C 5.234375 11.066406 6.597656 12.261719 8.171875 12.261719 L 12.699219 12.261719 L 12.699219 7.460938 C 12.699219 5.886719 11.335938 4.691406 9.761719 4.691406 L 8.441406 4.691406 Z M 4.875 5.316406 L 8.441406 5.332031 L 8.441406 5.335938 L 9.761719 5.335938 C 11.03125 5.335938 12.058594 6.285156 12.058594 7.460938 L 12.058594 10.972656 C 12.058594 11.363281 11.707031 11.617188 11.308594 11.617188 L 8.175781 11.617188 C 6.90625 11.617188 5.875 10.667969 5.875 9.492188 L 5.871094 7.085938 C 5.871094 6.75 5.609375 6.476562 5.277344 6.457031 L 4.875 6.457031 Z M 6.492188 6.03125 L 6.492188 9.519531 C 6.492188 9.890625 6.625 10.214844 6.890625 10.476562 C 7.113281 10.699219 7.386719 10.84375 7.691406 10.878906 L 8.550781 10.878906 L 8.550781 10.191406 L 7.8125 10.191406 C 7.453125 10.191406 7.144531 9.839844 7.144531 9.390625 L 7.144531 6.03125 Z M 8.960938 6.605469 C 8.660156 6.605469 8.398438 6.714844 8.183594 6.929688 C 7.976562 7.136719 7.859375 7.417969 7.859375 7.714844 L 7.859375 9.238281 L 8.554688 9.238281 L 8.554688 7.714844 C 8.554688 7.597656 8.589844 7.507812 8.671875 7.425781 C 8.746094 7.34375 8.851562 7.300781 8.960938 7.300781 C 9.074219 7.300781 9.160156 7.339844 9.246094 7.425781 C 9.328125 7.507812 9.363281 7.597656 9.363281 7.714844 L 9.363281 9.238281 L 10.058594 9.238281 L 10.058594 7.714844 C 10.058594 7.597656 10.097656 7.507812 10.179688 7.425781 C 10.25 7.34375 10.355469 7.300781 10.464844 7.300781 C 10.578125 7.300781 10.664062 7.339844 10.75 7.425781 C 10.832031 7.507812 10.867188 7.597656 10.867188 7.714844 L 10.875 9.230469 L 11.5625 9.230469 L 11.5625 7.714844 C 11.5625 7.410156 11.453125 7.144531 11.238281 6.929688 C 11.035156 6.71875 10.757812 6.601562 10.464844 6.605469 C 10.171875 6.605469 9.917969 6.714844 9.710938 6.910156 C 9.511719 6.714844 9.242188 6.601562 8.960938 6.605469 Z M 8.960938 6.605469 "/>
</svg>
