<?xml version="1.0" encoding="UTF-8"?>
<svg xmlns="http://www.w3.org/2000/svg" xmlns:xlink="http://www.w3.org/1999/xlink" width="64" height="64" viewBox="0 0 64 64">
<path fill-rule="nonzero" fill="rgb(26.27451%, 50.196078%, 70.588235%)" fill-opacity="1" d="M 8.378906 1.324219 C 10.953125 1.292969 13.34375 2.648438 14.640625 4.871094 C 15.933594 7.09375 15.933594 9.839844 14.640625 12.0625 C 13.34375 14.285156 10.953125 15.640625 8.378906 15.609375 C 4.46875 15.5625 1.324219 12.378906 1.324219 8.464844 C 1.324219 4.554688 4.46875 1.371094 8.378906 1.324219 Z M 8.378906 1.324219 "/>
<path fill-rule="nonzero" fill="rgb(100%, 100%, 100%)" fill-opacity="1" d="M 9.597656 4.234375 C 8.171875 4.234375 6.929688 5.207031 6.585938 6.589844 C 5.203125 6.933594 4.234375 8.171875 4.234375 9.597656 L 4.234375 12.699219 L 7.339844 12.699219 C 8.761719 12.699219 10.003906 11.726562 10.347656 10.347656 C 11.730469 10 12.699219 8.761719 12.699219 7.339844 L 12.699219 4.234375 Z M 9.597656 4.675781 L 12.257812 4.675781 L 12.257812 7.335938 C 12.253906 8.484375 11.519531 9.5 10.429688 9.859375 C 10.4375 9.773438 10.441406 9.683594 10.441406 9.597656 C 10.441406 7.882812 9.054688 6.488281 7.339844 6.488281 C 7.25 6.492188 7.160156 6.496094 7.070312 6.503906 C 7.429688 5.414062 8.449219 4.675781 9.597656 4.675781 Z M 7.339844 6.933594 C 8.808594 6.9375 9.996094 8.125 9.996094 9.59375 C 9.996094 9.71875 9.988281 9.84375 9.96875 9.96875 C 9.84375 9.988281 9.71875 9.996094 9.597656 10 C 8.125 10 6.933594 8.808594 6.933594 7.339844 C 6.9375 7.210938 6.945312 7.085938 6.964844 6.964844 C 7.089844 6.945312 7.214844 6.933594 7.339844 6.933594 Z M 6.503906 7.070312 C 6.496094 7.160156 6.492188 7.25 6.492188 7.339844 C 6.492188 9.050781 7.882812 10.441406 9.597656 10.441406 C 9.683594 10.441406 9.773438 10.4375 9.863281 10.429688 C 9.503906 11.519531 8.484375 12.253906 7.339844 12.257812 L 4.679688 12.257812 L 4.679688 9.597656 C 4.679688 8.449219 5.414062 7.433594 6.503906 7.070312 Z M 6.503906 7.070312 "/>
</svg>
