<?xml version="1.0" encoding="UTF-8"?>
<svg xmlns="http://www.w3.org/2000/svg" xmlns:xlink="http://www.w3.org/1999/xlink" width="64" height="64" viewBox="0 0 64 64">
<path fill-rule="nonzero" fill="rgb(94.901961%, 94.901961%, 94.901961%)" fill-opacity="1" d="M 8.382812 1.324219 C 10.953125 1.292969 13.34375 2.648438 14.640625 4.871094 C 15.933594 7.09375 15.933594 9.839844 14.640625 12.0625 C 13.34375 14.285156 10.953125 15.640625 8.382812 15.609375 C 4.46875 15.5625 1.324219 12.378906 1.324219 8.464844 C 1.324219 4.554688 4.46875 1.371094 8.382812 1.324219 Z M 8.382812 1.324219 "/>
<path fill-rule="nonzero" fill="rgb(9.411765%, 9.411765%, 9.411765%)" fill-opacity="1" d="M 11.886719 10.058594 C 11.757812 10.5625 10.742188 11.523438 10.386719 11.988281 C 10.035156 12.453125 10.425781 12.964844 9.769531 12.800781 C 9.117188 12.636719 8.933594 12.667969 8.257812 12.703125 C 7.589844 12.742188 7.734375 12.6875 7.3125 12.863281 C 6.898438 13.035156 5.492188 10.726562 5.378906 10.292969 C 5.269531 9.863281 5.214844 9.914062 5.507812 9.449219 C 5.792969 8.984375 5.839844 8.523438 6.222656 7.960938 C 6.605469 7.394531 7.050781 7.105469 7.015625 6.675781 C 6.890625 5.070312 6.792969 4.269531 7.558594 3.898438 C 8.285156 3.546875 8.894531 3.757812 9.132812 3.875 C 9.238281 3.929688 9.449219 4.03125 9.605469 4.207031 C 9.761719 4.378906 9.90625 4.640625 9.984375 4.96875 C 10.148438 5.632812 9.917969 5.414062 10.101562 6.171875 C 10.285156 6.929688 10.65625 7.300781 11.109375 7.898438 C 11.566406 8.496094 12.039062 9.484375 11.886719 10.058594 "/>
<path fill-rule="nonzero" fill="rgb(97.647059%, 97.647059%, 97.647059%)" fill-opacity="1" d="M 7.648438 6.128906 C 7.730469 6.117188 7.769531 6.039062 7.800781 5.96875 C 7.855469 5.84375 7.9375 5.730469 7.941406 5.585938 C 7.949219 5.453125 7.902344 5.328125 7.820312 5.222656 C 7.75 5.132812 7.652344 5.074219 7.542969 5.070312 C 7.414062 5.066406 7.328125 5.167969 7.289062 5.273438 C 7.222656 5.449219 7.238281 5.644531 7.285156 5.820312 C 7.324219 5.957031 7.402344 6.101562 7.546875 6.136719 C 7.582031 6.144531 7.617188 6.140625 7.648438 6.128906 "/>
<path fill-rule="nonzero" fill="rgb(9.411765%, 9.411765%, 9.411765%)" fill-opacity="1" d="M 7.539062 5.375 C 7.597656 5.375 7.671875 5.410156 7.707031 5.460938 C 7.746094 5.507812 7.773438 5.582031 7.773438 5.660156 C 7.773438 5.777344 7.761719 5.910156 7.683594 5.949219 C 7.660156 5.960938 7.609375 5.976562 7.578125 5.976562 C 7.511719 5.976562 7.507812 5.933594 7.441406 5.871094 C 7.421875 5.851562 7.355469 5.742188 7.355469 5.652344 C 7.355469 5.597656 7.34375 5.519531 7.394531 5.449219 C 7.429688 5.394531 7.476562 5.371094 7.539062 5.371094 "/>
<path fill-rule="nonzero" fill="rgb(97.647059%, 97.647059%, 97.647059%)" fill-opacity="1" d="M 8.871094 6.144531 C 9.011719 6.132812 9.167969 6.097656 9.253906 5.980469 C 9.394531 5.78125 9.386719 5.5 9.269531 5.289062 C 9.207031 5.179688 9.136719 5.0625 9.011719 5.019531 C 8.851562 4.96875 8.65625 4.984375 8.53125 5.105469 C 8.414062 5.214844 8.34375 5.375 8.351562 5.535156 C 8.355469 5.636719 8.375 5.738281 8.441406 5.816406 C 8.515625 5.90625 8.578125 6.011719 8.683594 6.070312 C 8.742188 6.105469 8.804688 6.132812 8.871094 6.148438 "/>
<path fill-rule="nonzero" fill="rgb(9.411765%, 9.411765%, 9.411765%)" fill-opacity="1" d="M 8.847656 5.363281 C 8.996094 5.363281 9.082031 5.488281 9.113281 5.648438 C 9.125 5.722656 9.109375 5.804688 9.0625 5.863281 C 9.007812 5.929688 8.914062 5.96875 8.835938 5.96875 C 8.761719 5.96875 8.679688 5.980469 8.636719 5.925781 C 8.59375 5.867188 8.582031 5.742188 8.582031 5.648438 C 8.582031 5.546875 8.617188 5.472656 8.667969 5.417969 C 8.710938 5.375 8.785156 5.367188 8.847656 5.367188 "/>
<path fill-rule="nonzero" fill="rgb(40.392157%, 40.392157%, 40.392157%)" fill-opacity="1" d="M 8.917969 5.453125 C 8.902344 5.445312 8.890625 5.445312 8.882812 5.453125 L 8.878906 5.453125 C 8.847656 5.480469 8.878906 5.496094 8.914062 5.53125 C 8.933594 5.550781 8.949219 5.613281 8.976562 5.585938 C 9.007812 5.566406 9.007812 5.53125 8.96875 5.492188 C 8.949219 5.472656 8.933594 5.457031 8.917969 5.453125 Z M 7.605469 5.492188 C 7.582031 5.484375 7.5625 5.488281 7.554688 5.5 C 7.535156 5.527344 7.558594 5.550781 7.597656 5.605469 C 7.636719 5.660156 7.621094 5.722656 7.667969 5.707031 C 7.6875 5.703125 7.6875 5.589844 7.664062 5.539062 C 7.652344 5.511719 7.628906 5.496094 7.605469 5.492188 Z M 8.191406 5.542969 C 8.171875 5.539062 8.15625 5.539062 8.136719 5.546875 C 8.070312 5.5625 8.082031 5.589844 8.152344 5.601562 C 8.195312 5.609375 8.183594 5.605469 8.238281 5.617188 C 8.296875 5.632812 8.320312 5.597656 8.265625 5.566406 C 8.238281 5.550781 8.214844 5.542969 8.191406 5.542969 Z M 8.191406 5.542969 "/>
<path fill-rule="nonzero" fill="rgb(97.647059%, 97.647059%, 97.647059%)" fill-opacity="1" d="M 7.964844 7.007812 C 7.707031 7.015625 7.371094 6.320312 7.359375 6.601562 L 7.359375 7.085938 C 7.359375 7.238281 7.222656 7.25 7.0625 7.484375 C 6.898438 7.738281 6.824219 7.988281 6.738281 8.242188 C 6.660156 8.519531 6.371094 8.867188 6.304688 9.148438 C 6.234375 9.425781 6.117188 9.542969 6.117188 9.917969 C 6.117188 10.074219 6.179688 10.242188 6.300781 10.335938 C 6.417969 10.425781 6.539062 10.515625 6.726562 10.667969 C 6.925781 10.832031 7.335938 11.113281 7.390625 11.199219 C 7.449219 11.289062 7.449219 11.488281 7.414062 11.554688 C 7.378906 11.617188 6.988281 11.652344 6.988281 11.652344 C 6.988281 11.652344 7.339844 12.046875 7.394531 12.097656 C 7.445312 12.144531 7.667969 12.378906 8.566406 12.222656 C 9.074219 12.128906 9.46875 11.824219 9.75 11.566406 C 10.117188 11.230469 9.933594 11.132812 9.980469 10.964844 C 10.050781 10.722656 10.273438 10.628906 10.324219 10.355469 C 10.332031 10.316406 10.34375 10.289062 10.382812 10.226562 C 10.441406 10.148438 10.425781 9.984375 10.425781 9.835938 C 10.425781 9.449219 10.378906 9.058594 10.285156 8.769531 C 10.195312 8.5 10.058594 8.308594 9.941406 8.066406 C 9.703125 7.578125 9.714844 7.359375 9.503906 7.046875 C 9.265625 6.6875 9.382812 6.449219 9.0625 6.464844 C 8.664062 6.484375 8.34375 6.996094 7.964844 7.011719 "/>
<path fill-rule="nonzero" fill="rgb(100%, 81.176471%, 20%)" fill-opacity="1" d="M 8.101562 5.734375 C 8.246094 5.71875 8.445312 5.753906 8.535156 5.816406 C 8.617188 5.875 8.679688 5.90625 8.757812 5.929688 C 9.015625 6.007812 9.355469 6.046875 9.339844 6.265625 C 9.320312 6.527344 9.242188 6.644531 9.007812 6.714844 C 8.824219 6.765625 8.492188 7.027344 8.234375 7.027344 C 8.121094 7.027344 7.960938 7.035156 7.867188 7 C 7.777344 6.972656 7.65625 6.871094 7.507812 6.757812 C 7.363281 6.644531 7.226562 6.523438 7.222656 6.371094 C 7.214844 6.207031 7.332031 6.152344 7.492188 6.019531 C 7.578125 5.949219 7.734375 5.832031 7.835938 5.78125 C 7.9375 5.734375 8 5.742188 8.101562 5.730469 "/>
<path fill-rule="nonzero" fill="rgb(60%, 34.901961%, 0%)" fill-opacity="1" d="M 7.769531 5.929688 C 7.761719 5.949219 7.824219 5.988281 7.855469 5.960938 C 7.890625 5.933594 7.929688 5.910156 7.941406 5.902344 C 8 5.863281 7.980469 5.835938 7.878906 5.851562 C 7.78125 5.867188 7.78125 5.90625 7.769531 5.929688 "/>
<path fill-rule="nonzero" fill="rgb(100%, 81.176471%, 20%)" fill-opacity="1" d="M 11.882812 10.480469 C 12.003906 10.644531 11.878906 10.863281 11.96875 10.996094 C 12.113281 11.214844 12.429688 11.425781 12.542969 11.488281 C 12.621094 11.535156 12.738281 11.578125 12.734375 11.710938 C 12.726562 11.867188 12.644531 11.90625 12.601562 11.949219 C 12.507812 12.035156 12.050781 12.25 11.746094 12.441406 C 11.367188 12.6875 11.234375 12.796875 11.109375 12.914062 C 10.914062 13.097656 10.730469 13.230469 10.4375 13.230469 C 10.144531 13.230469 10.011719 13.101562 9.921875 13.023438 C 9.832031 12.949219 9.730469 12.761719 9.738281 12.480469 C 9.746094 12.199219 9.84375 11.945312 9.886719 11.507812 C 9.90625 11.320312 9.90625 11.089844 9.90625 10.882812 C 9.90625 10.625 9.910156 10.445312 9.96875 10.410156 C 10.074219 10.347656 10.097656 10.34375 10.226562 10.34375 C 10.351562 10.34375 10.40625 10.351562 10.449219 10.390625 C 10.488281 10.425781 10.472656 10.472656 10.460938 10.59375 C 10.449219 10.714844 10.511719 10.753906 10.570312 10.804688 C 10.632812 10.851562 10.6875 10.914062 10.878906 10.925781 C 11.160156 10.945312 11.324219 10.828125 11.523438 10.65625 C 11.574219 10.609375 11.679688 10.417969 11.703125 10.417969 C 11.71875 10.417969 11.808594 10.382812 11.882812 10.480469 "/>
<path fill-rule="nonzero" fill="rgb(100%, 81.176471%, 20%)" fill-opacity="1" d="M 5.015625 10.753906 C 4.839844 10.871094 4.390625 10.863281 4.273438 11.003906 C 4.164062 11.144531 4.277344 11.347656 4.277344 11.726562 C 4.277344 11.886719 4.246094 12.007812 4.226562 12.109375 C 4.199219 12.234375 4.179688 12.320312 4.238281 12.410156 C 4.339844 12.566406 4.5 12.605469 5.425781 12.789062 C 5.921875 12.882812 6.390625 13.132812 6.703125 13.160156 C 7.015625 13.179688 7.085938 13.082031 7.273438 12.921875 C 7.464844 12.761719 7.527344 12.8125 7.519531 12.460938 C 7.511719 12.113281 7.273438 12.007812 7.003906 11.605469 C 6.734375 11.203125 6.691406 11.128906 6.511719 10.863281 C 6.332031 10.597656 5.976562 10.121094 5.773438 10.117188 C 5.613281 10.113281 5.523438 10.191406 5.421875 10.289062 C 5.316406 10.386719 5.195312 10.632812 5.015625 10.753906 "/>
<path fill-rule="nonzero" fill="rgb(40.392157%, 40.392157%, 40.392157%)" fill-opacity="1" d="M 10.300781 8.117188 C 10.265625 8.117188 10.253906 8.128906 10.261719 8.15625 C 10.269531 8.171875 10.585938 8.265625 10.78125 8.582031 C 11.046875 9.023438 11.050781 9.25 10.949219 9.734375 C 10.914062 9.898438 10.839844 10 10.847656 10.046875 C 10.832031 10.046875 10.824219 10.046875 10.800781 10.050781 C 10.683594 10.066406 10.601562 10.125 10.554688 10.175781 C 10.511719 10.226562 10.460938 10.296875 10.480469 10.320312 C 10.523438 10.359375 10.558594 10.261719 10.601562 10.226562 C 10.640625 10.199219 10.710938 10.128906 10.84375 10.128906 C 10.976562 10.128906 10.96875 10.125 10.960938 10.078125 C 10.960938 10.050781 10.9375 10.042969 10.902344 10.042969 C 10.972656 9.96875 11.074219 9.652344 11.101562 9.515625 C 11.132812 9.355469 11.136719 8.984375 11.003906 8.726562 C 10.851562 8.425781 10.574219 8.257812 10.300781 8.117188 Z M 11.140625 10.046875 C 11.003906 10.042969 11.015625 10.074219 11.015625 10.074219 C 11.015625 10.132812 11.144531 10.152344 11.269531 10.171875 C 11.386719 10.1875 11.484375 10.210938 11.492188 10.328125 C 11.496094 10.445312 11.464844 10.527344 11.519531 10.519531 C 11.636719 10.5 11.679688 10.378906 11.679688 10.320312 C 11.679688 10.265625 11.59375 10.167969 11.4375 10.113281 C 11.324219 10.070312 11.238281 10.050781 11.140625 10.046875 Z M 11.140625 10.046875 "/>
<path fill-rule="nonzero" fill="rgb(60%, 34.901961%, 0%)" fill-opacity="1" d="M 7.355469 6.519531 C 7.410156 6.554688 7.414062 6.558594 7.492188 6.609375 C 7.621094 6.707031 7.84375 6.730469 7.953125 6.734375 C 8.207031 6.769531 8.660156 6.546875 8.839844 6.445312 C 8.929688 6.382812 9.097656 6.25 9.160156 6.25 C 9.199219 6.289062 9.140625 6.292969 9.058594 6.347656 C 8.953125 6.417969 8.863281 6.480469 8.699219 6.566406 C 8.527344 6.652344 8.257812 6.792969 7.917969 6.773438 C 7.738281 6.75 7.738281 6.746094 7.628906 6.695312 C 7.5625 6.652344 7.410156 6.574219 7.355469 6.519531 "/>
<path fill-rule="nonzero" fill="rgb(60%, 34.901961%, 0%)" fill-opacity="1" d="M 8.476562 5.9375 C 8.484375 5.960938 8.421875 6 8.390625 5.972656 C 8.355469 5.945312 8.316406 5.917969 8.300781 5.914062 C 8.242188 5.875 8.265625 5.847656 8.363281 5.863281 C 8.464844 5.878906 8.464844 5.917969 8.476562 5.9375 "/>
</svg>
