<?xml version="1.0" encoding="UTF-8"?>
<svg xmlns="http://www.w3.org/2000/svg" xmlns:xlink="http://www.w3.org/1999/xlink" width="64" height="64" viewBox="0 0 64 64">
<path fill-rule="nonzero" fill="rgb(71.372549%, 1.960784%, 48.627451%)" fill-opacity="1" d="M 15.609375 8.46875 C 15.609375 12.414062 12.414062 15.613281 8.464844 15.613281 C 4.519531 15.613281 1.324219 12.414062 1.324219 8.46875 C 1.324219 4.523438 4.519531 1.328125 8.464844 1.328125 C 12.414062 1.328125 15.609375 4.523438 15.609375 8.46875 Z M 15.609375 8.46875 "/>
<path fill-rule="evenodd" fill="rgb(100%, 100%, 100%)" fill-opacity="1" d="M 7.59375 4.234375 C 5.773438 4.320312 4.351562 5.96875 4.425781 6.863281 C 4.492188 7.738281 6.703125 8.503906 6.679688 8.527344 C 6.226562 8.910156 5.929688 9.167969 5.550781 9.515625 C 4.644531 10.34375 4.015625 10.960938 4.335938 11.824219 C 4.699219 12.820312 5.503906 12.777344 6.445312 12.59375 C 8.878906 12.113281 12.878906 9.035156 12.675781 7.902344 C 12.511719 6.984375 10.273438 5.167969 8.953125 4.519531 C 8.53125 4.3125 8.0625 4.210938 7.59375 4.234375 Z M 7.96875 5.808594 C 8.195312 5.785156 8.460938 5.84375 8.753906 5.988281 C 9.398438 6.300781 10.066406 7.128906 8.753906 7.597656 C 8.398438 7.726562 7.253906 7.289062 7.289062 6.683594 C 7.320312 6.128906 7.589844 5.84375 7.96875 5.808594 Z M 7.96875 5.808594 "/>
</svg>
