<?xml version="1.0" encoding="UTF-8"?>
<svg xmlns="http://www.w3.org/2000/svg" xmlns:xlink="http://www.w3.org/1999/xlink" width="64" height="64" viewBox="0 0 64 64">
<defs>
<linearGradient id="linear-pattern-0" gradientUnits="userSpaceOnUse" x1="1" y1="0" x2="47" y2="0" gradientTransform="matrix(0, -0.310596, 0.310566, 0, 1.012377, 15.921299)">
<stop offset="0" stop-color="rgb(19.215686%, 68.627451%, 32.941176%)" stop-opacity="1"/>
<stop offset="1" stop-color="rgb(20.784314%, 74.901961%, 36.078431%)" stop-opacity="1"/>
</linearGradient>
</defs>
<path fill-rule="nonzero" fill="url(#linear-pattern-0)" d="M 8.464844 1.324219 C 12.410156 1.324219 15.609375 4.519531 15.609375 8.46875 C 15.609375 12.414062 12.410156 15.609375 8.464844 15.609375 C 4.519531 15.609375 1.324219 12.414062 1.324219 8.46875 C 1.324219 4.519531 4.519531 1.324219 8.464844 1.324219 Z M 8.464844 1.324219 "/>
<path fill-rule="evenodd" fill="rgb(100%, 100%, 100%)" fill-opacity="1" d="M 4.761719 4.234375 L 4.761719 7.671875 L 6.878906 7.671875 L 6.878906 6.613281 L 9.523438 6.613281 L 9.523438 4.234375 L 4.761719 4.238281 M 10.054688 4.234375 L 10.054688 12.699219 L 12.171875 12.699219 L 12.171875 4.234375 M 7.40625 7.144531 L 7.40625 12.699219 L 9.523438 12.699219 L 9.523438 7.144531 M 4.761719 8.203125 L 4.761719 12.699219 L 6.878906 12.699219 L 6.878906 8.203125 "/>
</svg>
