<?xml version="1.0" encoding="UTF-8"?>
<svg xmlns="http://www.w3.org/2000/svg" xmlns:xlink="http://www.w3.org/1999/xlink" width="64" height="64" viewBox="0 0 64 64">
<defs>
<filter id="filter-remove-color" x="0%" y="0%" width="100%" height="100%">
<feColorMatrix color-interpolation-filters="sRGB" values="0 0 0 0 1 0 0 0 0 1 0 0 0 0 1 0 0 0 1 0" />
</filter>
<mask id="mask-0">
<g filter="url(#filter-remove-color)">
<rect x="-6.4" y="-6.4" width="76.8" height="76.8" fill="rgb(0%, 0%, 0%)" fill-opacity="0.15"/>
</g>
</mask>
<linearGradient id="linear-pattern-0" gradientUnits="userSpaceOnUse" x1="32" y1="13" x2="32" y2="9" gradientTransform="matrix(0.26458, 0, 0, 0.26458, 0, 0)">
<stop offset="0" stop-color="rgb(0%, 0%, 0%)" stop-opacity="1"/>
<stop offset="1" stop-color="rgb(0%, 0%, 0%)" stop-opacity="0"/>
</linearGradient>
<clipPath id="clip-0">
<rect x="0" y="0" width="17" height="17"/>
</clipPath>
<g id="source-1964" clip-path="url(#clip-0)">
<path fill-rule="nonzero" fill="url(#linear-pattern-0)" d="M 8.464844 1.851562 C 7.042969 1.855469 5.660156 2.320312 4.523438 3.175781 L 12.417969 3.175781 C 11.277344 2.320312 9.890625 1.855469 8.464844 1.851562 Z M 8.464844 1.851562 "/>
</g>
<mask id="mask-1">
<g filter="url(#filter-remove-color)">
<rect x="-6.4" y="-6.4" width="76.8" height="76.8" fill="rgb(0%, 0%, 0%)" fill-opacity="0.25"/>
</g>
</mask>
<clipPath id="clip-1">
<rect x="0" y="0" width="17" height="17"/>
</clipPath>
<g id="source-1969" clip-path="url(#clip-1)">
<path fill-rule="nonzero" fill="rgb(0%, 0%, 0%)" fill-opacity="1" d="M 9.523438 4.761719 L 12.964844 4.761719 C 13.109375 4.761719 13.230469 4.878906 13.230469 5.027344 C 13.230469 5.171875 13.109375 5.289062 12.964844 5.289062 L 9.523438 5.289062 C 9.378906 5.289062 9.261719 5.171875 9.261719 5.027344 C 9.261719 4.878906 9.378906 4.761719 9.523438 4.761719 Z M 9.523438 4.761719 "/>
</g>
<mask id="mask-2">
<g filter="url(#filter-remove-color)">
<rect x="-6.4" y="-6.4" width="76.8" height="76.8" fill="rgb(0%, 0%, 0%)" fill-opacity="0.15"/>
</g>
</mask>
<linearGradient id="linear-pattern-1" gradientUnits="userSpaceOnUse" x1="30" y1="44" x2="57" y2="44" gradientTransform="matrix(0.26458, 0, 0, 0.26458, 0, 0)">
<stop offset="0" stop-color="rgb(0%, 0%, 0%)" stop-opacity="1"/>
<stop offset="1" stop-color="rgb(0%, 0%, 0%)" stop-opacity="0"/>
</linearGradient>
<clipPath id="clip-2">
<rect x="0" y="0" width="17" height="17"/>
</clipPath>
<g id="source-1973" clip-path="url(#clip-2)">
<path fill-rule="nonzero" fill="url(#linear-pattern-1)" d="M 15.609375 8.464844 L 8.464844 15.609375 C 12.410156 15.609375 15.609375 12.410156 15.609375 8.464844 Z M 15.609375 8.464844 "/>
</g>
</defs>
<path fill-rule="nonzero" fill="rgb(20.784314%, 47.058824%, 78.039216%)" fill-opacity="1" d="M 15.082031 8.464844 C 15.082031 12.121094 12.121094 15.082031 8.464844 15.082031 C 4.8125 15.082031 1.851562 12.121094 1.851562 8.464844 C 1.851562 4.8125 4.8125 1.851562 8.464844 1.851562 C 12.121094 1.851562 15.082031 4.8125 15.082031 8.464844 Z M 15.082031 8.464844 "/>
<path fill-rule="nonzero" fill="rgb(100%, 100%, 100%)" fill-opacity="1" d="M 5.132812 3.703125 C 3.578125 4.792969 2.648438 6.570312 2.644531 8.464844 C 2.644531 11.679688 5.25 14.289062 8.464844 14.289062 C 11.679688 14.289062 14.289062 11.679688 14.289062 8.464844 C 14.285156 6.570312 13.359375 4.792969 11.808594 3.703125 Z M 5.132812 3.703125 "/>
<g mask="url(#mask-0)">
<use xlink:href="#source-1964"/>
</g>
<path fill-rule="nonzero" fill="rgb(32.156863%, 58.039216%, 88.627451%)" fill-opacity="1" d="M 8.464844 4.234375 C 8.175781 4.234375 8.085938 4.507812 7.9375 4.761719 L 7.628906 5.289062 L 2.078125 5.292969 C 1.582031 6.277344 1.324219 7.363281 1.324219 8.464844 C 1.324219 12.410156 4.519531 15.609375 8.464844 15.609375 C 12.410156 15.609375 15.609375 12.410156 15.609375 8.464844 C 15.605469 6.941406 15.117188 5.457031 14.210938 4.234375 Z M 8.464844 4.234375 "/>
<g mask="url(#mask-1)">
<use xlink:href="#source-1969"/>
</g>
<g mask="url(#mask-2)">
<use xlink:href="#source-1973"/>
</g>
<path fill-rule="nonzero" fill="rgb(100%, 100%, 100%)" fill-opacity="1" d="M 8.46875 7.40625 C 7.003906 7.40625 5.820312 8.59375 5.820312 10.054688 C 5.820312 11.515625 7.003906 12.699219 8.46875 12.699219 C 9.929688 12.699219 11.113281 11.515625 11.113281 10.054688 C 11.113281 8.59375 9.929688 7.410156 8.46875 7.40625 Z M 8.46875 7.671875 C 9.78125 7.671875 10.847656 8.738281 10.847656 10.054688 C 10.847656 11.367188 9.78125 12.433594 8.46875 12.433594 C 7.152344 12.4375 6.085938 11.371094 6.085938 10.054688 C 6.085938 8.738281 7.152344 7.671875 8.46875 7.671875 Z M 8.46875 7.671875 "/>
<path fill-rule="nonzero" fill="rgb(100%, 100%, 100%)" fill-opacity="1" d="M 8.464844 8.464844 C 8.613281 8.464844 8.730469 8.585938 8.730469 8.730469 L 8.730469 9.789062 C 8.730469 9.933594 8.613281 10.054688 8.464844 10.054688 C 8.320312 10.054688 8.203125 9.933594 8.203125 9.789062 L 8.203125 8.730469 C 8.203125 8.585938 8.320312 8.464844 8.464844 8.464844 Z M 8.464844 8.464844 "/>
<path fill-rule="nonzero" fill="rgb(100%, 100%, 100%)" fill-opacity="1" d="M 9.816406 11.402344 C 9.761719 11.453125 9.679688 11.453125 9.628906 11.402344 L 8.503906 10.28125 C 8.453125 10.226562 8.453125 10.144531 8.503906 10.09375 L 8.507812 10.09375 C 8.558594 10.039062 8.640625 10.039062 8.691406 10.09375 L 9.816406 11.214844 C 9.867188 11.265625 9.867188 11.351562 9.816406 11.402344 Z M 9.816406 11.402344 "/>
<path fill-rule="nonzero" fill="rgb(100%, 100%, 100%)" fill-opacity="1" d="M 8.996094 10.054688 C 8.996094 10.347656 8.757812 10.582031 8.46875 10.582031 C 8.175781 10.582031 7.9375 10.347656 7.9375 10.054688 C 7.9375 9.761719 8.175781 9.523438 8.46875 9.523438 C 8.757812 9.523438 8.996094 9.761719 8.996094 10.054688 Z M 8.996094 10.054688 "/>
</svg>
