<?xml version="1.0" encoding="UTF-8"?>
<svg xmlns="http://www.w3.org/2000/svg" xmlns:xlink="http://www.w3.org/1999/xlink" width="64" height="64" viewBox="0 0 64 64">
<path fill-rule="nonzero" fill="rgb(0.392157%, 67.843137%, 90.588235%)" fill-opacity="1" d="M 32 5 C 46.910156 5 59 17.085938 59 32 C 59 46.910156 46.910156 59 32 59 C 17.085938 59 5 46.910156 5 32 C 5 17.085938 17.085938 5 32 5 Z M 32 5 "/>
<path fill-rule="nonzero" fill="rgb(100%, 100%, 100%)" fill-opacity="1" d="M 27.753906 20.261719 C 27.84375 20.257812 27.910156 20.289062 27.960938 20.367188 C 28.210938 20.8125 27.707031 22.261719 28.089844 23.011719 C 28.46875 23.769531 28.46875 23.957031 31.5 23.582031 C 34.53125 23.199219 39.078125 24.519531 40.726562 26.15625 C 42.367188 27.792969 45.210938 31.953125 45.777344 34.34375 C 46.347656 36.738281 46.097656 36.859375 45.339844 36.484375 C 44.582031 36.109375 43.949219 32.773438 39.457031 30.566406 C 34.96875 28.363281 32.882812 30.121094 32.882812 30.121094 C 32.882812 30.121094 36.738281 29.617188 39.582031 31.949219 C 42.429688 34.277344 44.195312 36.101562 44.132812 36.796875 C 44.070312 37.488281 43.8125 37.363281 43.375 36.796875 C 42.929688 36.230469 40.277344 32.765625 37.117188 31.636719 C 33.964844 30.503906 32.636719 30.566406 31.4375 31.195312 C 30.238281 31.824219 29.980469 32.453125 31.683594 32.898438 C 33.390625 33.335938 34.089844 33.148438 34.089844 33.148438 C 34.089844 33.148438 32.636719 34.464844 30.554688 34.464844 C 28.46875 34.464844 27.207031 34.339844 27.207031 34.339844 C 27.207031 34.339844 22.023438 39.695312 20.695312 40.765625 C 19.371094 41.835938 17.917969 41.335938 17.917969 40.703125 C 17.917969 40.074219 18.550781 38.3125 18.550781 38.3125 C 18.550781 38.3125 17.230469 35.351562 18.742188 32.011719 C 20.257812 28.679688 24.429688 25.21875 24.429688 25.21875 C 24.429688 25.21875 24.867188 23.328125 25.8125 22.070312 C 26.582031 21.046875 27.359375 20.277344 27.753906 20.257812 "/>
</svg>
