<?xml version="1.0" encoding="UTF-8"?>
<svg xmlns="http://www.w3.org/2000/svg" xmlns:xlink="http://www.w3.org/1999/xlink" width="64" height="64" viewBox="0 0 64 64">
<path fill-rule="nonzero" fill="rgb(41.176471%, 40.784314%, 34.901961%)" fill-opacity="1" d="M 32 5 C 46.910156 5 59 17.085938 59 32 C 59 46.910156 46.910156 59 32 59 C 17.085938 59 5 46.910156 5 32 C 5 17.085938 17.085938 5 32 5 Z M 32 5 "/>
<path fill-rule="nonzero" fill="rgb(86.27451%, 69.803922%, 0%)" fill-opacity="1" d="M 21.539062 17.914062 C 22.441406 17.953125 23.335938 18.367188 23.960938 19.015625 L 31.996094 27.046875 L 40.140625 19.015625 C 41.082031 18.203125 41.714844 17.949219 42.5625 17.914062 M 17.910156 21.433594 L 17.910156 42.566406 C 17.910156 41.628906 18.234375 40.695312 18.910156 40.035156 L 26.945312 32.109375 L 18.910156 24.074219 C 18.171875 23.40625 17.84375 22.421875 17.910156 21.433594 M 46.085938 21.433594 C 46.085938 22.441406 45.964844 23.375 45.203125 24.074219 L 37.167969 32.109375 L 45.09375 40.035156 C 45.757812 40.703125 46.085938 41.617188 46.085938 42.566406 M 31.996094 37.0625 L 23.964844 45.097656 C 23.300781 45.765625 22.363281 46.085938 21.433594 46.085938 L 42.5625 46.085938 C 41.625 46.085938 40.691406 45.761719 40.039062 45.097656 "/>
</svg>
