<?xml version="1.0" encoding="UTF-8"?>
<svg xmlns="http://www.w3.org/2000/svg" xmlns:xlink="http://www.w3.org/1999/xlink" width="64" height="64" viewBox="0 0 64 64">
<path fill-rule="nonzero" fill="rgb(25.490196%, 25.490196%, 25.490196%)" fill-opacity="1" d="M 32 5 C 46.910156 5 59 17.089844 59 32 C 59 46.910156 46.910156 59 32 59 C 17.089844 59 5 46.910156 5 32 C 5 17.089844 17.089844 5 32 5 Z M 32 5 "/>
<path fill-rule="nonzero" fill="rgb(100%, 30.196078%, 35.686275%)" fill-opacity="1" d="M 24.679688 20.832031 C 19.375 20.832031 15.0625 25.050781 15.0625 30.226562 C 15.0625 35.207031 19.035156 39.230469 24.058594 39.535156 C 24.058594 33.90625 28.5625 29.3125 34.160156 28.816406 C 33.46875 24.300781 29.492188 20.832031 24.675781 20.832031 M 24.675781 27.273438 C 26.332031 27.273438 27.675781 28.613281 27.675781 30.230469 C 27.675781 31.84375 26.332031 33.140625 24.675781 33.140625 C 23.023438 33.140625 21.675781 31.84375 21.675781 30.230469 C 21.675781 28.613281 23.023438 27.273438 24.675781 27.273438 M 24.675781 27.890625 C 23.347656 27.890625 22.25 28.933594 22.25 30.230469 C 22.25 31.53125 23.347656 32.566406 24.675781 32.566406 C 26.003906 32.566406 27.058594 31.53125 27.058594 30.230469 C 27.058594 28.933594 26.007812 27.890625 24.675781 27.890625 M 24.675781 28.773438 C 25.503906 28.773438 26.175781 29.417969 26.175781 30.230469 C 26.175781 31.039062 25.511719 31.683594 24.675781 31.683594 C 23.851562 31.683594 23.175781 31.039062 23.175781 30.230469 C 23.175781 29.417969 23.851562 28.773438 24.675781 28.773438 "/>
<path fill-rule="nonzero" fill="rgb(29.803922%, 63.921569%, 89.803922%)" fill-opacity="1" d="M 35.132812 30.179688 C 29.828125 30.179688 25.527344 34.375 25.527344 39.558594 C 25.527344 44.742188 29.828125 48.9375 35.132812 48.9375 C 40.445312 48.9375 44.746094 44.742188 44.746094 39.558594 C 44.746094 34.375 40.445312 30.179688 35.132812 30.179688 M 35.132812 36.628906 C 36.792969 36.628906 38.140625 37.941406 38.140625 39.558594 C 38.140625 41.171875 36.792969 42.488281 35.132812 42.488281 C 33.480469 42.488281 32.132812 41.171875 32.132812 39.558594 C 32.132812 37.941406 33.480469 36.628906 35.132812 36.628906 M 35.132812 37.214844 C 33.804688 37.214844 32.734375 38.253906 32.734375 39.558594 C 32.734375 40.859375 33.804688 41.90625 35.132812 41.90625 C 36.46875 41.90625 37.539062 40.859375 37.539062 39.558594 C 37.539062 38.253906 36.46875 37.214844 35.132812 37.214844 M 35.132812 38.089844 C 35.96875 38.089844 36.640625 38.746094 36.640625 39.558594 C 36.640625 40.367188 35.964844 41.023438 35.132812 41.023438 C 34.308594 41.023438 33.632812 40.367188 33.632812 39.558594 C 33.632812 38.746094 34.308594 38.089844 35.132812 38.089844 "/>
<path fill-rule="evenodd" fill="rgb(94.901961%, 94.901961%, 94.901961%)" fill-opacity="1" d="M 29.144531 15.058594 C 21.003906 15.066406 14.246094 21.339844 13.648438 29.445312 C 14.234375 23.679688 19.097656 19.292969 24.902344 19.292969 C 31.148438 19.292969 36.238281 24.347656 36.238281 30.585938 L 36.238281 33.410156 L 30.5625 33.410156 L 40.457031 43.289062 L 50.351562 33.410156 L 44.707031 33.410156 L 44.707031 30.585938 C 44.707031 22.011719 37.734375 15.058594 29.152344 15.058594 "/>
</svg>
