<?xml version="1.0" encoding="UTF-8"?>
<svg xmlns="http://www.w3.org/2000/svg" xmlns:xlink="http://www.w3.org/1999/xlink" width="64" height="64" viewBox="0 0 64 64">
<path fill-rule="nonzero" fill="rgb(43.921569%, 75.294118%, 29.411765%)" fill-opacity="1" d="M 59 32 C 59 46.910156 46.910156 59 32 59 C 17.089844 59 5 46.910156 5 32 C 5 17.089844 17.089844 5 32 5 C 46.910156 5 59 17.089844 59 32 Z M 59 32 "/>
<path fill-rule="nonzero" fill="rgb(97.647059%, 97.647059%, 97.647059%)" fill-opacity="1" d="M 52.398438 32.792969 L 34.386719 14.78125 C 34.269531 14.664062 34.125 14.578125 33.964844 14.527344 L 23.183594 11.207031 C 22.457031 10.980469 21.664062 11.179688 21.125 11.71875 L 11.601562 21.242188 C 11.039062 21.800781 10.851562 22.636719 11.117188 23.382812 L 14.976562 34.210938 C 15.027344 34.351562 15.113281 34.484375 15.21875 34.59375 L 32.910156 52.28125 C 33.710938 53.085938 35.011719 53.085938 35.816406 52.28125 L 52.398438 35.699219 C 53.199219 34.894531 53.199219 33.59375 52.398438 32.792969 Z M 21.621094 24.964844 C 19.921875 24.964844 18.539062 23.585938 18.539062 21.882812 C 18.539062 20.179688 19.921875 18.800781 21.621094 18.800781 C 23.324219 18.800781 24.703125 20.179688 24.703125 21.882812 C 24.703125 23.585938 23.324219 24.964844 21.621094 24.964844 Z M 21.621094 24.964844 "/>
<path fill-rule="nonzero" fill="rgb(64.705882%, 83.921569%, 55.686275%)" fill-opacity="1" d="M 41.933594 46.164062 L 45.796875 42.300781 L 45.445312 38.308594 L 30.722656 42.160156 L 30.128906 37.503906 L 42.210938 34.324219 C 43.789062 33.855469 44.8125 32.332031 44.644531 30.695312 L 44.007812 24.402344 L 37.046875 17.445312 L 24.722656 20.785156 L 24.175781 24.570312 L 20.171875 25.171875 L 22.417969 41.792969 L 29.761719 49.136719 Z M 35.710938 25.414062 L 36.039062 29.171875 C 36.082031 29.65625 35.777344 30.105469 35.3125 30.246094 L 29.523438 31.675781 L 28.9375 26.941406 C 28.878906 26.4375 29.195312 25.96875 29.683594 25.832031 L 34.410156 24.515625 C 35.027344 24.34375 35.652344 24.773438 35.710938 25.414062 Z M 35.710938 25.414062 "/>
<path fill-rule="nonzero" fill="rgb(70.980392%, 70.980392%, 71.372549%)" fill-opacity="1" d="M 21.621094 17.851562 C 19.394531 17.851562 17.59375 19.65625 17.59375 21.882812 C 17.59375 24.105469 19.394531 25.910156 21.621094 25.910156 C 23.847656 25.910156 25.652344 24.105469 25.652344 21.882812 C 25.652344 19.65625 23.847656 17.851562 21.621094 17.851562 Z M 21.621094 24.300781 C 20.285156 24.300781 19.203125 23.21875 19.203125 21.882812 C 19.203125 20.546875 20.285156 19.464844 21.621094 19.464844 C 22.957031 19.464844 24.039062 20.546875 24.039062 21.882812 C 24.039062 23.21875 22.957031 24.300781 21.621094 24.300781 Z M 21.621094 24.300781 "/>
<path fill-rule="nonzero" fill="rgb(86.27451%, 86.666667%, 86.666667%)" fill-opacity="1" d="M 21.621094 18.714844 C 19.871094 18.714844 18.453125 20.132812 18.453125 21.882812 C 18.453125 23.632812 19.871094 25.050781 21.621094 25.050781 C 23.371094 25.050781 24.789062 23.632812 24.789062 21.882812 C 24.789062 20.132812 23.371094 18.714844 21.621094 18.714844 Z M 21.621094 24.242188 C 20.320312 24.242188 19.261719 23.183594 19.261719 21.882812 C 19.261719 20.578125 20.320312 19.523438 21.621094 19.523438 C 22.925781 19.523438 23.980469 20.578125 23.980469 21.882812 C 23.980469 23.183594 22.925781 24.242188 21.621094 24.242188 Z M 21.621094 24.242188 "/>
<path fill-rule="nonzero" fill="rgb(25.098039%, 13.333333%, 5.882353%)" fill-opacity="1" d="M 20.808594 23.027344 C 20.675781 23.023438 20.542969 23.066406 20.441406 23.164062 C 20.089844 23.488281 11.890625 31.207031 11.371094 40.777344 C 11.359375 40.914062 11.085938 44.1875 12.855469 45.988281 C 13.601562 46.746094 14.585938 47.128906 15.78125 47.128906 C 15.917969 47.128906 16.054688 47.125 16.195312 47.113281 C 16.871094 47.054688 20.070312 45.910156 21.011719 40.367188 L 20.09375 39.453125 C 19.292969 45.007812 16.226562 46.085938 16.203125 46.085938 L 16.171875 46.085938 L 16.144531 46.089844 C 15.046875 46.167969 14.214844 45.902344 13.59375 45.269531 C 12.152344 43.808594 12.390625 40.898438 12.394531 40.851562 C 12.894531 31.683594 21.054688 23.996094 21.136719 23.917969 C 21.347656 23.722656 21.359375 23.398438 21.164062 23.191406 C 21.070312 23.085938 20.941406 23.03125 20.808594 23.027344 Z M 20.808594 23.027344 "/>
</svg>
