<?xml version="1.0" encoding="UTF-8"?>
<svg xmlns="http://www.w3.org/2000/svg" xmlns:xlink="http://www.w3.org/1999/xlink" width="64" height="64" viewBox="0 0 64 64">
<defs>
<filter id="filter-remove-color" x="0%" y="0%" width="100%" height="100%">
<feColorMatrix color-interpolation-filters="sRGB" values="0 0 0 0 1 0 0 0 0 1 0 0 0 0 1 0 0 0 1 0" />
</filter>
<mask id="mask-0">
<g filter="url(#filter-remove-color)">
<rect x="-6.4" y="-6.4" width="76.8" height="76.8" fill="rgb(0%, 0%, 0%)" fill-opacity="0.15"/>
</g>
</mask>
<clipPath id="clip-0">
<rect x="0" y="0" width="17" height="17"/>
</clipPath>
<g id="source-2295" clip-path="url(#clip-0)">
<path fill-rule="nonzero" fill="rgb(0%, 0%, 0%)" fill-opacity="1" d="M 8.46875 4.761719 C 6.421875 4.761719 4.761719 6.417969 4.761719 8.464844 C 4.761719 10.507812 6.421875 12.167969 8.46875 12.167969 C 10.511719 12.167969 12.171875 10.507812 12.171875 8.464844 C 12.167969 6.417969 10.511719 4.761719 8.46875 4.761719 Z M 8.46875 6.609375 C 9.492188 6.609375 10.320312 7.441406 10.320312 8.464844 C 10.320312 9.488281 9.492188 10.316406 8.46875 10.316406 C 7.445312 10.316406 6.613281 9.488281 6.613281 8.464844 C 6.613281 7.441406 7.445312 6.609375 8.46875 6.609375 Z M 8.46875 6.609375 "/>
</g>
</defs>
<path fill-rule="nonzero" fill="rgb(43.921569%, 56.862745%, 89.019608%)" fill-opacity="1" d="M 15.609375 8.460938 C 15.609375 12.40625 12.410156 15.605469 8.464844 15.605469 C 4.519531 15.605469 1.324219 12.40625 1.324219 8.460938 C 1.324219 4.515625 4.519531 1.316406 8.464844 1.316406 C 12.410156 1.316406 15.609375 4.515625 15.609375 8.460938 Z M 15.609375 8.460938 "/>
<g mask="url(#mask-0)">
<use xlink:href="#source-2295"/>
</g>
<path fill-rule="nonzero" fill="rgb(100%, 100%, 100%)" fill-opacity="1" d="M 8.464844 4.011719 C 7.707031 4.011719 7.035156 4.425781 6.59375 5.035156 C 6.195312 5.585938 6.003906 6.3125 6.027344 7.085938 C 5.328125 7.449219 4.777344 7.972656 4.484375 8.589844 C 4.160156 9.265625 4.128906 10.046875 4.511719 10.695312 C 4.898438 11.339844 5.601562 11.695312 6.359375 11.761719 C 7.046875 11.824219 7.792969 11.621094 8.464844 11.214844 C 9.140625 11.621094 9.882812 11.824219 10.574219 11.761719 C 11.332031 11.695312 12.035156 11.339844 12.421875 10.695312 C 12.804688 10.046875 12.769531 9.265625 12.449219 8.589844 C 12.152344 7.972656 11.601562 7.449219 10.90625 7.082031 C 10.925781 6.335938 10.734375 5.617188 10.335938 5.058594 C 9.898438 4.445312 9.234375 4.011719 8.464844 4.011719 Z M 8.464844 4.71875 C 8.96875 4.71875 9.425781 5 9.761719 5.46875 C 10.015625 5.824219 10.144531 6.296875 10.183594 6.785156 C 9.066406 6.414062 7.867188 6.414062 6.746094 6.785156 C 6.785156 6.277344 6.910156 5.800781 7.167969 5.449219 C 7.5 4.988281 7.957031 4.71875 8.464844 4.71875 Z M 8.464844 7.183594 C 9.046875 7.183594 9.621094 7.308594 10.167969 7.515625 C 9.988281 8.6875 9.394531 9.660156 8.46875 10.371094 C 7.546875 9.65625 6.945312 8.644531 6.765625 7.515625 C 7.3125 7.308594 7.886719 7.183594 8.464844 7.183594 Z M 6.121094 7.855469 C 6.351562 8.980469 6.949219 9.988281 7.828125 10.746094 C 7.355469 10.96875 6.863281 11.097656 6.417969 11.058594 C 5.835938 11.007812 5.371094 10.753906 5.121094 10.332031 C 4.867188 9.910156 4.878906 9.402344 5.121094 8.894531 C 5.308594 8.5 5.675781 8.144531 6.121094 7.855469 Z M 10.8125 7.859375 C 11.257812 8.144531 11.625 8.5 11.8125 8.894531 C 12.054688 9.402344 12.0625 9.910156 11.8125 10.332031 C 11.5625 10.753906 11.097656 11.007812 10.515625 11.058594 C 10.070312 11.097656 9.582031 10.96875 9.109375 10.746094 C 9.984375 9.996094 10.582031 9.011719 10.8125 7.859375 Z M 10.8125 7.859375 "/>
</svg>
