<?xml version="1.0" encoding="UTF-8"?>
<svg xmlns="http://www.w3.org/2000/svg" xmlns:xlink="http://www.w3.org/1999/xlink" width="64" height="64" viewBox="0 0 64 64">
<path fill-rule="nonzero" fill="rgb(43.529412%, 61.960784%, 81.960784%)" fill-opacity="1" d="M 15.609375 8.460938 C 15.609375 12.40625 12.410156 15.605469 8.464844 15.605469 C 4.519531 15.605469 1.324219 12.40625 1.324219 8.460938 C 1.324219 4.515625 4.519531 1.316406 8.464844 1.316406 C 12.410156 1.316406 15.609375 4.515625 15.609375 8.460938 Z M 15.609375 8.460938 "/>
<path fill-rule="nonzero" fill="rgb(100%, 100%, 100%)" fill-opacity="1" d="M 8.46875 3.902344 C 8.292969 3.902344 8.128906 3.972656 8.003906 4.09375 C 7.882812 4.21875 7.816406 4.382812 7.816406 4.554688 C 7.816406 4.914062 8.109375 5.207031 8.46875 5.207031 C 8.726562 5.207031 8.957031 5.054688 9.0625 4.816406 C 9.84375 5.375 10.234375 6.460938 10.363281 7.613281 C 10.503906 8.851562 10.335938 10.15625 10.101562 10.855469 C 10.074219 10.941406 10.121094 11.03125 10.207031 11.058594 C 10.292969 11.089844 10.382812 11.042969 10.414062 10.957031 C 10.667969 10.191406 10.832031 8.867188 10.6875 7.574219 C 10.546875 6.316406 10.105469 5.070312 9.109375 4.460938 C 9.0625 4.140625 8.789062 3.90625 8.46875 3.90625 Z M 8.46875 4.230469 C 8.636719 4.230469 8.78125 4.363281 8.792969 4.53125 C 8.789062 4.546875 8.789062 4.558594 8.789062 4.574219 C 8.78125 4.746094 8.640625 4.878906 8.46875 4.882812 C 8.285156 4.882812 8.140625 4.734375 8.140625 4.554688 C 8.140625 4.375 8.289062 4.230469 8.46875 4.230469 Z M 10.855469 5.683594 C 10.761719 5.683594 10.664062 5.6875 10.566406 5.695312 C 10.476562 5.703125 10.410156 5.785156 10.421875 5.875 C 10.429688 5.964844 10.511719 6.027344 10.601562 6.019531 C 11.28125 5.949219 11.808594 6.214844 12 6.691406 C 12.191406 7.164062 12.066406 7.910156 11.273438 8.847656 C 11.234375 8.890625 11.21875 8.953125 11.238281 9.011719 C 11.257812 9.066406 11.308594 9.109375 11.367188 9.117188 C 11.425781 9.128906 11.484375 9.105469 11.523438 9.058594 C 12.359375 8.070312 12.554688 7.195312 12.300781 6.566406 C 12.078125 6.015625 11.519531 5.699219 10.855469 5.683594 Z M 6.3125 5.695312 C 5.519531 5.710938 4.976562 5.953125 4.679688 6.355469 C 4.285156 6.894531 4.378906 7.648438 4.8125 8.324219 C 4.863281 8.394531 4.960938 8.414062 5.035156 8.367188 C 5.105469 8.320312 5.128906 8.222656 5.085938 8.148438 C 4.699219 7.546875 4.648438 6.949219 4.941406 6.550781 C 5.234375 6.152344 5.921875 5.894531 7.140625 6.085938 C 7.199219 6.09375 7.257812 6.074219 7.292969 6.027344 C 7.332031 5.980469 7.34375 5.917969 7.320312 5.863281 C 7.296875 5.808594 7.246094 5.769531 7.1875 5.761719 C 6.898438 5.714844 6.605469 5.691406 6.3125 5.695312 Z M 9.585938 5.792969 C 9.578125 5.792969 9.570312 5.792969 9.5625 5.792969 C 9.554688 5.792969 9.546875 5.796875 9.535156 5.796875 C 8.261719 6.105469 7.074219 6.695312 6.058594 7.527344 C 5.097656 8.328125 4.417969 9.304688 4.398438 10.308594 C 4.292969 10.429688 4.234375 10.582031 4.234375 10.742188 C 4.234375 10.914062 4.300781 11.082031 4.425781 11.203125 C 4.546875 11.324219 4.710938 11.394531 4.886719 11.394531 C 5.246094 11.394531 5.535156 11.101562 5.535156 10.742188 C 5.535156 10.382812 5.246094 10.089844 4.886719 10.089844 C 4.835938 10.089844 4.789062 10.097656 4.742188 10.105469 C 4.84375 9.3125 5.421875 8.480469 6.265625 7.777344 C 7.242188 6.980469 8.386719 6.410156 9.609375 6.113281 C 9.691406 6.097656 9.746094 6.023438 9.738281 5.941406 C 9.730469 5.859375 9.664062 5.796875 9.585938 5.792969 Z M 8.46875 7.8125 C 8.292969 7.8125 8.128906 7.878906 8.003906 8.003906 C 7.882812 8.125 7.816406 8.289062 7.816406 8.464844 C 7.816406 8.824219 8.109375 9.113281 8.46875 9.113281 C 8.824219 9.113281 9.117188 8.824219 9.117188 8.464844 C 9.117188 8.105469 8.828125 7.8125 8.46875 7.8125 Z M 5.535156 8.886719 C 5.46875 8.882812 5.410156 8.921875 5.382812 8.984375 C 5.359375 9.046875 5.371094 9.117188 5.417969 9.164062 C 6.414062 10.191406 7.65625 10.953125 8.820312 11.347656 C 9.964844 11.738281 11.042969 11.78125 11.765625 11.328125 C 11.851562 11.371094 11.949219 11.394531 12.050781 11.394531 C 12.222656 11.394531 12.386719 11.328125 12.507812 11.203125 C 12.632812 11.082031 12.699219 10.914062 12.699219 10.742188 C 12.699219 10.382812 12.410156 10.09375 12.050781 10.09375 C 11.875 10.089844 11.710938 10.160156 11.589844 10.28125 C 11.464844 10.40625 11.398438 10.570312 11.398438 10.742188 C 11.398438 10.871094 11.433594 10.992188 11.503906 11.101562 C 10.910156 11.414062 9.964844 11.394531 8.925781 11.039062 C 7.8125 10.664062 6.609375 9.925781 5.652344 8.9375 C 5.621094 8.90625 5.582031 8.886719 5.535156 8.886719 Z M 4.882812 10.417969 C 5.0625 10.417969 5.210938 10.5625 5.210938 10.742188 C 5.210938 10.921875 5.0625 11.070312 4.882812 11.070312 C 4.703125 11.070312 4.558594 10.921875 4.558594 10.742188 C 4.558594 10.5625 4.703125 10.417969 4.882812 10.417969 Z M 12.050781 10.417969 C 12.226562 10.417969 12.375 10.5625 12.375 10.742188 C 12.375 10.921875 12.230469 11.070312 12.050781 11.070312 C 11.867188 11.070312 11.722656 10.921875 11.722656 10.742188 C 11.722656 10.5625 11.871094 10.417969 12.050781 10.417969 Z M 6.660156 10.902344 C 6.613281 10.90625 6.566406 10.933594 6.539062 10.972656 C 6.511719 11.011719 6.503906 11.0625 6.519531 11.109375 C 6.519531 11.109375 6.644531 11.578125 6.945312 12.050781 C 7.246094 12.523438 7.742188 13.023438 8.46875 13.023438 C 9.421875 13.023438 9.976562 11.960938 9.976562 11.960938 C 10.007812 11.910156 10.007812 11.847656 9.976562 11.796875 C 9.945312 11.746094 9.890625 11.714844 9.832031 11.714844 C 9.773438 11.71875 9.71875 11.75 9.691406 11.804688 C 9.691406 11.804688 9.167969 12.695312 8.464844 12.695312 C 7.890625 12.695312 7.488281 12.300781 7.21875 11.878906 C 6.949219 11.453125 6.832031 11.027344 6.832031 11.027344 C 6.8125 10.957031 6.75 10.90625 6.679688 10.902344 C 6.671875 10.902344 6.667969 10.902344 6.660156 10.902344 Z M 6.660156 10.902344 "/>
</svg>
