<?xml version="1.0" encoding="UTF-8"?>
<svg xmlns="http://www.w3.org/2000/svg" xmlns:xlink="http://www.w3.org/1999/xlink" width="64" height="64" viewBox="0 0 64 64">
<path fill-rule="nonzero" fill="rgb(5.098039%, 73.72549%, 54.117647%)" fill-opacity="1" d="M 15.609375 8.460938 C 15.609375 12.40625 12.410156 15.605469 8.464844 15.605469 C 4.519531 15.605469 1.324219 12.40625 1.324219 8.460938 C 1.324219 4.515625 4.519531 1.316406 8.464844 1.316406 C 12.410156 1.316406 15.609375 4.515625 15.609375 8.460938 Z M 15.609375 8.460938 "/>
<path fill-rule="nonzero" fill="rgb(100%, 100%, 100%)" fill-opacity="1" d="M 7.621094 3.175781 C 7.269531 3.175781 6.984375 3.457031 6.984375 3.808594 C 6.984375 4.160156 7.269531 4.445312 7.621094 4.445312 C 9.257812 4.445312 10.582031 5.769531 10.582031 7.40625 C 10.582031 7.757812 10.867188 8.042969 11.21875 8.042969 C 11.570312 8.042969 11.851562 7.757812 11.851562 7.40625 C 11.851562 5.070312 9.957031 3.175781 7.621094 3.175781 Z M 7.40625 5.078125 C 5.070312 5.078125 3.175781 6.976562 3.175781 9.3125 C 3.175781 9.664062 3.457031 9.949219 3.808594 9.949219 C 4.160156 9.949219 4.445312 9.664062 4.445312 9.3125 C 4.445312 7.675781 5.773438 6.347656 7.40625 6.347656 C 7.757812 6.347656 8.042969 6.066406 8.042969 5.714844 C 8.042969 5.363281 7.757812 5.078125 7.40625 5.078125 Z M 13.125 6.984375 C 12.773438 6.984375 12.488281 7.269531 12.488281 7.621094 C 12.488281 9.257812 11.160156 10.582031 9.523438 10.582031 C 9.175781 10.582031 8.890625 10.867188 8.890625 11.21875 C 8.890625 11.570312 9.175781 11.851562 9.523438 11.851562 C 11.863281 11.851562 13.757812 9.957031 13.757812 7.621094 C 13.757812 7.269531 13.472656 6.984375 13.125 6.984375 Z M 5.714844 8.890625 C 5.363281 8.890625 5.082031 9.175781 5.082031 9.523438 C 5.082031 11.863281 6.976562 13.757812 9.3125 13.757812 C 9.664062 13.757812 9.949219 13.472656 9.949219 13.125 C 9.949219 12.773438 9.664062 12.488281 9.3125 12.488281 C 7.675781 12.488281 6.347656 11.160156 6.347656 9.523438 C 6.347656 9.175781 6.066406 8.890625 5.714844 8.890625 Z M 5.714844 8.890625 "/>
</svg>
