<?xml version="1.0" encoding="UTF-8"?>
<svg xmlns="http://www.w3.org/2000/svg" xmlns:xlink="http://www.w3.org/1999/xlink" width="64" height="64" viewBox="0 0 64 64">
<path fill-rule="nonzero" fill="rgb(53.333333%, 29.411765%, 63.137255%)" fill-opacity="1" d="M 59 32.039062 C 59 46.953125 46.910156 59.039062 32 59.039062 C 17.089844 59.039062 5 46.953125 5 32.039062 C 5 17.128906 17.089844 5.039062 32 5.039062 C 46.910156 5.039062 59 17.128906 59 32.039062 Z M 59 32.039062 "/>
<path fill-rule="nonzero" fill="rgb(100%, 100%, 100%)" fill-opacity="1" d="M 20.609375 44.140625 C 18.277344 42.773438 17.144531 41.949219 15.898438 40.71875 C 14.398438 39.238281 13.722656 38.101562 13.527344 36.742188 C 13.257812 34.867188 14.558594 32.9375 16.84375 31.824219 C 21.320312 29.644531 27.382812 29.167969 33.199219 30.539062 C 34.433594 30.828125 34.390625 30.738281 32.902344 29.859375 C 30.941406 28.699219 27.914062 26.308594 26.152344 24.527344 C 24.0625 22.417969 22.769531 20.1875 22.769531 18.773438 C 22.769531 17.839844 23.230469 16.847656 24.3125 16.25 C 26.847656 14.855469 35.753906 17.203125 41.714844 17.539062 C 43.605469 17.636719 44.867188 17.652344 44.863281 16.558594 C 44.855469 15.621094 42.355469 15.109375 41.144531 15.195312 C 42.207031 14.839844 43.226562 14.652344 44.589844 14.625 C 47.3125 14.566406 47.863281 14.917969 48.417969 15.175781 C 49.535156 15.699219 50.554688 16.902344 50.507812 18.433594 C 50.355469 23.363281 44.472656 21.171875 40.554688 20.460938 C 36.234375 19.679688 32.527344 19.039062 31.273438 20.515625 C 28.308594 23.996094 38.671875 30.828125 41.871094 33.257812 C 39.203125 33.460938 24.929688 31.980469 22.960938 36.976562 C 22.269531 39.246094 26.082031 41.667969 29.644531 42.898438 C 32.539062 43.851562 36.0625 44.933594 40.4375 45.21875 C 44.402344 45.480469 46.433594 44.914062 46.058594 41.90625 C 49.207031 43.535156 49.003906 46.78125 46.957031 48.210938 C 43.644531 50.523438 33.71875 48.546875 33.121094 48.425781 C 28.292969 47.425781 23.757812 45.972656 20.609375 44.140625 Z M 20.609375 44.140625 "/>
</svg>
