<?xml version="1.0" encoding="UTF-8"?>
<svg xmlns="http://www.w3.org/2000/svg" xmlns:xlink="http://www.w3.org/1999/xlink" width="64" height="64" viewBox="0 0 64 64">
<path fill-rule="nonzero" fill="rgb(80.784314%, 31.372549%, 31.372549%)" fill-opacity="1" d="M 32 5 C 46.910156 5 59 17.085938 59 32 C 59 46.910156 46.910156 59 32 59 C 17.085938 59 5 46.910156 5 32 C 5 17.085938 17.085938 5 32 5 Z M 32 5 "/>
<path fill-rule="nonzero" fill="rgb(97.647059%, 97.647059%, 97.647059%)" fill-opacity="1" d="M 17.910156 19.085938 L 17.910156 39.042969 L 28.472656 46.085938 L 28.472656 25.542969 Z M 20.257812 19.085938 L 29.648438 24.957031 L 34.34375 24.957031 L 43.734375 19.085938 C 39.039062 19.085938 36.691406 19.695312 31.996094 23.78125 C 27.300781 19.796875 24.953125 19.085938 20.257812 19.085938 Z M 46.082031 19.085938 L 35.515625 25.542969 L 35.515625 46.085938 L 46.082031 39.042969 Z M 29.648438 26.128906 L 29.648438 47.257812 L 34.34375 47.257812 L 34.34375 26.128906 Z M 29.648438 26.128906 "/>
</svg>
