<?xml version="1.0" encoding="UTF-8"?>
<svg xmlns="http://www.w3.org/2000/svg" xmlns:xlink="http://www.w3.org/1999/xlink" width="64" height="64" viewBox="0 0 64 64">
<path fill-rule="nonzero" fill="rgb(13.333333%, 35.294118%, 51.764706%)" fill-opacity="1" d="M 15.609375 8.46875 C 15.609375 12.414062 12.414062 15.613281 8.464844 15.613281 C 4.519531 15.613281 1.324219 12.414062 1.324219 8.46875 C 1.324219 4.523438 4.519531 1.328125 8.464844 1.328125 C 12.414062 1.328125 15.609375 4.523438 15.609375 8.46875 Z M 15.609375 8.46875 "/>
<path fill-rule="nonzero" fill="rgb(100%, 100%, 100%)" fill-opacity="1" d="M 8.730469 3.964844 C 6.394531 3.964844 4.5 5.859375 4.496094 8.195312 L 4.496094 11.773438 C 4.496094 12.140625 4.789062 12.433594 5.15625 12.433594 L 8.734375 12.433594 C 11.070312 12.429688 12.964844 10.535156 12.964844 8.199219 C 12.964844 5.859375 11.070312 3.964844 8.730469 3.964844 Z M 10.007812 4.894531 C 10.175781 4.894531 10.296875 4.914062 10.453125 4.953125 C 10.683594 5.011719 10.871094 5.203125 10.871094 5.421875 C 10.871094 5.683594 10.679688 5.878906 10.394531 5.878906 C 10.257812 5.878906 10.207031 5.851562 10.007812 5.851562 C 9.414062 5.851562 8.9375 6.332031 8.9375 6.921875 L 8.9375 7.847656 C 8.9375 7.929688 9.003906 8 9.085938 8 L 9.789062 8 C 10.050781 8 10.261719 8.210938 10.261719 8.472656 C 10.261719 8.734375 10.050781 8.945312 9.789062 8.945312 L 8.9375 8.945312 L 8.9375 10.023438 C 8.9375 11.144531 8.027344 12.054688 6.90625 12.054688 C 6.734375 12.054688 6.613281 12.035156 6.457031 11.992188 C 6.226562 11.933594 6.039062 11.746094 6.039062 11.527344 C 6.039062 11.261719 6.230469 11.070312 6.519531 11.070312 C 6.65625 11.070312 6.707031 11.097656 6.90625 11.097656 C 7.496094 11.097656 7.976562 10.617188 7.976562 10.027344 L 7.976562 9.097656 C 7.976562 9.054688 7.960938 9.015625 7.933594 8.988281 C 7.90625 8.960938 7.867188 8.945312 7.824219 8.945312 L 7.121094 8.945312 C 6.859375 8.941406 6.652344 8.730469 6.652344 8.46875 C 6.652344 8.207031 6.867188 7.996094 7.128906 8 L 7.976562 8 L 7.976562 6.921875 C 7.976562 5.800781 8.886719 4.894531 10.007812 4.894531 Z M 10.007812 4.894531 "/>
</svg>
