<?xml version="1.0" encoding="UTF-8"?>
<svg xmlns="http://www.w3.org/2000/svg" xmlns:xlink="http://www.w3.org/1999/xlink" width="64" height="64" viewBox="0 0 64 64">
<path fill-rule="nonzero" fill="rgb(19.215686%, 21.176471%, 25.882353%)" fill-opacity="1" d="M 15.609375 8.464844 C 15.609375 12.410156 12.410156 15.609375 8.464844 15.609375 C 4.519531 15.609375 1.324219 12.410156 1.324219 8.464844 C 1.324219 4.519531 4.519531 1.324219 8.464844 1.324219 C 12.410156 1.324219 15.609375 4.519531 15.609375 8.464844 Z M 15.609375 8.464844 "/>
<path fill-rule="nonzero" fill="rgb(3.529412%, 76.470588%, 48.235294%)" fill-opacity="1" d="M 6.679688 10.253906 C 5.695312 10.253906 4.894531 11.050781 4.894531 12.039062 C 4.894531 13.023438 5.695312 13.824219 6.679688 13.824219 C 7.667969 13.824219 8.464844 13.023438 8.464844 12.039062 L 8.464844 10.253906 Z M 6.679688 10.253906 "/>
<path fill-rule="nonzero" fill="rgb(56.862745%, 32.941176%, 86.666667%)" fill-opacity="1" d="M 6.679688 6.679688 L 8.464844 6.679688 L 8.464844 10.253906 L 6.679688 10.253906 C 5.691406 10.253906 4.894531 9.457031 4.894531 8.464844 C 4.894531 7.476562 5.691406 6.679688 6.679688 6.679688 Z M 6.679688 6.679688 "/>
<path fill-rule="nonzero" fill="rgb(0.392157%, 69.411765%, 97.254902%)" fill-opacity="1" d="M 12.039062 8.464844 C 12.039062 9.453125 11.238281 10.253906 10.253906 10.253906 C 9.265625 10.253906 8.464844 9.453125 8.464844 8.464844 C 8.464844 7.480469 9.265625 6.679688 10.253906 6.679688 C 11.238281 6.679688 12.039062 7.480469 12.039062 8.464844 Z M 12.039062 8.464844 "/>
<path fill-rule="nonzero" fill="rgb(94.901961%, 30.588235%, 11.764706%)" fill-opacity="1" d="M 6.679688 3.109375 C 5.691406 3.109375 4.894531 3.90625 4.894531 4.894531 C 4.894531 5.882812 5.691406 6.679688 6.679688 6.679688 L 8.464844 6.679688 L 8.464844 3.109375 Z M 6.679688 3.109375 "/>
<path fill-rule="nonzero" fill="rgb(100%, 44.705882%, 38.431373%)" fill-opacity="1" d="M 8.464844 3.109375 L 10.253906 3.109375 C 11.242188 3.109375 12.039062 3.90625 12.039062 4.894531 C 12.039062 5.882812 11.242188 6.679688 10.253906 6.679688 L 8.464844 6.679688 Z M 8.464844 3.109375 "/>
</svg>
