<?xml version="1.0" encoding="UTF-8"?>
<svg xmlns="http://www.w3.org/2000/svg" xmlns:xlink="http://www.w3.org/1999/xlink" width="64" height="64" viewBox="0 0 64 64">
<path fill-rule="nonzero" fill="rgb(100%, 22.352941%, 26.666667%)" fill-opacity="1" d="M 15.09375 5.808594 C 14.78125 5.0625 14.152344 4.253906 13.65625 4 C 14.011719 4.679688 14.253906 5.414062 14.382812 6.167969 L 14.382812 6.183594 C 13.574219 4.164062 12.203125 3.351562 11.082031 1.582031 C 11.027344 1.492188 10.96875 1.402344 10.914062 1.308594 C 10.882812 1.253906 10.859375 1.207031 10.835938 1.160156 C 10.789062 1.070312 10.753906 0.976562 10.730469 0.878906 C 10.730469 0.867188 10.722656 0.859375 10.714844 0.859375 C 10.710938 0.859375 10.703125 0.859375 10.699219 0.859375 C 10.699219 0.859375 10.699219 0.859375 10.695312 0.859375 C 10.695312 0.859375 10.691406 0.863281 10.691406 0.863281 L 10.695312 0.859375 C 8.898438 1.910156 8.289062 3.859375 8.230469 4.832031 C 7.515625 4.882812 6.828125 5.144531 6.261719 5.589844 C 6.203125 5.539062 6.144531 5.492188 6.078125 5.449219 C 5.914062 4.878906 5.910156 4.277344 6.058594 3.703125 C 5.398438 4.023438 4.8125 4.476562 4.335938 5.03125 L 4.332031 5.03125 C 4.050781 4.675781 4.070312 3.488281 4.085938 3.242188 C 4.003906 3.277344 3.921875 3.316406 3.847656 3.367188 C 3.597656 3.546875 3.363281 3.746094 3.148438 3.96875 C 2.902344 4.214844 2.679688 4.484375 2.480469 4.769531 C 2.019531 5.421875 1.695312 6.160156 1.519531 6.9375 L 1.511719 6.984375 C 1.496094 7.046875 1.449219 7.363281 1.441406 7.429688 C 1.441406 7.4375 1.4375 7.441406 1.4375 7.445312 C 1.375 7.773438 1.335938 8.101562 1.324219 8.433594 L 1.324219 8.46875 C 1.328125 12.179688 4.171875 15.269531 7.867188 15.585938 C 11.566406 15.902344 14.890625 13.335938 15.523438 9.679688 C 15.535156 9.585938 15.546875 9.496094 15.554688 9.402344 C 15.703125 8.183594 15.542969 6.949219 15.09375 5.808594 Z M 6.847656 11.40625 C 6.882812 11.425781 6.914062 11.441406 6.949219 11.457031 L 6.953125 11.460938 C 6.917969 11.445312 6.882812 11.425781 6.847656 11.40625 Z M 14.382812 6.183594 L 14.382812 6.175781 L 14.386719 6.183594 Z M 14.382812 6.183594 "/>
<path fill-rule="nonzero" fill="rgb(100%, 80.392157%, 20.392157%)" fill-opacity="1" d="M 11.617188 6.644531 C 11.632812 6.65625 11.648438 6.667969 11.664062 6.679688 C 11.484375 6.359375 11.257812 6.066406 11 5.8125 C 8.773438 3.589844 10.414062 0.992188 10.691406 0.859375 L 10.695312 0.855469 C 8.898438 1.90625 8.289062 3.855469 8.234375 4.828125 C 8.316406 4.820312 8.398438 4.816406 8.484375 4.816406 C 9.78125 4.816406 10.976562 5.515625 11.617188 6.644531 Z M 11.617188 6.644531 "/>
<path fill-rule="nonzero" fill="rgb(60.392157%, 27.45098%, 92.156863%)" fill-opacity="1" d="M 8.488281 7.089844 C 8.476562 7.269531 7.847656 7.882812 7.628906 7.882812 C 5.59375 7.882812 5.265625 9.113281 5.265625 9.113281 C 5.355469 10.148438 6.074219 11 6.949219 11.453125 C 6.988281 11.472656 7.027344 11.492188 7.070312 11.511719 C 7.140625 11.542969 7.210938 11.570312 7.277344 11.597656 C 7.578125 11.703125 7.890625 11.761719 8.210938 11.777344 C 11.773438 11.941406 12.464844 7.511719 9.894531 6.226562 C 10.5 6.148438 11.113281 6.296875 11.617188 6.644531 C 10.976562 5.515625 9.78125 4.820312 8.484375 4.816406 C 8.398438 4.816406 8.316406 4.824219 8.230469 4.828125 C 7.515625 4.878906 6.828125 5.140625 6.261719 5.585938 C 6.371094 5.679688 6.496094 5.804688 6.753906 6.058594 C 7.242188 6.535156 8.484375 7.03125 8.488281 7.089844 Z M 8.488281 7.089844 "/>
<path fill-rule="nonzero" fill="rgb(100%, 58.823529%, 20%)" fill-opacity="1" d="M 5.929688 5.347656 C 5.988281 5.382812 6.035156 5.417969 6.078125 5.445312 C 5.914062 4.875 5.90625 4.269531 6.058594 3.695312 C 5.398438 4.015625 4.8125 4.46875 4.335938 5.027344 C 4.371094 5.027344 5.410156 5.007812 5.929688 5.347656 Z M 5.929688 5.347656 "/>
<path fill-rule="nonzero" fill="rgb(100%, 38.823529%, 20%)" fill-opacity="1" d="M 1.386719 8.632812 C 1.941406 11.894531 4.894531 14.386719 8.253906 14.480469 C 11.359375 14.566406 13.34375 12.765625 14.164062 11.003906 C 14.855469 9.484375 14.9375 7.753906 14.386719 6.179688 L 14.386719 6.171875 C 14.386719 6.164062 14.382812 6.164062 14.386719 6.164062 L 14.386719 6.175781 C 14.640625 7.832031 13.796875 9.4375 12.480469 10.523438 L 12.476562 10.53125 C 9.910156 12.621094 7.453125 11.792969 6.957031 11.457031 C 6.921875 11.4375 6.886719 11.421875 6.851562 11.402344 C 5.355469 10.6875 4.738281 9.324219 4.871094 8.15625 C 4.144531 8.167969 3.480469 7.75 3.175781 7.089844 C 3.972656 6.601562 4.96875 6.558594 5.804688 6.984375 C 6.652344 7.367188 7.617188 7.40625 8.488281 7.089844 C 8.488281 7.03125 7.242188 6.535156 6.757812 6.058594 C 6.496094 5.800781 6.375 5.679688 6.265625 5.585938 C 6.207031 5.535156 6.144531 5.488281 6.082031 5.445312 C 6.039062 5.417969 5.992188 5.386719 5.933594 5.347656 C 5.410156 5.007812 4.375 5.027344 4.339844 5.027344 L 4.335938 5.027344 C 4.054688 4.671875 4.074219 3.484375 4.089844 3.238281 C 4.003906 3.273438 3.925781 3.3125 3.851562 3.363281 C 3.601562 3.542969 3.367188 3.742188 3.152344 3.964844 C 2.90625 4.210938 2.679688 4.480469 2.480469 4.765625 C 2.019531 5.414062 1.695312 6.152344 1.519531 6.929688 C 1.515625 6.945312 1.261719 8.058594 1.386719 8.632812 Z M 1.386719 8.632812 "/>
<path fill-rule="nonzero" fill="rgb(100%, 52.54902%, 9.803922%)" fill-opacity="1" d="M 10.996094 5.816406 C 11.257812 6.074219 11.484375 6.367188 11.664062 6.683594 C 11.703125 6.714844 11.738281 6.746094 11.769531 6.773438 C 13.390625 8.269531 12.542969 10.378906 12.476562 10.53125 C 13.796875 9.445312 14.636719 7.839844 14.382812 6.183594 C 13.574219 4.167969 12.203125 3.355469 11.082031 1.582031 C 11.027344 1.496094 10.96875 1.40625 10.914062 1.308594 C 10.882812 1.257812 10.859375 1.207031 10.835938 1.164062 C 10.789062 1.074219 10.753906 0.976562 10.730469 0.878906 C 10.730469 0.871094 10.722656 0.863281 10.714844 0.859375 C 10.710938 0.859375 10.703125 0.859375 10.699219 0.859375 C 10.699219 0.859375 10.699219 0.863281 10.695312 0.863281 C 10.695312 0.863281 10.691406 0.863281 10.691406 0.863281 C 10.414062 0.996094 8.773438 3.59375 11 5.816406 Z M 10.996094 5.816406 "/>
<path fill-rule="nonzero" fill="rgb(100%, 63.921569%, 8.627451%)" fill-opacity="1" d="M 11.769531 6.769531 C 11.738281 6.738281 11.699219 6.710938 11.660156 6.679688 C 11.644531 6.667969 11.632812 6.65625 11.617188 6.648438 C 11.113281 6.296875 10.5 6.148438 9.890625 6.226562 C 12.464844 7.515625 11.773438 11.945312 8.207031 11.777344 C 7.890625 11.765625 7.578125 11.703125 7.277344 11.597656 C 7.207031 11.570312 7.136719 11.542969 7.066406 11.511719 C 7.027344 11.492188 6.988281 11.472656 6.949219 11.453125 L 6.953125 11.457031 C 7.449219 11.796875 9.90625 12.625 12.472656 10.535156 L 12.476562 10.523438 C 12.539062 10.375 13.390625 8.261719 11.769531 6.769531 Z M 11.769531 6.769531 "/>
<path fill-rule="nonzero" fill="rgb(100%, 73.333333%, 15.294118%)" fill-opacity="1" d="M 5.265625 9.113281 C 5.265625 9.113281 5.59375 7.882812 7.628906 7.882812 C 7.847656 7.882812 8.476562 7.269531 8.488281 7.089844 C 7.613281 7.40625 6.648438 7.367188 5.800781 6.984375 C 4.96875 6.5625 3.972656 6.601562 3.171875 7.089844 C 3.476562 7.75 4.140625 8.167969 4.867188 8.15625 C 4.734375 9.324219 5.351562 10.6875 6.847656 11.402344 C 6.882812 11.421875 6.914062 11.4375 6.949219 11.453125 C 6.074219 11 5.355469 10.148438 5.265625 9.113281 Z M 5.265625 9.113281 "/>
</svg>
