<?xml version="1.0" encoding="UTF-8"?>
<svg xmlns="http://www.w3.org/2000/svg" xmlns:xlink="http://www.w3.org/1999/xlink" width="64" height="64" viewBox="0 0 64 64">
<defs>
<filter id="filter-remove-color" x="0%" y="0%" width="100%" height="100%">
<feColorMatrix color-interpolation-filters="sRGB" values="0 0 0 0 1 0 0 0 0 1 0 0 0 0 1 0 0 0 1 0" />
</filter>
<mask id="mask-0">
<g filter="url(#filter-remove-color)">
<rect x="-6.4" y="-6.4" width="76.8" height="76.8" fill="rgb(0%, 0%, 0%)" fill-opacity="0.05"/>
</g>
</mask>
<clipPath id="clip-0">
<rect x="0" y="0" width="17" height="17"/>
</clipPath>
<g id="source-337" clip-path="url(#clip-0)">
<path fill-rule="nonzero" fill="rgb(100%, 100%, 100%)" fill-opacity="1" d="M 8.464844 2.382812 C 11.832031 2.382812 14.550781 5.101562 14.550781 8.464844 C 14.550781 11.832031 11.832031 14.550781 8.464844 14.550781 C 5.097656 14.550781 2.378906 11.832031 2.378906 8.464844 C 2.378906 5.101562 5.097656 2.382812 8.464844 2.382812 Z M 8.464844 2.382812 "/>
</g>
</defs>
<path fill-rule="nonzero" fill="rgb(46.27451%, 22.352941%, 51.372549%)" fill-opacity="1" d="M 8.464844 1.324219 C 12.417969 1.324219 15.609375 4.515625 15.609375 8.464844 C 15.609375 12.417969 12.417969 15.609375 8.464844 15.609375 C 4.515625 15.609375 1.320312 12.417969 1.320312 8.464844 C 1.320312 4.515625 4.515625 1.324219 8.464844 1.324219 Z M 8.464844 1.324219 "/>
<g mask="url(#mask-0)">
<use xlink:href="#source-337"/>
</g>
<path fill-rule="nonzero" fill="rgb(92.156863%, 13.333333%, 45.098039%)" fill-opacity="1" d="M 8.484375 7.367188 C 12.765625 6.554688 12.933594 4.714844 12.933594 4.714844 C 12.933594 4.714844 12.59375 10.410156 9.464844 10.710938 C 5.5 11.089844 5.621094 12.929688 5.621094 12.929688 C 5.621094 12.929688 5.542969 12.339844 5.792969 11.570312 C 6.292969 10.027344 6.808594 7.683594 8.484375 7.367188 Z M 8.484375 7.367188 "/>
<path fill-rule="nonzero" fill="rgb(100%, 50.588235%, 17.647059%)" fill-opacity="1" d="M 6.460938 7.117188 C 9.792969 5.285156 9.625 3.109375 9.625 3.109375 C 9.625 3.109375 11.546875 8.175781 8.664062 9.355469 C 5.445312 10.675781 5.609375 12.929688 5.609375 12.929688 C 5.609375 12.929688 4.003906 8.464844 6.460938 7.113281 Z M 6.460938 7.117188 "/>
<path fill-rule="nonzero" fill="rgb(100%, 87.45098%, 33.333333%)" fill-opacity="1" d="M 4.347656 8.46875 C 6.515625 5.84375 5.757812 4 5.757812 4 C 5.757812 4 8.800781 7.199219 6.914062 9.179688 C 4.804688 11.390625 5.59375 12.929688 5.59375 12.929688 C 5.59375 12.929688 3.105469 9.972656 4.347656 8.46875 Z M 4.347656 8.46875 "/>
</svg>
