<?xml version="1.0" encoding="UTF-8"?>
<svg xmlns="http://www.w3.org/2000/svg" xmlns:xlink="http://www.w3.org/1999/xlink" width="64" height="64" viewBox="0 0 64 64">
<path fill-rule="nonzero" fill="rgb(75.294118%, 25.882353%, 25.882353%)" fill-opacity="1" d="M 15.609375 8.460938 C 15.609375 12.40625 12.410156 15.605469 8.464844 15.605469 C 4.519531 15.605469 1.324219 12.40625 1.324219 8.460938 C 1.324219 4.515625 4.519531 1.316406 8.464844 1.316406 C 12.410156 1.316406 15.609375 4.515625 15.609375 8.460938 Z M 15.609375 8.460938 "/>
<path fill-rule="nonzero" fill="rgb(100%, 100%, 100%)" fill-opacity="1" d="M 11.113281 4.949219 L 11.113281 6.367188 C 9.78125 6.394531 9.402344 7.886719 9.402344 7.886719 L 10.523438 7.886719 L 10.523438 9.0625 L 8.902344 9.0625 C 7.96875 12.136719 5.820312 11.992188 5.820312 11.992188 L 5.820312 10.570312 C 5.820312 10.570312 7.183594 10.839844 7.882812 8.132812 C 8.75 4.742188 11.109375 4.941406 11.109375 4.941406 "/>
</svg>
