<?xml version="1.0" encoding="UTF-8"?>
<svg xmlns="http://www.w3.org/2000/svg" xmlns:xlink="http://www.w3.org/1999/xlink" width="64" height="64" viewBox="0 0 64 64">
<path fill-rule="nonzero" fill="rgb(94.901961%, 94.901961%, 94.901961%)" fill-opacity="1" d="M 15.609375 8.460938 C 15.609375 12.40625 12.410156 15.605469 8.464844 15.605469 C 4.519531 15.605469 1.324219 12.40625 1.324219 8.460938 C 1.324219 4.515625 4.519531 1.316406 8.464844 1.316406 C 12.410156 1.316406 15.609375 4.515625 15.609375 8.460938 Z M 15.609375 8.460938 "/>
<path fill-rule="nonzero" fill="rgb(0%, 51.372549%, 86.27451%)" fill-opacity="1" d="M 7.9375 8.460938 C 7.953125 9.132812 7.601562 9.761719 7.023438 10.101562 C 6.445312 10.441406 5.726562 10.441406 5.144531 10.101562 C 4.566406 9.761719 4.214844 9.132812 4.230469 8.460938 C 4.253906 7.453125 5.078125 6.648438 6.085938 6.648438 C 7.089844 6.648438 7.914062 7.453125 7.9375 8.460938 "/>
<path fill-rule="nonzero" fill="rgb(96.078431%, 20.392157%, 55.294118%)" fill-opacity="1" d="M 12.699219 8.460938 C 12.714844 9.132812 12.367188 9.761719 11.785156 10.101562 C 11.207031 10.441406 10.488281 10.441406 9.910156 10.101562 C 9.328125 9.761719 8.980469 9.132812 8.996094 8.460938 C 9.019531 7.453125 9.839844 6.648438 10.847656 6.648438 C 11.855469 6.648438 12.675781 7.453125 12.699219 8.460938 "/>
</svg>
