<?xml version="1.0" encoding="UTF-8"?>
<svg xmlns="http://www.w3.org/2000/svg" xmlns:xlink="http://www.w3.org/1999/xlink" width="64" height="64" viewBox="0 0 64 64">
<defs>
<filter id="filter-remove-color" x="0%" y="0%" width="100%" height="100%">
<feColorMatrix color-interpolation-filters="sRGB" values="0 0 0 0 1 0 0 0 0 1 0 0 0 0 1 0 0 0 1 0" />
</filter>
<mask id="mask-0">
<g filter="url(#filter-remove-color)">
<rect x="-6.4" y="-6.4" width="76.8" height="76.8" fill="rgb(0%, 0%, 0%)" fill-opacity="0.25"/>
</g>
</mask>
<clipPath id="clip-0">
<rect x="0" y="0" width="64" height="64"/>
</clipPath>
<g id="source-11181" clip-path="url(#clip-0)">
<path fill-rule="nonzero" fill="rgb(0%, 0%, 0%)" fill-opacity="1" d="M 51 42.234375 C 50.972656 43.621094 49.855469 44.726562 48.460938 44.726562 L 48.289062 44.726562 L 48.289062 45.0625 L 48.460938 45.0625 C 49.558594 45.0625 50.515625 44.449219 51 43.542969 Z M 40.144531 44.726562 L 48.285156 45.0625 L 48.285156 44.726562 Z M 40.144531 44.726562 "/>
</g>
<mask id="mask-1">
<g filter="url(#filter-remove-color)">
<rect x="-6.4" y="-6.4" width="76.8" height="76.8" fill="rgb(0%, 0%, 0%)" fill-opacity="0.25"/>
</g>
</mask>
<clipPath id="clip-1">
<rect x="0" y="0" width="64" height="64"/>
</clipPath>
<g id="source-11185" clip-path="url(#clip-1)">
<path fill-rule="nonzero" fill="rgb(0%, 0%, 0%)" fill-opacity="1" d="M 51 43.542969 C 50.972656 44.929688 49.855469 46.035156 48.460938 46.035156 L 48.289062 46.035156 L 48.289062 46.375 L 48.460938 46.375 C 49.550781 46.375 50.503906 45.765625 50.992188 44.871094 C 50.996094 44.808594 51 44.742188 51 44.675781 Z M 42.179688 46.035156 L 48.285156 46.375 L 48.285156 46.035156 Z M 42.179688 46.035156 "/>
</g>
<linearGradient id="linear-pattern-0" gradientUnits="userSpaceOnUse" x1="59.091999" y1="216.779999" x2="46.289001" y2="169" gradientTransform="matrix(0.33929, 0, 0, 0.33929, 6.2608, -46.199001)">
<stop offset="0" stop-color="rgb(0%, 80%, 80%)" stop-opacity="1"/>
<stop offset="1" stop-color="rgb(19.215686%, 89.803922%, 82.352941%)" stop-opacity="1"/>
</linearGradient>
</defs>
<path fill-rule="nonzero" fill="rgb(46.27451%, 89.803922%, 80.392157%)" fill-opacity="1" d="M 58.183594 25.136719 C 58.117188 24.886719 58.046875 24.621094 57.972656 24.359375 C 57.914062 24.164062 57.859375 23.964844 57.792969 23.757812 C 57.703125 23.460938 57.597656 23.15625 57.488281 22.851562 C 57.121094 21.808594 56.679688 20.789062 56.164062 19.78125 C 55.949219 19.359375 55.710938 18.925781 55.460938 18.5 C 54.300781 16.527344 52.84375 14.65625 51.09375 12.910156 C 46.941406 8.757812 42.105469 6.234375 36.585938 5.355469 C 35.65625 5.207031 34.707031 5.101562 33.722656 5.050781 C 33.167969 5.019531 32.585938 5 32 5 C 31.464844 5 30.933594 5.015625 30.402344 5.042969 C 23.632812 5.390625 17.800781 8.015625 12.910156 12.910156 C 7.636719 18.179688 5 24.546875 5 32 C 5 39.457031 7.636719 45.824219 12.910156 51.09375 C 16.152344 54.335938 19.804688 56.582031 23.839844 57.820312 C 25.941406 58.460938 28.117188 58.839844 30.402344 58.960938 L 30.425781 58.960938 C 30.914062 58.984375 31.375 59 31.828125 59 L 32 59 C 32.589844 59 33.171875 58.984375 33.722656 58.953125 C 33.863281 58.945312 33.992188 58.9375 34.117188 58.929688 C 35.273438 58.847656 36.402344 58.699219 37.476562 58.488281 C 37.929688 58.398438 38.378906 58.300781 38.816406 58.195312 C 43.4375 57.03125 47.519531 54.671875 51.09375 51.09375 C 53.875 48.316406 55.921875 45.230469 57.234375 41.839844 C 58.289062 39.113281 58.875 36.1875 58.984375 33.058594 C 58.992188 32.710938 59 32.359375 59 32 L 59 31.828125 C 58.988281 29.503906 58.714844 27.28125 58.183594 25.136719 Z M 58.183594 25.136719 "/>
<path fill-rule="nonzero" fill="rgb(10.980392%, 65.882353%, 65.882353%)" fill-opacity="1" d="M 51 43.148438 L 51 45.402344 C 51 46.90625 49.789062 48.117188 48.285156 48.117188 L 40.820312 48.117188 C 37.535156 48.117188 34.707031 50.0625 33.417969 52.867188 L 30.582031 52.867188 C 29.292969 50.0625 26.464844 48.117188 23.179688 48.117188 L 15.714844 48.117188 C 14.210938 48.117188 13 46.90625 13 45.402344 L 13 43.148438 Z M 51 43.148438 "/>
<path fill-rule="nonzero" fill="rgb(80%, 80%, 80%)" fill-opacity="1" d="M 32.789062 29.460938 C 32.734375 29.796875 32.695312 30.132812 32.679688 30.472656 L 32 30.472656 L 32 51.847656 L 33.417969 51.847656 C 34.707031 49.046875 37.535156 47.097656 40.820312 47.097656 L 48.285156 47.097656 C 49.789062 47.097656 51 45.886719 51 44.382812 L 51 32.289062 C 51 30.785156 49.789062 29.574219 48.285156 29.574219 Z M 32.789062 29.460938 "/>
<path fill-rule="nonzero" fill="rgb(80%, 80%, 80%)" fill-opacity="1" d="M 31.210938 29.460938 C 31.265625 29.796875 31.300781 30.132812 31.320312 30.472656 L 32 30.472656 L 32 51.847656 L 30.582031 51.847656 C 29.292969 49.046875 26.464844 47.097656 23.179688 47.097656 L 15.714844 47.097656 C 14.210938 47.097656 13 45.886719 13 44.382812 L 13 32.289062 C 13 30.785156 14.210938 29.574219 15.714844 29.574219 Z M 31.210938 29.460938 "/>
<g mask="url(#mask-0)">
<use xlink:href="#source-11181"/>
</g>
<g mask="url(#mask-1)">
<use xlink:href="#source-11185"/>
</g>
<path fill-rule="nonzero" fill="rgb(97.647059%, 97.647059%, 97.647059%)" fill-opacity="1" d="M 48.285156 18.257812 C 49.789062 18.257812 51 19.46875 51 20.972656 L 51 40.992188 C 51 42.496094 49.789062 43.707031 48.285156 43.707031 L 40.144531 43.707031 C 35.644531 43.707031 32 47.351562 32 51.847656 L 32 27.082031 C 32 22.582031 35.644531 18.257812 40.144531 18.257812 Z M 48.285156 18.257812 "/>
<path fill-rule="nonzero" fill="rgb(92.54902%, 92.54902%, 92.54902%)" fill-opacity="1" d="M 15.714844 18.257812 C 14.210938 18.257812 13 19.46875 13 20.972656 L 13 40.992188 C 13 42.496094 14.210938 43.707031 15.714844 43.707031 L 23.855469 43.707031 C 28.355469 43.707031 32 47.351562 32 51.847656 L 32 27.082031 C 32 22.582031 28.355469 18.257812 23.855469 18.257812 Z M 15.714844 18.257812 "/>
<path fill-rule="nonzero" fill="rgb(0%, 80%, 80%)" fill-opacity="1" d="M 44.894531 21.992188 L 44.894531 24.027344 L 40.820312 24.027344 C 39.335938 24.089844 37.949219 24.464844 36.75 25.140625 L 36.75 23.257812 C 37.949219 22.464844 39.335938 21.992188 40.820312 21.992188 Z M 44.894531 21.992188 "/>
<path fill-rule="nonzero" fill="rgb(87.058824%, 86.27451%, 85.098039%)" fill-opacity="1" d="M 46.929688 26.0625 L 46.929688 27.417969 L 40.820312 27.417969 C 39.335938 27.480469 37.949219 27.859375 36.75 28.53125 L 36.75 27.328125 C 37.949219 26.535156 39.335938 26.0625 40.820312 26.0625 Z M 46.929688 26.0625 "/>
<path fill-rule="nonzero" fill="rgb(87.058824%, 86.27451%, 85.098039%)" fill-opacity="1" d="M 46.929688 28.777344 L 46.929688 30.132812 L 40.820312 30.132812 C 39.335938 30.195312 37.949219 30.574219 36.75 31.246094 L 36.75 30.042969 C 37.949219 29.25 39.335938 28.777344 40.820312 28.777344 Z M 46.929688 28.777344 "/>
<path fill-rule="nonzero" fill="rgb(87.058824%, 86.27451%, 85.098039%)" fill-opacity="1" d="M 46.929688 31.492188 L 46.929688 32.847656 L 40.820312 32.847656 C 39.335938 32.910156 37.949219 33.289062 36.75 33.960938 L 36.75 32.757812 C 37.949219 31.964844 39.335938 31.492188 40.820312 31.492188 Z M 46.929688 31.492188 "/>
<path fill-rule="nonzero" fill="rgb(87.058824%, 86.27451%, 85.098039%)" fill-opacity="1" d="M 22.5 36.921875 L 17.070312 36.921875 L 17.070312 38.277344 L 22.5 38.277344 Z M 22.5 36.921875 "/>
<path fill-rule="nonzero" fill="rgb(87.058824%, 86.27451%, 85.098039%)" fill-opacity="1" d="M 17.070312 26.0625 L 17.070312 27.417969 L 23.855469 27.417969 C 25.070312 27.46875 26.214844 27.734375 27.25 28.195312 L 27.25 26.929688 C 26.214844 26.382812 25.070312 26.0625 23.855469 26.0625 Z M 17.070312 26.0625 "/>
<path fill-rule="nonzero" fill="rgb(87.058824%, 86.27451%, 85.098039%)" fill-opacity="1" d="M 17.070312 28.777344 L 17.070312 30.132812 L 23.855469 30.132812 C 25.070312 30.183594 26.214844 30.449219 27.25 30.910156 L 27.25 29.644531 C 26.214844 29.097656 25.070312 28.777344 23.855469 28.777344 Z M 17.070312 28.777344 "/>
<path fill-rule="nonzero" fill="rgb(87.058824%, 86.27451%, 85.098039%)" fill-opacity="1" d="M 17.070312 31.492188 L 17.070312 32.847656 L 23.855469 32.847656 C 25.070312 32.898438 26.214844 33.164062 27.25 33.625 L 27.25 32.359375 C 26.214844 31.808594 25.070312 31.492188 23.855469 31.492188 Z M 17.070312 31.492188 "/>
<path fill-rule="nonzero" fill="rgb(87.058824%, 86.27451%, 85.098039%)" fill-opacity="1" d="M 17.070312 23.347656 L 17.070312 24.707031 L 23.855469 24.707031 C 25.070312 24.753906 26.214844 25.019531 27.25 25.484375 L 27.25 24.214844 C 26.214844 23.667969 25.070312 23.347656 23.855469 23.347656 Z M 17.070312 23.347656 "/>
<path fill-rule="nonzero" fill="rgb(87.058824%, 86.27451%, 85.098039%)" fill-opacity="1" d="M 17.070312 34.203125 L 17.070312 35.5625 L 23.855469 35.5625 C 25.070312 35.613281 26.214844 35.878906 27.25 36.339844 L 27.25 35.074219 C 26.214844 34.523438 25.070312 34.203125 23.855469 34.203125 Z M 17.070312 34.203125 "/>
<path fill-rule="nonzero" fill="rgb(87.058824%, 86.27451%, 85.098039%)" fill-opacity="1" d="M 44.214844 34.203125 L 44.214844 35.5625 L 40.820312 35.5625 C 39.335938 35.625 37.949219 36.003906 36.75 36.675781 L 36.75 35.46875 C 37.949219 34.679688 39.335938 34.203125 40.820312 34.203125 Z M 44.214844 34.203125 "/>
<path fill-rule="nonzero" fill="url(#linear-pattern-0)" d="M 21.96875 11.132812 C 21.96875 11.132812 19.175781 18.066406 19.183594 21.714844 C 19.191406 24.429688 19.558594 27.492188 21.292969 29.582031 C 22.625 31.183594 26.933594 32.285156 26.933594 32.285156 L 28.246094 31.933594 C 28.246094 31.933594 31.425781 28.824219 31.78125 26.769531 C 32.238281 24.09375 31.023438 21.257812 29.671875 18.90625 C 27.855469 15.742188 21.96875 11.132812 21.96875 11.132812 Z M 21.96875 11.132812 "/>
<path fill-rule="nonzero" fill="rgb(10.980392%, 65.882353%, 65.882353%)" fill-opacity="1" d="M 28.339844 37.535156 C 24.6875 23.898438 24.78125 22.375 22.996094 14.867188 C 25.210938 22.230469 25.996094 23.546875 29.652344 37.1875 Z M 28.339844 37.535156 "/>
<path fill-rule="nonzero" fill="rgb(10.980392%, 65.882353%, 65.882353%)" fill-opacity="1" d="M 24.566406 21.335938 C 25.792969 19.210938 26.234375 18.785156 26.667969 18.078125 C 26.273438 18.808594 26.113281 19.394531 24.886719 21.519531 Z M 24.566406 21.335938 "/>
<path fill-rule="nonzero" fill="rgb(10.980392%, 65.882353%, 65.882353%)" fill-opacity="1" d="M 25.417969 24.632812 C 27.121094 21.683594 27.730469 21.089844 28.335938 20.109375 C 27.789062 21.125 27.5625 21.9375 25.859375 24.886719 Z M 25.417969 24.632812 "/>
<path fill-rule="nonzero" fill="rgb(10.980392%, 65.882353%, 65.882353%)" fill-opacity="1" d="M 26.355469 28.171875 C 28.15625 25.046875 28.800781 24.421875 29.441406 23.386719 C 28.863281 24.460938 28.625 25.320312 26.824219 28.441406 Z M 26.355469 28.171875 "/>
<path fill-rule="nonzero" fill="rgb(10.980392%, 65.882353%, 65.882353%)" fill-opacity="1" d="M 24.820312 21.265625 C 22.691406 20.042969 22.101562 19.894531 21.371094 19.496094 C 22.074219 19.933594 22.507812 20.359375 24.632812 21.585938 Z M 24.820312 21.265625 "/>
<path fill-rule="nonzero" fill="rgb(10.980392%, 65.882353%, 65.882353%)" fill-opacity="1" d="M 25.730469 24.550781 C 22.78125 22.84375 21.957031 22.636719 20.941406 22.089844 C 21.921875 22.695312 22.523438 23.289062 25.476562 24.992188 Z M 25.730469 24.550781 "/>
<path fill-rule="nonzero" fill="rgb(10.980392%, 65.882353%, 65.882353%)" fill-opacity="1" d="M 26.6875 28.078125 C 23.566406 26.277344 22.695312 26.058594 21.621094 25.480469 C 22.660156 26.121094 23.296875 26.746094 26.417969 28.550781 Z M 26.6875 28.078125 "/>
</svg>
