<?xml version="1.0" encoding="UTF-8"?>
<svg xmlns="http://www.w3.org/2000/svg" xmlns:xlink="http://www.w3.org/1999/xlink" width="64" height="64" viewBox="0 0 64 64">
<path fill-rule="nonzero" fill="rgb(97.647059%, 97.647059%, 97.647059%)" fill-opacity="1" d="M 15.609375 8.464844 C 15.609375 12.410156 12.410156 15.609375 8.464844 15.609375 C 4.519531 15.609375 1.324219 12.410156 1.324219 8.464844 C 1.324219 4.519531 4.519531 1.324219 8.464844 1.324219 C 12.410156 1.324219 15.609375 4.519531 15.609375 8.464844 Z M 15.609375 8.464844 "/>
<path fill-rule="nonzero" fill="rgb(23.529412%, 43.137255%, 67.45098%)" fill-opacity="1" d="M 12.230469 5.027344 C 12.488281 5.027344 12.699219 5.296875 12.699219 5.554688 L 12.699219 10.847656 C 12.699219 11.109375 12.488281 11.367188 12.230469 11.375 L 9.539062 11.375 L 8.480469 10.828125 L 7.441406 11.054688 L 6.414062 10.792969 L 5.253906 10.910156 C 4.996094 10.9375 4.910156 10.707031 4.917969 10.449219 L 4.984375 6.523438 C 4.988281 6.261719 5.433594 6.101562 5.667969 5.992188 L 7.742188 5.027344 Z M 12.230469 5.027344 "/>
<path fill-rule="nonzero" fill="rgb(41.568627%, 89.803922%, 90.980392%)" fill-opacity="1" d="M 4.703125 5.027344 C 4.445312 5.027344 4.234375 5.296875 4.234375 5.554688 L 4.234375 10.847656 C 4.234375 11.109375 4.445312 11.375 4.703125 11.375 L 6.199219 11.375 L 7.257812 12.585938 L 8.316406 11.375 L 9.644531 11.375 C 9.910156 11.195312 10.171875 11.003906 10.421875 10.796875 C 11.585938 9.78125 11.941406 7.910156 10.859375 6.699219 C 10.121094 5.871094 8.796875 5.621094 7.933594 6.414062 C 7.363281 6.941406 7.191406 7.894531 7.757812 8.492188 C 8.125 8.878906 8.753906 8.988281 9.15625 8.59375 C 9.40625 8.34375 9.476562 7.847656 9.207031 7.585938 C 9.046875 7.429688 8.761719 7.386719 8.601562 7.566406 C 8.507812 7.664062 8.484375 7.898438 8.59375 7.996094 C 8.65625 8.046875 8.757812 8.0625 8.8125 7.992188 C 8.835938 7.960938 8.84375 7.902344 8.804688 7.875 C 8.789062 7.863281 8.757812 7.859375 8.746094 7.882812 C 8.742188 7.890625 8.742188 7.902344 8.75 7.90625 C 8.753906 7.910156 8.761719 7.910156 8.761719 7.90625 L 8.761719 7.902344 C 8.757812 7.902344 8.761719 7.898438 8.761719 7.898438 C 8.765625 7.898438 8.769531 7.902344 8.769531 7.902344 C 8.773438 7.914062 8.761719 7.925781 8.753906 7.925781 C 8.730469 7.929688 8.714844 7.910156 8.707031 7.886719 C 8.703125 7.839844 8.746094 7.808594 8.789062 7.800781 C 8.875 7.792969 8.9375 7.871094 8.941406 7.949219 C 8.953125 8.097656 8.8125 8.203125 8.675781 8.210938 C 8.4375 8.222656 8.269531 7.992188 8.261719 7.765625 C 8.257812 7.390625 8.617188 7.132812 8.96875 7.132812 C 9.535156 7.136719 9.917969 7.679688 9.90625 8.210938 C 9.886719 9.035156 9.089844 9.59375 8.3125 9.5625 C 7.140625 9.511719 6.289062 8.378906 6.351562 7.269531 C 6.40625 6.257812 7.074219 5.457031 7.941406 5.027344 Z M 4.703125 5.027344 "/>
</svg>
