<?xml version="1.0" encoding="UTF-8"?>
<svg xmlns="http://www.w3.org/2000/svg" xmlns:xlink="http://www.w3.org/1999/xlink" width="64" height="64" viewBox="0 0 64 64">
<path fill-rule="nonzero" fill="rgb(97.647059%, 97.647059%, 97.647059%)" fill-opacity="1" d="M 32 5 C 46.910156 5 59 17.089844 59 32 C 59 46.910156 46.910156 59 32 59 C 17.089844 59 5 46.910156 5 32 C 5 17.089844 17.089844 5 32 5 Z M 32 5 "/>
<path fill-rule="nonzero" fill="rgb(100%, 66.666667%, 25.490196%)" fill-opacity="1" d="M 31.851562 33.484375 L 22.113281 33.816406 C 22.113281 33.816406 20.273438 34.796875 19.167969 36.449219 C 18.261719 37.800781 17.667969 41.40625 19.789062 44.730469 C 21.6875 47.710938 25.605469 48.542969 27.234375 47.742188 C 29.054688 46.851562 32.203125 37.203125 32.203125 37.203125 Z M 31.851562 33.484375 "/>
<path fill-rule="nonzero" fill="rgb(74.509804%, 50.980392%, 29.411765%)" fill-opacity="1" d="M 31.992188 34.957031 L 31.851562 33.484375 L 22.117188 33.816406 C 22.117188 33.816406 21.878906 33.941406 21.523438 34.179688 C 24.648438 34.558594 29.070312 36.066406 31.992188 34.957031 Z M 31.992188 34.957031 "/>
<path fill-rule="nonzero" fill="rgb(34.901961%, 27.843137%, 34.901961%)" fill-opacity="1" d="M 15.605469 19.230469 C 15.339844 19.230469 15.09375 19.273438 14.875 19.367188 C 14.585938 19.484375 14.203125 19.898438 14.203125 20.652344 C 14.203125 22.945312 16.625 29.371094 17.851562 32.476562 C 18.265625 33.527344 19.132812 34.191406 20.089844 34.191406 C 20.097656 34.191406 20.109375 34.191406 20.117188 34.191406 C 22.90625 34.152344 29.890625 34.011719 32.203125 33.449219 C 32.203125 33.449219 20.40625 19.230469 15.605469 19.230469 Z M 15.605469 19.230469 "/>
<path fill-rule="nonzero" fill="rgb(100%, 66.666667%, 25.490196%)" fill-opacity="1" d="M 20.089844 32.6875 C 19.609375 32.6875 19.179688 32.355469 18.972656 31.828125 L 18.964844 31.816406 C 18.613281 30.921875 18.375 29.96875 18.253906 28.992188 C 18.042969 27.289062 17.972656 25.636719 18.191406 25.292969 C 18.546875 24.726562 20.160156 24.765625 21.933594 25.121094 C 22.34375 25.203125 22.726562 25.398438 23.054688 25.703125 C 24.988281 27.507812 26.984375 29.582031 28.746094 31.539062 C 29.007812 31.832031 28.855469 32.359375 28.503906 32.386719 C 26.359375 32.535156 23.46875 32.640625 20.089844 32.6875 Z M 20.089844 32.6875 "/>
<path fill-rule="nonzero" fill="rgb(74.509804%, 50.980392%, 29.411765%)" fill-opacity="1" d="M 18.15625 22.523438 C 18.15625 23.300781 17.636719 23.933594 16.996094 23.933594 C 16.351562 23.933594 15.832031 23.300781 15.832031 22.523438 C 15.832031 21.742188 16.351562 21.109375 16.996094 21.109375 C 17.636719 21.109375 18.15625 21.742188 18.15625 22.523438 Z M 18.15625 22.523438 "/>
<path fill-rule="nonzero" fill="rgb(56.470588%, 51.764706%, 56.470588%)" fill-opacity="1" d="M 20.089844 23.109375 C 20.089844 23.515625 19.820312 23.847656 19.484375 23.847656 C 19.148438 23.847656 18.875 23.515625 18.875 23.109375 C 18.875 22.703125 19.148438 22.375 19.484375 22.375 C 19.820312 22.375 20.089844 22.703125 20.089844 23.109375 Z M 20.089844 23.109375 "/>
<path fill-rule="nonzero" fill="rgb(56.470588%, 51.764706%, 56.470588%)" fill-opacity="1" d="M 17.285156 25.476562 C 17.285156 25.804688 17.066406 26.070312 16.796875 26.070312 C 16.523438 26.070312 16.304688 25.804688 16.304688 25.476562 C 16.304688 25.148438 16.523438 24.882812 16.796875 24.882812 C 17.066406 24.882812 17.285156 25.148438 17.285156 25.476562 Z M 17.285156 25.476562 "/>
<path fill-rule="nonzero" fill="rgb(34.901961%, 27.843137%, 34.901961%)" fill-opacity="1" d="M 20.5625 41.203125 C 19.628906 38.910156 20.289062 37.703125 19.429688 36.085938 C 19.339844 36.203125 19.25 36.324219 19.167969 36.449219 C 18.261719 37.800781 17.667969 41.40625 19.789062 44.730469 C 21.6875 47.710938 25.605469 48.542969 27.234375 47.742188 C 27.644531 47.542969 28.121094 46.894531 28.613281 46.019531 C 25.433594 46.636719 21.992188 44.710938 20.5625 41.203125 Z M 20.5625 41.203125 "/>
<path fill-rule="nonzero" fill="rgb(74.509804%, 50.980392%, 29.411765%)" fill-opacity="1" d="M 23.054688 25.703125 C 22.726562 25.398438 22.339844 25.199219 21.933594 25.121094 C 20.394531 24.8125 18.976562 24.742188 18.394531 25.101562 C 21.78125 27.097656 26.101562 30.710938 28.074219 32.414062 C 28.214844 32.402344 28.363281 32.394531 28.503906 32.386719 C 28.855469 32.359375 29.007812 31.828125 28.746094 31.539062 C 26.984375 29.582031 24.988281 27.507812 23.054688 25.703125 Z M 23.054688 25.703125 "/>
<path fill-rule="nonzero" fill="rgb(100%, 66.666667%, 25.490196%)" fill-opacity="1" d="M 32.550781 33.484375 L 42.289062 33.816406 C 42.289062 33.816406 44.128906 34.796875 45.234375 36.449219 C 46.140625 37.800781 46.734375 41.40625 44.617188 44.730469 C 42.714844 47.710938 38.796875 48.542969 37.167969 47.742188 C 35.347656 46.851562 32.203125 37.203125 32.203125 37.203125 Z M 32.550781 33.484375 "/>
<path fill-rule="nonzero" fill="rgb(74.509804%, 50.980392%, 29.411765%)" fill-opacity="1" d="M 32.414062 34.957031 L 32.550781 33.484375 L 42.289062 33.816406 C 42.289062 33.816406 42.523438 33.941406 42.878906 34.179688 C 39.753906 34.558594 35.332031 36.066406 32.414062 34.957031 Z M 32.414062 34.957031 "/>
<path fill-rule="nonzero" fill="rgb(34.901961%, 27.843137%, 34.901961%)" fill-opacity="1" d="M 32.203125 33.449219 C 34.511719 34.011719 41.496094 34.152344 44.285156 34.191406 C 44.292969 34.191406 44.304688 34.191406 44.3125 34.191406 C 45.269531 34.191406 46.136719 33.527344 46.550781 32.476562 C 47.777344 29.371094 50.203125 22.945312 50.203125 20.652344 C 50.203125 19.898438 49.816406 19.484375 49.527344 19.367188 C 49.308594 19.273438 49.0625 19.230469 48.796875 19.230469 C 43.996094 19.230469 32.203125 33.449219 32.203125 33.449219 Z M 32.203125 33.449219 "/>
<path fill-rule="nonzero" fill="rgb(100%, 66.666667%, 25.490196%)" fill-opacity="1" d="M 35.902344 32.382812 C 35.546875 32.359375 35.394531 31.828125 35.65625 31.539062 C 37.417969 29.582031 39.414062 27.507812 41.347656 25.703125 C 41.675781 25.398438 42.0625 25.199219 42.46875 25.121094 C 44.242188 24.765625 45.855469 24.726562 46.214844 25.292969 C 46.433594 25.636719 46.363281 27.289062 46.152344 28.992188 C 46.03125 29.96875 45.789062 30.921875 45.4375 31.816406 L 45.433594 31.828125 C 45.222656 32.355469 44.792969 32.683594 44.3125 32.683594 C 40.9375 32.640625 38.042969 32.535156 35.902344 32.382812 Z M 35.902344 32.382812 "/>
<path fill-rule="nonzero" fill="rgb(74.509804%, 50.980392%, 29.411765%)" fill-opacity="1" d="M 48.570312 22.523438 C 48.570312 23.300781 48.050781 23.933594 47.410156 23.933594 C 46.765625 23.933594 46.246094 23.300781 46.246094 22.523438 C 46.246094 21.742188 46.765625 21.109375 47.410156 21.109375 C 48.050781 21.109375 48.570312 21.742188 48.570312 22.523438 Z M 48.570312 22.523438 "/>
<path fill-rule="nonzero" fill="rgb(56.470588%, 51.764706%, 56.470588%)" fill-opacity="1" d="M 45.527344 23.109375 C 45.527344 23.515625 45.253906 23.847656 44.917969 23.847656 C 44.585938 23.847656 44.3125 23.515625 44.3125 23.109375 C 44.3125 22.703125 44.585938 22.375 44.917969 22.375 C 45.253906 22.375 45.527344 22.703125 45.527344 23.109375 Z M 45.527344 23.109375 "/>
<path fill-rule="nonzero" fill="rgb(56.470588%, 51.764706%, 56.470588%)" fill-opacity="1" d="M 48.097656 25.476562 C 48.097656 25.804688 47.878906 26.070312 47.609375 26.070312 C 47.335938 26.070312 47.117188 25.804688 47.117188 25.476562 C 47.117188 25.148438 47.335938 24.882812 47.609375 24.882812 C 47.878906 24.882812 48.097656 25.148438 48.097656 25.476562 Z M 48.097656 25.476562 "/>
<path fill-rule="nonzero" fill="rgb(34.901961%, 27.843137%, 34.901961%)" fill-opacity="1" d="M 43.839844 41.203125 C 44.773438 38.910156 44.113281 37.703125 44.972656 36.085938 C 45.0625 36.203125 45.152344 36.324219 45.234375 36.449219 C 46.140625 37.800781 46.734375 41.40625 44.613281 44.730469 C 42.714844 47.710938 38.796875 48.542969 37.167969 47.742188 C 36.757812 47.542969 36.28125 46.894531 35.789062 46.019531 C 38.96875 46.636719 42.410156 44.710938 43.839844 41.203125 Z M 43.839844 41.203125 "/>
<path fill-rule="nonzero" fill="rgb(74.509804%, 50.980392%, 29.411765%)" fill-opacity="1" d="M 41.347656 25.703125 C 41.675781 25.398438 42.0625 25.199219 42.46875 25.121094 C 44.007812 24.8125 45.425781 24.742188 46.007812 25.101562 C 42.625 27.097656 38.300781 30.710938 36.332031 32.414062 C 36.1875 32.402344 36.039062 32.394531 35.902344 32.386719 C 35.546875 32.359375 35.394531 31.828125 35.65625 31.539062 C 37.417969 29.582031 39.414062 27.507812 41.347656 25.703125 Z M 41.347656 25.703125 "/>
<path fill-rule="nonzero" fill="rgb(56.470588%, 51.764706%, 56.470588%)" fill-opacity="1" d="M 32.203125 32.308594 C 32.09375 32.308594 31.996094 32.242188 31.9375 32.132812 L 28.835938 26.109375 C 28.742188 25.933594 28.789062 25.699219 28.933594 25.589844 C 29.078125 25.480469 29.269531 25.53125 29.359375 25.710938 L 32.203125 31.222656 L 35.042969 25.710938 C 35.132812 25.53125 35.324219 25.480469 35.46875 25.589844 C 35.613281 25.699219 35.660156 25.933594 35.566406 26.109375 L 32.464844 32.132812 C 32.40625 32.242188 32.308594 32.308594 32.203125 32.308594 Z M 32.203125 32.308594 "/>
<path fill-rule="nonzero" fill="rgb(27.45098%, 19.607843%, 27.45098%)" fill-opacity="1" d="M 32.203125 44.730469 C 31.859375 44.730469 31.582031 44.394531 31.582031 43.980469 L 31.582031 36.449219 C 31.582031 36.035156 31.859375 35.695312 32.203125 35.695312 C 32.542969 35.695312 32.820312 36.035156 32.820312 36.449219 L 32.820312 43.980469 C 32.820312 44.394531 32.542969 44.730469 32.203125 44.730469 Z M 32.203125 44.730469 "/>
<path fill-rule="nonzero" fill="rgb(27.45098%, 19.607843%, 27.45098%)" fill-opacity="1" d="M 32.203125 34.566406 C 31.6875 34.566406 31.269531 34.0625 31.269531 33.4375 L 31.269531 31.933594 C 31.269531 31.308594 31.6875 30.804688 32.203125 30.804688 C 32.714844 30.804688 33.132812 31.308594 33.132812 31.933594 L 33.132812 33.4375 C 33.132812 34.0625 32.714844 34.566406 32.203125 34.566406 Z M 32.203125 34.566406 "/>
<path fill-rule="nonzero" fill="rgb(34.901961%, 27.843137%, 34.901961%)" fill-opacity="1" d="M 32.203125 37.203125 C 31.515625 37.203125 30.960938 36.527344 30.960938 35.695312 L 30.960938 34.191406 C 30.960938 33.359375 31.515625 32.683594 32.203125 32.683594 C 32.886719 32.683594 33.441406 33.359375 33.441406 34.191406 L 33.441406 35.695312 C 33.441406 36.527344 32.886719 37.203125 32.203125 37.203125 Z M 32.203125 37.203125 "/>
</svg>
