<?xml version="1.0" encoding="UTF-8"?>
<svg xmlns="http://www.w3.org/2000/svg" xmlns:xlink="http://www.w3.org/1999/xlink" width="64" height="64" viewBox="0 0 64 64">
<path fill-rule="nonzero" fill="rgb(40.784314%, 81.960784%, 46.666667%)" fill-opacity="1" d="M 15.609375 8.464844 C 15.609375 12.410156 12.410156 15.609375 8.464844 15.609375 C 4.519531 15.609375 1.324219 12.410156 1.324219 8.464844 C 1.324219 4.519531 4.519531 1.324219 8.464844 1.324219 C 12.410156 1.324219 15.609375 4.519531 15.609375 8.464844 Z M 15.609375 8.464844 "/>
<path fill-rule="nonzero" fill="rgb(100%, 100%, 100%)" fill-opacity="1" d="M 7.316406 5.464844 L 7.316406 8.367188 L 8.628906 8.367188 C 9.113281 8.367188 9.492188 8.238281 9.753906 7.988281 C 10.019531 7.738281 10.152344 7.378906 10.152344 6.914062 C 10.152344 6.453125 10.019531 6.09375 9.753906 5.84375 C 9.492188 5.59375 9.113281 5.464844 8.628906 5.464844 Z M 6.273438 4.609375 L 8.628906 4.609375 C 9.492188 4.609375 10.148438 4.804688 10.585938 5.199219 C 11.03125 5.585938 11.253906 6.160156 11.253906 6.914062 C 11.253906 7.675781 11.03125 8.25 10.585938 8.640625 C 10.148438 9.027344 9.492188 9.222656 8.628906 9.222656 L 7.316406 9.222656 L 7.316406 12.324219 L 6.273438 12.324219 Z M 6.273438 4.609375 "/>
</svg>
