<?xml version="1.0" encoding="UTF-8"?>
<svg xmlns="http://www.w3.org/2000/svg" xmlns:xlink="http://www.w3.org/1999/xlink" width="64" height="64" viewBox="0 0 64 64">
<path fill-rule="nonzero" fill="rgb(96.470588%, 53.333333%, 33.333333%)" fill-opacity="1" d="M 15.609375 8.464844 C 15.609375 12.410156 12.410156 15.609375 8.464844 15.609375 C 4.519531 15.609375 1.324219 12.410156 1.324219 8.464844 C 1.324219 4.519531 4.519531 1.324219 8.464844 1.324219 C 12.410156 1.324219 15.609375 4.519531 15.609375 8.464844 Z M 15.609375 8.464844 "/>
<path fill-rule="nonzero" fill="rgb(100%, 100%, 100%)" fill-opacity="1" d="M 10.71875 4.855469 L 10.71875 5.875 C 10.320312 5.683594 9.945312 5.542969 9.597656 5.453125 C 9.246094 5.359375 8.90625 5.3125 8.578125 5.3125 C 8.007812 5.3125 7.570312 5.421875 7.261719 5.640625 C 6.953125 5.863281 6.800781 6.175781 6.800781 6.582031 C 6.800781 6.925781 6.902344 7.183594 7.105469 7.359375 C 7.3125 7.53125 7.699219 7.667969 8.273438 7.777344 L 8.902344 7.90625 C 9.683594 8.054688 10.253906 8.316406 10.625 8.691406 C 10.996094 9.0625 11.183594 9.5625 11.183594 10.191406 C 11.183594 10.9375 10.929688 11.503906 10.429688 11.890625 C 9.929688 12.277344 9.195312 12.46875 8.226562 12.46875 C 7.859375 12.46875 7.472656 12.425781 7.058594 12.34375 C 6.648438 12.261719 6.222656 12.140625 5.78125 11.976562 L 5.78125 10.902344 C 6.207031 11.140625 6.621094 11.320312 7.027344 11.441406 C 7.433594 11.5625 7.832031 11.621094 8.226562 11.621094 C 8.824219 11.621094 9.28125 11.503906 9.605469 11.269531 C 9.929688 11.035156 10.09375 10.703125 10.09375 10.265625 C 10.09375 9.886719 9.976562 9.59375 9.742188 9.378906 C 9.507812 9.164062 9.128906 9.003906 8.597656 8.898438 L 7.960938 8.773438 C 7.183594 8.617188 6.621094 8.375 6.273438 8.046875 C 5.925781 7.714844 5.75 7.253906 5.75 6.664062 C 5.75 5.984375 5.992188 5.445312 6.46875 5.054688 C 6.953125 4.660156 7.613281 4.464844 8.457031 4.464844 C 8.820312 4.464844 9.1875 4.496094 9.566406 4.5625 C 9.941406 4.628906 10.324219 4.726562 10.71875 4.855469 Z M 10.71875 4.855469 "/>
</svg>
