<?xml version="1.0" encoding="UTF-8"?>
<svg xmlns="http://www.w3.org/2000/svg" xmlns:xlink="http://www.w3.org/1999/xlink" width="64" height="64" viewBox="0 0 64 64">
<defs>
<clipPath id="clip-0">
<rect x="0" y="0" width="17" height="17"/>
</clipPath>
<g id="source-9830" clip-path="url(#clip-0)">
<path fill-rule="nonzero" fill="rgb(89.411765%, 89.411765%, 89.411765%)" fill-opacity="1" d="M 8.464844 6.648438 C 8.976562 6.648438 9.394531 7.0625 9.394531 7.574219 L 9.394531 11.773438 C 9.394531 12.285156 8.976562 12.699219 8.464844 12.699219 C 7.957031 12.699219 7.539062 12.285156 7.539062 11.773438 L 7.539062 7.574219 C 7.539062 7.0625 7.957031 6.648438 8.464844 6.648438 Z M 8.464844 6.648438 "/>
</g>
<clipPath id="clip-1">
<rect x="0" y="0" width="17" height="17"/>
</clipPath>
<g id="source-9834" clip-path="url(#clip-1)">
<path fill-rule="nonzero" fill="rgb(98.039216%, 31.764706%, 18.431373%)" fill-opacity="1" d="M 8.464844 7.347656 C 8.6875 7.347656 8.863281 7.527344 8.863281 7.746094 L 8.863281 11.492188 C 8.863281 11.710938 8.6875 11.890625 8.464844 11.890625 C 8.246094 11.890625 8.070312 11.710938 8.070312 11.492188 L 8.070312 7.746094 C 8.070312 7.527344 8.246094 7.347656 8.464844 7.347656 Z M 8.464844 7.347656 "/>
</g>
<clipPath id="clip-2">
<rect x="0" y="0" width="17" height="17"/>
</clipPath>
<g id="source-9838" clip-path="url(#clip-2)">
<path fill-rule="nonzero" fill="rgb(100%, 100%, 100%)" fill-opacity="1" d="M 9.261719 4.234375 L 9.261719 5.507812 L 8.464844 6.039062 L 7.671875 5.507812 L 7.671875 4.234375 C 7.027344 4.539062 6.613281 5.1875 6.613281 5.90625 C 6.613281 6.929688 7.441406 7.757812 8.464844 7.757812 C 9.488281 7.757812 10.320312 6.929688 10.320312 5.90625 C 10.320312 5.1875 9.90625 4.539062 9.261719 4.234375 Z M 9.261719 4.234375 "/>
</g>
</defs>
<path fill-rule="nonzero" fill="rgb(0.784314%, 55.686275%, 49.019608%)" fill-opacity="1" d="M 15.609375 8.464844 C 15.609375 12.410156 12.410156 15.609375 8.464844 15.609375 C 4.519531 15.609375 1.324219 12.410156 1.324219 8.464844 C 1.324219 4.519531 4.519531 1.324219 8.464844 1.324219 C 12.410156 1.324219 15.609375 4.519531 15.609375 8.464844 Z M 15.609375 8.464844 "/>
<use xlink:href="#source-9830"/>
<use xlink:href="#source-9834"/>
<use xlink:href="#source-9838"/>
</svg>
