<?xml version="1.0" encoding="UTF-8"?>
<svg xmlns="http://www.w3.org/2000/svg" xmlns:xlink="http://www.w3.org/1999/xlink" width="64" height="64" viewBox="0 0 64 64">
<defs>
<filter id="filter-remove-color" x="0%" y="0%" width="100%" height="100%">
<feColorMatrix color-interpolation-filters="sRGB" values="0 0 0 0 1 0 0 0 0 1 0 0 0 0 1 0 0 0 1 0" />
</filter>
<mask id="mask-0">
<g filter="url(#filter-remove-color)">
<rect x="-6.4" y="-6.4" width="76.8" height="76.8" fill="rgb(0%, 0%, 0%)" fill-opacity="0.15"/>
</g>
</mask>
<clipPath id="clip-0">
<rect x="0" y="0" width="17" height="17"/>
</clipPath>
<g id="source-15820" clip-path="url(#clip-0)">
<path fill-rule="nonzero" fill="rgb(100%, 100%, 100%)" fill-opacity="1" d="M 14.289062 8.460938 C 14.289062 11.675781 11.683594 14.28125 8.46875 14.28125 C 5.253906 14.28125 2.644531 11.675781 2.644531 8.460938 C 2.644531 5.246094 5.253906 2.640625 8.46875 2.640625 C 11.683594 2.640625 14.289062 5.246094 14.289062 8.460938 Z M 14.289062 8.460938 "/>
</g>
<mask id="mask-1">
<g filter="url(#filter-remove-color)">
<rect x="-6.4" y="-6.4" width="76.8" height="76.8" fill="rgb(0%, 0%, 0%)" fill-opacity="0.75"/>
</g>
</mask>
<mask id="mask-2">
<g filter="url(#filter-remove-color)">
<rect x="-14.08" y="-14.08" width="92.16" height="92.16" fill="rgb(0%, 0%, 0%)" fill-opacity="0.6"/>
</g>
</mask>
<clipPath id="clip-1">
<rect x="0" y="0" width="17" height="17"/>
</clipPath>
<g id="source-15825" clip-path="url(#clip-1)">
<path fill-rule="evenodd" fill="rgb(100%, 100%, 100%)" fill-opacity="1" d="M 7.390625 13.222656 L 8.441406 12.609375 L 8.441406 12.058594 L 7.972656 11.558594 L 8.441406 11.140625 L 8.441406 10.984375 L 7.96875 10.492188 L 8.441406 9.988281 L 7.964844 9.472656 L 8.441406 9.015625 L 8.441406 7.996094 C 8.195312 8.105469 7.789062 8.253906 7.398438 8.246094 C 7.398438 8.246094 7.390625 9.902344 7.390625 13.222656 Z M 7.390625 13.222656 "/>
</g>
<clipPath id="clip-2">
<rect x="0" y="0" width="17" height="17"/>
</clipPath>
<g id="source-15827" clip-path="url(#clip-2)">
<g mask="url(#mask-2)">
<use xlink:href="#source-15825"/>
</g>
</g>
<mask id="mask-3">
<g filter="url(#filter-remove-color)">
<rect x="-6.4" y="-6.4" width="76.8" height="76.8" fill="rgb(0%, 0%, 0%)" fill-opacity="0.75"/>
</g>
</mask>
<clipPath id="clip-3">
<rect x="0" y="0" width="17" height="17"/>
</clipPath>
<g id="source-15831" clip-path="url(#clip-3)">
<path fill-rule="evenodd" fill="rgb(100%, 100%, 100%)" fill-opacity="1" d="M 7.410156 3.699219 C 6.804688 3.699219 6.226562 3.941406 5.796875 4.367188 C 5.367188 4.796875 5.128906 5.378906 5.128906 5.984375 C 5.128906 6.839844 5.605469 7.625 6.363281 8.019531 L 6.363281 12.609375 L 7.390625 13.226562 C 7.398438 9.925781 7.40625 8.289062 7.40625 8.273438 L 7.410156 8.273438 C 8.65625 8.246094 9.652344 7.230469 9.652344 5.988281 C 9.652344 4.742188 8.65625 3.726562 7.410156 3.699219 Z M 7.40625 4.378906 C 7.777344 4.378906 8.082031 4.679688 8.082031 5.054688 C 8.082031 5.234375 8.011719 5.40625 7.882812 5.53125 C 7.757812 5.660156 7.585938 5.730469 7.40625 5.730469 C 7.226562 5.730469 7.054688 5.660156 6.925781 5.535156 C 6.796875 5.40625 6.726562 5.234375 6.726562 5.054688 C 6.726562 4.679688 7.03125 4.378906 7.40625 4.378906 Z M 7.40625 4.378906 "/>
</g>
<mask id="mask-4">
<g filter="url(#filter-remove-color)">
<rect x="-6.4" y="-6.4" width="76.8" height="76.8" fill="rgb(0%, 0%, 0%)" fill-opacity="0.6"/>
</g>
</mask>
<clipPath id="clip-4">
<rect x="0" y="0" width="17" height="17"/>
</clipPath>
<g id="source-15836" clip-path="url(#clip-4)">
<path fill-rule="evenodd" fill="rgb(100%, 100%, 100%)" fill-opacity="1" d="M 9.496094 13.222656 L 10.550781 12.609375 L 10.550781 12.058594 L 10.082031 11.558594 L 10.550781 11.140625 L 10.550781 10.984375 L 10.078125 10.492188 L 10.550781 9.988281 L 10.074219 9.472656 L 10.550781 9.015625 L 10.550781 7.996094 C 10.304688 8.105469 9.898438 8.253906 9.507812 8.246094 C 9.507812 8.246094 9.5 9.902344 9.496094 13.222656 Z M 9.496094 13.222656 "/>
</g>
</defs>
<path fill-rule="nonzero" fill="rgb(95.294118%, 61.176471%, 7.058824%)" fill-opacity="1" d="M 15.609375 8.460938 C 15.609375 12.40625 12.410156 15.605469 8.464844 15.605469 C 4.519531 15.605469 1.324219 12.40625 1.324219 8.460938 C 1.324219 4.515625 4.519531 1.316406 8.464844 1.316406 C 12.410156 1.316406 15.609375 4.515625 15.609375 8.460938 Z M 15.609375 8.460938 "/>
<g mask="url(#mask-0)">
<use xlink:href="#source-15820"/>
</g>
<g mask="url(#mask-1)">
<use xlink:href="#source-15827"/>
</g>
<g mask="url(#mask-3)">
<use xlink:href="#source-15831"/>
</g>
<path fill-rule="evenodd" fill="rgb(100%, 100%, 100%)" fill-opacity="1" d="M 9.519531 3.699219 C 8.914062 3.699219 8.335938 3.941406 7.90625 4.367188 C 7.476562 4.796875 7.238281 5.378906 7.238281 5.984375 C 7.238281 6.839844 7.714844 7.625 8.472656 8.019531 L 8.472656 12.609375 L 9.5 13.226562 C 9.507812 9.925781 9.515625 8.289062 9.515625 8.273438 L 9.519531 8.273438 C 10.765625 8.246094 11.761719 7.230469 11.761719 5.988281 C 11.761719 4.742188 10.765625 3.726562 9.519531 3.699219 Z M 9.515625 4.378906 C 9.890625 4.378906 10.191406 4.679688 10.191406 5.054688 C 10.191406 5.234375 10.121094 5.40625 9.992188 5.53125 C 9.867188 5.660156 9.695312 5.730469 9.515625 5.730469 C 9.335938 5.730469 9.160156 5.660156 9.035156 5.535156 C 8.90625 5.40625 8.835938 5.234375 8.835938 5.054688 C 8.835938 4.679688 9.140625 4.378906 9.515625 4.378906 Z M 9.515625 4.378906 "/>
<g mask="url(#mask-4)">
<use xlink:href="#source-15836"/>
</g>
</svg>
