<?xml version="1.0" encoding="UTF-8"?>
<svg xmlns="http://www.w3.org/2000/svg" xmlns:xlink="http://www.w3.org/1999/xlink" width="64" height="64" viewBox="0 0 64 64">
<defs>
<filter id="filter-remove-color" x="0%" y="0%" width="100%" height="100%">
<feColorMatrix color-interpolation-filters="sRGB" values="0 0 0 0 1 0 0 0 0 1 0 0 0 0 1 0 0 0 1 0" />
</filter>
<mask id="mask-0">
<g filter="url(#filter-remove-color)">
<rect x="-6.4" y="-6.4" width="76.8" height="76.8" fill="rgb(0%, 0%, 0%)" fill-opacity="0.15"/>
</g>
</mask>
<clipPath id="clip-0">
<rect x="0" y="0" width="17" height="17"/>
</clipPath>
<g id="source-5917" clip-path="url(#clip-0)">
<path fill-rule="nonzero" fill="rgb(0%, 0%, 0%)" fill-opacity="1" d="M 14.289062 8.460938 C 14.289062 5.246094 11.683594 2.636719 8.46875 2.636719 C 5.253906 2.636719 2.644531 5.246094 2.644531 8.460938 C 2.644531 11.675781 5.253906 14.28125 8.46875 14.28125 C 11.683594 14.28125 14.289062 11.675781 14.289062 8.460938 Z M 14.289062 8.460938 "/>
</g>
<mask id="mask-1">
<g filter="url(#filter-remove-color)">
<rect x="-6.4" y="-6.4" width="76.8" height="76.8" fill="rgb(0%, 0%, 0%)" fill-opacity="0.5"/>
</g>
</mask>
<clipPath id="clip-1">
<rect x="0" y="0" width="17" height="17"/>
</clipPath>
<g id="source-5921" clip-path="url(#clip-1)">
<path fill-rule="nonzero" fill="rgb(97.647059%, 97.647059%, 97.647059%)" fill-opacity="1" d="M 8.511719 4.964844 C 6.8125 4.964844 5.125 5.394531 5.125 5.929688 L 5.125 6.699219 C 5.125 7.230469 6.8125 7.738281 8.511719 7.738281 C 10.210938 7.738281 11.898438 7.230469 11.898438 6.695312 L 11.898438 5.929688 C 11.898438 5.394531 10.210938 4.964844 8.511719 4.964844 "/>
</g>
<mask id="mask-2">
<g filter="url(#filter-remove-color)">
<rect x="-6.4" y="-6.4" width="76.8" height="76.8" fill="rgb(0%, 0%, 0%)" fill-opacity="0.5"/>
</g>
</mask>
<clipPath id="clip-2">
<rect x="0" y="0" width="17" height="17"/>
</clipPath>
<g id="source-5925" clip-path="url(#clip-2)">
<path fill-rule="nonzero" fill="rgb(97.647059%, 97.647059%, 97.647059%)" fill-opacity="1" d="M 8.820312 8.351562 C 7.441406 8.351562 5.652344 8.070312 5.261719 7.679688 C 5.179688 7.753906 5.128906 7.855469 5.125 7.96875 L 5.125 8.738281 C 5.125 9.269531 7.121094 9.585938 8.820312 9.585938 C 10.519531 9.585938 11.898438 9.269531 11.898438 8.738281 L 11.898438 7.96875 C 11.898438 7.867188 11.84375 7.769531 11.753906 7.679688 C 11.359375 8.070312 10.195312 8.351562 8.820312 8.351562 M 8.820312 10.507812 C 7.441406 10.507812 5.652344 10.109375 5.261719 9.71875 C 5.179688 9.792969 5.128906 9.898438 5.125 10.007812 L 5.125 10.777344 C 5.125 11.308594 7.121094 11.738281 8.820312 11.738281 C 10.519531 11.738281 11.898438 11.308594 11.898438 10.777344 L 11.898438 10.007812 C 11.898438 9.90625 11.84375 9.808594 11.753906 9.71875 C 11.359375 10.109375 10.195312 10.507812 8.820312 10.507812 "/>
</g>
</defs>
<path fill-rule="nonzero" fill="rgb(14.901961%, 54.509804%, 81.176471%)" fill-opacity="1" d="M 15.609375 8.464844 C 15.609375 4.519531 12.410156 1.324219 8.464844 1.324219 C 4.519531 1.324219 1.324219 4.519531 1.324219 8.464844 C 1.324219 12.410156 4.519531 15.609375 8.464844 15.609375 C 12.410156 15.609375 15.609375 12.410156 15.609375 8.464844 Z M 15.609375 8.464844 "/>
<g mask="url(#mask-0)">
<use xlink:href="#source-5917"/>
</g>
<g mask="url(#mask-1)">
<use xlink:href="#source-5921"/>
</g>
<g mask="url(#mask-2)">
<use xlink:href="#source-5925"/>
</g>
<path fill-rule="nonzero" fill="rgb(100%, 100%, 100%)" fill-opacity="1" d="M 9.789062 7.671875 L 9.671875 8.277344 C 9.519531 8.316406 9.378906 8.378906 9.25 8.449219 L 8.710938 8.105469 L 8.1875 8.613281 L 8.539062 9.136719 C 8.464844 9.261719 8.40625 9.394531 8.367188 9.539062 L 7.742188 9.65625 L 7.742188 10.386719 L 8.367188 10.507812 C 8.40625 10.648438 8.464844 10.789062 8.539062 10.917969 L 8.1875 11.433594 L 8.710938 11.945312 L 9.25 11.59375 C 9.378906 11.664062 9.519531 11.726562 9.671875 11.765625 L 9.789062 12.375 L 10.542969 12.375 L 10.664062 11.765625 C 10.8125 11.726562 10.953125 11.664062 11.085938 11.59375 L 11.625 11.945312 L 12.144531 11.433594 L 11.796875 10.917969 C 11.867188 10.789062 11.925781 10.648438 11.964844 10.507812 L 12.59375 10.386719 L 12.59375 9.65625 L 11.964844 9.539062 C 11.925781 9.398438 11.867188 9.261719 11.796875 9.136719 L 12.144531 8.613281 L 11.621094 8.105469 L 11.082031 8.449219 C 10.949219 8.375 10.808594 8.316406 10.664062 8.277344 L 10.542969 7.671875 Z M 10.167969 9.195312 C 10.621094 9.195312 10.988281 9.5625 10.988281 10.015625 C 10.988281 10.472656 10.621094 10.839844 10.167969 10.839844 C 9.710938 10.839844 9.34375 10.472656 9.34375 10.015625 C 9.34375 9.5625 9.710938 9.195312 10.167969 9.195312 Z M 10.167969 9.195312 "/>
</svg>
