<?xml version="1.0" encoding="UTF-8"?>
<svg xmlns="http://www.w3.org/2000/svg" xmlns:xlink="http://www.w3.org/1999/xlink" width="64" height="64" viewBox="0 0 64 64">
<defs>
<filter id="filter-remove-color" x="0%" y="0%" width="100%" height="100%">
<feColorMatrix color-interpolation-filters="sRGB" values="0 0 0 0 1 0 0 0 0 1 0 0 0 0 1 0 0 0 1 0" />
</filter>
<mask id="mask-0">
<g filter="url(#filter-remove-color)">
<rect x="-6.4" y="-6.4" width="76.8" height="76.8" fill="rgb(0%, 0%, 0%)" fill-opacity="0.15"/>
</g>
</mask>
<clipPath id="clip-0">
<rect x="0" y="0" width="17" height="17"/>
</clipPath>
<g id="source-7852" clip-path="url(#clip-0)">
<path fill-rule="nonzero" fill="rgb(0%, 0%, 0%)" fill-opacity="1" d="M 14.289062 8.460938 C 14.289062 5.246094 11.683594 2.636719 8.46875 2.636719 C 5.253906 2.636719 2.644531 5.246094 2.644531 8.460938 C 2.644531 11.675781 5.253906 14.28125 8.46875 14.28125 C 11.683594 14.28125 14.289062 11.675781 14.289062 8.460938 Z M 14.289062 8.460938 "/>
</g>
<mask id="mask-1">
<g filter="url(#filter-remove-color)">
<rect x="-6.4" y="-6.4" width="76.8" height="76.8" fill="rgb(0%, 0%, 0%)" fill-opacity="0.5"/>
</g>
</mask>
<clipPath id="clip-1">
<rect x="0" y="0" width="17" height="17"/>
</clipPath>
<g id="source-7856" clip-path="url(#clip-1)">
<path fill-rule="nonzero" fill="rgb(97.647059%, 97.647059%, 97.647059%)" fill-opacity="1" d="M 8.511719 4.964844 C 6.8125 4.964844 5.125 5.394531 5.125 5.929688 L 5.125 6.699219 C 5.125 7.230469 6.8125 7.738281 8.511719 7.738281 C 10.210938 7.738281 11.898438 7.230469 11.898438 6.695312 L 11.898438 5.929688 C 11.898438 5.394531 10.210938 4.964844 8.511719 4.964844 "/>
</g>
<mask id="mask-2">
<g filter="url(#filter-remove-color)">
<rect x="-6.4" y="-6.4" width="76.8" height="76.8" fill="rgb(0%, 0%, 0%)" fill-opacity="0.5"/>
</g>
</mask>
<clipPath id="clip-2">
<rect x="0" y="0" width="17" height="17"/>
</clipPath>
<g id="source-7860" clip-path="url(#clip-2)">
<path fill-rule="nonzero" fill="rgb(97.647059%, 97.647059%, 97.647059%)" fill-opacity="1" d="M 8.820312 8.351562 C 7.441406 8.351562 5.652344 8.070312 5.261719 7.679688 C 5.179688 7.753906 5.128906 7.855469 5.125 7.96875 L 5.125 8.738281 C 5.125 9.269531 7.121094 9.585938 8.820312 9.585938 C 10.519531 9.585938 11.898438 9.269531 11.898438 8.738281 L 11.898438 7.96875 C 11.898438 7.867188 11.84375 7.769531 11.753906 7.679688 C 11.359375 8.070312 10.195312 8.351562 8.820312 8.351562 M 8.820312 10.507812 C 7.441406 10.507812 5.652344 10.109375 5.261719 9.71875 C 5.179688 9.792969 5.128906 9.898438 5.125 10.007812 L 5.125 10.777344 C 5.125 11.308594 7.121094 11.738281 8.820312 11.738281 C 10.519531 11.738281 11.898438 11.308594 11.898438 10.777344 L 11.898438 10.007812 C 11.898438 9.90625 11.84375 9.808594 11.753906 9.71875 C 11.359375 10.109375 10.195312 10.507812 8.820312 10.507812 "/>
</g>
</defs>
<path fill-rule="nonzero" fill="rgb(14.901961%, 54.509804%, 81.176471%)" fill-opacity="1" d="M 15.609375 8.464844 C 15.609375 4.519531 12.410156 1.324219 8.464844 1.324219 C 4.519531 1.324219 1.324219 4.519531 1.324219 8.464844 C 1.324219 12.410156 4.519531 15.609375 8.464844 15.609375 C 12.410156 15.609375 15.609375 12.410156 15.609375 8.464844 Z M 15.609375 8.464844 "/>
<g mask="url(#mask-0)">
<use xlink:href="#source-7852"/>
</g>
<g mask="url(#mask-1)">
<use xlink:href="#source-7856"/>
</g>
<g mask="url(#mask-2)">
<use xlink:href="#source-7860"/>
</g>
<path fill-rule="nonzero" fill="rgb(100%, 100%, 100%)" fill-opacity="1" d="M 8.703125 7.671875 C 8.546875 7.671875 8.390625 7.703125 8.242188 7.757812 L 9.035156 8.550781 C 9.238281 8.753906 9.238281 9.089844 9.035156 9.292969 C 8.828125 9.5 8.496094 9.5 8.289062 9.292969 L 7.5 8.503906 C 7.308594 8.988281 7.421875 9.542969 7.792969 9.914062 C 8.171875 10.292969 8.734375 10.390625 9.203125 10.207031 L 11.261719 12.265625 C 11.46875 12.472656 11.800781 12.472656 12.003906 12.265625 C 12.210938 12.0625 12.210938 11.730469 12.007812 11.523438 L 9.949219 9.46875 C 10.140625 8.980469 10.023438 8.425781 9.652344 8.054688 C 9.402344 7.804688 9.058594 7.664062 8.703125 7.671875 M 11.632812 11.714844 C 11.730469 11.714844 11.808594 11.792969 11.808594 11.890625 C 11.808594 11.988281 11.730469 12.070312 11.632812 12.070312 C 11.53125 12.070312 11.453125 11.988281 11.453125 11.890625 C 11.453125 11.792969 11.53125 11.714844 11.632812 11.714844 "/>
</svg>
