<?xml version="1.0" encoding="UTF-8"?>
<svg xmlns="http://www.w3.org/2000/svg" xmlns:xlink="http://www.w3.org/1999/xlink" width="64" height="64" viewBox="0 0 64 64">
<path fill-rule="nonzero" fill="rgb(96.470588%, 27.843137%, 41.960784%)" fill-opacity="1" d="M 15.609375 8.46875 C 15.609375 12.414062 12.414062 15.613281 8.46875 15.613281 C 4.519531 15.613281 1.324219 12.414062 1.324219 8.46875 C 1.324219 4.523438 4.519531 1.328125 8.46875 1.328125 C 12.414062 1.328125 15.609375 4.523438 15.609375 8.46875 Z M 15.609375 8.46875 "/>
<path fill-rule="nonzero" fill="rgb(100%, 100%, 100%)" fill-opacity="1" d="M 4.96875 7.085938 C 5.015625 6.945312 5.023438 6.859375 5.039062 6.78125 C 4.910156 6.941406 4.980469 6.972656 4.96875 7.085938 M 5.207031 6.113281 C 5.226562 6.324219 5.042969 6.40625 5.246094 6.265625 C 5.355469 6.027344 5.203125 6.199219 5.207031 6.113281 M 8.738281 4.277344 C 8.839844 4.242188 8.984375 4.257812 9.09375 4.234375 C 8.953125 4.246094 8.816406 4.25 8.679688 4.269531 L 8.738281 4.277344 M 11.972656 8.195312 L 11.949219 8.246094 C 11.910156 8.527344 11.824219 8.800781 11.691406 9.054688 C 11.835938 8.785156 11.933594 8.492188 11.972656 8.195312 M 7.878906 9.0625 C 7.828125 9.007812 7.796875 8.941406 7.761719 8.871094 C 7.796875 8.988281 7.863281 9.089844 7.925781 9.195312 L 7.878906 9.0625 M 7.648438 9.070312 L 7.628906 9.175781 C 7.726562 9.304688 7.804688 9.445312 7.929688 9.546875 C 7.839844 9.375 7.769531 9.304688 7.648438 9.070312 M 8.867188 4.390625 L 8.8125 4.402344 L 8.863281 4.398438 L 8.867188 4.390625 M 8.710938 4.347656 C 8.789062 4.359375 8.878906 4.371094 8.867188 4.390625 C 8.953125 4.371094 8.972656 4.355469 8.710938 4.347656 M 10.367188 7.925781 C 10.386719 7.664062 10.3125 7.75 10.289062 7.847656 C 10.316406 7.863281 10.339844 8.03125 10.367188 7.925781 M 10.070312 8.675781 C 10.160156 8.558594 10.226562 8.425781 10.25 8.292969 C 10.226562 8.386719 10.175781 8.472656 10.125 8.558594 C 9.847656 8.730469 10.097656 8.457031 10.125 8.355469 C 9.824219 8.722656 10.082031 8.574219 10.070312 8.675781 M 9.273438 8.871094 C 9.125 8.875 9.300781 8.945312 9.496094 8.976562 C 9.550781 8.933594 9.597656 8.894531 9.640625 8.851562 C 9.519531 8.882812 9.398438 8.882812 9.273438 8.871094 M 4.96875 7.085938 C 5.015625 6.945312 5.023438 6.859375 5.039062 6.777344 C 4.910156 6.941406 4.980469 6.976562 4.96875 7.085938 M 5.207031 6.113281 C 5.230469 6.324219 5.042969 6.40625 5.246094 6.265625 C 5.355469 6.027344 5.203125 6.199219 5.207031 6.113281 M 8.738281 4.277344 C 8.839844 4.242188 8.984375 4.257812 9.09375 4.234375 C 8.953125 4.246094 8.816406 4.25 8.679688 4.269531 L 8.738281 4.277344 M 11.972656 8.195312 L 11.949219 8.246094 C 11.910156 8.527344 11.824219 8.800781 11.691406 9.054688 C 11.835938 8.785156 11.933594 8.492188 11.972656 8.195312 M 7.878906 9.0625 C 7.828125 9.007812 7.796875 8.941406 7.761719 8.871094 C 7.796875 8.992188 7.863281 9.089844 7.925781 9.195312 L 7.878906 9.0625 M 7.648438 9.070312 L 7.628906 9.171875 C 7.726562 9.304688 7.804688 9.445312 7.929688 9.546875 C 7.839844 9.375 7.773438 9.304688 7.648438 9.070312 M 8.867188 4.390625 L 8.8125 4.402344 L 8.863281 4.394531 L 8.867188 4.390625 M 11.085938 8.035156 C 11.09375 8.257812 11.023438 8.363281 10.957031 8.550781 L 10.839844 8.609375 C 10.742188 8.796875 10.847656 8.730469 10.78125 8.878906 C 10.628906 9.011719 10.324219 9.296875 10.226562 9.320312 C 10.152344 9.320312 10.273438 9.238281 10.289062 9.207031 C 10.085938 9.34375 10.128906 9.414062 9.820312 9.496094 L 9.808594 9.476562 C 9.050781 9.832031 7.996094 9.125 8.007812 8.160156 C 8 8.222656 7.984375 8.207031 7.96875 8.230469 C 7.929688 7.734375 8.199219 7.238281 8.652344 7.035156 C 9.097656 6.8125 9.617188 6.902344 9.933594 7.199219 C 9.757812 6.972656 9.410156 6.730469 9 6.753906 C 8.597656 6.757812 8.21875 7.015625 8.09375 7.292969 C 7.886719 7.421875 7.863281 7.792969 7.773438 7.859375 C 7.652344 8.75 8 9.132812 8.589844 9.585938 C 8.683594 9.648438 8.617188 9.65625 8.628906 9.703125 C 8.433594 9.613281 8.253906 9.472656 8.105469 9.304688 C 8.183594 9.417969 8.269531 9.53125 8.378906 9.617188 C 8.195312 9.554688 7.945312 9.171875 7.875 9.15625 C 8.195312 9.726562 9.167969 10.152344 9.679688 9.941406 C 9.441406 9.949219 9.140625 9.945312 8.875 9.847656 C 8.765625 9.789062 8.613281 9.671875 8.640625 9.648438 C 9.335938 9.910156 10.054688 9.847656 10.660156 9.363281 C 10.8125 9.246094 10.980469 9.042969 11.027344 9.039062 C 10.957031 9.148438 11.039062 9.09375 10.984375 9.1875 C 11.136719 8.941406 10.917969 9.089844 11.144531 8.765625 L 11.226562 8.878906 C 11.195312 8.675781 11.480469 8.425781 11.449219 8.101562 C 11.515625 8.003906 11.523438 8.210938 11.453125 8.4375 C 11.550781 8.183594 11.480469 8.144531 11.503906 7.9375 C 11.53125 8.007812 11.566406 8.082031 11.582031 8.152344 C 11.519531 7.910156 11.648438 7.742188 11.679688 7.601562 C 11.648438 7.589844 11.582031 7.710938 11.566406 7.421875 C 11.570312 7.296875 11.601562 7.355469 11.613281 7.328125 C 11.589844 7.3125 11.527344 7.214844 11.488281 7.03125 C 11.515625 6.988281 11.5625 7.144531 11.601562 7.152344 C 11.578125 7.003906 11.535156 6.894531 11.53125 6.78125 C 11.417969 6.546875 11.492188 6.8125 11.398438 6.679688 C 11.28125 6.304688 11.5 6.59375 11.515625 6.421875 C 11.699219 6.6875 11.800781 7.097656 11.847656 7.265625 C 11.8125 7.058594 11.753906 6.859375 11.683594 6.664062 C 11.738281 6.6875 11.59375 6.242188 11.753906 6.539062 C 11.582031 5.90625 11.015625 5.3125 10.496094 5.035156 C 10.5625 5.09375 10.640625 5.167969 10.613281 5.179688 C 10.355469 5.027344 10.398438 5.011719 10.363281 4.949219 C 10.152344 4.863281 10.136719 4.957031 10 4.949219 C 9.601562 4.738281 9.527344 4.761719 9.160156 4.628906 L 9.175781 4.707031 C 8.914062 4.621094 8.871094 4.738281 8.585938 4.707031 C 8.570312 4.695312 8.679688 4.660156 8.765625 4.644531 C 8.511719 4.679688 8.523438 4.59375 8.277344 4.65625 C 8.335938 4.613281 8.402344 4.582031 8.46875 4.546875 C 8.261719 4.558594 7.972656 4.667969 8.0625 4.570312 C 7.722656 4.71875 7.125 4.929688 6.785156 5.246094 L 6.777344 5.175781 C 6.621094 5.359375 6.101562 5.726562 6.0625 5.96875 L 6.019531 5.976562 C 5.941406 6.113281 5.886719 6.265625 5.824219 6.40625 C 5.71875 6.585938 5.671875 6.476562 5.6875 6.503906 C 5.480469 6.921875 5.375 7.273438 5.289062 7.5625 C 5.351562 7.65625 5.289062 8.128906 5.3125 8.507812 C 5.210938 10.378906 6.628906 12.195312 8.179688 12.613281 C 8.40625 12.695312 8.742188 12.691406 9.03125 12.699219 C 8.691406 12.601562 8.648438 12.648438 8.316406 12.53125 C 8.078125 12.421875 8.027344 12.292969 7.859375 12.148438 L 7.925781 12.265625 C 7.59375 12.148438 7.734375 12.121094 7.464844 12.035156 L 7.535156 11.941406 C 7.429688 11.933594 7.25 11.761719 7.203125 11.664062 L 7.085938 11.671875 C 6.945312 11.496094 6.867188 11.371094 6.875 11.273438 L 6.835938 11.339844 C 6.792969 11.265625 6.316406 10.6875 6.566406 10.824219 C 6.519531 10.78125 6.457031 10.757812 6.390625 10.636719 L 6.441406 10.578125 C 6.324219 10.425781 6.222656 10.230469 6.230469 10.164062 C 6.292969 10.25 6.339844 10.265625 6.382812 10.28125 C 6.082031 9.539062 6.066406 10.242188 5.835938 9.523438 L 5.886719 9.519531 C 5.847656 9.464844 5.828125 9.40625 5.796875 9.347656 L 5.816406 9.136719 C 5.601562 8.890625 5.757812 8.078125 5.789062 7.632812 C 5.808594 7.453125 5.96875 7.257812 6.089844 6.957031 L 6.015625 6.945312 C 6.15625 6.699219 6.820312 5.960938 7.125 6 C 7.273438 5.8125 7.097656 6 7.066406 5.953125 C 7.394531 5.613281 7.496094 5.714844 7.714844 5.652344 C 7.953125 5.511719 7.511719 5.707031 7.625 5.597656 C 8.035156 5.496094 7.914062 5.359375 8.453125 5.308594 C 8.507812 5.339844 8.320312 5.359375 8.273438 5.398438 C 8.617188 5.230469 9.355469 5.269531 9.835938 5.492188 C 10.394531 5.753906 11.023438 6.523438 11.046875 7.246094 L 11.074219 7.253906 C 11.0625 7.542969 11.121094 7.875 11.019531 8.179688 L 11.085938 8.035156 M 8.707031 4.347656 C 8.789062 4.359375 8.878906 4.371094 8.867188 4.390625 C 8.953125 4.371094 8.972656 4.351562 8.707031 4.347656 M 10.367188 7.925781 C 10.386719 7.664062 10.3125 7.746094 10.289062 7.847656 C 10.316406 7.863281 10.339844 8.03125 10.367188 7.925781 M 10.070312 8.675781 C 10.160156 8.558594 10.226562 8.425781 10.25 8.292969 C 10.226562 8.386719 10.175781 8.472656 10.125 8.558594 C 9.847656 8.730469 10.097656 8.457031 10.125 8.351562 C 9.824219 8.722656 10.082031 8.574219 10.070312 8.675781 M 9.273438 8.871094 C 9.125 8.875 9.300781 8.945312 9.496094 8.976562 C 9.550781 8.933594 9.597656 8.894531 9.640625 8.851562 C 9.519531 8.882812 9.398438 8.882812 9.273438 8.871094 "/>
</svg>
