<?xml version="1.0" encoding="UTF-8"?>
<svg xmlns="http://www.w3.org/2000/svg" xmlns:xlink="http://www.w3.org/1999/xlink" width="64" height="64" viewBox="0 0 64 64">
<defs>
<filter id="filter-remove-color" x="0%" y="0%" width="100%" height="100%">
<feColorMatrix color-interpolation-filters="sRGB" values="0 0 0 0 1 0 0 0 0 1 0 0 0 0 1 0 0 0 1 0" />
</filter>
<mask id="mask-0">
<g filter="url(#filter-remove-color)">
<rect x="-6.4" y="-6.4" width="76.8" height="76.8" fill="rgb(0%, 0%, 0%)" fill-opacity="0.4"/>
</g>
</mask>
<clipPath id="clip-0">
<rect x="0" y="0" width="17" height="17"/>
</clipPath>
<g id="source-11251" clip-path="url(#clip-0)">
<path fill-rule="nonzero" fill="rgb(0%, 0%, 0%)" fill-opacity="1" d="M 8.46875 7.40625 C 8.46875 7.40625 8.007812 6.710938 7.882812 6.394531 C 7.761719 6.078125 7.625 5.753906 7.691406 5.527344 C 7.757812 5.296875 7.863281 5.179688 8.078125 5.09375 C 8.296875 5.003906 8.636719 5.003906 8.855469 5.09375 C 9.070312 5.179688 9.179688 5.296875 9.242188 5.527344 C 9.308594 5.753906 9.175781 6.078125 9.050781 6.394531 C 8.925781 6.710938 8.46875 7.40625 8.46875 7.40625 Z M 8.46875 7.40625 "/>
</g>
<mask id="mask-1">
<g filter="url(#filter-remove-color)">
<rect x="-6.4" y="-6.4" width="76.8" height="76.8" fill="rgb(0%, 0%, 0%)" fill-opacity="0.4"/>
</g>
</mask>
<clipPath id="clip-1">
<rect x="0" y="0" width="17" height="17"/>
</clipPath>
<g id="source-11255" clip-path="url(#clip-1)">
<path fill-rule="nonzero" fill="rgb(0%, 0%, 0%)" fill-opacity="1" d="M 8.46875 9.523438 C 8.46875 9.523438 8.007812 10.222656 7.882812 10.539062 C 7.761719 10.855469 7.625 11.179688 7.691406 11.40625 C 7.757812 11.636719 7.863281 11.753906 8.078125 11.839844 C 8.296875 11.925781 8.636719 11.925781 8.855469 11.839844 C 9.070312 11.753906 9.179688 11.636719 9.242188 11.40625 C 9.308594 11.179688 9.175781 10.855469 9.050781 10.539062 C 8.925781 10.222656 8.46875 9.523438 8.46875 9.523438 Z M 8.46875 9.523438 "/>
</g>
<mask id="mask-2">
<g filter="url(#filter-remove-color)">
<rect x="-6.4" y="-6.4" width="76.8" height="76.8" fill="rgb(0%, 0%, 0%)" fill-opacity="0.4"/>
</g>
</mask>
<clipPath id="clip-2">
<rect x="0" y="0" width="17" height="17"/>
</clipPath>
<g id="source-11259" clip-path="url(#clip-2)">
<path fill-rule="nonzero" fill="rgb(0%, 0%, 0%)" fill-opacity="1" d="M 9.523438 8.464844 C 9.523438 8.464844 10.222656 8.007812 10.539062 7.882812 C 10.855469 7.757812 11.179688 7.625 11.40625 7.691406 C 11.636719 7.753906 11.753906 7.859375 11.839844 8.078125 C 11.929688 8.296875 11.929688 8.636719 11.839844 8.855469 C 11.753906 9.070312 11.636719 9.175781 11.40625 9.242188 C 11.179688 9.308594 10.855469 9.171875 10.539062 9.050781 C 10.222656 8.925781 9.523438 8.464844 9.523438 8.464844 Z M 9.523438 8.464844 "/>
</g>
<mask id="mask-3">
<g filter="url(#filter-remove-color)">
<rect x="-6.4" y="-6.4" width="76.8" height="76.8" fill="rgb(0%, 0%, 0%)" fill-opacity="0.4"/>
</g>
</mask>
<clipPath id="clip-3">
<rect x="0" y="0" width="17" height="17"/>
</clipPath>
<g id="source-11263" clip-path="url(#clip-3)">
<path fill-rule="nonzero" fill="rgb(0%, 0%, 0%)" fill-opacity="1" d="M 7.40625 8.464844 C 7.40625 8.464844 6.710938 8.007812 6.394531 7.882812 C 6.078125 7.757812 5.753906 7.625 5.527344 7.691406 C 5.296875 7.753906 5.179688 7.859375 5.089844 8.078125 C 5.003906 8.296875 5.003906 8.636719 5.089844 8.855469 C 5.179688 9.070312 5.296875 9.175781 5.527344 9.242188 C 5.753906 9.308594 6.078125 9.171875 6.394531 9.050781 C 6.710938 8.925781 7.40625 8.464844 7.40625 8.464844 Z M 7.40625 8.464844 "/>
</g>
<mask id="mask-4">
<g filter="url(#filter-remove-color)">
<rect x="-6.4" y="-6.4" width="76.8" height="76.8" fill="rgb(0%, 0%, 0%)" fill-opacity="0.4"/>
</g>
</mask>
<clipPath id="clip-4">
<rect x="0" y="0" width="17" height="17"/>
</clipPath>
<g id="source-11267" clip-path="url(#clip-4)">
<path fill-rule="nonzero" fill="rgb(0%, 0%, 0%)" fill-opacity="1" d="M 9.214844 9.214844 C 9.214844 9.214844 10.03125 9.382812 10.34375 9.519531 C 10.65625 9.65625 10.980469 9.789062 11.09375 9.996094 C 11.210938 10.203125 11.21875 10.363281 11.128906 10.578125 C 11.035156 10.792969 10.792969 11.035156 10.578125 11.128906 C 10.363281 11.21875 10.203125 11.210938 9.996094 11.09375 C 9.789062 10.980469 9.65625 10.65625 9.519531 10.34375 C 9.382812 10.03125 9.214844 9.214844 9.214844 9.214844 Z M 9.214844 9.214844 "/>
</g>
<mask id="mask-5">
<g filter="url(#filter-remove-color)">
<rect x="-6.4" y="-6.4" width="76.8" height="76.8" fill="rgb(0%, 0%, 0%)" fill-opacity="0.4"/>
</g>
</mask>
<clipPath id="clip-5">
<rect x="0" y="0" width="17" height="17"/>
</clipPath>
<g id="source-11271" clip-path="url(#clip-5)">
<path fill-rule="nonzero" fill="rgb(0%, 0%, 0%)" fill-opacity="1" d="M 7.71875 7.71875 C 7.71875 7.71875 7.550781 6.902344 7.414062 6.589844 C 7.277344 6.277344 7.144531 5.953125 6.9375 5.839844 C 6.726562 5.722656 6.570312 5.714844 6.355469 5.804688 C 6.140625 5.898438 5.898438 6.140625 5.804688 6.355469 C 5.714844 6.570312 5.722656 6.726562 5.839844 6.9375 C 5.953125 7.144531 6.277344 7.277344 6.589844 7.414062 C 6.902344 7.550781 7.71875 7.71875 7.71875 7.71875 Z M 7.71875 7.71875 "/>
</g>
<mask id="mask-6">
<g filter="url(#filter-remove-color)">
<rect x="-6.4" y="-6.4" width="76.8" height="76.8" fill="rgb(0%, 0%, 0%)" fill-opacity="0.4"/>
</g>
</mask>
<clipPath id="clip-6">
<rect x="0" y="0" width="17" height="17"/>
</clipPath>
<g id="source-11275" clip-path="url(#clip-6)">
<path fill-rule="nonzero" fill="rgb(0%, 0%, 0%)" fill-opacity="1" d="M 7.71875 9.214844 C 7.71875 9.214844 6.902344 9.382812 6.589844 9.519531 C 6.277344 9.65625 5.953125 9.789062 5.839844 9.996094 C 5.722656 10.203125 5.714844 10.363281 5.804688 10.578125 C 5.898438 10.792969 6.140625 11.035156 6.355469 11.128906 C 6.570312 11.21875 6.726562 11.210938 6.9375 11.09375 C 7.144531 10.980469 7.277344 10.65625 7.414062 10.34375 C 7.550781 10.03125 7.71875 9.214844 7.71875 9.214844 Z M 7.71875 9.214844 "/>
</g>
<mask id="mask-7">
<g filter="url(#filter-remove-color)">
<rect x="-6.4" y="-6.4" width="76.8" height="76.8" fill="rgb(0%, 0%, 0%)" fill-opacity="0.4"/>
</g>
</mask>
<clipPath id="clip-7">
<rect x="0" y="0" width="17" height="17"/>
</clipPath>
<g id="source-11279" clip-path="url(#clip-7)">
<path fill-rule="nonzero" fill="rgb(0%, 0%, 0%)" fill-opacity="1" d="M 9.214844 7.71875 C 9.214844 7.71875 9.382812 6.902344 9.519531 6.589844 C 9.65625 6.277344 9.789062 5.953125 9.996094 5.839844 C 10.203125 5.722656 10.363281 5.714844 10.578125 5.804688 C 10.792969 5.898438 11.035156 6.140625 11.128906 6.355469 C 11.21875 6.570312 11.210938 6.726562 11.09375 6.9375 C 10.980469 7.144531 10.65625 7.277344 10.34375 7.414062 C 10.03125 7.550781 9.214844 7.71875 9.214844 7.71875 Z M 9.214844 7.71875 "/>
</g>
</defs>
<path fill-rule="nonzero" fill="rgb(100%, 55.686275%, 1.176471%)" fill-opacity="1" d="M 15.609375 8.460938 C 15.609375 12.40625 12.410156 15.605469 8.464844 15.605469 C 4.519531 15.605469 1.324219 12.40625 1.324219 8.460938 C 1.324219 4.515625 4.519531 1.316406 8.464844 1.316406 C 12.410156 1.316406 15.609375 4.515625 15.609375 8.460938 Z M 15.609375 8.460938 "/>
<path fill-rule="nonzero" fill="rgb(97.647059%, 31.372549%, 31.372549%)" fill-opacity="1" d="M 14.230469 0.792969 C 15.523438 2.054688 15.523438 5.832031 12.9375 7.089844 L 10.351562 4.570312 C 12.9375 4.570312 14.230469 2.054688 14.230469 0.792969 Z M 14.230469 0.792969 "/>
<path fill-rule="nonzero" fill="rgb(97.647059%, 31.372549%, 31.372549%)" fill-opacity="1" d="M 2.699219 0.792969 C 1.410156 2.054688 1.410156 5.832031 3.992188 7.089844 L 6.578125 4.570312 C 3.992188 4.570312 2.699219 2.054688 2.699219 0.792969 Z M 2.699219 0.792969 "/>
<path fill-rule="nonzero" fill="rgb(100%, 81.568627%, 34.901961%)" fill-opacity="1" d="M 14.023438 8.460938 C 14.023438 11.527344 11.535156 14.015625 8.464844 14.015625 C 5.398438 14.015625 2.910156 11.527344 2.910156 8.460938 C 2.910156 5.390625 5.398438 2.902344 8.464844 2.902344 C 11.535156 2.902344 14.023438 5.390625 14.023438 8.460938 Z M 14.023438 8.460938 "/>
<g mask="url(#mask-0)">
<use xlink:href="#source-11251"/>
</g>
<g mask="url(#mask-1)">
<use xlink:href="#source-11255"/>
</g>
<g mask="url(#mask-2)">
<use xlink:href="#source-11259"/>
</g>
<g mask="url(#mask-3)">
<use xlink:href="#source-11263"/>
</g>
<g mask="url(#mask-4)">
<use xlink:href="#source-11267"/>
</g>
<g mask="url(#mask-5)">
<use xlink:href="#source-11271"/>
</g>
<g mask="url(#mask-6)">
<use xlink:href="#source-11275"/>
</g>
<g mask="url(#mask-7)">
<use xlink:href="#source-11279"/>
</g>
</svg>
