<?xml version="1.0" encoding="UTF-8"?>
<svg xmlns="http://www.w3.org/2000/svg" xmlns:xlink="http://www.w3.org/1999/xlink" width="64" height="64" viewBox="0 0 64 64">
<path fill-rule="nonzero" fill="rgb(39.215686%, 29.411765%, 49.019608%)" fill-opacity="1" d="M 32 5 C 46.910156 5 59 17.085938 59 32 C 59 46.910156 46.910156 59 32 59 C 17.085938 59 5 46.910156 5 32 C 5 17.085938 17.085938 5 32 5 Z M 32 5 "/>
<path fill-rule="nonzero" fill="rgb(47.058824%, 76.078431%, 87.843137%)" fill-opacity="1" d="M 34.347656 19.085938 C 26.128906 19.085938 23.78125 22.949219 23.78125 28.476562 C 23.78125 34.007812 26.128906 37.871094 34.347656 37.871094 C 36.695312 37.871094 38.6875 37.28125 38.6875 37.28125 L 41.390625 28.476562 C 41.941406 26.679688 42.226562 26.128906 40.214844 26.128906 L 32.585938 26.128906 C 31.609375 26.128906 30.824219 26.914062 30.824219 27.890625 C 30.824219 28.867188 31.609375 29.652344 32.585938 29.652344 L 36.375 29.652344 L 35.109375 34.289062 C 35.109375 34.289062 34.882812 34.347656 34.347656 34.347656 C 29.066406 34.347656 27.304688 32.449219 27.304688 28.476562 C 27.304688 24.507812 29.066406 22.609375 34.347656 22.609375 L 47.261719 22.609375 L 46.085938 19.085938 Z M 16.738281 26.128906 L 16.738281 29.652344 C 16.738281 38.082031 22.609375 44.914062 34.347656 44.914062 C 41.390625 44.914062 44.910156 42.566406 47.261719 39.042969 L 42.445312 39.042969 C 40.6875 40.21875 39.042969 41.390625 34.347656 41.390625 C 26.128906 41.390625 20.261719 36.136719 20.261719 29.652344 L 20.261719 26.128906 Z M 16.738281 26.128906 "/>
</svg>
