<?xml version="1.0" encoding="UTF-8"?>
<svg xmlns="http://www.w3.org/2000/svg" xmlns:xlink="http://www.w3.org/1999/xlink" width="64" height="64" viewBox="0 0 64 64">
<defs>
<filter id="filter-remove-color" x="0%" y="0%" width="100%" height="100%">
<feColorMatrix color-interpolation-filters="sRGB" values="0 0 0 0 1 0 0 0 0 1 0 0 0 0 1 0 0 0 1 0" />
</filter>
<mask id="mask-0">
<g filter="url(#filter-remove-color)">
<rect x="-6.4" y="-6.4" width="76.8" height="76.8" fill="rgb(0%, 0%, 0%)" fill-opacity="0.15"/>
</g>
</mask>
<clipPath id="clip-0">
<rect x="0" y="0" width="17" height="17"/>
</clipPath>
<g id="source-13339" clip-path="url(#clip-0)">
<path fill-rule="nonzero" fill="rgb(100%, 100%, 100%)" fill-opacity="1" d="M 8.46875 2.644531 C 11.679688 2.644531 14.289062 5.25 14.289062 8.464844 C 14.289062 11.679688 11.679688 14.285156 8.46875 14.285156 C 5.253906 14.285156 2.648438 11.679688 2.648438 8.464844 C 2.648438 5.25 5.253906 2.644531 8.46875 2.644531 Z M 8.46875 2.644531 "/>
</g>
</defs>
<path fill-rule="nonzero" fill="rgb(96.470588%, 82.745098%, 18.039216%)" fill-opacity="1" d="M 8.378906 1.324219 C 10.953125 1.289062 13.347656 2.644531 14.644531 4.867188 C 15.941406 7.089844 15.941406 9.839844 14.644531 12.066406 C 13.347656 14.289062 10.953125 15.644531 8.378906 15.609375 C 4.472656 15.558594 1.328125 12.375 1.328125 8.464844 C 1.328125 4.558594 4.472656 1.375 8.378906 1.324219 Z M 8.378906 1.324219 "/>
<g mask="url(#mask-0)">
<use xlink:href="#source-13339"/>
</g>
<path fill-rule="nonzero" fill="rgb(81.960784%, 8.627451%, 8.627451%)" fill-opacity="1" d="M 8.402344 5.394531 C 8.164062 5.398438 7.933594 5.503906 7.863281 5.683594 C 7.84375 5.738281 7.84375 5.753906 7.855469 5.835938 C 7.886719 6.007812 7.992188 6.21875 8.121094 6.355469 C 8.207031 6.449219 8.265625 6.488281 8.347656 6.511719 C 8.417969 6.53125 8.464844 6.523438 8.539062 6.488281 C 8.710938 6.410156 8.914062 6.113281 8.964844 5.859375 C 8.996094 5.707031 8.953125 5.601562 8.8125 5.507812 C 8.691406 5.429688 8.546875 5.390625 8.402344 5.394531 Z M 7.664062 5.929688 C 7.648438 5.917969 7.367188 5.957031 7.171875 6 C 6.707031 6.097656 6.378906 6.234375 6.191406 6.40625 C 6.09375 6.5 6.058594 6.558594 6.058594 6.648438 C 6.058594 6.734375 6.09375 6.792969 6.191406 6.886719 C 6.488281 7.164062 7.210938 7.363281 8.058594 7.402344 C 8.476562 7.421875 8.976562 7.390625 9.371094 7.316406 C 10.136719 7.179688 10.660156 6.882812 10.609375 6.609375 C 10.5625 6.351562 10.039062 6.085938 9.339844 5.96875 L 9.160156 5.9375 L 9.125 6.03125 C 8.980469 6.429688 8.710938 6.703125 8.445312 6.722656 C 8.234375 6.734375 8.027344 6.601562 7.851562 6.335938 C 7.777344 6.222656 7.722656 6.101562 7.679688 5.972656 C 7.675781 5.953125 7.667969 5.933594 7.664062 5.929688 Z M 10.816406 6.617188 L 10.808594 6.691406 C 10.769531 7.042969 10.269531 7.347656 9.484375 7.5 C 8.054688 7.777344 6.347656 7.492188 5.9375 6.90625 L 5.898438 6.847656 L 5.890625 6.910156 C 5.871094 7.042969 5.878906 7.730469 5.898438 7.96875 C 5.910156 8.097656 5.917969 8.203125 5.914062 8.207031 C 5.902344 8.21875 5.65625 8.109375 5.589844 8.066406 C 5.359375 7.910156 5.253906 7.683594 5.214844 7.25 L 5.199219 7.09375 L 4.976562 7.089844 L 4.75 7.085938 L 4.761719 7.167969 C 4.835938 7.871094 5.089844 8.542969 5.464844 9.054688 C 6.046875 9.84375 6.972656 10.351562 8.039062 10.472656 C 8.222656 10.492188 8.601562 10.492188 8.757812 10.476562 C 9.34375 10.410156 9.8125 10.195312 10.164062 9.835938 C 10.585938 9.394531 10.824219 8.816406 10.914062 7.992188 C 10.925781 7.894531 10.929688 7.683594 10.929688 7.382812 C 10.929688 6.882812 10.921875 6.835938 10.851562 6.6875 Z M 11.90625 7.027344 C 11.636719 6.996094 11.375 7.117188 11.214844 7.339844 C 11.152344 7.429688 11.078125 7.574219 11.078125 7.617188 C 11.078125 7.6875 11.15625 7.761719 11.226562 7.761719 C 11.296875 7.761719 11.324219 7.730469 11.386719 7.613281 C 11.4375 7.5 11.527344 7.402344 11.636719 7.339844 C 11.933594 7.191406 12.28125 7.382812 12.335938 7.730469 C 12.351562 7.808594 12.34375 7.886719 12.285156 8.445312 C 12.210938 9.167969 12.21875 9.132812 12.066406 9.222656 C 11.867188 9.34375 11.554688 9.40625 11.046875 9.425781 C 10.816406 9.433594 10.816406 9.433594 10.78125 9.46875 C 10.726562 9.523438 10.730469 9.585938 10.789062 9.644531 L 10.832031 9.6875 L 11.03125 9.6875 C 11.578125 9.6875 12.011719 9.59375 12.265625 9.425781 C 12.367188 9.363281 12.445312 9.269531 12.488281 9.15625 C 12.507812 9.09375 12.632812 7.90625 12.632812 7.8125 C 12.632812 7.710938 12.597656 7.578125 12.542969 7.46875 C 12.421875 7.222656 12.183594 7.054688 11.90625 7.027344 Z M 6.753906 7.515625 C 6.757812 7.515625 6.847656 7.691406 6.953125 7.902344 L 7.148438 8.296875 L 6.957031 8.683594 C 6.851562 8.894531 6.761719 9.070312 6.757812 9.074219 C 6.683594 8.949219 6.617188 8.820312 6.550781 8.6875 L 6.355469 8.296875 L 6.550781 7.90625 C 6.65625 7.691406 6.75 7.515625 6.753906 7.515625 Z M 10.179688 7.519531 L 10.378906 7.917969 L 10.574219 8.316406 L 10.382812 8.703125 C 10.320312 8.835938 10.253906 8.964844 10.183594 9.09375 C 10.179688 9.09375 10.085938 8.917969 9.980469 8.699219 L 9.78125 8.308594 Z M 8.46875 7.941406 C 8.480469 7.941406 9.054688 8.878906 9.050781 8.890625 C 9.050781 8.898438 8.917969 9.109375 8.761719 9.359375 C 8.667969 9.515625 8.570312 9.667969 8.46875 9.816406 C 8.457031 9.816406 7.890625 8.917969 7.882812 8.890625 C 7.878906 8.875 8.453125 7.941406 8.46875 7.941406 Z M 10.203125 10.078125 L 10.132812 10.136719 C 9.753906 10.453125 9.261719 10.636719 8.667969 10.683594 C 8.207031 10.710938 7.746094 10.65625 7.304688 10.53125 C 7.0625 10.464844 6.824219 10.371094 6.601562 10.257812 L 6.449219 10.179688 L 6.363281 10.21875 C 6.167969 10.304688 5.988281 10.449219 5.9375 10.566406 C 5.898438 10.644531 5.898438 10.734375 5.929688 10.816406 C 6.03125 11.054688 6.457031 11.273438 7.054688 11.402344 C 7.363281 11.464844 7.5625 11.492188 8.019531 11.53125 C 8.050781 11.53125 8.234375 11.535156 8.433594 11.535156 C 8.824219 11.539062 9.035156 11.527344 9.371094 11.488281 C 10.785156 11.3125 11.429688 10.773438 10.761719 10.328125 C 10.628906 10.242188 10.484375 10.171875 10.332031 10.121094 Z M 10.203125 10.078125 "/>
</svg>
