<?xml version="1.0" encoding="UTF-8"?>
<svg xmlns="http://www.w3.org/2000/svg" xmlns:xlink="http://www.w3.org/1999/xlink" width="64" height="64" viewBox="0 0 64 64">
<path fill-rule="nonzero" fill="rgb(97.647059%, 97.647059%, 97.647059%)" fill-opacity="1" d="M 32 60 C 46.910156 60 59 47.910156 59 33 C 59 18.089844 46.910156 6 32 6 C 17.089844 6 5 18.089844 5 33 C 5 47.910156 17.089844 60 32 60 Z M 32 60 "/>
<path fill-rule="nonzero" fill="rgb(90.196078%, 88.627451%, 88.627451%)" fill-opacity="1" d="M 28.648438 18.761719 C 27.28125 21.511719 26.742188 28.050781 23.335938 32.238281 C 19.925781 36.425781 14.882812 35.167969 15.648438 36.503906 C 19.890625 42.785156 29.464844 46.632812 36.671875 46.179688 C 43.390625 45.753906 47.972656 42.589844 50.011719 37.25 C 51.46875 32.707031 53.460938 18.78125 51.363281 21.242188 C 50.101562 22.234375 48.15625 24.46875 45.519531 25.84375 C 43.542969 26.875 40.785156 26.859375 38.191406 26.730469 C 32.929688 26.472656 32.613281 25.765625 31.621094 23.734375 C 30.910156 22.28125 29.175781 17.753906 28.648438 18.761719 Z M 28.648438 18.761719 "/>
<path fill-rule="nonzero" fill="rgb(90.196078%, 88.627451%, 88.627451%)" fill-opacity="1" d="M 36.242188 36.253906 C 37.425781 38 39.796875 38.457031 41.539062 37.277344 C 43.285156 36.09375 43.742188 33.722656 42.5625 31.980469 C 41.378906 30.234375 39.007812 29.777344 37.265625 30.957031 C 35.519531 32.140625 35.0625 34.511719 36.242188 36.253906 Z M 36.242188 36.253906 "/>
<path fill-rule="nonzero" fill="rgb(90.196078%, 88.627451%, 88.627451%)" fill-opacity="1" d="M 37.585938 36.21875 C 38.542969 37.632812 40.46875 38.003906 41.882812 37.046875 C 43.296875 36.089844 43.667969 34.164062 42.710938 32.75 C 41.753906 31.335938 39.828125 30.964844 38.414062 31.921875 C 37 32.878906 36.628906 34.804688 37.585938 36.21875 Z M 37.585938 36.21875 "/>
<path fill-rule="nonzero" fill="rgb(90.196078%, 88.627451%, 88.627451%)" fill-opacity="1" d="M 27.582031 34.433594 C 28.761719 36.175781 31.132812 36.632812 32.878906 35.453125 C 34.625 34.273438 35.082031 31.902344 33.898438 30.15625 C 32.71875 28.410156 30.347656 27.953125 28.601562 29.136719 C 26.859375 30.316406 26.402344 32.6875 27.582031 34.433594 Z M 27.582031 34.433594 "/>
<path fill-rule="nonzero" fill="rgb(90.196078%, 88.627451%, 88.627451%)" fill-opacity="1" d="M 28.925781 34.394531 C 29.882812 35.808594 31.804688 36.179688 33.21875 35.222656 C 34.636719 34.265625 35.003906 32.34375 34.046875 30.929688 C 33.089844 29.511719 31.167969 29.144531 29.753906 30.101562 C 28.339844 31.058594 27.96875 32.980469 28.925781 34.394531 Z M 28.925781 34.394531 "/>
<path fill-rule="nonzero" fill="rgb(90.196078%, 88.627451%, 88.627451%)" fill-opacity="1" d="M 17.765625 38.675781 C 18.867188 37.664062 18.917969 35.921875 17.875 34.785156 C 16.832031 33.648438 15.09375 33.546875 13.992188 34.554688 C 12.890625 35.566406 12.839844 37.308594 13.882812 38.445312 C 14.925781 39.582031 16.664062 39.683594 17.765625 38.675781 Z M 17.765625 38.675781 "/>
<path fill-rule="nonzero" fill="rgb(90.196078%, 88.627451%, 88.627451%)" fill-opacity="1" d="M 36.222656 42.867188 C 36.222656 42.867188 35.15625 43.855469 33.988281 44.269531 L 45.507812 47.175781 C 46.097656 47.3125 46.582031 46.953125 46.722656 46.363281 C 46.859375 45.773438 46.496094 45.289062 45.90625 45.148438 Z M 36.222656 42.867188 "/>
<path fill-rule="nonzero" fill="rgb(90.196078%, 88.627451%, 88.627451%)" fill-opacity="1" d="M 26.273438 43.945312 C 28.242188 44.945312 30.367188 45.578125 32.96875 44.75 C 35.0625 44.082031 37.484375 42.335938 38.65625 40.84375 C 37.273438 41.894531 35.5625 42.765625 33.722656 43.351562 C 31.121094 44.183594 28.441406 44.394531 26.273438 43.945312 Z M 26.273438 43.945312 "/>
<path fill-rule="nonzero" fill="rgb(90.196078%, 88.627451%, 88.627451%)" fill-opacity="1" d="M 52.9375 48.503906 C 52.222656 49.195312 49.332031 49.261719 48.125 49.042969 C 46.902344 48.816406 45.6875 48.03125 45.6875 46.894531 C 45.6875 45.757812 46.742188 45.019531 47.992188 45.101562 C 49.503906 45.203125 52.3125 47.410156 52.9375 48.503906 Z M 52.9375 48.503906 "/>
<path fill-rule="nonzero" fill="rgb(90.196078%, 88.627451%, 88.627451%)" fill-opacity="1" d="M 49.910156 46.289062 C 49.359375 46.773438 47.746094 47.421875 48.363281 48.21875 C 48.621094 48.515625 48.082031 49.066406 48.550781 49.167969 C 49.90625 49.3125 52.296875 49.125 52.9375 48.503906 C 52.53125 47.792969 50.621094 45.5625 49.910156 46.289062 Z M 49.910156 46.289062 "/>
<path fill-rule="nonzero" fill="rgb(100%, 80%, 66.666667%)" fill-opacity="1" d="M 27.652344 17.144531 C 26.285156 19.894531 25.746094 26.433594 22.339844 30.621094 C 18.929688 34.808594 13.886719 33.550781 14.652344 34.886719 C 18.894531 41.167969 28.46875 45.015625 35.675781 44.558594 C 42.394531 44.136719 46.976562 40.972656 49.015625 35.632812 C 50.472656 31.089844 52.46875 17.160156 50.367188 19.625 C 49.105469 20.617188 47.160156 22.851562 44.523438 24.226562 C 42.546875 25.257812 39.789062 25.242188 37.199219 25.113281 C 31.933594 24.855469 31.617188 24.148438 30.625 22.117188 C 29.914062 20.664062 28.179688 16.136719 27.652344 17.144531 Z M 27.652344 17.144531 "/>
<path fill-rule="nonzero" fill="rgb(100%, 100%, 100%)" fill-opacity="1" d="M 35.246094 34.636719 C 36.429688 36.382812 38.800781 36.839844 40.542969 35.660156 C 42.289062 34.476562 42.746094 32.105469 41.566406 30.359375 C 40.382812 28.617188 38.011719 28.160156 36.269531 29.339844 C 34.523438 30.519531 34.066406 32.894531 35.246094 34.636719 Z M 35.246094 34.636719 "/>
<path fill-rule="nonzero" fill="rgb(40%, 40%, 40%)" fill-opacity="1" d="M 36.589844 34.601562 C 37.546875 36.015625 39.472656 36.386719 40.886719 35.429688 C 42.300781 34.46875 42.671875 32.546875 41.714844 31.132812 C 40.757812 29.71875 38.832031 29.347656 37.417969 30.304688 C 36.003906 31.261719 35.632812 33.1875 36.589844 34.601562 Z M 36.589844 34.601562 "/>
<path fill-rule="nonzero" fill="rgb(100%, 100%, 100%)" fill-opacity="1" d="M 26.585938 32.816406 C 27.765625 34.558594 30.136719 35.015625 31.882812 33.835938 C 33.628906 32.65625 34.085938 30.28125 32.902344 28.539062 C 31.722656 26.792969 29.351562 26.335938 27.605469 27.519531 C 25.863281 28.699219 25.40625 31.070312 26.585938 32.816406 Z M 26.585938 32.816406 "/>
<path fill-rule="nonzero" fill="rgb(40%, 40%, 40%)" fill-opacity="1" d="M 27.929688 32.777344 C 28.886719 34.191406 30.808594 34.5625 32.226562 33.605469 C 33.640625 32.648438 34.011719 30.726562 33.050781 29.308594 C 32.09375 27.894531 30.171875 27.523438 28.757812 28.484375 C 27.34375 29.441406 26.972656 31.363281 27.929688 32.777344 Z M 27.929688 32.777344 "/>
<path fill-rule="nonzero" fill="rgb(40%, 40%, 40%)" fill-opacity="1" d="M 16.769531 37.058594 C 17.871094 36.046875 17.921875 34.304688 16.878906 33.167969 C 15.835938 32.03125 14.097656 31.929688 12.996094 32.9375 C 11.894531 33.949219 11.84375 35.691406 12.886719 36.828125 C 13.929688 37.964844 15.667969 38.066406 16.769531 37.058594 Z M 16.769531 37.058594 "/>
<path fill-rule="nonzero" fill="rgb(45.098039%, 45.098039%, 45.098039%)" fill-opacity="1" d="M 35.226562 41.25 C 35.226562 41.25 34.160156 42.238281 32.992188 42.652344 L 44.511719 45.558594 C 45.101562 45.695312 45.585938 45.332031 45.726562 44.742188 C 45.863281 44.152344 45.5 43.667969 44.910156 43.53125 Z M 35.226562 41.25 "/>
<path fill-rule="nonzero" fill="rgb(40%, 40%, 40%)" fill-opacity="1" d="M 25.277344 42.328125 C 27.246094 43.328125 29.371094 43.960938 31.972656 43.132812 C 34.066406 42.464844 36.488281 40.71875 37.660156 39.226562 C 36.277344 40.277344 34.566406 41.148438 32.726562 41.734375 C 30.125 42.566406 27.449219 42.777344 25.277344 42.328125 Z M 25.277344 42.328125 "/>
<path fill-rule="nonzero" fill="rgb(100%, 100%, 100%)" fill-opacity="1" d="M 51.941406 46.886719 C 51.226562 47.574219 48.335938 47.644531 47.132812 47.421875 C 45.90625 47.199219 44.691406 46.414062 44.691406 45.273438 C 44.691406 44.136719 45.746094 43.402344 46.996094 43.484375 C 48.507812 43.585938 51.316406 45.792969 51.941406 46.886719 Z M 51.941406 46.886719 "/>
<path fill-rule="nonzero" fill="rgb(45.882353%, 45.882353%, 45.882353%)" fill-opacity="1" d="M 48.914062 44.671875 C 48.363281 45.152344 46.75 45.804688 47.367188 46.601562 C 47.625 46.898438 47.085938 47.449219 47.554688 47.550781 C 48.910156 47.695312 51.300781 47.507812 51.941406 46.886719 C 51.535156 46.175781 49.625 43.945312 48.914062 44.671875 Z M 48.914062 44.671875 "/>
</svg>
