<?xml version="1.0" encoding="UTF-8"?>
<svg xmlns="http://www.w3.org/2000/svg" xmlns:xlink="http://www.w3.org/1999/xlink" width="64" height="64" viewBox="0 0 64 64">
<path fill-rule="nonzero" fill="rgb(97.647059%, 97.647059%, 97.647059%)" fill-opacity="1" d="M 32 58.976562 C 46.910156 58.976562 59 46.886719 59 31.976562 C 59 17.0625 46.910156 4.976562 32 4.976562 C 17.089844 4.976562 5 17.0625 5 31.976562 C 5 46.886719 17.089844 58.976562 32 58.976562 Z M 32 58.976562 "/>
<path fill-rule="nonzero" fill="rgb(20%, 20%, 20%)" fill-opacity="1" d="M 31.996094 14.894531 C 22.269531 14.894531 14.386719 22.78125 14.386719 32.503906 C 14.390625 39.976562 19.117188 46.628906 26.171875 49.105469 C 26.800781 49.078125 27.304688 48.574219 27.304688 47.941406 L 27.304688 45.421875 L 26.128906 45.421875 C 24.390625 45.421875 22.320312 44.960938 21.679688 43.074219 C 20.824219 40.558594 18.378906 39.941406 19.085938 39.550781 C 19.234375 39.46875 19.386719 39.417969 19.542969 39.394531 C 19.679688 39.375 19.816406 39.375 19.957031 39.394531 C 20.933594 39.515625 21.960938 40.496094 22.609375 41.3125 C 23.761719 42.769531 24.40625 43.074219 25.652344 43.074219 C 26.839844 43.074219 27.304688 42.78125 27.304688 42.78125 C 27.304688 41.660156 27.816406 40.796875 28.609375 40.246094 C 24.109375 39.539062 20.847656 37.25 20.847656 32.507812 C 20.847656 30.234375 21.476562 28.40625 22.546875 26.976562 C 22.066406 25.324219 22.121094 23.644531 22.609375 21.945312 C 24.253906 21.945312 26.101562 22.839844 27.28125 23.800781 C 28.714844 23.347656 30.308594 23.117188 32 23.117188 C 33.683594 23.117188 35.28125 23.34375 36.730469 23.796875 C 37.902344 22.835938 39.75 21.945312 41.394531 21.945312 C 41.875 23.613281 41.925781 25.265625 41.472656 26.894531 C 42.601562 28.332031 43.269531 30.1875 43.269531 32.507812 C 43.269531 37.25 39.929688 39.542969 35.394531 40.246094 C 36.1875 40.800781 36.695312 41.660156 36.695312 42.78125 L 36.695312 47.941406 C 36.695312 48.574219 37.199219 49.078125 37.828125 49.105469 C 44.882812 46.632812 49.601562 39.980469 49.613281 32.503906 C 49.617188 22.78125 41.730469 14.898438 32.003906 14.898438 Z M 31.996094 14.894531 "/>
</svg>
