<?xml version="1.0" encoding="UTF-8"?>
<svg xmlns="http://www.w3.org/2000/svg" xmlns:xlink="http://www.w3.org/1999/xlink" width="64" height="64" viewBox="0 0 64 64">
<defs>
<filter id="filter-remove-color" x="0%" y="0%" width="100%" height="100%">
<feColorMatrix color-interpolation-filters="sRGB" values="0 0 0 0 1 0 0 0 0 1 0 0 0 0 1 0 0 0 1 0" />
</filter>
<mask id="mask-0">
<g filter="url(#filter-remove-color)">
<rect x="-6.4" y="-6.4" width="76.8" height="76.8" fill="rgb(0%, 0%, 0%)" fill-opacity="0.1"/>
</g>
</mask>
<clipPath id="clip-0">
<rect x="0" y="0" width="64" height="64"/>
</clipPath>
<g id="source-4708" clip-path="url(#clip-0)">
<path fill-rule="nonzero" fill="rgb(100%, 100%, 100%)" fill-opacity="1" d="M 55 32 C 55 44.703125 44.703125 55 32 55 C 19.296875 55 9 44.703125 9 32 C 9 19.296875 19.296875 9 32 9 C 44.703125 9 55 19.296875 55 32 Z M 55 32 "/>
</g>
</defs>
<path fill-rule="nonzero" fill="rgb(17.254902%, 18.431373%, 24.705882%)" fill-opacity="1" d="M 59 32 C 59 46.910156 46.910156 59 32 59 C 17.089844 59 5 46.910156 5 32 C 5 17.085938 17.089844 5 32 5 C 46.910156 5 59 17.085938 59 32 Z M 59 32 "/>
<g mask="url(#mask-0)">
<use xlink:href="#source-4708"/>
</g>
<path fill-rule="nonzero" fill="rgb(7.843137%, 57.254902%, 52.941176%)" fill-opacity="1" d="M 24.632812 18.699219 C 24.539062 18.707031 24.449219 18.734375 24.371094 18.785156 C 18.390625 22.234375 15.472656 29.28125 17.261719 35.949219 C 18.640625 41.097656 22.609375 45.152344 27.722656 46.648438 C 27.902344 46.699219 28.09375 46.664062 28.242188 46.554688 C 28.386719 46.445312 28.476562 46.269531 28.476562 46.085938 L 28.476562 40.683594 C 28.859375 40.839844 29.25 40.972656 29.648438 41.082031 L 29.648438 48.1875 C 26.953125 47.796875 24.375 46.8125 22.183594 45.183594 C 16.359375 40.84375 14.070312 33.207031 16.554688 26.378906 C 16.628906 26.191406 16.597656 25.980469 16.480469 25.820312 C 16.363281 25.660156 16.167969 25.570312 15.96875 25.582031 C 15.734375 25.597656 15.53125 25.753906 15.453125 25.976562 C 12.792969 33.285156 15.246094 41.480469 21.484375 46.125 C 24.023438 48.015625 27.027344 49.183594 30.175781 49.511719 C 30.34375 49.53125 30.507812 49.476562 30.628906 49.363281 C 30.753906 49.253906 30.824219 49.097656 30.824219 48.929688 L 30.824219 41.308594 C 31.214844 41.359375 31.605469 41.386719 32 41.390625 C 32.394531 41.386719 32.785156 41.359375 33.175781 41.304688 L 33.175781 48.929688 C 33.175781 49.097656 33.246094 49.253906 33.371094 49.367188 C 33.496094 49.476562 33.660156 49.53125 33.824219 49.511719 C 36.972656 49.183594 39.976562 48.015625 42.515625 46.125 C 48.753906 41.480469 51.203125 33.285156 48.542969 25.976562 C 48.457031 25.726562 48.214844 25.566406 47.953125 25.582031 C 47.765625 25.59375 47.597656 25.695312 47.496094 25.851562 C 47.394531 26.007812 47.375 26.203125 47.441406 26.378906 C 49.925781 33.203125 47.640625 40.84375 41.8125 45.183594 C 39.621094 46.8125 37.046875 47.796875 34.351562 48.191406 L 34.351562 41.074219 C 34.75 40.972656 35.144531 40.84375 35.527344 40.6875 L 35.527344 46.085938 C 35.527344 46.269531 35.613281 46.441406 35.761719 46.554688 C 35.910156 46.664062 36.097656 46.699219 36.277344 46.648438 C 41.394531 45.152344 45.359375 41.097656 46.742188 35.949219 C 48.527344 29.28125 45.609375 22.234375 39.628906 18.785156 C 39.53125 18.722656 39.410156 18.695312 39.292969 18.703125 C 39.035156 18.71875 38.816406 18.902344 38.757812 19.15625 C 38.699219 19.410156 38.816406 19.671875 39.042969 19.800781 C 44.566406 22.988281 47.257812 29.484375 45.609375 35.644531 C 44.40625 40.128906 41.039062 43.640625 36.699219 45.191406 L 36.699219 40.15625 C 38.0625 39.875 39.042969 38.675781 39.042969 37.28125 C 39.042969 36.09375 38.324219 35.023438 37.226562 34.570312 C 38.210938 29.910156 40.21875 31.527344 40.21875 29.753906 L 40.21875 29.109375 C 40.21875 27.441406 35.175781 19.085938 32 19.085938 C 28.824219 19.085938 23.78125 27.441406 23.78125 29.109375 L 23.78125 29.753906 C 23.78125 31.527344 25.789062 29.910156 26.773438 34.570312 C 25.675781 35.023438 24.957031 36.09375 24.957031 37.28125 C 24.960938 38.671875 25.9375 39.871094 27.300781 40.152344 L 27.300781 45.195312 C 22.960938 43.644531 19.59375 40.128906 18.394531 35.644531 C 16.742188 29.484375 19.433594 22.988281 24.957031 19.800781 C 25.195312 19.664062 25.3125 19.382812 25.234375 19.121094 C 25.15625 18.855469 24.90625 18.683594 24.632812 18.699219 Z M 27.890625 35.519531 C 28.863281 35.519531 29.652344 36.308594 29.652344 37.28125 C 29.652344 38.253906 28.863281 39.042969 27.890625 39.042969 C 26.917969 39.042969 26.128906 38.253906 26.128906 37.28125 C 26.128906 36.308594 26.917969 35.519531 27.890625 35.519531 Z M 36.109375 35.519531 C 37.082031 35.519531 37.871094 36.308594 37.871094 37.28125 C 37.871094 38.253906 37.082031 39.042969 36.109375 39.042969 C 35.136719 39.042969 34.347656 38.253906 34.347656 37.28125 C 34.347656 36.308594 35.136719 35.519531 36.109375 35.519531 Z M 36.109375 35.519531 "/>
</svg>
