<?xml version="1.0" encoding="UTF-8"?>
<svg xmlns="http://www.w3.org/2000/svg" xmlns:xlink="http://www.w3.org/1999/xlink" width="64" height="64" viewBox="0 0 64 64">
<path fill-rule="nonzero" fill="rgb(90.196078%, 45.882353%, 43.137255%)" fill-opacity="1" d="M 15.609375 8.460938 C 15.609375 12.40625 12.410156 15.605469 8.464844 15.605469 C 4.519531 15.605469 1.324219 12.40625 1.324219 8.460938 C 1.324219 4.515625 4.519531 1.316406 8.464844 1.316406 C 12.410156 1.316406 15.609375 4.515625 15.609375 8.460938 Z M 15.609375 8.460938 "/>
<path fill-rule="nonzero" fill="rgb(86.666667%, 32.54902%, 28.627451%)" fill-opacity="1" d="M 12.171875 8.460938 C 12.171875 10.503906 10.511719 12.164062 8.46875 12.164062 C 6.421875 12.164062 4.761719 10.503906 4.761719 8.460938 C 4.761719 6.414062 6.421875 4.757812 8.46875 4.757812 C 10.511719 4.757812 12.171875 6.414062 12.171875 8.460938 Z M 12.171875 8.460938 "/>
<path fill-rule="nonzero" fill="rgb(100%, 100%, 100%)" fill-opacity="1" d="M 10.585938 8.460938 C 10.585938 9.335938 9.636719 10.046875 8.46875 10.046875 C 7.296875 10.046875 6.351562 9.335938 6.351562 8.460938 C 6.351562 7.582031 7.296875 6.871094 8.46875 6.871094 C 9.636719 6.871094 10.585938 7.582031 10.585938 8.460938 Z M 10.585938 8.460938 "/>
<path fill-rule="nonzero" fill="rgb(100%, 100%, 100%)" fill-opacity="1" d="M 10.054688 3.699219 L 10.582031 3.699219 L 10.582031 8.464844 L 10.054688 8.464844 Z M 10.054688 3.699219 "/>
<path fill-rule="nonzero" fill="rgb(100%, 100%, 100%)" fill-opacity="1" d="M 10.054688 3.699219 L 11.90625 3.171875 L 11.90625 4.230469 L 10.054688 4.761719 Z M 10.054688 3.699219 "/>
</svg>
