<?xml version="1.0" encoding="UTF-8"?>
<svg xmlns="http://www.w3.org/2000/svg" xmlns:xlink="http://www.w3.org/1999/xlink" width="64" height="64" viewBox="0 0 64 64">
<defs>
<filter id="filter-remove-color" x="0%" y="0%" width="100%" height="100%">
<feColorMatrix color-interpolation-filters="sRGB" values="0 0 0 0 1 0 0 0 0 1 0 0 0 0 1 0 0 0 1 0" />
</filter>
<mask id="mask-0">
<g filter="url(#filter-remove-color)">
<rect x="-6.4" y="-6.4" width="76.8" height="76.8" fill="rgb(0%, 0%, 0%)" fill-opacity="0.1"/>
</g>
</mask>
<clipPath id="clip-0">
<rect x="0" y="0" width="17" height="17"/>
</clipPath>
<g id="source-1256" clip-path="url(#clip-0)">
<path fill-rule="nonzero" fill="rgb(0%, 0%, 0%)" fill-opacity="1" d="M 8.46875 2.640625 L 8.46875 2.910156 L 7.671875 2.910156 L 7.671875 2.699219 C 7.585938 2.710938 7.496094 2.722656 7.410156 2.738281 L 7.410156 2.910156 L 6.734375 2.910156 C 6.496094 2.984375 6.265625 3.070312 6.042969 3.175781 L 6.351562 3.175781 L 6.351562 3.96875 L 5.558594 3.96875 L 5.558594 3.425781 C 5.46875 3.476562 5.378906 3.527344 5.292969 3.582031 L 5.292969 3.96875 L 4.769531 3.96875 C 4.578125 4.128906 4.402344 4.296875 4.234375 4.476562 L 4.234375 5.019531 L 3.78125 5.019531 C 3.714844 5.105469 3.652344 5.195312 3.59375 5.285156 L 4.234375 5.285156 L 4.234375 6.082031 L 3.441406 6.082031 L 3.441406 5.535156 C 3.34375 5.703125 3.253906 5.875 3.175781 6.050781 L 3.175781 6.082031 L 3.160156 6.082031 C 3.121094 6.167969 3.085938 6.257812 3.050781 6.34375 L 3.175781 6.34375 L 3.175781 7.140625 L 2.804688 7.140625 C 2.78125 7.226562 2.761719 7.316406 2.746094 7.40625 L 3.175781 7.40625 L 3.175781 8.199219 L 2.660156 8.199219 C 2.652344 8.285156 2.648438 8.375 2.644531 8.460938 C 2.644531 8.460938 2.644531 8.460938 2.644531 8.464844 C 2.648438 8.464844 2.648438 8.464844 2.652344 8.464844 L 3.175781 8.464844 L 3.175781 9.261719 L 2.707031 9.261719 C 2.71875 9.347656 2.730469 9.4375 2.746094 9.523438 L 3.175781 9.523438 L 3.175781 10.308594 L 2.957031 10.308594 C 2.984375 10.398438 3.011719 10.488281 3.042969 10.574219 L 3.175781 10.574219 L 3.175781 10.867188 C 3.292969 11.132812 3.433594 11.390625 3.589844 11.636719 L 4.234375 11.636719 L 4.234375 12.429688 L 4.214844 12.429688 C 4.304688 12.527344 4.402344 12.617188 4.496094 12.707031 L 4.496094 12.695312 L 5.292969 12.695312 L 5.292969 13.332031 C 5.539062 13.492188 5.796875 13.632812 6.0625 13.753906 L 6.351562 13.753906 L 6.351562 13.875 C 6.4375 13.910156 6.527344 13.941406 6.613281 13.972656 L 6.613281 13.753906 L 7.410156 13.753906 L 7.410156 14.179688 C 7.496094 14.195312 7.585938 14.207031 7.671875 14.21875 L 7.671875 13.753906 L 8.46875 13.753906 L 8.46875 14.28125 C 8.554688 14.28125 8.644531 14.277344 8.730469 14.273438 L 8.730469 13.753906 L 9.523438 13.753906 L 9.523438 14.179688 C 9.613281 14.164062 9.703125 14.144531 9.789062 14.121094 L 9.789062 13.753906 L 10.582031 13.753906 L 10.582031 13.882812 C 10.671875 13.84375 10.761719 13.804688 10.847656 13.765625 L 10.847656 13.753906 L 10.867188 13.753906 C 11.042969 13.675781 11.214844 13.585938 11.382812 13.488281 L 10.847656 13.488281 L 10.847656 12.695312 L 11.640625 12.695312 L 11.640625 13.335938 C 11.730469 13.277344 11.820312 13.214844 11.90625 13.148438 L 11.90625 12.695312 L 12.453125 12.695312 C 12.636719 12.523438 12.808594 12.34375 12.964844 12.148438 L 12.964844 11.636719 L 13.339844 11.636719 C 13.398438 11.546875 13.449219 11.460938 13.503906 11.371094 L 12.964844 11.371094 L 12.964844 10.574219 L 13.757812 10.574219 L 13.757812 10.871094 C 13.859375 10.652344 13.949219 10.425781 14.023438 10.191406 L 14.023438 9.523438 L 14.1875 9.523438 C 14.203125 9.4375 14.214844 9.347656 14.226562 9.261719 L 14.023438 9.261719 L 14.023438 8.464844 L 14.289062 8.464844 C 14.289062 8.464844 14.289062 8.460938 14.289062 8.460938 C 14.289062 8.375 14.285156 8.285156 14.277344 8.199219 L 14.023438 8.199219 L 14.023438 7.40625 L 14.1875 7.40625 C 14.171875 7.316406 14.152344 7.226562 14.128906 7.140625 L 14.023438 7.140625 L 14.023438 6.746094 C 13.949219 6.507812 13.859375 6.277344 13.757812 6.050781 L 13.757812 6.082031 L 12.964844 6.082031 L 12.964844 5.285156 L 13.34375 5.285156 C 13.285156 5.195312 13.21875 5.105469 13.15625 5.019531 L 12.964844 5.019531 L 12.964844 4.769531 C 12.878906 4.667969 12.792969 4.566406 12.699219 4.46875 L 12.699219 5.019531 L 11.90625 5.019531 L 11.90625 4.234375 L 12.460938 4.234375 C 12.367188 4.144531 12.269531 4.054688 12.167969 3.96875 L 11.90625 3.96875 L 11.90625 3.773438 C 11.820312 3.707031 11.730469 3.648438 11.640625 3.585938 L 11.640625 3.96875 L 10.847656 3.96875 L 10.847656 3.175781 L 10.890625 3.175781 C 10.671875 3.074219 10.449219 2.984375 10.21875 2.910156 L 9.789062 2.910156 L 9.789062 2.796875 C 9.703125 2.777344 9.613281 2.757812 9.523438 2.738281 L 9.523438 2.910156 L 8.730469 2.910156 L 8.730469 2.652344 C 8.644531 2.644531 8.554688 2.640625 8.46875 2.640625 Z M 6.613281 3.175781 L 7.410156 3.175781 L 7.410156 3.96875 L 6.613281 3.96875 Z M 7.671875 3.175781 L 8.46875 3.175781 L 8.46875 3.96875 L 7.671875 3.96875 Z M 8.730469 3.175781 L 9.523438 3.175781 L 9.523438 3.96875 L 8.730469 3.96875 Z M 9.789062 3.175781 L 10.582031 3.175781 L 10.582031 3.96875 L 9.789062 3.96875 Z M 4.496094 4.234375 L 5.292969 4.234375 L 5.292969 5.019531 L 4.496094 5.019531 Z M 5.558594 4.234375 L 6.351562 4.234375 L 6.351562 5.019531 L 5.558594 5.019531 Z M 6.613281 4.234375 L 7.40625 4.234375 L 7.40625 5.019531 L 6.613281 5.019531 Z M 7.671875 4.234375 L 8.46875 4.234375 L 8.46875 5.019531 L 7.671875 5.019531 Z M 8.730469 4.234375 L 9.523438 4.234375 L 9.523438 5.019531 L 8.730469 5.019531 Z M 9.789062 4.234375 L 10.582031 4.234375 L 10.582031 5.019531 L 9.789062 5.019531 Z M 10.847656 4.234375 L 11.640625 4.234375 L 11.640625 5.019531 L 10.847656 5.019531 Z M 4.496094 5.285156 L 5.292969 5.285156 L 5.292969 6.082031 L 4.496094 6.082031 Z M 5.558594 5.285156 L 6.351562 5.285156 L 6.351562 6.082031 L 5.558594 6.082031 Z M 6.613281 5.285156 L 7.40625 5.285156 L 7.40625 6.082031 L 6.613281 6.082031 Z M 7.671875 5.285156 L 8.46875 5.285156 L 8.46875 6.082031 L 7.671875 6.082031 Z M 8.730469 5.285156 L 9.523438 5.285156 L 9.523438 6.082031 L 8.730469 6.082031 Z M 9.789062 5.285156 L 10.582031 5.285156 L 10.582031 6.082031 L 9.789062 6.082031 Z M 10.847656 5.285156 L 11.640625 5.285156 L 11.640625 6.082031 L 10.847656 6.082031 Z M 11.90625 5.285156 L 12.699219 5.285156 L 12.699219 6.082031 L 11.90625 6.082031 Z M 3.441406 6.34375 L 4.234375 6.34375 L 4.234375 7.140625 L 3.441406 7.140625 Z M 4.496094 6.34375 L 5.292969 6.34375 L 5.292969 7.140625 L 4.496094 7.140625 Z M 5.558594 6.34375 L 6.351562 6.34375 L 6.351562 7.140625 L 5.558594 7.140625 Z M 6.613281 6.34375 L 7.40625 6.34375 L 7.40625 7.140625 L 6.613281 7.140625 Z M 7.671875 6.34375 L 8.46875 6.34375 L 8.46875 7.140625 L 7.671875 7.140625 Z M 8.730469 6.34375 L 9.523438 6.34375 L 9.523438 7.140625 L 8.730469 7.140625 Z M 9.789062 6.34375 L 10.582031 6.34375 L 10.582031 7.140625 L 9.789062 7.140625 Z M 10.847656 6.34375 L 11.640625 6.34375 L 11.640625 7.140625 L 10.847656 7.140625 Z M 11.90625 6.34375 L 12.699219 6.34375 L 12.699219 7.140625 L 11.90625 7.140625 Z M 12.964844 6.34375 L 13.757812 6.34375 L 13.757812 7.140625 L 12.964844 7.140625 Z M 3.441406 7.40625 L 4.234375 7.40625 L 4.234375 8.199219 L 3.441406 8.199219 Z M 4.496094 7.40625 L 5.292969 7.40625 L 5.292969 8.199219 L 4.496094 8.199219 Z M 5.558594 7.40625 L 6.351562 7.40625 L 6.351562 8.199219 L 5.558594 8.199219 Z M 6.613281 7.40625 L 7.40625 7.40625 L 7.40625 8.199219 L 6.613281 8.199219 Z M 7.671875 7.40625 L 8.46875 7.40625 L 8.46875 8.199219 L 7.671875 8.199219 Z M 8.730469 7.40625 L 9.523438 7.40625 L 9.523438 8.199219 L 8.730469 8.199219 Z M 9.789062 7.40625 L 10.582031 7.40625 L 10.582031 8.199219 L 9.789062 8.199219 Z M 10.847656 7.40625 L 11.640625 7.40625 L 11.640625 8.199219 L 10.847656 8.199219 Z M 11.90625 7.40625 L 12.699219 7.40625 L 12.699219 8.199219 L 11.90625 8.199219 Z M 12.964844 7.40625 L 13.757812 7.40625 L 13.757812 8.199219 L 12.964844 8.199219 Z M 3.441406 8.464844 L 4.234375 8.464844 L 4.234375 9.261719 L 3.441406 9.261719 Z M 4.496094 8.464844 L 5.292969 8.464844 L 5.292969 9.261719 L 4.496094 9.261719 Z M 5.558594 8.464844 L 6.351562 8.464844 L 6.351562 9.261719 L 5.558594 9.261719 Z M 6.613281 8.464844 L 7.40625 8.464844 L 7.40625 9.261719 L 6.613281 9.261719 Z M 7.671875 8.464844 L 8.46875 8.464844 L 8.46875 9.261719 L 7.671875 9.261719 Z M 8.730469 8.464844 L 9.523438 8.464844 L 9.523438 9.261719 L 8.730469 9.261719 Z M 9.789062 8.464844 L 10.582031 8.464844 L 10.582031 9.261719 L 9.789062 9.261719 Z M 10.847656 8.464844 L 11.640625 8.464844 L 11.640625 9.261719 L 10.847656 9.261719 Z M 11.90625 8.464844 L 12.699219 8.464844 L 12.699219 9.261719 L 11.90625 9.261719 Z M 12.964844 8.464844 L 13.757812 8.464844 L 13.757812 9.261719 L 12.964844 9.261719 Z M 3.441406 9.523438 L 4.234375 9.523438 L 4.234375 10.308594 L 3.441406 10.308594 Z M 4.496094 9.523438 L 5.292969 9.523438 L 5.292969 10.308594 L 4.496094 10.308594 Z M 5.558594 9.523438 L 6.351562 9.523438 L 6.351562 10.308594 L 5.558594 10.308594 Z M 6.613281 9.523438 L 7.40625 9.523438 L 7.40625 10.308594 L 6.613281 10.308594 Z M 7.671875 9.523438 L 8.464844 9.523438 L 8.464844 10.308594 L 7.671875 10.308594 Z M 8.730469 9.523438 L 9.523438 9.523438 L 9.523438 10.308594 L 8.730469 10.308594 Z M 9.789062 9.523438 L 10.582031 9.523438 L 10.582031 10.308594 L 9.789062 10.308594 Z M 10.847656 9.523438 L 11.640625 9.523438 L 11.640625 10.308594 L 10.847656 10.308594 Z M 11.90625 9.523438 L 12.699219 9.523438 L 12.699219 10.308594 L 11.90625 10.308594 Z M 12.964844 9.523438 L 13.757812 9.523438 L 13.757812 10.308594 L 12.964844 10.308594 Z M 3.441406 10.574219 L 4.234375 10.574219 L 4.234375 11.371094 L 3.441406 11.371094 Z M 4.496094 10.574219 L 5.292969 10.574219 L 5.292969 11.371094 L 4.496094 11.371094 Z M 5.558594 10.574219 L 6.347656 10.574219 L 6.347656 11.371094 L 5.558594 11.371094 Z M 6.613281 10.574219 L 7.40625 10.574219 L 7.40625 11.371094 L 6.613281 11.371094 Z M 7.671875 10.574219 L 8.464844 10.574219 L 8.464844 11.371094 L 7.671875 11.371094 Z M 8.730469 10.574219 L 9.523438 10.574219 L 9.523438 11.371094 L 8.730469 11.371094 Z M 9.789062 10.574219 L 10.582031 10.574219 L 10.582031 11.371094 L 9.789062 11.371094 Z M 10.847656 10.574219 L 11.640625 10.574219 L 11.640625 11.371094 L 10.847656 11.371094 Z M 11.90625 10.574219 L 12.699219 10.574219 L 12.699219 11.371094 L 11.90625 11.371094 Z M 4.496094 11.636719 L 5.292969 11.636719 L 5.292969 12.429688 L 4.496094 12.429688 Z M 5.558594 11.636719 L 6.347656 11.636719 L 6.347656 12.429688 L 5.558594 12.429688 Z M 6.613281 11.636719 L 7.40625 11.636719 L 7.40625 12.429688 L 6.613281 12.429688 Z M 7.671875 11.636719 L 8.464844 11.636719 L 8.464844 12.429688 L 7.671875 12.429688 Z M 8.730469 11.636719 L 9.523438 11.636719 L 9.523438 12.429688 L 8.730469 12.429688 Z M 9.789062 11.636719 L 10.582031 11.636719 L 10.582031 12.429688 L 9.789062 12.429688 Z M 10.847656 11.636719 L 11.640625 11.636719 L 11.640625 12.429688 L 10.847656 12.429688 Z M 11.90625 11.636719 L 12.699219 11.636719 L 12.699219 12.429688 L 11.90625 12.429688 Z M 5.558594 12.695312 L 6.347656 12.695312 L 6.347656 13.488281 L 5.558594 13.488281 Z M 6.613281 12.695312 L 7.40625 12.695312 L 7.40625 13.488281 L 6.613281 13.488281 Z M 7.671875 12.695312 L 8.464844 12.695312 L 8.464844 13.488281 L 7.671875 13.488281 Z M 8.730469 12.695312 L 9.523438 12.695312 L 9.523438 13.488281 L 8.730469 13.488281 Z M 9.789062 12.695312 L 10.582031 12.695312 L 10.582031 13.488281 L 9.789062 13.488281 Z M 9.789062 12.695312 "/>
</g>
<mask id="mask-1">
<g filter="url(#filter-remove-color)">
<rect x="-6.4" y="-6.4" width="76.8" height="76.8" fill="rgb(0%, 0%, 0%)" fill-opacity="0.25"/>
</g>
</mask>
<clipPath id="clip-1">
<rect x="0" y="0" width="17" height="17"/>
</clipPath>
<g id="source-1260" clip-path="url(#clip-1)">
<path fill-rule="evenodd" fill="rgb(0%, 0%, 0%)" fill-opacity="1" d="M 14.289062 8.460938 C 14.289062 11.675781 11.683594 14.28125 8.46875 14.28125 C 5.253906 14.28125 2.644531 11.675781 2.644531 8.460938 C 2.644531 5.246094 5.253906 2.640625 8.46875 2.640625 C 11.683594 2.640625 14.289062 5.246094 14.289062 8.460938 Z M 14.289062 8.460938 "/>
</g>
<linearGradient id="linear-pattern-0" gradientUnits="userSpaceOnUse" x1="10" y1="32" x2="53.890999" y2="32" gradientTransform="matrix(0.26458, 0, 0, 0.26458, 0, 0)">
<stop offset="0" stop-color="rgb(100%, 100%, 100%)" stop-opacity="1"/>
<stop offset="1" stop-color="rgb(100%, 100%, 100%)" stop-opacity="0"/>
</linearGradient>
<linearGradient id="linear-pattern-1" gradientUnits="userSpaceOnUse" x1="32" y1="43.542999" x2="53.890999" y2="43.542999" gradientTransform="matrix(0.26458, 0, 0, 0.26458, 0, 0)">
<stop offset="0" stop-color="rgb(81.960784%, 100%, 98.039216%)" stop-opacity="1"/>
<stop offset="1" stop-color="rgb(63.137255%, 100%, 96.078431%)" stop-opacity="1"/>
</linearGradient>
</defs>
<path fill-rule="evenodd" fill="rgb(32.156863%, 80.784314%, 75.294118%)" fill-opacity="1" d="M 15.609375 8.460938 C 15.609375 12.40625 12.410156 15.605469 8.464844 15.605469 C 4.519531 15.605469 1.324219 12.40625 1.324219 8.460938 C 1.324219 4.515625 4.519531 1.316406 8.464844 1.316406 C 12.410156 1.316406 15.609375 4.515625 15.609375 8.460938 Z M 15.609375 8.460938 "/>
<g mask="url(#mask-0)">
<use xlink:href="#source-1256"/>
</g>
<g mask="url(#mask-1)">
<use xlink:href="#source-1260"/>
</g>
<path fill-rule="evenodd" fill="rgb(63.137255%, 100%, 96.078431%)" fill-opacity="1" d="M 8.46875 2.640625 C 5.253906 2.640625 2.644531 5.246094 2.644531 8.460938 C 2.644531 11.675781 5.25 14.28125 8.464844 14.28125 C 11.679688 14.28125 14.285156 11.675781 14.285156 8.460938 C 14.289062 5.246094 11.683594 2.640625 8.46875 2.640625 Z M 8.46875 3.167969 C 11.390625 3.167969 13.757812 5.539062 13.757812 8.460938 C 13.757812 11.382812 11.390625 13.75 8.46875 13.753906 C 5.542969 13.753906 3.175781 11.382812 3.175781 8.460938 C 3.175781 5.539062 5.542969 3.167969 8.46875 3.167969 Z M 8.46875 3.167969 "/>
<path fill-rule="evenodd" fill="rgb(100%, 100%, 100%)" fill-opacity="1" d="M 4.257812 9.601562 C 4.304688 9.695312 4.390625 9.828125 4.523438 9.960938 C 4.753906 10.1875 5.03125 10.328125 5.363281 10.328125 C 5.777344 10.328125 6.082031 10.097656 6.304688 9.691406 C 6.453125 9.414062 6.539062 9.152344 6.714844 8.519531 C 7.011719 7.425781 7.199219 7.078125 7.578125 7.078125 C 7.945312 7.078125 8.097656 7.414062 8.296875 8.5 C 8.410156 9.132812 8.472656 9.394531 8.601562 9.675781 C 8.789062 10.09375 9.082031 10.328125 9.5 10.328125 C 10.03125 10.328125 10.230469 10.035156 10.390625 9.402344 L 10.40625 9.335938 C 10.503906 8.941406 10.558594 8.851562 10.683594 8.851562 C 10.769531 8.851562 10.8125 8.90625 10.902344 9.1875 L 10.941406 9.304688 L 10.984375 9.429688 C 11.21875 10.085938 11.632812 10.40625 12.476562 10.328125 C 12.605469 10.304688 12.691406 10.1875 12.679688 10.058594 C 12.667969 9.929688 12.5625 9.832031 12.433594 9.832031 C 11.835938 9.886719 11.613281 9.71875 11.453125 9.261719 C 11.425781 9.1875 11.398438 9.109375 11.375 9.03125 C 11.226562 8.5625 11.066406 8.355469 10.683594 8.355469 C 10.226562 8.355469 10.070312 8.605469 9.921875 9.214844 L 9.90625 9.28125 C 9.796875 9.710938 9.714844 9.832031 9.5 9.832031 C 9.136719 9.832031 8.984375 9.496094 8.785156 8.410156 C 8.671875 7.777344 8.609375 7.515625 8.480469 7.234375 C 8.292969 6.820312 8 6.582031 7.582031 6.582031 C 7.167969 6.582031 6.863281 6.8125 6.640625 7.21875 C 6.492188 7.496094 6.402344 7.757812 6.230469 8.390625 C 5.933594 9.484375 5.746094 9.832031 5.363281 9.832031 C 5.179688 9.828125 5 9.746094 4.875 9.609375 C 4.808594 9.539062 4.75 9.460938 4.703125 9.378906 C 4.640625 9.253906 4.492188 9.203125 4.367188 9.265625 C 4.246094 9.328125 4.195312 9.476562 4.257812 9.601562 Z M 4.257812 9.601562 "/>
<path fill-rule="evenodd" fill="url(#linear-pattern-0)" d="M 8.464844 2.644531 C 5.25 2.644531 2.644531 5.25 2.644531 8.464844 C 2.644531 11.679688 5.25 14.289062 8.464844 14.289062 C 11.472656 14.285156 13.984375 11.992188 14.257812 8.996094 L 13.730469 8.996094 C 13.460938 11.699219 11.183594 13.757812 8.464844 13.757812 C 5.542969 13.757812 3.175781 11.390625 3.175781 8.464844 C 3.175781 5.542969 5.542969 3.175781 8.464844 3.175781 Z M 8.464844 2.644531 "/>
<path fill-rule="evenodd" fill="url(#linear-pattern-1)" d="M 13.992188 8.753906 C 13.847656 8.753906 13.726562 8.871094 13.726562 9.019531 C 13.445312 11.710938 11.175781 13.757812 8.464844 13.757812 L 8.464844 14.289062 C 11.433594 14.285156 13.921875 12.046875 14.246094 9.097656 C 14.253906 9.074219 14.257812 9.046875 14.257812 9.019531 C 14.257812 9.015625 14.257812 9.011719 14.257812 9.007812 C 14.257812 9.003906 14.257812 9 14.257812 8.996094 C 14.246094 8.859375 14.128906 8.753906 13.992188 8.753906 Z M 13.992188 8.753906 "/>
<path fill-rule="evenodd" fill="rgb(100%, 100%, 100%)" fill-opacity="1" d="M 8.464844 2.644531 C 8.457031 2.644531 8.449219 2.644531 8.441406 2.648438 C 5.238281 2.660156 2.644531 5.261719 2.644531 8.464844 L 3.175781 8.464844 C 3.175781 5.542969 5.542969 3.175781 8.464844 3.175781 C 8.613281 3.175781 8.730469 3.054688 8.730469 2.910156 C 8.730469 2.765625 8.613281 2.644531 8.464844 2.644531 Z M 8.464844 2.644531 "/>
</svg>
