<?xml version="1.0" encoding="UTF-8"?>
<svg xmlns="http://www.w3.org/2000/svg" xmlns:xlink="http://www.w3.org/1999/xlink" width="64" height="64" viewBox="0 0 64 64">
<defs>
<filter id="filter-remove-color" x="0%" y="0%" width="100%" height="100%">
<feColorMatrix color-interpolation-filters="sRGB" values="0 0 0 0 1 0 0 0 0 1 0 0 0 0 1 0 0 0 1 0" />
</filter>
<mask id="mask-0">
<g filter="url(#filter-remove-color)">
<rect x="-6.4" y="-6.4" width="76.8" height="76.8" fill="rgb(0%, 0%, 0%)" fill-opacity="0.15"/>
</g>
</mask>
<clipPath id="clip-0">
<rect x="0" y="0" width="17" height="17"/>
</clipPath>
<g id="source-2193" clip-path="url(#clip-0)">
<path fill-rule="nonzero" fill="rgb(0%, 0%, 0%)" fill-opacity="1" d="M 12.582031 4.351562 C 12.339844 4.109375 12.082031 3.894531 11.8125 3.703125 L 10.765625 3.703125 C 9.316406 3 7.617188 3 6.167969 3.703125 L 5.121094 3.703125 C 4.851562 3.894531 4.59375 4.109375 4.351562 4.351562 C 2.070312 6.628906 2.070312 10.300781 4.351562 12.582031 C 4.59375 12.824219 4.851562 13.039062 5.121094 13.230469 L 6.167969 13.230469 C 7.617188 13.933594 9.316406 13.933594 10.765625 13.230469 L 11.8125 13.230469 C 12.082031 13.039062 12.339844 12.824219 12.582031 12.582031 C 14.863281 10.300781 14.863281 6.628906 12.582031 4.351562 Z M 12.582031 4.351562 "/>
</g>
</defs>
<path fill-rule="nonzero" fill="rgb(27.45098%, 81.960784%, 46.666667%)" fill-opacity="1" d="M 15.609375 8.464844 C 15.609375 4.519531 12.410156 1.324219 8.464844 1.324219 C 4.519531 1.324219 1.324219 4.519531 1.324219 8.464844 C 1.324219 12.410156 4.519531 15.609375 8.464844 15.609375 C 12.410156 15.609375 15.609375 12.410156 15.609375 8.464844 Z M 15.609375 8.464844 "/>
<g mask="url(#mask-0)">
<use xlink:href="#source-2193"/>
</g>
<path fill-rule="nonzero" fill="rgb(100%, 100%, 100%)" fill-opacity="1" d="M 9.148438 5.289062 C 7.777344 5.289062 6.644531 6.410156 6.644531 7.78125 C 6.644531 8.304688 6.820312 8.78125 7.097656 9.1875 L 5.429688 10.859375 C 5.253906 11.035156 5.253906 11.320312 5.425781 11.496094 C 5.601562 11.671875 5.882812 11.679688 6.0625 11.511719 L 7.734375 9.835938 C 8.136719 10.113281 8.628906 10.277344 9.148438 10.277344 C 10.527344 10.273438 11.640625 9.160156 11.640625 7.78125 C 11.640625 6.40625 10.527344 5.292969 9.148438 5.289062 Z M 9.148438 6.195312 C 10.03125 6.195312 10.734375 6.898438 10.734375 7.78125 C 10.734375 8.664062 10.03125 9.371094 9.148438 9.371094 C 8.730469 9.371094 8.324219 9.203125 8.027344 8.90625 C 7.730469 8.609375 7.5625 8.203125 7.566406 7.78125 C 7.566406 6.898438 8.269531 6.195312 9.148438 6.195312 Z M 9.148438 6.195312 "/>
</svg>
