<?xml version="1.0" encoding="UTF-8"?>
<svg xmlns="http://www.w3.org/2000/svg" xmlns:xlink="http://www.w3.org/1999/xlink" width="64" height="64" viewBox="0 0 64 64">
<path fill-rule="nonzero" fill="rgb(30.196078%, 30.196078%, 30.196078%)" fill-opacity="1" d="M 8.464844 1.324219 C 4.519531 1.324219 1.324219 4.519531 1.324219 8.464844 C 1.324219 12.410156 4.519531 15.609375 8.464844 15.609375 C 12.410156 15.609375 15.609375 12.410156 15.609375 8.464844 C 15.609375 4.519531 12.410156 1.324219 8.464844 1.324219 Z M 8.464844 1.324219 "/>
<path fill-rule="nonzero" fill="rgb(12.156863%, 56.078431%, 84.313725%)" fill-opacity="1" d="M 8.46875 1.324219 L 8.46875 8.464844 L 15.609375 8.464844 C 15.609375 4.519531 12.410156 1.324219 8.46875 1.324219 Z M 1.324219 8.46875 C 1.324219 12.414062 4.523438 15.609375 8.464844 15.609375 C 8.464844 15.609375 8.46875 15.609375 8.46875 15.609375 L 8.46875 8.46875 Z M 1.324219 8.46875 "/>
<path fill-rule="nonzero" fill="rgb(100%, 100%, 100%)" fill-opacity="1" d="M 5.6875 3.722656 L 6.261719 4.941406 L 7.539062 5.136719 L 6.613281 6.085938 L 6.832031 7.425781 L 5.6875 6.792969 L 4.542969 7.425781 L 4.761719 6.085938 L 3.835938 5.136719 L 5.117188 4.941406 Z M 5.6875 3.722656 "/>
<path fill-rule="nonzero" fill="rgb(100%, 100%, 100%)" fill-opacity="1" d="M 12.699219 5.820312 C 12.699219 6.695312 11.988281 7.40625 11.113281 7.40625 C 10.234375 7.40625 9.523438 6.695312 9.523438 5.820312 C 9.523438 4.945312 10.234375 4.234375 11.113281 4.234375 C 11.988281 4.234375 12.699219 4.945312 12.699219 5.820312 Z M 12.699219 5.820312 "/>
<path fill-rule="nonzero" fill="rgb(100%, 100%, 100%)" fill-opacity="1" d="M 9.523438 9.523438 L 12.699219 9.523438 L 12.699219 12.699219 L 9.523438 12.699219 Z M 9.523438 9.523438 "/>
<path fill-rule="nonzero" fill="rgb(100%, 100%, 100%)" fill-opacity="1" d="M 7.40625 11.113281 C 7.40625 11.988281 6.695312 12.699219 5.820312 12.699219 C 4.945312 12.699219 4.234375 11.988281 4.234375 11.113281 C 4.234375 10.234375 4.945312 9.523438 5.820312 9.523438 C 6.695312 9.523438 7.40625 10.234375 7.40625 11.113281 Z M 7.40625 11.113281 "/>
</svg>
