<?xml version="1.0" encoding="UTF-8"?>
<svg xmlns="http://www.w3.org/2000/svg" xmlns:xlink="http://www.w3.org/1999/xlink" width="64" height="64" viewBox="0 0 64 64">
<path fill-rule="nonzero" fill="rgb(97.647059%, 97.647059%, 97.647059%)" fill-opacity="1" d="M 15.609375 8.464844 C 15.609375 12.410156 12.410156 15.609375 8.464844 15.609375 C 4.519531 15.609375 1.324219 12.410156 1.324219 8.464844 C 1.324219 4.519531 4.519531 1.324219 8.464844 1.324219 C 12.410156 1.324219 15.609375 4.519531 15.609375 8.464844 Z M 15.609375 8.464844 "/>
<path fill-rule="nonzero" fill="rgb(50.196078%, 50.196078%, 50.196078%)" fill-opacity="1" d="M 8.464844 1.324219 C 4.519531 1.324219 1.324219 4.519531 1.324219 8.464844 C 1.324219 8.464844 1.324219 8.46875 1.324219 8.46875 L 8.46875 8.46875 L 8.46875 1.324219 C 8.46875 1.324219 8.464844 1.324219 8.464844 1.324219 Z M 8.464844 1.324219 "/>
<path fill-rule="nonzero" fill="rgb(50.196078%, 50.196078%, 50.196078%)" fill-opacity="1" d="M 8.464844 8.46875 L 8.464844 15.609375 C 12.410156 15.609375 15.609375 12.414062 15.609375 8.46875 Z M 8.464844 8.46875 "/>
<path fill-rule="nonzero" fill="rgb(30.196078%, 30.196078%, 30.196078%)" fill-opacity="1" d="M 11.308594 12.238281 L 11.277344 12.238281 L 11.277344 12.128906 C 11.277344 12.0625 11.25 11.996094 11.203125 11.945312 C 11.152344 11.898438 11.089844 11.871094 11.019531 11.871094 L 10.898438 11.871094 C 10.878906 11.722656 10.882812 11.574219 10.910156 11.429688 C 11.046875 10.804688 11.21875 10.183594 11.410156 9.574219 C 11.730469 8.570312 11.925781 7.570312 11.605469 6.527344 C 11.253906 5.367188 10.550781 4.539062 9.355469 4.183594 C 9.265625 4.148438 9.1875 4.085938 9.140625 4.003906 C 8.96875 3.714844 8.742188 3.457031 8.472656 3.253906 C 8.460938 3.386719 8.445312 3.476562 8.441406 3.5625 C 8.441406 3.691406 8.445312 3.820312 8.457031 3.945312 C 8.472656 4.125 8.417969 4.230469 8.222656 4.246094 C 8.113281 4.253906 8.003906 4.296875 7.902344 4.320312 C 7.902344 4.722656 7.902344 4.722656 7.539062 4.867188 C 7.421875 4.917969 7.292969 4.953125 7.183594 5.015625 C 7.09375 5.074219 7.015625 5.144531 6.949219 5.226562 C 6.792969 5.40625 6.660156 5.613281 6.484375 5.777344 C 6.132812 6.101562 5.765625 6.410156 5.394531 6.714844 C 5.234375 6.84375 5.113281 6.960938 5.195312 7.191406 C 5.21875 7.257812 5.183594 7.34375 5.171875 7.421875 C 5.125 7.65625 5.328125 8.0625 5.546875 8.171875 C 6.0625 8.421875 6.46875 8.351562 6.878906 7.9375 C 7.070312 7.742188 7.28125 7.664062 7.554688 7.757812 C 7.929688 7.890625 8.3125 7.984375 8.761719 7.878906 C 8.671875 7.972656 8.621094 8.03125 8.566406 8.085938 C 8.054688 8.605469 7.558594 9.140625 7.183594 9.773438 C 6.886719 10.273438 6.644531 10.800781 6.652344 11.398438 C 6.65625 11.554688 6.675781 11.710938 6.695312 11.871094 L 6.644531 11.871094 C 6.574219 11.871094 6.511719 11.898438 6.460938 11.945312 C 6.414062 11.992188 6.386719 12.058594 6.386719 12.128906 L 6.386719 12.238281 L 6.355469 12.238281 C 6.195312 12.238281 6.066406 12.367188 6.066406 12.53125 L 6.066406 13.679688 L 11.597656 13.679688 L 11.597656 12.53125 C 11.597656 12.453125 11.570312 12.378906 11.515625 12.324219 C 11.457031 12.269531 11.382812 12.238281 11.308594 12.238281 Z M 11.308594 12.238281 "/>
</svg>
