<?xml version="1.0" encoding="UTF-8"?>
<svg xmlns="http://www.w3.org/2000/svg" xmlns:xlink="http://www.w3.org/1999/xlink" width="64" height="64" viewBox="0 0 64 64">
<defs>
<filter id="filter-remove-color" x="0%" y="0%" width="100%" height="100%">
<feColorMatrix color-interpolation-filters="sRGB" values="0 0 0 0 1 0 0 0 0 1 0 0 0 0 1 0 0 0 1 0" />
</filter>
<mask id="mask-0">
<g filter="url(#filter-remove-color)">
<rect x="-6.4" y="-6.4" width="76.8" height="76.8" fill="rgb(0%, 0%, 0%)" fill-opacity="0.1"/>
</g>
</mask>
<clipPath id="clip-0">
<rect x="0" y="0" width="17" height="17"/>
</clipPath>
<g id="source-7036" clip-path="url(#clip-0)">
<path fill-rule="nonzero" fill="rgb(100%, 100%, 100%)" fill-opacity="1" d="M 14.550781 8.460938 C 14.550781 11.820312 11.828125 14.546875 8.464844 14.546875 C 5.105469 14.546875 2.382812 11.820312 2.382812 8.460938 C 2.382812 5.097656 5.105469 2.375 8.464844 2.375 C 11.828125 2.375 14.550781 5.097656 14.550781 8.460938 Z M 14.550781 8.460938 "/>
</g>
<mask id="mask-1">
<g filter="url(#filter-remove-color)">
<rect x="-6.4" y="-6.4" width="76.8" height="76.8" fill="rgb(0%, 0%, 0%)" fill-opacity="0.5"/>
</g>
</mask>
<clipPath id="clip-1">
<rect x="0" y="0" width="17" height="17"/>
</clipPath>
<g id="source-7040" clip-path="url(#clip-1)">
<path fill-rule="nonzero" fill="rgb(100%, 100%, 100%)" fill-opacity="1" d="M 12.699219 9.945312 L 12.699219 7.171875 C 12.699219 6.800781 12.628906 6.53125 12.492188 6.367188 C 12.363281 6.210938 12.109375 6.132812 11.730469 6.132812 L 10.832031 6.132812 L 9.648438 5.296875 L 8.460938 6.132812 L 5.203125 6.132812 C 4.824219 6.132812 4.570312 6.210938 4.441406 6.367188 C 4.304688 6.53125 4.234375 6.800781 4.234375 7.171875 L 4.234375 9.945312 Z M 12.699219 9.945312 "/>
</g>
<linearGradient id="linear-pattern-0" gradientUnits="userSpaceOnUse" x1="0.639" y1="0.99" x2="0.639" y2="0.033" gradientTransform="matrix(8.466551, 0, 0, 6.341527, 4.233281, 5.295702)">
<stop offset="0.02174" stop-color="rgb(98.823529%, 98.039216%, 98.431373%)" stop-opacity="1"/>
<stop offset="1" stop-color="rgb(94.117647%, 87.45098%, 89.803922%)" stop-opacity="1"/>
</linearGradient>
<clipPath id="clip-2">
<rect x="0" y="0" width="17" height="17"/>
</clipPath>
<g id="source-7044" clip-path="url(#clip-2)">
<path fill-rule="nonzero" fill="url(#linear-pattern-0)" d="M 11.730469 11.636719 C 12.109375 11.640625 12.363281 11.550781 12.492188 11.394531 C 12.628906 11.234375 12.699219 10.964844 12.699219 10.59375 L 12.699219 7.300781 L 10.832031 6.132812 L 9.644531 5.296875 L 8.460938 6.132812 L 4.234375 9.34375 L 4.234375 10.59375 C 4.234375 10.964844 4.304688 11.234375 4.441406 11.394531 C 4.570312 11.550781 4.824219 11.636719 5.203125 11.636719 Z M 11.730469 11.636719 "/>
</g>
<clipPath id="clip-3">
<rect x="0" y="0" width="17" height="17"/>
</clipPath>
<g id="source-7048" clip-path="url(#clip-3)">
<path fill-rule="nonzero" fill="rgb(90.196078%, 49.803922%, 32.941176%)" fill-opacity="1" d="M 11.007812 9.945312 L 11.007812 9.519531 L 5.925781 9.519531 L 5.925781 9.945312 Z M 11.007812 8.675781 L 11.007812 8.25 L 8.464844 8.25 L 8.464844 8.675781 Z M 11.007812 8.675781 "/>
</g>
<clipPath id="clip-4">
<rect x="0" y="0" width="17" height="17"/>
</clipPath>
<g id="source-7052" clip-path="url(#clip-4)">
<path fill-rule="nonzero" fill="rgb(100%, 100%, 100%)" fill-opacity="1" d="M 11.730469 11.636719 C 12.109375 11.640625 12.363281 11.550781 12.492188 11.394531 C 12.628906 11.234375 12.699219 10.964844 12.699219 10.59375 L 12.699219 10.488281 C 12.699219 10.859375 12.628906 11.128906 12.492188 11.289062 C 12.363281 11.445312 12.109375 11.535156 11.730469 11.53125 L 5.203125 11.53125 C 4.824219 11.53125 4.570312 11.445312 4.441406 11.289062 C 4.304688 11.128906 4.234375 10.859375 4.234375 10.488281 L 4.234375 10.59375 C 4.234375 10.964844 4.304688 11.234375 4.441406 11.394531 C 4.570312 11.550781 4.824219 11.636719 5.203125 11.636719 Z M 11.730469 11.636719 "/>
</g>
</defs>
<path fill-rule="nonzero" fill="rgb(97.254902%, 55.686275%, 27.058824%)" fill-opacity="1" d="M 15.609375 8.460938 C 15.609375 12.40625 12.410156 15.605469 8.464844 15.605469 C 4.519531 15.605469 1.324219 12.40625 1.324219 8.460938 C 1.324219 4.515625 4.519531 1.316406 8.464844 1.316406 C 12.410156 1.316406 15.609375 4.515625 15.609375 8.460938 Z M 15.609375 8.460938 "/>
<g mask="url(#mask-0)">
<use xlink:href="#source-7036"/>
</g>
<g mask="url(#mask-1)">
<use xlink:href="#source-7040"/>
</g>
<use xlink:href="#source-7044"/>
<use xlink:href="#source-7048"/>
<use xlink:href="#source-7052"/>
</svg>
