<?xml version="1.0" encoding="UTF-8"?>
<svg xmlns="http://www.w3.org/2000/svg" xmlns:xlink="http://www.w3.org/1999/xlink" width="64" height="64" viewBox="0 0 64 64">
<path fill-rule="nonzero" fill="rgb(100%, 33.333333%, 33.333333%)" fill-opacity="1" d="M 15.609375 8.464844 C 15.609375 12.410156 12.410156 15.609375 8.464844 15.609375 C 4.519531 15.609375 1.324219 12.410156 1.324219 8.464844 C 1.324219 4.519531 4.519531 1.324219 8.464844 1.324219 C 12.410156 1.324219 15.609375 4.519531 15.609375 8.464844 Z M 15.609375 8.464844 "/>
<path fill-rule="nonzero" fill="rgb(100%, 100%, 100%)" fill-opacity="1" d="M 6.613281 5.554688 C 6.613281 6.140625 6.140625 6.613281 5.554688 6.613281 C 4.972656 6.613281 4.496094 6.140625 4.496094 5.554688 C 4.496094 4.972656 4.972656 4.496094 5.554688 4.496094 C 6.140625 4.496094 6.613281 4.972656 6.613281 5.554688 Z M 6.613281 5.554688 "/>
<path fill-rule="nonzero" fill="rgb(100%, 100%, 100%)" fill-opacity="1" d="M 12.433594 5.554688 C 12.433594 6.140625 11.960938 6.613281 11.378906 6.613281 C 10.792969 6.613281 10.320312 6.140625 10.320312 5.554688 C 10.320312 4.972656 10.792969 4.496094 11.378906 4.496094 C 11.960938 4.496094 12.433594 4.972656 12.433594 5.554688 Z M 12.433594 5.554688 "/>
<path fill-rule="nonzero" fill="rgb(100%, 100%, 100%)" fill-opacity="1" d="M 6.613281 11.378906 C 6.613281 11.960938 6.140625 12.433594 5.554688 12.433594 C 4.972656 12.433594 4.496094 11.960938 4.496094 11.378906 C 4.496094 10.792969 4.972656 10.320312 5.554688 10.320312 C 6.140625 10.320312 6.613281 10.792969 6.613281 11.378906 Z M 6.613281 11.378906 "/>
<path fill-rule="nonzero" fill="rgb(100%, 100%, 100%)" fill-opacity="1" d="M 12.433594 11.378906 C 12.433594 11.960938 11.960938 12.433594 11.378906 12.433594 C 10.792969 12.433594 10.320312 11.960938 10.320312 11.378906 C 10.320312 10.792969 10.792969 10.320312 11.378906 10.320312 C 11.960938 10.320312 12.433594 10.792969 12.433594 11.378906 Z M 12.433594 11.378906 "/>
<path fill-rule="nonzero" fill="rgb(100%, 100%, 100%)" fill-opacity="1" d="M 9.523438 8.464844 C 9.523438 9.050781 9.050781 9.523438 8.46875 9.523438 C 7.882812 9.523438 7.410156 9.050781 7.410156 8.464844 C 7.410156 7.882812 7.882812 7.40625 8.46875 7.40625 C 9.050781 7.40625 9.523438 7.882812 9.523438 8.464844 Z M 9.523438 8.464844 "/>
</svg>
