<?xml version="1.0" encoding="UTF-8"?>
<svg xmlns="http://www.w3.org/2000/svg" xmlns:xlink="http://www.w3.org/1999/xlink" width="64" height="64" viewBox="0 0 64 64">
<defs>
<filter id="filter-remove-color" x="0%" y="0%" width="100%" height="100%">
<feColorMatrix color-interpolation-filters="sRGB" values="0 0 0 0 1 0 0 0 0 1 0 0 0 0 1 0 0 0 1 0" />
</filter>
<mask id="mask-0">
<g filter="url(#filter-remove-color)">
<rect x="-6.4" y="-6.4" width="76.8" height="76.8" fill="rgb(0%, 0%, 0%)" fill-opacity="0.15"/>
</g>
</mask>
<clipPath id="clip-0">
<rect x="0" y="0" width="17" height="17"/>
</clipPath>
<g id="source-7526" clip-path="url(#clip-0)">
<path fill-rule="nonzero" fill="rgb(0%, 0%, 0%)" fill-opacity="1" d="M 8.464844 1.324219 C 4.519531 1.324219 1.324219 4.519531 1.324219 8.464844 L 15.609375 8.464844 C 15.609375 4.519531 12.410156 1.324219 8.464844 1.324219 Z M 8.464844 1.324219 "/>
</g>
<mask id="mask-1">
<g filter="url(#filter-remove-color)">
<rect x="-6.4" y="-6.4" width="76.8" height="76.8" fill="rgb(0%, 0%, 0%)" fill-opacity="0.75"/>
</g>
</mask>
<clipPath id="clip-1">
<rect x="0" y="0" width="17" height="17"/>
</clipPath>
<g id="source-7530" clip-path="url(#clip-1)">
<path fill-rule="nonzero" fill="rgb(100%, 100%, 100%)" fill-opacity="1" d="M 4.496094 6.085938 L 12.433594 6.085938 C 12.582031 6.085938 12.699219 6.203125 12.699219 6.347656 C 12.699219 6.496094 12.582031 6.613281 12.433594 6.613281 L 4.496094 6.613281 C 4.351562 6.613281 4.234375 6.496094 4.234375 6.347656 C 4.234375 6.203125 4.351562 6.085938 4.496094 6.085938 Z M 4.496094 6.085938 "/>
</g>
<mask id="mask-2">
<g filter="url(#filter-remove-color)">
<rect x="-6.4" y="-6.4" width="76.8" height="76.8" fill="rgb(0%, 0%, 0%)" fill-opacity="0.75"/>
</g>
</mask>
<clipPath id="clip-2">
<rect x="0" y="0" width="17" height="17"/>
</clipPath>
<g id="source-7535" clip-path="url(#clip-2)">
<path fill-rule="nonzero" fill="rgb(100%, 100%, 100%)" fill-opacity="1" d="M 4.496094 10.316406 L 12.433594 10.316406 C 12.582031 10.316406 12.699219 10.4375 12.699219 10.582031 C 12.699219 10.730469 12.582031 10.847656 12.433594 10.847656 L 4.496094 10.847656 C 4.351562 10.847656 4.234375 10.730469 4.234375 10.582031 C 4.234375 10.4375 4.351562 10.316406 4.496094 10.316406 Z M 4.496094 10.316406 "/>
</g>
<mask id="mask-3">
<g filter="url(#filter-remove-color)">
<rect x="-6.4" y="-6.4" width="76.8" height="76.8" fill="rgb(0%, 0%, 0%)" fill-opacity="0.25"/>
</g>
</mask>
<clipPath id="clip-3">
<rect x="0" y="0" width="17" height="17"/>
</clipPath>
<g id="source-7539" clip-path="url(#clip-3)">
<path fill-rule="nonzero" fill="rgb(0%, 0%, 0%)" fill-opacity="1" d="M 8.203125 10.582031 C 8.203125 11.460938 7.492188 12.171875 6.613281 12.171875 C 5.738281 12.171875 5.027344 11.460938 5.027344 10.582031 C 5.027344 9.707031 5.738281 8.996094 6.613281 8.996094 C 7.492188 8.996094 8.203125 9.707031 8.203125 10.582031 Z M 8.203125 10.582031 "/>
</g>
</defs>
<path fill-rule="nonzero" fill="rgb(21.960784%, 62.745098%, 83.137255%)" fill-opacity="1" d="M 15.609375 8.464844 C 15.609375 12.410156 12.410156 15.609375 8.464844 15.609375 C 4.519531 15.609375 1.324219 12.410156 1.324219 8.464844 C 1.324219 4.519531 4.519531 1.324219 8.464844 1.324219 C 12.410156 1.324219 15.609375 4.519531 15.609375 8.464844 Z M 15.609375 8.464844 "/>
<g mask="url(#mask-0)">
<use xlink:href="#source-7526"/>
</g>
<g mask="url(#mask-1)">
<use xlink:href="#source-7530"/>
</g>
<path fill-rule="nonzero" fill="rgb(100%, 100%, 100%)" fill-opacity="1" d="M 11.113281 6.351562 C 11.113281 6.933594 10.636719 7.40625 10.054688 7.40625 C 9.46875 7.40625 8.996094 6.933594 8.996094 6.351562 C 8.996094 5.765625 9.46875 5.292969 10.054688 5.292969 C 10.636719 5.292969 11.113281 5.765625 11.113281 6.351562 Z M 11.113281 6.351562 "/>
<g mask="url(#mask-2)">
<use xlink:href="#source-7535"/>
</g>
<g mask="url(#mask-3)">
<use xlink:href="#source-7539"/>
</g>
<path fill-rule="nonzero" fill="rgb(100%, 100%, 100%)" fill-opacity="1" d="M 7.671875 10.582031 C 7.671875 11.167969 7.199219 11.640625 6.613281 11.640625 C 6.03125 11.640625 5.558594 11.167969 5.558594 10.582031 C 5.558594 10 6.03125 9.523438 6.613281 9.523438 C 7.199219 9.523438 7.671875 10 7.671875 10.582031 Z M 7.671875 10.582031 "/>
</svg>
