<?xml version="1.0" encoding="UTF-8"?>
<svg xmlns="http://www.w3.org/2000/svg" xmlns:xlink="http://www.w3.org/1999/xlink" width="64" height="64" viewBox="0 0 64 64">
<path fill-rule="nonzero" fill="rgb(92.54902%, 92.54902%, 92.54902%)" fill-opacity="1" d="M 15.609375 8.464844 C 15.609375 12.410156 12.410156 15.609375 8.464844 15.609375 C 4.519531 15.609375 1.324219 12.410156 1.324219 8.464844 C 1.324219 4.519531 4.519531 1.324219 8.464844 1.324219 C 12.410156 1.324219 15.609375 4.519531 15.609375 8.464844 Z M 15.609375 8.464844 "/>
<path fill-rule="nonzero" fill="rgb(89.803922%, 29.803922%, 25.490196%)" fill-opacity="1" d="M 8.359375 5.609375 C 8.359375 6.074219 7.980469 6.453125 7.515625 6.453125 C 7.046875 6.453125 6.667969 6.074219 6.667969 5.609375 C 6.667969 5.140625 7.046875 4.761719 7.515625 4.761719 C 7.980469 4.761719 8.359375 5.140625 8.359375 5.609375 Z M 8.359375 5.609375 "/>
<path fill-rule="nonzero" fill="rgb(100%, 70.588235%, 0.392157%)" fill-opacity="1" d="M 12.171875 11.328125 C 12.171875 11.796875 11.792969 12.175781 11.324219 12.175781 C 10.855469 12.175781 10.476562 11.796875 10.476562 11.328125 C 10.476562 10.859375 10.855469 10.480469 11.324219 10.480469 C 11.792969 10.480469 12.171875 10.859375 12.171875 11.328125 Z M 12.171875 11.328125 "/>
<path fill-rule="nonzero" fill="rgb(12.156863%, 74.117647%, 49.803922%)" fill-opacity="1" d="M 6.457031 5.609375 C 6.457031 6.074219 6.078125 6.453125 5.609375 6.453125 C 5.140625 6.453125 4.761719 6.074219 4.761719 5.609375 C 4.761719 5.140625 5.140625 4.761719 5.609375 4.761719 C 6.078125 4.761719 6.457031 5.140625 6.457031 5.609375 Z M 6.457031 5.609375 "/>
<path fill-rule="nonzero" fill="rgb(11.764706%, 66.666667%, 96.862745%)" fill-opacity="1" d="M 8.359375 7.519531 C 8.359375 7.988281 7.980469 8.367188 7.515625 8.367188 C 7.046875 8.367188 6.667969 7.988281 6.667969 7.519531 C 6.667969 7.050781 7.046875 6.671875 7.515625 6.671875 C 7.980469 6.671875 8.359375 7.050781 8.359375 7.519531 Z M 8.359375 7.519531 "/>
<path fill-rule="nonzero" fill="rgb(11.764706%, 66.666667%, 96.862745%)" fill-opacity="1" d="M 8.359375 9.421875 C 8.359375 9.890625 7.980469 10.269531 7.515625 10.269531 C 7.046875 10.269531 6.667969 9.890625 6.667969 9.421875 C 6.667969 8.957031 7.046875 8.578125 7.515625 8.578125 C 7.980469 8.578125 8.359375 8.957031 8.359375 9.421875 Z M 8.359375 9.421875 "/>
<path fill-rule="nonzero" fill="rgb(11.764706%, 66.666667%, 96.862745%)" fill-opacity="1" d="M 6.457031 11.328125 C 6.457031 11.796875 6.078125 12.175781 5.609375 12.175781 C 5.140625 12.175781 4.761719 11.796875 4.761719 11.328125 C 4.761719 10.859375 5.140625 10.480469 5.609375 10.480469 C 6.078125 10.480469 6.457031 10.859375 6.457031 11.328125 Z M 6.457031 11.328125 "/>
<path fill-rule="nonzero" fill="rgb(12.156863%, 74.117647%, 49.803922%)" fill-opacity="1" d="M 10.265625 11.328125 C 10.265625 11.796875 9.886719 12.175781 9.417969 12.175781 C 8.953125 12.175781 8.574219 11.796875 8.574219 11.328125 C 8.574219 10.859375 8.953125 10.480469 9.417969 10.480469 C 9.886719 10.480469 10.265625 10.859375 10.265625 11.328125 Z M 10.265625 11.328125 "/>
<path fill-rule="nonzero" fill="rgb(89.803922%, 29.803922%, 25.490196%)" fill-opacity="1" d="M 12.171875 9.421875 C 12.171875 9.890625 11.792969 10.269531 11.324219 10.269531 C 10.855469 10.269531 10.476562 9.890625 10.476562 9.421875 C 10.476562 8.957031 10.855469 8.578125 11.324219 8.578125 C 11.792969 8.578125 12.171875 8.957031 12.171875 9.421875 Z M 12.171875 9.421875 "/>
</svg>
