<?xml version="1.0" encoding="UTF-8"?>
<svg xmlns="http://www.w3.org/2000/svg" xmlns:xlink="http://www.w3.org/1999/xlink" width="64" height="64" viewBox="0 0 64 64">
<path fill-rule="nonzero" fill="rgb(30.196078%, 30.196078%, 30.196078%)" fill-opacity="1" d="M 15.609375 8.464844 C 15.609375 12.410156 12.410156 15.609375 8.464844 15.609375 C 4.519531 15.609375 1.324219 12.410156 1.324219 8.464844 C 1.324219 4.519531 4.519531 1.324219 8.464844 1.324219 C 12.410156 1.324219 15.609375 4.519531 15.609375 8.464844 Z M 15.609375 8.464844 "/>
<path fill-rule="nonzero" fill="rgb(76.862745%, 76.862745%, 76.862745%)" fill-opacity="1" d="M 5.003906 5.003906 L 5.003906 11.929688 L 11.929688 11.929688 L 11.929688 5.003906 Z M 6.046875 5.773438 L 10.886719 5.773438 L 9.734375 6.925781 L 7.199219 6.925781 L 6.042969 5.773438 Z M 5.773438 6.046875 L 6.925781 7.199219 L 6.925781 9.734375 L 5.773438 10.890625 Z M 11.160156 6.046875 L 11.160156 10.890625 L 10.007812 9.734375 L 10.007812 7.199219 Z M 7.3125 7.3125 L 9.621094 7.3125 L 9.621094 9.621094 L 7.3125 9.621094 Z M 7.199219 10.007812 L 9.734375 10.007812 L 10.886719 11.160156 L 6.046875 11.160156 Z M 7.199219 10.007812 "/>
<path fill-rule="nonzero" fill="rgb(100%, 100%, 100%)" fill-opacity="1" d="M 5.386719 4.234375 C 4.75 4.234375 4.234375 4.75 4.234375 5.386719 C 4.234375 6.027344 4.75 6.542969 5.386719 6.542969 C 5.695312 6.542969 5.988281 6.421875 6.207031 6.207031 C 6.421875 5.988281 6.542969 5.695312 6.542969 5.386719 C 6.542969 4.75 6.027344 4.234375 5.386719 4.234375 Z M 11.546875 4.234375 C 10.90625 4.234375 10.390625 4.75 10.390625 5.386719 C 10.390625 6.027344 10.90625 6.542969 11.542969 6.542969 C 12.183594 6.542969 12.699219 6.027344 12.699219 5.390625 C 12.699219 4.75 12.183594 4.234375 11.546875 4.234375 Z M 7.121094 6.542969 C 6.800781 6.542969 6.542969 6.800781 6.542969 7.121094 C 6.542969 7.4375 6.800781 7.699219 7.121094 7.699219 C 7.4375 7.699219 7.699219 7.4375 7.699219 7.121094 C 7.695312 6.800781 7.4375 6.542969 7.121094 6.542969 Z M 9.8125 6.542969 C 9.496094 6.542969 9.238281 6.800781 9.238281 7.121094 C 9.238281 7.4375 9.496094 7.699219 9.8125 7.699219 C 10.132812 7.699219 10.390625 7.4375 10.390625 7.121094 C 10.390625 6.800781 10.132812 6.542969 9.8125 6.542969 Z M 7.121094 9.238281 C 6.800781 9.238281 6.542969 9.496094 6.542969 9.8125 C 6.542969 10.132812 6.800781 10.390625 7.121094 10.390625 C 7.4375 10.390625 7.699219 10.132812 7.699219 9.8125 C 7.695312 9.496094 7.4375 9.238281 7.121094 9.238281 Z M 9.8125 9.238281 C 9.496094 9.238281 9.238281 9.496094 9.238281 9.8125 C 9.238281 10.132812 9.496094 10.390625 9.8125 10.390625 C 10.132812 10.390625 10.390625 10.132812 10.390625 9.8125 C 10.390625 9.496094 10.132812 9.238281 9.8125 9.238281 Z M 5.386719 10.390625 C 4.75 10.390625 4.234375 10.90625 4.234375 11.546875 C 4.234375 12.183594 4.75 12.699219 5.386719 12.699219 C 6.023438 12.699219 6.542969 12.183594 6.542969 11.546875 C 6.542969 10.90625 6.023438 10.390625 5.386719 10.390625 Z M 11.542969 10.390625 C 10.90625 10.390625 10.390625 10.90625 10.390625 11.546875 C 10.390625 12.183594 10.90625 12.699219 11.542969 12.699219 C 12.179688 12.699219 12.699219 12.183594 12.699219 11.546875 C 12.699219 10.90625 12.183594 10.390625 11.542969 10.390625 Z M 11.542969 10.390625 "/>
</svg>
