<?xml version="1.0" encoding="UTF-8"?>
<svg xmlns="http://www.w3.org/2000/svg" xmlns:xlink="http://www.w3.org/1999/xlink" width="64" height="64" viewBox="0 0 64 64">
<defs>
<filter id="filter-remove-color" x="0%" y="0%" width="100%" height="100%">
<feColorMatrix color-interpolation-filters="sRGB" values="0 0 0 0 1 0 0 0 0 1 0 0 0 0 1 0 0 0 1 0" />
</filter>
<mask id="mask-0">
<g filter="url(#filter-remove-color)">
<rect x="-6.4" y="-6.4" width="76.8" height="76.8" fill="rgb(0%, 0%, 0%)" fill-opacity="0.1"/>
</g>
</mask>
<clipPath id="clip-0">
<rect x="0" y="0" width="17" height="17"/>
</clipPath>
<g id="source-5862" clip-path="url(#clip-0)">
<path fill-rule="nonzero" fill="rgb(100%, 100%, 100%)" fill-opacity="1" d="M 14.289062 8.460938 C 14.289062 11.675781 11.683594 14.28125 8.46875 14.28125 C 5.253906 14.28125 2.644531 11.675781 2.644531 8.460938 C 2.644531 5.246094 5.253906 2.640625 8.46875 2.640625 C 11.683594 2.640625 14.289062 5.246094 14.289062 8.460938 Z M 14.289062 8.460938 "/>
</g>
</defs>
<path fill-rule="nonzero" fill="rgb(22.745098%, 22.745098%, 22.745098%)" fill-opacity="1" d="M 15.609375 8.460938 C 15.609375 12.40625 12.410156 15.605469 8.464844 15.605469 C 4.519531 15.605469 1.324219 12.40625 1.324219 8.460938 C 1.324219 4.515625 4.519531 1.316406 8.464844 1.316406 C 12.410156 1.316406 15.609375 4.515625 15.609375 8.460938 Z M 15.609375 8.460938 "/>
<g mask="url(#mask-0)">
<use xlink:href="#source-5862"/>
</g>
<path fill-rule="nonzero" fill="rgb(100%, 100%, 100%)" fill-opacity="1" d="M 8.449219 4.230469 C 8.148438 4.230469 7.957031 4.449219 7.9375 4.742188 L 7.9375 5.339844 C 7.964844 5.605469 8.191406 5.816406 8.46875 5.816406 C 8.535156 5.820312 8.601562 5.808594 8.664062 5.785156 C 8.847656 5.707031 8.976562 5.535156 8.996094 5.339844 L 8.996094 4.757812 C 8.988281 4.460938 8.746094 4.226562 8.449219 4.230469 Z M 7.425781 5.46875 C 7.078125 5.597656 6.753906 5.78125 6.464844 6.015625 C 6.589844 6.101562 6.691406 6.214844 6.761719 6.347656 C 6.765625 6.351562 6.761719 6.359375 6.761719 6.363281 C 6.796875 6.425781 6.824219 6.492188 6.847656 6.5625 C 6.847656 6.566406 6.847656 6.574219 6.847656 6.578125 C 6.882812 6.71875 6.886719 6.863281 6.863281 7.007812 C 6.851562 7.070312 6.820312 7.132812 6.796875 7.191406 C 6.652344 7.546875 6.304688 7.785156 5.921875 7.785156 C 5.742188 7.785156 5.570312 7.734375 5.425781 7.636719 C 5.402344 7.695312 5.371094 7.753906 5.359375 7.816406 L 5.359375 7.835938 C 5.339844 7.933594 5.316406 8.03125 5.308594 8.132812 L 5.308594 8.148438 C 5.296875 8.25 5.292969 8.359375 5.292969 8.464844 L 5.292969 8.496094 C 5.292969 8.59375 5.300781 8.699219 5.308594 8.792969 L 5.308594 8.828125 C 5.320312 8.921875 5.339844 9.015625 5.359375 9.109375 C 5.375 9.199219 5.398438 9.285156 5.425781 9.371094 C 5.597656 9.277344 5.789062 9.21875 5.984375 9.207031 C 6.179688 9.195312 6.355469 9.253906 6.5 9.355469 C 6.644531 9.460938 6.753906 9.601562 6.8125 9.769531 C 6.859375 9.890625 6.882812 10.019531 6.878906 10.148438 C 6.878906 10.417969 6.660156 10.769531 6.5 10.945312 C 6.5625 10.992188 6.628906 11.046875 6.695312 11.09375 C 6.78125 11.148438 6.855469 11.210938 6.945312 11.257812 C 7.070312 11.324219 7.207031 11.386719 7.34375 11.441406 C 7.367188 11.449219 7.398438 11.453125 7.425781 11.457031 C 7.417969 11.421875 7.40625 11.378906 7.40625 11.339844 C 7.40625 10.921875 7.882812 10.578125 8.46875 10.578125 C 9.050781 10.578125 9.523438 10.921875 9.523438 11.339844 C 9.523438 11.378906 9.515625 11.421875 9.507812 11.457031 C 9.667969 11.402344 9.824219 11.335938 9.972656 11.257812 C 10.085938 11.199219 10.179688 11.132812 10.285156 11.058594 C 10.316406 11.035156 10.355469 11.015625 10.386719 10.992188 C 10.410156 10.976562 10.425781 10.945312 10.449219 10.925781 C 10.382812 10.875 10.320312 10.8125 10.269531 10.746094 C 10.175781 10.628906 10.113281 10.492188 10.085938 10.347656 C 10.074219 10.28125 10.070312 10.214844 10.070312 10.148438 C 10.070312 10.019531 10.101562 9.894531 10.136719 9.785156 C 10.136719 9.78125 10.136719 9.773438 10.136719 9.769531 C 10.152344 9.71875 10.175781 9.667969 10.203125 9.621094 C 10.234375 9.570312 10.265625 9.53125 10.304688 9.488281 C 10.34375 9.441406 10.386719 9.410156 10.433594 9.371094 C 10.523438 9.304688 10.625 9.25 10.730469 9.222656 C 10.792969 9.207031 10.851562 9.195312 10.914062 9.191406 C 11.0625 9.183594 11.3125 9.242188 11.507812 9.355469 C 11.53125 9.273438 11.558594 9.195312 11.574219 9.109375 C 11.59375 9.015625 11.613281 8.921875 11.625 8.828125 C 11.625 8.816406 11.625 8.804688 11.625 8.792969 C 11.648438 8.574219 11.648438 8.351562 11.625 8.132812 C 11.613281 8.03125 11.597656 7.933594 11.574219 7.835938 C 11.574219 7.828125 11.574219 7.824219 11.574219 7.816406 C 11.5625 7.746094 11.53125 7.683594 11.507812 7.621094 C 11.363281 7.71875 11.191406 7.769531 11.011719 7.769531 C 10.757812 7.769531 10.515625 7.667969 10.335938 7.488281 C 10.292969 7.441406 10.253906 7.390625 10.21875 7.339844 C 10.015625 7.042969 9.996094 6.660156 10.171875 6.347656 C 10.203125 6.28125 10.242188 6.222656 10.285156 6.164062 C 10.335938 6.109375 10.390625 6.058594 10.449219 6.015625 C 10.171875 5.78125 9.851562 5.597656 9.507812 5.46875 C 9.515625 5.507812 9.523438 5.546875 9.523438 5.585938 C 9.523438 6.007812 9.050781 6.347656 8.46875 6.347656 C 8.101562 6.347656 7.78125 6.21875 7.589844 6.015625 C 7.550781 5.976562 7.519531 5.929688 7.492188 5.882812 C 7.4375 5.792969 7.410156 5.691406 7.410156 5.585938 C 7.410156 5.546875 7.417969 5.507812 7.425781 5.46875 Z M 5.125 5.835938 C 4.988281 5.871094 4.871094 5.960938 4.796875 6.082031 C 4.636719 6.332031 4.710938 6.664062 4.960938 6.824219 L 5.390625 7.089844 L 5.554688 7.191406 C 5.621094 7.214844 5.695312 7.238281 5.769531 7.238281 C 5.925781 7.238281 6.070312 7.175781 6.183594 7.074219 C 6.289062 6.976562 6.351562 6.839844 6.351562 6.695312 C 6.351562 6.535156 6.285156 6.386719 6.167969 6.28125 L 5.96875 6.164062 L 5.523438 5.898438 C 5.40625 5.824219 5.261719 5.800781 5.125 5.835938 Z M 11.609375 5.835938 C 11.539062 5.84375 11.472656 5.863281 11.410156 5.898438 L 10.964844 6.164062 L 10.765625 6.28125 C 10.757812 6.285156 10.753906 6.289062 10.75 6.296875 C 10.636719 6.390625 10.578125 6.53125 10.582031 6.675781 C 10.582031 6.820312 10.644531 6.957031 10.75 7.058594 C 10.917969 7.210938 11.160156 7.261719 11.378906 7.1875 L 11.542969 7.089844 L 11.972656 6.824219 C 12.222656 6.667969 12.296875 6.332031 12.136719 6.082031 C 12.027344 5.898438 11.820312 5.800781 11.609375 5.835938 Z M 8.46875 7.40625 C 9.050781 7.40625 9.527344 7.878906 9.527344 8.464844 C 9.527344 9.046875 9.050781 9.523438 8.46875 9.523438 C 8.175781 9.523438 7.914062 9.398438 7.722656 9.207031 C 7.675781 9.160156 7.628906 9.113281 7.589844 9.058594 C 7.472656 8.882812 7.40625 8.675781 7.40625 8.464844 C 7.40625 8.390625 7.410156 8.316406 7.425781 8.246094 C 7.523438 7.765625 7.953125 7.40625 8.46875 7.40625 Z M 8.46875 7.933594 C 8.246094 7.933594 8.066406 8.074219 7.988281 8.265625 C 7.957031 8.328125 7.941406 8.394531 7.9375 8.464844 C 7.9375 8.753906 8.171875 8.992188 8.464844 8.992188 C 8.757812 8.992188 8.996094 8.753906 8.996094 8.464844 C 8.996094 8.171875 8.757812 7.933594 8.46875 7.933594 Z M 5.769531 9.703125 C 5.648438 9.71875 5.613281 9.746094 5.554688 9.769531 L 5.441406 9.835938 L 5.011719 10.101562 C 4.757812 10.261719 4.683594 10.59375 4.84375 10.84375 C 5 11.097656 5.332031 11.179688 5.589844 11.027344 L 6.019531 10.761719 L 6.167969 10.660156 C 6.246094 10.589844 6.300781 10.5 6.332031 10.398438 C 6.34375 10.367188 6.347656 10.332031 6.351562 10.296875 C 6.347656 10.144531 6.289062 10 6.183594 9.886719 C 6.136719 9.824219 6.074219 9.773438 6.003906 9.738281 C 5.929688 9.707031 5.851562 9.695312 5.769531 9.703125 Z M 11.179688 9.738281 C 10.867188 9.738281 10.617188 9.988281 10.617188 10.300781 C 10.617188 10.445312 10.65625 10.550781 10.75 10.644531 L 10.914062 10.761719 L 11.34375 11.027344 C 11.601562 11.179688 11.929688 11.097656 12.089844 10.84375 C 12.246094 10.59375 12.175781 10.261719 11.921875 10.101562 L 11.492188 9.835938 C 11.453125 9.8125 11.417969 9.789062 11.378906 9.769531 C 11.3125 9.75 11.246094 9.738281 11.179688 9.738281 Z M 8.46875 11.109375 C 8.398438 11.109375 8.332031 11.117188 8.269531 11.140625 C 8.203125 11.171875 8.140625 11.210938 8.085938 11.257812 C 7.984375 11.339844 7.917969 11.457031 7.90625 11.589844 L 7.90625 12.167969 C 7.90625 12.460938 8.148438 12.699219 8.449219 12.699219 C 8.746094 12.703125 8.992188 12.464844 8.996094 12.167969 L 8.996094 11.589844 C 8.96875 11.320312 8.738281 11.113281 8.464844 11.109375 Z M 8.46875 11.109375 "/>
</svg>
