<?xml version="1.0" encoding="UTF-8"?>
<svg xmlns="http://www.w3.org/2000/svg" xmlns:xlink="http://www.w3.org/1999/xlink" width="64" height="64" viewBox="0 0 64 64">
<path fill-rule="nonzero" fill="rgb(97.647059%, 97.647059%, 97.647059%)" fill-opacity="1" d="M 15.609375 8.464844 C 15.609375 12.410156 12.410156 15.609375 8.464844 15.609375 C 4.519531 15.609375 1.324219 12.410156 1.324219 8.464844 C 1.324219 4.519531 4.519531 1.324219 8.464844 1.324219 C 12.410156 1.324219 15.609375 4.519531 15.609375 8.464844 Z M 15.609375 8.464844 "/>
<path fill-rule="nonzero" fill="rgb(80%, 80%, 80%)" fill-opacity="1" d="M 6.507812 5.269531 L 7.058594 5.433594 L 6.867188 5.902344 L 8.546875 5.902344 L 8.546875 6.425781 L 7.585938 6.425781 C 7.730469 6.628906 7.878906 6.847656 8.023438 7.089844 L 7.445312 7.417969 C 7.300781 7.070312 7.125 6.738281 6.921875 6.425781 L 6.59375 6.425781 L 6.289062 6.949219 C 6.179688 7.097656 6.03125 7.269531 5.847656 7.472656 L 5.351562 7.089844 C 5.886719 6.554688 6.269531 5.949219 6.507812 5.269531 Z M 9.375 5.269531 L 9.898438 5.433594 C 9.84375 5.601562 9.78125 5.757812 9.707031 5.902344 L 11.664062 5.902344 L 11.664062 6.425781 L 10.503906 6.425781 C 10.632812 6.609375 10.753906 6.792969 10.863281 6.976562 L 10.367188 7.28125 C 10.222656 6.988281 10.054688 6.703125 9.871094 6.425781 L 9.457031 6.425781 C 9.199219 6.867188 8.960938 7.199219 8.742188 7.417969 L 8.246094 7.0625 C 8.761719 6.546875 9.136719 5.949219 9.375 5.269531 Z M 6.894531 7.28125 L 7.390625 7.527344 C 7.226562 7.859375 7.042969 8.191406 6.839844 8.519531 L 6.839844 11.664062 L 6.289062 11.664062 L 6.289062 9.265625 C 6.070312 9.542969 5.839844 9.789062 5.597656 10.011719 L 5.269531 9.515625 C 5.875 8.980469 6.417969 8.234375 6.894531 7.28125 Z M 7.53125 8.136719 L 10.121094 8.136719 L 10.121094 7.445312 L 10.671875 7.445312 L 10.671875 8.136719 L 11.636719 8.136719 L 11.636719 8.660156 L 10.671875 8.660156 L 10.671875 10.917969 C 10.671875 11.195312 10.617188 11.378906 10.507812 11.46875 C 10.414062 11.582031 10.230469 11.636719 9.957031 11.636719 C 9.625 11.636719 9.3125 11.609375 9.019531 11.554688 L 8.910156 11.003906 C 9.21875 11.074219 9.542969 11.113281 9.871094 11.113281 C 10.039062 11.113281 10.121094 11.003906 10.121094 10.78125 L 10.121094 8.660156 L 7.53125 8.660156 Z M 8.523438 8.90625 C 8.851562 9.292969 9.128906 9.714844 9.347656 10.175781 L 8.796875 10.503906 C 8.613281 10.066406 8.347656 9.644531 7.996094 9.238281 Z M 8.523438 8.90625 "/>
<path fill-rule="nonzero" fill="rgb(28.627451%, 54.901961%, 84.705882%)" fill-opacity="1" d="M 15.875 11.90625 C 15.875 14.242188 13.980469 16.140625 11.640625 16.140625 C 9.304688 16.140625 7.40625 14.242188 7.40625 11.90625 C 7.40625 9.566406 9.304688 7.671875 11.640625 7.671875 C 13.980469 7.671875 15.875 9.566406 15.875 11.90625 Z M 15.875 11.90625 "/>
<path fill-rule="nonzero" fill="rgb(100%, 100%, 100%)" fill-opacity="1" d="M 12.421875 12.632812 C 12.238281 12.972656 11.960938 13.144531 11.589844 13.144531 C 11.308594 13.144531 11.085938 13.050781 10.914062 12.867188 C 10.746094 12.664062 10.660156 12.386719 10.660156 12.03125 C 10.660156 11.628906 10.769531 11.3125 10.984375 11.082031 C 11.21875 10.832031 11.519531 10.710938 11.890625 10.710938 C 12.214844 10.710938 12.515625 10.757812 12.792969 10.847656 L 12.722656 12.054688 L 12.722656 12.261719 C 12.722656 12.433594 12.746094 12.566406 12.792969 12.65625 C 12.855469 12.734375 12.949219 12.773438 13.070312 12.773438 C 13.210938 12.773438 13.335938 12.679688 13.445312 12.496094 C 13.550781 12.308594 13.605469 12.03125 13.605469 11.660156 C 13.605469 11.136719 13.449219 10.71875 13.140625 10.410156 C 12.847656 10.097656 12.453125 9.945312 11.960938 9.945312 C 11.339844 9.945312 10.847656 10.136719 10.476562 10.523438 C 10.121094 10.910156 9.941406 11.4375 9.941406 12.101562 C 9.941406 12.6875 10.097656 13.144531 10.40625 13.46875 C 10.714844 13.777344 11.148438 13.933594 11.703125 13.933594 C 12.121094 13.933594 12.539062 13.847656 12.957031 13.679688 L 12.957031 14.070312 C 12.601562 14.242188 12.183594 14.328125 11.703125 14.328125 C 11.023438 14.328125 10.492188 14.132812 10.105469 13.746094 C 9.71875 13.359375 9.523438 12.820312 9.523438 12.125 C 9.523438 11.367188 9.75 10.75 10.199219 10.269531 C 10.660156 9.789062 11.25 9.550781 11.960938 9.550781 C 12.578125 9.550781 13.070312 9.746094 13.441406 10.128906 C 13.828125 10.515625 14.023438 11.035156 14.023438 11.683594 C 14.023438 12.132812 13.921875 12.488281 13.722656 12.75 C 13.535156 13.011719 13.304688 13.144531 13.027344 13.144531 C 12.703125 13.144531 12.5 12.972656 12.421875 12.632812 Z M 12.308594 11.152344 C 12.167969 11.105469 12.027344 11.082031 11.890625 11.082031 C 11.65625 11.082031 11.472656 11.164062 11.332031 11.335938 C 11.195312 11.507812 11.125 11.746094 11.125 12.054688 C 11.125 12.285156 11.164062 12.464844 11.242188 12.585938 C 11.332031 12.710938 11.472656 12.773438 11.660156 12.773438 C 12.027344 12.773438 12.238281 12.472656 12.285156 11.871094 Z M 12.308594 11.152344 "/>
</svg>
