<?xml version="1.0" encoding="UTF-8"?>
<svg xmlns="http://www.w3.org/2000/svg" xmlns:xlink="http://www.w3.org/1999/xlink" width="64" height="64" viewBox="0 0 64 64">
<path fill-rule="nonzero" fill="rgb(87.843137%, 21.176471%, 25.098039%)" fill-opacity="1" d="M 15.609375 8.464844 C 15.609375 12.410156 12.410156 15.609375 8.464844 15.609375 C 4.519531 15.609375 1.324219 12.410156 1.324219 8.464844 C 1.324219 4.519531 4.519531 1.324219 8.464844 1.324219 C 12.410156 1.324219 15.609375 4.519531 15.609375 8.464844 Z M 15.609375 8.464844 "/>
<path fill-rule="nonzero" fill="rgb(100%, 100%, 100%)" fill-opacity="1" d="M 4.171875 4.9375 L 10.09375 4.9375 L 10.09375 12.398438 L 4.171875 12.398438 Z M 9.847656 5.179688 L 4.414062 5.179688 L 4.414062 12.148438 L 9.847656 12.148438 Z M 6.050781 6.199219 L 5.300781 7.386719 L 6.050781 7.386719 Z M 6.003906 5.542969 L 6.628906 5.542969 L 6.628906 7.386719 L 6.957031 7.386719 L 6.957031 7.886719 L 6.628906 7.886719 L 6.628906 8.542969 L 6.050781 8.542969 L 6.050781 7.886719 L 4.863281 7.886719 L 4.863281 7.324219 Z M 9.472656 8.542969 L 7.597656 8.542969 L 7.597656 5.542969 L 9.472656 5.542969 L 9.472656 6.058594 L 8.191406 6.058594 L 8.191406 6.714844 L 9.347656 6.714844 L 9.347656 7.230469 L 8.191406 7.230469 L 8.191406 8.011719 L 9.472656 8.011719 Z M 5.535156 11.375 L 6.800781 11.375 L 6.800781 11.90625 L 4.894531 11.90625 L 4.894531 11.40625 L 5.207031 11.0625 C 5.589844 10.65625 5.824219 10.40625 5.910156 10.3125 C 6.011719 10.1875 6.085938 10.085938 6.128906 10 C 6.167969 9.90625 6.191406 9.820312 6.191406 9.734375 C 6.191406 9.601562 6.148438 9.496094 6.066406 9.421875 C 5.992188 9.351562 5.878906 9.3125 5.722656 9.3125 C 5.617188 9.3125 5.496094 9.335938 5.363281 9.375 C 5.238281 9.417969 5.101562 9.480469 4.957031 9.5625 L 4.957031 9 C 5.101562 8.949219 5.242188 8.914062 5.378906 8.890625 C 5.511719 8.859375 5.644531 8.84375 5.769531 8.84375 C 6.089844 8.84375 6.339844 8.921875 6.519531 9.078125 C 6.707031 9.226562 6.800781 9.421875 6.800781 9.671875 C 6.800781 9.796875 6.777344 9.914062 6.738281 10.015625 C 6.695312 10.109375 6.628906 10.21875 6.535156 10.34375 C 6.460938 10.4375 6.261719 10.648438 5.941406 10.96875 C 5.773438 11.148438 5.636719 11.28125 5.535156 11.375 Z M 8.128906 9.4375 L 8.128906 11.375 L 8.285156 11.375 C 8.511719 11.375 8.679688 11.304688 8.785156 11.15625 C 8.886719 11 8.941406 10.75 8.941406 10.40625 C 8.941406 10.054688 8.886719 9.804688 8.785156 9.65625 C 8.679688 9.511719 8.511719 9.4375 8.285156 9.4375 Z M 7.535156 8.90625 L 8.160156 8.90625 C 8.660156 8.90625 9.011719 9.027344 9.222656 9.265625 C 9.441406 9.496094 9.550781 9.875 9.550781 10.40625 C 9.550781 10.9375 9.441406 11.324219 9.222656 11.5625 C 9.011719 11.792969 8.660156 11.90625 8.160156 11.90625 L 7.535156 11.90625 Z M 3.925781 4.691406 "/>
</svg>
