<?xml version="1.0" encoding="UTF-8"?>
<svg xmlns="http://www.w3.org/2000/svg" xmlns:xlink="http://www.w3.org/1999/xlink" width="64" height="64" viewBox="0 0 64 64">
<defs>
<filter id="filter-remove-color" x="0%" y="0%" width="100%" height="100%">
<feColorMatrix color-interpolation-filters="sRGB" values="0 0 0 0 1 0 0 0 0 1 0 0 0 0 1 0 0 0 1 0" />
</filter>
<mask id="mask-0">
<g filter="url(#filter-remove-color)">
<rect x="-6.4" y="-6.4" width="76.8" height="76.8" fill="rgb(0%, 0%, 0%)" fill-opacity="0.15"/>
</g>
</mask>
<clipPath id="clip-0">
<rect x="0" y="0" width="17" height="17"/>
</clipPath>
<g id="source-5543" clip-path="url(#clip-0)">
<path fill-rule="nonzero" fill="rgb(0%, 0%, 0%)" fill-opacity="1" d="M 8.46875 2.644531 C 5.253906 2.640625 2.644531 5.25 2.644531 8.464844 C 2.648438 10.207031 3.429688 11.855469 4.777344 12.960938 L 5.691406 12.960938 C 6.527344 13.476562 7.484375 13.753906 8.46875 13.753906 C 9.449219 13.753906 10.410156 13.480469 11.246094 12.960938 L 12.15625 12.960938 C 13.503906 11.855469 14.285156 10.207031 14.285156 8.464844 C 14.285156 5.25 11.679688 2.644531 8.46875 2.644531 Z M 8.46875 2.644531 "/>
</g>
</defs>
<path fill-rule="nonzero" fill="rgb(44.313725%, 64.705882%, 90.980392%)" fill-opacity="1" d="M 15.609375 8.460938 C 15.609375 12.40625 12.410156 15.605469 8.464844 15.605469 C 4.519531 15.605469 1.324219 12.40625 1.324219 8.460938 C 1.324219 4.515625 4.519531 1.316406 8.464844 1.316406 C 12.410156 1.316406 15.609375 4.515625 15.609375 8.460938 Z M 15.609375 8.460938 "/>
<g mask="url(#mask-0)">
<use xlink:href="#source-5543"/>
</g>
<path fill-rule="nonzero" fill="rgb(100%, 100%, 100%)" fill-opacity="1" d="M 7.671875 7.671875 L 7.671875 12.433594 L 9.261719 12.433594 L 9.261719 7.671875 Z M 7.671875 7.671875 "/>
<path fill-rule="nonzero" fill="rgb(100%, 100%, 100%)" fill-opacity="1" d="M 9.261719 5.820312 C 9.261719 6.257812 8.90625 6.613281 8.464844 6.613281 C 8.027344 6.613281 7.671875 6.257812 7.671875 5.820312 C 7.671875 5.382812 8.027344 5.027344 8.464844 5.027344 C 8.90625 5.027344 9.261719 5.382812 9.261719 5.820312 Z M 9.261719 5.820312 "/>
</svg>
