<?xml version="1.0" encoding="UTF-8"?>
<svg xmlns="http://www.w3.org/2000/svg" xmlns:xlink="http://www.w3.org/1999/xlink" width="64" height="64" viewBox="0 0 64 64">
<path fill-rule="nonzero" fill="rgb(79.607843%, 44.313725%, 28.235294%)" fill-opacity="1" d="M 15.609375 8.464844 C 15.609375 12.410156 12.410156 15.609375 8.464844 15.609375 C 4.519531 15.609375 1.324219 12.410156 1.324219 8.464844 C 1.324219 4.519531 4.519531 1.324219 8.464844 1.324219 C 12.410156 1.324219 15.609375 4.519531 15.609375 8.464844 Z M 15.609375 8.464844 "/>
<path fill-rule="nonzero" fill="rgb(97.647059%, 97.647059%, 97.647059%)" fill-opacity="1" d="M 14.816406 8.464844 C 14.816406 11.972656 11.972656 14.816406 8.464844 14.816406 C 4.960938 14.816406 2.117188 11.972656 2.117188 8.464844 C 2.117188 4.960938 4.960938 2.117188 8.464844 2.117188 C 11.972656 2.117188 14.816406 4.960938 14.816406 8.464844 Z M 14.816406 8.464844 "/>
<path fill-rule="nonzero" fill="rgb(87.058824%, 90.196078%, 25.882353%)" fill-opacity="1" d="M 4.574219 3.96875 C 4.414062 3.96875 4.257812 4.03125 4.144531 4.144531 C 4.03125 4.257812 3.96875 4.414062 3.96875 4.574219 L 3.96875 7.597656 C 3.96875 7.933594 4.238281 8.203125 4.574219 8.203125 L 7.59375 8.203125 C 7.929688 8.203125 8.203125 7.933594 8.203125 7.597656 L 8.203125 4.574219 C 8.203125 4.414062 8.136719 4.257812 8.023438 4.144531 C 7.910156 4.03125 7.757812 3.96875 7.59375 3.96875 Z M 5.988281 4.675781 C 6.683594 4.675781 7.003906 5.035156 7.003906 5.503906 C 7.003906 6.074219 6.445312 6.59375 5.902344 7.148438 L 7.0625 7.148438 L 7.0625 7.597656 L 5.078125 7.597656 L 5.078125 7.277344 C 5.230469 7.132812 5.40625 6.980469 5.625 6.757812 C 6.039062 6.320312 6.492188 5.90625 6.492188 5.539062 C 6.492188 5.304688 6.355469 5.160156 5.988281 5.160156 C 5.699219 5.160156 5.464844 5.277344 5.226562 5.382812 L 5.074219 4.933594 C 5.273438 4.832031 5.597656 4.675781 5.988281 4.675781 Z M 5.988281 4.675781 "/>
<path fill-rule="nonzero" fill="rgb(33.72549%, 77.254902%, 36.078431%)" fill-opacity="1" d="M 4.574219 8.730469 C 4.414062 8.730469 4.257812 8.792969 4.144531 8.90625 C 4.03125 9.019531 3.96875 9.175781 3.96875 9.335938 L 3.96875 12.359375 C 3.96875 12.695312 4.238281 12.964844 4.574219 12.964844 L 7.59375 12.964844 C 7.929688 12.964844 8.203125 12.695312 8.203125 12.359375 L 8.203125 9.335938 C 8.203125 9.175781 8.136719 9.019531 8.023438 8.90625 C 7.910156 8.792969 7.757812 8.730469 7.59375 8.730469 Z M 6.105469 9.472656 L 6.796875 9.472656 L 6.796875 11.285156 L 7.296875 11.285156 L 7.296875 11.742188 L 6.796875 11.742188 L 6.796875 12.359375 L 6.285156 12.359375 L 6.285156 11.742188 L 4.902344 11.742188 L 4.902344 11.382812 Z M 6.285156 10.03125 L 6.226562 10.15625 L 5.511719 11.285156 L 6.285156 11.285156 Z M 6.285156 10.03125 "/>
<path fill-rule="nonzero" fill="rgb(94.509804%, 61.568627%, 11.764706%)" fill-opacity="1" d="M 9.335938 8.730469 C 9.175781 8.730469 9.023438 8.792969 8.910156 8.90625 C 8.792969 9.019531 8.730469 9.175781 8.730469 9.335938 L 8.730469 12.359375 C 8.730469 12.695312 9 12.964844 9.335938 12.964844 L 12.359375 12.964844 C 12.695312 12.964844 12.964844 12.695312 12.964844 12.359375 L 12.964844 9.335938 C 12.964844 9.175781 12.902344 9.019531 12.789062 8.90625 C 12.675781 8.792969 12.519531 8.730469 12.359375 8.730469 Z M 10.808594 9.4375 C 11.519531 9.4375 11.84375 9.726562 11.84375 10.179688 C 11.84375 10.410156 11.71875 10.578125 11.507812 10.746094 C 11.855469 10.933594 12.007812 11.203125 12.007812 11.492188 C 12.007812 11.945312 11.613281 12.402344 10.835938 12.402344 C 10.148438 12.402344 9.640625 12.046875 9.640625 11.53125 C 9.640625 11.230469 9.839844 10.9375 10.136719 10.757812 C 9.933594 10.632812 9.808594 10.410156 9.804688 10.171875 C 9.804688 9.769531 10.164062 9.4375 10.808594 9.4375 Z M 10.808594 9.894531 C 10.527344 9.894531 10.335938 10.054688 10.335938 10.214844 C 10.335938 10.449219 10.679688 10.554688 10.921875 10.621094 C 11.195312 10.46875 11.320312 10.371094 11.320312 10.234375 C 11.320312 10.007812 11.078125 9.894531 10.808594 9.894531 Z M 10.753906 10.886719 C 10.382812 10.992188 10.167969 11.230469 10.167969 11.453125 C 10.167969 11.695312 10.417969 11.925781 10.855469 11.925781 C 11.25 11.925781 11.480469 11.714844 11.480469 11.46875 C 11.480469 11.136719 11.148438 10.988281 10.753906 10.886719 Z M 10.753906 10.886719 "/>
</svg>
