<?xml version="1.0" encoding="UTF-8"?>
<svg xmlns="http://www.w3.org/2000/svg" xmlns:xlink="http://www.w3.org/1999/xlink" width="64" height="64" viewBox="0 0 64 64">
<path fill-rule="nonzero" fill="rgb(97.647059%, 97.647059%, 97.647059%)" fill-opacity="1" d="M 15.609375 8.464844 C 15.609375 12.410156 12.410156 15.609375 8.464844 15.609375 C 4.519531 15.609375 1.324219 12.410156 1.324219 8.464844 C 1.324219 4.519531 4.519531 1.324219 8.464844 1.324219 C 12.410156 1.324219 15.609375 4.519531 15.609375 8.464844 Z M 15.609375 8.464844 "/>
<path fill-rule="nonzero" fill="rgb(36.078431%, 64.313725%, 92.941176%)" fill-opacity="1" d="M 4.394531 6.839844 L 11.234375 6.839844 C 11.324219 6.839844 11.398438 6.914062 11.398438 7.003906 L 11.398438 11.234375 C 11.398438 11.324219 11.324219 11.398438 11.234375 11.398438 L 4.394531 11.398438 C 4.304688 11.398438 4.234375 11.324219 4.234375 11.234375 L 4.234375 7.003906 C 4.234375 6.914062 4.304688 6.839844 4.394531 6.839844 Z M 4.394531 6.839844 "/>
<path fill-rule="nonzero" fill="rgb(62.745098%, 92.54902%, 100%)" fill-opacity="1" d="M 7 4.398438 C 6.910156 4.398438 6.839844 4.46875 6.839844 4.558594 L 6.839844 7.816406 C 6.839844 7.90625 6.910156 7.980469 7 7.980469 L 9.511719 7.980469 L 10.421875 8.789062 C 10.539062 8.8125 10.582031 8.746094 10.582031 8.625 L 10.582031 7.980469 L 12.535156 7.980469 C 12.578125 7.980469 12.621094 7.960938 12.652344 7.929688 C 12.683594 7.898438 12.699219 7.859375 12.699219 7.816406 L 12.699219 4.558594 C 12.699219 4.515625 12.683594 4.472656 12.652344 4.445312 C 12.621094 4.414062 12.578125 4.398438 12.535156 4.398438 Z M 7 4.398438 "/>
<path fill-rule="nonzero" fill="rgb(36.078431%, 64.313725%, 92.941176%)" fill-opacity="1" d="M 5.863281 9.761719 L 7.652344 9.761719 C 7.742188 9.761719 7.839844 9.839844 7.816406 9.925781 L 7.503906 11.0625 C 7.476562 11.148438 7.394531 11.167969 7.328125 11.226562 L 5.863281 12.53125 C 5.746094 12.554688 5.699219 12.488281 5.699219 12.367188 L 5.699219 9.925781 C 5.699219 9.835938 5.773438 9.761719 5.863281 9.761719 Z M 5.863281 9.761719 "/>
</svg>
