<?xml version="1.0" encoding="UTF-8"?>
<svg xmlns="http://www.w3.org/2000/svg" xmlns:xlink="http://www.w3.org/1999/xlink" width="64" height="64" viewBox="0 0 64 64">
<defs>
<filter id="filter-remove-color" x="0%" y="0%" width="100%" height="100%">
<feColorMatrix color-interpolation-filters="sRGB" values="0 0 0 0 1 0 0 0 0 1 0 0 0 0 1 0 0 0 1 0" />
</filter>
<mask id="mask-0">
<g filter="url(#filter-remove-color)">
<rect x="-6.4" y="-6.4" width="76.8" height="76.8" fill="rgb(0%, 0%, 0%)" fill-opacity="0.35"/>
</g>
</mask>
<clipPath id="clip-0">
<rect x="0" y="0" width="17" height="17"/>
</clipPath>
<g id="source-1817" clip-path="url(#clip-0)">
<path fill-rule="nonzero" fill="rgb(100%, 100%, 100%)" fill-opacity="1" d="M 6.085938 7.140625 L 10.847656 7.140625 C 11.578125 7.140625 12.171875 7.730469 12.171875 8.464844 C 12.171875 9.195312 11.578125 9.785156 10.847656 9.785156 L 6.085938 9.785156 C 5.355469 9.785156 4.761719 9.195312 4.761719 8.464844 C 4.761719 7.730469 5.355469 7.140625 6.085938 7.140625 Z M 6.085938 7.140625 "/>
</g>
</defs>
<path fill-rule="nonzero" fill="rgb(36.470588%, 63.921569%, 93.333333%)" fill-opacity="1" d="M 15.609375 8.460938 C 15.609375 12.40625 12.410156 15.605469 8.464844 15.605469 C 4.519531 15.605469 1.324219 12.40625 1.324219 8.460938 C 1.324219 4.515625 4.519531 1.316406 8.464844 1.316406 C 12.410156 1.316406 15.609375 4.515625 15.609375 8.460938 Z M 15.609375 8.460938 "/>
<path fill-rule="nonzero" fill="rgb(24.313725%, 45.490196%, 71.764706%)" fill-opacity="1" d="M 8.46875 2.640625 C 7.113281 2.640625 5.804688 3.113281 4.761719 3.976562 L 4.761719 12.945312 C 5.804688 13.808594 7.113281 14.28125 8.46875 14.28125 C 11.679688 14.28125 14.285156 11.675781 14.285156 8.460938 C 14.289062 5.246094 11.683594 2.640625 8.46875 2.640625 Z M 8.46875 2.640625 "/>
<path fill-rule="nonzero" fill="rgb(24.313725%, 45.490196%, 71.764706%)" fill-opacity="1" d="M 13.757812 8.460938 C 13.757812 11.382812 11.390625 13.753906 8.46875 13.753906 C 5.542969 13.753906 3.175781 11.382812 3.175781 8.460938 C 3.175781 5.539062 5.542969 3.167969 8.46875 3.167969 C 11.390625 3.167969 13.757812 5.539062 13.757812 8.460938 Z M 13.757812 8.460938 "/>
<g mask="url(#mask-0)">
<use xlink:href="#source-1817"/>
</g>
<path fill-rule="nonzero" fill="rgb(100%, 100%, 100%)" fill-opacity="1" d="M 12.699219 8.460938 C 12.699219 9.628906 11.753906 10.578125 10.582031 10.578125 C 9.414062 10.578125 8.464844 9.628906 8.464844 8.460938 C 8.464844 7.289062 9.414062 6.34375 10.582031 6.34375 C 11.753906 6.34375 12.699219 7.289062 12.699219 8.460938 Z M 12.699219 8.460938 "/>
</svg>
