<?xml version="1.0" encoding="UTF-8"?>
<svg xmlns="http://www.w3.org/2000/svg" xmlns:xlink="http://www.w3.org/1999/xlink" width="64" height="64" viewBox="0 0 64 64">
<path fill-rule="nonzero" fill="rgb(97.647059%, 97.647059%, 97.647059%)" fill-opacity="1" d="M 15.609375 8.464844 C 15.609375 12.410156 12.410156 15.609375 8.464844 15.609375 C 4.519531 15.609375 1.324219 12.410156 1.324219 8.464844 C 1.324219 4.519531 4.519531 1.324219 8.464844 1.324219 C 12.410156 1.324219 15.609375 4.519531 15.609375 8.464844 Z M 15.609375 8.464844 "/>
<path fill="none" stroke-width="1.058" stroke-linecap="butt" stroke-linejoin="miter" stroke="rgb(96.078431%, 80.784314%, 9.019608%)" stroke-opacity="1" stroke-miterlimit="4" d="M 8.512716 3.137084 L 2.923231 8.732325 L 4.506246 10.309585 L 10.095732 4.7201 Z M 8.512716 3.137084 " transform="matrix(0.67859, 0, 0, 0.67859, 3.2507, 2.3673)"/>
<path fill-rule="nonzero" fill="rgb(25.882353%, 25.098039%, 28.235294%)" fill-opacity="1" d="M 3.96875 12.0625 L 8.457031 12.0625 L 8.457031 12.78125 L 3.96875 12.78125 Z M 3.96875 12.0625 "/>
<path fill-rule="nonzero" fill="rgb(50.196078%, 50.196078%, 50.196078%)" fill-opacity="1" d="M 5.089844 7.785156 L 5.089844 10.777344 C 5.089844 11.1875 4.753906 11.523438 4.34375 11.523438 L 3.96875 11.523438 L 3.96875 12.242188 L 8.457031 12.242188 L 8.457031 11.523438 L 8.082031 11.523438 C 7.671875 11.523438 7.335938 11.1875 7.335938 10.777344 L 7.335938 7.785156 Z M 5.089844 7.785156 "/>
<path fill-rule="nonzero" fill="rgb(40.784314%, 40.392157%, 41.960784%)" fill-opacity="1" d="M 3.96875 11.523438 L 8.457031 11.523438 L 8.457031 12.242188 L 3.96875 12.242188 Z M 3.96875 11.523438 "/>
<path fill="none" stroke-width="1.0583" stroke-linecap="butt" stroke-linejoin="miter" stroke="rgb(25.882353%, 25.098039%, 28.235294%)" stroke-opacity="1" stroke-miterlimit="4" d="M 10.844066 10.585893 L 13.077558 8.352402 L 15.316806 10.585893 " transform="matrix(0.67859, 0, 0, 0.67859, 3.2507, 2.3673)"/>
<path fill-rule="nonzero" fill="rgb(47.843137%, 52.156863%, 60%)" fill-opacity="1" d="M 13.453125 8.792969 C 13.769531 8.792969 14.023438 9.050781 14.023438 9.363281 L 14.023438 10.5 L 13.453125 11.070312 L 12.882812 11.070312 L 12.882812 9.363281 C 12.882812 9.050781 13.140625 8.792969 13.453125 8.792969 Z M 13.453125 8.792969 "/>
<path fill-rule="nonzero" fill="rgb(97.647059%, 94.117647%, 41.960784%)" fill-opacity="1" d="M 8.457031 8.292969 C 8.457031 9.480469 7.492188 10.445312 6.304688 10.445312 C 5.113281 10.445312 4.148438 9.480469 4.148438 8.292969 C 4.148438 7.101562 5.113281 6.136719 6.304688 6.136719 C 7.492188 6.136719 8.457031 7.101562 8.457031 8.292969 Z M 8.457031 8.292969 "/>
<path fill-rule="nonzero" fill="rgb(25.882353%, 25.098039%, 28.235294%)" fill-opacity="1" stroke-width="1.058" stroke-linecap="butt" stroke-linejoin="miter" stroke="rgb(25.882353%, 25.098039%, 28.235294%)" stroke-opacity="1" stroke-miterlimit="4" d="M 13.670469 8.634466 L 9.19773 4.161727 " transform="matrix(0.67859, 0, 0, 0.67859, 3.2507, 2.3673)"/>
<path fill-rule="nonzero" fill="rgb(97.647059%, 94.117647%, 41.960784%)" fill-opacity="1" d="M 11.152344 5.148438 C 11.152344 6.09375 10.386719 6.855469 9.445312 6.855469 C 8.503906 6.855469 7.738281 6.09375 7.738281 5.148438 C 7.738281 4.207031 8.503906 3.445312 9.445312 3.445312 C 10.386719 3.445312 11.152344 4.207031 11.152344 5.148438 Z M 11.152344 5.148438 "/>
<path fill-rule="nonzero" fill="rgb(97.647059%, 94.117647%, 41.960784%)" fill-opacity="1" d="M 13.125 7.933594 C 13.125 8.527344 12.644531 9.011719 12.046875 9.011719 C 11.453125 9.011719 10.972656 8.527344 10.972656 7.933594 C 10.972656 7.339844 11.453125 6.855469 12.046875 6.855469 C 12.644531 6.855469 13.125 7.339844 13.125 7.933594 Z M 13.125 7.933594 "/>
<path fill-rule="nonzero" fill="rgb(29.019608%, 28.235294%, 31.372549%)" fill-opacity="1" d="M 10.433594 5.148438 C 10.433594 5.695312 9.988281 6.136719 9.445312 6.136719 C 8.898438 6.136719 8.457031 5.695312 8.457031 5.148438 C 8.457031 4.605469 8.898438 4.164062 9.445312 4.164062 C 9.988281 4.164062 10.433594 4.605469 10.433594 5.148438 Z M 10.433594 5.148438 "/>
<path fill-rule="nonzero" fill="rgb(29.019608%, 28.235294%, 31.372549%)" fill-opacity="1" d="M 7.558594 8.292969 C 7.558594 8.984375 6.996094 9.546875 6.304688 9.546875 C 5.609375 9.546875 5.046875 8.984375 5.046875 8.292969 C 5.046875 7.597656 5.609375 7.035156 6.304688 7.035156 C 6.996094 7.035156 7.558594 7.597656 7.558594 8.292969 Z M 7.558594 8.292969 "/>
<path fill-rule="nonzero" fill="rgb(10.196078%, 9.019608%, 13.72549%)" fill-opacity="1" d="M 7.019531 8.292969 C 7.019531 8.6875 6.699219 9.011719 6.304688 9.011719 C 5.90625 9.011719 5.585938 8.6875 5.585938 8.292969 C 5.585938 7.894531 5.90625 7.574219 6.304688 7.574219 C 6.699219 7.574219 7.019531 7.894531 7.019531 8.292969 Z M 7.019531 8.292969 "/>
<path fill-rule="nonzero" fill="rgb(10.196078%, 9.019608%, 13.72549%)" fill-opacity="1" d="M 9.894531 5.148438 C 9.894531 5.398438 9.691406 5.597656 9.445312 5.597656 C 9.195312 5.597656 8.996094 5.398438 8.996094 5.148438 C 8.996094 4.902344 9.195312 4.703125 9.445312 4.703125 C 9.691406 4.703125 9.894531 4.902344 9.894531 5.148438 Z M 9.894531 5.148438 "/>
<path fill-rule="nonzero" fill="rgb(29.019608%, 28.235294%, 31.372549%)" fill-opacity="1" d="M 12.765625 7.933594 C 12.765625 8.328125 12.445312 8.652344 12.046875 8.652344 C 11.652344 8.652344 11.332031 8.328125 11.332031 7.933594 C 11.332031 7.535156 11.652344 7.214844 12.046875 7.214844 C 12.445312 7.214844 12.765625 7.535156 12.765625 7.933594 Z M 12.765625 7.933594 "/>
<path fill-rule="nonzero" fill="rgb(10.196078%, 9.019608%, 13.72549%)" fill-opacity="1" d="M 12.40625 7.933594 C 12.40625 8.132812 12.246094 8.292969 12.046875 8.292969 C 11.851562 8.292969 11.691406 8.132812 11.691406 7.933594 C 11.691406 7.734375 11.851562 7.574219 12.046875 7.574219 C 12.246094 7.574219 12.40625 7.734375 12.40625 7.933594 Z M 12.40625 7.933594 "/>
<path fill-rule="nonzero" fill="rgb(18.039216%, 20.392157%, 21.176471%)" fill-opacity="1" d="M 13.644531 9.363281 C 13.644531 9.46875 13.558594 9.554688 13.453125 9.554688 C 13.347656 9.554688 13.261719 9.46875 13.261719 9.363281 C 13.261719 9.257812 13.347656 9.171875 13.453125 9.171875 C 13.558594 9.171875 13.644531 9.257812 13.644531 9.363281 Z M 13.644531 9.363281 "/>
<path fill-rule="nonzero" fill="rgb(47.843137%, 52.156863%, 60%)" fill-opacity="1" d="M 10.796875 8.792969 C 10.484375 8.792969 10.230469 9.050781 10.230469 9.363281 L 10.230469 10.5 L 10.796875 11.070312 L 11.367188 11.070312 L 11.367188 9.363281 C 11.367188 9.210938 11.308594 9.066406 11.199219 8.960938 C 11.09375 8.855469 10.949219 8.792969 10.796875 8.792969 Z M 10.796875 8.792969 "/>
<path fill-rule="nonzero" fill="rgb(18.039216%, 20.392157%, 21.176471%)" fill-opacity="1" d="M 10.605469 9.363281 C 10.605469 9.46875 10.691406 9.554688 10.796875 9.554688 C 10.902344 9.554688 10.988281 9.46875 10.988281 9.363281 C 10.988281 9.257812 10.902344 9.171875 10.796875 9.171875 C 10.691406 9.171875 10.605469 9.257812 10.605469 9.363281 Z M 10.605469 9.363281 "/>
</svg>
