<?xml version="1.0" encoding="UTF-8"?>
<svg xmlns="http://www.w3.org/2000/svg" xmlns:xlink="http://www.w3.org/1999/xlink" width="64" height="64" viewBox="0 0 64 64">
<path fill-rule="nonzero" fill="rgb(33.333333%, 39.215686%, 60.784314%)" fill-opacity="1" d="M 30.082031 13.808594 C 18.4375 14.085938 7.210938 20.035156 5.019531 31.230469 L 5.019531 31.234375 C 5.011719 31.488281 5 31.742188 5 32 C 5 46.910156 17.085938 59 32 59 C 45.789062 59 57.15625 48.65625 58.789062 35.308594 C 57.027344 20.453125 43.28125 13.488281 30.082031 13.808594 Z M 58.789062 35.308594 C 58.851562 34.78125 58.90625 34.25 58.941406 33.714844 C 58.902344 34.25 58.851562 34.78125 58.789062 35.308594 Z M 59 32 C 59 32.554688 58.980469 33.101562 58.945312 33.648438 C 58.976562 33.101562 59 32.554688 59 32 Z M 59 32 "/>
<path fill-rule="nonzero" fill="rgb(49.411765%, 54.901961%, 75.294118%)" fill-opacity="1" d="M 32 5 C 17.34375 5 5.425781 16.675781 5.019531 31.234375 L 20.261719 21.433594 L 27.304688 29.652344 L 42.566406 19.085938 L 58.789062 35.308594 C 58.921875 34.222656 59 33.121094 59 32 C 59 17.085938 46.914062 5 32 5 Z M 32 5 "/>
<path fill-rule="nonzero" fill="rgb(72.941176%, 77.254902%, 89.803922%)" fill-opacity="1" d="M 42.566406 17.914062 L 27.304688 28.476562 L 20.261719 20.261719 L 5.082031 30.019531 C 5.03125 30.671875 5 31.332031 5 32 C 5 32.140625 5.007812 32.273438 5.011719 32.414062 L 20.261719 22.609375 L 27.304688 30.828125 L 42.566406 20.261719 L 58.648438 36.34375 C 58.757812 35.652344 58.839844 34.953125 58.898438 34.246094 Z M 42.566406 17.914062 "/>
<path fill-rule="nonzero" fill="rgb(100%, 81.176471%, 40.392157%)" fill-opacity="1" d="M 22.609375 21.433594 C 22.609375 22.730469 21.558594 23.78125 20.261719 23.78125 C 18.964844 23.78125 17.914062 22.730469 17.914062 21.433594 C 17.914062 20.136719 18.964844 19.085938 20.261719 19.085938 C 21.558594 19.085938 22.609375 20.136719 22.609375 21.433594 "/>
<path fill-rule="nonzero" fill="rgb(100%, 81.176471%, 40.392157%)" fill-opacity="1" d="M 29.652344 29.652344 C 29.652344 30.949219 28.601562 32 27.304688 32 C 26.007812 32 24.957031 30.949219 24.957031 29.652344 C 24.957031 28.355469 26.007812 27.304688 27.304688 27.304688 C 28.601562 27.304688 29.652344 28.355469 29.652344 29.652344 "/>
<path fill-rule="nonzero" fill="rgb(100%, 81.176471%, 40.392157%)" fill-opacity="1" d="M 44.914062 19.085938 C 44.914062 20.382812 43.863281 21.433594 42.566406 21.433594 C 41.269531 21.433594 40.21875 20.382812 40.21875 19.085938 C 40.21875 17.789062 41.269531 16.738281 42.566406 16.738281 C 43.863281 16.738281 44.914062 17.789062 44.914062 19.085938 "/>
</svg>
