<?xml version="1.0" encoding="UTF-8"?>
<svg xmlns="http://www.w3.org/2000/svg" xmlns:xlink="http://www.w3.org/1999/xlink" width="64" height="64" viewBox="0 0 64 64">
<path fill-rule="nonzero" fill="rgb(76.078431%, 20.784314%, 16.470588%)" fill-opacity="1" d="M 15.609375 8.46875 C 15.609375 12.414062 12.414062 15.613281 8.46875 15.613281 C 4.523438 15.613281 1.324219 12.414062 1.324219 8.46875 C 1.324219 4.523438 4.523438 1.324219 8.46875 1.324219 C 12.414062 1.324219 15.609375 4.523438 15.609375 8.46875 Z M 15.609375 8.46875 "/>
<path fill-rule="evenodd" fill="rgb(100%, 100%, 100%)" fill-opacity="1" d="M 9.390625 4.542969 C 9.300781 4.539062 9.214844 4.5625 9.140625 4.609375 L 3.808594 7.71875 L 1.582031 6.609375 C 1.496094 6.917969 1.433594 7.230469 1.390625 7.546875 L 3.617188 8.660156 C 3.757812 8.730469 3.921875 8.726562 4.054688 8.648438 L 9.605469 5.410156 C 9.785156 5.308594 9.878906 5.097656 9.828125 4.894531 C 9.777344 4.691406 9.597656 4.550781 9.390625 4.542969 Z M 9.390625 6.394531 C 9.300781 6.390625 9.214844 6.414062 9.140625 6.460938 L 3.808594 9.570312 L 1.332031 8.332031 C 1.328125 8.378906 1.324219 8.429688 1.324219 8.476562 C 1.324219 8.785156 1.347656 9.09375 1.390625 9.398438 L 3.617188 10.511719 C 3.757812 10.578125 3.921875 10.574219 4.054688 10.496094 L 9.605469 7.257812 C 9.785156 7.15625 9.878906 6.945312 9.828125 6.742188 C 9.777344 6.542969 9.597656 6.398438 9.390625 6.394531 Z M 9.390625 8.242188 C 9.300781 8.242188 9.214844 8.265625 9.140625 8.308594 L 3.808594 11.421875 L 1.566406 10.300781 C 1.679688 10.738281 1.839844 11.164062 2.035156 11.570312 L 3.617188 12.359375 C 3.757812 12.429688 3.921875 12.425781 4.058594 12.347656 L 9.605469 9.109375 C 9.789062 9.007812 9.878906 8.796875 9.832031 8.59375 C 9.78125 8.390625 9.601562 8.25 9.390625 8.242188 Z M 9.390625 8.242188 "/>
</svg>
