<?xml version="1.0" encoding="UTF-8"?>
<svg xmlns="http://www.w3.org/2000/svg" xmlns:xlink="http://www.w3.org/1999/xlink" width="64" height="64" viewBox="0 0 64 64">
<path fill-rule="nonzero" fill="rgb(0%, 44.313725%, 77.647059%)" fill-opacity="1" d="M 15.347656 8.464844 C 15.347656 12.265625 12.265625 15.34375 8.46875 15.34375 C 4.667969 15.34375 1.589844 12.265625 1.589844 8.464844 C 1.589844 4.667969 4.667969 1.585938 8.46875 1.585938 C 12.265625 1.585938 15.347656 4.667969 15.347656 8.464844 Z M 15.347656 8.464844 "/>
<path fill-rule="nonzero" fill="rgb(100%, 100%, 100%)" fill-opacity="1" d="M 9.394531 6.304688 L 9.394531 7.78125 L 9.910156 8.15625 L 9.96875 8.15625 L 12.171875 6.613281 C 12.171875 6.53125 12.140625 6.453125 12.082031 6.394531 C 12.023438 6.335938 11.945312 6.304688 11.863281 6.304688 Z M 9.394531 6.304688 "/>
<path fill-rule="nonzero" fill="rgb(100%, 100%, 100%)" fill-opacity="1" d="M 9.398438 8.324219 L 9.867188 8.640625 C 9.933594 8.6875 10.011719 8.640625 10.011719 8.640625 C 9.933594 8.6875 12.171875 7.230469 12.171875 7.230469 L 12.171875 10.011719 C 12.171875 10.199219 12.078125 10.316406 11.863281 10.316406 L 9.394531 10.316406 Z M 9.398438 8.324219 "/>
<path fill-rule="nonzero" fill="rgb(100%, 100%, 100%)" fill-opacity="1" d="M 6.980469 7.65625 C 6.824219 7.652344 6.675781 7.738281 6.601562 7.875 C 6.507812 8.023438 6.460938 8.21875 6.460938 8.464844 C 6.460938 8.710938 6.507812 8.90625 6.597656 9.050781 C 6.691406 9.191406 6.816406 9.265625 6.96875 9.265625 C 7.125 9.265625 7.25 9.195312 7.339844 9.054688 C 7.433594 8.914062 7.480469 8.722656 7.480469 8.472656 C 7.480469 8.214844 7.433594 8.011719 7.34375 7.871094 C 7.273438 7.734375 7.132812 7.652344 6.980469 7.65625 Z M 6.980469 7.65625 "/>
<path fill-rule="nonzero" fill="rgb(100%, 100%, 100%)" fill-opacity="1" d="M 4.761719 5.6875 L 4.761719 11.246094 L 9.085938 12.171875 L 9.085938 4.761719 Z M 7.679688 9.390625 C 7.511719 9.621094 7.246094 9.753906 6.960938 9.75 C 6.679688 9.753906 6.417969 9.625 6.253906 9.402344 C 6.070312 9.167969 5.980469 8.867188 5.980469 8.492188 C 5.980469 8.097656 6.074219 7.777344 6.257812 7.535156 C 6.425781 7.300781 6.703125 7.164062 6.992188 7.171875 C 7.28125 7.171875 7.511719 7.285156 7.691406 7.519531 C 7.867188 7.753906 7.957031 8.0625 7.957031 8.441406 C 7.957031 8.835938 7.863281 9.148438 7.679688 9.390625 Z M 7.679688 9.390625 "/>
</svg>
