<?xml version="1.0" encoding="UTF-8"?>
<svg xmlns="http://www.w3.org/2000/svg" xmlns:xlink="http://www.w3.org/1999/xlink" width="64" height="64" viewBox="0 0 64 64">
<path fill-rule="nonzero" fill="rgb(10.980392%, 17.647059%, 26.666667%)" fill-opacity="1" d="M 15.609375 8.460938 C 15.609375 12.40625 12.410156 15.605469 8.464844 15.605469 C 4.519531 15.605469 1.324219 12.40625 1.324219 8.460938 C 1.324219 4.515625 4.519531 1.316406 8.464844 1.316406 C 12.410156 1.316406 15.609375 4.515625 15.609375 8.460938 Z M 15.609375 8.460938 "/>
<path fill-rule="nonzero" fill="rgb(100%, 100%, 100%)" fill-opacity="1" stroke-width="0.265" stroke-linecap="butt" stroke-linejoin="miter" stroke="rgb(10.980392%, 17.647059%, 26.666667%)" stroke-opacity="1" stroke-miterlimit="4" d="M 6.8125 286.593445 C 6.828125 286.917664 6.664062 287.226257 6.386719 287.394226 C 6.105469 287.558289 5.757812 287.558289 5.476562 287.394226 C 5.199219 287.226257 5.03125 286.917664 5.046875 286.593445 C 5.03125 286.26532 5.199219 285.960632 5.476562 285.792664 C 5.757812 285.624695 6.105469 285.624695 6.386719 285.792664 C 6.664062 285.960632 6.828125 286.26532 6.8125 286.593445 Z M 5.929688 289.667664 C 5.929688 290.562195 5.203125 291.288757 4.3125 291.288757 C 3.417969 291.288757 2.691406 290.562195 2.695312 289.667664 C 2.671875 289.07782 2.976562 288.519226 3.484375 288.218445 C 3.996094 287.917664 4.628906 287.917664 5.136719 288.218445 C 5.648438 288.519226 5.949219 289.07782 5.929688 289.667664 Z M 5.929688 289.667664 " transform="matrix(1, 0, 0, 1, 0, -280.070007)"/>
<path fill-rule="nonzero" fill="rgb(100%, 100%, 100%)" fill-opacity="1" stroke-width="0.265" stroke-linecap="butt" stroke-linejoin="miter" stroke="rgb(10.980392%, 17.647059%, 26.666667%)" stroke-opacity="1" stroke-miterlimit="4" d="M 7.886719 288.589539 C 7.886719 289.558289 7.101562 290.343445 6.136719 290.343445 C 5.167969 290.339539 4.386719 289.554382 4.386719 288.589539 C 4.386719 287.620789 5.171875 286.835632 6.136719 286.835632 C 7.105469 286.835632 7.886719 287.620789 7.886719 288.589539 Z M 11.320312 287.878601 C 11.285156 288.745789 10.570312 289.429382 9.703125 289.429382 C 8.835938 289.429382 8.125 288.745789 8.085938 287.878601 C 8.085938 286.98407 8.808594 286.257507 9.703125 286.257507 C 10.597656 286.257507 11.324219 286.98407 11.320312 287.878601 Z M 11.320312 287.878601 " transform="matrix(1, 0, 0, 1, 0, -280.070007)"/>
<path fill-rule="nonzero" fill="rgb(100%, 100%, 100%)" fill-opacity="1" stroke-width="0.265" stroke-linecap="butt" stroke-linejoin="miter" stroke="rgb(10.980392%, 17.647059%, 26.666667%)" stroke-opacity="1" stroke-miterlimit="4" d="M 9.546875 286.616882 C 9.570312 287.206726 9.265625 287.76532 8.757812 288.066101 C 8.246094 288.366882 7.613281 288.366882 7.105469 288.066101 C 6.59375 287.76532 6.292969 287.206726 6.3125 286.616882 C 6.34375 285.745789 7.058594 285.054382 7.929688 285.054382 C 8.800781 285.054382 9.515625 285.745789 9.546875 286.616882 Z M 14.238281 290.29657 C 14.238281 290.808289 13.824219 291.222351 13.3125 291.222351 C 12.800781 291.222351 12.386719 290.808289 12.386719 290.29657 C 12.386719 289.784851 12.800781 289.366882 13.3125 289.366882 C 13.824219 289.366882 14.238281 289.784851 14.238281 290.29657 Z M 14.238281 290.29657 " transform="matrix(1, 0, 0, 1, 0, -280.070007)"/>
<path fill-rule="nonzero" fill="rgb(100%, 100%, 100%)" fill-opacity="1" stroke-width="0.265" stroke-linecap="butt" stroke-linejoin="miter" stroke="rgb(10.980392%, 17.647059%, 26.666667%)" stroke-opacity="1" stroke-miterlimit="4" d="M 13.097656 289.581726 C 13.097656 290.04657 12.914062 290.491882 12.585938 290.820007 C 12.257812 291.148132 11.8125 291.335632 11.347656 291.335632 C 10.882812 291.335632 10.4375 291.148132 10.109375 290.820007 C 9.78125 290.491882 9.597656 290.04657 9.597656 289.581726 C 9.597656 288.60907 10.382812 287.82782 11.347656 287.82782 C 12.3125 287.82782 13.097656 288.612976 13.097656 289.581726 Z M 6.953125 290.382507 C 6.953125 290.894226 6.539062 291.308289 6.03125 291.308289 C 5.519531 291.308289 5.105469 290.894226 5.105469 290.382507 C 5.105469 289.874695 5.519531 289.460632 6.03125 289.460632 C 6.539062 289.460632 6.953125 289.874695 6.953125 290.382507 Z M 6.953125 290.382507 " transform="matrix(1, 0, 0, 1, 0, -280.070007)"/>
<path fill-rule="nonzero" fill="rgb(100%, 100%, 100%)" fill-opacity="1" stroke-width="0.265" stroke-linecap="butt" stroke-linejoin="miter" stroke="rgb(10.980392%, 17.647059%, 26.666667%)" stroke-opacity="1" stroke-miterlimit="4" d="M 10.691406 289.062195 C 10.691406 290.29657 9.691406 291.29657 8.464844 291.29657 C 7.230469 291.29657 6.234375 290.29657 6.234375 289.062195 C 6.234375 287.82782 7.230469 286.82782 8.464844 286.82782 C 9.691406 286.82782 10.691406 287.82782 10.691406 289.062195 Z M 10.691406 289.062195 " transform="matrix(1, 0, 0, 1, 0, -280.070007)"/>
</svg>
