<?xml version="1.0" encoding="UTF-8"?>
<svg xmlns="http://www.w3.org/2000/svg" xmlns:xlink="http://www.w3.org/1999/xlink" width="64" height="64" viewBox="0 0 64 64">
<path fill-rule="nonzero" fill="rgb(98.039216%, 27.843137%, 47.058824%)" fill-opacity="1" d="M 15.609375 8.460938 C 15.609375 12.40625 12.410156 15.605469 8.464844 15.605469 C 4.519531 15.605469 1.324219 12.40625 1.324219 8.460938 C 1.324219 4.515625 4.519531 1.316406 8.464844 1.316406 C 12.410156 1.316406 15.609375 4.515625 15.609375 8.460938 Z M 15.609375 8.460938 "/>
<path fill-rule="nonzero" fill="rgb(100%, 100%, 100%)" fill-opacity="1" d="M 11.132812 6.371094 C 11.117188 6.449219 10.976562 6.609375 10.894531 6.609375 L 8.515625 6.609375 C 8.347656 6.621094 8.210938 6.757812 8.199219 6.925781 L 8.199219 7.085938 C 8.199219 7.242188 8.359375 7.402344 8.515625 7.402344 L 10.578125 7.402344 C 10.738281 7.402344 10.855469 7.542969 10.816406 7.71875 C 10.75 7.988281 10.667969 8.25 10.578125 8.511719 C 10.5 8.710938 10.421875 8.988281 10.101562 8.988281 L 8.515625 8.988281 C 8.277344 8.988281 8.199219 9.160156 8.039062 9.382812 C 7.898438 9.558594 6.613281 11.367188 6.613281 11.367188 L 6.613281 5.894531 C 6.613281 5.417969 6.929688 5.023438 7.484375 5.023438 L 11.132812 5.023438 C 11.292969 5.023438 11.410156 5.183594 11.371094 5.339844 Z M 7.484375 4.230469 C 6.21875 4.230469 5.820312 4.546875 5.820312 5.894531 L 5.820312 13.109375 C 5.820312 13.429688 5.941406 13.507812 6.019531 13.507812 C 6.097656 13.507812 6.199219 13.421875 6.296875 13.269531 C 6.359375 13.175781 8.753906 9.78125 8.753906 9.78125 L 10.300781 9.78125 C 11.09375 9.78125 11.171875 9.304688 11.328125 8.75 C 11.410156 8.351562 11.886719 6.53125 12.121094 5.421875 C 12.28125 4.625 12.042969 4.230469 11.25 4.230469 Z M 7.484375 4.230469 "/>
</svg>
