<?xml version="1.0" encoding="UTF-8"?>
<svg xmlns="http://www.w3.org/2000/svg" xmlns:xlink="http://www.w3.org/1999/xlink" width="64" height="64" viewBox="0 0 64 64">
<path fill-rule="evenodd" fill="rgb(100%, 100%, 100%)" fill-opacity="1" d="M 15.34375 8.464844 C 15.34375 12.265625 12.265625 15.34375 8.464844 15.34375 C 4.667969 15.34375 1.585938 12.265625 1.585938 8.464844 C 1.585938 4.667969 4.667969 1.585938 8.464844 1.585938 C 12.265625 1.585938 15.34375 4.667969 15.34375 8.464844 Z M 15.34375 8.464844 "/>
<path fill-rule="nonzero" fill="rgb(93.333333%, 25.098039%, 33.333333%)" fill-opacity="1" d="M 4.949219 5.613281 C 4.550781 5.613281 4.171875 5.667969 3.941406 5.929688 C 3.59375 6.332031 3.730469 7.132812 3.730469 7.617188 C 3.730469 8.359375 3.679688 9.152344 3.832031 9.886719 C 3.992188 10.667969 4.566406 11.519531 5.207031 12.050781 C 5.675781 12.4375 6.175781 12.710938 6.75 12.933594 C 7.320312 13.128906 7.859375 13.222656 8.429688 13.226562 C 8.949219 13.226562 9.46875 13.171875 9.96875 13.015625 C 10.472656 12.851562 10.984375 12.621094 11.402344 12.320312 C 11.84375 11.980469 12.199219 11.648438 12.484375 11.222656 C 12.6875 10.910156 12.855469 10.566406 12.984375 10.21875 C 13.296875 9.359375 13.207031 8.347656 13.207031 7.449219 C 13.207031 7.046875 13.3125 6.316406 13.039062 5.972656 C 12.628906 5.457031 11.71875 5.636719 11.039062 5.636719 L 5.832031 5.636719 C 5.570312 5.636719 5.257812 5.601562 4.949219 5.601562 Z M 10.722656 7.820312 C 10.832031 7.820312 10.945312 7.851562 11.066406 7.921875 C 11.339844 8.082031 11.425781 8.476562 11.230469 8.71875 C 11.054688 8.949219 10.792969 9.128906 10.570312 9.320312 L 9.417969 10.316406 C 9.167969 10.542969 8.902344 10.863281 8.527344 10.898438 C 8.15625 10.933594 7.90625 10.65625 7.664062 10.4375 L 6.457031 9.390625 C 6.210938 9.1875 5.859375 8.960938 5.6875 8.695312 C 5.445312 8.324219 5.730469 7.878906 6.171875 7.824219 C 6.453125 7.789062 6.652344 7.945312 6.847656 8.109375 L 7.972656 9.082031 C 8.089844 9.179688 8.28125 9.445312 8.441406 9.464844 C 8.625 9.492188 8.902344 9.128906 9.019531 9.027344 L 9.855469 8.3125 C 10.097656 8.09375 10.382812 7.816406 10.714844 7.816406 "/>
<path fill-rule="nonzero" fill="rgb(31.764706%, 73.333333%, 71.764706%)" fill-opacity="1" d="M 4.738281 3.355469 L 5.773438 2.761719 C 6.609375 2.378906 7.519531 2.179688 8.4375 2.183594 L 8.4375 1.324219 C 7.464844 1.398438 6.539062 1.523438 5.628906 1.914062 C 5.398438 2.015625 4.902344 2.164062 4.769531 2.386719 C 4.644531 2.601562 4.738281 3.109375 4.738281 3.355469 Z M 4.738281 3.355469 "/>
<path fill-rule="nonzero" fill="rgb(93.72549%, 25.490196%, 33.333333%)" fill-opacity="1" d="M 8.4375 1.324219 L 8.4375 2.183594 C 9.328125 2.179688 10.210938 2.367188 11.019531 2.734375 L 12.136719 3.355469 C 12.136719 3.109375 12.246094 2.546875 12.109375 2.339844 C 11.976562 2.136719 11.5 1.992188 11.277344 1.898438 C 10.378906 1.519531 9.414062 1.324219 8.4375 1.324219 Z M 8.4375 1.324219 "/>
<path fill-rule="nonzero" fill="rgb(98.431373%, 71.764706%, 29.411765%)" fill-opacity="1" d="M 12.136719 2.351562 C 12.136719 2.628906 12.046875 3.09375 12.15625 3.347656 C 12.226562 3.511719 12.488281 3.644531 12.617188 3.761719 C 12.941406 4.054688 13.253906 4.375 13.511719 4.730469 C 14.214844 5.703125 14.746094 6.945312 14.75 8.164062 C 14.75 9.523438 14.46875 10.796875 13.710938 11.945312 C 13.441406 12.359375 13.105469 12.742188 12.742188 13.082031 C 12.585938 13.230469 12.242188 13.414062 12.15625 13.613281 C 12.050781 13.863281 12.136719 14.3125 12.136719 14.582031 C 12.945312 14.273438 13.695312 13.417969 14.199219 12.746094 C 16.082031 10.242188 16.082031 6.6875 14.199219 4.1875 C 13.695312 3.515625 12.945312 2.660156 12.136719 2.351562 Z M 12.136719 2.351562 "/>
<path fill-rule="nonzero" fill="rgb(51.372549%, 92.941176%, 72.54902%)" fill-opacity="1" d="M 4.710938 2.382812 C 3.808594 2.992188 3.03125 3.695312 2.4375 4.613281 C 0.832031 7.109375 0.984375 10.414062 2.757812 12.777344 C 3.265625 13.449219 3.964844 14.183594 4.738281 14.550781 C 4.738281 14.292969 4.824219 13.855469 4.722656 13.613281 C 4.640625 13.421875 4.316406 13.261719 4.164062 13.117188 C 3.789062 12.765625 3.453125 12.371094 3.164062 11.945312 C 2.402344 10.785156 2.039062 9.40625 2.132812 8.023438 C 2.230469 6.730469 2.726562 5.5 3.546875 4.5 L 4.253906 3.765625 L 4.710938 3.371094 C 4.8125 3.203125 4.785156 2.558594 4.710938 2.382812 Z M 4.710938 2.382812 "/>
<path fill-rule="nonzero" fill="rgb(31.764706%, 73.333333%, 71.764706%)" fill-opacity="1" d="M 4.738281 13.605469 C 4.738281 13.847656 4.644531 14.335938 4.769531 14.546875 C 4.902344 14.769531 5.398438 14.917969 5.628906 15.019531 C 6.539062 15.410156 7.460938 15.535156 8.4375 15.609375 L 8.4375 14.78125 C 7.484375 14.785156 6.542969 14.570312 5.6875 14.15625 C 5.402344 14.019531 5.023438 13.859375 4.824219 13.605469 Z M 4.738281 13.605469 "/>
<path fill-rule="nonzero" fill="rgb(93.72549%, 25.490196%, 33.333333%)" fill-opacity="1" d="M 8.4375 14.78125 L 8.4375 15.609375 C 9.402344 15.609375 10.390625 15.414062 11.277344 15.035156 C 11.5 14.941406 11.976562 14.796875 12.109375 14.59375 C 12.242188 14.390625 12.136719 13.847656 12.136719 13.605469 L 11.019531 14.226562 C 10.210938 14.59375 9.328125 14.785156 8.4375 14.78125 M 13.398438 13.605469 L 13.429688 13.632812 Z M 13.398438 13.605469 "/>
</svg>
