<?xml version="1.0" encoding="UTF-8"?>
<svg xmlns="http://www.w3.org/2000/svg" xmlns:xlink="http://www.w3.org/1999/xlink" width="64" height="64" viewBox="0 0 64 64">
<path fill-rule="nonzero" fill="rgb(61.176471%, 50.196078%, 85.882353%)" fill-opacity="1" d="M 15.609375 8.464844 C 15.609375 12.410156 12.410156 15.609375 8.464844 15.609375 C 4.519531 15.609375 1.324219 12.410156 1.324219 8.464844 C 1.324219 4.519531 4.519531 1.324219 8.464844 1.324219 C 12.410156 1.324219 15.609375 4.519531 15.609375 8.464844 Z M 15.609375 8.464844 "/>
<path fill-rule="nonzero" fill="rgb(18.823529%, 18.823529%, 18.823529%)" fill-opacity="1" d="M 5.820312 4.496094 L 11.113281 4.496094 C 11.84375 4.496094 12.433594 5.089844 12.433594 5.820312 L 12.433594 11.113281 C 12.433594 11.84375 11.84375 12.433594 11.113281 12.433594 L 5.820312 12.433594 C 5.089844 12.433594 4.496094 11.84375 4.496094 11.113281 L 4.496094 5.820312 C 4.496094 5.089844 5.089844 4.496094 5.820312 4.496094 Z M 5.820312 4.496094 "/>
<path fill-rule="nonzero" fill="rgb(97.647059%, 97.647059%, 97.647059%)" fill-opacity="1" d="M 5.292969 11.019531 L 8.398438 11.019531 L 8.398438 11.640625 L 5.292969 11.640625 Z M 5.292969 11.019531 "/>
<path fill-rule="nonzero" fill="rgb(100%, 100%, 100%)" fill-opacity="1" d="M 6.855469 8.886719 C 7.316406 8.886719 7.710938 8.707031 7.9375 8.484375 L 7.9375 6.980469 L 6.75 6.980469 L 6.75 7.523438 L 7.339844 7.523438 L 7.339844 8.183594 C 7.246094 8.265625 7.082031 8.308594 6.925781 8.308594 C 6.269531 8.308594 5.933594 7.871094 5.933594 7.148438 C 5.933594 6.429688 6.320312 5.996094 6.875 5.996094 C 7.179688 5.996094 7.367188 6.117188 7.535156 6.277344 L 7.886719 5.851562 C 7.667969 5.632812 7.335938 5.425781 6.855469 5.425781 C 5.964844 5.425781 5.253906 6.070312 5.253906 7.167969 C 5.253906 8.28125 5.949219 8.886719 6.855469 8.886719 Z M 6.855469 8.886719 "/>
<path fill-rule="nonzero" fill="rgb(100%, 100%, 100%)" fill-opacity="1" d="M 9.976562 8.886719 C 10.859375 8.886719 11.46875 8.222656 11.46875 7.140625 C 11.46875 6.058594 10.859375 5.425781 9.976562 5.425781 C 9.09375 5.425781 8.484375 6.054688 8.484375 7.140625 C 8.484375 8.222656 9.09375 8.886719 9.976562 8.886719 Z M 9.976562 8.308594 C 9.480469 8.308594 9.167969 7.855469 9.167969 7.140625 C 9.167969 6.425781 9.480469 5.996094 9.976562 5.996094 C 10.472656 5.996094 10.789062 6.425781 10.789062 7.140625 C 10.789062 7.855469 10.472656 8.308594 9.976562 8.308594 Z M 9.976562 8.308594 "/>
</svg>
