<?xml version="1.0" encoding="UTF-8"?>
<svg xmlns="http://www.w3.org/2000/svg" xmlns:xlink="http://www.w3.org/1999/xlink" width="64" height="64" viewBox="0 0 64 64">
<path fill-rule="evenodd" fill="rgb(85.882353%, 26.666667%, 21.568627%)" fill-opacity="1" d="M 8.464844 1.324219 C 6.121094 1.324219 4.050781 2.445312 2.75 4.183594 L 6.320312 9.539062 L 10.964844 10.464844 L 8.824219 5.25 L 14.84375 5.25 C 13.671875 2.917969 11.265625 1.324219 8.464844 1.324219 Z M 8.464844 1.324219 "/>
<path fill-rule="evenodd" fill="rgb(5.882353%, 61.568627%, 34.509804%)" fill-opacity="1" d="M 2.753906 4.179688 C 1.824219 5.421875 1.320312 6.933594 1.324219 8.488281 C 1.324219 12.445312 4.507812 15.609375 8.46875 15.609375 L 10.96875 10.488281 L 6.324219 9.539062 Z M 2.753906 4.179688 "/>
<path fill-rule="evenodd" fill="rgb(100%, 80.392157%, 25.098039%)" fill-opacity="1" d="M 8.824219 5.25 L 10.964844 10.464844 L 8.464844 15.609375 C 10.363281 15.613281 12.179688 14.863281 13.523438 13.519531 C 14.863281 12.179688 15.613281 10.359375 15.609375 8.464844 C 15.609375 7.304688 15.332031 6.214844 14.84375 5.25 Z M 8.824219 5.25 "/>
<path fill-rule="nonzero" fill="rgb(100%, 100%, 100%)" fill-opacity="1" d="M 8.46875 5.023438 C 10.375 5.023438 11.910156 6.558594 11.910156 8.464844 C 11.910156 10.371094 10.375 11.902344 8.46875 11.902344 C 6.5625 11.902344 5.027344 10.371094 5.027344 8.464844 C 5.027344 6.558594 6.5625 5.023438 8.46875 5.023438 Z M 8.46875 5.023438 "/>
<path fill-rule="nonzero" fill="rgb(14.509804%, 40%, 82.745098%)" fill-opacity="1" d="M 8.46875 5.820312 C 9.933594 5.820312 11.113281 7 11.113281 8.464844 C 11.113281 9.929688 9.933594 11.109375 8.46875 11.109375 C 7.765625 11.113281 7.09375 10.832031 6.597656 10.335938 C 6.101562 9.839844 5.820312 9.167969 5.824219 8.464844 C 5.824219 7 7.003906 5.820312 8.46875 5.820312 Z M 8.46875 5.820312 "/>
</svg>
