<?xml version="1.0" encoding="UTF-8"?>
<svg xmlns="http://www.w3.org/2000/svg" xmlns:xlink="http://www.w3.org/1999/xlink" width="64" height="64" viewBox="0 0 64 64">
<path fill-rule="nonzero" fill="rgb(30.196078%, 30.196078%, 30.196078%)" fill-opacity="1" d="M 58.183594 25.136719 C 58.117188 24.886719 58.046875 24.621094 57.972656 24.359375 C 57.832031 23.859375 57.667969 23.351562 57.488281 22.851562 C 57.121094 21.808594 56.679688 20.789062 56.164062 19.78125 C 55.949219 19.359375 55.710938 18.925781 55.460938 18.5 C 54.292969 16.515625 52.839844 14.652344 51.09375 12.910156 C 45.824219 7.636719 39.457031 5 32 5 C 24.542969 5 18.179688 7.636719 12.910156 12.910156 C 7.636719 18.179688 5 24.542969 5 32 C 5 39.457031 7.636719 45.824219 12.910156 51.09375 C 16.800781 54.988281 21.289062 57.441406 26.34375 58.453125 C 28.171875 58.820312 30.050781 59 32 59 C 39.457031 59 45.824219 56.367188 51.09375 51.09375 C 53.875 48.316406 55.921875 45.230469 57.234375 41.839844 C 58.207031 39.324219 58.78125 36.644531 58.949219 33.789062 C 58.980469 33.203125 59 32.605469 59 32 C 59 29.613281 58.730469 27.332031 58.179688 25.136719 Z M 58.183594 25.136719 "/>
<path fill-rule="evenodd" fill="rgb(17.254902%, 53.333333%, 98.039216%)" fill-opacity="1" d="M 26 37.078125 L 50 37.078125 L 44 47.230469 L 20 47.230469 "/>
<path fill-rule="evenodd" fill="rgb(98.431373%, 77.254902%, 28.627451%)" fill-opacity="1" d="M 50 37.078125 L 37.996094 16.769531 L 26 16.769531 L 37.996094 37.078125 "/>
<path fill-rule="evenodd" fill="rgb(4.313725%, 70.196078%, 43.529412%)" fill-opacity="1" d="M 20 47.230469 L 32 26.921875 L 26 16.769531 L 14 37.078125 "/>
</svg>
