<?xml version="1.0" encoding="UTF-8"?>
<svg xmlns="http://www.w3.org/2000/svg" xmlns:xlink="http://www.w3.org/1999/xlink" width="64" height="64" viewBox="0 0 64 64">
<path fill-rule="nonzero" fill="rgb(22.745098%, 63.529412%, 95.686275%)" fill-opacity="1" d="M 15.394531 6.648438 L 1.5625 10.355469 C 1.871094 11.535156 2.488281 12.589844 3.414062 13.519531 C 4.710938 14.8125 6.253906 15.507812 8.042969 15.601562 L 8.050781 15.601562 C 8.179688 15.605469 8.300781 15.609375 8.421875 15.609375 L 8.550781 15.609375 C 8.679688 15.609375 8.804688 15.605469 8.921875 15.597656 C 8.960938 15.597656 8.996094 15.59375 9.027344 15.589844 C 9.332031 15.570312 9.632812 15.53125 9.914062 15.476562 C 10.035156 15.453125 10.15625 15.425781 10.269531 15.398438 C 11.492188 15.089844 12.574219 14.464844 13.519531 13.519531 C 14.253906 12.78125 14.796875 11.96875 15.144531 11.070312 C 15.394531 10.421875 15.546875 9.726562 15.59375 8.988281 C 15.597656 8.910156 15.601562 8.828125 15.605469 8.746094 C 15.609375 8.65625 15.609375 8.5625 15.609375 8.464844 L 15.609375 8.421875 C 15.609375 7.804688 15.535156 7.21875 15.394531 6.648438 Z M 15.394531 6.648438 "/>
<path fill-rule="nonzero" fill="rgb(36.470588%, 72.156863%, 37.647059%)" fill-opacity="1" d="M 8.464844 1.324219 C 8.324219 1.324219 8.183594 1.328125 8.042969 1.332031 C 6.253906 1.425781 4.710938 2.121094 3.414062 3.414062 C 2.019531 4.808594 1.324219 6.492188 1.324219 8.464844 C 1.324219 9.074219 1.390625 9.652344 1.523438 10.203125 L 15.351562 6.5 C 15.347656 6.480469 15.34375 6.460938 15.339844 6.445312 C 15.300781 6.3125 15.257812 6.179688 15.210938 6.046875 C 15.113281 5.769531 14.996094 5.5 14.859375 5.234375 C 14.804688 5.121094 14.738281 5.007812 14.671875 4.894531 C 14.367188 4.371094 13.980469 3.878906 13.519531 3.414062 C 12.417969 2.316406 11.140625 1.648438 9.679688 1.417969 C 9.433594 1.378906 9.183594 1.351562 8.921875 1.335938 C 8.773438 1.328125 8.621094 1.324219 8.464844 1.324219 Z M 8.464844 1.324219 "/>
<path fill-rule="evenodd" fill="rgb(99.607843%, 91.764706%, 22.745098%)" fill-opacity="1" d="M 5.46875 1.960938 C 4.890625 2.230469 4.347656 2.582031 3.839844 3.023438 L 8.617188 7.804688 L 1.425781 9.730469 C 1.535156 10.371094 1.722656 10.976562 2 11.546875 L 10.171875 9.359375 L 10.273438 9.332031 L 15.589844 7.90625 C 15.558594 7.476562 15.496094 7.058594 15.394531 6.648438 C 15.378906 6.585938 15.359375 6.515625 15.339844 6.445312 C 15.300781 6.3125 15.257812 6.179688 15.210938 6.046875 C 15.210938 6.042969 15.207031 6.039062 15.207031 6.039062 L 10.742188 7.234375 Z M 5.46875 1.960938 "/>
<path fill-rule="nonzero" fill="rgb(100%, 100%, 100%)" fill-opacity="1" d="M 10.59375 7.308594 C 10.59375 8.480469 9.640625 9.433594 8.464844 9.433594 C 7.292969 9.433594 6.339844 8.480469 6.339844 7.308594 C 6.339844 6.132812 7.292969 5.183594 8.464844 5.183594 C 9.640625 5.183594 10.59375 6.132812 10.59375 7.308594 Z M 10.59375 7.308594 "/>
<path fill-rule="nonzero" fill="rgb(96.078431%, 29.803922%, 24.705882%)" fill-opacity="1" d="M 8.464844 4.234375 C 6.859375 4.234375 5.554688 5.535156 5.554688 7.144531 C 5.554688 7.265625 5.566406 7.386719 5.582031 7.503906 C 5.828125 9.777344 8.277344 12.398438 8.277344 12.398438 C 8.320312 12.449219 8.363281 12.476562 8.402344 12.5 L 8.40625 12.5 L 8.488281 12.527344 L 8.570312 12.5 C 8.609375 12.476562 8.652344 12.445312 8.695312 12.398438 C 8.695312 12.398438 11.109375 9.773438 11.351562 7.5 C 11.367188 7.382812 11.375 7.265625 11.375 7.144531 C 11.375 5.535156 10.074219 4.234375 8.464844 4.234375 Z M 8.464844 9.015625 C 7.433594 9.015625 6.59375 8.175781 6.59375 7.144531 C 6.59375 6.113281 7.433594 5.269531 8.464844 5.269531 C 9.5 5.269531 10.335938 6.113281 10.335938 7.144531 C 10.335938 8.175781 9.5 9.015625 8.464844 9.015625 Z M 8.464844 9.015625 "/>
</svg>
