<?xml version="1.0" encoding="UTF-8"?>
<svg xmlns="http://www.w3.org/2000/svg" xmlns:xlink="http://www.w3.org/1999/xlink" width="64" height="64" viewBox="0 0 64 64">
<path fill-rule="nonzero" fill="rgb(96.078431%, 34.509804%, 44.705882%)" fill-opacity="1" d="M 5 32 C 5 17.085938 17.085938 5 32 5 C 46.910156 5 59 17.085938 59 32 C 59 46.910156 46.910156 59 32 59 C 17.085938 59 5 46.910156 5 32 Z M 5 32 "/>
<path fill-rule="nonzero" fill="rgb(100%, 100%, 100%)" fill-opacity="1" d="M 40.21875 15.566406 L 40.21875 16.738281 L 41.390625 16.738281 C 43.992188 16.738281 46.085938 18.816406 46.085938 21.433594 L 46.085938 22.609375 L 47.261719 22.609375 L 47.261719 21.433594 C 47.261719 18.183594 44.644531 15.566406 41.390625 15.566406 Z M 39.042969 19.085938 L 39.042969 20.261719 L 40.21875 20.261719 C 41.519531 20.261719 42.566406 21.308594 42.566406 22.609375 L 42.566406 23.78125 L 43.738281 23.78125 L 43.738281 22.609375 C 43.738281 20.65625 42.167969 19.085938 40.21875 19.085938 Z M 36.695312 22.609375 C 36 22.609375 35.519531 23.152344 35.519531 23.777344 L 35.519531 26.125 L 19.085938 26.125 C 17.914062 26.125 16.738281 27.300781 16.738281 28.472656 L 16.738281 41.386719 C 16.738281 42.558594 17.914062 43.734375 19.085938 43.734375 L 44.914062 43.734375 C 46.085938 43.734375 47.261719 42.558594 47.261719 41.386719 L 47.261719 28.472656 C 47.261719 27.300781 46.085938 26.125 44.914062 26.125 L 40.21875 26.125 L 40.21875 23.777344 C 40.21875 23.128906 39.695312 22.609375 39.042969 22.609375 Z M 37.28125 23.78125 L 38.457031 23.78125 C 38.78125 23.78125 39.042969 24.042969 39.042969 24.371094 L 39.042969 26.128906 L 36.695312 26.128906 L 36.695312 24.371094 C 36.695312 24.042969 36.957031 23.78125 37.28125 23.78125 Z M 21.070312 28.472656 L 30.011719 28.476562 C 31.007812 28.476562 32 29.308594 32 30.148438 L 32 39.710938 C 32 40.550781 31.007812 41.390625 30.011719 41.390625 L 21.070312 41.390625 C 20.949219 41.390625 20.824219 41.378906 20.699219 41.351562 C 19.84375 41.183594 19.085938 40.449219 19.085938 39.714844 L 19.085938 30.152344 C 19.085938 29.316406 20.078125 28.480469 21.070312 28.480469 Z M 34.347656 28.476562 L 42.925781 28.476562 C 43.921875 28.476562 44.910156 29.3125 44.910156 30.152344 L 44.910156 39.714844 C 44.910156 40.550781 43.921875 41.390625 42.925781 41.390625 L 34.347656 41.390625 Z M 37.28125 29.648438 C 36.957031 29.648438 36.695312 29.910156 36.695312 30.238281 C 36.695312 30.5625 36.957031 30.824219 37.28125 30.824219 L 38.457031 30.824219 C 38.78125 30.824219 39.042969 30.5625 39.042969 30.238281 C 39.042969 29.910156 38.78125 29.648438 38.457031 29.648438 Z M 40.804688 29.648438 C 40.480469 29.648438 40.21875 29.910156 40.21875 30.238281 C 40.21875 30.5625 40.480469 30.824219 40.804688 30.824219 L 41.976562 30.824219 C 42.304688 30.824219 42.566406 30.5625 42.566406 30.238281 C 42.566406 29.910156 42.304688 29.648438 41.976562 29.648438 Z M 25.542969 30.824219 C 23.273438 30.824219 21.433594 32.664062 21.433594 34.933594 C 21.433594 37.203125 23.273438 39.039062 25.542969 39.039062 C 27.8125 39.039062 29.652344 37.203125 29.652344 34.933594 C 29.652344 32.664062 27.8125 30.824219 25.542969 30.824219 Z M 37.28125 31.996094 C 36.957031 31.996094 36.695312 32.257812 36.695312 32.582031 C 36.695312 32.90625 36.957031 33.171875 37.28125 33.171875 L 38.457031 33.171875 C 38.78125 33.171875 39.042969 32.90625 39.042969 32.582031 C 39.042969 32.257812 38.78125 31.996094 38.457031 31.996094 Z M 40.804688 31.996094 C 40.480469 31.996094 40.21875 32.257812 40.21875 32.582031 C 40.21875 32.90625 40.480469 33.171875 40.804688 33.171875 L 41.976562 33.171875 C 42.304688 33.171875 42.566406 32.90625 42.566406 32.582031 C 42.566406 32.257812 42.304688 31.996094 41.976562 31.996094 Z M 25.542969 33.167969 C 26.515625 33.167969 27.304688 33.957031 27.304688 34.929688 C 27.304688 35.902344 26.515625 36.691406 25.542969 36.691406 C 24.570312 36.691406 23.78125 35.902344 23.78125 34.929688 C 23.78125 33.957031 24.570312 33.167969 25.542969 33.167969 Z M 40.804688 34.339844 C 40.480469 34.339844 40.21875 34.601562 40.21875 34.925781 C 40.21875 35.253906 40.480469 35.515625 40.804688 35.515625 L 41.976562 35.515625 C 42.304688 35.515625 42.566406 35.253906 42.566406 34.925781 C 42.566406 34.601562 42.304688 34.339844 41.976562 34.339844 Z M 37.28125 34.34375 C 36.957031 34.34375 36.695312 34.601562 36.695312 34.925781 C 36.695312 35.253906 36.957031 35.515625 37.28125 35.515625 L 38.457031 35.515625 C 38.78125 35.515625 39.042969 35.253906 39.042969 34.925781 C 39.042969 34.601562 38.78125 34.34375 38.457031 34.34375 Z M 42.566406 37.863281 C 41.917969 37.863281 41.390625 38.390625 41.390625 39.039062 C 41.390625 39.6875 41.917969 40.210938 42.566406 40.210938 C 43.210938 40.210938 43.738281 39.6875 43.738281 39.039062 C 43.738281 38.390625 43.210938 37.863281 42.566406 37.863281 Z M 42.566406 37.863281 "/>
</svg>
