<?xml version="1.0" encoding="UTF-8"?>
<svg xmlns="http://www.w3.org/2000/svg" xmlns:xlink="http://www.w3.org/1999/xlink" width="64" height="64" viewBox="0 0 64 64">
<defs>
<filter id="filter-remove-color" x="0%" y="0%" width="100%" height="100%">
<feColorMatrix color-interpolation-filters="sRGB" values="0 0 0 0 1 0 0 0 0 1 0 0 0 0 1 0 0 0 1 0" />
</filter>
<mask id="mask-0">
<g filter="url(#filter-remove-color)">
<rect x="-6.4" y="-6.4" width="76.8" height="76.8" fill="rgb(0%, 0%, 0%)" fill-opacity="0.08"/>
</g>
</mask>
<clipPath id="clip-0">
<rect x="0" y="0" width="17" height="17"/>
</clipPath>
<g id="source-9918" clip-path="url(#clip-0)">
<path fill-rule="nonzero" fill="rgb(0%, 0%, 0%)" fill-opacity="1" d="M 8.464844 1.324219 C 6.375 1.324219 4.390625 2.238281 3.035156 3.828125 L 14.972656 11.40625 C 15.390625 10.480469 15.609375 9.480469 15.609375 8.464844 C 15.609375 4.519531 12.410156 1.324219 8.464844 1.324219 Z M 8.464844 1.324219 "/>
</g>
<mask id="mask-1">
<g filter="url(#filter-remove-color)">
<rect x="-6.4" y="-6.4" width="76.8" height="76.8" fill="rgb(0%, 0%, 0%)" fill-opacity="0.15"/>
</g>
</mask>
<clipPath id="clip-1">
<rect x="0" y="0" width="17" height="17"/>
</clipPath>
<g id="source-9922" clip-path="url(#clip-1)">
<path fill-rule="nonzero" fill="rgb(100%, 100%, 100%)" fill-opacity="1" d="M 14.96875 5.53125 L 3.039062 13.101562 C 4.394531 14.691406 6.378906 15.605469 8.464844 15.609375 C 12.410156 15.609375 15.609375 12.410156 15.609375 8.464844 C 15.605469 7.453125 15.390625 6.453125 14.96875 5.53125 Z M 14.96875 5.53125 "/>
</g>
</defs>
<path fill-rule="nonzero" fill="rgb(42.352941%, 80.784314%, 52.54902%)" fill-opacity="1" d="M 15.609375 8.464844 C 15.609375 12.410156 12.410156 15.609375 8.464844 15.609375 C 4.519531 15.609375 1.324219 12.410156 1.324219 8.464844 C 1.324219 4.519531 4.519531 1.324219 8.464844 1.324219 C 12.410156 1.324219 15.609375 4.519531 15.609375 8.464844 Z M 15.609375 8.464844 "/>
<g mask="url(#mask-0)">
<use xlink:href="#source-9918"/>
</g>
<g mask="url(#mask-1)">
<use xlink:href="#source-9922"/>
</g>
<path fill-rule="nonzero" fill="rgb(100%, 100%, 100%)" fill-opacity="1" d="M 12.171875 6.878906 L 10.582031 7.9375 C 10.53125 8.28125 10.464844 8.617188 10.582031 8.996094 L 12.171875 10.054688 Z M 12.171875 6.878906 "/>
<path fill-rule="nonzero" fill="rgb(100%, 100%, 100%)" fill-opacity="1" d="M 5.554688 6.351562 C 5.484375 6.351562 5.417969 6.378906 5.367188 6.425781 C 5.320312 6.476562 5.292969 6.542969 5.292969 6.613281 L 5.292969 10.320312 C 5.292969 10.464844 5.410156 10.582031 5.554688 10.582031 L 10.320312 10.582031 C 10.464844 10.582031 10.582031 10.464844 10.582031 10.320312 L 10.582031 6.613281 C 10.582031 6.542969 10.554688 6.476562 10.507812 6.425781 C 10.457031 6.378906 10.390625 6.351562 10.320312 6.351562 Z M 7.9375 7.144531 C 8.667969 7.144531 9.261719 7.734375 9.261719 8.46875 C 9.261719 9.199219 8.667969 9.789062 7.9375 9.789062 C 7.207031 9.789062 6.613281 9.199219 6.613281 8.46875 C 6.613281 7.738281 7.207031 7.144531 7.9375 7.144531 Z M 7.9375 7.144531 "/>
</svg>
