<?xml version="1.0" encoding="UTF-8"?>
<svg xmlns="http://www.w3.org/2000/svg" xmlns:xlink="http://www.w3.org/1999/xlink" width="64" height="64" viewBox="0 0 64 64">
<defs>
<filter id="filter-remove-color" x="0%" y="0%" width="100%" height="100%">
<feColorMatrix color-interpolation-filters="sRGB" values="0 0 0 0 1 0 0 0 0 1 0 0 0 0 1 0 0 0 1 0" />
</filter>
<mask id="mask-0">
<g filter="url(#filter-remove-color)">
<rect x="-6.4" y="-6.4" width="76.8" height="76.8" fill="rgb(0%, 0%, 0%)" fill-opacity="0.1"/>
</g>
</mask>
<linearGradient id="linear-pattern-0" gradientUnits="userSpaceOnUse" x1="32" y1="32" x2="58" y2="32" gradientTransform="matrix(-0.26458, 0, 0, 0.305563, 16.933121, -1.311311)">
<stop offset="0" stop-color="rgb(0%, 0%, 0%)" stop-opacity="1"/>
<stop offset="1" stop-color="rgb(0%, 0%, 0%)" stop-opacity="0"/>
</linearGradient>
<clipPath id="clip-0">
<rect x="0" y="0" width="17" height="17"/>
</clipPath>
<g id="source-13795" clip-path="url(#clip-0)">
<path fill-rule="evenodd" fill="url(#linear-pattern-0)" d="M 8.464844 1.324219 C 4.519531 1.324219 1.324219 4.519531 1.324219 8.464844 C 1.324219 12.410156 4.519531 15.609375 8.464844 15.609375 Z M 8.464844 1.324219 "/>
</g>
<mask id="mask-1">
<g filter="url(#filter-remove-color)">
<rect x="-6.4" y="-6.4" width="76.8" height="76.8" fill="rgb(0%, 0%, 0%)" fill-opacity="0.6"/>
</g>
</mask>
<clipPath id="clip-1">
<rect x="0" y="0" width="17" height="17"/>
</clipPath>
<g id="source-13799" clip-path="url(#clip-1)">
<path fill-rule="nonzero" fill="rgb(100%, 100%, 100%)" fill-opacity="1" d="M 5.820312 12.433594 L 5.820312 4.496094 C 5.820312 4.351562 5.9375 4.234375 6.085938 4.234375 C 6.230469 4.234375 6.351562 4.351562 6.351562 4.496094 L 6.351562 12.433594 C 6.351562 12.582031 6.230469 12.699219 6.085938 12.699219 C 5.9375 12.699219 5.820312 12.582031 5.820312 12.433594 Z M 5.820312 12.433594 "/>
</g>
<mask id="mask-2">
<g filter="url(#filter-remove-color)">
<rect x="-6.4" y="-6.4" width="76.8" height="76.8" fill="rgb(0%, 0%, 0%)" fill-opacity="0.6"/>
</g>
</mask>
<clipPath id="clip-2">
<rect x="0" y="0" width="17" height="17"/>
</clipPath>
<g id="source-13804" clip-path="url(#clip-2)">
<path fill-rule="nonzero" fill="rgb(100%, 100%, 100%)" fill-opacity="1" d="M 10.320312 12.433594 L 10.320312 4.496094 C 10.320312 4.351562 10.4375 4.234375 10.582031 4.234375 C 10.730469 4.234375 10.847656 4.351562 10.847656 4.496094 L 10.847656 12.433594 C 10.847656 12.582031 10.730469 12.699219 10.582031 12.699219 C 10.4375 12.699219 10.320312 12.582031 10.320312 12.433594 Z M 10.320312 12.433594 "/>
</g>
<mask id="mask-3">
<g filter="url(#filter-remove-color)">
<rect x="-6.4" y="-6.4" width="76.8" height="76.8" fill="rgb(0%, 0%, 0%)" fill-opacity="0.25"/>
</g>
</mask>
<clipPath id="clip-3">
<rect x="0" y="0" width="17" height="17"/>
</clipPath>
<g id="source-13808" clip-path="url(#clip-3)">
<path fill-rule="nonzero" fill="rgb(0%, 0%, 0%)" fill-opacity="1" d="M 10.585938 8.734375 C 11.460938 8.734375 12.171875 9.445312 12.171875 10.320312 C 12.171875 11.195312 11.460938 11.90625 10.585938 11.90625 C 9.707031 11.90625 8.996094 11.195312 8.996094 10.320312 C 8.996094 9.445312 9.707031 8.734375 10.585938 8.734375 Z M 10.585938 8.734375 "/>
</g>
</defs>
<path fill-rule="nonzero" fill="rgb(81.568627%, 33.333333%, 33.333333%)" fill-opacity="1" d="M 15.609375 8.464844 C 15.609375 12.410156 12.410156 15.609375 8.464844 15.609375 C 4.519531 15.609375 1.324219 12.410156 1.324219 8.464844 C 1.324219 4.519531 4.519531 1.324219 8.464844 1.324219 C 12.410156 1.324219 15.609375 4.519531 15.609375 8.464844 Z M 15.609375 8.464844 "/>
<g mask="url(#mask-0)">
<use xlink:href="#source-13795"/>
</g>
<g mask="url(#mask-1)">
<use xlink:href="#source-13799"/>
</g>
<path fill-rule="nonzero" fill="rgb(100%, 100%, 100%)" fill-opacity="1" d="M 6.085938 5.820312 C 6.671875 5.820312 7.144531 6.296875 7.144531 6.878906 C 7.144531 7.464844 6.671875 7.9375 6.085938 7.9375 C 5.5 7.9375 5.027344 7.464844 5.027344 6.878906 C 5.027344 6.296875 5.5 5.820312 6.085938 5.820312 Z M 6.085938 5.820312 "/>
<g mask="url(#mask-2)">
<use xlink:href="#source-13804"/>
</g>
<g mask="url(#mask-3)">
<use xlink:href="#source-13808"/>
</g>
<path fill-rule="nonzero" fill="rgb(100%, 100%, 100%)" fill-opacity="1" d="M 10.585938 9.261719 C 11.167969 9.261719 11.640625 9.734375 11.640625 10.320312 C 11.640625 10.90625 11.167969 11.378906 10.585938 11.378906 C 10 11.378906 9.527344 10.90625 9.527344 10.320312 C 9.527344 9.734375 10 9.261719 10.585938 9.261719 Z M 10.585938 9.261719 "/>
</svg>
