<?xml version="1.0" encoding="UTF-8"?>
<svg xmlns="http://www.w3.org/2000/svg" xmlns:xlink="http://www.w3.org/1999/xlink" width="64" height="64" viewBox="0 0 64 64">
<defs>
<filter id="filter-remove-color" x="0%" y="0%" width="100%" height="100%">
<feColorMatrix color-interpolation-filters="sRGB" values="0 0 0 0 1 0 0 0 0 1 0 0 0 0 1 0 0 0 1 0" />
</filter>
<mask id="mask-0">
<g filter="url(#filter-remove-color)">
<rect x="-6.4" y="-6.4" width="76.8" height="76.8" fill="rgb(0%, 0%, 0%)" fill-opacity="0.35"/>
</g>
</mask>
<clipPath id="clip-0">
<rect x="0" y="0" width="64" height="64"/>
</clipPath>
<g id="source-8939" clip-path="url(#clip-0)">
<path fill-rule="nonzero" fill="rgb(0%, 0%, 0%)" fill-opacity="1" d="M 53 32 L 53 31.929688 L 46.3125 31.929688 L 46.3125 32 C 46.3125 35.949219 44.914062 39.324219 42.117188 42.117188 L 42.117188 42.121094 C 39.320312 44.914062 35.949219 46.3125 32 46.3125 C 28.046875 46.3125 24.671875 44.914062 21.878906 42.121094 C 19.085938 39.324219 17.6875 35.949219 17.6875 32 L 17.6875 31.929688 L 11 31.929688 L 11 32 C 11 37.796875 13.050781 42.746094 17.148438 46.847656 L 17.152344 46.847656 C 21.25 50.949219 26.199219 53 32 53 C 37.796875 53 42.746094 50.949219 46.847656 46.847656 L 46.84375 46.847656 L 46.847656 46.847656 C 50.949219 42.746094 53 37.796875 53 32 Z M 53 32 "/>
</g>
<linearGradient id="linear-pattern-0" gradientUnits="userSpaceOnUse" x1="7.9004" y1="19.867001" x2="56.169998" y2="19.867001" gradientTransform="matrix(0.8701, 0, 0, 0.8701, 4.1258, 4.179)">
<stop offset="0" stop-color="rgb(100%, 100%, 100%)" stop-opacity="0.45395"/>
<stop offset="1" stop-color="rgb(100%, 100%, 100%)" stop-opacity="0.27632"/>
</linearGradient>
</defs>
<path fill-rule="nonzero" fill="rgb(93.72549%, 55.294118%, 18.431373%)" fill-opacity="1" d="M 32 5 C 46.910156 5 59 17.089844 59 32 C 59 46.910156 46.910156 59 32 59 C 17.089844 59 5 46.910156 5 32 C 5 17.089844 17.089844 5 32 5 Z M 32 5 "/>
<g mask="url(#mask-0)">
<use xlink:href="#source-8939"/>
</g>
<path fill-rule="nonzero" fill="url(#linear-pattern-0)" d="M 31.945312 11 C 26.167969 11.015625 21.238281 13.0625 17.148438 17.148438 L 17.148438 17.152344 C 17.128906 17.167969 17.113281 17.1875 17.097656 17.207031 C 13.046875 21.28125 11.015625 26.1875 11 31.929688 L 17.6875 31.929688 C 17.703125 28.035156 19.082031 24.703125 21.824219 21.933594 L 21.878906 21.878906 C 24.660156 19.097656 28.015625 17.703125 31.941406 17.6875 L 31.941406 11 Z M 31.945312 11 L 31.945312 17.6875 L 32 17.6875 C 35.898438 17.6875 39.234375 19.050781 42.007812 21.769531 L 42.117188 21.875 L 42.117188 21.878906 C 44.898438 24.660156 46.296875 28.011719 46.3125 31.929688 L 53 31.929688 C 52.984375 26.160156 50.933594 21.234375 46.847656 17.148438 L 46.84375 17.148438 L 46.738281 17.042969 C 42.660156 13.015625 37.746094 11 32 11 Z M 31.945312 11 "/>
<path fill-rule="nonzero" fill="rgb(90.196078%, 90.196078%, 90.196078%)" fill-opacity="1" d="M 40.40625 7.390625 L 28.738281 32.652344 L 31.417969 35.863281 L 35.679688 35.171875 Z M 40.40625 7.390625 "/>
<path fill-rule="nonzero" fill="rgb(100%, 100%, 100%)" fill-opacity="1" d="M 31.925781 26.90625 C 31.074219 26.90625 30.285156 27.0625 29.558594 27.367188 C 28.855469 27.664062 28.210938 28.105469 27.625 28.6875 C 26.800781 29.515625 26.261719 30.457031 26.011719 31.519531 C 25.898438 31.988281 25.84375 32.480469 25.84375 32.988281 C 25.84375 33.789062 25.980469 34.535156 26.25 35.222656 C 26.546875 35.980469 27.007812 36.667969 27.625 37.289062 C 28.8125 38.476562 30.246094 39.070312 31.925781 39.070312 C 33.605469 39.070312 35.039062 38.476562 36.226562 37.289062 C 37.414062 36.101562 38.007812 34.671875 38.007812 32.988281 C 38.007812 31.359375 37.449219 29.960938 36.328125 28.789062 L 36.226562 28.6875 C 35.796875 28.261719 35.332031 27.910156 34.839844 27.632812 C 34.703125 27.558594 34.5625 27.488281 34.425781 27.425781 C 33.664062 27.078125 32.832031 26.90625 31.933594 26.90625 Z M 31.925781 26.90625 "/>
</svg>
