<?xml version="1.0" encoding="UTF-8"?>
<svg xmlns="http://www.w3.org/2000/svg" xmlns:xlink="http://www.w3.org/1999/xlink" width="64" height="64" viewBox="0 0 64 64">
<defs>
<filter id="filter-remove-color" x="0%" y="0%" width="100%" height="100%">
<feColorMatrix color-interpolation-filters="sRGB" values="0 0 0 0 1 0 0 0 0 1 0 0 0 0 1 0 0 0 1 0" />
</filter>
<mask id="mask-0">
<g filter="url(#filter-remove-color)">
<rect x="-6.4" y="-6.4" width="76.8" height="76.8" fill="rgb(0%, 0%, 0%)" fill-opacity="0.18"/>
</g>
</mask>
<clipPath id="clip-0">
<rect x="0" y="0" width="17" height="17"/>
</clipPath>
<g id="source-2029" clip-path="url(#clip-0)">
<path fill-rule="nonzero" fill="rgb(0%, 0%, 0%)" fill-opacity="1" d="M 8.46875 2.644531 C 7.113281 2.644531 5.804688 3.117188 4.761719 3.980469 L 4.761719 4.6875 C 3.746094 5.679688 3.175781 7.042969 3.175781 8.464844 C 3.175781 9.882812 3.75 11.242188 4.761719 12.234375 L 4.761719 12.949219 C 5.804688 13.8125 7.113281 14.285156 8.46875 14.285156 C 11.679688 14.285156 14.285156 11.679688 14.285156 8.464844 C 14.289062 5.25 11.683594 2.644531 8.46875 2.644531 Z M 8.46875 2.644531 "/>
</g>
<mask id="mask-1">
<g filter="url(#filter-remove-color)">
<rect x="-6.4" y="-6.4" width="76.8" height="76.8" fill="rgb(0%, 0%, 0%)" fill-opacity="0.35"/>
</g>
</mask>
<clipPath id="clip-1">
<rect x="0" y="0" width="17" height="17"/>
</clipPath>
<g id="source-2033" clip-path="url(#clip-1)">
<path fill-rule="nonzero" fill="rgb(100%, 100%, 100%)" fill-opacity="1" d="M 6.085938 7.140625 L 10.847656 7.140625 C 11.578125 7.140625 12.171875 7.730469 12.171875 8.464844 C 12.171875 9.195312 11.578125 9.785156 10.847656 9.785156 L 6.085938 9.785156 C 5.355469 9.785156 4.761719 9.195312 4.761719 8.464844 C 4.761719 7.730469 5.355469 7.140625 6.085938 7.140625 Z M 6.085938 7.140625 "/>
</g>
</defs>
<path fill-rule="nonzero" fill="rgb(56.470588%, 89.019608%, 38.039216%)" fill-opacity="1" d="M 15.609375 8.460938 C 15.609375 12.40625 12.410156 15.605469 8.464844 15.605469 C 4.519531 15.605469 1.324219 12.40625 1.324219 8.460938 C 1.324219 4.515625 4.519531 1.316406 8.464844 1.316406 C 12.410156 1.316406 15.609375 4.515625 15.609375 8.460938 Z M 15.609375 8.460938 "/>
<g mask="url(#mask-0)">
<use xlink:href="#source-2029"/>
</g>
<g mask="url(#mask-1)">
<use xlink:href="#source-2033"/>
</g>
<path fill-rule="nonzero" fill="rgb(100%, 100%, 100%)" fill-opacity="1" d="M 12.699219 8.460938 C 12.699219 9.628906 11.753906 10.578125 10.582031 10.578125 C 9.414062 10.578125 8.464844 9.628906 8.464844 8.460938 C 8.464844 7.289062 9.414062 6.34375 10.582031 6.34375 C 11.753906 6.34375 12.699219 7.289062 12.699219 8.460938 Z M 12.699219 8.460938 "/>
</svg>
