<?xml version="1.0" encoding="UTF-8"?>
<svg xmlns="http://www.w3.org/2000/svg" xmlns:xlink="http://www.w3.org/1999/xlink" width="64" height="64" viewBox="0 0 64 64">
<path fill-rule="nonzero" fill="rgb(33.72549%, 61.176471%, 23.137255%)" fill-opacity="1" d="M 15.609375 8.46875 C 15.609375 12.414062 12.414062 15.613281 8.464844 15.613281 C 4.519531 15.613281 1.324219 12.414062 1.324219 8.46875 C 1.324219 4.523438 4.519531 1.328125 8.464844 1.328125 C 12.414062 1.328125 15.609375 4.523438 15.609375 8.46875 Z M 15.609375 8.46875 "/>
<path fill-rule="nonzero" fill="rgb(100%, 100%, 100%)" fill-opacity="1" d="M 11.164062 4.230469 C 9.492188 4.230469 9.179688 6.769531 10.117188 6.769531 C 11.058594 6.769531 12.835938 4.230469 11.164062 4.230469 Z M 8.511719 4.519531 C 7.554688 4.652344 7.890625 6.453125 8.398438 6.488281 C 8.90625 6.519531 9.46875 4.382812 8.511719 4.519531 Z M 6.78125 5.078125 C 6.726562 5.085938 6.671875 5.097656 6.621094 5.117188 C 5.726562 5.457031 6.488281 6.859375 6.988281 6.765625 C 7.460938 6.675781 7.511719 5.007812 6.78125 5.078125 Z M 5.605469 6.207031 C 5.511719 6.207031 5.421875 6.230469 5.34375 6.28125 C 4.609375 6.714844 5.59375 7.761719 6.023438 7.601562 C 6.40625 7.457031 6.164062 6.222656 5.605469 6.203125 Z M 9.035156 7.054688 C 7.71875 7.027344 5.980469 7.722656 5.683594 9.109375 C 5.363281 10.613281 7.007812 12.695312 8.71875 12.695312 C 9.5625 12.695312 10.535156 11.898438 10.71875 10.890625 C 10.855469 10.121094 8.96875 10.429688 9.03125 10.9375 C 9.085938 11.355469 8.867188 11.570312 8.566406 11.578125 C 8.15625 11.527344 7.957031 11.292969 7.902344 10.933594 C 7.828125 9.996094 10.785156 9.324219 10.550781 7.871094 C 10.464844 7.339844 9.828125 7.066406 9.035156 7.054688 Z M 9.035156 7.054688 "/>
</svg>
