<?xml version="1.0" encoding="UTF-8"?>
<svg xmlns="http://www.w3.org/2000/svg" xmlns:xlink="http://www.w3.org/1999/xlink" width="64" height="64" viewBox="0 0 64 64">
<path fill-rule="nonzero" fill="rgb(21.568627%, 27.843137%, 30.980392%)" fill-opacity="1" d="M 59 32 C 59 46.910156 46.910156 59 32 59 C 17.089844 59 5 46.910156 5 32 C 5 17.089844 17.089844 5 32 5 C 46.910156 5 59 17.089844 59 32 Z M 59 32 "/>
<path fill-rule="nonzero" fill="rgb(63.921569%, 25.490196%, 70.588235%)" fill-opacity="1" d="M 32 8 C 18.746094 8 8 18.746094 8 32 C 8.011719 39.429688 11.464844 46.433594 17.347656 50.972656 L 46.679688 50.972656 C 52.554688 46.429688 55.996094 39.425781 56 32 C 56 18.746094 45.253906 8 32 8 Z M 32 8 "/>
<path fill-rule="evenodd" fill="rgb(95.686275%, 25.490196%, 41.960784%)" fill-opacity="1" d="M 32 8.003906 C 18.746094 8.003906 8 18.75 8 32.003906 C 8.011719 36.238281 9.140625 40.398438 11.277344 44.054688 L 33.523438 8.078125 C 33.019531 8.039062 32.507812 8.011719 32 8.003906 Z M 32 8.003906 "/>
<path fill-rule="evenodd" fill="rgb(54.117647%, 36.078431%, 84.705882%)" fill-opacity="1" d="M 53.164062 20.730469 L 13.203125 46.929688 C 15.257812 49.511719 17.824219 51.640625 20.738281 53.183594 L 36.152344 55.640625 C 47.628906 53.621094 56 43.65625 56 32.003906 C 55.992188 28.070312 55.019531 24.199219 53.167969 20.730469 Z M 53.164062 20.730469 "/>
<path fill-rule="evenodd" fill="rgb(27.45098%, 66.27451%, 83.921569%)" fill-opacity="1" d="M 53.976562 41.617188 L 15.425781 49.320312 C 19.882812 53.601562 25.820312 55.992188 32 56.003906 C 41.53125 55.996094 50.160156 50.351562 53.976562 41.617188 Z M 53.976562 41.617188 "/>
</svg>
