<?xml version="1.0" encoding="UTF-8"?>
<svg xmlns="http://www.w3.org/2000/svg" xmlns:xlink="http://www.w3.org/1999/xlink" width="64" height="64" viewBox="0 0 64 64">
<path fill-rule="nonzero" fill="rgb(30.196078%, 30.196078%, 30.196078%)" fill-opacity="1" d="M 32 5 C 46.910156 5 59 17.089844 59 32 C 59 46.910156 46.910156 59 32 59 C 17.089844 59 5 46.910156 5 32 C 5 17.089844 17.089844 5 32 5 Z M 32 5 "/>
<path fill-rule="nonzero" fill="rgb(94.509804%, 38.039216%, 29.411765%)" fill-opacity="1" d="M 35.367188 12.347656 C 33.804688 12.328125 32.101562 12.394531 30.414062 12.527344 C 27.035156 12.792969 23.730469 13.339844 21.753906 14.035156 C 17.789062 15.414062 17.152344 15.5 17.464844 16.867188 C 18.832031 18.90625 19.535156 21.199219 20.800781 23.308594 C 21.171875 23.578125 21.609375 23.722656 22.246094 23.453125 C 27.503906 21.410156 32.941406 20.414062 40.53125 22.15625 C 42.640625 20.804688 43.484375 17.332031 44.078125 15.132812 C 44.410156 13.890625 43.96875 13.492188 39.472656 12.671875 C 38.351562 12.46875 36.929688 12.367188 35.367188 12.347656 Z M 38.984375 15.667969 L 38.988281 15.667969 C 39.402344 15.632812 39.765625 15.933594 39.792969 16.335938 C 39.824219 16.738281 39.523438 17.089844 39.105469 17.125 C 38.695312 17.15625 38.328125 16.851562 38.296875 16.449219 C 38.265625 16.046875 38.578125 15.695312 38.984375 15.664062 Z M 22.492188 16.910156 C 22.90625 16.875 23.265625 17.175781 23.300781 17.578125 C 23.332031 17.984375 23.023438 18.332031 22.609375 18.367188 C 22.203125 18.398438 21.835938 18.097656 21.804688 17.695312 C 21.769531 17.292969 22.082031 16.941406 22.492188 16.910156 "/>
<path fill-rule="nonzero" fill="rgb(32.156863%, 78.431373%, 100%)" fill-opacity="1" d="M 32 16 C 23.164062 16 16 23.164062 16 32 C 16 40.835938 23.164062 48 32 48 C 40.835938 48 48 40.835938 48 32 C 48 23.164062 40.835938 16 32 16 Z M 32 26.667969 C 34.945312 26.667969 37.332031 29.054688 37.332031 32 C 37.332031 34.945312 34.945312 37.332031 32 37.332031 C 29.054688 37.332031 26.667969 34.945312 26.667969 32 C 26.667969 29.054688 29.054688 26.667969 32 26.667969 Z M 32 28 C 29.789062 28 28 29.792969 28 32 C 28 34.210938 29.789062 36 32 36 C 34.210938 36 36 34.210938 36 32 C 36 29.792969 34.210938 28 32 28 Z M 32 29.332031 C 33.472656 29.332031 34.667969 30.527344 34.667969 32 C 34.667969 33.472656 33.472656 34.667969 32 34.667969 C 30.527344 34.667969 29.332031 33.472656 29.332031 32 C 29.332031 30.527344 30.527344 29.332031 32 29.332031 Z M 32 29.332031 "/>
</svg>
