<?xml version="1.0" encoding="UTF-8"?>
<svg xmlns="http://www.w3.org/2000/svg" xmlns:xlink="http://www.w3.org/1999/xlink" width="64" height="64" viewBox="0 0 64 64">
<defs>
<linearGradient id="linear-pattern-0" gradientUnits="userSpaceOnUse" x1="1" y1="0" x2="47" y2="0" gradientTransform="matrix(0, -0.31062, 0.31062, 0, 1.0114, 15.916)">
<stop offset="0" stop-color="rgb(0.392157%, 31.372549%, 57.647059%)" stop-opacity="1"/>
<stop offset="1" stop-color="rgb(0.392157%, 36.078431%, 65.490196%)" stop-opacity="1"/>
</linearGradient>
</defs>
<path fill-rule="nonzero" fill="url(#linear-pattern-0)" d="M 8.46875 1.316406 C 12.414062 1.316406 15.609375 4.511719 15.609375 8.457031 C 15.609375 12.402344 12.414062 15.601562 8.46875 15.601562 C 4.519531 15.601562 1.324219 12.402344 1.324219 8.457031 C 1.324219 4.511719 4.519531 1.316406 8.46875 1.316406 Z M 8.46875 1.316406 "/>
<path fill-rule="nonzero" fill="rgb(100%, 100%, 100%)" fill-opacity="1" d="M 8.25 1.316406 C 7.777344 1.332031 7.308594 1.394531 6.847656 1.5 L 3.496094 11.261719 L 4.824219 11.261719 L 6.515625 6.292969 L 7.4375 6.292969 L 5.765625 11.261719 L 7.101562 11.261719 L 8.679688 6.636719 C 8.910156 5.96875 8.546875 5.359375 7.875 5.359375 L 6.839844 5.359375 Z M 12.5625 5.359375 L 10.109375 5.359375 L 6.671875 15.371094 C 7.085938 15.480469 7.515625 15.550781 7.945312 15.582031 L 9.4375 11.261719 L 11.199219 11.261719 C 11.511719 11.261719 11.855469 11.007812 11.960938 10.699219 L 13.367188 6.632812 C 13.597656 5.964844 13.234375 5.359375 12.5625 5.359375 Z M 11.109375 6.289062 L 12.113281 6.289062 L 10.722656 10.328125 L 9.722656 10.328125 Z M 11.109375 6.289062 "/>
</svg>
