<?xml version="1.0" encoding="UTF-8"?>
<svg xmlns="http://www.w3.org/2000/svg" xmlns:xlink="http://www.w3.org/1999/xlink" width="64" height="64" viewBox="0 0 64 64">
<defs>
<filter id="filter-remove-color" x="0%" y="0%" width="100%" height="100%">
<feColorMatrix color-interpolation-filters="sRGB" values="0 0 0 0 1 0 0 0 0 1 0 0 0 0 1 0 0 0 1 0" />
</filter>
<mask id="mask-0">
<g filter="url(#filter-remove-color)">
<rect x="-6.4" y="-6.4" width="76.8" height="76.8" fill="rgb(0%, 0%, 0%)" fill-opacity="0.1"/>
</g>
</mask>
<clipPath id="clip-0">
<rect x="0" y="0" width="17" height="17"/>
</clipPath>
<g id="source-13135" clip-path="url(#clip-0)">
<path fill-rule="nonzero" fill="rgb(0%, 0%, 0%)" fill-opacity="1" d="M 8.46875 2.644531 L 8.46875 2.910156 L 7.671875 2.910156 L 7.671875 2.707031 C 7.585938 2.71875 7.496094 2.730469 7.410156 2.746094 L 7.410156 2.910156 L 6.75 2.910156 C 6.515625 2.984375 6.28125 3.070312 6.058594 3.175781 L 6.351562 3.175781 L 6.351562 3.96875 L 5.558594 3.96875 L 5.558594 3.433594 C 5.46875 3.484375 5.378906 3.535156 5.292969 3.589844 L 5.292969 3.96875 L 4.777344 3.96875 C 4.585938 4.128906 4.402344 4.296875 4.234375 4.480469 L 4.234375 5.027344 L 3.777344 5.027344 C 3.714844 5.113281 3.652344 5.203125 3.59375 5.292969 L 4.234375 5.292969 L 4.234375 6.085938 L 3.441406 6.085938 L 3.441406 5.542969 C 3.34375 5.707031 3.253906 5.878906 3.175781 6.054688 L 3.175781 6.085938 L 3.160156 6.085938 C 3.121094 6.171875 3.085938 6.261719 3.050781 6.351562 L 3.175781 6.351562 L 3.175781 7.144531 L 2.804688 7.144531 C 2.785156 7.230469 2.765625 7.320312 2.746094 7.410156 L 3.175781 7.410156 L 3.175781 8.203125 L 2.660156 8.203125 C 2.652344 8.289062 2.648438 8.378906 2.644531 8.464844 C 2.648438 8.464844 2.648438 8.46875 2.652344 8.46875 L 3.175781 8.46875 L 3.175781 9.261719 L 2.707031 9.261719 C 2.71875 9.347656 2.730469 9.4375 2.746094 9.523438 L 3.175781 9.523438 L 3.175781 10.316406 L 2.957031 10.316406 C 2.984375 10.40625 3.011719 10.496094 3.046875 10.582031 L 3.175781 10.582031 L 3.175781 10.875 C 3.292969 11.140625 3.433594 11.398438 3.589844 11.640625 L 4.234375 11.640625 L 4.234375 12.433594 L 4.214844 12.433594 C 4.304688 12.53125 4.402344 12.625 4.496094 12.714844 L 4.496094 12.699219 L 5.292969 12.699219 L 5.292969 13.339844 C 5.535156 13.496094 5.792969 13.636719 6.054688 13.757812 L 6.351562 13.757812 L 6.351562 13.882812 C 6.4375 13.917969 6.527344 13.949219 6.613281 13.980469 L 6.613281 13.757812 L 7.410156 13.757812 L 7.410156 14.1875 C 7.496094 14.203125 7.585938 14.214844 7.671875 14.226562 L 7.671875 13.757812 L 8.46875 13.757812 L 8.46875 14.289062 C 8.554688 14.285156 8.644531 14.28125 8.730469 14.277344 L 8.730469 13.757812 L 9.523438 13.757812 L 9.523438 14.1875 C 9.613281 14.167969 9.703125 14.148438 9.789062 14.128906 L 9.789062 13.757812 L 10.582031 13.757812 L 10.582031 13.886719 C 10.671875 13.851562 10.761719 13.8125 10.847656 13.769531 L 10.847656 13.757812 L 10.875 13.757812 C 11.050781 13.679688 11.222656 13.589844 11.386719 13.492188 L 10.847656 13.492188 L 10.847656 12.699219 L 11.640625 12.699219 L 11.640625 13.34375 C 11.730469 13.28125 11.820312 13.21875 11.90625 13.152344 L 11.90625 12.699219 L 12.457031 12.699219 C 12.636719 12.53125 12.808594 12.347656 12.964844 12.15625 L 12.964844 11.640625 L 13.339844 11.640625 C 13.394531 11.554688 13.449219 11.464844 13.503906 11.378906 L 12.964844 11.378906 L 12.964844 10.582031 L 13.757812 10.582031 L 13.757812 10.878906 C 13.859375 10.65625 13.949219 10.429688 14.023438 10.199219 L 14.023438 9.523438 L 14.1875 9.523438 C 14.203125 9.4375 14.214844 9.347656 14.226562 9.261719 L 14.023438 9.261719 L 14.023438 8.46875 L 14.289062 8.46875 C 14.289062 8.464844 14.289062 8.464844 14.289062 8.464844 C 14.289062 8.378906 14.285156 8.289062 14.277344 8.203125 L 14.023438 8.203125 L 14.023438 7.410156 L 14.1875 7.410156 C 14.171875 7.320312 14.152344 7.230469 14.128906 7.144531 L 14.023438 7.144531 L 14.023438 6.75 C 13.949219 6.515625 13.863281 6.28125 13.757812 6.054688 L 13.757812 6.085938 L 12.964844 6.085938 L 12.964844 5.292969 L 13.34375 5.292969 C 13.285156 5.203125 13.222656 5.113281 13.15625 5.027344 L 12.964844 5.027344 L 12.964844 4.777344 C 12.878906 4.671875 12.792969 4.574219 12.699219 4.476562 L 12.699219 5.027344 L 11.90625 5.027344 L 11.90625 4.234375 L 12.453125 4.234375 C 12.359375 4.140625 12.257812 4.054688 12.15625 3.96875 L 11.90625 3.96875 L 11.90625 3.777344 C 11.820312 3.714844 11.730469 3.652344 11.640625 3.59375 L 11.640625 3.96875 L 10.847656 3.96875 L 10.847656 3.175781 L 10.878906 3.175781 C 10.660156 3.074219 10.433594 2.984375 10.199219 2.910156 L 9.789062 2.910156 L 9.789062 2.804688 C 9.703125 2.78125 9.613281 2.761719 9.523438 2.746094 L 9.523438 2.910156 L 8.730469 2.910156 L 8.730469 2.660156 C 8.644531 2.652344 8.554688 2.648438 8.46875 2.644531 Z M 6.613281 3.175781 L 7.410156 3.175781 L 7.410156 3.96875 L 6.613281 3.96875 Z M 7.671875 3.175781 L 8.46875 3.175781 L 8.46875 3.96875 L 7.671875 3.96875 Z M 8.730469 3.175781 L 9.523438 3.175781 L 9.523438 3.96875 L 8.730469 3.96875 Z M 9.789062 3.175781 L 10.582031 3.175781 L 10.582031 3.96875 L 9.789062 3.96875 Z M 4.496094 4.234375 L 5.292969 4.234375 L 5.292969 5.027344 L 4.496094 5.027344 Z M 5.558594 4.234375 L 6.351562 4.234375 L 6.351562 5.027344 L 5.558594 5.027344 Z M 6.613281 4.234375 L 7.40625 4.234375 L 7.40625 5.027344 L 6.613281 5.027344 Z M 7.671875 4.234375 L 8.46875 4.234375 L 8.46875 5.027344 L 7.671875 5.027344 Z M 8.730469 4.234375 L 9.523438 4.234375 L 9.523438 5.027344 L 8.730469 5.027344 Z M 9.789062 4.234375 L 10.582031 4.234375 L 10.582031 5.027344 L 9.789062 5.027344 Z M 10.847656 4.234375 L 11.640625 4.234375 L 11.640625 5.027344 L 10.847656 5.027344 Z M 4.496094 5.292969 L 5.292969 5.292969 L 5.292969 6.085938 L 4.496094 6.085938 Z M 5.558594 5.292969 L 6.351562 5.292969 L 6.351562 6.085938 L 5.558594 6.085938 Z M 6.613281 5.292969 L 7.40625 5.292969 L 7.40625 6.085938 L 6.613281 6.085938 Z M 7.671875 5.292969 L 8.46875 5.292969 L 8.46875 6.085938 L 7.671875 6.085938 Z M 8.730469 5.292969 L 9.523438 5.292969 L 9.523438 6.085938 L 8.730469 6.085938 Z M 9.789062 5.292969 L 10.582031 5.292969 L 10.582031 6.085938 L 9.789062 6.085938 Z M 10.847656 5.292969 L 11.640625 5.292969 L 11.640625 6.085938 L 10.847656 6.085938 Z M 11.90625 5.292969 L 12.699219 5.292969 L 12.699219 6.085938 L 11.90625 6.085938 Z M 3.441406 6.351562 L 4.234375 6.351562 L 4.234375 7.144531 L 3.441406 7.144531 Z M 4.496094 6.351562 L 5.292969 6.351562 L 5.292969 7.144531 L 4.496094 7.144531 Z M 5.558594 6.351562 L 6.351562 6.351562 L 6.351562 7.144531 L 5.558594 7.144531 Z M 6.613281 6.351562 L 7.40625 6.351562 L 7.40625 7.144531 L 6.613281 7.144531 Z M 7.671875 6.351562 L 8.46875 6.351562 L 8.46875 7.144531 L 7.671875 7.144531 Z M 8.730469 6.351562 L 9.523438 6.351562 L 9.523438 7.144531 L 8.730469 7.144531 Z M 9.789062 6.351562 L 10.582031 6.351562 L 10.582031 7.144531 L 9.789062 7.144531 Z M 10.847656 6.351562 L 11.640625 6.351562 L 11.640625 7.144531 L 10.847656 7.144531 Z M 11.90625 6.351562 L 12.699219 6.351562 L 12.699219 7.144531 L 11.90625 7.144531 Z M 12.964844 6.351562 L 13.757812 6.351562 L 13.757812 7.144531 L 12.964844 7.144531 Z M 3.441406 7.410156 L 4.234375 7.410156 L 4.234375 8.203125 L 3.441406 8.203125 Z M 4.496094 7.410156 L 5.292969 7.410156 L 5.292969 8.203125 L 4.496094 8.203125 Z M 5.558594 7.410156 L 6.351562 7.410156 L 6.351562 8.203125 L 5.558594 8.203125 Z M 6.613281 7.410156 L 7.40625 7.410156 L 7.40625 8.203125 L 6.613281 8.203125 Z M 7.671875 7.410156 L 8.46875 7.410156 L 8.46875 8.203125 L 7.671875 8.203125 Z M 8.730469 7.410156 L 9.523438 7.410156 L 9.523438 8.203125 L 8.730469 8.203125 Z M 9.789062 7.410156 L 10.582031 7.410156 L 10.582031 8.203125 L 9.789062 8.203125 Z M 10.847656 7.410156 L 11.640625 7.410156 L 11.640625 8.203125 L 10.847656 8.203125 Z M 11.90625 7.410156 L 12.699219 7.410156 L 12.699219 8.203125 L 11.90625 8.203125 Z M 12.964844 7.410156 L 13.757812 7.410156 L 13.757812 8.203125 L 12.964844 8.203125 Z M 3.441406 8.46875 L 4.234375 8.46875 L 4.234375 9.261719 L 3.441406 9.261719 Z M 4.496094 8.46875 L 5.292969 8.46875 L 5.292969 9.261719 L 4.496094 9.261719 Z M 5.558594 8.46875 L 6.351562 8.46875 L 6.351562 9.261719 L 5.558594 9.261719 Z M 6.613281 8.46875 L 7.40625 8.46875 L 7.40625 9.261719 L 6.613281 9.261719 Z M 7.671875 8.46875 L 8.46875 8.46875 L 8.46875 9.261719 L 7.671875 9.261719 Z M 8.730469 8.46875 L 9.523438 8.46875 L 9.523438 9.261719 L 8.730469 9.261719 Z M 9.789062 8.46875 L 10.582031 8.46875 L 10.582031 9.261719 L 9.789062 9.261719 Z M 10.847656 8.46875 L 11.640625 8.46875 L 11.640625 9.261719 L 10.847656 9.261719 Z M 11.90625 8.46875 L 12.699219 8.46875 L 12.699219 9.261719 L 11.90625 9.261719 Z M 12.964844 8.46875 L 13.757812 8.46875 L 13.757812 9.261719 L 12.964844 9.261719 Z M 3.441406 9.523438 L 4.234375 9.523438 L 4.234375 10.316406 L 3.441406 10.316406 Z M 4.496094 9.523438 L 5.292969 9.523438 L 5.292969 10.316406 L 4.496094 10.316406 Z M 5.558594 9.523438 L 6.351562 9.523438 L 6.351562 10.316406 L 5.558594 10.316406 Z M 6.613281 9.523438 L 7.40625 9.523438 L 7.40625 10.316406 L 6.613281 10.316406 Z M 7.671875 9.523438 L 8.464844 9.523438 L 8.464844 10.316406 L 7.671875 10.316406 Z M 8.730469 9.523438 L 9.523438 9.523438 L 9.523438 10.316406 L 8.730469 10.316406 Z M 9.789062 9.523438 L 10.582031 9.523438 L 10.582031 10.316406 L 9.789062 10.316406 Z M 10.847656 9.523438 L 11.640625 9.523438 L 11.640625 10.316406 L 10.847656 10.316406 Z M 11.90625 9.523438 L 12.699219 9.523438 L 12.699219 10.316406 L 11.90625 10.316406 Z M 12.964844 9.523438 L 13.757812 9.523438 L 13.757812 10.316406 L 12.964844 10.316406 Z M 3.441406 10.582031 L 4.234375 10.582031 L 4.234375 11.375 L 3.441406 11.375 Z M 4.496094 10.582031 L 5.292969 10.582031 L 5.292969 11.375 L 4.496094 11.375 Z M 5.558594 10.582031 L 6.347656 10.582031 L 6.347656 11.375 L 5.558594 11.375 Z M 6.613281 10.582031 L 7.40625 10.582031 L 7.40625 11.375 L 6.613281 11.375 Z M 7.671875 10.582031 L 8.464844 10.582031 L 8.464844 11.375 L 7.671875 11.375 Z M 8.730469 10.582031 L 9.523438 10.582031 L 9.523438 11.375 L 8.730469 11.375 Z M 9.789062 10.582031 L 10.582031 10.582031 L 10.582031 11.375 L 9.789062 11.375 Z M 10.847656 10.582031 L 11.640625 10.582031 L 11.640625 11.375 L 10.847656 11.375 Z M 11.90625 10.582031 L 12.699219 10.582031 L 12.699219 11.375 L 11.90625 11.375 Z M 4.496094 11.640625 L 5.292969 11.640625 L 5.292969 12.433594 L 4.496094 12.433594 Z M 5.558594 11.640625 L 6.347656 11.640625 L 6.347656 12.433594 L 5.558594 12.433594 Z M 6.613281 11.640625 L 7.40625 11.640625 L 7.40625 12.433594 L 6.613281 12.433594 Z M 7.671875 11.640625 L 8.464844 11.640625 L 8.464844 12.433594 L 7.671875 12.433594 Z M 8.730469 11.640625 L 9.523438 11.640625 L 9.523438 12.433594 L 8.730469 12.433594 Z M 9.789062 11.640625 L 10.582031 11.640625 L 10.582031 12.433594 L 9.789062 12.433594 Z M 10.847656 11.640625 L 11.640625 11.640625 L 11.640625 12.433594 L 10.847656 12.433594 Z M 11.90625 11.640625 L 12.699219 11.640625 L 12.699219 12.433594 L 11.90625 12.433594 Z M 5.558594 12.699219 L 6.347656 12.699219 L 6.347656 13.492188 L 5.558594 13.492188 Z M 6.613281 12.699219 L 7.40625 12.699219 L 7.40625 13.492188 L 6.613281 13.492188 Z M 7.671875 12.699219 L 8.464844 12.699219 L 8.464844 13.492188 L 7.671875 13.492188 Z M 8.730469 12.699219 L 9.523438 12.699219 L 9.523438 13.492188 L 8.730469 13.492188 Z M 9.789062 12.699219 L 10.582031 12.699219 L 10.582031 13.492188 L 9.789062 13.492188 Z M 9.789062 12.699219 "/>
</g>
<mask id="mask-1">
<g filter="url(#filter-remove-color)">
<rect x="-6.4" y="-6.4" width="76.8" height="76.8" fill="rgb(0%, 0%, 0%)" fill-opacity="0.25"/>
</g>
</mask>
<clipPath id="clip-1">
<rect x="0" y="0" width="17" height="17"/>
</clipPath>
<g id="source-13139" clip-path="url(#clip-1)">
<path fill-rule="evenodd" fill="rgb(0%, 0%, 0%)" fill-opacity="1" d="M 14.289062 8.464844 C 14.289062 11.679688 11.683594 14.285156 8.46875 14.285156 C 5.253906 14.285156 2.644531 11.679688 2.644531 8.464844 C 2.644531 5.25 5.253906 2.644531 8.46875 2.644531 C 11.683594 2.644531 14.289062 5.25 14.289062 8.464844 Z M 14.289062 8.464844 "/>
</g>
<linearGradient id="linear-pattern-0" gradientUnits="userSpaceOnUse" x1="10" y1="32" x2="53.890999" y2="32" gradientTransform="matrix(0.26458, 0, 0, 0.26458, 0, 0)">
<stop offset="0" stop-color="rgb(100%, 100%, 100%)" stop-opacity="1"/>
<stop offset="1" stop-color="rgb(100%, 100%, 100%)" stop-opacity="0"/>
</linearGradient>
<linearGradient id="linear-pattern-1" gradientUnits="userSpaceOnUse" x1="32" y1="43.542999" x2="53.890999" y2="43.542999" gradientTransform="matrix(0.26458, 0, 0, 0.26458, 0, 0)">
<stop offset="0" stop-color="rgb(72.54902%, 75.294118%, 100%)" stop-opacity="1"/>
<stop offset="1" stop-color="rgb(45.098039%, 50.196078%, 100%)" stop-opacity="1"/>
</linearGradient>
</defs>
<path fill-rule="evenodd" fill="rgb(35.686275%, 39.607843%, 79.607843%)" fill-opacity="1" d="M 15.609375 8.464844 C 15.609375 12.410156 12.410156 15.609375 8.464844 15.609375 C 4.519531 15.609375 1.324219 12.410156 1.324219 8.464844 C 1.324219 4.519531 4.519531 1.324219 8.464844 1.324219 C 12.410156 1.324219 15.609375 4.519531 15.609375 8.464844 Z M 15.609375 8.464844 "/>
<g mask="url(#mask-0)">
<use xlink:href="#source-13135"/>
</g>
<g mask="url(#mask-1)">
<use xlink:href="#source-13139"/>
</g>
<path fill-rule="evenodd" fill="rgb(45.098039%, 50.196078%, 100%)" fill-opacity="1" d="M 8.46875 2.644531 C 5.253906 2.644531 2.644531 5.25 2.644531 8.464844 C 2.644531 11.679688 5.25 14.285156 8.464844 14.285156 C 11.679688 14.289062 14.285156 11.683594 14.285156 8.46875 C 14.289062 5.253906 11.683594 2.644531 8.46875 2.644531 Z M 8.46875 3.175781 C 11.390625 3.175781 13.757812 5.542969 13.757812 8.464844 C 13.757812 11.386719 11.390625 13.757812 8.46875 13.757812 C 5.542969 13.757812 3.175781 11.390625 3.175781 8.464844 C 3.175781 5.542969 5.542969 3.175781 8.46875 3.175781 Z M 8.46875 3.175781 "/>
<path fill-rule="evenodd" fill="url(#linear-pattern-0)" d="M 8.464844 2.644531 C 5.25 2.644531 2.644531 5.25 2.644531 8.464844 C 2.644531 11.679688 5.25 14.289062 8.464844 14.289062 C 11.472656 14.285156 13.984375 11.992188 14.257812 8.996094 L 13.730469 8.996094 C 13.460938 11.699219 11.183594 13.757812 8.464844 13.757812 C 5.542969 13.757812 3.175781 11.390625 3.175781 8.464844 C 3.175781 5.542969 5.542969 3.175781 8.464844 3.175781 Z M 8.464844 2.644531 "/>
<path fill-rule="evenodd" fill="url(#linear-pattern-1)" d="M 13.992188 8.753906 C 13.847656 8.753906 13.726562 8.871094 13.726562 9.019531 C 13.445312 11.710938 11.175781 13.757812 8.464844 13.757812 L 8.464844 14.289062 C 11.433594 14.285156 13.921875 12.046875 14.246094 9.097656 C 14.253906 9.074219 14.257812 9.046875 14.257812 9.019531 C 14.257812 9.015625 14.257812 9.011719 14.257812 9.007812 C 14.257812 9.003906 14.257812 9 14.257812 8.996094 C 14.246094 8.859375 14.128906 8.753906 13.992188 8.753906 Z M 13.992188 8.753906 "/>
<path fill-rule="evenodd" fill="rgb(100%, 100%, 100%)" fill-opacity="1" d="M 8.464844 2.644531 C 8.457031 2.644531 8.449219 2.644531 8.441406 2.648438 C 5.238281 2.660156 2.644531 5.261719 2.644531 8.464844 L 3.175781 8.464844 C 3.175781 5.542969 5.542969 3.175781 8.464844 3.175781 C 8.613281 3.175781 8.730469 3.054688 8.730469 2.910156 C 8.730469 2.765625 8.613281 2.644531 8.464844 2.644531 Z M 8.464844 2.644531 "/>
<path fill-rule="nonzero" fill="rgb(100%, 100%, 100%)" fill-opacity="1" d="M 5.554688 4.761719 L 5.554688 6.878906 L 6.085938 6.878906 L 6.085938 4.761719 Z M 6.613281 4.761719 L 6.613281 6.878906 L 7.144531 6.878906 L 7.144531 4.761719 Z M 9.789062 4.761719 L 9.789062 6.878906 L 10.320312 6.878906 L 10.320312 4.761719 Z M 10.847656 4.761719 L 10.847656 6.878906 L 11.378906 6.878906 L 11.378906 4.761719 Z M 5.554688 7.40625 L 5.554688 9.523438 L 6.085938 9.523438 L 6.085938 7.40625 Z M 6.613281 7.40625 L 6.613281 9.523438 L 7.144531 9.523438 L 7.144531 7.40625 Z M 7.671875 7.40625 L 7.671875 9.523438 L 8.203125 9.523438 L 8.203125 7.40625 Z M 8.730469 7.40625 L 8.730469 9.523438 L 9.261719 9.523438 L 9.261719 7.40625 Z M 9.789062 7.40625 L 9.789062 9.523438 L 10.320312 9.523438 L 10.320312 7.40625 Z M 10.847656 7.40625 L 10.847656 9.523438 L 11.378906 9.523438 L 11.378906 7.40625 Z M 5.554688 10.054688 L 5.554688 12.171875 L 6.085938 12.171875 L 6.085938 10.054688 Z M 6.613281 10.054688 L 6.613281 12.171875 L 7.144531 12.171875 L 7.144531 10.054688 Z M 9.789062 10.054688 L 9.789062 12.171875 L 10.320312 12.171875 L 10.320312 10.054688 Z M 10.847656 10.054688 L 10.847656 12.171875 L 11.378906 12.171875 L 11.378906 10.054688 Z M 10.847656 10.054688 "/>
</svg>
