<?xml version="1.0" encoding="UTF-8"?>
<svg xmlns="http://www.w3.org/2000/svg" xmlns:xlink="http://www.w3.org/1999/xlink" width="64" height="64" viewBox="0 0 64 64">
<defs>
<filter id="filter-remove-color" x="0%" y="0%" width="100%" height="100%">
<feColorMatrix color-interpolation-filters="sRGB" values="0 0 0 0 1 0 0 0 0 1 0 0 0 0 1 0 0 0 1 0" />
</filter>
<mask id="mask-0">
<g filter="url(#filter-remove-color)">
<rect x="-6.4" y="-6.4" width="76.8" height="76.8" fill="rgb(0%, 0%, 0%)" fill-opacity="0.15"/>
</g>
</mask>
<clipPath id="clip-0">
<rect x="0" y="0" width="17" height="17"/>
</clipPath>
<g id="source-6347" clip-path="url(#clip-0)">
<path fill-rule="nonzero" fill="rgb(0%, 0%, 0%)" fill-opacity="1" d="M 4.539062 12.394531 L 3.792969 13.140625 C 5.03125 14.382812 6.710938 15.078125 8.464844 15.082031 C 10.21875 15.078125 11.902344 14.382812 13.140625 13.140625 L 12.394531 12.394531 C 11.351562 13.433594 9.941406 14.023438 8.464844 14.023438 C 6.992188 14.023438 5.582031 13.433594 4.539062 12.394531 Z M 4.539062 12.394531 "/>
</g>
</defs>
<path fill-rule="nonzero" fill="rgb(28.627451%, 54.901961%, 84.705882%)" fill-opacity="1" d="M 15.609375 8.464844 C 15.609375 12.410156 12.410156 15.609375 8.464844 15.609375 C 4.519531 15.609375 1.324219 12.410156 1.324219 8.464844 C 1.324219 4.519531 4.519531 1.324219 8.464844 1.324219 C 12.410156 1.324219 15.609375 4.519531 15.609375 8.464844 Z M 15.609375 8.464844 "/>
<g mask="url(#mask-0)">
<use xlink:href="#source-6347"/>
</g>
<path fill-rule="nonzero" fill="rgb(100%, 100%, 100%)" fill-opacity="1" d="M 7.144531 6.351562 L 7.144531 7.144531 L 7.9375 7.144531 L 7.9375 10.320312 L 7.144531 10.320312 L 7.144531 11.113281 L 10.054688 11.113281 L 10.054688 10.320312 L 9.261719 10.320312 L 9.261719 6.351562 Z M 7.144531 6.351562 "/>
<path fill-rule="nonzero" fill="rgb(100%, 100%, 100%)" fill-opacity="1" d="M 9.261719 4.761719 C 9.261719 5.199219 8.90625 5.554688 8.46875 5.554688 C 8.027344 5.554688 7.671875 5.199219 7.671875 4.761719 C 7.671875 4.320312 8.027344 3.964844 8.46875 3.964844 C 8.90625 3.964844 9.261719 4.320312 9.261719 4.761719 Z M 9.261719 4.761719 "/>
</svg>
