<?xml version="1.0" encoding="UTF-8"?>
<svg xmlns="http://www.w3.org/2000/svg" xmlns:xlink="http://www.w3.org/1999/xlink" width="64" height="64" viewBox="0 0 64 64">
<defs>
<filter id="filter-remove-color" x="0%" y="0%" width="100%" height="100%">
<feColorMatrix color-interpolation-filters="sRGB" values="0 0 0 0 1 0 0 0 0 1 0 0 0 0 1 0 0 0 1 0" />
</filter>
<mask id="mask-0">
<g filter="url(#filter-remove-color)">
<rect x="-6.4" y="-6.4" width="76.8" height="76.8" fill="rgb(0%, 0%, 0%)" fill-opacity="0.15"/>
</g>
</mask>
<clipPath id="clip-0">
<rect x="0" y="0" width="17" height="17"/>
</clipPath>
<g id="source-5515" clip-path="url(#clip-0)">
<path fill-rule="nonzero" fill="rgb(0%, 0%, 0%)" fill-opacity="1" d="M 4.539062 12.394531 L 3.792969 13.140625 C 5.03125 14.382812 6.710938 15.078125 8.464844 15.082031 C 10.21875 15.078125 11.902344 14.382812 13.140625 13.140625 L 12.394531 12.394531 C 11.351562 13.433594 9.941406 14.023438 8.464844 14.023438 C 6.992188 14.023438 5.582031 13.433594 4.539062 12.394531 Z M 4.539062 12.394531 "/>
</g>
</defs>
<path fill-rule="nonzero" fill="rgb(28.627451%, 54.901961%, 84.705882%)" fill-opacity="1" d="M 15.609375 8.464844 C 15.609375 12.410156 12.410156 15.609375 8.464844 15.609375 C 4.519531 15.609375 1.324219 12.410156 1.324219 8.464844 C 1.324219 4.519531 4.519531 1.324219 8.464844 1.324219 C 12.410156 1.324219 15.609375 4.519531 15.609375 8.464844 Z M 15.609375 8.464844 "/>
<g mask="url(#mask-0)">
<use xlink:href="#source-5515"/>
</g>
<path fill-rule="nonzero" fill="rgb(97.647059%, 97.647059%, 97.647059%)" fill-opacity="1" d="M 10.441406 4.480469 C 10.273438 4.921875 10.082031 5.386719 9.863281 5.773438 L 7.832031 5.773438 L 7.832031 6.308594 L 8.570312 6.308594 L 8.570312 7.257812 C 8.570312 7.421875 8.5625 7.613281 8.542969 7.761719 L 7.652344 7.761719 L 7.652344 8.296875 L 8.488281 8.296875 C 8.378906 9.269531 8.003906 9.941406 7.359375 10.417969 L 7.746094 10.832031 C 8.496094 10.28125 8.9375 9.472656 9.066406 8.296875 L 10.183594 8.296875 L 10.183594 10.832031 L 10.734375 10.832031 L 10.734375 8.296875 L 11.8125 8.296875 L 11.8125 7.761719 L 10.734375 7.761719 L 10.734375 6.308594 L 11.632812 6.308594 L 11.632812 5.773438 L 10.441406 5.773438 C 10.640625 5.460938 10.84375 5.050781 11.046875 4.644531 Z M 6.210938 4.496094 L 6.210938 5.582031 L 5.300781 5.582031 L 5.300781 6.125 L 6.210938 6.125 L 6.210938 7.558594 C 5.863281 7.707031 5.523438 7.851562 5.121094 8 L 5.3125 8.578125 C 5.640625 8.449219 5.917969 8.320312 6.210938 8.191406 L 6.210938 9.921875 C 6.210938 10.144531 6.164062 10.253906 6.070312 10.253906 C 5.816406 10.253906 5.605469 10.21875 5.367188 10.144531 L 5.476562 10.722656 C 5.695312 10.777344 5.898438 10.804688 6.15625 10.804688 C 6.375 10.804688 6.53125 10.75 6.621094 10.640625 C 6.714844 10.527344 6.746094 10.335938 6.746094 10.0625 L 6.746094 7.917969 L 7.59375 7.476562 L 7.511719 6.984375 C 7.273438 7.09375 6.984375 7.210938 6.746094 7.339844 L 6.746094 6.125 L 7.652344 6.125 L 7.652344 5.582031 L 6.746094 5.582031 L 6.746094 4.496094 Z M 8.789062 4.5625 L 8.242188 4.730469 C 8.441406 4.984375 8.597656 5.277344 8.707031 5.609375 L 9.285156 5.414062 C 9.175781 5.105469 9.007812 4.816406 8.789062 4.5625 Z M 9.121094 6.308594 L 10.183594 6.308594 L 10.183594 7.761719 L 9.09375 7.761719 C 9.109375 7.632812 9.121094 7.46875 9.121094 7.339844 Z M 9.121094 6.308594 "/>
</svg>
