<?xml version="1.0" encoding="UTF-8"?>
<svg xmlns="http://www.w3.org/2000/svg" xmlns:xlink="http://www.w3.org/1999/xlink" width="64" height="64" viewBox="0 0 64 64">
<defs>
<filter id="filter-remove-color" x="0%" y="0%" width="100%" height="100%">
<feColorMatrix color-interpolation-filters="sRGB" values="0 0 0 0 1 0 0 0 0 1 0 0 0 0 1 0 0 0 1 0" />
</filter>
<mask id="mask-0">
<g filter="url(#filter-remove-color)">
<rect x="-6.4" y="-6.4" width="76.8" height="76.8" fill="rgb(0%, 0%, 0%)" fill-opacity="0.15"/>
</g>
</mask>
<clipPath id="clip-0">
<rect x="0" y="0" width="17" height="17"/>
</clipPath>
<g id="source-14222" clip-path="url(#clip-0)">
<path fill-rule="nonzero" fill="rgb(0%, 0%, 0%)" fill-opacity="1" d="M 4.539062 12.394531 L 3.792969 13.140625 C 5.03125 14.382812 6.710938 15.078125 8.464844 15.082031 C 10.21875 15.078125 11.902344 14.382812 13.140625 13.140625 L 12.394531 12.394531 C 11.351562 13.433594 9.941406 14.023438 8.464844 14.023438 C 6.992188 14.023438 5.582031 13.433594 4.539062 12.394531 Z M 4.539062 12.394531 "/>
</g>
</defs>
<path fill-rule="nonzero" fill="rgb(28.627451%, 54.901961%, 84.705882%)" fill-opacity="1" d="M 15.609375 8.464844 C 15.609375 12.410156 12.410156 15.609375 8.464844 15.609375 C 4.519531 15.609375 1.324219 12.410156 1.324219 8.464844 C 1.324219 4.519531 4.519531 1.324219 8.464844 1.324219 C 12.410156 1.324219 15.609375 4.519531 15.609375 8.464844 Z M 15.609375 8.464844 "/>
<g mask="url(#mask-0)">
<use xlink:href="#source-14222"/>
</g>
<path fill-rule="nonzero" fill="rgb(100%, 100%, 100%)" fill-opacity="1" d="M 11.03125 4.894531 C 10.023438 5.113281 8.890625 5.242188 7.933594 5.292969 L 7.984375 5.039062 C 8.042969 4.757812 8.085938 4.480469 8.179688 4.183594 L 6.992188 4.132812 C 7.003906 4.410156 6.992188 4.613281 6.953125 4.976562 C 6.941406 5.078125 6.917969 5.191406 6.902344 5.316406 C 6.390625 5.308594 5.757812 5.242188 5.257812 5.15625 L 5.257812 6.199219 C 5.679688 6.238281 6.171875 6.273438 6.707031 6.28125 C 6.484375 7.203125 6.148438 8.324219 5.75 9.09375 L 6.738281 9.449219 C 6.824219 9.304688 6.882812 9.195312 6.976562 9.085938 C 7.476562 8.441406 8.332031 8.09375 9.296875 8.09375 C 10.109375 8.09375 10.550781 8.515625 10.550781 9.015625 C 10.550781 10.253906 8.695312 10.472656 6.859375 10.175781 L 7.15625 11.261719 C 9.863281 11.546875 11.675781 10.871094 11.675781 8.984375 C 11.675781 7.917969 10.777344 7.1875 9.421875 7.1875 C 8.652344 7.1875 8.019531 7.339844 7.339844 7.714844 C 7.476562 7.304688 7.613281 6.773438 7.722656 6.265625 C 8.847656 6.207031 10.175781 6.046875 11.050781 5.910156 Z M 11.03125 4.894531 "/>
</svg>
