<?xml version="1.0" encoding="UTF-8"?>
<svg xmlns="http://www.w3.org/2000/svg" xmlns:xlink="http://www.w3.org/1999/xlink" width="64" height="64" viewBox="0 0 64 64">
<path fill-rule="nonzero" fill="rgb(80%, 80%, 80%)" fill-opacity="1" d="M 32 6 C 46.359375 6 58 17.640625 58 32 C 58 46.359375 46.359375 58 32 58 C 17.640625 58 6 46.359375 6 32 C 6 17.640625 17.640625 6 32 6 Z M 32 6 "/>
<path fill-rule="nonzero" fill="rgb(100%, 42.745098%, 0%)" fill-opacity="1" d="M 17.890625 41.117188 C 15.148438 43.863281 15 48.863281 15 48.863281 C 15 48.863281 19.996094 48.714844 22.746094 45.972656 C 25.492188 43.226562 26.628906 39.917969 25.285156 38.578125 C 23.945312 37.238281 20.632812 38.375 17.890625 41.117188 Z M 17.890625 41.117188 "/>
<path fill-rule="nonzero" fill="rgb(77.647059%, 15.686275%, 15.686275%)" fill-opacity="1" d="M 18.722656 42.085938 C 16.996094 43.8125 16.902344 46.957031 16.902344 46.957031 C 16.902344 46.957031 20.046875 46.863281 21.773438 45.136719 C 23.503906 43.410156 24.21875 41.324219 23.375 40.480469 C 22.53125 39.640625 20.453125 40.355469 18.722656 42.085938 Z M 18.722656 42.085938 "/>
<path fill-rule="nonzero" fill="rgb(32.941176%, 43.137255%, 47.843137%)" fill-opacity="1" d="M 22.265625 42.113281 C 23.90625 43.867188 26.066406 43.683594 26.242188 43.394531 L 27.746094 40.953125 C 27.835938 40.804688 27.75 40.570312 27.6875 40.511719 L 23.632812 36.457031 C 23.570312 36.390625 23.34375 36.316406 23.195312 36.410156 L 20.753906 37.910156 C 20.46875 38.089844 20.148438 39.851562 22.265625 42.113281 Z M 22.265625 42.113281 "/>
<path fill-rule="nonzero" fill="rgb(0.784314%, 53.333333%, 81.960784%)" fill-opacity="1" d="M 33.304688 46.574219 C 32.96875 46.847656 32.519531 46.785156 32.464844 46.382812 C 32.304688 45.269531 32.410156 43.035156 31.007812 41.632812 C 29.640625 40.261719 27.417969 40.0625 27.417969 40.0625 L 35.789062 35.9375 C 35.789062 35.9375 37.363281 38.367188 36.496094 41.828125 C 35.769531 44.691406 34.535156 45.574219 33.304688 46.574219 Z M 33.304688 46.574219 "/>
<path fill-rule="nonzero" fill="rgb(0.784314%, 53.333333%, 81.960784%)" fill-opacity="1" d="M 17.386719 31.136719 C 17.058594 31.417969 17.175781 31.921875 17.578125 31.980469 C 18.691406 32.136719 20.929688 32.03125 22.332031 33.433594 C 23.699219 34.800781 23.984375 36.742188 23.984375 36.742188 L 28.03125 28.179688 C 28.03125 28.179688 25.890625 27.175781 22.777344 27.984375 C 20.632812 28.542969 18.5 30.179688 17.386719 31.136719 Z M 17.386719 31.136719 "/>
<path fill-rule="nonzero" fill="rgb(100%, 100%, 100%)" fill-opacity="1" d="M 38.652344 16.996094 C 40.011719 17.621094 41.839844 18.691406 43.589844 20.441406 C 44.207031 21.058594 44.734375 21.6875 45.1875 22.304688 C 46.070312 23.496094 46.675781 24.632812 47.070312 25.523438 C 46.1875 27.839844 44.523438 30.535156 42.898438 32.164062 C 36.253906 38.808594 28.914062 42.601562 25.117188 39.914062 C 24.898438 39.757812 24.679688 39.613281 24.480469 39.433594 C 21.222656 36.507812 24.953125 28.125 31.730469 21.347656 C 33.429688 19.648438 36.265625 17.910156 38.652344 16.996094 Z M 38.652344 16.996094 "/>
<path fill-rule="nonzero" fill="rgb(27.058824%, 35.294118%, 39.215686%)" fill-opacity="1" d="M 38.996094 24.507812 C 40.160156 25.671875 40.160156 27.5625 38.996094 28.730469 C 37.828125 29.894531 35.9375 29.894531 34.773438 28.730469 C 33.605469 27.5625 33.605469 25.671875 34.773438 24.507812 C 35.9375 23.34375 37.828125 23.34375 38.996094 24.507812 Z M 38.996094 24.507812 "/>
<path fill-rule="nonzero" fill="rgb(27.058824%, 35.294118%, 39.215686%)" fill-opacity="1" d="M 32.253906 31.628906 C 33.097656 32.472656 33.097656 33.839844 32.253906 34.683594 C 31.410156 35.527344 30.042969 35.527344 29.199219 34.683594 C 28.359375 33.839844 28.359375 32.472656 29.199219 31.628906 C 30.042969 30.785156 31.410156 30.785156 32.253906 31.628906 Z M 32.253906 31.628906 "/>
<path fill-rule="nonzero" fill="rgb(89.803922%, 22.352941%, 20.784314%)" fill-opacity="1" d="M 38.652344 16.996094 C 38.03125 20.058594 43.4375 26.054688 47.070312 25.523438 C 48.199219 22.601562 48.664062 20.617188 48.972656 17.207031 C 49.128906 15.480469 48.625 14.988281 47.023438 15.175781 C 42.78125 15.671875 41.105469 15.992188 38.652344 16.996094 Z M 38.652344 16.996094 "/>
</svg>
