<?xml version="1.0" encoding="UTF-8"?>
<svg xmlns="http://www.w3.org/2000/svg" xmlns:xlink="http://www.w3.org/1999/xlink" width="64" height="64" viewBox="0 0 64 64">
<path fill-rule="nonzero" fill="rgb(52.54902%, 36.862745%, 23.529412%)" fill-opacity="1" d="M 15.609375 8.464844 C 15.609375 12.410156 12.410156 15.609375 8.464844 15.609375 C 4.519531 15.609375 1.324219 12.410156 1.324219 8.464844 C 1.324219 4.519531 4.519531 1.324219 8.464844 1.324219 C 12.410156 1.324219 15.609375 4.519531 15.609375 8.464844 Z M 15.609375 8.464844 "/>
<path fill-rule="nonzero" fill="rgb(96.470588%, 96.078431%, 95.686275%)" fill-opacity="1" d="M 11.496094 9.191406 L 11.496094 9.546875 C 11.800781 9.914062 11.980469 10.328125 11.980469 10.882812 C 11.980469 11.441406 11.789062 11.851562 11.496094 12.21875 L 11.496094 12.578125 L 11.828125 12.578125 C 12.183594 12.179688 12.460938 11.566406 12.460938 10.882812 C 12.460938 10.203125 12.21875 9.632812 11.835938 9.191406 Z M 10.152344 9.433594 L 9.433594 10.15625 L 8.832031 10.15625 L 8.832031 11.609375 L 9.433594 11.609375 L 10.167969 12.335938 L 10.285156 12.335938 L 10.285156 9.433594 Z M 11.011719 9.675781 L 11.011719 10.15625 C 11.15625 10.347656 11.253906 10.582031 11.253906 10.882812 C 11.253906 11.183594 11.15625 11.421875 11.011719 11.609375 L 11.011719 12.09375 L 11.253906 12.09375 C 11.546875 11.851562 11.738281 11.398438 11.738281 10.882812 C 11.738281 10.359375 11.558594 9.910156 11.253906 9.675781 Z M 10.527344 10.15625 L 10.527344 11.609375 L 10.769531 11.609375 C 10.929688 11.40625 11.011719 11.1875 11.011719 10.882812 C 11.011719 10.578125 10.933594 10.347656 10.769531 10.15625 Z M 10.527344 10.15625 "/>
<path fill-rule="nonzero" fill="rgb(96.470588%, 96.078431%, 95.686275%)" fill-opacity="1" d="M 7.144531 9.191406 C 7.207031 9.191406 7.265625 9.214844 7.3125 9.257812 C 7.355469 9.304688 7.378906 9.363281 7.378906 9.425781 L 7.378906 9.441406 C 7.375 11.039062 6.078125 12.335938 4.476562 12.335938 L 4.46875 12.335938 C 4.335938 12.335938 4.234375 12.230469 4.234375 12.09375 L 4.234375 11.367188 C 4.234375 11.234375 4.339844 11.125 4.476562 11.125 L 4.960938 11.125 C 5.09375 11.125 5.203125 11.234375 5.203125 11.367188 L 5.203125 11.480469 C 5.820312 11.265625 6.304688 10.777344 6.523438 10.160156 L 6.410156 10.160156 C 6.277344 10.160156 6.167969 10.050781 6.167969 9.917969 L 6.167969 9.433594 C 6.167969 9.296875 6.277344 9.191406 6.410156 9.191406 Z M 7.144531 9.191406 "/>
<path fill-rule="nonzero" fill="rgb(96.470588%, 96.078431%, 95.686275%)" fill-opacity="1" d="M 5.082031 4.59375 C 4.746094 4.59375 4.476562 4.863281 4.476562 5.199219 C 4.476562 5.53125 4.746094 5.804688 5.082031 5.804688 C 5.1875 5.804688 5.289062 5.769531 5.375 5.71875 L 5.851562 6.167969 L 5.375 6.613281 C 5.289062 6.5625 5.1875 6.53125 5.082031 6.53125 C 4.746094 6.53125 4.476562 6.800781 4.476562 7.132812 C 4.476562 7.46875 4.746094 7.738281 5.082031 7.738281 C 5.414062 7.738281 5.683594 7.46875 5.683594 7.132812 C 5.683594 7.078125 5.675781 7.027344 5.664062 6.976562 L 6.175781 6.476562 L 7.257812 7.496094 L 7.621094 7.496094 L 7.621094 7.253906 L 5.664062 5.355469 C 5.675781 5.304688 5.683594 5.25 5.683594 5.199219 C 5.683594 4.863281 5.414062 4.59375 5.082031 4.59375 Z M 5.082031 4.957031 C 5.214844 4.957031 5.324219 5.066406 5.324219 5.199219 C 5.324219 5.332031 5.214844 5.441406 5.082031 5.441406 C 4.945312 5.441406 4.839844 5.332031 4.839844 5.199219 C 4.839844 5.066406 4.945312 4.957031 5.082031 4.957031 Z M 7.257812 4.835938 L 6.304688 5.734375 L 6.625 6.046875 L 7.621094 5.078125 L 7.621094 4.835938 Z M 5.082031 6.890625 C 5.214844 6.890625 5.324219 7 5.324219 7.132812 C 5.324219 7.269531 5.214844 7.375 5.082031 7.375 C 4.945312 7.375 4.839844 7.269531 4.839844 7.132812 C 4.839844 7 4.945312 6.890625 5.082031 6.890625 Z M 5.082031 6.890625 "/>
<path fill-rule="nonzero" fill="rgb(96.470588%, 96.078431%, 95.686275%)" fill-opacity="1" d="M 10.769531 4.355469 C 10.71875 4.355469 10.667969 4.371094 10.625 4.398438 L 8.933594 5.609375 C 8.871094 5.652344 8.832031 5.726562 8.832031 5.804688 L 8.832031 6.046875 L 9.074219 6.046875 C 9.125 6.046875 9.175781 6.03125 9.214844 6 L 9.316406 5.929688 L 9.316406 7.253906 C 9.316406 7.386719 9.425781 7.496094 9.558594 7.496094 L 11.976562 7.496094 C 12.109375 7.496094 12.214844 7.386719 12.214844 7.253906 L 12.214844 5.929688 L 12.316406 6 C 12.359375 6.03125 12.40625 6.046875 12.457031 6.046875 L 12.699219 6.046875 L 12.699219 5.808594 C 12.703125 5.730469 12.664062 5.652344 12.597656 5.609375 L 10.90625 4.398438 C 10.867188 4.371094 10.820312 4.355469 10.769531 4.355469 Z M 10.765625 4.894531 L 11.734375 5.582031 L 11.734375 7.011719 L 11.007812 7.011719 L 11.007812 6.046875 L 10.28125 6.046875 L 10.28125 7.011719 L 9.800781 7.011719 L 9.800781 5.585938 Z M 10.765625 4.894531 "/>
<path fill-rule="nonzero" fill="rgb(23.921569%, 24.705882%, 27.843137%)" fill-opacity="1" d="M 2.644531 4.324219 C 1.785156 5.535156 1.324219 6.984375 1.324219 8.464844 C 1.324219 9.949219 1.785156 11.398438 2.644531 12.605469 Z M 2.644531 4.324219 "/>
</svg>
