<?xml version="1.0" encoding="UTF-8"?>
<svg xmlns="http://www.w3.org/2000/svg" xmlns:xlink="http://www.w3.org/1999/xlink" width="64" height="64" viewBox="0 0 64 64">
<path fill-rule="nonzero" fill="rgb(30.196078%, 30.196078%, 30.196078%)" fill-opacity="1" d="M 15.609375 8.460938 C 15.609375 12.40625 12.410156 15.605469 8.464844 15.605469 C 4.519531 15.605469 1.324219 12.40625 1.324219 8.460938 C 1.324219 4.515625 4.519531 1.316406 8.464844 1.316406 C 12.410156 1.316406 15.609375 4.515625 15.609375 8.460938 Z M 15.609375 8.460938 "/>
<path fill-rule="nonzero" fill="rgb(18.431373%, 55.294118%, 67.45098%)" fill-opacity="1" d="M 4.722656 6.066406 L 12.210938 6.066406 C 12.480469 6.066406 12.699219 6.285156 12.699219 6.554688 L 12.699219 11.765625 C 12.699219 12.035156 12.480469 12.253906 12.210938 12.253906 L 4.722656 12.253906 C 4.59375 12.253906 4.46875 12.203125 4.375 12.109375 C 4.285156 12.019531 4.234375 11.894531 4.234375 11.765625 L 4.234375 6.554688 C 4.234375 6.28125 4.453125 6.066406 4.722656 6.066406 Z M 4.722656 6.066406 "/>
<path fill-rule="nonzero" fill="rgb(100%, 100%, 100%)" fill-opacity="1" d="M 5.523438 4.765625 L 11.410156 4.765625 C 11.671875 4.765625 11.886719 4.984375 11.886719 5.253906 L 11.886719 9.648438 C 11.886719 9.917969 11.671875 10.136719 11.410156 10.136719 L 5.523438 10.136719 C 5.261719 10.136719 5.046875 9.917969 5.046875 9.648438 L 5.046875 5.253906 C 5.046875 4.984375 5.261719 4.765625 5.523438 4.765625 Z M 5.523438 4.765625 "/>
<path fill-rule="nonzero" fill="rgb(14.901961%, 64.313725%, 79.215686%)" fill-opacity="1" d="M 12.597656 6.257812 C 12.664062 6.34375 12.699219 6.445312 12.699219 6.554688 L 12.699219 11.765625 C 12.699219 12.035156 12.480469 12.253906 12.210938 12.253906 L 4.722656 12.253906 C 4.601562 12.253906 4.484375 12.207031 4.394531 12.125 Z M 12.597656 6.257812 "/>
<path fill-rule="nonzero" fill="rgb(28.627451%, 74.117647%, 89.019608%)" fill-opacity="1" d="M 4.335938 6.257812 C 4.269531 6.34375 4.234375 6.445312 4.234375 6.554688 L 4.234375 11.765625 C 4.234375 12.035156 4.453125 12.253906 4.722656 12.253906 L 12.210938 12.253906 C 12.335938 12.253906 12.453125 12.203125 12.539062 12.125 Z M 4.335938 6.257812 "/>
</svg>
