<?xml version="1.0" encoding="UTF-8"?>
<svg xmlns="http://www.w3.org/2000/svg" xmlns:xlink="http://www.w3.org/1999/xlink" width="64" height="64" viewBox="0 0 64 64">
<path fill-rule="nonzero" fill="rgb(97.254902%, 55.686275%, 27.058824%)" fill-opacity="1" d="M 15.609375 8.460938 C 15.609375 12.40625 12.410156 15.605469 8.464844 15.605469 C 4.519531 15.605469 1.324219 12.40625 1.324219 8.460938 C 1.324219 4.515625 4.519531 1.316406 8.464844 1.316406 C 12.410156 1.316406 15.609375 4.515625 15.609375 8.460938 Z M 15.609375 8.460938 "/>
<path fill-rule="nonzero" fill="rgb(100%, 100%, 100%)" fill-opacity="1" d="M 4.070312 7.800781 L 3.726562 10.488281 C 3.710938 10.546875 3.703125 10.601562 3.703125 10.660156 C 3.703125 11.054688 4.03125 11.371094 4.4375 11.371094 C 4.652344 11.375 4.859375 11.277344 5 11.113281 L 5 11.117188 L 7 8.871094 Z M 12.863281 7.800781 L 9.933594 8.871094 L 11.933594 11.117188 C 12.074219 11.28125 12.28125 11.375 12.496094 11.375 C 12.902344 11.375 13.230469 11.054688 13.230469 10.660156 C 13.230469 10.601562 13.222656 10.546875 13.207031 10.488281 Z M 12.863281 7.800781 "/>
<path fill-rule="nonzero" fill="rgb(100%, 100%, 100%)" fill-opacity="1" d="M 6.21875 5.019531 C 5.253906 5.019531 4.398438 5.628906 4.085938 6.542969 C 3.773438 7.453125 4.078125 8.460938 4.839844 9.050781 C 5.601562 9.636719 6.65625 9.675781 7.457031 9.144531 L 9.476562 9.144531 C 10.277344 9.675781 11.328125 9.636719 12.09375 9.050781 C 12.855469 8.460938 13.15625 7.453125 12.847656 6.542969 C 12.535156 5.628906 11.679688 5.019531 10.714844 5.019531 Z M 6.21875 5.019531 "/>
<path fill-rule="nonzero" fill="rgb(15.294118%, 68.235294%, 37.647059%)" fill-opacity="1" d="M 10.847656 5.816406 C 10.628906 5.816406 10.449219 5.996094 10.449219 6.214844 C 10.449219 6.433594 10.628906 6.609375 10.847656 6.609375 C 11.066406 6.609375 11.246094 6.433594 11.246094 6.214844 C 11.246094 5.996094 11.066406 5.816406 10.847656 5.816406 Z M 10.847656 5.816406 "/>
<path fill-rule="nonzero" fill="rgb(95.294118%, 38.039216%, 21.568627%)" fill-opacity="1" d="M 10.054688 6.609375 C 9.835938 6.609375 9.65625 6.789062 9.65625 7.007812 C 9.65625 7.226562 9.835938 7.40625 10.054688 7.40625 C 10.273438 7.40625 10.449219 7.226562 10.449219 7.007812 C 10.449219 6.789062 10.273438 6.609375 10.054688 6.609375 Z M 10.054688 6.609375 "/>
<path fill-rule="nonzero" fill="rgb(94.117647%, 32.156863%, 25.882353%)" fill-opacity="1" d="M 11.640625 6.609375 C 11.421875 6.609375 11.246094 6.789062 11.246094 7.007812 C 11.246094 7.226562 11.421875 7.40625 11.640625 7.40625 C 11.859375 7.40625 12.039062 7.226562 12.039062 7.007812 C 12.039062 6.789062 11.859375 6.609375 11.640625 6.609375 Z M 11.640625 6.609375 "/>
<path fill-rule="nonzero" fill="rgb(16.078431%, 50.196078%, 72.54902%)" fill-opacity="1" d="M 10.847656 7.40625 C 10.628906 7.40625 10.449219 7.582031 10.449219 7.800781 C 10.449219 8.019531 10.628906 8.199219 10.847656 8.199219 C 11.066406 8.199219 11.246094 8.019531 11.246094 7.800781 C 11.246094 7.582031 11.066406 7.40625 10.847656 7.40625 Z M 10.847656 7.40625 "/>
<path fill-rule="nonzero" fill="rgb(97.254902%, 55.686275%, 27.058824%)" fill-opacity="1" d="M 6.878906 6.878906 C 6.878906 7.320312 6.523438 7.675781 6.085938 7.675781 C 5.648438 7.675781 5.289062 7.320312 5.289062 6.878906 C 5.289062 6.441406 5.648438 6.085938 6.085938 6.085938 C 6.523438 6.085938 6.878906 6.441406 6.878906 6.878906 Z M 6.878906 6.878906 "/>
<path fill="none" stroke-width="0.529" stroke-linecap="square" stroke-linejoin="miter" stroke="rgb(88.235294%, 88.235294%, 88.235294%)" stroke-opacity="1" stroke-miterlimit="4" d="M 7.144531 288.534851 C 6.851562 288.534851 6.613281 288.769226 6.613281 289.062195 C 6.613281 289.355164 6.851562 289.593445 7.144531 289.593445 C 7.4375 289.589539 7.671875 289.355164 7.671875 289.062195 C 7.671875 288.769226 7.433594 288.534851 7.144531 288.534851 Z M 9.789062 288.534851 C 9.496094 288.534851 9.261719 288.769226 9.261719 289.062195 C 9.261719 289.355164 9.496094 289.593445 9.789062 289.593445 C 10.082031 289.589539 10.320312 289.355164 10.320312 289.062195 C 10.320312 288.769226 10.082031 288.534851 9.789062 288.534851 Z M 9.789062 288.534851 L 9.789062 288.534851 M 9.789062 288.534851 " transform="matrix(1, 0, 0, 1, 0, -280.070007)"/>
<path fill-rule="nonzero" fill="rgb(40%, 40%, 40%)" fill-opacity="1" d="M 7.144531 8.464844 C 6.851562 8.464844 6.613281 8.699219 6.613281 8.992188 C 6.613281 9.285156 6.851562 9.523438 7.144531 9.523438 C 7.4375 9.519531 7.671875 9.285156 7.671875 8.992188 C 7.671875 8.699219 7.433594 8.464844 7.144531 8.464844 Z M 9.789062 8.464844 C 9.496094 8.464844 9.261719 8.699219 9.261719 8.992188 C 9.261719 9.285156 9.496094 9.523438 9.789062 9.523438 C 10.082031 9.519531 10.320312 9.285156 10.320312 8.992188 C 10.320312 8.699219 10.082031 8.464844 9.789062 8.464844 Z M 9.789062 8.464844 "/>
</svg>
