<?xml version="1.0" encoding="UTF-8"?>
<svg xmlns="http://www.w3.org/2000/svg" xmlns:xlink="http://www.w3.org/1999/xlink" width="64" height="64" viewBox="0 0 64 64">
<defs>
<filter id="filter-remove-color" x="0%" y="0%" width="100%" height="100%">
<feColorMatrix color-interpolation-filters="sRGB" values="0 0 0 0 1 0 0 0 0 1 0 0 0 0 1 0 0 0 1 0" />
</filter>
<mask id="mask-0">
<g filter="url(#filter-remove-color)">
<rect x="-6.4" y="-6.4" width="76.8" height="76.8" fill="rgb(0%, 0%, 0%)" fill-opacity="0.15"/>
</g>
</mask>
<clipPath id="clip-0">
<rect x="0" y="0" width="17" height="17"/>
</clipPath>
<g id="source-209" clip-path="url(#clip-0)">
<path fill-rule="nonzero" fill="rgb(0%, 0%, 0%)" fill-opacity="1" d="M 11.640625 8.46875 C 11.640625 10.222656 10.21875 11.644531 8.464844 11.644531 C 6.714844 11.644531 5.292969 10.222656 5.292969 8.46875 C 5.292969 6.714844 6.714844 5.296875 8.464844 5.296875 C 10.21875 5.296875 11.640625 6.714844 11.640625 8.46875 Z M 11.640625 8.46875 "/>
</g>
</defs>
<path fill-rule="nonzero" fill="rgb(44.313725%, 64.705882%, 90.980392%)" fill-opacity="1" d="M 15.609375 8.460938 C 15.609375 12.40625 12.410156 15.605469 8.464844 15.605469 C 4.519531 15.605469 1.324219 12.40625 1.324219 8.460938 C 1.324219 4.515625 4.519531 1.316406 8.464844 1.316406 C 12.410156 1.316406 15.609375 4.515625 15.609375 8.460938 Z M 15.609375 8.460938 "/>
<g mask="url(#mask-0)">
<use xlink:href="#source-209"/>
</g>
<path fill-rule="nonzero" fill="rgb(44.313725%, 64.705882%, 90.980392%)" fill-opacity="1" d="M 10.320312 8.46875 C 10.320312 9.492188 9.488281 10.320312 8.464844 10.320312 C 7.445312 10.320312 6.613281 9.492188 6.613281 8.46875 C 6.613281 7.445312 7.445312 6.617188 8.464844 6.617188 C 9.488281 6.617188 10.320312 7.445312 10.320312 8.46875 Z M 10.320312 8.46875 "/>
<path fill-rule="nonzero" fill="rgb(100%, 100%, 100%)" fill-opacity="1" d="M 4.496094 4.5 L 8.996094 7.9375 L 7.9375 8.996094 Z M 4.496094 4.5 "/>
<path fill-rule="nonzero" fill="rgb(90.196078%, 90.196078%, 90.196078%)" fill-opacity="1" d="M 12.433594 12.441406 L 7.9375 9 L 8.996094 7.941406 Z M 12.433594 12.441406 "/>
</svg>
