<?xml version="1.0" encoding="UTF-8"?>
<svg xmlns="http://www.w3.org/2000/svg" xmlns:xlink="http://www.w3.org/1999/xlink" width="64" height="64" viewBox="0 0 64 64">
<path fill-rule="nonzero" fill="rgb(92.941176%, 87.45098%, 21.176471%)" fill-opacity="1" d="M 7.371094 1.421875 C 4.320312 1.898438 1.921875 4.28125 1.425781 7.328125 C 2.011719 6.699219 6.65625 2.085938 7.371094 1.421875 Z M 10.570312 1.648438 L 10.589844 1.65625 C 10.582031 1.652344 10.578125 1.648438 10.570312 1.648438 Z M 7.851562 1.789062 C 7.847656 1.78125 7.796875 1.808594 7.746094 1.847656 C 7.582031 1.96875 6.117188 3.265625 5.644531 3.710938 C 5.398438 3.941406 5.066406 4.242188 4.90625 4.378906 C 4.746094 4.519531 4.390625 4.832031 4.113281 5.078125 C 3.835938 5.324219 3.550781 5.578125 3.476562 5.636719 C 3.328125 5.761719 2.816406 6.214844 2.597656 6.414062 C 2.519531 6.488281 2.40625 6.585938 2.34375 6.636719 C 2.28125 6.6875 2.128906 6.820312 2.007812 6.929688 C 1.777344 7.136719 1.554688 7.316406 1.40625 7.433594 C 1.355469 7.777344 1.324219 8.125 1.324219 8.472656 C 1.324219 9.390625 1.503906 10.296875 1.847656 11.148438 C 1.941406 11 2.070312 10.796875 2.226562 10.558594 L 3.539062 8.527344 L 4.847656 6.5 C 5.714844 5.15625 6.585938 3.808594 7.453125 2.460938 C 7.777344 1.960938 7.867188 1.804688 7.851562 1.792969 Z M 11.605469 2.066406 C 11.5625 2.140625 11.5 2.222656 11.429688 2.371094 C 9.464844 6.484375 8.222656 10.914062 8.019531 14.554688 C 8 14.886719 7.972656 15.296875 7.960938 15.464844 L 7.957031 15.585938 C 8.128906 15.597656 8.296875 15.609375 8.46875 15.609375 C 12.414062 15.609375 15.609375 12.414062 15.609375 8.46875 C 15.605469 5.746094 14.050781 3.261719 11.605469 2.066406 Z M 2.082031 11.664062 C 2.105469 11.714844 2.132812 11.761719 2.15625 11.808594 C 2.132812 11.761719 2.105469 11.714844 2.082031 11.664062 Z M 2.402344 12.234375 C 2.433594 12.285156 2.464844 12.339844 2.5 12.390625 Z M 2.859375 12.890625 C 2.882812 12.921875 2.90625 12.949219 2.929688 12.980469 C 2.90625 12.949219 2.882812 12.921875 2.859375 12.890625 Z M 3.277344 13.371094 C 3.320312 13.417969 3.367188 13.464844 3.414062 13.511719 C 3.367188 13.464844 3.320312 13.417969 3.277344 13.371094 Z M 3.8125 13.882812 C 3.835938 13.902344 3.855469 13.921875 3.875 13.941406 Z M 4.363281 14.308594 C 4.417969 14.347656 4.472656 14.382812 4.527344 14.421875 C 4.472656 14.382812 4.417969 14.347656 4.359375 14.308594 Z M 4.972656 14.691406 C 5 14.710938 5.03125 14.730469 5.0625 14.746094 C 5.03125 14.730469 5 14.710938 4.972656 14.691406 Z M 5.632812 15.019531 C 5.679688 15.039062 5.726562 15.058594 5.769531 15.078125 C 5.726562 15.058594 5.679688 15.042969 5.632812 15.019531 Z M 6.277344 15.261719 C 6.316406 15.277344 6.355469 15.289062 6.394531 15.300781 C 6.355469 15.289062 6.316406 15.277344 6.277344 15.261719 Z M 7.015625 15.460938 C 7.054688 15.46875 7.09375 15.472656 7.132812 15.480469 C 7.09375 15.472656 7.054688 15.46875 7.015625 15.460938 Z M 7.675781 15.5625 C 7.71875 15.566406 7.765625 15.574219 7.808594 15.578125 Z M 7.675781 15.5625 "/>
<path fill-rule="nonzero" fill="rgb(77.647059%, 19.215686%, 40%)" fill-opacity="1" d="M 8.46875 1.324219 C 8.101562 1.324219 7.738281 1.355469 7.378906 1.414062 C 6.675781 2.066406 1.980469 6.726562 1.414062 7.339844 C 1.40625 7.375 1.402344 7.410156 1.398438 7.445312 C 1.542969 7.324219 1.773438 7.140625 2.007812 6.929688 C 2.128906 6.820312 2.28125 6.6875 2.34375 6.636719 C 2.40625 6.585938 2.519531 6.488281 2.597656 6.414062 C 2.816406 6.214844 3.328125 5.761719 3.476562 5.636719 C 3.550781 5.574219 3.835938 5.324219 4.113281 5.078125 C 4.390625 4.832031 4.746094 4.519531 4.90625 4.378906 C 5.066406 4.242188 5.398438 3.941406 5.644531 3.710938 C 6.117188 3.265625 7.582031 1.96875 7.742188 1.847656 C 7.796875 1.808594 7.847656 1.78125 7.851562 1.789062 C 7.867188 1.804688 7.777344 1.960938 7.453125 2.460938 C 6.582031 3.808594 5.710938 5.152344 4.847656 6.5 L 3.539062 8.523438 L 2.226562 10.558594 C 2.070312 10.800781 1.9375 11.003906 1.847656 11.152344 C 2.871094 13.675781 5.238281 15.398438 7.957031 15.59375 L 7.960938 15.464844 C 7.972656 15.296875 8 14.886719 8.019531 14.554688 C 8.222656 10.914062 9.464844 6.484375 11.429688 2.371094 C 11.503906 2.21875 11.566406 2.136719 11.609375 2.058594 C 10.632812 1.578125 9.558594 1.324219 8.46875 1.324219 Z M 8.46875 1.324219 "/>
<path fill-rule="nonzero" fill="rgb(84.705882%, 82.745098%, 25.882353%)" fill-opacity="1" d="M 8.023438 1.355469 C 7.871094 1.363281 7.71875 1.378906 7.566406 1.394531 C 7.71875 1.378906 7.871094 1.363281 8.023438 1.355469 Z M 1.425781 7.335938 L 1.421875 7.339844 C 1.417969 7.375 1.410156 7.40625 1.40625 7.441406 C 1.410156 7.40625 1.417969 7.371094 1.425781 7.335938 Z M 1.425781 7.335938 "/>
</svg>
