<?xml version="1.0" encoding="UTF-8"?>
<svg xmlns="http://www.w3.org/2000/svg" xmlns:xlink="http://www.w3.org/1999/xlink" width="64" height="64" viewBox="0 0 64 64">
<defs>
<filter id="filter-remove-color" x="0%" y="0%" width="100%" height="100%">
<feColorMatrix color-interpolation-filters="sRGB" values="0 0 0 0 1 0 0 0 0 1 0 0 0 0 1 0 0 0 1 0" />
</filter>
<mask id="mask-0">
<g filter="url(#filter-remove-color)">
<rect x="-6.4" y="-6.4" width="76.8" height="76.8" fill="rgb(0%, 0%, 0%)" fill-opacity="0.15"/>
</g>
</mask>
<clipPath id="clip-0">
<rect x="0" y="0" width="17" height="17"/>
</clipPath>
<g id="source-8465" clip-path="url(#clip-0)">
<path fill-rule="nonzero" fill="rgb(0%, 0%, 0%)" fill-opacity="1" d="M 12.582031 4.347656 C 10.308594 2.074219 6.625 2.074219 4.351562 4.347656 C 2.078125 6.621094 2.078125 10.304688 4.351562 12.578125 C 4.402344 12.628906 4.453125 12.675781 4.503906 12.722656 L 5.808594 12.722656 C 7.4375 13.738281 9.5 13.738281 11.128906 12.722656 L 12.425781 12.722656 C 12.476562 12.675781 12.53125 12.628906 12.582031 12.578125 C 14.855469 10.304688 14.855469 6.621094 12.582031 4.347656 Z M 12.582031 4.347656 "/>
</g>
</defs>
<path fill-rule="nonzero" fill="rgb(19.607843%, 63.921569%, 84.313725%)" fill-opacity="1" d="M 15.609375 8.460938 C 15.609375 12.40625 12.410156 15.605469 8.464844 15.605469 C 4.519531 15.605469 1.324219 12.40625 1.324219 8.460938 C 1.324219 4.515625 4.519531 1.316406 8.464844 1.316406 C 12.410156 1.316406 15.609375 4.515625 15.609375 8.460938 Z M 15.609375 8.460938 "/>
<g mask="url(#mask-0)">
<use xlink:href="#source-8465"/>
</g>
<path fill-rule="nonzero" fill="rgb(100%, 100%, 100%)" fill-opacity="1" d="M 6.597656 7.808594 L 8.421875 9.632812 C 8.636719 9.847656 8.636719 10.199219 8.421875 10.414062 C 8.207031 10.628906 7.855469 10.628906 7.640625 10.414062 L 5.816406 8.589844 C 5.597656 8.375 5.597656 8.023438 5.816406 7.808594 C 6.03125 7.59375 6.378906 7.59375 6.597656 7.808594 Z M 6.597656 7.808594 "/>
<path fill-rule="nonzero" fill="rgb(100%, 100%, 100%)" fill-opacity="1" d="M 7.738281 9.636719 L 10.867188 6.511719 C 11.082031 6.292969 11.433594 6.292969 11.648438 6.511719 C 11.863281 6.726562 11.863281 7.074219 11.648438 7.292969 L 8.519531 10.417969 C 8.304688 10.632812 7.953125 10.632812 7.738281 10.417969 C 7.523438 10.203125 7.523438 9.851562 7.738281 9.636719 Z M 7.738281 9.636719 "/>
</svg>
