<?xml version="1.0" encoding="UTF-8"?>
<svg xmlns="http://www.w3.org/2000/svg" xmlns:xlink="http://www.w3.org/1999/xlink" width="64" height="64" viewBox="0 0 64 64">
<path fill-rule="nonzero" fill="rgb(11.764706%, 23.921569%, 30.196078%)" fill-opacity="1" d="M 32 5 C 46.910156 5 59 17.085938 59 32 C 59 46.910156 46.910156 59 32 59 C 17.085938 59 5 46.910156 5 32 C 5 17.085938 17.085938 5 32 5 Z M 32 5 "/>
<path fill-rule="evenodd" fill="rgb(97.647059%, 97.647059%, 97.647059%)" fill-opacity="1" d="M 16.738281 16.738281 C 20.484375 20.683594 18.859375 23.210938 20.898438 27.859375 C 22.804688 32.179688 26.960938 28.945312 29.808594 31.996094 C 26.960938 35.050781 22.792969 31.800781 20.882812 36.117188 C 18.828125 40.765625 20.46875 43.308594 16.726562 47.253906 C 20.671875 43.511719 23.214844 45.144531 27.863281 43.097656 C 32.183594 41.183594 28.949219 37.03125 32 34.1875 C 35.023438 37.03125 31.8125 41.203125 36.121094 43.109375 C 40.769531 45.167969 43.292969 43.511719 47.242188 47.261719 C 43.496094 43.3125 45.152344 40.785156 43.09375 36.136719 C 41.183594 31.828125 37.023438 35.03125 34.183594 32.003906 C 37.023438 28.972656 41.183594 32.175781 43.09375 27.867188 C 45.152344 23.21875 43.492188 20.691406 47.242188 16.742188 C 43.292969 20.492188 40.769531 18.839844 36.121094 20.898438 C 31.8125 22.800781 35.023438 26.972656 32 29.816406 C 28.945312 26.972656 32.175781 22.820312 27.863281 20.90625 C 23.214844 18.851562 20.671875 20.492188 16.726562 16.746094 "/>
</svg>
