<?xml version="1.0" encoding="UTF-8"?>
<svg xmlns="http://www.w3.org/2000/svg" xmlns:xlink="http://www.w3.org/1999/xlink" width="64" height="64" viewBox="0 0 64 64">
<path fill-rule="nonzero" fill="rgb(20.784314%, 33.72549%, 52.941176%)" fill-opacity="1" d="M 15.609375 8.464844 C 15.609375 12.410156 12.410156 15.609375 8.464844 15.609375 C 4.519531 15.609375 1.324219 12.410156 1.324219 8.464844 C 1.324219 4.519531 4.519531 1.324219 8.464844 1.324219 C 12.410156 1.324219 15.609375 4.519531 15.609375 8.464844 Z M 15.609375 8.464844 "/>
<path fill-rule="nonzero" fill="rgb(15.294118%, 25.098039%, 41.176471%)" fill-opacity="1" d="M 9.601562 4.238281 L 13.539062 4.539062 C 13.726562 4.554688 13.863281 4.738281 13.847656 4.953125 L 13.277344 12.339844 C 13.261719 12.554688 13.097656 12.714844 12.910156 12.699219 L 8.972656 12.398438 C 8.789062 12.382812 8.648438 12.199219 8.667969 11.984375 L 9.234375 4.597656 C 9.25 4.382812 9.417969 4.222656 9.601562 4.238281 Z M 9.601562 4.238281 "/>
<path fill-rule="nonzero" fill="rgb(100%, 100%, 100%)" fill-opacity="1" d="M 9.59375 4.59375 L 13.496094 4.894531 L 12.921875 12.347656 L 9.019531 12.046875 Z M 9.59375 4.59375 "/>
<path fill-rule="nonzero" fill="rgb(20.784314%, 33.72549%, 52.941176%)" fill-opacity="1" d="M 9.703125 5.492188 L 12.894531 5.738281 L 12.867188 6.09375 L 9.675781 5.847656 Z M 9.703125 5.492188 "/>
<path fill-rule="nonzero" fill="rgb(20.784314%, 33.72549%, 52.941176%)" fill-opacity="1" d="M 9.621094 6.558594 L 12.8125 6.804688 L 12.785156 7.160156 L 9.59375 6.914062 Z M 9.621094 6.558594 "/>
<path fill-rule="nonzero" fill="rgb(20.784314%, 33.72549%, 52.941176%)" fill-opacity="1" d="M 9.539062 7.625 L 12.730469 7.871094 L 12.703125 8.226562 L 9.511719 7.980469 Z M 9.539062 7.625 "/>
<path fill-rule="nonzero" fill="rgb(20.784314%, 33.72549%, 52.941176%)" fill-opacity="1" d="M 9.457031 8.683594 L 12.648438 8.929688 L 12.621094 9.285156 L 9.429688 9.039062 Z M 9.457031 8.683594 "/>
<path fill-rule="nonzero" fill="rgb(20.784314%, 33.72549%, 52.941176%)" fill-opacity="1" d="M 9.375 9.75 L 12.566406 9.996094 L 12.539062 10.351562 L 9.347656 10.105469 Z M 9.375 9.75 "/>
<path fill-rule="nonzero" fill="rgb(20.784314%, 33.72549%, 52.941176%)" fill-opacity="1" d="M 9.292969 10.816406 L 12.484375 11.0625 L 12.457031 11.417969 L 9.265625 11.171875 Z M 9.292969 10.816406 "/>
<path fill-rule="nonzero" fill="rgb(25.490196%, 41.176471%, 64.705882%)" fill-opacity="1" d="M 8.464844 1.324219 C 4.519531 1.324219 1.324219 4.519531 1.324219 8.464844 C 1.324219 12.410156 4.519531 15.609375 8.464844 15.609375 C 9.65625 15.609375 10.828125 15.308594 11.871094 14.738281 L 9.34375 1.382812 C 9.054688 1.34375 8.761719 1.324219 8.464844 1.324219 Z M 8.464844 1.324219 "/>
<path fill-rule="nonzero" fill="rgb(100%, 100%, 100%)" fill-opacity="1" d="M 3.277344 6.902344 L 4.191406 6.765625 L 5.949219 10.710938 L 5.03125 10.847656 Z M 3.277344 6.902344 "/>
<path fill-rule="nonzero" fill="rgb(100%, 100%, 100%)" fill-opacity="1" d="M 6.476562 6.429688 L 5.5625 6.566406 L 5.03125 10.851562 L 5.949219 10.714844 Z M 6.476562 6.429688 "/>
<path fill-rule="nonzero" fill="rgb(100%, 100%, 100%)" fill-opacity="1" d="M 5.5625 6.570312 L 6.476562 6.433594 L 8.234375 10.378906 L 7.320312 10.515625 Z M 5.5625 6.570312 "/>
<path fill-rule="nonzero" fill="rgb(100%, 100%, 100%)" fill-opacity="1" d="M 8.765625 6.089844 L 7.851562 6.226562 L 7.320312 10.511719 L 8.234375 10.375 Z M 8.765625 6.089844 "/>
</svg>
