<?xml version="1.0" encoding="UTF-8"?>
<svg xmlns="http://www.w3.org/2000/svg" xmlns:xlink="http://www.w3.org/1999/xlink" width="64" height="64" viewBox="0 0 64 64">
<path fill-rule="nonzero" fill="rgb(94.901961%, 94.901961%, 94.901961%)" fill-opacity="1" d="M 59 32 C 59 46.910156 46.910156 59 32 59 C 17.089844 59 5 46.910156 5 32 C 5 17.089844 17.089844 5 32 5 C 46.910156 5 59 17.089844 59 32 Z M 59 32 "/>
<path fill-rule="nonzero" fill="rgb(12.54902%, 74.117647%, 30.196078%)" fill-opacity="1" d="M 45.375 41.535156 L 45.375 49.167969 L 45.378906 49.167969 Z M 45.375 41.535156 "/>
<path fill-rule="nonzero" fill="rgb(0%, 56.862745%, 22.745098%)" fill-opacity="1" d="M 25.328125 37.746094 L 18.648438 33.917969 L 18.648438 26.351562 L 32.011719 18.695312 L 32.015625 18.691406 L 45.375 26.347656 L 45.375 33.898438 L 38.699219 37.679688 L 38.71875 45.332031 L 45.375 49.167969 L 52.054688 45.351562 L 52.054688 22.476562 L 32.03125 11 L 11.964844 22.441406 L 11.964844 45.351562 L 18.648438 49.199219 L 18.648438 49.191406 L 25.328125 45.347656 Z M 25.328125 37.746094 "/>
<path fill-rule="nonzero" fill="rgb(24.705882%, 71.372549%, 42.352941%)" fill-opacity="1" d="M 11.964844 22.441406 L 11.964844 45.351562 L 18.648438 49.199219 L 18.648438 49.191406 L 25.328125 45.347656 L 25.328125 37.746094 L 18.648438 33.917969 L 18.648438 26.351562 L 32.015625 18.691406 L 45.375 26.347656 L 45.375 49.167969 L 52.054688 45.351562 L 52.054688 22.441406 L 51.996094 22.441406 L 32.03125 11 L 32.023438 10.988281 L 32.015625 10.992188 L 32.007812 10.988281 L 32 11 L 12.035156 22.441406 Z M 11.964844 22.441406 "/>
<path fill-rule="nonzero" fill="rgb(18.431373%, 82.745098%, 42.745098%)" fill-opacity="1" d="M 45.371094 49.167969 L 45.371094 33.898438 L 38.695312 37.679688 L 38.714844 45.332031 Z M 45.371094 49.167969 "/>
<path fill-rule="nonzero" fill="rgb(18.431373%, 82.745098%, 42.745098%)" fill-opacity="1" d="M 32.015625 10.992188 L 32.011719 10.988281 L 32.011719 18.695312 L 32.015625 18.691406 L 45.375 26.347656 L 45.375 41.535156 L 52.054688 37.699219 L 52.054688 22.441406 L 51.996094 22.441406 L 32.03125 11 L 32.023438 10.988281 Z M 32.015625 10.992188 "/>
<path fill-rule="nonzero" fill="rgb(18.431373%, 82.745098%, 42.745098%)" fill-opacity="1" d="M 18.648438 49.191406 L 18.648438 41.527344 L 11.96875 37.699219 L 11.988281 45.351562 Z M 18.648438 49.191406 "/>
<path fill="none" stroke-width="0.0955" stroke-linecap="butt" stroke-linejoin="miter" stroke="rgb(0%, 56.862745%, 22.745098%)" stroke-opacity="1" stroke-miterlimit="10" d="M 11.45991 22.098756 L 11.45991 45.008913 " transform="matrix(1, 0, 0, 1, 0.50884, 0.34265)"/>
<path fill="none" stroke-width="0.0955" stroke-linecap="butt" stroke-linejoin="round" stroke="rgb(0%, 56.862745%, 22.745098%)" stroke-opacity="1" stroke-miterlimit="10" d="M 18.143504 18.305788 L 31.506785 10.649538 " transform="matrix(1, 0, 0, 1, 0.50884, 0.34265)"/>
<path fill="none" stroke-width="0.0955" stroke-linecap="butt" stroke-linejoin="round" stroke="rgb(0%, 56.862745%, 22.745098%)" stroke-opacity="1" stroke-miterlimit="10" d="M 31.506785 18.348756 L 18.139597 26.008913 " transform="matrix(1, 0, 0, 1, 0.50884, 0.34265)"/>
<path fill="none" stroke-width="0.0955" stroke-linecap="butt" stroke-linejoin="miter" stroke="rgb(0%, 56.862745%, 22.745098%)" stroke-opacity="1" stroke-miterlimit="10" d="M 18.139597 33.575319 L 24.819285 37.403444 " transform="matrix(1, 0, 0, 1, 0.50884, 0.34265)"/>
<path fill="none" stroke-width="0.0955" stroke-linecap="butt" stroke-linejoin="miter" stroke="rgb(0%, 56.862745%, 22.745098%)" stroke-opacity="1" stroke-miterlimit="10" d="M 11.45991 45.008913 L 18.139597 48.856569 " transform="matrix(1, 0, 0, 1, 0.50884, 0.34265)"/>
<path fill="none" stroke-width="0.0955" stroke-linecap="butt" stroke-linejoin="miter" stroke="rgb(0%, 56.862745%, 22.745098%)" stroke-opacity="1" stroke-miterlimit="10" d="M 51.526316 22.098756 L 51.526316 45.008913 " transform="matrix(1, 0, 0, 1, 0.50884, 0.34265)"/>
<path fill="none" stroke-width="0.0955" stroke-linecap="butt" stroke-linejoin="round" stroke="rgb(0%, 56.862745%, 22.745098%)" stroke-opacity="1" stroke-miterlimit="10" d="M 44.842722 18.305788 L 31.475535 10.649538 " transform="matrix(1, 0, 0, 1, 0.50884, 0.34265)"/>
<path fill="none" stroke-width="0.0955" stroke-linecap="butt" stroke-linejoin="round" stroke="rgb(0%, 56.862745%, 22.745098%)" stroke-opacity="1" stroke-miterlimit="10" d="M 31.475535 18.348756 L 44.842722 26.008913 " transform="matrix(1, 0, 0, 1, 0.50884, 0.34265)"/>
<path fill="none" stroke-width="0.0955" stroke-linecap="butt" stroke-linejoin="miter" stroke="rgb(0%, 56.862745%, 22.745098%)" stroke-opacity="1" stroke-miterlimit="10" d="M 44.842722 33.575319 L 38.163035 37.403444 " transform="matrix(1, 0, 0, 1, 0.50884, 0.34265)"/>
<path fill="none" stroke-width="0.0955" stroke-linecap="butt" stroke-linejoin="miter" stroke="rgb(0%, 56.862745%, 22.745098%)" stroke-opacity="1" stroke-miterlimit="10" d="M 3.976741 38.273612 L 17.316585 30.668144 " transform="matrix(1, 0, 0, 1, 8.01154, 7.07795)"/>
<path fill="none" stroke-width="0.0955" stroke-linecap="butt" stroke-linejoin="round" stroke="rgb(0%, 56.862745%, 22.745098%)" stroke-opacity="1" stroke-miterlimit="10" d="M 17.316585 38.269706 L 3.929866 30.629081 L 10.621273 26.843925 L 3.953304 23.004081 L 10.632991 19.277519 L 3.953304 15.363456 L 10.640804 11.570487 L 17.320491 15.445487 L 17.308773 7.750175 L 24.004085 11.613456 L 23.996273 3.910331 " transform="matrix(1, 0, 0, 1, 8.01154, 7.07795)"/>
<path fill="none" stroke-width="0.0955" stroke-linecap="butt" stroke-linejoin="miter" stroke="rgb(0%, 56.862745%, 22.745098%)" stroke-opacity="1" stroke-miterlimit="10" d="M 17.316585 30.636894 L 17.316585 38.273612 L 10.636898 42.113456 L 10.640804 11.570487 " transform="matrix(1, 0, 0, 1, 8.01154, 7.07795)"/>
<path fill="none" stroke-width="0.0955" stroke-linecap="butt" stroke-linejoin="miter" stroke="rgb(0%, 56.862745%, 22.745098%)" stroke-opacity="1" stroke-miterlimit="10" d="M 44.000179 38.273612 L 30.660335 30.668144 " transform="matrix(1, 0, 0, 1, 8.01154, 7.07795)"/>
<path fill="none" stroke-width="0.0955" stroke-linecap="butt" stroke-linejoin="round" stroke="rgb(0%, 56.862745%, 22.745098%)" stroke-opacity="1" stroke-miterlimit="10" d="M 30.660335 38.269706 L 44.047054 30.629081 L 37.355648 26.843925 L 44.023616 23.004081 L 37.343929 19.277519 L 44.023616 15.363456 L 37.336116 11.570487 L 30.656429 15.445487 L 30.668148 7.750175 L 23.972835 11.613456 L 23.980648 3.910331 " transform="matrix(1, 0, 0, 1, 8.01154, 7.07795)"/>
<path fill="none" stroke-width="0.0955" stroke-linecap="butt" stroke-linejoin="miter" stroke="rgb(0%, 56.862745%, 22.745098%)" stroke-opacity="1" stroke-miterlimit="10" d="M 30.660335 30.636894 L 30.660335 38.273612 L 37.340023 42.113456 L 37.336116 11.570487 " transform="matrix(1, 0, 0, 1, 8.01154, 7.07795)"/>
<path fill="none" stroke-width="0.0955" stroke-linecap="butt" stroke-linejoin="miter" stroke="rgb(0%, 56.862745%, 22.745098%)" stroke-opacity="1" stroke-miterlimit="10" d="M 51.526316 45.008913 L 44.842722 48.856569 " transform="matrix(1, 0, 0, 1, 0.50884, 0.34265)"/>
</svg>
