<?xml version="1.0" encoding="UTF-8"?>
<svg xmlns="http://www.w3.org/2000/svg" xmlns:xlink="http://www.w3.org/1999/xlink" width="64" height="64" viewBox="0 0 64 64">
<path fill-rule="nonzero" fill="rgb(97.647059%, 97.647059%, 97.647059%)" fill-opacity="1" d="M 15.609375 8.464844 C 15.609375 12.410156 12.410156 15.609375 8.464844 15.609375 C 4.519531 15.609375 1.324219 12.410156 1.324219 8.464844 C 1.324219 4.519531 4.519531 1.324219 8.464844 1.324219 C 12.410156 1.324219 15.609375 4.519531 15.609375 8.464844 Z M 15.609375 8.464844 "/>
<path fill-rule="nonzero" fill="rgb(16.862745%, 23.137255%, 41.568627%)" fill-opacity="1" d="M 8.179688 8.285156 L 8.804688 8.265625 L 8.488281 8.855469 Z M 8.179688 8.285156 "/>
<path fill-rule="nonzero" fill="rgb(13.333333%, 15.686275%, 33.72549%)" fill-opacity="1" d="M 10.871094 8.4375 C 13.167969 8.808594 13.492188 9.386719 13.492188 9.386719 L 13.492188 9.492188 C 13.492188 9.511719 13.484375 9.53125 13.476562 9.554688 C 13.46875 9.582031 13.238281 10.0625 11.75 10.382812 Z M 10.871094 8.4375 "/>
<path fill-rule="nonzero" fill="rgb(13.333333%, 15.686275%, 33.72549%)" fill-opacity="1" d="M 5.09375 10.304688 C 4.574219 11.699219 4.839844 12.132812 4.855469 12.167969 C 4.863281 12.1875 4.875 12.207031 4.890625 12.214844 C 4.925781 12.214844 4.960938 12.207031 4.996094 12.195312 C 4.996094 12.195312 5.9375 12.152344 7.039062 10.570312 Z M 5.09375 10.304688 "/>
<path fill-rule="nonzero" fill="rgb(13.333333%, 15.686275%, 33.72549%)" fill-opacity="1" d="M 8.523438 4.976562 C 7.265625 3.582031 6.648438 3.664062 6.613281 3.671875 C 6.597656 3.671875 6.570312 3.679688 6.554688 3.6875 C 6.507812 3.707031 6.464844 3.847656 6.464844 3.847656 C 6.464844 3.847656 6.203125 4.621094 7.265625 6.683594 Z M 8.523438 4.976562 "/>
<path fill-rule="nonzero" fill="rgb(14.117647%, 25.882353%, 42.352941%)" fill-opacity="1" d="M 9.613281 10.328125 C 11.320312 12.304688 11.917969 12.195312 11.917969 12.195312 C 11.953125 12.207031 12 12.214844 12.035156 12.214844 C 12.050781 12.207031 12.058594 12.1875 12.070312 12.167969 C 12.09375 12.132812 12.542969 11.320312 10.90625 8.441406 Z M 9.613281 10.328125 "/>
<path fill-rule="nonzero" fill="rgb(14.117647%, 25.882353%, 42.352941%)" fill-opacity="1" d="M 7.40625 10.632812 C 3.886719 10.480469 3.464844 9.601562 3.449219 9.554688 C 3.449219 9.539062 3.441406 9.519531 3.441406 9.503906 C 3.449219 9.441406 3.570312 9.324219 3.570312 9.324219 C 3.570312 9.324219 4.503906 8.746094 6.0625 8.4375 Z M 7.40625 10.632812 "/>
<path fill-rule="nonzero" fill="rgb(14.117647%, 25.882353%, 42.352941%)" fill-opacity="1" d="M 9.84375 6.472656 C 10.757812 4.277344 10.40625 3.769531 10.40625 3.769531 C 10.398438 3.742188 10.386719 3.707031 10.378906 3.679688 C 10.363281 3.671875 10.34375 3.671875 10.316406 3.664062 C 10.273438 3.652344 9.3125 3.574219 7.289062 6.4375 Z M 9.84375 6.472656 "/>
<path fill-rule="nonzero" fill="rgb(12.54902%, 44.705882%, 68.235294%)" fill-opacity="1" d="M 8.480469 11.972656 C 7.234375 13.34375 6.605469 13.273438 6.570312 13.273438 C 6.519531 13.253906 6.464844 13.226562 6.421875 13.199219 L 4.890625 12.214844 C 5.53125 12.070312 6.359375 11.296875 7.1875 10.308594 Z M 8.480469 11.972656 "/>
<path fill-rule="nonzero" fill="rgb(14.901961%, 69.411765%, 92.941176%)" fill-opacity="1" d="M 5.171875 6.703125 C 4.617188 5.261719 4.890625 4.808594 4.910156 4.78125 C 4.945312 4.738281 4.988281 4.703125 5.03125 4.675781 L 6.554688 3.699219 C 6.421875 4.328125 6.769531 5.308594 7.289062 6.4375 Z M 5.171875 6.703125 "/>
<path fill-rule="nonzero" fill="rgb(14.901961%, 69.411765%, 92.941176%)" fill-opacity="1" d="M 8.382812 8.410156 C 7.617188 8.410156 6.851562 8.472656 6.097656 8.578125 C 6.121094 8.621094 6.472656 9.21875 6.730469 9.617188 C 9.175781 13.421875 10.316406 13.273438 10.371094 13.261719 C 10.421875 13.246094 10.476562 13.21875 10.519531 13.191406 L 12.042969 12.214844 C 11.003906 11.992188 9.5625 10.277344 8.382812 8.410156 Z M 8.382812 8.410156 "/>
<path fill-rule="nonzero" fill="rgb(5.490196%, 53.333333%, 78.431373%)" fill-opacity="1" d="M 10.816406 8.601562 C 12.003906 8.769531 13.042969 9.039062 13.492188 9.492188 L 13.492188 7.671875 C 13.492188 7.617188 13.484375 7.554688 13.476562 7.503906 C 13.46875 7.476562 13.195312 6.992188 11.761719 6.679688 Z M 10.816406 8.601562 "/>
<path fill-rule="nonzero" fill="rgb(5.490196%, 53.333333%, 78.431373%)" fill-opacity="1" d="M 9.789062 6.445312 C 9.527344 6.4375 8.953125 6.410156 8.460938 6.410156 C 3.976562 6.410156 3.476562 7.457031 3.457031 7.503906 C 3.441406 7.554688 3.441406 7.617188 3.441406 7.671875 L 3.441406 9.503906 C 3.878906 9.058594 4.839844 8.816406 6.007812 8.640625 C 6.765625 8.535156 7.519531 8.472656 8.285156 8.460938 L 8.707031 8.460938 C 8.699219 8.460938 10.0625 6.453125 9.789062 6.445312 Z M 9.789062 6.445312 "/>
<path fill-rule="nonzero" fill="rgb(12.54902%, 44.705882%, 68.235294%)" fill-opacity="1" d="M 8.472656 8.550781 C 9.695312 6.695312 10.597656 4.746094 10.371094 3.6875 L 11.894531 4.667969 C 11.9375 4.695312 11.980469 4.730469 12.015625 4.773438 C 12.042969 4.816406 12.640625 5.8125 10.195312 9.617188 C 10.019531 9.902344 9.808594 10.304688 9.75 10.328125 C 9.386719 9.972656 8.683594 8.871094 8.496094 8.613281 C 8.480469 8.578125 8.472656 8.550781 8.472656 8.550781 Z M 8.472656 8.550781 "/>
</svg>
