<?xml version="1.0" encoding="UTF-8"?>
<svg xmlns="http://www.w3.org/2000/svg" xmlns:xlink="http://www.w3.org/1999/xlink" width="64" height="64" viewBox="0 0 64 64">
<defs>
<filter id="filter-remove-color" x="0%" y="0%" width="100%" height="100%">
<feColorMatrix color-interpolation-filters="sRGB" values="0 0 0 0 1 0 0 0 0 1 0 0 0 0 1 0 0 0 1 0" />
</filter>
<mask id="mask-0">
<g filter="url(#filter-remove-color)">
<rect x="-6.4" y="-6.4" width="76.8" height="76.8" fill="rgb(0%, 0%, 0%)" fill-opacity="0.5"/>
</g>
</mask>
<clipPath id="clip-0">
<rect x="0" y="0" width="17" height="17"/>
</clipPath>
<g id="source-10264" clip-path="url(#clip-0)">
<path fill-rule="nonzero" fill="rgb(100%, 100%, 100%)" fill-opacity="1" d="M 14.550781 8.464844 C 14.550781 11.828125 11.828125 14.550781 8.464844 14.550781 C 5.105469 14.550781 2.382812 11.828125 2.382812 8.464844 C 2.382812 5.105469 5.105469 2.382812 8.464844 2.382812 C 11.828125 2.382812 14.550781 5.105469 14.550781 8.464844 Z M 14.550781 8.464844 "/>
</g>
</defs>
<path fill-rule="nonzero" fill="rgb(90.196078%, 90.196078%, 90.196078%)" fill-opacity="1" d="M 15.609375 8.464844 C 15.609375 12.410156 12.410156 15.609375 8.464844 15.609375 C 4.519531 15.609375 1.324219 12.410156 1.324219 8.464844 C 1.324219 4.519531 4.519531 1.324219 8.464844 1.324219 C 12.410156 1.324219 15.609375 4.519531 15.609375 8.464844 Z M 15.609375 8.464844 "/>
<g mask="url(#mask-0)">
<use xlink:href="#source-10264"/>
</g>
<path fill-rule="evenodd" fill="rgb(100%, 49.803922%, 15.686275%)" fill-opacity="1" d="M 8.699219 7.777344 C 9.125 8.246094 8.582031 8.667969 8.582031 8.667969 C 8.582031 8.667969 9.664062 8.132812 9.171875 7.464844 C 8.703125 6.835938 8.347656 6.527344 10.277344 5.453125 C 10.277344 5.453125 7.253906 6.175781 8.695312 7.773438 "/>
<path fill-rule="evenodd" fill="rgb(20.392157%, 20.392157%, 78.431373%)" fill-opacity="1" d="M 10.984375 10.957031 C 10.984375 10.957031 11.234375 11.15625 10.707031 11.308594 C 9.710938 11.597656 6.554688 11.683594 5.679688 11.320312 C 5.363281 11.1875 5.953125 11.007812 6.140625 10.96875 C 6.335938 10.925781 6.445312 10.933594 6.445312 10.933594 C 6.097656 10.695312 4.179688 11.398438 5.472656 11.597656 C 8.996094 12.148438 11.898438 11.351562 10.984375 10.957031 "/>
<path fill-rule="evenodd" fill="rgb(20.392157%, 20.392157%, 78.431373%)" fill-opacity="1" d="M 7.289062 8.386719 C 7.289062 8.386719 5.683594 8.75 6.722656 8.882812 C 7.160156 8.941406 8.03125 8.925781 8.84375 8.863281 C 9.511719 8.808594 10.175781 8.695312 10.175781 8.695312 C 10.175781 8.695312 9.941406 8.792969 9.773438 8.902344 C 8.144531 9.3125 4.996094 9.121094 5.898438 8.699219 C 6.667969 8.347656 7.289062 8.386719 7.289062 8.386719 "/>
<path fill-rule="evenodd" fill="rgb(20.392157%, 20.392157%, 78.431373%)" fill-opacity="1" d="M 10.167969 9.929688 C 11.824219 9.105469 11.058594 8.3125 10.527344 8.417969 C 10.394531 8.445312 10.335938 8.464844 10.335938 8.464844 C 10.335938 8.464844 10.382812 8.394531 10.476562 8.363281 C 11.535156 8.003906 12.347656 9.414062 10.136719 9.972656 C 10.136719 9.972656 10.160156 9.949219 10.167969 9.929688 "/>
<path fill-rule="evenodd" fill="rgb(100%, 49.803922%, 15.686275%)" fill-opacity="1" d="M 9.167969 3.726562 C 9.167969 3.726562 10.085938 4.605469 8.296875 5.960938 C 6.867188 7.042969 7.972656 7.664062 8.296875 8.371094 C 7.464844 7.648438 6.847656 7.011719 7.261719 6.414062 C 7.863281 5.546875 9.539062 5.125 9.167969 3.726562 "/>
<path fill-rule="evenodd" fill="rgb(20.392157%, 20.392157%, 78.431373%)" fill-opacity="1" d="M 7.453125 12.164062 C 9.042969 12.265625 11.484375 12.109375 11.542969 11.390625 C 11.542969 11.390625 11.433594 11.664062 10.226562 11.878906 C 8.871094 12.125 7.195312 12.097656 6.203125 11.941406 C 6.203125 11.941406 6.40625 12.101562 7.453125 12.164062 "/>
<path fill-rule="evenodd" fill="rgb(20.392157%, 20.392157%, 78.431373%)" fill-opacity="1" d="M 7.527344 9.851562 C 7.527344 9.851562 6.226562 10.148438 7.066406 10.253906 C 7.421875 10.300781 8.125 10.289062 8.785156 10.238281 C 9.324219 10.195312 9.863281 10.101562 9.863281 10.101562 C 9.863281 10.101562 9.671875 10.179688 9.535156 10.269531 C 8.21875 10.601562 5.667969 10.445312 6.398438 10.105469 C 7.019531 9.820312 7.527344 9.851562 7.527344 9.851562 "/>
</svg>
