<?xml version="1.0" encoding="UTF-8"?>
<svg xmlns="http://www.w3.org/2000/svg" xmlns:xlink="http://www.w3.org/1999/xlink" width="64" height="64" viewBox="0 0 64 64">
<path fill-rule="nonzero" fill="rgb(38.823529%, 78.431373%, 89.019608%)" fill-opacity="1" d="M 15.609375 8.464844 C 15.609375 12.410156 12.410156 15.609375 8.464844 15.609375 C 4.519531 15.609375 1.324219 12.410156 1.324219 8.464844 C 1.324219 4.519531 4.519531 1.324219 8.464844 1.324219 C 12.410156 1.324219 15.609375 4.519531 15.609375 8.464844 Z M 15.609375 8.464844 "/>
<path fill-rule="nonzero" fill="rgb(18.823529%, 18.823529%, 18.823529%)" fill-opacity="1" d="M 5.820312 4.496094 L 11.113281 4.496094 C 11.84375 4.496094 12.433594 5.089844 12.433594 5.820312 L 12.433594 11.113281 C 12.433594 11.84375 11.84375 12.433594 11.113281 12.433594 L 5.820312 12.433594 C 5.089844 12.433594 4.496094 11.84375 4.496094 11.113281 L 4.496094 5.820312 C 4.496094 5.089844 5.089844 4.496094 5.820312 4.496094 Z M 5.820312 4.496094 "/>
<path fill-rule="nonzero" fill="rgb(97.647059%, 97.647059%, 97.647059%)" fill-opacity="1" d="M 9.707031 7.773438 C 10.007812 8.015625 10.265625 8.15625 10.640625 8.15625 C 10.941406 8.15625 11.261719 8.015625 11.261719 7.8125 L 11.261719 7.792969 C 11.261719 7.605469 11.050781 7.46875 10.492188 7.320312 C 9.816406 7.152344 9.382812 6.765625 9.382812 6.332031 L 9.382812 6.316406 C 9.382812 5.699219 9.96875 5.359375 10.640625 5.359375 C 11.125 5.359375 11.421875 5.523438 11.777344 5.734375 L 11.429688 6.207031 C 11.132812 6 10.921875 5.980469 10.640625 5.980469 C 10.359375 5.980469 10.019531 6.117188 10.019531 6.285156 L 10.019531 6.34375 C 10.019531 6.570312 10.234375 6.671875 10.796875 6.824219 C 11.46875 7.011719 11.871094 7.222656 11.871094 7.734375 L 11.871094 7.753906 C 11.871094 8.332031 11.351562 8.777344 10.640625 8.777344 C 10.136719 8.757812 9.695312 8.566406 9.304688 8.210938 M 8.777344 5.359375 L 8.15625 7.535156 L 7.535156 5.359375 L 6.914062 5.359375 L 6.292969 7.535156 L 5.671875 5.359375 L 5.050781 5.359375 L 5.980469 8.777344 L 6.601562 8.777344 L 7.222656 6.601562 L 7.84375 8.777344 L 8.464844 8.777344 L 9.398438 5.359375 "/>
<path fill-rule="nonzero" fill="rgb(97.647059%, 97.647059%, 97.647059%)" fill-opacity="1" d="M 5.050781 10.949219 L 8.15625 10.949219 L 8.15625 11.570312 L 5.050781 11.570312 Z M 5.050781 10.949219 "/>
</svg>
