<?xml version="1.0" encoding="UTF-8"?>
<svg xmlns="http://www.w3.org/2000/svg" xmlns:xlink="http://www.w3.org/1999/xlink" width="64" height="64" viewBox="0 0 64 64">
<path fill-rule="nonzero" fill="rgb(24.313725%, 79.215686%, 78.039216%)" fill-opacity="1" d="M 15.609375 8.464844 C 15.609375 12.410156 12.410156 15.609375 8.464844 15.609375 C 4.519531 15.609375 1.324219 12.410156 1.324219 8.464844 C 1.324219 4.519531 4.519531 1.324219 8.464844 1.324219 C 12.410156 1.324219 15.609375 4.519531 15.609375 8.464844 Z M 15.609375 8.464844 "/>
<path fill-rule="nonzero" fill="rgb(18.823529%, 18.823529%, 18.823529%)" fill-opacity="1" d="M 5.820312 4.496094 L 11.113281 4.496094 C 11.84375 4.496094 12.433594 5.089844 12.433594 5.820312 L 12.433594 11.113281 C 12.433594 11.84375 11.84375 12.433594 11.113281 12.433594 L 5.820312 12.433594 C 5.089844 12.433594 4.496094 11.84375 4.496094 11.113281 L 4.496094 5.820312 C 4.496094 5.089844 5.089844 4.496094 5.820312 4.496094 Z M 5.820312 4.496094 "/>
<path fill-rule="nonzero" fill="rgb(97.647059%, 97.647059%, 97.647059%)" fill-opacity="1" d="M 6.914062 5.359375 C 5.886719 5.359375 5.359375 6.097656 5.359375 7.050781 C 5.359375 8.003906 5.921875 8.796875 6.914062 8.777344 C 7.550781 8.777344 7.933594 8.527344 8.269531 8.152344 L 7.84375 7.71875 C 7.582031 7.960938 7.289062 8.15625 6.914062 8.15625 C 6.335938 8.15625 5.984375 7.617188 5.980469 7.039062 C 5.984375 6.464844 6.355469 5.980469 6.914062 5.980469 C 7.25 5.980469 7.535156 6.105469 7.796875 6.347656 L 8.203125 5.863281 C 7.886719 5.546875 7.550781 5.359375 6.914062 5.359375 Z M 8.777344 5.359375 L 8.777344 8.777344 L 10.953125 8.777344 L 10.953125 8.15625 L 9.398438 8.15625 L 9.398438 5.359375 Z M 8.777344 5.359375 "/>
<path fill-rule="nonzero" fill="rgb(97.647059%, 97.647059%, 97.647059%)" fill-opacity="1" d="M 5.050781 10.953125 L 8.15625 10.953125 L 8.15625 11.574219 L 5.050781 11.574219 Z M 5.050781 10.953125 "/>
</svg>
