<?xml version="1.0" encoding="UTF-8"?>
<svg xmlns="http://www.w3.org/2000/svg" xmlns:xlink="http://www.w3.org/1999/xlink" width="64" height="64" viewBox="0 0 64 64">
<path fill-rule="nonzero" fill="rgb(90.980392%, 46.666667%, 47.058824%)" fill-opacity="1" d="M 15.609375 8.464844 C 15.609375 12.410156 12.410156 15.609375 8.464844 15.609375 C 4.519531 15.609375 1.324219 12.410156 1.324219 8.464844 C 1.324219 4.519531 4.519531 1.324219 8.464844 1.324219 C 12.410156 1.324219 15.609375 4.519531 15.609375 8.464844 Z M 15.609375 8.464844 "/>
<path fill-rule="nonzero" fill="rgb(18.823529%, 18.823529%, 18.823529%)" fill-opacity="1" d="M 5.820312 4.496094 L 11.113281 4.496094 C 11.84375 4.496094 12.433594 5.089844 12.433594 5.820312 L 12.433594 11.113281 C 12.433594 11.84375 11.84375 12.433594 11.113281 12.433594 L 5.820312 12.433594 C 5.089844 12.433594 4.496094 11.84375 4.496094 11.113281 L 4.496094 5.820312 C 4.496094 5.089844 5.089844 4.496094 5.820312 4.496094 Z M 5.820312 4.496094 "/>
<path fill-rule="nonzero" fill="rgb(97.647059%, 97.647059%, 97.647059%)" fill-opacity="1" d="M 8.464844 5.359375 L 9.085938 5.359375 L 10.019531 6.914062 L 10.949219 5.359375 L 11.570312 5.359375 L 11.570312 8.777344 L 10.949219 8.777344 L 10.949219 6.601562 L 10.019531 8.15625 L 9.085938 6.601562 L 9.085938 8.777344 L 8.464844 8.777344 M 6.601562 5.359375 C 7.222656 5.359375 7.84375 5.84375 7.84375 6.449219 C 7.84375 6.914062 7.550781 7.195312 7.160156 7.417969 L 7.84375 8.777344 L 7.222656 8.777344 L 6.601562 7.535156 L 5.980469 7.535156 L 5.980469 8.777344 L 5.359375 8.777344 L 5.359375 5.359375 Z M 6.601562 6.914062 C 7.085938 6.914062 7.222656 6.691406 7.234375 6.449219 C 7.222656 6.230469 7.09375 5.980469 6.601562 5.980469 L 5.980469 5.980469 L 5.980469 6.914062 Z M 6.601562 6.914062 "/>
<path fill-rule="nonzero" fill="rgb(97.647059%, 97.647059%, 97.647059%)" fill-opacity="1" d="M 5.050781 10.949219 L 8.15625 10.949219 L 8.15625 11.570312 L 5.050781 11.570312 Z M 5.050781 10.949219 "/>
</svg>
