<?xml version="1.0" encoding="UTF-8"?>
<svg xmlns="http://www.w3.org/2000/svg" xmlns:xlink="http://www.w3.org/1999/xlink" width="64" height="64" viewBox="0 0 64 64">
<path fill-rule="nonzero" fill="rgb(24.313725%, 24.313725%, 24.313725%)" fill-opacity="1" d="M 32 5 C 46.910156 5 59 17.085938 59 32 C 59 46.910156 46.910156 59 32 59 C 17.085938 59 5 46.910156 5 32 C 5 17.085938 17.085938 5 32 5 Z M 32 5 "/>
<path fill-rule="nonzero" fill="rgb(87.058824%, 50.196078%, 47.058824%)" fill-opacity="1" d="M 30.824219 37.867188 C 30.824219 41.757812 27.671875 44.910156 23.78125 44.910156 C 19.890625 44.910156 16.738281 41.757812 16.738281 37.867188 C 16.738281 33.980469 19.890625 30.824219 23.78125 30.824219 C 27.671875 30.824219 30.824219 33.980469 30.824219 37.867188 Z M 30.824219 37.867188 "/>
<path fill-rule="nonzero" fill="rgb(76.470588%, 62.745098%, 83.137255%)" fill-opacity="1" d="M 47.261719 37.867188 C 47.261719 41.757812 44.105469 44.910156 40.21875 44.910156 C 36.328125 44.910156 33.171875 41.757812 33.171875 37.867188 C 33.171875 33.980469 36.328125 30.824219 40.21875 30.824219 C 44.105469 30.824219 47.261719 33.980469 47.261719 37.867188 Z M 47.261719 37.867188 "/>
<path fill-rule="nonzero" fill="rgb(48.627451%, 72.54902%, 44.313725%)" fill-opacity="1" d="M 39.042969 23.78125 C 39.042969 27.671875 35.890625 30.824219 32 30.824219 C 28.109375 30.824219 24.957031 27.671875 24.957031 23.78125 C 24.957031 19.890625 28.109375 16.738281 32 16.738281 C 35.890625 16.738281 39.042969 19.890625 39.042969 23.78125 Z M 39.042969 23.78125 "/>
</svg>
