<?xml version="1.0" encoding="UTF-8"?>
<svg xmlns="http://www.w3.org/2000/svg" xmlns:xlink="http://www.w3.org/1999/xlink" width="64" height="64" viewBox="0 0 64 64">
<path fill-rule="nonzero" fill="rgb(94.901961%, 94.901961%, 94.901961%)" fill-opacity="1" d="M 32 5 C 46.910156 5 59 17.085938 59 32 C 59 46.910156 46.910156 59 32 59 C 17.089844 59 5 46.910156 5 32 C 5 17.085938 17.089844 5 32 5 Z M 32 5 "/>
<path fill-rule="nonzero" fill="rgb(46.27451%, 46.27451%, 46.666667%)" fill-opacity="1" d="M 43.738281 18.5 C 43.738281 19.472656 42.949219 20.261719 41.976562 20.261719 C 41.003906 20.261719 40.21875 19.472656 40.21875 18.5 C 40.21875 17.527344 41.003906 16.738281 41.976562 16.738281 C 42.949219 16.738281 43.738281 17.527344 43.738281 18.5 Z M 43.738281 18.5 "/>
<path fill-rule="nonzero" fill="rgb(61.960784%, 61.960784%, 61.960784%)" fill-opacity="1" d="M 26.128906 44.914062 C 26.128906 46.210938 25.078125 47.261719 23.78125 47.261719 C 22.484375 47.261719 21.433594 46.210938 21.433594 44.914062 C 21.433594 43.617188 22.484375 42.566406 23.78125 42.566406 C 25.078125 42.566406 26.128906 43.617188 26.128906 44.914062 Z M 26.128906 44.914062 "/>
<path fill-rule="nonzero" fill="rgb(38.039216%, 38.431373%, 38.431373%)" fill-opacity="1" d="M 23.78125 19.671875 C 23.78125 20.644531 22.992188 21.433594 22.023438 21.433594 C 21.050781 21.433594 20.261719 20.644531 20.261719 19.671875 C 20.261719 18.703125 21.050781 17.914062 22.023438 17.914062 C 22.992188 17.914062 23.78125 18.703125 23.78125 19.671875 Z M 23.78125 19.671875 "/>
<path fill-rule="nonzero" fill="rgb(95.294118%, 46.666667%, 14.901961%)" fill-opacity="1" d="M 32 19.085938 C 26.128906 19.085938 21.433594 23.78125 20.261719 27.304688 C 23.78125 23.78125 28.480469 22.609375 32 22.609375 C 35.523438 22.609375 40.21875 23.78125 43.738281 27.304688 C 42.566406 23.78125 37.867188 19.085938 32 19.085938 Z M 20.261719 35.523438 C 21.433594 39.042969 26.128906 43.738281 32 43.738281 C 37.871094 43.738281 42.566406 39.042969 43.738281 35.523438 C 40.21875 39.042969 35.519531 40.21875 32 40.21875 C 28.476562 40.21875 23.78125 39.042969 20.261719 35.523438 Z M 20.261719 35.523438 "/>
</svg>
