<?xml version="1.0" encoding="UTF-8"?>
<svg xmlns="http://www.w3.org/2000/svg" xmlns:xlink="http://www.w3.org/1999/xlink" width="64" height="64" viewBox="0 0 64 64">
<defs>
<filter id="filter-remove-color" x="0%" y="0%" width="100%" height="100%">
<feColorMatrix color-interpolation-filters="sRGB" values="0 0 0 0 1 0 0 0 0 1 0 0 0 0 1 0 0 0 1 0" />
</filter>
<mask id="mask-0">
<g filter="url(#filter-remove-color)">
<rect x="-6.4" y="-6.4" width="76.8" height="76.8" fill="rgb(0%, 0%, 0%)" fill-opacity="0.4"/>
</g>
</mask>
<clipPath id="clip-0">
<rect x="0" y="0" width="64" height="64"/>
</clipPath>
<g id="source-1883" clip-path="url(#clip-0)">
<path fill-rule="nonzero" fill="rgb(97.647059%, 97.647059%, 97.647059%)" fill-opacity="1" d="M 32.019531 22.546875 C 29.605469 22.546875 27.191406 23.472656 25.34375 25.324219 C 21.644531 29.019531 21.644531 34.976562 25.34375 38.675781 C 29.042969 42.371094 34.996094 42.371094 38.695312 38.675781 C 42.394531 34.976562 42.394531 29.019531 38.695312 25.324219 C 36.847656 23.472656 34.433594 22.546875 32.019531 22.546875 M 32.015625 27.886719 C 34.257812 27.886719 36.070312 29.703125 36.070312 31.941406 C 36.070312 34.179688 34.253906 35.996094 32.015625 35.996094 C 29.777344 35.996094 27.960938 34.179688 27.960938 31.941406 C 27.960938 29.703125 29.777344 27.886719 32.015625 27.886719 "/>
</g>
<linearGradient id="linear-pattern-0" gradientUnits="userSpaceOnUse" x1="394.570007" y1="509.799988" x2="422.730011" y2="537.950012" gradientTransform="matrix(1.3499, 0, 0, 1.3499, -519.51001, -675.080017)">
<stop offset="0" stop-color="rgb(89.803922%, 90.588235%, 90.980392%)" stop-opacity="1"/>
<stop offset="1" stop-color="rgb(86.27451%, 87.058824%, 87.843137%)" stop-opacity="1"/>
</linearGradient>
<linearGradient id="linear-pattern-1" gradientUnits="userSpaceOnUse" x1="389.570007" y1="0" x2="427.570007" y2="0" gradientTransform="matrix(0.954528, 0.954528, -0.954528, 0.954528, 142.008503, -857.964526)">
<stop offset="0" stop-color="rgb(98.823529%, 98.823529%, 98.823529%)" stop-opacity="1"/>
<stop offset="1" stop-color="rgb(93.72549%, 94.117647%, 94.509804%)" stop-opacity="1"/>
</linearGradient>
</defs>
<g mask="url(#mask-0)">
<use xlink:href="#source-1883"/>
</g>
<path fill-rule="evenodd" fill="rgb(87.843137%, 29.411765%, 30.588235%)" fill-opacity="1" d="M 32.019531 5 C 19.445312 5.515625 18.617188 6.96875 17.074219 7.753906 C 15 8.804688 12.449219 9.394531 12.714844 7.695312 C 11.832031 8.019531 10.816406 9.25 11.679688 10.789062 C 12.539062 12.328125 10.820312 14.121094 9.992188 13.148438 C 8.40625 11.292969 4.515625 12.75 5.085938 15.125 C 5.644531 14.566406 8.246094 13.34375 7.882812 16.070312 C 7.519531 18.796875 7.339844 20.886719 10.113281 22.746094 C 12.886719 24.605469 23.640625 22.722656 23.640625 22.722656 Z M 32.019531 5 "/>
<path fill-rule="nonzero" fill="url(#linear-pattern-0)" d="M 32.019531 5 C 17.128906 5 5.136719 16.929688 5.027344 31.789062 L 6.542969 31.820312 L 12.863281 48.046875 L 26.589844 56.039062 L 41.976562 55.085938 L 52.476562 47.6875 L 57.367188 31.464844 L 54.503906 19.769531 L 46.152344 9.46875 L 44.039062 7.910156 L 43.683594 7.65625 C 40.152344 5.96875 36.207031 4.996094 32.015625 4.996094 M 32.015625 11.746094 C 43.234375 11.746094 52.265625 20.777344 52.265625 31.996094 C 52.265625 43.210938 43.234375 52.242188 32.015625 52.242188 C 20.800781 52.242188 11.769531 43.210938 11.769531 31.996094 C 11.769531 20.777344 20.800781 11.746094 32.015625 11.746094 "/>
<path fill-rule="nonzero" fill="url(#linear-pattern-1)" d="M 32.019531 6.324219 C 25.460938 6.324219 18.90625 8.835938 13.882812 13.859375 C 3.835938 23.90625 3.835938 40.085938 13.882812 50.132812 C 23.929688 60.179688 40.105469 60.179688 50.15625 50.132812 C 60.203125 40.085938 60.203125 23.90625 50.15625 13.859375 C 45.132812 8.835938 38.574219 6.324219 32.015625 6.324219 M 32.015625 23.902344 C 34.085938 23.902344 36.152344 24.695312 37.738281 26.28125 C 40.90625 29.449219 40.90625 34.550781 37.738281 37.722656 C 34.570312 40.890625 29.464844 40.890625 26.296875 37.722656 C 23.125 34.554688 23.125 29.449219 26.296875 26.28125 C 27.878906 24.695312 29.949219 23.902344 32.015625 23.902344 "/>
<path fill-rule="nonzero" fill="rgb(90.196078%, 90.196078%, 90.196078%)" fill-opacity="1" d="M 32.273438 17.148438 C 31.921875 17.148438 31.570312 17.160156 31.21875 17.1875 C 30.726562 17.222656 30.238281 17.28125 29.75 17.363281 C 29.261719 17.449219 28.777344 17.558594 28.300781 17.6875 C 27.824219 17.820312 27.351562 17.980469 26.890625 18.160156 C 26.429688 18.335938 25.976562 18.539062 25.535156 18.761719 C 25.09375 18.988281 24.664062 19.234375 24.25 19.503906 C 23.832031 19.769531 23.429688 20.058594 23.042969 20.367188 C 22.652344 20.671875 22.28125 21 21.925781 21.347656 C 21.574219 21.691406 21.234375 22.054688 20.917969 22.433594 C 20.597656 22.8125 20.296875 23.203125 20.019531 23.613281 C 19.738281 24.023438 19.480469 24.445312 19.242188 24.878906 C 19.003906 25.3125 18.789062 25.757812 18.597656 26.214844 C 18.402344 26.671875 18.234375 27.136719 18.085938 27.609375 C 17.9375 28.082031 17.816406 28.5625 17.71875 29.046875 C 17.621094 29.53125 17.546875 30.019531 17.496094 30.511719 C 17.449219 31.007812 17.421875 31.5 17.421875 31.996094 C 17.421875 32.347656 17.4375 32.699219 17.460938 33.050781 C 17.496094 33.542969 17.554688 34.035156 17.640625 34.519531 C 17.722656 35.007812 17.832031 35.492188 17.964844 35.972656 C 18.097656 36.449219 18.253906 36.917969 18.433594 37.378906 C 18.613281 37.839844 18.8125 38.292969 19.035156 38.734375 C 19.261719 39.175781 19.507812 39.605469 19.777344 40.019531 C 20.046875 40.4375 20.335938 40.839844 20.644531 41.226562 C 20.949219 41.617188 21.277344 41.988281 21.621094 42.34375 C 21.964844 42.699219 22.328125 43.035156 22.707031 43.351562 C 23.085938 43.671875 23.480469 43.972656 23.886719 44.253906 C 24.296875 44.53125 24.71875 44.789062 25.152344 45.027344 C 25.589844 45.265625 26.035156 45.480469 26.492188 45.671875 C 26.945312 45.867188 27.414062 46.039062 27.886719 46.183594 C 28.359375 46.332031 28.835938 46.453125 29.320312 46.550781 C 29.808594 46.648438 30.296875 46.722656 30.789062 46.773438 C 31.28125 46.820312 31.777344 46.847656 32.273438 46.847656 C 32.625 46.847656 32.972656 46.835938 33.324219 46.808594 C 33.816406 46.773438 34.308594 46.714844 34.796875 46.628906 C 35.285156 46.546875 35.769531 46.4375 36.246094 46.304688 C 36.722656 46.171875 37.191406 46.015625 37.652344 45.835938 C 38.113281 45.65625 38.566406 45.457031 39.007812 45.234375 C 39.449219 45.007812 39.878906 44.761719 40.296875 44.492188 C 40.710938 44.222656 41.113281 43.933594 41.503906 43.628906 C 41.890625 43.320312 42.261719 42.992188 42.617188 42.648438 C 42.972656 42.304688 43.308594 41.941406 43.628906 41.5625 C 43.945312 41.183594 44.246094 40.789062 44.527344 40.382812 C 44.804688 39.972656 45.066406 39.550781 45.300781 39.117188 C 45.539062 38.679688 45.753906 38.234375 45.949219 37.78125 C 46.140625 37.324219 46.3125 36.859375 46.460938 36.382812 C 46.605469 35.914062 46.726562 35.433594 46.824219 34.949219 C 46.925781 34.464844 46.996094 33.972656 47.046875 33.480469 C 47.097656 32.988281 47.121094 32.492188 47.121094 31.996094 C 47.121094 31.648438 47.109375 31.296875 47.085938 30.945312 C 47.050781 30.453125 46.988281 29.960938 46.90625 29.472656 C 46.820312 28.984375 46.710938 28.503906 46.578125 28.023438 C 46.445312 27.546875 46.289062 27.078125 46.113281 26.617188 C 45.933594 26.15625 45.730469 25.703125 45.507812 25.261719 C 45.28125 24.820312 45.035156 24.390625 44.765625 23.976562 C 44.5 23.558594 44.210938 23.15625 43.90625 22.765625 C 43.597656 22.378906 43.269531 22.007812 42.925781 21.652344 C 42.578125 21.296875 42.214844 20.960938 41.835938 20.640625 C 41.460938 20.324219 41.066406 20.023438 40.65625 19.742188 C 40.246094 19.464844 39.824219 19.207031 39.390625 18.96875 C 38.957031 18.730469 38.511719 18.515625 38.054688 18.320312 C 37.597656 18.128906 37.132812 17.957031 36.660156 17.8125 C 36.1875 17.664062 35.707031 17.542969 35.222656 17.445312 C 34.738281 17.347656 34.25 17.273438 33.757812 17.222656 C 33.261719 17.171875 32.769531 17.148438 32.273438 17.148438 M 32.015625 23.894531 C 34.082031 23.894531 36.148438 24.683594 37.742188 26.269531 C 40.914062 29.445312 40.914062 34.554688 37.742188 37.722656 C 34.570312 40.894531 29.46875 40.894531 26.289062 37.722656 C 23.121094 34.554688 23.121094 29.445312 26.289062 26.269531 C 27.875 24.683594 29.945312 23.894531 32.015625 23.894531 "/>
<path fill-rule="evenodd" fill="rgb(92.941176%, 36.470588%, 26.666667%)" fill-opacity="1" d="M 43.449219 7.546875 C 44.292969 8.324219 45.390625 9.441406 46.066406 10.652344 C 47.246094 12.761719 47.078125 16.433594 43.449219 17.105469 C 39.820312 17.78125 39.683594 16.546875 39.695312 15.082031 C 37.765625 15.347656 36.902344 19.625 40.285156 21.113281 C 43.15625 22.382812 44.210938 21.875 49.609375 21.539062 C 55.007812 21.199219 55.640625 27.78125 53.109375 28.792969 C 50.578125 29.804688 49.613281 28 49.777344 27.019531 C 47.75 27.8125 47.503906 30.023438 48.511719 31.070312 C 56.40625 39.25 52.621094 45.566406 50.453125 46.214844 C 47.769531 47.015625 45.875 45.425781 47.246094 43.304688 C 48.363281 41.574219 47.398438 38.722656 46.042969 37.710938 C 44.679688 36.703125 42.046875 36.945312 40.917969 37.691406 C 42.542969 38.308594 44.925781 39.253906 44.292969 41.363281 C 43.804688 42.992188 42.203125 44.019531 40.203125 43.980469 C 35.640625 43.890625 37.085938 39.769531 37.714844 39.296875 C 35.261719 38.992188 33.625 43.464844 35.226562 44.992188 C 36.796875 46.492188 39.011719 47.332031 37.671875 49.632812 C 36.265625 52.046875 34.296875 53.34375 30.921875 52.671875 C 27.546875 51.996094 25.691406 49.84375 26.113281 47.859375 C 26.535156 45.878906 27.519531 45.613281 29.234375 45.582031 C 28.167969 43.316406 22.90625 43.304688 22.992188 47.226562 C 23.035156 49.253906 19.644531 49.585938 18.226562 47.3125 C 16.621094 44.738281 17.976562 43.636719 19.785156 44.0625 C 19.90625 41.199219 17.464844 42.585938 16.832031 39.421875 C 16.199219 36.257812 21.472656 33.855469 21.472656 33.855469 L 5.066406 33.527344 C 5.855469 47.765625 17.578125 58.996094 32.019531 58.996094 C 46.976562 58.996094 59.019531 46.957031 59.019531 32 C 59.019531 21.132812 52.652344 11.839844 43.449219 7.550781 "/>
<path fill-rule="nonzero" fill="rgb(24.705882%, 25.490196%, 26.666667%)" fill-opacity="1" d="M 5.519531 26.664062 C 5.195312 28.390625 5.015625 30.167969 5.015625 31.988281 C 5.015625 33.808594 5.195312 35.585938 5.519531 37.3125 L 21.214844 34.6875 C 22.695312 34.460938 23.914062 33.484375 23.914062 31.988281 C 23.914062 30.492188 22.695312 29.515625 21.214844 29.289062 Z M 5.519531 26.664062 "/>
<path fill-rule="nonzero" fill="rgb(15.294118%, 68.235294%, 37.647059%)" fill-opacity="1" d="M 22.570312 31.996094 C 22.570312 32.742188 21.964844 33.347656 21.21875 33.347656 C 20.472656 33.347656 19.871094 32.742188 19.871094 31.996094 C 19.871094 31.253906 20.472656 30.648438 21.21875 30.648438 C 21.964844 30.648438 22.570312 31.253906 22.570312 31.996094 Z M 22.570312 31.996094 "/>
<path fill-rule="nonzero" fill="rgb(70.196078%, 70.196078%, 70.196078%)" fill-opacity="1" d="M 37.417969 31.996094 C 37.417969 33.378906 36.890625 34.753906 35.832031 35.8125 C 34.777344 36.871094 33.398438 37.398438 32.019531 37.398438 L 32.019531 38.746094 C 33.742188 38.746094 35.46875 38.089844 36.789062 36.765625 C 38.109375 35.445312 38.769531 33.722656 38.769531 31.996094 Z M 37.417969 31.996094 "/>
</svg>
