<?xml version="1.0" encoding="UTF-8"?>
<svg xmlns="http://www.w3.org/2000/svg" xmlns:xlink="http://www.w3.org/1999/xlink" width="64" height="64" viewBox="0 0 64 64">
<defs>
<filter id="filter-remove-color" x="0%" y="0%" width="100%" height="100%">
<feColorMatrix color-interpolation-filters="sRGB" values="0 0 0 0 1 0 0 0 0 1 0 0 0 0 1 0 0 0 1 0" />
</filter>
<mask id="mask-0">
<g filter="url(#filter-remove-color)">
<rect x="-6.4" y="-6.4" width="76.8" height="76.8" fill="rgb(0%, 0%, 0%)" fill-opacity="0.15"/>
</g>
</mask>
<clipPath id="clip-0">
<rect x="0" y="0" width="17" height="17"/>
</clipPath>
<g id="source-8434" clip-path="url(#clip-0)">
<path fill-rule="nonzero" fill="rgb(100%, 100%, 100%)" fill-opacity="1" d="M 14.289062 8.460938 C 14.289062 5.246094 11.683594 2.636719 8.46875 2.636719 C 5.253906 2.636719 2.644531 5.246094 2.644531 8.460938 C 2.644531 11.675781 5.253906 14.28125 8.46875 14.28125 C 11.683594 14.28125 14.289062 11.675781 14.289062 8.460938 Z M 14.289062 8.460938 "/>
</g>
</defs>
<path fill-rule="nonzero" fill="rgb(34.117647%, 40.392157%, 74.901961%)" fill-opacity="1" d="M 15.609375 8.464844 C 15.609375 4.519531 12.410156 1.324219 8.464844 1.324219 C 4.519531 1.324219 1.324219 4.519531 1.324219 8.464844 C 1.324219 12.410156 4.519531 15.609375 8.464844 15.609375 C 12.410156 15.609375 15.609375 12.410156 15.609375 8.464844 Z M 15.609375 8.464844 "/>
<g mask="url(#mask-0)">
<use xlink:href="#source-8434"/>
</g>
<path fill-rule="nonzero" fill="rgb(100%, 100%, 100%)" fill-opacity="1" d="M 8.46875 3.699219 C 7.882812 3.699219 7.410156 4.175781 7.410156 4.757812 C 7.410156 5.34375 7.882812 5.816406 8.46875 5.816406 C 9.050781 5.816406 9.523438 5.34375 9.523438 4.757812 C 9.523438 4.175781 9.050781 3.699219 8.46875 3.699219 Z M 5.292969 6.347656 L 5.292969 6.875 L 7.40625 6.875 L 7.40625 12.695312 L 7.9375 12.695312 L 7.9375 9.523438 L 8.996094 9.523438 L 8.996094 12.695312 L 9.523438 12.695312 L 9.523438 6.875 L 11.640625 6.875 L 11.640625 6.347656 Z M 5.292969 6.347656 "/>
</svg>
