<?xml version="1.0" encoding="UTF-8"?>
<svg xmlns="http://www.w3.org/2000/svg" xmlns:xlink="http://www.w3.org/1999/xlink" width="64" height="64" viewBox="0 0 64 64">
<defs>
<filter id="filter-remove-color" x="0%" y="0%" width="100%" height="100%">
<feColorMatrix color-interpolation-filters="sRGB" values="0 0 0 0 1 0 0 0 0 1 0 0 0 0 1 0 0 0 1 0" />
</filter>
<mask id="mask-0">
<g filter="url(#filter-remove-color)">
<rect x="-6.4" y="-6.4" width="76.8" height="76.8" fill="rgb(0%, 0%, 0%)" fill-opacity="0.15"/>
</g>
</mask>
<clipPath id="clip-0">
<rect x="0" y="0" width="64" height="64"/>
</clipPath>
<g id="source-3012" clip-path="url(#clip-0)">
<path fill-rule="nonzero" fill="rgb(100%, 100%, 100%)" fill-opacity="1" d="M 55 32 C 55 44.699219 44.703125 54.996094 32.003906 54.996094 C 19.300781 54.996094 9.003906 44.699219 9.003906 32 C 9.003906 19.296875 19.300781 9 32.003906 9 C 44.703125 9 55 19.296875 55 32 Z M 55 32 "/>
</g>
</defs>
<path fill-rule="nonzero" fill="rgb(4.705882%, 71.372549%, 100%)" fill-opacity="1" d="M 59.003906 32 C 59.003906 46.910156 46.914062 59 32.003906 59 C 17.089844 59 5.003906 46.910156 5.003906 32 C 5.003906 17.085938 17.089844 5 32.003906 5 C 46.914062 5 59.003906 17.085938 59.003906 32 Z M 59.003906 32 "/>
<g mask="url(#mask-0)">
<use xlink:href="#source-3012"/>
</g>
<path fill-rule="nonzero" fill="rgb(100%, 100%, 100%)" fill-opacity="1" d="M 29.996094 13.359375 C 27.078125 13.453125 23.785156 14.363281 20.582031 16.679688 C 17.261719 19.085938 15.804688 19.746094 14.191406 20.546875 C 15.628906 20.65625 24.21875 19.429688 25.738281 24.476562 C 19.644531 26.21875 16.597656 30.058594 19.191406 35.511719 C 21.8125 41.023438 26.34375 41.148438 31.9375 44.890625 C 36.304688 47.8125 37.375 49.300781 40.191406 53.347656 C 39.605469 47.753906 36.898438 40.542969 35.632812 37.367188 C 40.519531 40.289062 43 40.945312 49.8125 41.660156 C 40.972656 35.367188 39.292969 34.136719 34.234375 29.824219 C 30.839844 29.996094 31.214844 29.964844 29.210938 30.082031 C 31.847656 33.800781 32.886719 39.261719 28.070312 40.261719 C 23.558594 41.199219 19.210938 37.308594 20.445312 33.140625 C 21.789062 28.613281 27.585938 29.480469 33.664062 28.695312 C 39.742188 27.910156 45.300781 21.949219 48.640625 17.535156 L 48.636719 17.535156 C 42.9375 19.480469 39.460938 20.613281 31.011719 22.964844 C 29.644531 20.304688 27.875 15.246094 37.15625 14.894531 C 35.457031 13.972656 32.914062 13.261719 29.996094 13.359375 Z M 29.996094 13.359375 "/>
</svg>
