<?xml version="1.0" encoding="UTF-8"?>
<svg xmlns="http://www.w3.org/2000/svg" xmlns:xlink="http://www.w3.org/1999/xlink" width="64" height="64" viewBox="0 0 64 64">
<defs>
<radialGradient id="radial-pattern-0" gradientUnits="userSpaceOnUse" cx="23" cy="22.5" fx="23" fy="22.5" r="2.5" gradientTransform="matrix(0.317496, 0, 0, 0.317496, 0.5927, 0.84614)">
<stop offset="0" stop-color="rgb(74.901961%, 74.901961%, 93.72549%)" stop-opacity="1"/>
<stop offset="1" stop-color="rgb(65.098039%, 65.098039%, 91.764706%)" stop-opacity="1"/>
</radialGradient>
<radialGradient id="radial-pattern-1" gradientUnits="userSpaceOnUse" cx="24.75" cy="22" fx="24.75" fy="22" r="2.5" gradientTransform="matrix(0.317496, 0, 0, 0.317496, 0.5927, 0.84614)">
<stop offset="0" stop-color="rgb(87.058824%, 87.058824%, 87.058824%)" stop-opacity="1"/>
<stop offset="1" stop-color="rgb(82.745098%, 82.745098%, 82.745098%)" stop-opacity="1"/>
</radialGradient>
<radialGradient id="radial-pattern-2" gradientUnits="userSpaceOnUse" cx="27" cy="22.75" fx="27" fy="22.75" r="2.5" gradientTransform="matrix(0.317496, 0, 0, 0.317496, 0.5927, 0.84614)">
<stop offset="0" stop-color="rgb(74.901961%, 74.901961%, 93.72549%)" stop-opacity="1"/>
<stop offset="1" stop-color="rgb(65.098039%, 65.098039%, 91.764706%)" stop-opacity="1"/>
</radialGradient>
<radialGradient id="radial-pattern-3" gradientUnits="userSpaceOnUse" cx="22.799999" cy="25" fx="22.799999" fy="25" r="2.5" gradientTransform="matrix(0.317496, 0, 0, 0.317496, 0.5927, 0.84614)">
<stop offset="0" stop-color="rgb(87.058824%, 87.058824%, 87.058824%)" stop-opacity="1"/>
<stop offset="1" stop-color="rgb(82.745098%, 82.745098%, 82.745098%)" stop-opacity="1"/>
</radialGradient>
<radialGradient id="radial-pattern-4" gradientUnits="userSpaceOnUse" cx="26.75" cy="25.25" fx="26.75" fy="25.25" r="2.5" gradientTransform="matrix(0.317496, 0, 0, 0.317496, 0.5927, 0.84614)">
<stop offset="0" stop-color="rgb(87.058824%, 87.058824%, 87.058824%)" stop-opacity="1"/>
<stop offset="1" stop-color="rgb(82.745098%, 82.745098%, 82.745098%)" stop-opacity="1"/>
</radialGradient>
<radialGradient id="radial-pattern-5" gradientUnits="userSpaceOnUse" cx="24.75" cy="26" fx="24.75" fy="26" r="2.5" gradientTransform="matrix(0.317496, 0, 0, 0.317496, 0.5927, 0.84614)">
<stop offset="0" stop-color="rgb(74.901961%, 74.901961%, 93.72549%)" stop-opacity="1"/>
<stop offset="1" stop-color="rgb(65.098039%, 65.098039%, 91.764706%)" stop-opacity="1"/>
</radialGradient>
</defs>
<path fill-rule="nonzero" fill="rgb(25.882353%, 25.882353%, 25.882353%)" fill-opacity="1" d="M 15.609375 8.460938 C 15.609375 12.40625 12.410156 15.605469 8.464844 15.605469 C 4.519531 15.605469 1.324219 12.40625 1.324219 8.460938 C 1.324219 4.515625 4.519531 1.316406 8.464844 1.316406 C 12.410156 1.316406 15.609375 4.515625 15.609375 8.460938 Z M 15.609375 8.460938 "/>
<path fill-rule="nonzero" fill="rgb(89.411765%, 50.980392%, 50.980392%)" fill-opacity="1" d="M 8.464844 5.925781 C 7.1875 5.925781 6.027344 6.136719 5.179688 6.574219 C 4.757812 6.792969 4.410156 7.054688 4.160156 7.359375 C 3.914062 7.664062 3.703125 8.027344 3.703125 8.464844 C 3.703125 8.90625 3.914062 9.265625 4.160156 9.570312 C 4.410156 9.875 4.757812 10.140625 5.179688 10.359375 C 6.027344 10.796875 7.1875 11.007812 8.464844 11.007812 C 9.746094 11.007812 10.90625 10.796875 11.753906 10.359375 C 12.175781 10.140625 12.523438 9.875 12.769531 9.570312 C 13.019531 9.265625 13.230469 8.90625 13.230469 8.464844 C 13.230469 8.027344 13.019531 7.664062 12.769531 7.359375 C 12.523438 7.054688 12.175781 6.792969 11.753906 6.574219 C 10.90625 6.136719 9.746094 5.925781 8.464844 5.925781 M 8.464844 6.339844 C 9.730469 6.339844 10.867188 6.574219 11.6875 7 C 12.097656 7.210938 12.359375 7.457031 12.578125 7.722656 C 12.796875 7.988281 12.847656 8.246094 12.847656 8.464844 C 12.847656 8.683594 12.796875 8.945312 12.578125 9.210938 C 12.359375 9.476562 12.097656 9.722656 11.6875 9.933594 C 10.867188 10.355469 9.730469 10.59375 8.464844 10.59375 C 7.203125 10.59375 6.066406 10.355469 5.246094 9.933594 C 4.835938 9.722656 4.570312 9.476562 4.355469 9.210938 C 4.136719 8.945312 4.085938 8.683594 4.085938 8.464844 C 4.085938 8.246094 4.136719 7.988281 4.355469 7.722656 C 4.570312 7.457031 4.835938 7.210938 5.246094 7 C 6.066406 6.574219 7.203125 6.339844 8.464844 6.339844 "/>
<path fill-rule="nonzero" fill="rgb(89.411765%, 50.980392%, 50.980392%)" fill-opacity="1" d="M 6.265625 7.195312 C 5.625 8.304688 5.226562 9.414062 5.183594 10.367188 C 5.160156 10.84375 5.21875 11.273438 5.355469 11.644531 C 5.496094 12.011719 5.703125 12.371094 6.085938 12.59375 C 6.464844 12.8125 6.882812 12.8125 7.269531 12.75 C 7.660156 12.683594 8.058594 12.515625 8.460938 12.261719 C 9.265625 11.746094 10.027344 10.84375 10.664062 9.738281 C 11.308594 8.628906 11.703125 7.519531 11.746094 6.566406 C 11.769531 6.089844 11.714844 5.660156 11.574219 5.289062 C 11.4375 4.921875 11.226562 4.5625 10.847656 4.339844 C 10.464844 4.121094 10.050781 4.121094 9.660156 4.183594 C 9.273438 4.25 8.871094 4.414062 8.46875 4.671875 C 7.667969 5.1875 6.90625 6.085938 6.265625 7.195312 M 6.625 7.402344 C 7.253906 6.308594 8.03125 5.441406 8.804688 4.941406 C 9.195312 4.695312 9.539062 4.585938 9.878906 4.53125 C 10.214844 4.476562 10.46875 4.5625 10.65625 4.671875 C 10.847656 4.78125 11.042969 4.957031 11.167969 5.277344 C 11.289062 5.597656 11.367188 5.949219 11.347656 6.410156 C 11.304688 7.332031 10.941406 8.4375 10.308594 9.53125 C 9.675781 10.625 8.902344 11.492188 8.125 11.988281 C 7.738281 12.238281 7.394531 12.34375 7.054688 12.398438 C 6.714844 12.453125 6.464844 12.371094 6.273438 12.261719 C 6.085938 12.152344 5.886719 11.976562 5.765625 11.65625 C 5.644531 11.335938 5.5625 10.980469 5.585938 10.523438 C 5.628906 9.601562 5.992188 8.496094 6.625 7.402344 "/>
<path fill-rule="nonzero" fill="rgb(89.411765%, 50.980392%, 50.980392%)" fill-opacity="1" d="M 10.667969 7.207031 C 11.308594 8.304688 11.703125 9.40625 11.75 10.351562 C 11.769531 10.824219 11.714844 11.253906 11.578125 11.617188 C 11.4375 11.984375 11.226562 12.34375 10.847656 12.5625 C 10.46875 12.78125 10.050781 12.78125 9.660156 12.714844 C 9.273438 12.652344 8.871094 12.488281 8.472656 12.230469 C 7.667969 11.722656 6.90625 10.828125 6.265625 9.726562 C 5.625 8.625 5.230469 7.523438 5.183594 6.578125 C 5.164062 6.105469 5.21875 5.679688 5.355469 5.3125 C 5.496094 4.949219 5.703125 4.589844 6.085938 4.371094 C 6.464844 4.152344 6.882812 4.152344 7.269531 4.214844 C 7.660156 4.277344 8.058594 4.445312 8.460938 4.699219 C 9.265625 5.210938 10.027344 6.105469 10.667969 7.207031 Z M 10.308594 7.410156 C 9.675781 6.324219 8.902344 5.460938 8.125 4.96875 C 7.738281 4.722656 7.394531 4.617188 7.054688 4.5625 C 6.714844 4.507812 6.464844 4.589844 6.277344 4.699219 C 6.085938 4.808594 5.886719 4.980469 5.765625 5.300781 C 5.644531 5.617188 5.566406 5.96875 5.585938 6.425781 C 5.628906 7.339844 5.992188 8.4375 6.625 9.523438 C 7.257812 10.609375 8.03125 11.46875 8.804688 11.964844 C 9.195312 12.210938 9.539062 12.316406 9.878906 12.371094 C 10.214844 12.425781 10.46875 12.34375 10.65625 12.234375 C 10.847656 12.125 11.046875 11.949219 11.167969 11.632812 C 11.289062 11.316406 11.367188 10.964844 11.347656 10.507812 C 11.304688 9.59375 10.941406 8.496094 10.308594 7.410156 Z M 10.308594 7.410156 "/>
<path fill-rule="nonzero" fill="url(#radial-pattern-0)" d="M 8.6875 7.988281 C 8.6875 8.429688 8.332031 8.785156 7.894531 8.785156 C 7.457031 8.785156 7.101562 8.429688 7.101562 7.988281 C 7.101562 7.550781 7.457031 7.195312 7.894531 7.195312 C 8.332031 7.195312 8.6875 7.550781 8.6875 7.988281 Z M 8.6875 7.988281 "/>
<path fill-rule="nonzero" fill="url(#radial-pattern-1)" d="M 9.246094 7.832031 C 9.246094 8.269531 8.890625 8.625 8.449219 8.625 C 8.011719 8.625 7.65625 8.269531 7.65625 7.832031 C 7.65625 7.394531 8.011719 7.039062 8.449219 7.039062 C 8.890625 7.039062 9.246094 7.394531 9.246094 7.832031 Z M 9.246094 7.832031 "/>
<path fill-rule="nonzero" fill="url(#radial-pattern-2)" d="M 9.957031 8.070312 C 9.957031 8.507812 9.601562 8.863281 9.164062 8.863281 C 8.726562 8.863281 8.371094 8.507812 8.371094 8.070312 C 8.371094 7.628906 8.726562 7.277344 9.164062 7.277344 C 9.601562 7.277344 9.957031 7.628906 9.957031 8.070312 Z M 9.957031 8.070312 "/>
<path fill-rule="nonzero" fill="url(#radial-pattern-3)" d="M 8.625 8.785156 C 8.625 9.222656 8.269531 9.578125 7.832031 9.578125 C 7.394531 9.578125 7.039062 9.222656 7.039062 8.785156 C 7.039062 8.34375 7.394531 7.988281 7.832031 7.988281 C 8.269531 7.988281 8.625 8.34375 8.625 8.785156 Z M 8.625 8.785156 "/>
<path fill-rule="nonzero" fill="url(#radial-pattern-4)" d="M 9.878906 8.863281 C 9.878906 9.300781 9.523438 9.65625 9.085938 9.65625 C 8.648438 9.65625 8.292969 9.300781 8.292969 8.863281 C 8.292969 8.425781 8.648438 8.070312 9.085938 8.070312 C 9.523438 8.070312 9.878906 8.425781 9.878906 8.863281 Z M 9.878906 8.863281 "/>
<path fill-rule="nonzero" fill="url(#radial-pattern-5)" d="M 9.246094 9.101562 C 9.246094 9.539062 8.890625 9.894531 8.449219 9.894531 C 8.011719 9.894531 7.65625 9.539062 7.65625 9.101562 C 7.65625 8.664062 8.011719 8.308594 8.449219 8.308594 C 8.890625 8.308594 9.246094 8.664062 9.246094 9.101562 Z M 9.246094 9.101562 "/>
</svg>
