<?xml version="1.0" encoding="UTF-8"?>
<svg xmlns="http://www.w3.org/2000/svg" xmlns:xlink="http://www.w3.org/1999/xlink" width="64" height="64" viewBox="0 0 64 64">
<path fill-rule="nonzero" fill="rgb(17.254902%, 60.784314%, 100%)" fill-opacity="1" d="M 8.378906 1.324219 C 10.953125 1.292969 13.34375 2.648438 14.640625 4.871094 C 15.933594 7.09375 15.933594 9.839844 14.640625 12.0625 C 13.34375 14.285156 10.953125 15.640625 8.378906 15.609375 C 4.46875 15.5625 1.324219 12.378906 1.324219 8.464844 C 1.324219 4.554688 4.46875 1.371094 8.378906 1.324219 Z M 8.378906 1.324219 "/>
<path fill-rule="nonzero" fill="rgb(100%, 100%, 100%)" fill-opacity="1" d="M 9.273438 4.234375 L 7.660156 4.476562 L 7.660156 10.3125 L 9.273438 9.878906 L 9.273438 7.625 L 10.886719 10.28125 L 12.496094 9.675781 L 10.480469 7.257812 L 12.5 4.636719 L 10.933594 4.234375 L 9.273438 6.878906 Z M 5.988281 5.816406 C 5.949219 5.816406 5.910156 5.832031 5.882812 5.859375 L 5.25 6.492188 C 5.191406 6.550781 5.203125 6.636719 5.25 6.703125 L 5.90625 7.734375 C 5.855469 7.835938 5.816406 7.941406 5.78125 8.046875 L 5.773438 8.058594 L 4.585938 8.324219 C 4.503906 8.34375 4.433594 8.390625 4.433594 8.472656 L 4.433594 9.265625 C 4.433594 9.347656 4.503906 9.398438 4.585938 9.414062 L 5.773438 9.679688 L 5.785156 9.703125 C 5.816406 9.804688 5.859375 9.90625 5.90625 10.003906 L 5.25 11.035156 C 5.203125 11.105469 5.191406 11.1875 5.25 11.246094 L 5.882812 11.878906 C 5.910156 11.910156 5.949219 11.925781 5.988281 11.925781 C 6.027344 11.925781 6.066406 11.910156 6.09375 11.878906 L 7.121094 11.226562 C 7.222656 11.273438 7.328125 11.316406 7.433594 11.351562 C 7.441406 11.355469 7.449219 11.359375 7.453125 11.363281 L 7.71875 12.550781 C 7.71875 12.632812 7.785156 12.699219 7.867188 12.699219 L 8.765625 12.699219 C 8.847656 12.699219 8.894531 12.632812 8.914062 12.550781 L 9.175781 11.324219 C 9.300781 11.28125 9.417969 11.226562 9.527344 11.160156 L 10.53125 11.878906 C 10.5625 11.90625 10.597656 11.921875 10.636719 11.921875 C 10.679688 11.921875 10.714844 11.90625 10.742188 11.878906 L 11.378906 11.246094 C 11.4375 11.1875 11.421875 11.105469 11.378906 11.035156 L 10.996094 10.453125 L 10.957031 10.46875 C 10.867188 10.503906 10.761719 10.46875 10.714844 10.386719 L 10.3125 9.722656 C 9.902344 10.699219 8.863281 11.25 7.828125 11.042969 C 6.792969 10.835938 6.046875 9.925781 6.046875 8.871094 C 6.046875 7.929688 6.632812 7.128906 7.457031 6.804688 L 7.457031 6.363281 L 7.453125 6.378906 C 7.445312 6.382812 7.4375 6.386719 7.429688 6.390625 C 7.324219 6.425781 7.222656 6.464844 7.121094 6.515625 L 6.09375 5.859375 C 6.066406 5.832031 6.027344 5.816406 5.988281 5.816406 Z M 5.988281 5.816406 "/>
</svg>
