<?xml version="1.0" encoding="UTF-8"?>
<svg xmlns="http://www.w3.org/2000/svg" xmlns:xlink="http://www.w3.org/1999/xlink" width="64" height="64" viewBox="0 0 64 64">
<path fill-rule="nonzero" fill="rgb(31.764706%, 65.490196%, 89.019608%)" fill-opacity="1" d="M 15.609375 8.464844 C 15.609375 12.410156 12.414062 15.609375 8.46875 15.609375 C 4.519531 15.609375 1.324219 12.410156 1.324219 8.464844 C 1.324219 4.519531 4.519531 1.320312 8.46875 1.320312 C 12.414062 1.320312 15.609375 4.519531 15.609375 8.464844 Z M 15.609375 8.464844 "/>
<path fill-rule="nonzero" fill="rgb(27.45098%, 52.941176%, 70.588235%)" fill-opacity="1" d="M 4.496094 5.160156 L 4.496094 6.070312 L 10.867188 12.433594 L 11.773438 12.433594 L 11.773438 11.527344 L 5.40625 5.160156 Z M 4.496094 5.160156 "/>
<path fill-rule="nonzero" fill="rgb(97.647059%, 97.647059%, 97.647059%)" fill-opacity="1" d="M 10.285156 4.496094 C 9.097656 4.496094 8.136719 5.460938 8.136719 6.648438 C 8.136719 7.007812 8.226562 7.367188 8.402344 7.683594 L 4.496094 11.609375 L 4.496094 12.433594 L 5.488281 12.433594 L 5.820312 12.105469 L 5.820312 11.609375 L 5.984375 11.441406 L 6.480469 11.441406 L 6.8125 11.113281 L 7.144531 11.113281 L 7.144531 10.449219 L 7.472656 10.121094 L 8.136719 10.121094 L 8.136719 9.625 L 9.253906 8.53125 C 9.570312 8.703125 9.925781 8.796875 10.285156 8.796875 C 11.472656 8.796875 12.433594 7.835938 12.433594 6.648438 C 12.433594 5.460938 11.472656 4.496094 10.285156 4.496094 Z M 10.78125 5.488281 C 11.148438 5.488281 11.441406 5.785156 11.441406 6.152344 C 11.441406 6.515625 11.148438 6.8125 10.78125 6.8125 C 10.417969 6.8125 10.121094 6.515625 10.121094 6.152344 C 10.121094 5.785156 10.417969 5.488281 10.78125 5.488281 Z M 10.78125 5.488281 "/>
</svg>
