<?xml version="1.0" encoding="UTF-8"?>
<svg xmlns="http://www.w3.org/2000/svg" xmlns:xlink="http://www.w3.org/1999/xlink" width="64" height="64" viewBox="0 0 64 64">
<path fill-rule="nonzero" fill="rgb(95.294118%, 76.078431%, 16.862745%)" fill-opacity="1" d="M 32 5 C 46.910156 5 59 17.089844 59 32 C 59 46.910156 46.910156 59 32 59 C 17.089844 59 5 46.910156 5 32 C 5 17.089844 17.089844 5 32 5 Z M 32 5 "/>
<path fill-rule="nonzero" fill="rgb(97.647059%, 97.647059%, 97.647059%)" fill-opacity="1" d="M 44.03125 22.59375 L 41.40625 19.96875 C 38.675781 17.238281 34.253906 17.238281 31.523438 19.96875 L 19.960938 31.527344 C 17.234375 34.257812 17.234375 38.683594 19.960938 41.410156 L 22.589844 44.039062 C 25.316406 46.765625 29.742188 46.765625 32.472656 44.039062 L 44.03125 32.476562 C 46.761719 29.75 46.761719 25.324219 44.03125 22.59375 "/>
<path fill-rule="nonzero" fill="rgb(20%, 61.176471%, 75.294118%)" fill-opacity="1" d="M 44.03125 22.589844 C 46.769531 25.328125 46.769531 29.734375 44.03125 32.472656 L 43.613281 32.894531 L 31.09375 20.371094 L 31.515625 19.953125 C 34.246094 17.214844 38.660156 17.214844 41.394531 19.953125 "/>
<path fill-rule="nonzero" fill="rgb(97.647059%, 97.647059%, 97.647059%)" fill-opacity="1" d="M 39.382812 22.953125 C 38.925781 23.410156 38.925781 24.152344 39.382812 24.613281 C 39.84375 25.070312 40.585938 25.070312 41.042969 24.613281 C 41.503906 24.152344 41.503906 23.410156 41.042969 22.953125 C 40.585938 22.492188 39.84375 22.492188 39.382812 22.953125 "/>
<path fill-rule="nonzero" fill="rgb(52.54902%, 52.54902%, 52.54902%)" fill-opacity="1" d="M 40.636719 23.21875 L 40.464844 23.785156 L 40.082031 24.21875 C 40.691406 24.761719 41.367188 25.953125 42.105469 26.875 C 42.171875 27.246094 42.289062 27.519531 42.324219 27.953125 C 42.464844 29.664062 42.714844 31.804688 43.753906 33.789062 C 43.414062 34.882812 43.035156 35.984375 41.984375 37.25 L 42.058594 37.183594 C 38.503906 40.269531 36.835938 42.25 36.289062 43.59375 C 36.152344 43.929688 36.082031 44.238281 36.117188 44.558594 C 36.15625 44.882812 36.371094 45.222656 36.664062 45.371094 C 37.246094 45.671875 37.824219 45.484375 38.46875 45.203125 C 39.75 44.636719 41.367188 43.351562 42.699219 41.464844 C 44.03125 39.578125 45.0625 37.074219 45 34.144531 C 44.996094 34.058594 44.972656 33.972656 44.933594 33.894531 C 45.460938 32.011719 45.515625 30.234375 44.949219 28.75 C 44.535156 27.660156 43.832031 27.246094 43.1875 26.417969 C 43.097656 25.972656 43.097656 25.480469 42.902344 25.078125 C 42.558594 24.363281 41.832031 23.859375 40.976562 23.496094 C 40.945312 23.464844 40.894531 23.375 40.863281 23.347656 L 40.832031 23.378906 C 40.738281 23.347656 40.734375 23.246094 40.636719 23.21875 Z M 42.480469 38.433594 C 42.152344 39.175781 42.175781 40.175781 41.742188 40.789062 C 40.523438 42.511719 38.996094 43.691406 37.996094 44.128906 C 37.566406 44.316406 37.359375 44.289062 37.3125 44.300781 C 37.320312 44.234375 37.316406 44.191406 37.378906 44.039062 C 37.722656 43.199219 39.425781 41.164062 42.480469 38.433594 Z M 42.480469 38.433594 "/>
</svg>
