<?xml version="1.0" encoding="UTF-8"?>
<svg xmlns="http://www.w3.org/2000/svg" xmlns:xlink="http://www.w3.org/1999/xlink" width="64" height="64" viewBox="0 0 64 64">
<path fill-rule="nonzero" fill="rgb(21.176471%, 74.117647%, 97.254902%)" fill-opacity="1" d="M 59 32 C 59 46.910156 46.910156 59 32 59 C 17.089844 59 5 46.910156 5 32 C 5 17.089844 17.089844 5 32 5 C 46.910156 5 59 17.089844 59 32 Z M 59 32 "/>
<path fill-rule="nonzero" fill="rgb(0%, 53.72549%, 86.27451%)" fill-opacity="1" d="M 31.945312 5.101562 C 28.542969 5.101562 25.304688 5.75 22.3125 6.886719 C 22.097656 7.085938 21.8125 7.238281 21.589844 7.21875 C 21.558594 7.214844 21.527344 7.199219 21.496094 7.183594 C 20.023438 7.800781 18.625 8.554688 17.296875 9.410156 C 17.46875 9.6875 17.519531 10 17.167969 10.152344 C 17.105469 10.175781 16.355469 10.25 16.09375 10.246094 C 12.324219 12.980469 9.296875 16.65625 7.363281 20.949219 C 7.394531 20.945312 7.421875 20.929688 7.453125 20.929688 C 7.746094 20.925781 8.167969 21.007812 8.453125 21.070312 C 8.710938 21.121094 8.921875 21.296875 9.148438 21.3125 C 9.785156 21.363281 9.9375 20.867188 10.460938 20.589844 C 11 20.664062 11.355469 20.496094 11.84375 20.550781 C 12.175781 20.589844 12.414062 20.941406 12.671875 20.960938 C 12.890625 20.980469 13.082031 20.757812 13.292969 20.789062 C 13.496094 20.820312 13.847656 21.265625 13.882812 21.515625 C 13.925781 21.824219 13.652344 22.105469 13.742188 22.445312 C 14.066406 22.773438 14.660156 22.84375 15.125 23.03125 C 15.425781 22.785156 15.164062 22.320312 15.125 21.960938 C 15.117188 21.800781 15.144531 21.660156 15.125 21.515625 C 15.097656 21.265625 14.992188 21.039062 14.988281 20.828125 C 14.984375 19.84375 15.78125 19.386719 16.441406 19 C 16.726562 18.828125 16.953125 18.535156 17.199219 18.410156 C 17.550781 18.234375 17.8125 18.195312 18.101562 18.03125 C 18.625 17.738281 19.074219 17.503906 19.484375 17.171875 C 19.671875 16.726562 19.503906 16.128906 19.519531 15.6875 C 19.707031 15.574219 19.871094 15.738281 20.070312 15.722656 C 20.386719 15.65625 20.414062 15.210938 20.59375 15.035156 C 20.695312 14.933594 20.980469 14.859375 21.113281 14.757812 C 21.425781 14.511719 21.527344 14.140625 21.804688 14.035156 C 21.902344 13.992188 22.128906 14.007812 22.285156 13.964844 C 22.492188 13.910156 22.78125 13.667969 23.117188 13.554688 C 23.332031 13.480469 23.832031 13.464844 23.914062 13.382812 C 24.015625 13.277344 23.910156 12.984375 23.949219 12.828125 C 24.117188 12.050781 25.292969 11.886719 25.988281 11.625 C 26.472656 11.441406 26.972656 11.101562 27.507812 11.207031 C 27.402344 11.574219 26.90625 11.445312 26.988281 11.894531 C 27.105469 12.519531 27.945312 11.714844 28.164062 11.625 C 28.585938 11.445312 29.308594 11.339844 29.863281 11.136719 C 30.347656 10.960938 31.21875 10.691406 30.761719 10.136719 C 30.378906 10.117188 30.195312 10.582031 29.863281 10.726562 C 29.632812 10.761719 29.675781 10.535156 29.480469 10.515625 C 29.296875 10.492188 29.191406 10.6875 29 10.652344 C 28.808594 10.621094 28.542969 10.324219 28.511719 10.101562 C 28.4375 9.527344 29 9.289062 29.238281 8.859375 C 29.082031 8.339844 28.359375 8.753906 27.921875 8.550781 C 27.964844 8.238281 28.285156 8.027344 28.648438 7.964844 C 28.945312 7.917969 29.613281 7.941406 29.792969 8.097656 C 29.894531 8.1875 29.800781 8.402344 29.964844 8.546875 C 30.140625 8.707031 30.359375 8.691406 30.585938 8.652344 C 30.667969 8.261719 30.074219 8.359375 30.140625 8.097656 C 30.605469 7.792969 31.367188 8.042969 31.9375 7.960938 C 32.265625 7.910156 32.613281 7.679688 32.902344 7.515625 C 33.179688 7.359375 33.542969 7.085938 33.835938 7.34375 C 33.914062 7.625 33.578125 7.71875 33.421875 7.859375 C 32.894531 8.328125 32.347656 8.867188 31.9375 9.410156 C 32.191406 9.65625 32.648438 9.53125 33.074219 9.582031 C 33.242188 9.605469 33.453125 9.652344 33.628906 9.6875 C 33.835938 9.722656 34.054688 9.710938 34.214844 9.753906 C 34.503906 9.824219 34.582031 10.136719 34.871094 10.136719 C 35.34375 10.132812 35.347656 9.625 35.082031 9.304688 C 35.167969 8.980469 35.296875 8.8125 35.183594 8.582031 C 34.972656 8.15625 34.191406 8.5625 34.148438 8.03125 C 34.125 7.6875 34.4375 7.703125 34.5625 7.445312 C 34.507812 6.78125 35.109375 6.734375 35.046875 6.136719 C 35.019531 5.886719 34.804688 5.886719 34.632812 5.652344 C 34.542969 5.539062 34.5 5.316406 34.398438 5.21875 C 33.589844 5.148438 32.773438 5.101562 31.949219 5.101562 Z M 18.03125 10.527344 L 18.035156 10.527344 C 18.195312 10.550781 18.390625 10.722656 18.585938 10.738281 C 18.769531 10.746094 18.921875 10.636719 19.035156 10.667969 C 19.324219 10.746094 19.445312 11.179688 19.171875 11.394531 C 18.945312 11.421875 18.859375 11.292969 18.6875 11.324219 C 18.21875 11.40625 18.039062 12.324219 17.6875 12.292969 C 17.355469 12.265625 17.175781 11.460938 17.515625 11.21875 C 17.535156 11.011719 17.359375 10.976562 17.371094 10.769531 C 17.472656 10.644531 17.753906 10.507812 18.03125 10.53125 Z M 16.472656 10.636719 C 16.570312 10.640625 16.640625 10.664062 16.679688 10.703125 C 16.632812 11.074219 16.34375 11.046875 16.058594 11.21875 C 15.570312 11.515625 15.285156 11.964844 15.128906 12.597656 C 15.082031 12.78125 14.597656 13.269531 14.363281 13.222656 C 13.816406 13.105469 14.515625 12.097656 14.640625 11.945312 C 14.78125 11.773438 14.964844 11.625 15.128906 11.429688 C 15.285156 11.238281 15.390625 10.984375 15.542969 10.878906 C 15.707031 10.761719 16.183594 10.625 16.472656 10.636719 Z M 20.566406 11.875 C 20.742188 11.878906 20.898438 11.910156 20.972656 11.980469 C 20.859375 12.433594 19.875 12.316406 19.515625 12.148438 C 19.535156 11.976562 19.808594 11.929688 20.035156 11.910156 C 20.195312 11.902344 20.390625 11.871094 20.566406 11.875 Z M 18.328125 12.71875 C 18.445312 12.714844 18.5625 12.738281 18.6875 12.773438 C 18.367188 13.039062 18.023438 13.1875 17.476562 13.359375 C 17.214844 13.441406 16.761719 13.546875 16.714844 13.253906 C 16.660156 12.894531 17.101562 12.976562 17.339844 12.945312 C 17.640625 12.902344 17.972656 12.726562 18.328125 12.714844 Z M 52.667969 14.761719 C 52.625 14.859375 52.597656 14.957031 52.601562 15.050781 C 52.621094 15.214844 52.804688 15.375 52.84375 15.601562 C 52.867188 15.722656 52.789062 15.976562 52.84375 16.085938 C 53.011719 16.410156 53.449219 16.179688 53.757812 16.195312 C 53.40625 15.710938 53.050781 15.222656 52.667969 14.761719 Z M 54.433594 17.132812 C 54.382812 17.371094 54.222656 17.679688 54.089844 17.878906 C 53.789062 18.335938 53.378906 18.355469 52.949219 18.601562 C 52.589844 18.804688 52.433594 19.144531 52.222656 19.5 C 51.992188 19.882812 51.851562 20.113281 51.945312 20.667969 C 51.636719 21.28125 51.167969 21.652344 50.527344 21.945312 C 50.339844 22.03125 50.082031 22.0625 49.90625 22.1875 C 49.769531 22.285156 49.691406 22.550781 49.492188 22.773438 C 49.25 23.042969 48.996094 23.15625 48.871094 23.359375 C 48.769531 23.519531 48.738281 23.835938 48.628906 24.050781 C 48.480469 24.339844 48.164062 24.480469 47.972656 24.773438 C 47.882812 24.910156 47.824219 25.183594 47.726562 25.363281 C 47.507812 25.757812 47.132812 26.046875 47.171875 26.394531 C 47.214844 26.730469 47.597656 26.792969 47.625 27.085938 C 47.628906 27.25 47.515625 27.355469 47.519531 27.535156 C 47.527344 27.800781 47.707031 27.984375 47.726562 28.1875 C 47.777344 28.699219 47.550781 28.90625 47.453125 29.253906 C 47.410156 29.421875 47.429688 29.609375 47.382812 29.742188 C 47.296875 29.996094 46.941406 30.230469 46.933594 30.53125 C 46.929688 30.746094 47.15625 30.921875 47.175781 31.222656 C 47.179688 31.429688 47.070312 31.652344 47.109375 31.84375 C 47.183594 32.21875 47.855469 32.65625 48.144531 32.949219 C 48.539062 33.339844 49.050781 33.640625 49.21875 34.050781 C 49.359375 34.402344 49.359375 34.855469 49.632812 35.117188 C 49.832031 35.3125 50.167969 35.433594 50.425781 35.636719 C 50.667969 35.824219 50.929688 35.988281 51.1875 36.1875 C 51.609375 36.515625 52.246094 37.171875 52.914062 37.121094 C 53.265625 37.097656 53.625 36.808594 54.019531 36.738281 C 54.429688 36.667969 54.960938 36.628906 55.371094 36.671875 C 55.6875 36.703125 56.011719 36.890625 56.339844 36.875 C 56.6875 36.855469 57.085938 36.597656 57.476562 36.425781 C 57.796875 36.289062 58.183594 36.136719 58.609375 36.023438 C 58.804688 34.714844 58.910156 33.367188 58.910156 32 C 58.910156 26.492188 57.261719 21.386719 54.433594 17.132812 Z M 9.835938 26.171875 C 9.261719 26.203125 8.886719 26.230469 8.558594 26.375 C 7.808594 26.714844 7.953125 27.722656 7.207031 27.964844 C 6.949219 28.042969 6.59375 28.050781 6.308594 28.101562 C 6.0625 28.144531 5.765625 28.28125 5.511719 28.273438 C 5.441406 28.273438 5.34375 28.21875 5.253906 28.195312 C 5.1875 28.667969 5.132812 29.144531 5.089844 29.625 C 5.800781 29.761719 6.167969 30.703125 6.796875 31.011719 C 6.96875 31.097656 7.195312 31.101562 7.414062 31.152344 C 7.59375 31.191406 7.730469 31.265625 7.902344 31.324219 C 8.269531 31.449219 8.714844 31.433594 9.007812 31.5625 C 9.449219 31.757812 9.773438 32.585938 10.152344 32.804688 C 10.171875 33.03125 10.105469 33.328125 10.1875 33.496094 C 10.363281 33.738281 10.617188 33.683594 10.914062 33.839844 C 11.265625 34.03125 11.375 34.523438 11.707031 34.671875 C 11.824219 34.722656 12.113281 34.714844 12.296875 34.773438 C 12.753906 34.910156 12.902344 35.4375 13.296875 35.324219 C 13.554688 35.25 13.53125 34.984375 13.574219 34.738281 C 13.746094 34.554688 13.929688 34.261719 14.195312 34.257812 C 14.625 34.234375 14.664062 34.699219 14.820312 35.117188 C 14.910156 35.351562 15.140625 35.554688 15.199219 35.804688 C 15.308594 36.234375 15.253906 37.515625 15.160156 37.773438 C 15.054688 38.085938 14.628906 38.21875 14.363281 38.566406 C 14.242188 38.730469 14.179688 38.96875 14.085938 39.085938 C 13.917969 39.289062 13.667969 39.34375 13.539062 39.535156 C 13.46875 39.640625 13.398438 39.871094 13.328125 40.015625 C 13.121094 40.453125 12.84375 40.765625 13.019531 41.292969 C 13.089844 41.507812 13.429688 41.652344 13.433594 41.910156 C 13.433594 42.210938 12.792969 42.476562 12.742188 42.808594 C 12.703125 43.050781 12.941406 43.488281 13.019531 43.808594 C 13.074219 44.050781 13.53125 44.199219 13.675781 44.359375 C 13.917969 44.632812 14.109375 45.015625 14.332031 45.359375 C 14.769531 46.027344 15.113281 46.847656 15.542969 47.5 C 15.765625 47.839844 16.082031 48.144531 16.234375 48.5 C 16.308594 48.675781 16.300781 48.890625 16.371094 49.050781 C 16.617188 49.605469 17.707031 50.1875 18.269531 50.464844 C 18.535156 50.589844 18.828125 50.636719 19.070312 50.773438 C 19.433594 50.976562 20.160156 51.523438 20.347656 51.84375 C 20.511719 52.132812 20.613281 52.832031 20.695312 53.289062 C 20.800781 53.894531 20.695312 54.359375 20.730469 55.015625 C 20.75 55.371094 20.863281 55.726562 20.867188 56.082031 C 20.871094 56.207031 20.800781 56.300781 20.796875 56.425781 C 20.796875 56.445312 20.804688 56.472656 20.804688 56.492188 C 24.199219 58.023438 27.964844 58.898438 31.945312 58.898438 C 32.664062 58.898438 33.375 58.859375 34.082031 58.804688 C 34.113281 58.753906 34.140625 58.695312 34.179688 58.648438 C 34.34375 58.433594 34.484375 58.25 34.59375 58.0625 C 34.695312 57.433594 34.339844 56.992188 34.488281 56.441406 C 34.65625 55.820312 35.511719 55.445312 36.113281 55.164062 C 36.320312 55.070312 36.535156 54.914062 36.703125 54.855469 C 37.117188 54.710938 37.636719 54.789062 38.019531 54.648438 C 38.667969 54.414062 38.734375 53.71875 39.054688 53.132812 C 39.203125 52.851562 39.402344 52.574219 39.433594 52.375 C 39.457031 52.195312 39.367188 52.027344 39.394531 51.816406 C 39.425781 51.609375 39.613281 51.429688 39.671875 51.199219 C 39.746094 50.902344 39.78125 50.464844 39.78125 50.132812 C 39.78125 49.859375 39.652344 49.617188 39.640625 49.371094 C 39.597656 48.476562 39.964844 48.378906 40.296875 47.890625 C 40.464844 47.648438 40.527344 47.375 40.640625 47.199219 C 41.199219 46.371094 42.164062 45.972656 42.097656 44.71875 C 42.074219 44.304688 41.8125 43.367188 41.507812 43.234375 C 41.332031 43.160156 40.929688 43.226562 40.675781 43.132812 C 39.859375 42.828125 39.378906 41.816406 38.535156 41.75 C 38.351562 41.730469 38.1875 41.824219 37.984375 41.820312 C 37.648438 41.800781 37.144531 41.589844 36.773438 41.546875 C 36.535156 41.523438 36.21875 41.617188 36.078125 41.546875 C 35.863281 41.441406 35.839844 41.042969 35.664062 40.925781 C 35.527344 40.828125 35.253906 40.796875 35.042969 40.714844 C 34.703125 40.585938 34.433594 40.433594 34.039062 40.40625 C 33.921875 40.402344 33.769531 40.464844 33.628906 40.445312 C 33.410156 40.40625 33.238281 40.152344 33.039062 40.027344 C 32.785156 39.875 32.554688 39.800781 32.449219 39.585938 C 32.675781 38.84375 32.050781 38.636719 31.898438 38.207031 C 31.824219 38.003906 31.859375 37.761719 31.792969 37.582031 C 31.703125 37.328125 31.449219 37.179688 31.171875 36.964844 C 30.667969 36.578125 30.226562 36.21875 29.511719 36.128906 C 29.195312 36.089844 28.886719 36.226562 28.503906 36.199219 C 28.101562 36.175781 27.597656 35.824219 27.296875 35.480469 C 27.003906 35.144531 26.863281 34.84375 26.605469 34.683594 C 26.367188 34.53125 26.042969 34.535156 25.878906 34.378906 C 25.804688 34.308594 25.820312 34.191406 25.742188 34.03125 C 25.621094 33.78125 25.414062 33.640625 25.566406 33.339844 C 25.292969 33.199219 25.285156 33.601562 24.980469 33.550781 C 24.714844 33.167969 24.488281 32.988281 23.875 33.101562 C 23.597656 33.152344 23.441406 33.503906 23.117188 33.515625 C 22.847656 33.535156 22.636719 33.21875 22.285156 33.167969 C 22.019531 33.128906 21.71875 33.238281 21.527344 33.203125 C 21.234375 33.144531 21.140625 32.898438 20.871094 32.722656 C 20.675781 32.59375 20.289062 32.371094 20.179688 32.375 C 19.832031 32.398438 19.585938 33.113281 19.105469 32.859375 C 18.871094 32.566406 19.484375 32.410156 19.207031 32.132812 C 19 31.925781 18.824219 32.230469 18.65625 32.34375 C 18.464844 32.476562 18.28125 32.609375 18.070312 32.6875 C 17.597656 32.863281 17.300781 32.769531 16.929688 32.960938 C 16.585938 33.140625 16.570312 33.4375 16.375 33.789062 C 16.214844 34.078125 15.851562 34.5 15.613281 34.515625 C 15.324219 34.539062 15.046875 34.113281 14.785156 34 C 13.992188 33.65625 13.609375 34.304688 12.953125 34.3125 C 12.339844 34.332031 11.46875 33.328125 11.5 32.757812 C 11.507812 32.40625 11.703125 31.878906 11.742188 31.445312 C 11.78125 31.101562 12.015625 30.894531 12.019531 30.582031 C 12.023438 30.164062 11.460938 29.839844 11.191406 29.792969 C 10.542969 29.671875 9.648438 30.050781 8.90625 29.753906 C 8.765625 29.519531 9.074219 29.359375 9.152344 29.132812 C 9.195312 29.003906 9.171875 28.828125 9.21875 28.6875 C 9.300781 28.46875 9.53125 28.296875 9.632812 28.066406 C 9.710938 27.886719 9.730469 27.632812 9.808594 27.410156 C 9.898438 27.160156 10.0625 27 10.082031 26.824219 C 10.109375 26.589844 10.019531 26.320312 9.839844 26.167969 Z M 19.078125 33.472656 C 19.3125 33.492188 19.34375 33.976562 19.101562 34.015625 C 18.84375 34.054688 18.710938 33.609375 18.964844 33.496094 C 19.007812 33.472656 19.046875 33.472656 19.078125 33.476562 Z M 19.078125 33.472656 "/>
<path fill-rule="nonzero" fill="rgb(97.647059%, 97.647059%, 97.647059%)" fill-opacity="1" d="M 59.980469 49.035156 C 59.417969 55.640625 53.605469 60.539062 47.003906 59.976562 C 40.398438 59.414062 35.503906 53.605469 36.066406 47.003906 C 36.628906 40.398438 42.4375 35.5 49.042969 36.0625 C 55.644531 36.621094 60.542969 42.429688 59.980469 49.035156 Z M 59.980469 49.035156 "/>
<path fill-rule="nonzero" fill="rgb(20%, 83.137255%, 100%)" fill-opacity="1" d="M 50.964844 53.398438 C 50.679688 53.398438 50.394531 53.277344 50.1875 53.035156 C 49.65625 52.417969 48.902344 52.066406 48.113281 52.066406 C 47.3125 52.066406 46.574219 52.40625 46.039062 53.03125 C 45.652344 53.484375 44.988281 53.519531 44.558594 53.105469 C 44.128906 52.695312 44.097656 51.996094 44.488281 51.546875 C 45.410156 50.472656 46.734375 49.855469 48.113281 49.855469 C 49.492188 49.855469 50.8125 50.472656 51.742188 51.550781 C 52.128906 52.003906 52.097656 52.699219 51.667969 53.109375 C 51.46875 53.304688 51.214844 53.398438 50.964844 53.398438 Z M 53.289062 50.632812 C 53.023438 50.632812 52.753906 50.523438 52.550781 50.308594 C 51.363281 49.066406 49.789062 48.378906 48.113281 48.378906 C 46.433594 48.378906 44.859375 49.0625 43.671875 50.304688 C 43.261719 50.738281 42.597656 50.734375 42.191406 50.300781 C 41.78125 49.867188 41.785156 49.167969 42.195312 48.738281 C 43.773438 47.082031 45.878906 46.167969 48.113281 46.167969 C 50.347656 46.167969 52.449219 47.082031 54.03125 48.742188 C 54.441406 49.171875 54.441406 49.875 54.035156 50.308594 C 53.828125 50.523438 53.558594 50.632812 53.289062 50.632812 Z M 55.613281 47.871094 C 55.351562 47.871094 55.089844 47.769531 54.886719 47.5625 C 53.054688 45.714844 50.652344 44.695312 48.113281 44.695312 C 45.570312 44.695312 43.164062 45.710938 41.339844 47.5625 C 40.921875 47.984375 40.257812 47.96875 39.855469 47.527344 C 39.453125 47.085938 39.46875 46.386719 39.886719 45.964844 C 42.105469 43.722656 45.027344 42.484375 48.113281 42.484375 C 51.195312 42.484375 54.113281 43.722656 56.339844 45.96875 C 56.757812 46.390625 56.769531 47.089844 56.371094 47.53125 C 56.164062 47.757812 55.886719 47.871094 55.613281 47.871094 Z M 47.980469 56.070312 C 48.679688 56.070312 49.25 55.503906 49.25 54.804688 C 49.25 54.105469 48.679688 53.539062 47.980469 53.539062 C 47.28125 53.539062 46.714844 54.105469 46.714844 54.804688 C 46.714844 55.503906 47.28125 56.070312 47.980469 56.070312 Z M 47.980469 56.070312 "/>
</svg>
