<?xml version="1.0" encoding="UTF-8"?>
<svg xmlns="http://www.w3.org/2000/svg" xmlns:xlink="http://www.w3.org/1999/xlink" width="64" height="64" viewBox="0 0 64 64">
<path fill-rule="nonzero" fill="rgb(78.431373%, 44.313725%, 21.568627%)" fill-opacity="1" d="M 31.992188 4.996094 C 17.078125 4.996094 4.992188 17.085938 4.992188 31.996094 C 4.992188 46.910156 17.078125 58.996094 31.992188 58.996094 C 46.902344 58.996094 58.992188 46.910156 58.992188 31.996094 C 58.992188 17.085938 46.902344 4.996094 31.992188 4.996094 Z M 31.992188 4.996094 "/>
<path fill-rule="nonzero" fill="rgb(100%, 100%, 100%)" fill-opacity="1" d="M 27.601562 11.640625 C 27.601562 11.640625 31.917969 14.601562 32.214844 16.28125 C 32.214844 16.28125 41.347656 13.394531 49.367188 21.089844 L 45.320312 21.089844 C 45.320312 21.089844 55.933594 27.722656 56.117188 31.890625 C 55.933594 31.773438 54.167969 30.851562 53.417969 30.539062 C 53.417969 30.539062 55.996094 36.480469 54.035156 42.273438 C 50.371094 49.210938 43.535156 55.277344 33.53125 56.1875 C 30.84375 56.429688 33.53125 56.191406 30.832031 56.191406 L 30.832031 48.089844 L 33.53125 48.089844 L 33.53125 44.039062 C 37.859375 43.832031 38.90625 33.503906 33.167969 30.539062 C 33.167969 30.539062 29.542969 35.632812 25.28125 36.125 C 25.28125 36.125 24.785156 40.488281 19.636719 37.71875 C 18.261719 36.980469 17.753906 34.546875 19.140625 32.566406 L 20.230469 30.988281 C 20.230469 30.988281 23.84375 22.308594 26.417969 19.742188 C 26.417969 19.742188 27.769531 15.691406 26.417969 12.992188 C 26.417969 12.992188 27.949219 14.125 28.445312 15.015625 C 28.445312 15.015625 28.097656 12.132812 27.601562 11.640625 Z M 27.601562 11.640625 "/>
<path fill-rule="evenodd" fill="rgb(94.901961%, 94.901961%, 94.901961%)" fill-opacity="1" d="M 49.945312 48.089844 C 43.578125 48.097656 37.191406 48.089844 30.828125 48.089844 L 30.808594 49.445312 L 48.613281 49.449219 C 49.699219 48.371094 49.226562 48.855469 49.945312 48.089844 Z M 49.945312 48.089844 "/>
<path fill-rule="evenodd" fill="rgb(94.901961%, 94.901961%, 94.901961%)" fill-opacity="1" d="M 53.035156 44.027344 C 46.671875 44.035156 39.898438 44.03125 33.535156 44.03125 L 33.535156 45.382812 L 52.121094 45.386719 C 52.941406 44.160156 52.574219 44.734375 53.039062 44.027344 Z M 53.035156 44.027344 "/>
</svg>
