<?xml version="1.0" encoding="UTF-8"?>
<svg xmlns="http://www.w3.org/2000/svg" xmlns:xlink="http://www.w3.org/1999/xlink" width="64" height="64" viewBox="0 0 64 64">
<path fill-rule="nonzero" fill="rgb(20.784314%, 61.176471%, 95.294118%)" fill-opacity="1" d="M 15.609375 8.460938 C 15.609375 12.40625 12.410156 15.605469 8.464844 15.605469 C 4.519531 15.605469 1.324219 12.40625 1.324219 8.460938 C 1.324219 4.515625 4.519531 1.316406 8.464844 1.316406 C 12.410156 1.316406 15.609375 4.515625 15.609375 8.460938 Z M 15.609375 8.460938 "/>
<path fill-rule="nonzero" fill="rgb(100%, 100%, 100%)" fill-opacity="1" d="M 5.292969 4.230469 C 5.28125 4.230469 5.269531 4.234375 5.257812 4.238281 L 4.949219 4.550781 C 4.933594 4.570312 4.933594 4.597656 4.949219 4.617188 L 5.382812 5.046875 L 5.257812 5.164062 C 5.230469 5.191406 5.226562 5.234375 5.25 5.265625 L 6.007812 6.523438 C 5.882812 6.742188 5.785156 6.972656 5.710938 7.214844 L 4.300781 7.515625 C 4.261719 7.523438 4.234375 7.550781 4.234375 7.589844 L 4.234375 8.511719 C 4.234375 8.546875 4.261719 8.574219 4.300781 8.585938 L 5.667969 8.917969 C 5.738281 9.199219 5.847656 9.472656 5.988281 9.722656 L 5.191406 10.921875 C 5.171875 10.953125 5.175781 11.003906 5.203125 11.03125 L 5.84375 11.671875 C 5.871094 11.699219 5.921875 11.703125 5.953125 11.683594 L 7.1875 10.933594 C 7.421875 11.070312 7.671875 11.179688 7.9375 11.253906 L 8.222656 12.628906 C 8.230469 12.667969 8.261719 12.695312 8.300781 12.695312 L 9.214844 12.695312 C 9.253906 12.695312 9.285156 12.667969 9.292969 12.628906 L 9.632812 11.265625 C 9.917969 11.191406 10.179688 11.089844 10.425781 10.945312 L 11.628906 11.714844 C 11.660156 11.738281 11.699219 11.734375 11.726562 11.707031 L 11.894531 11.539062 L 12.3125 11.960938 C 12.328125 11.976562 12.363281 11.976562 12.378906 11.960938 L 12.6875 11.648438 C 12.703125 11.636719 12.703125 11.609375 12.6875 11.59375 L 12.265625 11.175781 L 12.367188 11.066406 C 12.394531 11.039062 12.410156 11 12.390625 10.96875 L 11.628906 9.734375 C 11.710938 9.585938 11.789062 9.421875 11.851562 9.257812 C 11.851562 9.25 11.851562 9.238281 11.851562 9.226562 C 11.84375 9.214844 11.828125 9.207031 11.816406 9.203125 L 11.429688 9.105469 L 11.421875 9.105469 C 11.53125 8.804688 11.597656 8.480469 11.597656 8.144531 C 11.597656 7.238281 11.148438 6.386719 10.402344 5.871094 C 9.65625 5.351562 8.703125 5.234375 7.851562 5.554688 C 7.828125 5.421875 7.792969 5.277344 7.761719 5.136719 C 7.761719 5.125 7.75 5.121094 7.738281 5.117188 C 7.730469 5.109375 7.71875 5.109375 7.707031 5.117188 C 7.546875 5.171875 7.390625 5.242188 7.242188 5.324219 C 6.855469 5.050781 6.417969 4.777344 6.007812 4.511719 C 5.972656 4.488281 5.929688 4.492188 5.898438 4.519531 L 5.757812 4.675781 L 5.316406 4.246094 C 5.308594 4.238281 5.304688 4.234375 5.292969 4.234375 M 8.960938 5.578125 C 9.441406 5.609375 9.886719 5.773438 10.261719 6.03125 C 10.171875 6.019531 10.074219 6.003906 10.019531 5.953125 L 9.996094 5.953125 C 9.9375 5.988281 9.867188 6.011719 9.796875 6.019531 L 9.6875 6.171875 L 9.554688 6.28125 C 9.53125 6.335938 9.5625 6.410156 9.578125 6.460938 L 9.722656 6.394531 C 9.742188 6.464844 9.789062 6.476562 9.84375 6.515625 C 9.921875 6.359375 9.855469 6.210938 10.050781 6.128906 L 9.964844 6.25 L 9.984375 6.339844 L 9.996094 6.226562 C 10.03125 6.351562 9.988281 6.523438 9.855469 6.570312 L 9.722656 6.558594 L 9.722656 6.472656 C 9.644531 6.488281 9.644531 6.535156 9.667969 6.601562 C 9.613281 6.589844 9.585938 6.585938 9.546875 6.625 C 9.503906 6.582031 9.464844 6.554688 9.457031 6.492188 C 9.429688 6.472656 9.414062 6.4375 9.414062 6.40625 L 9.324219 6.394531 L 9.359375 6.613281 C 9.347656 6.597656 9.335938 6.59375 9.324219 6.582031 L 9.347656 6.734375 L 9.46875 6.714844 C 9.433594 6.746094 9.40625 6.746094 9.359375 6.746094 L 9.378906 6.792969 L 9.304688 6.792969 L 9.402344 6.957031 C 9.179688 6.960938 9.171875 7.070312 9.183594 7.253906 C 9.226562 7.257812 9.25 7.265625 9.28125 7.300781 C 9.464844 7.203125 9.503906 7.023438 9.722656 6.96875 C 9.757812 7.078125 9.863281 7.078125 9.832031 7.210938 C 9.9375 7.1875 9.964844 7.09375 9.898438 7.011719 C 9.988281 7.066406 10.011719 7.171875 10.074219 7.253906 C 10.117188 7.195312 10.105469 7.144531 10.175781 7.101562 L 10.175781 7.132812 C 10.289062 7.238281 10.367188 7.257812 10.515625 7.308594 C 10.464844 7.382812 10.410156 7.460938 10.316406 7.453125 C 10.199219 7.445312 10.042969 7.328125 9.964844 7.464844 L 9.742188 7.285156 C 9.621094 7.234375 9.507812 7.289062 9.378906 7.277344 L 9.324219 7.300781 L 9.347656 7.308594 C 9.09375 7.421875 8.953125 7.722656 8.929688 7.972656 L 8.886719 8.136719 C 8.910156 8.296875 9.046875 8.46875 9.160156 8.574219 C 9.242188 8.65625 9.304688 8.5 9.378906 8.574219 C 9.480469 8.539062 9.628906 8.46875 9.722656 8.574219 C 9.785156 8.648438 9.722656 8.710938 9.742188 8.789062 C 9.78125 8.914062 9.863281 9.074219 9.863281 9.21875 L 9.832031 9.5625 C 9.863281 9.769531 9.984375 9.949219 9.988281 10.167969 C 10.15625 10.148438 10.34375 10.058594 10.4375 9.914062 L 10.472656 9.792969 L 10.539062 9.703125 L 10.515625 9.570312 C 10.554688 9.476562 10.714844 9.464844 10.734375 9.359375 C 10.769531 9.222656 10.6875 9.054688 10.734375 8.910156 C 10.816406 8.679688 11.039062 8.527344 11.042969 8.269531 L 10.878906 8.28125 C 11.027344 8.097656 11.339844 8.007812 11.175781 7.730469 L 11.109375 7.808594 L 11.078125 7.808594 C 11.023438 7.699219 10.945312 7.691406 10.945312 7.554688 C 11.074219 7.664062 11.207031 7.664062 11.332031 7.796875 C 11.351562 7.785156 11.367188 7.765625 11.375 7.742188 C 11.40625 7.898438 11.417969 8.070312 11.417969 8.238281 C 11.414062 9.707031 10.234375 10.894531 8.785156 10.890625 C 7.816406 10.886719 6.925781 10.347656 6.472656 9.488281 C 6.390625 9.335938 6.316406 9.160156 6.25 9.015625 C 6.105469 8.597656 6.140625 8.085938 6.140625 8.046875 C 6.140625 8.027344 6.15625 7.996094 6.175781 7.96875 C 6.183594 7.863281 6.207031 7.761719 6.230469 7.660156 C 6.222656 7.65625 6.21875 7.644531 6.21875 7.636719 C 6.21875 7.632812 6.238281 7.578125 6.25 7.539062 C 6.242188 7.578125 6.234375 7.617188 6.230469 7.660156 C 6.214844 7.734375 6.210938 7.808594 6.207031 7.882812 C 6.199219 7.988281 6.292969 8.03125 6.339844 8.113281 L 6.347656 8.265625 L 6.382812 8.121094 L 6.679688 8.246094 L 6.890625 8.441406 L 7.066406 8.46875 C 7 8.609375 6.878906 8.84375 6.902344 9.003906 C 6.914062 9.097656 7.011719 9.226562 7.066406 9.304688 C 7.140625 9.410156 7.28125 9.476562 7.320312 9.613281 L 7.328125 9.832031 L 7.375 9.996094 C 7.367188 10.066406 7.296875 10.1875 7.339844 10.253906 C 7.386719 10.320312 7.566406 10.40625 7.648438 10.429688 C 7.726562 10.449219 7.738281 10.378906 7.703125 10.328125 L 7.800781 10.1875 L 7.933594 10.089844 L 8.019531 9.777344 L 8.21875 9.648438 C 8.300781 9.527344 8.234375 9.429688 8.265625 9.304688 L 8.394531 8.941406 C 8.246094 8.886719 8.039062 8.8125 7.933594 8.6875 L 7.898438 8.699219 L 7.878906 8.578125 L 7.710938 8.5 L 7.679688 8.523438 L 7.644531 8.335938 L 7.425781 8.3125 L 7.261719 8.222656 C 7.1875 8.214844 7.089844 8.335938 7.0625 8.390625 L 6.972656 8.367188 L 6.996094 8.34375 L 6.917969 8.292969 L 6.929688 8.34375 C 6.871094 8.285156 6.859375 8.207031 6.875 8.125 L 6.773438 8.078125 L 6.765625 8.125 C 6.746094 8.058594 6.757812 7.96875 6.808594 7.914062 C 6.730469 7.863281 6.671875 7.910156 6.621094 7.96875 L 6.511719 7.75 C 6.480469 7.816406 6.492188 7.886719 6.5 7.960938 L 6.476562 7.960938 C 6.472656 7.882812 6.449219 7.800781 6.488281 7.726562 C 6.5625 7.59375 6.78125 7.535156 6.917969 7.5625 L 6.894531 7.585938 L 7.027344 7.695312 C 7.027344 7.484375 7.109375 7.464844 7.226562 7.308594 L 7.304688 7.167969 C 7.402344 7.070312 7.523438 7 7.65625 6.957031 L 7.8125 6.859375 C 7.761719 6.773438 7.628906 6.796875 7.546875 6.804688 C 7.695312 6.71875 7.894531 6.769531 7.996094 6.617188 C 7.886719 6.535156 7.886719 6.320312 7.710938 6.40625 L 7.734375 6.328125 L 7.589844 6.253906 L 7.480469 6.484375 L 7.324219 6.667969 L 7.316406 6.570312 C 7.257812 6.542969 7.097656 6.492188 7.09375 6.414062 C 7.089844 6.335938 7.339844 6.214844 7.402344 6.164062 L 7.382812 6.230469 L 7.492188 6.222656 C 7.511719 6.207031 7.726562 5.910156 7.753906 6.097656 C 7.90625 6.152344 7.914062 6.214844 8.0625 6.121094 L 7.976562 6.074219 C 7.960938 5.941406 7.835938 5.945312 7.722656 5.945312 L 8.085938 5.777344 C 8.125 5.875 8.242188 5.898438 8.285156 5.988281 C 8.3125 6.050781 8.226562 6.078125 8.230469 6.144531 C 8.230469 6.21875 8.304688 6.320312 8.339844 6.386719 L 8.550781 6.15625 C 8.664062 6.09375 8.84375 6.089844 8.933594 5.988281 C 9.039062 5.875 8.980469 5.691406 9.175781 5.691406 C 9.136719 5.675781 9.078125 5.660156 9.046875 5.691406 L 9 5.660156 L 9.054688 5.660156 M 9.320312 6.582031 C 9.292969 6.550781 9.265625 6.535156 9.210938 6.546875 L 9.257812 6.714844 L 9.300781 6.691406 L 9.265625 6.679688 "/>
</svg>
