<?xml version="1.0" encoding="UTF-8"?>
<svg xmlns="http://www.w3.org/2000/svg" xmlns:xlink="http://www.w3.org/1999/xlink" width="64" height="64" viewBox="0 0 64 64">
<path fill-rule="nonzero" fill="rgb(100%, 33.333333%, 33.333333%)" fill-opacity="1" d="M 8.378906 1.324219 C 10.953125 1.289062 13.347656 2.644531 14.644531 4.867188 C 15.941406 7.089844 15.941406 9.839844 14.644531 12.066406 C 13.347656 14.289062 10.953125 15.644531 8.378906 15.609375 C 4.472656 15.558594 1.328125 12.375 1.328125 8.464844 C 1.328125 4.558594 4.472656 1.375 8.378906 1.324219 Z M 8.378906 1.324219 "/>
<path fill-rule="nonzero" fill="rgb(100%, 100%, 100%)" fill-opacity="1" d="M 9.03125 4.234375 L 7.902344 4.234375 L 7.902344 8.46875 L 9.03125 8.46875 "/>
<path fill-rule="nonzero" fill="rgb(100%, 100%, 100%)" fill-opacity="1" d="M 7.339844 4.375 C 5.503906 4.886719 4.238281 6.554688 4.234375 8.457031 C 4.234375 10.78125 6.128906 12.699219 8.46875 12.699219 C 10.804688 12.699219 12.699219 10.78125 12.699219 8.457031 C 12.695312 6.554688 11.429688 4.886719 9.597656 4.375 L 9.597656 5.46875 C 10.828125 5.953125 11.636719 7.136719 11.640625 8.457031 C 11.640625 10.238281 10.21875 11.667969 8.46875 11.667969 C 6.714844 11.667969 5.292969 10.238281 5.292969 8.457031 C 5.28125 7.128906 6.097656 5.929688 7.339844 5.449219 "/>
</svg>
