<?xml version="1.0" encoding="UTF-8"?>
<svg xmlns="http://www.w3.org/2000/svg" xmlns:xlink="http://www.w3.org/1999/xlink" width="64" height="64" viewBox="0 0 64 64">
<defs>
<radialGradient id="radial-pattern-0" gradientUnits="userSpaceOnUse" cx="24" cy="24" fx="24" fy="24" r="15" gradientTransform="matrix(0.31059, 0, 0, 0.28989, 1.0123, 1.50926)">
<stop offset="0" stop-color="rgb(94.901961%, 73.72549%, 30.588235%)" stop-opacity="1"/>
<stop offset="1" stop-color="rgb(94.509804%, 71.764706%, 25.490196%)" stop-opacity="1"/>
</radialGradient>
</defs>
<path fill-rule="nonzero" fill="rgb(68.235294%, 82.352941%, 98.039216%)" fill-opacity="1" d="M 8.464844 1.324219 C 12.410156 1.324219 15.609375 4.519531 15.609375 8.464844 C 15.609375 12.410156 12.410156 15.609375 8.464844 15.609375 C 4.519531 15.609375 1.324219 12.410156 1.324219 8.464844 C 1.324219 4.519531 4.519531 1.324219 8.464844 1.324219 Z M 8.464844 1.324219 "/>
<path fill-rule="nonzero" fill="url(#radial-pattern-0)" d="M 13.125 8.464844 C 13.125 10.867188 11.039062 12.816406 8.464844 12.816406 C 5.894531 12.816406 3.808594 10.867188 3.808594 8.464844 C 3.808594 6.066406 5.894531 4.117188 8.464844 4.117188 C 11.039062 4.117188 13.125 6.066406 13.125 8.464844 Z M 13.125 8.464844 "/>
<path fill-rule="nonzero" fill="rgb(94.901961%, 94.901961%, 94.901961%)" fill-opacity="1" d="M 7.136719 7.820312 C 7.332031 8.757812 7.207031 9.578125 6.652344 9.695312 C 6.097656 9.8125 5.652344 9.117188 5.453125 8.179688 C 5.257812 7.246094 5.347656 6.433594 5.9375 6.308594 C 6.527344 6.179688 6.9375 6.886719 7.136719 7.820312 Z M 7.136719 7.820312 "/>
<path fill-rule="nonzero" fill="rgb(72.941176%, 40%, 8.627451%)" fill-opacity="1" d="M 12.191406 10.019531 C 10.019531 12.921875 5.671875 12.144531 4.738281 9.707031 C 6.914062 11.261719 10.019531 11.109375 12.191406 10.019531 Z M 12.191406 10.019531 "/>
<path fill-rule="nonzero" fill="rgb(94.901961%, 94.901961%, 94.901961%)" fill-opacity="1" d="M 9.796875 7.820312 C 9.597656 8.757812 9.722656 9.578125 10.28125 9.695312 C 10.835938 9.8125 11.28125 9.117188 11.476562 8.179688 C 11.675781 7.246094 11.585938 6.433594 10.996094 6.308594 C 10.40625 6.179688 9.992188 6.886719 9.796875 7.820312 Z M 9.796875 7.820312 "/>
<path fill-rule="nonzero" fill="rgb(30.196078%, 54.509804%, 81.960784%)" fill-opacity="1" d="M 6.933594 8.195312 C 7.0625 8.792969 6.980469 9.3125 6.609375 9.390625 C 6.238281 9.464844 5.941406 9.019531 5.8125 8.425781 C 5.679688 7.832031 5.738281 7.3125 6.132812 7.234375 C 6.527344 7.152344 6.800781 7.601562 6.933594 8.195312 Z M 6.933594 8.195312 "/>
<path fill-rule="nonzero" fill="rgb(30.196078%, 54.509804%, 81.960784%)" fill-opacity="1" d="M 10 8.195312 C 9.867188 8.792969 9.953125 9.3125 10.324219 9.390625 C 10.691406 9.464844 10.988281 9.019531 11.121094 8.425781 C 11.253906 7.832031 11.191406 7.3125 10.800781 7.234375 C 10.40625 7.152344 10.132812 7.601562 10 8.195312 Z M 10 8.195312 "/>
</svg>
