<?xml version="1.0" encoding="UTF-8"?>
<svg xmlns="http://www.w3.org/2000/svg" xmlns:xlink="http://www.w3.org/1999/xlink" width="64" height="64" viewBox="0 0 64 64">
<path fill-rule="nonzero" fill="rgb(97.647059%, 83.529412%, 27.45098%)" fill-opacity="1" d="M 32 5 C 46.910156 5 59 17.089844 59 32 C 59 46.910156 46.910156 59 32 59 C 17.089844 59 5 46.910156 5 32 C 5 17.089844 17.089844 5 32 5 Z M 32 5 "/>
<path fill-rule="nonzero" fill="rgb(70.980392%, 27.058824%, 67.058824%)" fill-opacity="1" d="M 29.652344 15.566406 L 28.519531 18.964844 C 27.375 19.273438 26.277344 19.730469 25.253906 20.324219 L 22.039062 18.71875 L 18.71875 22.039062 L 20.324219 25.25 C 19.734375 26.273438 19.28125 27.371094 18.976562 28.515625 L 15.566406 29.652344 L 15.566406 34.347656 L 18.964844 35.480469 C 19.273438 36.625 19.730469 37.722656 20.328125 38.746094 L 18.71875 41.960938 L 22.042969 45.28125 L 25.25 43.675781 C 26.277344 44.265625 27.371094 44.71875 28.515625 45.023438 L 29.652344 48.433594 L 34.347656 48.433594 L 35.480469 45.035156 C 36.625 44.726562 37.722656 44.269531 38.746094 43.671875 L 41.960938 45.28125 L 45.28125 41.957031 L 43.679688 38.75 C 44.269531 37.722656 44.722656 36.625 45.027344 35.484375 L 48.433594 34.347656 L 48.433594 29.652344 L 45.035156 28.519531 C 44.726562 27.375 44.269531 26.277344 43.675781 25.253906 L 45.28125 22.039062 L 41.960938 18.71875 L 38.75 20.320312 C 37.726562 19.730469 36.628906 19.277344 35.484375 18.972656 L 34.347656 15.566406 Z M 32 22.609375 C 37.1875 22.609375 41.390625 26.8125 41.390625 32 C 41.390625 37.1875 37.1875 41.390625 32 41.390625 C 26.8125 41.390625 22.609375 37.1875 22.609375 32 C 22.609375 26.8125 26.8125 22.609375 32 22.609375 Z M 32 22.609375 "/>
<path fill-rule="evenodd" fill="rgb(89.411765%, 25.098039%, 25.098039%)" fill-opacity="1" d="M 20.261719 21.433594 L 26.128906 21.433594 L 32 35.523438 L 37.871094 21.433594 L 43.738281 21.433594 L 35.523438 40.21875 L 28.476562 40.21875 Z M 20.261719 21.433594 "/>
</svg>
