<?xml version="1.0" encoding="UTF-8"?>
<svg xmlns="http://www.w3.org/2000/svg" xmlns:xlink="http://www.w3.org/1999/xlink" width="64" height="64" viewBox="0 0 64 64">
<defs>
<filter id="filter-remove-color" x="0%" y="0%" width="100%" height="100%">
<feColorMatrix color-interpolation-filters="sRGB" values="0 0 0 0 1 0 0 0 0 1 0 0 0 0 1 0 0 0 1 0" />
</filter>
<mask id="mask-0">
<g filter="url(#filter-remove-color)">
<rect x="-6.4" y="-6.4" width="76.8" height="76.8" fill="rgb(0%, 0%, 0%)" fill-opacity="0.35"/>
</g>
</mask>
<clipPath id="clip-0">
<rect x="0" y="0" width="17" height="17"/>
</clipPath>
<g id="source-13822" clip-path="url(#clip-0)">
<path fill-rule="nonzero" fill="rgb(100%, 100%, 100%)" fill-opacity="1" d="M 8.46875 4.429688 C 8.300781 4.429688 8.214844 4.535156 8.179688 4.585938 C 8.144531 4.640625 8.128906 4.679688 8.117188 4.722656 C 8.085938 4.804688 8.066406 4.894531 8.046875 5.003906 C 8.007812 5.226562 7.972656 5.519531 7.9375 5.875 C 7.808594 7.355469 7.71875 8.710938 7.609375 10.082031 C 7.492188 8.984375 7.417969 7.871094 7.289062 6.785156 C 7.253906 6.480469 7.214844 6.226562 7.175781 6.035156 C 7.15625 5.9375 7.136719 5.859375 7.105469 5.78125 C 7.085938 5.742188 7.070312 5.703125 7.03125 5.652344 C 6.988281 5.601562 6.902344 5.515625 6.757812 5.515625 C 6.648438 5.515625 6.5625 5.570312 6.515625 5.613281 C 6.472656 5.65625 6.449219 5.695312 6.429688 5.730469 C 6.390625 5.800781 6.367188 5.867188 6.34375 5.945312 C 6.296875 6.101562 6.257812 6.292969 6.21875 6.527344 C 6.066406 7.507812 5.960938 8.40625 5.824219 9.324219 C 5.746094 8.796875 5.699219 8.238281 5.632812 7.71875 C 5.613281 7.554688 5.589844 7.417969 5.566406 7.308594 C 5.554688 7.253906 5.546875 7.207031 5.523438 7.152344 C 5.511719 7.121094 5.5 7.09375 5.46875 7.046875 C 5.433594 7.003906 5.351562 6.914062 5.207031 6.914062 C 5.09375 6.914062 5.027344 6.960938 4.984375 6.992188 C 4.941406 7.023438 4.917969 7.054688 4.894531 7.082031 C 4.847656 7.140625 4.8125 7.199219 4.773438 7.265625 C 4.695312 7.394531 4.617188 7.554688 4.542969 7.707031 C 4.464844 7.863281 4.390625 8.015625 4.328125 8.117188 C 4.316406 8.136719 4.3125 8.140625 4.304688 8.15625 L 1.332031 8.15625 C 1.328125 8.261719 1.324219 8.363281 1.324219 8.46875 C 1.324219 8.570312 1.328125 8.675781 1.332031 8.777344 L 4.429688 8.777344 C 4.644531 8.777344 4.691406 8.671875 4.738281 8.613281 C 4.789062 8.554688 4.824219 8.496094 4.863281 8.429688 C 4.925781 8.328125 4.984375 8.203125 5.046875 8.082031 C 5.078125 8.355469 5.109375 8.644531 5.148438 8.96875 C 5.195312 9.398438 5.25 9.828125 5.3125 10.164062 C 5.347656 10.335938 5.378906 10.476562 5.425781 10.601562 C 5.445312 10.664062 5.46875 10.722656 5.515625 10.785156 C 5.566406 10.851562 5.664062 10.953125 5.824219 10.953125 C 5.933594 10.953125 6.019531 10.898438 6.066406 10.855469 C 6.113281 10.8125 6.136719 10.773438 6.15625 10.738281 C 6.195312 10.667969 6.214844 10.601562 6.238281 10.523438 C 6.285156 10.367188 6.324219 10.175781 6.363281 9.941406 C 6.503906 9.039062 6.609375 8.21875 6.722656 7.390625 C 6.871094 8.699219 6.941406 9.949219 7.09375 11.238281 C 7.128906 11.539062 7.167969 11.792969 7.207031 11.984375 C 7.230469 12.082031 7.25 12.160156 7.28125 12.238281 C 7.296875 12.28125 7.3125 12.320312 7.355469 12.371094 C 7.394531 12.421875 7.484375 12.503906 7.625 12.503906 C 7.792969 12.503906 7.875 12.402344 7.910156 12.347656 C 7.949219 12.292969 7.960938 12.253906 7.976562 12.210938 C 8.003906 12.128906 8.023438 12.039062 8.042969 11.929688 C 8.082031 11.710938 8.117188 11.414062 8.152344 11.058594 C 8.277344 9.65625 8.363281 8.382812 8.464844 7.097656 C 8.582031 8.421875 8.648438 9.75 8.773438 11.058594 C 8.808594 11.414062 8.84375 11.710938 8.882812 11.929688 C 8.902344 12.039062 8.921875 12.128906 8.953125 12.210938 C 8.964844 12.253906 8.980469 12.292969 9.015625 12.347656 C 9.050781 12.402344 9.136719 12.503906 9.300781 12.503906 C 9.445312 12.503906 9.535156 12.421875 9.574219 12.371094 C 9.613281 12.320312 9.632812 12.28125 9.648438 12.238281 C 9.679688 12.160156 9.699219 12.082031 9.71875 11.984375 C 9.761719 11.792969 9.796875 11.539062 9.832031 11.238281 C 9.980469 9.894531 10.074219 8.65625 10.203125 7.390625 C 10.335938 8.242188 10.421875 9.105469 10.5625 9.941406 C 10.605469 10.175781 10.644531 10.367188 10.6875 10.523438 C 10.710938 10.601562 10.734375 10.667969 10.773438 10.738281 C 10.792969 10.773438 10.816406 10.8125 10.863281 10.855469 C 10.90625 10.898438 10.992188 10.953125 11.101562 10.953125 C 11.265625 10.953125 11.363281 10.851562 11.410156 10.785156 C 11.457031 10.722656 11.480469 10.664062 11.503906 10.601562 C 11.550781 10.476562 11.582031 10.332031 11.613281 10.164062 C 11.679688 9.828125 11.730469 9.398438 11.78125 8.96875 C 11.820312 8.632812 11.851562 8.335938 11.882812 8.054688 C 11.945312 8.183594 12.007812 8.316406 12.066406 8.425781 C 12.105469 8.488281 12.140625 8.546875 12.1875 8.609375 C 12.234375 8.667969 12.28125 8.777344 12.5 8.777344 L 15.597656 8.777344 C 15.601562 8.675781 15.605469 8.570312 15.605469 8.46875 C 15.605469 8.363281 15.601562 8.261719 15.597656 8.15625 L 12.632812 8.15625 C 12.625 8.144531 12.621094 8.140625 12.613281 8.121094 C 12.554688 8.019531 12.484375 7.867188 12.40625 7.710938 C 12.332031 7.554688 12.253906 7.394531 12.175781 7.261719 C 12.132812 7.191406 12.09375 7.128906 12.039062 7.070312 C 11.984375 7.007812 11.910156 6.914062 11.722656 6.914062 C 11.578125 6.914062 11.496094 7.003906 11.460938 7.050781 C 11.425781 7.09375 11.417969 7.125 11.40625 7.152344 C 11.382812 7.207031 11.375 7.253906 11.363281 7.308594 C 11.339844 7.417969 11.316406 7.554688 11.296875 7.71875 C 11.253906 8.046875 11.210938 8.472656 11.164062 8.898438 C 11.144531 9.054688 11.121094 9.171875 11.105469 9.324219 C 10.953125 8.378906 10.867188 7.457031 10.710938 6.527344 C 10.671875 6.292969 10.632812 6.101562 10.585938 5.945312 C 10.5625 5.867188 10.539062 5.800781 10.5 5.730469 C 10.480469 5.695312 10.457031 5.65625 10.414062 5.613281 C 10.367188 5.570312 10.28125 5.515625 10.171875 5.515625 C 10.027344 5.515625 9.941406 5.601562 9.898438 5.652344 C 9.859375 5.703125 9.84375 5.742188 9.824219 5.78125 C 9.792969 5.859375 9.773438 5.9375 9.753906 6.035156 C 9.714844 6.226562 9.675781 6.480469 9.640625 6.785156 C 9.515625 7.957031 9.421875 9.015625 9.320312 10.082031 C 9.191406 8.664062 9.128906 7.277344 8.992188 5.875 C 8.957031 5.519531 8.921875 5.226562 8.878906 5.003906 C 8.859375 4.894531 8.84375 4.804688 8.8125 4.722656 C 8.800781 4.679688 8.785156 4.640625 8.75 4.585938 C 8.714844 4.535156 8.628906 4.429688 8.460938 4.429688 Z M 8.46875 4.429688 "/>
</g>
</defs>
<path fill-rule="nonzero" fill="rgb(30.588235%, 60%, 95.294118%)" fill-opacity="1" d="M 15.609375 8.460938 C 15.609375 12.40625 12.414062 15.605469 8.46875 15.605469 C 4.519531 15.605469 1.324219 12.40625 1.324219 8.460938 C 1.324219 4.515625 4.519531 1.316406 8.46875 1.316406 C 12.414062 1.316406 15.609375 4.515625 15.609375 8.460938 Z M 15.609375 8.460938 "/>
<g mask="url(#mask-0)">
<use xlink:href="#source-13822"/>
</g>
<path fill-rule="evenodd" fill="rgb(100%, 100%, 100%)" fill-opacity="1" d="M 7.84375 5.671875 L 6.601562 5.769531 L 6.601562 11.261719 L 7.84375 11.09375 L 7.84375 8.777344 C 8.398438 9.679688 8.871094 10.390625 9.609375 11.261719 L 10.925781 10.898438 C 10.21875 10.011719 9.695312 9.316406 9.214844 8.464844 C 9.714844 7.667969 10.339844 6.78125 10.953125 6.0625 L 9.585938 5.699219 C 8.949219 6.480469 8.351562 7.28125 7.84375 8.089844 "/>
</svg>
