<?xml version="1.0" encoding="UTF-8"?>
<svg xmlns="http://www.w3.org/2000/svg" xmlns:xlink="http://www.w3.org/1999/xlink" width="64" height="64" viewBox="0 0 64 64">
<path fill-rule="nonzero" fill="rgb(51.372549%, 50.196078%, 78.039216%)" fill-opacity="1" d="M 15.609375 8.464844 C 15.609375 12.410156 12.410156 15.609375 8.464844 15.609375 C 4.519531 15.609375 1.324219 12.410156 1.324219 8.464844 C 1.324219 4.519531 4.519531 1.324219 8.464844 1.324219 C 12.410156 1.324219 15.609375 4.519531 15.609375 8.464844 Z M 15.609375 8.464844 "/>
<path fill-rule="evenodd" fill="rgb(100%, 100%, 100%)" fill-opacity="0.3" d="M 5.894531 2.378906 C 5.707031 2.460938 5.519531 2.546875 5.339844 2.644531 L 11.601562 2.644531 C 11.425781 2.546875 11.242188 2.460938 11.054688 2.378906 Z M 3.96875 3.625 C 3.851562 3.734375 3.738281 3.851562 3.625 3.96875 L 3.703125 3.96875 L 3.703125 5.027344 L 2.828125 5.027344 C 2.769531 5.113281 2.714844 5.203125 2.664062 5.292969 L 3.703125 5.292969 L 3.703125 6.351562 L 2.207031 6.351562 C 2.175781 6.4375 2.148438 6.527344 2.121094 6.613281 L 3.703125 6.613281 L 3.703125 7.671875 L 1.90625 7.671875 C 1.894531 7.761719 1.886719 7.847656 1.878906 7.9375 L 3.703125 7.9375 L 3.703125 8.996094 L 1.875 8.996094 C 1.886719 9.085938 1.894531 9.171875 1.90625 9.261719 L 3.703125 9.261719 L 3.703125 10.320312 L 2.121094 10.320312 C 2.148438 10.40625 2.175781 10.496094 2.207031 10.582031 L 3.703125 10.582031 L 3.703125 11.640625 L 2.671875 11.640625 C 2.71875 11.730469 2.769531 11.820312 2.824219 11.90625 L 3.703125 11.90625 L 3.703125 12.964844 L 3.625 12.964844 C 3.734375 13.082031 3.851562 13.195312 3.96875 13.304688 L 3.96875 13.230469 L 13.054688 13.230469 C 13.140625 13.144531 13.222656 13.054688 13.304688 12.964844 L 3.96875 12.964844 L 3.96875 11.90625 L 14.105469 11.90625 C 14.164062 11.820312 14.214844 11.730469 14.269531 11.640625 L 3.96875 11.640625 L 3.96875 10.582031 L 14.726562 10.582031 C 14.757812 10.496094 14.785156 10.40625 14.8125 10.320312 L 3.96875 10.320312 L 3.96875 9.261719 L 15.027344 9.261719 C 15.039062 9.171875 15.046875 9.085938 15.054688 8.996094 L 3.96875 8.996094 L 3.96875 7.9375 L 15.058594 7.9375 C 15.046875 7.847656 15.039062 7.761719 15.023438 7.671875 L 3.96875 7.671875 L 3.96875 6.613281 L 14.8125 6.613281 C 14.785156 6.527344 14.753906 6.4375 14.722656 6.351562 L 3.96875 6.351562 L 3.96875 5.292969 L 14.261719 5.292969 C 14.210938 5.203125 14.160156 5.113281 14.109375 5.027344 L 3.96875 5.027344 L 3.96875 3.96875 L 13.308594 3.96875 C 13.222656 3.878906 13.136719 3.789062 13.046875 3.703125 L 3.96875 3.703125 Z M 5.332031 14.289062 C 5.507812 14.382812 5.691406 14.472656 5.875 14.550781 L 11.039062 14.550781 C 11.230469 14.472656 11.414062 14.386719 11.59375 14.289062 Z M 5.332031 14.289062 "/>
<path fill="none" stroke-width="0.529" stroke-linecap="butt" stroke-linejoin="miter" stroke="rgb(51.372549%, 50.196078%, 78.039216%)" stroke-opacity="1" stroke-miterlimit="4" d="M 12.171875 10.527344 C 12.171875 10.917969 12.089844 11.226562 11.929688 11.457031 C 11.769531 11.6875 11.523438 11.835938 11.191406 11.90625 L 11.191406 11.488281 C 11.320312 11.421875 11.410156 11.296875 11.4375 11.152344 L 11.191406 11.152344 L 11.191406 10.007812 L 12.171875 10.007812 Z M 10.859375 10.527344 C 10.859375 10.917969 10.78125 11.226562 10.621094 11.457031 C 10.460938 11.6875 10.214844 11.835938 9.882812 11.90625 L 9.882812 11.488281 C 9.949219 11.453125 10.007812 11.40625 10.058594 11.351562 C 10.097656 11.292969 10.121094 11.222656 10.125 11.152344 L 9.882812 11.152344 L 9.882812 10.007812 L 10.859375 10.007812 Z M 4.761719 5.019531 L 4.761719 3.96875 L 6.746094 3.96875 L 6.746094 6.277344 L 6.25 6.277344 C 6.300781 6.566406 6.484375 6.816406 6.746094 6.949219 L 6.746094 7.792969 C 6.074219 7.65625 5.574219 7.355469 5.25 6.890625 C 4.925781 6.425781 4.761719 5.800781 4.761719 5.019531 Z M 7.414062 5.019531 L 7.414062 3.96875 L 9.398438 3.96875 L 9.398438 6.277344 L 8.898438 6.277344 C 8.910156 6.417969 8.957031 6.554688 9.035156 6.675781 C 9.105469 6.765625 9.226562 6.859375 9.394531 6.949219 L 9.394531 7.792969 C 8.722656 7.65625 8.222656 7.355469 7.898438 6.890625 C 7.574219 6.425781 7.410156 5.800781 7.410156 5.019531 Z M 7.414062 5.019531 "/>
<path fill-rule="evenodd" fill="rgb(51.372549%, 50.196078%, 78.039216%)" fill-opacity="1" d="M 12.171875 10.527344 C 12.171875 10.917969 12.089844 11.226562 11.929688 11.457031 C 11.769531 11.6875 11.523438 11.835938 11.191406 11.90625 L 11.191406 11.488281 C 11.320312 11.421875 11.410156 11.296875 11.4375 11.152344 L 11.191406 11.152344 L 11.191406 10.007812 L 12.171875 10.007812 Z M 10.859375 10.527344 C 10.859375 10.917969 10.78125 11.226562 10.621094 11.457031 C 10.460938 11.6875 10.214844 11.835938 9.882812 11.90625 L 9.882812 11.488281 C 9.949219 11.453125 10.007812 11.40625 10.058594 11.351562 C 10.097656 11.292969 10.121094 11.222656 10.125 11.152344 L 9.882812 11.152344 L 9.882812 10.007812 L 10.859375 10.007812 Z M 4.761719 5.019531 L 4.761719 3.96875 L 6.746094 3.96875 L 6.746094 6.277344 L 6.25 6.277344 C 6.300781 6.566406 6.484375 6.816406 6.746094 6.949219 L 6.746094 7.792969 C 6.074219 7.65625 5.574219 7.355469 5.25 6.890625 C 4.925781 6.425781 4.761719 5.800781 4.761719 5.019531 Z M 7.414062 5.019531 L 7.414062 3.96875 L 9.398438 3.96875 L 9.398438 6.277344 L 8.898438 6.277344 C 8.910156 6.417969 8.957031 6.554688 9.035156 6.675781 C 9.105469 6.765625 9.226562 6.859375 9.394531 6.949219 L 9.394531 7.792969 C 8.722656 7.65625 8.222656 7.355469 7.898438 6.890625 C 7.574219 6.425781 7.410156 5.800781 7.410156 5.019531 Z M 7.414062 5.019531 "/>
<path fill-rule="evenodd" fill="rgb(100%, 100%, 100%)" fill-opacity="1" d="M 12.171875 10.527344 C 12.171875 10.917969 12.089844 11.226562 11.929688 11.457031 C 11.769531 11.6875 11.523438 11.835938 11.191406 11.90625 L 11.191406 11.488281 C 11.320312 11.421875 11.410156 11.296875 11.4375 11.152344 L 11.191406 11.152344 L 11.191406 10.007812 L 12.171875 10.007812 Z M 10.859375 10.527344 C 10.859375 10.917969 10.78125 11.226562 10.621094 11.457031 C 10.460938 11.6875 10.214844 11.835938 9.882812 11.90625 L 9.882812 11.488281 C 9.949219 11.453125 10.007812 11.40625 10.058594 11.351562 C 10.097656 11.292969 10.121094 11.222656 10.125 11.152344 L 9.882812 11.152344 L 9.882812 10.007812 L 10.859375 10.007812 Z M 4.761719 5.019531 L 4.761719 3.96875 L 6.746094 3.96875 L 6.746094 6.277344 L 6.25 6.277344 C 6.300781 6.566406 6.484375 6.816406 6.746094 6.949219 L 6.746094 7.792969 C 6.074219 7.65625 5.574219 7.355469 5.25 6.890625 C 4.925781 6.425781 4.761719 5.800781 4.761719 5.019531 Z M 7.414062 5.019531 L 7.414062 3.96875 L 9.398438 3.96875 L 9.398438 6.277344 L 8.898438 6.277344 C 8.910156 6.417969 8.957031 6.554688 9.035156 6.675781 C 9.105469 6.765625 9.226562 6.859375 9.394531 6.949219 L 9.394531 7.792969 C 8.722656 7.65625 8.222656 7.355469 7.898438 6.890625 C 7.574219 6.425781 7.410156 5.800781 7.410156 5.019531 Z M 7.414062 5.019531 "/>
</svg>
