<?xml version="1.0" encoding="UTF-8"?>
<svg xmlns="http://www.w3.org/2000/svg" xmlns:xlink="http://www.w3.org/1999/xlink" width="64" height="64" viewBox="0 0 64 64">
<path fill-rule="nonzero" fill="rgb(21.960784%, 21.960784%, 21.960784%)" fill-opacity="1" d="M 32 5 C 46.910156 5 59 17.089844 59 32 C 59 46.910156 46.910156 59 32 59 C 17.089844 59 5 46.910156 5 32 C 5 17.089844 17.089844 5 32 5 Z M 32 5 "/>
<path fill-rule="nonzero" fill="rgb(89.411765%, 78.431373%, 18.431373%)" fill-opacity="1" d="M 22.035156 42.007812 L 27.964844 42.007812 C 27.984375 42.007812 27.996094 42.015625 27.996094 42.015625 L 27.996094 45 C 27.996094 45 27.984375 45.007812 27.964844 45.007812 L 22.035156 45.007812 C 22.019531 45.007812 22.003906 45 22.003906 45 L 22.003906 42.015625 C 22.003906 42.015625 22.019531 42.007812 22.035156 42.007812 "/>
<path fill-rule="nonzero" fill="rgb(89.411765%, 78.431373%, 18.431373%)" fill-opacity="0.902" d="M 22.035156 37.992188 L 27.964844 37.992188 C 27.984375 37.992188 27.996094 37.996094 27.996094 37.996094 L 27.996094 40.980469 C 27.996094 40.980469 27.984375 40.988281 27.964844 40.988281 L 22.035156 40.988281 C 22.019531 40.988281 22.003906 40.980469 22.003906 40.980469 L 22.003906 37.996094 C 22.003906 37.996094 22.019531 37.992188 22.035156 37.992188 "/>
<path fill-rule="nonzero" fill="rgb(89.411765%, 78.431373%, 18.431373%)" fill-opacity="0.8" d="M 22.035156 33.96875 L 27.964844 33.96875 C 27.984375 33.96875 27.996094 33.96875 27.996094 33.976562 L 27.996094 36.921875 C 27.996094 36.925781 27.984375 36.925781 27.964844 36.925781 L 22.035156 36.925781 C 22.019531 36.925781 22.003906 36.925781 22.003906 36.921875 L 22.003906 33.976562 C 22.003906 33.96875 22.019531 33.96875 22.035156 33.96875 "/>
<path fill-rule="nonzero" fill="rgb(89.411765%, 78.431373%, 18.431373%)" fill-opacity="0.702" d="M 22.035156 30.011719 L 27.964844 30.011719 C 27.984375 30.011719 27.996094 30.015625 27.996094 30.015625 L 27.996094 32.945312 C 27.996094 32.945312 27.984375 32.949219 27.964844 32.949219 L 22.035156 32.949219 C 22.019531 32.949219 22.003906 32.945312 22.003906 32.945312 L 22.003906 30.015625 C 22.003906 30.015625 22.019531 30.011719 22.035156 30.011719 "/>
<path fill-rule="nonzero" fill="rgb(89.411765%, 78.431373%, 18.431373%)" fill-opacity="0.6" d="M 22.035156 26.011719 L 27.964844 26.011719 C 27.984375 26.011719 27.996094 26.011719 27.996094 26.019531 L 27.996094 28.925781 C 27.996094 28.925781 27.984375 28.933594 27.964844 28.933594 L 22.035156 28.933594 C 22.019531 28.933594 22.003906 28.925781 22.003906 28.925781 L 22.003906 26.019531 C 22.003906 26.011719 22.019531 26.011719 22.035156 26.011719 "/>
<path fill-rule="nonzero" fill="rgb(24.313725%, 55.294118%, 92.941176%)" fill-opacity="1" d="M 36.03125 42.023438 L 41.96875 42.023438 C 41.984375 42.023438 41.996094 42.023438 41.996094 42.03125 L 41.996094 44.992188 C 41.996094 44.992188 41.984375 45 41.96875 45 L 36.03125 45 C 36.015625 45 36.003906 44.992188 36.003906 44.992188 L 36.003906 42.03125 C 36.003906 42.023438 36.015625 42.023438 36.03125 42.023438 "/>
<path fill-rule="nonzero" fill="rgb(24.313725%, 55.294118%, 92.941176%)" fill-opacity="0.902" d="M 36.03125 38.042969 L 41.96875 38.042969 C 41.984375 38.042969 41.996094 38.050781 41.996094 38.050781 L 41.996094 40.996094 C 41.996094 41 41.984375 41 41.96875 41 L 36.03125 41 C 36.015625 41 36.003906 41 36.003906 40.996094 L 36.003906 38.050781 C 36.003906 38.050781 36.015625 38.042969 36.03125 38.042969 "/>
<path fill-rule="nonzero" fill="rgb(24.313725%, 55.294118%, 92.941176%)" fill-opacity="0.8" d="M 36.03125 34.015625 L 41.96875 34.015625 C 41.984375 34.015625 41.996094 34.023438 41.996094 34.023438 L 41.996094 36.953125 C 41.996094 36.953125 41.984375 36.960938 41.96875 36.960938 L 36.03125 36.960938 C 36.015625 36.960938 36.003906 36.953125 36.003906 36.953125 L 36.003906 34.023438 C 36.003906 34.023438 36.015625 34.015625 36.03125 34.015625 "/>
<path fill-rule="nonzero" fill="rgb(24.313725%, 55.294118%, 92.941176%)" fill-opacity="0.702" d="M 36.03125 30.085938 L 41.96875 30.085938 C 41.984375 30.085938 41.996094 30.085938 41.996094 30.09375 L 41.996094 33 C 41.996094 33 41.984375 33.007812 41.96875 33.007812 L 36.03125 33.007812 C 36.015625 33.007812 36.003906 33 36.003906 33 L 36.003906 30.09375 C 36.003906 30.085938 36.015625 30.085938 36.03125 30.085938 "/>
<path fill-rule="nonzero" fill="rgb(24.313725%, 55.294118%, 92.941176%)" fill-opacity="0.6" d="M 36.03125 26.101562 L 41.96875 26.101562 C 41.984375 26.101562 41.996094 26.109375 41.996094 26.109375 L 41.996094 28.996094 C 41.996094 29 41.984375 29 41.96875 29 L 36.03125 29 C 36.015625 29 36.003906 29 36.003906 28.996094 L 36.003906 26.109375 C 36.003906 26.109375 36.015625 26.101562 36.03125 26.101562 "/>
<path fill-rule="nonzero" fill="rgb(24.313725%, 55.294118%, 92.941176%)" fill-opacity="0.502" d="M 36.03125 22 L 41.96875 22 C 41.984375 22 41.996094 22.007812 41.996094 22.007812 L 41.996094 24.992188 C 41.996094 24.996094 41.984375 24.996094 41.96875 24.996094 L 36.03125 24.996094 C 36.015625 24.996094 36.003906 24.996094 36.003906 24.992188 L 36.003906 22.007812 C 36.003906 22.007812 36.015625 22 36.03125 22 "/>
<path fill-rule="nonzero" fill="rgb(85.882353%, 30.196078%, 85.882353%)" fill-opacity="1" d="M 43.03125 42.007812 L 48.96875 42.007812 C 48.984375 42.007812 48.996094 42.015625 48.996094 42.015625 L 48.996094 45 C 48.996094 45 48.984375 45.007812 48.96875 45.007812 L 43.03125 45.007812 C 43.015625 45.007812 43.003906 45 43.003906 45 L 43.003906 42.015625 C 43.003906 42.015625 43.015625 42.007812 43.03125 42.007812 "/>
<path fill-rule="nonzero" fill="rgb(85.882353%, 30.196078%, 85.882353%)" fill-opacity="0.902" d="M 43.03125 38.015625 L 48.96875 38.015625 C 48.984375 38.015625 48.996094 38.015625 48.996094 38.019531 L 48.996094 40.988281 C 48.996094 40.988281 48.984375 40.992188 48.96875 40.992188 L 43.03125 40.992188 C 43.015625 40.992188 43.003906 40.988281 43.003906 40.988281 L 43.003906 38.019531 C 43.003906 38.015625 43.015625 38.015625 43.03125 38.015625 "/>
<path fill-rule="nonzero" fill="rgb(85.882353%, 30.196078%, 85.882353%)" fill-opacity="0.8" d="M 43.03125 33.96875 L 48.96875 33.96875 C 48.984375 33.96875 48.996094 33.96875 48.996094 33.976562 L 48.996094 36.921875 C 48.996094 36.925781 48.984375 36.925781 48.96875 36.925781 L 43.03125 36.925781 C 43.015625 36.925781 43.003906 36.925781 43.003906 36.921875 L 43.003906 33.976562 C 43.003906 33.96875 43.015625 33.96875 43.03125 33.96875 "/>
<path fill-rule="nonzero" fill="rgb(85.882353%, 30.196078%, 85.882353%)" fill-opacity="0.702" d="M 43.03125 30.011719 L 48.96875 30.011719 C 48.984375 30.011719 48.996094 30.015625 48.996094 30.015625 L 48.996094 32.945312 C 48.996094 32.945312 48.984375 32.949219 48.96875 32.949219 L 43.03125 32.949219 C 43.015625 32.949219 43.003906 32.945312 43.003906 32.945312 L 43.003906 30.015625 C 43.003906 30.015625 43.015625 30.011719 43.03125 30.011719 "/>
<path fill-rule="nonzero" fill="rgb(85.882353%, 30.196078%, 85.882353%)" fill-opacity="0.6" d="M 43.03125 26.011719 L 48.96875 26.011719 C 48.984375 26.011719 48.996094 26.011719 48.996094 26.019531 L 48.996094 28.925781 C 48.996094 28.925781 48.984375 28.933594 48.96875 28.933594 L 43.03125 28.933594 C 43.015625 28.933594 43.003906 28.925781 43.003906 28.925781 L 43.003906 26.019531 C 43.003906 26.011719 43.015625 26.011719 43.03125 26.011719 "/>
<path fill-rule="nonzero" fill="rgb(49.803922%, 81.176471%, 35.686275%)" fill-opacity="1" d="M 29.035156 42.007812 L 34.964844 42.007812 C 34.984375 42.007812 34.996094 42.015625 34.996094 42.015625 L 34.996094 45 C 34.996094 45 34.984375 45.007812 34.964844 45.007812 L 29.035156 45.007812 C 29.019531 45.007812 29.003906 45 29.003906 45 L 29.003906 42.015625 C 29.003906 42.015625 29.019531 42.007812 29.035156 42.007812 "/>
<path fill-rule="nonzero" fill="rgb(49.803922%, 81.176471%, 35.686275%)" fill-opacity="0.902" d="M 29.035156 38.015625 L 34.964844 38.015625 C 34.984375 38.015625 34.996094 38.015625 34.996094 38.019531 L 34.996094 40.988281 C 34.996094 40.988281 34.984375 40.992188 34.964844 40.992188 L 29.035156 40.992188 C 29.019531 40.992188 29.003906 40.988281 29.003906 40.988281 L 29.003906 38.019531 C 29.003906 38.015625 29.019531 38.015625 29.035156 38.015625 "/>
<path fill-rule="nonzero" fill="rgb(49.803922%, 81.176471%, 35.686275%)" fill-opacity="0.8" d="M 29.035156 33.96875 L 34.964844 33.96875 C 34.984375 33.96875 34.996094 33.96875 34.996094 33.976562 L 34.996094 36.921875 C 34.996094 36.925781 34.984375 36.925781 34.964844 36.925781 L 29.035156 36.925781 C 29.019531 36.925781 29.003906 36.925781 29.003906 36.921875 L 29.003906 33.976562 C 29.003906 33.96875 29.019531 33.96875 29.035156 33.96875 "/>
<path fill-rule="nonzero" fill="rgb(77.254902%, 18.431373%, 18.431373%)" fill-opacity="1" d="M 15.035156 42.007812 L 20.964844 42.007812 C 20.984375 42.007812 20.996094 42.015625 20.996094 42.015625 L 20.996094 45 C 20.996094 45 20.984375 45.007812 20.964844 45.007812 L 15.035156 45.007812 C 15.019531 45.007812 15.003906 45 15.003906 45 L 15.003906 42.015625 C 15.003906 42.015625 15.019531 42.007812 15.035156 42.007812 "/>
<path fill-rule="nonzero" fill="rgb(77.254902%, 18.431373%, 18.431373%)" fill-opacity="0.902" d="M 15.035156 38.042969 L 20.964844 38.042969 C 20.984375 38.042969 20.996094 38.050781 20.996094 38.050781 L 20.996094 41 L 15.003906 41 L 15.003906 38.050781 C 15.003906 38.050781 15.019531 38.042969 15.035156 38.042969 "/>
<path fill-rule="nonzero" fill="rgb(77.254902%, 18.431373%, 18.431373%)" fill-opacity="0.8" d="M 15.035156 34 L 20.996094 34 L 20.996094 36.933594 C 20.996094 36.9375 20.984375 36.9375 20.964844 36.9375 L 15.035156 36.9375 C 15.019531 36.9375 15.003906 36.9375 15.003906 36.933594 L 15.003906 34 L 15.035156 34 "/>
<path fill-rule="nonzero" fill="rgb(77.254902%, 18.431373%, 18.431373%)" fill-opacity="0.702" d="M 15.035156 30.085938 L 20.964844 30.085938 C 20.984375 30.085938 20.996094 30.085938 20.996094 30.09375 L 20.996094 33 C 20.996094 33 20.984375 33.007812 20.964844 33.007812 L 15.035156 33.007812 C 15.019531 33.007812 15.003906 33 15.003906 33 L 15.003906 30.09375 C 15.003906 30.085938 15.019531 30.085938 15.035156 30.085938 "/>
<path fill-rule="nonzero" fill="rgb(77.254902%, 18.431373%, 18.431373%)" fill-opacity="0.6" d="M 15.035156 26.101562 L 20.964844 26.101562 C 20.984375 26.101562 20.996094 26.109375 20.996094 26.109375 L 20.996094 29 L 15.003906 29 L 15.003906 26.109375 C 15.003906 26.109375 15.019531 26.101562 15.035156 26.101562 "/>
<path fill-rule="nonzero" fill="rgb(77.254902%, 18.431373%, 18.431373%)" fill-opacity="0.502" d="M 15.035156 22 L 20.964844 22 C 20.984375 22 20.996094 22 20.996094 22.007812 L 20.996094 24.984375 C 20.996094 24.992188 20.984375 24.992188 20.964844 24.992188 L 15.035156 24.992188 C 15.019531 24.992188 15.003906 24.992188 15.003906 24.984375 L 15.003906 22.007812 C 15.003906 22 15.019531 22 15.035156 22 "/>
<path fill-rule="nonzero" fill="rgb(77.254902%, 18.431373%, 18.431373%)" fill-opacity="0.4" d="M 15.035156 18.007812 L 20.964844 18.007812 C 20.984375 18.007812 20.996094 18.015625 20.996094 18.015625 L 20.996094 21 C 20.996094 21 20.984375 21.007812 20.964844 21.007812 L 15.035156 21.007812 C 15.019531 21.007812 15.003906 21 15.003906 21 L 15.003906 18.015625 C 15.003906 18.015625 15.019531 18.007812 15.035156 18.007812 "/>
</svg>
