<?xml version="1.0" encoding="UTF-8"?>
<svg xmlns="http://www.w3.org/2000/svg" xmlns:xlink="http://www.w3.org/1999/xlink" width="64" height="64" viewBox="0 0 64 64">
<path fill-rule="nonzero" fill="rgb(89.019608%, 18.823529%, 20.784314%)" fill-opacity="1" d="M 15.609375 8.460938 C 15.609375 12.40625 12.410156 15.605469 8.464844 15.605469 C 4.519531 15.605469 1.324219 12.40625 1.324219 8.460938 C 1.324219 4.515625 4.519531 1.316406 8.464844 1.316406 C 12.410156 1.316406 15.609375 4.515625 15.609375 8.460938 Z M 15.609375 8.460938 "/>
<path fill-rule="nonzero" fill="rgb(100%, 100%, 100%)" fill-opacity="1" d="M 6.378906 11.042969 C 6.144531 11 5.921875 10.925781 5.707031 10.824219 C 4.398438 10.199219 3.863281 8.617188 4.507812 7.285156 C 5.242188 5.765625 7.253906 5.378906 8.464844 6.523438 C 8.8125 6.855469 8.96875 7.136719 9.496094 8.390625 C 10.046875 9.699219 10.148438 9.90625 10.324219 10.078125 C 10.515625 10.265625 10.691406 10.328125 11.03125 10.328125 C 11.589844 10.328125 11.984375 9.984375 11.984375 9.503906 C 11.984375 9.097656 11.84375 8.96875 11.113281 8.710938 C 10.007812 8.308594 9.648438 7.949219 9.644531 7.222656 C 9.644531 6.835938 9.742188 6.578125 9.992188 6.3125 C 10.351562 5.929688 10.96875 5.804688 11.511719 5.992188 C 11.746094 6.074219 12.234375 6.507812 12.234375 6.632812 C 12.234375 6.691406 11.953125 6.875 11.796875 6.917969 C 11.710938 6.9375 11.640625 6.910156 11.546875 6.820312 C 11.351562 6.632812 11.222656 6.574219 10.988281 6.574219 C 10.589844 6.574219 10.34375 6.816406 10.34375 7.203125 C 10.34375 7.59375 10.5 7.722656 11.289062 7.988281 C 12.371094 8.355469 12.691406 8.6875 12.699219 9.453125 C 12.707031 10.113281 12.410156 10.589844 11.816406 10.871094 C 11.546875 11 11.453125 11.015625 11.015625 11.015625 C 10.386719 11.015625 10.101562 10.898438 9.75 10.503906 C 9.515625 10.234375 9.273438 9.734375 8.503906 7.902344 C 8.183594 7.144531 7.773438 6.773438 7.09375 6.628906 C 6.703125 6.558594 6.304688 6.617188 5.949219 6.789062 C 5.644531 6.949219 5.300781 7.308594 5.140625 7.640625 C 5.003906 7.910156 4.992188 7.984375 4.992188 8.449219 C 4.992188 8.894531 5.011719 9 5.121094 9.246094 C 5.292969 9.617188 5.625 9.964844 5.992188 10.148438 C 6.257812 10.28125 6.339844 10.300781 6.761719 10.300781 C 7.164062 10.300781 7.269531 10.277344 7.511719 10.164062 C 7.789062 10.03125 8.160156 9.699219 8.3125 9.449219 L 8.390625 9.320312 L 8.546875 9.675781 C 8.632812 9.871094 8.703125 10.058594 8.703125 10.089844 C 8.703125 10.1875 8.351562 10.507812 8.027344 10.710938 C 7.535156 11.011719 6.953125 11.128906 6.378906 11.042969 M 6.378906 11.042969 "/>
</svg>
