<?xml version="1.0" encoding="UTF-8"?>
<svg xmlns="http://www.w3.org/2000/svg" xmlns:xlink="http://www.w3.org/1999/xlink" width="64" height="64" viewBox="0 0 64 64">
<path fill-rule="nonzero" fill="rgb(92.54902%, 92.54902%, 92.54902%)" fill-opacity="1" d="M 59 32 C 59 46.910156 46.910156 59 32 59 C 17.089844 59 5 46.910156 5 32 C 5 17.089844 17.089844 5 32 5 C 46.910156 5 59 17.089844 59 32 Z M 59 32 "/>
<path fill-rule="nonzero" fill="rgb(16.470588%, 16.470588%, 16.470588%)" fill-opacity="1" d="M 32 18.453125 L 14.390625 29.917969 L 14.390625 36.902344 L 32 45.542969 L 45.542969 36.738281 L 45.542969 38.773438 L 49.609375 33.355469 L 45.542969 32 L 45.542969 34.03125 L 32 42.835938 L 17.101562 35.226562 L 17.101562 31.371094 L 32.097656 21.371094 L 46.898438 27.9375 L 32 37.417969 L 19.808594 31.265625 L 19.808594 33.976562 L 32 40.125 L 49.609375 29.289062 L 49.609375 26.582031 Z M 32 18.453125 "/>
</svg>
