<?xml version="1.0" encoding="UTF-8"?>
<svg xmlns="http://www.w3.org/2000/svg" xmlns:xlink="http://www.w3.org/1999/xlink" width="64" height="64" viewBox="0 0 64 64">
<defs>
<filter id="filter-remove-color" x="0%" y="0%" width="100%" height="100%">
<feColorMatrix color-interpolation-filters="sRGB" values="0 0 0 0 1 0 0 0 0 1 0 0 0 0 1 0 0 0 1 0" />
</filter>
<mask id="mask-0">
<g filter="url(#filter-remove-color)">
<rect x="-6.4" y="-6.4" width="76.8" height="76.8" fill="rgb(0%, 0%, 0%)" fill-opacity="0.1"/>
</g>
</mask>
<clipPath id="clip-0">
<rect x="0" y="0" width="17" height="17"/>
</clipPath>
<g id="source-14996" clip-path="url(#clip-0)">
<path fill-rule="nonzero" fill="rgb(100%, 100%, 100%)" fill-opacity="1" d="M 14.550781 8.460938 C 14.550781 11.820312 11.828125 14.546875 8.464844 14.546875 C 5.105469 14.546875 2.382812 11.820312 2.382812 8.460938 C 2.382812 5.097656 5.105469 2.375 8.464844 2.375 C 11.828125 2.375 14.550781 5.097656 14.550781 8.460938 Z M 14.550781 8.460938 "/>
</g>
<mask id="mask-1">
<g filter="url(#filter-remove-color)">
<rect x="-6.4" y="-6.4" width="76.8" height="76.8" fill="rgb(0%, 0%, 0%)" fill-opacity="0.15"/>
</g>
</mask>
<clipPath id="clip-1">
<rect x="0" y="0" width="17" height="17"/>
</clipPath>
<g id="source-15000" clip-path="url(#clip-1)">
<path fill-rule="evenodd" fill="rgb(0%, 0%, 0%)" fill-opacity="1" d="M 9.789062 5.292969 C 9.789062 6.460938 8.839844 7.40625 7.671875 7.40625 C 6.503906 7.40625 5.554688 6.460938 5.554688 5.292969 C 5.554688 4.121094 6.503906 3.175781 7.671875 3.175781 C 8.839844 3.175781 9.789062 4.121094 9.789062 5.292969 Z M 9.789062 5.292969 "/>
</g>
<mask id="mask-2">
<g filter="url(#filter-remove-color)">
<rect x="-6.4" y="-6.4" width="76.8" height="76.8" fill="rgb(0%, 0%, 0%)" fill-opacity="0.15"/>
</g>
</mask>
<clipPath id="clip-2">
<rect x="0" y="0" width="17" height="17"/>
</clipPath>
<g id="source-15004" clip-path="url(#clip-2)">
<path fill-rule="evenodd" fill="rgb(0%, 0%, 0%)" fill-opacity="1" d="M 9.261719 5.292969 C 9.261719 6.167969 8.550781 6.878906 7.671875 6.878906 C 6.796875 6.878906 6.085938 6.167969 6.085938 5.292969 C 6.085938 4.414062 6.796875 3.703125 7.671875 3.703125 C 8.550781 3.703125 9.261719 4.414062 9.261719 5.292969 Z M 9.261719 5.292969 "/>
</g>
<mask id="mask-3">
<g filter="url(#filter-remove-color)">
<rect x="-6.4" y="-6.4" width="76.8" height="76.8" fill="rgb(0%, 0%, 0%)" fill-opacity="0.15"/>
</g>
</mask>
<clipPath id="clip-3">
<rect x="0" y="0" width="17" height="17"/>
</clipPath>
<g id="source-15008" clip-path="url(#clip-3)">
<path fill-rule="evenodd" fill="rgb(0%, 0%, 0%)" fill-opacity="1" d="M 8.730469 5.292969 C 8.730469 5.875 8.257812 6.351562 7.671875 6.351562 C 7.089844 6.351562 6.613281 5.875 6.613281 5.292969 C 6.613281 4.707031 7.089844 4.234375 7.671875 4.234375 C 8.257812 4.234375 8.730469 4.707031 8.730469 5.292969 Z M 8.730469 5.292969 "/>
</g>
</defs>
<path fill-rule="nonzero" fill="rgb(30.588235%, 60%, 95.294118%)" fill-opacity="1" d="M 15.609375 8.460938 C 15.609375 12.40625 12.410156 15.605469 8.464844 15.605469 C 4.519531 15.605469 1.324219 12.40625 1.324219 8.460938 C 1.324219 4.515625 4.519531 1.316406 8.464844 1.316406 C 12.410156 1.316406 15.609375 4.515625 15.609375 8.460938 Z M 15.609375 8.460938 "/>
<g mask="url(#mask-0)">
<use xlink:href="#source-14996"/>
</g>
<g mask="url(#mask-1)">
<use xlink:href="#source-15000"/>
</g>
<g mask="url(#mask-2)">
<use xlink:href="#source-15004"/>
</g>
<g mask="url(#mask-3)">
<use xlink:href="#source-15008"/>
</g>
<path fill-rule="nonzero" fill="rgb(100%, 100%, 100%)" fill-opacity="1" d="M 7.671875 5.027344 C 7.410156 5.027344 7.214844 5.238281 7.195312 5.503906 L 7.195312 10.742188 L 5.46875 9.292969 C 5.375 9.199219 5.253906 9.15625 5.132812 9.15625 C 5.011719 9.15625 4.890625 9.199219 4.796875 9.292969 C 4.703125 9.386719 4.65625 9.507812 4.65625 9.628906 C 4.65625 9.753906 4.703125 9.875 4.796875 9.96875 L 7.671875 12.648438 C 7.671875 12.648438 8.269531 13.28125 9.101562 13.28125 C 10.152344 13.28125 11.007812 12.570312 11.007812 11.695312 L 11.007812 8.519531 C 11.007812 8.34375 10.863281 8.203125 10.6875 8.203125 L 10.371094 8.203125 L 10.371094 9.789062 L 10.054688 9.789062 L 10.054688 7.828125 C 10.054688 7.652344 9.914062 7.511719 9.738281 7.511719 L 9.417969 7.511719 L 9.417969 9.472656 L 9.101562 9.472656 L 9.101562 6.851562 C 9.101562 6.722656 8.960938 6.613281 8.785156 6.613281 C 8.609375 6.613281 8.464844 6.722656 8.464844 6.851562 L 8.464844 9.15625 L 8.148438 9.15625 L 8.148438 5.503906 C 8.148438 5.238281 7.9375 5.027344 7.671875 5.027344 Z M 7.671875 5.027344 "/>
</svg>
