<?xml version="1.0" encoding="UTF-8"?>
<svg xmlns="http://www.w3.org/2000/svg" xmlns:xlink="http://www.w3.org/1999/xlink" width="64" height="64" viewBox="0 0 64 64">
<defs>
<filter id="filter-remove-color" x="0%" y="0%" width="100%" height="100%">
<feColorMatrix color-interpolation-filters="sRGB" values="0 0 0 0 1 0 0 0 0 1 0 0 0 0 1 0 0 0 1 0" />
</filter>
<mask id="mask-0">
<g filter="url(#filter-remove-color)">
<rect x="-6.4" y="-6.4" width="76.8" height="76.8" fill="rgb(0%, 0%, 0%)" fill-opacity="0.5"/>
</g>
</mask>
<clipPath id="clip-0">
<rect x="0" y="0" width="17" height="17"/>
</clipPath>
<g id="source-7098" clip-path="url(#clip-0)">
<path fill-rule="nonzero" fill="rgb(100%, 100%, 100%)" fill-opacity="1" d="M 9.847656 2.546875 L 14.386719 7.085938 C 13.859375 4.832031 12.097656 3.074219 9.847656 2.546875 Z M 9.847656 2.546875 "/>
</g>
</defs>
<path fill-rule="nonzero" fill="rgb(24.705882%, 31.764706%, 70.980392%)" fill-opacity="1" d="M 15.609375 8.464844 C 15.609375 12.410156 12.410156 15.609375 8.464844 15.609375 C 4.519531 15.609375 1.324219 12.410156 1.324219 8.464844 C 1.324219 4.519531 4.519531 1.324219 8.464844 1.324219 C 12.410156 1.324219 15.609375 4.519531 15.609375 8.464844 Z M 15.609375 8.464844 "/>
<g mask="url(#mask-0)">
<use xlink:href="#source-7098"/>
</g>
<path fill-rule="nonzero" fill="rgb(100%, 100%, 100%)" fill-opacity="1" d="M 8.195312 2.390625 C 4.945312 2.535156 2.382812 5.210938 2.382812 8.464844 C 2.382812 11.828125 5.105469 14.550781 8.464844 14.550781 C 11.71875 14.546875 14.394531 11.984375 14.539062 8.734375 Z M 8.195312 2.390625 "/>
<path fill-rule="nonzero" fill="rgb(80%, 80%, 80%)" fill-opacity="1" d="M 5.292969 12.171875 L 5.292969 11.640625 L 9.789062 11.640625 L 9.789062 12.171875 Z M 5.292969 10.847656 L 5.292969 10.316406 L 11.640625 10.316406 L 11.640625 10.847656 Z M 5.292969 9.523438 L 5.292969 8.996094 L 11.640625 8.996094 L 11.640625 9.523438 Z M 5.292969 8.203125 L 5.292969 7.671875 L 11.640625 7.671875 L 11.640625 8.203125 Z M 5.292969 8.203125 "/>
</svg>
