<?xml version="1.0" encoding="UTF-8"?>
<svg xmlns="http://www.w3.org/2000/svg" xmlns:xlink="http://www.w3.org/1999/xlink" width="64" height="64" viewBox="0 0 64 64">
<path fill="none" stroke-width="0.529" stroke-linecap="butt" stroke-linejoin="miter" stroke="rgb(0%, 0%, 0%)" stroke-opacity="0.059" stroke-miterlimit="4" d="M 15.609375 288.530945 C 15.609375 292.476257 12.410156 295.675476 8.464844 295.675476 C 4.519531 295.675476 1.324219 292.476257 1.324219 288.530945 C 1.324219 284.585632 4.519531 281.386414 8.464844 281.386414 C 12.410156 281.386414 15.609375 284.585632 15.609375 288.530945 Z M 15.609375 288.530945 " transform="matrix(1, 0, 0, 1, 0, -280.070007)"/>
<path fill-rule="nonzero" fill="rgb(100%, 100%, 100%)" fill-opacity="1" d="M 15.609375 8.460938 C 15.609375 12.40625 12.410156 15.605469 8.464844 15.605469 C 4.519531 15.605469 1.324219 12.40625 1.324219 8.460938 C 1.324219 4.515625 4.519531 1.316406 8.464844 1.316406 C 12.410156 1.316406 15.609375 4.515625 15.609375 8.460938 Z M 15.609375 8.460938 "/>
<path fill-rule="nonzero" fill="rgb(100%, 100%, 100%)" fill-opacity="1" d="M 15.609375 8.460938 C 15.609375 12.40625 12.410156 15.605469 8.464844 15.605469 C 4.519531 15.605469 1.324219 12.40625 1.324219 8.460938 C 1.324219 4.515625 4.519531 1.316406 8.464844 1.316406 C 12.410156 1.316406 15.609375 4.515625 15.609375 8.460938 Z M 15.609375 8.460938 "/>
<path fill-rule="nonzero" fill="rgb(100%, 33.333333%, 33.333333%)" fill-opacity="1" d="M 8.316406 3.96875 C 7.175781 4.007812 6.09375 4.476562 5.285156 5.28125 C 3.6875 6.886719 3.53125 9.429688 4.917969 11.21875 L 5.863281 10.273438 C 4.988281 9.011719 5.136719 7.304688 6.222656 6.21875 C 7.085938 5.355469 8.371094 5.066406 9.523438 5.476562 L 9.523438 6.609375 L 11.222656 4.914062 C 10.394531 4.269531 9.367188 3.9375 8.316406 3.96875 Z M 8.316406 3.96875 "/>
<path fill-rule="nonzero" fill="rgb(100%, 50.196078%, 50.196078%)" fill-opacity="1" d="M 12.015625 5.710938 L 11.070312 6.652344 C 11.945312 7.914062 11.792969 9.621094 10.710938 10.707031 C 9.84375 11.570312 8.558594 11.859375 7.40625 11.453125 L 7.40625 10.316406 L 5.710938 12.011719 C 7.5 13.402344 10.042969 13.242188 11.648438 11.644531 C 13.246094 10.039062 13.402344 7.496094 12.015625 5.710938 Z M 12.015625 5.710938 "/>
</svg>
