<?xml version="1.0" encoding="UTF-8"?>
<svg xmlns="http://www.w3.org/2000/svg" xmlns:xlink="http://www.w3.org/1999/xlink" width="64" height="64" viewBox="0 0 64 64">
<path fill-rule="nonzero" fill="rgb(25.882353%, 25.882353%, 25.882353%)" fill-opacity="1" d="M 59 32 C 59 46.910156 46.910156 59 32 59 C 17.089844 59 5 46.910156 5 32 C 5 17.089844 17.089844 5 32 5 C 46.910156 5 59 17.089844 59 32 Z M 59 32 "/>
<path fill-rule="nonzero" fill="rgb(40%, 73.333333%, 41.568627%)" fill-opacity="1" d="M 50 32 C 50 41.941406 41.941406 50 32 50 C 22.058594 50 14 41.941406 14 32 C 14 22.058594 22.058594 14 32 14 C 41.941406 14 50 22.058594 50 32 Z M 50 32 "/>
<path fill-rule="nonzero" fill="rgb(98.039216%, 98.039216%, 98.039216%)" fill-opacity="1" d="M 28 22 L 28 32 L 22 32 L 32 42 L 42 32 L 36 32 L 36 22 Z M 28 22 "/>
</svg>
