<?xml version="1.0" encoding="UTF-8"?>
<svg xmlns="http://www.w3.org/2000/svg" xmlns:xlink="http://www.w3.org/1999/xlink" width="64" height="64" viewBox="0 0 64 64">
<defs>
<linearGradient id="linear-pattern-0" gradientUnits="userSpaceOnUse" x1="0" y1="47" x2="0" y2="1" gradientTransform="matrix(0.310596, 0, 0, 0.310623, 1.012306, 1.025641)">
<stop offset="0" stop-color="rgb(92.941176%, 28.627451%, 39.215686%)" stop-opacity="1"/>
<stop offset="1" stop-color="rgb(93.72549%, 35.686275%, 45.490196%)" stop-opacity="1"/>
</linearGradient>
</defs>
<path fill-rule="nonzero" fill="rgb(94.901961%, 94.901961%, 94.901961%)" fill-opacity="1" d="M 9.835938 1.457031 L 6.441406 1.617188 C 5.167969 1.992188 4.023438 2.71875 3.140625 3.707031 L 1.464844 7.042969 C 1.21875 8.265625 1.292969 9.527344 1.683594 10.710938 L 3.648438 13.742188 C 4.617188 14.628906 5.808594 15.226562 7.09375 15.476562 L 7.089844 15.476562 L 10.59375 15.289062 C 11.835938 14.902344 12.945312 14.183594 13.808594 13.210938 L 15.453125 9.953125 L 15.453125 9.957031 C 15.71875 8.710938 15.644531 7.421875 15.246094 6.214844 L 15.242188 6.21875 L 13.164062 3.089844 C 12.21875 2.261719 11.070312 1.699219 9.835938 1.457031 Z M 9.835938 1.457031 "/>
<path fill-rule="nonzero" fill="url(#linear-pattern-0)" d="M 8.464844 1.332031 C 7.761719 1.332031 7.082031 1.433594 6.441406 1.625 C 5.980469 2.605469 5.996094 4.292969 6.222656 5.085938 C 6.445312 5.859375 6.753906 6.601562 7.074219 7.335938 C 6.53125 7.214844 6.003906 7.015625 5.515625 6.75 C 4.667969 6.257812 3.46875 4.851562 3.144531 3.710938 C 2.296875 4.65625 1.714844 5.808594 1.464844 7.054688 C 2.039062 7.839844 3.363281 8.597656 4.339844 8.839844 C 5.128906 9.039062 5.925781 9.121094 6.71875 9.191406 C 6.351562 9.566406 5.957031 9.90625 5.5 10.171875 C 4.652344 10.664062 2.828125 11.003906 1.675781 10.707031 C 2.0625 11.878906 2.742188 12.929688 3.65625 13.761719 C 4.746094 13.671875 6.164062 12.828125 6.722656 12.234375 C 7.277344 11.640625 7.757812 10.972656 8.226562 10.304688 C 8.371094 10.828125 8.460938 11.355469 8.464844 11.890625 C 8.464844 12.875 7.878906 14.640625 7.09375 15.484375 C 8.257812 15.714844 9.460938 15.648438 10.59375 15.296875 C 10.980469 14.414062 10.976562 12.847656 10.710938 11.863281 C 10.496094 11.0625 10.183594 10.3125 9.859375 9.574219 C 10.410156 9.703125 10.9375 9.886719 11.433594 10.167969 C 12.28125 10.65625 13.488281 12.070312 13.808594 13.214844 C 14.628906 12.292969 15.195312 11.167969 15.453125 9.960938 C 14.828125 9.0625 13.398438 8.261719 12.605469 8.078125 C 11.816406 7.894531 11.007812 7.808594 10.203125 7.738281 C 10.5625 7.359375 10.96875 7.027344 11.417969 6.757812 C 12.265625 6.269531 14.09375 5.929688 15.242188 6.222656 C 14.839844 5.015625 14.121094 3.933594 13.164062 3.097656 C 12.199219 3.210938 10.890625 3.976562 10.195312 4.695312 C 9.625 5.285156 9.152344 5.9375 8.691406 6.597656 C 8.550781 6.097656 8.476562 5.578125 8.464844 5.058594 C 8.464844 4.074219 9.050781 2.308594 9.835938 1.464844 C 9.386719 1.375 8.925781 1.332031 8.464844 1.332031 Z M 8.464844 1.332031 "/>
<path fill-rule="nonzero" fill="rgb(100%, 100%, 100%)" fill-opacity="1" d="M 12.195312 8.46875 C 12.144531 10.492188 10.492188 12.109375 8.464844 12.109375 C 6.441406 12.109375 4.789062 10.492188 4.738281 8.46875 C 4.707031 7.113281 5.410156 5.851562 6.578125 5.164062 C 7.742188 4.480469 9.191406 4.480469 10.355469 5.164062 C 11.523438 5.851562 12.226562 7.113281 12.195312 8.46875 Z M 12.195312 8.46875 "/>
<path fill-rule="nonzero" fill="rgb(93.333333%, 32.156863%, 42.352941%)" fill-opacity="1" d="M 10.539062 8.613281 L 7.445312 10.609375 C 7.324219 10.6875 7.222656 10.621094 7.222656 10.425781 L 7.222656 6.511719 C 7.222656 6.289062 7.320312 6.253906 7.445312 6.328125 L 10.539062 8.328125 C 10.675781 8.417969 10.671875 8.527344 10.539062 8.613281 Z M 10.539062 8.613281 "/>
</svg>
