<?xml version="1.0" encoding="UTF-8"?>
<svg xmlns="http://www.w3.org/2000/svg" xmlns:xlink="http://www.w3.org/1999/xlink" width="64" height="64" viewBox="0 0 64 64">
<path fill-rule="nonzero" fill="rgb(98.431373%, 74.901961%, 0%)" fill-opacity="1" d="M 15.609375 8.464844 C 15.609375 12.414062 12.414062 15.609375 8.464844 15.609375 C 4.519531 15.609375 1.324219 12.414062 1.324219 8.464844 C 1.324219 4.519531 4.519531 1.324219 8.464844 1.324219 C 12.414062 1.324219 15.609375 4.519531 15.609375 8.464844 Z M 15.609375 8.464844 "/>
<path fill-rule="nonzero" fill="rgb(100%, 100%, 100%)" fill-opacity="1" d="M 4.0625 10.695312 L 8.464844 9.222656 L 12.871094 10.695312 L 8.464844 12.171875 Z M 4.0625 10.695312 "/>
<path fill-rule="nonzero" fill="rgb(98.431373%, 74.901961%, 0%)" fill-opacity="1" d="M 11.253906 10.636719 C 11.253906 10.90625 10.816406 11.125 10.273438 11.125 C 9.734375 11.125 9.296875 10.90625 9.296875 10.636719 C 9.296875 10.363281 9.734375 10.144531 10.273438 10.144531 C 10.816406 10.144531 11.253906 10.363281 11.253906 10.636719 Z M 11.253906 10.636719 "/>
<path fill-rule="nonzero" fill="rgb(100%, 100%, 100%)" fill-opacity="1" stroke-width="0.21418" stroke-linecap="butt" stroke-linejoin="miter" stroke="rgb(98.431373%, 74.901961%, 0%)" stroke-opacity="1" stroke-miterlimit="4" d="M 7.674226 7.275163 C 7.892877 7.275163 8.070333 7.45503 8.070333 7.672762 L 8.070333 10.055199 C 8.070333 10.272932 7.892877 10.449642 7.674226 10.449642 C 7.452406 10.449642 7.27495 10.272932 7.27495 10.055199 L 7.27495 7.672762 C 7.27495 7.45503 7.452406 7.275163 7.674226 7.275163 Z M 7.674226 7.275163 " transform="matrix(1.2327, 0, 0, 1.2379, -2.9483, -2.2403)"/>
<path fill-rule="nonzero" fill="rgb(100%, 100%, 100%)" fill-opacity="1" stroke-width="0.21418" stroke-linecap="butt" stroke-linejoin="miter" stroke="rgb(98.431373%, 74.901961%, 0%)" stroke-opacity="1" stroke-miterlimit="4" d="M 8.843534 6.953298 C 8.843534 7.612807 8.311167 8.146094 7.655213 8.146094 C 6.996091 8.146094 6.463723 7.612807 6.463723 6.953298 C 6.463723 6.296944 6.996091 5.763657 7.655213 5.763657 C 8.311167 5.763657 8.843534 6.296944 8.843534 6.953298 Z M 8.843534 6.953298 " transform="matrix(1.2327, 0, 0, 1.2379, -2.9483, -2.2403)"/>
</svg>
