<?xml version="1.0" encoding="UTF-8"?>
<svg xmlns="http://www.w3.org/2000/svg" xmlns:xlink="http://www.w3.org/1999/xlink" width="64" height="64" viewBox="0 0 64 64">
<defs>
<filter id="filter-remove-color" x="0%" y="0%" width="100%" height="100%">
<feColorMatrix color-interpolation-filters="sRGB" values="0 0 0 0 1 0 0 0 0 1 0 0 0 0 1 0 0 0 1 0" />
</filter>
<mask id="mask-0">
<g filter="url(#filter-remove-color)">
<rect x="-6.4" y="-6.4" width="76.8" height="76.8" fill="rgb(0%, 0%, 0%)" fill-opacity="0.15"/>
</g>
</mask>
<clipPath id="clip-0">
<rect x="0" y="0" width="17" height="17"/>
</clipPath>
<g id="source-16147" clip-path="url(#clip-0)">
<path fill-rule="nonzero" fill="rgb(100%, 100%, 100%)" fill-opacity="1" d="M 14.289062 8.460938 C 14.289062 11.675781 11.683594 14.28125 8.46875 14.28125 C 5.253906 14.28125 2.644531 11.675781 2.644531 8.460938 C 2.644531 5.246094 5.253906 2.640625 8.46875 2.640625 C 11.683594 2.640625 14.289062 5.246094 14.289062 8.460938 Z M 14.289062 8.460938 "/>
</g>
</defs>
<path fill-rule="nonzero" fill="rgb(0%, 67.058824%, 92.54902%)" fill-opacity="1" d="M 15.609375 8.460938 C 15.609375 12.40625 12.410156 15.605469 8.464844 15.605469 C 4.519531 15.605469 1.324219 12.40625 1.324219 8.460938 C 1.324219 4.515625 4.519531 1.316406 8.464844 1.316406 C 12.410156 1.316406 15.609375 4.515625 15.609375 8.460938 Z M 15.609375 8.460938 "/>
<g mask="url(#mask-0)">
<use xlink:href="#source-16147"/>
</g>
<path fill-rule="nonzero" fill="rgb(100%, 100%, 100%)" fill-opacity="1" d="M 10.984375 10.460938 C 10.785156 10.761719 10.503906 11.035156 10.136719 11.28125 C 9.769531 11.519531 9.285156 11.640625 8.679688 11.640625 C 7.828125 11.640625 7.144531 11.363281 6.632812 10.808594 C 6.125 10.253906 5.867188 9.546875 5.867188 8.683594 L 5.867188 8.445312 C 5.867188 7.777344 5.996094 7.207031 6.246094 6.742188 C 6.503906 6.269531 6.835938 5.910156 7.242188 5.664062 C 7.652344 5.417969 8.085938 5.292969 8.546875 5.292969 C 9.421875 5.292969 10.058594 5.578125 10.457031 6.152344 C 10.863281 6.722656 11.0625 7.433594 11.0625 8.292969 L 11.0625 8.761719 L 6.921875 8.761719 C 6.9375 9.324219 7.101562 9.800781 7.417969 10.199219 C 7.738281 10.589844 8.179688 10.789062 8.738281 10.789062 C 9.109375 10.789062 9.421875 10.710938 9.675781 10.5625 C 9.933594 10.410156 10.160156 10.207031 10.351562 9.957031 Z M 8.546875 6.152344 C 8.128906 6.152344 7.78125 6.304688 7.492188 6.605469 C 7.207031 6.90625 7.027344 7.339844 6.957031 7.90625 L 10.015625 7.90625 L 10.015625 7.828125 C 9.992188 7.421875 9.871094 7.039062 9.660156 6.683594 C 9.453125 6.328125 9.082031 6.152344 8.546875 6.152344 Z M 8.546875 6.152344 "/>
</svg>
