<?xml version="1.0" encoding="UTF-8"?>
<svg xmlns="http://www.w3.org/2000/svg" xmlns:xlink="http://www.w3.org/1999/xlink" width="64" height="64" viewBox="0 0 64 64">
<path fill-rule="nonzero" fill="rgb(58.039216%, 72.941176%, 19.215686%)" fill-opacity="1" d="M 15.609375 8.46875 C 15.609375 12.414062 12.414062 15.613281 8.464844 15.613281 C 4.519531 15.613281 1.324219 12.414062 1.324219 8.46875 C 1.324219 4.523438 4.519531 1.328125 8.464844 1.328125 C 12.414062 1.328125 15.609375 4.523438 15.609375 8.46875 Z M 15.609375 8.46875 "/>
<path fill-rule="nonzero" fill="rgb(100%, 100%, 100%)" fill-opacity="1" d="M 8.46875 4.230469 C 7.109375 4.230469 5.835938 4.882812 5.039062 5.984375 L 5.648438 6.351562 C 6.3125 5.460938 7.355469 4.9375 8.46875 4.9375 C 10.414062 4.9375 11.992188 6.515625 11.992188 8.464844 C 11.992188 10.410156 10.414062 11.992188 8.46875 11.992188 C 7.359375 11.988281 6.3125 11.464844 5.648438 10.578125 L 5.039062 10.941406 C 5.835938 12.042969 7.109375 12.695312 8.46875 12.695312 C 10.804688 12.695312 12.699219 10.800781 12.699219 8.464844 C 12.699219 6.125 10.804688 4.230469 8.46875 4.230469 Z M 4.234375 5.992188 L 4.234375 10.933594 L 8.46875 8.464844 Z M 8.46875 5.992188 C 7.730469 5.996094 7.03125 6.328125 6.5625 6.898438 L 7.175781 7.265625 C 7.507812 6.90625 7.976562 6.699219 8.46875 6.699219 C 9.441406 6.699219 10.230469 7.488281 10.230469 8.464844 C 10.230469 9.4375 9.441406 10.226562 8.46875 10.226562 C 7.976562 10.226562 7.507812 10.019531 7.175781 9.660156 L 6.558594 10.03125 C 7.027344 10.601562 7.726562 10.933594 8.46875 10.933594 C 9.832031 10.933594 10.9375 9.828125 10.9375 8.464844 C 10.9375 7.097656 9.832031 5.992188 8.46875 5.992188 Z M 8.46875 5.992188 "/>
</svg>
