<?xml version="1.0" encoding="UTF-8"?>
<svg xmlns="http://www.w3.org/2000/svg" xmlns:xlink="http://www.w3.org/1999/xlink" width="64" height="64" viewBox="0 0 64 64">
<defs>
<filter id="filter-remove-color" x="0%" y="0%" width="100%" height="100%">
<feColorMatrix color-interpolation-filters="sRGB" values="0 0 0 0 1 0 0 0 0 1 0 0 0 0 1 0 0 0 1 0" />
</filter>
<mask id="mask-0">
<g filter="url(#filter-remove-color)">
<rect x="-6.4" y="-6.4" width="76.8" height="76.8" fill="rgb(0%, 0%, 0%)" fill-opacity="0.15"/>
</g>
</mask>
<clipPath id="clip-0">
<rect x="0" y="0" width="17" height="17"/>
</clipPath>
<g id="source-37" clip-path="url(#clip-0)">
<path fill-rule="nonzero" fill="rgb(100%, 100%, 100%)" fill-opacity="1" d="M 14.546875 8.460938 C 14.546875 11.816406 11.824219 14.539062 8.464844 14.539062 C 5.109375 14.539062 2.386719 11.816406 2.386719 8.460938 C 2.386719 5.101562 5.109375 2.382812 8.464844 2.382812 C 11.824219 2.382812 14.546875 5.101562 14.546875 8.460938 Z M 14.546875 8.460938 "/>
</g>
</defs>
<path fill-rule="nonzero" fill="rgb(87.843137%, 80.784314%, 97.647059%)" fill-opacity="1" d="M 15.609375 8.460938 C 15.609375 12.40625 12.410156 15.605469 8.464844 15.605469 C 4.519531 15.605469 1.324219 12.40625 1.324219 8.460938 C 1.324219 4.515625 4.519531 1.316406 8.464844 1.316406 C 12.410156 1.316406 15.609375 4.515625 15.609375 8.460938 Z M 15.609375 8.460938 "/>
<g mask="url(#mask-0)">
<use xlink:href="#source-37"/>
</g>
<path fill-rule="nonzero" fill="rgb(56.862745%, 56.862745%, 100%)" fill-opacity="1" d="M 6.332031 10.976562 C 5.636719 10.945312 5.09375 10.769531 4.703125 10.453125 C 4.3125 10.132812 4.117188 9.667969 4.117188 9.050781 C 4.117188 8.746094 4.175781 8.464844 4.296875 8.207031 C 4.414062 7.953125 4.578125 7.71875 4.792969 7.5 C 5.003906 7.28125 5.253906 7.085938 5.539062 6.914062 C 5.824219 6.738281 6.136719 6.578125 6.472656 6.433594 L 4.867188 6.433594 L 4.867188 5.671875 L 7.875 5.671875 L 7.875 6.433594 C 7.335938 6.59375 6.878906 6.769531 6.511719 6.964844 C 6.140625 7.160156 5.839844 7.371094 5.605469 7.597656 C 5.375 7.820312 5.210938 8.054688 5.105469 8.300781 C 5.003906 8.546875 4.953125 8.796875 4.953125 9.050781 C 4.953125 9.792969 5.445312 10.195312 6.429688 10.25 C 6.898438 10.277344 7.246094 10.394531 7.46875 10.59375 C 7.695312 10.792969 7.808594 11.050781 7.808594 11.367188 C 7.808594 11.507812 7.785156 11.640625 7.734375 11.773438 C 7.6875 11.910156 7.609375 12.03125 7.503906 12.136719 C 7.402344 12.242188 7.269531 12.328125 7.105469 12.394531 C 6.949219 12.460938 6.761719 12.5 6.546875 12.503906 L 6.449219 11.777344 C 6.640625 11.753906 6.777344 11.707031 6.855469 11.640625 C 6.9375 11.574219 6.976562 11.484375 6.976562 11.367188 C 6.976562 11.234375 6.917969 11.136719 6.800781 11.078125 C 6.683594 11.023438 6.527344 10.988281 6.332031 10.976562 "/>
<path fill-rule="nonzero" fill="rgb(56.862745%, 56.862745%, 100%)" fill-opacity="1" d="M 12.195312 10.984375 L 8.808594 10.984375 L 8.808594 10.226562 L 9.996094 8.332031 L 8.808594 6.433594 L 8.808594 5.671875 L 12.195312 5.671875 L 12.195312 7.464844 L 11.441406 7.464844 L 11.441406 6.433594 L 9.824219 6.433594 L 10.980469 8.332031 L 9.824219 10.226562 L 11.441406 10.226562 L 11.441406 9.1875 L 12.195312 9.1875 L 12.195312 10.984375 "/>
<path fill-rule="nonzero" fill="rgb(78.431373%, 21.568627%, 21.568627%)" fill-opacity="1" d="M 8.246094 10.640625 L 8.078125 10.640625 L 6.574219 6.703125 L 6.574219 10.292969 L 7.121094 10.386719 L 7.121094 10.640625 L 5.671875 10.640625 L 5.671875 10.386719 L 6.195312 10.292969 L 6.195312 6.324219 L 5.671875 6.234375 L 5.671875 5.980469 L 7.273438 5.980469 L 8.4375 9.046875 L 9.625 5.980469 L 11.261719 5.980469 L 11.261719 6.234375 L 10.738281 6.324219 L 10.738281 10.292969 L 11.261719 10.386719 L 11.261719 10.640625 L 9.234375 10.640625 L 9.234375 10.386719 L 9.78125 10.292969 L 9.78125 6.703125 L 8.246094 10.640625 "/>
</svg>
