<?xml version="1.0" encoding="UTF-8"?>
<svg xmlns="http://www.w3.org/2000/svg" xmlns:xlink="http://www.w3.org/1999/xlink" width="64" height="64" viewBox="0 0 64 64">
<defs>
<linearGradient id="linear-pattern-0" gradientUnits="userSpaceOnUse" x1="388.570007" y1="528.789978" x2="428.570007" y2="528.789978" gradientTransform="matrix(0.211659, 0, 0, 0.211659, -78.010956, -102.397324)">
<stop offset="0" stop-color="rgb(61.176471%, 42.745098%, 25.882353%)" stop-opacity="1"/>
<stop offset="1" stop-color="rgb(61.176471%, 42.745098%, 25.882353%)" stop-opacity="0"/>
</linearGradient>
</defs>
<path fill-rule="nonzero" fill="rgb(97.647059%, 97.647059%, 97.647059%)" fill-opacity="1" d="M 15.609375 8.464844 C 15.609375 12.410156 12.410156 15.609375 8.464844 15.609375 C 4.519531 15.609375 1.324219 12.410156 1.324219 8.464844 C 1.324219 4.519531 4.519531 1.324219 8.464844 1.324219 C 12.410156 1.324219 15.609375 4.519531 15.609375 8.464844 Z M 15.609375 8.464844 "/>
<path fill-rule="nonzero" fill="rgb(27.058824%, 66.27451%, 26.27451%)" fill-opacity="1" d="M 11.640625 4.234375 L 11.640625 5.292969 L 12.699219 5.292969 L 12.699219 4.722656 C 12.699219 4.449219 12.480469 4.234375 12.210938 4.234375 Z M 11.640625 4.234375 "/>
<path fill-rule="nonzero" fill="rgb(46.27451%, 74.117647%, 45.490196%)" fill-opacity="1" d="M 4.722656 4.234375 C 4.449219 4.234375 4.234375 4.449219 4.234375 4.722656 L 4.234375 12.210938 C 4.234375 12.480469 4.449219 12.699219 4.722656 12.699219 L 12.210938 12.699219 C 12.480469 12.699219 12.699219 12.480469 12.699219 12.210938 L 12.699219 4.722656 C 12.699219 4.449219 12.480469 4.234375 12.210938 4.234375 Z M 4.722656 4.234375 "/>
<path fill-rule="nonzero" fill="rgb(35.686275%, 69.019608%, 34.901961%)" fill-opacity="1" d="M 4.234375 8.464844 L 4.234375 12.210938 C 4.234375 12.480469 4.449219 12.699219 4.722656 12.699219 L 8.464844 12.699219 L 8.464844 8.464844 Z M 4.234375 8.464844 "/>
<path fill-rule="nonzero" fill="rgb(56.078431%, 38.823529%, 20.784314%)" fill-opacity="1" d="M 4.234375 11.640625 L 4.234375 12.210938 C 4.234375 12.480469 4.449219 12.699219 4.722656 12.699219 L 5.292969 12.699219 L 5.292969 11.640625 Z M 4.234375 11.640625 "/>
<path fill-rule="nonzero" fill="rgb(63.529412%, 43.921569%, 23.529412%)" fill-opacity="1" d="M 5.292969 11.640625 L 6.351562 11.640625 L 6.351562 12.699219 L 5.292969 12.699219 Z M 5.292969 11.640625 "/>
<path fill-rule="nonzero" fill="rgb(52.941176%, 36.470588%, 19.607843%)" fill-opacity="1" d="M 6.351562 11.640625 L 7.40625 11.640625 L 7.40625 12.699219 L 6.351562 12.699219 Z M 6.351562 11.640625 "/>
<path fill-rule="nonzero" fill="rgb(71.764706%, 47.45098%, 22.352941%)" fill-opacity="1" d="M 7.40625 11.640625 L 8.464844 11.640625 L 8.464844 12.699219 L 7.40625 12.699219 Z M 7.40625 11.640625 "/>
<path fill-rule="nonzero" fill="rgb(58.431373%, 40.784314%, 21.568627%)" fill-opacity="1" d="M 8.464844 11.640625 L 9.523438 11.640625 L 9.523438 12.699219 L 8.464844 12.699219 Z M 8.464844 11.640625 "/>
<path fill-rule="nonzero" fill="rgb(63.529412%, 43.921569%, 23.529412%)" fill-opacity="1" d="M 9.523438 11.640625 L 10.582031 11.640625 L 10.582031 12.699219 L 9.523438 12.699219 Z M 9.523438 11.640625 "/>
<path fill-rule="nonzero" fill="rgb(58.431373%, 40.784314%, 21.568627%)" fill-opacity="1" d="M 10.582031 11.640625 L 11.640625 11.640625 L 11.640625 12.699219 L 10.582031 12.699219 Z M 10.582031 11.640625 "/>
<path fill-rule="nonzero" fill="rgb(63.529412%, 43.921569%, 23.529412%)" fill-opacity="1" d="M 11.640625 11.640625 L 11.640625 12.699219 L 12.210938 12.699219 C 12.480469 12.699219 12.699219 12.480469 12.699219 12.210938 L 12.699219 11.640625 Z M 11.640625 11.640625 "/>
<path fill-rule="nonzero" fill="rgb(63.529412%, 43.921569%, 23.529412%)" fill-opacity="1" d="M 4.234375 10.582031 L 5.292969 10.582031 L 5.292969 11.640625 L 4.234375 11.640625 Z M 4.234375 10.582031 "/>
<path fill-rule="nonzero" fill="rgb(58.039216%, 43.529412%, 17.647059%)" fill-opacity="1" d="M 5.292969 10.582031 L 6.351562 10.582031 L 6.351562 11.640625 L 5.292969 11.640625 Z M 5.292969 10.582031 "/>
<path fill-rule="nonzero" fill="rgb(56.078431%, 38.823529%, 20.784314%)" fill-opacity="1" d="M 6.351562 10.582031 L 7.40625 10.582031 L 7.40625 11.640625 L 6.351562 11.640625 Z M 6.351562 10.582031 "/>
<path fill-rule="nonzero" fill="rgb(66.666667%, 43.921569%, 20.392157%)" fill-opacity="1" d="M 7.40625 10.582031 L 8.464844 10.582031 L 8.464844 11.640625 L 7.40625 11.640625 Z M 7.40625 10.582031 "/>
<path fill-rule="nonzero" fill="rgb(58.431373%, 40.784314%, 21.568627%)" fill-opacity="1" d="M 8.464844 10.582031 L 9.523438 10.582031 L 9.523438 11.640625 L 8.464844 11.640625 Z M 8.464844 10.582031 "/>
<path fill-rule="nonzero" fill="rgb(56.078431%, 38.823529%, 20.784314%)" fill-opacity="1" d="M 9.523438 10.582031 L 10.582031 10.582031 L 10.582031 11.640625 L 9.523438 11.640625 Z M 9.523438 10.582031 "/>
<path fill-rule="nonzero" fill="rgb(56.078431%, 38.823529%, 20.784314%)" fill-opacity="1" d="M 10.582031 10.582031 L 11.640625 10.582031 L 11.640625 11.640625 L 10.582031 11.640625 Z M 10.582031 10.582031 "/>
<path fill-rule="nonzero" fill="rgb(67.45098%, 46.666667%, 25.098039%)" fill-opacity="1" d="M 11.640625 10.582031 L 12.699219 10.582031 L 12.699219 11.640625 L 11.640625 11.640625 Z M 11.640625 10.582031 "/>
<path fill-rule="nonzero" fill="rgb(63.921569%, 41.960784%, 18.823529%)" fill-opacity="1" d="M 4.234375 9.523438 L 5.292969 9.523438 L 5.292969 10.582031 L 4.234375 10.582031 Z M 4.234375 9.523438 "/>
<path fill-rule="nonzero" fill="rgb(63.529412%, 43.921569%, 23.529412%)" fill-opacity="1" d="M 5.292969 9.523438 L 6.351562 9.523438 L 6.351562 10.582031 L 5.292969 10.582031 Z M 5.292969 9.523438 "/>
<path fill-rule="nonzero" fill="rgb(48.627451%, 31.372549%, 18.039216%)" fill-opacity="1" d="M 6.351562 9.523438 L 7.40625 9.523438 L 7.40625 10.582031 L 6.351562 10.582031 Z M 6.351562 9.523438 "/>
<path fill-rule="nonzero" fill="rgb(63.529412%, 43.921569%, 23.529412%)" fill-opacity="1" d="M 7.40625 9.523438 L 8.464844 9.523438 L 8.464844 10.582031 L 7.40625 10.582031 Z M 7.40625 9.523438 "/>
<path fill-rule="nonzero" fill="rgb(73.72549%, 51.764706%, 29.019608%)" fill-opacity="1" d="M 8.464844 9.523438 L 9.523438 9.523438 L 9.523438 10.582031 L 8.464844 10.582031 Z M 8.464844 9.523438 "/>
<path fill-rule="nonzero" fill="rgb(63.529412%, 43.921569%, 23.529412%)" fill-opacity="1" d="M 9.523438 9.523438 L 10.582031 9.523438 L 10.582031 10.582031 L 9.523438 10.582031 Z M 9.523438 9.523438 "/>
<path fill-rule="nonzero" fill="rgb(52.54902%, 41.960784%, 23.137255%)" fill-opacity="1" d="M 10.582031 9.523438 L 11.640625 9.523438 L 11.640625 10.582031 L 10.582031 10.582031 Z M 10.582031 9.523438 "/>
<path fill-rule="nonzero" fill="rgb(63.529412%, 43.921569%, 23.529412%)" fill-opacity="1" d="M 11.640625 9.523438 L 12.699219 9.523438 L 12.699219 10.582031 L 11.640625 10.582031 Z M 11.640625 9.523438 "/>
<path fill-rule="nonzero" fill="rgb(63.529412%, 43.921569%, 23.529412%)" fill-opacity="1" d="M 4.234375 8.464844 L 5.292969 8.464844 L 5.292969 9.523438 L 4.234375 9.523438 Z M 4.234375 8.464844 "/>
<path fill-rule="nonzero" fill="rgb(58.431373%, 40.784314%, 21.568627%)" fill-opacity="1" d="M 5.292969 8.464844 L 6.351562 8.464844 L 6.351562 9.523438 L 5.292969 9.523438 Z M 5.292969 8.464844 "/>
<path fill-rule="nonzero" fill="rgb(63.921569%, 41.960784%, 18.823529%)" fill-opacity="1" d="M 6.351562 8.464844 L 7.40625 8.464844 L 7.40625 9.523438 L 6.351562 9.523438 Z M 6.351562 8.464844 "/>
<path fill-rule="nonzero" fill="rgb(67.058824%, 43.921569%, 20%)" fill-opacity="1" d="M 7.40625 8.464844 L 8.464844 8.464844 L 8.464844 9.523438 L 7.40625 9.523438 Z M 7.40625 8.464844 "/>
<path fill-rule="nonzero" fill="rgb(56.078431%, 38.823529%, 20.784314%)" fill-opacity="1" d="M 8.464844 8.464844 L 9.523438 8.464844 L 9.523438 9.523438 L 8.464844 9.523438 Z M 8.464844 8.464844 "/>
<path fill-rule="nonzero" fill="rgb(51.764706%, 33.333333%, 19.215686%)" fill-opacity="1" d="M 9.523438 8.464844 L 10.582031 8.464844 L 10.582031 9.523438 L 9.523438 9.523438 Z M 9.523438 8.464844 "/>
<path fill-rule="nonzero" fill="rgb(63.529412%, 43.921569%, 23.529412%)" fill-opacity="1" d="M 10.582031 8.464844 L 11.640625 8.464844 L 11.640625 9.523438 L 10.582031 9.523438 Z M 10.582031 8.464844 "/>
<path fill-rule="nonzero" fill="rgb(67.45098%, 46.666667%, 25.098039%)" fill-opacity="1" d="M 11.640625 8.464844 L 12.699219 8.464844 L 12.699219 9.523438 L 11.640625 9.523438 Z M 11.640625 8.464844 "/>
<path fill-rule="nonzero" fill="rgb(35.686275%, 69.019608%, 34.901961%)" fill-opacity="1" d="M 4.722656 4.234375 C 4.449219 4.234375 4.234375 4.449219 4.234375 4.722656 L 4.234375 8.464844 L 8.464844 8.464844 L 8.464844 4.234375 Z M 4.722656 4.234375 "/>
<path fill-rule="nonzero" fill="rgb(24.705882%, 63.137255%, 23.921569%)" fill-opacity="1" d="M 4.234375 7.40625 L 5.292969 7.40625 L 5.292969 8.464844 L 4.234375 8.464844 Z M 4.234375 7.40625 "/>
<path fill-rule="nonzero" fill="rgb(40.392157%, 27.843137%, 14.901961%)" fill-opacity="1" d="M 5.292969 7.40625 L 6.351562 7.40625 L 6.351562 8.464844 L 5.292969 8.464844 Z M 5.292969 7.40625 "/>
<path fill-rule="nonzero" fill="rgb(63.921569%, 41.960784%, 18.823529%)" fill-opacity="1" d="M 6.351562 7.40625 L 7.40625 7.40625 L 7.40625 8.464844 L 6.351562 8.464844 Z M 6.351562 7.40625 "/>
<path fill-rule="nonzero" fill="rgb(59.215686%, 43.921569%, 27.843137%)" fill-opacity="1" d="M 7.40625 7.40625 L 8.464844 7.40625 L 8.464844 8.464844 L 7.40625 8.464844 Z M 7.40625 7.40625 "/>
<path fill-rule="nonzero" fill="rgb(63.921569%, 41.960784%, 18.823529%)" fill-opacity="1" d="M 8.464844 7.40625 L 9.523438 7.40625 L 9.523438 8.464844 L 8.464844 8.464844 Z M 8.464844 7.40625 "/>
<path fill-rule="nonzero" fill="rgb(23.137255%, 51.764706%, 22.745098%)" fill-opacity="1" d="M 9.523438 7.40625 L 10.582031 7.40625 L 10.582031 8.464844 L 9.523438 8.464844 Z M 9.523438 7.40625 "/>
<path fill-rule="nonzero" fill="rgb(69.411765%, 47.843137%, 25.490196%)" fill-opacity="1" d="M 10.582031 7.40625 L 11.640625 7.40625 L 11.640625 8.464844 L 10.582031 8.464844 Z M 10.582031 7.40625 "/>
<path fill-rule="nonzero" fill="rgb(63.529412%, 43.921569%, 23.529412%)" fill-opacity="1" d="M 11.640625 7.40625 L 12.699219 7.40625 L 12.699219 8.464844 L 11.640625 8.464844 Z M 11.640625 7.40625 "/>
<path fill-rule="nonzero" fill="rgb(30.588235%, 72.156863%, 29.411765%)" fill-opacity="1" d="M 4.234375 6.351562 L 5.292969 6.351562 L 5.292969 7.40625 L 4.234375 7.40625 Z M 4.234375 6.351562 "/>
<path fill-rule="nonzero" fill="rgb(58.431373%, 40.784314%, 21.568627%)" fill-opacity="1" d="M 5.292969 6.351562 L 6.351562 6.351562 L 6.351562 7.40625 L 5.292969 7.40625 Z M 5.292969 6.351562 "/>
<path fill-rule="nonzero" fill="rgb(48.627451%, 31.372549%, 18.039216%)" fill-opacity="1" d="M 6.351562 6.351562 L 7.40625 6.351562 L 7.40625 7.40625 L 6.351562 7.40625 Z M 6.351562 6.351562 "/>
<path fill-rule="nonzero" fill="rgb(31.372549%, 65.882353%, 37.254902%)" fill-opacity="1" d="M 7.40625 6.351562 L 8.464844 6.351562 L 8.464844 7.40625 L 7.40625 7.40625 Z M 7.40625 6.351562 "/>
<path fill-rule="nonzero" fill="rgb(26.27451%, 76.470588%, 25.098039%)" fill-opacity="1" d="M 8.464844 6.351562 L 9.523438 6.351562 L 9.523438 7.40625 L 8.464844 7.40625 Z M 8.464844 6.351562 "/>
<path fill-rule="nonzero" fill="rgb(23.137255%, 51.764706%, 22.745098%)" fill-opacity="1" d="M 9.523438 6.351562 L 10.582031 6.351562 L 10.582031 7.40625 L 9.523438 7.40625 Z M 9.523438 6.351562 "/>
<path fill-rule="nonzero" fill="rgb(60.784314%, 47.058824%, 22.745098%)" fill-opacity="1" d="M 10.582031 6.351562 L 11.640625 6.351562 L 11.640625 7.40625 L 10.582031 7.40625 Z M 10.582031 6.351562 "/>
<path fill-rule="nonzero" fill="rgb(21.568627%, 48.627451%, 21.176471%)" fill-opacity="1" d="M 11.640625 6.351562 L 12.699219 6.351562 L 12.699219 7.40625 L 11.640625 7.40625 Z M 11.640625 6.351562 "/>
<path fill-rule="nonzero" fill="rgb(28.627451%, 58.823529%, 28.235294%)" fill-opacity="1" d="M 4.234375 5.292969 L 5.292969 5.292969 L 5.292969 6.351562 L 4.234375 6.351562 Z M 4.234375 5.292969 "/>
<path fill-rule="nonzero" fill="rgb(27.058824%, 66.27451%, 26.27451%)" fill-opacity="1" d="M 5.292969 5.292969 L 6.351562 5.292969 L 6.351562 6.351562 L 5.292969 6.351562 Z M 5.292969 5.292969 "/>
<path fill-rule="nonzero" fill="rgb(23.137255%, 51.764706%, 22.745098%)" fill-opacity="1" d="M 6.351562 5.292969 L 7.40625 5.292969 L 7.40625 6.351562 L 6.351562 6.351562 Z M 6.351562 5.292969 "/>
<path fill-rule="nonzero" fill="rgb(30.588235%, 72.156863%, 29.411765%)" fill-opacity="1" d="M 7.40625 5.292969 L 8.464844 5.292969 L 8.464844 6.351562 L 7.40625 6.351562 Z M 7.40625 5.292969 "/>
<path fill-rule="nonzero" fill="rgb(28.627451%, 58.823529%, 28.235294%)" fill-opacity="1" d="M 8.464844 5.292969 L 9.523438 5.292969 L 9.523438 6.351562 L 8.464844 6.351562 Z M 8.464844 5.292969 "/>
<path fill-rule="nonzero" fill="rgb(27.058824%, 66.27451%, 26.27451%)" fill-opacity="1" d="M 9.523438 5.292969 L 10.582031 5.292969 L 10.582031 6.351562 L 9.523438 6.351562 Z M 9.523438 5.292969 "/>
<path fill-rule="nonzero" fill="rgb(23.529412%, 63.921569%, 23.137255%)" fill-opacity="1" d="M 10.582031 5.292969 L 11.640625 5.292969 L 11.640625 6.351562 L 10.582031 6.351562 Z M 10.582031 5.292969 "/>
<path fill-rule="nonzero" fill="rgb(28.627451%, 58.823529%, 28.235294%)" fill-opacity="1" d="M 11.640625 5.292969 L 12.699219 5.292969 L 12.699219 6.351562 L 11.640625 6.351562 Z M 11.640625 5.292969 "/>
<path fill-rule="nonzero" fill="rgb(24.313725%, 69.411765%, 23.137255%)" fill-opacity="1" d="M 4.722656 4.234375 C 4.449219 4.234375 4.234375 4.449219 4.234375 4.722656 L 4.234375 5.292969 L 5.292969 5.292969 L 5.292969 4.234375 Z M 4.722656 4.234375 "/>
<path fill-rule="nonzero" fill="rgb(28.627451%, 58.823529%, 28.235294%)" fill-opacity="1" d="M 5.292969 4.234375 L 6.351562 4.234375 L 6.351562 5.292969 L 5.292969 5.292969 Z M 5.292969 4.234375 "/>
<path fill-rule="nonzero" fill="rgb(32.941176%, 54.509804%, 32.54902%)" fill-opacity="1" d="M 6.351562 4.234375 L 7.40625 4.234375 L 7.40625 5.292969 L 6.351562 5.292969 Z M 6.351562 4.234375 "/>
<path fill-rule="nonzero" fill="rgb(23.137255%, 51.764706%, 22.745098%)" fill-opacity="1" d="M 7.40625 4.234375 L 8.464844 4.234375 L 8.464844 5.292969 L 7.40625 5.292969 Z M 7.40625 4.234375 "/>
<path fill-rule="nonzero" fill="rgb(23.137255%, 51.764706%, 22.745098%)" fill-opacity="1" d="M 8.464844 4.234375 L 9.523438 4.234375 L 9.523438 5.292969 L 8.464844 5.292969 Z M 8.464844 4.234375 "/>
<path fill-rule="nonzero" fill="rgb(28.627451%, 58.823529%, 28.235294%)" fill-opacity="1" d="M 9.523438 4.234375 L 10.582031 4.234375 L 10.582031 5.292969 L 9.523438 5.292969 Z M 9.523438 4.234375 "/>
<path fill-rule="nonzero" fill="rgb(27.45098%, 69.019608%, 26.666667%)" fill-opacity="1" d="M 10.582031 4.234375 L 11.640625 4.234375 L 11.640625 5.292969 L 10.582031 5.292969 Z M 10.582031 4.234375 "/>
<path fill-rule="nonzero" fill="url(#linear-pattern-0)" d="M 7.410156 6.347656 L 5.292969 6.347656 L 5.292969 8.464844 L 4.234375 8.464844 L 4.234375 12.210938 C 4.234375 12.480469 4.449219 12.699219 4.722656 12.699219 L 12.210938 12.699219 C 12.480469 12.699219 12.699219 12.480469 12.699219 12.210938 L 12.699219 7.40625 L 11.640625 7.40625 L 11.640625 6.347656 L 10.582031 6.347656 L 10.582031 8.464844 L 9.523438 8.464844 L 9.523438 7.40625 L 7.40625 7.40625 Z M 7.410156 6.347656 "/>
<path fill-rule="nonzero" fill="rgb(31.764706%, 75.686275%, 39.215686%)" fill-opacity="0.87006" d="M 4.714844 4.234375 C 4.449219 4.238281 4.234375 4.453125 4.234375 4.722656 L 4.234375 8.46875 L 5.292969 8.464844 L 5.292969 7.410156 L 5.289062 6.351562 L 6.347656 6.355469 L 7.410156 6.347656 L 7.40625 7.40625 L 9.523438 7.40625 L 9.523438 8.464844 L 10.582031 8.464844 L 10.582031 6.351562 L 11.640625 6.347656 L 11.640625 7.40625 L 12.699219 7.40625 L 12.699219 4.71875 C 12.699219 4.453125 12.484375 4.238281 12.21875 4.234375 Z M 4.714844 4.234375 "/>
</svg>
