<?xml version="1.0" encoding="UTF-8"?>
<svg xmlns="http://www.w3.org/2000/svg" xmlns:xlink="http://www.w3.org/1999/xlink" width="64" height="64" viewBox="0 0 64 64">
<path fill-rule="nonzero" fill="rgb(87.058824%, 30.980392%, 30.980392%)" fill-opacity="1" d="M 15.609375 8.460938 C 15.609375 12.40625 12.414062 15.605469 8.46875 15.605469 C 4.519531 15.605469 1.324219 12.40625 1.324219 8.460938 C 1.324219 4.515625 4.519531 1.316406 8.46875 1.316406 C 12.414062 1.316406 15.609375 4.515625 15.609375 8.460938 Z M 15.609375 8.460938 "/>
<path fill-rule="nonzero" fill="rgb(100%, 100%, 100%)" fill-opacity="1" d="M 5.050781 4.429688 L 5.050781 12.503906 L 11.882812 12.503906 L 11.882812 4.429688 L 11.261719 4.429688 L 11.261719 5.050781 C 11.261719 5.222656 11.121094 5.359375 10.949219 5.359375 C 10.78125 5.359375 10.640625 5.222656 10.640625 5.050781 L 10.640625 4.429688 L 10.019531 4.429688 L 10.019531 5.050781 C 10.019531 5.222656 9.878906 5.359375 9.707031 5.359375 C 9.535156 5.359375 9.398438 5.222656 9.398438 5.050781 L 9.398438 4.429688 L 8.777344 4.429688 L 8.777344 5.050781 C 8.777344 5.222656 8.636719 5.359375 8.464844 5.359375 C 8.292969 5.359375 8.15625 5.222656 8.15625 5.050781 L 8.15625 4.429688 L 7.535156 4.429688 L 7.535156 5.050781 C 7.535156 5.222656 7.394531 5.359375 7.222656 5.359375 C 7.050781 5.359375 6.914062 5.222656 6.914062 5.050781 L 6.914062 4.429688 L 6.292969 4.429688 L 6.292969 5.050781 C 6.292969 5.222656 6.152344 5.359375 5.980469 5.359375 C 5.808594 5.359375 5.671875 5.222656 5.671875 5.050781 L 5.671875 4.429688 Z M 5.050781 4.429688 "/>
<path fill-rule="nonzero" fill="rgb(12.941176%, 12.941176%, 12.941176%)" fill-opacity="1" d="M 7.070312 6.601562 L 7.84375 6.601562 C 8.820312 6.601562 9.296875 6.765625 9.496094 6.921875 C 9.691406 7.082031 9.710938 7.25 9.710938 7.535156 C 9.710938 7.816406 9.695312 7.988281 9.496094 8.144531 C 9.296875 8.304688 8.816406 8.464844 7.84375 8.464844 L 7.070312 8.464844 L 7.070312 9.085938 C 7.574219 9.085938 8.03125 9.183594 8.242188 9.320312 C 8.457031 9.457031 8.601562 9.648438 8.730469 9.902344 C 8.984375 10.410156 9.148438 11.164062 9.800781 11.789062 C 9.914062 11.921875 10.125 11.90625 10.238281 11.789062 C 10.359375 11.65625 10.359375 11.472656 10.234375 11.347656 C 9.726562 10.863281 9.589844 10.234375 9.28125 9.621094 C 9.167969 9.398438 9.003906 9.1875 8.804688 9 C 9.265625 8.929688 9.644531 8.820312 9.882812 8.632812 C 10.269531 8.324219 10.332031 7.871094 10.332031 7.535156 C 10.332031 7.195312 10.269531 6.746094 9.882812 6.4375 C 9.496094 6.128906 8.882812 5.980469 7.84375 5.980469 L 7.070312 5.980469 Z M 7.070312 6.601562 "/>
<path fill-rule="nonzero" fill="rgb(71.764706%, 15.294118%, 15.294118%)" fill-opacity="1" d="M 6.601562 5.980469 L 7.535156 5.980469 L 7.535156 10.640625 L 6.601562 10.640625 Z M 6.601562 5.980469 "/>
<path fill-rule="nonzero" fill="rgb(85.098039%, 20.784314%, 20.784314%)" fill-opacity="1" d="M 6.601562 5.980469 L 7.070312 5.980469 L 7.070312 10.640625 L 6.601562 10.640625 Z M 6.601562 5.980469 "/>
<path fill-rule="nonzero" fill="rgb(100%, 90.196078%, 50.196078%)" fill-opacity="1" d="M 6.601562 10.640625 L 7.535156 10.640625 L 7.070312 11.882812 Z M 6.601562 10.640625 "/>
<path fill-rule="nonzero" fill="rgb(12.941176%, 12.941176%, 12.941176%)" fill-opacity="1" d="M 7.300781 11.261719 L 7.070312 11.882812 L 6.835938 11.261719 Z M 7.300781 11.261719 "/>
</svg>
