<?xml version="1.0" encoding="UTF-8"?>
<svg xmlns="http://www.w3.org/2000/svg" xmlns:xlink="http://www.w3.org/1999/xlink" width="64" height="64" viewBox="0 0 64 64">
<path fill-rule="nonzero" fill="rgb(17.647059%, 20.784314%, 25.882353%)" fill-opacity="1" d="M 32 5 C 46.910156 5 59 17.085938 59 32 C 59 46.910156 46.910156 59 32 59 C 17.085938 59 5 46.910156 5 32 C 5 17.085938 17.085938 5 32 5 Z M 32 5 "/>
<path fill-rule="nonzero" fill="rgb(100%, 100%, 100%)" fill-opacity="1" d="M 46.871094 37.476562 C 46.871094 44.394531 40.5625 50 32.78125 50 C 25 50 18.695312 44.394531 18.695312 37.476562 C 18.695312 30.5625 25.003906 24.957031 32.78125 24.957031 C 40.5625 24.957031 46.871094 30.5625 46.871094 37.476562 "/>
<path fill-rule="evenodd" fill="rgb(24.313725%, 67.45098%, 100%)" fill-opacity="1" d="M 29.683594 14 C 20.6875 14.347656 22.199219 18.46875 17.128906 21.757812 C 22.179688 21.914062 23.230469 18.523438 26.535156 18.652344 L 26.535156 41.9375 C 31.542969 42.421875 43.449219 42.949219 42.0625 34.585938 C 40.984375 28.171875 29.675781 32.625 29.675781 32.625 M 35.089844 33.855469 C 36.472656 33.855469 37.648438 34.164062 37.863281 35.59375 C 38.507812 39.917969 29.679688 38.835938 29.679688 38.835938 L 29.679688 35.730469 C 29.679688 35.730469 32.796875 33.835938 35.089844 33.855469 "/>
</svg>
