<?xml version="1.0" encoding="UTF-8"?>
<svg xmlns="http://www.w3.org/2000/svg" xmlns:xlink="http://www.w3.org/1999/xlink" width="64" height="64" viewBox="0 0 64 64">
<path fill-rule="nonzero" fill="rgb(100%, 74.117647%, 33.333333%)" fill-opacity="1" d="M 15.609375 8.460938 C 15.609375 12.40625 12.410156 15.605469 8.464844 15.605469 C 4.519531 15.605469 1.324219 12.40625 1.324219 8.460938 C 1.324219 4.515625 4.519531 1.316406 8.464844 1.316406 C 12.410156 1.316406 15.609375 4.515625 15.609375 8.460938 Z M 15.609375 8.460938 "/>
<path fill-rule="nonzero" fill="rgb(100%, 100%, 100%)" fill-opacity="1" d="M 4.445312 4.441406 C 3.105469 7.457031 3.105469 9.46875 4.445312 12.484375 C 7.128906 13.824219 9.808594 13.824219 12.488281 12.484375 C 13.828125 9.46875 13.828125 7.457031 12.488281 4.441406 C 9.808594 3.101562 7.125 3.101562 4.445312 4.441406 Z M 4.445312 4.441406 "/>
<path fill-rule="nonzero" fill="rgb(40%, 40%, 40%)" fill-opacity="1" d="M 12.824219 8.460938 C 12.847656 10.03125 12.023438 11.496094 10.664062 12.289062 C 9.304688 13.082031 7.625 13.082031 6.269531 12.289062 C 4.910156 11.496094 4.085938 10.03125 4.109375 8.460938 C 4.085938 6.886719 4.910156 5.425781 6.269531 4.632812 C 7.625 3.839844 9.304688 3.839844 10.664062 4.632812 C 12.023438 5.425781 12.847656 6.886719 12.824219 8.460938 Z M 12.824219 8.460938 "/>
<path fill-rule="nonzero" fill="rgb(100%, 74.117647%, 33.333333%)" fill-opacity="1" d="M 11.816406 8.460938 C 11.816406 10.3125 10.316406 11.8125 8.464844 11.8125 C 6.617188 11.8125 5.113281 10.3125 5.113281 8.460938 C 5.113281 6.609375 6.617188 5.109375 8.464844 5.109375 C 10.316406 5.109375 11.816406 6.609375 11.816406 8.460938 Z M 11.816406 8.460938 "/>
<path fill-rule="nonzero" fill="rgb(100%, 100%, 100%)" fill-opacity="1" d="M 5.449219 4.777344 C 5.449219 5.148438 5.148438 5.445312 4.78125 5.445312 C 4.410156 5.445312 4.109375 5.148438 4.109375 4.777344 C 4.109375 4.40625 4.410156 4.105469 4.78125 4.105469 C 5.148438 4.105469 5.449219 4.40625 5.449219 4.777344 Z M 5.449219 12.148438 C 5.449219 12.519531 5.148438 12.820312 4.78125 12.820312 C 4.410156 12.820312 4.109375 12.519531 4.109375 12.148438 C 4.109375 11.78125 4.410156 11.480469 4.78125 11.480469 C 5.148438 11.480469 5.449219 11.78125 5.449219 12.148438 Z M 12.824219 12.148438 C 12.824219 12.519531 12.523438 12.820312 12.152344 12.820312 C 11.78125 12.820312 11.484375 12.519531 11.484375 12.148438 C 11.484375 11.78125 11.78125 11.480469 12.152344 11.480469 C 12.523438 11.480469 12.824219 11.78125 12.824219 12.148438 Z M 12.824219 4.777344 C 12.824219 5.148438 12.523438 5.445312 12.152344 5.445312 C 11.78125 5.445312 11.484375 5.148438 11.484375 4.777344 C 11.484375 4.40625 11.78125 4.105469 12.152344 4.105469 C 12.523438 4.105469 12.824219 4.40625 12.824219 4.777344 Z M 12.824219 4.777344 "/>
<path fill-rule="nonzero" fill="rgb(30.196078%, 30.196078%, 30.196078%)" fill-opacity="1" d="M 10.8125 8.460938 C 10.828125 9.308594 10.386719 10.101562 9.652344 10.53125 C 8.921875 10.960938 8.011719 10.960938 7.28125 10.53125 C 6.546875 10.101562 6.101562 9.308594 6.121094 8.460938 C 6.101562 7.609375 6.546875 6.816406 7.28125 6.386719 C 8.011719 5.957031 8.921875 5.957031 9.652344 6.386719 C 10.386719 6.816406 10.828125 7.609375 10.8125 8.460938 Z M 10.8125 8.460938 "/>
<path fill-rule="nonzero" fill="rgb(100%, 100%, 100%)" fill-opacity="1" d="M 9.808594 7.792969 C 9.808594 8.164062 9.507812 8.464844 9.136719 8.464844 C 8.765625 8.464844 8.46875 8.164062 8.46875 7.792969 C 8.46875 7.421875 8.765625 7.121094 9.136719 7.121094 C 9.507812 7.121094 9.808594 7.421875 9.808594 7.792969 Z M 9.808594 7.792969 "/>
<path fill-rule="nonzero" fill="rgb(80%, 80%, 80%)" fill-opacity="1" d="M 5.113281 4.777344 C 5.113281 4.960938 4.964844 5.113281 4.78125 5.113281 C 4.59375 5.113281 4.445312 4.960938 4.445312 4.777344 C 4.445312 4.59375 4.59375 4.441406 4.78125 4.441406 C 4.964844 4.441406 5.113281 4.59375 5.113281 4.777344 M 12.488281 4.777344 C 12.488281 4.960938 12.339844 5.113281 12.152344 5.113281 C 11.96875 5.113281 11.816406 4.960938 11.816406 4.777344 C 11.816406 4.59375 11.96875 4.441406 12.152344 4.441406 C 12.339844 4.441406 12.488281 4.59375 12.488281 4.777344 M 12.488281 12.148438 C 12.488281 12.335938 12.339844 12.484375 12.152344 12.484375 C 11.96875 12.484375 11.816406 12.335938 11.816406 12.148438 C 11.816406 11.964844 11.96875 11.816406 12.152344 11.816406 C 12.339844 11.816406 12.488281 11.964844 12.488281 12.148438 M 5.113281 12.148438 C 5.113281 12.335938 4.964844 12.484375 4.78125 12.484375 C 4.59375 12.484375 4.445312 12.335938 4.445312 12.148438 C 4.445312 11.964844 4.59375 11.816406 4.78125 11.816406 C 4.964844 11.816406 5.113281 11.964844 5.113281 12.148438 "/>
</svg>
