<?xml version="1.0" encoding="UTF-8"?>
<svg xmlns="http://www.w3.org/2000/svg" xmlns:xlink="http://www.w3.org/1999/xlink" width="64" height="64" viewBox="0 0 64 64">
<path fill-rule="nonzero" fill="rgb(89.411765%, 24.705882%, 24.705882%)" fill-opacity="1" d="M 15.609375 8.464844 C 15.609375 12.410156 12.410156 15.609375 8.464844 15.609375 C 4.519531 15.609375 1.324219 12.410156 1.324219 8.464844 C 1.324219 4.519531 4.519531 1.324219 8.464844 1.324219 C 12.410156 1.324219 15.609375 4.519531 15.609375 8.464844 Z M 15.609375 8.464844 "/>
<path fill-rule="nonzero" fill="rgb(100%, 100%, 100%)" fill-opacity="1" d="M 8.464844 3.703125 C 5.835938 3.703125 3.703125 5.835938 3.703125 8.464844 C 3.703125 11.097656 5.835938 13.230469 8.464844 13.230469 C 11.097656 13.230469 13.230469 11.097656 13.230469 8.464844 C 13.230469 5.835938 11.097656 3.703125 8.464844 3.703125 Z M 5.746094 6.425781 L 7.105469 6.425781 L 8.464844 8.464844 L 9.828125 6.425781 L 11.1875 6.425781 L 11.1875 10.507812 L 9.828125 10.507812 L 9.828125 8.808594 L 9.148438 9.828125 L 7.785156 9.828125 L 7.105469 8.808594 L 7.105469 10.507812 L 5.746094 10.507812 Z M 5.746094 6.425781 "/>
</svg>
