<?xml version="1.0" encoding="UTF-8"?>
<svg xmlns="http://www.w3.org/2000/svg" xmlns:xlink="http://www.w3.org/1999/xlink" width="64" height="64" viewBox="0 0 64 64">
<defs>
<filter id="filter-remove-color" x="0%" y="0%" width="100%" height="100%">
<feColorMatrix color-interpolation-filters="sRGB" values="0 0 0 0 1 0 0 0 0 1 0 0 0 0 1 0 0 0 1 0" />
</filter>
<mask id="mask-0">
<g filter="url(#filter-remove-color)">
<rect x="-6.4" y="-6.4" width="76.8" height="76.8" fill="rgb(0%, 0%, 0%)" fill-opacity="0.4"/>
</g>
</mask>
<clipPath id="clip-0">
<rect x="0" y="0" width="17" height="17"/>
</clipPath>
<g id="source-14185" clip-path="url(#clip-0)">
<path fill-rule="evenodd" fill="rgb(100%, 100%, 100%)" fill-opacity="1" d="M 11.011719 5.921875 C 11.320312 6.230469 11.320312 6.734375 11.011719 7.042969 L 7.042969 11.011719 C 6.734375 11.320312 6.230469 11.320312 5.921875 11.011719 C 5.609375 10.703125 5.609375 10.199219 5.921875 9.890625 L 9.890625 5.921875 C 10.199219 5.609375 10.703125 5.609375 11.011719 5.921875 Z M 11.011719 5.921875 "/>
</g>
</defs>
<path fill-rule="nonzero" fill="rgb(20.392157%, 76.862745%, 49.803922%)" fill-opacity="1" d="M 8.464844 1.328125 C 12.414062 1.328125 15.609375 4.523438 15.609375 8.46875 C 15.609375 12.414062 12.414062 15.613281 8.464844 15.613281 C 4.519531 15.613281 1.324219 12.414062 1.324219 8.46875 C 1.324219 4.523438 4.519531 1.328125 8.464844 1.328125 Z M 8.464844 1.328125 "/>
<g mask="url(#mask-0)">
<use xlink:href="#source-14185"/>
</g>
<path fill-rule="evenodd" fill="rgb(100%, 100%, 100%)" fill-opacity="1" d="M 5.292969 6.414062 L 5.292969 10.519531 L 5.921875 9.890625 C 6.230469 9.578125 6.734375 9.578125 7.042969 9.890625 C 7.351562 10.199219 7.351562 10.703125 7.042969 11.011719 L 5.738281 12.320312 C 4.988281 13.070312 3.703125 12.539062 3.703125 11.476562 L 3.703125 5.457031 C 3.703125 4.394531 4.988281 3.863281 5.738281 4.613281 L 11.640625 10.519531 L 11.640625 6.414062 L 11.011719 7.042969 C 10.703125 7.355469 10.199219 7.355469 9.890625 7.042969 C 9.578125 6.734375 9.578125 6.230469 9.890625 5.921875 L 11.195312 4.613281 C 11.945312 3.863281 13.230469 4.394531 13.230469 5.457031 L 13.230469 11.476562 C 13.230469 12.539062 11.945312 13.070312 11.195312 12.320312 Z M 5.292969 6.414062 "/>
</svg>
