<?xml version="1.0" encoding="UTF-8"?>
<svg xmlns="http://www.w3.org/2000/svg" xmlns:xlink="http://www.w3.org/1999/xlink" width="64" height="64" viewBox="0 0 64 64">
<path fill-rule="nonzero" fill="rgb(54.117647%, 38.039216%, 72.156863%)" fill-opacity="1" d="M 15.609375 8.464844 C 15.609375 12.410156 12.410156 15.609375 8.464844 15.609375 C 4.519531 15.609375 1.324219 12.410156 1.324219 8.464844 C 1.324219 4.519531 4.519531 1.324219 8.464844 1.324219 C 12.410156 1.324219 15.609375 4.519531 15.609375 8.464844 Z M 15.609375 8.464844 "/>
<path fill-rule="nonzero" fill="rgb(92.54902%, 92.54902%, 92.156863%)" fill-opacity="1" d="M 13.132812 8.167969 C 13.03125 8.027344 12.921875 7.898438 12.8125 7.769531 C 12.21875 7.074219 11.535156 6.453125 10.789062 6.003906 C 10.316406 5.71875 9.804688 5.484375 9.277344 5.375 C 9.007812 5.320312 8.738281 5.289062 8.464844 5.289062 C 8.199219 5.289062 7.929688 5.316406 7.660156 5.375 C 7.132812 5.484375 6.621094 5.71875 6.144531 6.003906 C 5.398438 6.453125 4.71875 7.074219 4.121094 7.769531 C 4.011719 7.898438 3.90625 8.027344 3.804688 8.167969 C 3.671875 8.339844 3.671875 8.585938 3.804688 8.757812 C 4.109375 9.183594 4.472656 9.5625 4.835938 9.90625 C 5.628906 10.648438 6.535156 11.273438 7.535156 11.523438 C 8.144531 11.679688 8.785156 11.679688 9.398438 11.523438 C 10.394531 11.273438 11.304688 10.648438 12.097656 9.90625 C 12.476562 9.558594 12.824219 9.175781 13.128906 8.757812 C 13.261719 8.585938 13.261719 8.34375 13.128906 8.167969 M 13.128906 8.167969 "/>
<path fill-rule="nonzero" fill="rgb(27.058824%, 52.54902%, 97.647059%)" fill-opacity="1" d="M 10.851562 8.460938 C 10.867188 9.324219 10.417969 10.128906 9.671875 10.5625 C 8.929688 11 8.007812 11 7.261719 10.5625 C 6.519531 10.128906 6.070312 9.324219 6.085938 8.460938 C 6.113281 7.164062 7.171875 6.125 8.46875 6.125 C 9.765625 6.125 10.824219 7.164062 10.851562 8.460938 "/>
<path fill-rule="nonzero" fill="rgb(7.843137%, 7.843137%, 7.843137%)" fill-opacity="1" d="M 9.792969 8.460938 C 9.792969 9.191406 9.199219 9.78125 8.46875 9.78125 C 7.738281 9.78125 7.148438 9.191406 7.148438 8.460938 C 7.148438 7.730469 7.738281 7.136719 8.46875 7.136719 C 9.199219 7.136719 9.792969 7.730469 9.792969 8.460938 "/>
<path fill-rule="nonzero" fill="rgb(97.647059%, 97.647059%, 97.647059%)" fill-opacity="1" d="M 9.527344 7.929688 C 9.527344 8.222656 9.289062 8.460938 8.996094 8.460938 C 8.707031 8.460938 8.46875 8.222656 8.46875 7.929688 C 8.46875 7.636719 8.707031 7.402344 8.996094 7.402344 C 9.289062 7.402344 9.527344 7.636719 9.527344 7.929688 "/>
<path fill-rule="nonzero" fill="rgb(83.529412%, 7.058824%, 17.647059%)" fill-opacity="1" d="M 10.316406 5.742188 L 6.015625 10.84375 C 6.214844 10.96875 6.414062 11.082031 6.617188 11.183594 L 10.914062 6.085938 C 10.726562 5.949219 10.503906 5.839844 10.316406 5.742188 M 10.316406 5.742188 "/>
</svg>
