<?xml version="1.0" encoding="UTF-8"?>
<svg xmlns="http://www.w3.org/2000/svg" xmlns:xlink="http://www.w3.org/1999/xlink" width="64" height="64" viewBox="0 0 64 64">
<path fill-rule="nonzero" fill="rgb(92.54902%, 92.54902%, 92.54902%)" fill-opacity="1" d="M 55.898438 19.277344 C 55.765625 19.027344 55.617188 18.761719 55.460938 18.5 C 54.300781 16.527344 52.84375 14.65625 51.09375 12.910156 C 46.941406 8.753906 42.105469 6.234375 36.585938 5.355469 C 35.65625 5.207031 34.707031 5.101562 33.722656 5.046875 C 33.167969 5.015625 32.585938 5 32 5 C 31.464844 5 30.9375 5.015625 30.40625 5.042969 C 23.632812 5.390625 17.800781 8.015625 12.910156 12.910156 C 11.734375 14.082031 10.691406 15.308594 9.777344 16.59375 C 8.902344 17.824219 8.144531 19.109375 7.515625 20.4375 L 7.511719 20.433594 C 5.835938 23.941406 5 27.796875 5 32 C 5 39.457031 7.636719 45.824219 12.910156 51.09375 C 16.152344 54.335938 19.804688 56.578125 23.839844 57.820312 C 25.941406 58.460938 28.117188 58.839844 30.402344 58.960938 L 30.425781 58.960938 C 30.914062 58.984375 31.375 59 31.828125 59 L 32 59 C 32.589844 59 33.171875 58.984375 33.722656 58.953125 C 33.863281 58.945312 33.992188 58.9375 34.121094 58.929688 C 35.273438 58.84375 36.402344 58.695312 37.476562 58.488281 C 37.933594 58.398438 38.378906 58.300781 38.816406 58.191406 C 43.4375 57.03125 47.519531 54.667969 51.09375 51.09375 C 53.875 48.3125 55.921875 45.230469 57.234375 41.839844 C 58.289062 39.113281 58.875 36.1875 58.984375 33.058594 C 58.992188 32.710938 59 32.355469 59 32 L 59 31.828125 C 58.988281 29.503906 58.714844 27.28125 58.183594 25.136719 C 58.117188 24.886719 58.046875 24.621094 57.972656 24.355469 C 57.914062 24.164062 57.859375 23.964844 57.792969 23.757812 C 57.703125 23.460938 57.597656 23.15625 57.488281 22.851562 C 57.199219 22.035156 56.867188 21.234375 56.492188 20.4375 C 56.386719 20.222656 56.277344 20 56.164062 19.78125 C 56.082031 19.617188 55.996094 19.457031 55.898438 19.277344 Z M 55.898438 19.277344 "/>
<path fill="none" stroke-width="3.0667" stroke-linecap="butt" stroke-linejoin="miter" stroke="rgb(27.843137%, 27.843137%, 27.843137%)" stroke-opacity="1" stroke-miterlimit="4" d="M 363.441743 521.528479 C 363.44002 548.061815 347.480012 569.569399 327.790957 569.567705 C 308.112579 569.572426 292.147564 548.064002 292.149287 521.530667 C 292.151011 494.997331 308.111019 473.489747 327.800074 473.491441 C 347.478452 473.48672 363.443467 494.995144 363.441743 521.528479 Z M 363.441743 521.528479 " transform="matrix(0.268814, -0.161518, 0.161518, 0.268814, -139.622156, -55.229983)"/>
<path fill-rule="nonzero" fill="rgb(27.45098%, 16.470588%, 68.235294%)" fill-opacity="1" d="M 32.707031 23.785156 C 27.722656 23.785156 23.683594 27.820312 23.683594 32.808594 C 23.683594 37.796875 27.722656 41.835938 32.707031 41.835938 C 37.695312 41.835938 41.734375 37.796875 41.734375 32.808594 C 41.734375 27.820312 37.695312 23.785156 32.707031 23.785156 Z M 31.09375 28.554688 C 34.484375 28.554688 37.257812 31.289062 37.257812 34.679688 C 37.257812 38.070312 34.484375 40.84375 31.09375 40.84375 C 27.703125 40.84375 24.96875 38.070312 24.96875 34.679688 C 24.96875 31.289062 27.703125 28.554688 31.09375 28.554688 Z M 31.09375 28.554688 "/>
<path fill-rule="nonzero" fill="rgb(27.843137%, 27.843137%, 27.843137%)" fill-opacity="1" d="M 14.335938 32.890625 C 14.335938 32.890625 10.8125 36.253906 11.085938 38.355469 C 11.464844 41.253906 15.105469 41.714844 17.976562 41.679688 C 24.941406 41.601562 49.738281 33.464844 49.65625 23.703125 C 49.632812 20.546875 43.953125 20.269531 43.953125 20.457031 C 43.953125 20.457031 48.164062 21.511719 48.074219 23.542969 C 47.730469 31.121094 27.015625 39.625 17.816406 39.859375 C 15.886719 39.90625 13.199219 39.492188 12.433594 37.71875 C 11.742188 36.132812 14.332031 32.890625 14.332031 32.890625 Z M 14.335938 32.890625 "/>
<path fill-rule="nonzero" fill="rgb(76.862745%, 18.823529%, 23.921569%)" fill-opacity="1" d="M 42.214844 23.816406 C 42.214844 26.246094 40.246094 28.214844 37.816406 28.214844 C 35.390625 28.214844 33.421875 26.246094 33.421875 23.816406 C 33.421875 21.390625 35.390625 19.421875 37.816406 19.421875 C 40.246094 19.421875 42.214844 21.390625 42.214844 23.816406 Z M 42.214844 23.816406 "/>
<path fill-rule="nonzero" fill="rgb(37.647059%, 37.647059%, 37.647059%)" fill-opacity="1" d="M 30.214844 38.429688 C 30.214844 39.984375 28.957031 41.242188 27.40625 41.242188 C 25.851562 41.242188 24.59375 39.984375 24.59375 38.429688 C 24.59375 36.878906 25.851562 35.617188 27.40625 35.617188 C 28.957031 35.617188 30.214844 36.878906 30.214844 38.429688 Z M 30.214844 38.429688 "/>
</svg>
