<?xml version="1.0" encoding="UTF-8"?>
<svg xmlns="http://www.w3.org/2000/svg" xmlns:xlink="http://www.w3.org/1999/xlink" width="64" height="64" viewBox="0 0 64 64">
<defs>
<clipPath id="clip-0">
<path clip-rule="nonzero" d="M 31 42 L 34 42 L 34 52 L 31 52 Z M 31 42 "/>
</clipPath>
</defs>
<path fill-rule="nonzero" fill="rgb(97.254902%, 97.254902%, 94.901961%)" fill-opacity="1" d="M 32 59 C 46.910156 59 59 46.910156 59 32 C 59 17.089844 46.910156 5 32 5 C 17.089844 5 5 17.089844 5 32 C 5 46.910156 17.089844 59 32 59 Z M 32 59 "/>
<path fill-rule="nonzero" fill="rgb(34.901961%, 58.823529%, 21.176471%)" fill-opacity="1" d="M 31.875 12.109375 L 32.941406 14.113281 C 33.183594 14.484375 33.441406 14.8125 33.75 15.117188 C 34.640625 16.011719 35.492188 16.945312 36.253906 17.949219 C 38.0625 20.324219 39.28125 22.960938 40.152344 25.8125 C 40.675781 27.554688 40.960938 29.34375 40.980469 31.152344 C 41.070312 36.554688 39.214844 41.195312 35.480469 45.050781 C 34.871094 45.660156 34.21875 46.226562 33.519531 46.730469 C 33.148438 46.730469 32.972656 46.445312 32.820312 46.183594 C 32.539062 45.703125 32.363281 45.160156 32.277344 44.613281 C 32.144531 43.960938 32.058594 43.308594 32.101562 42.632812 L 32.101562 42.328125 C 32.070312 42.261719 31.746094 12.261719 31.875 12.109375 Z M 31.875 12.109375 "/>
<path fill-rule="nonzero" fill="rgb(42.352941%, 67.45098%, 28.235294%)" fill-opacity="1" d="M 31.875 12.042969 C 31.832031 11.953125 31.789062 12.019531 31.742188 12.0625 C 31.765625 12.5 31.613281 12.890625 31.375 13.265625 C 31.109375 13.632812 30.765625 13.917969 30.414062 14.222656 C 28.476562 15.898438 26.953125 17.925781 25.730469 20.191406 C 24.105469 23.242188 23.269531 26.511719 23.03125 29.953125 C 22.921875 31.195312 23.421875 35.574219 23.816406 36.835938 C 24.882812 40.191406 26.800781 43.003906 29.285156 45.445312 C 29.894531 46.03125 30.546875 46.578125 31.222656 47.101562 C 31.417969 47.101562 31.4375 46.925781 31.484375 46.796875 C 31.570312 46.515625 31.636719 46.234375 31.679688 45.945312 L 32.117188 42.675781 Z M 31.875 12.042969 "/>
<g clip-path="url(#clip-0)">
<path fill-rule="nonzero" fill="rgb(76.078431%, 74.901961%, 74.901961%)" fill-opacity="1" d="M 32.941406 48.054688 C 32.988281 47.554688 33.226562 47.140625 33.488281 46.726562 C 33.226562 46.617188 33.03125 46.402344 32.878906 46.160156 C 32.746094 45.945312 32.636719 45.683594 32.550781 45.441406 C 32.246094 44.527344 32.183594 43.566406 32.09375 42.632812 L 32.09375 42.066406 C 31.988281 42.152344 31.964844 42.894531 31.964844 43.003906 C 31.898438 43.992188 31.769531 44.976562 31.570312 45.945312 C 31.507812 46.335938 31.460938 46.730469 31.222656 47.078125 C 31.222656 47.121094 31.222656 47.164062 31.242188 47.230469 C 31.636719 48.386719 31.742188 49.5625 31.808594 50.761719 L 31.808594 51.199219 C 31.808594 51.71875 31.789062 51.609375 32.222656 51.785156 C 32.394531 51.851562 32.589844 51.871094 32.765625 52.003906 C 32.898438 52.003906 32.917969 51.894531 32.917969 51.804688 L 32.855469 51.085938 L 32.855469 49.082031 C 32.832031 48.734375 32.898438 48.386719 32.941406 48.058594 Z M 32.941406 48.054688 "/>
</g>
</svg>
