<?xml version="1.0" encoding="UTF-8"?>
<svg xmlns="http://www.w3.org/2000/svg" xmlns:xlink="http://www.w3.org/1999/xlink" width="64" height="64" viewBox="0 0 64 64">
<defs>
<filter id="filter-remove-color" x="0%" y="0%" width="100%" height="100%">
<feColorMatrix color-interpolation-filters="sRGB" values="0 0 0 0 1 0 0 0 0 1 0 0 0 0 1 0 0 0 1 0" />
</filter>
<mask id="mask-0">
<g filter="url(#filter-remove-color)">
<rect x="-6.4" y="-6.4" width="76.8" height="76.8" fill="rgb(0%, 0%, 0%)" fill-opacity="0.1"/>
</g>
</mask>
<clipPath id="clip-0">
<rect x="0" y="0" width="17" height="17"/>
</clipPath>
<g id="source-6791" clip-path="url(#clip-0)">
<path fill-rule="nonzero" fill="rgb(0%, 0%, 0%)" fill-opacity="1" d="M 8.957031 3.433594 L 13.140625 3.769531 C 13.351562 3.789062 13.507812 3.972656 13.492188 4.183594 L 12.847656 12.171875 C 12.832031 12.382812 12.648438 12.539062 12.4375 12.523438 L 8.253906 12.183594 C 8.042969 12.167969 7.886719 11.984375 7.902344 11.773438 L 8.546875 3.785156 C 8.5625 3.574219 8.746094 3.417969 8.957031 3.433594 Z M 8.957031 3.433594 "/>
</g>
</defs>
<path fill-rule="nonzero" fill="rgb(14.117647%, 39.607843%, 25.490196%)" fill-opacity="1" d="M 15.609375 8.464844 C 15.609375 12.410156 12.410156 15.609375 8.464844 15.609375 C 4.519531 15.609375 1.324219 12.410156 1.324219 8.464844 C 1.324219 4.519531 4.519531 1.324219 8.464844 1.324219 C 12.410156 1.324219 15.609375 4.519531 15.609375 8.464844 Z M 15.609375 8.464844 "/>
<g mask="url(#mask-0)">
<use xlink:href="#source-6791"/>
</g>
<path fill-rule="nonzero" fill="rgb(100%, 100%, 100%)" fill-opacity="1" d="M 8.925781 3.8125 L 13.113281 4.152344 L 12.46875 12.140625 L 8.28125 11.804688 Z M 8.925781 3.8125 "/>
<path fill-rule="nonzero" fill="rgb(14.117647%, 39.607843%, 25.490196%)" fill-opacity="1" d="M 10.734375 9.894531 L 12.066406 10.003906 L 11.972656 11.144531 L 10.640625 11.035156 Z M 10.734375 9.894531 "/>
<path fill-rule="nonzero" fill="rgb(14.117647%, 39.607843%, 25.490196%)" fill-opacity="1" d="M 10.867188 8.246094 L 12.199219 8.355469 L 12.105469 9.496094 L 10.773438 9.386719 Z M 10.867188 8.246094 "/>
<path fill-rule="nonzero" fill="rgb(14.117647%, 39.607843%, 25.490196%)" fill-opacity="1" d="M 11 6.597656 L 12.332031 6.707031 L 12.238281 7.847656 L 10.910156 7.738281 Z M 11 6.597656 "/>
<path fill-rule="nonzero" fill="rgb(14.117647%, 39.607843%, 25.490196%)" fill-opacity="1" d="M 11.132812 4.949219 L 12.464844 5.058594 L 12.371094 6.199219 L 11.042969 6.089844 Z M 11.132812 4.949219 "/>
<path fill-rule="nonzero" fill="rgb(14.117647%, 39.607843%, 25.490196%)" fill-opacity="1" d="M 9.023438 9.757812 L 10.355469 9.863281 L 10.261719 11.003906 L 8.929688 10.898438 Z M 9.023438 9.757812 "/>
<path fill-rule="nonzero" fill="rgb(14.117647%, 39.607843%, 25.490196%)" fill-opacity="1" d="M 9.15625 8.109375 L 10.488281 8.214844 L 10.394531 9.355469 L 9.0625 9.25 Z M 9.15625 8.109375 "/>
<path fill-rule="nonzero" fill="rgb(14.117647%, 39.607843%, 25.490196%)" fill-opacity="1" d="M 9.289062 6.460938 L 10.621094 6.566406 L 10.527344 7.707031 L 9.195312 7.601562 Z M 9.289062 6.460938 "/>
<path fill-rule="nonzero" fill="rgb(14.117647%, 39.607843%, 25.490196%)" fill-opacity="1" d="M 9.421875 4.8125 L 10.753906 4.917969 L 10.660156 6.058594 L 9.328125 5.953125 Z M 9.421875 4.8125 "/>
<path fill-rule="nonzero" fill="rgb(20.784314%, 49.411765%, 33.72549%)" fill-opacity="1" d="M 8.464844 1.324219 C 4.519531 1.324219 1.324219 4.519531 1.324219 8.464844 C 1.324219 12.410156 4.519531 15.609375 8.464844 15.609375 C 9.65625 15.609375 10.828125 15.308594 11.871094 14.738281 L 9.34375 1.382812 C 9.054688 1.34375 8.761719 1.324219 8.464844 1.324219 Z M 8.464844 1.324219 "/>
<path fill-rule="nonzero" fill="rgb(100%, 100%, 100%)" fill-opacity="1" d="M 8.296875 6.085938 L 7.144531 6.257812 L 6.417969 7.671875 L 5.308594 6.535156 L 4.15625 6.710938 L 5.964844 8.554688 L 4.78125 10.847656 L 5.929688 10.675781 L 6.660156 9.261719 L 7.769531 10.394531 L 8.917969 10.222656 L 7.113281 8.378906 Z M 8.296875 6.085938 "/>
</svg>
