<?xml version="1.0" encoding="UTF-8"?>
<svg xmlns="http://www.w3.org/2000/svg" xmlns:xlink="http://www.w3.org/1999/xlink" width="64" height="64" viewBox="0 0 64 64">
<path fill-rule="nonzero" fill="rgb(87.843137%, 24.705882%, 10.196078%)" fill-opacity="1" d="M 15.609375 8.46875 C 15.609375 12.414062 12.414062 15.613281 8.464844 15.613281 C 4.519531 15.613281 1.324219 12.414062 1.324219 8.46875 C 1.324219 4.523438 4.519531 1.328125 8.464844 1.328125 C 12.414062 1.328125 15.609375 4.523438 15.609375 8.46875 Z M 15.609375 8.46875 "/>
<path fill-rule="nonzero" fill="rgb(100%, 100%, 100%)" fill-opacity="1" d="M 7.242188 11.902344 C 6.003906 11.46875 4.984375 11.105469 4.980469 11.101562 C 4.976562 11.097656 4.972656 11.089844 4.976562 11.085938 C 4.980469 11.082031 6.003906 11.199219 7.246094 11.347656 C 8.964844 11.546875 9.304688 11.609375 9.3125 11.597656 C 9.328125 11.574219 9.328125 5.660156 9.3125 5.636719 C 9.296875 5.613281 6.394531 6.292969 6.367188 6.324219 C 6.355469 6.34375 6.351562 6.769531 6.351562 8.355469 C 6.351562 9.949219 6.347656 10.367188 6.332031 10.378906 C 6.308594 10.398438 4.902344 11.050781 4.882812 11.050781 C 4.867188 11.050781 4.867188 10.535156 4.867188 8.480469 L 4.871094 5.910156 L 6.644531 5.273438 L 8.972656 4.429688 L 9.53125 4.230469 L 10.78125 4.621094 C 11.46875 4.835938 12.039062 5.015625 12.046875 5.023438 C 12.0625 5.03125 12.066406 5.738281 12.066406 8.492188 C 12.066406 11.769531 12.0625 11.949219 12.039062 11.960938 C 12 11.980469 9.558594 12.695312 9.527344 12.695312 C 9.511719 12.695312 8.484375 12.339844 7.242188 11.902344 Z M 7.242188 11.902344 "/>
</svg>
