<?xml version="1.0" encoding="UTF-8"?>
<svg xmlns="http://www.w3.org/2000/svg" xmlns:xlink="http://www.w3.org/1999/xlink" width="64" height="64" viewBox="0 0 64 64">
<path fill-rule="nonzero" fill="rgb(40.392157%, 21.568627%, 45.098039%)" fill-opacity="1" d="M 15.609375 8.464844 C 15.609375 12.410156 12.410156 15.609375 8.464844 15.609375 C 4.519531 15.609375 1.324219 12.410156 1.324219 8.464844 C 1.324219 4.519531 4.519531 1.324219 8.464844 1.324219 C 12.410156 1.324219 15.609375 4.519531 15.609375 8.464844 Z M 15.609375 8.464844 "/>
<path fill-rule="nonzero" fill="rgb(34.901961%, 17.254902%, 39.215686%)" fill-opacity="1" d="M 11.933594 4.632812 L 13.867188 4.78125 C 13.921875 4.785156 13.960938 4.828125 13.957031 4.878906 L 13.621094 9.308594 C 13.617188 9.359375 13.566406 9.398438 13.511719 9.394531 L 11.582031 9.246094 C 11.527344 9.242188 11.484375 9.199219 11.488281 9.148438 L 11.828125 4.71875 C 11.832031 4.664062 11.878906 4.628906 11.933594 4.632812 Z M 11.933594 4.632812 "/>
<path fill-rule="nonzero" fill="rgb(34.901961%, 17.254902%, 39.215686%)" fill-opacity="1" d="M 9.046875 3.699219 L 12.953125 3.996094 C 13.148438 4.011719 13.296875 4.183594 13.28125 4.378906 L 12.710938 11.835938 C 12.695312 12.03125 12.527344 12.175781 12.328125 12.160156 L 8.425781 11.863281 C 8.230469 11.847656 8.082031 11.675781 8.097656 11.480469 L 8.667969 4.023438 C 8.683594 3.828125 8.851562 3.683594 9.046875 3.699219 Z M 9.046875 3.699219 "/>
<path fill-rule="nonzero" fill="rgb(100%, 100%, 100%)" fill-opacity="1" d="M 9.023438 4.050781 L 12.925781 4.351562 L 12.355469 11.804688 L 8.453125 11.507812 Z M 9.023438 4.050781 "/>
<path fill-rule="nonzero" fill="rgb(40.392157%, 21.568627%, 45.098039%)" fill-opacity="1" d="M 9.488281 4.980469 L 12.328125 5.199219 L 12.300781 5.550781 L 9.460938 5.335938 Z M 9.488281 4.980469 "/>
<path fill-rule="nonzero" fill="rgb(40.392157%, 21.568627%, 45.098039%)" fill-opacity="1" d="M 9.078125 10.304688 L 11.917969 10.523438 L 11.890625 10.878906 L 9.050781 10.660156 Z M 9.078125 10.304688 "/>
<path fill-rule="nonzero" fill="rgb(40.392157%, 21.568627%, 45.098039%)" fill-opacity="1" d="M 9.160156 9.242188 L 12 9.457031 L 11.972656 9.8125 L 9.132812 9.597656 Z M 9.160156 9.242188 "/>
<path fill-rule="nonzero" fill="rgb(40.392157%, 21.568627%, 45.098039%)" fill-opacity="1" d="M 9.242188 8.175781 L 12.082031 8.390625 L 12.054688 8.746094 L 9.214844 8.53125 Z M 9.242188 8.175781 "/>
<path fill-rule="nonzero" fill="rgb(40.392157%, 21.568627%, 45.098039%)" fill-opacity="1" d="M 9.324219 7.109375 L 12.164062 7.328125 L 12.136719 7.683594 L 9.296875 7.464844 Z M 9.324219 7.109375 "/>
<path fill-rule="nonzero" fill="rgb(40.392157%, 21.568627%, 45.098039%)" fill-opacity="1" d="M 9.40625 6.046875 L 12.246094 6.261719 L 12.21875 6.617188 L 9.378906 6.398438 Z M 9.40625 6.046875 "/>
<path fill-rule="nonzero" fill="rgb(100%, 100%, 100%)" fill-opacity="1" d="M 12.519531 5.035156 L 13.582031 5.113281 L 13.5 6.179688 L 12.4375 6.097656 Z M 12.519531 5.035156 "/>
<path fill-rule="nonzero" fill="rgb(100%, 100%, 100%)" fill-opacity="1" d="M 13.117188 6.507812 L 13.472656 6.535156 L 13.390625 7.601562 L 13.039062 7.574219 Z M 13.117188 6.507812 "/>
<path fill-rule="nonzero" fill="rgb(100%, 100%, 100%)" fill-opacity="1" d="M 13.011719 7.929688 L 13.367188 7.957031 L 13.285156 9.019531 L 12.929688 8.992188 Z M 13.011719 7.929688 "/>
<path fill-rule="nonzero" fill="rgb(53.333333%, 31.764706%, 58.431373%)" fill-opacity="1" d="M 8.464844 1.324219 C 4.519531 1.324219 1.324219 4.519531 1.324219 8.464844 C 1.324219 12.410156 4.519531 15.609375 8.464844 15.609375 C 9.65625 15.609375 10.828125 15.308594 11.871094 14.738281 L 9.34375 1.382812 C 9.054688 1.34375 8.761719 1.324219 8.464844 1.324219 Z M 8.464844 1.324219 "/>
<path fill-rule="nonzero" fill="rgb(100%, 100%, 100%)" fill-opacity="1" d="M 8.425781 6.085938 L 7.546875 6.222656 L 7.980469 9.035156 L 5.789062 6.492188 L 4.910156 6.628906 L 5.5625 10.847656 L 6.441406 10.710938 L 6.007812 7.898438 L 8.199219 10.441406 L 9.078125 10.304688 Z M 8.425781 6.085938 "/>
</svg>
