<?xml version="1.0" encoding="UTF-8"?>
<svg xmlns="http://www.w3.org/2000/svg" xmlns:xlink="http://www.w3.org/1999/xlink" width="64" height="64" viewBox="0 0 64 64">
<path fill-rule="nonzero" fill="rgb(5.098039%, 40.784314%, 67.058824%)" fill-opacity="1" d="M 15.609375 8.464844 C 15.609375 12.410156 12.410156 15.609375 8.464844 15.609375 C 4.519531 15.609375 1.324219 12.410156 1.324219 8.464844 C 1.324219 4.519531 4.519531 1.324219 8.464844 1.324219 C 12.410156 1.324219 15.609375 4.519531 15.609375 8.464844 Z M 15.609375 8.464844 "/>
<path fill-rule="nonzero" fill="rgb(4.705882%, 34.117647%, 54.901961%)" fill-opacity="1" d="M 9.515625 4.234375 L 13.421875 4.53125 C 13.617188 4.546875 13.761719 4.71875 13.75 4.914062 L 13.179688 12.371094 C 13.164062 12.566406 12.992188 12.714844 12.796875 12.699219 L 8.890625 12.398438 C 8.695312 12.386719 8.546875 12.214844 8.5625 12.019531 L 9.132812 4.5625 C 9.148438 4.367188 9.320312 4.21875 9.515625 4.234375 Z M 9.515625 4.234375 "/>
<path fill-rule="nonzero" fill="rgb(100%, 100%, 100%)" fill-opacity="1" d="M 9.488281 4.589844 L 13.394531 4.886719 L 12.824219 12.34375 L 8.917969 12.042969 Z M 9.488281 4.589844 "/>
<path fill-rule="nonzero" fill="rgb(4.705882%, 34.117647%, 54.901961%)" fill-opacity="1" d="M 12.859375 4.847656 L 11.332031 8.480469 L 12.289062 12.300781 L 12.644531 12.328125 L 11.6875 8.507812 L 13.214844 4.875 Z M 12.859375 4.847656 "/>
<path fill-rule="nonzero" fill="rgb(11.764706%, 51.764706%, 81.568627%)" fill-opacity="1" d="M 8.464844 1.324219 C 4.519531 1.324219 1.324219 4.519531 1.324219 8.464844 C 1.324219 12.410156 4.519531 15.609375 8.464844 15.609375 C 9.65625 15.609375 10.828125 15.308594 11.871094 14.738281 L 9.34375 1.382812 C 9.054688 1.34375 8.761719 1.324219 8.464844 1.324219 Z M 8.464844 1.324219 "/>
<path fill-rule="nonzero" fill="rgb(100%, 100%, 100%)" fill-opacity="1" d="M 6.605469 6.96875 C 6.273438 7.023438 5.988281 7.203125 5.847656 7.496094 C 5.710938 7.789062 5.605469 8.1875 5.683594 8.660156 C 5.761719 9.136719 5.957031 9.480469 6.179688 9.710938 C 6.40625 9.945312 6.769531 10.019531 7.097656 9.964844 C 7.429688 9.910156 7.765625 9.71875 7.902344 9.429688 C 8.039062 9.136719 8.117188 8.746094 8.039062 8.269531 C 7.984375 7.875 7.804688 7.507812 7.53125 7.21875 C 7.304688 6.988281 6.9375 6.914062 6.605469 6.96875 Z M 6.464844 6.125 C 7.140625 6.015625 7.703125 6.136719 8.152344 6.484375 C 8.601562 6.839844 8.886719 7.378906 9.007812 8.113281 C 9.128906 8.839844 9.03125 9.445312 8.71875 9.921875 C 8.40625 10.402344 7.914062 10.695312 7.238281 10.808594 C 6.566406 10.917969 6.003906 10.796875 5.550781 10.445312 C 5.101562 10.09375 4.816406 9.554688 4.695312 8.824219 C 4.574219 8.09375 4.671875 7.488281 4.984375 7.011719 C 5.300781 6.53125 5.792969 6.234375 6.464844 6.125 Z M 6.464844 6.125 "/>
</svg>
