<?xml version="1.0" encoding="UTF-8"?>
<svg xmlns="http://www.w3.org/2000/svg" xmlns:xlink="http://www.w3.org/1999/xlink" width="64" height="64" viewBox="0 0 64 64">
<path fill-rule="nonzero" fill="rgb(73.72549%, 28.627451%, 17.647059%)" fill-opacity="1" d="M 15.609375 8.464844 C 15.609375 12.410156 12.410156 15.609375 8.464844 15.609375 C 4.519531 15.609375 1.324219 12.410156 1.324219 8.464844 C 1.324219 4.519531 4.519531 1.324219 8.464844 1.324219 C 12.410156 1.324219 15.609375 4.519531 15.609375 8.464844 Z M 15.609375 8.464844 "/>
<path fill-rule="nonzero" fill="rgb(58.431373%, 21.176471%, 16.862745%)" fill-opacity="1" d="M 9.625 4.234375 L 13.53125 4.53125 C 13.726562 4.546875 13.871094 4.71875 13.855469 4.914062 L 13.289062 12.371094 C 13.273438 12.566406 13.101562 12.710938 12.90625 12.699219 L 9 12.398438 C 8.804688 12.382812 8.65625 12.214844 8.671875 12.019531 L 9.242188 4.5625 C 9.257812 4.363281 9.429688 4.21875 9.625 4.234375 Z M 9.625 4.234375 "/>
<path fill-rule="nonzero" fill="rgb(100%, 100%, 100%)" fill-opacity="1" d="M 9.597656 4.589844 L 13.503906 4.886719 L 12.933594 12.34375 L 9.027344 12.042969 Z M 9.597656 4.589844 "/>
<path fill-rule="nonzero" fill="rgb(73.72549%, 28.627451%, 17.647059%)" fill-opacity="1" d="M 9.667969 10.667969 L 12.507812 10.886719 L 12.46875 11.417969 L 9.628906 11.199219 Z M 9.667969 10.667969 "/>
<path fill-rule="nonzero" fill="rgb(73.72549%, 28.627451%, 17.647059%)" fill-opacity="1" d="M 11.660156 5.636719 L 11.550781 7.058594 L 12.972656 7.164062 C 13.03125 6.382812 12.445312 5.695312 11.660156 5.636719 Z M 11.660156 5.636719 "/>
<path fill-rule="nonzero" fill="rgb(73.72549%, 28.627451%, 17.647059%)" fill-opacity="1" d="M 11.46875 5.804688 C 10.683594 5.746094 10 6.332031 9.941406 7.117188 C 9.878906 7.902344 10.46875 8.585938 11.25 8.644531 C 12.035156 8.703125 12.71875 8.117188 12.78125 7.332031 L 11.359375 7.222656 Z M 11.46875 5.804688 "/>
<path fill-rule="nonzero" fill="rgb(73.72549%, 28.627451%, 17.647059%)" fill-opacity="1" d="M 9.761719 9.425781 L 12.605469 9.644531 L 12.5625 10.175781 L 9.722656 9.960938 Z M 9.761719 9.425781 "/>
<path fill-rule="nonzero" fill="rgb(83.529412%, 34.509804%, 22.745098%)" fill-opacity="1" d="M 8.464844 1.324219 C 4.519531 1.324219 1.324219 4.519531 1.324219 8.464844 C 1.324219 12.410156 4.519531 15.609375 8.464844 15.609375 C 9.65625 15.609375 10.828125 15.308594 11.871094 14.738281 L 9.34375 1.382812 C 9.054688 1.34375 8.761719 1.324219 8.464844 1.324219 Z M 8.464844 1.324219 "/>
<path fill-rule="nonzero" fill="rgb(100%, 100%, 100%)" fill-opacity="1" d="M 4.957031 6.40625 L 6.789062 6.125 C 7.335938 6.042969 7.773438 6.082031 8.101562 6.292969 C 8.433594 6.496094 8.632812 6.847656 8.707031 7.3125 C 8.777344 7.78125 8.679688 8.128906 8.425781 8.425781 C 8.175781 8.722656 7.773438 8.878906 7.226562 8.964844 L 6.390625 9.09375 L 6.636719 10.695312 L 5.644531 10.847656 Z M 6.070312 7.011719 L 6.273438 8.324219 L 6.992188 8.214844 C 7.207031 8.179688 7.507812 8.085938 7.617188 7.953125 C 7.734375 7.804688 7.792969 7.683594 7.757812 7.460938 C 7.726562 7.261719 7.671875 7.101562 7.511719 6.984375 C 7.328125 6.859375 7.054688 6.863281 6.789062 6.902344 Z M 6.070312 7.011719 "/>
</svg>
