<?xml version="1.0" encoding="UTF-8"?>
<svg xmlns="http://www.w3.org/2000/svg" xmlns:xlink="http://www.w3.org/1999/xlink" width="64" height="64" viewBox="0 0 64 64">
<path fill-rule="nonzero" fill="rgb(14.901961%, 33.333333%, 48.627451%)" fill-opacity="1" d="M 15.609375 8.464844 C 15.609375 12.410156 12.410156 15.609375 8.464844 15.609375 C 4.519531 15.609375 1.324219 12.410156 1.324219 8.464844 C 1.324219 4.519531 4.519531 1.324219 8.464844 1.324219 C 12.410156 1.324219 15.609375 4.519531 15.609375 8.464844 Z M 15.609375 8.464844 "/>
<path fill-rule="nonzero" fill="rgb(100%, 100%, 100%)" fill-opacity="1" d="M 12.539062 12.484375 C 12.484375 12.449219 12.183594 12.277344 11.875 12.105469 C 11.226562 11.742188 10.578125 11.191406 10.578125 10.996094 C 10.578125 10.828125 10.789062 10.6875 11.113281 10.652344 C 11.269531 10.632812 11.472656 10.601562 11.566406 10.585938 L 11.738281 10.550781 L 11.484375 10.367188 C 11.246094 10.191406 11.0625 10.105469 10.519531 9.914062 C 10.167969 9.789062 9.914062 9.5 9.625 8.902344 C 8.878906 7.339844 8.738281 7.085938 8.484375 6.789062 C 8.199219 6.457031 7.785156 6.113281 7.230469 5.742188 C 6.6875 5.375 6.601562 5.34375 6.210938 5.34375 C 5.898438 5.34375 5.832031 5.324219 5.636719 5.191406 C 5.328125 4.980469 5.023438 4.851562 4.832031 4.851562 C 4.589844 4.847656 4.617188 5.023438 4.925781 5.402344 C 5.222656 5.769531 5.292969 5.894531 5.441406 6.328125 C 5.5 6.507812 5.664062 6.851562 5.804688 7.09375 C 5.945312 7.335938 6.0625 7.558594 6.0625 7.585938 C 6.0625 7.609375 6.003906 7.800781 5.929688 8.007812 C 5.773438 8.460938 5.730469 8.941406 5.8125 9.300781 C 5.960938 9.925781 6.140625 10.007812 6.242188 9.503906 C 6.332031 9.066406 6.488281 8.800781 6.652344 8.800781 C 6.703125 8.800781 6.863281 9.050781 7.105469 9.496094 C 7.308594 9.875 7.605469 10.359375 7.761719 10.566406 C 7.917969 10.773438 8.035156 10.953125 8.023438 10.964844 C 7.996094 10.992188 7.589844 10.652344 7.292969 10.347656 C 7.164062 10.21875 6.980469 9.980469 6.886719 9.820312 C 6.71875 9.542969 6.707031 9.535156 6.664062 9.644531 C 6.640625 9.710938 6.605469 9.835938 6.585938 9.921875 C 6.53125 10.171875 6.378906 10.332031 6.191406 10.332031 C 5.929688 10.332031 5.742188 10.070312 5.589844 9.488281 C 5.488281 9.101562 5.511719 8.28125 5.640625 7.867188 C 5.722656 7.605469 5.722656 7.601562 5.597656 7.472656 C 5.441406 7.304688 5.351562 7.128906 5.160156 6.59375 C 5.039062 6.253906 4.925781 6.058594 4.644531 5.699219 C 4.390625 5.375 4.273438 5.179688 4.25 5.046875 C 4.175781 4.621094 4.339844 4.375 4.691406 4.382812 C 4.960938 4.390625 5.511719 4.574219 5.75 4.738281 C 5.890625 4.835938 6.03125 4.878906 6.300781 4.902344 C 6.96875 4.972656 7.695312 5.394531 8.460938 6.164062 C 9.199219 6.910156 9.753906 7.789062 9.960938 8.539062 C 10.101562 9.039062 10.320312 9.277344 10.921875 9.574219 C 11.363281 9.792969 11.5 9.890625 11.898438 10.289062 C 12.15625 10.542969 12.367188 10.789062 12.367188 10.832031 C 12.367188 10.933594 12.15625 11.007812 11.746094 11.046875 C 11.167969 11.105469 11.171875 11.09375 11.605469 11.402344 C 12.34375 11.925781 12.609375 12.183594 12.6875 12.445312 C 12.722656 12.570312 12.683594 12.578125 12.539062 12.484375 Z M 6.183594 6.210938 C 6.144531 6.117188 6.066406 6.015625 6.011719 5.984375 C 5.894531 5.921875 5.882812 5.824219 5.984375 5.742188 C 6.089844 5.652344 6.398438 5.796875 6.4375 5.949219 C 6.527344 6.320312 6.320312 6.535156 6.183594 6.210938 Z M 6.183594 6.210938 "/>
</svg>
