<?xml version="1.0" encoding="UTF-8"?>
<svg xmlns="http://www.w3.org/2000/svg" xmlns:xlink="http://www.w3.org/1999/xlink" width="64" height="64" viewBox="0 0 64 64">
<path fill-rule="nonzero" fill="rgb(87.45098%, 25.490196%, 22.352941%)" fill-opacity="1" d="M 15.609375 8.460938 C 15.609375 12.40625 12.410156 15.605469 8.464844 15.605469 C 4.519531 15.605469 1.324219 12.40625 1.324219 8.460938 C 1.324219 4.515625 4.519531 1.316406 8.464844 1.316406 C 12.410156 1.316406 15.609375 4.515625 15.609375 8.460938 Z M 15.609375 8.460938 "/>
<path fill-rule="nonzero" fill="rgb(97.647059%, 97.647059%, 97.647059%)" fill-opacity="1" d="M 6.628906 5.859375 C 6.609375 5.859375 6.589844 5.863281 6.5625 5.863281 C 6.464844 5.871094 4.617188 6.203125 4.496094 6.234375 C 4.375 6.269531 4.269531 6.34375 4.242188 6.414062 C 4.199219 6.53125 4.328125 6.914062 4.492188 7.167969 C 4.785156 7.613281 5.207031 7.894531 6.101562 8.238281 C 6.589844 8.425781 6.691406 8.472656 6.753906 8.542969 C 6.84375 8.640625 6.769531 8.683594 6.125 8.960938 C 5.113281 9.386719 4.660156 9.75 4.464844 10.289062 C 4.40625 10.449219 4.382812 10.871094 4.421875 10.976562 C 4.472656 11.113281 4.507812 11.113281 5.480469 10.933594 C 6.460938 10.753906 6.507812 10.746094 6.589844 10.671875 C 6.65625 10.609375 6.660156 10.59375 6.6875 10.308594 C 6.703125 10.144531 6.742188 9.941406 6.765625 9.855469 C 6.824219 9.660156 6.972656 9.457031 7.132812 9.34375 C 7.746094 8.933594 8.894531 9.140625 9.519531 9.773438 C 9.753906 10.007812 9.902344 10.261719 10.019531 10.632812 C 10.085938 10.847656 10.15625 10.9375 10.261719 10.957031 C 10.359375 10.976562 10.363281 10.976562 11.609375 10.75 C 12.304688 10.625 12.589844 10.5625 12.632812 10.53125 C 12.722656 10.464844 12.722656 10.304688 12.636719 10.042969 C 12.484375 9.585938 12.226562 9.257812 11.742188 8.90625 C 11.503906 8.734375 11.203125 8.570312 10.695312 8.335938 C 10.207031 8.113281 10.109375 8.054688 10.109375 7.984375 C 10.109375 7.929688 10.167969 7.90625 10.554688 7.792969 C 11.394531 7.550781 11.722656 7.214844 11.722656 6.585938 C 11.722656 6.3125 11.671875 6.089844 11.585938 6.015625 C 11.472656 5.921875 11.355469 5.917969 10.882812 6 C 9.375 6.261719 9.414062 6.25 9.347656 6.359375 C 9.308594 6.417969 9.3125 6.429688 9.378906 6.691406 C 9.417969 6.84375 9.449219 7 9.449219 7.042969 C 9.449219 7.136719 9.382812 7.292969 9.324219 7.347656 C 9.171875 7.480469 8.832031 7.574219 8.480469 7.574219 C 8.058594 7.574219 7.742188 7.433594 7.425781 7.113281 C 7.199219 6.878906 7.082031 6.683594 6.925781 6.269531 C 6.789062 5.90625 6.769531 5.859375 6.628906 5.859375 "/>
</svg>
