<?xml version="1.0" encoding="UTF-8"?>
<svg xmlns="http://www.w3.org/2000/svg" xmlns:xlink="http://www.w3.org/1999/xlink" width="64" height="64" viewBox="0 0 64 64">
<path fill-rule="nonzero" fill="rgb(22.352941%, 22.352941%, 22.352941%)" fill-opacity="1" d="M 32 5 C 46.910156 5 59 17.085938 59 32 C 59 46.910156 46.910156 59 32 59 C 17.085938 59 5 46.910156 5 32 C 5 17.085938 17.085938 5 32 5 Z M 32 5 "/>
<path fill-rule="nonzero" fill="rgb(47.058824%, 81.176471%, 100%)" fill-opacity="1" d="M 41.414062 17.9375 C 40.648438 18.148438 39.363281 19.839844 38.714844 19.964844 C 37.964844 20.105469 35.738281 18.632812 35.21875 19.179688 C 34.703125 19.730469 36.335938 21.882812 36.246094 22.632812 C 36.148438 23.375 34.019531 25.054688 34.382812 25.710938 C 34.75 26.363281 37.328125 25.488281 38.011719 25.804688 C 38.699219 26.121094 39.644531 28.609375 40.386719 28.46875 C 41.128906 28.328125 41.078125 25.664062 41.597656 25.113281 C 42.113281 24.566406 44.808594 24.433594 44.902344 23.6875 C 44.992188 22.945312 42.429688 22.183594 42.058594 21.527344 C 41.691406 20.871094 42.375 18.253906 41.6875 17.9375 C 41.605469 17.898438 41.519531 17.910156 41.410156 17.9375 "/>
<path fill-rule="nonzero" fill="rgb(47.058824%, 81.176471%, 100%)" fill-opacity="1" d="M 28.558594 27.304688 C 27.070312 27.511719 26.871094 32.925781 25.785156 33.972656 C 24.699219 35.015625 19.367188 34.972656 19.101562 36.460938 C 18.835938 37.945312 23.84375 39.820312 24.503906 41.191406 C 25.160156 42.554688 23.472656 47.644531 24.796875 48.355469 C 26.125 49.070312 29.449219 44.832031 30.941406 44.625 C 32.433594 44.421875 36.742188 47.613281 37.824219 46.566406 C 38.914062 45.519531 35.925781 41.039062 36.191406 39.550781 C 36.457031 38.054688 40.808594 34.941406 40.152344 33.582031 C 39.496094 32.222656 34.347656 33.699219 33.023438 32.984375 C 31.691406 32.269531 30.054688 27.101562 28.558594 27.316406 "/>
</svg>
