<?xml version="1.0" encoding="UTF-8"?>
<svg xmlns="http://www.w3.org/2000/svg" xmlns:xlink="http://www.w3.org/1999/xlink" width="64" height="64" viewBox="0 0 64 64">
<path fill-rule="nonzero" fill="rgb(84.705882%, 21.960784%, 21.960784%)" fill-opacity="1" d="M 15.609375 8.460938 C 15.609375 12.40625 12.410156 15.605469 8.464844 15.605469 C 4.519531 15.605469 1.324219 12.40625 1.324219 8.460938 C 1.324219 4.515625 4.519531 1.316406 8.464844 1.316406 C 12.410156 1.316406 15.609375 4.515625 15.609375 8.460938 Z M 15.609375 8.460938 "/>
<path fill-rule="nonzero" fill="rgb(100%, 100%, 100%)" fill-opacity="1" d="M 9.257812 8.726562 C 9.25 9.101562 8.9375 9.402344 8.5625 9.394531 C 8.136719 9.394531 7.902344 9.019531 7.867188 8.675781 C 7.792969 8.015625 8.152344 7.65625 8.464844 7.472656 C 8.589844 7.398438 8.730469 7.339844 8.875 7.296875 C 8.875 7.296875 9.214844 8.332031 9.238281 8.492188 C 9.269531 8.667969 9.257812 8.726562 9.257812 8.726562 M 10.914062 6.652344 C 10.519531 6.414062 10.074219 6.28125 9.613281 6.265625 L 9.507812 5.894531 L 9.511719 5.898438 L 9.5 5.867188 L 9.46875 5.757812 C 9.398438 5.4375 9.527344 5.289062 9.59375 5.234375 L 9.628906 5.210938 C 9.9375 5.011719 10.375 5.328125 10.398438 5.347656 C 10.59375 5.527344 10.949219 5.570312 11.140625 5.386719 C 11.332031 5.199219 11.285156 4.851562 11.09375 4.664062 C 10.792969 4.375 9.867188 3.910156 9.078125 4.414062 C 8.371094 4.867188 8.359375 5.507812 8.476562 5.878906 L 8.617188 6.378906 C 8.382812 6.441406 8.15625 6.535156 7.945312 6.660156 C 7.171875 7.117188 6.78125 7.890625 6.878906 8.773438 C 6.980469 9.6875 7.6875 10.347656 8.5625 10.347656 C 9.492188 10.347656 10.246094 9.621094 10.246094 8.726562 C 10.234375 8.511719 10.238281 8.515625 10.207031 8.324219 C 10.179688 8.136719 9.894531 7.261719 9.894531 7.261719 C 10.070312 7.300781 10.234375 7.363281 10.375 7.453125 C 11.972656 8.453125 11.308594 10.046875 11.277344 10.113281 C 10.835938 11.132812 9.878906 11.738281 8.644531 11.78125 C 7.84375 11.808594 7.0625 11.515625 6.476562 10.964844 C 5.851562 10.386719 5.496094 9.578125 5.488281 8.726562 C 5.488281 7.460938 6.316406 6.308594 7.546875 5.863281 C 7.804688 5.773438 8.011719 5.507812 7.867188 5.203125 C 7.757812 4.960938 7.453125 4.878906 7.199219 4.972656 C 5.582031 5.554688 4.496094 7.0625 4.496094 8.726562 C 4.496094 9.824219 4.96875 10.890625 5.789062 11.652344 C 6.570312 12.382812 7.609375 12.773438 8.679688 12.734375 C 10.292969 12.679688 11.605469 11.839844 12.191406 10.484375 C 12.558594 9.664062 12.761719 7.804688 10.914062 6.652344 "/>
</svg>
