<?xml version="1.0" encoding="UTF-8"?>
<svg xmlns="http://www.w3.org/2000/svg" xmlns:xlink="http://www.w3.org/1999/xlink" width="64" height="64" viewBox="0 0 64 64">
<defs>
<filter id="filter-remove-color" x="0%" y="0%" width="100%" height="100%">
<feColorMatrix color-interpolation-filters="sRGB" values="0 0 0 0 1 0 0 0 0 1 0 0 0 0 1 0 0 0 1 0" />
</filter>
<mask id="mask-0">
<g filter="url(#filter-remove-color)">
<rect x="-6.4" y="-6.4" width="76.8" height="76.8" fill="rgb(0%, 0%, 0%)" fill-opacity="0.15"/>
</g>
</mask>
<clipPath id="clip-0">
<rect x="0" y="0" width="17" height="17"/>
</clipPath>
<g id="source-7266" clip-path="url(#clip-0)">
<path fill-rule="nonzero" fill="rgb(0%, 0%, 0%)" fill-opacity="1" d="M 2.578125 6.640625 C 2.234375 6.644531 1.894531 6.664062 1.554688 6.703125 C 1.402344 7.277344 1.324219 7.871094 1.324219 8.464844 C 1.324219 12.410156 4.519531 15.609375 8.464844 15.609375 C 9.996094 15.609375 11.484375 15.113281 12.710938 14.203125 C 11.375 9.71875 7.257812 6.644531 2.578125 6.640625 Z M 2.578125 6.640625 "/>
</g>
<mask id="mask-1">
<g filter="url(#filter-remove-color)">
<rect x="-6.4" y="-6.4" width="76.8" height="76.8" fill="rgb(0%, 0%, 0%)" fill-opacity="0.15"/>
</g>
</mask>
<clipPath id="clip-1">
<rect x="0" y="0" width="17" height="17"/>
</clipPath>
<g id="source-7270" clip-path="url(#clip-1)">
<path fill-rule="nonzero" fill="rgb(0%, 0%, 0%)" fill-opacity="1" d="M 15.421875 8.792969 C 11.246094 8.796875 7.460938 11.257812 5.761719 15.074219 C 6.621094 15.425781 7.539062 15.609375 8.464844 15.609375 C 12.277344 15.605469 15.414062 12.609375 15.59375 8.800781 C 15.535156 8.800781 15.480469 8.796875 15.421875 8.792969 Z M 15.421875 8.792969 "/>
</g>
</defs>
<path fill-rule="nonzero" fill="rgb(28.627451%, 52.156863%, 80%)" fill-opacity="1" d="M 15.609375 8.464844 C 15.609375 12.410156 12.410156 15.609375 8.464844 15.609375 C 4.519531 15.609375 1.324219 12.410156 1.324219 8.464844 C 1.324219 4.519531 4.519531 1.324219 8.464844 1.324219 C 12.410156 1.324219 15.609375 4.519531 15.609375 8.464844 Z M 15.609375 8.464844 "/>
<g mask="url(#mask-0)">
<use xlink:href="#source-7266"/>
</g>
<g mask="url(#mask-1)">
<use xlink:href="#source-7270"/>
</g>
<path fill-rule="nonzero" fill="rgb(84.313725%, 89.411765%, 94.901961%)" fill-opacity="1" d="M 5.027344 5.027344 L 5.027344 6.878906 L 5.554688 6.878906 L 5.554688 5.554688 L 6.878906 5.554688 L 6.878906 5.027344 Z M 10.054688 5.027344 L 10.054688 5.554688 L 11.375 5.554688 L 11.375 6.878906 L 11.90625 6.878906 L 11.90625 5.027344 Z M 5.027344 10.054688 L 5.027344 11.90625 L 6.878906 11.90625 L 6.878906 11.375 L 5.554688 11.375 L 5.554688 10.054688 Z M 11.375 10.054688 L 11.375 11.375 L 10.054688 11.375 L 10.054688 11.90625 L 11.90625 11.90625 L 11.90625 10.054688 Z M 11.375 10.054688 "/>
<path fill-rule="nonzero" fill="rgb(84.313725%, 89.411765%, 94.901961%)" fill-opacity="1" d="M 9.523438 6.085938 L 9.898438 6.460938 L 8.402344 7.957031 L 8.027344 7.582031 Z M 9.523438 6.085938 "/>
<path fill-rule="nonzero" fill="rgb(84.313725%, 89.411765%, 94.901961%)" fill-opacity="1" d="M 6.613281 6.878906 L 8.203125 8.730469 L 8.203125 10.320312 L 7.144531 10.320312 L 7.144531 10.847656 L 9.789062 10.847656 L 9.789062 10.320312 L 8.730469 10.320312 L 8.730469 8.730469 L 10.320312 6.878906 Z M 6.613281 6.878906 "/>
</svg>
