<?xml version="1.0" encoding="UTF-8"?>
<svg xmlns="http://www.w3.org/2000/svg" xmlns:xlink="http://www.w3.org/1999/xlink" width="64" height="64" viewBox="0 0 64 64">
<defs>
<filter id="filter-remove-color" x="0%" y="0%" width="100%" height="100%">
<feColorMatrix color-interpolation-filters="sRGB" values="0 0 0 0 1 0 0 0 0 1 0 0 0 0 1 0 0 0 1 0" />
</filter>
<mask id="mask-0">
<g filter="url(#filter-remove-color)">
<rect x="-6.4" y="-6.4" width="76.8" height="76.8" fill="rgb(0%, 0%, 0%)" fill-opacity="0.2"/>
</g>
</mask>
<clipPath id="clip-0">
<rect x="0" y="0" width="17" height="17"/>
</clipPath>
<g id="source-16812" clip-path="url(#clip-0)">
<path fill-rule="nonzero" fill="rgb(0%, 0%, 0%)" fill-opacity="1" d="M 9.789062 6.351562 L 12.171875 6.351562 L 12.171875 6.613281 L 9.789062 6.613281 Z M 9.789062 6.351562 "/>
</g>
</defs>
<path fill-rule="nonzero" fill="rgb(97.647059%, 97.647059%, 97.647059%)" fill-opacity="1" d="M 15.609375 8.464844 C 15.609375 12.410156 12.410156 15.609375 8.464844 15.609375 C 4.519531 15.609375 1.324219 12.410156 1.324219 8.464844 C 1.324219 4.519531 4.519531 1.324219 8.464844 1.324219 C 12.410156 1.324219 15.609375 4.519531 15.609375 8.464844 Z M 15.609375 8.464844 "/>
<path fill-rule="nonzero" fill="rgb(94.117647%, 61.960784%, 9.803922%)" fill-opacity="1" d="M 6.0625 4.761719 L 5.921875 4.882812 L 5.929688 4.894531 L 5.273438 4.894531 C 5.246094 4.894531 5.222656 4.898438 5.199219 4.902344 C 5.171875 4.910156 5.148438 4.917969 5.128906 4.925781 C 5.105469 4.9375 5.085938 4.949219 5.066406 4.964844 C 4.964844 5.039062 4.894531 5.167969 4.894531 5.316406 L 4.894531 10.28125 L 5.546875 11.296875 L 5.667969 11.480469 L 5.953125 11.925781 L 6.238281 11.480469 L 6.359375 11.296875 L 7.011719 10.28125 L 7.011719 8.75 C 7.011719 8.710938 7.027344 8.671875 7.058594 8.648438 L 9.863281 11.921875 L 10.300781 12.171875 L 11.121094 12.171875 L 11.007812 12.039062 L 11.660156 12.039062 C 11.683594 12.039062 11.710938 12.035156 11.734375 12.03125 C 11.722656 12.03125 11.730469 12.03125 11.753906 12.023438 C 11.824219 12.003906 11.886719 11.960938 11.9375 11.902344 L 12.023438 12.003906 C 12.113281 11.902344 12.171875 11.765625 12.171875 11.613281 L 12.171875 10.957031 L 12.039062 10.800781 L 12.039062 5.316406 C 12.039062 5.074219 11.867188 4.894531 11.660156 4.894531 L 10.300781 4.894531 C 10.09375 4.894531 9.921875 5.074219 9.921875 5.316406 L 9.921875 8.175781 C 9.921875 8.214844 9.90625 8.253906 9.875 8.277344 L 6.988281 4.910156 C 6.9375 4.851562 6.691406 4.804688 6.632812 4.761719 Z M 6.0625 4.761719 "/>
<path fill-rule="nonzero" fill="rgb(100%, 70.196078%, 20%)" fill-opacity="1" d="M 10.300781 4.761719 C 10.015625 4.761719 9.789062 5.011719 9.789062 5.316406 L 9.789062 11.613281 C 9.789062 11.921875 10.015625 12.171875 10.300781 12.171875 L 11.660156 12.171875 C 11.941406 12.171875 12.171875 11.921875 12.171875 11.613281 L 12.171875 5.316406 C 12.171875 5.011719 11.941406 4.761719 11.660156 4.761719 Z M 10.300781 4.761719 "/>
<path fill-rule="nonzero" fill="rgb(100%, 70.196078%, 20%)" fill-opacity="1" d="M 5.273438 4.761719 C 5.238281 4.761719 5.203125 4.765625 5.167969 4.773438 C 5.136719 4.78125 5.105469 4.792969 5.074219 4.804688 C 5.042969 4.820312 5.015625 4.835938 4.988281 4.855469 C 4.851562 4.957031 4.761719 5.125 4.761719 5.316406 L 4.761719 10.320312 L 5.554688 11.554688 L 5.953125 12.171875 L 6.351562 11.554688 L 7.144531 10.320312 L 7.144531 5.316406 C 7.144531 5.125 7.054688 4.957031 6.917969 4.855469 C 6.863281 4.816406 6.804688 4.789062 6.738281 4.773438 C 6.703125 4.765625 6.667969 4.761719 6.632812 4.761719 Z M 5.273438 4.761719 "/>
<path fill-rule="nonzero" fill="rgb(49.019608%, 49.019608%, 48.627451%)" fill-opacity="1" d="M 9.789062 6.351562 L 12.171875 6.351562 L 12.171875 7.144531 L 9.789062 7.144531 Z M 9.789062 6.351562 "/>
<path fill-rule="nonzero" fill="rgb(100%, 33.72549%, 21.176471%)" fill-opacity="1" d="M 10.300781 4.761719 C 10.015625 4.761719 9.789062 5.011719 9.789062 5.316406 L 9.789062 6.351562 L 12.171875 6.351562 L 12.171875 5.316406 C 12.171875 5.011719 11.941406 4.761719 11.660156 4.761719 Z M 10.300781 4.761719 "/>
<path fill-rule="nonzero" fill="rgb(96.862745%, 86.666667%, 75.686275%)" fill-opacity="1" d="M 4.761719 10.320312 L 5.441406 11.378906 L 6.464844 11.378906 L 7.144531 10.320312 Z M 4.761719 10.320312 "/>
<path fill-rule="nonzero" fill="rgb(46.666667%, 36.470588%, 32.54902%)" fill-opacity="1" d="M 5.441406 11.378906 L 5.953125 12.171875 L 6.464844 11.378906 Z M 5.441406 11.378906 "/>
<g mask="url(#mask-0)">
<use xlink:href="#source-16812"/>
</g>
</svg>
