<?xml version="1.0" encoding="UTF-8"?>
<svg xmlns="http://www.w3.org/2000/svg" xmlns:xlink="http://www.w3.org/1999/xlink" width="64" height="64" viewBox="0 0 64 64">
<path fill-rule="nonzero" fill="rgb(94.901961%, 94.901961%, 94.901961%)" fill-opacity="1" d="M 58.183594 25.136719 C 58.121094 24.886719 58.046875 24.621094 57.972656 24.359375 C 57.917969 24.164062 57.859375 23.964844 57.792969 23.757812 C 57.703125 23.460938 57.597656 23.15625 57.488281 22.851562 C 57.121094 21.804688 56.679688 20.789062 56.164062 19.78125 C 55.949219 19.359375 55.710938 18.925781 55.460938 18.5 C 54.300781 16.527344 52.84375 14.65625 51.09375 12.910156 C 46.941406 8.753906 42.105469 6.234375 36.585938 5.355469 C 35.65625 5.207031 34.707031 5.101562 33.722656 5.046875 C 33.167969 5.015625 32.585938 5 32 5 C 31.464844 5 30.9375 5.015625 30.402344 5.042969 C 23.632812 5.390625 17.800781 8.015625 12.910156 12.90625 C 7.636719 18.179688 5 24.542969 5 32 C 5 39.457031 7.636719 45.824219 12.910156 51.09375 C 16.152344 54.335938 19.804688 56.582031 23.839844 57.820312 C 25.941406 58.460938 28.117188 58.839844 30.402344 58.960938 L 30.425781 58.960938 C 30.914062 58.984375 31.375 59 31.828125 59 L 32 59 C 32.589844 59 33.171875 58.984375 33.722656 58.953125 C 33.863281 58.945312 33.992188 58.9375 34.121094 58.929688 C 35.273438 58.847656 36.402344 58.699219 37.476562 58.488281 C 37.933594 58.398438 38.382812 58.300781 38.816406 58.195312 C 43.4375 57.03125 47.519531 54.671875 51.09375 51.09375 C 53.875 48.316406 55.921875 45.230469 57.234375 41.839844 C 58.289062 39.113281 58.875 36.1875 58.984375 33.058594 C 58.996094 32.710938 59 32.359375 59 32 L 59 31.828125 C 58.988281 29.503906 58.71875 27.28125 58.183594 25.136719 Z M 58.183594 25.136719 "/>
<path fill-rule="evenodd" fill="rgb(40%, 40%, 40%)" fill-opacity="1" d="M 32 9.5 C 19.574219 9.5 9.5 19.574219 9.5 32 C 9.5 44.425781 19.574219 54.5 32 54.5 C 44.425781 54.5 54.5 44.425781 54.5 32 C 54.5 19.574219 44.425781 9.5 32 9.5 Z M 32 11.300781 C 43.433594 11.300781 52.699219 20.566406 52.699219 32 C 52.699219 43.433594 43.433594 52.699219 32 52.699219 C 20.566406 52.699219 11.300781 43.433594 11.300781 32 C 11.300781 20.566406 20.566406 11.300781 32 11.300781 Z M 32 11.300781 "/>
<path fill-rule="nonzero" fill="rgb(40%, 40%, 40%)" fill-opacity="1" d="M 23 20.109375 L 27.332031 20.109375 L 37.878906 40.003906 L 37.878906 20.109375 L 41 20.109375 L 41 43.890625 L 36.667969 43.890625 L 26.121094 23.996094 L 26.121094 43.890625 L 23 43.890625 Z M 23 20.109375 "/>
</svg>
