<?xml version="1.0" encoding="UTF-8"?>
<svg xmlns="http://www.w3.org/2000/svg" xmlns:xlink="http://www.w3.org/1999/xlink" width="64" height="64" viewBox="0 0 64 64">
<defs>
<filter id="filter-remove-color" x="0%" y="0%" width="100%" height="100%">
<feColorMatrix color-interpolation-filters="sRGB" values="0 0 0 0 1 0 0 0 0 1 0 0 0 0 1 0 0 0 1 0" />
</filter>
<mask id="mask-0">
<g filter="url(#filter-remove-color)">
<rect x="-6.4" y="-6.4" width="76.8" height="76.8" fill="rgb(0%, 0%, 0%)" fill-opacity="0.5"/>
</g>
</mask>
<linearGradient id="linear-pattern-0" gradientUnits="userSpaceOnUse" x1="10.435" y1="13.075" x2="8.0869" y2="9.3045" gradientTransform="matrix(1.102376, 0, 0, 1.108644, -0.876326, -0.695513)">
<stop offset="0" stop-color="rgb(59.215686%, 36.078431%, 14.509804%)" stop-opacity="1"/>
<stop offset="1" stop-color="rgb(59.215686%, 36.078431%, 14.509804%)" stop-opacity="0"/>
</linearGradient>
<clipPath id="clip-0">
<rect x="0" y="0" width="17" height="17"/>
</clipPath>
<g id="source-7831" clip-path="url(#clip-0)">
<path fill-rule="nonzero" fill="url(#linear-pattern-0)" d="M 8.75 3.613281 C 9.269531 3.996094 9.714844 4.472656 10.042969 5.003906 C 11.183594 6.832031 11.699219 9.652344 8.476562 11.679688 C 6.875 12.6875 5.226562 12.773438 3.910156 12.492188 C 5.101562 13.367188 7.863281 14.199219 10.496094 12.539062 C 13.714844 10.511719 13.203125 7.691406 12.0625 5.863281 C 11.351562 4.722656 10.101562 3.804688 8.75 3.613281 Z M 8.75 3.613281 "/>
</g>
<mask id="mask-1">
<g filter="url(#filter-remove-color)">
<rect x="-6.4" y="-6.4" width="76.8" height="76.8" fill="rgb(0%, 0%, 0%)" fill-opacity="0.75"/>
</g>
</mask>
<linearGradient id="linear-pattern-1" gradientUnits="userSpaceOnUse" x1="13" y1="9.8601" x2="10.776" y2="6.7705" gradientTransform="matrix(1.102376, 0, 0, 1.108644, -0.876326, -0.695513)">
<stop offset="0" stop-color="rgb(36.470588%, 20.392157%, 9.019608%)" stop-opacity="1"/>
<stop offset="1" stop-color="rgb(36.470588%, 20.392157%, 9.019608%)" stop-opacity="0"/>
</linearGradient>
<clipPath id="clip-1">
<rect x="0" y="0" width="17" height="17"/>
</clipPath>
<g id="source-7836" clip-path="url(#clip-1)">
<path fill-rule="nonzero" fill="url(#linear-pattern-1)" d="M 12.171875 6.042969 C 12.234375 7.101562 11.769531 8.613281 10.765625 8.757812 C 10.8125 8.839844 10.878906 8.941406 10.921875 9.015625 C 11.355469 9.726562 11.496094 10.015625 11.699219 10.707031 C 11.808594 11.070312 11.601562 11.4375 11.578125 11.660156 C 11.558594 11.863281 12.074219 11.859375 12.195312 11.726562 C 13.371094 10.40625 13.367188 7.980469 12.175781 6.042969 Z M 12.171875 6.042969 "/>
</g>
</defs>
<path fill-rule="nonzero" fill="rgb(97.647059%, 97.647059%, 97.647059%)" fill-opacity="1" d="M 15.609375 8.464844 C 15.609375 12.410156 12.410156 15.609375 8.464844 15.609375 C 4.519531 15.609375 1.324219 12.410156 1.324219 8.464844 C 1.324219 4.519531 4.519531 1.324219 8.464844 1.324219 C 12.410156 1.324219 15.609375 4.519531 15.609375 8.464844 Z M 15.609375 8.464844 "/>
<path fill-rule="nonzero" fill="rgb(60.784314%, 35.294118%, 17.647059%)" fill-opacity="1" d="M 11.222656 4.976562 C 11.222656 4.976562 11.625 4.613281 11.957031 4.378906 C 12.292969 4.144531 12.78125 3.878906 13.214844 3.96875 C 13.648438 4.058594 14.003906 4.640625 13.828125 4.976562 C 13.65625 5.316406 13.34375 4.902344 12.882812 4.929688 C 12.421875 4.953125 11.742188 5.707031 11.742188 5.707031 Z M 11.222656 4.976562 "/>
<path fill-rule="nonzero" fill="rgb(90.196078%, 69.803922%, 37.647059%)" fill-opacity="1" d="M 11.730469 6.179688 C 12.871094 8.007812 13.714844 10.511719 10.496094 12.542969 C 7.273438 14.570312 3.847656 12.871094 3.363281 11.917969 C 2.605469 10.425781 3.132812 6.265625 6.308594 4.164062 C 8.398438 2.78125 10.347656 3.992188 11.488281 5.820312 Z M 11.730469 6.179688 "/>
<g mask="url(#mask-0)">
<use xlink:href="#source-7831"/>
</g>
<path fill-rule="nonzero" fill="rgb(64.313725%, 41.176471%, 25.490196%)" fill-opacity="1" d="M 12.0625 5.863281 C 13.371094 7.832031 13.40625 10.367188 12.191406 11.726562 C 12.074219 11.859375 11.558594 11.863281 11.578125 11.660156 C 11.601562 11.441406 11.808594 11.070312 11.699219 10.707031 C 11.496094 10.015625 11.355469 9.726562 10.921875 9.015625 C 10.550781 8.402344 9.953125 7.433594 9.605469 6.96875 C 9.066406 6.242188 8.171875 5.226562 7.1875 4.386719 C 6.882812 4.125 6.535156 4.253906 6.308594 4.128906 C 6.132812 4.027344 6.179688 3.804688 6.371094 3.734375 C 8.714844 2.851562 10.871094 4.070312 12.0625 5.863281 Z M 12.0625 5.863281 "/>
<g mask="url(#mask-1)">
<use xlink:href="#source-7836"/>
</g>
</svg>
