<?xml version="1.0" encoding="UTF-8"?>
<svg xmlns="http://www.w3.org/2000/svg" xmlns:xlink="http://www.w3.org/1999/xlink" width="64" height="64" viewBox="0 0 64 64">
<path fill-rule="nonzero" fill="rgb(20%, 20%, 20%)" fill-opacity="1" d="M 13.632812 8.375 C 13.632812 11.140625 11.296875 13.382812 8.414062 13.382812 C 5.53125 13.382812 3.191406 11.140625 3.191406 8.375 C 3.191406 5.613281 5.53125 3.371094 8.414062 3.371094 C 11.296875 3.371094 13.632812 5.613281 13.632812 8.375 Z M 13.632812 8.375 "/>
<path fill-rule="nonzero" fill="rgb(20%, 20%, 20%)" fill-opacity="1" d="M 7.535156 1.394531 C 3.984375 1.859375 1.328125 4.886719 1.324219 8.464844 C 1.328125 12.046875 3.984375 15.074219 7.535156 15.542969 L 7.535156 1.390625 Z M 7.535156 1.394531 "/>
<path fill-rule="nonzero" fill="rgb(29.411765%, 82.352941%, 22.352941%)" fill-opacity="1" d="M 8.464844 1.324219 C 8.132812 1.324219 7.804688 1.351562 7.472656 1.398438 L 7.472656 5.816406 L 7.578125 5.8125 C 9.886719 5.796875 11.378906 7.804688 11.378906 7.804688 C 11.378906 7.804688 9.609375 10.003906 7.761719 10.003906 C 7.660156 10.003906 7.566406 10 7.472656 9.992188 L 7.472656 10.570312 C 7.542969 10.574219 7.613281 10.578125 7.683594 10.578125 C 9.398438 10.578125 10.644531 9.679688 11.84375 8.621094 C 12.042969 8.78125 12.859375 9.179688 13.027344 9.351562 C 11.882812 10.332031 9.21875 11.121094 7.707031 11.121094 C 7.628906 11.121094 7.550781 11.121094 7.472656 11.113281 L 7.472656 15.53125 C 7.804688 15.582031 8.132812 15.605469 8.464844 15.609375 C 12.410156 15.609375 15.609375 12.410156 15.609375 8.464844 C 15.609375 4.519531 12.410156 1.324219 8.464844 1.324219 Z M 7.472656 10.570312 C 7.410156 10.566406 7.363281 10.558594 7.304688 10.550781 C 5.203125 10.28125 4.484375 7.910156 4.484375 7.910156 C 4.484375 7.910156 5.421875 6.488281 7.304688 6.339844 C 7.363281 6.335938 7.410156 6.332031 7.472656 6.332031 L 7.472656 6.960938 C 7.523438 6.960938 7.59375 6.957031 7.644531 6.957031 C 8.734375 6.957031 9.382812 7.824219 9.382812 7.824219 L 8.496094 8.589844 C 8.140625 7.980469 7.976562 7.679688 7.472656 7.5625 L 7.472656 6.960938 C 7.410156 6.964844 7.363281 6.972656 7.304688 6.980469 C 6.035156 7.121094 5.273438 7.984375 5.273438 7.984375 C 5.273438 7.984375 5.714844 9.675781 7.304688 9.964844 C 7.363281 9.976562 7.410156 9.984375 7.472656 9.992188 L 7.472656 9.511719 C 7.410156 9.5 7.363281 9.480469 7.304688 9.460938 C 6.410156 9.15625 6.117188 8.082031 6.117188 8.082031 C 6.117188 8.082031 6.636719 7.445312 7.300781 7.527344 L 7.304688 7.527344 C 7.371094 7.535156 7.414062 7.550781 7.472656 7.5625 L 7.472656 9.511719 C 7.472656 9.613281 7.695312 9.542969 7.808594 9.542969 C 9.101562 9.542969 10.308594 7.828125 10.308594 7.828125 C 10.308594 7.828125 9.175781 6.28125 7.472656 6.332031 L 7.472656 5.816406 C 7.410156 5.820312 7.363281 5.820312 7.304688 5.828125 C 5.222656 5.996094 3.417969 7.800781 3.417969 7.800781 C 3.417969 7.800781 4.441406 10.824219 7.304688 11.101562 C 7.367188 11.105469 7.410156 11.109375 7.472656 11.113281 Z M 7.472656 10.570312 "/>
</svg>
