<?xml version="1.0" encoding="UTF-8"?>
<svg xmlns="http://www.w3.org/2000/svg" xmlns:xlink="http://www.w3.org/1999/xlink" width="64" height="64" viewBox="0 0 64 64">
<path fill-rule="nonzero" fill="rgb(86.27451%, 86.27451%, 86.27451%)" fill-opacity="1" d="M 32 5 C 46.910156 5 59 17.085938 59 32 C 59 46.910156 46.910156 59 32 59 C 17.085938 59 5 46.910156 5 32 C 5 17.085938 17.085938 5 32 5 Z M 32 5 "/>
<path fill-rule="nonzero" fill="rgb(94.901961%, 94.901961%, 94.901961%)" fill-opacity="1" d="M 32 9 C 44.703125 9 55 19.296875 55 32 C 55 44.703125 44.703125 55 32 55 C 19.296875 55 9 44.703125 9 32 C 9 19.296875 19.296875 9 32 9 Z M 32 9 "/>
<path fill-rule="nonzero" fill="rgb(41.960784%, 65.098039%, 24.705882%)" fill-opacity="1" d="M 44.914062 22.609375 L 37.871094 16.738281 L 37.871094 47.257812 L 44.914062 41.390625 Z M 44.914062 22.609375 "/>
<path fill-rule="nonzero" fill="rgb(25.882353%, 68.627451%, 90.196078%)" fill-opacity="1" d="M 19.085938 22.609375 L 26.128906 16.738281 L 26.128906 47.257812 L 19.085938 41.390625 Z M 19.085938 22.609375 "/>
<path fill-rule="nonzero" fill="rgb(58.823529%, 79.215686%, 41.960784%)" fill-opacity="1" d="M 26.128906 16.738281 C 24.699219 20.828125 24.972656 25.015625 26.128906 29.257812 L 37.871094 47.257812 C 38.621094 43.152344 39.488281 39.046875 37.871094 34.9375 Z M 26.128906 16.738281 "/>
<path fill-rule="nonzero" fill="rgb(33.72549%, 61.960784%, 25.490196%)" fill-opacity="1" d="M 37.871094 34.9375 L 37.871094 47.257812 L 43.152344 42.859375 Z M 37.871094 34.9375 "/>
<path fill-rule="nonzero" fill="rgb(43.921569%, 74.509804%, 38.823529%)" fill-opacity="1" d="M 26.128906 16.738281 L 20.839844 21.148438 L 26.128906 29.257812 Z M 26.128906 16.738281 "/>
</svg>
