<?xml version="1.0" encoding="UTF-8"?>
<svg xmlns="http://www.w3.org/2000/svg" xmlns:xlink="http://www.w3.org/1999/xlink" width="64" height="64" viewBox="0 0 64 64">
<path fill-rule="nonzero" fill="rgb(18.431373%, 55.294118%, 67.45098%)" fill-opacity="1" d="M 8.464844 1.324219 C 5.335938 1.324219 2.570312 3.359375 1.644531 6.351562 L 15.28125 6.351562 C 14.355469 3.363281 11.59375 1.328125 8.46875 1.324219 Z M 8.464844 1.324219 "/>
<path fill-rule="nonzero" fill="rgb(100%, 100%, 100%)" fill-opacity="1" d="M 14.816406 8.464844 C 14.816406 11.972656 11.972656 14.816406 8.464844 14.816406 C 4.960938 14.816406 2.117188 11.972656 2.117188 8.464844 C 2.117188 4.960938 4.960938 2.117188 8.464844 2.117188 C 11.972656 2.117188 14.816406 4.960938 14.816406 8.464844 Z M 14.816406 8.464844 "/>
<path fill-rule="nonzero" fill="rgb(14.901961%, 64.313725%, 79.215686%)" fill-opacity="1" d="M 14.867188 5.300781 L 3.402344 13.5 C 4.742188 14.847656 6.5625 15.609375 8.464844 15.609375 C 12.410156 15.609375 15.609375 12.410156 15.609375 8.464844 C 15.609375 7.367188 15.355469 6.285156 14.867188 5.300781 Z M 14.867188 5.300781 "/>
<path fill-rule="nonzero" fill="rgb(28.627451%, 74.117647%, 89.019608%)" fill-opacity="1" d="M 2.070312 5.304688 C 1.582031 6.285156 1.324219 7.367188 1.324219 8.464844 C 1.324219 12.410156 4.519531 15.609375 8.464844 15.609375 C 10.367188 15.609375 12.1875 14.847656 13.527344 13.5 Z M 2.070312 5.304688 "/>
<path fill-rule="nonzero" fill="rgb(100%, 100%, 100%)" fill-opacity="1" d="M 3.207031 8.730469 C 3.007812 8.730469 2.847656 8.878906 2.847656 9.0625 L 2.847656 9.445312 L 5.167969 10.785156 L 5.167969 9.800781 L 3.390625 8.777344 C 3.332031 8.746094 3.269531 8.730469 3.207031 8.730469 M 5.554688 8.730469 L 5.554688 9.714844 L 7.875 11.050781 L 7.875 10.070312 M 2.847656 9.757812 L 2.847656 10.738281 L 5.167969 12.078125 L 5.167969 11.097656 Z M 5.554688 10.023438 L 5.554688 11.007812 L 7.875 12.34375 L 7.875 11.363281 Z M 2.847656 11.050781 L 2.847656 12.03125 L 5.167969 13.371094 L 5.167969 12.390625 M 5.554688 11.320312 L 5.554688 12.300781 L 7.335938 13.324219 C 7.390625 13.355469 7.453125 13.371094 7.519531 13.371094 C 7.714844 13.371094 7.875 13.222656 7.875 13.042969 L 7.875 12.65625 "/>
</svg>
