<?xml version="1.0" encoding="UTF-8"?>
<svg xmlns="http://www.w3.org/2000/svg" xmlns:xlink="http://www.w3.org/1999/xlink" width="64" height="64" viewBox="0 0 64 64">
<defs>
<filter id="filter-remove-color" x="0%" y="0%" width="100%" height="100%">
<feColorMatrix color-interpolation-filters="sRGB" values="0 0 0 0 1 0 0 0 0 1 0 0 0 0 1 0 0 0 1 0" />
</filter>
<mask id="mask-0">
<g filter="url(#filter-remove-color)">
<rect x="-6.4" y="-6.4" width="76.8" height="76.8" fill="rgb(0%, 0%, 0%)" fill-opacity="0.2"/>
</g>
</mask>
<clipPath id="clip-0">
<rect x="0" y="0" width="17" height="17"/>
</clipPath>
<g id="source-17329" clip-path="url(#clip-0)">
<path fill-rule="evenodd" fill="rgb(0%, 0%, 0%)" fill-opacity="1" d="M 3.96875 2.921875 C 2.296875 4.277344 1.324219 6.3125 1.324219 8.464844 C 1.324219 10.617188 2.296875 12.65625 3.96875 14.007812 Z M 3.96875 2.921875 "/>
</g>
</defs>
<path fill-rule="nonzero" fill="rgb(18.431373%, 19.607843%, 20.392157%)" fill-opacity="1" d="M 15.609375 8.464844 C 15.609375 12.410156 12.410156 15.609375 8.464844 15.609375 C 4.519531 15.609375 1.324219 12.410156 1.324219 8.464844 C 1.324219 4.519531 4.519531 1.324219 8.464844 1.324219 C 12.410156 1.324219 15.609375 4.519531 15.609375 8.464844 Z M 15.609375 8.464844 "/>
<path fill-rule="nonzero" fill="rgb(78.431373%, 21.568627%, 21.568627%)" fill-opacity="1" d="M 6.613281 1.570312 C 5.859375 1.773438 5.144531 2.097656 4.496094 2.535156 L 4.496094 7.671875 L 5.558594 6.613281 L 6.613281 7.671875 Z M 6.613281 1.570312 "/>
<g mask="url(#mask-0)">
<use xlink:href="#source-17329"/>
</g>
<path fill-rule="nonzero" fill="rgb(10.980392%, 58.431373%, 96.078431%)" fill-opacity="1" d="M 14.296875 4.355469 C 13.011719 4.683594 11.671875 5.414062 10.511719 6.421875 C 7.761719 8.816406 6.714844 12.117188 8.171875 13.789062 C 9.023438 14.757812 10.585938 15.003906 12.375 14.445312 C 13.117188 13.957031 13.761719 13.335938 14.277344 12.613281 C 12.386719 13.582031 10.570312 13.546875 9.679688 12.519531 C 8.46875 11.125 9.339844 8.375 11.625 6.375 C 12.519531 5.597656 13.542969 5.015625 14.542969 4.71875 C 14.464844 4.59375 14.382812 4.472656 14.296875 4.355469 Z M 14.296875 4.355469 "/>
</svg>
