<?xml version="1.0" encoding="UTF-8"?>
<svg xmlns="http://www.w3.org/2000/svg" xmlns:xlink="http://www.w3.org/1999/xlink" width="64" height="64" viewBox="0 0 64 64">
<path fill-rule="nonzero" fill="rgb(97.647059%, 97.647059%, 97.647059%)" fill-opacity="1" d="M 15.609375 8.464844 C 15.609375 12.410156 12.410156 15.609375 8.464844 15.609375 C 4.519531 15.609375 1.324219 12.410156 1.324219 8.464844 C 1.324219 4.519531 4.519531 1.324219 8.464844 1.324219 C 12.410156 1.324219 15.609375 4.519531 15.609375 8.464844 Z M 15.609375 8.464844 "/>
<path fill-rule="nonzero" fill="rgb(80%, 80%, 80%)" fill-opacity="1" d="M 8.464844 11.890625 C 10.132812 11.890625 11.300781 10.558594 11.300781 8.433594 C 11.300781 6.304688 10.132812 5.011719 8.464844 5.011719 C 6.800781 5.011719 5.632812 6.304688 5.632812 8.433594 C 5.632812 10.558594 6.800781 11.890625 8.464844 11.890625 Z M 8.464844 11.15625 C 7.269531 11.15625 6.492188 10.089844 6.492188 8.433594 C 6.492188 6.765625 7.269531 5.742188 8.464844 5.742188 C 9.652344 5.742188 10.4375 6.765625 10.4375 8.433594 C 10.4375 10.089844 9.652344 11.15625 8.464844 11.15625 Z M 8.464844 11.15625 "/>
<path fill-rule="nonzero" fill="rgb(33.333333%, 58.823529%, 100%)" fill-opacity="1" d="M 15.875 11.90625 C 15.875 14.242188 13.980469 16.140625 11.640625 16.140625 C 9.304688 16.140625 7.40625 14.242188 7.40625 11.90625 C 7.40625 9.566406 9.304688 7.671875 11.640625 7.671875 C 13.980469 7.671875 15.875 9.566406 15.875 11.90625 Z M 15.875 11.90625 "/>
<path fill-rule="nonzero" fill="rgb(100%, 100%, 100%)" fill-opacity="1" d="M 10.320312 14.285156 L 11.839844 14.285156 C 12.90625 14.285156 13.644531 13.820312 13.644531 12.886719 C 13.644531 12.238281 13.242188 11.859375 12.671875 11.75 L 12.671875 11.71875 C 13.117188 11.574219 13.371094 11.160156 13.371094 10.683594 C 13.371094 9.847656 12.703125 9.519531 11.734375 9.519531 L 10.320312 9.519531 Z M 10.921875 11.546875 L 10.921875 9.996094 L 11.65625 9.996094 C 12.398438 9.996094 12.78125 10.203125 12.78125 10.761719 C 12.78125 11.242188 12.449219 11.546875 11.632812 11.546875 Z M 10.921875 13.800781 L 10.921875 12.007812 L 11.753906 12.007812 C 12.585938 12.007812 13.054688 12.277344 13.054688 12.867188 C 13.054688 13.511719 12.574219 13.800781 11.753906 13.800781 Z M 10.921875 13.800781 "/>
</svg>
