<?xml version="1.0" encoding="UTF-8"?>
<svg xmlns="http://www.w3.org/2000/svg" xmlns:xlink="http://www.w3.org/1999/xlink" width="64" height="64" viewBox="0 0 64 64">
<path fill-rule="nonzero" fill="rgb(97.647059%, 97.647059%, 97.647059%)" fill-opacity="1" d="M 15.609375 8.460938 C 15.609375 12.40625 12.410156 15.605469 8.464844 15.605469 C 4.519531 15.605469 1.324219 12.40625 1.324219 8.460938 C 1.324219 4.515625 4.519531 1.316406 8.464844 1.316406 C 12.410156 1.316406 15.609375 4.515625 15.609375 8.460938 Z M 15.609375 8.460938 "/>
<path fill-rule="nonzero" fill="rgb(98.431373%, 73.72549%, 1.960784%)" fill-opacity="1" d="M 5.664062 6.050781 C 5.308594 6.457031 5.035156 6.949219 4.886719 7.503906 C 4.808594 7.796875 4.769531 8.085938 4.765625 8.375 C 4.734375 9.292969 5.054688 10.1875 5.660156 10.878906 L 6.421875 9.855469 C 6.164062 9.476562 6.015625 9.03125 5.996094 8.574219 C 5.996094 8.535156 5.996094 8.496094 5.996094 8.457031 L 5.996094 8.390625 C 6.003906 8.203125 6.027344 8.015625 6.078125 7.824219 C 6.152344 7.546875 6.273438 7.296875 6.421875 7.074219 L 5.664062 6.050781 "/>
<path fill-rule="nonzero" fill="rgb(20.392157%, 65.882353%, 32.54902%)" fill-opacity="1" d="M 6.132812 9.28125 L 5.132812 10.070312 C 5.75 11.347656 7.042969 12.160156 8.464844 12.167969 C 8.761719 12.167969 9.050781 12.128906 9.324219 12.0625 L 9.339844 12.058594 L 9.347656 12.058594 C 9.46875 12.027344 9.585938 11.992188 9.703125 11.949219 L 9.71875 11.945312 L 9.722656 11.945312 C 10.453125 11.683594 11.082031 11.191406 11.519531 10.546875 L 10.332031 10.074219 C 10.160156 10.273438 9.953125 10.453125 9.710938 10.59375 L 9.6875 10.605469 C 9.511719 10.710938 9.320312 10.789062 9.121094 10.84375 L 9.105469 10.847656 C 8.898438 10.902344 8.679688 10.933594 8.460938 10.933594 C 7.414062 10.933594 6.476562 10.273438 6.132812 9.28125 "/>
<path fill-rule="nonzero" fill="rgb(25.882353%, 52.156863%, 95.686275%)" fill-opacity="1" d="M 8.464844 7.847656 L 8.464844 9.078125 L 10.859375 9.078125 C 10.703125 9.683594 10.324219 10.210938 9.796875 10.546875 L 10.796875 11.335938 C 11.664062 10.632812 12.167969 9.578125 12.171875 8.464844 C 12.171875 8.253906 12.148438 8.046875 12.113281 7.847656 Z M 8.464844 7.847656 "/>
<path fill-rule="nonzero" fill="rgb(91.764706%, 26.27451%, 20.784314%)" fill-opacity="1" d="M 8.464844 4.761719 C 7.042969 4.765625 5.75 5.578125 5.132812 6.855469 L 6.132812 7.648438 C 6.476562 6.65625 7.414062 5.992188 8.464844 5.992188 C 9.097656 5.992188 9.667969 6.230469 10.105469 6.617188 L 10.972656 5.75 C 10.289062 5.113281 9.394531 4.761719 8.464844 4.761719 "/>
</svg>
