<?xml version="1.0" encoding="UTF-8"?>
<svg xmlns="http://www.w3.org/2000/svg" xmlns:xlink="http://www.w3.org/1999/xlink" width="64" height="64" viewBox="0 0 64 64">
<path fill-rule="nonzero" fill="rgb(92.54902%, 92.54902%, 92.54902%)" fill-opacity="1" d="M 15.609375 8.460938 C 15.609375 12.40625 12.410156 15.605469 8.464844 15.605469 C 4.519531 15.605469 1.324219 12.40625 1.324219 8.460938 C 1.324219 4.515625 4.519531 1.316406 8.464844 1.316406 C 12.410156 1.316406 15.609375 4.515625 15.609375 8.460938 Z M 15.609375 8.460938 "/>
<path fill-rule="nonzero" fill="rgb(26.27451%, 33.333333%, 49.019608%)" fill-opacity="1" d="M 4.382812 5.941406 L 6.289062 7.605469 L 8.253906 9.320312 C 8.382812 9.445312 8.574219 9.476562 8.734375 9.394531 C 8.765625 9.378906 9.597656 8.660156 10.667969 7.722656 L 12.617188 6.023438 L 12.683594 5.964844 L 12.683594 11.109375 L 12.648438 11.179688 C 12.613281 11.253906 12.550781 11.3125 12.476562 11.347656 L 12.421875 11.371094 L 8.554688 11.371094 C 5.542969 11.375 4.675781 11.371094 4.632812 11.359375 C 4.519531 11.328125 4.429688 11.242188 4.394531 11.128906 Z M 8.46875 8.5625 C 8.398438 8.539062 8.335938 8.503906 8.285156 8.457031 C 8.25 8.429688 7.421875 7.789062 6.441406 7.039062 C 5.136719 6.046875 4.652344 5.667969 4.648438 5.648438 C 4.644531 5.628906 4.648438 5.609375 4.664062 5.589844 L 4.6875 5.558594 L 8.539062 5.554688 L 12.394531 5.554688 L 12.421875 5.582031 C 12.453125 5.613281 12.460938 5.640625 12.4375 5.671875 C 12.429688 5.679688 11.621094 6.300781 10.644531 7.046875 C 9.667969 7.792969 8.84375 8.425781 8.8125 8.453125 C 8.722656 8.53125 8.648438 8.5625 8.566406 8.570312 C 8.535156 8.570312 8.5 8.570312 8.46875 8.5625 Z M 8.46875 8.5625 "/>
<path fill-rule="nonzero" fill="rgb(79.215686%, 63.921569%, 26.27451%)" fill-opacity="1" d="M 12.683594 7.207031 L 12.683594 8.089844 L 12.585938 8.082031 C 12.355469 8.0625 11.972656 8.152344 11.605469 8.289062 C 11.527344 8.320312 11.367188 8.390625 11.253906 8.445312 C 10.921875 8.605469 10.753906 8.710938 9.910156 9.253906 C 9.769531 9.339844 9.628906 9.429688 9.484375 9.511719 C 8.464844 10.113281 7.4375 10.476562 6.367188 10.601562 C 6.183594 10.625 5.519531 10.636719 5.269531 10.621094 C 4.957031 10.601562 4.417969 10.539062 4.394531 10.523438 L 4.375 10.160156 C 4.378906 10.1875 4.375 10.238281 4.375 10.335938 C 4.375 10.484375 4.371094 10.523438 4.359375 10.523438 C 4.328125 10.523438 3.933594 10.457031 3.804688 10.429688 C 3.640625 10.394531 3.480469 10.339844 3.328125 10.265625 C 3.292969 10.246094 3.261719 10.234375 3.222656 10.222656 C 3.222656 10.230469 3.460938 10.375 3.542969 10.421875 C 3.730469 10.523438 3.964844 10.617188 4.21875 10.691406 L 4.367188 10.734375 L 4.386719 10.734375 C 4.386719 10.734375 4.480469 10.753906 4.59375 10.777344 C 5.027344 10.863281 5.414062 10.890625 5.96875 10.878906 C 6.515625 10.871094 6.894531 10.835938 7.371094 10.742188 C 8.308594 10.558594 9.195312 10.226562 10.367188 9.625 C 10.628906 9.492188 11.035156 9.277344 11.753906 8.886719 C 11.9375 8.78125 12.128906 8.691406 12.328125 8.621094 C 12.433594 8.585938 12.585938 8.550781 12.648438 8.550781 L 12.683594 8.550781 L 12.734375 8.558594 C 12.871094 8.574219 12.988281 8.65625 13.054688 8.773438 C 13.082031 8.832031 13.082031 8.859375 13.078125 8.949219 C 13.078125 9.113281 13.023438 9.25 12.871094 9.425781 L 12.792969 9.511719 L 12.871094 9.449219 C 13.042969 9.320312 13.222656 9.128906 13.289062 9.007812 C 13.367188 8.859375 13.359375 8.695312 13.269531 8.515625 C 13.164062 8.3125 12.980469 8.167969 12.761719 8.109375 L 12.691406 8.101562 C 12.691406 7.800781 12.6875 7.503906 12.683594 7.207031 Z M 4.375 10.160156 L 4.367188 9.875 C 4.332031 9.875 3.917969 9.820312 3.761719 9.796875 C 3.546875 9.765625 3.332031 9.722656 3.121094 9.667969 L 3.121094 9.78125 C 3.433594 9.921875 3.789062 10.035156 4.175781 10.101562 C 4.257812 10.113281 4.335938 10.132812 4.351562 10.136719 C 4.363281 10.136719 4.371094 10.136719 4.375 10.160156 Z M 4.375 10.160156 "/>
</svg>
