<?xml version="1.0" encoding="UTF-8"?>
<svg xmlns="http://www.w3.org/2000/svg" xmlns:xlink="http://www.w3.org/1999/xlink" width="64" height="64" viewBox="0 0 64 64">
<path fill-rule="nonzero" fill="rgb(23.529412%, 66.27451%, 90.588235%)" fill-opacity="1" d="M 32.003906 4.996094 C 17.089844 4.996094 5 17.085938 5 32 C 5 46.910156 17.089844 59 32.003906 59 C 46.914062 59 59.003906 46.910156 59.003906 32 C 59.003906 17.085938 46.914062 4.996094 32.003906 4.996094 Z M 32 13 C 39.730469 13 46 21.507812 46 32 C 46 42.492188 39.730469 51 32 51 C 24.269531 51 18 42.492188 18 32 C 18 21.507812 24.269531 13 32 13 Z M 32 13 "/>
<path fill-rule="nonzero" fill="rgb(7.843137%, 39.215686%, 65.098039%)" fill-opacity="1" d="M 38.5 10 C 33.035156 10 28.082031 12.308594 24.40625 16.050781 C 26.597656 14.125 29.199219 13 32 13 C 39.730469 13 46 21.507812 46 32 C 46 42.492188 39.730469 51 32 51 C 29.199219 51 26.597656 49.875 24.40625 47.953125 C 28.082031 51.691406 33.035156 54 38.5 54 C 49.824219 54 59 44.152344 59 32 C 59 19.851562 49.820312 10 38.5 10 Z M 18.132812 29.523438 C 18.125 29.609375 18.113281 29.695312 18.105469 29.78125 C 18.109375 29.695312 18.125 29.609375 18.132812 29.523438 Z M 18.058594 30.414062 C 18.023438 30.9375 18 31.464844 18 32 C 18 31.464844 18.027344 30.9375 18.058594 30.414062 Z M 18 32 C 18 32.53125 18.023438 33.058594 18.058594 33.582031 C 18.027344 33.058594 18 32.535156 18 32 Z M 18.105469 34.214844 C 18.113281 34.304688 18.125 34.390625 18.132812 34.476562 C 18.125 34.390625 18.113281 34.304688 18.105469 34.214844 Z M 18.105469 34.214844 "/>
</svg>
