<?xml version="1.0" encoding="UTF-8"?>
<svg xmlns="http://www.w3.org/2000/svg" xmlns:xlink="http://www.w3.org/1999/xlink" width="64" height="64" viewBox="0 0 64 64">
<path fill-rule="nonzero" fill="rgb(100%, 10.588235%, 17.647059%)" fill-opacity="1" d="M 8.46875 1.320312 C 4.519531 1.320312 1.324219 4.519531 1.324219 8.464844 C 1.324219 12.410156 4.519531 15.609375 8.46875 15.609375 C 12.414062 15.609375 15.609375 12.410156 15.609375 8.464844 C 15.613281 4.519531 12.414062 1.320312 8.46875 1.320312 Z M 8.464844 3.441406 C 10.511719 3.441406 12.171875 5.691406 12.171875 8.464844 C 12.171875 11.242188 10.511719 13.492188 8.464844 13.492188 C 6.421875 13.492188 4.761719 11.242188 4.761719 8.464844 C 4.761719 5.691406 6.421875 3.441406 8.464844 3.441406 Z M 8.464844 3.441406 "/>
<path fill-rule="nonzero" fill="rgb(68.627451%, 5.490196%, 5.490196%)" fill-opacity="1" d="M 10.1875 2.644531 C 8.742188 2.644531 7.429688 3.257812 6.457031 4.246094 C 7.035156 3.738281 7.726562 3.441406 8.464844 3.441406 C 10.511719 3.441406 12.171875 5.691406 12.171875 8.464844 C 12.171875 11.242188 10.511719 13.492188 8.464844 13.492188 C 7.726562 13.492188 7.035156 13.195312 6.457031 12.6875 C 7.429688 13.675781 8.742188 14.289062 10.1875 14.289062 C 13.183594 14.289062 15.609375 11.679688 15.609375 8.464844 C 15.609375 5.25 13.183594 2.644531 10.1875 2.644531 Z M 4.796875 7.8125 C 4.796875 7.835938 4.792969 7.855469 4.789062 7.878906 C 4.792969 7.855469 4.796875 7.835938 4.796875 7.8125 Z M 4.777344 8.046875 C 4.769531 8.1875 4.761719 8.324219 4.761719 8.464844 C 4.761719 8.324219 4.769531 8.1875 4.777344 8.046875 Z M 4.761719 8.464844 C 4.761719 8.609375 4.769531 8.746094 4.777344 8.886719 C 4.769531 8.746094 4.761719 8.609375 4.761719 8.464844 Z M 4.789062 9.054688 C 4.792969 9.074219 4.796875 9.097656 4.796875 9.121094 C 4.796875 9.097656 4.792969 9.074219 4.789062 9.054688 Z M 4.789062 9.054688 "/>
</svg>
