<?xml version="1.0" encoding="UTF-8"?>
<svg xmlns="http://www.w3.org/2000/svg" xmlns:xlink="http://www.w3.org/1999/xlink" width="64" height="64" viewBox="0 0 64 64">
<defs>
<filter id="filter-remove-color" x="0%" y="0%" width="100%" height="100%">
<feColorMatrix color-interpolation-filters="sRGB" values="0 0 0 0 1 0 0 0 0 1 0 0 0 0 1 0 0 0 1 0" />
</filter>
<mask id="mask-0">
<g filter="url(#filter-remove-color)">
<rect x="-6.4" y="-6.4" width="76.8" height="76.8" fill="rgb(0%, 0%, 0%)" fill-opacity="0.35"/>
</g>
</mask>
<clipPath id="clip-0">
<rect x="0" y="0" width="17" height="17"/>
</clipPath>
<g id="source-10800" clip-path="url(#clip-0)">
<path fill-rule="nonzero" fill="rgb(0%, 0%, 0%)" fill-opacity="1" d="M 12.039062 3.175781 C 12.257812 3.175781 12.4375 3.351562 12.4375 3.570312 C 12.4375 3.792969 12.257812 3.96875 12.039062 3.96875 C 11.820312 3.96875 11.640625 3.792969 11.640625 3.570312 C 11.640625 3.351562 11.820312 3.175781 12.039062 3.175781 Z M 12.039062 3.175781 "/>
</g>
<mask id="mask-1">
<g filter="url(#filter-remove-color)">
<rect x="-6.4" y="-6.4" width="76.8" height="76.8" fill="rgb(0%, 0%, 0%)" fill-opacity="0.35"/>
</g>
</mask>
<clipPath id="clip-1">
<rect x="0" y="0" width="17" height="17"/>
</clipPath>
<g id="source-10804" clip-path="url(#clip-1)">
<path fill-rule="nonzero" fill="rgb(0%, 0%, 0%)" fill-opacity="1" d="M 10.449219 3.175781 C 10.671875 3.175781 10.847656 3.351562 10.847656 3.570312 C 10.847656 3.792969 10.671875 3.96875 10.449219 3.96875 C 10.230469 3.96875 10.054688 3.792969 10.054688 3.570312 C 10.054688 3.351562 10.230469 3.175781 10.449219 3.175781 Z M 10.449219 3.175781 "/>
</g>
<mask id="mask-2">
<g filter="url(#filter-remove-color)">
<rect x="-6.4" y="-6.4" width="76.8" height="76.8" fill="rgb(0%, 0%, 0%)" fill-opacity="0.35"/>
</g>
</mask>
<clipPath id="clip-2">
<rect x="0" y="0" width="17" height="17"/>
</clipPath>
<g id="source-10808" clip-path="url(#clip-2)">
<path fill-rule="nonzero" fill="rgb(0%, 0%, 0%)" fill-opacity="1" d="M 8.863281 3.175781 C 9.082031 3.175781 9.261719 3.351562 9.261719 3.570312 C 9.261719 3.792969 9.082031 3.96875 8.863281 3.96875 C 8.644531 3.96875 8.464844 3.792969 8.464844 3.570312 C 8.464844 3.351562 8.644531 3.175781 8.863281 3.175781 Z M 8.863281 3.175781 "/>
</g>
<mask id="mask-3">
<g filter="url(#filter-remove-color)">
<rect x="-6.4" y="-6.4" width="76.8" height="76.8" fill="rgb(0%, 0%, 0%)" fill-opacity="0.15"/>
</g>
</mask>
<clipPath id="clip-3">
<rect x="0" y="0" width="17" height="17"/>
</clipPath>
<g id="source-10812" clip-path="url(#clip-3)">
<path fill-rule="nonzero" fill="rgb(80%, 80%, 80%)" fill-opacity="1" d="M 8.46875 6.238281 C 6.566406 6.238281 5.027344 7.777344 5.027344 9.679688 C 5.027344 11.578125 6.566406 13.117188 8.46875 13.117188 C 10.367188 13.117188 11.90625 11.578125 11.90625 9.675781 C 11.90625 7.777344 10.367188 6.238281 8.46875 6.238281 Z M 8.46875 7.632812 C 9.597656 7.632812 10.511719 8.546875 10.511719 9.675781 C 10.511719 10.804688 9.597656 11.722656 8.46875 11.722656 C 7.335938 11.722656 6.421875 10.804688 6.421875 9.675781 C 6.421875 8.546875 7.335938 7.632812 8.46875 7.632812 Z M 8.46875 7.632812 "/>
</g>
</defs>
<path fill-rule="nonzero" fill="rgb(97.647059%, 97.647059%, 97.647059%)" fill-opacity="1" d="M 2.367188 4.761719 C 1.6875 5.878906 1.324219 7.160156 1.324219 8.464844 C 1.324219 12.410156 4.519531 15.609375 8.464844 15.609375 C 12.410156 15.609375 15.609375 12.410156 15.609375 8.464844 C 15.609375 7.160156 15.246094 5.878906 14.566406 4.761719 Z M 2.367188 4.761719 "/>
<path fill-rule="nonzero" fill="rgb(40%, 40%, 40%)" fill-opacity="1" d="M 8.464844 1.324219 C 5.972656 1.328125 3.660156 2.628906 2.367188 4.761719 L 14.566406 4.761719 C 13.273438 2.628906 10.960938 1.324219 8.46875 1.324219 Z M 8.464844 1.324219 "/>
<g mask="url(#mask-0)">
<use xlink:href="#source-10800"/>
</g>
<g mask="url(#mask-1)">
<use xlink:href="#source-10804"/>
</g>
<g mask="url(#mask-2)">
<use xlink:href="#source-10808"/>
</g>
<g mask="url(#mask-3)">
<use xlink:href="#source-10812"/>
</g>
<path fill-rule="nonzero" fill="rgb(80%, 80%, 80%)" fill-opacity="1" d="M 8.46875 6.765625 C 6.859375 6.765625 5.558594 8.070312 5.558594 9.675781 C 5.554688 11.285156 6.859375 12.585938 8.46875 12.585938 C 10.074219 12.585938 11.378906 11.285156 11.378906 9.675781 C 11.378906 8.070312 10.074219 6.765625 8.46875 6.765625 Z M 8.46875 8.089844 C 9.34375 8.089844 10.054688 8.800781 10.054688 9.675781 C 10.054688 10.554688 9.34375 11.265625 8.46875 11.265625 C 7.589844 11.265625 6.878906 10.554688 6.878906 9.675781 C 6.878906 9.253906 7.046875 8.851562 7.34375 8.554688 C 7.640625 8.257812 8.046875 8.089844 8.46875 8.089844 Z M 8.46875 8.089844 "/>
<path fill-rule="nonzero" fill="rgb(80%, 80%, 80%)" fill-opacity="1" d="M 7.9375 5.574219 L 8.996094 5.574219 L 8.996094 7.429688 L 7.9375 7.429688 Z M 7.9375 11.925781 L 8.996094 11.925781 L 8.996094 13.777344 L 7.9375 13.777344 Z M 12.566406 9.148438 L 12.566406 10.207031 L 10.714844 10.207031 L 10.714844 9.148438 Z M 6.21875 9.148438 L 6.21875 10.207031 L 4.367188 10.207031 L 4.367188 9.148438 Z M 11.738281 12.203125 L 10.992188 12.949219 L 9.683594 11.640625 L 10.429688 10.894531 Z M 7.25 7.714844 L 6.503906 8.460938 L 5.191406 7.152344 L 5.941406 6.402344 Z M 5.941406 12.949219 L 5.191406 12.203125 L 6.503906 10.894531 L 7.25 11.640625 Z M 10.429688 8.460938 L 9.683594 7.714844 L 10.992188 6.402344 L 11.742188 7.152344 Z M 10.429688 8.460938 "/>
</svg>
