<?xml version="1.0" encoding="UTF-8"?>
<svg xmlns="http://www.w3.org/2000/svg" xmlns:xlink="http://www.w3.org/1999/xlink" width="64" height="64" viewBox="0 0 64 64">
<defs>
<filter id="filter-remove-color" x="0%" y="0%" width="100%" height="100%">
<feColorMatrix color-interpolation-filters="sRGB" values="0 0 0 0 1 0 0 0 0 1 0 0 0 0 1 0 0 0 1 0" />
</filter>
<mask id="mask-0">
<g filter="url(#filter-remove-color)">
<rect x="-6.4" y="-6.4" width="76.8" height="76.8" fill="rgb(0%, 0%, 0%)" fill-opacity="0.15"/>
</g>
</mask>
<clipPath id="clip-0">
<rect x="0" y="0" width="17" height="17"/>
</clipPath>
<g id="source-13904" clip-path="url(#clip-0)">
<path fill-rule="nonzero" fill="rgb(0%, 0%, 0%)" fill-opacity="1" d="M 14.289062 8.460938 C 14.289062 5.246094 11.683594 2.636719 8.46875 2.636719 C 5.253906 2.636719 2.644531 5.246094 2.644531 8.460938 C 2.644531 11.675781 5.253906 14.28125 8.46875 14.28125 C 11.683594 14.28125 14.289062 11.675781 14.289062 8.460938 Z M 14.289062 8.460938 "/>
</g>
</defs>
<path fill-rule="nonzero" fill="rgb(80%, 80%, 80%)" fill-opacity="1" d="M 15.609375 8.464844 C 15.609375 4.519531 12.410156 1.324219 8.464844 1.324219 C 4.519531 1.324219 1.324219 4.519531 1.324219 8.464844 C 1.324219 12.410156 4.519531 15.609375 8.464844 15.609375 C 12.410156 15.609375 15.609375 12.410156 15.609375 8.464844 Z M 15.609375 8.464844 "/>
<g mask="url(#mask-0)">
<use xlink:href="#source-13904"/>
</g>
<path fill-rule="nonzero" fill="rgb(20%, 20%, 20%)" fill-opacity="1" d="M 4.496094 7.140625 L 12.433594 7.140625 L 12.433594 9.785156 L 4.496094 9.785156 Z M 4.496094 7.140625 "/>
<path fill-rule="nonzero" fill="rgb(100%, 100%, 100%)" fill-opacity="1" d="M 8.46875 3.699219 C 6.34375 3.695312 4.476562 5.101562 3.894531 7.140625 L 13.039062 7.140625 C 12.457031 5.101562 10.589844 3.695312 8.46875 3.699219 Z M 3.894531 9.785156 C 4.476562 11.824219 6.34375 13.230469 8.46875 13.226562 C 10.589844 13.230469 12.457031 11.824219 13.039062 9.785156 Z M 3.894531 9.785156 "/>
<path fill-rule="nonzero" fill="rgb(100%, 33.333333%, 33.333333%)" fill-opacity="1" d="M 6.351562 8.460938 C 6.351562 8.898438 5.996094 9.253906 5.554688 9.253906 C 5.117188 9.253906 4.761719 8.898438 4.761719 8.460938 C 4.761719 8.019531 5.117188 7.664062 5.554688 7.664062 C 5.996094 7.664062 6.351562 8.019531 6.351562 8.460938 Z M 6.351562 8.460938 "/>
<path fill-rule="nonzero" fill="rgb(100%, 33.333333%, 33.333333%)" fill-opacity="1" d="M 9.261719 8.460938 C 9.261719 8.898438 8.90625 9.253906 8.46875 9.253906 C 8.027344 9.253906 7.671875 8.898438 7.671875 8.460938 C 7.671875 8.019531 8.027344 7.664062 8.46875 7.664062 C 8.90625 7.664062 9.261719 8.019531 9.261719 8.460938 Z M 9.261719 8.460938 "/>
<path fill-rule="nonzero" fill="rgb(100%, 33.333333%, 33.333333%)" fill-opacity="1" d="M 12.171875 8.460938 C 12.171875 8.898438 11.816406 9.253906 11.378906 9.253906 C 10.9375 9.253906 10.582031 8.898438 10.582031 8.460938 C 10.582031 8.019531 10.9375 7.664062 11.378906 7.664062 C 11.816406 7.664062 12.171875 8.019531 12.171875 8.460938 Z M 12.171875 8.460938 "/>
</svg>
