<?xml version="1.0" encoding="UTF-8"?>
<svg xmlns="http://www.w3.org/2000/svg" xmlns:xlink="http://www.w3.org/1999/xlink" width="64" height="64" viewBox="0 0 64 64">
<path fill-rule="nonzero" fill="rgb(44.313725%, 66.666667%, 45.882353%)" fill-opacity="1" d="M 15.609375 8.460938 C 15.609375 12.40625 12.410156 15.605469 8.464844 15.605469 C 4.519531 15.605469 1.324219 12.40625 1.324219 8.460938 C 1.324219 4.515625 4.519531 1.316406 8.464844 1.316406 C 12.410156 1.316406 15.609375 4.515625 15.609375 8.460938 Z M 15.609375 8.460938 "/>
<path fill-rule="nonzero" fill="rgb(54.509804%, 78.431373%, 56.862745%)" fill-opacity="1" d="M 14.023438 8.460938 C 14.023438 11.527344 11.535156 14.015625 8.46875 14.015625 C 5.398438 14.015625 2.910156 11.527344 2.910156 8.460938 C 2.910156 5.390625 5.398438 2.902344 8.46875 2.902344 C 11.535156 2.902344 14.023438 5.390625 14.023438 8.460938 Z M 14.023438 8.460938 "/>
<path fill-rule="nonzero" fill="rgb(100%, 100%, 100%)" fill-opacity="1" d="M 5.59375 5.59375 C 5.570312 5.617188 5.554688 5.652344 5.554688 5.683594 C 5.554688 5.71875 5.570312 5.753906 5.59375 5.777344 L 11.019531 11.203125 C 11.332031 11.492188 11.808594 11.484375 12.113281 11.191406 C 12.414062 10.898438 12.433594 10.417969 12.160156 10.101562 C 12.160156 10.101562 12.160156 10.101562 12.15625 10.097656 C 12.152344 10.09375 12.148438 10.085938 12.144531 10.082031 C 12.117188 10.058594 12.085938 10.042969 12.050781 10.042969 C 12.015625 10.042969 11.980469 10.058594 11.957031 10.082031 C 11.929688 10.105469 11.917969 10.140625 11.917969 10.175781 C 11.917969 10.210938 11.929688 10.246094 11.957031 10.269531 C 12.105469 10.398438 12.167969 10.601562 12.121094 10.792969 C 12.074219 10.984375 11.925781 11.132812 11.730469 11.183594 C 11.539062 11.230469 11.339844 11.164062 11.207031 11.015625 L 5.78125 5.59375 C 5.757812 5.566406 5.722656 5.554688 5.6875 5.554688 C 5.652344 5.554688 5.621094 5.566406 5.59375 5.59375 Z M 5.59375 5.59375 "/>
<path fill-rule="nonzero" fill="rgb(100%, 100%, 100%)" fill-opacity="1" d="M 5.957031 5.949219 C 4.71875 7.191406 4.71875 9.199219 5.957031 10.441406 L 10.445312 5.949219 C 9.207031 4.710938 7.195312 4.710938 5.957031 5.949219 Z M 5.957031 5.949219 "/>
</svg>
