<?xml version="1.0" encoding="UTF-8"?>
<svg xmlns="http://www.w3.org/2000/svg" xmlns:xlink="http://www.w3.org/1999/xlink" width="64" height="64" viewBox="0 0 64 64">
<path fill-rule="nonzero" fill="rgb(97.647059%, 97.647059%, 97.647059%)" fill-opacity="1" d="M 59 32 C 59 46.910156 46.910156 59 32 59 C 17.089844 59 5 46.910156 5 32 C 5 17.089844 17.089844 5 32 5 C 46.910156 5 59 17.089844 59 32 Z M 59 32 "/>
<path fill-rule="nonzero" fill="rgb(50.588235%, 74.117647%, 97.254902%)" fill-opacity="1" d="M 24.8125 15.996094 L 24.8125 39.40625 L 39.214844 39.40625 L 39.214844 15.996094 Z M 24.8125 15.996094 "/>
<path fill-rule="evenodd" fill="rgb(10.588235%, 57.254902%, 95.686275%)" fill-opacity="1" d="M 33.355469 24.984375 C 32.609375 24.984375 32.003906 25.589844 32.003906 26.335938 C 32.003906 27.082031 32.609375 27.683594 33.355469 27.683594 C 34.101562 27.683594 34.703125 27.082031 34.703125 26.335938 C 34.703125 25.589844 34.101562 24.984375 33.355469 24.984375 M 49.109375 33.085938 C 48.613281 33.085938 48.210938 33.492188 48.210938 33.988281 C 48.210938 34.484375 48.613281 34.886719 49.109375 34.886719 C 49.605469 34.886719 50.011719 34.484375 50.011719 33.988281 C 50.011719 33.492188 49.605469 33.085938 49.109375 33.085938 M 17.148438 27.683594 C 16.402344 27.683594 15.796875 28.289062 15.796875 29.035156 C 15.796875 29.78125 16.402344 30.386719 17.148438 30.386719 C 17.894531 30.386719 18.5 29.78125 18.5 29.035156 C 18.5 28.289062 17.894531 27.683594 17.148438 27.683594 M 27.75 28.675781 C 27.6875 28.683594 27.632812 28.699219 27.574219 28.726562 C 27.117188 28.925781 26.964844 29.574219 27.5625 30.941406 C 28.164062 32.308594 29.015625 33.253906 29.472656 33.054688 C 29.929688 32.851562 29.8125 31.585938 29.210938 30.21875 C 28.6875 29.023438 28.175781 28.625 27.75 28.675781 M 22.359375 29.25 C 22.003906 29.21875 21.515625 29.570312 21.957031 30.074219 C 22.546875 30.746094 22.859375 31.941406 22.332031 32.179688 C 21.804688 32.421875 21.84375 31.289062 21.796875 30.6875 C 21.75 30.085938 20.285156 29.726562 19.746094 30.472656 C 19.207031 31.214844 19.75 32.019531 20.285156 32.179688 C 20.820312 32.34375 20.902344 32.957031 21.21875 33.59375 C 21.539062 34.230469 23.089844 34.070312 23.46875 33.59375 C 23.84375 33.117188 24.078125 32.230469 23.34375 31.410156 C 22.605469 30.59375 22.832031 29.832031 22.632812 29.414062 C 22.582031 29.308594 22.476562 29.257812 22.359375 29.246094 M 39.910156 29.316406 C 39.429688 29.207031 39.234375 30.105469 39.121094 30.949219 C 39.007812 31.792969 38.585938 32.664062 38.953125 32.835938 C 39.460938 33.058594 39.71875 31.675781 40.289062 31.15625 C 40.863281 30.640625 40.386719 29.429688 39.910156 29.320312 M 24.800781 29.488281 C 24.304688 29.488281 23.898438 29.890625 23.898438 30.386719 C 23.898438 30.886719 24.304688 31.289062 24.800781 31.289062 C 25.296875 31.289062 25.699219 30.886719 25.699219 30.386719 C 25.699219 29.890625 25.296875 29.488281 24.800781 29.488281 M 35.742188 29.699219 C 35.15625 29.742188 34.574219 30.742188 34.285156 31.433594 C 33.960938 32.226562 34.355469 33.765625 33.582031 34.34375 C 32.8125 34.921875 32.246094 34.9375 31.863281 34.707031 C 31.476562 34.476562 32.191406 34.507812 31.761719 33.625 C 31.332031 32.742188 30.300781 33.019531 30.03125 33.707031 C 29.761719 34.394531 30.320312 34.359375 30.125 34.765625 C 29.933594 35.171875 28.292969 35.609375 27.925781 34.394531 C 27.5625 33.179688 26.257812 31.855469 25.855469 32.183594 C 25.449219 32.511719 25.902344 33.71875 26.960938 34.683594 C 28.023438 35.648438 26.691406 36.167969 25.769531 35.441406 C 24.847656 34.714844 23.761719 35.992188 22.925781 36.847656 C 22.085938 37.703125 21.335938 37.761719 20.734375 37.25 C 20.140625 36.738281 20.664062 35.347656 19.972656 33.945312 C 19.285156 32.546875 17.917969 33.246094 17.722656 34.191406 C 17.53125 35.136719 19.453125 35.773438 19.078125 36.296875 C 18.707031 36.820312 17.21875 36.703125 16.777344 35.714844 C 16.339844 34.722656 15.382812 35.042969 15.363281 35.855469 C 15.34375 36.664062 16.105469 36.097656 16.695312 36.691406 L 32 51.996094 L 47.308594 36.691406 C 49.109375 34.890625 47.046875 35.664062 46.621094 36.066406 C 46.199219 36.472656 44.886719 36.800781 44.730469 36.355469 C 44.578125 35.914062 46.199219 35.167969 46.664062 34.667969 C 47.125 34.164062 47.578125 32.742188 46.832031 32.21875 C 46.082031 31.695312 45.019531 32.640625 44.558594 33.332031 C 44.097656 34.027344 44.5 35.796875 43.882812 36.335938 C 43.265625 36.878906 42.925781 36.550781 42.808594 36.085938 C 42.691406 35.625 44.140625 34.972656 43.535156 33.820312 C 42.925781 32.667969 41.800781 33.191406 41.28125 33.730469 C 40.761719 34.269531 41.59375 35.101562 41.789062 35.953125 C 41.980469 36.800781 40.007812 36.78125 39.234375 36.46875 C 38.464844 36.160156 38.210938 34.222656 37.882812 34.105469 C 37.558594 33.988281 36.722656 34.75 35.660156 34.421875 C 34.597656 34.09375 35.480469 33.4375 35.808594 32.667969 C 36.136719 31.894531 36.652344 30.035156 35.992188 29.746094 C 35.90625 29.707031 35.824219 29.695312 35.742188 29.703125 M 45.058594 28.589844 C 44.3125 28.589844 43.707031 29.195312 43.707031 29.9375 C 43.707031 30.683594 44.3125 31.289062 45.058594 31.289062 C 45.804688 31.289062 46.40625 30.683594 46.40625 29.9375 C 46.40625 29.195312 45.804688 28.589844 45.058594 28.589844 M 13.996094 32.191406 C 13.5 32.191406 13.097656 32.59375 13.097656 33.089844 C 13.097656 33.585938 13.5 33.992188 13.996094 33.992188 C 14.492188 33.992188 14.898438 33.585938 14.898438 33.089844 C 14.898438 32.59375 14.492188 32.191406 13.996094 32.191406 "/>
</svg>
