<?xml version="1.0" encoding="UTF-8"?>
<svg xmlns="http://www.w3.org/2000/svg" xmlns:xlink="http://www.w3.org/1999/xlink" width="64" height="64" viewBox="0 0 64 64">
<path fill-rule="nonzero" fill="rgb(30.196078%, 30.196078%, 30.196078%)" fill-opacity="1" d="M 15.609375 8.464844 C 15.609375 12.410156 12.410156 15.609375 8.464844 15.609375 C 4.519531 15.609375 1.324219 12.410156 1.324219 8.464844 C 1.324219 4.519531 4.519531 1.324219 8.464844 1.324219 C 12.410156 1.324219 15.609375 4.519531 15.609375 8.464844 Z M 15.609375 8.464844 "/>
<path fill-rule="nonzero" fill="rgb(100%, 100%, 100%)" fill-opacity="1" d="M 5.40625 2.910156 C 4.355469 3.484375 3.492188 4.347656 2.910156 5.394531 L 2.910156 5.554688 C 2.910156 5.847656 3.144531 6.085938 3.4375 6.085938 L 5.554688 6.085938 C 5.847656 6.085938 6.085938 5.847656 6.085938 5.554688 L 6.085938 3.4375 C 6.085938 3.144531 5.847656 2.910156 5.554688 2.910156 Z M 5.40625 2.910156 "/>
<path fill-rule="nonzero" fill="rgb(60%, 60%, 60%)" fill-opacity="1" d="M 7.40625 2.910156 L 9.523438 2.910156 C 9.816406 2.910156 10.054688 3.148438 10.054688 3.4375 L 10.054688 5.554688 C 10.054688 5.847656 9.816406 6.085938 9.523438 6.085938 L 7.40625 6.085938 C 7.117188 6.085938 6.878906 5.847656 6.878906 5.554688 L 6.878906 3.4375 C 6.878906 3.148438 7.117188 2.910156 7.40625 2.910156 Z M 7.40625 2.910156 "/>
<path fill-rule="nonzero" fill="rgb(100%, 100%, 100%)" fill-opacity="1" d="M 11.375 2.910156 C 11.082031 2.910156 10.847656 3.144531 10.847656 3.4375 L 10.847656 5.554688 C 10.847656 5.847656 11.082031 6.085938 11.375 6.085938 L 13.492188 6.085938 C 13.789062 6.085938 14.023438 5.847656 14.023438 5.554688 L 14.023438 5.40625 C 13.445312 4.355469 12.585938 3.492188 11.539062 2.910156 Z M 11.375 2.910156 "/>
<path fill-rule="nonzero" fill="rgb(60%, 60%, 60%)" fill-opacity="1" d="M 3.4375 6.878906 L 5.554688 6.878906 C 5.847656 6.878906 6.085938 7.117188 6.085938 7.40625 L 6.085938 9.523438 C 6.085938 9.816406 5.847656 10.054688 5.554688 10.054688 L 3.4375 10.054688 C 3.148438 10.054688 2.910156 9.816406 2.910156 9.523438 L 2.910156 7.40625 C 2.910156 7.117188 3.148438 6.878906 3.4375 6.878906 Z M 3.4375 6.878906 "/>
<path fill-rule="nonzero" fill="rgb(100%, 100%, 100%)" fill-opacity="1" d="M 7.40625 6.878906 L 9.523438 6.878906 C 9.816406 6.878906 10.054688 7.117188 10.054688 7.40625 L 10.054688 9.523438 C 10.054688 9.816406 9.816406 10.054688 9.523438 10.054688 L 7.40625 10.054688 C 7.117188 10.054688 6.878906 9.816406 6.878906 9.523438 L 6.878906 7.40625 C 6.878906 7.117188 7.117188 6.878906 7.40625 6.878906 Z M 7.40625 6.878906 "/>
<path fill-rule="nonzero" fill="rgb(60%, 60%, 60%)" fill-opacity="1" d="M 11.378906 6.878906 L 13.492188 6.878906 C 13.785156 6.878906 14.023438 7.117188 14.023438 7.40625 L 14.023438 9.523438 C 14.023438 9.816406 13.785156 10.054688 13.492188 10.054688 L 11.378906 10.054688 C 11.085938 10.054688 10.847656 9.816406 10.847656 9.523438 L 10.847656 7.40625 C 10.847656 7.117188 11.085938 6.878906 11.378906 6.878906 Z M 11.378906 6.878906 "/>
<path fill-rule="nonzero" fill="rgb(100%, 100%, 100%)" fill-opacity="1" d="M 3.4375 10.847656 C 3.144531 10.847656 2.910156 11.082031 2.910156 11.375 L 2.910156 11.523438 C 3.484375 12.574219 4.347656 13.441406 5.394531 14.023438 L 5.554688 14.023438 C 5.847656 14.023438 6.085938 13.789062 6.085938 13.492188 L 6.085938 11.375 C 6.085938 11.082031 5.847656 10.847656 5.554688 10.847656 Z M 3.4375 10.847656 "/>
<path fill-rule="nonzero" fill="rgb(60%, 60%, 60%)" fill-opacity="1" d="M 7.40625 10.847656 L 9.523438 10.847656 C 9.816406 10.847656 10.054688 11.085938 10.054688 11.378906 L 10.054688 13.492188 C 10.054688 13.785156 9.816406 14.023438 9.523438 14.023438 L 7.40625 14.023438 C 7.117188 14.023438 6.878906 13.785156 6.878906 13.492188 L 6.878906 11.378906 C 6.878906 11.085938 7.117188 10.847656 7.40625 10.847656 Z M 7.40625 10.847656 "/>
<path fill-rule="nonzero" fill="rgb(100%, 100%, 100%)" fill-opacity="1" d="M 11.375 10.847656 C 11.082031 10.847656 10.847656 11.082031 10.847656 11.375 L 10.847656 13.492188 C 10.847656 13.789062 11.082031 14.023438 11.375 14.023438 L 11.523438 14.023438 C 12.574219 13.445312 13.441406 12.585938 14.023438 11.539062 L 14.023438 11.375 C 14.023438 11.082031 13.789062 10.847656 13.492188 10.847656 Z M 11.375 10.847656 "/>
</svg>
