<?xml version="1.0" encoding="UTF-8"?>
<svg xmlns="http://www.w3.org/2000/svg" xmlns:xlink="http://www.w3.org/1999/xlink" width="64" height="64" viewBox="0 0 64 64">
<path fill-rule="nonzero" fill="rgb(97.647059%, 97.647059%, 97.647059%)" fill-opacity="1" d="M 15.609375 8.464844 C 15.609375 12.410156 12.410156 15.609375 8.464844 15.609375 C 4.519531 15.609375 1.324219 12.410156 1.324219 8.464844 C 1.324219 4.519531 4.519531 1.324219 8.464844 1.324219 C 12.410156 1.324219 15.609375 4.519531 15.609375 8.464844 Z M 15.609375 8.464844 "/>
<path fill-rule="evenodd" fill="rgb(30.196078%, 30.196078%, 30.196078%)" fill-opacity="1" d="M 8.464844 3.457031 C 8.179688 3.457031 7.902344 3.5625 7.679688 3.789062 L 3.773438 7.816406 C 3.5625 8.035156 3.445312 8.324219 3.441406 8.625 L 3.441406 8.644531 C 3.441406 9.507812 5.746094 8.667969 5.953125 9.722656 C 6.066406 10.296875 4.695312 10.035156 4.695312 10.609375 C 4.695312 11.28125 6.636719 10.820312 7.191406 11.375 C 7.417969 11.929688 6.449219 11.839844 6.621094 12.359375 C 6.945312 12.691406 7.679688 12.503906 7.820312 13.046875 C 7.980469 13.664062 9.03125 13.558594 9.644531 13.105469 C 9.96875 12.769531 9.140625 12.613281 9.46875 12.277344 C 9.792969 11.945312 11.402344 12.011719 11.414062 11.277344 C 11.257812 10.816406 10.65625 10.742188 10.644531 10.195312 C 10.613281 9.734375 11.140625 9.867188 12.804688 9.410156 C 13.472656 9.097656 13.496094 8.933594 13.492188 8.644531 L 13.492188 8.625 C 13.488281 8.332031 13.355469 8.039062 13.140625 7.820312 L 9.253906 3.789062 C 9.046875 3.574219 8.761719 3.453125 8.464844 3.457031 Z M 13.023438 10.351562 C 12.949219 10.351562 12.875 10.355469 12.804688 10.375 C 12.699219 10.402344 12.195312 10.421875 12.234375 10.804688 C 12.695312 10.996094 13.390625 11.148438 13.472656 10.765625 C 13.535156 10.476562 13.261719 10.363281 13.023438 10.351562 Z M 5.226562 11.628906 C 5.183594 11.636719 5.152344 11.652344 5.109375 11.667969 C 4.761719 11.800781 4.527344 12.078125 4.851562 12.199219 C 5.175781 12.320312 5.394531 12.195312 5.679688 12.042969 C 5.960938 11.890625 5.953125 11.867188 5.933594 11.808594 C 5.894531 11.816406 5.636719 11.65625 5.363281 11.628906 C 5.316406 11.625 5.273438 11.625 5.226562 11.628906 Z M 5.226562 11.628906 "/>
<path fill-rule="evenodd" fill="rgb(100%, 100%, 100%)" fill-opacity="1" d="M 8.542969 4.53125 C 8.839844 4.53125 9.644531 5.527344 10.363281 6.273438 C 10.5625 6.546875 10.253906 6.855469 10.253906 6.855469 L 8.824219 5.960938 L 8.109375 6.855469 L 7.570312 6.140625 L 7.214844 7.394531 L 6.140625 6.765625 L 8.035156 4.746094 C 8.160156 4.617188 8.253906 4.527344 8.542969 4.53125 Z M 8.542969 4.53125 "/>
</svg>
