<?xml version="1.0" encoding="UTF-8"?>
<svg xmlns="http://www.w3.org/2000/svg" xmlns:xlink="http://www.w3.org/1999/xlink" width="64" height="64" viewBox="0 0 64 64">
<defs>
<filter id="filter-remove-color" x="0%" y="0%" width="100%" height="100%">
<feColorMatrix color-interpolation-filters="sRGB" values="0 0 0 0 1 0 0 0 0 1 0 0 0 0 1 0 0 0 1 0" />
</filter>
<mask id="mask-0">
<g filter="url(#filter-remove-color)">
<rect x="-6.4" y="-6.4" width="76.8" height="76.8" fill="rgb(0%, 0%, 0%)" fill-opacity="0.15"/>
</g>
</mask>
<linearGradient id="linear-pattern-0" gradientUnits="userSpaceOnUse" x1="32" y1="13" x2="32" y2="9" gradientTransform="matrix(0.26458, 0, 0, 0.26458, 0, 0)">
<stop offset="0" stop-color="rgb(0%, 0%, 0%)" stop-opacity="1"/>
<stop offset="1" stop-color="rgb(0%, 0%, 0%)" stop-opacity="0"/>
</linearGradient>
<clipPath id="clip-0">
<rect x="0" y="0" width="17" height="17"/>
</clipPath>
<g id="source-16967" clip-path="url(#clip-0)">
<path fill-rule="nonzero" fill="url(#linear-pattern-0)" d="M 8.464844 1.851562 C 7.042969 1.855469 5.660156 2.320312 4.523438 3.175781 L 12.417969 3.175781 C 11.277344 2.320312 9.890625 1.855469 8.464844 1.851562 Z M 8.464844 1.851562 "/>
</g>
<mask id="mask-1">
<g filter="url(#filter-remove-color)">
<rect x="-6.4" y="-6.4" width="76.8" height="76.8" fill="rgb(0%, 0%, 0%)" fill-opacity="0.25"/>
</g>
</mask>
<clipPath id="clip-1">
<rect x="0" y="0" width="17" height="17"/>
</clipPath>
<g id="source-16972" clip-path="url(#clip-1)">
<path fill-rule="nonzero" fill="rgb(0%, 0%, 0%)" fill-opacity="1" d="M 9.523438 4.761719 L 12.964844 4.761719 C 13.109375 4.761719 13.230469 4.878906 13.230469 5.027344 C 13.230469 5.171875 13.109375 5.289062 12.964844 5.289062 L 9.523438 5.289062 C 9.378906 5.289062 9.261719 5.171875 9.261719 5.027344 C 9.261719 4.878906 9.378906 4.761719 9.523438 4.761719 Z M 9.523438 4.761719 "/>
</g>
<mask id="mask-2">
<g filter="url(#filter-remove-color)">
<rect x="-6.4" y="-6.4" width="76.8" height="76.8" fill="rgb(0%, 0%, 0%)" fill-opacity="0.15"/>
</g>
</mask>
<linearGradient id="linear-pattern-1" gradientUnits="userSpaceOnUse" x1="30" y1="44" x2="57" y2="44" gradientTransform="matrix(0.26458, 0, 0, 0.26458, 0, 0)">
<stop offset="0" stop-color="rgb(0%, 0%, 0%)" stop-opacity="1"/>
<stop offset="1" stop-color="rgb(0%, 0%, 0%)" stop-opacity="0"/>
</linearGradient>
<clipPath id="clip-2">
<rect x="0" y="0" width="17" height="17"/>
</clipPath>
<g id="source-16976" clip-path="url(#clip-2)">
<path fill-rule="nonzero" fill="url(#linear-pattern-1)" d="M 15.609375 8.464844 L 8.464844 15.609375 C 12.410156 15.609375 15.609375 12.410156 15.609375 8.464844 Z M 15.609375 8.464844 "/>
</g>
<mask id="mask-3">
<g filter="url(#filter-remove-color)">
<rect x="-6.4" y="-6.4" width="76.8" height="76.8" fill="rgb(0%, 0%, 0%)" fill-opacity="0.15"/>
</g>
</mask>
<clipPath id="clip-3">
<rect x="0" y="0" width="17" height="17"/>
</clipPath>
<g id="source-16980" clip-path="url(#clip-3)">
<path fill-rule="nonzero" fill="rgb(0%, 0%, 0%)" fill-opacity="1" d="M 5.554688 6.085938 C 5.261719 6.085938 5.027344 6.324219 5.027344 6.617188 L 5.027344 7.410156 L 11.90625 7.410156 L 11.90625 6.617188 C 11.90625 6.324219 11.671875 6.085938 11.375 6.085938 Z M 5.820312 6.613281 C 5.96875 6.613281 6.085938 6.734375 6.085938 6.878906 C 6.085938 7.027344 5.96875 7.144531 5.820312 7.144531 C 5.675781 7.144531 5.554688 7.027344 5.554688 6.878906 C 5.554688 6.734375 5.675781 6.613281 5.820312 6.613281 Z M 5.027344 7.671875 L 5.027344 8.996094 L 11.90625 8.996094 L 11.90625 7.671875 Z M 5.820312 8.203125 C 5.96875 8.203125 6.085938 8.320312 6.085938 8.46875 C 6.085938 8.613281 5.96875 8.734375 5.820312 8.734375 C 5.675781 8.734375 5.554688 8.613281 5.554688 8.46875 C 5.554688 8.320312 5.675781 8.203125 5.820312 8.203125 Z M 5.027344 9.261719 L 5.027344 10.585938 L 11.90625 10.585938 L 11.90625 9.261719 Z M 5.820312 9.789062 C 5.96875 9.789062 6.085938 9.910156 6.085938 10.054688 C 6.085938 10.199219 5.96875 10.320312 5.820312 10.320312 C 5.675781 10.320312 5.554688 10.199219 5.554688 10.054688 C 5.554688 9.90625 5.675781 9.789062 5.820312 9.789062 Z M 5.027344 10.847656 L 5.027344 12.171875 L 11.90625 12.171875 L 11.90625 10.847656 Z M 5.820312 11.378906 C 5.96875 11.378906 6.085938 11.496094 6.085938 11.644531 C 6.085938 11.789062 5.96875 11.90625 5.820312 11.90625 C 5.675781 11.90625 5.554688 11.789062 5.554688 11.644531 C 5.554688 11.496094 5.675781 11.378906 5.820312 11.378906 Z M 5.027344 12.4375 L 5.027344 13.496094 C 5.027344 13.789062 5.261719 14.023438 5.554688 14.023438 L 11.375 14.023438 C 11.671875 14.023438 11.90625 13.789062 11.90625 13.496094 L 11.90625 12.4375 Z M 5.820312 12.964844 C 5.96875 12.964844 6.085938 13.082031 6.085938 13.230469 C 6.085938 13.375 5.96875 13.496094 5.820312 13.496094 C 5.675781 13.496094 5.554688 13.375 5.554688 13.230469 C 5.554688 13.082031 5.675781 12.964844 5.820312 12.964844 Z M 5.820312 12.964844 "/>
</g>
</defs>
<path fill-rule="nonzero" fill="rgb(20.784314%, 47.058824%, 78.039216%)" fill-opacity="1" d="M 15.082031 8.464844 C 15.082031 12.121094 12.121094 15.082031 8.464844 15.082031 C 4.8125 15.082031 1.851562 12.121094 1.851562 8.464844 C 1.851562 4.8125 4.8125 1.851562 8.464844 1.851562 C 12.121094 1.851562 15.082031 4.8125 15.082031 8.464844 Z M 15.082031 8.464844 "/>
<path fill-rule="nonzero" fill="rgb(100%, 100%, 100%)" fill-opacity="1" d="M 5.132812 3.703125 C 3.578125 4.792969 2.648438 6.570312 2.644531 8.464844 C 2.644531 11.679688 5.25 14.289062 8.464844 14.289062 C 11.679688 14.289062 14.289062 11.679688 14.289062 8.464844 C 14.285156 6.570312 13.359375 4.792969 11.808594 3.703125 Z M 5.132812 3.703125 "/>
<g mask="url(#mask-0)">
<use xlink:href="#source-16967"/>
</g>
<path fill-rule="nonzero" fill="rgb(32.156863%, 58.039216%, 88.627451%)" fill-opacity="1" d="M 8.464844 4.234375 C 8.175781 4.234375 8.085938 4.507812 7.9375 4.761719 L 7.628906 5.289062 L 2.078125 5.292969 C 1.582031 6.277344 1.324219 7.363281 1.324219 8.464844 C 1.324219 12.410156 4.519531 15.609375 8.464844 15.609375 C 12.410156 15.609375 15.609375 12.410156 15.609375 8.464844 C 15.605469 6.941406 15.117188 5.457031 14.210938 4.234375 Z M 8.464844 4.234375 "/>
<g mask="url(#mask-1)">
<use xlink:href="#source-16972"/>
</g>
<g mask="url(#mask-2)">
<use xlink:href="#source-16976"/>
</g>
<g mask="url(#mask-3)">
<use xlink:href="#source-16980"/>
</g>
</svg>
