<?xml version="1.0" encoding="UTF-8"?>
<svg xmlns="http://www.w3.org/2000/svg" xmlns:xlink="http://www.w3.org/1999/xlink" width="64" height="64" viewBox="0 0 64 64">
<path fill-rule="nonzero" fill="rgb(20%, 20%, 20%)" fill-opacity="1" d="M 15.609375 8.464844 C 15.609375 12.410156 12.410156 15.609375 8.464844 15.609375 C 4.519531 15.609375 1.324219 12.410156 1.324219 8.464844 C 1.324219 4.519531 4.519531 1.324219 8.464844 1.324219 C 12.410156 1.324219 15.609375 4.519531 15.609375 8.464844 Z M 15.609375 8.464844 "/>
<path fill-rule="nonzero" fill="rgb(92.156863%, 92.156863%, 92.156863%)" fill-opacity="1" d="M 12.277344 4.570312 L 12.277344 10.667969 C 12.277344 10.855469 12.125 11.007812 11.9375 11.007812 L 7.113281 11.007812 C 6.925781 11.007812 6.773438 10.855469 6.773438 10.667969 L 6.773438 4.570312 C 6.773438 4.386719 6.925781 4.234375 7.113281 4.234375 L 11.9375 4.234375 C 12.125 4.234375 12.277344 4.386719 12.277344 4.570312 Z M 12.277344 4.570312 "/>
<path fill-rule="nonzero" fill="rgb(24.705882%, 24.705882%, 24.705882%)" fill-opacity="1" d="M 9.523438 5.933594 C 9.070312 5.933594 8.703125 6.300781 8.703125 6.753906 C 8.703125 6.902344 8.742188 7.042969 8.816406 7.167969 C 8.382812 7.195312 8.042969 7.554688 8.042969 7.988281 C 8.042969 8.445312 8.410156 8.8125 8.867188 8.8125 C 9.125 8.8125 9.371094 8.691406 9.523438 8.484375 C 9.679688 8.691406 9.921875 8.8125 10.183594 8.8125 C 10.636719 8.8125 11.007812 8.445312 11.007812 7.988281 C 11.003906 7.554688 10.667969 7.195312 10.234375 7.167969 C 10.308594 7.042969 10.347656 6.902344 10.347656 6.753906 C 10.347656 6.300781 9.980469 5.933594 9.523438 5.933594 Z M 9.523438 5.933594 "/>
<path fill-rule="evenodd" fill="rgb(24.705882%, 24.705882%, 24.705882%)" fill-opacity="1" d="M 9.734375 8.464844 L 9.3125 8.464844 C 9.3125 8.464844 9.3125 9.101562 8.679688 9.101562 L 8.679688 9.3125 L 10.371094 9.3125 L 10.371094 9.101562 C 9.734375 9.101562 9.734375 8.464844 9.734375 8.464844 Z M 9.734375 8.464844 "/>
<path fill-rule="nonzero" fill="rgb(100%, 100%, 100%)" fill-opacity="1" d="M 10.160156 6.265625 L 10.160156 12.359375 C 10.160156 12.546875 10.007812 12.699219 9.820312 12.699219 L 4.996094 12.699219 C 4.808594 12.699219 4.65625 12.546875 4.65625 12.359375 L 4.65625 6.265625 C 4.65625 6.078125 4.808594 5.925781 4.996094 5.925781 L 9.820312 5.925781 C 10.007812 5.925781 10.160156 6.078125 10.160156 6.265625 Z M 10.160156 6.265625 "/>
<path fill-rule="nonzero" fill="rgb(95.294118%, 25.882353%, 20.784314%)" fill-opacity="1" d="M 8.054688 8.042969 C 7.792969 8.042969 7.5625 8.167969 7.40625 8.359375 C 7.25 8.160156 7.011719 8.042969 6.761719 8.042969 C 6.300781 8.042969 5.925781 8.417969 5.925781 8.875 C 5.925781 8.886719 5.929688 8.894531 5.929688 8.902344 L 5.925781 8.902344 C 5.925781 9.757812 7.40625 11.007812 7.40625 11.007812 C 7.40625 11.007812 8.890625 9.757812 8.890625 8.902344 L 8.886719 8.902344 C 8.886719 8.894531 8.890625 8.886719 8.890625 8.875 C 8.890625 8.417969 8.515625 8.042969 8.054688 8.042969 Z M 8.054688 8.042969 "/>
</svg>
