<?xml version="1.0" encoding="UTF-8"?>
<svg xmlns="http://www.w3.org/2000/svg" xmlns:xlink="http://www.w3.org/1999/xlink" width="64" height="64" viewBox="0 0 64 64">
<path fill-rule="nonzero" fill="rgb(98.039216%, 82.352941%, 35.294118%)" fill-opacity="1" d="M 32 5 C 46.910156 5 59 17.085938 59 32 C 59 46.910156 46.910156 59 32 59 C 17.085938 59 5 46.910156 5 32 C 5 17.085938 17.085938 5 32 5 Z M 32 5 "/>
<path fill-rule="nonzero" fill="rgb(96.862745%, 90.980392%, 69.411765%)" fill-opacity="1" d="M 32 16.152344 C 22.273438 16.152344 14.390625 24.035156 14.390625 33.761719 C 14.394531 34.050781 14.402344 34.34375 14.421875 34.636719 L 24.957031 38.464844 C 24.960938 42.351562 28.113281 45.5 32 45.5 C 35.890625 45.5 39.042969 42.34375 39.042969 38.457031 L 49.566406 34.582031 C 49.585938 34.308594 49.601562 34.035156 49.609375 33.761719 C 49.609375 24.035156 41.722656 16.152344 32 16.152344 Z M 32 16.152344 "/>
<path fill-rule="evenodd" fill="rgb(39.607843%, 59.607843%, 38.431373%)" fill-opacity="1" d="M 34.707031 36.695312 C 34.320312 36.179688 33.800781 35.757812 33.183594 35.453125 C 31.226562 34.488281 29.007812 35.179688 28.1875 37.03125 C 27.371094 38.882812 28.285156 41.171875 30.242188 42.136719 C 32.183594 43.097656 34.410156 42.382812 35.238281 40.558594 C 37.257812 35.964844 39.289062 31.363281 41.316406 26.765625 C 43.273438 32.074219 42.566406 32.945312 38.335938 36.539062 C 45.972656 33.902344 45.597656 30.097656 41.171875 22.019531 C 38.96875 27.027344 36.6875 32.195312 34.707031 36.695312 "/>
</svg>
