<?xml version="1.0" encoding="UTF-8"?>
<svg xmlns="http://www.w3.org/2000/svg" xmlns:xlink="http://www.w3.org/1999/xlink" width="64" height="64" viewBox="0 0 64 64">
<defs>
<filter id="filter-remove-color" x="0%" y="0%" width="100%" height="100%">
<feColorMatrix color-interpolation-filters="sRGB" values="0 0 0 0 1 0 0 0 0 1 0 0 0 0 1 0 0 0 1 0" />
</filter>
<mask id="mask-0">
<g filter="url(#filter-remove-color)">
<rect x="-6.4" y="-6.4" width="76.8" height="76.8" fill="rgb(0%, 0%, 0%)" fill-opacity="0.15"/>
</g>
</mask>
<clipPath id="clip-0">
<rect x="0" y="0" width="17" height="17"/>
</clipPath>
<g id="source-10002" clip-path="url(#clip-0)">
<path fill-rule="nonzero" fill="rgb(100%, 100%, 100%)" fill-opacity="1" d="M 14.289062 8.464844 C 14.289062 11.679688 11.683594 14.285156 8.46875 14.285156 C 5.253906 14.285156 2.644531 11.679688 2.644531 8.464844 C 2.644531 5.25 5.253906 2.644531 8.46875 2.644531 C 11.683594 2.644531 14.289062 5.25 14.289062 8.464844 Z M 14.289062 8.464844 "/>
</g>
<mask id="mask-1">
<g filter="url(#filter-remove-color)">
<rect x="-6.4" y="-6.4" width="76.8" height="76.8" fill="rgb(0%, 0%, 0%)" fill-opacity="0.5"/>
</g>
</mask>
<clipPath id="clip-1">
<rect x="0" y="0" width="17" height="17"/>
</clipPath>
<g id="source-10008" clip-path="url(#clip-1)">
<path fill-rule="nonzero" fill="rgb(100%, 100%, 100%)" fill-opacity="1" d="M 7.378906 7.753906 C 7.269531 7.898438 7.035156 8.011719 6.648438 8.179688 C 7.089844 8.085938 7.082031 8.175781 7.097656 8.3125 C 7.222656 8.144531 7.316406 7.957031 7.378906 7.753906 Z M 6.449219 8.257812 C 6.039062 8.378906 5.859375 8.40625 5.6875 8.355469 C 5.773438 8.515625 5.910156 8.648438 6.074219 8.722656 C 6.007812 8.589844 6.007812 8.464844 6.449219 8.257812 Z M 6.449219 8.257812 "/>
</g>
</defs>
<path fill-rule="nonzero" fill="rgb(97.254902%, 54.901961%, 8.627451%)" fill-opacity="1" d="M 15.609375 8.464844 C 15.609375 12.410156 12.410156 15.609375 8.464844 15.609375 C 4.519531 15.609375 1.324219 12.410156 1.324219 8.464844 C 1.324219 4.519531 4.519531 1.324219 8.464844 1.324219 C 12.410156 1.324219 15.609375 4.519531 15.609375 8.464844 Z M 15.609375 8.464844 "/>
<g mask="url(#mask-0)">
<use xlink:href="#source-10002"/>
</g>
<path fill-rule="evenodd" fill="rgb(100%, 100%, 100%)" fill-opacity="1" d="M 6.839844 4.445312 C 6.664062 4.441406 6.488281 4.464844 6.316406 4.507812 C 5.855469 4.628906 5.414062 4.910156 5.097656 5.289062 C 4.785156 5.667969 4.597656 6.148438 4.65625 6.660156 C 4.722656 7.535156 5.132812 8.972656 5.644531 10.203125 C 5.898438 10.816406 6.179688 11.378906 6.460938 11.792969 C 6.601562 12 6.738281 12.167969 6.878906 12.289062 C 7.015625 12.40625 7.15625 12.480469 7.304688 12.476562 C 7.542969 12.511719 7.785156 12.441406 7.96875 12.285156 C 8.160156 12.132812 8.328125 11.917969 8.480469 11.679688 C 8.78125 11.214844 9.050781 10.625 9.359375 10.277344 C 9.390625 10.3125 9.429688 10.421875 9.480469 10.511719 C 9.574219 10.691406 9.699219 10.949219 9.859375 11.214844 C 10.019531 11.480469 10.214844 11.734375 10.464844 11.945312 C 10.710938 12.152344 11.011719 12.285156 11.367188 12.285156 C 11.582031 12.300781 11.796875 12.289062 11.972656 12.199219 C 12.144531 12.113281 12.277344 11.972656 12.285156 11.753906 C 12.289062 11.597656 12.207031 11.457031 12.074219 11.382812 C 11.953125 11.304688 11.804688 11.253906 11.648438 11.171875 C 11.335938 11.011719 10.984375 10.75 10.773438 9.984375 C 10.605469 9.375 10.382812 8.921875 10.148438 8.617188 C 9.914062 8.3125 9.726562 8.039062 9.425781 8.074219 C 8.90625 8.132812 8.660156 8.878906 8.414062 9.277344 C 8.261719 9.519531 8.117188 9.761719 7.992188 9.953125 C 7.894531 10.113281 7.816406 10.199219 7.757812 10.257812 C 7.566406 10.054688 7.453125 9.832031 7.472656 9.570312 C 7.496094 9.277344 7.664062 8.941406 7.820312 8.582031 C 8.128906 7.871094 8.523438 7.066406 8.445312 6.273438 C 8.386719 5.695312 8.082031 5.042969 7.65625 4.710938 C 7.464844 4.574219 7.246094 4.488281 7.015625 4.460938 C 6.957031 4.453125 6.898438 4.449219 6.84375 4.445312 Z M 6.800781 5.429688 C 7.101562 5.546875 7.335938 5.804688 7.4375 6.003906 C 7.238281 5.882812 7.023438 5.792969 6.796875 5.734375 C 6.601562 5.800781 6.421875 5.902344 6.265625 6.039062 C 6.351562 5.769531 6.542969 5.546875 6.800781 5.429688 Z M 5.632812 5.886719 C 5.878906 5.890625 6.113281 5.957031 6.265625 6.039062 C 6 6.046875 5.75 6.085938 5.574219 6.148438 C 5.464844 6.28125 5.367188 6.449219 5.320312 6.652344 C 5.226562 6.386719 5.25 6.132812 5.390625 5.90625 C 5.46875 5.890625 5.554688 5.886719 5.632812 5.886719 Z M 6.753906 6.03125 C 7.015625 6.007812 7.238281 6.339844 7.257812 6.777344 C 7.265625 6.964844 7.230469 7.105469 7.171875 7.246094 C 6.933594 7.253906 6.695312 7.289062 6.464844 7.359375 C 6.453125 7.339844 6.4375 7.316406 6.421875 7.292969 C 6.421875 7.320312 6.417969 7.351562 6.410156 7.378906 C 6.179688 7.453125 5.980469 7.589844 5.820312 7.710938 C 5.707031 7.589844 5.621094 7.394531 5.59375 7.164062 C 5.550781 6.765625 5.695312 6.359375 5.925781 6.335938 C 6.074219 6.320312 6.21875 6.511719 6.316406 6.710938 C 6.34375 6.34375 6.523438 6.054688 6.753906 6.03125 Z M 7.4375 7.417969 C 7.429688 8.046875 6.808594 8.796875 6.429688 8.792969 C 5.894531 8.789062 5.714844 8.425781 5.597656 8.175781 C 6.199219 8.035156 6.964844 7.695312 7.4375 7.417969 Z M 7.4375 7.417969 "/>
<path fill-rule="nonzero" fill="rgb(100%, 100%, 100%)" fill-opacity="1" d="M 6.21875 7.054688 C 6.21875 7.183594 6.140625 7.285156 6.050781 7.285156 C 5.957031 7.285156 5.882812 7.183594 5.882812 7.054688 C 5.882812 6.925781 5.957031 6.824219 6.050781 6.824219 C 6.140625 6.824219 6.21875 6.925781 6.21875 7.054688 Z M 6.9375 6.882812 C 6.9375 7.011719 6.859375 7.113281 6.769531 7.113281 C 6.675781 7.113281 6.601562 7.011719 6.601562 6.882812 C 6.601562 6.753906 6.675781 6.652344 6.769531 6.652344 C 6.859375 6.652344 6.9375 6.753906 6.9375 6.882812 Z M 6.9375 6.882812 "/>
<g mask="url(#mask-1)">
<use xlink:href="#source-10008"/>
</g>
</svg>
