<?xml version="1.0" encoding="UTF-8"?>
<svg xmlns="http://www.w3.org/2000/svg" xmlns:xlink="http://www.w3.org/1999/xlink" width="64" height="64" viewBox="0 0 64 64">
<path fill-rule="nonzero" fill="rgb(30.196078%, 30.196078%, 30.196078%)" fill-opacity="1" d="M 15.609375 8.464844 C 15.609375 12.410156 12.410156 15.609375 8.464844 15.609375 C 4.519531 15.609375 1.324219 12.410156 1.324219 8.464844 C 1.324219 4.519531 4.519531 1.324219 8.464844 1.324219 C 12.410156 1.324219 15.609375 4.519531 15.609375 8.464844 Z M 15.609375 8.464844 "/>
<path fill-rule="nonzero" fill="rgb(60%, 60%, 60%)" fill-opacity="1" d="M 5.027344 3.128906 C 4.269531 3.621094 3.625 4.265625 3.136719 5.027344 L 4.761719 5.027344 C 4.910156 5.027344 5.027344 4.910156 5.027344 4.761719 Z M 5.027344 3.128906 "/>
<path fill-rule="nonzero" fill="rgb(100%, 100%, 100%)" fill-opacity="1" d="M 6.667969 2.382812 C 6.285156 2.492188 5.910156 2.640625 5.554688 2.824219 L 5.554688 4.761719 C 5.554688 4.910156 5.675781 5.027344 5.820312 5.027344 L 7.9375 5.027344 C 8.082031 5.027344 8.203125 4.910156 8.203125 4.761719 L 8.203125 2.644531 C 8.203125 2.5 8.082031 2.382812 7.9375 2.382812 Z M 6.667969 2.382812 "/>
<path fill-rule="nonzero" fill="rgb(100%, 34.117647%, 34.117647%)" fill-opacity="1" d="M 8.996094 2.382812 C 8.847656 2.382812 8.730469 2.5 8.730469 2.644531 L 8.730469 4.761719 C 8.730469 4.910156 8.847656 5.027344 8.996094 5.027344 L 11.113281 5.027344 C 11.257812 5.027344 11.378906 4.910156 11.378906 4.761719 L 11.378906 2.828125 C 11.023438 2.644531 10.652344 2.496094 10.269531 2.382812 Z M 8.996094 2.382812 "/>
<path fill-rule="nonzero" fill="rgb(100%, 100%, 100%)" fill-opacity="1" d="M 11.90625 3.136719 L 11.90625 4.761719 C 11.90625 4.910156 12.023438 5.027344 12.171875 5.027344 L 13.804688 5.027344 C 13.3125 4.269531 12.664062 3.625 11.90625 3.136719 Z M 11.90625 3.136719 "/>
<path fill-rule="nonzero" fill="rgb(100%, 100%, 100%)" fill-opacity="1" d="M 2.828125 5.554688 C 2.644531 5.910156 2.496094 6.28125 2.382812 6.664062 L 2.382812 7.9375 C 2.382812 8.082031 2.5 8.203125 2.644531 8.203125 L 4.761719 8.203125 C 4.910156 8.203125 5.027344 8.082031 5.027344 7.9375 L 5.027344 5.820312 C 5.027344 5.675781 4.910156 5.554688 4.761719 5.554688 Z M 2.828125 5.554688 "/>
<path fill-rule="nonzero" fill="rgb(100%, 100%, 100%)" fill-opacity="1" d="M 5.820312 5.554688 L 7.9375 5.554688 C 8.082031 5.554688 8.203125 5.675781 8.203125 5.820312 L 8.203125 7.9375 C 8.203125 8.082031 8.082031 8.203125 7.9375 8.203125 L 5.820312 8.203125 C 5.675781 8.203125 5.554688 8.082031 5.554688 7.9375 L 5.554688 5.820312 C 5.554688 5.675781 5.675781 5.554688 5.820312 5.554688 Z M 5.820312 5.554688 "/>
<path fill-rule="nonzero" fill="rgb(100%, 34.117647%, 34.117647%)" fill-opacity="1" d="M 8.996094 5.554688 L 11.113281 5.554688 C 11.257812 5.554688 11.378906 5.675781 11.378906 5.820312 L 11.378906 7.9375 C 11.378906 8.082031 11.257812 8.203125 11.113281 8.203125 L 8.996094 8.203125 C 8.851562 8.203125 8.730469 8.082031 8.730469 7.9375 L 8.730469 5.820312 C 8.730469 5.675781 8.851562 5.554688 8.996094 5.554688 Z M 8.996094 5.554688 "/>
<path fill-rule="nonzero" fill="rgb(100%, 100%, 100%)" fill-opacity="1" d="M 12.171875 5.554688 C 12.023438 5.554688 11.90625 5.675781 11.90625 5.820312 L 11.90625 7.9375 C 11.90625 8.082031 12.023438 8.203125 12.171875 8.203125 L 14.289062 8.203125 C 14.433594 8.203125 14.550781 8.082031 14.550781 7.9375 L 14.550781 6.667969 C 14.441406 6.285156 14.289062 5.910156 14.109375 5.554688 Z M 12.171875 5.554688 "/>
<path fill-rule="nonzero" fill="rgb(100%, 100%, 100%)" fill-opacity="1" d="M 2.644531 8.730469 C 2.5 8.730469 2.382812 8.847656 2.382812 8.996094 L 2.382812 10.265625 C 2.492188 10.648438 2.640625 11.019531 2.824219 11.375 L 4.761719 11.375 C 4.910156 11.375 5.027344 11.257812 5.027344 11.113281 L 5.027344 8.996094 C 5.027344 8.847656 4.910156 8.730469 4.761719 8.730469 Z M 2.644531 8.730469 "/>
<path fill-rule="nonzero" fill="rgb(60%, 60%, 60%)" fill-opacity="1" d="M 5.820312 8.730469 L 7.9375 8.730469 C 8.082031 8.730469 8.203125 8.851562 8.203125 8.996094 L 8.203125 11.113281 C 8.203125 11.257812 8.082031 11.378906 7.9375 11.378906 L 5.820312 11.378906 C 5.675781 11.378906 5.554688 11.257812 5.554688 11.113281 L 5.554688 8.996094 C 5.554688 8.851562 5.675781 8.730469 5.820312 8.730469 Z M 5.820312 8.730469 "/>
<path fill-rule="nonzero" fill="rgb(100%, 100%, 100%)" fill-opacity="1" d="M 8.996094 8.730469 L 11.113281 8.730469 C 11.257812 8.730469 11.378906 8.851562 11.378906 8.996094 L 11.378906 11.113281 C 11.378906 11.257812 11.257812 11.378906 11.113281 11.378906 L 8.996094 11.378906 C 8.851562 11.378906 8.730469 11.257812 8.730469 11.113281 L 8.730469 8.996094 C 8.730469 8.851562 8.851562 8.730469 8.996094 8.730469 Z M 8.996094 8.730469 "/>
<path fill-rule="nonzero" fill="rgb(29.019608%, 78.039216%, 24.313725%)" fill-opacity="1" d="M 12.171875 8.730469 C 12.023438 8.730469 11.90625 8.847656 11.90625 8.996094 L 11.90625 11.113281 C 11.90625 11.257812 12.023438 11.378906 12.171875 11.378906 L 14.105469 11.378906 C 14.289062 11.023438 14.4375 10.652344 14.550781 10.269531 L 14.550781 8.996094 C 14.550781 8.847656 14.433594 8.730469 14.289062 8.730469 Z M 12.171875 8.730469 "/>
<path fill-rule="nonzero" fill="rgb(100%, 100%, 100%)" fill-opacity="1" d="M 3.128906 11.90625 C 3.621094 12.664062 4.265625 13.308594 5.027344 13.796875 L 5.027344 12.171875 C 5.027344 12.023438 4.910156 11.90625 4.761719 11.90625 Z M 3.128906 11.90625 "/>
<path fill-rule="nonzero" fill="rgb(100%, 100%, 100%)" fill-opacity="1" d="M 5.820312 11.90625 C 5.675781 11.90625 5.554688 12.023438 5.554688 12.171875 L 5.554688 14.105469 C 5.910156 14.289062 6.28125 14.4375 6.664062 14.550781 L 7.9375 14.550781 C 8.082031 14.550781 8.203125 14.433594 8.203125 14.289062 L 8.203125 12.171875 C 8.203125 12.023438 8.082031 11.90625 7.9375 11.90625 Z M 5.820312 11.90625 "/>
<path fill-rule="nonzero" fill="rgb(100%, 100%, 100%)" fill-opacity="1" d="M 8.996094 11.90625 C 8.847656 11.90625 8.730469 12.023438 8.730469 12.171875 L 8.730469 14.289062 C 8.730469 14.433594 8.847656 14.550781 8.996094 14.550781 L 10.265625 14.550781 C 10.648438 14.441406 11.019531 14.289062 11.375 14.109375 L 11.375 12.171875 C 11.375 12.023438 11.257812 11.90625 11.113281 11.90625 Z M 8.996094 11.90625 "/>
<path fill-rule="nonzero" fill="rgb(100%, 100%, 100%)" fill-opacity="1" d="M 12.171875 11.90625 C 12.023438 11.90625 11.90625 12.023438 11.90625 12.171875 L 11.90625 13.804688 C 12.664062 13.3125 13.308594 12.664062 13.796875 11.90625 Z M 12.171875 11.90625 "/>
</svg>
