<?xml version="1.0" encoding="UTF-8"?>
<svg xmlns="http://www.w3.org/2000/svg" xmlns:xlink="http://www.w3.org/1999/xlink" width="64" height="64" viewBox="0 0 64 64">
<path fill-rule="nonzero" fill="rgb(94.117647%, 73.333333%, 14.117647%)" fill-opacity="1" d="M 15.609375 8.464844 C 15.609375 4.519531 12.410156 1.324219 8.464844 1.324219 C 4.519531 1.324219 1.324219 4.519531 1.324219 8.464844 C 1.324219 12.410156 4.519531 15.609375 8.464844 15.609375 C 12.410156 15.609375 15.609375 12.410156 15.609375 8.464844 Z M 15.609375 8.464844 "/>
<path fill-rule="nonzero" fill="rgb(97.647059%, 97.647059%, 97.647059%)" fill-opacity="1" d="M 6.945312 4.230469 C 6.363281 4.230469 5.886719 4.703125 5.886719 5.289062 C 5.886719 5.875 6.363281 6.347656 6.945312 6.347656 C 7.53125 6.347656 8.003906 5.875 8.003906 5.289062 C 8.003906 4.703125 7.53125 4.230469 6.945312 4.230469 Z M 6.109375 6.648438 C 5.941406 6.648438 5.847656 6.753906 5.78125 6.910156 L 4.722656 9.085938 C 4.488281 9.613281 5.292969 9.949219 5.503906 9.414062 C 5.625 9.09375 5.753906 8.773438 5.898438 8.464844 L 5.898438 12.273438 C 5.898438 12.507812 6.085938 12.695312 6.320312 12.695312 C 6.558594 12.695312 6.808594 12.507812 6.804688 12.273438 L 6.804688 10.277344 L 7.097656 10.277344 L 7.097656 12.273438 C 7.097656 12.507812 7.359375 12.695312 7.59375 12.695312 C 7.703125 12.695312 7.8125 12.652344 7.890625 12.574219 C 7.972656 12.492188 8.015625 12.386719 8.015625 12.273438 L 8.015625 8.464844 L 7.996094 8.464844 L 8.472656 9.414062 C 8.566406 9.652344 8.851562 9.753906 9.074219 9.625 L 9.84375 10.074219 C 9.839844 10.101562 9.828125 10.128906 9.828125 10.15625 L 9.828125 12.484375 C 9.828125 12.601562 10.003906 12.695312 10.121094 12.695312 C 10.238281 12.695312 10.441406 12.601562 10.425781 12.484375 L 10.425781 11.488281 L 10.726562 11.488281 L 10.726562 12.484375 C 10.726562 12.601562 10.910156 12.695312 11.027344 12.695312 C 11.144531 12.695312 11.34375 12.601562 11.34375 12.484375 L 11.34375 10.367188 L 11.886719 10.820312 C 12.085938 11.027344 12.394531 10.71875 12.1875 10.519531 L 11.28125 9.734375 C 11.238281 9.695312 11.1875 9.671875 11.128906 9.671875 L 10.097656 9.671875 L 9.289062 9.257812 C 9.289062 9.199219 9.277344 9.140625 9.253906 9.085938 L 8.191406 6.910156 C 8.128906 6.753906 7.972656 6.652344 7.804688 6.648438 Z M 6.109375 6.648438 "/>
<path fill-rule="nonzero" fill="rgb(97.647059%, 97.647059%, 97.647059%)" fill-opacity="1" d="M 10.574219 7.859375 C 10.15625 7.859375 9.820312 8.199219 9.820312 8.613281 C 9.820312 9.03125 10.160156 9.371094 10.574219 9.371094 C 10.992188 9.371094 11.332031 9.03125 11.332031 8.613281 C 11.328125 8.199219 10.992188 7.859375 10.574219 7.859375 Z M 10.574219 7.859375 "/>
</svg>
