<?xml version="1.0" encoding="UTF-8"?>
<svg xmlns="http://www.w3.org/2000/svg" xmlns:xlink="http://www.w3.org/1999/xlink" width="64" height="64" viewBox="0 0 64 64">
<path fill-rule="nonzero" fill="rgb(0%, 26.666667%, 66.666667%)" fill-opacity="1" d="M 8.378906 1.324219 C 10.953125 1.292969 13.34375 2.648438 14.640625 4.871094 C 15.933594 7.09375 15.933594 9.839844 14.640625 12.0625 C 13.34375 14.285156 10.953125 15.640625 8.378906 15.609375 C 4.46875 15.5625 1.324219 12.378906 1.324219 8.464844 C 1.324219 4.554688 4.46875 1.371094 8.378906 1.324219 Z M 8.378906 1.324219 "/>
<path fill-rule="nonzero" fill="rgb(97.647059%, 97.647059%, 97.647059%)" fill-opacity="1" d="M 2.136719 5.171875 L 2.058594 5.316406 C 2.441406 5.53125 3.535156 6.078125 4.058594 6.40625 C 4.714844 6.808594 5.605469 7.632812 5.675781 7.769531 C 4.988281 8.960938 5.300781 10.011719 5.21875 10.125 C 5.160156 10.21875 4.625 10.808594 4.796875 10.898438 C 4.96875 10.984375 5.242188 10.847656 5.28125 10.820312 C 5.367188 10.769531 5.457031 10.691406 5.417969 10.84375 C 5.347656 11.15625 5.019531 11.902344 5.472656 11.742188 C 5.527344 11.710938 6.261719 10.902344 6.351562 10.875 C 7.808594 11.253906 9.4375 11.082031 9.742188 10.9375 C 9.898438 10.949219 10.34375 11.230469 10.597656 11.363281 C 10.851562 11.496094 11.542969 11.828125 11.335938 11.222656 C 11.273438 11.035156 10.820312 10.550781 10.894531 10.515625 C 11.054688 10.453125 11.457031 10.683594 11.613281 10.726562 C 12.074219 10.859375 12.136719 10.679688 11.84375 10.28125 C 11.554688 9.886719 11.511719 9.949219 11.421875 9.765625 C 11.351562 9.621094 11.421875 9.457031 11.472656 9.417969 C 11.566406 9.347656 12.949219 8.582031 13.269531 8.289062 C 13.75 7.851562 13.269531 7.308594 13.152344 7.230469 C 12.160156 6.515625 11.140625 6.667969 11.125 6.554688 C 11.117188 6.425781 11.121094 6.050781 11.105469 5.921875 C 11.003906 5.046875 10.597656 5.265625 10.542969 5.265625 C 10.140625 5.328125 10.289062 5.949219 10.460938 6.535156 C 10.472656 6.683594 10.316406 6.617188 10.226562 6.460938 C 9.914062 5.625 9.785156 5.636719 9.699219 5.613281 C 9.613281 5.59375 9.320312 5.773438 9.328125 6.113281 C 9.328125 6.207031 9.441406 6.667969 9.441406 6.808594 C 9.253906 6.976562 9.242188 7.355469 9.042969 7.496094 C 8.457031 7.617188 7.050781 7.207031 6.875 7.1875 C 6.269531 7.074219 6.003906 7.53125 5.90625 7.421875 C 5.117188 6.515625 3.910156 5.847656 3.390625 5.730469 C 3.1875 5.6875 2.507812 5.386719 2.257812 5.234375 C 2.21875 5.210938 2.175781 5.191406 2.132812 5.171875 M 12.972656 5.960938 C 12.785156 6.167969 12.816406 6.929688 12.855469 6.925781 C 13.050781 6.886719 13.03125 5.902344 12.972656 5.960938 M 13.523438 6.078125 C 13.503906 6.015625 13.003906 6.71875 13.089844 6.976562 C 13.128906 7.089844 13.59375 6.273438 13.523438 6.078125 M 10.925781 7.273438 C 10.929688 7.265625 10.941406 7.277344 10.945312 7.285156 C 11.003906 7.476562 11.070312 7.660156 11.453125 7.707031 C 11.5 7.710938 11.242188 7.863281 11.0625 7.769531 C 10.902344 7.671875 10.886719 7.316406 10.925781 7.273438 M 11.917969 8.242188 C 11.945312 8.238281 11.976562 8.238281 12.003906 8.242188 C 12.097656 8.269531 11.324219 8.671875 11.265625 8.617188 C 11.226562 8.582031 11.675781 8.289062 11.917969 8.242188 M 12.121094 8.5 C 12.203125 8.503906 11.671875 9.054688 11.613281 8.996094 C 11.570312 8.957031 11.957031 8.488281 12.121094 8.5 "/>
</svg>
