<?xml version="1.0" encoding="UTF-8"?>
<svg xmlns="http://www.w3.org/2000/svg" xmlns:xlink="http://www.w3.org/1999/xlink" width="64" height="64" viewBox="0 0 64 64">
<path fill-rule="nonzero" fill="rgb(38.431373%, 67.45098%, 95.294118%)" fill-opacity="1" d="M 8.464844 1.324219 C 4.519531 1.324219 1.324219 4.519531 1.324219 8.464844 C 1.324219 9.378906 1.5 10.28125 1.839844 11.125 C 4.894531 14.917969 9.574219 15.613281 14.5625 12.175781 C 15.246094 11.058594 15.605469 9.777344 15.609375 8.464844 C 15.609375 4.519531 12.410156 1.324219 8.464844 1.324219 Z M 8.464844 1.324219 "/>
<path fill-rule="nonzero" fill="rgb(100%, 100%, 100%)" fill-opacity="1" d="M 12.964844 5.820312 C 12.964844 6.257812 12.609375 6.613281 12.171875 6.613281 C 11.734375 6.613281 11.378906 6.257812 11.378906 5.820312 C 11.378906 5.382812 11.734375 5.027344 12.171875 5.027344 C 12.609375 5.027344 12.964844 5.382812 12.964844 5.820312 Z M 12.964844 5.820312 "/>
<path fill-rule="nonzero" fill="rgb(100%, 100%, 100%)" fill-opacity="1" d="M 10.054688 7.671875 L 4.636719 13.089844 C 4.574219 13 4.582031 12.878906 4.660156 12.800781 L 6.21875 11.242188 L 3.96875 8.992188 L 1.839844 11.125 C 2.925781 13.832031 5.546875 15.609375 8.464844 15.609375 C 10.957031 15.605469 13.265625 14.304688 14.5625 12.175781 Z M 10.054688 7.671875 "/>
</svg>
