<?xml version="1.0" encoding="UTF-8"?>
<svg xmlns="http://www.w3.org/2000/svg" xmlns:xlink="http://www.w3.org/1999/xlink" width="64" height="64" viewBox="0 0 64 64">
<path fill-rule="nonzero" fill="rgb(70.196078%, 70.196078%, 70.196078%)" fill-opacity="1" d="M 15.519531 7.320312 C 5.171875 2.441406 10.34375 4.878906 15.519531 7.320312 Z M 15.519531 7.320312 L 9.613281 1.414062 C 12.648438 1.898438 15.03125 4.285156 15.519531 7.320312 Z M 15.519531 7.320312 "/>
<path fill-rule="nonzero" fill="rgb(94.901961%, 94.901961%, 94.901961%)" fill-opacity="1" d="M 8.464844 15.609375 C 4.507812 15.609375 1.324219 12.425781 1.324219 8.464844 C 1.324219 4.507812 4.507812 1.324219 8.464844 1.324219 C 8.855469 1.324219 9.238281 1.355469 9.613281 1.414062 L 15.519531 7.320312 C 15.578125 7.695312 15.609375 8.078125 15.609375 8.464844 C 15.609375 12.425781 12.425781 15.609375 8.46875 15.609375 Z M 8.464844 15.609375 "/>
<path fill-rule="nonzero" fill="rgb(100%, 100%, 100%)" fill-opacity="1" d="M 9.613281 1.414062 L 15.519531 7.320312 C 12.480469 6.835938 10.097656 4.449219 9.613281 1.414062 Z M 9.613281 1.414062 "/>
<path fill-rule="nonzero" fill="rgb(89.411765%, 42.745098%, 42.745098%)" fill-opacity="1" d="M 13.125 8.21875 C 11.839844 6.835938 10.246094 5.820312 8.460938 5.820312 C 6.675781 5.820312 4.980469 6.980469 3.804688 8.21875 C 3.667969 8.375 3.667969 8.558594 3.804688 8.714844 C 5.078125 10.078125 6.644531 11.113281 8.460938 11.113281 C 10.277344 11.113281 11.957031 9.960938 13.128906 8.714844 C 13.261719 8.558594 13.261719 8.375 13.128906 8.21875 "/>
<path fill-rule="nonzero" fill="rgb(31.372549%, 70.588235%, 92.54902%)" fill-opacity="1" d="M 10.578125 8.464844 C 10.578125 9.636719 9.628906 10.582031 8.460938 10.582031 C 7.289062 10.582031 6.34375 9.636719 6.34375 8.464844 C 6.34375 7.296875 7.289062 6.351562 8.460938 6.351562 C 9.628906 6.351562 10.578125 7.296875 10.578125 8.464844 Z M 10.578125 8.464844 "/>
<path fill-rule="nonzero" fill="rgb(32.156863%, 32.156863%, 32.156863%)" fill-opacity="1" d="M 9.519531 8.464844 C 9.519531 9.050781 9.042969 9.523438 8.460938 9.523438 C 7.875 9.523438 7.402344 9.050781 7.402344 8.464844 C 7.402344 7.882812 7.875 7.410156 8.460938 7.410156 C 9.042969 7.410156 9.519531 7.882812 9.519531 8.464844 Z M 9.519531 8.464844 "/>
</svg>
