<?xml version="1.0" encoding="UTF-8"?>
<svg xmlns="http://www.w3.org/2000/svg" xmlns:xlink="http://www.w3.org/1999/xlink" width="64" height="64" viewBox="0 0 64 64">
<path fill-rule="nonzero" fill="rgb(18.431373%, 55.294118%, 86.666667%)" fill-opacity="1" d="M 8.464844 1.320312 C 4.519531 1.320312 1.324219 4.519531 1.324219 8.464844 C 1.324219 12.410156 4.519531 15.609375 8.464844 15.609375 C 12.410156 15.609375 15.609375 12.410156 15.609375 8.464844 C 15.609375 4.519531 12.410156 1.320312 8.464844 1.320312 Z M 8.464844 1.320312 "/>
<path fill-rule="evenodd" fill="rgb(100%, 72.941176%, 14.117647%)" fill-opacity="1" d="M 6.449219 1.617188 C 3.410156 2.511719 1.324219 5.300781 1.324219 8.464844 C 1.324219 10.519531 2.210938 12.472656 3.753906 13.828125 C 4.644531 14.179688 5.585938 14.382812 6.53125 14.371094 C 8.113281 14.34375 9.699219 13.6875 10.957031 12.121094 C 11.625 11.285156 11.722656 10.285156 11.507812 9.414062 C 11.292969 8.542969 10.78125 7.789062 10.167969 7.433594 L 10.15625 7.433594 C 9.722656 7.230469 9.214844 7.242188 8.792969 7.472656 C 8.429688 7.667969 8.183594 7.972656 8.105469 8.269531 L 8.03125 8.515625 C 7.972656 8.515625 7.914062 8.503906 7.859375 8.492188 C 7.578125 8.441406 7.371094 8.324219 7.304688 8.113281 C 7.222656 7.449219 7.394531 6.910156 7.734375 6.5 C 8.082031 6.085938 8.605469 5.808594 9.234375 5.738281 C 10.300781 5.621094 11.246094 6.09375 11.964844 6.859375 C 12.683594 7.621094 13.15625 8.683594 13.242188 9.699219 C 13.425781 11.835938 12.222656 13.992188 10.503906 15.304688 C 13.53125 14.40625 15.609375 11.625 15.609375 8.464844 C 15.609375 6.425781 14.734375 4.488281 13.210938 3.132812 C 12.3125 2.773438 11.359375 2.566406 10.402344 2.578125 C 8.820312 2.601562 7.234375 3.257812 5.976562 4.828125 C 5.308594 5.664062 5.207031 6.664062 5.425781 7.535156 C 5.640625 8.402344 6.148438 9.148438 6.765625 9.5 L 6.777344 9.511719 C 7.277344 9.742188 7.777344 9.671875 8.140625 9.476562 C 8.503906 9.277344 8.75 8.976562 8.828125 8.675781 L 8.902344 8.417969 C 8.960938 8.417969 9.015625 8.425781 9.074219 8.429688 C 9.214844 8.449219 9.347656 8.484375 9.445312 8.542969 C 9.527344 8.585938 9.59375 8.660156 9.628906 8.75 C 9.628906 8.753906 9.628906 8.761719 9.628906 8.761719 C 9.804688 10.101562 8.945312 11.058594 7.699219 11.195312 C 6.628906 11.3125 5.6875 10.855469 4.96875 10.089844 C 4.25 9.328125 3.777344 8.265625 3.691406 7.25 C 3.507812 5.101562 4.71875 2.929688 6.449219 1.617188 Z M 6.449219 1.617188 "/>
</svg>
