<?xml version="1.0" encoding="UTF-8"?>
<svg xmlns="http://www.w3.org/2000/svg" xmlns:xlink="http://www.w3.org/1999/xlink" width="64" height="64" viewBox="0 0 64 64">
<path fill-rule="nonzero" fill="rgb(95.686275%, 47.058824%, 18.039216%)" fill-opacity="1" d="M 15.609375 8.464844 C 15.609375 12.410156 12.410156 15.609375 8.464844 15.609375 C 4.519531 15.609375 1.324219 12.410156 1.324219 8.464844 C 1.324219 4.519531 4.519531 1.324219 8.464844 1.324219 C 12.410156 1.324219 15.609375 4.519531 15.609375 8.464844 Z M 15.609375 8.464844 "/>
<path fill-rule="nonzero" fill="rgb(100%, 100%, 100%)" fill-opacity="1" d="M 4.546875 11.558594 C 4.546875 11.316406 4.632812 11.113281 4.800781 10.945312 C 4.964844 10.78125 5.1875 10.691406 5.417969 10.695312 C 5.65625 10.695312 5.855469 10.777344 6.023438 10.945312 C 6.191406 11.113281 6.273438 11.316406 6.273438 11.5625 C 6.277344 11.789062 6.1875 12.011719 6.023438 12.171875 C 5.863281 12.332031 5.644531 12.421875 5.417969 12.417969 C 5.1875 12.421875 4.964844 12.332031 4.800781 12.171875 C 4.636719 12.011719 4.542969 11.789062 4.546875 11.558594 M 4.496094 7.648438 L 4.496094 9.089844 C 6.34375 9.089844 7.835938 10.585938 7.835938 12.433594 L 9.28125 12.433594 C 9.28125 9.789062 7.140625 7.648438 4.496094 7.648438 Z M 4.5 4.496094 L 4.5 6.089844 C 8 6.089844 10.835938 8.929688 10.835938 12.429688 L 12.4375 12.429688 C 12.433594 8.046875 8.882812 4.496094 4.5 4.496094 Z M 4.5 4.496094 "/>
</svg>
