<?xml version="1.0" encoding="UTF-8"?>
<svg xmlns="http://www.w3.org/2000/svg" xmlns:xlink="http://www.w3.org/1999/xlink" width="64" height="64" viewBox="0 0 64 64">
<defs>
<filter id="filter-remove-color" x="0%" y="0%" width="100%" height="100%">
<feColorMatrix color-interpolation-filters="sRGB" values="0 0 0 0 1 0 0 0 0 1 0 0 0 0 1 0 0 0 1 0" />
</filter>
<mask id="mask-0">
<g filter="url(#filter-remove-color)">
<rect x="-6.4" y="-6.4" width="76.8" height="76.8" fill="rgb(0%, 0%, 0%)" fill-opacity="0.15"/>
</g>
</mask>
<clipPath id="clip-0">
<rect x="0" y="0" width="17" height="17"/>
</clipPath>
<g id="source-1475" clip-path="url(#clip-0)">
<path fill-rule="nonzero" fill="rgb(100%, 100%, 100%)" fill-opacity="1" d="M 14.289062 8.460938 C 14.289062 11.675781 11.683594 14.28125 8.46875 14.28125 C 5.253906 14.28125 2.644531 11.675781 2.644531 8.460938 C 2.644531 5.246094 5.253906 2.640625 8.46875 2.640625 C 11.683594 2.640625 14.289062 5.246094 14.289062 8.460938 Z M 14.289062 8.460938 "/>
</g>
<mask id="mask-1">
<g filter="url(#filter-remove-color)">
<rect x="-6.4" y="-6.4" width="76.8" height="76.8" fill="rgb(0%, 0%, 0%)" fill-opacity="0.6"/>
</g>
</mask>
<clipPath id="clip-1">
<rect x="0" y="0" width="17" height="17"/>
</clipPath>
<g id="source-1480" clip-path="url(#clip-1)">
<path fill-rule="evenodd" fill="rgb(100%, 100%, 100%)" fill-opacity="1" d="M 8.445312 13.222656 L 9.496094 12.609375 L 9.496094 12.058594 L 9.027344 11.558594 L 9.496094 11.140625 L 9.496094 10.984375 L 9.023438 10.492188 L 9.496094 9.988281 L 9.019531 9.472656 L 9.496094 9.015625 L 9.496094 7.996094 C 9.25 8.105469 8.84375 8.253906 8.453125 8.246094 C 8.453125 8.246094 8.445312 9.902344 8.441406 13.222656 Z M 8.445312 13.222656 "/>
</g>
</defs>
<path fill-rule="nonzero" fill="rgb(30.980392%, 76.078431%, 42.352941%)" fill-opacity="1" d="M 15.609375 8.46875 C 15.609375 12.414062 12.410156 15.613281 8.464844 15.613281 C 4.519531 15.613281 1.324219 12.414062 1.324219 8.46875 C 1.324219 4.523438 4.519531 1.328125 8.464844 1.328125 C 12.410156 1.328125 15.609375 4.523438 15.609375 8.46875 Z M 15.609375 8.46875 "/>
<g mask="url(#mask-0)">
<use xlink:href="#source-1475"/>
</g>
<path fill-rule="evenodd" fill="rgb(100%, 100%, 100%)" fill-opacity="1" d="M 8.46875 3.699219 C 7.859375 3.699219 7.28125 3.941406 6.851562 4.367188 C 6.421875 4.796875 6.183594 5.378906 6.183594 5.984375 C 6.183594 6.839844 6.65625 7.625 7.417969 8.019531 L 7.417969 12.609375 L 8.445312 13.226562 C 8.453125 9.925781 8.460938 8.289062 8.460938 8.273438 L 8.46875 8.273438 C 9.710938 8.246094 10.707031 7.230469 10.707031 5.988281 C 10.707031 4.742188 9.710938 3.726562 8.46875 3.699219 Z M 8.460938 4.378906 C 8.835938 4.378906 9.136719 4.679688 9.136719 5.054688 C 9.136719 5.234375 9.066406 5.40625 8.9375 5.535156 C 8.8125 5.660156 8.640625 5.730469 8.460938 5.730469 C 8.28125 5.730469 8.105469 5.660156 7.980469 5.53125 C 7.851562 5.40625 7.78125 5.234375 7.78125 5.054688 C 7.78125 4.679688 8.085938 4.378906 8.460938 4.378906 Z M 8.460938 4.378906 "/>
<g mask="url(#mask-1)">
<use xlink:href="#source-1480"/>
</g>
</svg>
