<?xml version="1.0" encoding="UTF-8"?>
<svg xmlns="http://www.w3.org/2000/svg" xmlns:xlink="http://www.w3.org/1999/xlink" width="64" height="64" viewBox="0 0 64 64">
<path fill-rule="nonzero" fill="rgb(91.372549%, 91.372549%, 91.372549%)" fill-opacity="1" d="M 32 5 C 46.910156 5 59 17.089844 59 32 C 59 46.910156 46.910156 59 32 59 C 17.089844 59 5 46.910156 5 32 C 5 17.089844 17.089844 5 32 5 Z M 32 5 "/>
<path fill-rule="nonzero" fill="rgb(23.137255%, 42.745098%, 73.333333%)" fill-opacity="1" d="M 27.449219 48 L 21.28125 48 L 21.28125 16 L 42.71875 16 L 42.71875 21.851562 L 27.449219 21.851562 L 27.449219 28.570312 L 37.140625 28.570312 L 37.140625 34.421875 L 27.449219 34.421875 Z M 27.449219 48 "/>
<path fill-rule="evenodd" fill="rgb(40%, 40%, 40%)" fill-opacity="1" d="M 62 48 C 62 55.730469 55.730469 62 48 62 C 40.269531 62 34 55.730469 34 48 C 34 40.269531 40.269531 34 48 34 C 55.730469 34 62 40.269531 62 48 Z M 62 48 "/>
<path fill-rule="nonzero" fill="rgb(100%, 100%, 100%)" fill-opacity="1" d="M 45.175781 39.4375 C 45.078125 39.457031 45.035156 39.546875 45.035156 39.644531 L 45.035156 42.628906 C 44.75 42.789062 44.476562 42.96875 44.21875 43.171875 L 41.464844 42.007812 C 41.375 41.96875 41.277344 41.972656 41.222656 42.054688 L 39.949219 43.941406 C 39.894531 44.023438 39.925781 44.117188 39.996094 44.1875 L 42.105469 46.296875 C 42.015625 46.613281 41.953125 46.933594 41.914062 47.261719 L 39.140625 48.378906 C 39.050781 48.417969 38.984375 48.488281 39.003906 48.585938 L 39.4375 50.824219 C 39.457031 50.921875 39.546875 50.964844 39.644531 50.964844 L 42.628906 50.964844 C 42.789062 51.25 42.96875 51.523438 43.171875 51.78125 L 42.007812 54.535156 C 41.96875 54.625 41.972656 54.722656 42.054688 54.777344 L 43.941406 56.050781 C 44.023438 56.105469 44.117188 56.074219 44.1875 56.003906 L 46.296875 53.898438 C 46.613281 53.984375 46.933594 54.046875 47.261719 54.085938 L 48.378906 56.859375 C 48.417969 56.949219 48.488281 57.015625 48.585938 56.996094 L 50.824219 56.5625 C 50.921875 56.542969 50.964844 56.453125 50.964844 56.355469 L 50.964844 53.371094 C 51.25 53.214844 51.523438 53.03125 51.78125 52.828125 L 54.535156 53.992188 C 54.625 54.03125 54.722656 54.027344 54.777344 53.945312 L 56.050781 52.058594 C 56.105469 51.976562 56.074219 51.882812 56.003906 51.8125 L 53.898438 49.703125 C 53.984375 49.386719 54.046875 49.066406 54.085938 48.738281 L 56.859375 47.621094 C 56.949219 47.582031 57.015625 47.511719 56.996094 47.414062 L 56.5625 45.175781 C 56.542969 45.078125 56.453125 45.035156 56.355469 45.035156 L 53.371094 45.035156 C 53.214844 44.75 53.03125 44.476562 52.828125 44.21875 L 53.992188 41.464844 C 54.03125 41.375 54.027344 41.277344 53.945312 41.222656 L 52.058594 39.949219 C 51.976562 39.894531 51.882812 39.925781 51.8125 39.996094 L 49.703125 42.105469 C 49.386719 42.015625 49.066406 41.953125 48.738281 41.914062 L 47.621094 39.140625 C 47.582031 39.050781 47.511719 38.984375 47.414062 39.003906 Z M 47.5 45.417969 C 48.925781 45.140625 50.304688 46.070312 50.582031 47.496094 C 50.859375 48.921875 49.929688 50.304688 48.503906 50.582031 C 47.078125 50.859375 45.695312 49.925781 45.417969 48.5 C 45.140625 47.074219 46.074219 45.695312 47.5 45.417969 Z M 47.5 45.417969 "/>
</svg>
