<?xml version="1.0" encoding="UTF-8"?>
<svg xmlns="http://www.w3.org/2000/svg" xmlns:xlink="http://www.w3.org/1999/xlink" width="64" height="64" viewBox="0 0 64 64">
<path fill-rule="nonzero" fill="rgb(18.431373%, 72.54902%, 42.352941%)" fill-opacity="1" d="M 15.609375 8.464844 C 15.609375 12.410156 12.410156 15.609375 8.464844 15.609375 C 4.519531 15.609375 1.324219 12.410156 1.324219 8.464844 C 1.324219 4.519531 4.519531 1.324219 8.464844 1.324219 C 12.410156 1.324219 15.609375 4.519531 15.609375 8.464844 Z M 15.609375 8.464844 "/>
<path fill-rule="nonzero" fill="rgb(94.901961%, 94.901961%, 94.901961%)" fill-opacity="1" d="M 14.816406 8.464844 C 14.816406 11.972656 11.972656 14.816406 8.464844 14.816406 C 4.960938 14.816406 2.117188 11.972656 2.117188 8.464844 C 2.117188 4.960938 4.960938 2.117188 8.464844 2.117188 C 11.972656 2.117188 14.816406 4.960938 14.816406 8.464844 Z M 14.816406 8.464844 "/>
<path fill-rule="nonzero" fill="rgb(83.529412%, 82.745098%, 81.176471%)" fill-opacity="1" d="M 4.753906 3.441406 C 4.746094 3.4375 4.742188 3.441406 4.734375 3.441406 C 4.664062 3.484375 4.59375 3.527344 4.523438 3.574219 C 4.476562 3.65625 4.476562 3.757812 4.523438 3.839844 C 4.574219 3.921875 4.660156 3.96875 4.753906 3.96875 C 4.898438 3.96875 5.015625 3.847656 5.015625 3.703125 C 5.015625 3.558594 4.898438 3.441406 4.753906 3.441406 Z M 5.808594 3.441406 C 5.671875 3.4375 5.554688 3.546875 5.546875 3.6875 C 5.535156 3.824219 5.632812 3.945312 5.773438 3.964844 C 5.78125 3.96875 5.789062 3.96875 5.796875 3.96875 C 5.800781 3.96875 5.804688 3.96875 5.808594 3.96875 C 5.953125 3.96875 6.070312 3.847656 6.070312 3.703125 C 6.070312 3.558594 5.953125 3.441406 5.808594 3.441406 Z M 6.863281 3.441406 C 6.726562 3.4375 6.609375 3.546875 6.601562 3.6875 C 6.589844 3.824219 6.691406 3.945312 6.828125 3.964844 C 6.835938 3.96875 6.84375 3.96875 6.855469 3.96875 C 6.859375 3.96875 6.863281 3.96875 6.863281 3.96875 C 7.011719 3.96875 7.125 3.847656 7.125 3.703125 C 7.125 3.558594 7.011719 3.441406 6.863281 3.441406 Z M 7.921875 3.441406 C 7.78125 3.4375 7.667969 3.546875 7.65625 3.6875 C 7.648438 3.824219 7.746094 3.945312 7.882812 3.964844 C 7.890625 3.96875 7.902344 3.96875 7.910156 3.96875 C 7.914062 3.96875 7.917969 3.96875 7.921875 3.96875 C 8.066406 3.96875 8.183594 3.847656 8.183594 3.703125 C 8.183594 3.558594 8.066406 3.441406 7.921875 3.441406 Z M 8.976562 3.441406 C 8.835938 3.4375 8.722656 3.546875 8.710938 3.683594 C 8.703125 3.824219 8.800781 3.945312 8.9375 3.964844 C 8.949219 3.96875 8.957031 3.96875 8.964844 3.96875 C 8.96875 3.96875 8.972656 3.96875 8.976562 3.96875 C 9.121094 3.96875 9.238281 3.847656 9.238281 3.703125 C 9.238281 3.558594 9.121094 3.441406 8.976562 3.441406 Z M 10.03125 3.441406 C 9.894531 3.4375 9.777344 3.546875 9.769531 3.6875 C 9.757812 3.824219 9.855469 3.945312 9.996094 3.964844 C 10.003906 3.96875 10.011719 3.96875 10.019531 3.96875 C 10.023438 3.96875 10.027344 3.96875 10.03125 3.96875 C 10.175781 3.96875 10.292969 3.847656 10.292969 3.703125 C 10.292969 3.558594 10.175781 3.441406 10.03125 3.441406 Z M 11.085938 3.441406 C 10.949219 3.4375 10.832031 3.546875 10.824219 3.6875 C 10.8125 3.824219 10.914062 3.945312 11.050781 3.964844 C 11.058594 3.96875 11.066406 3.96875 11.078125 3.96875 C 11.078125 3.96875 11.082031 3.96875 11.085938 3.96875 C 11.230469 3.96875 11.347656 3.847656 11.347656 3.703125 C 11.347656 3.558594 11.230469 3.441406 11.085938 3.441406 Z M 12.144531 3.441406 C 12.046875 3.4375 11.960938 3.488281 11.910156 3.570312 C 11.863281 3.652344 11.863281 3.753906 11.910156 3.835938 C 11.960938 3.921875 12.046875 3.96875 12.144531 3.96875 C 12.246094 3.96875 12.339844 3.90625 12.382812 3.8125 C 12.421875 3.71875 12.40625 3.609375 12.339844 3.53125 C 12.292969 3.503906 12.25 3.476562 12.203125 3.445312 C 12.183594 3.441406 12.164062 3.441406 12.144531 3.441406 Z M 12.144531 3.441406 "/>
<path fill-rule="nonzero" fill="rgb(30.196078%, 30.196078%, 30.196078%)" fill-opacity="1" d="M 6.933594 11.144531 L 5.777344 11.144531 L 5.59375 11.640625 L 4.847656 11.640625 L 5.914062 8.910156 L 6.796875 8.910156 L 7.859375 11.640625 L 7.117188 11.640625 Z M 5.960938 10.636719 L 6.75 10.636719 L 6.355469 9.550781 Z M 5.960938 10.636719 "/>
<path fill-rule="nonzero" fill="rgb(30.196078%, 30.196078%, 30.196078%)" fill-opacity="1" d="M 11.207031 7.894531 L 11.816406 7.894531 L 11.816406 7.65625 L 12.066406 7.65625 L 12.066406 8.25 L 10.726562 8.25 L 10.726562 7.878906 C 10.917969 7.839844 11.0625 7.71875 11.160156 7.523438 C 11.253906 7.328125 11.304688 7.058594 11.304688 6.71875 C 11.304688 6.339844 11.242188 6.050781 11.121094 5.851562 C 11 5.652344 10.824219 5.550781 10.589844 5.550781 C 10.355469 5.550781 10.179688 5.652344 10.054688 5.851562 C 9.9375 6.050781 9.875 6.339844 9.875 6.722656 C 9.875 7.058594 9.925781 7.324219 10.023438 7.523438 C 10.121094 7.71875 10.265625 7.839844 10.453125 7.878906 L 10.453125 8.25 L 9.113281 8.25 L 9.113281 7.65625 L 9.363281 7.65625 L 9.363281 7.898438 L 9.972656 7.898438 C 9.683594 7.777344 9.464844 7.617188 9.316406 7.410156 C 9.167969 7.203125 9.09375 6.957031 9.09375 6.675781 C 9.09375 6.269531 9.230469 5.941406 9.503906 5.691406 C 9.777344 5.445312 10.140625 5.320312 10.589844 5.320312 C 11.039062 5.320312 11.402344 5.445312 11.675781 5.691406 C 11.949219 5.941406 12.085938 6.269531 12.085938 6.675781 C 12.085938 6.957031 12.011719 7.203125 11.863281 7.410156 C 11.714844 7.617188 11.496094 7.777344 11.207031 7.898438 Z M 11.207031 7.894531 "/>
<path fill-rule="nonzero" fill="rgb(20%, 81.960784%, 47.843137%)" fill-opacity="1" d="M 7.539062 6.480469 L 7.691406 6.945312 L 8.753906 5.78125 L 7.210938 5.292969 L 7.300781 5.71875 C 5.785156 6.484375 5.625 7.15625 5.417969 7.828125 L 6.234375 7.972656 C 6.429688 7.15625 6.941406 6.738281 7.539062 6.480469 Z M 9.382812 10.347656 L 9.230469 9.882812 L 8.171875 11.046875 L 9.710938 11.535156 L 9.621094 11.105469 C 11.140625 10.34375 11.300781 9.671875 11.507812 9 L 10.6875 8.855469 C 10.496094 9.671875 9.984375 10.089844 9.382812 10.347656 Z M 9.382812 10.347656 "/>
</svg>
