<?xml version="1.0" encoding="UTF-8"?>
<svg xmlns="http://www.w3.org/2000/svg" xmlns:xlink="http://www.w3.org/1999/xlink" width="64" height="64" viewBox="0 0 64 64">
<path fill-rule="nonzero" fill="rgb(70.196078%, 74.509804%, 74.509804%)" fill-opacity="1" d="M 15.609375 8.464844 C 15.609375 12.410156 12.410156 15.609375 8.464844 15.609375 C 4.519531 15.609375 1.324219 12.410156 1.324219 8.464844 C 1.324219 4.519531 4.519531 1.324219 8.464844 1.324219 C 12.410156 1.324219 15.609375 4.519531 15.609375 8.464844 Z M 15.609375 8.464844 "/>
<path fill-rule="nonzero" fill="rgb(92.941176%, 93.333333%, 93.72549%)" fill-opacity="1" d="M 8.464844 1.851562 C 6.21875 1.855469 4.125 3 2.910156 4.890625 L 2.910156 10.847656 L 14.023438 10.847656 L 14.023438 4.878906 C 12.804688 2.992188 10.710938 1.851562 8.464844 1.851562 Z M 8.464844 1.851562 "/>
<path fill-rule="nonzero" fill="rgb(68.235294%, 68.235294%, 68.235294%)" fill-opacity="1" d="M 3.203125 5.160156 L 3.914062 5.160156 L 3.914062 5.515625 L 3.203125 5.515625 Z M 3.203125 5.160156 "/>
<path fill-rule="nonzero" fill="rgb(68.235294%, 68.235294%, 68.235294%)" fill-opacity="1" d="M 4.273438 5.160156 L 5.34375 5.160156 L 5.34375 5.515625 L 4.273438 5.515625 Z M 4.273438 5.160156 "/>
<path fill-rule="nonzero" fill="rgb(68.235294%, 68.235294%, 68.235294%)" fill-opacity="1" d="M 5.703125 5.160156 L 7.488281 5.160156 L 7.488281 5.515625 L 5.703125 5.515625 Z M 5.703125 5.160156 "/>
<path fill-rule="nonzero" fill="rgb(68.235294%, 68.235294%, 68.235294%)" fill-opacity="1" d="M 3.203125 5.875 L 4.628906 5.875 L 4.628906 6.230469 L 3.203125 6.230469 Z M 3.203125 5.875 "/>
<path fill-rule="nonzero" fill="rgb(68.235294%, 68.235294%, 68.235294%)" fill-opacity="1" d="M 4.988281 5.875 L 5.703125 5.875 L 5.703125 6.230469 L 4.988281 6.230469 Z M 4.988281 5.875 "/>
<path fill-rule="nonzero" fill="rgb(68.235294%, 68.235294%, 68.235294%)" fill-opacity="1" d="M 3.203125 7.300781 L 3.914062 7.300781 L 3.914062 7.660156 L 3.203125 7.660156 Z M 3.203125 7.300781 "/>
<path fill-rule="nonzero" fill="rgb(68.235294%, 68.235294%, 68.235294%)" fill-opacity="1" d="M 4.273438 7.300781 L 5.34375 7.300781 L 5.34375 7.660156 L 4.273438 7.660156 Z M 4.273438 7.300781 "/>
<path fill-rule="nonzero" fill="rgb(68.235294%, 68.235294%, 68.235294%)" fill-opacity="1" d="M 3.203125 8.015625 L 3.914062 8.015625 L 3.914062 8.375 L 3.203125 8.375 Z M 3.203125 8.015625 "/>
<path fill-rule="nonzero" fill="rgb(68.235294%, 68.235294%, 68.235294%)" fill-opacity="1" d="M 4.273438 8.015625 L 6.058594 8.015625 L 6.058594 8.375 L 4.273438 8.375 Z M 4.273438 8.015625 "/>
<path fill-rule="nonzero" fill="rgb(68.235294%, 68.235294%, 68.235294%)" fill-opacity="1" d="M 6.414062 8.015625 L 7.488281 8.015625 L 7.488281 8.375 L 6.414062 8.375 Z M 6.414062 8.015625 "/>
<path fill-rule="nonzero" fill="rgb(68.235294%, 68.235294%, 68.235294%)" fill-opacity="1" d="M 3.203125 9.445312 L 5.34375 9.445312 L 5.34375 9.800781 L 3.203125 9.800781 Z M 3.203125 9.445312 "/>
<path fill-rule="nonzero" fill="rgb(68.235294%, 68.235294%, 68.235294%)" fill-opacity="1" d="M 5.703125 9.445312 L 6.773438 9.445312 L 6.773438 9.800781 L 5.703125 9.800781 Z M 5.703125 9.445312 "/>
<path fill-rule="nonzero" fill="rgb(68.235294%, 68.235294%, 68.235294%)" fill-opacity="1" d="M 3.203125 10.160156 L 4.988281 10.160156 L 4.988281 10.515625 L 3.203125 10.515625 Z M 3.203125 10.160156 "/>
<path fill-rule="nonzero" fill="rgb(68.235294%, 68.235294%, 68.235294%)" fill-opacity="1" d="M 5.34375 10.160156 L 7.128906 10.160156 L 7.128906 10.515625 L 5.34375 10.515625 Z M 5.34375 10.160156 "/>
<path fill-rule="nonzero" fill="rgb(68.235294%, 68.235294%, 68.235294%)" fill-opacity="1" d="M 8.558594 5.160156 L 9.273438 5.160156 L 9.273438 5.515625 L 8.558594 5.515625 Z M 8.558594 5.160156 "/>
<path fill-rule="nonzero" fill="rgb(68.235294%, 68.235294%, 68.235294%)" fill-opacity="1" d="M 9.628906 5.160156 L 10.703125 5.160156 L 10.703125 5.515625 L 9.628906 5.515625 Z M 9.628906 5.160156 "/>
<path fill-rule="nonzero" fill="rgb(68.235294%, 68.235294%, 68.235294%)" fill-opacity="1" d="M 11.058594 5.160156 L 12.84375 5.160156 L 12.84375 5.515625 L 11.058594 5.515625 Z M 11.058594 5.160156 "/>
<path fill-rule="nonzero" fill="rgb(68.235294%, 68.235294%, 68.235294%)" fill-opacity="1" d="M 8.558594 5.875 L 9.988281 5.875 L 9.988281 6.230469 L 8.558594 6.230469 Z M 8.558594 5.875 "/>
<path fill-rule="nonzero" fill="rgb(68.235294%, 68.235294%, 68.235294%)" fill-opacity="1" d="M 10.34375 5.875 L 11.058594 5.875 L 11.058594 6.230469 L 10.34375 6.230469 Z M 10.34375 5.875 "/>
<path fill-rule="nonzero" fill="rgb(68.235294%, 68.235294%, 68.235294%)" fill-opacity="1" d="M 8.558594 7.300781 L 9.273438 7.300781 L 9.273438 7.660156 L 8.558594 7.660156 Z M 8.558594 7.300781 "/>
<path fill-rule="nonzero" fill="rgb(68.235294%, 68.235294%, 68.235294%)" fill-opacity="1" d="M 8.558594 8.015625 L 9.273438 8.015625 L 9.273438 8.375 L 8.558594 8.375 Z M 8.558594 8.015625 "/>
<path fill-rule="nonzero" fill="rgb(68.235294%, 68.235294%, 68.235294%)" fill-opacity="1" d="M 9.628906 8.015625 L 11.417969 8.015625 L 11.417969 8.375 L 9.628906 8.375 Z M 9.628906 8.015625 "/>
<path fill-rule="nonzero" fill="rgb(68.235294%, 68.235294%, 68.235294%)" fill-opacity="1" d="M 11.773438 8.015625 L 12.84375 8.015625 L 12.84375 8.375 L 11.773438 8.375 Z M 11.773438 8.015625 "/>
<path fill-rule="nonzero" fill="rgb(68.235294%, 68.235294%, 68.235294%)" fill-opacity="1" d="M 8.558594 9.445312 L 10.703125 9.445312 L 10.703125 9.800781 L 8.558594 9.800781 Z M 8.558594 9.445312 "/>
<path fill-rule="nonzero" fill="rgb(68.235294%, 68.235294%, 68.235294%)" fill-opacity="1" d="M 8.558594 10.160156 L 10.34375 10.160156 L 10.34375 10.515625 L 8.558594 10.515625 Z M 8.558594 10.160156 "/>
<path fill-rule="nonzero" fill="rgb(68.235294%, 68.235294%, 68.235294%)" fill-opacity="1" d="M 10.703125 10.160156 L 12.488281 10.160156 L 12.488281 10.515625 L 10.703125 10.515625 Z M 10.703125 10.160156 "/>
<path fill-rule="nonzero" fill="rgb(83.921569%, 85.490196%, 86.27451%)" fill-opacity="1" d="M 1.652344 10.582031 C 2.578125 13.570312 5.339844 15.605469 8.464844 15.609375 C 11.597656 15.609375 14.363281 13.574219 15.289062 10.582031 Z M 1.652344 10.582031 "/>
<path fill-rule="nonzero" fill="rgb(15.686275%, 42.745098%, 65.882353%)" fill-opacity="1" d="M 10.582031 11.113281 L 8.082031 12.542969 L 10.582031 13.984375 L 10.582031 13.253906 L 13.027344 13.253906 C 13.464844 12.832031 13.847656 12.351562 14.15625 11.828125 L 10.582031 11.828125 Z M 10.582031 11.113281 "/>
<path fill-rule="nonzero" fill="rgb(7.058824%, 71.764706%, 54.901961%)" fill-opacity="1" d="M 5.820312 11.90625 L 5.820312 12.621094 L 3.320312 12.621094 C 3.777344 13.179688 4.320312 13.664062 4.933594 14.050781 L 5.820312 14.050781 L 5.820312 14.527344 C 5.90625 14.5625 5.992188 14.597656 6.082031 14.628906 L 8.320312 13.335938 Z M 5.820312 11.90625 "/>
<path fill-rule="nonzero" fill="rgb(15.686275%, 42.745098%, 65.882353%)" fill-opacity="1" d="M 4.496094 3.703125 L 7.40625 3.703125 L 7.40625 4.234375 L 4.496094 4.234375 Z M 4.496094 3.703125 "/>
<path fill-rule="nonzero" fill="rgb(7.058824%, 71.764706%, 54.901961%)" fill-opacity="1" d="M 9.261719 3.703125 L 12.171875 3.703125 L 12.171875 4.234375 L 9.261719 4.234375 Z M 9.261719 3.703125 "/>
</svg>
