<?xml version="1.0" encoding="UTF-8"?>
<svg xmlns="http://www.w3.org/2000/svg" xmlns:xlink="http://www.w3.org/1999/xlink" width="64" height="64" viewBox="0 0 64 64">
<defs>
<filter id="filter-remove-color" x="0%" y="0%" width="100%" height="100%">
<feColorMatrix color-interpolation-filters="sRGB" values="0 0 0 0 1 0 0 0 0 1 0 0 0 0 1 0 0 0 1 0" />
</filter>
<mask id="mask-0">
<g filter="url(#filter-remove-color)">
<rect x="-6.4" y="-6.4" width="76.8" height="76.8" fill="rgb(0%, 0%, 0%)" fill-opacity="0.1"/>
</g>
</mask>
<clipPath id="clip-0">
<rect x="0" y="0" width="17" height="17"/>
</clipPath>
<g id="source-9264" clip-path="url(#clip-0)">
<path fill-rule="nonzero" fill="rgb(0%, 0%, 0%)" fill-opacity="1" d="M 14.289062 8.460938 C 14.289062 11.675781 11.683594 14.28125 8.46875 14.28125 C 5.253906 14.28125 2.644531 11.675781 2.644531 8.460938 C 2.644531 5.246094 5.253906 2.640625 8.46875 2.640625 C 11.683594 2.640625 14.289062 5.246094 14.289062 8.460938 Z M 14.289062 8.460938 "/>
</g>
<mask id="mask-1">
<g filter="url(#filter-remove-color)">
<rect x="-6.4" y="-6.4" width="76.8" height="76.8" fill="rgb(0%, 0%, 0%)" fill-opacity="0.15"/>
</g>
</mask>
<clipPath id="clip-1">
<rect x="0" y="0" width="17" height="17"/>
</clipPath>
<g id="source-9270" clip-path="url(#clip-1)">
<path fill-rule="nonzero" fill="rgb(0%, 0%, 0%)" fill-opacity="1" d="M 14.289062 12.699219 C 14.289062 13.578125 13.578125 14.289062 12.699219 14.289062 C 11.824219 14.289062 11.113281 13.578125 11.113281 12.699219 C 11.113281 11.824219 11.824219 11.113281 12.699219 11.113281 C 13.578125 11.113281 14.289062 11.824219 14.289062 12.699219 Z M 14.289062 12.699219 "/>
</g>
</defs>
<path fill-rule="nonzero" fill="rgb(40%, 69.411765%, 92.941176%)" fill-opacity="1" d="M 15.609375 8.460938 C 15.609375 12.40625 12.410156 15.605469 8.464844 15.605469 C 4.519531 15.605469 1.324219 12.40625 1.324219 8.460938 C 1.324219 4.515625 4.519531 1.316406 8.464844 1.316406 C 12.410156 1.316406 15.609375 4.515625 15.609375 8.460938 Z M 15.609375 8.460938 "/>
<g mask="url(#mask-0)">
<use xlink:href="#source-9264"/>
</g>
<path fill-rule="nonzero" fill="rgb(100%, 100%, 100%)" fill-opacity="1" d="M 8.46875 4.230469 C 6.128906 4.230469 4.234375 6.125 4.234375 8.464844 C 4.234375 10.800781 6.128906 12.699219 8.46875 12.695312 C 10.804688 12.695312 12.699219 10.800781 12.699219 8.464844 C 12.699219 6.125 10.804688 4.230469 8.46875 4.230469 Z M 8.84375 4.683594 C 9.257812 4.71875 9.652344 4.8125 10.015625 4.972656 C 9.984375 5.007812 9.960938 5.050781 9.949219 5.097656 C 9.835938 5.429688 9.671875 5.269531 9.867188 5.6875 C 10.0625 6.105469 10.222656 6.214844 10.28125 6.019531 C 10.335938 5.824219 10.140625 5.550781 10.363281 5.660156 C 10.585938 5.773438 10.75 5.632812 10.582031 5.882812 C 10.414062 6.132812 10.421875 6.269531 10.226562 6.214844 C 10.027344 6.15625 10.03125 6.542969 9.839844 6.601562 C 9.644531 6.65625 9.574219 6.515625 9.574219 6.65625 C 9.574219 6.796875 9.6875 6.664062 9.660156 6.890625 C 9.648438 6.957031 9.652344 6.96875 9.644531 7 C 9.460938 6.949219 9.378906 6.921875 9.242188 6.972656 C 9.105469 7.027344 8.941406 7.386719 8.941406 7.386719 C 9.113281 7.5625 9.195312 7.6875 9.257812 7.746094 C 9.21875 7.765625 9.171875 7.773438 9.132812 7.800781 C 8.855469 7.996094 8.636719 8.03125 8.554688 8.308594 C 8.472656 8.589844 8.5 8.335938 8.5 8.671875 C 8.5 9.003906 8.414062 8.777344 8.582031 9.085938 C 8.75 9.390625 9.160156 9.539062 9.355469 9.707031 C 9.550781 9.871094 9.75 9.34375 10.140625 9.84375 C 10.53125 10.347656 10.558594 10.144531 10.417969 10.425781 C 10.277344 10.703125 10.140625 10.792969 10.085938 10.90625 C 10.03125 11.019531 10.195312 11.402344 10.390625 11.484375 L 10.402344 11.484375 C 10.394531 11.511719 10.386719 11.53125 10.375 11.554688 C 10.121094 11.667969 9.8125 11.828125 9.757812 11.84375 C 9.617188 11.886719 9.128906 11.96875 8.777344 12.066406 C 8.730469 12.078125 8.695312 12.078125 8.679688 12.078125 C 8.722656 12.03125 9.070312 11.851562 9.246094 11.75 C 9.480469 11.609375 9.230469 11.625 9.230469 11.625 C 9.230469 11.625 8.855469 11.582031 8.085938 11.582031 C 7.699219 11.582031 7.535156 11.601562 7.449219 11.625 C 7.417969 11.632812 7.390625 11.644531 7.367188 11.664062 C 7.347656 11.683594 7.332031 11.703125 7.296875 11.722656 C 7.160156 11.800781 7.378906 11.882812 7.199219 11.941406 C 7.066406 11.984375 7.054688 11.941406 6.9375 11.859375 C 7.019531 11.777344 7.132812 11.679688 7.269531 11.515625 C 7.519531 11.210938 7.601562 11.265625 7.683594 10.988281 C 7.769531 10.714844 6.980469 10.796875 6.980469 10.628906 C 6.980469 10.464844 6.84375 10.355469 6.59375 10.242188 C 6.34375 10.132812 6.515625 10.078125 6.234375 9.996094 C 5.957031 9.914062 5.640625 10.410156 5.558594 10.242188 C 5.476562 10.078125 5.820312 10.078125 5.820312 9.886719 C 5.820312 9.695312 5.421875 10.027344 5.351562 9.789062 C 5.347656 9.777344 5.339844 9.777344 5.339844 9.773438 C 5.332031 9.738281 5.335938 9.71875 5.339844 9.691406 C 5.355469 9.492188 5.585938 9.414062 5.683594 9.222656 C 5.792969 9 5.738281 9.386719 5.875 9.582031 C 6.015625 9.773438 5.960938 9.332031 5.875 9.085938 C 5.792969 8.835938 5.929688 8.835938 6.125 8.503906 C 6.320312 8.171875 6.316406 7.980469 6.316406 7.730469 C 6.316406 7.484375 6.453125 7.453125 6.730469 7.207031 C 6.859375 7.09375 6.960938 6.992188 7.035156 6.902344 C 7.054688 6.894531 7.070312 6.894531 7.089844 6.890625 C 7.386719 6.769531 7.511719 6.59375 7.765625 6.0625 C 8.023438 5.527344 7.667969 6.023438 7.589844 6.003906 C 7.507812 5.984375 7.394531 5.84375 7.117188 5.6875 C 7.070312 5.660156 7.019531 5.640625 6.96875 5.632812 L 7.476562 4.789062 C 7.640625 4.746094 7.816406 4.71875 7.988281 4.695312 C 8.050781 5.050781 8.015625 5.382812 8.015625 5.382812 C 8.015625 5.382812 7.917969 5.5 7.917969 5.578125 C 7.917969 5.65625 8.445312 4.929688 8.527344 4.886719 C 8.605469 4.847656 8.804688 5.097656 8.84375 4.722656 C 8.847656 4.699219 8.84375 4.699219 8.84375 4.683594 Z M 9.542969 6.171875 C 9.527344 6.175781 9.511719 6.179688 9.492188 6.1875 C 9.492188 6.285156 9.453125 6.355469 9.4375 6.394531 C 9.425781 6.375 9.398438 6.351562 9.398438 6.351562 C 9.355469 6.429688 9.265625 6.496094 9.355469 6.476562 C 9.445312 6.457031 9.515625 6.511719 9.453125 6.433594 C 9.441406 6.421875 9.445312 6.425781 9.4375 6.421875 C 9.449219 6.429688 9.472656 6.433594 9.519531 6.433594 L 9.644531 6.433594 C 9.578125 6.484375 9.503906 6.507812 9.605469 6.53125 C 9.734375 6.566406 9.796875 6.574219 9.796875 6.546875 C 9.789062 6.503906 9.773438 6.460938 9.753906 6.421875 C 9.78125 6.410156 9.804688 6.398438 9.78125 6.351562 C 9.742188 6.269531 9.675781 6.1875 9.589844 6.171875 C 9.574219 6.167969 9.558594 6.167969 9.542969 6.171875 Z M 11.699219 6.40625 C 11.769531 6.515625 11.835938 6.625 11.894531 6.738281 C 11.855469 6.960938 11.757812 7.109375 11.921875 7.109375 C 11.96875 7.109375 12.007812 7.101562 12.046875 7.097656 C 12.050781 7.109375 12.054688 7.125 12.058594 7.136719 C 11.78125 7.136719 11.648438 7.222656 11.507812 7.191406 C 11.367188 7.164062 10.980469 7.140625 11.230469 6.890625 C 11.378906 6.742188 11.5625 6.507812 11.703125 6.40625 Z M 9.960938 6.914062 L 9.960938 6.917969 C 9.988281 6.925781 10.011719 6.953125 10.03125 7 C 10.113281 7.195312 10.253906 7.359375 10.140625 7.386719 C 10.03125 7.414062 9.976562 7.441406 9.976562 7.441406 C 9.976562 7.441406 10.363281 7.691406 10.390625 7.414062 C 10.417969 7.136719 10.28125 6.972656 10.28125 6.972656 C 10.28125 6.972656 10.472656 7.164062 10.527344 7.277344 C 10.585938 7.386719 10.582031 7.277344 10.722656 7.414062 C 10.859375 7.554688 10.828125 6.859375 11.023438 7.054688 C 11.21875 7.25 11.34375 7.246094 11.285156 7.386719 C 11.230469 7.527344 11.644531 7.21875 11.644531 7.496094 C 11.644531 7.765625 11.816406 7.875 11.480469 8.007812 C 11.351562 8 11.25 7.976562 11.230469 7.9375 C 11.175781 7.828125 10.859375 7.910156 10.859375 7.910156 C 10.023438 7.703125 9.664062 7.636719 9.425781 7.675781 C 9.429688 7.667969 9.433594 7.667969 9.4375 7.664062 C 9.558594 7.441406 9.789062 7.136719 9.714844 7.027344 C 9.820312 6.96875 9.902344 6.898438 9.964844 6.917969 Z M 12.308594 8.3125 C 12.3125 8.367188 12.308594 8.421875 12.308594 8.476562 C 12.308594 8.636719 12.300781 8.792969 12.28125 8.945312 C 12.03125 8.722656 11.675781 8.726562 11.675781 8.726562 C 11.675781 8.726562 11.890625 8.480469 12.199219 8.367188 C 12.238281 8.351562 12.273438 8.335938 12.308594 8.3125 Z M 12.308594 8.3125 "/>
<path fill-rule="nonzero" fill="rgb(80%, 80%, 80%)" fill-opacity="1" d="M 15.875 12.699219 C 15.875 14.453125 14.453125 15.875 12.699219 15.875 C 10.945312 15.875 9.523438 14.453125 9.523438 12.699219 C 9.523438 10.949219 10.945312 9.527344 12.699219 9.527344 C 14.453125 9.527344 15.875 10.949219 15.875 12.699219 Z M 15.875 12.699219 "/>
<g mask="url(#mask-1)">
<use xlink:href="#source-9270"/>
</g>
<path fill-rule="nonzero" fill="rgb(100%, 100%, 100%)" fill-opacity="1" d="M 12.699219 11.351562 C 11.957031 11.351562 11.355469 11.953125 11.355469 12.695312 C 11.355469 13.4375 11.957031 14.039062 12.699219 14.039062 C 13.441406 14.039062 14.042969 13.4375 14.042969 12.695312 C 14.042969 11.953125 13.441406 11.351562 12.699219 11.351562 Z M 12.699219 11.964844 C 12.894531 11.964844 13.082031 12.039062 13.21875 12.179688 C 13.355469 12.316406 13.433594 12.503906 13.433594 12.695312 C 13.433594 13.101562 13.105469 13.429688 12.699219 13.429688 C 12.296875 13.429688 11.96875 13.101562 11.96875 12.695312 C 11.96875 12.292969 12.296875 11.964844 12.699219 11.964844 Z M 12.699219 11.964844 "/>
<path fill-rule="nonzero" fill="rgb(100%, 100%, 100%)" fill-opacity="1" d="M 12.457031 10.804688 L 12.945312 10.804688 L 12.945312 11.65625 L 12.457031 11.65625 Z M 12.457031 13.734375 L 12.945312 13.734375 L 12.945312 14.589844 L 12.457031 14.589844 Z M 14.59375 12.453125 L 14.59375 12.941406 L 13.738281 12.941406 L 13.738281 12.453125 Z M 11.660156 12.453125 L 11.660156 12.941406 L 10.808594 12.941406 L 10.808594 12.453125 Z M 14.210938 13.863281 L 13.867188 14.207031 L 13.261719 13.601562 L 13.605469 13.257812 Z M 12.140625 11.789062 L 11.792969 12.136719 L 11.1875 11.53125 L 11.535156 11.1875 Z M 11.535156 14.207031 L 11.1875 13.863281 L 11.792969 13.257812 L 12.140625 13.601562 Z M 13.605469 12.136719 L 13.261719 11.789062 L 13.867188 11.1875 L 14.210938 11.53125 Z M 13.605469 12.136719 "/>
</svg>
