<?xml version="1.0" encoding="UTF-8"?>
<svg xmlns="http://www.w3.org/2000/svg" xmlns:xlink="http://www.w3.org/1999/xlink" width="64" height="64" viewBox="0 0 64 64">
<path fill-rule="nonzero" fill="rgb(30.196078%, 30.196078%, 30.196078%)" fill-opacity="1" d="M 15.609375 8.464844 C 15.609375 12.410156 12.410156 15.609375 8.464844 15.609375 C 4.519531 15.609375 1.324219 12.410156 1.324219 8.464844 C 1.324219 4.519531 4.519531 1.324219 8.464844 1.324219 C 12.410156 1.324219 15.609375 4.519531 15.609375 8.464844 Z M 15.609375 8.464844 "/>
<path fill-rule="nonzero" fill="rgb(100%, 100%, 100%)" fill-opacity="1" d="M 7.9375 5.820312 C 7.9375 6.988281 6.988281 7.9375 5.820312 7.9375 C 4.652344 7.9375 3.703125 6.988281 3.703125 5.820312 C 3.703125 4.652344 4.652344 3.703125 5.820312 3.703125 C 6.988281 3.703125 7.9375 4.652344 7.9375 5.820312 Z M 7.9375 5.820312 "/>
<path fill-rule="nonzero" fill="rgb(20%, 20%, 20%)" fill-opacity="1" d="M 13.230469 5.820312 C 13.230469 6.988281 12.28125 7.9375 11.113281 7.9375 C 9.945312 7.9375 8.996094 6.988281 8.996094 5.820312 C 8.996094 4.652344 9.945312 3.703125 11.113281 3.703125 C 12.28125 3.703125 13.230469 4.652344 13.230469 5.820312 Z M 13.230469 5.820312 "/>
<path fill-rule="nonzero" fill="rgb(20%, 20%, 20%)" fill-opacity="1" d="M 7.9375 11.113281 C 7.9375 12.28125 6.988281 13.230469 5.820312 13.230469 C 4.652344 13.230469 3.703125 12.28125 3.703125 11.113281 C 3.703125 9.945312 4.652344 8.996094 5.820312 8.996094 C 6.988281 8.996094 7.9375 9.945312 7.9375 11.113281 Z M 7.9375 11.113281 "/>
<path fill-rule="nonzero" fill="rgb(100%, 100%, 100%)" fill-opacity="1" d="M 13.230469 11.113281 C 13.230469 12.28125 12.28125 13.230469 11.113281 13.230469 C 9.945312 13.230469 8.996094 12.28125 8.996094 11.113281 C 8.996094 9.945312 9.945312 8.996094 11.113281 8.996094 C 12.28125 8.996094 13.230469 9.945312 13.230469 11.113281 Z M 13.230469 11.113281 "/>
</svg>
