<?xml version="1.0" encoding="UTF-8"?>
<svg xmlns="http://www.w3.org/2000/svg" xmlns:xlink="http://www.w3.org/1999/xlink" width="64" height="64" viewBox="0 0 64 64">
<defs>
<linearGradient id="linear-pattern-0" gradientUnits="userSpaceOnUse" x1="-20.542" y1="40.855999" x2="-23.084999" y2="43.297001" gradientTransform="matrix(0.549241, 0, 0, 0.549241, 52.124901, 17.519461)">
<stop offset="0" stop-color="rgb(66.27451%, 66.27451%, 66.27451%)" stop-opacity="1"/>
<stop offset="1" stop-color="rgb(66.27451%, 66.27451%, 66.27451%)" stop-opacity="0"/>
</linearGradient>
<linearGradient id="linear-pattern-1" gradientUnits="userSpaceOnUse" x1="-46.134998" y1="23.190001" x2="-43.234001" y2="22.645" gradientTransform="matrix(0.549241, 0, 0, 0.549241, 52.124901, 17.519461)">
<stop offset="0" stop-color="rgb(13.72549%, 13.72549%, 13.72549%)" stop-opacity="1"/>
<stop offset="1" stop-color="rgb(13.72549%, 13.72549%, 13.72549%)" stop-opacity="0"/>
</linearGradient>
</defs>
<path fill-rule="nonzero" fill="rgb(94.901961%, 94.901961%, 94.901961%)" fill-opacity="1" d="M 55.898438 19.277344 C 55.765625 19.027344 55.617188 18.761719 55.460938 18.5 C 54.300781 16.527344 52.84375 14.65625 51.09375 12.910156 C 46.941406 8.753906 42.105469 6.234375 36.585938 5.355469 C 35.65625 5.207031 34.707031 5.101562 33.722656 5.046875 C 33.167969 5.015625 32.585938 5 32 5 C 31.464844 5 30.9375 5.015625 30.402344 5.042969 C 23.632812 5.390625 17.800781 8.015625 12.90625 12.910156 C 11.734375 14.082031 10.691406 15.308594 9.777344 16.59375 C 8.902344 17.824219 8.144531 19.109375 7.515625 20.4375 L 7.511719 20.433594 C 5.835938 23.945312 5 27.796875 5 32 C 5 39.457031 7.636719 45.824219 12.910156 51.09375 C 16.152344 54.335938 19.804688 56.578125 23.839844 57.820312 C 25.941406 58.460938 28.117188 58.839844 30.402344 58.960938 L 30.425781 58.960938 C 30.914062 58.984375 31.375 59 31.828125 59 L 32 59 C 32.589844 59 33.171875 58.984375 33.722656 58.953125 C 33.863281 58.945312 33.992188 58.9375 34.117188 58.929688 C 35.273438 58.84375 36.402344 58.695312 37.476562 58.488281 C 37.929688 58.398438 38.378906 58.300781 38.816406 58.191406 C 43.4375 57.03125 47.519531 54.667969 51.09375 51.09375 C 53.875 48.3125 55.921875 45.230469 57.234375 41.839844 C 58.289062 39.113281 58.875 36.1875 58.980469 33.058594 C 58.992188 32.710938 59 32.355469 59 32 L 59 31.828125 C 58.988281 29.503906 58.714844 27.28125 58.179688 25.136719 C 58.117188 24.886719 58.046875 24.621094 57.972656 24.355469 C 57.914062 24.164062 57.859375 23.964844 57.792969 23.757812 C 57.699219 23.460938 57.597656 23.15625 57.488281 22.851562 C 57.199219 22.035156 56.867188 21.234375 56.492188 20.4375 C 56.386719 20.222656 56.277344 20 56.164062 19.78125 C 56.082031 19.617188 55.996094 19.453125 55.898438 19.277344 Z M 55.898438 19.277344 "/>
<path fill-rule="nonzero" fill="rgb(97.647059%, 97.647059%, 97.647059%)" fill-opacity="1" d="M 51.917969 21.398438 C 51.804688 21.191406 51.679688 20.96875 51.550781 20.75 C 50.585938 19.105469 49.367188 17.546875 47.914062 16.089844 C 44.453125 12.628906 40.421875 10.527344 35.820312 9.796875 C 35.046875 9.671875 34.257812 9.585938 33.433594 9.539062 C 32.972656 9.515625 32.488281 9.5 32 9.5 C 31.554688 9.5 31.113281 9.511719 30.671875 9.535156 C 25.027344 9.824219 20.167969 12.011719 16.089844 16.089844 C 15.113281 17.066406 14.242188 18.089844 13.484375 19.160156 C 12.75 20.1875 12.121094 21.257812 11.59375 22.363281 C 10.199219 25.285156 9.5 28.5 9.5 32 C 9.5 38.214844 11.695312 43.519531 16.089844 47.914062 C 18.792969 50.613281 21.835938 52.484375 25.199219 53.515625 C 26.953125 54.050781 28.765625 54.367188 30.667969 54.46875 L 30.6875 54.46875 C 31.09375 54.488281 31.480469 54.5 31.855469 54.5 L 32 54.5 C 32.492188 54.5 32.976562 54.484375 33.433594 54.460938 C 33.554688 54.453125 33.660156 54.449219 33.765625 54.441406 C 34.730469 54.371094 35.667969 54.246094 36.5625 54.074219 C 36.941406 54 37.316406 53.917969 37.679688 53.828125 C 41.53125 52.859375 44.933594 50.890625 47.910156 47.914062 C 50.226562 45.59375 51.933594 43.027344 53.027344 40.199219 C 53.910156 37.929688 54.394531 35.488281 54.484375 32.882812 C 54.496094 32.59375 54.5 32.296875 54.5 32 L 54.5 31.855469 C 54.488281 29.917969 54.261719 28.066406 53.816406 26.28125 C 53.765625 26.074219 53.707031 25.851562 53.644531 25.632812 C 53.597656 25.46875 53.546875 25.304688 53.492188 25.132812 C 53.417969 24.886719 53.332031 24.628906 53.242188 24.375 C 53 23.695312 52.722656 23.027344 52.410156 22.367188 C 52.320312 22.183594 52.230469 22 52.136719 21.816406 C 52.070312 21.683594 51.996094 21.546875 51.914062 21.398438 Z M 51.917969 21.398438 "/>
<path fill-rule="evenodd" fill="url(#linear-pattern-0)" d="M 34.054688 35.589844 L 41.835938 40.722656 L 40.699219 43.4375 C 40.699219 43.4375 34.253906 38.265625 34.054688 35.589844 Z M 34.054688 35.589844 "/>
<path fill-rule="evenodd" fill="rgb(9.411765%, 9.411765%, 9.411765%)" fill-opacity="1" d="M 34.976562 26.679688 C 37.878906 24.695312 42.164062 21.296875 42.628906 19.753906 C 43.074219 18.273438 44.917969 18.550781 44.5 20.226562 C 44.082031 21.902344 41.789062 28.523438 38.1875 32.933594 "/>
<path fill-rule="evenodd" fill="rgb(9.411765%, 9.411765%, 9.411765%)" fill-opacity="1" d="M 20.285156 41.675781 C 21.929688 41.195312 22.847656 39.296875 24.050781 38.113281 C 26.234375 40.113281 37.585938 43.960938 31.683594 44.058594 C 28.652344 43.886719 26.886719 45.53125 25.234375 46.875 Z M 20.285156 41.675781 "/>
<path fill-rule="evenodd" fill="rgb(13.72549%, 13.72549%, 13.72549%)" fill-opacity="1" d="M 32.96875 14.300781 C 28.664062 14.378906 27.242188 17.660156 27.242188 19.277344 C 27.242188 20.898438 27.773438 24.261719 26.46875 26.472656 C 25.609375 27.9375 22.878906 31.398438 22.105469 34.640625 C 21.332031 37.878906 21.9375 44.710938 30.914062 44.871094 C 40.15625 45.035156 39.519531 47.007812 39.519531 47.007812 L 42.800781 40.742188 C 41.941406 40.332031 40.628906 39.710938 40.683594 39.597656 C 42.332031 36.101562 37.921875 29.605469 37.09375 27.078125 C 36.261719 24.550781 37.238281 23.925781 37.910156 22.386719 C 38.582031 20.84375 38.851562 14.300781 32.96875 14.300781 Z M 32.96875 14.300781 "/>
<path fill-rule="evenodd" fill="rgb(96.078431%, 87.058824%, 40.784314%)" fill-opacity="1" d="M 20.84375 41.789062 C 20.03125 41.140625 19.332031 42.039062 19.816406 42.90625 C 20.304688 43.773438 24.457031 47.941406 25.648438 49.253906 C 26.84375 50.566406 28.917969 48.648438 27.042969 47.570312 C 25.171875 46.488281 21.65625 42.441406 20.84375 41.789062 Z M 20.84375 41.789062 "/>
<path fill-rule="evenodd" fill="rgb(13.72549%, 13.72549%, 13.72549%)" fill-opacity="1" d="M 21.957031 38.148438 C 22.292969 39.445312 20.703125 41 19.855469 41.800781 C 18.75 42.839844 19.882812 43.40625 20.25 43.375 C 20.617188 43.347656 23.339844 42.363281 25.449219 43.546875 "/>
<path fill-rule="evenodd" fill="rgb(99.215686%, 99.215686%, 99.215686%)" fill-opacity="1" d="M 35.609375 17.15625 C 34.375 17.140625 33.511719 18.546875 34.160156 20.199219 C 34.527344 21.144531 36.960938 21.09375 37.117188 20.105469 C 37.378906 18.421875 36.832031 17.167969 35.609375 17.15625 Z M 35.609375 17.15625 "/>
<path fill-rule="evenodd" fill="rgb(0%, 0%, 0%)" fill-opacity="1" d="M 35.503906 18.863281 C 35.84375 18.453125 36.394531 18.449219 36.734375 18.863281 C 37.078125 19.273438 37.078125 19.941406 36.742188 20.355469 C 36.402344 20.769531 35.851562 20.773438 35.507812 20.367188 C 35.167969 19.957031 35.160156 19.289062 35.496094 18.871094 "/>
<path fill-rule="evenodd" fill="rgb(96.078431%, 87.058824%, 40.784314%)" fill-opacity="1" d="M 38 23.382812 C 38.78125 23.410156 43.417969 22.496094 43.46875 21.847656 C 43.523438 21.195312 40.214844 20.882812 39.5625 20.597656 C 38.914062 20.308594 35.75 19.464844 35.789062 21.585938 C 35.828125 23.707031 37.21875 23.355469 38 23.382812 Z M 38 23.382812 "/>
<path fill="none" stroke-width="0.62713" stroke-linecap="butt" stroke-linejoin="miter" stroke="rgb(68.235294%, 57.647059%, 0%)" stroke-opacity="1" stroke-miterlimit="4" d="M 77.320397 28.802762 C 83.063681 30.054853 90.031837 30.476753 93.883376 29.823488 " transform="matrix(0.28702, 0, 0, 0.28702, 14.62, 13.901)"/>
<path fill-rule="evenodd" fill="url(#linear-pattern-1)" d="M 27.777344 25.429688 C 23.898438 28.714844 17.808594 36.5625 19.027344 37.328125 C 20.078125 37.984375 26.335938 32.554688 28.984375 32.003906 "/>
<path fill-rule="evenodd" fill="rgb(96.078431%, 87.058824%, 40.784314%)" fill-opacity="1" d="M 42.933594 37.914062 C 43.042969 36.347656 45.234375 36.089844 45.21875 38.003906 C 45.203125 40.179688 42.253906 45.449219 41.144531 46.765625 C 40.074219 48.035156 39.011719 47.042969 39.761719 45.820312 C 40.511719 44.59375 42.785156 40.023438 42.933594 37.914062 Z M 42.933594 37.914062 "/>
<path fill-rule="evenodd" fill="rgb(80%, 80%, 80%)" fill-opacity="1" d="M 37.46875 29.148438 C 36.722656 28.816406 36.460938 30.742188 35.84375 31.644531 C 35.097656 32.726562 34.378906 33.773438 34.925781 35.488281 L 40.597656 39.421875 C 41.328125 36.546875 39.367188 32.355469 37.46875 29.148438 Z M 37.46875 29.148438 "/>
<path fill-rule="evenodd" fill="rgb(100%, 100%, 100%)" fill-opacity="1" d="M 35.898438 18.773438 C 36.011719 18.699219 36.203125 18.699219 36.316406 18.769531 C 36.433594 18.84375 36.433594 18.964844 36.320312 19.039062 C 36.203125 19.113281 36.015625 19.113281 35.898438 19.039062 C 35.78125 18.96875 35.78125 18.847656 35.894531 18.773438 "/>
</svg>
