<?xml version="1.0" encoding="UTF-8"?>
<svg xmlns="http://www.w3.org/2000/svg" xmlns:xlink="http://www.w3.org/1999/xlink" width="64" height="64" viewBox="0 0 64 64">
<path fill-rule="nonzero" fill="rgb(45.490196%, 78.823529%, 81.568627%)" fill-opacity="1" d="M 2.53125 4.496094 C 1.746094 5.671875 1.324219 7.054688 1.324219 8.464844 C 1.324219 12.410156 4.519531 15.609375 8.464844 15.609375 C 12.410156 15.609375 15.609375 12.410156 15.609375 8.464844 C 15.609375 7.050781 15.1875 5.671875 14.398438 4.496094 Z M 2.53125 4.496094 "/>
<path fill-rule="nonzero" fill="rgb(20%, 20%, 20%)" fill-opacity="1" d="M 8.464844 1.324219 C 7.691406 1.324219 6.925781 1.453125 6.191406 1.703125 C 6.414062 1.628906 6.644531 1.5625 6.871094 1.511719 L 7.804688 2.910156 L 6.746094 4.496094 L 10.054688 4.496094 L 11.113281 2.910156 L 10.203125 1.546875 C 9.636719 1.402344 9.050781 1.324219 8.464844 1.324219 Z M 10.214844 1.550781 C 11.21875 1.800781 12.152344 2.269531 12.957031 2.917969 L 11.90625 4.496094 L 14.398438 4.496094 C 13.417969 3.03125 11.925781 1.980469 10.214844 1.550781 Z M 6.164062 1.714844 C 5.953125 1.785156 5.746094 1.867188 5.542969 1.957031 C 5.746094 1.867188 5.953125 1.785156 6.164062 1.714844 Z M 5.371094 2.039062 C 4.222656 2.589844 3.242188 3.4375 2.53125 4.496094 L 4.894531 4.496094 L 5.953125 2.910156 Z M 5.371094 2.039062 "/>
<path fill-rule="nonzero" fill="rgb(100%, 100%, 100%)" fill-opacity="1" d="M 6.871094 1.511719 C 6.355469 1.628906 5.851562 1.804688 5.371094 2.035156 L 5.953125 2.910156 L 4.894531 4.496094 L 6.746094 4.496094 L 7.804688 2.910156 Z M 10.203125 1.546875 L 11.113281 2.910156 L 10.054688 4.496094 L 11.90625 4.496094 L 12.957031 2.917969 C 12.152344 2.265625 11.210938 1.796875 10.203125 1.546875 Z M 10.203125 1.546875 "/>
</svg>
