<?xml version="1.0" encoding="UTF-8"?>
<svg xmlns="http://www.w3.org/2000/svg" xmlns:xlink="http://www.w3.org/1999/xlink" width="64" height="64" viewBox="0 0 64 64">
<path fill-rule="nonzero" fill="rgb(100%, 33.333333%, 33.333333%)" fill-opacity="1" d="M 15.609375 8.460938 C 15.609375 12.40625 12.410156 15.605469 8.464844 15.605469 C 4.519531 15.605469 1.324219 12.40625 1.324219 8.460938 C 1.324219 4.515625 4.519531 1.316406 8.464844 1.316406 C 12.410156 1.316406 15.609375 4.515625 15.609375 8.460938 Z M 15.609375 8.460938 "/>
<path fill-rule="nonzero" fill="rgb(100%, 100%, 100%)" fill-opacity="1" d="M 9.910156 4.234375 C 9.730469 4.230469 9.488281 4.238281 9.234375 4.285156 C 8.980469 4.332031 8.707031 4.414062 8.464844 4.613281 C 8.222656 4.808594 8.042969 5.140625 8.042969 5.519531 L 8.042969 6.785156 L 6.777344 6.785156 C 6.625 6.78125 6.484375 6.863281 6.410156 6.996094 C 6.332031 7.125 6.332031 7.289062 6.410156 7.417969 C 6.484375 7.550781 6.625 7.632812 6.777344 7.628906 L 8.042969 7.628906 L 8.042969 8.507812 C 7.058594 8.710938 6.351562 9.578125 6.351562 10.582031 C 6.351562 11.753906 7.296875 12.699219 8.464844 12.699219 C 9.636719 12.699219 10.582031 11.753906 10.582031 10.582031 C 10.582031 9.578125 9.875 8.714844 8.890625 8.511719 L 8.890625 7.628906 L 10.15625 7.628906 C 10.308594 7.632812 10.449219 7.550781 10.527344 7.417969 C 10.601562 7.289062 10.601562 7.125 10.527344 6.996094 C 10.449219 6.863281 10.308594 6.78125 10.15625 6.785156 L 8.890625 6.785156 L 8.890625 5.519531 C 8.890625 5.367188 8.921875 5.328125 8.996094 5.269531 C 9.074219 5.207031 9.21875 5.144531 9.390625 5.113281 C 9.726562 5.050781 10.105469 5.09375 10.105469 5.09375 C 10.253906 5.113281 10.402344 5.050781 10.496094 4.929688 C 10.585938 4.808594 10.609375 4.648438 10.546875 4.507812 C 10.488281 4.371094 10.359375 4.273438 10.210938 4.253906 C 10.210938 4.253906 10.09375 4.238281 9.910156 4.234375 Z M 8.378906 9.316406 C 8.382812 9.316406 8.386719 9.316406 8.390625 9.316406 C 8.4375 9.324219 8.488281 9.324219 8.535156 9.316406 C 9.207031 9.351562 9.734375 9.910156 9.738281 10.582031 C 9.738281 11.285156 9.167969 11.851562 8.464844 11.851562 C 7.765625 11.851562 7.195312 11.285156 7.195312 10.582031 C 7.195312 9.917969 7.710938 9.363281 8.378906 9.316406 Z M 8.378906 9.316406 "/>
</svg>
