<?xml version="1.0" encoding="UTF-8"?>
<svg xmlns="http://www.w3.org/2000/svg" xmlns:xlink="http://www.w3.org/1999/xlink" width="64" height="64" viewBox="0 0 64 64">
<defs>
<filter id="filter-remove-color" x="0%" y="0%" width="100%" height="100%">
<feColorMatrix color-interpolation-filters="sRGB" values="0 0 0 0 1 0 0 0 0 1 0 0 0 0 1 0 0 0 1 0" />
</filter>
<mask id="mask-0">
<g filter="url(#filter-remove-color)">
<rect x="-6.4" y="-6.4" width="76.8" height="76.8" fill="rgb(0%, 0%, 0%)" fill-opacity="0.25"/>
</g>
</mask>
<clipPath id="clip-0">
<rect x="0" y="0" width="17" height="17"/>
</clipPath>
<g id="source-3229" clip-path="url(#clip-0)">
<path fill-rule="nonzero" fill="rgb(0%, 0%, 0%)" fill-opacity="1" d="M 14.289062 8.460938 C 14.289062 11.675781 11.683594 14.28125 8.46875 14.28125 C 5.253906 14.28125 2.644531 11.675781 2.644531 8.460938 C 2.644531 5.246094 5.253906 2.640625 8.46875 2.640625 C 11.683594 2.640625 14.289062 5.246094 14.289062 8.460938 Z M 14.289062 8.460938 "/>
</g>
</defs>
<path fill-rule="nonzero" fill="rgb(50.588235%, 26.666667%, 63.921569%)" fill-opacity="1" d="M 15.609375 8.460938 C 15.609375 12.40625 12.410156 15.605469 8.464844 15.605469 C 4.519531 15.605469 1.324219 12.40625 1.324219 8.460938 C 1.324219 4.515625 4.519531 1.316406 8.464844 1.316406 C 12.410156 1.316406 15.609375 4.515625 15.609375 8.460938 Z M 15.609375 8.460938 "/>
<g mask="url(#mask-0)">
<use xlink:href="#source-3229"/>
</g>
<path fill-rule="nonzero" fill="rgb(100%, 100%, 100%)" fill-opacity="1" d="M 6.5625 11.003906 C 6.5625 11.355469 6.277344 11.636719 5.925781 11.636719 C 5.578125 11.636719 5.292969 11.355469 5.292969 11.003906 C 5.292969 10.652344 5.578125 10.367188 5.925781 10.367188 C 6.277344 10.367188 6.5625 10.652344 6.5625 11.003906 Z M 6.5625 11.003906 "/>
<path fill-rule="nonzero" fill="rgb(100%, 33.333333%, 33.333333%)" fill-opacity="1" d="M 8.253906 11.003906 C 8.253906 11.355469 7.96875 11.636719 7.621094 11.636719 C 7.269531 11.636719 6.984375 11.355469 6.984375 11.003906 C 6.984375 10.652344 7.269531 10.367188 7.621094 10.367188 C 7.96875 10.367188 8.253906 10.652344 8.253906 11.003906 Z M 8.253906 11.003906 "/>
<path fill-rule="nonzero" fill="rgb(100%, 100%, 100%)" fill-opacity="1" d="M 9.949219 11.003906 C 9.949219 11.355469 9.664062 11.636719 9.3125 11.636719 C 8.960938 11.636719 8.679688 11.355469 8.679688 11.003906 C 8.679688 10.652344 8.960938 10.367188 9.3125 10.367188 C 9.664062 10.367188 9.949219 10.652344 9.949219 11.003906 Z M 11.640625 11.003906 C 11.640625 11.355469 11.359375 11.636719 11.007812 11.636719 C 10.65625 11.636719 10.371094 11.355469 10.371094 11.003906 C 10.371094 10.652344 10.65625 10.367188 11.007812 10.367188 C 11.359375 10.367188 11.640625 10.652344 11.640625 11.003906 Z M 11.640625 11.003906 "/>
<path fill-rule="nonzero" fill="rgb(100%, 33.333333%, 33.333333%)" fill-opacity="1" d="M 6.5625 9.308594 C 6.5625 9.660156 6.277344 9.945312 5.925781 9.945312 C 5.578125 9.945312 5.292969 9.660156 5.292969 9.308594 C 5.292969 8.960938 5.578125 8.675781 5.925781 8.675781 C 6.277344 8.675781 6.5625 8.960938 6.5625 9.308594 Z M 6.5625 9.308594 "/>
<path fill-rule="nonzero" fill="rgb(100%, 100%, 100%)" fill-opacity="1" d="M 8.253906 9.308594 C 8.253906 9.660156 7.96875 9.945312 7.621094 9.945312 C 7.269531 9.945312 6.984375 9.660156 6.984375 9.308594 C 6.984375 8.960938 7.269531 8.675781 7.621094 8.675781 C 7.96875 8.675781 8.253906 8.960938 8.253906 9.308594 Z M 8.253906 9.308594 "/>
<path fill-rule="nonzero" fill="rgb(100%, 33.333333%, 33.333333%)" fill-opacity="1" d="M 9.949219 9.308594 C 9.949219 9.660156 9.664062 9.945312 9.3125 9.945312 C 8.960938 9.945312 8.679688 9.660156 8.679688 9.308594 C 8.679688 8.960938 8.960938 8.675781 9.3125 8.675781 C 9.664062 8.675781 9.949219 8.960938 9.949219 9.308594 Z M 11.640625 9.308594 C 11.640625 9.660156 11.359375 9.945312 11.007812 9.945312 C 10.65625 9.945312 10.371094 9.660156 10.371094 9.308594 C 10.371094 8.960938 10.65625 8.675781 11.007812 8.675781 C 11.359375 8.675781 11.640625 8.960938 11.640625 9.308594 Z M 11.640625 9.308594 "/>
<path fill-rule="nonzero" fill="rgb(100%, 100%, 100%)" fill-opacity="1" d="M 9.949219 7.617188 C 9.949219 7.96875 9.664062 8.253906 9.3125 8.253906 C 8.960938 8.253906 8.679688 7.96875 8.679688 7.617188 C 8.679688 7.265625 8.960938 6.980469 9.3125 6.980469 C 9.664062 6.980469 9.949219 7.265625 9.949219 7.617188 Z M 9.949219 7.617188 "/>
<path fill-rule="nonzero" fill="rgb(100%, 33.333333%, 33.333333%)" fill-opacity="1" d="M 11.640625 7.617188 C 11.640625 7.96875 11.359375 8.253906 11.007812 8.253906 C 10.65625 8.253906 10.371094 7.96875 10.371094 7.617188 C 10.371094 7.265625 10.65625 6.980469 11.007812 6.980469 C 11.359375 6.980469 11.640625 7.265625 11.640625 7.617188 Z M 11.640625 7.617188 "/>
<path fill-rule="nonzero" fill="rgb(100%, 100%, 100%)" fill-opacity="1" d="M 11.640625 5.921875 C 11.640625 6.273438 11.359375 6.558594 11.007812 6.558594 C 10.65625 6.558594 10.371094 6.273438 10.371094 5.921875 C 10.371094 5.574219 10.65625 5.289062 11.007812 5.289062 C 11.359375 5.289062 11.640625 5.574219 11.640625 5.921875 Z M 11.640625 5.921875 "/>
</svg>
