<?xml version="1.0" encoding="UTF-8"?>
<svg xmlns="http://www.w3.org/2000/svg" xmlns:xlink="http://www.w3.org/1999/xlink" width="64" height="64" viewBox="0 0 64 64">
<path fill-rule="nonzero" fill="rgb(20.392157%, 69.019608%, 36.078431%)" fill-opacity="1" d="M 15.609375 8.460938 C 15.609375 12.40625 12.410156 15.605469 8.464844 15.605469 C 4.519531 15.605469 1.324219 12.40625 1.324219 8.460938 C 1.324219 4.515625 4.519531 1.316406 8.464844 1.316406 C 12.410156 1.316406 15.609375 4.515625 15.609375 8.460938 Z M 15.609375 8.460938 "/>
<path fill-rule="nonzero" fill="rgb(100%, 100%, 100%)" fill-opacity="1" d="M 4.230469 6.980469 L 8.464844 5.289062 L 12.699219 6.980469 L 8.464844 8.675781 "/>
<path fill-rule="nonzero" fill="rgb(100%, 100%, 100%)" fill-opacity="1" d="M 10.585938 10.691406 C 10.585938 11.214844 9.636719 11.640625 8.46875 11.640625 C 7.300781 11.640625 6.351562 11.214844 6.351562 10.691406 C 6.351562 10.164062 7.300781 9.738281 8.46875 9.738281 C 9.636719 9.738281 10.585938 10.164062 10.585938 10.691406 Z M 10.585938 10.691406 "/>
<path fill-rule="nonzero" fill="rgb(100%, 100%, 100%)" fill-opacity="1" d="M 6.351562 8.464844 L 6.351562 10.6875 L 10.585938 10.6875 L 10.585938 8.464844 L 8.464844 9.359375 M 11.640625 6.929688 L 12.171875 6.929688 L 12.171875 8.78125 L 11.640625 8.78125 Z M 11.640625 6.929688 "/>
<path fill-rule="nonzero" fill="rgb(100%, 100%, 100%)" fill-opacity="1" d="M 12.566406 8.75 C 12.566406 9.117188 12.273438 9.410156 11.90625 9.410156 C 11.539062 9.410156 11.242188 9.117188 11.242188 8.75 C 11.242188 8.382812 11.539062 8.089844 11.90625 8.089844 C 12.273438 8.089844 12.566406 8.382812 12.566406 8.75 Z M 12.566406 8.75 "/>
<path fill-rule="evenodd" fill="rgb(100%, 100%, 100%)" fill-opacity="1" d="M 11.734375 9.121094 L 11.3125 10.578125 L 12.582031 10.578125 L 12.15625 9.121094 Z M 11.734375 9.121094 "/>
</svg>
