<?xml version="1.0" encoding="UTF-8"?>
<svg xmlns="http://www.w3.org/2000/svg" xmlns:xlink="http://www.w3.org/1999/xlink" width="64" height="64" viewBox="0 0 64 64">
<path fill-rule="nonzero" fill="rgb(27.843137%, 41.568627%, 80%)" fill-opacity="1" d="M 15.609375 8.464844 C 15.609375 12.410156 12.410156 15.609375 8.464844 15.609375 C 4.519531 15.609375 1.324219 12.410156 1.324219 8.464844 C 1.324219 4.519531 4.519531 1.324219 8.464844 1.324219 C 12.410156 1.324219 15.609375 4.519531 15.609375 8.464844 Z M 15.609375 8.464844 "/>
<path fill-rule="nonzero" fill="rgb(100%, 100%, 100%)" fill-opacity="1" d="M 8.464844 5.707031 C 5.015625 5.707031 3.980469 6.746094 3.980469 11.058594 C 3.980469 11.746094 6.394531 10.195312 7.085938 9.160156 L 9.847656 9.160156 C 10.535156 10.195312 12.953125 11.738281 12.953125 11.058594 C 12.953125 6.742188 11.917969 5.707031 8.464844 5.707031 Z M 10.535156 6.742188 C 10.726562 6.742188 10.882812 6.894531 10.882812 7.085938 C 10.882812 7.277344 10.726562 7.429688 10.535156 7.429688 C 10.347656 7.429688 10.191406 7.277344 10.191406 7.085938 C 10.191406 6.894531 10.347656 6.742188 10.535156 6.742188 Z M 6.394531 6.746094 L 6.742188 6.746094 L 6.742188 7.433594 L 7.429688 7.433594 L 7.429688 7.78125 L 6.742188 7.78125 L 6.742188 8.46875 L 6.394531 8.46875 L 6.394531 7.78125 L 5.707031 7.78125 L 5.707031 7.433594 L 6.394531 7.433594 Z M 9.847656 7.429688 C 10.039062 7.429688 10.191406 7.585938 10.191406 7.777344 C 10.191406 7.96875 10.039062 8.121094 9.847656 8.121094 C 9.65625 8.121094 9.5 7.96875 9.5 7.777344 C 9.5 7.585938 9.65625 7.429688 9.847656 7.429688 Z M 11.226562 7.429688 C 11.417969 7.429688 11.574219 7.585938 11.574219 7.777344 C 11.574219 7.96875 11.417969 8.121094 11.226562 8.121094 C 11.035156 8.121094 10.882812 7.96875 10.882812 7.777344 C 10.882812 7.585938 11.035156 7.429688 11.226562 7.429688 Z M 10.535156 8.121094 C 10.726562 8.121094 10.882812 8.277344 10.882812 8.464844 C 10.882812 8.65625 10.726562 8.8125 10.535156 8.8125 C 10.347656 8.8125 10.191406 8.65625 10.191406 8.464844 C 10.191406 8.277344 10.347656 8.121094 10.535156 8.121094 Z M 10.535156 8.121094 "/>
</svg>
