<?xml version="1.0" encoding="UTF-8"?>
<svg xmlns="http://www.w3.org/2000/svg" xmlns:xlink="http://www.w3.org/1999/xlink" width="64" height="64" viewBox="0 0 64 64">
<path fill-rule="nonzero" fill="rgb(95.686275%, 25.098039%, 25.098039%)" fill-opacity="1" d="M 8.464844 1.324219 C 4.519531 1.324219 1.324219 4.519531 1.324219 8.464844 C 1.324219 12.410156 4.519531 15.609375 8.464844 15.609375 C 8.554688 15.609375 8.644531 15.605469 8.730469 15.601562 L 8.730469 1.335938 C 8.644531 1.332031 8.554688 1.324219 8.464844 1.324219 Z M 8.464844 1.324219 "/>
<path fill-rule="nonzero" fill="rgb(92.54902%, 92.54902%, 92.54902%)" fill-opacity="1" d="M 8.730469 1.332031 L 8.730469 15.597656 C 12.566406 15.453125 15.605469 12.304688 15.609375 8.464844 C 15.609375 4.625 12.570312 1.472656 8.730469 1.332031 Z M 8.730469 1.332031 "/>
<path fill-rule="nonzero" fill="rgb(83.921569%, 16.078431%, 16.078431%)" fill-opacity="1" d="M 8.464844 1.324219 L 8.464844 15.609375 C 11.242188 15.609375 13.492188 12.410156 13.492188 8.464844 C 13.492188 4.519531 11.242188 1.324219 8.464844 1.324219 Z M 8.464844 1.324219 "/>
<path fill-rule="nonzero" fill="rgb(100%, 100%, 100%)" fill-opacity="1" d="M 7.886719 4.5 C 7.804688 4.488281 7.726562 4.539062 7.644531 4.683594 C 7.507812 4.910156 7.449219 5.546875 7.558594 6.15625 C 7.59375 6.367188 7.675781 6.671875 7.78125 7.003906 C 7.699219 7.3125 7.601562 7.640625 7.496094 7.96875 C 7.085938 9.261719 6.203125 10.613281 5.738281 11.34375 C 5.441406 11.800781 4.734375 12.339844 4.671875 12.234375 C 4.613281 12.132812 4.8125 11.894531 5.0625 11.519531 C 5.308594 11.144531 5.945312 10.753906 5.945312 10.753906 C 5.945312 10.753906 5.671875 10.742188 4.980469 11.355469 C 4.285156 11.96875 4.496094 12.273438 4.660156 12.363281 C 4.824219 12.460938 5.285156 12.824219 6.851562 10.109375 C 7.421875 9.117188 7.753906 8.214844 7.945312 7.464844 C 8.144531 7.976562 8.398438 8.496094 8.683594 8.820312 C 8.847656 9.011719 9.0625 9.195312 9.304688 9.363281 C 9.113281 9.398438 8.898438 9.4375 8.601562 9.492188 C 7.523438 9.6875 6.984375 10.113281 6.972656 10.125 C 6.980469 10.121094 8.238281 9.722656 9.570312 9.539062 C 10.097656 9.859375 10.699219 10.105469 11.199219 10.203125 C 11.976562 10.359375 12.191406 10.074219 12.214844 10.039062 C 12.183594 10.0625 12.082031 10.109375 11.761719 10.082031 C 11.503906 10.0625 10.796875 9.859375 10.082031 9.476562 C 11.5625 9.339844 12.074219 9.492188 12.207031 9.597656 C 12.339844 9.703125 12.339844 9.820312 12.339844 9.820312 C 12.339844 9.820312 12.507812 9.65625 12.398438 9.488281 C 12.304688 9.316406 12.15625 9.171875 10.96875 9.210938 C 10.382812 9.226562 10.0625 9.246094 9.761719 9.289062 C 9.398438 9.0625 9.054688 8.796875 8.78125 8.472656 C 8.414062 8.039062 8.191406 7.539062 8.042969 7.050781 C 8.261719 5.996094 8.195312 5.34375 8.195312 5.335938 C 8.195312 5.335938 8.082031 5.839844 7.910156 6.507812 C 7.8125 6.003906 7.78125 5.539062 7.75 5.210938 C 7.691406 4.453125 8.03125 4.664062 8.078125 4.761719 C 8.15625 4.824219 8.191406 5.03125 8.191406 5.03125 C 8.191406 5.03125 8.167969 4.71875 8.03125 4.585938 C 7.980469 4.539062 7.933594 4.507812 7.886719 4.5 Z M 6.972656 10.125 C 6.972656 10.125 6.96875 10.125 6.96875 10.125 C 6.96875 10.125 6.972656 10.125 6.972656 10.125 Z M 6.972656 10.125 "/>
<path fill-rule="nonzero" fill="rgb(24.313725%, 59.215686%, 94.901961%)" fill-opacity="1" d="M 16.40625 12.171875 C 16.40625 14.507812 14.507812 16.40625 12.171875 16.40625 C 9.832031 16.40625 7.9375 14.507812 7.9375 12.171875 C 7.9375 9.832031 9.832031 7.9375 12.171875 7.9375 C 14.507812 7.9375 16.40625 9.832031 16.40625 12.171875 Z M 16.40625 12.171875 "/>
<path fill-rule="nonzero" fill="rgb(100%, 100%, 100%)" fill-opacity="1" d="M 10.054688 13.34375 L 10.054688 14.285156 L 10.996094 14.285156 L 13.378906 11.90625 L 12.433594 10.960938 Z M 14.210938 11.074219 C 14.3125 10.976562 14.3125 10.816406 14.210938 10.71875 L 13.625 10.128906 C 13.523438 10.027344 13.367188 10.027344 13.265625 10.128906 L 12.773438 10.625 L 13.714844 11.566406 Z M 14.210938 11.074219 "/>
</svg>
