<?xml version="1.0" encoding="UTF-8"?>
<svg xmlns="http://www.w3.org/2000/svg" xmlns:xlink="http://www.w3.org/1999/xlink" width="64" height="64" viewBox="0 0 64 64">
<path fill-rule="nonzero" fill="rgb(94.901961%, 94.901961%, 94.901961%)" fill-opacity="1" d="M 32 5 C 46.910156 5 59 17.089844 59 32 C 59 46.910156 46.910156 59 32 59 C 17.089844 59 5 46.910156 5 32 C 5 17.089844 17.089844 5 32 5 Z M 32 5 "/>
<path fill-rule="nonzero" fill="rgb(20%, 40.392157%, 55.686275%)" fill-opacity="1" d="M 48.679688 36.1875 C 44.171875 37.078125 43.863281 35.605469 43.863281 35.605469 C 48.621094 28.8125 50.605469 20.179688 48.890625 18.066406 C 44.207031 12.308594 36.109375 15.03125 35.96875 15.105469 L 35.925781 15.109375 C 35.039062 14.9375 34.042969 14.828125 32.921875 14.8125 C 30.886719 14.78125 29.339844 15.328125 28.164062 16.1875 C 28.164062 16.1875 13.71875 10.449219 14.382812 23.398438 C 14.527344 26.152344 18.480469 44.246094 23.199219 38.789062 C 24.925781 36.792969 26.589844 35.105469 26.589844 35.105469 C 27.417969 35.636719 28.410156 35.90625 29.449219 35.808594 L 29.523438 35.742188 C 29.503906 35.992188 29.511719 36.234375 29.5625 36.523438 C 28.34375 37.832031 28.703125 38.058594 26.273438 38.546875 C 23.816406 39.035156 25.253906 39.902344 26.195312 40.132812 C 27.34375 40.40625 29.988281 40.796875 31.777344 38.390625 L 31.703125 38.664062 C 32.179688 39.035156 32.515625 41.050781 32.460938 42.890625 C 32.40625 44.726562 32.367188 45.980469 32.742188 46.964844 C 33.113281 47.949219 33.488281 50.164062 36.679688 49.503906 C 39.355469 48.957031 40.734375 47.527344 40.925781 45.144531 C 41.0625 43.449219 41.371094 43.699219 41.394531 42.183594 L 41.636719 41.46875 C 41.921875 39.167969 41.679688 38.425781 43.324219 38.777344 L 43.726562 38.8125 C 44.9375 38.863281 46.523438 38.621094 47.449219 38.203125 C 49.449219 37.3125 50.640625 35.816406 48.667969 36.207031 "/>
<path fill="none" stroke-width="0.141" stroke-linecap="round" stroke-linejoin="round" stroke="rgb(97.647059%, 97.647059%, 97.647059%)" stroke-opacity="1" stroke-miterlimit="4" d="M 6.769124 7.893355 C 6.743656 8.763236 6.776286 9.637893 6.863832 9.852776 C 6.952173 10.066068 7.142384 10.476735 7.792607 10.346213 C 8.335387 10.233996 8.535149 10.014337 8.620307 9.536818 C 8.68318 9.184249 8.804947 8.203743 8.820865 8.002389 " transform="matrix(4.908179, 0, 0, 4.908179, -1.2436, -1.242)"/>
<path fill="none" stroke-width="0.141" stroke-linecap="round" stroke-linejoin="round" stroke="rgb(97.647059%, 97.647059%, 97.647059%)" stroke-opacity="1" stroke-miterlimit="4" d="M 5.989971 3.529625 C 5.989971 3.529625 3.042881 2.370049 3.181362 5.008343 C 3.210809 5.568632 4.017021 9.255877 4.97763 8.14087 C 5.328607 7.733387 5.646157 7.411857 5.646157 7.411857 " transform="matrix(4.908179, 0, 0, 4.908179, -1.2436, -1.242)"/>
<path fill="none" stroke-width="0.141" stroke-linecap="round" stroke-linejoin="round" stroke="rgb(97.647059%, 97.647059%, 97.647059%)" stroke-opacity="1" stroke-miterlimit="4" d="M 7.580906 3.317925 C 7.475852 3.348964 9.218002 2.705109 10.208058 3.922783 C 10.559035 4.353346 10.153144 6.109025 9.185371 7.496219 " transform="matrix(4.908179, 0, 0, 4.908179, -1.2436, -1.242)"/>
<path fill="none" stroke-width="0.141" stroke-linecap="round" stroke-linejoin="bevel" stroke="rgb(97.647059%, 97.647059%, 97.647059%)" stroke-opacity="1" stroke-miterlimit="4" d="M 9.185371 7.497014 C 9.185371 7.497014 9.248244 7.797852 10.165081 7.614803 C 10.564606 7.536808 10.325846 7.840828 9.916771 8.023877 C 9.583304 8.174296 8.829619 8.209314 8.820069 8.003185 C 8.786643 7.468363 9.215614 7.63072 9.185371 7.497014 C 9.154332 7.377635 8.965712 7.259847 8.839965 6.966968 C 8.730136 6.709904 7.330209 4.736953 9.228348 5.029832 C 9.295201 5.016302 8.73332 3.289274 6.956152 3.262214 C 5.178984 3.234359 5.236287 5.368074 5.236287 5.368074 " transform="matrix(4.908179, 0, 0, 4.908179, -1.2436, -1.242)"/>
<path fill="none" stroke-width="0.141" stroke-linecap="round" stroke-linejoin="round" stroke="rgb(97.647059%, 97.647059%, 97.647059%)" stroke-opacity="1" stroke-miterlimit="4" d="M 6.271708 7.680064 C 6.024193 7.949066 6.098209 7.992043 5.602385 8.09073 C 5.10099 8.190213 5.397847 8.369283 5.589651 8.413851 C 5.82284 8.470358 6.36164 8.55074 6.726147 8.0581 C 6.836772 7.907681 6.725351 7.669717 6.574137 7.609231 C 6.499325 7.579784 6.40223 7.543175 6.274891 7.680064 M 6.274891 7.680064 " transform="matrix(4.908179, 0, 0, 4.908179, -1.2436, -1.242)"/>
<path fill="none" stroke-width="0.141" stroke-linecap="round" stroke-linejoin="round" stroke="rgb(97.647059%, 97.647059%, 97.647059%)" stroke-opacity="1" stroke-miterlimit="4" d="M 6.25579 7.675288 C 6.231118 7.516911 6.309113 7.33227 6.392679 7.114203 C 6.519222 6.787102 6.811304 6.459206 6.578116 5.421397 C 6.403821 4.64702 5.238674 5.259837 5.236287 5.365687 C 5.236287 5.473129 5.288814 5.897325 5.21639 6.397128 C 5.121682 7.044963 5.645362 7.59411 6.247036 7.537604 " transform="matrix(4.908179, 0, 0, 4.908179, -1.2436, -1.242)"/>
<path fill-rule="nonzero" fill="rgb(100%, 100%, 100%)" fill-opacity="1" stroke-width="0.141" stroke-linecap="butt" stroke-linejoin="miter" stroke="rgb(97.647059%, 97.647059%, 97.647059%)" stroke-opacity="1" stroke-miterlimit="4" d="M 5.978033 5.348178 C 5.970075 5.383992 6.043294 5.4787 6.14039 5.492229 C 6.235894 5.504963 6.316276 5.429356 6.322643 5.394338 C 6.32901 5.357728 6.25579 5.318731 6.160286 5.305997 C 6.063987 5.293263 5.982808 5.312364 5.978033 5.348178 " transform="matrix(4.908179, 0, 0, 4.908179, -1.2436, -1.242)"/>
<path fill-rule="nonzero" fill="rgb(100%, 100%, 100%)" fill-opacity="1" stroke-width="0.071" stroke-linecap="butt" stroke-linejoin="miter" stroke="rgb(97.647059%, 97.647059%, 97.647059%)" stroke-opacity="1" stroke-miterlimit="4" d="M 8.886922 5.274958 C 8.89488 5.310772 8.820865 5.406276 8.723769 5.41901 C 8.626674 5.429356 8.548679 5.353749 8.54072 5.321118 C 8.535149 5.285304 8.608369 5.246307 8.703872 5.232777 C 8.800172 5.220043 8.88135 5.239144 8.886126 5.274958 " transform="matrix(4.908179, 0, 0, 4.908179, -1.2436, -1.242)"/>
<path fill="none" stroke-width="0.141" stroke-linecap="round" stroke-linejoin="round" stroke="rgb(97.647059%, 97.647059%, 97.647059%)" stroke-opacity="1" stroke-miterlimit="4" d="M 9.228348 5.029832 C 9.241082 5.310772 9.163883 5.503371 9.152741 5.801821 C 9.140007 6.236364 9.367624 6.735371 9.02381 7.232787 " transform="matrix(4.908179, 0, 0, 4.908179, -1.2436, -1.242)"/>
</svg>
