<?xml version="1.0" encoding="UTF-8"?>
<svg xmlns="http://www.w3.org/2000/svg" xmlns:xlink="http://www.w3.org/1999/xlink" width="64" height="64" viewBox="0 0 64 64">
<path fill-rule="nonzero" fill="rgb(36.078431%, 52.54902%, 71.764706%)" fill-opacity="1" d="M 15.609375 8.460938 C 15.609375 12.40625 12.410156 15.605469 8.464844 15.605469 C 4.519531 15.605469 1.324219 12.40625 1.324219 8.460938 C 1.324219 4.515625 4.519531 1.316406 8.464844 1.316406 C 12.410156 1.316406 15.609375 4.515625 15.609375 8.460938 Z M 15.609375 8.460938 "/>
<path fill-rule="evenodd" fill="rgb(100%, 100%, 100%)" fill-opacity="1" d="M 4.234375 10.460938 L 4.886719 7.285156 L 6.386719 7.285156 C 7.035156 7.328125 7.359375 7.640625 7.359375 8.1875 C 7.359375 9.128906 6.589844 9.675781 5.898438 9.640625 L 5.167969 9.640625 L 5.003906 10.464844 L 4.234375 10.464844 M 5.332031 9.050781 L 5.535156 7.875 L 6.0625 7.875 C 6.347656 7.875 6.550781 7.992188 6.550781 8.230469 C 6.507812 8.894531 6.183594 9.011719 5.820312 9.050781 M 5.332031 9.050781 "/>
<path fill-rule="nonzero" fill="rgb(100%, 100%, 100%)" fill-opacity="1" d="M 7.117188 9.636719 L 7.769531 6.464844 L 8.539062 6.464844 L 8.378906 7.285156 L 9.109375 7.285156 C 9.757812 7.324219 10.003906 7.640625 9.921875 8.03125 L 9.636719 9.636719 L 8.824219 9.636719 L 9.109375 8.1875 C 9.148438 7.992188 9.148438 7.875 8.863281 7.875 L 8.257812 7.875 L 7.890625 9.636719 L 7.121094 9.636719 M 7.121094 9.636719 "/>
<path fill-rule="evenodd" fill="rgb(100%, 100%, 100%)" fill-opacity="1" d="M 9.570312 10.460938 L 10.222656 7.285156 L 11.726562 7.285156 C 12.375 7.328125 12.699219 7.640625 12.699219 8.1875 C 12.699219 9.128906 11.929688 9.675781 11.238281 9.640625 L 10.507812 9.640625 L 10.34375 10.464844 M 10.667969 9.050781 L 10.871094 7.875 L 11.398438 7.875 C 11.683594 7.875 11.886719 7.992188 11.886719 8.230469 C 11.847656 8.894531 11.523438 9.011719 11.15625 9.050781 M 10.667969 9.050781 "/>
</svg>
