<?xml version="1.0" encoding="UTF-8"?>
<svg xmlns="http://www.w3.org/2000/svg" xmlns:xlink="http://www.w3.org/1999/xlink" width="64" height="64" viewBox="0 0 64 64">
<path fill-rule="nonzero" fill="rgb(78.431373%, 43.529412%, 76.470588%)" fill-opacity="1" d="M 15.609375 8.464844 C 15.609375 12.410156 12.410156 15.609375 8.464844 15.609375 C 4.519531 15.609375 1.324219 12.410156 1.324219 8.464844 C 1.324219 4.519531 4.519531 1.324219 8.464844 1.324219 C 12.410156 1.324219 15.609375 4.519531 15.609375 8.464844 Z M 15.609375 8.464844 "/>
<path fill-rule="nonzero" fill="rgb(18.823529%, 18.823529%, 18.823529%)" fill-opacity="1" d="M 5.820312 4.496094 L 11.113281 4.496094 C 11.84375 4.496094 12.433594 5.089844 12.433594 5.820312 L 12.433594 11.113281 C 12.433594 11.84375 11.84375 12.433594 11.113281 12.433594 L 5.820312 12.433594 C 5.089844 12.433594 4.496094 11.84375 4.496094 11.113281 L 4.496094 5.820312 C 4.496094 5.089844 5.089844 4.496094 5.820312 4.496094 Z M 5.820312 4.496094 "/>
<path fill-rule="nonzero" fill="rgb(97.647059%, 97.647059%, 97.647059%)" fill-opacity="1" d="M 5.050781 10.949219 L 8.15625 10.949219 L 8.15625 11.570312 L 5.050781 11.570312 Z M 5.050781 10.949219 "/>
<path fill-rule="nonzero" fill="rgb(97.647059%, 97.647059%, 97.647059%)" fill-opacity="1" d="M 5.671875 5.359375 L 5.671875 8.777344 L 6.292969 8.777344 L 6.292969 7.535156 L 6.914062 7.535156 C 7.660156 7.535156 8.15625 7.230469 8.15625 6.460938 L 8.15625 6.445312 C 8.15625 5.753906 7.820312 5.359375 7.015625 5.359375 Z M 10.027344 5.359375 C 9.355469 5.359375 8.769531 5.699219 8.769531 6.316406 L 8.769531 6.335938 C 8.769531 6.765625 9.203125 7.152344 9.878906 7.320312 C 10.4375 7.46875 10.648438 7.605469 10.648438 7.792969 L 10.648438 7.808594 C 10.648438 8.015625 10.328125 8.15625 10.027344 8.15625 C 9.652344 8.15625 9.394531 8.015625 9.09375 7.773438 L 8.691406 8.210938 C 9.082031 8.566406 9.523438 8.757812 10.027344 8.777344 C 10.738281 8.777344 11.257812 8.332031 11.257812 7.753906 L 11.257812 7.734375 C 11.257812 7.222656 10.855469 7.011719 10.183594 6.824219 C 9.621094 6.675781 9.40625 6.570312 9.40625 6.34375 L 9.40625 6.285156 C 9.40625 6.117188 9.746094 5.980469 10.027344 5.980469 C 10.308594 5.980469 10.519531 6 10.816406 6.207031 L 11.164062 5.734375 C 10.808594 5.523438 10.511719 5.359375 10.027344 5.359375 Z M 6.292969 5.980469 L 6.914062 5.980469 C 7.289062 5.980469 7.535156 6.109375 7.535156 6.445312 L 7.535156 6.460938 C 7.535156 6.742188 7.289062 6.914062 6.914062 6.914062 L 6.292969 6.914062 Z M 6.292969 5.980469 "/>
</svg>
