<?xml version="1.0" encoding="UTF-8"?>
<svg xmlns="http://www.w3.org/2000/svg" xmlns:xlink="http://www.w3.org/1999/xlink" width="64" height="64" viewBox="0 0 64 64">
<defs>
<filter id="filter-remove-color" x="0%" y="0%" width="100%" height="100%">
<feColorMatrix color-interpolation-filters="sRGB" values="0 0 0 0 1 0 0 0 0 1 0 0 0 0 1 0 0 0 1 0" />
</filter>
<mask id="mask-0">
<g filter="url(#filter-remove-color)">
<rect x="-6.4" y="-6.4" width="76.8" height="76.8" fill="rgb(0%, 0%, 0%)" fill-opacity="0.837"/>
</g>
</mask>
<clipPath id="clip-0">
<rect x="0" y="0" width="17" height="17"/>
</clipPath>
<g id="source-13923" clip-path="url(#clip-0)">
<path fill-rule="nonzero" fill="rgb(100%, 60%, 33.333333%)" fill-opacity="1" d="M 10.222656 10.304688 C 10.222656 10.546875 10.027344 10.738281 9.789062 10.738281 C 9.550781 10.738281 9.355469 10.546875 9.355469 10.304688 C 9.355469 10.066406 9.550781 9.875 9.789062 9.875 C 10.027344 9.875 10.222656 10.066406 10.222656 10.304688 Z M 10.222656 10.304688 "/>
</g>
<mask id="mask-1">
<g filter="url(#filter-remove-color)">
<rect x="-6.4" y="-6.4" width="76.8" height="76.8" fill="rgb(0%, 0%, 0%)" fill-opacity="0.837"/>
</g>
</mask>
<clipPath id="clip-1">
<rect x="0" y="0" width="17" height="17"/>
</clipPath>
<g id="source-13927" clip-path="url(#clip-1)">
<path fill-rule="nonzero" fill="rgb(100%, 60%, 33.333333%)" fill-opacity="1" d="M 11.207031 10.304688 C 11.207031 10.546875 11.011719 10.738281 10.773438 10.738281 C 10.535156 10.738281 10.339844 10.546875 10.339844 10.304688 C 10.339844 10.066406 10.535156 9.875 10.773438 9.875 C 11.011719 9.875 11.207031 10.066406 11.207031 10.304688 Z M 11.207031 10.304688 "/>
</g>
<mask id="mask-2">
<g filter="url(#filter-remove-color)">
<rect x="-6.4" y="-6.4" width="76.8" height="76.8" fill="rgb(0%, 0%, 0%)" fill-opacity="0.837"/>
</g>
</mask>
<clipPath id="clip-2">
<rect x="0" y="0" width="17" height="17"/>
</clipPath>
<g id="source-13931" clip-path="url(#clip-2)">
<path fill-rule="nonzero" fill="rgb(100%, 60%, 33.333333%)" fill-opacity="1" d="M 12.242188 10.304688 C 12.242188 10.546875 12.050781 10.738281 11.808594 10.738281 C 11.570312 10.738281 11.378906 10.546875 11.378906 10.304688 C 11.378906 10.066406 11.570312 9.875 11.808594 9.875 C 12.050781 9.875 12.242188 10.066406 12.242188 10.304688 Z M 12.242188 10.304688 "/>
</g>
</defs>
<path fill-rule="nonzero" fill="rgb(97.647059%, 97.647059%, 97.647059%)" fill-opacity="1" d="M 15.609375 8.464844 C 15.609375 12.410156 12.410156 15.609375 8.464844 15.609375 C 4.519531 15.609375 1.324219 12.410156 1.324219 8.464844 C 1.324219 4.519531 4.519531 1.324219 8.464844 1.324219 C 12.410156 1.324219 15.609375 4.519531 15.609375 8.464844 Z M 15.609375 8.464844 "/>
<path fill-rule="nonzero" fill="rgb(44.313725%, 30.980392%, 47.45098%)" fill-opacity="1" d="M 11.824219 5.296875 C 10.925781 4.566406 9.734375 4.164062 8.464844 4.164062 C 7.199219 4.164062 6.007812 4.566406 5.109375 5.296875 C 4.203125 6.035156 3.703125 7.019531 3.703125 8.066406 C 3.703125 9.0625 4.160156 10.003906 4.988281 10.730469 C 4.972656 10.761719 4.960938 10.796875 4.953125 10.835938 L 4.679688 12.175781 C 4.648438 12.332031 4.691406 12.429688 4.734375 12.480469 C 4.78125 12.539062 4.855469 12.574219 4.9375 12.574219 C 5 12.574219 5.066406 12.554688 5.136719 12.519531 L 6.722656 11.695312 C 7.269531 11.871094 7.859375 11.964844 8.464844 11.964844 C 9.734375 11.964844 10.925781 11.5625 11.824219 10.832031 C 12.730469 10.09375 13.230469 9.109375 13.230469 8.066406 C 13.230469 7.019531 12.730469 6.035156 11.824219 5.296875 Z M 11.824219 5.296875 "/>
<path fill-rule="nonzero" fill="rgb(95.686275%, 94.117647%, 95.686275%)" fill-opacity="1" d="M 9.101562 8.808594 C 9.550781 8.410156 10.148438 8.191406 10.78125 8.191406 C 11.414062 8.191406 12.011719 8.410156 12.460938 8.808594 C 12.914062 9.210938 13.164062 9.742188 13.164062 10.3125 C 13.164062 10.859375 12.9375 11.371094 12.519531 11.765625 C 12.527344 11.78125 12.535156 11.800781 12.539062 11.820312 L 12.675781 12.550781 C 12.691406 12.636719 12.667969 12.691406 12.648438 12.71875 C 12.625 12.75 12.585938 12.769531 12.546875 12.769531 C 12.515625 12.769531 12.480469 12.757812 12.445312 12.738281 L 11.65625 12.289062 C 11.378906 12.386719 11.085938 12.4375 10.78125 12.4375 C 10.148438 12.4375 9.550781 12.21875 9.101562 11.820312 C 8.648438 11.417969 8.402344 10.882812 8.402344 10.3125 C 8.402344 9.742188 8.648438 9.210938 9.101562 8.808594 Z M 9.101562 8.808594 "/>
<g mask="url(#mask-0)">
<use xlink:href="#source-13923"/>
</g>
<g mask="url(#mask-1)">
<use xlink:href="#source-13927"/>
</g>
<g mask="url(#mask-2)">
<use xlink:href="#source-13931"/>
</g>
<path fill-rule="nonzero" fill="rgb(97.647059%, 97.647059%, 97.647059%)" fill-opacity="1" d="M 8.964844 6.800781 C 8.820312 7.21875 8.957031 7.660156 9.265625 7.777344 C 9.574219 7.894531 9.941406 7.648438 10.082031 7.226562 C 10.226562 6.804688 10.09375 6.367188 9.78125 6.25 C 9.472656 6.128906 9.105469 6.375 8.964844 6.800781 "/>
<path fill-rule="nonzero" fill="rgb(0%, 0%, 0%)" fill-opacity="0.302" d="M 10.109375 7.140625 C 10.101562 7.167969 10.09375 7.195312 10.082031 7.226562 C 9.941406 7.648438 9.574219 7.894531 9.265625 7.777344 C 8.953125 7.660156 8.820312 7.222656 8.964844 6.800781 C 8.972656 6.769531 8.984375 6.742188 8.996094 6.714844 C 8.898438 7.109375 9.035156 7.496094 9.320312 7.605469 C 9.609375 7.714844 9.945312 7.507812 10.109375 7.136719 "/>
<path fill-rule="nonzero" fill="rgb(45.882353%, 30.196078%, 47.058824%)" fill-opacity="1" d="M 9.101562 6.980469 C 9.054688 7.101562 9.078125 7.238281 9.160156 7.335938 C 9.242188 7.4375 9.371094 7.484375 9.5 7.460938 C 9.625 7.433594 9.726562 7.34375 9.769531 7.21875 C 9.816406 7.101562 9.792969 6.964844 9.710938 6.863281 C 9.628906 6.765625 9.5 6.71875 9.371094 6.742188 C 9.246094 6.765625 9.140625 6.859375 9.101562 6.980469 "/>
<path fill-rule="nonzero" fill="rgb(17.647059%, 17.647059%, 17.647059%)" fill-opacity="1" d="M 9.269531 7.039062 C 9.246094 7.101562 9.253906 7.167969 9.296875 7.21875 C 9.339844 7.269531 9.402344 7.292969 9.464844 7.28125 C 9.53125 7.269531 9.582031 7.222656 9.601562 7.160156 C 9.625 7.101562 9.617188 7.03125 9.574219 6.980469 C 9.53125 6.933594 9.46875 6.910156 9.40625 6.921875 C 9.339844 6.933594 9.289062 6.980469 9.269531 7.039062 "/>
<path fill-rule="nonzero" fill="rgb(97.647059%, 97.647059%, 97.647059%)" fill-opacity="1" d="M 9.277344 7.109375 C 9.265625 7.140625 9.269531 7.171875 9.292969 7.199219 C 9.3125 7.222656 9.34375 7.234375 9.375 7.230469 C 9.410156 7.222656 9.433594 7.199219 9.445312 7.167969 C 9.457031 7.140625 9.449219 7.105469 9.429688 7.078125 C 9.410156 7.054688 9.375 7.042969 9.34375 7.050781 C 9.3125 7.054688 9.289062 7.078125 9.277344 7.109375 "/>
<path fill-rule="nonzero" fill="rgb(97.647059%, 97.647059%, 97.647059%)" fill-opacity="1" d="M 6.148438 6.816406 C 6.007812 7.140625 6.101562 7.488281 6.355469 7.597656 C 6.609375 7.707031 6.933594 7.53125 7.074219 7.207031 C 7.21875 6.886719 7.125 6.535156 6.871094 6.425781 C 6.613281 6.320312 6.292969 6.492188 6.148438 6.816406 "/>
<path fill-rule="nonzero" fill="rgb(0%, 0%, 0%)" fill-opacity="0.302" d="M 7.136719 6.808594 C 7.152344 6.933594 7.132812 7.074219 7.074219 7.210938 C 6.933594 7.535156 6.609375 7.703125 6.351562 7.597656 C 6.15625 7.511719 6.058594 7.285156 6.089844 7.039062 C 6.113281 7.214844 6.203125 7.355469 6.351562 7.421875 C 6.609375 7.527344 6.933594 7.359375 7.074219 7.035156 C 7.109375 6.957031 7.128906 6.882812 7.136719 6.808594 "/>
<path fill-rule="nonzero" fill="rgb(45.882353%, 30.196078%, 47.058824%)" fill-opacity="1" d="M 6.347656 6.925781 C 6.34375 7.019531 6.394531 7.113281 6.476562 7.160156 C 6.5625 7.210938 6.664062 7.210938 6.75 7.160156 C 6.832031 7.113281 6.882812 7.019531 6.878906 6.925781 C 6.882812 6.828125 6.832031 6.734375 6.75 6.6875 C 6.664062 6.636719 6.5625 6.636719 6.476562 6.6875 C 6.394531 6.734375 6.34375 6.828125 6.347656 6.925781 "/>
<path fill-rule="nonzero" fill="rgb(17.647059%, 17.647059%, 17.647059%)" fill-opacity="1" d="M 6.480469 6.925781 C 6.480469 6.972656 6.503906 7.019531 6.546875 7.042969 C 6.585938 7.066406 6.640625 7.066406 6.679688 7.042969 C 6.722656 7.019531 6.746094 6.972656 6.746094 6.925781 C 6.746094 6.875 6.722656 6.832031 6.679688 6.804688 C 6.640625 6.78125 6.585938 6.78125 6.546875 6.804688 C 6.503906 6.832031 6.480469 6.875 6.480469 6.925781 "/>
<path fill-rule="nonzero" fill="rgb(97.647059%, 97.647059%, 97.647059%)" fill-opacity="1" d="M 6.503906 6.96875 C 6.503906 6.992188 6.515625 7.015625 6.535156 7.027344 C 6.558594 7.042969 6.582031 7.042969 6.605469 7.027344 C 6.625 7.015625 6.636719 6.992188 6.636719 6.96875 C 6.636719 6.945312 6.625 6.921875 6.605469 6.910156 C 6.582031 6.898438 6.558594 6.898438 6.535156 6.910156 C 6.515625 6.921875 6.503906 6.945312 6.503906 6.96875 "/>
<path fill-rule="nonzero" fill="rgb(87.058824%, 43.137255%, 0%)" fill-opacity="1" d="M 7.285156 8.722656 C 7.449219 9.34375 7.574219 9.570312 8.023438 9.570312 C 8.5 9.570312 8.722656 9.3125 8.761719 8.722656 C 8.234375 8.570312 7.824219 8.5625 7.285156 8.722656 "/>
<path fill-rule="nonzero" fill="rgb(100%, 78.431373%, 58.039216%)" fill-opacity="1" d="M 8.90625 8.683594 C 8.90625 8.683594 8.886719 8.394531 8.542969 8.082031 C 8.199219 7.773438 8.054688 7.800781 7.996094 7.8125 C 7.992188 8.167969 8.019531 9.199219 8.023438 9.570312 C 8.308594 9.421875 8.597656 8.84375 8.90625 8.6875 "/>
<path fill-rule="nonzero" fill="rgb(92.156863%, 58.431373%, 24.313725%)" fill-opacity="1" d="M 7.992188 7.804688 C 7.910156 7.808594 7.765625 7.847656 7.507812 8.082031 C 7.164062 8.394531 7.144531 8.683594 7.144531 8.683594 C 7.429688 8.828125 7.742188 9.421875 8.023438 9.570312 C 8.03125 9.195312 8.03125 8.183594 8.03125 7.808594 C 8.023438 7.808594 8.007812 7.804688 7.992188 7.804688 "/>
</svg>
