<?xml version="1.0" encoding="UTF-8"?>
<svg xmlns="http://www.w3.org/2000/svg" xmlns:xlink="http://www.w3.org/1999/xlink" width="64" height="64" viewBox="0 0 64 64">
<defs>
<filter id="filter-remove-color" x="0%" y="0%" width="100%" height="100%">
<feColorMatrix color-interpolation-filters="sRGB" values="0 0 0 0 1 0 0 0 0 1 0 0 0 0 1 0 0 0 1 0" />
</filter>
<linearGradient id="linear-pattern-0" gradientUnits="userSpaceOnUse" x1="13.229" y1="297" x2="2.117" y2="280.070007" gradientTransform="matrix(0.96429, 0, 0, 1.1739, 0.30312, -330.25)">
<stop offset="0" stop-color="rgb(40%, 73.72549%, 100%)" stop-opacity="1"/>
<stop offset="1" stop-color="rgb(69.803922%, 60.392157%, 100%)" stop-opacity="1"/>
</linearGradient>
<mask id="mask-0">
<g filter="url(#filter-remove-color)">
<rect x="-6.4" y="-6.4" width="76.8" height="76.8" fill="rgb(0%, 0%, 0%)" fill-opacity="0.35"/>
</g>
</mask>
<clipPath id="clip-0">
<rect x="0" y="0" width="17" height="17"/>
</clipPath>
<g id="source-9324" clip-path="url(#clip-0)">
<path fill-rule="nonzero" fill="rgb(0%, 0%, 0%)" fill-opacity="1" d="M 8.464844 1.324219 C 7.089844 1.324219 5.804688 1.710938 4.714844 2.382812 L 12.21875 2.382812 C 11.128906 1.710938 9.84375 1.324219 8.464844 1.324219 Z M 8.464844 1.324219 "/>
</g>
<mask id="mask-1">
<g filter="url(#filter-remove-color)">
<rect x="-6.4" y="-6.4" width="76.8" height="76.8" fill="rgb(0%, 0%, 0%)" fill-opacity="0.35"/>
</g>
</mask>
<clipPath id="clip-1">
<rect x="0" y="0" width="17" height="17"/>
</clipPath>
<g id="source-9328" clip-path="url(#clip-1)">
<path fill-rule="nonzero" fill="rgb(0%, 0%, 0%)" fill-opacity="1" d="M 7.410156 1.585938 L 9.523438 1.585938 C 9.671875 1.585938 9.789062 1.707031 9.789062 1.851562 C 9.789062 2 9.671875 2.117188 9.523438 2.117188 L 7.410156 2.117188 C 7.261719 2.117188 7.144531 2 7.144531 1.851562 C 7.144531 1.707031 7.261719 1.585938 7.410156 1.585938 Z M 7.410156 1.585938 "/>
</g>
<mask id="mask-2">
<g filter="url(#filter-remove-color)">
<rect x="-6.4" y="-6.4" width="76.8" height="76.8" fill="rgb(0%, 0%, 0%)" fill-opacity="0.35"/>
</g>
</mask>
<clipPath id="clip-2">
<rect x="0" y="0" width="17" height="17"/>
</clipPath>
<g id="source-9332" clip-path="url(#clip-2)">
<path fill-rule="nonzero" fill="rgb(100%, 100%, 100%)" fill-opacity="1" d="M 3.382812 13.492188 C 3.90625 14.023438 4.515625 14.46875 5.183594 14.816406 L 11.75 14.816406 C 12.417969 14.46875 13.027344 14.023438 13.550781 13.492188 Z M 3.382812 13.492188 "/>
</g>
<mask id="mask-3">
<g filter="url(#filter-remove-color)">
<rect x="-6.4" y="-6.4" width="76.8" height="76.8" fill="rgb(0%, 0%, 0%)" fill-opacity="0.35"/>
</g>
</mask>
<clipPath id="clip-3">
<rect x="0" y="0" width="17" height="17"/>
</clipPath>
<g id="source-9340" clip-path="url(#clip-3)">
<path fill-rule="nonzero" fill="rgb(0%, 0%, 0%)" fill-opacity="1" d="M 8.46875 4.761719 C 8.082031 4.765625 7.757812 5.042969 7.691406 5.421875 C 7.625 5.800781 7.839844 6.171875 8.203125 6.304688 L 8.203125 7.144531 L 7.011719 7.144531 C 6.976562 7.144531 6.941406 7.15625 6.917969 7.183594 C 6.894531 7.207031 6.878906 7.242188 6.878906 7.277344 L 6.878906 7.539062 C 6.878906 7.613281 6.9375 7.671875 7.011719 7.671875 L 8.203125 7.671875 L 8.203125 10.316406 C 8.203125 10.464844 8.082031 10.582031 7.9375 10.582031 L 7.804688 10.582031 C 7.605469 10.582031 7.019531 10.355469 6.65625 10.175781 C 6.210938 9.953125 6.210938 9.839844 6.238281 9.789062 C 6.328125 9.632812 6.480469 9.761719 6.480469 9.761719 C 6.480469 9.761719 6.535156 9.523438 6.21875 9.261719 C 6.109375 9.171875 5.890625 9.058594 5.820312 8.996094 C 5.683594 8.867188 5.683594 8.730469 5.609375 8.730469 C 5.511719 8.730469 5.292969 9.214844 5.292969 9.523438 C 5.292969 9.835938 5.292969 10.179688 5.554688 10.316406 C 5.554688 10.199219 5.660156 10.054688 5.820312 10.132812 C 5.894531 10.171875 6.246094 10.40625 6.636719 10.648438 C 7.210938 11.011719 8.078125 11.121094 8.464844 11.640625 C 8.855469 11.121094 9.722656 11.011719 10.296875 10.648438 C 10.683594 10.40625 11.042969 10.175781 11.113281 10.132812 C 11.242188 10.054688 11.378906 10.054688 11.378906 10.316406 C 11.640625 10.179688 11.640625 9.835938 11.640625 9.523438 C 11.640625 9.214844 11.394531 8.730469 11.296875 8.730469 C 11.226562 8.730469 11.25 8.867188 11.113281 8.996094 C 11.042969 9.058594 10.820312 9.171875 10.714844 9.261719 C 10.398438 9.523438 10.449219 9.761719 10.449219 9.761719 C 10.449219 9.761719 10.601562 9.632812 10.691406 9.789062 C 10.722656 9.839844 10.722656 9.953125 10.277344 10.175781 C 9.914062 10.355469 9.324219 10.582031 9.128906 10.582031 L 8.996094 10.582031 C 8.851562 10.582031 8.730469 10.464844 8.730469 10.316406 L 8.730469 7.671875 L 9.921875 7.671875 C 9.957031 7.671875 9.992188 7.660156 10.015625 7.632812 C 10.039062 7.609375 10.054688 7.574219 10.054688 7.539062 L 10.054688 7.277344 C 10.054688 7.203125 9.992188 7.160156 9.921875 7.144531 L 8.730469 7.144531 L 8.730469 6.304688 C 9.09375 6.171875 9.308594 5.800781 9.242188 5.421875 C 9.175781 5.042969 8.851562 4.765625 8.46875 4.761719 M 8.46875 5.289062 C 8.613281 5.289062 8.730469 5.410156 8.730469 5.554688 C 8.730469 5.703125 8.613281 5.820312 8.46875 5.820312 C 8.320312 5.820312 8.203125 5.703125 8.203125 5.554688 C 8.203125 5.410156 8.320312 5.289062 8.46875 5.289062 Z M 8.46875 5.289062 "/>
</g>
</defs>
<path fill-rule="nonzero" fill="url(#linear-pattern-0)" d="M 8.464844 1.324219 C 12.410156 1.324219 15.609375 4.519531 15.609375 8.464844 C 15.609375 12.410156 12.410156 15.609375 8.464844 15.609375 C 4.519531 15.609375 1.324219 12.410156 1.324219 8.464844 C 1.324219 4.519531 4.519531 1.324219 8.464844 1.324219 Z M 8.464844 1.324219 "/>
<g mask="url(#mask-0)">
<use xlink:href="#source-9324"/>
</g>
<g mask="url(#mask-1)">
<use xlink:href="#source-9328"/>
</g>
<g mask="url(#mask-2)">
<use xlink:href="#source-9332"/>
</g>
<path fill-rule="nonzero" fill="rgb(80%, 87.45098%, 100%)" fill-opacity="1" d="M 4.628906 12.699219 L 5.6875 12.699219 C 5.761719 12.699219 5.820312 12.757812 5.820312 12.832031 L 5.820312 13.890625 C 5.820312 13.964844 5.761719 14.023438 5.6875 14.023438 L 4.628906 14.023438 C 4.558594 14.023438 4.496094 13.964844 4.496094 13.890625 L 4.496094 12.832031 C 4.496094 12.757812 4.558594 12.699219 4.628906 12.699219 Z M 4.628906 12.699219 "/>
<path fill-rule="nonzero" fill="rgb(80%, 87.45098%, 100%)" fill-opacity="1" d="M 6.835938 12.699219 L 7.894531 12.699219 C 7.96875 12.699219 8.027344 12.757812 8.027344 12.832031 L 8.027344 13.890625 C 8.027344 13.964844 7.96875 14.023438 7.894531 14.023438 L 6.835938 14.023438 C 6.761719 14.023438 6.703125 13.964844 6.703125 13.890625 L 6.703125 12.832031 C 6.703125 12.757812 6.761719 12.699219 6.835938 12.699219 Z M 6.835938 12.699219 "/>
<path fill-rule="nonzero" fill="rgb(80%, 87.45098%, 100%)" fill-opacity="1" d="M 9.039062 12.699219 L 10.097656 12.699219 C 10.171875 12.699219 10.230469 12.757812 10.230469 12.832031 L 10.230469 13.890625 C 10.230469 13.964844 10.171875 14.023438 10.097656 14.023438 L 9.039062 14.023438 C 8.96875 14.023438 8.90625 13.964844 8.90625 13.890625 L 8.90625 12.832031 C 8.90625 12.757812 8.96875 12.699219 9.039062 12.699219 Z M 9.039062 12.699219 "/>
<path fill-rule="nonzero" fill="rgb(80%, 87.45098%, 100%)" fill-opacity="1" d="M 11.246094 12.699219 L 12.304688 12.699219 C 12.375 12.699219 12.4375 12.757812 12.4375 12.832031 L 12.4375 13.890625 C 12.4375 13.964844 12.375 14.023438 12.304688 14.023438 L 11.246094 14.023438 C 11.171875 14.023438 11.113281 13.964844 11.113281 13.890625 L 11.113281 12.832031 C 11.113281 12.757812 11.171875 12.699219 11.246094 12.699219 Z M 11.246094 12.699219 "/>
<g mask="url(#mask-3)">
<use xlink:href="#source-9340"/>
</g>
</svg>
