<?xml version="1.0" encoding="UTF-8"?>
<svg xmlns="http://www.w3.org/2000/svg" xmlns:xlink="http://www.w3.org/1999/xlink" width="64" height="64" viewBox="0 0 64 64">
<path fill-rule="nonzero" fill="rgb(98.039216%, 78.823529%, 22.745098%)" fill-opacity="1" d="M 8.378906 1.324219 C 10.953125 1.292969 13.34375 2.648438 14.640625 4.871094 C 15.933594 7.09375 15.933594 9.839844 14.640625 12.0625 C 13.34375 14.285156 10.953125 15.640625 8.378906 15.609375 C 4.46875 15.5625 1.324219 12.378906 1.324219 8.464844 C 1.324219 4.554688 4.46875 1.371094 8.378906 1.324219 Z M 8.378906 1.324219 "/>
<path fill-rule="nonzero" fill="rgb(97.647059%, 97.647059%, 97.647059%)" fill-opacity="1" d="M 8.996094 4.230469 C 8.800781 4.21875 8.613281 4.316406 8.511719 4.488281 C 8.40625 4.65625 8.40625 4.867188 8.511719 5.035156 C 8.613281 5.203125 8.800781 5.300781 8.996094 5.289062 C 9.277344 5.273438 9.492188 5.042969 9.492188 4.761719 C 9.492188 4.480469 9.277344 4.25 8.996094 4.230469 M 10.761719 4.230469 C 10.5625 4.21875 10.375 4.316406 10.273438 4.488281 C 10.171875 4.65625 10.171875 4.867188 10.273438 5.035156 C 10.375 5.203125 10.5625 5.300781 10.761719 5.289062 C 11.039062 5.273438 11.257812 5.042969 11.257812 4.761719 C 11.257812 4.480469 11.039062 4.25 10.761719 4.230469 M 12.171875 4.9375 C 11.976562 4.929688 11.792969 5.027344 11.691406 5.195312 C 11.59375 5.363281 11.59375 5.570312 11.691406 5.738281 C 11.792969 5.90625 11.976562 6.003906 12.171875 5.996094 C 12.453125 5.984375 12.679688 5.75 12.679688 5.464844 C 12.679688 5.183594 12.453125 4.949219 12.171875 4.9375 M 7.535156 4.992188 C 7.128906 5.015625 6.511719 5.269531 5.964844 5.726562 C 4.554688 6.898438 3.300781 9.234375 5.191406 11.242188 C 7.015625 13.175781 9.679688 12.789062 10.578125 12.320312 C 11.792969 11.695312 11.773438 10.429688 11.6875 10.125 C 11.382812 9.023438 10.539062 8.714844 10.003906 8.773438 C 9.359375 8.851562 8.109375 9.257812 7.371094 8.269531 C 6.746094 7.429688 7.308594 6.214844 7.941406 5.789062 C 8.199219 5.609375 8.191406 5.234375 7.859375 5.046875 C 7.757812 4.996094 7.644531 4.976562 7.53125 4.992188 Z M 7.535156 4.992188 "/>
</svg>
