<?xml version="1.0" encoding="UTF-8"?>
<svg xmlns="http://www.w3.org/2000/svg" xmlns:xlink="http://www.w3.org/1999/xlink" width="64" height="64" viewBox="0 0 64 64">
<path fill-rule="nonzero" fill="rgb(42.352941%, 78.431373%, 38.431373%)" fill-opacity="1" d="M 15.609375 8.464844 C 15.609375 12.410156 12.410156 15.609375 8.464844 15.609375 C 4.519531 15.609375 1.324219 12.410156 1.324219 8.464844 C 1.324219 4.519531 4.519531 1.324219 8.464844 1.324219 C 12.410156 1.324219 15.609375 4.519531 15.609375 8.464844 Z M 15.609375 8.464844 "/>
<path fill-rule="nonzero" fill="rgb(37.647059%, 64.705882%, 81.176471%)" fill-opacity="1" d="M 1.324219 8.464844 C 1.324219 12.410156 4.519531 15.609375 8.464844 15.609375 L 8.464844 8.464844 Z M 1.324219 8.464844 "/>
<path fill-rule="nonzero" fill="rgb(91.372549%, 39.607843%, 39.607843%)" fill-opacity="1" d="M 15.609375 8.464844 L 8.464844 8.511719 L 8.464844 15.609375 C 12.410156 15.609375 15.609375 12.410156 15.609375 8.464844 Z M 15.609375 8.464844 "/>
<path fill-rule="nonzero" fill="rgb(100%, 80.392157%, 37.254902%)" fill-opacity="1" d="M 8.464844 8.511719 L 8.464844 1.324219 C 12.410156 1.324219 15.609375 4.519531 15.609375 8.464844 "/>
<path fill-rule="nonzero" fill="rgb(100%, 100%, 100%)" fill-opacity="1" d="M 9.960938 4.296875 C 9.09375 4.0625 8.5 5.253906 8.363281 6.582031 C 8.011719 5.015625 7.027344 3.71875 5.992188 4.882812 C 5.605469 5.316406 5.515625 5.667969 5.574219 5.949219 C 5.289062 5.921875 4.949219 6.050781 4.5625 6.484375 C 3.648438 7.511719 4.933594 8.367188 6.457031 8.597656 C 4.949219 8.972656 3.757812 9.925781 4.890625 10.933594 C 5.328125 11.320312 5.679688 11.410156 5.960938 11.351562 C 5.933594 11.636719 6.0625 11.972656 6.496094 12.359375 C 7.503906 13.253906 8.347656 12.046875 8.597656 10.570312 C 9.015625 12.007812 9.996094 13.109375 10.890625 12.105469 C 11.277344 11.675781 11.367188 11.324219 11.308594 11.042969 C 11.59375 11.070312 11.933594 10.941406 12.320312 10.507812 C 13.328125 9.375 12.03125 8.5625 10.484375 8.363281 C 11.976562 7.964844 13.15625 6.964844 12.125 6.050781 C 11.691406 5.664062 11.339844 5.574219 11.058594 5.632812 C 11.085938 5.347656 10.957031 5.007812 10.523438 4.625 C 10.324219 4.449219 10.136719 4.34375 9.960938 4.296875 Z M 8.445312 8.453125 C 8.449219 8.464844 8.449219 8.472656 8.449219 8.484375 C 8.449219 8.484375 8.445312 8.484375 8.441406 8.484375 C 8.445312 8.472656 8.445312 8.464844 8.445312 8.453125 Z M 8.445312 8.453125 "/>
</svg>
