<?xml version="1.0" encoding="UTF-8"?>
<svg xmlns="http://www.w3.org/2000/svg" xmlns:xlink="http://www.w3.org/1999/xlink" width="64" height="64" viewBox="0 0 64 64">
<defs>
<radialGradient id="radial-pattern-0" gradientUnits="userSpaceOnUse" cx="51.783001" cy="-71.550003" fx="51.783001" fy="-71.550003" r="26.610001" gradientTransform="matrix(0.284024, 0.00347792, -0.0028426, 0.232144, -4.845201, 20.986114)">
<stop offset="0" stop-color="rgb(97.647059%, 93.333333%, 89.803922%)" stop-opacity="1"/>
<stop offset="0.31739" stop-color="rgb(95.686275%, 90.588235%, 85.882353%)" stop-opacity="1"/>
<stop offset="1" stop-color="rgb(82.745098%, 69.803922%, 56.078431%)" stop-opacity="1"/>
</radialGradient>
<radialGradient id="radial-pattern-1" gradientUnits="userSpaceOnUse" cx="51.067001" cy="-67.574997" fx="51.067001" fy="-67.574997" r="26.610001" gradientTransform="matrix(0.186087, 0.116129, -0.0570435, 0.0914056, -3.326193, 5.254981)">
<stop offset="0" stop-color="rgb(92.54902%, 87.058824%, 81.568627%)" stop-opacity="0"/>
<stop offset="0.33654" stop-color="rgb(92.156863%, 86.666667%, 81.176471%)" stop-opacity="0"/>
<stop offset="1" stop-color="rgb(80%, 66.27451%, 52.941176%)" stop-opacity="1"/>
</radialGradient>
</defs>
<path fill-rule="nonzero" fill="rgb(94.901961%, 94.901961%, 94.901961%)" fill-opacity="1" d="M 15.609375 8.464844 C 15.609375 12.410156 12.410156 15.609375 8.464844 15.609375 C 4.519531 15.609375 1.324219 12.410156 1.324219 8.464844 C 1.324219 4.519531 4.519531 1.324219 8.464844 1.324219 C 12.410156 1.324219 15.609375 4.519531 15.609375 8.464844 Z M 15.609375 8.464844 "/>
<path fill-rule="nonzero" fill="url(#radial-pattern-0)" d="M 4.871094 8.746094 C 4.898438 8.523438 4.835938 8.289062 5.066406 8.101562 C 4.699219 8.1875 3.898438 6.707031 5.457031 6.582031 C 3.054688 5.925781 6.117188 3.277344 6.9375 5.226562 C 8.558594 1.703125 13.519531 3.75 11.453125 6.707031 C 12.171875 6.597656 12.984375 7.785156 11.800781 8.3125 C 12.316406 8.621094 12.277344 9.246094 11.550781 9.320312 L 7.066406 10.003906 Z M 4.871094 8.746094 "/>
<path fill-rule="nonzero" fill="url(#radial-pattern-1)" d="M 9.625 3.367188 C 8.953125 3.367188 8.246094 3.609375 7.667969 4.171875 C 9.304688 4.25 10.792969 5.09375 11.628906 6.425781 C 12.59375 4.710938 11.207031 3.367188 9.625 3.367188 Z M 9.625 3.367188 "/>
<path fill-rule="nonzero" fill="rgb(80%, 11.764706%, 12.156863%)" fill-opacity="1" d="M 7.953125 3.742188 C 7.820312 3.683594 7.660156 3.679688 7.515625 3.742188 C 7.273438 3.839844 7.136719 4.078125 7.160156 4.324219 C 7.164062 4.390625 7.171875 4.417969 7.203125 4.488281 L 7.261719 4.632812 L 7.382812 4.925781 L 7.597656 5.457031 L 8.566406 5.058594 C 8.628906 5.03125 8.675781 5 8.730469 4.957031 C 8.90625 4.800781 8.976562 4.542969 8.878906 4.3125 C 8.773438 4.046875 8.488281 3.910156 8.21875 3.972656 C 8.15625 3.867188 8.0625 3.789062 7.953125 3.742188 Z M 7.953125 3.742188 "/>
<path fill-rule="nonzero" fill="rgb(80%, 11.764706%, 12.156863%)" fill-opacity="1" d="M 5.9375 3.542969 C 5.867188 3.613281 5.8125 3.707031 5.800781 3.804688 C 5.78125 3.964844 5.867188 4.085938 6.007812 4.113281 C 6.042969 4.121094 6.0625 4.121094 6.109375 4.117188 L 6.402344 4.082031 L 6.757812 4.042969 L 6.832031 3.496094 L 6.84375 3.398438 C 6.851562 3.355469 6.847656 3.320312 6.839844 3.28125 C 6.8125 3.148438 6.691406 3.066406 6.539062 3.085938 C 6.359375 3.105469 6.195312 3.25 6.148438 3.421875 C 6.070312 3.441406 5.996094 3.484375 5.9375 3.542969 Z M 5.9375 3.542969 "/>
<path fill-rule="nonzero" fill="rgb(100%, 85.882353%, 70.196078%)" fill-opacity="1" d="M 4.871094 8.746094 C 4.898438 8.523438 4.835938 8.289062 5.066406 8.101562 C 4.699219 8.1875 3.898438 6.707031 5.457031 6.582031 C 3.054688 5.925781 6.117188 3.277344 6.9375 5.226562 C 8.558594 1.703125 13.519531 3.75 11.453125 6.707031 C 12.171875 6.597656 12.984375 7.785156 11.800781 8.3125 C 12.316406 8.621094 12.277344 9.246094 11.550781 9.320312 L 7.066406 10.003906 Z M 4.871094 8.746094 "/>
<path fill-rule="nonzero" fill="rgb(100%, 100%, 100%)" fill-opacity="1" d="M 6.976562 9.351562 L 7.1875 13.851562 L 7.824219 13.789062 L 8.460938 13.714844 L 9.097656 13.648438 L 9.734375 13.578125 L 10.371094 13.511719 L 11.007812 13.441406 L 11.644531 13.375 L 12.132812 8.917969 C 12.164062 8.554688 11.648438 8.507812 11.394531 8.976562 C 11.367188 8.492188 10.640625 8.644531 10.660156 9.039062 C 10.636719 8.640625 9.921875 8.660156 9.921875 9.097656 C 9.914062 8.652344 9.152344 8.683594 9.1875 9.164062 C 9.148438 8.675781 8.425781 8.773438 8.449219 9.222656 C 8.429688 8.78125 7.6875 8.882812 7.714844 9.285156 C 7.691406 8.878906 6.96875 8.867188 6.976562 9.351562 Z M 6.976562 9.351562 "/>
<path fill-rule="nonzero" fill="rgb(82.745098%, 5.098039%, 5.490196%)" fill-opacity="1" d="M 8.449219 9.222656 C 8.429688 8.78125 7.6875 8.882812 7.714844 9.285156 L 7.824219 13.785156 L 8.460938 13.714844 Z M 9.921875 9.097656 C 9.914062 8.652344 9.152344 8.683594 9.1875 9.164062 L 9.097656 13.648438 L 9.734375 13.578125 Z M 11.394531 8.976562 C 11.367188 8.492188 10.640625 8.644531 10.660156 9.039062 L 10.371094 13.511719 L 11.007812 13.441406 Z M 11.394531 8.976562 "/>
<path fill-rule="nonzero" fill="rgb(90.196078%, 90.196078%, 90.196078%)" fill-opacity="1" d="M 7.1875 13.851562 L 5.410156 12.636719 L 4.769531 8.507812 C 4.714844 8.164062 5.027344 8.335938 5.023438 8.605469 C 5.023438 8.332031 5.234375 8.210938 5.335938 8.722656 C 5.335938 8.371094 5.515625 8.390625 5.640625 8.839844 C 5.636719 8.496094 5.832031 8.441406 5.941406 8.957031 C 5.972656 8.515625 6.191406 8.640625 6.269531 9.082031 C 6.269531 8.796875 6.539062 8.59375 6.667969 9.234375 C 6.644531 8.738281 6.964844 8.917969 6.976562 9.351562 Z M 7.1875 13.851562 "/>
<path fill-rule="nonzero" fill="rgb(68.627451%, 3.529412%, 4.313725%)" fill-opacity="1" d="M 6.890625 13.648438 L 6.605469 13.453125 L 6.269531 9.082031 C 6.269531 8.796875 6.539062 8.59375 6.667969 9.234375 Z M 6.367188 13.289062 L 6.113281 13.113281 L 5.640625 8.839844 C 5.636719 8.496094 5.832031 8.441406 5.941406 8.957031 Z M 5.859375 12.941406 L 5.632812 12.785156 L 5.023438 8.605469 C 5.023438 8.332031 5.234375 8.210938 5.335938 8.722656 "/>
<path fill-rule="nonzero" fill="rgb(26.27451%, 0.784314%, 0.392157%)" fill-opacity="1" d="M 10.914062 6.75 C 10.914062 7.0625 10.664062 7.3125 10.351562 7.3125 C 10.042969 7.3125 9.789062 7.0625 9.789062 6.75 C 9.789062 6.441406 10.042969 6.1875 10.351562 6.1875 C 10.664062 6.1875 10.914062 6.441406 10.914062 6.75 Z M 10.914062 6.75 "/>
<path fill-rule="nonzero" fill="rgb(100%, 100%, 100%)" fill-opacity="1" d="M 10.621094 6.570312 C 10.621094 6.652344 10.554688 6.71875 10.46875 6.71875 C 10.386719 6.71875 10.320312 6.652344 10.320312 6.570312 C 10.320312 6.488281 10.386719 6.417969 10.46875 6.417969 C 10.554688 6.417969 10.621094 6.488281 10.621094 6.570312 Z M 10.621094 6.570312 "/>
<path fill-rule="nonzero" fill="rgb(26.27451%, 0.784314%, 0.392157%)" fill-opacity="1" d="M 7.394531 6.75 C 7.394531 7.0625 7.140625 7.3125 6.832031 7.3125 C 6.519531 7.3125 6.269531 7.0625 6.269531 6.75 C 6.269531 6.441406 6.519531 6.1875 6.832031 6.1875 C 7.140625 6.1875 7.394531 6.441406 7.394531 6.75 Z M 7.394531 6.75 "/>
<path fill-rule="nonzero" fill="rgb(100%, 100%, 100%)" fill-opacity="1" d="M 7.101562 6.570312 C 7.101562 6.652344 7.03125 6.71875 6.949219 6.71875 C 6.867188 6.71875 6.800781 6.652344 6.800781 6.570312 C 6.800781 6.488281 6.867188 6.417969 6.949219 6.417969 C 7.03125 6.417969 7.101562 6.488281 7.101562 6.570312 Z M 7.101562 6.570312 "/>
<path fill-rule="nonzero" fill="rgb(20%, 0%, 0.784314%)" fill-opacity="1" d="M 7.96875 7.195312 L 9.210938 7.195312 C 9.335938 7.195312 9.4375 7.292969 9.4375 7.417969 L 9.4375 7.691406 C 9.4375 8.675781 7.746094 8.648438 7.746094 7.691406 L 7.746094 7.417969 C 7.746094 7.292969 7.84375 7.195312 7.96875 7.195312 Z M 7.96875 7.195312 "/>
<path fill-rule="nonzero" fill="rgb(55.294118%, 8.627451%, 10.196078%)" fill-opacity="1" d="M 8.589844 8.011719 C 8.390625 8.011719 8.210938 8.128906 8.128906 8.308594 C 8.40625 8.453125 8.777344 8.457031 9.054688 8.3125 C 8.972656 8.128906 8.792969 8.011719 8.589844 8.011719 Z M 8.589844 8.011719 "/>
</svg>
