<?xml version="1.0" encoding="UTF-8"?>
<svg xmlns="http://www.w3.org/2000/svg" xmlns:xlink="http://www.w3.org/1999/xlink" width="64" height="64" viewBox="0 0 64 64">
<path fill-rule="nonzero" fill="rgb(38.823529%, 55.294118%, 96.078431%)" fill-opacity="1" d="M 15.609375 8.464844 C 15.609375 12.410156 12.410156 15.609375 8.464844 15.609375 C 4.519531 15.609375 1.324219 12.410156 1.324219 8.464844 C 1.324219 4.519531 4.519531 1.324219 8.464844 1.324219 C 12.410156 1.324219 15.609375 4.519531 15.609375 8.464844 Z M 15.609375 8.464844 "/>
<path fill="none" stroke-width="0.265" stroke-linecap="round" stroke-linejoin="round" stroke="rgb(0%, 0%, 0%)" stroke-opacity="0.098" stroke-miterlimit="4" d="M 1.324219 282.980164 L 7.671875 282.980164 C 7.816406 282.980164 7.9375 283.097351 7.9375 283.245789 L 7.9375 287.476257 C 7.9375 287.624695 7.816406 287.741882 7.671875 287.741882 L 1.324219 287.741882 C 1.175781 287.741882 1.058594 287.624695 1.058594 287.476257 L 1.058594 283.245789 C 1.058594 283.097351 1.175781 282.980164 1.324219 282.980164 Z M 1.324219 282.980164 " transform="matrix(1, 0, 0, 1, 0, -280.070007)"/>
<path fill-rule="nonzero" fill="rgb(100%, 100%, 100%)" fill-opacity="1" d="M 1.324219 2.910156 L 7.671875 2.910156 C 7.816406 2.910156 7.9375 3.027344 7.9375 3.175781 L 7.9375 7.40625 C 7.9375 7.554688 7.816406 7.671875 7.671875 7.671875 L 1.324219 7.671875 C 1.175781 7.671875 1.058594 7.554688 1.058594 7.40625 L 1.058594 3.175781 C 1.058594 3.027344 1.175781 2.910156 1.324219 2.910156 Z M 1.324219 2.910156 "/>
<path fill="none" stroke-width="0.265" stroke-linecap="round" stroke-linejoin="round" stroke="rgb(0%, 0%, 0%)" stroke-opacity="0.098" stroke-miterlimit="4" d="M 9.261719 282.980164 L 15.609375 282.980164 C 15.757812 282.980164 15.875 283.097351 15.875 283.245789 L 15.875 287.476257 C 15.875 287.624695 15.757812 287.741882 15.609375 287.741882 L 9.261719 287.741882 C 9.113281 287.741882 8.996094 287.624695 8.996094 287.476257 L 8.996094 283.245789 C 8.996094 283.097351 9.113281 282.980164 9.261719 282.980164 Z M 9.261719 282.980164 " transform="matrix(1, 0, 0, 1, 0, -280.070007)"/>
<path fill-rule="nonzero" fill="rgb(100%, 100%, 100%)" fill-opacity="1" d="M 9.261719 2.910156 L 15.609375 2.910156 C 15.757812 2.910156 15.875 3.027344 15.875 3.175781 L 15.875 7.40625 C 15.875 7.554688 15.757812 7.671875 15.609375 7.671875 L 9.261719 7.671875 C 9.113281 7.671875 8.996094 7.554688 8.996094 7.40625 L 8.996094 3.175781 C 8.996094 3.027344 9.113281 2.910156 9.261719 2.910156 Z M 9.261719 2.910156 "/>
<path fill="none" stroke-width="0.265" stroke-linecap="round" stroke-linejoin="round" stroke="rgb(0%, 0%, 0%)" stroke-opacity="0.098" stroke-miterlimit="4" d="M 5.292969 289.331726 L 11.640625 289.331726 C 11.789062 289.331726 11.90625 289.448914 11.90625 289.593445 L 11.90625 293.82782 C 11.90625 293.972351 11.789062 294.093445 11.640625 294.093445 L 5.292969 294.093445 C 5.144531 294.093445 5.027344 293.972351 5.027344 293.82782 L 5.027344 289.593445 C 5.027344 289.448914 5.144531 289.331726 5.292969 289.331726 Z M 5.292969 289.331726 " transform="matrix(1, 0, 0, 1, 0, -280.070007)"/>
<path fill-rule="nonzero" fill="rgb(100%, 100%, 100%)" fill-opacity="1" d="M 5.292969 9.261719 L 11.640625 9.261719 C 11.789062 9.261719 11.90625 9.378906 11.90625 9.523438 L 11.90625 13.757812 C 11.90625 13.902344 11.789062 14.023438 11.640625 14.023438 L 5.292969 14.023438 C 5.144531 14.023438 5.027344 13.902344 5.027344 13.757812 L 5.027344 9.523438 C 5.027344 9.378906 5.144531 9.261719 5.292969 9.261719 Z M 5.292969 9.261719 "/>
<path fill-rule="nonzero" fill="rgb(100%, 100%, 100%)" fill-opacity="1" d="M 1.324219 2.910156 L 7.671875 2.910156 C 7.816406 2.910156 7.9375 3.027344 7.9375 3.175781 L 7.9375 7.40625 C 7.9375 7.554688 7.816406 7.671875 7.671875 7.671875 L 1.324219 7.671875 C 1.175781 7.671875 1.058594 7.554688 1.058594 7.40625 L 1.058594 3.175781 C 1.058594 3.027344 1.175781 2.910156 1.324219 2.910156 Z M 1.324219 2.910156 "/>
<path fill-rule="nonzero" fill="rgb(100%, 100%, 100%)" fill-opacity="1" d="M 9.261719 2.910156 L 15.609375 2.910156 C 15.757812 2.910156 15.875 3.027344 15.875 3.175781 L 15.875 7.40625 C 15.875 7.554688 15.757812 7.671875 15.609375 7.671875 L 9.261719 7.671875 C 9.113281 7.671875 8.996094 7.554688 8.996094 7.40625 L 8.996094 3.175781 C 8.996094 3.027344 9.113281 2.910156 9.261719 2.910156 Z M 9.261719 2.910156 "/>
<path fill-rule="nonzero" fill="rgb(100%, 100%, 100%)" fill-opacity="1" d="M 5.292969 9.261719 L 11.640625 9.261719 C 11.789062 9.261719 11.90625 9.378906 11.90625 9.523438 L 11.90625 13.757812 C 11.90625 13.902344 11.789062 14.023438 11.640625 14.023438 L 5.292969 14.023438 C 5.144531 14.023438 5.027344 13.902344 5.027344 13.757812 L 5.027344 9.523438 C 5.027344 9.378906 5.144531 9.261719 5.292969 9.261719 Z M 5.292969 9.261719 "/>
</svg>
