<?xml version="1.0" encoding="UTF-8"?>
<svg xmlns="http://www.w3.org/2000/svg" xmlns:xlink="http://www.w3.org/1999/xlink" width="64" height="64" viewBox="0 0 64 64">
<path fill-rule="nonzero" fill="rgb(30.196078%, 30.196078%, 30.196078%)" fill-opacity="1" d="M 15.609375 8.464844 C 15.609375 12.410156 12.410156 15.609375 8.464844 15.609375 C 4.519531 15.609375 1.324219 12.410156 1.324219 8.464844 C 1.324219 4.519531 4.519531 1.324219 8.464844 1.324219 C 12.410156 1.324219 15.609375 4.519531 15.609375 8.464844 Z M 15.609375 8.464844 "/>
<path fill-rule="nonzero" fill="rgb(100%, 100%, 100%)" fill-opacity="1" d="M 5.5625 10.582031 L 11.371094 10.582031 C 11.519531 10.582031 11.640625 10.703125 11.640625 10.855469 L 11.640625 11.636719 C 11.640625 11.785156 11.519531 11.90625 11.371094 11.90625 L 5.5625 11.90625 C 5.414062 11.90625 5.292969 11.785156 5.292969 11.636719 L 5.292969 10.855469 C 5.292969 10.703125 5.414062 10.582031 5.5625 10.582031 Z M 5.5625 10.582031 "/>
<path fill-rule="nonzero" fill="rgb(100%, 100%, 100%)" fill-opacity="1" d="M 4.761719 5.828125 C 4.761719 6.121094 4.527344 6.355469 4.234375 6.355469 C 3.941406 6.355469 3.703125 6.121094 3.703125 5.828125 C 3.703125 5.535156 3.941406 5.296875 4.234375 5.296875 C 4.527344 5.296875 4.761719 5.535156 4.761719 5.828125 Z M 4.761719 5.828125 "/>
<path fill-rule="nonzero" fill="rgb(100%, 100%, 100%)" fill-opacity="1" d="M 6.351562 5.828125 C 6.351562 6.121094 6.113281 6.355469 5.820312 6.355469 C 5.527344 6.355469 5.292969 6.121094 5.292969 5.828125 C 5.292969 5.535156 5.527344 5.296875 5.820312 5.296875 C 6.113281 5.296875 6.351562 5.535156 6.351562 5.828125 Z M 6.351562 5.828125 "/>
<path fill-rule="nonzero" fill="rgb(100%, 100%, 100%)" fill-opacity="1" d="M 7.9375 5.828125 C 7.9375 6.121094 7.699219 6.355469 7.410156 6.355469 C 7.117188 6.355469 6.878906 6.121094 6.878906 5.828125 C 6.878906 5.535156 7.117188 5.296875 7.410156 5.296875 C 7.699219 5.296875 7.9375 5.535156 7.9375 5.828125 Z M 7.9375 5.828125 "/>
<path fill-rule="nonzero" fill="rgb(100%, 100%, 100%)" fill-opacity="1" d="M 9.523438 5.828125 C 9.523438 6.121094 9.289062 6.355469 8.996094 6.355469 C 8.703125 6.355469 8.464844 6.121094 8.464844 5.828125 C 8.464844 5.535156 8.703125 5.296875 8.996094 5.296875 C 9.289062 5.296875 9.523438 5.535156 9.523438 5.828125 Z M 9.523438 5.828125 "/>
<path fill-rule="nonzero" fill="rgb(100%, 100%, 100%)" fill-opacity="1" d="M 11.113281 5.828125 C 11.113281 6.121094 10.875 6.355469 10.582031 6.355469 C 10.289062 6.355469 10.054688 6.121094 10.054688 5.828125 C 10.054688 5.535156 10.289062 5.296875 10.582031 5.296875 C 10.875 5.296875 11.113281 5.535156 11.113281 5.828125 Z M 11.113281 5.828125 "/>
<path fill-rule="nonzero" fill="rgb(100%, 100%, 100%)" fill-opacity="1" d="M 12.699219 5.828125 C 12.699219 6.121094 12.464844 6.355469 12.171875 6.355469 C 11.878906 6.355469 11.640625 6.121094 11.640625 5.828125 C 11.640625 5.535156 11.878906 5.296875 12.171875 5.296875 C 12.464844 5.296875 12.699219 5.535156 12.699219 5.828125 Z M 12.699219 5.828125 "/>
<path fill-rule="nonzero" fill="rgb(100%, 100%, 100%)" fill-opacity="1" d="M 3.96875 7.414062 C 3.96875 7.707031 3.730469 7.945312 3.441406 7.945312 C 3.148438 7.945312 2.910156 7.707031 2.910156 7.414062 C 2.910156 7.121094 3.148438 6.886719 3.441406 6.886719 C 3.730469 6.886719 3.96875 7.121094 3.96875 7.414062 Z M 3.96875 7.414062 "/>
<path fill-rule="nonzero" fill="rgb(100%, 50.196078%, 50.196078%)" fill-opacity="1" d="M 5.554688 7.414062 C 5.554688 7.707031 5.320312 7.945312 5.027344 7.945312 C 4.734375 7.945312 4.496094 7.707031 4.496094 7.414062 C 4.496094 7.121094 4.734375 6.886719 5.027344 6.886719 C 5.320312 6.886719 5.554688 7.121094 5.554688 7.414062 Z M 5.554688 7.414062 "/>
<path fill-rule="nonzero" fill="rgb(100%, 100%, 100%)" fill-opacity="1" d="M 7.144531 7.414062 C 7.144531 7.707031 6.90625 7.945312 6.613281 7.945312 C 6.320312 7.945312 6.085938 7.707031 6.085938 7.414062 C 6.085938 7.121094 6.320312 6.886719 6.613281 6.886719 C 6.90625 6.886719 7.144531 7.121094 7.144531 7.414062 Z M 7.144531 7.414062 "/>
<path fill-rule="nonzero" fill="rgb(100%, 100%, 100%)" fill-opacity="1" d="M 8.730469 7.414062 C 8.730469 7.707031 8.496094 7.945312 8.203125 7.945312 C 7.910156 7.945312 7.671875 7.707031 7.671875 7.414062 C 7.671875 7.121094 7.910156 6.886719 8.203125 6.886719 C 8.496094 6.886719 8.730469 7.121094 8.730469 7.414062 Z M 8.730469 7.414062 "/>
<path fill-rule="nonzero" fill="rgb(100%, 100%, 100%)" fill-opacity="1" d="M 10.320312 7.414062 C 10.320312 7.707031 10.082031 7.945312 9.789062 7.945312 C 9.496094 7.945312 9.261719 7.707031 9.261719 7.414062 C 9.261719 7.121094 9.496094 6.886719 9.789062 6.886719 C 10.082031 6.886719 10.320312 7.121094 10.320312 7.414062 Z M 10.320312 7.414062 "/>
<path fill-rule="nonzero" fill="rgb(100%, 50.196078%, 50.196078%)" fill-opacity="1" d="M 11.90625 7.414062 C 11.90625 7.707031 11.667969 7.945312 11.375 7.945312 C 11.085938 7.945312 10.847656 7.707031 10.847656 7.414062 C 10.847656 7.121094 11.085938 6.886719 11.375 6.886719 C 11.667969 6.886719 11.90625 7.121094 11.90625 7.414062 Z M 11.90625 7.414062 "/>
<path fill-rule="nonzero" fill="rgb(100%, 100%, 100%)" fill-opacity="1" d="M 13.492188 7.414062 C 13.492188 7.707031 13.257812 7.945312 12.964844 7.945312 C 12.671875 7.945312 12.433594 7.707031 12.433594 7.414062 C 12.433594 7.121094 12.671875 6.886719 12.964844 6.886719 C 13.257812 6.886719 13.492188 7.121094 13.492188 7.414062 Z M 13.492188 7.414062 "/>
<path fill-rule="nonzero" fill="rgb(100%, 50.196078%, 50.196078%)" fill-opacity="1" d="M 4.496094 9.003906 C 4.496094 9.292969 4.261719 9.53125 3.96875 9.53125 C 3.675781 9.53125 3.441406 9.292969 3.441406 9.003906 C 3.441406 8.710938 3.675781 8.472656 3.96875 8.472656 C 4.261719 8.472656 4.496094 8.710938 4.496094 9.003906 Z M 4.496094 9.003906 "/>
<path fill-rule="nonzero" fill="rgb(100%, 50.196078%, 50.196078%)" fill-opacity="1" d="M 6.085938 9.003906 C 6.085938 9.292969 5.847656 9.53125 5.554688 9.53125 C 5.265625 9.53125 5.027344 9.292969 5.027344 9.003906 C 5.027344 8.710938 5.265625 8.472656 5.554688 8.472656 C 5.847656 8.472656 6.085938 8.710938 6.085938 9.003906 Z M 6.085938 9.003906 "/>
<path fill-rule="nonzero" fill="rgb(100%, 100%, 100%)" fill-opacity="1" d="M 7.671875 9.003906 C 7.671875 9.292969 7.4375 9.53125 7.144531 9.53125 C 6.851562 9.53125 6.613281 9.292969 6.613281 9.003906 C 6.613281 8.710938 6.851562 8.472656 7.144531 8.472656 C 7.4375 8.472656 7.671875 8.710938 7.671875 9.003906 Z M 7.671875 9.003906 "/>
<path fill-rule="nonzero" fill="rgb(100%, 100%, 100%)" fill-opacity="1" d="M 9.261719 9.003906 C 9.261719 9.292969 9.023438 9.53125 8.730469 9.53125 C 8.4375 9.53125 8.203125 9.292969 8.203125 9.003906 C 8.203125 8.710938 8.4375 8.472656 8.730469 8.472656 C 9.023438 8.472656 9.261719 8.710938 9.261719 9.003906 Z M 9.261719 9.003906 "/>
<path fill-rule="nonzero" fill="rgb(100%, 100%, 100%)" fill-opacity="1" d="M 10.847656 9.003906 C 10.847656 9.292969 10.609375 9.53125 10.320312 9.53125 C 10.027344 9.53125 9.789062 9.292969 9.789062 9.003906 C 9.789062 8.710938 10.027344 8.472656 10.320312 8.472656 C 10.609375 8.472656 10.847656 8.710938 10.847656 9.003906 Z M 10.847656 9.003906 "/>
<path fill-rule="nonzero" fill="rgb(100%, 100%, 100%)" fill-opacity="1" d="M 12.433594 9.003906 C 12.433594 9.292969 12.199219 9.53125 11.90625 9.53125 C 11.613281 9.53125 11.375 9.292969 11.375 9.003906 C 11.375 8.710938 11.613281 8.472656 11.90625 8.472656 C 12.199219 8.472656 12.433594 8.710938 12.433594 9.003906 Z M 12.433594 9.003906 "/>
<path fill-rule="nonzero" fill="rgb(100%, 100%, 100%)" fill-opacity="1" d="M 14.023438 9.003906 C 14.023438 9.292969 13.785156 9.53125 13.492188 9.53125 C 13.203125 9.53125 12.964844 9.292969 12.964844 9.003906 C 12.964844 8.710938 13.203125 8.472656 13.492188 8.472656 C 13.785156 8.472656 14.023438 8.710938 14.023438 9.003906 Z M 14.023438 9.003906 "/>
<path fill-rule="nonzero" fill="rgb(60%, 60%, 60%)" fill-opacity="1" d="M 16.402344 13.230469 C 16.402344 14.984375 14.984375 16.402344 13.230469 16.402344 C 11.476562 16.402344 10.054688 14.984375 10.054688 13.230469 C 10.054688 11.476562 11.476562 10.054688 13.230469 10.054688 C 14.984375 10.054688 16.402344 11.476562 16.402344 13.230469 Z M 16.402344 13.230469 "/>
<path fill-rule="nonzero" fill="rgb(100%, 100%, 100%)" fill-opacity="1" d="M 12.753906 11.324219 L 12.710938 11.824219 C 12.550781 11.886719 12.402344 11.96875 12.273438 12.078125 L 11.816406 11.863281 L 11.339844 12.6875 L 11.753906 12.976562 C 11.738281 13.058594 11.734375 13.144531 11.730469 13.230469 C 11.730469 13.3125 11.738281 13.398438 11.753906 13.484375 L 11.339844 13.769531 L 11.816406 14.59375 L 12.273438 14.378906 C 12.402344 14.488281 12.550781 14.574219 12.710938 14.632812 L 12.753906 15.132812 L 13.703125 15.132812 L 13.746094 14.632812 C 13.90625 14.574219 14.054688 14.488281 14.183594 14.378906 L 14.640625 14.59375 L 15.117188 13.769531 L 14.703125 13.480469 C 14.71875 13.398438 14.726562 13.3125 14.726562 13.230469 C 14.726562 13.144531 14.71875 13.058594 14.703125 12.976562 L 15.117188 12.6875 L 14.640625 11.863281 L 14.1875 12.078125 C 14.054688 11.96875 13.90625 11.886719 13.746094 11.828125 L 13.703125 11.324219 Z M 13.230469 12.59375 C 13.578125 12.59375 13.863281 12.878906 13.863281 13.230469 C 13.863281 13.578125 13.578125 13.863281 13.230469 13.863281 C 12.878906 13.863281 12.59375 13.578125 12.59375 13.230469 C 12.59375 12.878906 12.878906 12.59375 13.230469 12.59375 Z M 13.230469 12.59375 "/>
</svg>
