<?xml version="1.0" encoding="UTF-8"?>
<svg xmlns="http://www.w3.org/2000/svg" xmlns:xlink="http://www.w3.org/1999/xlink" width="64" height="64" viewBox="0 0 64 64">
<path fill-rule="nonzero" fill="rgb(35.294118%, 84.705882%, 36.470588%)" fill-opacity="1" d="M 13.511719 3.425781 L 12.769531 4.164062 C 15.144531 6.542969 15.144531 10.394531 12.769531 12.769531 L 13.511719 13.511719 C 16.210938 10.816406 16.308594 6.472656 13.738281 3.652344 C 13.664062 3.574219 13.589844 3.496094 13.511719 3.425781 Z M 15.582031 7.835938 C 15.582031 7.855469 15.585938 7.875 15.585938 7.898438 C 15.585938 7.875 15.582031 7.855469 15.582031 7.835938 Z M 15.609375 8.542969 C 15.609375 8.566406 15.605469 8.589844 15.605469 8.613281 C 15.605469 8.589844 15.609375 8.566406 15.609375 8.542969 Z M 15.566406 9.25 C 15.5625 9.273438 15.558594 9.300781 15.558594 9.324219 C 15.558594 9.300781 15.5625 9.273438 15.566406 9.25 Z M 15.449219 9.96875 C 15.445312 9.984375 15.445312 9.996094 15.441406 10.007812 C 15.445312 9.996094 15.445312 9.984375 15.449219 9.96875 Z M 15.261719 10.667969 C 15.261719 10.671875 15.257812 10.679688 15.253906 10.6875 C 15.257812 10.679688 15.261719 10.671875 15.261719 10.667969 Z M 14.316406 12.570312 C 14.308594 12.578125 14.300781 12.589844 14.292969 12.601562 C 14.300781 12.589844 14.308594 12.578125 14.316406 12.570312 Z M 13.882812 13.121094 C 13.867188 13.140625 13.851562 13.160156 13.835938 13.179688 C 13.851562 13.160156 13.867188 13.140625 13.882812 13.121094 Z M 13.882812 13.121094 "/>
<path fill-rule="nonzero" fill="rgb(100%, 80.784314%, 23.921569%)" fill-opacity="1" d="M 13.507812 3.425781 L 12.769531 4.164062 C 14.476562 5.871094 14.957031 8.34375 14.210938 10.480469 C 14.230469 10.425781 14.25 10.375 14.265625 10.320312 L 15.277344 10.636719 C 15.414062 10.203125 15.507812 9.753906 15.558594 9.296875 C 15.589844 9.050781 15.605469 8.800781 15.609375 8.550781 C 15.609375 8.546875 15.609375 8.546875 15.609375 8.542969 C 15.625 6.625 14.867188 4.78125 13.507812 3.425781 Z M 14.210938 10.480469 C 13.917969 11.316406 13.4375 12.101562 12.769531 12.769531 L 12.777344 12.777344 C 13.402344 12.148438 13.902344 11.371094 14.210938 10.480469 Z M 15.582031 7.835938 C 15.582031 7.855469 15.585938 7.875 15.585938 7.898438 C 15.585938 7.875 15.582031 7.855469 15.582031 7.835938 Z M 15.261719 10.667969 C 15.261719 10.671875 15.257812 10.679688 15.253906 10.6875 C 15.257812 10.679688 15.261719 10.671875 15.261719 10.667969 Z M 14.316406 12.570312 C 14.308594 12.578125 14.300781 12.589844 14.292969 12.601562 C 14.300781 12.589844 14.308594 12.578125 14.316406 12.570312 Z M 13.886719 13.121094 C 13.867188 13.140625 13.851562 13.160156 13.835938 13.179688 C 13.851562 13.160156 13.867188 13.140625 13.886719 13.121094 Z M 13.886719 13.121094 "/>
<path fill-rule="nonzero" fill="rgb(100%, 34.509804%, 29.803922%)" fill-opacity="1" d="M 13.511719 3.421875 L 12.769531 4.164062 C 13.554688 4.949219 14.078125 5.894531 14.34375 6.894531 L 15.367188 6.621094 C 15.039062 5.410156 14.398438 4.304688 13.511719 3.421875 Z M 14.414062 7.179688 C 14.414062 7.191406 14.417969 7.199219 14.421875 7.210938 C 14.417969 7.199219 14.414062 7.191406 14.414062 7.179688 Z M 14.46875 7.472656 C 14.472656 7.488281 14.472656 7.503906 14.476562 7.519531 C 14.472656 7.503906 14.472656 7.488281 14.46875 7.472656 Z M 14.503906 7.730469 C 14.511719 7.769531 14.515625 7.804688 14.519531 7.839844 C 14.515625 7.804688 14.511719 7.769531 14.503906 7.730469 Z M 15.582031 7.835938 C 15.582031 7.855469 15.585938 7.875 15.585938 7.898438 C 15.585938 7.875 15.582031 7.855469 15.582031 7.835938 Z M 14.53125 7.996094 C 14.535156 8.046875 14.539062 8.101562 14.542969 8.152344 C 14.539062 8.101562 14.535156 8.046875 14.53125 7.996094 Z M 14.546875 8.25 C 14.550781 8.320312 14.550781 8.390625 14.550781 8.457031 C 14.550781 8.390625 14.550781 8.320312 14.546875 8.25 Z M 14.550781 8.515625 C 14.550781 8.59375 14.550781 8.671875 14.546875 8.746094 C 14.550781 8.671875 14.550781 8.59375 14.550781 8.515625 Z M 15.609375 8.542969 C 15.609375 8.566406 15.605469 8.589844 15.605469 8.613281 C 15.605469 8.589844 15.609375 8.566406 15.609375 8.542969 Z M 14.539062 8.835938 C 14.535156 8.902344 14.53125 8.96875 14.527344 9.039062 C 14.53125 8.96875 14.535156 8.902344 14.539062 8.835938 Z M 14.515625 9.136719 C 14.507812 9.203125 14.5 9.269531 14.492188 9.332031 C 14.5 9.269531 14.507812 9.203125 14.515625 9.136719 Z M 15.566406 9.25 C 15.5625 9.273438 15.558594 9.300781 15.558594 9.324219 C 15.558594 9.300781 15.5625 9.273438 15.566406 9.25 Z M 14.472656 9.441406 C 14.464844 9.496094 14.453125 9.554688 14.445312 9.609375 C 14.453125 9.554688 14.464844 9.496094 14.472656 9.441406 Z M 15.449219 9.96875 C 15.445312 9.984375 15.445312 9.996094 15.441406 10.007812 C 15.445312 9.996094 15.445312 9.984375 15.449219 9.96875 Z M 15.261719 10.667969 C 15.261719 10.675781 15.257812 10.679688 15.253906 10.6875 C 15.257812 10.679688 15.261719 10.675781 15.261719 10.667969 Z M 14.941406 11.476562 C 14.933594 11.496094 14.925781 11.515625 14.917969 11.535156 C 14.925781 11.515625 14.933594 11.496094 14.941406 11.476562 Z M 14.613281 12.105469 C 14.601562 12.125 14.589844 12.144531 14.574219 12.164062 C 14.589844 12.144531 14.601562 12.125 14.613281 12.105469 Z M 13.273438 12.199219 C 13.257812 12.21875 13.246094 12.234375 13.230469 12.253906 C 13.246094 12.234375 13.257812 12.21875 13.273438 12.199219 Z M 13.113281 12.394531 C 13.082031 12.429688 13.050781 12.46875 13.019531 12.503906 C 13.050781 12.46875 13.082031 12.429688 13.113281 12.394531 Z M 14.316406 12.570312 C 14.308594 12.578125 14.300781 12.589844 14.292969 12.601562 C 14.300781 12.589844 14.308594 12.578125 14.316406 12.570312 Z M 12.925781 12.605469 C 12.886719 12.648438 12.847656 12.6875 12.808594 12.730469 C 12.847656 12.6875 12.886719 12.648438 12.925781 12.605469 Z M 14.222656 12.695312 C 14.207031 12.714844 14.191406 12.734375 14.179688 12.753906 C 14.191406 12.734375 14.207031 12.714844 14.222656 12.695312 Z M 13.882812 13.121094 C 13.867188 13.140625 13.851562 13.160156 13.835938 13.179688 C 13.851562 13.160156 13.867188 13.140625 13.882812 13.121094 Z M 13.761719 13.261719 C 13.753906 13.269531 13.746094 13.277344 13.734375 13.289062 C 13.746094 13.277344 13.753906 13.269531 13.761719 13.261719 Z M 13.761719 13.261719 "/>
<path fill-rule="nonzero" fill="rgb(21.960784%, 49.803922%, 90.588235%)" fill-opacity="1" d="M 13.519531 3.417969 C 10.726562 0.625 6.203125 0.625 3.414062 3.417969 C 0.625 6.207031 0.625 10.730469 3.414062 13.519531 C 6.203125 16.308594 10.726562 16.308594 13.519531 13.519531 L 12.769531 12.769531 C 15.144531 10.394531 15.144531 6.542969 12.769531 4.164062 Z M 15.582031 7.835938 C 15.582031 7.855469 15.585938 7.875 15.585938 7.898438 C 15.585938 7.875 15.582031 7.855469 15.582031 7.835938 Z M 15.609375 8.542969 C 15.609375 8.566406 15.605469 8.589844 15.605469 8.613281 C 15.609375 8.589844 15.609375 8.566406 15.609375 8.542969 Z M 15.566406 9.25 C 15.5625 9.273438 15.558594 9.300781 15.558594 9.324219 C 15.558594 9.300781 15.5625 9.273438 15.566406 9.25 Z M 15.449219 9.96875 C 15.445312 9.984375 15.445312 9.996094 15.441406 10.007812 C 15.445312 9.996094 15.445312 9.980469 15.449219 9.96875 Z M 15.261719 10.667969 C 15.261719 10.671875 15.257812 10.679688 15.257812 10.6875 C 15.257812 10.679688 15.261719 10.671875 15.261719 10.667969 Z M 14.316406 12.570312 C 14.308594 12.578125 14.300781 12.589844 14.292969 12.601562 C 14.300781 12.589844 14.308594 12.578125 14.316406 12.570312 Z M 13.886719 13.121094 C 13.867188 13.140625 13.851562 13.160156 13.835938 13.179688 C 13.851562 13.160156 13.867188 13.140625 13.886719 13.121094 Z M 13.886719 13.121094 "/>
<path fill-rule="nonzero" fill="rgb(100%, 100%, 100%)" fill-opacity="1" d="M 9.742188 9.671875 C 9.445312 10.078125 8.96875 10.316406 8.464844 10.316406 C 7.964844 10.316406 7.492188 10.078125 7.191406 9.671875 C 5.734375 10.015625 4.765625 10.90625 4.761719 11.90625 L 12.171875 11.90625 C 12.171875 10.90625 11.199219 10.015625 9.742188 9.671875 Z M 9.742188 9.671875 "/>
<path fill-rule="nonzero" fill="rgb(100%, 100%, 100%)" fill-opacity="1" d="M 10.054688 6.351562 C 10.054688 7.226562 9.34375 7.9375 8.464844 7.9375 C 7.589844 7.9375 6.878906 7.226562 6.878906 6.351562 C 6.878906 5.476562 7.589844 4.765625 8.464844 4.765625 C 9.34375 4.765625 10.054688 5.476562 10.054688 6.351562 Z M 10.054688 6.351562 "/>
<path fill-rule="nonzero" fill="rgb(100%, 100%, 100%)" fill-opacity="1" d="M 6.878906 6.351562 C 6.878906 7.8125 7.589844 8.996094 8.464844 8.996094 C 9.34375 8.996094 10.054688 7.8125 10.054688 6.351562 Z M 6.878906 6.351562 "/>
</svg>
