<?xml version="1.0" encoding="UTF-8"?>
<svg xmlns="http://www.w3.org/2000/svg" xmlns:xlink="http://www.w3.org/1999/xlink" width="64" height="64" viewBox="0 0 64 64">
<defs>
<filter id="filter-remove-color" x="0%" y="0%" width="100%" height="100%">
<feColorMatrix color-interpolation-filters="sRGB" values="0 0 0 0 1 0 0 0 0 1 0 0 0 0 1 0 0 0 1 0" />
</filter>
<mask id="mask-0">
<g filter="url(#filter-remove-color)">
<rect x="-6.4" y="-6.4" width="76.8" height="76.8" fill="rgb(0%, 0%, 0%)" fill-opacity="0.2"/>
</g>
</mask>
<clipPath id="clip-0">
<rect x="0" y="0" width="64" height="64"/>
</clipPath>
<g id="source-212" clip-path="url(#clip-0)">
<path fill-rule="nonzero" fill="rgb(66.27451%, 68.627451%, 70.196078%)" fill-opacity="1" d="M 17 22 L 30.5 43 L 33.5 43 L 47 22 Z M 17 22 "/>
</g>
</defs>
<path fill-rule="nonzero" fill="rgb(94.901961%, 94.901961%, 94.901961%)" fill-opacity="1" d="M 32 5 C 46.910156 5 59 17.089844 59 32 C 59 46.910156 46.910156 59 32 59 C 17.089844 59 5 46.910156 5 32 C 5 17.089844 17.089844 5 32 5 Z M 32 5 "/>
<path fill-rule="nonzero" fill="rgb(66.27451%, 68.627451%, 70.196078%)" fill-opacity="1" d="M 17 20.5 L 17 22 L 30.5 43 L 30.5 50.5 L 33.5 53.5 L 33.5 43 L 47 22 L 47 20.5 Z M 17 20.5 "/>
<g mask="url(#mask-0)">
<use xlink:href="#source-212"/>
</g>
<path fill-rule="nonzero" fill="rgb(74.509804%, 76.470588%, 77.647059%)" fill-opacity="1" d="M 48.5 22 C 49.332031 22 50 21.332031 50 20.5 L 50 19 L 14 19 L 14 20.5 C 14 21.332031 14.667969 22 15.5 22 Z M 48.5 22 "/>
<path fill-rule="nonzero" fill="rgb(66.27451%, 68.627451%, 70.196078%)" fill-opacity="1" d="M 30.5 49 L 30.5 50.5 L 33.5 53.5 L 33.5 52 Z M 30.5 49 "/>
</svg>
