<?xml version="1.0" encoding="UTF-8"?>
<svg xmlns="http://www.w3.org/2000/svg" xmlns:xlink="http://www.w3.org/1999/xlink" width="64" height="64" viewBox="0 0 64 64">
<defs>
<filter id="filter-remove-color" x="0%" y="0%" width="100%" height="100%">
<feColorMatrix color-interpolation-filters="sRGB" values="0 0 0 0 1 0 0 0 0 1 0 0 0 0 1 0 0 0 1 0" />
</filter>
<mask id="mask-0">
<g filter="url(#filter-remove-color)">
<rect x="-6.4" y="-6.4" width="76.8" height="76.8" fill="rgb(0%, 0%, 0%)" fill-opacity="0.35"/>
</g>
</mask>
<clipPath id="clip-0">
<rect x="0" y="0" width="17" height="17"/>
</clipPath>
<g id="source-15522" clip-path="url(#clip-0)">
<path fill-rule="nonzero" fill="rgb(0%, 0%, 0%)" fill-opacity="1" d="M 8.464844 1.058594 C 6.890625 1.058594 5.433594 1.546875 4.234375 2.382812 L 12.699219 2.382812 C 11.5 1.546875 10.042969 1.058594 8.464844 1.058594 Z M 8.464844 1.058594 "/>
</g>
<mask id="mask-1">
<g filter="url(#filter-remove-color)">
<rect x="-6.4" y="-6.4" width="76.8" height="76.8" fill="rgb(0%, 0%, 0%)" fill-opacity="0.35"/>
</g>
</mask>
<clipPath id="clip-1">
<rect x="0" y="0" width="17" height="17"/>
</clipPath>
<g id="source-15526" clip-path="url(#clip-1)">
<path fill-rule="nonzero" fill="rgb(0%, 0%, 0%)" fill-opacity="1" d="M 7.410156 1.578125 L 9.523438 1.578125 C 9.671875 1.578125 9.789062 1.699219 9.789062 1.84375 C 9.789062 1.992188 9.671875 2.109375 9.523438 2.109375 L 7.410156 2.109375 C 7.261719 2.109375 7.144531 1.992188 7.144531 1.84375 C 7.144531 1.699219 7.261719 1.578125 7.410156 1.578125 Z M 7.410156 1.578125 "/>
</g>
</defs>
<path fill-rule="nonzero" fill="rgb(97.647059%, 97.647059%, 97.647059%)" fill-opacity="1" d="M 8.464844 1.058594 C 12.558594 1.058594 15.875 4.375 15.875 8.464844 C 15.875 12.558594 12.558594 15.875 8.464844 15.875 C 4.375 15.875 1.058594 12.558594 1.058594 8.464844 C 1.058594 4.375 4.375 1.058594 8.464844 1.058594 Z M 8.464844 1.058594 "/>
<g mask="url(#mask-0)">
<use xlink:href="#source-15522"/>
</g>
<g mask="url(#mask-1)">
<use xlink:href="#source-15526"/>
</g>
<path fill-rule="nonzero" fill="rgb(100%, 100%, 100%)" fill-opacity="1" d="M 5.085938 8.46875 C 5.085938 10.34375 6.601562 11.863281 8.472656 11.863281 C 10.34375 11.863281 11.863281 10.34375 11.863281 8.46875 C 11.863281 6.597656 10.34375 5.078125 8.472656 5.078125 C 6.601562 5.078125 5.085938 6.597656 5.085938 8.46875 Z M 5.085938 8.46875 "/>
<path fill-rule="nonzero" fill="rgb(68.627451%, 88.235294%, 39.215686%)" fill-opacity="1" d="M 6.804688 7.773438 L 6.804688 4.566406 C 5.777344 5.007812 4.957031 5.84375 4.539062 6.882812 L 6.804688 9.152344 Z M 6.804688 7.773438 "/>
<path fill-rule="nonzero" fill="rgb(84.313725%, 90.196078%, 39.215686%)" fill-opacity="1" d="M 7.777344 6.800781 L 10.042969 4.535156 C 9.554688 4.335938 9.023438 4.230469 8.464844 4.230469 C 7.875 4.230469 7.316406 4.351562 6.804688 4.566406 L 6.804688 7.773438 Z M 7.777344 6.800781 "/>
<path fill-rule="nonzero" fill="rgb(100%, 66.666667%, 39.215686%)" fill-opacity="1" d="M 12.359375 6.800781 L 9.15625 6.800781 L 10.125 7.773438 L 12.394531 10.039062 C 12.589844 9.550781 12.699219 9.019531 12.699219 8.460938 C 12.699219 7.871094 12.578125 7.3125 12.359375 6.800781 Z M 12.359375 6.800781 "/>
<path fill-rule="nonzero" fill="rgb(100%, 39.215686%, 41.176471%)" fill-opacity="1" d="M 10.125 9.152344 L 10.125 12.355469 C 11.15625 11.917969 11.976562 11.082031 12.394531 10.039062 L 10.125 7.773438 Z M 10.125 9.152344 "/>
<path fill-rule="nonzero" fill="rgb(76.470588%, 70.588235%, 98.039216%)" fill-opacity="1" d="M 9.15625 10.121094 L 6.886719 12.390625 C 7.375 12.585938 7.910156 12.695312 8.464844 12.695312 C 9.054688 12.695312 9.617188 12.574219 10.125 12.355469 L 10.125 9.152344 Z M 9.15625 10.121094 "/>
<path fill-rule="nonzero" fill="rgb(49.019608%, 82.352941%, 94.117647%)" fill-opacity="1" d="M 7.777344 10.121094 L 4.570312 10.121094 C 5.011719 11.152344 5.847656 11.972656 6.886719 12.390625 L 9.15625 10.121094 Z M 7.777344 10.121094 "/>
<path fill-rule="nonzero" fill="rgb(49.019608%, 90.196078%, 76.470588%)" fill-opacity="1" d="M 6.804688 9.152344 L 4.539062 6.882812 C 4.34375 7.371094 4.234375 7.902344 4.234375 8.460938 C 4.234375 9.050781 4.355469 9.613281 4.570312 10.121094 L 7.777344 10.121094 Z M 6.804688 9.152344 "/>
<path fill-rule="nonzero" fill="rgb(100%, 90.196078%, 41.176471%)" fill-opacity="1" d="M 9.15625 6.800781 L 12.359375 6.800781 C 11.921875 5.773438 11.085938 4.953125 10.046875 4.535156 L 7.777344 6.800781 Z M 9.15625 6.800781 "/>
</svg>
