<?xml version="1.0" encoding="UTF-8"?>
<svg xmlns="http://www.w3.org/2000/svg" xmlns:xlink="http://www.w3.org/1999/xlink" width="64" height="64" viewBox="0 0 64 64">
<path fill="none" stroke-width="0.52916" stroke-linecap="butt" stroke-linejoin="miter" stroke="rgb(0%, 0%, 0%)" stroke-opacity="0.098039" stroke-miterlimit="4" d="M 15.609375 288.538757 C 15.609375 292.48407 12.410156 295.683289 8.464844 295.683289 C 4.519531 295.683289 1.324219 292.48407 1.324219 288.538757 C 1.324219 284.593445 4.519531 281.398132 8.464844 281.398132 C 12.410156 281.398132 15.609375 284.593445 15.609375 288.538757 Z M 15.609375 288.538757 " transform="matrix(1, 0, 0, 1, 0, -280.070007)"/>
<path fill-rule="nonzero" fill="rgb(100%, 100%, 100%)" fill-opacity="1" d="M 15.609375 8.46875 C 15.609375 12.414062 12.410156 15.613281 8.464844 15.613281 C 4.519531 15.613281 1.324219 12.414062 1.324219 8.46875 C 1.324219 4.523438 4.519531 1.328125 8.464844 1.328125 C 12.410156 1.328125 15.609375 4.523438 15.609375 8.46875 Z M 15.609375 8.46875 "/>
<path fill-rule="nonzero" fill="rgb(100%, 100%, 100%)" fill-opacity="1" d="M 15.609375 8.46875 C 15.609375 12.414062 12.410156 15.613281 8.464844 15.613281 C 4.519531 15.613281 1.324219 12.414062 1.324219 8.46875 C 1.324219 4.523438 4.519531 1.328125 8.464844 1.328125 C 12.410156 1.328125 15.609375 4.523438 15.609375 8.46875 Z M 15.609375 8.46875 "/>
<path fill-rule="nonzero" fill="rgb(20%, 20%, 20%)" fill-opacity="1" d="M 8.203125 4.230469 L 8.730469 4.230469 L 8.730469 8.464844 L 8.203125 8.464844 Z M 8.203125 4.230469 "/>
<path fill-rule="nonzero" fill="rgb(75.294118%, 52.156863%, 53.72549%)" fill-opacity="1" d="M 8.652344 8.464844 L 12.769531 12.578125 L 12.582031 12.765625 L 8.464844 8.652344 Z M 8.652344 8.464844 "/>
<path fill-rule="nonzero" fill="rgb(20%, 20%, 20%)" fill-opacity="1" d="M 8.730469 8.460938 C 8.730469 8.605469 8.613281 8.726562 8.46875 8.726562 C 8.320312 8.726562 8.203125 8.605469 8.203125 8.460938 C 8.203125 8.3125 8.320312 8.195312 8.46875 8.195312 C 8.613281 8.195312 8.730469 8.3125 8.730469 8.460938 Z M 8.730469 8.460938 "/>
</svg>
