<?xml version="1.0" encoding="UTF-8"?>
<svg xmlns="http://www.w3.org/2000/svg" xmlns:xlink="http://www.w3.org/1999/xlink" width="64" height="64" viewBox="0 0 64 64">
<path fill-rule="nonzero" fill="rgb(97.647059%, 97.647059%, 97.647059%)" fill-opacity="1" d="M 15.609375 8.464844 C 15.609375 12.410156 12.410156 15.609375 8.464844 15.609375 C 4.519531 15.609375 1.324219 12.410156 1.324219 8.464844 C 1.324219 4.519531 4.519531 1.324219 8.464844 1.324219 C 12.410156 1.324219 15.609375 4.519531 15.609375 8.464844 Z M 15.609375 8.464844 "/>
<path fill-rule="nonzero" fill="rgb(21.568627%, 46.27451%, 67.058824%)" fill-opacity="1" d="M 8.136719 3.441406 C 6.851562 3.441406 5.816406 4.179688 5.816406 5.097656 L 5.816406 5.820312 L 5.09375 5.820312 C 4.179688 5.820312 3.441406 6.851562 3.441406 8.136719 L 3.441406 8.800781 C 3.441406 10.082031 4.179688 11.117188 5.097656 11.117188 L 11.117188 11.117188 L 11.117188 5.097656 C 11.117188 4.179688 10.082031 3.441406 8.796875 3.441406 Z M 8.136719 3.441406 "/>
<path fill-rule="nonzero" fill="rgb(100%, 82.745098%, 26.27451%)" fill-opacity="1" d="M 8.796875 13.488281 C 10.082031 13.488281 11.117188 12.75 11.117188 11.832031 L 11.117188 11.113281 L 11.839844 11.113281 C 12.753906 11.113281 13.492188 10.078125 13.492188 8.792969 L 13.492188 8.128906 C 13.492188 6.847656 12.753906 5.8125 11.835938 5.8125 L 11.117188 5.8125 L 11.117188 7.136719 C 11.117188 7.871094 10.523438 8.460938 9.792969 8.460938 L 7.144531 8.460938 C 7.144531 8.460938 5.816406 8.460938 5.816406 9.789062 L 5.816406 11.832031 C 5.816406 12.75 6.851562 13.488281 8.136719 13.488281 Z M 8.796875 13.488281 "/>
<path fill-rule="nonzero" fill="rgb(100%, 100%, 100%)" fill-opacity="1" d="M 7.984375 4.851562 C 7.984375 5.117188 7.769531 5.332031 7.503906 5.332031 C 7.238281 5.332031 7.023438 5.117188 7.023438 4.851562 C 7.023438 4.585938 7.238281 4.371094 7.503906 4.371094 C 7.769531 4.371094 7.984375 4.585938 7.984375 4.851562 Z M 7.984375 4.851562 "/>
<path fill-rule="nonzero" fill="rgb(100%, 100%, 100%)" fill-opacity="1" d="M 9.941406 12.304688 C 9.941406 12.578125 9.71875 12.800781 9.445312 12.800781 C 9.171875 12.800781 8.949219 12.578125 8.949219 12.304688 C 8.949219 12.03125 9.171875 11.808594 9.445312 11.808594 C 9.71875 11.808594 9.941406 12.03125 9.941406 12.304688 Z M 9.941406 12.304688 "/>
</svg>
