<?xml version="1.0" encoding="UTF-8"?>
<svg xmlns="http://www.w3.org/2000/svg" xmlns:xlink="http://www.w3.org/1999/xlink" width="64" height="64" viewBox="0 0 64 64">
<path fill-rule="nonzero" fill="rgb(21.960784%, 21.960784%, 21.960784%)" fill-opacity="1" d="M 32 5 C 46.910156 5 59 17.085938 59 32 C 59 46.910156 46.910156 59 32 59 C 17.085938 59 5 46.910156 5 32 C 5 17.085938 17.085938 5 32 5 Z M 32 5 "/>
<path fill-rule="nonzero" fill="rgb(100%, 54.509804%, 23.529412%)" fill-opacity="1" d="M 32 14.496094 C 22.273438 14.496094 14.390625 22.378906 14.390625 32.105469 C 14.398438 39.683594 19.253906 46.40625 26.445312 48.796875 C 24.816406 44.277344 23.566406 37.296875 22.808594 33.941406 C 22.429688 32.457031 22.65625 30.976562 22.910156 29.488281 C 23.429688 27.941406 23.597656 26.328125 24.304688 24.839844 C 25.382812 23.910156 25.410156 22.21875 26.457031 21.40625 C 26.613281 21.5 26.714844 21.539062 26.789062 21.574219 L 26.898438 21.585938 L 26.910156 21.585938 C 27.058594 21.429688 25.445312 19.785156 26.941406 20.433594 C 27 19.574219 28.351562 20.230469 28.371094 19.476562 C 29.03125 20.019531 28.90625 19.792969 29.792969 19.691406 C 30.796875 19.050781 31.265625 21.203125 31.683594 20.003906 C 32.917969 20.160156 34.230469 20.550781 35.394531 20.941406 C 36.570312 21.195312 37.679688 21.851562 38.464844 22.757812 L 38.441406 22.757812 L 39.019531 23.511719 C 39.089844 23.640625 39.160156 23.773438 39.21875 23.910156 C 39.453125 25.84375 41.660156 25.820312 43.140625 26.519531 C 44.40625 26.953125 45.929688 27.621094 46.085938 29.105469 C 45.765625 29.039062 44.53125 27.632812 43.5625 27.488281 C 42.976562 27.453125 42.34375 27.292969 41.753906 27.082031 L 38.339844 26.46875 L 38.339844 26.457031 C 38.175781 26.433594 38 26.410156 37.832031 26.375 L 37.832031 26.386719 L 33.003906 25.808594 C 33.082031 25.859375 33.167969 25.933594 33.246094 26.003906 L 38.199219 26.941406 L 38.199219 26.929688 L 38.539062 27.015625 L 39.925781 27.320312 C 40.199219 27.34375 40.476562 27.386719 40.703125 27.429688 C 42.117188 27.804688 43.785156 27.738281 44.949219 28.699219 C 44.640625 29.265625 42.953125 28.945312 42.109375 28.871094 C 42.003906 28.851562 41.890625 28.839844 41.789062 28.816406 C 41.765625 28.816406 41.753906 28.804688 41.730469 28.804688 C 40.582031 28.628906 39.40625 28.617188 38.296875 28.949219 C 38.296875 28.949219 38.289062 28.949219 38.285156 28.949219 C 37.90625 29.0625 37.535156 29.230469 37.179688 29.433594 C 35.582031 30.335938 33.609375 30.667969 32.28125 31.96875 C 30.988281 33.324219 31.0625 35.199219 31.289062 36.941406 L 31.339844 36.941406 L 31.339844 37.382812 C 31.363281 37.535156 31.386719 37.6875 31.40625 37.835938 C 32.082031 41.355469 33.882812 44.585938 34.441406 48.136719 C 34.476562 48.5625 34.535156 49.039062 34.582031 49.503906 C 43.210938 48.226562 49.601562 40.824219 49.609375 32.105469 C 49.609375 22.378906 41.722656 14.496094 32 14.496094 Z M 34.71875 22.980469 C 34.1875 22.996094 33.773438 23.191406 33.65625 23.519531 C 33.46875 24.050781 34.105469 24.734375 35.085938 25.058594 C 36.066406 25.394531 37.011719 25.234375 37.203125 24.707031 C 37.390625 24.175781 36.753906 23.484375 35.769531 23.15625 C 35.40625 23.03125 35.039062 22.976562 34.71875 22.980469 Z M 34.71875 22.980469 "/>
</svg>
