<?xml version="1.0" encoding="UTF-8"?>
<svg xmlns="http://www.w3.org/2000/svg" xmlns:xlink="http://www.w3.org/1999/xlink" width="64" height="64" viewBox="0 0 64 64">
<path fill-rule="nonzero" fill="rgb(90.980392%, 90.980392%, 90.980392%)" fill-opacity="1" d="M 15.609375 8.460938 C 15.609375 12.40625 12.410156 15.605469 8.464844 15.605469 C 4.519531 15.605469 1.324219 12.40625 1.324219 8.460938 C 1.324219 4.515625 4.519531 1.316406 8.464844 1.316406 C 12.410156 1.316406 15.609375 4.515625 15.609375 8.460938 Z M 15.609375 8.460938 "/>
<path fill-rule="nonzero" fill="rgb(24.705882%, 62.352941%, 29.019608%)" fill-opacity="1" d="M 13.492188 8.460938 C 13.492188 11.238281 11.242188 13.488281 8.46875 13.488281 C 5.691406 13.488281 3.441406 11.238281 3.441406 8.460938 C 3.441406 5.683594 5.691406 3.433594 8.46875 3.433594 C 11.242188 3.433594 13.492188 5.683594 13.492188 8.460938 Z M 13.492188 8.460938 "/>
<path fill-rule="nonzero" fill="rgb(100%, 100%, 100%)" fill-opacity="1" d="M 7.410156 6.085938 C 6.925781 6.085938 6.503906 6.414062 6.386719 6.878906 L 4.761719 6.878906 L 4.761719 7.410156 L 6.382812 7.410156 C 6.503906 7.875 6.925781 8.203125 7.410156 8.203125 C 7.53125 8.203125 7.652344 8.179688 7.765625 8.140625 L 9.671875 10.046875 C 9.578125 10.210938 9.527344 10.394531 9.523438 10.582031 C 9.523438 11.167969 10 11.640625 10.582031 11.640625 C 11.167969 11.640625 11.640625 11.167969 11.640625 10.582031 C 11.640625 10 11.167969 9.523438 10.582031 9.523438 C 10.394531 9.527344 10.210938 9.578125 10.046875 9.671875 L 8.207031 7.835938 C 8.316406 7.710938 8.390625 7.566406 8.429688 7.410156 L 9.824219 7.410156 C 9.945312 7.875 10.367188 8.203125 10.847656 8.203125 C 11.433594 8.203125 11.90625 7.726562 11.90625 7.144531 C 11.90625 6.558594 11.433594 6.085938 10.847656 6.085938 C 10.367188 6.085938 9.945312 6.414062 9.824219 6.878906 L 8.433594 6.878906 C 8.3125 6.414062 7.890625 6.085938 7.410156 6.085938 Z M 7.410156 6.085938 "/>
</svg>
