<?xml version="1.0" encoding="UTF-8"?>
<svg xmlns="http://www.w3.org/2000/svg" xmlns:xlink="http://www.w3.org/1999/xlink" width="64" height="64" viewBox="0 0 64 64">
<path fill-rule="nonzero" fill="rgb(90.196078%, 90.196078%, 90.196078%)" fill-opacity="1" d="M 15.609375 8.464844 C 15.609375 12.410156 12.410156 15.609375 8.464844 15.609375 C 4.519531 15.609375 1.324219 12.410156 1.324219 8.464844 C 1.324219 4.519531 4.519531 1.324219 8.464844 1.324219 C 12.410156 1.324219 15.609375 4.519531 15.609375 8.464844 Z M 15.609375 8.464844 "/>
<path fill-rule="nonzero" fill="rgb(94.901961%, 94.901961%, 94.901961%)" fill-opacity="1" d="M 14.550781 8.464844 C 14.550781 11.828125 11.828125 14.550781 8.464844 14.550781 C 5.105469 14.550781 2.382812 11.828125 2.382812 8.464844 C 2.382812 5.105469 5.105469 2.382812 8.464844 2.382812 C 11.828125 2.382812 14.550781 5.105469 14.550781 8.464844 Z M 14.550781 8.464844 "/>
<path fill-rule="nonzero" fill="rgb(75.294118%, 75.294118%, 75.294118%)" fill-opacity="0.81176" d="M 4.925781 4.558594 L 4.515625 4.976562 C 4.515625 4.976562 4.519531 4.980469 4.523438 4.980469 C 4.53125 4.988281 4.535156 4.992188 4.542969 4.996094 C 4.546875 5.003906 4.554688 5.007812 4.558594 5.015625 C 4.566406 5.019531 4.570312 5.023438 4.578125 5.03125 C 4.582031 5.035156 4.589844 5.042969 4.59375 5.050781 C 4.597656 5.054688 4.605469 5.0625 4.609375 5.070312 C 4.613281 5.074219 4.621094 5.082031 4.625 5.089844 C 4.628906 5.09375 4.632812 5.101562 4.640625 5.109375 L 5.054688 4.6875 C 5.050781 4.683594 5.050781 4.679688 5.050781 4.679688 C 5.042969 4.671875 5.035156 4.664062 5.03125 4.65625 C 5.023438 4.648438 5.019531 4.640625 5.011719 4.636719 C 5.003906 4.628906 4.996094 4.621094 4.992188 4.613281 C 4.984375 4.609375 4.976562 4.601562 4.96875 4.59375 C 4.960938 4.585938 4.957031 4.582031 4.949219 4.574219 C 4.941406 4.570312 4.933594 4.5625 4.925781 4.558594 Z M 4.640625 5.109375 C 4.632812 5.101562 4.628906 5.09375 4.625 5.089844 C 4.621094 5.082031 4.613281 5.074219 4.609375 5.070312 C 4.605469 5.0625 4.597656 5.054688 4.59375 5.050781 C 4.589844 5.042969 4.582031 5.035156 4.578125 5.03125 C 4.570312 5.023438 4.566406 5.019531 4.558594 5.015625 C 4.554688 5.007812 4.546875 5.003906 4.542969 4.996094 C 4.535156 4.992188 4.53125 4.988281 4.523438 4.980469 C 4.519531 4.980469 4.515625 4.976562 4.515625 4.976562 L 4.199219 5.296875 L 4.328125 5.425781 Z M 5.222656 4.25 L 4.925781 4.558594 C 4.933594 4.5625 4.941406 4.570312 4.949219 4.574219 C 4.957031 4.582031 4.960938 4.585938 4.96875 4.59375 C 4.976562 4.601562 4.984375 4.609375 4.992188 4.613281 C 4.996094 4.621094 5.003906 4.628906 5.011719 4.636719 C 5.019531 4.640625 5.023438 4.648438 5.03125 4.65625 C 5.035156 4.664062 5.042969 4.671875 5.050781 4.679688 C 5.050781 4.679688 5.050781 4.683594 5.054688 4.6875 L 5.351562 4.382812 Z M 5.222656 4.25 "/>
<path fill-rule="nonzero" fill="rgb(0%, 0%, 0%)" fill-opacity="0.2" d="M 4.640625 5.109375 C 4.632812 5.101562 4.628906 5.09375 4.625 5.089844 C 4.621094 5.082031 4.613281 5.074219 4.609375 5.070312 C 4.605469 5.0625 4.597656 5.054688 4.59375 5.050781 C 4.589844 5.042969 4.582031 5.035156 4.578125 5.03125 C 4.570312 5.023438 4.566406 5.019531 4.558594 5.015625 C 4.554688 5.007812 4.546875 5.003906 4.542969 4.996094 C 4.535156 4.992188 4.53125 4.988281 4.523438 4.980469 C 4.519531 4.980469 4.515625 4.976562 4.515625 4.976562 L 4.199219 5.296875 L 4.328125 5.425781 Z M 4.640625 5.109375 "/>
<path fill-rule="nonzero" fill="rgb(0%, 0%, 0%)" fill-opacity="0.1" d="M 4.925781 4.558594 L 4.515625 4.976562 C 4.515625 4.976562 4.519531 4.980469 4.523438 4.980469 C 4.53125 4.988281 4.535156 4.992188 4.542969 4.996094 C 4.546875 5.003906 4.554688 5.007812 4.558594 5.015625 C 4.566406 5.019531 4.570312 5.023438 4.578125 5.03125 C 4.582031 5.035156 4.589844 5.042969 4.59375 5.050781 C 4.597656 5.054688 4.605469 5.0625 4.609375 5.070312 C 4.613281 5.074219 4.621094 5.082031 4.625 5.089844 C 4.628906 5.09375 4.632812 5.101562 4.640625 5.109375 L 5.054688 4.6875 C 5.050781 4.683594 5.050781 4.679688 5.050781 4.679688 C 5.042969 4.671875 5.035156 4.664062 5.03125 4.65625 C 5.023438 4.648438 5.019531 4.640625 5.011719 4.636719 C 5.003906 4.628906 4.996094 4.621094 4.992188 4.613281 C 4.984375 4.609375 4.976562 4.601562 4.96875 4.59375 C 4.960938 4.585938 4.957031 4.582031 4.949219 4.574219 C 4.941406 4.570312 4.933594 4.5625 4.925781 4.558594 Z M 4.925781 4.558594 "/>
<path fill-rule="nonzero" fill="rgb(20%, 20%, 20%)" fill-opacity="1" d="M 5.480469 4.320312 C 5.4375 4.320312 5.394531 4.335938 5.363281 4.371094 L 4.941406 4.800781 L 4.316406 5.4375 C 4.25 5.503906 4.25 5.609375 4.3125 5.671875 L 4.453125 5.816406 L 4.457031 5.816406 L 4.445312 5.832031 C 4.378906 5.894531 4.378906 6 4.441406 6.0625 L 7.414062 9.09375 C 7.476562 9.160156 7.578125 9.15625 7.644531 9.09375 L 7.65625 9.078125 L 7.726562 9.152344 L 8.054688 9.484375 C 8.117188 9.550781 8.21875 9.546875 8.28125 9.484375 L 8.96875 8.785156 L 9.332031 8.414062 C 9.394531 8.347656 9.398438 8.246094 9.332031 8.179688 L 8.933594 7.773438 L 8.949219 7.761719 C 9.011719 7.695312 9.011719 7.59375 8.949219 7.527344 L 5.976562 4.496094 C 5.914062 4.433594 5.8125 4.433594 5.75 4.5 L 5.734375 4.511719 L 5.59375 4.367188 C 5.5625 4.335938 5.519531 4.320312 5.480469 4.320312 Z M 5.480469 4.320312 "/>
<path fill-rule="nonzero" fill="rgb(75.294118%, 75.294118%, 75.294118%)" fill-opacity="0.75294" d="M 12.464844 12.785156 C 12.464844 12.777344 12.460938 12.773438 12.460938 12.765625 C 12.453125 12.757812 12.449219 12.75 12.445312 12.738281 C 12.441406 12.730469 12.4375 12.722656 12.429688 12.710938 C 12.425781 12.703125 12.421875 12.691406 12.417969 12.683594 C 12.410156 12.675781 12.40625 12.664062 12.402344 12.65625 C 12.394531 12.648438 12.390625 12.636719 12.382812 12.628906 C 12.378906 12.621094 12.371094 12.609375 12.367188 12.601562 C 12.359375 12.59375 12.355469 12.582031 12.347656 12.574219 C 12.339844 12.566406 12.335938 12.554688 12.328125 12.546875 C 12.320312 12.539062 12.316406 12.53125 12.308594 12.519531 C 12.300781 12.511719 12.292969 12.503906 12.289062 12.496094 C 12.28125 12.484375 12.273438 12.476562 12.265625 12.46875 C 12.257812 12.460938 12.25 12.453125 12.246094 12.445312 C 12.238281 12.4375 12.234375 12.429688 12.226562 12.425781 C 12.21875 12.417969 12.210938 12.410156 12.203125 12.402344 C 12.195312 12.394531 12.1875 12.382812 12.179688 12.375 C 12.171875 12.367188 12.164062 12.363281 12.15625 12.355469 C 12.148438 12.347656 12.140625 12.339844 12.132812 12.332031 C 12.125 12.324219 12.117188 12.316406 12.109375 12.308594 C 12.101562 12.300781 12.089844 12.296875 12.082031 12.289062 C 12.074219 12.28125 12.066406 12.273438 12.058594 12.269531 C 12.050781 12.261719 12.039062 12.253906 12.03125 12.25 C 12.023438 12.242188 12.015625 12.238281 12.007812 12.230469 C 11.996094 12.222656 11.988281 12.21875 11.980469 12.214844 C 11.972656 12.207031 11.960938 12.203125 11.953125 12.195312 C 11.945312 12.191406 11.9375 12.1875 11.929688 12.179688 C 11.917969 12.175781 11.910156 12.171875 11.902344 12.167969 C 11.894531 12.160156 11.882812 12.15625 11.875 12.152344 C 11.867188 12.148438 11.859375 12.144531 11.851562 12.140625 C 11.839844 12.136719 11.832031 12.132812 11.824219 12.128906 C 11.816406 12.125 11.808594 12.121094 11.796875 12.117188 C 11.789062 12.113281 11.78125 12.113281 11.773438 12.109375 C 11.765625 12.105469 11.757812 12.101562 11.746094 12.101562 C 11.738281 12.097656 11.730469 12.097656 11.722656 12.09375 C 11.714844 12.09375 11.707031 12.089844 11.699219 12.089844 C 11.691406 12.085938 11.683594 12.085938 11.675781 12.082031 C 11.667969 12.082031 11.660156 12.082031 11.652344 12.078125 C 11.644531 12.078125 11.636719 12.078125 11.628906 12.078125 C 11.621094 12.078125 11.613281 12.078125 11.605469 12.078125 C 11.597656 12.078125 11.589844 12.078125 11.582031 12.078125 C 11.578125 12.078125 11.570312 12.078125 11.5625 12.078125 C 11.554688 12.078125 11.546875 12.078125 11.542969 12.082031 C 11.535156 12.082031 11.527344 12.082031 11.523438 12.082031 C 11.515625 12.085938 11.507812 12.085938 11.503906 12.089844 C 11.496094 12.089844 11.488281 12.09375 11.484375 12.09375 C 11.476562 12.097656 11.472656 12.097656 11.464844 12.101562 C 11.464844 12.101562 11.464844 12.101562 11.460938 12.105469 C 11.496094 12.105469 11.527344 12.113281 11.558594 12.144531 C 11.6875 12.277344 11.496094 12.472656 11.621094 12.601562 C 11.75 12.734375 12.390625 12.863281 12.453125 12.796875 Z M 12.464844 12.785156 "/>
<path fill-rule="nonzero" fill="rgb(75.294118%, 75.294118%, 75.294118%)" fill-opacity="0.75294" d="M 8.910156 8.84375 L 8.421875 9.339844 L 11.238281 12.210938 C 11.238281 12.210938 11.351562 12.097656 11.460938 12.105469 C 11.464844 12.101562 11.464844 12.101562 11.464844 12.101562 C 11.472656 12.097656 11.476562 12.097656 11.484375 12.09375 C 11.488281 12.09375 11.496094 12.089844 11.503906 12.089844 C 11.507812 12.085938 11.515625 12.085938 11.523438 12.082031 C 11.527344 12.082031 11.535156 12.082031 11.542969 12.082031 C 11.546875 12.078125 11.554688 12.078125 11.5625 12.078125 C 11.570312 12.078125 11.578125 12.078125 11.582031 12.078125 C 11.589844 12.078125 11.597656 12.078125 11.605469 12.078125 C 11.613281 12.078125 11.621094 12.078125 11.628906 12.078125 C 11.636719 12.078125 11.644531 12.078125 11.652344 12.078125 C 11.660156 12.082031 11.667969 12.082031 11.675781 12.082031 C 11.683594 12.085938 11.691406 12.085938 11.699219 12.089844 C 11.707031 12.089844 11.714844 12.09375 11.722656 12.09375 C 11.730469 12.097656 11.738281 12.097656 11.746094 12.101562 C 11.757812 12.105469 11.765625 12.105469 11.773438 12.109375 C 11.78125 12.113281 11.789062 12.113281 11.796875 12.117188 C 11.808594 12.121094 11.816406 12.125 11.824219 12.128906 C 11.832031 12.132812 11.839844 12.136719 11.851562 12.140625 C 11.859375 12.144531 11.867188 12.148438 11.875 12.152344 C 11.882812 12.15625 11.894531 12.160156 11.902344 12.167969 C 11.910156 12.171875 11.917969 12.175781 11.929688 12.179688 C 11.9375 12.1875 11.945312 12.191406 11.953125 12.195312 C 11.960938 12.203125 11.972656 12.207031 11.980469 12.214844 C 11.988281 12.21875 11.996094 12.226562 12.007812 12.230469 C 12.015625 12.238281 12.023438 12.242188 12.03125 12.25 C 12.039062 12.253906 12.050781 12.261719 12.058594 12.269531 C 12.066406 12.273438 12.074219 12.28125 12.082031 12.289062 C 12.089844 12.296875 12.097656 12.300781 12.109375 12.308594 C 12.117188 12.316406 12.125 12.324219 12.132812 12.332031 C 12.140625 12.339844 12.148438 12.347656 12.15625 12.355469 C 12.164062 12.363281 12.171875 12.371094 12.179688 12.375 C 12.1875 12.386719 12.195312 12.394531 12.203125 12.402344 C 12.210938 12.410156 12.21875 12.417969 12.226562 12.425781 C 12.234375 12.429688 12.238281 12.4375 12.246094 12.445312 C 12.25 12.453125 12.257812 12.460938 12.265625 12.46875 C 12.273438 12.476562 12.28125 12.484375 12.289062 12.496094 C 12.292969 12.503906 12.300781 12.511719 12.308594 12.519531 C 12.316406 12.53125 12.320312 12.539062 12.328125 12.546875 C 12.335938 12.554688 12.339844 12.566406 12.347656 12.574219 C 12.355469 12.582031 12.359375 12.59375 12.367188 12.601562 C 12.371094 12.609375 12.378906 12.621094 12.382812 12.628906 C 12.390625 12.636719 12.394531 12.648438 12.402344 12.65625 C 12.40625 12.664062 12.410156 12.675781 12.417969 12.683594 C 12.421875 12.691406 12.425781 12.703125 12.429688 12.710938 C 12.4375 12.722656 12.441406 12.730469 12.445312 12.738281 C 12.449219 12.75 12.453125 12.757812 12.457031 12.765625 C 12.460938 12.773438 12.464844 12.777344 12.464844 12.785156 L 12.519531 12.734375 L 12.582031 12.667969 C 12.621094 12.628906 12.582031 12.398438 12.523438 12.175781 C 12.511719 12.171875 12.503906 12.167969 12.492188 12.164062 C 12.476562 12.15625 12.464844 12.148438 12.449219 12.144531 C 12.4375 12.136719 12.421875 12.128906 12.40625 12.125 C 12.390625 12.117188 12.378906 12.109375 12.363281 12.101562 C 12.347656 12.09375 12.332031 12.089844 12.320312 12.082031 C 12.304688 12.074219 12.289062 12.066406 12.273438 12.058594 C 12.257812 12.050781 12.242188 12.042969 12.226562 12.035156 C 12.210938 12.027344 12.195312 12.015625 12.179688 12.007812 C 12.164062 12 12.148438 11.992188 12.132812 11.984375 C 12.117188 11.972656 12.101562 11.964844 12.085938 11.957031 C 12.070312 11.949219 12.054688 11.9375 12.039062 11.929688 C 12.023438 11.917969 12.007812 11.910156 11.992188 11.898438 C 11.972656 11.890625 11.957031 11.878906 11.941406 11.871094 C 11.925781 11.859375 11.910156 11.851562 11.890625 11.839844 C 11.875 11.832031 11.859375 11.820312 11.84375 11.808594 C 11.824219 11.796875 11.808594 11.789062 11.792969 11.777344 C 11.773438 11.765625 11.757812 11.753906 11.742188 11.746094 C 11.722656 11.734375 11.707031 11.722656 11.691406 11.710938 C 11.671875 11.699219 11.65625 11.6875 11.640625 11.675781 C 11.621094 11.664062 11.605469 11.652344 11.585938 11.640625 C 11.570312 11.628906 11.554688 11.617188 11.535156 11.605469 C 11.519531 11.59375 11.5 11.582031 11.484375 11.570312 C 11.46875 11.554688 11.449219 11.542969 11.433594 11.53125 C 11.414062 11.519531 11.398438 11.507812 11.378906 11.492188 C 11.363281 11.480469 11.34375 11.46875 11.328125 11.453125 C 11.308594 11.441406 11.292969 11.429688 11.273438 11.414062 C 11.257812 11.402344 11.238281 11.390625 11.222656 11.375 C 11.203125 11.363281 11.1875 11.347656 11.167969 11.335938 C 11.152344 11.320312 11.132812 11.308594 11.117188 11.292969 C 11.097656 11.28125 11.082031 11.265625 11.0625 11.25 C 11.046875 11.238281 11.027344 11.222656 11.011719 11.210938 C 10.992188 11.195312 10.976562 11.179688 10.957031 11.167969 C 10.941406 11.152344 10.921875 11.136719 10.90625 11.125 C 10.886719 11.109375 10.871094 11.09375 10.851562 11.078125 C 10.835938 11.066406 10.816406 11.050781 10.800781 11.035156 C 10.78125 11.019531 10.765625 11.003906 10.746094 10.992188 C 10.730469 10.976562 10.710938 10.960938 10.695312 10.945312 C 10.675781 10.929688 10.660156 10.914062 10.644531 10.898438 C 10.625 10.886719 10.609375 10.871094 10.589844 10.855469 C 10.574219 10.839844 10.558594 10.824219 10.539062 10.808594 C 10.519531 10.792969 10.503906 10.777344 10.488281 10.761719 C 10.46875 10.746094 10.453125 10.730469 10.4375 10.714844 C 10.417969 10.699219 10.402344 10.683594 10.386719 10.667969 C 10.367188 10.652344 10.351562 10.636719 10.335938 10.621094 C 10.320312 10.601562 10.300781 10.585938 10.285156 10.570312 C 10.269531 10.554688 10.253906 10.539062 10.234375 10.523438 C 10.21875 10.507812 10.203125 10.492188 10.1875 10.476562 C 10.171875 10.460938 10.15625 10.445312 10.140625 10.429688 C 10.121094 10.410156 10.105469 10.394531 10.089844 10.378906 C 10.074219 10.363281 10.058594 10.347656 10.042969 10.332031 C 10.027344 10.316406 10.011719 10.300781 9.996094 10.28125 C 9.980469 10.265625 9.964844 10.25 9.949219 10.234375 C 9.933594 10.21875 9.917969 10.203125 9.902344 10.1875 C 9.890625 10.171875 9.875 10.152344 9.859375 10.136719 C 9.84375 10.121094 9.828125 10.105469 9.816406 10.089844 C 9.800781 10.074219 9.785156 10.058594 9.769531 10.042969 C 9.757812 10.023438 9.742188 10.007812 9.726562 9.992188 C 9.714844 9.976562 9.699219 9.960938 9.683594 9.945312 C 9.671875 9.929688 9.65625 9.914062 9.644531 9.898438 C 9.628906 9.882812 9.617188 9.863281 9.601562 9.847656 C 9.589844 9.832031 9.574219 9.816406 9.5625 9.800781 C 9.550781 9.785156 9.535156 9.769531 9.523438 9.753906 C 9.507812 9.738281 9.496094 9.722656 9.484375 9.707031 C 9.472656 9.691406 9.457031 9.675781 9.445312 9.660156 C 9.433594 9.644531 9.421875 9.628906 9.410156 9.613281 C 9.398438 9.597656 9.386719 9.582031 9.375 9.566406 C 9.359375 9.550781 9.347656 9.535156 9.335938 9.519531 C 9.328125 9.503906 9.316406 9.488281 9.304688 9.476562 C 9.292969 9.460938 9.28125 9.445312 9.269531 9.429688 C 9.257812 9.414062 9.25 9.398438 9.238281 9.386719 C 9.226562 9.371094 9.214844 9.355469 9.207031 9.339844 C 9.195312 9.324219 9.1875 9.3125 9.175781 9.296875 C 9.167969 9.28125 9.15625 9.265625 9.144531 9.253906 C 9.136719 9.238281 9.128906 9.222656 9.117188 9.210938 C 9.109375 9.195312 9.097656 9.179688 9.089844 9.167969 C 9.082031 9.152344 9.074219 9.136719 9.0625 9.125 C 9.054688 9.109375 9.046875 9.097656 9.039062 9.082031 C 9.03125 9.070312 9.023438 9.054688 9.015625 9.042969 C 9.007812 9.027344 9 9.015625 8.992188 9.003906 C 8.984375 8.988281 8.976562 8.976562 8.96875 8.960938 C 8.960938 8.949219 8.953125 8.9375 8.949219 8.921875 C 8.941406 8.910156 8.933594 8.898438 8.929688 8.882812 C 8.921875 8.871094 8.914062 8.859375 8.910156 8.847656 C 8.910156 8.847656 8.910156 8.847656 8.910156 8.84375 Z M 8.910156 8.84375 "/>
<path fill-rule="nonzero" fill="rgb(75.294118%, 75.294118%, 75.294118%)" fill-opacity="0.75294" d="M 8.910156 8.84375 C 8.910156 8.847656 8.910156 8.847656 8.910156 8.847656 C 8.914062 8.859375 8.921875 8.871094 8.929688 8.882812 C 8.933594 8.898438 8.941406 8.910156 8.949219 8.921875 C 8.953125 8.9375 8.960938 8.949219 8.96875 8.960938 C 8.976562 8.976562 8.984375 8.988281 8.992188 9 C 9 9.015625 9.007812 9.027344 9.015625 9.042969 C 9.023438 9.054688 9.03125 9.070312 9.039062 9.082031 C 9.046875 9.097656 9.054688 9.109375 9.0625 9.125 C 9.074219 9.136719 9.082031 9.152344 9.089844 9.167969 C 9.097656 9.179688 9.109375 9.195312 9.117188 9.210938 C 9.128906 9.222656 9.136719 9.238281 9.144531 9.253906 C 9.15625 9.265625 9.164062 9.28125 9.175781 9.296875 C 9.1875 9.3125 9.195312 9.324219 9.207031 9.339844 C 9.214844 9.355469 9.226562 9.371094 9.238281 9.386719 C 9.25 9.398438 9.257812 9.414062 9.269531 9.429688 C 9.28125 9.445312 9.292969 9.460938 9.304688 9.476562 C 9.316406 9.488281 9.328125 9.503906 9.335938 9.519531 C 9.347656 9.535156 9.359375 9.550781 9.375 9.566406 C 9.386719 9.582031 9.398438 9.597656 9.410156 9.613281 C 9.421875 9.628906 9.433594 9.644531 9.445312 9.660156 C 9.457031 9.675781 9.472656 9.691406 9.484375 9.707031 C 9.496094 9.722656 9.507812 9.738281 9.523438 9.753906 C 9.535156 9.769531 9.546875 9.785156 9.5625 9.800781 C 9.574219 9.816406 9.589844 9.832031 9.601562 9.847656 C 9.617188 9.863281 9.628906 9.882812 9.644531 9.898438 C 9.65625 9.914062 9.671875 9.929688 9.683594 9.945312 C 9.699219 9.960938 9.714844 9.976562 9.726562 9.992188 C 9.742188 10.007812 9.757812 10.023438 9.769531 10.042969 C 9.785156 10.058594 9.800781 10.074219 9.816406 10.089844 C 9.828125 10.105469 9.84375 10.121094 9.859375 10.136719 C 9.875 10.152344 9.890625 10.171875 9.902344 10.1875 C 9.917969 10.203125 9.933594 10.21875 9.949219 10.234375 C 9.964844 10.25 9.980469 10.265625 9.996094 10.28125 C 10.011719 10.300781 10.027344 10.316406 10.042969 10.332031 C 10.058594 10.347656 10.074219 10.363281 10.089844 10.378906 C 10.105469 10.394531 10.121094 10.410156 10.136719 10.425781 C 10.15625 10.445312 10.171875 10.460938 10.1875 10.476562 C 10.203125 10.492188 10.21875 10.507812 10.234375 10.523438 C 10.253906 10.539062 10.269531 10.554688 10.285156 10.570312 C 10.300781 10.585938 10.320312 10.601562 10.335938 10.621094 C 10.351562 10.636719 10.367188 10.652344 10.386719 10.667969 C 10.402344 10.683594 10.417969 10.699219 10.4375 10.714844 C 10.453125 10.730469 10.46875 10.746094 10.488281 10.761719 C 10.503906 10.777344 10.519531 10.792969 10.539062 10.808594 C 10.558594 10.824219 10.574219 10.839844 10.589844 10.855469 C 10.609375 10.871094 10.625 10.886719 10.644531 10.898438 C 10.660156 10.914062 10.675781 10.929688 10.695312 10.945312 C 10.710938 10.960938 10.730469 10.976562 10.746094 10.992188 C 10.765625 11.003906 10.78125 11.019531 10.800781 11.035156 C 10.816406 11.050781 10.835938 11.066406 10.851562 11.078125 C 10.871094 11.09375 10.886719 11.109375 10.90625 11.125 C 10.921875 11.136719 10.941406 11.152344 10.957031 11.167969 C 10.976562 11.179688 10.992188 11.195312 11.011719 11.210938 C 11.027344 11.222656 11.046875 11.238281 11.0625 11.25 C 11.082031 11.265625 11.097656 11.28125 11.117188 11.292969 C 11.132812 11.308594 11.152344 11.320312 11.167969 11.335938 C 11.1875 11.347656 11.203125 11.363281 11.222656 11.375 C 11.238281 11.390625 11.257812 11.402344 11.273438 11.414062 C 11.292969 11.429688 11.308594 11.441406 11.328125 11.453125 C 11.34375 11.46875 11.363281 11.480469 11.378906 11.492188 C 11.398438 11.507812 11.414062 11.519531 11.433594 11.53125 C 11.449219 11.542969 11.46875 11.554688 11.484375 11.570312 C 11.5 11.582031 11.519531 11.59375 11.535156 11.605469 C 11.554688 11.617188 11.570312 11.628906 11.585938 11.640625 C 11.605469 11.652344 11.621094 11.664062 11.640625 11.675781 C 11.65625 11.6875 11.671875 11.699219 11.691406 11.710938 C 11.707031 11.722656 11.722656 11.734375 11.742188 11.746094 C 11.757812 11.753906 11.773438 11.765625 11.792969 11.777344 C 11.808594 11.789062 11.824219 11.796875 11.84375 11.808594 C 11.859375 11.820312 11.875 11.832031 11.890625 11.839844 C 11.910156 11.851562 11.925781 11.859375 11.941406 11.871094 C 11.957031 11.878906 11.972656 11.890625 11.992188 11.898438 C 12.007812 11.910156 12.023438 11.917969 12.039062 11.929688 C 12.054688 11.9375 12.070312 11.949219 12.085938 11.957031 C 12.101562 11.964844 12.117188 11.972656 12.132812 11.984375 C 12.148438 11.992188 12.164062 12 12.179688 12.007812 C 12.195312 12.015625 12.210938 12.027344 12.226562 12.035156 C 12.242188 12.042969 12.257812 12.050781 12.273438 12.058594 C 12.289062 12.066406 12.304688 12.074219 12.320312 12.082031 C 12.332031 12.089844 12.347656 12.09375 12.363281 12.101562 C 12.378906 12.109375 12.390625 12.117188 12.40625 12.125 C 12.421875 12.128906 12.4375 12.136719 12.449219 12.144531 C 12.464844 12.148438 12.476562 12.15625 12.492188 12.164062 C 12.503906 12.167969 12.511719 12.171875 12.523438 12.175781 C 12.484375 12.027344 12.441406 11.871094 12.390625 11.820312 C 12.261719 11.6875 12.070312 11.882812 11.941406 11.753906 C 11.8125 11.625 12.007812 11.429688 12.007812 11.429688 L 9.191406 8.558594 Z M 8.910156 8.84375 "/>
<path fill-rule="nonzero" fill="rgb(100%, 100%, 100%)" fill-opacity="0.326" d="M 8.910156 8.84375 C 8.910156 8.847656 8.910156 8.847656 8.910156 8.847656 C 8.914062 8.859375 8.921875 8.871094 8.929688 8.882812 C 8.933594 8.898438 8.941406 8.910156 8.949219 8.921875 C 8.953125 8.9375 8.960938 8.949219 8.96875 8.960938 C 8.976562 8.976562 8.984375 8.988281 8.992188 9 C 9 9.015625 9.007812 9.027344 9.015625 9.042969 C 9.023438 9.054688 9.03125 9.070312 9.039062 9.082031 C 9.046875 9.097656 9.054688 9.109375 9.0625 9.125 C 9.074219 9.136719 9.082031 9.152344 9.089844 9.167969 C 9.097656 9.179688 9.109375 9.195312 9.117188 9.210938 C 9.128906 9.222656 9.136719 9.238281 9.144531 9.253906 C 9.15625 9.265625 9.164062 9.28125 9.175781 9.296875 C 9.1875 9.3125 9.195312 9.324219 9.207031 9.339844 C 9.214844 9.355469 9.226562 9.371094 9.238281 9.386719 C 9.25 9.398438 9.257812 9.414062 9.269531 9.429688 C 9.28125 9.445312 9.292969 9.460938 9.304688 9.476562 C 9.316406 9.488281 9.328125 9.503906 9.335938 9.519531 C 9.347656 9.535156 9.359375 9.550781 9.375 9.566406 C 9.386719 9.582031 9.398438 9.597656 9.410156 9.613281 C 9.421875 9.628906 9.433594 9.644531 9.445312 9.660156 C 9.457031 9.675781 9.472656 9.691406 9.484375 9.707031 C 9.496094 9.722656 9.507812 9.738281 9.523438 9.753906 C 9.535156 9.769531 9.546875 9.785156 9.5625 9.800781 C 9.574219 9.816406 9.589844 9.832031 9.601562 9.847656 C 9.617188 9.863281 9.628906 9.882812 9.644531 9.898438 C 9.65625 9.914062 9.671875 9.929688 9.683594 9.945312 C 9.699219 9.960938 9.714844 9.976562 9.726562 9.992188 C 9.742188 10.007812 9.757812 10.023438 9.769531 10.042969 C 9.785156 10.058594 9.800781 10.074219 9.816406 10.089844 C 9.828125 10.105469 9.84375 10.121094 9.859375 10.136719 C 9.875 10.152344 9.890625 10.171875 9.902344 10.1875 C 9.917969 10.203125 9.933594 10.21875 9.949219 10.234375 C 9.964844 10.25 9.980469 10.265625 9.996094 10.28125 C 10.011719 10.300781 10.027344 10.316406 10.042969 10.332031 C 10.058594 10.347656 10.074219 10.363281 10.089844 10.378906 C 10.105469 10.394531 10.121094 10.410156 10.136719 10.425781 C 10.15625 10.445312 10.171875 10.460938 10.1875 10.476562 C 10.203125 10.492188 10.21875 10.507812 10.234375 10.523438 C 10.253906 10.539062 10.269531 10.554688 10.285156 10.570312 C 10.300781 10.585938 10.320312 10.601562 10.335938 10.621094 C 10.351562 10.636719 10.367188 10.652344 10.386719 10.667969 C 10.402344 10.683594 10.417969 10.699219 10.4375 10.714844 C 10.453125 10.730469 10.46875 10.746094 10.488281 10.761719 C 10.503906 10.777344 10.519531 10.792969 10.539062 10.808594 C 10.558594 10.824219 10.574219 10.839844 10.589844 10.855469 C 10.609375 10.871094 10.625 10.886719 10.644531 10.898438 C 10.660156 10.914062 10.675781 10.929688 10.695312 10.945312 C 10.710938 10.960938 10.730469 10.976562 10.746094 10.992188 C 10.765625 11.003906 10.78125 11.019531 10.800781 11.035156 C 10.816406 11.050781 10.835938 11.066406 10.851562 11.078125 C 10.871094 11.09375 10.886719 11.109375 10.90625 11.125 C 10.921875 11.136719 10.941406 11.152344 10.957031 11.167969 C 10.976562 11.179688 10.992188 11.195312 11.011719 11.210938 C 11.027344 11.222656 11.046875 11.238281 11.0625 11.25 C 11.082031 11.265625 11.097656 11.28125 11.117188 11.292969 C 11.132812 11.308594 11.152344 11.320312 11.167969 11.335938 C 11.1875 11.347656 11.203125 11.363281 11.222656 11.375 C 11.238281 11.390625 11.257812 11.402344 11.273438 11.414062 C 11.292969 11.429688 11.308594 11.441406 11.328125 11.453125 C 11.34375 11.46875 11.363281 11.480469 11.378906 11.492188 C 11.398438 11.507812 11.414062 11.519531 11.433594 11.53125 C 11.449219 11.542969 11.46875 11.554688 11.484375 11.570312 C 11.5 11.582031 11.519531 11.59375 11.535156 11.605469 C 11.554688 11.617188 11.570312 11.628906 11.585938 11.640625 C 11.605469 11.652344 11.621094 11.664062 11.640625 11.675781 C 11.65625 11.6875 11.671875 11.699219 11.691406 11.710938 C 11.707031 11.722656 11.722656 11.734375 11.742188 11.746094 C 11.757812 11.753906 11.773438 11.765625 11.792969 11.777344 C 11.808594 11.789062 11.824219 11.796875 11.84375 11.808594 C 11.859375 11.820312 11.875 11.832031 11.890625 11.839844 C 11.910156 11.851562 11.925781 11.859375 11.941406 11.871094 C 11.957031 11.878906 11.972656 11.890625 11.992188 11.898438 C 12.007812 11.910156 12.023438 11.917969 12.039062 11.929688 C 12.054688 11.9375 12.070312 11.949219 12.085938 11.957031 C 12.101562 11.964844 12.117188 11.972656 12.132812 11.984375 C 12.148438 11.992188 12.164062 12 12.179688 12.007812 C 12.195312 12.015625 12.210938 12.027344 12.226562 12.035156 C 12.242188 12.042969 12.257812 12.050781 12.273438 12.058594 C 12.289062 12.066406 12.304688 12.074219 12.320312 12.082031 C 12.332031 12.089844 12.347656 12.09375 12.363281 12.101562 C 12.378906 12.109375 12.390625 12.117188 12.40625 12.125 C 12.421875 12.128906 12.4375 12.136719 12.449219 12.144531 C 12.464844 12.148438 12.476562 12.15625 12.492188 12.164062 C 12.503906 12.167969 12.511719 12.171875 12.523438 12.175781 C 12.484375 12.027344 12.441406 11.871094 12.390625 11.820312 C 12.261719 11.6875 12.070312 11.882812 11.941406 11.753906 C 11.8125 11.625 12.007812 11.429688 12.007812 11.429688 L 9.191406 8.558594 Z M 8.910156 8.84375 "/>
<path fill-rule="nonzero" fill="rgb(20%, 20%, 20%)" fill-opacity="1" d="M 10.34375 11.296875 L 11.109375 10.515625 L 11.238281 10.644531 L 10.46875 11.429688 Z M 10.34375 11.296875 "/>
<path fill-rule="nonzero" fill="rgb(20%, 20%, 20%)" fill-opacity="1" d="M 10.980469 11.949219 L 11.75 11.167969 L 11.878906 11.296875 L 11.109375 12.082031 Z M 10.980469 11.949219 "/>
<path fill-rule="nonzero" fill="rgb(0%, 0%, 0%)" fill-opacity="0.073746" d="M 12.464844 12.785156 C 12.464844 12.777344 12.460938 12.773438 12.460938 12.765625 C 12.453125 12.757812 12.449219 12.75 12.445312 12.738281 C 12.441406 12.730469 12.4375 12.722656 12.429688 12.710938 C 12.425781 12.703125 12.421875 12.691406 12.417969 12.683594 C 12.410156 12.675781 12.40625 12.664062 12.402344 12.65625 C 12.394531 12.648438 12.390625 12.636719 12.382812 12.628906 C 12.378906 12.621094 12.371094 12.609375 12.367188 12.601562 C 12.359375 12.59375 12.355469 12.582031 12.347656 12.574219 C 12.339844 12.566406 12.335938 12.554688 12.328125 12.546875 C 12.320312 12.539062 12.316406 12.53125 12.308594 12.519531 C 12.300781 12.511719 12.292969 12.503906 12.289062 12.496094 C 12.28125 12.484375 12.273438 12.476562 12.265625 12.46875 C 12.257812 12.460938 12.25 12.453125 12.246094 12.445312 C 12.238281 12.4375 12.234375 12.429688 12.226562 12.425781 C 12.21875 12.417969 12.210938 12.410156 12.203125 12.402344 C 12.195312 12.394531 12.1875 12.382812 12.179688 12.375 C 12.171875 12.367188 12.164062 12.363281 12.15625 12.355469 C 12.148438 12.347656 12.140625 12.339844 12.132812 12.332031 C 12.125 12.324219 12.117188 12.316406 12.109375 12.308594 C 12.101562 12.300781 12.089844 12.296875 12.082031 12.289062 C 12.074219 12.28125 12.066406 12.273438 12.058594 12.269531 C 12.050781 12.261719 12.039062 12.253906 12.03125 12.25 C 12.023438 12.242188 12.015625 12.238281 12.007812 12.230469 C 11.996094 12.222656 11.988281 12.21875 11.980469 12.214844 C 11.972656 12.207031 11.960938 12.203125 11.953125 12.195312 C 11.945312 12.191406 11.9375 12.1875 11.929688 12.179688 C 11.917969 12.175781 11.910156 12.171875 11.902344 12.167969 C 11.894531 12.160156 11.882812 12.15625 11.875 12.152344 C 11.867188 12.148438 11.859375 12.144531 11.851562 12.140625 C 11.839844 12.136719 11.832031 12.132812 11.824219 12.128906 C 11.816406 12.125 11.808594 12.121094 11.796875 12.117188 C 11.789062 12.113281 11.78125 12.113281 11.773438 12.109375 C 11.765625 12.105469 11.757812 12.101562 11.746094 12.101562 C 11.738281 12.097656 11.730469 12.097656 11.722656 12.09375 C 11.714844 12.09375 11.707031 12.089844 11.699219 12.089844 C 11.691406 12.085938 11.683594 12.085938 11.675781 12.082031 C 11.667969 12.082031 11.660156 12.082031 11.652344 12.078125 C 11.644531 12.078125 11.636719 12.078125 11.628906 12.078125 C 11.621094 12.078125 11.613281 12.078125 11.605469 12.078125 C 11.597656 12.078125 11.589844 12.078125 11.582031 12.078125 C 11.578125 12.078125 11.570312 12.078125 11.5625 12.078125 C 11.554688 12.078125 11.546875 12.078125 11.542969 12.082031 C 11.535156 12.082031 11.527344 12.082031 11.523438 12.082031 C 11.515625 12.085938 11.507812 12.085938 11.503906 12.089844 C 11.496094 12.089844 11.488281 12.09375 11.484375 12.09375 C 11.476562 12.097656 11.472656 12.097656 11.464844 12.101562 C 11.464844 12.101562 11.464844 12.101562 11.460938 12.105469 C 11.496094 12.105469 11.527344 12.113281 11.558594 12.144531 C 11.6875 12.277344 11.496094 12.472656 11.621094 12.601562 C 11.75 12.734375 12.390625 12.863281 12.453125 12.796875 Z M 12.464844 12.785156 "/>
<path fill-rule="nonzero" fill="rgb(100%, 100%, 100%)" fill-opacity="0.30959" d="M 5.480469 4.320312 C 5.4375 4.320312 5.394531 4.335938 5.363281 4.371094 L 4.941406 4.800781 C 4.945312 4.800781 4.945312 4.800781 4.945312 4.800781 C 4.964844 4.8125 4.984375 4.820312 5.003906 4.832031 C 5.019531 4.84375 5.039062 4.851562 5.058594 4.863281 C 5.078125 4.875 5.097656 4.886719 5.113281 4.898438 C 5.132812 4.90625 5.152344 4.917969 5.171875 4.929688 C 5.191406 4.941406 5.210938 4.953125 5.230469 4.964844 C 5.25 4.976562 5.269531 4.988281 5.285156 5 C 5.304688 5.011719 5.324219 5.023438 5.34375 5.035156 C 5.363281 5.050781 5.382812 5.0625 5.402344 5.074219 C 5.421875 5.085938 5.441406 5.097656 5.460938 5.113281 C 5.480469 5.125 5.5 5.136719 5.519531 5.152344 C 5.539062 5.164062 5.5625 5.179688 5.582031 5.191406 C 5.601562 5.203125 5.621094 5.21875 5.640625 5.230469 C 5.660156 5.246094 5.679688 5.261719 5.699219 5.273438 C 5.71875 5.289062 5.738281 5.300781 5.757812 5.316406 C 5.78125 5.332031 5.800781 5.34375 5.820312 5.359375 C 5.839844 5.375 5.859375 5.390625 5.878906 5.402344 C 5.898438 5.417969 5.921875 5.433594 5.941406 5.449219 C 5.960938 5.464844 5.980469 5.480469 6 5.496094 C 6.019531 5.511719 6.039062 5.527344 6.0625 5.539062 C 6.082031 5.558594 6.101562 5.574219 6.121094 5.589844 C 6.140625 5.605469 6.160156 5.621094 6.183594 5.636719 C 6.203125 5.652344 6.222656 5.667969 6.242188 5.683594 C 6.261719 5.703125 6.285156 5.71875 6.304688 5.734375 C 6.324219 5.75 6.34375 5.765625 6.363281 5.785156 C 6.382812 5.800781 6.40625 5.816406 6.425781 5.835938 C 6.445312 5.851562 6.464844 5.867188 6.484375 5.886719 C 6.503906 5.902344 6.527344 5.921875 6.546875 5.9375 C 6.566406 5.957031 6.585938 5.972656 6.605469 5.988281 C 6.625 6.007812 6.644531 6.023438 6.667969 6.042969 C 6.6875 6.0625 6.707031 6.078125 6.726562 6.097656 C 6.746094 6.113281 6.765625 6.132812 6.785156 6.152344 C 6.804688 6.167969 6.824219 6.1875 6.847656 6.207031 C 6.867188 6.222656 6.886719 6.242188 6.90625 6.261719 C 6.925781 6.277344 6.945312 6.296875 6.964844 6.316406 C 6.984375 6.335938 7.003906 6.351562 7.023438 6.371094 C 7.042969 6.390625 7.0625 6.410156 7.082031 6.429688 C 7.101562 6.449219 7.121094 6.464844 7.140625 6.484375 C 7.160156 6.503906 7.179688 6.523438 7.199219 6.542969 C 7.210938 6.554688 7.222656 6.566406 7.234375 6.578125 C 7.253906 6.597656 7.273438 6.617188 7.292969 6.636719 C 7.3125 6.65625 7.332031 6.675781 7.351562 6.695312 C 7.367188 6.714844 7.386719 6.734375 7.40625 6.753906 C 7.425781 6.773438 7.445312 6.792969 7.464844 6.8125 C 7.480469 6.832031 7.5 6.851562 7.519531 6.871094 C 7.539062 6.890625 7.554688 6.910156 7.574219 6.929688 C 7.59375 6.949219 7.609375 6.96875 7.628906 6.992188 C 7.648438 7.011719 7.664062 7.03125 7.683594 7.050781 C 7.703125 7.070312 7.71875 7.089844 7.738281 7.109375 C 7.753906 7.128906 7.773438 7.148438 7.789062 7.171875 C 7.808594 7.191406 7.824219 7.210938 7.84375 7.230469 C 7.859375 7.25 7.878906 7.269531 7.894531 7.289062 C 7.914062 7.3125 7.929688 7.332031 7.949219 7.351562 C 7.964844 7.371094 7.980469 7.390625 8 7.410156 C 8.015625 7.433594 8.03125 7.453125 8.046875 7.472656 C 8.066406 7.492188 8.082031 7.511719 8.097656 7.53125 C 8.113281 7.554688 8.132812 7.574219 8.148438 7.59375 C 8.164062 7.613281 8.179688 7.632812 8.195312 7.65625 C 8.210938 7.675781 8.226562 7.695312 8.242188 7.714844 C 8.257812 7.734375 8.273438 7.753906 8.289062 7.777344 C 8.304688 7.796875 8.320312 7.816406 8.335938 7.835938 C 8.351562 7.855469 8.367188 7.875 8.382812 7.898438 C 8.398438 7.917969 8.410156 7.9375 8.425781 7.957031 C 8.441406 7.976562 8.457031 7.996094 8.46875 8.015625 C 8.484375 8.035156 8.5 8.058594 8.511719 8.078125 C 8.527344 8.097656 8.542969 8.117188 8.554688 8.136719 C 8.570312 8.15625 8.582031 8.175781 8.597656 8.195312 C 8.609375 8.214844 8.625 8.234375 8.636719 8.253906 C 8.652344 8.273438 8.664062 8.296875 8.675781 8.316406 C 8.691406 8.335938 8.703125 8.355469 8.714844 8.375 C 8.730469 8.394531 8.742188 8.414062 8.753906 8.433594 C 8.765625 8.453125 8.777344 8.472656 8.792969 8.492188 C 8.804688 8.511719 8.816406 8.527344 8.828125 8.546875 C 8.839844 8.566406 8.851562 8.585938 8.863281 8.605469 C 8.875 8.625 8.886719 8.644531 8.898438 8.664062 C 8.90625 8.683594 8.917969 8.703125 8.929688 8.71875 C 8.941406 8.738281 8.953125 8.757812 8.960938 8.777344 C 8.964844 8.78125 8.964844 8.78125 8.96875 8.785156 L 9.332031 8.414062 C 9.394531 8.347656 9.394531 8.246094 9.332031 8.179688 L 8.933594 7.773438 L 8.949219 7.761719 C 9.011719 7.695312 9.011719 7.59375 8.949219 7.527344 L 5.976562 4.496094 C 5.914062 4.433594 5.8125 4.433594 5.75 4.5 L 5.734375 4.511719 L 5.59375 4.367188 C 5.5625 4.335938 5.519531 4.320312 5.480469 4.320312 Z M 5.480469 4.320312 "/>
<path fill-rule="nonzero" fill="rgb(0%, 0%, 0%)" fill-opacity="0.4" d="M 7.726562 9.152344 C 7.726562 9.144531 7.730469 9.136719 7.734375 9.128906 C 7.734375 9.121094 7.738281 9.109375 7.738281 9.101562 C 7.742188 9.09375 7.742188 9.082031 7.746094 9.074219 C 7.746094 9.0625 7.746094 9.054688 7.75 9.042969 C 7.75 9.035156 7.75 9.023438 7.753906 9.015625 C 7.753906 9.003906 7.753906 8.996094 7.753906 8.984375 C 7.753906 8.972656 7.753906 8.960938 7.753906 8.953125 C 7.753906 8.941406 7.753906 8.929688 7.753906 8.917969 C 7.753906 8.910156 7.753906 8.898438 7.753906 8.886719 C 7.753906 8.875 7.753906 8.863281 7.75 8.851562 C 7.75 8.839844 7.75 8.828125 7.75 8.816406 C 7.746094 8.804688 7.746094 8.792969 7.742188 8.78125 C 7.742188 8.769531 7.738281 8.757812 7.738281 8.746094 C 7.734375 8.730469 7.734375 8.71875 7.730469 8.707031 C 7.726562 8.695312 7.726562 8.683594 7.722656 8.667969 C 7.71875 8.65625 7.71875 8.644531 7.714844 8.628906 C 7.710938 8.617188 7.707031 8.605469 7.703125 8.589844 C 7.699219 8.578125 7.695312 8.566406 7.691406 8.550781 C 7.691406 8.546875 7.691406 8.546875 7.691406 8.542969 C 7.683594 8.527344 7.679688 8.515625 7.675781 8.5 C 7.671875 8.488281 7.667969 8.472656 7.664062 8.460938 C 7.660156 8.445312 7.652344 8.433594 7.648438 8.417969 C 7.644531 8.40625 7.636719 8.390625 7.632812 8.375 C 7.628906 8.363281 7.621094 8.347656 7.617188 8.332031 C 7.609375 8.320312 7.605469 8.304688 7.597656 8.289062 C 7.59375 8.277344 7.585938 8.261719 7.578125 8.246094 C 7.574219 8.230469 7.566406 8.21875 7.558594 8.203125 C 7.550781 8.1875 7.546875 8.171875 7.539062 8.160156 C 7.53125 8.144531 7.523438 8.128906 7.515625 8.113281 C 7.507812 8.097656 7.5 8.082031 7.492188 8.070312 C 7.484375 8.054688 7.476562 8.039062 7.46875 8.023438 C 7.460938 8.007812 7.453125 7.992188 7.445312 7.976562 C 7.4375 7.960938 7.425781 7.945312 7.417969 7.929688 C 7.410156 7.917969 7.402344 7.902344 7.390625 7.886719 C 7.382812 7.871094 7.375 7.855469 7.363281 7.839844 C 7.355469 7.824219 7.347656 7.808594 7.335938 7.792969 C 7.328125 7.777344 7.316406 7.761719 7.308594 7.746094 C 7.296875 7.730469 7.285156 7.714844 7.277344 7.699219 C 7.265625 7.683594 7.257812 7.667969 7.246094 7.652344 C 7.234375 7.636719 7.226562 7.621094 7.214844 7.605469 C 7.203125 7.589844 7.191406 7.574219 7.183594 7.558594 C 7.171875 7.542969 7.160156 7.527344 7.148438 7.511719 C 7.136719 7.496094 7.125 7.480469 7.113281 7.464844 C 7.101562 7.449219 7.089844 7.433594 7.078125 7.417969 C 7.066406 7.402344 7.054688 7.386719 7.042969 7.375 C 7.03125 7.359375 7.019531 7.34375 7.007812 7.328125 C 6.996094 7.3125 6.984375 7.296875 6.972656 7.28125 C 6.957031 7.265625 6.945312 7.25 6.933594 7.234375 C 6.921875 7.21875 6.910156 7.203125 6.894531 7.191406 C 6.882812 7.175781 6.871094 7.160156 6.855469 7.144531 C 6.84375 7.128906 6.832031 7.113281 6.816406 7.097656 C 6.804688 7.085938 6.792969 7.070312 6.777344 7.054688 C 6.765625 7.039062 6.75 7.023438 6.738281 7.011719 C 6.726562 6.996094 6.710938 6.980469 6.699219 6.964844 C 6.683594 6.953125 6.671875 6.9375 6.65625 6.921875 C 6.644531 6.90625 6.628906 6.894531 6.613281 6.878906 C 6.601562 6.863281 6.585938 6.851562 6.574219 6.835938 C 6.558594 6.824219 6.546875 6.808594 6.53125 6.792969 C 6.515625 6.78125 6.503906 6.765625 6.488281 6.753906 C 6.472656 6.738281 6.460938 6.726562 6.445312 6.710938 C 6.429688 6.699219 6.417969 6.683594 6.402344 6.671875 C 6.386719 6.65625 6.371094 6.644531 6.359375 6.632812 C 6.34375 6.617188 6.328125 6.605469 6.316406 6.589844 C 6.300781 6.578125 6.285156 6.566406 6.269531 6.554688 C 6.257812 6.539062 6.242188 6.527344 6.226562 6.515625 C 6.210938 6.503906 6.195312 6.492188 6.183594 6.476562 C 6.167969 6.464844 6.152344 6.453125 6.136719 6.441406 C 6.121094 6.429688 6.109375 6.417969 6.09375 6.40625 C 6.078125 6.394531 6.0625 6.382812 6.046875 6.371094 C 6.035156 6.359375 6.019531 6.347656 6.003906 6.335938 C 5.988281 6.324219 5.972656 6.3125 5.960938 6.304688 C 5.945312 6.292969 5.929688 6.28125 5.914062 6.269531 C 5.898438 6.257812 5.886719 6.25 5.871094 6.238281 C 5.855469 6.226562 5.839844 6.21875 5.824219 6.207031 C 5.8125 6.195312 5.796875 6.1875 5.78125 6.175781 C 5.765625 6.167969 5.75 6.15625 5.738281 6.148438 C 5.722656 6.140625 5.707031 6.128906 5.691406 6.121094 C 5.679688 6.109375 5.664062 6.101562 5.648438 6.09375 C 5.632812 6.082031 5.621094 6.074219 5.605469 6.066406 C 5.589844 6.058594 5.578125 6.050781 5.5625 6.042969 C 5.546875 6.03125 5.53125 6.023438 5.519531 6.015625 C 5.515625 6.015625 5.511719 6.011719 5.507812 6.011719 C 5.496094 6.003906 5.480469 5.996094 5.464844 5.988281 C 5.453125 5.980469 5.4375 5.972656 5.421875 5.964844 C 5.410156 5.960938 5.394531 5.953125 5.382812 5.945312 C 5.367188 5.9375 5.351562 5.933594 5.339844 5.925781 C 5.324219 5.917969 5.3125 5.914062 5.296875 5.90625 C 5.285156 5.902344 5.269531 5.894531 5.257812 5.890625 C 5.242188 5.882812 5.230469 5.878906 5.21875 5.871094 C 5.203125 5.867188 5.191406 5.863281 5.175781 5.855469 C 5.164062 5.851562 5.148438 5.847656 5.136719 5.84375 C 5.125 5.839844 5.109375 5.832031 5.097656 5.828125 C 5.085938 5.824219 5.074219 5.820312 5.058594 5.816406 C 5.046875 5.8125 5.035156 5.808594 5.023438 5.804688 C 5.011719 5.804688 4.996094 5.800781 4.984375 5.796875 C 4.972656 5.792969 4.960938 5.789062 4.949219 5.789062 C 4.9375 5.785156 4.925781 5.78125 4.914062 5.78125 C 4.902344 5.777344 4.890625 5.777344 4.878906 5.773438 C 4.867188 5.773438 4.855469 5.769531 4.84375 5.769531 C 4.832031 5.765625 4.820312 5.765625 4.808594 5.765625 C 4.796875 5.761719 4.789062 5.761719 4.777344 5.761719 C 4.765625 5.761719 4.753906 5.761719 4.746094 5.761719 C 4.734375 5.761719 4.722656 5.761719 4.714844 5.761719 C 4.703125 5.761719 4.691406 5.761719 4.683594 5.761719 C 4.671875 5.761719 4.664062 5.761719 4.652344 5.761719 C 4.644531 5.761719 4.632812 5.765625 4.625 5.765625 C 4.613281 5.765625 4.605469 5.769531 4.597656 5.769531 C 4.585938 5.769531 4.578125 5.773438 4.570312 5.773438 C 4.558594 5.777344 4.550781 5.777344 4.542969 5.78125 C 4.535156 5.785156 4.527344 5.785156 4.515625 5.789062 C 4.507812 5.792969 4.5 5.796875 4.492188 5.796875 C 4.484375 5.800781 4.476562 5.804688 4.46875 5.808594 C 4.464844 5.8125 4.460938 5.8125 4.453125 5.816406 L 4.457031 5.816406 L 4.445312 5.828125 C 4.378906 5.894531 4.378906 6 4.441406 6.0625 L 7.414062 9.09375 C 7.476562 9.15625 7.578125 9.15625 7.644531 9.09375 L 7.65625 9.078125 Z M 7.726562 9.152344 "/>
</svg>
