<?xml version="1.0" encoding="UTF-8"?>
<svg xmlns="http://www.w3.org/2000/svg" xmlns:xlink="http://www.w3.org/1999/xlink" width="64" height="64" viewBox="0 0 64 64">
<path fill-rule="nonzero" fill="rgb(92.54902%, 92.54902%, 92.54902%)" fill-opacity="1" d="M 32 5 C 46.910156 5 59 17.085938 59 32 C 59 46.910156 46.910156 59 32 59 C 17.085938 59 5 46.910156 5 32 C 5 17.085938 17.085938 5 32 5 Z M 32 5 "/>
<path fill-rule="nonzero" fill="rgb(30.196078%, 30.196078%, 30.196078%)" fill-opacity="1" d="M 32 14 C 22.058594 14 14 22.058594 14 32 C 14 38.800781 17.839844 45.023438 23.914062 48.078125 L 25.058594 38.625 C 23.351562 36.839844 22.398438 34.46875 22.398438 32 C 22.398438 26.699219 26.699219 22.398438 32 22.398438 C 37.300781 22.398438 41.597656 26.699219 41.597656 32 C 41.59375 34.464844 40.640625 36.835938 38.9375 38.617188 L 40.078125 48.0625 C 46.152344 45.007812 49.988281 38.796875 50 32 C 50 22.058594 41.941406 14 32 14 "/>
<path fill-rule="nonzero" fill="rgb(50.196078%, 50.196078%, 50.196078%)" fill-opacity="1" d="M 32 26 C 28.6875 26 26 28.683594 26 32 C 26.003906 34.085938 27.089844 36.023438 28.871094 37.109375 L 27.378906 49.375 C 28.886719 49.78125 30.4375 49.992188 32 50 C 33.558594 49.996094 35.109375 49.789062 36.617188 49.386719 L 35.128906 37.109375 C 36.910156 36.023438 37.996094 34.085938 38 32 C 38 28.683594 35.3125 26 32 26 "/>
</svg>
