<?xml version="1.0" encoding="UTF-8"?>
<svg xmlns="http://www.w3.org/2000/svg" xmlns:xlink="http://www.w3.org/1999/xlink" width="64" height="64" viewBox="0 0 64 64">
<defs>
<filter id="filter-remove-color" x="0%" y="0%" width="100%" height="100%">
<feColorMatrix color-interpolation-filters="sRGB" values="0 0 0 0 1 0 0 0 0 1 0 0 0 0 1 0 0 0 1 0" />
</filter>
<linearGradient id="linear-pattern-0" gradientUnits="userSpaceOnUse" x1="23.875999" y1="16.35" x2="23.875999" y2="31.354" gradientTransform="matrix(1.030662, 0.0139939, -0.0096705, 0.712232, 7.618072, 15.95075)">
<stop offset="0" stop-color="rgb(96.470588%, 18.431373%, 3.529412%)" stop-opacity="1"/>
<stop offset="1" stop-color="rgb(100%, 0%, 20.392157%)" stop-opacity="1"/>
</linearGradient>
<mask id="mask-0">
<g filter="url(#filter-remove-color)">
<rect x="-6.4" y="-6.4" width="76.8" height="76.8" fill="rgb(0%, 0%, 0%)" fill-opacity="0.41"/>
</g>
</mask>
<clipPath id="clip-0">
<rect x="0" y="0" width="64" height="64"/>
</clipPath>
<g id="source-6545" clip-path="url(#clip-0)">
<path fill-rule="nonzero" fill="rgb(14.117647%, 14.117647%, 14.117647%)" fill-opacity="1" d="M 39.71875 28.441406 C 39.71875 29.746094 36.261719 30.800781 32 30.800781 C 27.738281 30.800781 24.28125 29.746094 24.28125 28.441406 C 24.28125 27.140625 27.738281 26.082031 32 26.082031 C 36.261719 26.082031 39.71875 27.140625 39.71875 28.441406 Z M 39.71875 28.441406 "/>
</g>
<mask id="mask-1">
<g filter="url(#filter-remove-color)">
<rect x="-6.4" y="-6.4" width="76.8" height="76.8" fill="rgb(0%, 0%, 0%)" fill-opacity="0.6"/>
</g>
</mask>
<clipPath id="clip-1">
<rect x="0" y="0" width="64" height="64"/>
</clipPath>
<g id="source-6554" clip-path="url(#clip-1)">
<path fill-rule="nonzero" fill="rgb(99.607843%, 99.607843%, 99.607843%)" fill-opacity="1" d="M 29.472656 22.53125 C 29.480469 22.664062 29.378906 22.777344 29.25 22.785156 C 29.125 22.792969 29.011719 22.6875 29.007812 22.550781 C 29 22.417969 29.101562 22.304688 29.226562 22.296875 C 29.355469 22.292969 29.464844 22.394531 29.472656 22.53125 Z M 29.472656 22.53125 "/>
</g>
</defs>
<path fill-rule="nonzero" fill="rgb(90.196078%, 90.196078%, 90.196078%)" fill-opacity="1" d="M 59 32 C 59 46.910156 46.914062 59 32 59 C 17.089844 59 5 46.910156 5 32 C 5 17.089844 17.089844 5 32 5 C 46.914062 5 59 17.089844 59 32 Z M 59 32 "/>
<path fill-rule="nonzero" fill="rgb(98.823529%, 76.862745%, 19.215686%)" fill-opacity="1" d="M 32 48.625 C 25.234375 48.625 19.75 50.257812 19.75 52.269531 C 19.753906 52.515625 19.84375 52.761719 20.011719 53 L 44.003906 53 C 44.167969 52.761719 44.25 52.515625 44.25 52.269531 C 44.25 50.257812 38.765625 48.625 32 48.625 Z M 32 48.625 "/>
<path fill-rule="nonzero" fill="rgb(10.980392%, 10.980392%, 10.980392%)" fill-opacity="1" d="M 45.515625 29.3125 C 45.515625 29.3125 49.457031 32.898438 49.953125 41.691406 C 49.953125 41.691406 50.597656 50.242188 47.046875 41.722656 L 44.410156 34.625 Z M 45.515625 29.3125 "/>
<path fill-rule="nonzero" fill="rgb(10.980392%, 10.980392%, 10.980392%)" fill-opacity="1" d="M 18.484375 29.3125 C 18.484375 29.3125 14.542969 32.898438 14.046875 41.691406 C 14.046875 41.691406 13.402344 50.242188 16.953125 41.722656 L 19.589844 34.625 Z M 18.484375 29.3125 "/>
<path fill-rule="nonzero" fill="rgb(10.980392%, 10.980392%, 10.980392%)" fill-opacity="1" d="M 32 11 C 39.730469 11 46 17.269531 46 25 L 46 39 C 46 46.730469 39.730469 53 32 53 C 24.269531 53 18 46.730469 18 39 L 18 25 C 18 17.269531 24.269531 11 32 11 Z M 32 11 "/>
<path fill-rule="nonzero" fill="rgb(100%, 100%, 100%)" fill-opacity="1" d="M 20.625 35.003906 L 20.625 40.75 C 20.625 47.050781 25.699219 52.125 32 52.125 C 38.300781 52.125 43.375 47.050781 43.375 40.75 L 43.375 35.445312 C 39.996094 36.425781 36.367188 36.933594 32.699219 36.9375 C 28.511719 36.929688 24.382812 36.269531 20.625 35.003906 Z M 20.625 35.003906 "/>
<path fill-rule="nonzero" fill="rgb(83.137255%, 0%, 10.588235%)" fill-opacity="1" d="M 23.800781 32.875 C 23.800781 32.875 21.710938 41.121094 24.796875 42.757812 C 24.796875 42.757812 26.351562 43.832031 28.652344 43.273438 C 28.652344 43.273438 30.65625 42.859375 30.308594 39.878906 C 30.308594 39.878906 30.011719 35.964844 30.347656 34.214844 Z M 23.800781 32.875 "/>
<path fill-rule="nonzero" fill="url(#linear-pattern-0)" d="M 45.847656 28.5 C 43.273438 32.121094 38.328125 34.195312 32.113281 34.109375 C 26.046875 34.027344 21.242188 32.101562 18.691406 28.558594 C 17.609375 27.050781 15.496094 31.167969 16.917969 32.816406 C 19.777344 36.125 25.203125 38.441406 31.492188 38.609375 C 38.378906 38.792969 44.394531 36.351562 47.210938 32.679688 C 48.25 31.324219 46.703125 27.296875 45.847656 28.5 Z M 45.847656 28.5 "/>
<g mask="url(#mask-0)">
<use xlink:href="#source-6545"/>
</g>
<path fill-rule="nonzero" fill="rgb(99.215686%, 99.215686%, 99.215686%)" fill-opacity="1" d="M 30.921875 22.09375 C 30.921875 24.066406 29.902344 25.664062 28.648438 25.664062 C 27.394531 25.664062 26.378906 24.066406 26.378906 22.09375 C 26.378906 20.125 27.394531 18.527344 28.648438 18.527344 C 29.902344 18.527344 30.921875 20.125 30.921875 22.09375 Z M 30.921875 22.09375 "/>
<path fill-rule="nonzero" fill="rgb(99.215686%, 99.215686%, 99.215686%)" fill-opacity="1" d="M 37.167969 22.09375 C 37.167969 24.066406 36.152344 25.664062 34.898438 25.664062 C 33.640625 25.664062 32.625 24.066406 32.625 22.09375 C 32.625 20.125 33.640625 18.527344 34.898438 18.527344 C 36.152344 18.527344 37.167969 20.125 37.167969 22.09375 Z M 37.167969 22.09375 "/>
<path fill-rule="nonzero" fill="rgb(0%, 0%, 0%)" fill-opacity="1" d="M 30.179688 21.980469 C 30.179688 22.773438 29.746094 23.417969 29.214844 23.417969 C 28.679688 23.417969 28.246094 22.773438 28.246094 21.980469 C 28.246094 21.1875 28.679688 20.546875 29.214844 20.546875 C 29.746094 20.546875 30.179688 21.1875 30.179688 21.980469 Z M 30.179688 21.980469 "/>
<path fill-rule="nonzero" fill="rgb(0%, 0%, 0%)" fill-opacity="1" d="M 34.273438 21.320312 C 34.695312 21.320312 35.050781 21.722656 35.183594 22.28125 C 35.199219 22.355469 35.238281 22.355469 35.238281 22.277344 C 35.238281 21.484375 34.804688 20.84375 34.273438 20.84375 C 33.738281 20.84375 33.304688 21.484375 33.304688 22.277344 C 33.304688 22.355469 33.34375 22.359375 33.359375 22.289062 C 33.488281 21.726562 33.847656 21.320312 34.273438 21.320312 Z M 34.273438 21.320312 "/>
<path fill-rule="nonzero" fill="rgb(99.607843%, 99.607843%, 99.607843%)" fill-opacity="1" d="M 29.898438 21.964844 C 29.898438 22.265625 29.722656 22.507812 29.503906 22.507812 C 29.285156 22.507812 29.105469 22.265625 29.105469 21.964844 C 29.105469 21.664062 29.285156 21.421875 29.503906 21.421875 C 29.722656 21.421875 29.898438 21.664062 29.898438 21.964844 Z M 29.898438 21.964844 "/>
<g mask="url(#mask-1)">
<use xlink:href="#source-6554"/>
</g>
<path fill-rule="nonzero" fill="rgb(98.823529%, 76.862745%, 19.215686%)" fill-opacity="1" d="M 32 26.066406 C 27.652344 26.066406 24.128906 27.664062 24.128906 28.34375 C 24.128906 28.847656 25.457031 29.585938 27.480469 30.085938 C 26.664062 29.375 26.195312 28.726562 26.175781 28.742188 L 26.285156 28.742188 C 26.839844 29.246094 31.480469 33.910156 37.691406 28.628906 L 37.78125 28.628906 C 37.210938 29.257812 36.65625 29.773438 36.109375 30.199219 C 38.359375 29.726562 39.871094 28.945312 39.871094 28.34375 C 39.871094 27.503906 36.347656 26.066406 32 26.066406 Z M 32 26.066406 "/>
</svg>
