<?xml version="1.0" encoding="UTF-8"?>
<svg xmlns="http://www.w3.org/2000/svg" xmlns:xlink="http://www.w3.org/1999/xlink" width="64" height="64" viewBox="0 0 64 64">
<path fill-rule="nonzero" fill="rgb(100%, 84.705882%, 36.078431%)" fill-opacity="1" d="M 59 32 C 59 46.910156 46.910156 59 32 59 C 17.089844 59 5 46.910156 5 32 C 5 17.089844 17.089844 5 32 5 C 46.910156 5 59 17.089844 59 32 Z M 59 32 "/>
<path fill-rule="nonzero" fill="rgb(12.156863%, 87.843137%, 57.254902%)" fill-opacity="1" d="M 42.847656 11 C 40.515625 12.898438 36.433594 14.527344 32.921875 15.398438 C 30.410156 16.023438 26.375 16.046875 25.378906 16.042969 C 24.9375 15.828125 24.398438 15.828125 23.941406 16.09375 C 23.207031 16.515625 22.957031 17.449219 23.378906 18.179688 L 33.984375 36.546875 C 33.046875 36.304688 32.070312 36.183594 31.089844 36.183594 C 25.601562 36.183594 21.152344 39.949219 21.152344 44.589844 C 21.152344 49.234375 25.601562 53 31.089844 53 C 36.578125 53 41.027344 49.234375 41.027344 44.589844 C 41.027344 43.21875 40.632812 41.863281 39.871094 40.648438 C 39.84375 40.59375 39.820312 40.539062 39.789062 40.484375 L 30.703125 24.746094 C 36.242188 21.996094 41.488281 16.421875 42.847656 11 Z M 42.847656 11 "/>
</svg>
