<?xml version="1.0" encoding="UTF-8"?>
<svg xmlns="http://www.w3.org/2000/svg" xmlns:xlink="http://www.w3.org/1999/xlink" width="64" height="64" viewBox="0 0 64 64">
<path fill-rule="nonzero" fill="rgb(21.960784%, 82.352941%, 22.745098%)" fill-opacity="1" d="M 15.609375 8.464844 C 15.609375 12.410156 12.410156 15.609375 8.464844 15.609375 C 4.519531 15.609375 1.324219 12.410156 1.324219 8.464844 C 1.324219 4.519531 4.519531 1.324219 8.464844 1.324219 C 12.410156 1.324219 15.609375 4.519531 15.609375 8.464844 Z M 15.609375 8.464844 "/>
<path fill-rule="nonzero" fill="rgb(98.039216%, 98.039216%, 98.039216%)" fill-opacity="1" d="M 5.820312 5.011719 C 4.941406 5.011719 4.234375 5.71875 4.234375 6.597656 L 4.234375 9.242188 C 4.234375 10.125 4.941406 10.832031 5.820312 10.832031 L 6.597656 10.832031 L 7.339844 11.921875 L 8.214844 11.328125 L 7.714844 10.589844 C 8.164062 10.308594 8.464844 9.816406 8.464844 9.242188 L 8.464844 6.597656 C 8.464844 5.71875 7.757812 5.011719 6.878906 5.011719 Z M 10.054688 5.011719 L 10.054688 6.070312 L 9.523438 6.070312 L 9.523438 7.128906 L 10.054688 7.128906 L 10.054688 9.242188 C 10.054688 10.125 10.761719 10.832031 11.640625 10.832031 L 12.699219 10.566406 L 12.699219 9.773438 L 11.640625 9.773438 C 11.347656 9.773438 11.113281 9.535156 11.113281 9.242188 L 11.113281 7.128906 L 12.699219 7.128906 L 12.699219 6.070312 L 11.113281 6.070312 L 11.113281 5.011719 Z M 5.820312 6.070312 L 6.878906 6.070312 C 7.171875 6.070312 7.40625 6.304688 7.40625 6.597656 L 7.40625 9.242188 C 7.40625 9.535156 7.171875 9.773438 6.878906 9.773438 L 5.820312 9.773438 C 5.527344 9.773438 5.292969 9.535156 5.292969 9.242188 L 5.292969 6.597656 C 5.292969 6.304688 5.527344 6.070312 5.820312 6.070312 Z M 5.820312 6.070312 "/>
</svg>
