<?xml version="1.0" encoding="UTF-8"?>
<svg xmlns="http://www.w3.org/2000/svg" xmlns:xlink="http://www.w3.org/1999/xlink" width="64" height="64" viewBox="0 0 64 64">
<path fill-rule="nonzero" fill="rgb(36.078431%, 83.921569%, 36.078431%)" fill-opacity="1" d="M 32 5 C 46.910156 5 59 17.085938 59 32 C 59 46.910156 46.910156 59 32 59 C 17.085938 59 5 46.910156 5 32 C 5 17.085938 17.085938 5 32 5 Z M 32 5 "/>
<path fill-rule="nonzero" fill="rgb(100%, 100%, 100%)" fill-opacity="1" d="M 32 15 C 22.613281 15 15 22.613281 15 32 C 15 41.386719 22.613281 49 32 49 C 41.386719 49 49 41.386719 49 32 C 49 22.613281 41.386719 15 32 15 M 28 23 L 41.066406 32 L 28 41 Z M 28 23 "/>
</svg>
