<?xml version="1.0" encoding="UTF-8"?>
<svg xmlns="http://www.w3.org/2000/svg" xmlns:xlink="http://www.w3.org/1999/xlink" width="64" height="64" viewBox="0 0 64 64">
<path fill-rule="nonzero" fill="rgb(30.196078%, 30.196078%, 30.196078%)" fill-opacity="1" d="M 15.609375 8.464844 C 15.609375 12.410156 12.410156 15.609375 8.464844 15.609375 C 4.519531 15.609375 1.324219 12.410156 1.324219 8.464844 C 1.324219 4.519531 4.519531 1.324219 8.464844 1.324219 C 12.410156 1.324219 15.609375 4.519531 15.609375 8.464844 Z M 15.609375 8.464844 "/>
<path fill-rule="nonzero" fill="rgb(100%, 23.137255%, 32.54902%)" fill-opacity="1" d="M 7.832031 3.699219 L 9.101562 3.699219 C 9.277344 3.699219 9.417969 3.839844 9.417969 4.015625 L 9.417969 5.285156 C 9.417969 5.460938 9.277344 5.601562 9.101562 5.601562 L 7.832031 5.601562 C 7.65625 5.601562 7.515625 5.460938 7.515625 5.285156 L 7.515625 4.015625 C 7.515625 3.839844 7.65625 3.699219 7.832031 3.699219 Z M 7.832031 3.699219 "/>
<path fill-rule="nonzero" fill="rgb(100%, 23.137255%, 32.54902%)" fill-opacity="1" d="M 9.738281 3.699219 L 11.003906 3.699219 C 11.179688 3.699219 11.324219 3.839844 11.324219 4.015625 L 11.324219 5.285156 C 11.324219 5.460938 11.179688 5.601562 11.003906 5.601562 L 9.738281 5.601562 C 9.5625 5.601562 9.417969 5.460938 9.417969 5.285156 L 9.417969 4.015625 C 9.417969 3.839844 9.5625 3.699219 9.738281 3.699219 Z M 9.738281 3.699219 "/>
<path fill-rule="nonzero" fill="rgb(100%, 23.137255%, 32.54902%)" fill-opacity="1" d="M 11.644531 3.699219 L 12.910156 3.699219 C 13.085938 3.699219 13.230469 3.839844 13.230469 4.015625 L 13.230469 5.285156 C 13.230469 5.460938 13.085938 5.601562 12.910156 5.601562 L 11.644531 5.601562 C 11.46875 5.601562 11.324219 5.460938 11.324219 5.285156 L 11.324219 4.015625 C 11.324219 3.839844 11.46875 3.699219 11.644531 3.699219 Z M 11.644531 3.699219 "/>
<path fill-rule="nonzero" fill="rgb(100%, 23.137255%, 32.54902%)" fill-opacity="1" d="M 11.644531 5.605469 L 12.910156 5.605469 C 13.085938 5.605469 13.230469 5.75 13.230469 5.925781 L 13.230469 7.191406 C 13.230469 7.367188 13.085938 7.511719 12.910156 7.511719 L 11.644531 7.511719 C 11.46875 7.511719 11.324219 7.367188 11.324219 7.191406 L 11.324219 5.925781 C 11.324219 5.75 11.46875 5.605469 11.644531 5.605469 Z M 11.644531 5.605469 "/>
<path fill-rule="nonzero" fill="rgb(10.980392%, 74.509804%, 86.666667%)" fill-opacity="1" d="M 7.832031 7.515625 L 9.101562 7.515625 C 9.277344 7.515625 9.417969 7.65625 9.417969 7.832031 L 9.417969 9.101562 C 9.417969 9.277344 9.277344 9.417969 9.101562 9.417969 L 7.832031 9.417969 C 7.65625 9.417969 7.515625 9.277344 7.515625 9.101562 L 7.515625 7.832031 C 7.515625 7.65625 7.65625 7.515625 7.832031 7.515625 Z M 7.832031 7.515625 "/>
<path fill-rule="nonzero" fill="rgb(10.980392%, 74.509804%, 86.666667%)" fill-opacity="1" d="M 7.832031 9.410156 L 9.101562 9.410156 C 9.277344 9.410156 9.417969 9.550781 9.417969 9.726562 L 9.417969 10.996094 C 9.417969 11.171875 9.277344 11.3125 9.101562 11.3125 L 7.832031 11.3125 C 7.65625 11.3125 7.515625 11.171875 7.515625 10.996094 L 7.515625 9.726562 C 7.515625 9.550781 7.65625 9.410156 7.832031 9.410156 Z M 7.832031 9.410156 "/>
<path fill-rule="nonzero" fill="rgb(10.980392%, 74.509804%, 86.666667%)" fill-opacity="1" d="M 9.738281 9.410156 L 11.003906 9.410156 C 11.179688 9.410156 11.324219 9.550781 11.324219 9.726562 L 11.324219 10.996094 C 11.324219 11.171875 11.179688 11.3125 11.003906 11.3125 L 9.738281 11.3125 C 9.5625 11.3125 9.417969 11.171875 9.417969 10.996094 L 9.417969 9.726562 C 9.417969 9.550781 9.5625 9.410156 9.738281 9.410156 Z M 9.738281 9.410156 "/>
<path fill-rule="nonzero" fill="rgb(10.980392%, 74.509804%, 86.666667%)" fill-opacity="1" d="M 9.738281 11.316406 L 11.003906 11.316406 C 11.179688 11.316406 11.324219 11.460938 11.324219 11.636719 L 11.324219 12.90625 C 11.324219 13.078125 11.179688 13.222656 11.003906 13.222656 L 9.738281 13.222656 C 9.5625 13.222656 9.417969 13.078125 9.417969 12.90625 L 9.417969 11.636719 C 9.417969 11.460938 9.5625 11.316406 9.738281 11.316406 Z M 9.738281 11.316406 "/>
<path fill-rule="nonzero" fill="rgb(96.078431%, 67.058824%, 0%)" fill-opacity="1" d="M 7.832031 11.316406 L 9.101562 11.316406 C 9.277344 11.316406 9.417969 11.460938 9.417969 11.636719 L 9.417969 12.90625 C 9.417969 13.078125 9.277344 13.222656 9.101562 13.222656 L 7.832031 13.222656 C 7.65625 13.222656 7.515625 13.078125 7.515625 12.90625 L 7.515625 11.636719 C 7.515625 11.460938 7.65625 11.316406 7.832031 11.316406 Z M 7.832031 11.316406 "/>
<path fill-rule="nonzero" fill="rgb(96.078431%, 67.058824%, 0%)" fill-opacity="1" d="M 5.925781 11.316406 L 7.195312 11.316406 C 7.371094 11.316406 7.511719 11.460938 7.511719 11.636719 L 7.511719 12.90625 C 7.511719 13.078125 7.371094 13.222656 7.195312 13.222656 L 5.925781 13.222656 C 5.75 13.222656 5.609375 13.078125 5.609375 12.90625 L 5.609375 11.636719 C 5.609375 11.460938 5.75 11.316406 5.925781 11.316406 Z M 5.925781 11.316406 "/>
<path fill-rule="nonzero" fill="rgb(96.078431%, 67.058824%, 0%)" fill-opacity="1" d="M 5.925781 9.410156 L 7.195312 9.410156 C 7.371094 9.410156 7.511719 9.550781 7.511719 9.726562 L 7.511719 10.996094 C 7.511719 11.171875 7.371094 11.3125 7.195312 11.3125 L 5.925781 11.3125 C 5.75 11.3125 5.609375 11.171875 5.609375 10.996094 L 5.609375 9.726562 C 5.609375 9.550781 5.75 9.410156 5.925781 9.410156 Z M 5.925781 9.410156 "/>
<path fill-rule="nonzero" fill="rgb(96.078431%, 67.058824%, 0%)" fill-opacity="1" d="M 4.023438 11.316406 L 5.289062 11.316406 C 5.464844 11.316406 5.609375 11.460938 5.609375 11.636719 L 5.609375 12.90625 C 5.609375 13.078125 5.464844 13.222656 5.289062 13.222656 L 4.023438 13.222656 C 3.847656 13.222656 3.703125 13.078125 3.703125 12.90625 L 3.703125 11.636719 C 3.703125 11.460938 3.847656 11.316406 4.023438 11.316406 Z M 4.023438 11.316406 "/>
</svg>
