<?xml version="1.0" encoding="UTF-8"?>
<svg xmlns="http://www.w3.org/2000/svg" xmlns:xlink="http://www.w3.org/1999/xlink" width="64" height="64" viewBox="0 0 64 64">
<defs>
<filter id="filter-remove-color" x="0%" y="0%" width="100%" height="100%">
<feColorMatrix color-interpolation-filters="sRGB" values="0 0 0 0 1 0 0 0 0 1 0 0 0 0 1 0 0 0 1 0" />
</filter>
<mask id="mask-0">
<g filter="url(#filter-remove-color)">
<rect x="-6.4" y="-6.4" width="76.8" height="76.8" fill="rgb(0%, 0%, 0%)" fill-opacity="0.837"/>
</g>
</mask>
<clipPath id="clip-0">
<rect x="0" y="0" width="17" height="17"/>
</clipPath>
<g id="source-8576" clip-path="url(#clip-0)">
<path fill-rule="nonzero" fill="rgb(11.372549%, 35.294118%, 61.960784%)" fill-opacity="1" d="M 10.191406 10.277344 C 10.191406 10.511719 10.003906 10.703125 9.765625 10.703125 C 9.53125 10.703125 9.339844 10.511719 9.339844 10.277344 C 9.339844 10.042969 9.53125 9.851562 9.765625 9.851562 C 10.003906 9.851562 10.191406 10.042969 10.191406 10.277344 Z M 10.191406 10.277344 "/>
</g>
<mask id="mask-1">
<g filter="url(#filter-remove-color)">
<rect x="-6.4" y="-6.4" width="76.8" height="76.8" fill="rgb(0%, 0%, 0%)" fill-opacity="0.837"/>
</g>
</mask>
<clipPath id="clip-1">
<rect x="0" y="0" width="17" height="17"/>
</clipPath>
<g id="source-8580" clip-path="url(#clip-1)">
<path fill-rule="nonzero" fill="rgb(11.372549%, 35.294118%, 61.960784%)" fill-opacity="1" d="M 11.164062 10.277344 C 11.164062 10.511719 10.972656 10.703125 10.738281 10.703125 C 10.503906 10.703125 10.3125 10.511719 10.3125 10.277344 C 10.3125 10.042969 10.503906 9.851562 10.738281 9.851562 C 10.972656 9.851562 11.164062 10.042969 11.164062 10.277344 Z M 11.164062 10.277344 "/>
</g>
<mask id="mask-2">
<g filter="url(#filter-remove-color)">
<rect x="-6.4" y="-6.4" width="76.8" height="76.8" fill="rgb(0%, 0%, 0%)" fill-opacity="0.837"/>
</g>
</mask>
<clipPath id="clip-2">
<rect x="0" y="0" width="17" height="17"/>
</clipPath>
<g id="source-8584" clip-path="url(#clip-2)">
<path fill-rule="nonzero" fill="rgb(11.372549%, 35.294118%, 61.960784%)" fill-opacity="1" d="M 12.183594 10.277344 C 12.183594 10.511719 11.992188 10.703125 11.757812 10.703125 C 11.519531 10.703125 11.332031 10.511719 11.332031 10.277344 C 11.332031 10.042969 11.519531 9.851562 11.757812 9.851562 C 11.992188 9.851562 12.183594 10.042969 12.183594 10.277344 Z M 12.183594 10.277344 "/>
</g>
</defs>
<path fill-rule="nonzero" fill="rgb(97.647059%, 97.647059%, 97.647059%)" fill-opacity="1" d="M 15.609375 8.464844 C 15.609375 12.410156 12.410156 15.609375 8.464844 15.609375 C 4.519531 15.609375 1.324219 12.410156 1.324219 8.464844 C 1.324219 4.519531 4.519531 1.324219 8.464844 1.324219 C 12.410156 1.324219 15.609375 4.519531 15.609375 8.464844 Z M 15.609375 8.464844 "/>
<path fill-rule="nonzero" fill="rgb(13.72549%, 46.27451%, 77.254902%)" fill-opacity="1" d="M 11.769531 5.347656 C 10.886719 4.628906 9.714844 4.234375 8.464844 4.234375 C 7.21875 4.234375 6.046875 4.628906 5.164062 5.347656 C 4.269531 6.074219 3.78125 7.039062 3.78125 8.070312 C 3.78125 9.054688 4.226562 9.980469 5.042969 10.691406 C 5.027344 10.726562 5.015625 10.761719 5.007812 10.796875 L 4.742188 12.117188 C 4.710938 12.273438 4.753906 12.367188 4.792969 12.417969 C 4.84375 12.476562 4.914062 12.507812 4.996094 12.507812 C 5.054688 12.507812 5.121094 12.488281 5.191406 12.453125 L 6.75 11.644531 C 7.289062 11.816406 7.871094 11.910156 8.464844 11.910156 C 9.714844 11.910156 10.886719 11.511719 11.769531 10.792969 C 12.660156 10.066406 13.152344 9.101562 13.152344 8.070312 C 13.152344 7.039062 12.660156 6.074219 11.769531 5.347656 Z M 11.769531 5.347656 "/>
<path fill-rule="nonzero" fill="rgb(100%, 100%, 100%)" fill-opacity="1" d="M 7.597656 6.382812 L 7.597656 7.261719 L 6.71875 7.261719 L 6.71875 7.699219 L 7.597656 7.699219 L 7.597656 8.578125 L 6.71875 8.578125 L 6.71875 9.019531 L 7.597656 9.019531 L 7.597656 9.898438 L 8.039062 9.898438 L 8.039062 9.019531 L 8.917969 9.019531 L 8.917969 9.898438 L 9.355469 9.898438 L 9.355469 9.019531 L 10.234375 9.019531 L 10.234375 8.578125 L 9.355469 8.578125 L 9.355469 7.699219 L 10.234375 7.699219 L 10.234375 7.261719 L 9.355469 7.261719 L 9.355469 6.382812 L 8.917969 6.382812 L 8.917969 7.261719 L 8.039062 7.261719 L 8.039062 6.382812 Z M 8.039062 7.699219 L 8.917969 7.699219 L 8.917969 8.578125 L 8.039062 8.578125 Z M 8.039062 7.699219 "/>
<path fill-rule="nonzero" fill="rgb(71.764706%, 90.196078%, 100%)" fill-opacity="1" d="M 9.09375 8.800781 C 9.535156 8.410156 10.121094 8.195312 10.746094 8.195312 C 11.367188 8.195312 11.953125 8.410156 12.398438 8.800781 C 12.84375 9.195312 13.089844 9.722656 13.089844 10.285156 C 13.089844 10.820312 12.863281 11.324219 12.457031 11.710938 C 12.464844 11.730469 12.46875 11.75 12.472656 11.769531 L 12.605469 12.484375 C 12.625 12.570312 12.601562 12.621094 12.582031 12.648438 C 12.558594 12.683594 12.519531 12.699219 12.480469 12.699219 C 12.449219 12.699219 12.417969 12.691406 12.382812 12.671875 L 11.601562 12.230469 C 11.332031 12.324219 11.042969 12.375 10.746094 12.375 C 10.121094 12.375 9.535156 12.15625 9.09375 11.765625 C 8.648438 11.371094 8.402344 10.84375 8.402344 10.285156 C 8.402344 9.722656 8.648438 9.195312 9.09375 8.800781 Z M 9.09375 8.800781 "/>
<g mask="url(#mask-0)">
<use xlink:href="#source-8576"/>
</g>
<g mask="url(#mask-1)">
<use xlink:href="#source-8580"/>
</g>
<g mask="url(#mask-2)">
<use xlink:href="#source-8584"/>
</g>
</svg>
