<?xml version="1.0" encoding="UTF-8"?>
<svg xmlns="http://www.w3.org/2000/svg" xmlns:xlink="http://www.w3.org/1999/xlink" width="64" height="64" viewBox="0 0 64 64">
<path fill-rule="nonzero" fill="rgb(0.784314%, 46.666667%, 74.117647%)" fill-opacity="1" d="M 59 32 C 59 46.910156 46.910156 59 32 59 C 17.089844 59 5 46.910156 5 32 C 5 17.089844 17.089844 5 32 5 C 46.910156 5 59 17.089844 59 32 Z M 59 32 "/>
<path fill-rule="evenodd" fill="rgb(50.588235%, 83.137255%, 98.039216%)" fill-opacity="1" d="M 26.441406 34.101562 C 26.050781 34.101562 25.652344 34.109375 25.257812 34.136719 C 24.195312 34.214844 23.117188 34.410156 22.015625 34.75 C 17.605469 36.105469 16.90625 39.691406 11.621094 46.742188 C 11.296875 47.167969 11.777344 47.730469 12.25 47.484375 C 17.019531 43.042969 20.375 42.542969 24.121094 42.621094 C 27.863281 42.695312 30.46875 44.042969 33.140625 45.597656 C 35.816406 47.152344 38.542969 48.921875 42.382812 49.644531 C 46.21875 50.367188 51.132812 50.03125 58.1875 47.511719 C 58.714844 47.324219 58.582031 46.542969 58.019531 46.542969 C 49.277344 46.542969 42.097656 39.640625 34.355469 36.085938 C 31.8125 34.917969 29.191406 34.125 26.441406 34.101562 Z M 26.441406 34.101562 "/>
<path fill-rule="evenodd" fill="rgb(100%, 100%, 100%)" fill-opacity="1" d="M 21.113281 17.898438 C 20.253906 17.886719 19.429688 17.910156 18.648438 17.972656 C 15.519531 18.210938 13.007812 19.027344 11.613281 20.695312 C 9.4375 23.308594 8.203125 27.886719 8.085938 32.851562 C 7.972656 37.8125 9.003906 43.167969 11.574219 47.28125 C 11.660156 47.414062 11.800781 47.5 11.957031 47.515625 C 12.109375 47.527344 12.265625 47.46875 12.367188 47.351562 C 22.339844 36.386719 32.109375 28.523438 52.976562 29.515625 C 53.199219 29.527344 53.402344 29.390625 53.472656 29.175781 C 53.542969 28.964844 53.46875 28.734375 53.285156 28.605469 C 46.707031 24.050781 37.664062 20.539062 29.597656 18.902344 C 26.574219 18.285156 23.6875 17.933594 21.113281 17.898438 Z M 21.113281 17.898438 "/>
</svg>
