<?xml version="1.0" encoding="UTF-8"?>
<svg xmlns="http://www.w3.org/2000/svg" xmlns:xlink="http://www.w3.org/1999/xlink" width="64" height="64" viewBox="0 0 64 64">
<path fill-rule="nonzero" fill="rgb(97.647059%, 97.647059%, 97.647059%)" fill-opacity="1" d="M 59 32 C 59 46.910156 46.910156 59 32 59 C 17.089844 59 5 46.910156 5 32 C 5 17.089844 17.089844 5 32 5 C 46.910156 5 59 17.089844 59 32 Z M 59 32 "/>
<path fill-rule="evenodd" fill="rgb(78.431373%, 78.431373%, 78.431373%)" fill-opacity="1" d="M 36.402344 17.046875 C 26.609375 13.992188 16.695312 17.820312 14.265625 25.605469 C 11.835938 33.390625 17.804688 42.183594 27.597656 45.242188 C 37.390625 48.300781 47.304688 44.46875 49.734375 36.683594 C 52.164062 28.898438 46.195312 20.109375 36.402344 17.046875 M 37.292969 22.765625 C 44.597656 25.046875 49.050781 31.601562 47.238281 37.40625 C 45.425781 43.207031 38.035156 46.0625 30.730469 43.78125 C 23.425781 41.5 18.972656 34.945312 20.785156 29.140625 C 22.597656 23.339844 29.988281 20.484375 37.292969 22.761719 "/>
<path fill-rule="evenodd" fill="rgb(30.980392%, 38.039216%, 92.156863%)" fill-opacity="1" d="M 47.390625 47.996094 L 41.433594 48 L 37.371094 42 C 37.371094 42 36.71875 40.875 36.316406 40.546875 C 35.980469 40.277344 35.839844 40.179688 35.507812 40.179688 L 34.753906 40.179688 L 34.753906 47.992188 L 29.582031 47.996094 L 29.582031 28.027344 L 40.84375 28.027344 C 40.84375 28.027344 45.410156 28.867188 45.5 33.390625 C 45.605469 38.429688 41.089844 39.910156 41.089844 39.910156 C 41.707031 40.164062 46.6875 46.828125 47.390625 47.992188 M 38.460938 32.355469 L 34.804688 32.355469 L 34.804688 35.75 L 38.460938 35.75 C 38.460938 35.75 40.15625 35.742188 40.15625 34.023438 C 40.15625 32.265625 38.460938 32.359375 38.460938 32.359375 "/>
</svg>
