<?xml version="1.0" encoding="UTF-8"?>
<svg xmlns="http://www.w3.org/2000/svg" xmlns:xlink="http://www.w3.org/1999/xlink" width="64" height="64" viewBox="0 0 64 64">
<path fill-rule="nonzero" fill="rgb(94.901961%, 94.901961%, 94.901961%)" fill-opacity="1" d="M 8.464844 1.324219 C 12.414062 1.324219 15.609375 4.519531 15.609375 8.464844 C 15.609375 12.414062 12.414062 15.609375 8.464844 15.609375 C 4.519531 15.609375 1.324219 12.414062 1.324219 8.464844 C 1.324219 4.519531 4.519531 1.324219 8.464844 1.324219 Z M 8.464844 1.324219 "/>
<path fill-rule="nonzero" fill="rgb(17.254902%, 17.254902%, 17.254902%)" fill-opacity="1" d="M 8.46875 3.699219 C 7.203125 3.699219 5.992188 4.199219 5.097656 5.09375 C 4.203125 5.988281 3.703125 7.199219 3.703125 8.460938 C 3.703125 8.980469 3.792969 9.496094 3.960938 9.984375 C 4.472656 9.980469 4.847656 9.910156 5.113281 9.78125 C 5.570312 9.554688 5.660156 10.28125 6.085938 10.246094 C 6.558594 10.207031 6.101562 9.894531 5.925781 9.683594 C 5.695312 9.414062 5.609375 8.933594 6.117188 8.886719 C 6.5 8.855469 6.730469 9.539062 6.859375 9.449219 C 7.195312 9.210938 7.367188 9.71875 7.617188 9.910156 C 7.949219 10.160156 8.390625 10.222656 8.742188 10.070312 C 9.101562 9.914062 9.265625 10.21875 9.691406 10.039062 C 10.007812 9.90625 10.015625 10.234375 10.617188 9.992188 C 10.597656 10.277344 10.496094 10.550781 10.445312 10.816406 C 10.378906 11.132812 9.863281 11.820312 9.605469 12.128906 C 9.898438 12.058594 10.136719 11.953125 10.175781 11.882812 C 10.476562 11.320312 10.984375 11.554688 10.988281 11.222656 C 10.988281 11.003906 11.546875 11.003906 11.640625 11.003906 C 11.8125 11.003906 12.164062 11.003906 12.457031 11.054688 C 13.410156 9.589844 13.484375 7.722656 12.652344 6.1875 C 11.820312 4.652344 10.214844 3.699219 8.46875 3.699219 Z M 9.496094 10.609375 C 9.4375 10.738281 9.265625 10.851562 9.160156 10.742188 C 9.039062 10.617188 8.691406 10.605469 8.710938 10.804688 C 8.722656 10.953125 8.785156 10.804688 8.957031 10.929688 C 9.214844 11.113281 9.699219 10.996094 9.496094 10.609375 Z M 13.070312 10.683594 C 12.984375 10.683594 12.910156 10.753906 12.910156 10.84375 C 12.910156 10.929688 12.984375 11.003906 13.070312 11.003906 C 13.160156 11.003906 13.230469 10.929688 13.230469 10.84375 C 13.230469 10.753906 13.160156 10.683594 13.070312 10.683594 Z M 13.070312 10.714844 C 13.140625 10.714844 13.199219 10.773438 13.199219 10.84375 C 13.199219 10.914062 13.140625 10.96875 13.070312 10.96875 C 13 10.96875 12.945312 10.914062 12.945312 10.84375 C 12.945312 10.773438 13 10.714844 13.070312 10.714844 Z M 13.007812 10.761719 L 13.007812 10.921875 L 13.035156 10.921875 L 13.035156 10.859375 L 13.0625 10.859375 L 13.101562 10.921875 L 13.132812 10.921875 L 13.09375 10.855469 C 13.117188 10.847656 13.128906 10.832031 13.128906 10.808594 C 13.128906 10.777344 13.105469 10.761719 13.0625 10.761719 Z M 13.035156 10.789062 L 13.058594 10.789062 C 13.078125 10.789062 13.101562 10.792969 13.101562 10.8125 C 13.101562 10.832031 13.078125 10.835938 13.050781 10.835938 L 13.035156 10.835938 Z M 13.035156 10.789062 "/>
<path fill-rule="nonzero" fill="rgb(94.117647%, 18.823529%, 18.823529%)" fill-opacity="1" d="M 11.082031 7.191406 C 11.066406 7.394531 10.789062 7.757812 10.65625 7.632812 C 10.933594 7.269531 10.816406 6.792969 10.667969 6.402344 C 10.464844 5.863281 10.308594 5.257812 9.871094 4.867188 C 9.46875 4.507812 8.882812 4.695312 8.402344 4.8125 C 7.890625 4.941406 7.308594 4.511719 6.835938 4.839844 C 6.445312 5.109375 6.503906 5.65625 6.371094 6.074219 C 6.234375 6.507812 6.714844 6.789062 7.066406 6.914062 C 7.519531 7.066406 8.054688 7.019531 8.433594 7.324219 C 8.640625 7.492188 8.785156 7.832031 8.785156 8.152344 C 7.832031 8.152344 6.859375 7.765625 6.257812 7.179688 C 6.054688 6.976562 6.3125 6.5625 5.863281 6.5625 C 5.480469 6.5625 5.105469 6.542969 4.824219 6.777344 C 4.539062 7.015625 4.652344 7.472656 4.90625 7.71875 C 5.742188 8.53125 6.796875 9.058594 7.878906 9.414062 C 9.003906 9.78125 10.277344 9.90625 11.386719 9.414062 C 11.894531 9.191406 12.382812 8.652344 12.257812 8.0625 C 12.148438 7.527344 11.558594 7.300781 11.082031 7.191406 Z M 8.617188 5.058594 C 8.917969 4.855469 9.457031 4.753906 9.691406 5.03125 C 9.96875 5.363281 9.222656 5.53125 8.992188 5.363281 C 9.121094 5.332031 9.398438 5.078125 9.082031 5.046875 C 8.917969 5.027344 8.753906 5.046875 8.617188 5.058594 Z M 8.039062 5.953125 C 7.65625 5.910156 7.324219 6.351562 6.964844 5.996094 C 6.761719 5.796875 6.789062 5.316406 7.121094 5.585938 C 7.457031 5.851562 8.035156 5.386719 8.28125 5.78125 C 8.375 5.925781 8.160156 5.964844 8.039062 5.953125 Z M 8.039062 5.953125 "/>
</svg>
