<?xml version="1.0" encoding="UTF-8"?>
<svg xmlns="http://www.w3.org/2000/svg" xmlns:xlink="http://www.w3.org/1999/xlink" width="64" height="64" viewBox="0 0 64 64">
<path fill-rule="nonzero" fill="rgb(51.764706%, 83.137255%, 36.862745%)" fill-opacity="1" d="M 8.464844 1.324219 C 12.410156 1.324219 15.609375 4.519531 15.609375 8.464844 C 15.609375 12.410156 12.410156 15.609375 8.464844 15.609375 C 4.519531 15.609375 1.324219 12.410156 1.324219 8.464844 C 1.324219 4.519531 4.519531 1.324219 8.464844 1.324219 Z M 8.464844 1.324219 "/>
<path fill-rule="nonzero" fill="rgb(16.470588%, 16.470588%, 16.470588%)" fill-opacity="1" d="M 5.21875 5.863281 L 4.179688 9.683594 L 4.871094 9.683594 L 5.914062 5.863281 Z M 9.738281 5.863281 L 8.695312 9.683594 L 9.390625 9.683594 L 10.429688 5.863281 Z M 11.652344 6.90625 C 11.40625 6.90625 11.1875 6.945312 10.992188 7.03125 C 10.796875 7.109375 10.632812 7.222656 10.496094 7.371094 C 10.363281 7.511719 10.261719 7.683594 10.191406 7.886719 C 10.121094 8.082031 10.085938 8.300781 10.085938 8.539062 C 10.085938 8.8125 10.121094 9.046875 10.195312 9.242188 C 10.269531 9.4375 10.371094 9.605469 10.5 9.738281 C 10.628906 9.867188 10.777344 9.964844 10.949219 10.027344 C 11.390625 10.179688 11.78125 10.109375 12.167969 9.914062 L 12.167969 10.050781 C 12.167969 10.355469 12.167969 10.601562 12.0625 10.710938 C 11.914062 10.851562 11.664062 10.917969 11.320312 10.917969 C 11.140625 10.917969 10.964844 10.898438 10.792969 10.863281 C 10.628906 10.828125 10.488281 10.789062 10.371094 10.742188 L 10.265625 11.253906 C 10.398438 11.296875 10.550781 11.339844 10.730469 11.371094 C 10.914062 11.40625 11.105469 11.421875 11.308594 11.421875 C 11.832031 11.421875 12.222656 11.308594 12.476562 11.082031 C 12.734375 10.855469 12.863281 10.492188 12.863281 9.988281 L 12.863281 7.074219 C 12.46875 6.988281 12.078125 6.902344 11.652344 6.90625 Z M 12.167969 7.488281 L 12.167969 9.398438 C 11.824219 9.652344 11.582031 9.664062 11.226562 9.554688 C 10.964844 9.476562 10.851562 9.242188 10.757812 9.027344 C 10.699219 8.898438 10.6875 8.734375 10.6875 8.542969 C 10.6875 8.207031 10.75 7.914062 10.9375 7.726562 C 11.320312 7.34375 11.710938 7.410156 12.167969 7.488281 Z M 12.167969 7.488281 "/>
<path fill-rule="nonzero" fill="rgb(97.647059%, 97.647059%, 97.647059%)" fill-opacity="1" d="M 5.914062 5.863281 L 6.957031 9.683594 L 7.652344 9.683594 L 6.609375 5.863281 Z M 7.652344 9.683594 L 8.347656 9.683594 L 8.347656 8.988281 L 7.652344 8.988281 Z M 7.652344 9.683594 "/>
</svg>
