<?xml version="1.0" encoding="UTF-8"?>
<svg xmlns="http://www.w3.org/2000/svg" xmlns:xlink="http://www.w3.org/1999/xlink" width="64" height="64" viewBox="0 0 64 64">
<path fill-rule="nonzero" fill="rgb(36.862745%, 30.980392%, 75.686275%)" fill-opacity="1" d="M 59 32 C 59 46.910156 46.910156 59 32 59 C 17.089844 59 5 46.910156 5 32 C 5 17.089844 17.089844 5 32 5 C 46.910156 5 59 17.089844 59 32 Z M 59 32 "/>
<path fill-rule="nonzero" fill="rgb(100%, 100%, 100%)" fill-opacity="1" d="M 32 14 C 22.058594 14 14 22.058594 14 32 C 14 41.941406 22.058594 50 32 50 C 41.941406 50 50 41.941406 50 32 C 50 22.058594 41.941406 14 32 14 Z M 31.398438 16.398438 C 39.683594 16.394531 46.398438 23.117188 46.398438 31.398438 C 46.398438 39.683594 39.683594 46.398438 31.398438 46.398438 C 23.117188 46.398438 16.394531 39.683594 16.398438 31.398438 C 16.402344 30.640625 16.472656 29.882812 16.59375 29.132812 C 18.113281 30.214844 19.933594 30.800781 21.800781 30.800781 C 26.769531 30.800781 30.804688 26.769531 30.800781 21.800781 C 30.800781 19.929688 30.210938 18.105469 29.121094 16.585938 C 29.875 16.464844 30.636719 16.398438 31.398438 16.398438 Z M 31.398438 16.398438 "/>
</svg>
