<?xml version="1.0" encoding="UTF-8"?>
<svg xmlns="http://www.w3.org/2000/svg" xmlns:xlink="http://www.w3.org/1999/xlink" width="64" height="64" viewBox="0 0 64 64">
<path fill-rule="nonzero" fill="rgb(36.862745%, 30.980392%, 75.686275%)" fill-opacity="1" d="M 59 32 C 59 46.910156 46.910156 59 32 59 C 17.089844 59 5 46.910156 5 32 C 5 17.089844 17.089844 5 32 5 C 46.910156 5 59 17.089844 59 32 Z M 59 32 "/>
<path fill-rule="nonzero" fill="rgb(97.647059%, 97.647059%, 97.647059%)" fill-opacity="1" d="M 19.675781 17.914062 C 19.347656 17.914062 19.085938 18.175781 19.085938 18.5 L 19.085938 20.847656 C 19.085938 21.171875 19.347656 21.433594 19.675781 21.433594 L 21.433594 21.433594 L 21.433594 42.566406 L 19.675781 42.566406 C 19.347656 42.566406 19.085938 42.828125 19.085938 43.152344 L 19.085938 45.5 C 19.085938 45.824219 19.347656 46.085938 19.675781 46.085938 L 26.71875 46.085938 C 27.042969 46.085938 27.304688 45.824219 27.304688 45.5 L 27.304688 43.152344 C 27.304688 42.828125 27.042969 42.566406 26.71875 42.566406 L 25.019531 42.566406 L 25.019531 21.433594 L 26.71875 21.433594 C 27.042969 21.433594 27.304688 21.171875 27.304688 20.847656 L 27.304688 18.5 C 27.304688 18.175781 27.042969 17.914062 26.71875 17.914062 Z M 31.414062 17.914062 C 31.085938 17.914062 30.824219 18.175781 30.824219 18.5 L 30.824219 20.847656 C 30.824219 21.171875 31.085938 21.433594 31.414062 21.433594 L 41.976562 21.433594 C 42.304688 21.433594 42.566406 21.171875 42.566406 20.847656 L 42.566406 18.5 C 42.566406 18.175781 42.304688 17.914062 41.976562 17.914062 Z M 38.457031 26.128906 C 38.132812 26.128906 37.871094 26.390625 37.871094 26.71875 L 37.871094 29.066406 C 37.871094 29.390625 38.132812 29.652344 38.457031 29.652344 L 46.671875 29.652344 C 47 29.652344 47.261719 29.390625 47.261719 29.066406 L 47.261719 26.71875 C 47.261719 26.390625 47 26.128906 46.671875 26.128906 Z M 38.457031 34.347656 C 38.132812 34.347656 37.871094 34.609375 37.871094 34.933594 L 37.871094 37.28125 C 37.871094 37.609375 38.132812 37.871094 38.457031 37.871094 L 46.671875 37.871094 C 47 37.871094 47.261719 37.609375 47.261719 37.28125 L 47.261719 34.933594 C 47.261719 34.609375 47 34.347656 46.671875 34.347656 Z M 31.414062 42.566406 C 31.085938 42.566406 30.824219 42.828125 30.824219 43.152344 L 30.824219 45.5 C 30.824219 45.824219 31.085938 46.085938 31.414062 46.085938 L 41.976562 46.085938 C 42.304688 46.085938 42.566406 45.824219 42.566406 45.5 L 42.566406 43.152344 C 42.566406 42.828125 42.304688 42.566406 41.976562 42.566406 Z M 31.414062 42.566406 "/>
</svg>
