<?xml version="1.0" encoding="UTF-8"?>
<svg xmlns="http://www.w3.org/2000/svg" xmlns:xlink="http://www.w3.org/1999/xlink" width="64" height="64" viewBox="0 0 64 64">
<defs>
<filter id="filter-remove-color" x="0%" y="0%" width="100%" height="100%">
<feColorMatrix color-interpolation-filters="sRGB" values="0 0 0 0 1 0 0 0 0 1 0 0 0 0 1 0 0 0 1 0" />
</filter>
<mask id="mask-0">
<g filter="url(#filter-remove-color)">
<rect x="-6.4" y="-6.4" width="76.8" height="76.8" fill="rgb(0%, 0%, 0%)" fill-opacity="0.25"/>
</g>
</mask>
<clipPath id="clip-0">
<rect x="0" y="0" width="17" height="17"/>
</clipPath>
<g id="source-6545" clip-path="url(#clip-0)">
<path fill-rule="nonzero" fill="rgb(20%, 30.196078%, 36.078431%)" fill-opacity="1" d="M 3.417969 3.417969 C 2.078125 4.757812 1.324219 6.574219 1.324219 8.46875 C 1.324219 8.894531 1.363281 9.320312 1.441406 9.738281 C 3.039062 9.039062 4.070312 7.460938 4.070312 5.71875 C 4.070312 4.90625 3.84375 4.109375 3.417969 3.417969 Z M 13.515625 3.421875 C 13.089844 4.113281 12.863281 4.90625 12.863281 5.71875 C 12.863281 7.460938 13.894531 9.039062 15.488281 9.742188 C 15.566406 9.320312 15.609375 8.894531 15.609375 8.46875 C 15.609375 6.574219 14.855469 4.757812 13.515625 3.417969 Z M 13.515625 3.421875 "/>
</g>
</defs>
<path fill-rule="nonzero" fill="rgb(92.156863%, 93.333333%, 93.72549%)" fill-opacity="1" d="M 15.609375 8.46875 C 15.609375 12.414062 12.414062 15.609375 8.46875 15.609375 C 4.523438 15.609375 1.324219 12.414062 1.324219 8.46875 C 1.324219 4.519531 4.523438 1.324219 8.46875 1.324219 C 12.414062 1.324219 15.609375 4.519531 15.609375 8.46875 Z M 15.609375 8.46875 "/>
<g mask="url(#mask-0)">
<use xlink:href="#source-6545"/>
</g>
<path fill-rule="nonzero" fill="rgb(20%, 30.196078%, 36.078431%)" fill-opacity="1" d="M 12.699219 10.054688 C 12.699219 12.390625 10.804688 14.285156 8.464844 14.285156 C 6.128906 14.285156 4.234375 12.390625 4.234375 10.054688 C 4.234375 7.714844 6.128906 5.824219 8.464844 5.824219 C 10.804688 5.824219 12.699219 7.714844 12.699219 10.054688 Z M 12.699219 10.054688 "/>
<path fill-rule="nonzero" fill="rgb(93.72549%, 78.431373%, 29.019608%)" fill-opacity="1" d="M 11.640625 10.054688 C 11.640625 11.804688 10.21875 13.226562 8.46875 13.226562 C 6.714844 13.226562 5.292969 11.804688 5.292969 10.054688 C 5.292969 8.300781 6.714844 6.878906 8.46875 6.878906 C 10.21875 6.878906 11.640625 8.300781 11.640625 10.054688 Z M 11.640625 10.054688 "/>
<path fill-rule="nonzero" fill="rgb(20%, 30.196078%, 36.078431%)" fill-opacity="1" d="M 10.054688 10.054688 C 10.054688 10.929688 9.34375 11.640625 8.464844 11.640625 C 7.589844 11.640625 6.878906 10.929688 6.878906 10.054688 C 6.878906 9.175781 7.589844 8.464844 8.464844 8.464844 C 9.34375 8.464844 10.054688 9.175781 10.054688 10.054688 Z M 10.054688 10.054688 "/>
<path fill-rule="nonzero" fill="rgb(100%, 100%, 100%)" fill-opacity="1" d="M 10.054688 3.703125 C 10.054688 4.578125 9.34375 5.289062 8.464844 5.289062 C 7.589844 5.289062 6.878906 4.578125 6.878906 3.703125 C 6.878906 2.828125 7.589844 2.117188 8.464844 2.117188 C 9.34375 2.117188 10.054688 2.828125 10.054688 3.703125 Z M 10.054688 3.703125 "/>
<path fill-rule="nonzero" fill="rgb(20%, 30.196078%, 36.078431%)" fill-opacity="1" d="M 9.523438 3.703125 C 9.523438 4.289062 9.050781 4.761719 8.464844 4.761719 C 7.882812 4.761719 7.40625 4.289062 7.40625 3.703125 C 7.40625 3.117188 7.882812 2.644531 8.464844 2.644531 C 9.050781 2.644531 9.523438 3.117188 9.523438 3.703125 Z M 9.523438 3.703125 "/>
<path fill-rule="nonzero" fill="rgb(93.72549%, 78.431373%, 29.019608%)" fill-opacity="1" d="M 8.996094 3.703125 C 9.003906 3.898438 8.90625 4.082031 8.738281 4.179688 C 8.570312 4.28125 8.363281 4.28125 8.195312 4.179688 C 8.027344 4.082031 7.929688 3.898438 7.9375 3.703125 C 7.929688 3.507812 8.027344 3.328125 8.195312 3.226562 C 8.363281 3.128906 8.570312 3.128906 8.738281 3.226562 C 8.90625 3.328125 9.003906 3.507812 8.996094 3.703125 Z M 8.996094 3.703125 "/>
<path fill-rule="nonzero" fill="rgb(20%, 30.196078%, 36.078431%)" fill-opacity="1" d="M 5.820312 3.96875 C 5.828125 4.066406 5.78125 4.164062 5.695312 4.214844 C 5.609375 4.269531 5.503906 4.269531 5.417969 4.214844 C 5.332031 4.164062 5.285156 4.066406 5.292969 3.96875 C 5.285156 3.871094 5.335938 3.777344 5.417969 3.726562 C 5.503906 3.675781 5.609375 3.675781 5.695312 3.726562 C 5.777344 3.777344 5.828125 3.871094 5.820312 3.96875 Z M 11.640625 3.96875 C 11.640625 4.113281 11.523438 4.230469 11.378906 4.230469 C 11.230469 4.230469 11.113281 4.113281 11.113281 3.96875 C 11.113281 3.820312 11.230469 3.703125 11.378906 3.703125 C 11.523438 3.703125 11.640625 3.820312 11.640625 3.96875 Z M 14.285156 10.320312 C 14.292969 10.417969 14.242188 10.511719 14.160156 10.5625 C 14.074219 10.613281 13.96875 10.613281 13.886719 10.5625 C 13.800781 10.511719 13.75 10.417969 13.757812 10.320312 C 13.757812 10.171875 13.875 10.054688 14.023438 10.054688 C 14.167969 10.054688 14.289062 10.171875 14.289062 10.320312 Z M 3.441406 10.320312 C 3.441406 10.464844 3.320312 10.582031 3.175781 10.582031 C 3.027344 10.582031 2.910156 10.464844 2.910156 10.320312 C 2.910156 10.171875 3.027344 10.054688 3.175781 10.054688 C 3.320312 10.054688 3.441406 10.171875 3.441406 10.320312 Z M 3.441406 10.320312 "/>
</svg>
