<?xml version="1.0" encoding="UTF-8"?>
<svg xmlns="http://www.w3.org/2000/svg" xmlns:xlink="http://www.w3.org/1999/xlink" width="64" height="64" viewBox="0 0 64 64">
<path fill-rule="nonzero" fill="rgb(88.235294%, 25.490196%, 36.078431%)" fill-opacity="1" d="M 15.609375 8.464844 C 15.609375 12.410156 12.410156 15.609375 8.464844 15.609375 C 4.519531 15.609375 1.324219 12.410156 1.324219 8.464844 C 1.324219 4.519531 4.519531 1.324219 8.464844 1.324219 C 12.410156 1.324219 15.609375 4.519531 15.609375 8.464844 Z M 15.609375 8.464844 "/>
<path fill-rule="nonzero" fill="rgb(18.823529%, 18.823529%, 18.823529%)" fill-opacity="1" d="M 5.820312 4.496094 L 11.113281 4.496094 C 11.84375 4.496094 12.433594 5.089844 12.433594 5.820312 L 12.433594 11.113281 C 12.433594 11.84375 11.84375 12.433594 11.113281 12.433594 L 5.820312 12.433594 C 5.089844 12.433594 4.496094 11.84375 4.496094 11.113281 L 4.496094 5.820312 C 4.496094 5.089844 5.089844 4.496094 5.820312 4.496094 Z M 5.820312 4.496094 "/>
<path fill-rule="nonzero" fill="rgb(97.647059%, 97.647059%, 97.647059%)" fill-opacity="1" d="M 5.050781 10.953125 L 8.15625 10.953125 L 8.15625 11.574219 L 5.050781 11.574219 Z M 5.050781 10.953125 "/>
<path fill-rule="nonzero" fill="rgb(97.647059%, 97.647059%, 97.647059%)" fill-opacity="1" d="M 5.671875 5.359375 L 5.671875 8.777344 L 6.292969 8.777344 L 6.292969 7.535156 L 6.789062 7.535156 L 7.535156 8.777344 L 8.15625 8.777344 L 7.378906 7.484375 C 7.859375 7.371094 8.15625 7.054688 8.15625 6.460938 L 8.15625 6.449219 C 8.15625 5.757812 7.820312 5.359375 7.015625 5.359375 Z M 8.464844 5.359375 L 8.464844 8.777344 L 9.398438 8.777344 L 9.882812 8.773438 C 10.484375 8.765625 11.261719 8.160156 11.261719 7.078125 L 11.261719 7.0625 C 11.261719 5.988281 10.613281 5.359375 9.808594 5.359375 Z M 6.292969 5.980469 L 6.914062 5.980469 C 7.289062 5.980469 7.535156 6.101562 7.535156 6.441406 L 7.535156 6.457031 C 7.535156 6.734375 7.289062 6.914062 6.914062 6.914062 L 6.292969 6.914062 Z M 9.085938 5.980469 L 9.707031 5.980469 C 10.082031 5.980469 10.640625 6.296875 10.640625 7.0625 L 10.640625 7.078125 C 10.640625 7.851562 10.082031 8.15625 9.707031 8.15625 L 9.085938 8.15625 Z M 9.085938 5.980469 "/>
</svg>
