<?xml version="1.0" encoding="UTF-8"?>
<svg xmlns="http://www.w3.org/2000/svg" xmlns:xlink="http://www.w3.org/1999/xlink" width="64" height="64" viewBox="0 0 64 64">
<path fill-rule="nonzero" fill="rgb(94.901961%, 17.254902%, 39.607843%)" fill-opacity="1" d="M 8.464844 1.324219 C 12.414062 1.324219 15.609375 4.519531 15.609375 8.464844 C 15.609375 12.414062 12.414062 15.609375 8.464844 15.609375 C 4.519531 15.609375 1.324219 12.414062 1.324219 8.464844 C 1.324219 4.519531 4.519531 1.324219 8.464844 1.324219 Z M 8.464844 1.324219 "/>
<path fill-rule="nonzero" fill="rgb(15.686275%, 15.686275%, 15.686275%)" fill-opacity="1" d="M 6.945312 4.234375 C 6.894531 4.238281 6.84375 4.257812 6.804688 4.289062 C 6.675781 4.242188 6.554688 4.222656 6.441406 4.324219 C 6.269531 4.304688 6.214844 4.347656 6.171875 4.402344 C 6.136719 4.402344 5.890625 4.363281 5.777344 4.53125 C 5.496094 4.496094 5.40625 4.695312 5.507812 4.882812 C 5.453125 4.96875 5.390625 5.058594 5.527344 5.226562 C 5.480469 5.320312 5.507812 5.425781 5.621094 5.546875 C 5.589844 5.683594 5.648438 5.773438 5.753906 5.847656 C 5.734375 6.027344 5.921875 6.136719 5.976562 6.171875 C 5.996094 6.277344 6.039062 6.378906 6.253906 6.433594 C 6.289062 6.59375 6.414062 6.617188 6.539062 6.652344 C 6.132812 6.890625 5.78125 7.203125 5.78125 7.96875 L 5.722656 8.078125 C 5.253906 8.363281 4.832031 9.277344 5.492188 10.023438 C 5.535156 10.257812 5.605469 10.421875 5.671875 10.609375 C 5.769531 11.355469 6.394531 11.703125 6.5625 11.746094 C 6.804688 11.929688 7.0625 12.105469 7.410156 12.230469 C 7.742188 12.570312 8.101562 12.699219 8.460938 12.699219 L 8.472656 12.699219 C 8.835938 12.699219 9.191406 12.570312 9.519531 12.230469 C 9.871094 12.105469 10.128906 11.929688 10.371094 11.746094 C 10.535156 11.707031 11.164062 11.355469 11.261719 10.609375 C 11.324219 10.421875 11.398438 10.257812 11.441406 10.023438 C 12.101562 9.277344 11.679688 8.363281 11.210938 8.078125 L 11.148438 7.96875 C 11.152344 7.203125 10.800781 6.890625 10.394531 6.652344 C 10.515625 6.617188 10.644531 6.59375 10.679688 6.433594 C 10.890625 6.378906 10.9375 6.277344 10.957031 6.171875 C 11.015625 6.136719 11.199219 6.027344 11.179688 5.847656 C 11.285156 5.773438 11.34375 5.679688 11.3125 5.546875 C 11.425781 5.425781 11.453125 5.320312 11.40625 5.226562 C 11.539062 5.058594 11.480469 4.96875 11.425781 4.882812 C 11.523438 4.695312 11.4375 4.496094 11.152344 4.53125 C 11.042969 4.363281 10.796875 4.402344 10.761719 4.402344 C 10.71875 4.347656 10.664062 4.300781 10.492188 4.324219 C 10.382812 4.226562 10.257812 4.242188 10.128906 4.289062 C 9.976562 4.171875 9.875 4.265625 9.761719 4.304688 C 9.574219 4.242188 9.535156 4.324219 9.441406 4.359375 C 9.242188 4.316406 9.183594 4.410156 9.085938 4.507812 L 8.972656 4.503906 C 8.671875 4.683594 8.519531 5.046875 8.46875 5.234375 C 8.414062 5.046875 8.261719 4.683594 7.960938 4.503906 L 7.847656 4.507812 C 7.75 4.410156 7.691406 4.316406 7.488281 4.359375 C 7.398438 4.324219 7.355469 4.242188 7.171875 4.304688 C 7.097656 4.28125 7.027344 4.230469 6.945312 4.234375 Z M 8.464844 6.609375 C 8.855469 6.605469 9.34375 6.902344 9.34375 7.183594 C 9.339844 7.433594 9 7.632812 8.46875 7.628906 C 7.945312 7.621094 7.59375 7.378906 7.59375 7.136719 C 7.59375 6.9375 8.019531 6.597656 8.464844 6.609375 Z M 7.121094 6.777344 C 7.210938 6.777344 7.304688 6.785156 7.394531 6.800781 C 7.667969 6.84375 6.082031 8.230469 6.058594 7.921875 C 6.035156 7.214844 6.507812 6.789062 7.125 6.777344 Z M 9.722656 6.800781 C 10.335938 6.8125 10.808594 7.238281 10.785156 7.945312 C 10.761719 8.253906 9.175781 6.867188 9.449219 6.820312 C 9.542969 6.804688 9.632812 6.800781 9.722656 6.800781 Z M 9.460938 7.660156 C 9.867188 7.675781 10.257812 7.980469 10.414062 8.40625 C 10.570312 8.832031 10.453125 9.269531 10.128906 9.484375 C 9.871094 9.664062 9.519531 9.664062 9.210938 9.484375 C 8.902344 9.304688 8.6875 8.976562 8.644531 8.621094 C 8.601562 8.269531 8.738281 7.949219 9.007812 7.785156 C 9.136719 7.699219 9.292969 7.65625 9.460938 7.660156 Z M 7.515625 7.710938 C 7.664062 7.710938 7.808594 7.753906 7.929688 7.832031 C 8.328125 8.09375 8.398438 8.683594 8.089844 9.15625 C 7.777344 9.625 7.203125 9.792969 6.804688 9.53125 C 6.480469 9.316406 6.363281 8.875 6.523438 8.453125 C 6.679688 8.027344 7.070312 7.722656 7.476562 7.710938 C 7.488281 7.707031 7.5 7.707031 7.515625 7.710938 Z M 10.914062 8.234375 C 11.628906 8.644531 11.503906 9.550781 11.117188 9.859375 C 10.769531 10.015625 10.480469 8.117188 10.914062 8.234375 Z M 5.933594 8.257812 C 6.363281 8.144531 6.082031 10.039062 5.730469 9.886719 C 5.34375 9.574219 5.222656 8.667969 5.933594 8.257812 Z M 8.511719 9.476562 C 9.035156 9.488281 9.453125 9.886719 9.449219 10.367188 C 9.449219 10.859375 9.019531 11.257812 8.488281 11.257812 C 7.957031 11.257812 7.523438 10.859375 7.523438 10.367188 C 7.523438 10.128906 7.625 9.898438 7.8125 9.730469 C 7.996094 9.5625 8.25 9.46875 8.511719 9.476562 Z M 10.613281 9.8125 C 10.691406 9.808594 10.765625 9.832031 10.824219 9.878906 C 10.992188 10.050781 11.09375 10.691406 10.796875 11.074219 C 10.382812 11.648438 9.824219 11.667969 9.617188 11.511719 C 9.398438 11.304688 9.566406 10.667969 9.863281 10.320312 C 10.121094 10.03125 10.390625 9.816406 10.613281 9.808594 Z M 6.292969 9.945312 C 6.535156 9.957031 6.824219 10.148438 7.0625 10.425781 C 7.335938 10.757812 7.464844 11.339844 7.234375 11.511719 C 7.015625 11.640625 6.488281 11.589844 6.113281 11.050781 C 5.859375 10.597656 5.894531 10.136719 6.070312 10 C 6.136719 9.960938 6.214844 9.941406 6.292969 9.945312 Z M 8.492188 11.535156 C 8.878906 11.519531 9.394531 11.660156 9.398438 11.847656 C 9.402344 12.03125 8.925781 12.441406 8.464844 12.433594 C 7.988281 12.453125 7.519531 12.042969 7.523438 11.898438 C 7.515625 11.691406 8.105469 11.527344 8.492188 11.535156 Z M 8.492188 11.535156 "/>
<path fill-rule="nonzero" fill="rgb(45.882353%, 66.27451%, 15.686275%)" fill-opacity="1" d="M 6.957031 4.445312 C 7 4.496094 7.058594 4.550781 6.996094 4.609375 C 6.882812 4.53125 6.753906 4.480469 6.617188 4.460938 C 6.664062 4.511719 6.761719 4.566406 6.703125 4.617188 C 6.585938 4.574219 6.464844 4.542969 6.34375 4.527344 C 6.40625 4.578125 6.460938 4.632812 6.40625 4.671875 C 6.292969 4.636719 6.132812 4.589844 5.976562 4.628906 L 6.074219 4.730469 C 6.085938 4.742188 5.847656 4.738281 5.6875 4.742188 C 5.742188 4.824219 5.804688 4.902344 5.839844 5.046875 C 5.824219 5.0625 5.742188 5.050781 5.671875 5.046875 C 5.746094 5.207031 5.878906 5.25 5.910156 5.316406 C 5.863281 5.355469 5.796875 5.34375 5.726562 5.320312 C 5.78125 5.4375 5.898438 5.515625 5.988281 5.609375 C 5.964844 5.625 5.925781 5.632812 5.828125 5.621094 C 5.914062 5.714844 6.015625 5.796875 6.136719 5.871094 C 6.113281 5.894531 6.039062 5.894531 5.972656 5.894531 C 6.082031 6.003906 6.222656 6.0625 6.351562 6.132812 C 6.289062 6.175781 6.242188 6.164062 6.191406 6.164062 C 6.285156 6.242188 6.441406 6.285156 6.589844 6.332031 C 6.5625 6.375 6.53125 6.386719 6.472656 6.398438 C 6.628906 6.484375 6.851562 6.445312 6.914062 6.492188 C 6.898438 6.535156 6.855469 6.5625 6.804688 6.585938 C 7.054688 6.601562 7.738281 6.578125 7.871094 6.050781 C 7.613281 5.765625 7.148438 5.433594 6.34375 5.019531 C 6.96875 5.230469 7.53125 5.515625 8.003906 5.902344 C 8.558594 5.640625 8.179688 4.980469 7.90625 4.714844 C 7.894531 4.785156 7.878906 4.828125 7.859375 4.84375 C 7.769531 4.746094 7.699219 4.648438 7.585938 4.554688 C 7.585938 4.609375 7.613281 4.667969 7.546875 4.710938 C 7.476562 4.621094 7.390625 4.546875 7.292969 4.492188 C 7.34375 4.582031 7.300781 4.609375 7.273438 4.648438 C 7.191406 4.578125 7.109375 4.503906 6.957031 4.445312 Z M 9.992188 4.445312 C 9.839844 4.503906 9.761719 4.574219 9.679688 4.648438 C 9.648438 4.609375 9.605469 4.582031 9.65625 4.492188 C 9.558594 4.546875 9.472656 4.621094 9.40625 4.710938 C 9.339844 4.667969 9.367188 4.609375 9.367188 4.554688 C 9.253906 4.648438 9.179688 4.746094 9.09375 4.839844 C 9.074219 4.828125 9.058594 4.785156 9.042969 4.714844 C 8.773438 4.976562 8.390625 5.640625 8.945312 5.902344 C 9.417969 5.511719 9.984375 5.230469 10.609375 5.015625 C 9.804688 5.429688 9.339844 5.765625 9.082031 6.050781 C 9.210938 6.578125 9.894531 6.601562 10.144531 6.585938 C 10.09375 6.5625 10.050781 6.535156 10.035156 6.488281 C 10.101562 6.445312 10.324219 6.484375 10.476562 6.398438 C 10.417969 6.386719 10.390625 6.375 10.363281 6.328125 C 10.507812 6.28125 10.667969 6.242188 10.761719 6.164062 C 10.710938 6.164062 10.664062 6.175781 10.597656 6.132812 C 10.730469 6.0625 10.867188 6.003906 10.976562 5.894531 C 10.910156 5.894531 10.835938 5.894531 10.816406 5.871094 C 10.9375 5.796875 11.035156 5.710938 11.121094 5.621094 C 11.027344 5.632812 10.984375 5.621094 10.964844 5.605469 C 11.054688 5.515625 11.167969 5.433594 11.222656 5.320312 C 11.152344 5.34375 11.089844 5.355469 11.042969 5.316406 C 11.074219 5.246094 11.203125 5.207031 11.28125 5.042969 C 11.207031 5.050781 11.128906 5.058594 11.113281 5.042969 C 11.148438 4.902344 11.207031 4.824219 11.265625 4.742188 C 11.105469 4.738281 10.863281 4.742188 10.875 4.730469 L 10.972656 4.628906 C 10.816406 4.585938 10.660156 4.636719 10.542969 4.671875 C 10.492188 4.632812 10.542969 4.578125 10.609375 4.527344 C 10.484375 4.542969 10.363281 4.570312 10.246094 4.617188 C 10.191406 4.5625 10.285156 4.511719 10.332031 4.460938 C 10.199219 4.480469 10.070312 4.53125 9.957031 4.605469 C 9.894531 4.546875 9.953125 4.496094 9.992188 4.445312 Z M 9.992188 4.445312 "/>
</svg>
