<?xml version="1.0" encoding="UTF-8"?>
<svg xmlns="http://www.w3.org/2000/svg" xmlns:xlink="http://www.w3.org/1999/xlink" width="64" height="64" viewBox="0 0 64 64">
<defs>
<filter id="filter-remove-color" x="0%" y="0%" width="100%" height="100%">
<feColorMatrix color-interpolation-filters="sRGB" values="0 0 0 0 1 0 0 0 0 1 0 0 0 0 1 0 0 0 1 0" />
</filter>
<mask id="mask-0">
<g filter="url(#filter-remove-color)">
<rect x="-6.4" y="-6.4" width="76.8" height="76.8" fill="rgb(0%, 0%, 0%)" fill-opacity="0.15"/>
</g>
</mask>
<clipPath id="clip-0">
<rect x="0" y="0" width="17" height="17"/>
</clipPath>
<g id="source-4527" clip-path="url(#clip-0)">
<path fill-rule="nonzero" fill="rgb(100%, 100%, 100%)" fill-opacity="1" d="M 14.289062 8.460938 C 14.289062 5.246094 11.683594 2.636719 8.46875 2.636719 C 5.253906 2.636719 2.644531 5.246094 2.644531 8.460938 C 2.644531 11.675781 5.253906 14.28125 8.46875 14.28125 C 11.683594 14.28125 14.289062 11.675781 14.289062 8.460938 Z M 14.289062 8.460938 "/>
</g>
</defs>
<path fill-rule="nonzero" fill="rgb(21.176471%, 50.196078%, 69.803922%)" fill-opacity="1" d="M 15.609375 8.464844 C 15.609375 4.519531 12.410156 1.324219 8.464844 1.324219 C 4.519531 1.324219 1.324219 4.519531 1.324219 8.464844 C 1.324219 12.410156 4.519531 15.609375 8.464844 15.609375 C 12.410156 15.609375 15.609375 12.410156 15.609375 8.464844 Z M 15.609375 8.464844 "/>
<g mask="url(#mask-0)">
<use xlink:href="#source-4527"/>
</g>
<path fill-rule="nonzero" fill="rgb(97.647059%, 97.647059%, 97.647059%)" fill-opacity="1" d="M 7.195312 5.519531 C 7.527344 5.4375 7.824219 5.398438 8.15625 5.398438 C 9.175781 5.398438 9.746094 5.875 9.746094 6.714844 C 9.746094 7.625 9.03125 8.199219 7.894531 8.199219 C 7.824219 8.199219 7.734375 8.199219 7.609375 8.191406 L 7.550781 8.308594 C 8.457031 9.507812 9.410156 10.703125 10.320312 11.902344 C 10.78125 11.871094 10.828125 11.871094 10.933594 11.871094 C 11.023438 11.871094 11.023438 11.871094 11.640625 11.902344 L 11.640625 11.636719 C 11.328125 11.605469 11.171875 11.515625 11.042969 11.347656 L 8.816406 8.417969 C 9.363281 8.28125 9.617188 8.171875 9.945312 7.945312 C 10.453125 7.578125 10.730469 7.082031 10.730469 6.507812 C 10.730469 5.558594 10.042969 5.023438 8.824219 5.023438 C 7.550781 5.023438 7.390625 5.054688 7.058594 5.054688 C 6.734375 5.054688 6.664062 5.054688 5.289062 5.023438 L 5.289062 5.289062 C 5.425781 5.296875 5.699219 5.339844 5.835938 5.351562 C 6.285156 5.378906 6.347656 5.46875 6.347656 6.242188 L 6.347656 10.683594 C 6.347656 11.46875 6.214844 11.59375 5.761719 11.625 L 5.292969 11.652344 L 5.292969 11.902344 C 6.261719 11.867188 7.230469 11.867188 8.203125 11.902344 C 8.203125 11.804688 8.167969 11.753906 8.167969 11.652344 C 8.011719 11.644531 7.851562 11.632812 7.695312 11.621094 C 7.246094 11.59375 7.144531 11.46875 7.144531 10.683594 C 7.144531 8.964844 7.195312 7.242188 7.195312 5.519531 "/>
</svg>
