<?xml version="1.0" encoding="UTF-8"?>
<svg xmlns="http://www.w3.org/2000/svg" xmlns:xlink="http://www.w3.org/1999/xlink" width="64" height="64" viewBox="0 0 64 64">
<path fill-rule="nonzero" fill="rgb(55.686275%, 1.568627%, 1.568627%)" fill-opacity="1" d="M 32 5 C 46.910156 5 59 17.089844 59 32 C 59 46.910156 46.910156 59 32 59 C 17.089844 59 5 46.910156 5 32 C 5 17.089844 17.089844 5 32 5 Z M 32 5 "/>
<path fill-rule="nonzero" fill="rgb(100%, 100%, 100%)" fill-opacity="1" d="M 26.066406 5.65625 C 25.21875 5.84375 24.382812 6.074219 23.566406 6.339844 L 26.710938 18.082031 C 27 19.15625 27.164062 19.746094 25.90625 21.242188 C 25.691406 21.5 25.484375 21.753906 25.316406 22.039062 C 24.65625 23.191406 24.429688 24.59375 24.796875 25.976562 C 25.539062 28.742188 28.386719 30.382812 31.152344 29.640625 C 33.917969 28.902344 35.5625 26.058594 34.820312 23.292969 C 34.449219 21.910156 33.550781 20.804688 32.402344 20.140625 C 32.113281 19.976562 31.804688 19.863281 31.492188 19.746094 C 29.65625 19.078125 29.503906 18.484375 29.214844 17.410156 Z M 57.757812 23.855469 L 45.886719 27.039062 C 44.8125 27.328125 44.226562 27.492188 42.726562 26.234375 C 42.472656 26.019531 42.214844 25.808594 41.929688 25.644531 C 40.78125 24.980469 39.378906 24.757812 37.996094 25.125 C 35.230469 25.867188 33.585938 28.710938 34.328125 31.476562 C 35.070312 34.242188 37.914062 35.886719 40.679688 35.144531 C 42.0625 34.773438 43.160156 33.878906 43.824219 32.726562 C 43.992188 32.441406 44.109375 32.132812 44.222656 31.820312 C 44.894531 29.980469 45.484375 29.832031 46.558594 29.542969 L 58.410156 26.367188 C 58.234375 25.515625 58.015625 24.675781 57.757812 23.855469 Z M 24.003906 28.984375 C 23.660156 29.003906 23.3125 29.058594 22.964844 29.152344 C 21.582031 29.523438 20.480469 30.417969 19.816406 31.566406 C 19.652344 31.855469 19.535156 32.167969 19.421875 32.476562 C 18.75 34.316406 18.160156 34.464844 17.085938 34.753906 L 5.632812 37.824219 C 5.816406 38.675781 6.039062 39.511719 6.304688 40.328125 L 17.757812 37.257812 C 18.832031 36.972656 19.417969 36.808594 20.917969 38.0625 C 21.171875 38.277344 21.425781 38.488281 21.714844 38.652344 C 22.863281 39.316406 24.265625 39.539062 25.648438 39.167969 C 28.417969 38.429688 30.058594 35.585938 29.316406 32.820312 C 28.667969 30.398438 26.414062 28.839844 24.003906 28.984375 Z M 33.53125 34.480469 C 33.1875 34.503906 32.835938 34.558594 32.492188 34.652344 C 29.722656 35.394531 28.082031 38.238281 28.824219 41.003906 C 29.195312 42.386719 30.09375 43.488281 31.242188 44.152344 C 31.53125 44.316406 31.835938 44.433594 32.148438 44.546875 C 33.988281 45.21875 34.140625 45.8125 34.429688 46.886719 L 37.523438 58.4375 C 38.378906 58.261719 39.214844 58.046875 40.035156 57.792969 L 36.933594 46.214844 C 36.648438 45.140625 36.480469 44.550781 37.738281 43.054688 C 37.953125 42.796875 38.160156 42.542969 38.328125 42.257812 C 38.992188 41.105469 39.214844 39.703125 38.84375 38.320312 C 38.195312 35.898438 35.9375 34.339844 33.53125 34.484375 Z M 33.53125 34.480469 "/>
</svg>
