<?xml version="1.0" encoding="UTF-8"?>
<svg xmlns="http://www.w3.org/2000/svg" xmlns:xlink="http://www.w3.org/1999/xlink" width="64" height="64" viewBox="0 0 64 64">
<defs>
<filter id="filter-remove-color" x="0%" y="0%" width="100%" height="100%">
<feColorMatrix color-interpolation-filters="sRGB" values="0 0 0 0 1 0 0 0 0 1 0 0 0 0 1 0 0 0 1 0" />
</filter>
<mask id="mask-0">
<g filter="url(#filter-remove-color)">
<rect x="-6.4" y="-6.4" width="76.8" height="76.8" fill="rgb(0%, 0%, 0%)" fill-opacity="0.35"/>
</g>
</mask>
<clipPath id="clip-0">
<rect x="0" y="0" width="17" height="17"/>
</clipPath>
<g id="source-627" clip-path="url(#clip-0)">
<path fill-rule="nonzero" fill="rgb(100%, 100%, 100%)" fill-opacity="1" d="M 3.703125 11.90625 L 13.230469 11.90625 C 13.375 11.90625 13.492188 12.023438 13.492188 12.171875 L 13.492188 12.964844 C 13.492188 13.109375 13.375 13.230469 13.230469 13.230469 L 3.703125 13.230469 C 3.558594 13.230469 3.441406 13.109375 3.441406 12.964844 L 3.441406 12.171875 C 3.441406 12.023438 3.558594 11.90625 3.703125 11.90625 Z M 3.703125 11.90625 "/>
</g>
<mask id="mask-1">
<g filter="url(#filter-remove-color)">
<rect x="-6.4" y="-6.4" width="76.8" height="76.8" fill="rgb(0%, 0%, 0%)" fill-opacity="0.35"/>
</g>
</mask>
<clipPath id="clip-1">
<rect x="0" y="0" width="17" height="17"/>
</clipPath>
<g id="source-635" clip-path="url(#clip-1)">
<path fill-rule="nonzero" fill="rgb(0%, 0%, 0%)" fill-opacity="1" d="M 8.464844 1.324219 C 7.089844 1.324219 5.804688 1.710938 4.714844 2.382812 L 12.21875 2.382812 C 11.128906 1.710938 9.84375 1.324219 8.464844 1.324219 Z M 8.464844 1.324219 "/>
</g>
<mask id="mask-2">
<g filter="url(#filter-remove-color)">
<rect x="-6.4" y="-6.4" width="76.8" height="76.8" fill="rgb(0%, 0%, 0%)" fill-opacity="0.35"/>
</g>
</mask>
<clipPath id="clip-2">
<rect x="0" y="0" width="17" height="17"/>
</clipPath>
<g id="source-639" clip-path="url(#clip-2)">
<path fill-rule="nonzero" fill="rgb(0%, 0%, 0%)" fill-opacity="1" d="M 7.410156 1.578125 L 9.523438 1.578125 C 9.671875 1.578125 9.789062 1.699219 9.789062 1.84375 C 9.789062 1.992188 9.671875 2.109375 9.523438 2.109375 L 7.410156 2.109375 C 7.261719 2.109375 7.144531 1.992188 7.144531 1.84375 C 7.144531 1.699219 7.261719 1.578125 7.410156 1.578125 Z M 7.410156 1.578125 "/>
</g>
</defs>
<path fill-rule="nonzero" fill="rgb(63.529412%, 63.137255%, 100%)" fill-opacity="1" d="M 8.464844 1.320312 C 12.410156 1.320312 15.609375 4.519531 15.609375 8.464844 C 15.609375 12.410156 12.410156 15.605469 8.464844 15.605469 C 4.519531 15.605469 1.324219 12.410156 1.324219 8.464844 C 1.324219 4.519531 4.519531 1.320312 8.464844 1.320312 Z M 8.464844 1.320312 "/>
<g mask="url(#mask-0)">
<use xlink:href="#source-627"/>
</g>
<path fill-rule="nonzero" fill="rgb(93.333333%, 92.941176%, 100%)" fill-opacity="1" d="M 4.628906 11.109375 L 5.6875 11.109375 C 5.761719 11.109375 5.820312 11.167969 5.820312 11.242188 L 5.820312 12.300781 C 5.820312 12.375 5.761719 12.433594 5.6875 12.433594 L 4.628906 12.433594 C 4.558594 12.433594 4.496094 12.375 4.496094 12.300781 L 4.496094 11.242188 C 4.496094 11.167969 4.558594 11.109375 4.628906 11.109375 Z M 4.628906 11.109375 "/>
<path fill-rule="nonzero" fill="rgb(93.333333%, 92.941176%, 100%)" fill-opacity="1" d="M 6.835938 11.109375 L 7.894531 11.109375 C 7.96875 11.109375 8.027344 11.167969 8.027344 11.242188 L 8.027344 12.300781 C 8.027344 12.375 7.96875 12.433594 7.894531 12.433594 L 6.835938 12.433594 C 6.761719 12.433594 6.703125 12.375 6.703125 12.300781 L 6.703125 11.242188 C 6.703125 11.167969 6.761719 11.109375 6.835938 11.109375 Z M 6.835938 11.109375 "/>
<path fill-rule="nonzero" fill="rgb(93.333333%, 92.941176%, 100%)" fill-opacity="1" d="M 9.039062 11.109375 L 10.097656 11.109375 C 10.171875 11.109375 10.230469 11.167969 10.230469 11.242188 L 10.230469 12.300781 C 10.230469 12.375 10.171875 12.433594 10.097656 12.433594 L 9.039062 12.433594 C 8.96875 12.433594 8.90625 12.375 8.90625 12.300781 L 8.90625 11.242188 C 8.90625 11.167969 8.96875 11.109375 9.039062 11.109375 Z M 9.039062 11.109375 "/>
<path fill-rule="nonzero" fill="rgb(93.333333%, 92.941176%, 100%)" fill-opacity="1" d="M 11.246094 11.109375 L 12.304688 11.109375 C 12.375 11.109375 12.4375 11.167969 12.4375 11.242188 L 12.4375 12.300781 C 12.4375 12.375 12.375 12.433594 12.304688 12.433594 L 11.246094 12.433594 C 11.171875 12.433594 11.113281 12.375 11.113281 12.300781 L 11.113281 11.242188 C 11.113281 11.167969 11.171875 11.109375 11.246094 11.109375 Z M 11.246094 11.109375 "/>
<g mask="url(#mask-1)">
<use xlink:href="#source-635"/>
</g>
<g mask="url(#mask-2)">
<use xlink:href="#source-639"/>
</g>
<path fill-rule="nonzero" fill="rgb(100%, 100%, 100%)" fill-opacity="1" d="M 12.171875 5.820312 L 10.582031 6.878906 C 10.53125 7.222656 10.464844 7.5625 10.582031 7.9375 L 12.171875 8.996094 Z M 12.171875 5.820312 "/>
<path fill-rule="nonzero" fill="rgb(100%, 100%, 100%)" fill-opacity="1" d="M 5.554688 5.292969 C 5.410156 5.292969 5.292969 5.410156 5.292969 5.554688 L 5.292969 9.257812 C 5.292969 9.40625 5.410156 9.523438 5.554688 9.523438 L 10.320312 9.523438 C 10.390625 9.523438 10.457031 9.496094 10.507812 9.445312 C 10.554688 9.398438 10.582031 9.328125 10.582031 9.257812 L 10.582031 5.554688 C 10.582031 5.410156 10.464844 5.292969 10.320312 5.292969 Z M 7.9375 6.085938 C 8.667969 6.085938 9.261719 6.675781 9.261719 7.40625 C 9.261719 8.136719 8.667969 8.730469 7.9375 8.730469 C 7.207031 8.730469 6.613281 8.136719 6.613281 7.40625 C 6.613281 6.675781 7.207031 6.085938 7.9375 6.085938 Z M 7.9375 6.085938 "/>
</svg>
