<?xml version="1.0" encoding="UTF-8"?>
<svg xmlns="http://www.w3.org/2000/svg" xmlns:xlink="http://www.w3.org/1999/xlink" width="64" height="64" viewBox="0 0 64 64">
<defs>
<filter id="filter-remove-color" x="0%" y="0%" width="100%" height="100%">
<feColorMatrix color-interpolation-filters="sRGB" values="0 0 0 0 1 0 0 0 0 1 0 0 0 0 1 0 0 0 1 0" />
</filter>
<mask id="mask-0">
<g filter="url(#filter-remove-color)">
<rect x="-6.4" y="-6.4" width="76.8" height="76.8" fill="rgb(0%, 0%, 0%)" fill-opacity="0.15"/>
</g>
</mask>
<linearGradient id="linear-pattern-0" gradientUnits="userSpaceOnUse" x1="32" y1="13" x2="32" y2="9" gradientTransform="matrix(0.26458, 0, 0, 0.26458, 0, 0)">
<stop offset="0" stop-color="rgb(0%, 0%, 0%)" stop-opacity="1"/>
<stop offset="1" stop-color="rgb(0%, 0%, 0%)" stop-opacity="0"/>
</linearGradient>
<clipPath id="clip-0">
<rect x="0" y="0" width="17" height="17"/>
</clipPath>
<g id="source-4709" clip-path="url(#clip-0)">
<path fill-rule="nonzero" fill="url(#linear-pattern-0)" d="M 8.464844 1.851562 C 7.042969 1.855469 5.660156 2.320312 4.523438 3.175781 L 12.417969 3.175781 C 11.277344 2.320312 9.890625 1.855469 8.464844 1.851562 Z M 8.464844 1.851562 "/>
</g>
<mask id="mask-1">
<g filter="url(#filter-remove-color)">
<rect x="-6.4" y="-6.4" width="76.8" height="76.8" fill="rgb(0%, 0%, 0%)" fill-opacity="0.25"/>
</g>
</mask>
<clipPath id="clip-1">
<rect x="0" y="0" width="17" height="17"/>
</clipPath>
<g id="source-4714" clip-path="url(#clip-1)">
<path fill-rule="nonzero" fill="rgb(0%, 0%, 0%)" fill-opacity="1" d="M 9.523438 4.761719 L 12.964844 4.761719 C 13.109375 4.761719 13.230469 4.878906 13.230469 5.027344 C 13.230469 5.171875 13.109375 5.289062 12.964844 5.289062 L 9.523438 5.289062 C 9.378906 5.289062 9.261719 5.171875 9.261719 5.027344 C 9.261719 4.878906 9.378906 4.761719 9.523438 4.761719 Z M 9.523438 4.761719 "/>
</g>
<mask id="mask-2">
<g filter="url(#filter-remove-color)">
<rect x="-6.4" y="-6.4" width="76.8" height="76.8" fill="rgb(0%, 0%, 0%)" fill-opacity="0.15"/>
</g>
</mask>
<linearGradient id="linear-pattern-1" gradientUnits="userSpaceOnUse" x1="30" y1="44" x2="57" y2="44" gradientTransform="matrix(0.26458, 0, 0, 0.26458, 0, 0)">
<stop offset="0" stop-color="rgb(0%, 0%, 0%)" stop-opacity="1"/>
<stop offset="1" stop-color="rgb(0%, 0%, 0%)" stop-opacity="0"/>
</linearGradient>
<clipPath id="clip-2">
<rect x="0" y="0" width="17" height="17"/>
</clipPath>
<g id="source-4718" clip-path="url(#clip-2)">
<path fill-rule="nonzero" fill="url(#linear-pattern-1)" d="M 15.609375 8.464844 L 8.464844 15.609375 C 12.410156 15.609375 15.609375 12.410156 15.609375 8.464844 Z M 15.609375 8.464844 "/>
</g>
<mask id="mask-3">
<g filter="url(#filter-remove-color)">
<rect x="-6.4" y="-6.4" width="76.8" height="76.8" fill="rgb(0%, 0%, 0%)" fill-opacity="0.15"/>
</g>
</mask>
<clipPath id="clip-3">
<rect x="0" y="0" width="17" height="17"/>
</clipPath>
<g id="source-4722" clip-path="url(#clip-3)">
<path fill-rule="nonzero" fill="rgb(0%, 0%, 0%)" fill-opacity="1" d="M 6.351562 6.351562 L 6.351562 7.40625 C 8.6875 7.40625 10.582031 9.304688 10.582031 11.640625 L 11.640625 11.640625 C 11.640625 8.71875 9.273438 6.351562 6.351562 6.351562 M 6.351562 8.464844 L 6.351562 9.523438 C 7.519531 9.523438 8.464844 10.472656 8.464844 11.640625 L 9.523438 11.640625 C 9.523438 9.886719 8.101562 8.464844 6.351562 8.464844 M 6.351562 10.582031 C 5.765625 10.582031 5.292969 11.058594 5.292969 11.640625 C 5.292969 12.226562 5.765625 12.699219 6.351562 12.699219 C 6.933594 12.699219 7.40625 12.226562 7.40625 11.640625 C 7.40625 11.058594 6.933594 10.582031 6.351562 10.582031 "/>
</g>
</defs>
<path fill-rule="nonzero" fill="rgb(20.784314%, 47.058824%, 78.039216%)" fill-opacity="1" d="M 15.082031 8.464844 C 15.082031 12.121094 12.121094 15.082031 8.464844 15.082031 C 4.8125 15.082031 1.851562 12.121094 1.851562 8.464844 C 1.851562 4.8125 4.8125 1.851562 8.464844 1.851562 C 12.121094 1.851562 15.082031 4.8125 15.082031 8.464844 Z M 15.082031 8.464844 "/>
<path fill-rule="nonzero" fill="rgb(100%, 100%, 100%)" fill-opacity="1" d="M 5.132812 3.703125 C 3.578125 4.792969 2.648438 6.570312 2.644531 8.464844 C 2.644531 11.679688 5.25 14.289062 8.464844 14.289062 C 11.679688 14.289062 14.289062 11.679688 14.289062 8.464844 C 14.285156 6.570312 13.359375 4.792969 11.808594 3.703125 Z M 5.132812 3.703125 "/>
<g mask="url(#mask-0)">
<use xlink:href="#source-4709"/>
</g>
<path fill-rule="nonzero" fill="rgb(32.156863%, 58.039216%, 88.627451%)" fill-opacity="1" d="M 8.464844 4.234375 C 8.175781 4.234375 8.085938 4.507812 7.9375 4.761719 L 7.628906 5.289062 L 2.078125 5.292969 C 1.582031 6.277344 1.324219 7.363281 1.324219 8.464844 C 1.324219 12.410156 4.519531 15.609375 8.464844 15.609375 C 12.410156 15.609375 15.609375 12.410156 15.609375 8.464844 C 15.605469 6.941406 15.117188 5.457031 14.210938 4.234375 Z M 8.464844 4.234375 "/>
<g mask="url(#mask-1)">
<use xlink:href="#source-4714"/>
</g>
<g mask="url(#mask-2)">
<use xlink:href="#source-4718"/>
</g>
<g mask="url(#mask-3)">
<use xlink:href="#source-4722"/>
</g>
<path fill-rule="nonzero" fill="rgb(30.196078%, 30.196078%, 30.196078%)" fill-opacity="1" d="M 15.875 12.433594 C 15.875 14.335938 14.335938 15.875 12.433594 15.875 C 10.535156 15.875 8.996094 14.335938 8.996094 12.433594 C 8.996094 10.535156 10.535156 8.996094 12.433594 8.996094 C 14.335938 8.996094 15.875 10.535156 15.875 12.433594 Z M 15.875 12.433594 "/>
<path fill-rule="nonzero" fill="rgb(100%, 100%, 100%)" fill-opacity="1" d="M 12.433594 10.449219 C 11.703125 10.449219 11.113281 11.042969 11.113281 11.773438 L 10.890625 11.773438 C 10.722656 11.773438 10.582031 11.910156 10.582031 12.082031 L 10.582031 14.109375 C 10.582031 14.28125 10.722656 14.417969 10.890625 14.417969 L 13.980469 14.417969 C 14.148438 14.417969 14.289062 14.28125 14.289062 14.109375 L 14.289062 12.082031 C 14.289062 11.910156 14.148438 11.773438 13.980469 11.773438 L 13.757812 11.773438 C 13.757812 11.042969 13.164062 10.449219 12.433594 10.449219 Z M 12.433594 10.714844 C 12.945312 10.714844 13.359375 11.128906 13.359375 11.640625 C 13.359375 11.6875 13.355469 11.730469 13.351562 11.773438 L 11.519531 11.773438 C 11.511719 11.730469 11.507812 11.6875 11.507812 11.640625 C 11.507812 11.128906 11.921875 10.714844 12.433594 10.714844 Z M 12.433594 10.714844 "/>
<path fill-rule="nonzero" fill="rgb(50.196078%, 50.196078%, 50.196078%)" fill-opacity="1" d="M 13.492188 13.097656 C 13.492188 13.679688 13.019531 14.15625 12.433594 14.15625 C 11.851562 14.15625 11.375 13.679688 11.375 13.097656 C 11.375 12.511719 11.851562 12.039062 12.433594 12.039062 C 13.019531 12.039062 13.492188 12.511719 13.492188 13.097656 Z M 13.492188 13.097656 "/>
<path fill-rule="nonzero" fill="rgb(10.196078%, 10.196078%, 10.196078%)" fill-opacity="1" d="M 12.171875 13.097656 L 12.699219 13.097656 L 12.699219 13.890625 L 12.171875 13.890625 Z M 12.171875 13.097656 "/>
<path fill-rule="nonzero" fill="rgb(10.196078%, 10.196078%, 10.196078%)" fill-opacity="1" d="M 12.964844 12.832031 C 12.964844 13.125 12.726562 13.359375 12.433594 13.359375 C 12.144531 13.359375 11.90625 13.125 11.90625 12.832031 C 11.90625 12.539062 12.144531 12.304688 12.433594 12.304688 C 12.726562 12.304688 12.964844 12.539062 12.964844 12.832031 Z M 12.964844 12.832031 "/>
</svg>
