<?xml version="1.0" encoding="UTF-8"?>
<svg xmlns="http://www.w3.org/2000/svg" xmlns:xlink="http://www.w3.org/1999/xlink" width="64" height="64" viewBox="0 0 64 64">
<path fill-rule="nonzero" fill="rgb(44.705882%, 47.058824%, 49.411765%)" fill-opacity="1" d="M 32 5 C 46.910156 5 59 17.089844 59 32 C 59 46.910156 46.910156 59 32 59 C 17.089844 59 5 46.910156 5 32 C 5 17.089844 17.089844 5 32 5 Z M 32 5 "/>
<path fill-rule="nonzero" fill="rgb(100%, 100%, 100%)" fill-opacity="1" d="M 23 36 L 36.996094 36 C 37.550781 36 38 36.449219 38 37 C 38 37.550781 37.550781 38 36.996094 38 L 23 38 C 22.449219 38 22 37.550781 22 37 C 22 36.449219 22.449219 36 23 36 Z M 23 36 "/>
<path fill-rule="nonzero" fill="rgb(100%, 100%, 100%)" fill-opacity="1" d="M 17.015625 17.859375 C 16.613281 17.808594 16.226562 18 16.023438 18.347656 C 15.890625 18.578125 15.851562 18.851562 15.921875 19.109375 C 15.992188 19.367188 16.160156 19.585938 16.390625 19.71875 L 27.132812 25.917969 L 16.390625 32.117188 C 16.160156 32.25 15.992188 32.46875 15.921875 32.726562 C 15.851562 32.984375 15.890625 33.257812 16.023438 33.488281 C 16.304688 33.964844 16.910156 34.128906 17.390625 33.851562 L 29.511719 26.851562 C 29.8125 26.675781 29.996094 26.351562 29.992188 26.003906 C 30 25.972656 29.996094 25.945312 30 25.917969 C 30 25.890625 30 25.863281 29.992188 25.832031 C 29.992188 25.484375 29.8125 25.164062 29.511719 24.984375 L 17.390625 17.984375 C 17.277344 17.917969 17.148438 17.875 17.015625 17.859375 Z M 17.015625 17.859375 "/>
<path fill-rule="nonzero" fill="rgb(19.607843%, 65.882353%, 100%)" fill-opacity="1" d="M 59 47.003906 C 59 53.628906 53.628906 59.003906 47 59.003906 C 40.371094 59.003906 35 53.628906 35 47.003906 C 35 40.375 40.371094 35.003906 47 35.003906 C 53.628906 35.003906 59 40.375 59 47.003906 Z M 59 47.003906 "/>
<path fill-rule="nonzero" fill="rgb(100%, 100%, 100%)" fill-opacity="1" d="M 41 41 L 41 42 C 41 42.550781 41.453125 43 42 43 C 46.96875 43 51 47.03125 51 52 C 51 52.550781 51.453125 53 52 53 L 53 53 L 53 52 C 53 45.925781 48.074219 41 42 41 Z M 41 45 L 41 46 C 41 46.550781 41.453125 47 42 47 C 44.761719 47 47 49.238281 47 52 C 47 52.550781 47.453125 53 48 53 L 49 53 L 49 52 C 49 48.132812 45.867188 45 42 45 Z M 43 49.003906 C 41.894531 49.003906 41 49.898438 41 51.003906 C 41 52.105469 41.894531 53.003906 43 53.003906 C 44.105469 53.003906 45 52.105469 45 51.003906 C 45 49.898438 44.105469 49.003906 43 49.003906 Z M 43 49.003906 "/>
</svg>
