<?xml version="1.0" encoding="UTF-8"?>
<svg xmlns="http://www.w3.org/2000/svg" xmlns:xlink="http://www.w3.org/1999/xlink" width="64" height="64" viewBox="0 0 64 64">
<path fill-rule="nonzero" fill="rgb(14.117647%, 69.803922%, 61.568627%)" fill-opacity="1" d="M 15.609375 8.464844 C 15.609375 8.347656 15.605469 8.226562 15.601562 8.109375 C 15.523438 6.289062 14.828125 4.726562 13.519531 3.414062 C 12.125 2.019531 10.4375 1.324219 8.464844 1.324219 C 6.496094 1.324219 4.808594 2.019531 3.414062 3.414062 C 2.019531 4.808594 1.324219 6.492188 1.324219 8.464844 C 1.324219 10.4375 2.019531 12.125 3.414062 13.515625 C 4.71875 14.824219 6.285156 15.519531 8.101562 15.601562 C 8.222656 15.605469 8.34375 15.609375 8.464844 15.609375 C 10.4375 15.609375 12.125 14.910156 13.519531 13.515625 C 14.914062 12.125 15.609375 10.4375 15.609375 8.464844 Z M 15.609375 8.464844 "/>
<path fill-rule="nonzero" fill="rgb(100%, 100%, 100%)" fill-opacity="1" d="M 4.496094 4.5 L 7.140625 4.5 L 7.140625 7.144531 L 4.496094 7.140625 Z M 4.496094 4.5 "/>
<path fill-rule="nonzero" fill="rgb(100%, 100%, 100%)" fill-opacity="1" d="M 7.410156 4.5 L 10.050781 4.5 L 10.050781 7.144531 L 7.40625 7.140625 Z M 7.410156 4.5 "/>
<path fill-rule="nonzero" fill="rgb(100%, 100%, 100%)" fill-opacity="1" d="M 4.5 7.40625 L 7.144531 7.40625 L 7.140625 10.050781 L 4.496094 10.050781 Z M 4.5 7.40625 "/>
<path fill-rule="nonzero" fill="rgb(100%, 100%, 100%)" fill-opacity="1" d="M 7.410156 7.40625 L 12.695312 7.414062 L 12.691406 12.699219 L 7.402344 12.695312 Z M 7.410156 7.40625 "/>
</svg>
