<?xml version="1.0" encoding="UTF-8"?>
<svg xmlns="http://www.w3.org/2000/svg" xmlns:xlink="http://www.w3.org/1999/xlink" width="64" height="64" viewBox="0 0 64 64">
<path fill-rule="nonzero" fill="rgb(8.627451%, 58.039216%, 96.078431%)" fill-opacity="1" d="M 58.183594 25.136719 C 58.121094 24.886719 58.046875 24.621094 57.972656 24.359375 C 57.832031 23.859375 57.667969 23.351562 57.488281 22.851562 C 57.121094 21.808594 56.679688 20.789062 56.164062 19.78125 C 55.949219 19.359375 55.710938 18.925781 55.460938 18.5 C 54.292969 16.515625 52.839844 14.652344 51.09375 12.910156 C 45.824219 7.636719 39.457031 5 32 5 C 24.542969 5 18.179688 7.636719 12.910156 12.910156 C 7.636719 18.179688 5 24.542969 5 32 C 5 39.457031 7.636719 45.824219 12.910156 51.09375 C 16.800781 54.988281 21.289062 57.441406 26.34375 58.453125 C 28.171875 58.820312 30.050781 59 32 59 C 39.457031 59 45.824219 56.367188 51.09375 51.09375 C 53.875 48.316406 55.921875 45.230469 57.234375 41.839844 C 58.207031 39.324219 58.78125 36.644531 58.949219 33.789062 C 58.984375 33.203125 59 32.605469 59 32 C 59 29.613281 58.730469 27.332031 58.183594 25.136719 Z M 58.183594 25.136719 "/>
<path fill-rule="nonzero" fill="rgb(100%, 100%, 100%)" fill-opacity="1" d="M 42.667969 15.359375 C 42.34375 15.363281 42.007812 15.371094 41.660156 15.386719 C 36.796875 15.601562 32.160156 16.734375 29.820312 18.273438 C 28.773438 18.964844 28.402344 19.433594 28.003906 20.574219 C 27.328125 22.5 26.910156 25.683594 26.894531 28.984375 C 26.890625 30.117188 26.910156 31.097656 26.9375 31.167969 C 26.96875 31.234375 27.019531 31.292969 27.054688 31.292969 C 27.09375 31.292969 27.40625 30.949219 27.757812 30.527344 C 31.226562 26.351562 38.40625 20.960938 44.785156 17.738281 C 46.472656 16.886719 46.835938 16.578125 46.667969 16.132812 C 46.476562 15.632812 44.921875 15.34375 42.667969 15.359375 Z M 25.398438 21.089844 C 25.003906 21.089844 23.957031 21.722656 23.132812 22.492188 C 21.152344 24.339844 20.175781 27.027344 20.539062 29.625 C 20.632812 30.320312 20.828125 30.753906 21.363281 31.46875 C 22.421875 32.886719 24.996094 34.953125 27.015625 36.007812 C 27.648438 36.339844 27.804688 36.386719 27.882812 36.265625 C 27.90625 36.226562 27.78125 35.707031 27.605469 35.109375 C 26.160156 30.203125 25.644531 27.066406 25.621094 23.039062 C 25.613281 21.761719 25.585938 21.1875 25.527344 21.132812 C 25.5 21.105469 25.457031 21.089844 25.398438 21.089844 Z M 38.429688 23.421875 C 38.234375 23.421875 38.054688 23.464844 37.707031 23.546875 C 36.382812 23.867188 34.792969 24.765625 32.917969 26.25 C 32.296875 26.742188 31.152344 27.8125 30.800781 28.226562 C 30.386719 28.722656 30.417969 28.871094 30.945312 28.871094 C 35.589844 28.867188 37.707031 29.003906 40.472656 29.484375 C 41.882812 29.726562 43.035156 30.003906 44.636719 30.484375 C 45.21875 30.65625 45.746094 30.785156 45.808594 30.765625 C 45.875 30.75 45.941406 30.621094 45.964844 30.484375 C 46.027344 30.070312 45.480469 28.429688 45.023438 27.648438 C 43.734375 25.460938 41.65625 23.984375 39.234375 23.53125 C 38.835938 23.457031 38.625 23.417969 38.429688 23.421875 Z M 35.402344 29.355469 C 35.039062 29.359375 35.015625 29.5 35.257812 29.855469 C 37.878906 33.691406 38.957031 35.511719 40.117188 38.070312 C 40.710938 39.375 41.128906 40.480469 41.636719 42.074219 C 41.820312 42.652344 42.011719 43.160156 42.0625 43.203125 C 42.113281 43.246094 42.257812 43.230469 42.382812 43.171875 C 42.761719 42.988281 43.808594 41.617188 44.195312 40.796875 C 45.277344 38.5 45.328125 35.953125 44.339844 33.695312 C 44.011719 32.949219 43.992188 32.921875 43.464844 32.445312 C 42.453125 31.527344 40.820312 30.71875 38.535156 30.007812 C 37.773438 29.769531 36.246094 29.429688 35.707031 29.375 C 35.585938 29.359375 35.484375 29.355469 35.402344 29.355469 Z M 17.871094 30.15625 C 17.414062 30.15625 17.128906 32.488281 17.398438 33.988281 C 17.777344 36.074219 18.929688 37.9375 20.632812 39.207031 C 21.296875 39.703125 21.613281 39.855469 22.246094 39.980469 C 23.886719 40.304688 26.914062 39.910156 29.585938 39.027344 C 30.472656 38.734375 30.929688 38.511719 30.886719 38.386719 C 30.875 38.347656 30.179688 37.996094 29.34375 37.609375 C 24.847656 35.523438 21.675781 33.496094 18.667969 30.78125 C 18.289062 30.4375 17.929688 30.15625 17.871094 30.15625 Z M 36.65625 33.28125 C 36.554688 33.273438 36.480469 33.398438 36.410156 33.652344 C 35.152344 38.125 34.445312 40.121094 33.230469 42.65625 C 32.613281 43.945312 32.035156 44.976562 31.136719 46.390625 C 30.8125 46.902344 30.546875 47.375 30.546875 47.441406 C 30.546875 47.507812 30.648438 47.609375 30.777344 47.667969 C 31.160156 47.839844 32.882812 47.761719 33.757812 47.53125 C 36.214844 46.886719 38.203125 45.289062 39.296875 43.082031 C 39.660156 42.351562 39.667969 42.316406 39.695312 41.609375 C 39.746094 40.246094 39.316406 38.472656 38.398438 36.261719 C 38.089844 35.53125 37.371094 34.136719 37.070312 33.691406 C 36.886719 33.421875 36.757812 33.285156 36.65625 33.28125 Z M 34.820312 37.1875 C 34.738281 37.1875 34.246094 37.382812 33.726562 37.621094 C 28.660156 39.949219 25.714844 40.847656 20.605469 41.605469 L 20 41.695312 L 20.011719 41.925781 C 20.03125 42.402344 20.976562 43.46875 22.050781 44.226562 C 23.210938 45.046875 24.480469 45.546875 25.894531 45.746094 C 26.957031 45.894531 28.386719 45.773438 29.421875 45.449219 C 30.566406 45.089844 31.730469 43.890625 33.011719 41.738281 C 33.9375 40.1875 34.828125 38.222656 34.921875 37.515625 C 34.964844 37.214844 34.957031 37.1875 34.820312 37.1875 Z M 34.820312 37.1875 "/>
</svg>
