<?xml version="1.0" encoding="UTF-8"?>
<svg xmlns="http://www.w3.org/2000/svg" xmlns:xlink="http://www.w3.org/1999/xlink" width="64" height="64" viewBox="0 0 64 64">
<path fill-rule="nonzero" fill="rgb(9.019608%, 60%, 92.156863%)" fill-opacity="1" d="M 8.464844 1.324219 C 12.410156 1.324219 15.609375 4.519531 15.609375 8.464844 C 15.609375 12.410156 12.410156 15.609375 8.464844 15.609375 C 4.519531 15.609375 1.324219 12.410156 1.324219 8.464844 C 1.324219 4.519531 4.519531 1.324219 8.464844 1.324219 Z M 8.464844 1.324219 "/>
<path fill-rule="nonzero" fill="rgb(97.647059%, 97.647059%, 97.647059%)" fill-opacity="1" d="M 8.464844 5.015625 C 6.5625 5.015625 5.015625 6.402344 5.015625 8.117188 C 5.015625 8.941406 5.382812 9.730469 6.035156 10.3125 L 6.121094 11.785156 C 6.125 11.835938 6.152344 11.878906 6.195312 11.902344 C 6.238281 11.921875 6.292969 11.921875 6.335938 11.898438 L 7.6875 11.132812 C 7.941406 11.1875 8.203125 11.214844 8.464844 11.21875 C 10.371094 11.21875 11.917969 9.828125 11.917969 8.117188 C 11.917969 6.402344 10.371094 5.015625 8.464844 5.015625 Z M 8.464844 5.015625 "/>
<path fill-rule="nonzero" fill="rgb(70.588235%, 86.27451%, 95.294118%)" fill-opacity="1" d="M 8.25 3.988281 L 8.261719 4.277344 C 8.703125 4.246094 9.144531 4.304688 9.574219 4.402344 L 9.636719 4.121094 C 9.171875 4.003906 8.492188 3.960938 8.25 3.988281 Z M 6.53125 4.382812 L 6.644531 4.644531 C 7.019531 4.480469 7.347656 4.40625 7.703125 4.332031 L 7.667969 4.046875 C 7.261719 4.101562 6.851562 4.25 6.53125 4.382812 Z M 10.105469 4.5625 C 10.453125 4.71875 10.800781 4.898438 11.085938 5.085938 L 11.246094 4.847656 C 10.90625 4.621094 10.535156 4.433594 10.199219 4.292969 C 10.175781 4.382812 10.136719 4.472656 10.105469 4.5625 Z M 5.078125 5.382812 L 5.28125 5.585938 C 5.542969 5.3125 5.851562 5.09375 6.144531 4.898438 L 6.003906 4.644531 C 5.652344 4.855469 5.328125 5.136719 5.078125 5.382812 Z M 11.507812 5.433594 C 11.796875 5.703125 12.011719 6.007812 12.195312 6.292969 L 12.449219 6.15625 C 12.25 5.800781 11.957031 5.476562 11.710938 5.230469 Z M 4.160156 6.910156 L 4.433594 6.988281 C 4.542969 6.632812 4.71875 6.324219 4.929688 6.007812 L 4.695312 5.847656 C 4.441406 6.195312 4.300781 6.539062 4.160156 6.910156 Z M 12.4375 6.796875 C 12.582031 7.140625 12.640625 7.503906 12.664062 7.871094 L 12.953125 7.855469 C 12.953125 7.449219 12.835938 7.066406 12.703125 6.691406 Z M 4.039062 8.675781 L 4.324219 8.628906 C 4.246094 8.265625 4.269531 7.898438 4.308594 7.53125 L 4.023438 7.484375 C 3.949219 7.878906 3.976562 8.28125 4.039062 8.675781 Z M 12.351562 9.484375 L 12.617188 9.59375 C 12.789062 9.210938 12.878906 8.800781 12.941406 8.445312 C 12.84375 8.433594 12.75 8.425781 12.65625 8.414062 C 12.617188 8.789062 12.492188 9.140625 12.351562 9.484375 Z M 4.191406 9.261719 C 4.34375 9.640625 4.546875 10.003906 4.753906 10.308594 C 4.820312 10.242188 4.902344 10.191406 4.976562 10.132812 C 4.75 9.835938 4.59375 9.5 4.457031 9.152344 Z M 11.347656 10.78125 L 11.53125 11.003906 C 11.84375 10.753906 12.097656 10.445312 12.320312 10.117188 L 12.082031 9.957031 C 11.886719 10.28125 11.585938 10.558594 11.347656 10.78125 Z M 5.140625 10.75 L 5.265625 10.871094 L 5.316406 11.738281 L 5.601562 11.722656 L 5.546875 10.746094 L 5.34375 10.546875 Z M 9.894531 11.582031 L 9.984375 11.855469 C 10.414062 11.722656 10.710938 11.550781 11.058594 11.351562 L 10.898438 11.113281 C 10.578125 11.320312 10.203125 11.472656 9.894531 11.582031 Z M 6.582031 12.195312 L 6.722656 12.445312 L 7.515625 11.996094 L 7.652344 12.019531 L 7.695312 11.734375 L 7.460938 11.695312 Z M 8.25 11.796875 L 8.234375 12.082031 C 8.667969 12.109375 9.042969 12.058594 9.417969 12.003906 L 9.351562 11.722656 C 8.988281 11.796875 8.621094 11.808594 8.25 11.796875 Z M 5.347656 12.3125 L 5.371094 12.675781 C 5.367188 12.816406 5.421875 12.90625 5.539062 12.945312 C 5.660156 12.984375 5.953125 12.882812 6.222656 12.726562 L 6.082031 12.476562 C 5.964844 12.585938 5.722656 12.710938 5.679688 12.683594 C 5.632812 12.65625 5.640625 12.410156 5.636719 12.296875 Z M 5.347656 12.3125 "/>
</svg>
