<?xml version="1.0" encoding="UTF-8"?>
<svg xmlns="http://www.w3.org/2000/svg" xmlns:xlink="http://www.w3.org/1999/xlink" width="64" height="64" viewBox="0 0 64 64">
<defs>
<filter id="filter-remove-color" x="0%" y="0%" width="100%" height="100%">
<feColorMatrix color-interpolation-filters="sRGB" values="0 0 0 0 1 0 0 0 0 1 0 0 0 0 1 0 0 0 1 0" />
</filter>
<mask id="mask-0">
<g filter="url(#filter-remove-color)">
<rect x="-6.4" y="-6.4" width="76.8" height="76.8" fill="rgb(0%, 0%, 0%)" fill-opacity="0.5"/>
</g>
</mask>
<clipPath id="clip-0">
<rect x="0" y="0" width="17" height="17"/>
</clipPath>
<g id="source-4219" clip-path="url(#clip-0)">
<path fill-rule="nonzero" fill="rgb(100%, 100%, 100%)" fill-opacity="1" d="M 13.230469 8.460938 C 13.230469 11.089844 11.097656 13.222656 8.46875 13.222656 C 5.835938 13.222656 3.703125 11.089844 3.703125 8.460938 C 3.703125 5.828125 5.835938 3.699219 8.46875 3.699219 C 11.097656 3.699219 13.230469 5.828125 13.230469 8.460938 Z M 13.230469 8.460938 "/>
</g>
</defs>
<path fill-rule="nonzero" fill="rgb(80.784314%, 80.784314%, 80.784314%)" fill-opacity="1" d="M 15.609375 8.460938 C 15.609375 12.40625 12.410156 15.605469 8.464844 15.605469 C 4.519531 15.605469 1.324219 12.40625 1.324219 8.460938 C 1.324219 4.515625 4.519531 1.316406 8.464844 1.316406 C 12.410156 1.316406 15.609375 4.515625 15.609375 8.460938 Z M 15.609375 8.460938 "/>
<g mask="url(#mask-0)">
<use xlink:href="#source-4219"/>
</g>
<path fill-rule="nonzero" fill="rgb(30.196078%, 30.196078%, 30.196078%)" fill-opacity="1" d="M 12.4375 8.460938 C 12.4375 10.652344 10.660156 12.429688 8.46875 12.429688 C 6.273438 12.429688 4.496094 10.652344 4.496094 8.460938 C 4.496094 6.269531 6.273438 4.492188 8.46875 4.492188 C 10.660156 4.492188 12.4375 6.269531 12.4375 8.460938 Z M 12.4375 8.460938 "/>
<path fill-rule="nonzero" fill="rgb(100%, 100%, 100%)" fill-opacity="1" d="M 10.054688 8.460938 C 10.054688 9.335938 9.34375 10.046875 8.46875 10.046875 C 7.589844 10.046875 6.878906 9.335938 6.878906 8.460938 C 6.878906 7.582031 7.589844 6.871094 8.46875 6.871094 C 9.34375 6.871094 10.054688 7.582031 10.054688 8.460938 Z M 10.054688 8.460938 "/>
<path fill-rule="nonzero" fill="rgb(100%, 34.117647%, 13.333333%)" fill-opacity="1" d="M 15.875 12.695312 C 15.875 14.449219 14.453125 15.871094 12.699219 15.871094 C 10.945312 15.871094 9.523438 14.449219 9.523438 12.695312 C 9.523438 10.941406 10.945312 9.519531 12.699219 9.519531 C 14.453125 9.519531 15.875 10.941406 15.875 12.695312 Z M 15.875 12.695312 "/>
<path fill-rule="nonzero" fill="rgb(100%, 100%, 100%)" fill-opacity="1" d="M 13.066406 11.109375 C 12.09375 11.503906 11.507812 12.4375 11.507812 13.09375 C 11.507812 13.742188 12.019531 14.273438 12.65625 14.285156 C 12.335938 14.273438 12.082031 14.011719 12.082031 13.691406 C 12.082031 13.359375 12.375 12.894531 12.863281 12.695312 C 12.863281 13.390625 13.386719 13.492188 13.25 13.886719 C 13.175781 14.113281 12.992188 14.28125 12.671875 14.285156 L 12.679688 14.285156 C 13.324219 14.285156 13.695312 13.941406 13.847656 13.488281 C 14.113281 12.699219 13.066406 12.5 13.066406 11.109375 Z M 13.066406 11.109375 "/>
</svg>
