<?xml version="1.0" encoding="UTF-8"?>
<svg xmlns="http://www.w3.org/2000/svg" xmlns:xlink="http://www.w3.org/1999/xlink" width="64" height="64" viewBox="0 0 64 64">
<defs>
<filter id="filter-remove-color" x="0%" y="0%" width="100%" height="100%">
<feColorMatrix color-interpolation-filters="sRGB" values="0 0 0 0 1 0 0 0 0 1 0 0 0 0 1 0 0 0 1 0" />
</filter>
<mask id="mask-0">
<g filter="url(#filter-remove-color)">
<rect x="-6.4" y="-6.4" width="76.8" height="76.8" fill="rgb(0%, 0%, 0%)" fill-opacity="0.75"/>
</g>
</mask>
<clipPath id="clip-0">
<rect x="0" y="0" width="17" height="17"/>
</clipPath>
<g id="source-707" clip-path="url(#clip-0)">
<path fill-rule="nonzero" fill="rgb(100%, 100%, 100%)" fill-opacity="1" d="M 11.113281 4.492188 L 11.113281 12.429688 C 11.113281 12.574219 10.992188 12.691406 10.847656 12.691406 C 10.703125 12.691406 10.582031 12.574219 10.582031 12.429688 L 10.582031 4.492188 C 10.582031 4.34375 10.703125 4.226562 10.847656 4.226562 C 10.992188 4.226562 11.113281 4.34375 11.113281 4.492188 Z M 11.113281 4.492188 "/>
</g>
<mask id="mask-1">
<g filter="url(#filter-remove-color)">
<rect x="-6.4" y="-6.4" width="76.8" height="76.8" fill="rgb(0%, 0%, 0%)" fill-opacity="0.75"/>
</g>
</mask>
<clipPath id="clip-1">
<rect x="0" y="0" width="17" height="17"/>
</clipPath>
<g id="source-712" clip-path="url(#clip-1)">
<path fill-rule="nonzero" fill="rgb(100%, 100%, 100%)" fill-opacity="1" d="M 6.878906 4.492188 L 6.878906 12.429688 C 6.878906 12.574219 6.761719 12.691406 6.613281 12.691406 C 6.46875 12.691406 6.351562 12.574219 6.351562 12.429688 L 6.351562 4.492188 C 6.351562 4.34375 6.46875 4.226562 6.613281 4.226562 C 6.761719 4.226562 6.878906 4.34375 6.878906 4.492188 Z M 6.878906 4.492188 "/>
</g>
<mask id="mask-2">
<g filter="url(#filter-remove-color)">
<rect x="-6.4" y="-6.4" width="76.8" height="76.8" fill="rgb(0%, 0%, 0%)" fill-opacity="0.25"/>
</g>
</mask>
<clipPath id="clip-2">
<rect x="0" y="0" width="17" height="17"/>
</clipPath>
<g id="source-716" clip-path="url(#clip-2)">
<path fill-rule="nonzero" fill="rgb(0%, 0%, 0%)" fill-opacity="1" d="M 6.613281 8.203125 C 5.738281 8.203125 5.027344 7.492188 5.027344 6.617188 C 5.027344 5.738281 5.738281 5.027344 6.613281 5.027344 C 7.492188 5.027344 8.203125 5.738281 8.203125 6.617188 C 8.203125 7.492188 7.492188 8.203125 6.613281 8.203125 Z M 6.613281 8.203125 "/>
</g>
</defs>
<path fill-rule="nonzero" fill="rgb(21.960784%, 62.745098%, 83.137255%)" fill-opacity="1" d="M 15.609375 8.464844 C 15.609375 12.410156 12.410156 15.609375 8.464844 15.609375 C 4.519531 15.609375 1.324219 12.410156 1.324219 8.464844 C 1.324219 4.519531 4.519531 1.324219 8.464844 1.324219 C 12.410156 1.324219 15.609375 4.519531 15.609375 8.464844 Z M 15.609375 8.464844 "/>
<g mask="url(#mask-0)">
<use xlink:href="#source-707"/>
</g>
<path fill-rule="nonzero" fill="rgb(100%, 100%, 100%)" fill-opacity="1" d="M 10.847656 11.105469 C 10.265625 11.105469 9.789062 10.628906 9.789062 10.046875 C 9.789062 9.460938 10.265625 8.988281 10.847656 8.988281 C 11.433594 8.988281 11.90625 9.460938 11.90625 10.046875 C 11.90625 10.628906 11.433594 11.105469 10.847656 11.105469 Z M 10.847656 11.105469 "/>
<g mask="url(#mask-1)">
<use xlink:href="#source-712"/>
</g>
<g mask="url(#mask-2)">
<use xlink:href="#source-716"/>
</g>
<path fill-rule="nonzero" fill="rgb(100%, 100%, 100%)" fill-opacity="1" d="M 6.613281 7.675781 C 6.03125 7.675781 5.558594 7.199219 5.558594 6.617188 C 5.558594 6.03125 6.03125 5.558594 6.613281 5.558594 C 7.199219 5.558594 7.671875 6.03125 7.671875 6.617188 C 7.671875 7.199219 7.199219 7.675781 6.613281 7.675781 Z M 6.613281 7.675781 "/>
</svg>
