<?xml version="1.0" encoding="UTF-8"?>
<svg xmlns="http://www.w3.org/2000/svg" xmlns:xlink="http://www.w3.org/1999/xlink" width="64" height="64" viewBox="0 0 64 64">
<path fill-rule="nonzero" fill="rgb(94.901961%, 94.901961%, 94.901961%)" fill-opacity="1" d="M 32 5 C 46.910156 5 59 17.085938 59 32 C 59 46.910156 46.910156 59 32 59 C 17.085938 59 5 46.910156 5 32 C 5 17.085938 17.085938 5 32 5 Z M 32 5 "/>
<path fill-rule="nonzero" fill="rgb(25.882353%, 51.764706%, 80.784314%)" fill-opacity="1" d="M 32 14 C 29.601562 14 26 16.398438 26 21.199219 C 26 29.597656 45.199219 24.800781 45.199219 42.800781 C 45.199219 43.292969 45.167969 43.792969 45.117188 44.292969 C 48.246094 40.960938 49.996094 36.566406 50 32 C 50.007812 22.058594 41.941406 14 32 14 Z M 18.875 19.714844 C 15.75 23.046875 14.003906 27.4375 14 32 C 13.992188 41.941406 22.058594 50 32 50 C 34.398438 50 38 47.597656 38 42.796875 C 38 30.796875 18.800781 36.796875 18.800781 21.199219 C 18.800781 20.703125 18.828125 20.207031 18.871094 19.714844 Z M 18.875 19.714844 "/>
</svg>
