<?xml version="1.0" encoding="UTF-8"?>
<svg xmlns="http://www.w3.org/2000/svg" xmlns:xlink="http://www.w3.org/1999/xlink" width="64" height="64" viewBox="0 0 64 64">
<path fill-rule="nonzero" fill="rgb(17.647059%, 61.176471%, 94.901961%)" fill-opacity="1" d="M 15.609375 8.46875 C 15.609375 12.414062 12.414062 15.613281 8.464844 15.613281 C 4.519531 15.613281 1.324219 12.414062 1.324219 8.46875 C 1.324219 4.523438 4.519531 1.328125 8.464844 1.328125 C 12.414062 1.328125 15.609375 4.523438 15.609375 8.46875 Z M 15.609375 8.46875 "/>
<path fill-rule="nonzero" fill="rgb(100%, 100%, 100%)" fill-opacity="1" d="M 6.53125 4.230469 C 5.921875 4.230469 5.335938 4.472656 4.90625 4.902344 C 4.476562 5.332031 4.234375 5.917969 4.234375 6.527344 C 4.234375 6.917969 4.332031 7.296875 4.507812 7.621094 C 4.222656 8.960938 4.632812 10.355469 5.605469 11.324219 C 6.574219 12.296875 7.96875 12.707031 9.308594 12.421875 C 9.636719 12.597656 10.007812 12.695312 10.402344 12.695312 C 11.011719 12.699219 11.597656 12.457031 12.027344 12.023438 C 12.457031 11.59375 12.699219 11.007812 12.699219 10.398438 C 12.699219 10.007812 12.601562 9.628906 12.425781 9.304688 C 12.710938 7.964844 12.296875 6.570312 11.328125 5.601562 C 10.359375 4.628906 8.964844 4.21875 7.621094 4.503906 C 7.285156 4.324219 6.910156 4.230469 6.527344 4.230469 "/>
<path fill-rule="nonzero" fill="rgb(17.647059%, 61.176471%, 94.901961%)" fill-opacity="1" d="M 8.542969 6.046875 C 9.738281 6.046875 10.351562 6.675781 10.351562 7.046875 C 10.351562 7.414062 10.175781 7.472656 9.882812 7.472656 C 9.3125 7.472656 9.546875 6.785156 8.480469 6.785156 C 8.128906 6.785156 7.6875 6.945312 7.6875 7.359375 C 7.6875 7.691406 8.074219 7.8125 8.765625 7.984375 C 9.804688 8.261719 10.582031 8.539062 10.582031 9.492188 C 10.582031 10.417969 9.828125 10.882812 8.636719 10.882812 C 7.441406 10.882812 6.679688 10.167969 6.679688 9.800781 C 6.679688 9.429688 6.820312 9.335938 7.113281 9.335938 C 7.683594 9.335938 7.605469 10.113281 8.671875 10.113281 C 9.027344 10.113281 9.550781 9.953125 9.550781 9.539062 C 9.550781 9.210938 9.523438 9.09375 8.765625 8.890625 C 7.957031 8.78125 6.652344 8.519531 6.652344 7.511719 C 6.652344 6.585938 7.351562 6.046875 8.546875 6.046875 "/>
</svg>
