<?xml version="1.0" encoding="UTF-8"?>
<svg xmlns="http://www.w3.org/2000/svg" xmlns:xlink="http://www.w3.org/1999/xlink" width="64" height="64" viewBox="0 0 64 64">
<defs>
<clipPath id="clip-0">
<rect x="0" y="0" width="17" height="17"/>
</clipPath>
<g id="source-8684" clip-path="url(#clip-0)">
<path fill-rule="nonzero" fill="rgb(100%, 100%, 100%)" fill-opacity="1" d="M 12.753906 8.5 L 9.84375 9.285156 L 6.050781 12.199219 L 7.71875 9.285156 L 5.34375 9.023438 L 4.285156 10.082031 L 4.816406 8.492188 L 4.285156 6.90625 L 5.34375 7.964844 L 7.734375 7.699219 L 6.050781 4.789062 L 9.84375 7.699219 Z M 12.753906 8.5 "/>
</g>
</defs>
<path fill-rule="nonzero" fill="rgb(10.980392%, 82.352941%, 67.45098%)" fill-opacity="1" d="M 15.609375 8.464844 C 15.609375 12.410156 12.414062 15.609375 8.46875 15.609375 C 4.519531 15.609375 1.324219 12.410156 1.324219 8.464844 C 1.324219 4.519531 4.519531 1.320312 8.46875 1.320312 C 12.414062 1.320312 15.609375 4.519531 15.609375 8.464844 Z M 15.609375 8.464844 "/>
<use xlink:href="#source-8684"/>
</svg>
