<?xml version="1.0" encoding="UTF-8"?>
<svg xmlns="http://www.w3.org/2000/svg" xmlns:xlink="http://www.w3.org/1999/xlink" width="64" height="64" viewBox="0 0 64 64">
<defs>
<filter id="filter-remove-color" x="0%" y="0%" width="100%" height="100%">
<feColorMatrix color-interpolation-filters="sRGB" values="0 0 0 0 1 0 0 0 0 1 0 0 0 0 1 0 0 0 1 0" />
</filter>
<mask id="mask-0">
<g filter="url(#filter-remove-color)">
<rect x="-6.4" y="-6.4" width="76.8" height="76.8" fill="rgb(0%, 0%, 0%)" fill-opacity="0.5"/>
</g>
</mask>
<clipPath id="clip-0">
<rect x="0" y="0" width="17" height="17"/>
</clipPath>
<g id="source-6472" clip-path="url(#clip-0)">
<path fill-rule="nonzero" fill="rgb(100%, 100%, 100%)" fill-opacity="1" d="M 13.230469 8.460938 C 13.230469 11.089844 11.097656 13.222656 8.46875 13.222656 C 5.835938 13.222656 3.703125 11.089844 3.703125 8.460938 C 3.703125 5.828125 5.835938 3.699219 8.46875 3.699219 C 11.097656 3.699219 13.230469 5.828125 13.230469 8.460938 Z M 13.230469 8.460938 "/>
</g>
</defs>
<path fill-rule="nonzero" fill="rgb(80.784314%, 80.784314%, 80.784314%)" fill-opacity="1" d="M 15.609375 8.460938 C 15.609375 12.40625 12.410156 15.605469 8.464844 15.605469 C 4.519531 15.605469 1.324219 12.40625 1.324219 8.460938 C 1.324219 4.515625 4.519531 1.316406 8.464844 1.316406 C 12.410156 1.316406 15.609375 4.515625 15.609375 8.460938 Z M 15.609375 8.460938 "/>
<g mask="url(#mask-0)">
<use xlink:href="#source-6472"/>
</g>
<path fill-rule="nonzero" fill="rgb(30.196078%, 30.196078%, 30.196078%)" fill-opacity="1" d="M 12.4375 8.460938 C 12.4375 10.652344 10.660156 12.429688 8.46875 12.429688 C 6.273438 12.429688 4.496094 10.652344 4.496094 8.460938 C 4.496094 6.269531 6.273438 4.492188 8.46875 4.492188 C 10.660156 4.492188 12.4375 6.269531 12.4375 8.460938 Z M 12.4375 8.460938 "/>
<path fill-rule="nonzero" fill="rgb(100%, 100%, 100%)" fill-opacity="1" d="M 10.054688 8.460938 C 10.054688 9.335938 9.34375 10.046875 8.46875 10.046875 C 7.589844 10.046875 6.878906 9.335938 6.878906 8.460938 C 6.878906 7.582031 7.589844 6.871094 8.46875 6.871094 C 9.34375 6.871094 10.054688 7.582031 10.054688 8.460938 Z M 10.054688 8.460938 "/>
<path fill-rule="nonzero" fill="rgb(100%, 100%, 100%)" fill-opacity="1" d="M 15.875 12.699219 C 15.875 14.453125 14.453125 15.875 12.699219 15.875 C 10.945312 15.875 9.523438 14.453125 9.523438 12.699219 C 9.523438 10.945312 10.945312 9.523438 12.699219 9.523438 C 14.453125 9.523438 15.875 10.945312 15.875 12.699219 Z M 15.875 12.699219 "/>
<path fill="none" stroke-width="7.085" stroke-linecap="butt" stroke-linejoin="round" stroke="rgb(100%, 100%, 100%)" stroke-opacity="1" stroke-miterlimit="4" d="M 64.034913 59.800308 C 62.115608 59.779362 60.397474 61.082832 59.960883 62.884722 C 59.471984 64.777229 60.292799 66.701127 61.922389 67.642186 L 106.283438 93.259904 C 108.275159 94.410088 110.846312 93.720045 111.997111 91.726476 C 116.861854 83.299117 119.449192 73.798247 119.431187 64.001079 C 119.429199 61.704269 117.532043 59.762925 115.236521 59.76637 Z M 64.034913 59.800308 " transform="matrix(0.01867, 0.03236, -0.03233, 0.01868, 13.73, 10.009979)"/>
<path fill-rule="nonzero" fill="rgb(100%, 47.45098%, 12.54902%)" fill-opacity="1" d="M 12.992188 13.199219 C 12.957031 13.136719 12.882812 13.105469 12.816406 13.125 C 12.746094 13.144531 12.699219 13.207031 12.699219 13.277344 L 12.699219 15.191406 C 12.699219 15.277344 12.769531 15.347656 12.855469 15.347656 C 13.21875 15.347656 13.574219 15.253906 13.890625 15.070312 C 13.964844 15.027344 13.992188 14.929688 13.949219 14.855469 Z M 12.992188 13.199219 "/>
<path fill="none" stroke-width="7.085" stroke-linecap="butt" stroke-linejoin="round" stroke="rgb(100%, 100%, 100%)" stroke-opacity="1" stroke-miterlimit="4" d="M 63.964223 59.814926 C 62.134442 59.784767 60.47895 61.102546 59.980586 62.95949 C 59.429941 64.725901 60.294329 66.641174 61.946376 67.618916 L 106.224035 93.241393 C 108.304776 94.333807 110.845546 93.712118 111.992172 91.722386 C 116.87492 83.230313 119.495694 73.750444 119.429299 64.011074 C 119.432743 61.715552 117.582016 59.766087 115.194589 59.816408 Z M 63.964223 59.814926 " transform="matrix(0.03233, 0.01868, -0.01867, 0.03236, 12.248, 9.850006)"/>
<path fill-rule="nonzero" fill="rgb(100%, 47.45098%, 12.54902%)" fill-opacity="1" d="M 13.199219 12.980469 C 13.140625 12.945312 13.0625 12.957031 13.011719 13.007812 C 12.960938 13.054688 12.953125 13.132812 12.988281 13.195312 L 13.941406 14.851562 C 13.988281 14.925781 14.082031 14.953125 14.15625 14.910156 C 14.472656 14.726562 14.734375 14.46875 14.914062 14.152344 C 14.957031 14.078125 14.933594 13.980469 14.855469 13.9375 Z M 13.199219 12.980469 "/>
<path fill="none" stroke-width="7.085" stroke-linecap="butt" stroke-linejoin="round" stroke="rgb(100%, 100%, 100%)" stroke-opacity="1" stroke-miterlimit="4" d="M 64.006004 59.831932 C 62.122465 59.831932 60.448208 61.086616 59.925003 62.968642 C 59.506439 64.746111 60.238926 66.628137 61.913183 67.56915 L 106.280982 93.290174 C 108.269161 94.440302 110.885187 93.708403 112.036239 91.721819 C 116.849726 83.252702 119.465752 73.738014 119.465752 64.014212 C 119.465752 61.713958 117.582213 59.831932 115.280111 59.831932 Z M 64.006004 59.831932 " transform="matrix(0.03733, 0, 0, 0.03736, 10.888, 10.459991)"/>
<path fill-rule="nonzero" fill="rgb(100%, 47.45098%, 12.54902%)" fill-opacity="1" d="M 13.277344 12.695312 C 13.207031 12.695312 13.144531 12.742188 13.125 12.8125 C 13.109375 12.878906 13.136719 12.949219 13.199219 12.984375 L 14.855469 13.945312 C 14.929688 13.988281 15.027344 13.960938 15.070312 13.886719 C 15.25 13.570312 15.347656 13.214844 15.347656 12.851562 C 15.347656 12.765625 15.277344 12.695312 15.191406 12.695312 Z M 13.277344 12.695312 "/>
<path fill="none" stroke-width="7.085" stroke-linecap="butt" stroke-linejoin="round" stroke="rgb(100%, 100%, 100%)" stroke-opacity="1" stroke-miterlimit="4" d="M 64.007123 59.821586 C 62.086725 59.799435 60.459067 61.153394 59.932757 62.901687 C 59.497062 64.70229 60.267277 66.71616 61.898378 67.657723 L 106.300592 93.289164 C 108.294161 94.439963 110.866321 93.751937 112.016505 91.760216 C 116.878643 83.34067 119.423081 73.70393 119.437195 64.055093 C 119.486031 61.669038 117.534299 59.818115 115.237489 59.820103 Z M 64.007123 59.821586 " transform="matrix(0.03233, -0.01868, 0.01867, 0.03236, 10.013, 11.669983)"/>
<path fill-rule="nonzero" fill="rgb(100%, 47.45098%, 12.54902%)" fill-opacity="1" d="M 13.199219 12.410156 C 13.136719 12.445312 13.109375 12.519531 13.125 12.585938 C 13.144531 12.652344 13.207031 12.703125 13.277344 12.703125 L 15.191406 12.703125 C 15.277344 12.703125 15.347656 12.632812 15.347656 12.546875 C 15.347656 12.183594 15.25 11.824219 15.070312 11.511719 C 15.027344 11.433594 14.929688 11.410156 14.855469 11.453125 Z M 13.199219 12.410156 "/>
<path fill="none" stroke-width="7.085" stroke-linecap="butt" stroke-linejoin="round" stroke="rgb(100%, 100%, 100%)" stroke-opacity="1" stroke-miterlimit="4" d="M 64.017257 59.792127 C 62.097952 59.813073 60.444224 61.130544 59.895007 62.897599 C 59.488632 64.70299 60.263214 66.672168 61.914954 67.651507 L 106.274521 93.264155 C 108.264254 94.410781 110.893736 93.738072 112.038459 91.747948 C 116.822553 83.306475 119.383541 73.732322 119.453855 64.025771 C 119.455843 61.728961 117.514387 59.829509 115.218865 59.826065 Z M 64.017257 59.792127 " transform="matrix(0.01867, -0.03236, 0.03233, 0.01868, 9.86, 13.149994)"/>
<path fill-rule="nonzero" fill="rgb(100%, 47.45098%, 12.54902%)" fill-opacity="1" d="M 12.988281 12.195312 C 12.953125 12.257812 12.964844 12.335938 13.011719 12.386719 C 13.0625 12.433594 13.140625 12.445312 13.203125 12.410156 L 14.859375 11.453125 C 14.933594 11.410156 14.960938 11.3125 14.917969 11.238281 C 14.734375 10.925781 14.472656 10.664062 14.160156 10.480469 C 14.085938 10.4375 13.988281 10.464844 13.945312 10.539062 Z M 12.988281 12.195312 "/>
<path fill="none" stroke-width="7.085" stroke-linecap="butt" stroke-linejoin="round" stroke="rgb(100%, 100%, 100%)" stroke-opacity="1" stroke-miterlimit="4" d="M 64.046886 59.79691 C 62.060303 59.79691 60.491948 61.052602 59.969163 62.936141 C 59.446378 64.715039 60.282834 66.703218 61.955746 67.644988 L 106.287918 93.282041 C 108.274501 94.433092 110.783869 93.700605 112.038553 91.712426 C 116.848176 83.341143 119.462101 73.714168 119.462101 63.982551 C 119.462101 61.680449 117.580075 59.79691 115.27982 59.79691 Z M 64.046886 59.79691 " transform="matrix(0, -0.03736, 0.03733, 0, 10.467, 14.509979)"/>
<path fill-rule="nonzero" fill="rgb(100%, 47.45098%, 12.54902%)" fill-opacity="1" d="M 12.699219 12.117188 C 12.699219 12.191406 12.746094 12.25 12.816406 12.269531 C 12.882812 12.289062 12.957031 12.257812 12.992188 12.195312 L 13.949219 10.539062 C 13.992188 10.464844 13.964844 10.371094 13.890625 10.324219 C 13.578125 10.144531 13.21875 10.046875 12.855469 10.046875 C 12.769531 10.046875 12.699219 10.117188 12.699219 10.203125 Z M 12.699219 12.117188 "/>
<path fill="none" stroke-width="7.085" stroke-linecap="butt" stroke-linejoin="round" stroke="rgb(100%, 100%, 100%)" stroke-opacity="1" stroke-miterlimit="4" d="M 64.003523 59.854687 C 62.084217 59.833741 60.418392 61.046594 59.929493 62.939101 C 59.492902 64.740991 60.313718 66.664889 61.943307 67.605948 L 106.304357 93.223666 C 108.296078 94.37385 110.86723 93.683807 112.01803 91.690238 C 116.882772 83.262879 119.470111 73.762009 119.452105 63.964841 C 119.450117 61.668031 117.500653 59.817304 115.205131 59.820748 Z M 64.003523 59.854687 " transform="matrix(-0.01867, 0.03236, 0.03233, 0.01868, 11.67, 10.009979)"/>
<path fill-rule="nonzero" fill="rgb(100%, 47.45098%, 12.54902%)" fill-opacity="1" d="M 12.410156 13.199219 C 12.445312 13.136719 12.515625 13.105469 12.585938 13.125 C 12.652344 13.144531 12.699219 13.207031 12.699219 13.277344 L 12.699219 15.191406 C 12.699219 15.277344 12.628906 15.347656 12.542969 15.347656 C 12.179688 15.347656 11.824219 15.253906 11.507812 15.070312 C 11.433594 15.027344 11.410156 14.929688 11.453125 14.855469 Z M 12.410156 13.199219 "/>
<path fill="none" stroke-width="7.085" stroke-linecap="butt" stroke-linejoin="round" stroke="rgb(100%, 100%, 100%)" stroke-opacity="1" stroke-miterlimit="4" d="M 64.000483 59.793994 C 62.080086 59.816144 60.424594 61.133924 60.016846 62.938558 C 59.466201 64.704969 60.239972 66.672552 61.89202 67.650294 L 106.260295 93.220462 C 108.250419 94.365184 110.881806 93.691187 112.028432 91.701455 C 116.820564 83.26169 119.441337 73.781821 119.465559 63.990142 C 119.469003 61.69462 117.52766 59.797465 115.230849 59.795477 Z M 64.000483 59.793994 " transform="matrix(-0.03233, 0.01868, 0.01867, 0.03236, 13.152, 9.850006)"/>
<path fill-rule="nonzero" fill="rgb(100%, 47.45098%, 12.54902%)" fill-opacity="1" d="M 12.199219 12.980469 C 12.261719 12.945312 12.339844 12.957031 12.386719 13.007812 C 12.4375 13.054688 12.449219 13.132812 12.414062 13.195312 L 11.457031 14.851562 C 11.414062 14.925781 11.316406 14.953125 11.242188 14.910156 C 10.929688 14.726562 10.667969 14.46875 10.484375 14.152344 C 10.441406 14.078125 10.46875 13.980469 10.542969 13.9375 Z M 12.199219 12.980469 "/>
<path fill="none" stroke-width="7.085" stroke-linecap="butt" stroke-linejoin="round" stroke="rgb(100%, 100%, 100%)" stroke-opacity="1" stroke-miterlimit="4" d="M 64.04785 59.831932 C 62.05967 59.831932 60.490055 61.086616 59.966849 62.968642 C 59.443644 64.746111 60.280773 66.628137 61.955029 67.56915 L 106.322828 93.290174 C 108.311008 94.440302 110.822392 93.708403 111.973444 91.721819 C 116.891572 83.252702 119.402957 73.738014 119.402957 64.014212 C 119.402957 61.713958 117.519419 59.831932 115.217316 59.831932 Z M 64.04785 59.831932 " transform="matrix(-0.03733, 0, 0, 0.03736, 14.512, 10.459991)"/>
<path fill-rule="nonzero" fill="rgb(100%, 47.45098%, 12.54902%)" fill-opacity="1" d="M 12.121094 12.695312 C 12.195312 12.695312 12.253906 12.742188 12.273438 12.8125 C 12.292969 12.878906 12.261719 12.949219 12.199219 12.984375 L 10.542969 13.945312 C 10.46875 13.988281 10.375 13.960938 10.332031 13.886719 C 10.148438 13.570312 10.054688 13.214844 10.054688 12.851562 C 10.054688 12.765625 10.125 12.695312 10.210938 12.695312 Z M 12.121094 12.695312 "/>
<path fill="none" stroke-width="7.085" stroke-linecap="butt" stroke-linejoin="round" stroke="rgb(100%, 100%, 100%)" stroke-opacity="1" stroke-miterlimit="4" d="M 64.04336 59.842504 C 62.122963 59.820354 60.404689 61.122004 59.968994 62.922606 C 59.5333 64.723208 60.212898 66.68477 61.934616 67.678642 L 106.246213 93.257773 C 108.239782 94.408573 110.811942 93.720546 111.962126 91.728826 C 116.824264 83.309279 119.459319 73.724848 119.382816 64.023702 C 119.431653 61.637647 117.570537 59.839033 115.273727 59.841022 Z M 64.04336 59.842504 " transform="matrix(-0.03233, -0.01868, -0.01867, 0.03236, 15.387, 11.669983)"/>
<path fill-rule="nonzero" fill="rgb(100%, 47.45098%, 12.54902%)" fill-opacity="1" d="M 12.199219 12.410156 C 12.261719 12.445312 12.292969 12.519531 12.273438 12.585938 C 12.253906 12.652344 12.195312 12.703125 12.121094 12.703125 L 10.210938 12.703125 C 10.125 12.703125 10.054688 12.632812 10.054688 12.546875 C 10.054688 12.183594 10.148438 11.824219 10.332031 11.511719 C 10.375 11.433594 10.46875 11.410156 10.542969 11.453125 Z M 12.199219 12.410156 "/>
<path fill="none" stroke-width="7.085" stroke-linecap="butt" stroke-linejoin="round" stroke="rgb(100%, 100%, 100%)" stroke-opacity="1" stroke-miterlimit="4" d="M 64.038176 59.828365 C 62.11887 59.849311 60.412833 61.076165 59.915925 62.933837 C 59.50955 64.739228 60.284133 66.708406 61.883564 67.597128 L 106.243131 93.209776 C 108.285172 94.447019 110.862345 93.683693 112.007068 91.693569 C 116.843472 83.342713 119.404459 73.768559 119.422464 63.971392 C 119.424453 61.674582 117.535306 59.865747 115.239784 59.862303 Z M 64.038176 59.828365 " transform="matrix(-0.01867, -0.03236, -0.03233, 0.01868, 15.54, 13.149994)"/>
<path fill-rule="nonzero" fill="rgb(100%, 47.45098%, 12.54902%)" fill-opacity="1" d="M 12.410156 12.195312 C 12.445312 12.257812 12.4375 12.335938 12.386719 12.386719 C 12.335938 12.433594 12.257812 12.445312 12.199219 12.410156 L 10.542969 11.453125 C 10.464844 11.410156 10.441406 11.3125 10.484375 11.238281 C 10.664062 10.925781 10.925781 10.664062 11.242188 10.480469 C 11.316406 10.4375 11.410156 10.464844 11.453125 10.539062 Z M 12.410156 12.195312 "/>
<path fill="none" stroke-width="7.085" stroke-linecap="butt" stroke-linejoin="round" stroke="rgb(100%, 100%, 100%)" stroke-opacity="1" stroke-miterlimit="4" d="M 64.046886 59.838756 C 62.060303 59.838756 60.491948 61.094449 59.969163 62.873346 C 59.446378 64.756885 60.282834 66.640423 61.955746 67.582193 L 106.287918 93.219246 C 108.274501 94.370298 110.783869 93.742451 112.038553 91.754272 C 116.848176 83.278348 119.462101 73.756014 119.462101 64.024398 C 119.462101 61.722295 117.580075 59.838756 115.27982 59.838756 Z M 64.046886 59.838756 " transform="matrix(0, -0.03736, -0.03733, 0, 14.933, 14.509979)"/>
<path fill-rule="nonzero" fill="rgb(100%, 47.45098%, 12.54902%)" fill-opacity="1" d="M 12.699219 12.117188 C 12.699219 12.191406 12.652344 12.25 12.585938 12.269531 C 12.515625 12.289062 12.445312 12.257812 12.410156 12.195312 L 11.453125 10.539062 C 11.410156 10.464844 11.433594 10.371094 11.507812 10.324219 C 11.824219 10.144531 12.179688 10.046875 12.542969 10.046875 C 12.628906 10.046875 12.699219 10.117188 12.699219 10.203125 Z M 12.699219 12.117188 "/>
</svg>
