<?xml version="1.0" encoding="UTF-8"?>
<svg xmlns="http://www.w3.org/2000/svg" xmlns:xlink="http://www.w3.org/1999/xlink" width="64" height="64" viewBox="0 0 64 64">
<defs>
<filter id="filter-remove-color" x="0%" y="0%" width="100%" height="100%">
<feColorMatrix color-interpolation-filters="sRGB" values="0 0 0 0 1 0 0 0 0 1 0 0 0 0 1 0 0 0 1 0" />
</filter>
<mask id="mask-0">
<g filter="url(#filter-remove-color)">
<rect x="-6.4" y="-6.4" width="76.8" height="76.8" fill="rgb(0%, 0%, 0%)" fill-opacity="0.35"/>
</g>
</mask>
<clipPath id="clip-0">
<rect x="0" y="0" width="17" height="17"/>
</clipPath>
<g id="source-7123" clip-path="url(#clip-0)">
<path fill-rule="nonzero" fill="rgb(100%, 100%, 100%)" fill-opacity="1" d="M 4.558594 5.421875 L 4.558594 7.375 C 4.648438 7.425781 4.757812 7.472656 4.882812 7.519531 L 4.882812 5.566406 C 4.757812 5.519531 4.648438 5.472656 4.558594 5.421875 Z M 4.558594 7.863281 L 4.558594 9.816406 C 4.648438 9.867188 4.757812 9.917969 4.882812 9.960938 L 4.882812 8.007812 C 4.757812 7.964844 4.648438 7.914062 4.558594 7.863281 Z M 4.558594 10.304688 L 4.558594 12.261719 C 4.648438 12.308594 4.757812 12.359375 4.882812 12.40625 L 4.882812 10.453125 C 4.757812 10.40625 4.648438 10.355469 4.558594 10.304688 Z M 4.558594 10.304688 "/>
</g>
<mask id="mask-1">
<g filter="url(#filter-remove-color)">
<rect x="-6.4" y="-6.4" width="76.8" height="76.8" fill="rgb(0%, 0%, 0%)" fill-opacity="0.35"/>
</g>
</mask>
<clipPath id="clip-1">
<rect x="0" y="0" width="17" height="17"/>
</clipPath>
<g id="source-7127" clip-path="url(#clip-1)">
<path fill-rule="nonzero" fill="rgb(100%, 100%, 100%)" fill-opacity="1" d="M 5.046875 5.621094 L 5.046875 7.574219 C 5.277344 7.648438 5.550781 7.714844 5.863281 7.769531 L 5.863281 5.816406 C 5.550781 5.761719 5.277344 5.695312 5.046875 5.621094 Z M 5.046875 8.0625 L 5.046875 10.019531 C 5.277344 10.089844 5.550781 10.15625 5.863281 10.210938 L 5.863281 8.257812 C 5.550781 8.203125 5.277344 8.136719 5.046875 8.0625 Z M 5.046875 10.503906 L 5.046875 12.460938 C 5.277344 12.535156 5.550781 12.597656 5.863281 12.65625 L 5.863281 10.699219 C 5.550781 10.644531 5.277344 10.578125 5.046875 10.503906 Z M 5.046875 10.503906 "/>
</g>
</defs>
<path fill-rule="nonzero" fill="rgb(97.647059%, 97.647059%, 97.647059%)" fill-opacity="1" d="M 15.609375 8.464844 C 15.609375 12.410156 12.410156 15.609375 8.464844 15.609375 C 4.519531 15.609375 1.324219 12.410156 1.324219 8.464844 C 1.324219 4.519531 4.519531 1.324219 8.464844 1.324219 C 12.410156 1.324219 15.609375 4.519531 15.609375 8.464844 Z M 15.609375 8.464844 "/>
<path fill-rule="nonzero" fill="rgb(90.196078%, 90.196078%, 90.196078%)" fill-opacity="1" d="M 4.234375 9.933594 L 4.234375 11.886719 C 4.234375 12.425781 6.128906 12.863281 8.464844 12.863281 C 10.804688 12.863281 12.699219 12.425781 12.699219 11.886719 L 12.699219 9.933594 Z M 4.234375 9.933594 "/>
<path fill-rule="nonzero" fill="rgb(80%, 80%, 80%)" fill-opacity="1" d="M 12.699219 9.933594 C 12.699219 10.472656 10.804688 10.910156 8.464844 10.910156 C 6.128906 10.910156 4.234375 10.472656 4.234375 9.933594 C 4.234375 9.390625 6.128906 8.957031 8.464844 8.957031 C 10.804688 8.957031 12.699219 9.390625 12.699219 9.933594 Z M 12.699219 9.933594 "/>
<path fill-rule="nonzero" fill="rgb(90.196078%, 90.196078%, 90.196078%)" fill-opacity="1" d="M 4.234375 7.488281 L 4.234375 9.441406 C 4.234375 9.984375 6.128906 10.421875 8.464844 10.421875 C 10.804688 10.421875 12.699219 9.984375 12.699219 9.441406 L 12.699219 7.488281 Z M 4.234375 7.488281 "/>
<path fill-rule="nonzero" fill="rgb(80%, 80%, 80%)" fill-opacity="1" d="M 12.699219 7.488281 C 12.699219 8.027344 10.804688 8.464844 8.464844 8.464844 C 6.128906 8.464844 4.234375 8.027344 4.234375 7.488281 C 4.234375 6.949219 6.128906 6.511719 8.464844 6.511719 C 10.804688 6.511719 12.699219 6.949219 12.699219 7.488281 Z M 12.699219 7.488281 "/>
<path fill-rule="nonzero" fill="rgb(90.196078%, 90.196078%, 90.196078%)" fill-opacity="1" d="M 4.234375 5.046875 L 4.234375 7 C 4.234375 7.539062 6.128906 7.976562 8.464844 7.976562 C 10.804688 7.976562 12.699219 7.539062 12.699219 7 L 12.699219 5.046875 Z M 4.234375 5.046875 "/>
<path fill-rule="nonzero" fill="rgb(80%, 80%, 80%)" fill-opacity="1" d="M 12.699219 5.046875 C 12.699219 5.585938 10.804688 6.023438 8.464844 6.023438 C 6.128906 6.023438 4.234375 5.585938 4.234375 5.046875 C 4.234375 4.507812 6.128906 4.070312 8.464844 4.070312 C 10.804688 4.070312 12.699219 4.507812 12.699219 5.046875 Z M 12.699219 5.046875 "/>
<g mask="url(#mask-0)">
<use xlink:href="#source-7123"/>
</g>
<g mask="url(#mask-1)">
<use xlink:href="#source-7127"/>
</g>
<path fill-rule="nonzero" fill="rgb(14.117647%, 67.058824%, 92.156863%)" fill-opacity="1" d="M 9.5 4.234375 C 7.128906 4.234375 6.492188 6.933594 6.582031 8.480469 C 6.832031 8.691406 7.023438 8.945312 7.191406 9.175781 C 7.023438 8.96875 6.792969 8.8125 6.5625 8.644531 C 6.542969 8.796875 6.53125 8.9375 6.523438 9.066406 C 6.859375 9.320312 7.183594 9.796875 7.183594 9.796875 C 7.183594 9.796875 7.15625 9.765625 7.058594 9.664062 C 6.972656 9.570312 6.601562 9.304688 6.515625 9.242188 C 6.503906 9.527344 6.527344 9.714844 6.582031 9.75 C 6.6875 9.824219 6.808594 9.957031 6.925781 10.109375 C 7.195312 10.449219 7.449219 10.878906 7.449219 10.878906 C 7.671875 11.539062 7.890625 12.171875 8.398438 12.699219 L 8.578125 12.660156 C 8.296875 12.34375 8.027344 11.902344 7.871094 11.375 C 7.625 10.574219 7.46875 9.566406 7.59375 8.484375 C 7.878906 6.832031 8.585938 5.421875 9.425781 4.660156 C 8.6875 5.425781 7.941406 7.480469 7.804688 8.429688 C 7.660156 9.308594 7.742188 10.046875 7.816406 10.800781 C 7.890625 10.070312 8.859375 9.601562 8.859375 9.601562 C 8.859375 9.601562 9.207031 9.078125 9.578125 8.359375 C 9.09375 8.519531 8.632812 8.703125 8.195312 8.9375 C 8.195312 8.9375 8.988281 8.386719 9.722656 8.070312 C 10.390625 6.679688 10.972656 4.769531 9.5 4.234375 "/>
</svg>
