<?xml version="1.0" encoding="UTF-8"?>
<svg xmlns="http://www.w3.org/2000/svg" xmlns:xlink="http://www.w3.org/1999/xlink" width="64" height="64" viewBox="0 0 64 64">
<defs>
<filter id="filter-remove-color" x="0%" y="0%" width="100%" height="100%">
<feColorMatrix color-interpolation-filters="sRGB" values="0 0 0 0 1 0 0 0 0 1 0 0 0 0 1 0 0 0 1 0" />
</filter>
<mask id="mask-0">
<g filter="url(#filter-remove-color)">
<rect x="-6.4" y="-6.4" width="76.8" height="76.8" fill="rgb(0%, 0%, 0%)" fill-opacity="0.35"/>
</g>
</mask>
<clipPath id="clip-0">
<rect x="0" y="0" width="17" height="17"/>
</clipPath>
<g id="source-4949" clip-path="url(#clip-0)">
<path fill-rule="nonzero" fill="rgb(100%, 100%, 100%)" fill-opacity="1" d="M 4.558594 5.421875 L 4.558594 7.375 C 4.648438 7.425781 4.757812 7.472656 4.882812 7.519531 L 4.882812 5.566406 C 4.757812 5.519531 4.648438 5.472656 4.558594 5.421875 Z M 4.558594 7.863281 L 4.558594 9.816406 C 4.648438 9.867188 4.757812 9.917969 4.882812 9.960938 L 4.882812 8.007812 C 4.757812 7.964844 4.648438 7.914062 4.558594 7.863281 Z M 4.558594 10.304688 L 4.558594 12.261719 C 4.648438 12.308594 4.757812 12.359375 4.882812 12.40625 L 4.882812 10.453125 C 4.757812 10.40625 4.648438 10.355469 4.558594 10.304688 Z M 4.558594 10.304688 "/>
</g>
<mask id="mask-1">
<g filter="url(#filter-remove-color)">
<rect x="-6.4" y="-6.4" width="76.8" height="76.8" fill="rgb(0%, 0%, 0%)" fill-opacity="0.35"/>
</g>
</mask>
<clipPath id="clip-1">
<rect x="0" y="0" width="17" height="17"/>
</clipPath>
<g id="source-4953" clip-path="url(#clip-1)">
<path fill-rule="nonzero" fill="rgb(100%, 100%, 100%)" fill-opacity="1" d="M 5.046875 5.621094 L 5.046875 7.574219 C 5.277344 7.648438 5.550781 7.714844 5.863281 7.769531 L 5.863281 5.816406 C 5.550781 5.761719 5.277344 5.695312 5.046875 5.621094 Z M 5.046875 8.0625 L 5.046875 10.019531 C 5.277344 10.089844 5.550781 10.15625 5.863281 10.210938 L 5.863281 8.257812 C 5.550781 8.203125 5.277344 8.136719 5.046875 8.0625 Z M 5.046875 10.503906 L 5.046875 12.460938 C 5.277344 12.535156 5.550781 12.597656 5.863281 12.65625 L 5.863281 10.699219 C 5.550781 10.644531 5.277344 10.578125 5.046875 10.503906 Z M 5.046875 10.503906 "/>
</g>
</defs>
<path fill-rule="nonzero" fill="rgb(97.647059%, 97.647059%, 97.647059%)" fill-opacity="1" d="M 15.609375 8.464844 C 15.609375 12.410156 12.410156 15.609375 8.464844 15.609375 C 4.519531 15.609375 1.324219 12.410156 1.324219 8.464844 C 1.324219 4.519531 4.519531 1.324219 8.464844 1.324219 C 12.410156 1.324219 15.609375 4.519531 15.609375 8.464844 Z M 15.609375 8.464844 "/>
<path fill-rule="nonzero" fill="rgb(90.196078%, 90.196078%, 90.196078%)" fill-opacity="1" d="M 4.234375 9.933594 L 4.234375 11.886719 C 4.234375 12.425781 6.128906 12.863281 8.464844 12.863281 C 10.804688 12.863281 12.699219 12.425781 12.699219 11.886719 L 12.699219 9.933594 Z M 4.234375 9.933594 "/>
<path fill-rule="nonzero" fill="rgb(80%, 80%, 80%)" fill-opacity="1" d="M 12.699219 9.933594 C 12.699219 10.472656 10.804688 10.910156 8.464844 10.910156 C 6.128906 10.910156 4.234375 10.472656 4.234375 9.933594 C 4.234375 9.390625 6.128906 8.957031 8.464844 8.957031 C 10.804688 8.957031 12.699219 9.390625 12.699219 9.933594 Z M 12.699219 9.933594 "/>
<path fill-rule="nonzero" fill="rgb(90.196078%, 90.196078%, 90.196078%)" fill-opacity="1" d="M 4.234375 7.488281 L 4.234375 9.441406 C 4.234375 9.984375 6.128906 10.421875 8.464844 10.421875 C 10.804688 10.421875 12.699219 9.984375 12.699219 9.441406 L 12.699219 7.488281 Z M 4.234375 7.488281 "/>
<path fill-rule="nonzero" fill="rgb(80%, 80%, 80%)" fill-opacity="1" d="M 12.699219 7.488281 C 12.699219 8.027344 10.804688 8.464844 8.464844 8.464844 C 6.128906 8.464844 4.234375 8.027344 4.234375 7.488281 C 4.234375 6.949219 6.128906 6.511719 8.464844 6.511719 C 10.804688 6.511719 12.699219 6.949219 12.699219 7.488281 Z M 12.699219 7.488281 "/>
<path fill-rule="nonzero" fill="rgb(90.196078%, 90.196078%, 90.196078%)" fill-opacity="1" d="M 4.234375 5.046875 L 4.234375 7 C 4.234375 7.539062 6.128906 7.976562 8.464844 7.976562 C 10.804688 7.976562 12.699219 7.539062 12.699219 7 L 12.699219 5.046875 Z M 4.234375 5.046875 "/>
<path fill-rule="nonzero" fill="rgb(80%, 80%, 80%)" fill-opacity="1" d="M 12.699219 5.046875 C 12.699219 5.585938 10.804688 6.023438 8.464844 6.023438 C 6.128906 6.023438 4.234375 5.585938 4.234375 5.046875 C 4.234375 4.507812 6.128906 4.070312 8.464844 4.070312 C 10.804688 4.070312 12.699219 4.507812 12.699219 5.046875 Z M 12.699219 5.046875 "/>
<g mask="url(#mask-0)">
<use xlink:href="#source-4949"/>
</g>
<g mask="url(#mask-1)">
<use xlink:href="#source-4953"/>
</g>
<path fill-rule="nonzero" fill="rgb(96.470588%, 49.019608%, 49.019608%)" fill-opacity="1" d="M 12.046875 4.234375 C 9.957031 4.234375 7.238281 7.214844 5.789062 10.28125 C 5.371094 11.164062 5.019531 12.121094 4.882812 12.699219 L 5.046875 12.691406 C 5.65625 10.941406 6.351562 10.800781 6.683594 10.746094 C 7.871094 10.546875 8.78125 10.167969 9.660156 9.117188 C 8.464844 9.117188 7.714844 8.917969 7.714844 8.792969 L 9.867188 8.792969 C 10.164062 8.480469 10.472656 8.125 10.703125 7.816406 C 9.660156 7.816406 8.789062 7.683594 8.789062 7.488281 L 10.941406 7.488281 C 11.15625 7.167969 11.335938 6.824219 11.484375 6.511719 C 10.554688 6.511719 9.929688 6.300781 9.929688 6.1875 L 11.640625 6.1875 C 11.921875 5.492188 12.050781 4.828125 12.046875 4.234375 Z M 12.046875 4.234375 "/>
</svg>
