<?xml version="1.0" encoding="UTF-8"?>
<svg xmlns="http://www.w3.org/2000/svg" xmlns:xlink="http://www.w3.org/1999/xlink" width="64" height="64" viewBox="0 0 64 64">
<path fill-rule="nonzero" fill="rgb(21.568627%, 27.45098%, 31.764706%)" fill-opacity="1" d="M 58.179688 25.136719 C 58.117188 24.886719 58.046875 24.621094 57.972656 24.355469 C 57.914062 24.164062 57.859375 23.964844 57.792969 23.757812 C 57.699219 23.460938 57.597656 23.15625 57.488281 22.851562 C 57.121094 21.804688 56.679688 20.789062 56.164062 19.78125 C 55.945312 19.355469 55.710938 18.925781 55.460938 18.5 C 54.300781 16.527344 52.839844 14.65625 51.09375 12.90625 C 46.941406 8.753906 42.105469 6.234375 36.582031 5.355469 C 35.652344 5.203125 34.707031 5.101562 33.71875 5.046875 C 33.164062 5.015625 32.585938 5 32 5 C 31.464844 5 30.933594 5.011719 30.402344 5.042969 C 23.632812 5.390625 17.800781 8.011719 12.90625 12.90625 C 7.636719 18.179688 5 24.542969 5 32 C 5 39.453125 7.636719 45.820312 12.90625 51.09375 C 16.152344 54.332031 19.804688 56.578125 23.839844 57.816406 C 25.941406 58.460938 28.117188 58.839844 30.402344 58.957031 L 30.425781 58.957031 C 30.914062 58.984375 31.375 59 31.828125 59 L 32 59 C 32.589844 59 33.171875 58.980469 33.722656 58.953125 C 33.863281 58.945312 33.992188 58.933594 34.117188 58.925781 C 35.273438 58.84375 36.402344 58.695312 37.476562 58.484375 C 37.929688 58.398438 38.378906 58.296875 38.816406 58.191406 C 43.4375 57.03125 47.519531 54.667969 51.09375 51.09375 C 53.875 48.3125 55.921875 45.230469 57.234375 41.835938 C 58.289062 39.109375 58.875 36.183594 58.980469 33.054688 C 58.992188 32.710938 59 32.355469 59 31.996094 L 59 31.824219 C 58.988281 29.5 58.714844 27.277344 58.179688 25.132812 Z M 58.179688 25.136719 "/>
<path fill-rule="nonzero" fill="rgb(100%, 100%, 100%)" fill-opacity="1" d="M 30.757812 16 C 22.519531 16.496094 16 23.484375 16 32 C 16 40.84375 23.234375 48 32.007812 48 C 40.519531 48 47.59375 41.019531 47.996094 32.714844 L 44.175781 32.714844 C 43.773438 39.101562 38.523438 44.167969 32.109375 44.167969 C 25.433594 44.167969 19.800781 38.710938 19.800781 31.984375 C 19.800781 25.578125 25.054688 20.339844 30.757812 19.851562 Z M 32.660156 16 L 32.660156 19.847656 C 35.828125 20.050781 37.695312 21.066406 39.570312 22.648438 L 42.363281 19.933594 C 39.789062 17.664062 36.460938 16.214844 32.660156 16 Z M 43.921875 21.242188 L 41.222656 23.945312 C 42.847656 25.824219 43.917969 28.246094 44.160156 30.800781 L 47.976562 30.800781 C 47.71875 26.96875 46.234375 23.820312 43.921875 21.242188 Z M 39.0625 24.816406 L 31.007812 29.792969 L 31.015625 29.800781 C 30.25 30.238281 29.726562 31.054688 29.726562 32 C 29.726562 33.398438 30.851562 34.535156 32.238281 34.535156 C 33.214844 34.535156 34.050781 33.96875 34.46875 33.152344 L 34.472656 33.160156 Z M 39.0625 24.816406 "/>
</svg>
