<?xml version="1.0" encoding="UTF-8"?>
<svg xmlns="http://www.w3.org/2000/svg" xmlns:xlink="http://www.w3.org/1999/xlink" width="64" height="64" viewBox="0 0 64 64">
<path fill-rule="nonzero" fill="rgb(11.372549%, 53.72549%, 85.882353%)" fill-opacity="1" d="M 8.378906 1.324219 C 10.953125 1.292969 13.34375 2.648438 14.640625 4.871094 C 15.933594 7.09375 15.933594 9.839844 14.640625 12.0625 C 13.34375 14.285156 10.953125 15.640625 8.378906 15.609375 C 4.46875 15.5625 1.324219 12.378906 1.324219 8.464844 C 1.324219 4.554688 4.46875 1.371094 8.378906 1.324219 Z M 8.378906 1.324219 "/>
<path fill-rule="evenodd" fill="rgb(100%, 100%, 100%)" fill-opacity="1" d="M 8.46875 4.234375 C 6.195312 4.234375 4.328125 6.03125 4.242188 8.300781 C 5.644531 7.3125 8.03125 5.6875 8.625 5.644531 C 8.820312 5.394531 9.496094 5.191406 9.617188 5.199219 L 9.261719 5.644531 C 9.261719 5.644531 9.257812 6.09375 9.125 6.179688 C 10.347656 6.996094 10.933594 9.929688 11.183594 11.710938 L 11.078125 11.792969 C 12.101562 10.992188 12.699219 9.765625 12.699219 8.46875 C 12.699219 6.128906 10.804688 4.234375 8.46875 4.234375 Z M 8.40625 7.710938 C 8.078125 7.722656 7.410156 8.703125 6.648438 9.757812 C 6.28125 10.261719 5.808594 10.953125 5.457031 11.433594 L 5.207031 11.160156 C 5.921875 9.984375 6.816406 8.550781 6.773438 8.5 C 6.761719 8.492188 6.753906 8.484375 6.738281 8.488281 C 6.496094 8.523438 5.519531 9.738281 4.824219 10.613281 C 5.582031 11.90625 6.96875 12.699219 8.46875 12.699219 C 9.410156 12.699219 10.277344 12.386719 10.980469 11.867188 C 10.460938 10.273438 9.453125 7.730469 8.441406 7.722656 C 8.429688 7.722656 8.417969 7.710938 8.40625 7.710938 Z M 5.949219 8.121094 C 5.648438 8.121094 4.878906 8.394531 4.242188 8.636719 C 4.265625 9.269531 4.429688 9.863281 4.703125 10.394531 C 4.828125 10.199219 5.050781 9.882812 5.183594 9.6875 C 5.691406 8.941406 6.191406 8.28125 6.074219 8.144531 C 6.054688 8.121094 6.007812 8.121094 5.949219 8.121094 Z M 4.238281 8.390625 C 4.238281 8.414062 4.234375 8.441406 4.234375 8.46875 C 4.234375 8.503906 4.238281 8.535156 4.238281 8.570312 Z M 4.710938 10.410156 C 4.734375 10.464844 4.765625 10.511719 4.792969 10.5625 Z M 4.710938 10.410156 "/>
</svg>
