<?xml version="1.0" encoding="UTF-8"?>
<svg xmlns="http://www.w3.org/2000/svg" xmlns:xlink="http://www.w3.org/1999/xlink" width="64" height="64" viewBox="0 0 64 64">
<path fill-rule="nonzero" fill="rgb(36.078431%, 61.176471%, 98.039216%)" fill-opacity="1" d="M 8.464844 1.324219 C 12.410156 1.324219 15.609375 4.519531 15.609375 8.464844 C 15.609375 12.410156 12.410156 15.609375 8.464844 15.609375 C 4.519531 15.609375 1.324219 12.410156 1.324219 8.464844 C 1.324219 4.519531 4.519531 1.324219 8.464844 1.324219 Z M 8.464844 1.324219 "/>
<path fill-rule="nonzero" fill="rgb(100%, 100%, 100%)" fill-opacity="1" d="M 8.472656 4.234375 C 8.269531 4.230469 8.082031 4.347656 7.992188 4.527344 L 6.910156 6.71875 L 4.496094 7.066406 C 4.0625 7.132812 3.886719 7.667969 4.203125 7.972656 L 5.953125 9.675781 L 5.539062 12.078125 C 5.464844 12.511719 5.921875 12.839844 6.308594 12.636719 L 8.46875 11.5 L 10.628906 12.636719 C 11.015625 12.84375 11.472656 12.511719 11.398438 12.078125 L 10.984375 9.671875 L 12.730469 7.96875 C 13.042969 7.664062 12.871094 7.128906 12.4375 7.066406 L 10.019531 6.714844 L 8.941406 4.527344 C 8.851562 4.351562 8.671875 4.234375 8.472656 4.234375 Z M 8.472656 4.234375 "/>
</svg>
