<?xml version="1.0" encoding="UTF-8"?>
<svg xmlns="http://www.w3.org/2000/svg" xmlns:xlink="http://www.w3.org/1999/xlink" width="64" height="64" viewBox="0 0 64 64">
<path fill-rule="nonzero" fill="rgb(100%, 100%, 100%)" fill-opacity="1" d="M 31.996094 58.660156 C 46.722656 58.660156 58.660156 46.722656 58.660156 31.996094 C 58.660156 17.269531 46.722656 5.328125 31.996094 5.328125 C 17.269531 5.328125 5.332031 17.269531 5.332031 31.996094 C 5.332031 46.722656 17.269531 58.660156 31.996094 58.660156 Z M 31.996094 58.660156 "/>
<path fill-rule="nonzero" fill="rgb(21.176471%, 22.352941%, 28.627451%)" fill-opacity="1" d="M 32.332031 5.332031 C 35.878906 5.332031 39.390625 6.03125 42.664062 7.386719 C 45.941406 8.746094 48.917969 10.734375 51.425781 13.242188 C 53.933594 15.75 55.921875 18.726562 57.277344 22 C 58.636719 25.277344 59.332031 28.789062 59.332031 32.332031 C 59.332031 39.496094 56.488281 46.363281 51.425781 51.425781 C 46.363281 56.488281 39.492188 59.332031 32.332031 59.332031 C 19.914062 59.332031 9.519531 51.015625 6.304688 39.703125 L 16.644531 43.96875 C 17.347656 47.453125 20.453125 50.097656 24.152344 50.097656 C 28.363281 50.097656 31.792969 46.671875 31.792969 42.457031 L 31.792969 42.105469 L 40.972656 35.546875 L 41.1875 35.546875 C 46.804688 35.546875 51.367188 30.984375 51.367188 25.367188 C 51.367188 19.75 46.804688 15.1875 41.1875 15.1875 C 35.574219 15.1875 30.984375 19.75 30.984375 25.367188 L 30.984375 25.503906 L 24.585938 34.84375 L 24.152344 34.816406 C 22.558594 34.816406 21.074219 35.304688 19.859375 36.140625 L 5.332031 30.171875 C 6.496094 16.269531 18.105469 5.332031 32.332031 5.332031 Z M 22.289062 46.292969 C 24.449219 47.183594 26.933594 46.183594 27.824219 44.023438 C 28.714844 41.863281 27.6875 39.40625 25.582031 38.515625 L 22.128906 37.085938 C 23.449219 36.597656 24.933594 36.574219 26.339844 37.167969 C 27.769531 37.734375 28.878906 38.839844 29.445312 40.269531 C 30.039062 41.675781 30.039062 43.242188 29.445312 44.644531 C 28.285156 47.5625 24.855469 48.964844 21.9375 47.75 C 20.589844 47.183594 19.5625 46.15625 18.996094 44.941406 Z M 47.992188 25.367188 C 47.992188 29.121094 44.941406 32.171875 41.1875 32.171875 C 37.464844 32.171875 34.414062 29.121094 34.414062 25.367188 C 34.410156 24.476562 34.582031 23.59375 34.921875 22.769531 C 35.261719 21.945312 35.757812 21.199219 36.390625 20.566406 C 37.019531 19.9375 37.769531 19.4375 38.589844 19.097656 C 39.414062 18.757812 40.296875 18.585938 41.1875 18.589844 C 44.941406 18.589844 47.992188 21.640625 47.992188 25.367188 Z M 36.113281 25.367188 C 36.113281 28.175781 38.382812 30.46875 41.214844 30.46875 C 44.023438 30.46875 46.292969 28.175781 46.292969 25.367188 C 46.292969 22.558594 44.023438 20.265625 41.214844 20.265625 C 38.382812 20.265625 36.113281 22.558594 36.113281 25.367188 Z M 36.113281 25.367188 "/>
</svg>
