<?xml version="1.0" encoding="UTF-8"?>
<svg xmlns="http://www.w3.org/2000/svg" xmlns:xlink="http://www.w3.org/1999/xlink" width="64" height="64" viewBox="0 0 64 64">
<path fill-rule="nonzero" fill="rgb(23.529412%, 11.372549%, 40%)" fill-opacity="1" d="M 31.972656 5 C 17.070312 5.015625 5 17.097656 5 32 C 5 32.007812 5 32.019531 5 32.027344 C 5.015625 46.929688 17.097656 59 32 59 L 32.027344 59 C 46.929688 58.984375 59 46.902344 59 32 C 59 31.992188 59 31.980469 59 31.972656 C 58.984375 17.070312 46.902344 5 32 5 Z M 31.972656 5 "/>
<path fill-rule="nonzero" fill="rgb(22.745098%, 21.176471%, 43.921569%)" fill-opacity="1" d="M 52.621094 20.609375 C 52.621094 25.316406 48.804688 29.136719 44.09375 29.136719 C 39.386719 29.136719 35.570312 25.316406 35.570312 20.609375 C 35.570312 15.898438 39.386719 12.082031 44.09375 12.082031 C 48.804688 12.082031 52.621094 15.898438 52.621094 20.609375 Z M 52.621094 20.609375 "/>
<path fill-rule="nonzero" fill="rgb(90.196078%, 90.196078%, 90.196078%)" fill-opacity="1" d="M 50.632812 15.136719 C 50.917969 15.988281 51.078125 16.898438 51.078125 17.84375 C 51.078125 22.554688 47.261719 26.371094 42.550781 26.371094 C 39.925781 26.371094 37.578125 25.183594 36.015625 23.316406 C 37.148438 26.695312 40.335938 29.132812 44.09375 29.132812 C 48.804688 29.132812 52.621094 25.316406 52.621094 20.609375 C 52.621094 18.523438 51.871094 16.617188 50.632812 15.136719 Z M 50.632812 15.136719 "/>
<path fill-rule="nonzero" fill="rgb(27.45098%, 18.039216%, 47.843137%)" fill-opacity="1" d="M 8.066406 19.507812 C 6.050781 23.363281 5 27.648438 5 32 C 5 32.007812 5 32.019531 5 32.027344 C 5.007812 38.941406 7.667969 45.59375 12.433594 50.601562 L 17.71875 52.4375 L 36.523438 53.320312 L 40.777344 45.390625 C 34.257812 25.644531 15.457031 20.703125 8.066406 19.503906 Z M 8.066406 19.507812 "/>
<path fill-rule="nonzero" fill="rgb(67.45098%, 46.666667%, 42.745098%)" fill-opacity="1" d="M 56.054688 30.949219 C 50.488281 30.902344 38.035156 32.835938 27.4375 49.121094 L 45.480469 54.171875 L 47.769531 53.914062 C 54.820312 48.84375 59 40.6875 59 32 C 59 31.992188 59 31.980469 59 31.972656 C 59 31.714844 58.996094 31.460938 58.988281 31.203125 C 58.96875 31.199219 57.894531 30.96875 56.054688 30.949219 Z M 56.054688 30.949219 "/>
<path fill-rule="nonzero" fill="rgb(72.156863%, 67.843137%, 60%)" fill-opacity="1" d="M 56.054688 39.480469 C 50.488281 39.429688 38.035156 41.363281 27.4375 57.652344 L 45.960938 55.113281 C 51.746094 51.613281 56.011719 46.074219 57.910156 39.582031 C 57.429688 39.53125 56.828125 39.488281 56.054688 39.480469 Z M 56.054688 39.480469 "/>
<path fill-rule="nonzero" fill="rgb(34.117647%, 29.019608%, 36.078431%)" fill-opacity="1" d="M 52.644531 43.566406 C 37.984375 43.308594 25.03125 49.257812 25.03125 49.257812 L 24.894531 54.734375 L 46.5625 54.734375 C 50.757812 52.050781 54.128906 48.253906 56.300781 43.769531 C 55.074219 43.660156 53.855469 43.589844 52.644531 43.566406 Z M 52.644531 43.566406 "/>
<path fill-rule="nonzero" fill="rgb(19.215686%, 16.862745%, 20%)" fill-opacity="1" d="M 5.074219 33.996094 C 6.121094 48.097656 17.863281 59 32 59 L 32.027344 59 C 39.246094 58.992188 46.160156 56.09375 51.230469 50.953125 C 39.910156 52.847656 31.300781 46.214844 31.300781 46.214844 C 14.222656 34.433594 9.542969 34.539062 5.074219 33.996094 Z M 5.074219 33.996094 "/>
<path fill-rule="nonzero" fill="rgb(89.803922%, 89.803922%, 89.803922%)" fill-opacity="1" d="M 14.570312 16.894531 C 14.570312 17.867188 13.785156 18.652344 12.8125 18.652344 C 11.84375 18.652344 11.054688 17.867188 11.054688 16.894531 C 11.054688 15.925781 11.84375 15.136719 12.8125 15.136719 C 13.785156 15.136719 14.570312 15.925781 14.570312 16.894531 Z M 14.570312 16.894531 "/>
<path fill-rule="nonzero" fill="rgb(89.803922%, 89.803922%, 89.803922%)" fill-opacity="1" d="M 17.164062 21.234375 C 17.164062 21.859375 16.660156 22.363281 16.035156 22.363281 C 15.410156 22.363281 14.90625 21.859375 14.90625 21.234375 C 14.90625 20.609375 15.410156 20.105469 16.035156 20.105469 C 16.660156 20.105469 17.164062 20.609375 17.164062 21.234375 Z M 17.164062 21.234375 "/>
<path fill-rule="nonzero" fill="rgb(89.803922%, 89.803922%, 89.803922%)" fill-opacity="1" d="M 29.957031 26.917969 C 29.957031 27.542969 29.449219 28.046875 28.824219 28.046875 C 28.203125 28.046875 27.695312 27.542969 27.695312 26.917969 C 27.695312 26.292969 28.203125 25.789062 28.824219 25.789062 C 29.449219 25.789062 29.957031 26.292969 29.957031 26.917969 Z M 29.957031 26.917969 "/>
<path fill-rule="nonzero" fill="rgb(89.803922%, 89.803922%, 89.803922%)" fill-opacity="1" d="M 19.925781 13.003906 C 19.925781 13.511719 19.515625 13.925781 19.007812 13.925781 C 18.496094 13.925781 18.085938 13.511719 18.085938 13.003906 C 18.085938 12.496094 18.496094 12.082031 19.007812 12.082031 C 19.515625 12.082031 19.925781 12.496094 19.925781 13.003906 Z M 19.925781 13.003906 "/>
<path fill-rule="nonzero" fill="rgb(89.803922%, 89.803922%, 89.803922%)" fill-opacity="1" d="M 12.402344 27.859375 C 12.402344 28.230469 12.105469 28.53125 11.734375 28.53125 C 11.363281 28.53125 11.066406 28.230469 11.066406 27.859375 C 11.066406 27.492188 11.363281 27.191406 11.734375 27.191406 C 12.105469 27.191406 12.402344 27.492188 12.402344 27.859375 Z M 12.402344 27.859375 "/>
<path fill-rule="nonzero" fill="rgb(89.803922%, 89.803922%, 89.803922%)" fill-opacity="1" d="M 19.167969 19.507812 C 19.167969 19.875 18.867188 20.175781 18.5 20.175781 C 18.128906 20.175781 17.828125 19.875 17.828125 19.507812 C 17.828125 19.136719 18.128906 18.835938 18.5 18.835938 C 18.867188 18.835938 19.167969 19.136719 19.167969 19.507812 Z M 19.167969 19.507812 "/>
<path fill-rule="nonzero" fill="rgb(89.803922%, 89.803922%, 89.803922%)" fill-opacity="1" d="M 22.007812 20.925781 C 22.007812 21.296875 21.710938 21.59375 21.339844 21.59375 C 20.96875 21.59375 20.671875 21.296875 20.671875 20.925781 C 20.671875 20.554688 20.96875 20.257812 21.339844 20.257812 C 21.710938 20.257812 22.007812 20.554688 22.007812 20.925781 Z M 22.007812 20.925781 "/>
<path fill-rule="nonzero" fill="rgb(89.803922%, 89.803922%, 89.803922%)" fill-opacity="1" d="M 20.589844 30.875 C 20.589844 31.242188 20.289062 31.542969 19.921875 31.542969 C 19.550781 31.542969 19.25 31.242188 19.25 30.875 C 19.25 30.503906 19.550781 30.203125 19.921875 30.203125 C 20.289062 30.203125 20.589844 30.503906 20.589844 30.875 Z M 20.589844 30.875 "/>
</svg>
