<?xml version="1.0" encoding="UTF-8"?>
<svg xmlns="http://www.w3.org/2000/svg" xmlns:xlink="http://www.w3.org/1999/xlink" width="64" height="64" viewBox="0 0 64 64">
<defs>
<filter id="filter-remove-color" x="0%" y="0%" width="100%" height="100%">
<feColorMatrix color-interpolation-filters="sRGB" values="0 0 0 0 1 0 0 0 0 1 0 0 0 0 1 0 0 0 1 0" />
</filter>
<mask id="mask-0">
<g filter="url(#filter-remove-color)">
<rect x="-6.4" y="-6.4" width="76.8" height="76.8" fill="rgb(0%, 0%, 0%)" fill-opacity="0.1"/>
</g>
</mask>
<clipPath id="clip-0">
<rect x="0" y="0" width="17" height="17"/>
</clipPath>
<g id="source-4724" clip-path="url(#clip-0)">
<path fill-rule="nonzero" fill="rgb(0%, 0%, 0%)" fill-opacity="1" d="M 8.914062 4.761719 C 7.796875 5.664062 7.144531 7.027344 7.144531 8.464844 C 7.144531 9.90625 7.796875 11.265625 8.914062 12.171875 L 11.894531 12.171875 C 12.757812 11.128906 13.226562 9.820312 13.230469 8.464844 C 13.226562 7.113281 12.753906 5.804688 11.890625 4.761719 Z M 8.914062 4.761719 "/>
</g>
</defs>
<path fill-rule="nonzero" fill="rgb(97.647059%, 97.647059%, 97.647059%)" fill-opacity="1" d="M 15.609375 8.464844 C 15.609375 12.410156 12.410156 15.609375 8.464844 15.609375 C 4.519531 15.609375 1.324219 12.410156 1.324219 8.464844 C 1.324219 4.519531 4.519531 1.324219 8.464844 1.324219 C 12.410156 1.324219 15.609375 4.519531 15.609375 8.464844 Z M 15.609375 8.464844 "/>
<path fill-rule="evenodd" fill="rgb(27.843137%, 49.019608%, 75.686275%)" fill-opacity="1" d="M 1.851562 7.671875 L 5.292969 7.671875 C 5.730469 7.671875 6.085938 8.027344 6.085938 8.464844 C 6.085938 8.90625 5.730469 9.261719 5.292969 9.261719 L 1.851562 9.261719 C 1.414062 9.261719 1.058594 8.90625 1.058594 8.464844 C 1.058594 8.027344 1.414062 7.671875 1.851562 7.671875 Z M 1.851562 7.671875 "/>
<path fill-rule="nonzero" fill="rgb(27.843137%, 49.019608%, 75.686275%)" fill-opacity="1" d="M 7.59375 4.761719 C 6.472656 5.664062 5.820312 7.027344 5.820312 8.464844 C 5.820312 9.90625 6.472656 11.265625 7.59375 12.171875 L 13.570312 12.171875 C 14.691406 11.269531 15.34375 9.90625 15.34375 8.464844 C 15.34375 7.027344 14.691406 5.664062 13.570312 4.761719 Z M 7.59375 4.761719 "/>
<g mask="url(#mask-0)">
<use xlink:href="#source-4724"/>
</g>
<path fill-rule="nonzero" fill="rgb(36.470588%, 63.921569%, 93.333333%)" fill-opacity="1" d="M 12.433594 8.464844 C 12.433594 11.390625 10.066406 13.757812 7.144531 13.757812 C 4.222656 13.757812 1.851562 11.390625 1.851562 8.464844 C 1.851562 5.542969 4.222656 3.175781 7.144531 3.175781 C 10.066406 3.175781 12.433594 5.542969 12.433594 8.464844 Z M 12.433594 8.464844 "/>
<path fill-rule="nonzero" fill="rgb(24.313725%, 45.490196%, 71.764706%)" fill-opacity="1" d="M 7.144531 4.234375 C 6.160156 4.234375 5.207031 4.578125 4.449219 5.203125 L 4.449219 11.730469 C 5.207031 12.355469 6.160156 12.699219 7.144531 12.699219 C 9.480469 12.699219 11.375 10.804688 11.375 8.46875 C 11.375 6.128906 9.480469 4.234375 7.144531 4.234375 Z M 7.144531 4.234375 "/>
<path fill-rule="nonzero" fill="rgb(24.313725%, 45.490196%, 71.764706%)" fill-opacity="1" d="M 10.847656 8.464844 C 10.847656 10.511719 9.1875 12.171875 7.144531 12.171875 C 5.097656 12.171875 3.441406 10.511719 3.441406 8.464844 C 3.441406 6.421875 5.097656 4.761719 7.144531 4.761719 C 9.1875 4.761719 10.847656 6.421875 10.847656 8.464844 Z M 10.847656 8.464844 "/>
<path fill-rule="nonzero" fill="rgb(100%, 100%, 100%)" fill-opacity="1" d="M 8.347656 6.53125 L 8.347656 7.078125 C 8.136719 6.976562 7.9375 6.902344 7.75 6.851562 C 7.558594 6.800781 7.378906 6.777344 7.203125 6.777344 C 6.898438 6.777344 6.664062 6.835938 6.496094 6.953125 C 6.332031 7.070312 6.25 7.238281 6.25 7.457031 C 6.25 7.640625 6.304688 7.777344 6.414062 7.871094 C 6.523438 7.964844 6.734375 8.039062 7.039062 8.097656 L 7.378906 8.167969 C 7.792969 8.246094 8.101562 8.386719 8.300781 8.585938 C 8.5 8.785156 8.597656 9.054688 8.597656 9.390625 C 8.597656 9.789062 8.464844 10.09375 8.195312 10.300781 C 7.925781 10.507812 7.535156 10.609375 7.015625 10.609375 C 6.820312 10.609375 6.609375 10.589844 6.390625 10.542969 C 6.167969 10.5 5.941406 10.433594 5.703125 10.347656 L 5.703125 9.773438 C 5.933594 9.898438 6.15625 9.996094 6.371094 10.058594 C 6.589844 10.125 6.804688 10.15625 7.015625 10.15625 C 7.335938 10.15625 7.582031 10.09375 7.753906 9.96875 C 7.925781 9.84375 8.015625 9.664062 8.015625 9.429688 C 8.015625 9.226562 7.953125 9.070312 7.824219 8.957031 C 7.703125 8.839844 7.5 8.753906 7.214844 8.699219 L 6.875 8.632812 C 6.457031 8.546875 6.15625 8.417969 5.96875 8.242188 C 5.78125 8.0625 5.6875 7.816406 5.6875 7.5 C 5.6875 7.136719 5.816406 6.847656 6.074219 6.636719 C 6.332031 6.425781 6.6875 6.320312 7.140625 6.320312 C 7.332031 6.320312 7.53125 6.339844 7.730469 6.375 C 7.933594 6.410156 8.140625 6.460938 8.347656 6.53125 Z M 8.347656 6.53125 "/>
</svg>
