<?xml version="1.0" encoding="UTF-8"?>
<svg xmlns="http://www.w3.org/2000/svg" xmlns:xlink="http://www.w3.org/1999/xlink" width="64" height="64" viewBox="0 0 64 64">
<path fill-rule="nonzero" fill="rgb(94.901961%, 94.901961%, 94.901961%)" fill-opacity="1" d="M 59 32 C 59 46.910156 46.910156 59 32 59 C 17.089844 59 5 46.910156 5 32 C 5 17.089844 17.089844 5 32 5 C 46.910156 5 59 17.089844 59 32 Z M 59 32 "/>
<path fill-rule="nonzero" fill="rgb(94.901961%, 23.921569%, 20.784314%)" fill-opacity="1" d="M 24.957031 20.261719 C 21.054688 20.261719 17.914062 22.609375 17.914062 28.476562 C 17.914062 35.519531 24.957031 48.433594 32 48.433594 C 39.042969 48.433594 46.085938 35.519531 46.085938 28.476562 C 46.085938 22.609375 42.945312 20.261719 39.042969 20.261719 Z M 24.957031 20.261719 "/>
<path fill-rule="nonzero" fill="rgb(47.058824%, 70.980392%, 25.098039%)" fill-opacity="1" d="M 32 14.390625 C 32 14.390625 29.652344 15.566406 29.652344 19.085938 C 28.476562 16.738281 26.082031 16.738281 23.78125 16.738281 C 23.78125 19.085938 24.957031 20.261719 27.304688 21.433594 C 24.957031 22.609375 23.78125 23.78125 23.78125 26.128906 C 26.082031 26.128906 28.476562 26.128906 29.652344 23.78125 C 29.652344 27.304688 32 28.476562 32 28.476562 C 32 28.476562 34.347656 27.304688 34.347656 23.78125 C 35.519531 26.128906 37.917969 26.128906 40.21875 26.128906 C 40.21875 23.78125 39.042969 22.609375 36.695312 21.433594 C 39.042969 20.261719 40.21875 19.085938 40.21875 16.738281 C 37.917969 16.738281 35.519531 16.738281 34.347656 19.085938 C 34.347656 15.566406 32 14.390625 32 14.390625 Z M 32 14.390625 "/>
<path fill-rule="nonzero" fill="rgb(93.333333%, 92.156863%, 80.392157%)" fill-opacity="1" d="M 33.171875 43.738281 C 33.171875 44.386719 32.648438 44.914062 32 44.914062 C 31.351562 44.914062 30.824219 44.386719 30.824219 43.738281 C 30.824219 43.089844 31.351562 42.566406 32 42.566406 C 32.648438 42.566406 33.171875 43.089844 33.171875 43.738281 Z M 33.171875 43.738281 "/>
<path fill-rule="nonzero" fill="rgb(93.333333%, 92.156863%, 80.392157%)" fill-opacity="1" d="M 28.476562 39.042969 C 28.476562 39.691406 27.953125 40.21875 27.304688 40.21875 C 26.65625 40.21875 26.128906 39.691406 26.128906 39.042969 C 26.128906 38.394531 26.65625 37.871094 27.304688 37.871094 C 27.953125 37.871094 28.476562 38.394531 28.476562 39.042969 Z M 28.476562 39.042969 "/>
<path fill-rule="nonzero" fill="rgb(93.333333%, 92.156863%, 80.392157%)" fill-opacity="1" d="M 37.871094 39.042969 C 37.871094 39.691406 37.34375 40.21875 36.695312 40.21875 C 36.046875 40.21875 35.519531 39.691406 35.519531 39.042969 C 35.519531 38.394531 36.046875 37.871094 36.695312 37.871094 C 37.34375 37.871094 37.871094 38.394531 37.871094 39.042969 Z M 37.871094 39.042969 "/>
<path fill-rule="nonzero" fill="rgb(93.333333%, 92.156863%, 80.392157%)" fill-opacity="1" d="M 33.171875 36.695312 C 33.171875 37.34375 32.648438 37.871094 32 37.871094 C 31.351562 37.871094 30.824219 37.34375 30.824219 36.695312 C 30.824219 36.046875 31.351562 35.519531 32 35.519531 C 32.648438 35.519531 33.171875 36.046875 33.171875 36.695312 Z M 33.171875 36.695312 "/>
<path fill-rule="nonzero" fill="rgb(93.333333%, 92.156863%, 80.392157%)" fill-opacity="1" d="M 40.21875 34.347656 C 40.21875 34.996094 39.691406 35.519531 39.042969 35.519531 C 38.394531 35.519531 37.871094 34.996094 37.871094 34.347656 C 37.871094 33.699219 38.394531 33.171875 39.042969 33.171875 C 39.691406 33.171875 40.21875 33.699219 40.21875 34.347656 Z M 40.21875 34.347656 "/>
<path fill-rule="nonzero" fill="rgb(93.333333%, 92.156863%, 80.392157%)" fill-opacity="1" d="M 26.128906 34.347656 C 26.128906 34.996094 25.605469 35.519531 24.957031 35.519531 C 24.308594 35.519531 23.78125 34.996094 23.78125 34.347656 C 23.78125 33.699219 24.308594 33.171875 24.957031 33.171875 C 25.605469 33.171875 26.128906 33.699219 26.128906 34.347656 Z M 26.128906 34.347656 "/>
<path fill-rule="nonzero" fill="rgb(93.333333%, 92.156863%, 80.392157%)" fill-opacity="1" d="M 23.78125 29.652344 C 23.78125 30.300781 23.257812 30.824219 22.609375 30.824219 C 21.960938 30.824219 21.433594 30.300781 21.433594 29.652344 C 21.433594 29.003906 21.960938 28.476562 22.609375 28.476562 C 23.257812 28.476562 23.78125 29.003906 23.78125 29.652344 Z M 23.78125 29.652344 "/>
<path fill-rule="nonzero" fill="rgb(93.333333%, 92.156863%, 80.392157%)" fill-opacity="1" d="M 42.566406 29.652344 C 42.566406 30.300781 42.039062 30.824219 41.390625 30.824219 C 40.742188 30.824219 40.21875 30.300781 40.21875 29.652344 C 40.21875 29.003906 40.742188 28.476562 41.390625 28.476562 C 42.039062 28.476562 42.566406 29.003906 42.566406 29.652344 Z M 42.566406 29.652344 "/>
<path fill-rule="nonzero" fill="rgb(93.333333%, 92.156863%, 80.392157%)" fill-opacity="1" d="M 29.652344 30.824219 C 29.652344 31.472656 29.125 32 28.476562 32 C 27.828125 32 27.304688 31.472656 27.304688 30.824219 C 27.304688 30.175781 27.828125 29.652344 28.476562 29.652344 C 29.125 29.652344 29.652344 30.175781 29.652344 30.824219 Z M 29.652344 30.824219 "/>
<path fill-rule="nonzero" fill="rgb(93.333333%, 92.156863%, 80.392157%)" fill-opacity="1" d="M 36.695312 30.824219 C 36.695312 31.472656 36.167969 32 35.519531 32 C 34.875 32 34.347656 31.472656 34.347656 30.824219 C 34.347656 30.175781 34.875 29.652344 35.519531 29.652344 C 36.167969 29.652344 36.695312 30.175781 36.695312 30.824219 Z M 36.695312 30.824219 "/>
<path fill-rule="nonzero" fill="rgb(17.254902%, 56.862745%, 28.235294%)" fill-opacity="1" d="M 34.347656 21.433594 C 34.347656 22.730469 33.296875 23.78125 32 23.78125 C 30.703125 23.78125 29.652344 22.730469 29.652344 21.433594 C 29.652344 20.136719 30.703125 19.085938 32 19.085938 C 33.296875 19.085938 34.347656 20.136719 34.347656 21.433594 Z M 34.347656 21.433594 "/>
<path fill-rule="nonzero" fill="rgb(36.078431%, 80.392157%, 48.627451%)" fill-opacity="1" d="M 33.171875 21.433594 C 33.171875 22.082031 32.648438 22.609375 32 22.609375 C 31.351562 22.609375 30.824219 22.082031 30.824219 21.433594 C 30.824219 20.785156 31.351562 20.261719 32 20.261719 C 32.648438 20.261719 33.171875 20.785156 33.171875 21.433594 Z M 33.171875 21.433594 "/>
</svg>
