<?xml version="1.0" encoding="UTF-8"?>
<svg xmlns="http://www.w3.org/2000/svg" xmlns:xlink="http://www.w3.org/1999/xlink" width="64" height="64" viewBox="0 0 64 64">
<path fill-rule="nonzero" fill="rgb(97.647059%, 97.647059%, 97.647059%)" fill-opacity="1" d="M 15.609375 8.464844 C 15.609375 12.410156 12.410156 15.609375 8.464844 15.609375 C 4.519531 15.609375 1.324219 12.410156 1.324219 8.464844 C 1.324219 4.519531 4.519531 1.324219 8.464844 1.324219 C 12.410156 1.324219 15.609375 4.519531 15.609375 8.464844 Z M 15.609375 8.464844 "/>
<path fill-rule="nonzero" fill="rgb(30.196078%, 30.196078%, 30.196078%)" fill-opacity="1" d="M 7 4.398438 C 6.910156 4.398438 6.839844 4.46875 6.839844 4.558594 L 6.839844 7.816406 C 6.839844 7.90625 6.910156 7.980469 7 7.980469 L 9.511719 7.980469 L 10.421875 8.789062 C 10.539062 8.8125 10.582031 8.746094 10.582031 8.625 L 10.582031 7.980469 L 12.535156 7.980469 C 12.578125 7.980469 12.621094 7.960938 12.652344 7.929688 C 12.683594 7.898438 12.699219 7.859375 12.699219 7.816406 L 12.699219 4.558594 C 12.699219 4.515625 12.683594 4.472656 12.652344 4.445312 C 12.621094 4.414062 12.578125 4.398438 12.535156 4.398438 Z M 7 4.398438 "/>
<path fill-rule="nonzero" fill="rgb(100%, 100%, 100%)" fill-opacity="1" d="M 9.59375 4.949219 C 9.441406 4.949219 9.273438 4.992188 9.089844 5.078125 C 8.585938 5.320312 8.570312 5.824219 8.644531 6.902344 C 8.664062 7.132812 8.535156 7.304688 8.34375 7.554688 L 8.484375 7.71875 L 8.632812 7.554688 C 8.65625 7.511719 8.679688 7.472656 8.707031 7.433594 C 8.816406 7.28125 8.816406 7.273438 8.816406 7.171875 C 8.820312 6.984375 8.824219 6.902344 8.890625 6.835938 C 8.855469 6.792969 8.816406 6.75 8.816406 6.699219 C 8.8125 6.613281 8.871094 6.570312 8.945312 6.511719 C 8.882812 6.441406 8.808594 6.363281 8.808594 6.203125 C 8.808594 6.003906 8.90625 5.835938 9.03125 5.835938 C 9.152344 5.835938 9.308594 5.976562 9.308594 6.175781 C 9.308594 6.21875 9.300781 6.261719 9.285156 6.300781 C 9.371094 6.285156 9.464844 6.273438 9.558594 6.292969 C 9.550781 6.257812 9.546875 6.222656 9.546875 6.183594 C 9.546875 5.964844 9.703125 5.765625 9.902344 5.765625 C 10.097656 5.765625 10.257812 5.964844 10.257812 6.183594 C 10.257812 6.304688 10.210938 6.417969 10.121094 6.496094 C 10.1875 6.527344 10.234375 6.566406 10.230469 6.632812 C 10.222656 6.707031 10.199219 6.777344 10.164062 6.839844 C 10.214844 6.902344 10.234375 6.992188 10.339844 7.148438 C 10.4375 7.285156 10.464844 7.398438 10.523438 7.554688 L 10.859375 7.636719 L 11.082031 7.238281 C 10.929688 7.039062 10.828125 6.8125 10.78125 6.570312 C 10.660156 5.960938 10.84375 5.792969 10.453125 5.28125 C 10.242188 5.007812 9.855469 4.949219 9.59375 4.949219 M 9.890625 6.027344 C 9.789062 6.027344 9.703125 6.125 9.703125 6.238281 C 9.703125 6.285156 9.71875 6.332031 9.742188 6.367188 C 9.773438 6.386719 9.804688 6.402344 9.839844 6.410156 C 9.875 6.421875 9.910156 6.433594 9.945312 6.441406 C 10.023438 6.414062 10.074219 6.332031 10.074219 6.238281 C 10.074219 6.125 9.992188 6.027344 9.890625 6.027344 Z M 9.039062 6.039062 L 9.023438 6.039062 C 8.945312 6.046875 8.894531 6.148438 8.90625 6.265625 C 8.917969 6.351562 8.960938 6.425781 9.019531 6.453125 C 9.0625 6.414062 9.121094 6.363281 9.179688 6.335938 C 9.1875 6.300781 9.1875 6.269531 9.183594 6.234375 C 9.171875 6.128906 9.109375 6.042969 9.039062 6.039062 Z M 9.039062 6.039062 "/>
<path fill-rule="nonzero" fill="rgb(47.843137%, 34.901961%, 70.980392%)" fill-opacity="1" d="M 4.394531 6.839844 L 11.234375 6.839844 C 11.324219 6.839844 11.398438 6.914062 11.398438 7.003906 L 11.398438 11.234375 C 11.398438 11.324219 11.324219 11.398438 11.234375 11.398438 L 4.394531 11.398438 C 4.304688 11.398438 4.234375 11.324219 4.234375 11.234375 L 4.234375 7.003906 C 4.234375 6.914062 4.304688 6.839844 4.394531 6.839844 Z M 4.394531 6.839844 "/>
<path fill-rule="nonzero" fill="rgb(47.843137%, 34.901961%, 70.980392%)" fill-opacity="1" d="M 5.863281 9.761719 L 7.652344 9.761719 C 7.742188 9.761719 7.839844 9.839844 7.816406 9.925781 L 7.503906 11.0625 C 7.476562 11.148438 7.394531 11.167969 7.328125 11.226562 L 5.863281 12.53125 C 5.746094 12.554688 5.699219 12.488281 5.699219 12.367188 L 5.699219 9.925781 C 5.699219 9.835938 5.773438 9.761719 5.863281 9.761719 Z M 5.863281 9.761719 "/>
<path fill-rule="nonzero" fill="rgb(100%, 100%, 100%)" fill-opacity="1" d="M 6.675781 8.140625 L 7.328125 8.140625 L 7.328125 10.09375 L 6.675781 10.09375 Z M 6.675781 8.140625 "/>
<path fill-rule="nonzero" fill="rgb(100%, 100%, 100%)" fill-opacity="1" d="M 8.304688 8.140625 L 8.953125 8.140625 L 8.953125 10.09375 L 8.304688 10.09375 Z M 8.304688 8.140625 "/>
</svg>
