<?xml version="1.0" encoding="UTF-8"?>
<svg xmlns="http://www.w3.org/2000/svg" xmlns:xlink="http://www.w3.org/1999/xlink" width="64" height="64" viewBox="0 0 64 64">
<defs>
<filter id="filter-remove-color" x="0%" y="0%" width="100%" height="100%">
<feColorMatrix color-interpolation-filters="sRGB" values="0 0 0 0 1 0 0 0 0 1 0 0 0 0 1 0 0 0 1 0" />
</filter>
<mask id="mask-0">
<g filter="url(#filter-remove-color)">
<rect x="-6.4" y="-6.4" width="76.8" height="76.8" fill="rgb(0%, 0%, 0%)" fill-opacity="0.15"/>
</g>
</mask>
<clipPath id="clip-0">
<rect x="0" y="0" width="17" height="17"/>
</clipPath>
<g id="source-10093" clip-path="url(#clip-0)">
<path fill-rule="nonzero" fill="rgb(0%, 0%, 0%)" fill-opacity="1" d="M 8.46875 2.644531 C 5.253906 2.640625 2.644531 5.25 2.644531 8.464844 C 2.648438 10.207031 3.429688 11.855469 4.777344 12.960938 L 5.691406 12.960938 C 6.527344 13.476562 7.484375 13.753906 8.46875 13.753906 C 9.449219 13.753906 10.410156 13.480469 11.246094 12.960938 L 12.15625 12.960938 C 13.503906 11.855469 14.285156 10.207031 14.285156 8.464844 C 14.285156 5.25 11.679688 2.644531 8.46875 2.644531 Z M 8.46875 2.644531 "/>
</g>
</defs>
<path fill-rule="nonzero" fill="rgb(95.686275%, 81.568627%, 20.784314%)" fill-opacity="1" d="M 15.609375 8.460938 C 15.609375 12.40625 12.410156 15.605469 8.464844 15.605469 C 4.519531 15.605469 1.324219 12.40625 1.324219 8.460938 C 1.324219 4.515625 4.519531 1.316406 8.464844 1.316406 C 12.410156 1.316406 15.609375 4.515625 15.609375 8.460938 Z M 15.609375 8.460938 "/>
<g mask="url(#mask-0)">
<use xlink:href="#source-10093"/>
</g>
<path fill-rule="nonzero" fill="rgb(100%, 100%, 100%)" fill-opacity="1" d="M 9.742188 9.40625 C 9.445312 9.8125 8.972656 10.050781 8.46875 10.050781 C 7.964844 10.050781 7.488281 9.8125 7.191406 9.40625 C 5.734375 9.75 4.765625 10.640625 4.761719 11.636719 L 12.171875 11.636719 C 12.167969 10.640625 11.199219 9.75 9.742188 9.40625 Z M 9.742188 9.40625 "/>
<path fill-rule="nonzero" fill="rgb(100%, 100%, 100%)" fill-opacity="1" d="M 10.054688 6.082031 C 10.054688 6.960938 9.34375 7.671875 8.46875 7.671875 C 7.589844 7.671875 6.878906 6.960938 6.878906 6.082031 C 6.878906 5.207031 7.589844 4.496094 8.46875 4.496094 C 9.34375 4.496094 10.054688 5.207031 10.054688 6.082031 Z M 10.054688 6.082031 "/>
<path fill-rule="nonzero" fill="rgb(100%, 100%, 100%)" fill-opacity="1" d="M 6.878906 6.082031 C 6.878906 7.542969 7.589844 8.726562 8.46875 8.726562 C 9.34375 8.730469 10.054688 7.542969 10.054688 6.082031 Z M 6.878906 6.082031 "/>
</svg>
