<?xml version="1.0" encoding="UTF-8"?>
<svg xmlns="http://www.w3.org/2000/svg" xmlns:xlink="http://www.w3.org/1999/xlink" width="64" height="64" viewBox="0 0 64 64">
<path fill-rule="nonzero" fill="rgb(58.431373%, 45.882353%, 80.392157%)" fill-opacity="1" d="M 15.609375 8.464844 C 15.609375 12.410156 12.410156 15.609375 8.464844 15.609375 C 4.519531 15.609375 1.324219 12.410156 1.324219 8.464844 C 1.324219 4.519531 4.519531 1.324219 8.464844 1.324219 C 12.410156 1.324219 15.609375 4.519531 15.609375 8.464844 Z M 15.609375 8.464844 "/>
<path fill-rule="nonzero" fill="rgb(100%, 100%, 100%)" fill-opacity="1" d="M 8.796875 5.488281 C 8.710938 5.488281 8.625 5.523438 8.5625 5.585938 C 8.5 5.648438 8.464844 5.734375 8.464844 5.820312 L 8.464844 6.8125 C 8.464844 6.996094 8.613281 7.144531 8.796875 7.144531 L 10.449219 7.144531 L 8.464844 8.796875 L 8.464844 10.121094 C 8.464844 10.304688 8.613281 10.449219 8.796875 10.449219 L 12.105469 10.449219 C 12.289062 10.449219 12.433594 10.304688 12.433594 10.121094 L 12.433594 9.128906 C 12.433594 9.039062 12.402344 8.957031 12.339844 8.894531 C 12.277344 8.832031 12.191406 8.796875 12.105469 8.796875 L 10.449219 8.796875 L 12.433594 7.144531 L 12.433594 5.820312 C 12.433594 5.734375 12.402344 5.648438 12.339844 5.585938 C 12.277344 5.523438 12.191406 5.488281 12.105469 5.488281 Z M 4.828125 8.464844 C 4.742188 8.464844 4.65625 8.5 4.59375 8.5625 C 4.53125 8.625 4.496094 8.710938 4.496094 8.796875 L 4.496094 9.128906 C 4.496094 9.3125 4.644531 9.46875 4.828125 9.457031 L 5.488281 9.457031 L 4.496094 10.449219 L 4.496094 11.113281 C 4.496094 11.296875 4.644531 11.441406 4.828125 11.441406 L 6.480469 11.441406 C 6.664062 11.441406 6.8125 11.296875 6.8125 11.113281 L 6.8125 10.78125 C 6.8125 10.695312 6.777344 10.609375 6.714844 10.546875 C 6.652344 10.484375 6.570312 10.449219 6.480469 10.449219 L 5.820312 10.449219 L 6.8125 9.457031 L 6.8125 8.796875 C 6.8125 8.710938 6.777344 8.625 6.714844 8.5625 C 6.652344 8.5 6.570312 8.464844 6.480469 8.464844 Z M 4.828125 8.464844 "/>
</svg>
