<?xml version="1.0" encoding="UTF-8"?>
<svg xmlns="http://www.w3.org/2000/svg" xmlns:xlink="http://www.w3.org/1999/xlink" width="64" height="64" viewBox="0 0 64 64">
<defs>
<filter id="filter-remove-color" x="0%" y="0%" width="100%" height="100%">
<feColorMatrix color-interpolation-filters="sRGB" values="0 0 0 0 1 0 0 0 0 1 0 0 0 0 1 0 0 0 1 0" />
</filter>
<mask id="mask-0">
<g filter="url(#filter-remove-color)">
<rect x="-6.4" y="-6.4" width="76.8" height="76.8" fill="rgb(0%, 0%, 0%)" fill-opacity="0.2"/>
</g>
</mask>
<clipPath id="clip-0">
<rect x="0" y="0" width="17" height="17"/>
</clipPath>
<g id="source-3243" clip-path="url(#clip-0)">
<path fill-rule="nonzero" fill="rgb(100%, 100%, 100%)" fill-opacity="1" d="M 8.46875 2.109375 C 4.960938 2.109375 2.117188 4.953125 2.117188 8.460938 C 2.117188 11.96875 4.960938 14.808594 8.46875 14.808594 C 11.972656 14.808594 14.816406 11.96875 14.816406 8.460938 C 14.816406 4.953125 11.972656 2.109375 8.46875 2.109375 Z M 8.46875 2.640625 C 11.679688 2.640625 14.285156 5.246094 14.285156 8.460938 C 14.289062 11.675781 11.683594 14.28125 8.46875 14.28125 C 5.253906 14.28125 2.644531 11.675781 2.644531 8.460938 C 2.644531 5.246094 5.25 2.640625 8.464844 2.640625 Z M 8.46875 2.640625 "/>
</g>
</defs>
<path fill-rule="nonzero" fill="rgb(21.960784%, 53.72549%, 91.372549%)" fill-opacity="1" d="M 15.609375 8.460938 C 15.609375 12.40625 12.410156 15.605469 8.464844 15.605469 C 4.519531 15.605469 1.324219 12.40625 1.324219 8.460938 C 1.324219 4.515625 4.519531 1.316406 8.464844 1.316406 C 12.410156 1.316406 15.609375 4.515625 15.609375 8.460938 Z M 15.609375 8.460938 "/>
<path fill-rule="nonzero" fill="rgb(98.823529%, 98.823529%, 98.823529%)" fill-opacity="0.059" d="M 7.484375 2.644531 C 7.316406 2.671875 7.152344 2.707031 6.992188 2.75 L 6.992188 4.527344 L 5.023438 4.527344 L 5.023438 3.675781 C 4.851562 3.800781 4.6875 3.933594 4.53125 4.070312 L 4.53125 4.527344 L 4.074219 4.527344 C 3.933594 4.683594 3.800781 4.847656 3.675781 5.019531 L 4.53125 5.019531 L 4.53125 6.988281 L 2.757812 6.988281 C 2.714844 7.148438 2.679688 7.3125 2.652344 7.480469 L 4.53125 7.480469 L 4.53125 9.445312 L 2.644531 9.445312 C 2.675781 9.613281 2.710938 9.777344 2.753906 9.9375 L 4.53125 9.9375 L 4.53125 11.90625 L 3.679688 11.90625 C 3.804688 12.078125 3.933594 12.242188 4.074219 12.398438 L 4.53125 12.398438 L 4.53125 12.855469 C 4.6875 12.996094 4.851562 13.128906 5.023438 13.253906 L 5.023438 12.398438 L 6.992188 12.398438 L 6.992188 14.171875 C 7.152344 14.214844 7.316406 14.25 7.484375 14.277344 L 7.484375 12.398438 L 9.449219 12.398438 L 9.449219 14.285156 C 9.617188 14.253906 9.78125 14.21875 9.941406 14.175781 L 9.941406 12.398438 L 11.910156 12.398438 L 11.910156 13.25 C 12.082031 13.128906 12.246094 12.996094 12.402344 12.855469 L 12.402344 12.398438 L 12.859375 12.398438 C 13 12.242188 13.132812 12.078125 13.253906 11.90625 L 12.402344 11.90625 L 12.402344 9.9375 L 14.175781 9.9375 C 14.21875 9.777344 14.253906 9.613281 14.28125 9.445312 L 12.402344 9.445312 L 12.402344 7.480469 L 14.285156 7.480469 C 14.257812 7.3125 14.222656 7.148438 14.179688 6.988281 L 12.402344 6.988281 L 12.402344 5.019531 L 13.253906 5.019531 C 13.128906 4.847656 12.996094 4.683594 12.855469 4.527344 L 12.402344 4.527344 L 12.402344 4.070312 C 12.246094 3.929688 12.082031 3.796875 11.910156 3.675781 L 11.910156 4.527344 L 9.941406 4.527344 L 9.941406 2.753906 C 9.78125 2.710938 9.617188 2.675781 9.449219 2.648438 L 9.449219 4.527344 L 7.484375 4.527344 Z M 5.023438 5.019531 L 6.988281 5.019531 L 6.988281 6.988281 L 5.023438 6.988281 Z M 7.484375 5.019531 L 9.449219 5.019531 L 9.449219 6.988281 L 7.484375 6.988281 Z M 9.941406 5.019531 L 11.910156 5.019531 L 11.910156 6.988281 L 9.941406 6.988281 Z M 5.023438 7.480469 L 6.988281 7.480469 L 6.988281 9.445312 L 5.023438 9.445312 Z M 7.484375 7.480469 L 9.449219 7.480469 L 9.449219 9.445312 L 7.484375 9.445312 Z M 9.941406 7.480469 L 11.910156 7.480469 L 11.910156 9.445312 L 9.941406 9.445312 Z M 5.023438 9.9375 L 6.988281 9.9375 L 6.988281 11.90625 L 5.023438 11.90625 Z M 7.484375 9.9375 L 9.449219 9.9375 L 9.449219 11.90625 L 7.484375 11.90625 Z M 9.941406 9.9375 L 11.910156 9.9375 L 11.910156 11.90625 L 9.941406 11.90625 Z M 9.941406 9.9375 "/>
<g mask="url(#mask-0)">
<use xlink:href="#source-3243"/>
</g>
<path fill-rule="evenodd" fill="rgb(100%, 100%, 100%)" fill-opacity="1" d="M 9.15625 5.316406 C 8.71875 5.351562 8.257812 5.519531 7.835938 5.730469 C 8.675781 5.730469 9.097656 6.148438 9.515625 6.570312 L 10.355469 7.410156 L 10.355469 7.832031 L 10.777344 8.253906 L 12.039062 6.992188 L 11.617188 6.570312 L 11.199219 6.570312 L 10.359375 5.730469 C 10.019531 5.390625 9.597656 5.285156 9.15625 5.316406 Z M 9.515625 6.570312 L 7.835938 8.253906 L 7.417969 8.253906 L 4.894531 10.773438 L 5.734375 11.613281 L 8.257812 9.09375 L 8.257812 8.675781 L 9.9375 6.992188 Z M 9.515625 6.570312 "/>
</svg>
