<?xml version="1.0" encoding="UTF-8"?>
<svg xmlns="http://www.w3.org/2000/svg" xmlns:xlink="http://www.w3.org/1999/xlink" width="64" height="64" viewBox="0 0 64 64">
<path fill-rule="nonzero" fill="rgb(29.411765%, 57.254902%, 83.921569%)" fill-opacity="1" d="M 8.378906 1.324219 C 10.953125 1.289062 13.347656 2.644531 14.644531 4.867188 C 15.941406 7.089844 15.941406 9.839844 14.644531 12.066406 C 13.347656 14.289062 10.953125 15.644531 8.378906 15.609375 C 4.472656 15.558594 1.328125 12.375 1.328125 8.464844 C 1.328125 4.558594 4.472656 1.375 8.378906 1.324219 Z M 8.378906 1.324219 "/>
<path fill-rule="nonzero" fill="rgb(100%, 100%, 100%)" fill-opacity="1" d="M 8.324219 4.234375 C 7.25 4.269531 6.230469 4.710938 5.46875 5.472656 C 3.964844 6.980469 3.816406 9.375 5.125 11.0625 L 6.015625 10.171875 C 5.1875 8.984375 5.332031 7.375 6.351562 6.351562 C 7.167969 5.539062 8.378906 5.269531 9.464844 5.652344 L 9.464844 6.722656 L 10.175781 6.011719 L 10.519531 5.664062 L 11.0625 5.125 C 10.28125 4.519531 9.3125 4.203125 8.324219 4.234375 Z M 11.808594 5.871094 L 10.917969 6.761719 C 11.742188 7.949219 11.601562 9.558594 10.582031 10.582031 C 9.765625 11.394531 8.554688 11.664062 7.46875 11.28125 L 7.46875 10.210938 L 5.871094 11.808594 C 7.554688 13.117188 9.953125 12.96875 11.464844 11.460938 C 12.96875 9.953125 13.117188 7.558594 11.808594 5.871094 Z M 11.808594 5.871094 "/>
</svg>
