<?xml version="1.0" encoding="UTF-8"?>
<svg xmlns="http://www.w3.org/2000/svg" xmlns:xlink="http://www.w3.org/1999/xlink" width="64" height="64" viewBox="0 0 64 64">
<path fill-rule="nonzero" fill="rgb(30.588235%, 60%, 95.294118%)" fill-opacity="1" d="M 15.609375 8.460938 C 15.609375 12.40625 12.410156 15.605469 8.464844 15.605469 C 4.519531 15.605469 1.324219 12.40625 1.324219 8.460938 C 1.324219 4.515625 4.519531 1.316406 8.464844 1.316406 C 12.410156 1.316406 15.609375 4.515625 15.609375 8.460938 Z M 15.609375 8.460938 "/>
<path fill-rule="nonzero" fill="rgb(100%, 100%, 100%)" fill-opacity="1" d="M 9.742188 9.800781 C 9.445312 10.207031 8.972656 10.449219 8.46875 10.449219 C 7.964844 10.449219 7.488281 10.207031 7.191406 9.804688 C 5.734375 10.144531 4.765625 11.039062 4.761719 12.035156 L 12.171875 12.035156 C 12.167969 11.039062 11.199219 10.144531 9.742188 9.800781 Z M 9.742188 9.800781 "/>
<path fill-rule="nonzero" fill="rgb(100%, 100%, 100%)" fill-opacity="1" d="M 10.054688 6.480469 C 10.054688 7.355469 9.34375 8.066406 8.46875 8.066406 C 7.589844 8.066406 6.878906 7.355469 6.878906 6.480469 C 6.878906 5.601562 7.589844 4.894531 8.46875 4.894531 C 9.34375 4.894531 10.054688 5.601562 10.054688 6.480469 Z M 10.054688 6.480469 "/>
<path fill-rule="nonzero" fill="rgb(100%, 100%, 100%)" fill-opacity="1" d="M 6.878906 6.480469 C 6.878906 7.941406 7.589844 9.125 8.46875 9.125 C 9.34375 9.125 10.054688 7.941406 10.054688 6.480469 Z M 6.878906 6.480469 "/>
</svg>
