<?xml version="1.0" encoding="UTF-8"?>
<svg xmlns="http://www.w3.org/2000/svg" xmlns:xlink="http://www.w3.org/1999/xlink" width="64" height="64" viewBox="0 0 64 64">
<path fill-rule="nonzero" fill="rgb(38.823529%, 64.313725%, 21.568627%)" fill-opacity="1" d="M 8.464844 1.324219 C 12.410156 1.324219 15.609375 4.519531 15.609375 8.464844 C 15.609375 12.410156 12.410156 15.609375 8.464844 15.609375 C 4.519531 15.609375 1.324219 12.410156 1.324219 8.464844 C 1.324219 4.519531 4.519531 1.324219 8.464844 1.324219 Z M 8.464844 1.324219 "/>
<path fill-rule="nonzero" fill="rgb(100%, 100%, 100%)" fill-opacity="1" d="M 4.234375 7.902344 L 4.234375 9.03125 L 8.46875 9.03125 L 8.46875 7.902344 "/>
<path fill-rule="nonzero" fill="rgb(100%, 100%, 100%)" fill-opacity="1" d="M 4.375 9.597656 C 4.886719 11.429688 6.554688 12.695312 8.457031 12.699219 C 10.78125 12.699219 12.699219 10.804688 12.699219 8.46875 C 12.699219 6.128906 10.78125 4.234375 8.457031 4.234375 C 6.554688 4.238281 4.886719 5.503906 4.375 7.339844 L 5.46875 7.339844 C 5.953125 6.109375 7.136719 5.296875 8.457031 5.292969 C 10.238281 5.292969 11.667969 6.714844 11.667969 8.46875 C 11.667969 10.21875 10.238281 11.640625 8.457031 11.640625 C 7.128906 11.652344 5.929688 10.835938 5.449219 9.597656 "/>
</svg>
