<?xml version="1.0" encoding="UTF-8"?>
<svg xmlns="http://www.w3.org/2000/svg" xmlns:xlink="http://www.w3.org/1999/xlink" width="64" height="64" viewBox="0 0 64 64">
<path fill-rule="nonzero" fill="rgb(27.843137%, 27.843137%, 27.843137%)" fill-opacity="1" d="M 59 32 C 59 46.910156 46.910156 59 32 59 C 17.089844 59 5 46.910156 5 32 C 5 17.089844 17.089844 5 32 5 C 46.910156 5 59 17.089844 59 32 Z M 59 32 "/>
<path fill-rule="nonzero" fill="rgb(65.098039%, 38.823529%, 89.803922%)" fill-opacity="1" d="M 50 32 C 50 41.941406 41.941406 50 32 50 C 22.058594 50 14 41.941406 14 32 C 14 22.058594 22.058594 14 32 14 C 41.941406 14 50 22.058594 50 32 Z M 50 32 "/>
<path fill-rule="nonzero" fill="rgb(89.803922%, 72.941176%, 95.686275%)" fill-opacity="1" d="M 25.054688 17.105469 C 19.265625 19.804688 15.566406 25.613281 15.566406 32 L 22.609375 32 C 22.613281 28.351562 24.730469 25.039062 28.035156 23.5 Z M 41.390625 32 C 41.386719 35.648438 39.269531 38.964844 35.964844 40.503906 L 38.945312 46.894531 C 44.734375 44.195312 48.433594 38.386719 48.433594 32 Z M 41.390625 32 "/>
<path fill-rule="nonzero" fill="rgb(19.215686%, 19.215686%, 19.215686%)" fill-opacity="1" d="M 38 32 C 38 35.3125 35.3125 38 32 38 C 28.6875 38 26 35.3125 26 32 C 26 28.6875 28.6875 26 32 26 C 35.3125 26 38 28.6875 38 32 Z M 38 32 "/>
<path fill-rule="nonzero" fill="rgb(97.647059%, 97.647059%, 97.647059%)" fill-opacity="1" d="M 34 32 C 34 33.105469 33.105469 34 32 34 C 30.894531 34 30 33.105469 30 32 C 30 30.894531 30.894531 30 32 30 C 33.105469 30 34 30.894531 34 32 Z M 34 32 "/>
</svg>
