<?xml version="1.0" encoding="UTF-8"?>
<svg xmlns="http://www.w3.org/2000/svg" xmlns:xlink="http://www.w3.org/1999/xlink" width="64" height="64" viewBox="0 0 64 64">
<defs>
<linearGradient id="linear-pattern-0" gradientUnits="userSpaceOnUse" x1="135" y1="120" x2="160" y2="160" gradientTransform="matrix(0.233888, 0, 0, 0.233888, 5.29735, 2.302847)">
<stop offset="0" stop-color="rgb(93.72549%, 96.862745%, 98.823529%)" stop-opacity="1"/>
<stop offset="1" stop-color="rgb(100%, 100%, 100%)" stop-opacity="1"/>
</linearGradient>
</defs>
<path fill-rule="nonzero" fill="rgb(23.921569%, 69.019608%, 89.019608%)" fill-opacity="1" d="M 32 5 C 46.910156 5 59 17.085938 59 32 C 59 46.910156 46.910156 59 32 59 C 17.085938 59 5 46.910156 5 32 C 5 17.085938 17.085938 5 32 5 Z M 32 5 "/>
<path fill-rule="nonzero" fill="rgb(78.431373%, 85.490196%, 91.764706%)" fill-opacity="1" d="M 28.21875 43.230469 C 27.308594 43.230469 27.464844 42.886719 27.148438 42.019531 L 24.472656 33.21875 L 41.03125 22.875 L 42.96875 23.382812 L 41.363281 27.78125 Z M 28.21875 43.230469 "/>
<path fill-rule="nonzero" fill="rgb(65.490196%, 76.078431%, 81.960784%)" fill-opacity="1" d="M 28.21875 43.230469 C 28.921875 43.230469 29.226562 42.910156 29.621094 42.527344 C 30.222656 41.9375 38.039062 34.34375 38.039062 34.34375 L 33.25 33.183594 L 28.808594 35.988281 L 28.21875 42.992188 Z M 28.21875 43.230469 "/>
<path fill-rule="nonzero" fill="url(#linear-pattern-0)" d="M 28.695312 36.089844 L 40.003906 44.449219 C 41.296875 45.160156 42.226562 44.796875 42.550781 43.253906 L 47.15625 21.554688 C 47.625 19.667969 46.4375 18.8125 45.199219 19.367188 L 18.164062 29.796875 C 16.316406 30.535156 16.328125 31.5625 17.828125 32.027344 L 24.765625 34.191406 L 40.824219 24.058594 C 41.582031 23.597656 42.28125 23.847656 41.707031 24.355469 Z M 28.695312 36.089844 "/>
</svg>
