<?xml version="1.0" encoding="UTF-8"?>
<svg xmlns="http://www.w3.org/2000/svg" xmlns:xlink="http://www.w3.org/1999/xlink" width="64" height="64" viewBox="0 0 64 64">
<path fill-rule="nonzero" fill="rgb(36.470588%, 63.921569%, 93.333333%)" fill-opacity="1" d="M 15.609375 8.460938 C 15.609375 12.40625 12.410156 15.605469 8.464844 15.605469 C 4.519531 15.605469 1.324219 12.40625 1.324219 8.460938 C 1.324219 4.515625 4.519531 1.316406 8.464844 1.316406 C 12.410156 1.316406 15.609375 4.515625 15.609375 8.460938 Z M 15.609375 8.460938 "/>
<path fill-rule="nonzero" fill="rgb(24.313725%, 45.490196%, 71.764706%)" fill-opacity="1" d="M 2.644531 8.464844 C 2.648438 9.816406 3.121094 11.125 3.984375 12.167969 L 4.6875 12.167969 C 5.683594 13.183594 7.046875 13.753906 8.46875 13.753906 C 9.886719 13.753906 11.246094 13.179688 12.238281 12.167969 L 12.953125 12.167969 C 13.816406 11.125 14.285156 9.816406 14.289062 8.464844 C 14.289062 5.25 11.683594 2.640625 8.46875 2.644531 C 5.253906 2.640625 2.644531 5.25 2.644531 8.464844 Z M 2.644531 8.464844 "/>
<path fill-rule="nonzero" fill="rgb(100%, 100%, 100%)" fill-opacity="1" d="M 8.398438 7.554688 L 10.074219 7.554688 L 8.105469 10.386719 L 8.863281 10.464844 L 6.96875 12.089844 L 7.859375 11.617188 C 8.003906 11.636719 8.316406 11.648438 8.464844 11.648438 C 10.21875 11.648438 11.640625 10.226562 11.640625 8.46875 C 11.632812 7.351562 11.0625 6.199219 9.824219 5.597656 L 9.898438 4.839844 Z M 5.292969 8.46875 C 5.289062 9.621094 5.910156 10.683594 6.914062 11.242188 L 7.0625 9.554688 L 7.519531 10.101562 L 8.335938 8.464844 L 6.652344 8.464844 L 8.085938 5.316406 C 6.492188 5.511719 5.292969 6.863281 5.292969 8.46875 "/>
</svg>
