<?xml version="1.0" encoding="UTF-8"?>
<svg xmlns="http://www.w3.org/2000/svg" xmlns:xlink="http://www.w3.org/1999/xlink" width="64" height="64" viewBox="0 0 64 64">
<defs>
<filter id="filter-remove-color" x="0%" y="0%" width="100%" height="100%">
<feColorMatrix color-interpolation-filters="sRGB" values="0 0 0 0 1 0 0 0 0 1 0 0 0 0 1 0 0 0 1 0" />
</filter>
<mask id="mask-0">
<g filter="url(#filter-remove-color)">
<rect x="-6.4" y="-6.4" width="76.8" height="76.8" fill="rgb(0%, 0%, 0%)" fill-opacity="0.65"/>
</g>
</mask>
<clipPath id="clip-0">
<rect x="0" y="0" width="64" height="64"/>
</clipPath>
<g id="source-5380" clip-path="url(#clip-0)">
<path fill-rule="nonzero" fill="rgb(0%, 0%, 0%)" fill-opacity="1" d="M 21.136719 7.28125 C 19.898438 7.824219 18.714844 8.453125 17.589844 9.171875 C 17.847656 10.125 18.117188 11.128906 18.304688 11.765625 C 18.761719 13.222656 20.101562 17.296875 20.722656 17.367188 C 21.132812 17.414062 20.394531 11.839844 20.5 9.996094 C 20.550781 9.160156 20.789062 8.21875 21.140625 7.28125 Z M 29.464844 8.5 C 28.925781 8.460938 28.425781 9.058594 28.398438 10.59375 C 28.339844 13.585938 26.484375 16.285156 25.003906 18.742188 C 23.535156 21.171875 24.980469 21.921875 26.765625 20.113281 C 28.6875 18.164062 30.601562 13.878906 30.792969 11.144531 C 30.902344 9.644531 30.152344 8.550781 29.464844 8.5 Z M 11.492188 14.453125 C 10.703125 15.371094 9.976562 16.34375 9.3125 17.367188 C 10.546875 19.011719 11.511719 20.835938 11.410156 23.203125 C 11.257812 27.242188 8.085938 31.984375 10.65625 35.855469 C 12.277344 38.300781 23.863281 44.472656 32.820312 44.355469 C 32.984375 44.355469 32.890625 44.285156 32.609375 44.167969 C 30.25 43.183594 14.402344 38.535156 13.507812 35.421875 C 13.296875 34.707031 13.367188 34.105469 15.351562 34.140625 C 21.1875 34.25 19.285156 39.0625 29.21875 38.792969 C 31.390625 38.699219 33.621094 37.882812 34.957031 36.410156 C 36.566406 34.765625 37.351562 32.746094 38.421875 31.972656 C 43.796875 28.0625 43.410156 28.835938 45.488281 27.699219 C 49.574219 25.46875 47 22.285156 45.488281 23.953125 C 43.679688 25.949219 40.578125 24.425781 36.421875 24.367188 C 33.347656 24.0625 27.550781 26.011719 24.449219 27.957031 C 19.484375 31.082031 20.179688 27.558594 19.332031 24.542969 C 19.273438 24.953125 18.792969 28.160156 19.332031 30.222656 C 17.007812 31.035156 16.585938 31.09375 14.636719 31.046875 C 13.957031 31.046875 12.464844 31.1875 12.5 29.332031 C 12.535156 27.59375 12.898438 26.246094 13.144531 24.8125 C 13.296875 23.921875 13.417969 22.980469 13.382812 21.890625 C 13.300781 19.355469 12.347656 16.925781 11.492188 14.453125 Z M 44.011719 17.371094 C 37.628906 17.324219 28.734375 19.203125 29.886719 21.277344 C 30.226562 21.886719 30.792969 22.144531 31.519531 22.167969 C 33.597656 22.226562 36.976562 20.382812 39.960938 19.644531 C 42.132812 19.105469 45.417969 19.375 47.648438 19.421875 C 49.328125 19.46875 50.40625 19.398438 49.984375 18.789062 C 49.296875 17.808594 46.914062 17.390625 44.011719 17.371094 Z M 58.800781 35.238281 C 58.03125 36.015625 57.308594 36.800781 56.757812 37.429688 C 50.066406 45.152344 45.371094 54.59375 19.570312 47.855469 C 12.761719 46.070312 10.085938 45.613281 16.152344 48.9375 C 34.449219 58.964844 47.46875 54.011719 53.953125 47.714844 C 56.535156 44.117188 58.246094 39.859375 58.800781 35.238281 Z M 58.800781 35.238281 "/>
</g>
</defs>
<path fill-rule="nonzero" fill="rgb(100%, 55.294118%, 23.921569%)" fill-opacity="1" d="M 32 5 C 46.910156 5 59 17.089844 59 32 C 59 46.910156 46.910156 59 32 59 C 17.089844 59 5 46.910156 5 32 C 5 17.089844 17.089844 5 32 5 Z M 32 5 "/>
<g mask="url(#mask-0)">
<use xlink:href="#source-5380"/>
</g>
<path fill-rule="nonzero" fill="rgb(100%, 100%, 100%)" fill-opacity="1" d="M 43.78125 19.3125 C 42.410156 19.304688 41.042969 19.375 39.957031 19.644531 C 37.972656 20.136719 35.820312 21.105469 33.984375 21.691406 C 33.984375 21.699219 33.976562 21.703125 33.972656 21.710938 C 33.9375 21.714844 33.898438 21.722656 33.863281 21.726562 C 32.988281 22 32.183594 22.1875 31.519531 22.167969 C 31.390625 22.164062 31.269531 22.140625 31.152344 22.121094 C 26.859375 22.648438 22.007812 22.832031 17.257812 23.28125 C 14.71875 23.515625 13.414062 24.78125 12.832031 26.492188 C 12.667969 27.367188 12.523438 28.277344 12.503906 29.332031 C 12.46875 31.1875 13.957031 31.046875 14.640625 31.046875 C 16.585938 31.09375 17.011719 31.035156 19.335938 30.222656 C 18.792969 28.15625 19.277344 24.953125 19.335938 24.542969 C 20.179688 27.558594 19.484375 31.082031 24.453125 27.957031 C 27.550781 26.007812 33.347656 24.0625 36.425781 24.367188 C 40.578125 24.425781 43.679688 25.949219 45.488281 23.953125 C 47.003906 22.285156 49.574219 25.46875 45.488281 27.699219 C 43.410156 28.835938 43.800781 28.0625 38.421875 31.972656 C 37.355469 32.746094 36.566406 34.765625 34.957031 36.410156 C 33.625 37.882812 31.390625 38.699219 29.21875 38.792969 C 19.289062 39.0625 21.1875 34.246094 15.355469 34.140625 C 13.394531 34.105469 13.304688 34.695312 13.507812 35.398438 C 13.507812 35.40625 13.511719 35.414062 13.511719 35.421875 C 13.515625 35.4375 13.523438 35.449219 13.527344 35.464844 C 14.5 38.429688 28.660156 42.710938 32.054688 43.964844 C 32.097656 43.980469 32.167969 44 32.210938 44.015625 C 37.105469 45.824219 42.203125 40.28125 44.140625 36.511719 C 45.183594 34.480469 46.097656 32.335938 47.683594 30.65625 C 49.738281 28.472656 52.929688 27.707031 54.703125 25.21875 C 56.921875 22.085938 52.308594 20.476562 50.019531 19.902344 C 49.210938 19.699219 48.335938 19.542969 47.433594 19.414062 C 46.355469 19.386719 45.078125 19.316406 43.78125 19.3125 Z M 43.78125 19.3125 "/>
<path fill-rule="nonzero" fill="rgb(58.039216%, 78.823529%, 29.019608%)" fill-opacity="1" d="M 35.0625 33.519531 C 35.121094 33.167969 35.15625 32.816406 35.15625 32.453125 C 35.15625 29.761719 33.410156 27.472656 30.992188 26.664062 C 28.300781 27.53125 25.917969 28.871094 23.722656 30.644531 C 23.5 30.820312 23.289062 30.984375 23.089844 31.113281 C 22.996094 31.546875 22.9375 31.992188 22.9375 32.453125 C 22.9375 33.835938 23.394531 35.117188 24.171875 36.136719 C 26.871094 37.183594 31.753906 36.558594 35.0625 33.519531 Z M 29.054688 30.925781 C 29.898438 30.925781 30.578125 31.605469 30.578125 32.453125 C 30.578125 33.296875 29.898438 33.976562 29.054688 33.976562 C 28.207031 33.976562 27.527344 33.296875 27.527344 32.453125 C 27.527344 31.605469 28.21875 30.925781 29.054688 30.925781 Z M 29.054688 30.925781 "/>
</svg>
