<?xml version="1.0" encoding="UTF-8"?>
<svg xmlns="http://www.w3.org/2000/svg" xmlns:xlink="http://www.w3.org/1999/xlink" width="64" height="64" viewBox="0 0 64 64">
<path fill-rule="nonzero" fill="rgb(90.196078%, 90.196078%, 90.196078%)" fill-opacity="1" d="M 15.609375 8.464844 C 15.609375 12.410156 12.410156 15.609375 8.464844 15.609375 C 4.519531 15.609375 1.324219 12.410156 1.324219 8.464844 C 1.324219 4.519531 4.519531 1.324219 8.464844 1.324219 C 12.410156 1.324219 15.609375 4.519531 15.609375 8.464844 Z M 15.609375 8.464844 "/>
<path fill-rule="nonzero" fill="rgb(78.823529%, 21.568627%, 10.588235%)" fill-opacity="1" d="M 4.339844 13.351562 L 7.628906 5.027344 L 9.304688 5.027344 L 12.875 13.273438 L 12.203125 13.503906 L 8.882812 5.867188 L 8.046875 5.867188 L 5.089844 13.578125 Z M 4.339844 13.351562 "/>
<path fill-rule="nonzero" fill="rgb(30.196078%, 79.607843%, 19.607843%)" fill-opacity="1" d="M 4.1875 13.691406 L 4.726562 14.148438 L 13.074219 5.027344 L 11.816406 5.027344 Z M 4.1875 13.691406 "/>
<path fill-rule="nonzero" fill="rgb(30.196078%, 79.607843%, 19.607843%)" fill-opacity="1" d="M 12.53125 14.050781 L 13.050781 13.578125 L 5.113281 5.027344 L 3.859375 5.027344 Z M 12.53125 14.050781 "/>
<path fill-rule="nonzero" fill="rgb(11.372549%, 54.117647%, 95.294118%)" fill-opacity="1" d="M 3.441406 4.175781 L 3.441406 5.027344 L 8.046875 5.027344 L 8.046875 14.242188 L 8.886719 14.242188 L 8.886719 5.027344 L 13.492188 5.027344 L 13.492188 4.175781 Z M 3.441406 4.175781 "/>
</svg>
