<?xml version="1.0" encoding="UTF-8"?>
<svg xmlns="http://www.w3.org/2000/svg" xmlns:xlink="http://www.w3.org/1999/xlink" width="64" height="64" viewBox="0 0 64 64">
<defs>
<clipPath id="clip-0">
<rect x="0" y="0" width="64" height="64"/>
</clipPath>
<g id="source-17956" clip-path="url(#clip-0)">
<path fill-rule="nonzero" fill="rgb(95.294118%, 34.509804%, 32.156863%)" fill-opacity="1" d="M 32 5 C 46.914062 5 59.003906 17.089844 59.003906 32 C 59.003906 46.914062 46.914062 59.003906 32 59.003906 C 17.089844 59.003906 5 46.914062 5 32 C 5 17.089844 17.089844 5 32 5 Z M 32 5 "/>
<path fill-rule="nonzero" fill="rgb(100%, 100%, 100%)" fill-opacity="1" d="M 38.035156 13.84375 C 37.742188 13.839844 37.449219 13.90625 37.226562 14.03125 L 17.253906 25.46875 C 16.707031 25.785156 15.816406 25.785156 15.273438 25.46875 L 7.367188 20.914062 C 6.785156 22.210938 6.300781 23.5625 5.925781 24.957031 L 15.09375 30.285156 C 15.738281 30.660156 16.785156 30.660156 17.433594 30.289062 L 40.722656 16.851562 C 41.542969 16.378906 41.542969 15.609375 40.726562 15.132812 L 38.84375 14.039062 C 38.621094 13.910156 38.332031 13.84375 38.039062 13.84375 Z M 38.035156 23.609375 C 37.742188 23.605469 37.449219 23.671875 37.226562 23.800781 L 17.253906 35.238281 C 16.707031 35.550781 15.816406 35.550781 15.273438 35.234375 L 5.125 29.390625 C 5.042969 30.25 5 31.121094 5 32 C 5 32.757812 5.039062 33.503906 5.097656 34.242188 L 15.09375 40.050781 C 15.738281 40.425781 16.785156 40.425781 17.433594 40.054688 L 40.722656 26.617188 C 41.542969 26.144531 41.542969 25.375 40.726562 24.898438 L 38.84375 23.804688 C 38.621094 23.671875 38.332031 23.609375 38.039062 23.609375 Z M 38.035156 33.34375 C 37.742188 33.34375 37.449219 33.40625 37.226562 33.535156 L 17.253906 44.972656 C 16.707031 45.285156 15.816406 45.285156 15.273438 44.972656 L 6.109375 39.691406 C 6.800781 42.039062 7.800781 44.253906 9.066406 46.285156 L 15.09375 49.789062 C 15.738281 50.164062 16.785156 50.164062 17.429688 49.789062 L 40.722656 36.351562 C 41.542969 35.878906 41.542969 35.109375 40.726562 34.632812 L 38.84375 33.539062 C 38.621094 33.410156 38.332031 33.34375 38.039062 33.34375 Z M 38.035156 33.34375 "/>
</g>
</defs>
<use xlink:href="#source-17956"/>
</svg>
