<?xml version="1.0" encoding="UTF-8"?>
<svg xmlns="http://www.w3.org/2000/svg" xmlns:xlink="http://www.w3.org/1999/xlink" width="64" height="64" viewBox="0 0 64 64">
<path fill-rule="nonzero" fill="rgb(88.627451%, 26.27451%, 29.411765%)" fill-opacity="1" d="M 32 5 C 46.914062 5 59.003906 17.089844 59.003906 32 C 59.003906 46.914062 46.914062 59.003906 32 59.003906 C 17.089844 59.003906 5 46.914062 5 32 C 5 17.089844 17.089844 5 32 5 Z M 32 5 "/>
<path fill-rule="nonzero" fill="rgb(100%, 100%, 100%)" fill-opacity="1" d="M 36.164062 23.890625 C 36.234375 23.902344 39.992188 24.527344 39.980469 26.09375 C 39.980469 26.152344 39.980469 26.199219 39.96875 26.253906 C 39.746094 27.667969 35.886719 27.878906 33.210938 28.023438 C 32.652344 28.054688 32.148438 28.085938 31.734375 28.121094 C 31.390625 28.148438 30.957031 28.171875 30.464844 28.199219 L 30.460938 28.199219 C 27.570312 28.347656 22.660156 28.605469 21.261719 31.042969 C 21.183594 31.191406 21.136719 31.339844 21.136719 31.476562 C 21.132812 32.546875 23.421875 33.476562 26.171875 34.589844 C 30.117188 36.191406 35.015625 38.179688 35.472656 41.535156 C 35.496094 41.714844 35.507812 41.910156 35.507812 42.089844 C 35.496094 46.550781 28.09375 50.617188 17.824219 55.007812 C 21.941406 57.539062 26.792969 59.003906 32 59.003906 C 42.992188 59.003906 52.402344 52.492188 56.625 43.109375 C 55.230469 41.324219 53.4375 39.75 51.113281 38.542969 C 45.957031 35.859375 39.167969 34.402344 34.101562 33.320312 C 30.152344 32.472656 27.242188 31.851562 26.976562 31.042969 C 26.953125 30.964844 26.941406 30.882812 26.941406 30.816406 C 26.953125 29.554688 30.871094 29.257812 33.4375 29.132812 C 36.152344 28.996094 40.265625 28.632812 40.765625 26.675781 C 40.78125 26.613281 40.792969 26.550781 40.796875 26.488281 C 40.796875 26.460938 40.796875 26.433594 40.796875 26.402344 C 40.808594 24.597656 36.238281 23.902344 36.164062 23.890625 Z M 36.164062 23.890625 "/>
</svg>
