<?xml version="1.0" encoding="UTF-8"?>
<svg xmlns="http://www.w3.org/2000/svg" xmlns:xlink="http://www.w3.org/1999/xlink" width="64" height="64" viewBox="0 0 64 64">
<defs>
<filter id="filter-remove-color" x="0%" y="0%" width="100%" height="100%">
<feColorMatrix color-interpolation-filters="sRGB" values="0 0 0 0 1 0 0 0 0 1 0 0 0 0 1 0 0 0 1 0" />
</filter>
<mask id="mask-0">
<g filter="url(#filter-remove-color)">
<rect x="-6.4" y="-6.4" width="76.8" height="76.8" fill="rgb(0%, 0%, 0%)" fill-opacity="0.15"/>
</g>
</mask>
<clipPath id="clip-0">
<rect x="0" y="0" width="17" height="17"/>
</clipPath>
<g id="source-12345" clip-path="url(#clip-0)">
<path fill-rule="nonzero" fill="rgb(100%, 100%, 100%)" fill-opacity="1" d="M 14.289062 8.460938 C 14.289062 11.675781 11.683594 14.28125 8.46875 14.28125 C 5.253906 14.28125 2.644531 11.675781 2.644531 8.460938 C 2.644531 5.246094 5.253906 2.640625 8.46875 2.640625 C 11.683594 2.640625 14.289062 5.246094 14.289062 8.460938 Z M 14.289062 8.460938 "/>
</g>
</defs>
<path fill-rule="nonzero" fill="rgb(0%, 67.058824%, 92.54902%)" fill-opacity="1" d="M 15.609375 8.460938 C 15.609375 12.40625 12.410156 15.605469 8.464844 15.605469 C 4.519531 15.605469 1.324219 12.40625 1.324219 8.460938 C 1.324219 4.515625 4.519531 1.316406 8.464844 1.316406 C 12.410156 1.316406 15.609375 4.515625 15.609375 8.460938 Z M 15.609375 8.460938 "/>
<g mask="url(#mask-0)">
<use xlink:href="#source-12345"/>
</g>
<path fill-rule="nonzero" fill="rgb(100%, 100%, 100%)" fill-opacity="1" d="M 9.402344 5.402344 C 8.734375 5.652344 8.3125 6.292969 8.359375 6.996094 L 8.375 7.265625 L 8.105469 7.234375 C 7.132812 7.105469 6.28125 6.675781 5.558594 5.949219 L 5.207031 5.589844 L 5.117188 5.859375 C 4.921875 6.449219 5.046875 7.074219 5.445312 7.496094 C 5.660156 7.726562 5.613281 7.761719 5.242188 7.621094 C 5.113281 7.578125 5.003906 7.546875 4.992188 7.5625 C 4.953125 7.601562 5.082031 8.105469 5.183594 8.304688 C 5.324219 8.582031 5.605469 8.851562 5.917969 9.011719 L 6.179688 9.140625 L 5.871094 9.144531 C 5.570312 9.144531 5.558594 9.152344 5.589844 9.265625 C 5.695312 9.628906 6.121094 10.007812 6.589844 10.175781 L 6.921875 10.289062 L 6.632812 10.46875 C 6.199219 10.726562 5.707031 10.867188 5.199219 10.878906 C 4.960938 10.882812 4.761719 10.90625 4.761719 10.921875 C 4.761719 10.976562 5.414062 11.285156 5.796875 11.40625 C 6.933594 11.765625 8.289062 11.613281 9.308594 10.996094 C 10.027344 10.5625 10.753906 9.691406 11.089844 8.851562 C 11.269531 8.402344 11.453125 7.585938 11.453125 7.1875 C 11.453125 6.933594 11.46875 6.902344 11.769531 6.597656 C 11.945312 6.421875 12.113281 6.226562 12.144531 6.171875 C 12.199219 6.066406 12.191406 6.066406 11.917969 6.160156 C 11.464844 6.328125 11.398438 6.304688 11.625 6.054688 C 11.789062 5.878906 11.988281 5.558594 11.988281 5.464844 C 11.988281 5.449219 11.910156 5.472656 11.816406 5.523438 C 11.722656 5.578125 11.507812 5.664062 11.347656 5.710938 L 11.058594 5.804688 L 10.796875 5.625 C 10.652344 5.523438 10.445312 5.414062 10.339844 5.378906 C 10.03125 5.304688 9.707031 5.3125 9.402344 5.402344 "/>
</svg>
