<?xml version="1.0" encoding="UTF-8"?>
<svg xmlns="http://www.w3.org/2000/svg" xmlns:xlink="http://www.w3.org/1999/xlink" width="64" height="64" viewBox="0 0 64 64">
<path fill-rule="nonzero" fill="rgb(100%, 36.862745%, 15.294118%)" fill-opacity="1" d="M 15.609375 8.460938 C 15.609375 12.40625 12.410156 15.605469 8.464844 15.605469 C 4.519531 15.605469 1.324219 12.40625 1.324219 8.460938 C 1.324219 4.515625 4.519531 1.316406 8.464844 1.316406 C 12.410156 1.316406 15.609375 4.515625 15.609375 8.460938 Z M 15.609375 8.460938 "/>
<path fill-rule="nonzero" fill="rgb(100%, 100%, 100%)" fill-opacity="1" d="M 5.292969 4.488281 L 5.320312 9.8125 C 5.320312 9.8125 5.292969 12.039062 7.679688 12.507812 C 9.046875 12.777344 11.640625 11.996094 11.640625 11.996094 L 11.640625 4.492188 L 9.621094 4.492188 L 9.621094 10.550781 L 7.601562 10.550781 L 7.601562 6.511719 L 6.445312 6.511719 L 7.890625 4.492188 "/>
</svg>
