<?xml version="1.0" encoding="UTF-8"?>
<svg xmlns="http://www.w3.org/2000/svg" xmlns:xlink="http://www.w3.org/1999/xlink" width="64" height="64" viewBox="0 0 64 64">
<path fill-rule="nonzero" fill="rgb(44.313725%, 66.666667%, 45.882353%)" fill-opacity="1" d="M 15.609375 8.460938 C 15.609375 12.40625 12.410156 15.605469 8.464844 15.605469 C 4.519531 15.605469 1.324219 12.40625 1.324219 8.460938 C 1.324219 4.515625 4.519531 1.316406 8.464844 1.316406 C 12.410156 1.316406 15.609375 4.515625 15.609375 8.460938 Z M 15.609375 8.460938 "/>
<path fill-rule="nonzero" fill="rgb(54.509804%, 78.431373%, 56.862745%)" fill-opacity="1" d="M 14.023438 8.460938 C 14.023438 11.527344 11.535156 14.015625 8.46875 14.015625 C 5.398438 14.015625 2.910156 11.527344 2.910156 8.460938 C 2.910156 5.390625 5.398438 2.902344 8.46875 2.902344 C 11.535156 2.902344 14.023438 5.390625 14.023438 8.460938 Z M 14.023438 8.460938 "/>
<path fill-rule="nonzero" fill="rgb(100%, 100%, 100%)" fill-opacity="1" d="M 7.671875 5.550781 L 9.261719 5.550781 C 9.40625 5.550781 9.523438 5.667969 9.523438 5.816406 L 9.523438 8.460938 C 9.523438 8.605469 9.40625 8.726562 9.261719 8.726562 L 7.671875 8.726562 C 7.527344 8.726562 7.40625 8.605469 7.40625 8.460938 L 7.40625 5.816406 C 7.40625 5.667969 7.527344 5.550781 7.671875 5.550781 Z M 7.671875 5.550781 "/>
<path fill-rule="nonzero" fill="rgb(100%, 100%, 100%)" fill-opacity="1" d="M 5.292969 8.460938 L 11.640625 8.460938 L 8.46875 11.636719 Z M 5.292969 8.460938 "/>
</svg>
