<?xml version="1.0" encoding="UTF-8"?>
<svg xmlns="http://www.w3.org/2000/svg" xmlns:xlink="http://www.w3.org/1999/xlink" width="64" height="64" viewBox="0 0 64 64">
<path fill-rule="nonzero" fill="rgb(89.019608%, 36.078431%, 34.509804%)" fill-opacity="1" d="M 15.609375 8.464844 C 15.609375 12.410156 12.410156 15.609375 8.464844 15.609375 C 4.519531 15.609375 1.324219 12.410156 1.324219 8.464844 C 1.324219 4.519531 4.519531 1.324219 8.464844 1.324219 C 12.410156 1.324219 15.609375 4.519531 15.609375 8.464844 Z M 15.609375 8.464844 "/>
<path fill-rule="nonzero" fill="rgb(100%, 100%, 100%)" fill-opacity="1" d="M 6.085938 9.789062 L 9.789062 9.789062 C 9.933594 9.789062 10.054688 9.90625 10.054688 10.054688 C 10.054688 10.199219 9.933594 10.320312 9.789062 10.320312 L 6.085938 10.320312 C 5.941406 10.320312 5.820312 10.199219 5.820312 10.054688 C 5.820312 9.90625 5.941406 9.789062 6.085938 9.789062 Z M 6.085938 9.789062 "/>
<path fill-rule="nonzero" fill="rgb(100%, 100%, 100%)" fill-opacity="1" d="M 4.503906 4.992188 C 4.394531 4.976562 4.292969 5.03125 4.238281 5.121094 C 4.203125 5.183594 4.195312 5.253906 4.214844 5.324219 C 4.230469 5.390625 4.277344 5.449219 4.335938 5.484375 L 7.179688 7.125 L 4.335938 8.765625 C 4.277344 8.800781 4.230469 8.855469 4.214844 8.925781 C 4.195312 8.992188 4.203125 9.066406 4.238281 9.125 C 4.3125 9.253906 4.476562 9.296875 4.601562 9.222656 L 7.808594 7.371094 C 7.890625 7.324219 7.9375 7.238281 7.9375 7.148438 C 7.9375 7.136719 7.9375 7.132812 7.9375 7.125 C 7.9375 7.117188 7.9375 7.109375 7.9375 7.101562 C 7.9375 7.007812 7.890625 6.921875 7.808594 6.875 L 4.601562 5.023438 C 4.570312 5.007812 4.539062 4.996094 4.503906 4.992188 Z M 4.503906 4.992188 "/>
</svg>
