<?xml version="1.0" encoding="UTF-8"?>
<svg xmlns="http://www.w3.org/2000/svg" xmlns:xlink="http://www.w3.org/1999/xlink" width="64" height="64" viewBox="0 0 64 64">
<path fill-rule="nonzero" fill="rgb(15.294118%, 38.431373%, 38.431373%)" fill-opacity="1" d="M 32 5.007812 L 32.003906 5.007812 C 46.914062 5.007812 59 17.09375 59 32.003906 L 59 32.007812 C 59 46.917969 46.914062 59.007812 32.003906 59.007812 L 32 59.007812 C 17.089844 59.007812 5 46.917969 5 32.007812 L 5 32.003906 C 5 17.09375 17.089844 5.007812 32 5.007812 Z M 32 5.007812 "/>
<path fill-rule="evenodd" fill="rgb(14.117647%, 72.54902%, 47.843137%)" fill-opacity="1" d="M 18.128906 29.867188 C 17.632812 29.839844 17.101562 29.867188 16.539062 29.953125 C 10.730469 30.800781 10.253906 37.121094 6.875 41.867188 C 10.804688 51.914062 20.535156 59.003906 32.003906 59.003906 C 40.898438 59.003906 48.742188 54.726562 53.65625 48.125 C 43.554688 35.492188 40.421875 49.839844 32.003906 45.792969 C 25.964844 42.082031 25.585938 30.242188 18.128906 29.863281 "/>
<path fill-rule="evenodd" fill="rgb(100%, 100%, 100%)" fill-opacity="1" d="M 33.5 19.003906 L 26 31.003906 L 30.5 31.003906 L 30.5 40.003906 L 38 28.003906 L 33.5 28.003906 Z M 33.5 19.003906 "/>
</svg>
