<?xml version="1.0" encoding="UTF-8"?>
<svg xmlns="http://www.w3.org/2000/svg" xmlns:xlink="http://www.w3.org/1999/xlink" width="64" height="64" viewBox="0 0 64 64">
<path fill-rule="nonzero" fill="rgb(94.901961%, 94.901961%, 94.901961%)" fill-opacity="1" d="M 59 32 C 59 46.910156 46.910156 59 32 59 C 17.089844 59 5 46.910156 5 32 C 5 17.089844 17.089844 5 32 5 C 46.910156 5 59 17.089844 59 32 Z M 59 32 "/>
<path fill-rule="nonzero" fill="rgb(16.862745%, 67.45098%, 56.078431%)" fill-opacity="1" d="M 53.894531 44 L 46.59375 44 L 46.59375 39.847656 L 50.242188 38.003906 Z M 53.894531 44 "/>
<path fill-rule="nonzero" fill="rgb(18.039216%, 60%, 48.627451%)" fill-opacity="1" d="M 50.242188 38.003906 L 42.945312 38.003906 L 43.675781 41.230469 L 46.59375 44 Z M 50.242188 38.003906 "/>
<path fill-rule="nonzero" fill="rgb(15.294118%, 52.941176%, 40.784314%)" fill-opacity="1" d="M 46.597656 44 L 39.296875 44 L 40.757812 39.847656 L 42.945312 38.003906 Z M 46.597656 44 "/>
<path fill-rule="nonzero" fill="rgb(12.941176%, 40.392157%, 30.980392%)" fill-opacity="1" d="M 39.296875 32.003906 L 36.378906 30.148438 L 32 32.003906 L 35.648438 38 Z M 39.296875 32.003906 "/>
<path fill-rule="nonzero" fill="rgb(16.470588%, 55.294118%, 43.921569%)" fill-opacity="1" d="M 42.949219 38.003906 L 39.300781 37.074219 L 35.652344 38.003906 L 39.300781 44 Z M 42.949219 38.003906 "/>
<path fill-rule="nonzero" fill="rgb(18.431373%, 62.352941%, 50.588235%)" fill-opacity="1" d="M 42.949219 38 L 35.652344 38 L 37.445312 35.050781 L 39.300781 32.003906 Z M 42.949219 38 "/>
<path fill-rule="nonzero" fill="rgb(58.823529%, 81.176471%, 72.941176%)" fill-opacity="1" d="M 53.894531 20 L 46.59375 20 L 46.59375 23.214844 L 50.242188 25.996094 Z M 53.894531 20 "/>
<path fill-rule="nonzero" fill="rgb(52.156863%, 78.431373%, 69.411765%)" fill-opacity="1" d="M 50.242188 25.996094 L 42.945312 25.996094 L 43.675781 21.828125 L 46.59375 20 Z M 50.242188 25.996094 "/>
<path fill-rule="nonzero" fill="rgb(41.960784%, 74.901961%, 64.313725%)" fill-opacity="1" d="M 46.597656 20 L 39.296875 20 L 39.296875 23.214844 L 42.945312 25.996094 Z M 46.597656 20 "/>
<path fill-rule="nonzero" fill="rgb(32.156863%, 72.54902%, 60.784314%)" fill-opacity="1" d="M 42.949219 25.996094 L 39.300781 27.367188 L 35.652344 25.996094 L 39.300781 20 Z M 42.949219 25.996094 "/>
<path fill-rule="nonzero" fill="rgb(26.666667%, 71.764706%, 60%)" fill-opacity="1" d="M 42.949219 26 L 35.652344 26 L 36.382812 28.757812 L 39.300781 31.996094 Z M 42.949219 26 "/>
<path fill-rule="nonzero" fill="rgb(20%, 70.196078%, 58.039216%)" fill-opacity="1" d="M 39.296875 32 L 32 32 L 35.648438 26.003906 Z M 39.296875 32 "/>
<path fill-rule="nonzero" fill="rgb(17.647059%, 64.313725%, 67.843137%)" fill-opacity="1" d="M 35.648438 38 L 32 39.839844 L 28.351562 38 L 32 32.003906 Z M 35.648438 38 "/>
<path fill-rule="nonzero" fill="rgb(18.431373%, 59.607843%, 68.627451%)" fill-opacity="1" d="M 35.648438 38.003906 L 28.351562 38.003906 L 28.46875 41.90625 L 32 44 Z M 35.648438 38.003906 "/>
<path fill-rule="nonzero" fill="rgb(5.098039%, 39.607843%, 47.843137%)" fill-opacity="1" d="M 31.996094 44 L 24.699219 44 L 24.699219 39.847656 L 28.347656 38.003906 L 30.148438 40.960938 Z M 31.996094 44 "/>
<path fill-rule="nonzero" fill="rgb(16.470588%, 41.176471%, 69.411765%)" fill-opacity="1" d="M 28.351562 38.003906 L 24.703125 37.074219 L 21.050781 38.003906 L 24.699219 44 "/>
<path fill-rule="nonzero" fill="rgb(12.54902%, 46.666667%, 73.72549%)" fill-opacity="1" d="M 28.351562 38 L 21.054688 38 L 21.78125 34.300781 L 24.703125 32.003906 Z M 28.351562 38 "/>
<path fill-rule="nonzero" fill="rgb(15.686275%, 52.54902%, 78.039216%)" fill-opacity="1" d="M 24.703125 32.003906 L 20.324219 30.148438 L 17.402344 32.003906 L 21.050781 38 "/>
<path fill-rule="nonzero" fill="rgb(13.72549%, 55.294118%, 80.392157%)" fill-opacity="1" d="M 24.703125 32 L 17.40625 32 L 17.40625 27.375 L 21.054688 26.003906 Z M 24.703125 32 "/>
<path fill-rule="nonzero" fill="rgb(10.196078%, 61.176471%, 81.960784%)" fill-opacity="1" d="M 21.074219 25.984375 L 17.402344 24.585938 L 13.753906 25.984375 L 17.414062 31.996094 "/>
<path fill-rule="nonzero" fill="rgb(5.490196%, 65.098039%, 82.745098%)" fill-opacity="1" d="M 21.050781 25.996094 L 13.753906 25.996094 L 14.484375 23.214844 L 17.402344 20 Z M 21.050781 25.996094 "/>
<path fill-rule="nonzero" fill="rgb(3.137255%, 67.058824%, 84.705882%)" fill-opacity="1" d="M 17.40625 20 L 10.105469 20 L 13.757812 25.996094 Z M 17.40625 20 "/>
</svg>
