<?xml version="1.0" encoding="UTF-8"?>
<svg xmlns="http://www.w3.org/2000/svg" xmlns:xlink="http://www.w3.org/1999/xlink" width="64" height="64" viewBox="0 0 64 64">
<path fill-rule="nonzero" fill="rgb(42.745098%, 53.72549%, 97.647059%)" fill-opacity="1" d="M 8.464844 1.324219 C 12.410156 1.324219 15.609375 4.519531 15.609375 8.464844 C 15.609375 12.410156 12.410156 15.609375 8.464844 15.609375 C 4.519531 15.609375 1.324219 12.410156 1.324219 8.464844 C 1.324219 4.519531 4.519531 1.324219 8.464844 1.324219 Z M 8.464844 1.324219 "/>
<path fill-rule="nonzero" fill="rgb(100%, 100%, 100%)" fill-opacity="1" d="M 12.675781 5.578125 C 12.617188 5.578125 12.554688 5.59375 12.496094 5.621094 C 12.390625 5.667969 11.128906 6.738281 10.800781 7.054688 C 10.6875 7.164062 10.585938 7.242188 10.585938 7.425781 L 10.582031 8.464844 L 10.585938 9.507812 C 10.585938 9.691406 10.6875 9.765625 10.800781 9.878906 C 11.128906 10.195312 12.390625 11.265625 12.496094 11.3125 C 12.554688 11.339844 12.617188 11.351562 12.675781 11.355469 C 12.859375 11.363281 13.042969 11.269531 13.160156 11.097656 C 13.160156 11.097656 13.230469 10.996094 13.230469 10.886719 L 13.230469 6.046875 C 13.230469 5.9375 13.160156 5.835938 13.160156 5.835938 C 13.042969 5.664062 12.859375 5.570312 12.675781 5.578125 Z M 12.675781 5.578125 "/>
<path fill-rule="nonzero" fill="rgb(100%, 100%, 100%)" fill-opacity="1" d="M 4.972656 5.554688 L 8.785156 5.554688 C 9.488281 5.554688 10.054688 6.128906 10.054688 6.835938 L 10.054688 10.097656 C 10.054688 10.804688 9.488281 11.375 8.785156 11.375 L 4.972656 11.375 C 4.269531 11.375 3.703125 10.804688 3.703125 10.097656 L 3.703125 6.835938 C 3.703125 6.128906 4.269531 5.554688 4.972656 5.554688 Z M 4.972656 5.554688 "/>
<path fill-rule="nonzero" fill="rgb(30.196078%, 30.196078%, 30.196078%)" fill-opacity="1" d="M 16.40625 12.171875 C 16.40625 14.507812 14.507812 16.40625 12.171875 16.40625 C 9.832031 16.40625 7.9375 14.507812 7.9375 12.171875 C 7.9375 9.832031 9.832031 7.9375 12.171875 7.9375 C 14.507812 7.9375 16.40625 9.832031 16.40625 12.171875 Z M 16.40625 12.171875 "/>
<path fill-rule="nonzero" fill="rgb(100%, 100%, 100%)" fill-opacity="1" d="M 10.867188 10.054688 C 10.417969 10.054688 10.054688 10.417969 10.054688 10.867188 C 10.054688 11.316406 10.417969 11.683594 10.867188 11.683594 C 11.011719 11.683594 11.148438 11.636719 11.265625 11.570312 L 11.90625 12.171875 L 11.265625 12.769531 C 11.148438 12.703125 11.015625 12.660156 10.867188 12.660156 C 10.417969 12.660156 10.054688 13.023438 10.054688 13.472656 C 10.054688 13.921875 10.417969 14.289062 10.867188 14.289062 C 11.316406 14.289062 11.683594 13.921875 11.683594 13.472656 C 11.683594 13.398438 11.671875 13.328125 11.652344 13.257812 L 12.34375 12.585938 L 13.800781 13.960938 L 14.289062 13.960938 L 14.289062 13.636719 L 11.652344 11.082031 C 11.671875 11.011719 11.683594 10.941406 11.683594 10.867188 C 11.683594 10.417969 11.316406 10.054688 10.867188 10.054688 Z M 10.867188 10.542969 C 11.046875 10.542969 11.195312 10.6875 11.195312 10.867188 C 11.195312 11.046875 11.046875 11.195312 10.867188 11.195312 C 10.6875 11.195312 10.542969 11.046875 10.542969 10.867188 C 10.542969 10.6875 10.6875 10.542969 10.867188 10.542969 Z M 13.796875 10.378906 L 12.515625 11.589844 L 12.945312 12.007812 L 14.289062 10.707031 L 14.289062 10.378906 Z M 10.867188 13.148438 C 11.046875 13.148438 11.195312 13.292969 11.195312 13.472656 C 11.195312 13.652344 11.046875 13.796875 10.867188 13.796875 C 10.6875 13.796875 10.542969 13.652344 10.542969 13.472656 C 10.542969 13.292969 10.6875 13.148438 10.867188 13.148438 Z M 10.867188 13.148438 "/>
</svg>
