<?xml version="1.0" encoding="UTF-8"?>
<svg xmlns="http://www.w3.org/2000/svg" xmlns:xlink="http://www.w3.org/1999/xlink" width="64" height="64" viewBox="0 0 64 64">
<path fill-rule="nonzero" fill="rgb(29.803922%, 68.627451%, 31.372549%)" fill-opacity="1" d="M 15.609375 8.464844 C 15.609375 12.410156 12.410156 15.609375 8.464844 15.609375 C 4.519531 15.609375 1.324219 12.410156 1.324219 8.464844 C 1.324219 4.519531 4.519531 1.324219 8.464844 1.324219 C 12.410156 1.324219 15.609375 4.519531 15.609375 8.464844 Z M 15.609375 8.464844 "/>
<path fill-rule="evenodd" fill="rgb(100%, 100%, 100%)" fill-opacity="1" d="M 4.253906 4.234375 C 3.992188 4.234375 3.992188 4.496094 3.992188 4.496094 L 3.992188 5.550781 C 3.992188 5.550781 3.992188 5.816406 4.253906 5.8125 L 4.515625 5.8125 L 4.515625 12.132812 C 4.515625 12.421875 4.753906 12.660156 5.042969 12.660156 L 5.851562 12.660156 C 5.878906 12.648438 11.699219 6.71875 12.582031 5.8125 L 12.679688 5.8125 C 12.941406 5.820312 12.941406 5.550781 12.941406 5.550781 L 12.941406 4.496094 C 12.941406 4.234375 12.679688 4.234375 12.679688 4.234375 L 9.519531 4.234375 C 9.519531 4.234375 9.257812 4.234375 9.257812 4.496094 L 9.257812 5.550781 C 9.257812 5.8125 9.519531 5.8125 9.519531 5.8125 C 9.519531 5.8125 9.78125 5.8125 9.765625 5.8125 L 7.148438 8.445312 L 7.148438 5.8125 L 7.414062 5.8125 C 7.675781 5.816406 7.675781 5.550781 7.675781 5.550781 L 7.675781 4.496094 C 7.675781 4.207031 7.414062 4.234375 7.414062 4.234375 Z M 4.253906 4.234375 "/>
<path fill-rule="nonzero" fill="rgb(100%, 100%, 100%)" fill-opacity="1" d="M 8.585938 12.699219 L 9.113281 12.699219 L 9.519531 10.671875 L 8.992188 10.671875 Z M 9.324219 10.34375 C 9.5 10.347656 9.65625 10.226562 9.699219 10.054688 C 9.734375 9.878906 9.621094 9.765625 9.441406 9.765625 C 9.261719 9.757812 9.101562 9.878906 9.0625 10.054688 C 9.03125 10.21875 9.140625 10.34375 9.324219 10.34375 Z M 9.691406 12.699219 L 10.21875 12.699219 L 10.5 11.304688 C 10.671875 11.152344 10.820312 11.078125 10.9375 11.078125 C 11.128906 11.078125 11.195312 11.1875 11.132812 11.5 L 10.894531 12.699219 L 11.425781 12.699219 L 11.703125 11.304688 C 11.878906 11.152344 12.027344 11.078125 12.144531 11.078125 C 12.335938 11.078125 12.402344 11.1875 12.339844 11.5 L 12.101562 12.699219 L 12.632812 12.699219 L 12.886719 11.433594 C 12.988281 10.921875 12.851562 10.621094 12.417969 10.621094 C 12.15625 10.621094 11.925781 10.78125 11.703125 10.976562 C 11.652344 10.75 11.503906 10.621094 11.214844 10.621094 C 10.949219 10.621094 10.734375 10.765625 10.527344 10.941406 L 10.511719 10.941406 L 10.53125 10.671875 L 10.09375 10.671875 Z M 9.691406 12.699219 "/>
</svg>
