<?xml version="1.0" encoding="UTF-8"?>
<svg xmlns="http://www.w3.org/2000/svg" xmlns:xlink="http://www.w3.org/1999/xlink" width="64" height="64" viewBox="0 0 64 64">
<path fill-rule="nonzero" fill="rgb(18.039216%, 18.039216%, 18.039216%)" fill-opacity="1" d="M 15.609375 8.464844 C 15.609375 12.410156 12.410156 15.609375 8.464844 15.609375 C 4.519531 15.609375 1.324219 12.410156 1.324219 8.464844 C 1.324219 4.519531 4.519531 1.324219 8.464844 1.324219 C 12.410156 1.324219 15.609375 4.519531 15.609375 8.464844 Z M 15.609375 8.464844 "/>
<path fill-rule="nonzero" fill="rgb(34.509804%, 34.509804%, 34.509804%)" fill-opacity="1" d="M 14.550781 8.464844 C 14.550781 11.828125 11.828125 14.550781 8.464844 14.550781 C 5.105469 14.550781 2.382812 11.828125 2.382812 8.464844 C 2.382812 5.105469 5.105469 2.382812 8.464844 2.382812 C 11.828125 2.382812 14.550781 5.105469 14.550781 8.464844 Z M 14.550781 8.464844 "/>
<path fill-rule="nonzero" fill="rgb(39.215686%, 80%, 37.254902%)" fill-opacity="1" d="M 15.875 12.703125 C 15.875 14.457031 14.453125 15.875 12.699219 15.875 C 10.945312 15.875 9.523438 14.457031 9.523438 12.703125 C 9.523438 10.949219 10.945312 9.527344 12.699219 9.527344 C 14.453125 9.527344 15.875 10.949219 15.875 12.703125 Z M 15.875 12.703125 "/>
<path fill-rule="nonzero" fill="rgb(100%, 100%, 100%)" fill-opacity="1" d="M 11.378906 11.113281 L 11.640625 11.113281 C 13.25 11.113281 14.550781 12.414062 14.550781 14.023438 L 14.550781 14.285156 L 14.289062 14.285156 C 14.144531 14.285156 14.023438 14.167969 14.023438 14.023438 C 14.023438 12.707031 12.957031 11.640625 11.640625 11.640625 C 11.496094 11.640625 11.378906 11.523438 11.378906 11.375 Z M 11.378906 11.113281 "/>
<path fill-rule="nonzero" fill="rgb(100%, 100%, 100%)" fill-opacity="1" d="M 11.378906 12.171875 L 11.640625 12.171875 C 12.664062 12.171875 13.492188 13 13.492188 14.023438 L 13.492188 14.289062 L 13.230469 14.289062 C 13.085938 14.289062 12.964844 14.167969 12.964844 14.023438 C 12.964844 13.292969 12.371094 12.699219 11.640625 12.699219 C 11.496094 12.699219 11.378906 12.582031 11.378906 12.4375 Z M 11.378906 12.171875 "/>
<path fill-rule="nonzero" fill="rgb(100%, 100%, 100%)" fill-opacity="1" d="M 11.90625 13.230469 C 12.199219 13.230469 12.4375 13.46875 12.4375 13.757812 C 12.4375 14.050781 12.199219 14.289062 11.90625 14.289062 C 11.613281 14.289062 11.378906 14.050781 11.378906 13.757812 C 11.378906 13.46875 11.613281 13.230469 11.90625 13.230469 Z M 11.90625 13.230469 "/>
</svg>
