<?xml version="1.0" encoding="UTF-8"?>
<svg xmlns="http://www.w3.org/2000/svg" xmlns:xlink="http://www.w3.org/1999/xlink" width="64" height="64" viewBox="0 0 64 64">
<path fill-rule="nonzero" fill="rgb(97.647059%, 97.647059%, 97.647059%)" fill-opacity="1" d="M 15.609375 8.464844 C 15.609375 12.410156 12.410156 15.609375 8.464844 15.609375 C 4.519531 15.609375 1.324219 12.410156 1.324219 8.464844 C 1.324219 4.519531 4.519531 1.324219 8.464844 1.324219 C 12.410156 1.324219 15.609375 4.519531 15.609375 8.464844 Z M 15.609375 8.464844 "/>
<path fill-rule="evenodd" fill="rgb(20.784314%, 52.156863%, 95.294118%)" fill-opacity="1" d="M 8.464844 13.367188 L 12.964844 10.824219 L 12.933594 6.039062 L 8.464844 8.488281 Z M 8.464844 13.367188 "/>
<path fill-rule="evenodd" fill="rgb(10.980392%, 41.176471%, 81.568627%)" fill-opacity="1" d="M 8.46875 13.375 L 3.96875 10.832031 L 4 6.050781 L 8.46875 8.5 Z M 8.46875 13.375 "/>
<path fill-rule="evenodd" fill="rgb(34.901961%, 59.215686%, 95.294118%)" fill-opacity="1" d="M 3.988281 6.0625 L 8.488281 3.558594 L 12.949219 6.066406 L 8.464844 8.523438 Z M 3.988281 6.0625 "/>
<path fill-rule="nonzero" fill="rgb(100%, 100%, 100%)" fill-opacity="1" d="M 9.15625 6.304688 C 9.121094 6.335938 9.058594 6.339844 9.015625 6.3125 L 8.539062 6.023438 C 8.5 6 8.488281 5.960938 8.515625 5.929688 L 8.925781 5.449219 L 7.484375 6.449219 C 7.449219 6.472656 7.394531 6.476562 7.355469 6.457031 C 7.351562 6.453125 7.351562 6.453125 7.347656 6.453125 C 7.3125 6.429688 7.300781 6.394531 7.320312 6.367188 L 7.800781 5.574219 L 7.164062 5.757812 C 7.125 5.769531 7.078125 5.761719 7.050781 5.738281 C 7.023438 5.71875 7.015625 5.683594 7.03125 5.65625 L 7.308594 5.238281 L 6.71875 4.882812 C 6.675781 4.859375 6.667969 4.8125 6.703125 4.78125 C 6.738281 4.75 6.800781 4.746094 6.84375 4.773438 L 7.496094 5.167969 C 7.53125 5.1875 7.542969 5.226562 7.523438 5.253906 L 7.328125 5.554688 L 7.953125 5.371094 C 7.992188 5.359375 8.039062 5.367188 8.066406 5.390625 C 8.09375 5.410156 8.101562 5.441406 8.085938 5.46875 L 7.710938 6.085938 L 9.359375 4.945312 C 9.398438 4.917969 9.453125 4.917969 9.492188 4.941406 C 9.535156 4.972656 9.542969 5.007812 9.515625 5.039062 L 8.734375 5.957031 L 9.144531 6.203125 C 9.1875 6.230469 9.191406 6.277344 9.15625 6.304688 Z M 9.636719 6.5 L 9.386719 6.351562 C 9.34375 6.324219 9.28125 6.328125 9.246094 6.359375 C 9.210938 6.390625 9.21875 6.4375 9.261719 6.460938 L 9.507812 6.613281 C 9.550781 6.636719 9.613281 6.632812 9.648438 6.605469 C 9.683594 6.574219 9.675781 6.527344 9.636719 6.5 Z M 10.167969 6.824219 L 9.902344 6.664062 C 9.859375 6.636719 9.796875 6.640625 9.761719 6.671875 C 9.726562 6.703125 9.734375 6.75 9.777344 6.773438 L 10.039062 6.933594 C 10.082031 6.960938 10.148438 6.957031 10.183594 6.925781 C 10.21875 6.894531 10.210938 6.847656 10.167969 6.824219 Z M 10.167969 6.824219 "/>
</svg>
