<?xml version="1.0" encoding="UTF-8"?>
<svg xmlns="http://www.w3.org/2000/svg" xmlns:xlink="http://www.w3.org/1999/xlink" width="64" height="64" viewBox="0 0 64 64">
<path fill-rule="nonzero" fill="rgb(90.196078%, 90.196078%, 90.196078%)" fill-opacity="1" d="M 59 32 C 59 46.910156 46.910156 59 32 59 C 17.089844 59 5 46.910156 5 32 C 5 17.089844 17.089844 5 32 5 C 46.910156 5 59 17.089844 59 32 Z M 59 32 "/>
<path fill-rule="nonzero" fill="rgb(96.078431%, 29.803922%, 36.470588%)" fill-opacity="1" d="M 9.050781 22.550781 L 13.101562 22.550781 L 17.824219 36.050781 L 22.550781 22.550781 L 26.601562 22.550781 L 19.851562 41.449219 L 15.800781 41.449219 Z M 9.050781 22.550781 "/>
<path fill-rule="nonzero" fill="rgb(23.921569%, 25.098039%, 26.27451%)" fill-opacity="1" d="M 23.898438 41.449219 L 30.648438 22.550781 L 34.699219 22.550781 L 27.949219 41.449219 Z M 37.398438 41.449219 L 44.148438 22.550781 L 48.199219 22.550781 L 41.449219 41.449219 Z M 37.398438 41.449219 "/>
<path fill-rule="nonzero" fill="rgb(54.117647%, 58.039216%, 58.431373%)" fill-opacity="1" d="M 19.851562 41.449219 L 26.601562 22.550781 L 30.648438 22.550781 L 23.898438 41.449219 Z M 33.351562 41.449219 L 40.101562 22.550781 L 44.148438 22.550781 L 37.398438 41.449219 Z M 33.351562 41.449219 "/>
<path fill-rule="nonzero" fill="rgb(71.764706%, 72.941176%, 74.509804%)" fill-opacity="1" d="M 37.398438 41.449219 L 33.351562 41.449219 L 26.601562 22.550781 L 30.648438 22.550781 Z M 50.898438 41.449219 L 46.851562 41.449219 L 40.101562 22.550781 L 44.148438 22.550781 Z M 50.898438 41.449219 "/>
<path fill-rule="nonzero" fill="rgb(30.980392%, 30.980392%, 30.980392%)" fill-opacity="1" d="M 30.648438 22.550781 L 37.398438 41.449219 L 41.449219 41.449219 L 34.699219 22.550781 Z M 44.148438 22.550781 L 50.898438 41.449219 L 54.949219 41.449219 L 48.199219 22.550781 Z M 44.148438 22.550781 "/>
</svg>
