<?xml version="1.0" encoding="UTF-8"?>
<svg xmlns="http://www.w3.org/2000/svg" xmlns:xlink="http://www.w3.org/1999/xlink" width="64" height="64" viewBox="0 0 64 64">
<path fill-rule="nonzero" fill="rgb(98.823529%, 33.333333%, 33.333333%)" fill-opacity="1" d="M 15.609375 8.46875 C 15.609375 12.414062 12.414062 15.613281 8.464844 15.613281 C 4.519531 15.613281 1.324219 12.414062 1.324219 8.46875 C 1.324219 4.523438 4.519531 1.324219 8.464844 1.324219 C 12.414062 1.324219 15.609375 4.523438 15.609375 8.46875 Z M 15.609375 8.46875 "/>
<path fill-rule="evenodd" fill="rgb(100%, 100%, 100%)" fill-opacity="1" d="M 4.902344 6.339844 L 7.878906 11.605469 C 7.878906 11.605469 8.042969 11.886719 8.449219 11.886719 C 8.851562 11.886719 9.015625 11.605469 9.015625 11.605469 C 9.015625 11.605469 11.085938 8.433594 11.929688 6.742188 C 12.015625 6.570312 12.105469 6.398438 12.144531 6.214844 C 12.175781 6.085938 12.179688 5.953125 12.152344 5.824219 C 12.121094 5.667969 12.042969 5.523438 11.929688 5.40625 C 11.789062 5.285156 11.617188 5.207031 11.429688 5.191406 C 11.230469 5.171875 11.03125 5.210938 10.855469 5.304688 C 10.730469 5.371094 10.625 5.472656 10.554688 5.59375 C 10.496094 5.71875 10.460938 5.855469 10.460938 5.996094 C 10.460938 6.121094 10.480469 6.25 10.523438 6.371094 C 10.550781 6.445312 10.589844 6.519531 10.617188 6.597656 C 10.640625 6.660156 10.671875 6.722656 10.679688 6.789062 C 10.695312 6.898438 10.6875 7.011719 10.648438 7.113281 C 10.457031 7.609375 10.121094 8.082031 9.679688 8.371094 C 9.496094 8.488281 9.261719 8.519531 9.042969 8.527344 C 8.792969 8.539062 8.503906 8.519531 8.304688 8.410156 C 8.101562 8.300781 8.007812 8.109375 7.878906 7.941406 C 7.296875 7.167969 6.347656 5.476562 6.347656 5.476562 C 6.347656 5.476562 5.933594 4.746094 5.1875 5.1875 C 4.445312 5.632812 4.898438 6.339844 4.898438 6.339844 Z M 4.902344 6.339844 "/>
</svg>
