<?xml version="1.0" encoding="UTF-8"?>
<svg xmlns="http://www.w3.org/2000/svg" xmlns:xlink="http://www.w3.org/1999/xlink" width="64" height="64" viewBox="0 0 64 64">
<path fill-rule="nonzero" fill="rgb(8.627451%, 72.941176%, 96.862745%)" fill-opacity="1" d="M 58.183594 25.136719 C 58.117188 24.886719 58.046875 24.621094 57.972656 24.359375 C 57.832031 23.859375 57.667969 23.351562 57.488281 22.851562 C 57.121094 21.808594 56.679688 20.789062 56.164062 19.78125 C 55.949219 19.359375 55.710938 18.925781 55.460938 18.5 C 54.292969 16.515625 52.839844 14.652344 51.09375 12.910156 C 45.824219 7.636719 39.457031 5 32 5 C 24.542969 5 18.179688 7.636719 12.910156 12.910156 C 7.636719 18.179688 5 24.542969 5 32 C 5 39.457031 7.636719 45.824219 12.910156 51.09375 C 16.800781 54.988281 21.289062 57.441406 26.34375 58.453125 C 28.171875 58.820312 30.050781 59 32 59 C 39.457031 59 45.824219 56.367188 51.09375 51.09375 C 53.875 48.316406 55.921875 45.230469 57.234375 41.839844 C 58.207031 39.324219 58.78125 36.644531 58.949219 33.789062 C 58.980469 33.203125 59 32.605469 59 32 C 59 29.613281 58.730469 27.332031 58.179688 25.136719 Z M 58.183594 25.136719 "/>
<path fill-rule="nonzero" fill="rgb(100%, 77.647059%, 18.039216%)" fill-opacity="1" d="M 38.300781 46 C 39.464844 46 40.398438 45.0625 40.398438 43.898438 L 40.398438 25.699219 C 40.398438 24.535156 39.464844 23.601562 38.300781 23.601562 L 20.101562 23.601562 C 18.9375 23.601562 18 24.535156 18 25.699219 L 18 43.898438 C 18 45.0625 18.9375 46 20.101562 46 Z M 34.800781 40.398438 L 23.601562 40.398438 L 23.601562 29.199219 L 34.800781 29.199219 Z M 34.800781 40.398438 "/>
<path fill-rule="nonzero" fill="rgb(100%, 100%, 100%)" fill-opacity="1" d="M 43.898438 40.398438 C 45.0625 40.398438 46 39.464844 46 38.300781 L 46 20.101562 C 46 18.9375 45.0625 18 43.898438 18 L 25.699219 18 C 24.535156 18 23.601562 18.9375 23.601562 20.101562 L 23.601562 23.601562 L 40.398438 23.601562 L 40.398438 34.800781 L 29.199219 34.800781 L 29.199219 29.199219 L 23.601562 29.199219 L 23.601562 38.300781 C 23.601562 39.464844 24.535156 40.398438 25.699219 40.398438 Z M 43.898438 40.398438 "/>
</svg>
