<?xml version="1.0" encoding="UTF-8"?>
<svg xmlns="http://www.w3.org/2000/svg" xmlns:xlink="http://www.w3.org/1999/xlink" width="64" height="64" viewBox="0 0 64 64">
<path fill-rule="nonzero" fill="rgb(77.254902%, 41.176471%, 78.039216%)" fill-opacity="1" d="M 32 5 C 46.910156 5 59 17.089844 59 32 C 59 46.910156 46.910156 59 32 59 C 17.089844 59 5 46.910156 5 32 C 5 17.089844 17.089844 5 32 5 Z M 32 5 "/>
<path fill-rule="nonzero" fill="rgb(97.647059%, 97.647059%, 97.647059%)" fill-opacity="1" d="M 30.597656 23.601562 L 30.597656 37.417969 C 28.128906 36.777344 26.402344 34.554688 26.398438 32.003906 L 26.398438 28.503906 C 26.398438 28.117188 26.085938 27.804688 25.699219 27.804688 C 25.3125 27.804688 25 28.117188 25 28.503906 L 25 32.003906 C 25.003906 35.328125 27.34375 38.191406 30.597656 38.855469 L 30.597656 40.40625 L 26.398438 40.40625 L 26.398438 41.804688 L 37.601562 41.804688 L 37.601562 40.40625 L 33.394531 40.40625 L 33.394531 38.867188 C 36.65625 38.203125 39 35.335938 39 32.003906 L 39 28.503906 C 39 28.117188 38.6875 27.804688 38.300781 27.804688 C 37.914062 27.804688 37.601562 28.117188 37.601562 28.503906 L 37.601562 32.003906 C 37.601562 34.5625 35.871094 36.792969 33.394531 37.429688 L 33.394531 23.605469 L 30.597656 23.605469 Z M 30.597656 23.601562 "/>
<path fill-rule="nonzero" fill="rgb(97.647059%, 97.647059%, 97.647059%)" fill-opacity="1" d="M 32 11 C 20.402344 11 11 20.402344 11 32 C 11 43.597656 20.402344 53 32 53 C 43.597656 53 53 43.597656 53 32 C 53 20.402344 43.597656 11 32 11 Z M 31.996094 12.398438 C 42.820312 12.398438 51.601562 21.175781 51.601562 32 C 51.601562 42.824219 42.820312 51.601562 31.996094 51.601562 C 21.171875 51.601562 12.394531 42.824219 12.394531 32 C 12.394531 21.175781 21.171875 12.398438 31.996094 12.398438 Z M 31.996094 12.398438 "/>
<path fill-rule="nonzero" fill="rgb(97.647059%, 97.647059%, 97.647059%)" fill-opacity="1" d="M 31.996094 15.203125 C 22.71875 15.203125 15.191406 22.722656 15.191406 32.003906 C 15.191406 41.28125 22.714844 48.808594 31.996094 48.808594 C 41.273438 48.808594 48.796875 41.285156 48.796875 32.003906 C 48.796875 22.726562 41.277344 15.203125 31.996094 15.203125 Z M 31.996094 16.601562 C 40.503906 16.601562 47.394531 23.496094 47.394531 32 C 47.394531 40.507812 40.5 47.398438 31.996094 47.398438 C 23.488281 47.398438 16.597656 40.503906 16.597656 32 C 16.597656 23.492188 23.492188 16.601562 31.996094 16.601562 Z M 31.996094 16.601562 "/>
<path fill-rule="nonzero" fill="rgb(97.647059%, 97.647059%, 97.647059%)" fill-opacity="1" d="M 32 20.800781 C 29.679688 20.800781 27.800781 22.203125 27.800781 24.300781 L 27.800781 25 L 36.199219 25 L 36.199219 24.300781 C 36.199219 22.203125 34.320312 20.800781 32 20.800781 Z M 27.800781 26.402344 L 27.800781 27.800781 L 36.199219 27.800781 L 36.199219 26.402344 Z M 27.800781 29.203125 L 27.800781 30.601562 L 36.199219 30.601562 L 36.199219 29.203125 Z M 27.800781 32.003906 L 27.800781 32.703125 C 27.800781 34.804688 29.679688 36.203125 32 36.203125 C 34.320312 36.203125 36.199219 34.804688 36.199219 32.703125 L 36.199219 32.003906 Z M 27.800781 32.003906 "/>
</svg>
