<?xml version="1.0" encoding="UTF-8"?>
<svg xmlns="http://www.w3.org/2000/svg" xmlns:xlink="http://www.w3.org/1999/xlink" width="64" height="64" viewBox="0 0 64 64">
<path fill-rule="nonzero" fill="rgb(70.980392%, 17.254902%, 75.686275%)" fill-opacity="1" d="M 15.609375 8.464844 C 15.609375 12.410156 12.410156 15.609375 8.464844 15.609375 C 4.519531 15.609375 1.324219 12.410156 1.324219 8.464844 C 1.324219 4.519531 4.519531 1.324219 8.464844 1.324219 C 12.410156 1.324219 15.609375 4.519531 15.609375 8.464844 Z M 15.609375 8.464844 "/>
<path fill-rule="nonzero" fill="rgb(100%, 100%, 100%)" fill-opacity="1" d="M 11.089844 3.703125 L 7.648438 4.738281 L 8.179688 6.5 C 9.070312 6.371094 9.941406 6.859375 10.292969 7.691406 L 12.121094 7.144531 Z M 7.09375 4.902344 L 3.65625 5.933594 L 4.6875 9.375 L 6.511719 8.828125 C 6.441406 8.429688 6.488281 8.023438 6.652344 7.65625 L 7.378906 8.085938 C 7.324219 8.246094 7.304688 8.414062 7.324219 8.582031 L 8.128906 8.34375 L 7.871094 7.484375 C 7.800781 7.527344 7.734375 7.574219 7.675781 7.632812 L 6.941406 7.195312 C 7.128906 6.972656 7.363281 6.792969 7.625 6.667969 Z M 8.425781 7.316406 C 8.425781 7.316406 8.421875 7.316406 8.421875 7.316406 L 8.679688 8.175781 L 9.488281 7.933594 C 9.28125 7.539062 8.867188 7.300781 8.425781 7.316406 Z M 12.246094 7.558594 L 10.421875 8.105469 C 10.585938 8.996094 10.128906 9.882812 9.308594 10.265625 L 9.839844 12.03125 L 13.277344 10.996094 Z M 9.609375 8.347656 L 8.804688 8.589844 L 9.0625 9.449219 C 9.441406 9.21875 9.65625 8.789062 9.609375 8.347656 Z M 8.253906 8.757812 L 7.445312 9 C 7.652344 9.394531 8.066406 9.632812 8.511719 9.617188 Z M 6.640625 9.242188 L 4.8125 9.789062 L 5.84375 13.230469 L 9.285156 12.195312 L 8.753906 10.429688 C 7.859375 10.5625 6.992188 10.074219 6.640625 9.242188 Z M 6.640625 9.242188 "/>
</svg>
