<?xml version="1.0" encoding="UTF-8"?>
<svg xmlns="http://www.w3.org/2000/svg" xmlns:xlink="http://www.w3.org/1999/xlink" width="64" height="64" viewBox="0 0 64 64">
<path fill-rule="nonzero" fill="rgb(97.647059%, 97.647059%, 97.647059%)" fill-opacity="1" d="M 15.609375 8.464844 C 15.609375 12.410156 12.410156 15.609375 8.464844 15.609375 C 4.519531 15.609375 1.324219 12.410156 1.324219 8.464844 C 1.324219 4.519531 4.519531 1.324219 8.464844 1.324219 C 12.410156 1.324219 15.609375 4.519531 15.609375 8.464844 Z M 15.609375 8.464844 "/>
<path fill-rule="nonzero" fill="rgb(1.176471%, 67.843137%, 92.156863%)" fill-opacity="1" d="M 4.046875 6.644531 C 4.535156 6.441406 5.234375 6.664062 5.445312 7.148438 L 7.332031 11.507812 C 7.542969 11.996094 7.195312 12.480469 6.707031 12.6875 C 6.21875 12.890625 5.5625 12.683594 5.351562 12.199219 L 3.515625 8.011719 C 3.300781 7.523438 3.558594 6.851562 4.046875 6.644531 Z M 4.046875 6.644531 "/>
<path fill-rule="nonzero" fill="rgb(33.333333%, 61.568627%, 93.72549%)" fill-opacity="1" d="M 12.886719 6.644531 C 12.398438 6.441406 11.699219 6.664062 11.488281 7.148438 L 9.601562 11.507812 C 9.390625 11.996094 9.730469 12.550781 10.21875 12.753906 C 10.707031 12.960938 11.371094 12.683594 11.582031 12.199219 L 13.417969 8.011719 C 13.628906 7.523438 13.375 6.851562 12.886719 6.644531 Z M 12.886719 6.644531 "/>
<path fill-rule="nonzero" fill="rgb(4.705882%, 80%, 99.215686%)" fill-opacity="1" d="M 9.1875 7.320312 C 9.726562 8.019531 10.128906 8.835938 10.429688 9.347656 C 10.726562 9.863281 10.777344 9.972656 11.007812 10.390625 C 11.234375 10.8125 11.746094 11.15625 12.269531 10.632812 C 12.222656 10.75 11.808594 11.765625 11.601562 12.1875 C 11.464844 12.464844 11.375 12.5625 11.128906 12.699219 C 10.667969 12.960938 9.96875 12.800781 9.699219 12.34375 L 7.378906 8.414062 C 8.207031 7.914062 8.328125 7.8125 9.1875 7.320312 Z M 9.1875 7.320312 "/>
<path fill-rule="nonzero" fill="rgb(11.764706%, 88.627451%, 99.215686%)" fill-opacity="1" d="M 9.355469 6.207031 C 8.777344 6.324219 8.070312 6.875 7.746094 7.292969 C 7.210938 7.992188 6.804688 8.808594 6.507812 9.324219 C 6.207031 9.835938 6.15625 9.945312 5.929688 10.367188 C 5.699219 10.785156 5.175781 11.132812 4.652344 10.609375 C 4.699219 10.726562 5.125 11.738281 5.332031 12.160156 C 5.46875 12.441406 5.5625 12.535156 5.804688 12.675781 C 6.265625 12.933594 6.96875 12.773438 7.238281 12.320312 L 9.554688 8.386719 C 9.691406 8.160156 9.945312 7.785156 10.3125 7.417969 C 10.703125 7.023438 11.171875 6.808594 11.011719 6.550781 C 10.671875 6.007812 9.953125 6.085938 9.378906 6.199219 Z M 9.355469 6.207031 "/>
<path fill-rule="nonzero" fill="rgb(25.490196%, 95.294118%, 99.215686%)" fill-opacity="1" d="M 6.546875 7.695312 C 6.21875 7.574219 5.949219 7.339844 5.914062 6.894531 C 5.875 6.449219 6.140625 6.128906 6.445312 6.144531 C 6.753906 6.160156 6.859375 6.417969 6.785156 6.65625 C 6.714844 6.894531 6.644531 6.984375 6.597656 7.148438 C 6.554688 7.3125 6.550781 7.484375 6.546875 7.695312 Z M 6.546875 7.695312 "/>
<path fill-rule="nonzero" fill="rgb(40%, 93.72549%, 100%)" fill-opacity="1" d="M 7.40625 6.796875 C 7.128906 6.324219 7.203125 5.789062 7.363281 5.390625 C 7.523438 4.996094 7.914062 4.558594 8.34375 4.445312 C 8.773438 4.328125 9.164062 4.390625 9.339844 4.828125 C 9.515625 5.265625 9.132812 5.804688 8.679688 5.933594 C 8.222656 6.058594 7.804688 6.300781 7.40625 6.796875 Z M 7.40625 6.796875 "/>
<path fill-rule="nonzero" fill="rgb(40%, 93.72549%, 100%)" fill-opacity="1" d="M 11.011719 4.605469 C 11.011719 4.875 10.792969 5.089844 10.527344 5.089844 C 10.257812 5.089844 10.039062 4.875 10.039062 4.605469 C 10.039062 4.335938 10.257812 4.117188 10.527344 4.117188 C 10.792969 4.117188 11.011719 4.335938 11.011719 4.605469 Z M 11.011719 4.605469 "/>
<path fill-rule="nonzero" fill="rgb(74.117647%, 99.215686%, 99.607843%)" fill-opacity="1" d="M 10.054688 6.101562 C 9.816406 6.097656 9.574219 6.136719 9.359375 6.179688 C 9.085938 6.234375 8.785156 6.394531 8.511719 6.589844 C 8.320312 6.824219 8.179688 7.109375 8.15625 7.4375 C 8.101562 8.09375 8.558594 8.238281 8.953125 7.898438 C 9.015625 7.847656 9.046875 7.804688 9.085938 7.761719 C 9.253906 7.605469 10.285156 7.207031 10.941406 6.871094 C 11.050781 6.757812 11.105469 6.652344 11.039062 6.542969 C 10.824219 6.203125 10.445312 6.101562 10.054688 6.097656 Z M 10.054688 6.101562 "/>
<path fill-rule="nonzero" fill="rgb(74.117647%, 99.215686%, 99.607843%)" fill-opacity="1" d="M 10.863281 6.566406 C 10.828125 6.566406 10.792969 6.566406 10.753906 6.570312 C 10.238281 6.605469 9.578125 7.144531 9.324219 7.445312 C 9.257812 7.523438 9.175781 7.632812 9.085938 7.757812 C 9.269531 8.035156 9.59375 8.078125 9.921875 7.863281 C 10.035156 7.722656 10.160156 7.570312 10.3125 7.421875 C 10.664062 7.0625 11.105469 6.84375 11.066406 6.613281 C 11.003906 6.589844 10.9375 6.574219 10.863281 6.566406 Z M 10.863281 6.566406 "/>
</svg>
