<?xml version="1.0" encoding="UTF-8"?>
<svg xmlns="http://www.w3.org/2000/svg" xmlns:xlink="http://www.w3.org/1999/xlink" width="64" height="64" viewBox="0 0 64 64">
<defs>
<linearGradient id="linear-pattern-0" gradientUnits="userSpaceOnUse" x1="14" y1="11.5" x2="41.5" y2="56">
<stop offset="0" stop-color="rgb(30.980392%, 45.490196%, 98.823529%)" stop-opacity="1"/>
<stop offset="0.583333" stop-color="rgb(46.666667%, 18.039216%, 95.294118%)" stop-opacity="1"/>
<stop offset="0.651042" stop-color="rgb(48.235294%, 19.607843%, 96.078431%)" stop-opacity="1"/>
<stop offset="1" stop-color="rgb(54.509804%, 27.45098%, 100%)" stop-opacity="1"/>
</linearGradient>
</defs>
<path fill-rule="nonzero" fill="url(#linear-pattern-0)" d="M 32 59 C 46.910156 59 59 46.910156 59 32 C 59 17.089844 46.910156 5 32 5 C 17.089844 5 5 17.089844 5 32 C 5 46.910156 17.089844 59 32 59 Z M 32 59 "/>
<path fill-rule="nonzero" fill="rgb(100%, 100%, 100%)" fill-opacity="1" d="M 27.308594 21 C 26.855469 21 23.128906 21.097656 19.195312 23.746094 C 19.195312 23.746094 15 30.585938 15 39.011719 C 15 39.011719 17.449219 42.816406 23.886719 43 C 23.886719 43 24.964844 41.839844 25.835938 40.835938 C 22.136719 39.832031 20.738281 37.746094 20.738281 37.746094 C 20.738281 37.746094 21.03125 37.929688 21.554688 38.191406 C 21.585938 38.191406 21.613281 38.222656 21.671875 38.246094 C 21.757812 38.300781 21.847656 38.328125 21.933594 38.378906 C 22.660156 38.75 23.390625 39.039062 24.0625 39.277344 C 25.253906 39.726562 26.683594 40.121094 28.34375 40.414062 C 30.527344 40.78125 33.09375 40.914062 35.890625 40.445312 C 37.257812 40.207031 38.65625 39.863281 40.113281 39.308594 C 41.132812 38.964844 42.269531 38.464844 43.464844 37.75 C 43.464844 37.75 42.007812 39.890625 38.191406 40.867188 C 39.066406 41.84375 40.113281 42.980469 40.113281 42.980469 C 46.554688 42.792969 49 38.992188 49 39.019531 C 49 30.59375 44.804688 23.753906 44.804688 23.753906 C 40.636719 20.925781 36.648438 21.007812 36.648438 21.007812 L 36.238281 21.429688 C 41.191406 22.777344 43.492188 24.757812 43.492188 24.757812 C 40.464844 23.277344 37.492188 22.539062 34.722656 22.246094 C 32.625 22.035156 30.617188 22.089844 28.839844 22.300781 C 28.664062 22.300781 28.519531 22.332031 28.34375 22.355469 C 27.324219 22.460938 24.847656 22.777344 21.730469 24.019531 C 20.652344 24.441406 20.011719 24.757812 20.011719 24.757812 C 20.011719 24.757812 22.398438 22.671875 27.644531 21.324219 L 27.351562 21.007812 C 27.351562 21.007812 27.335938 21.007812 27.308594 21.007812 Z M 26.566406 30.746094 C 28.226562 30.746094 29.566406 32.039062 29.539062 33.652344 C 29.539062 35.261719 28.226562 36.554688 26.566406 36.554688 C 24.933594 36.554688 23.59375 35.261719 23.59375 33.652344 C 23.59375 32.039062 24.90625 30.746094 26.566406 30.746094 Z M 37.199219 30.746094 C 38.832031 30.746094 40.171875 32.039062 40.171875 33.652344 C 40.171875 35.261719 38.863281 36.554688 37.199219 36.554688 C 35.570312 36.554688 34.230469 35.261719 34.230469 33.652344 C 34.230469 32.039062 35.539062 30.746094 37.199219 30.746094 Z M 37.199219 30.746094 "/>
</svg>
