<?xml version="1.0" encoding="UTF-8"?>
<svg xmlns="http://www.w3.org/2000/svg" xmlns:xlink="http://www.w3.org/1999/xlink" width="64" height="64" viewBox="0 0 64 64">
<path fill-rule="nonzero" fill="rgb(53.333333%, 12.156863%, 63.529412%)" fill-opacity="1" d="M 15.609375 8.460938 C 15.609375 12.40625 12.410156 15.605469 8.464844 15.605469 C 4.519531 15.605469 1.324219 12.40625 1.324219 8.460938 C 1.324219 4.515625 4.519531 1.316406 8.464844 1.316406 C 12.410156 1.316406 15.609375 4.515625 15.609375 8.460938 Z M 15.609375 8.460938 "/>
<path fill-rule="nonzero" fill="rgb(100%, 100%, 100%)" fill-opacity="1" d="M 11.144531 7.046875 C 11.011719 7.058594 10.453125 7.183594 10.269531 7.226562 C 10.070312 7.277344 8.242188 8.691406 8.125 9.035156 C 8.097656 9.195312 8.082031 9.355469 8.085938 9.515625 L 8.070312 9.796875 C 8.070312 9.996094 8.128906 10.316406 8.152344 10.488281 C 8.273438 10.515625 9.144531 10.492188 9.304688 10.519531 L 9.28125 10.878906 C 9.125 10.867188 8.023438 10.871094 7.390625 10.871094 C 7.070312 10.871094 6.042969 10.90625 5.726562 10.894531 L 5.785156 10.554688 C 5.960938 10.542969 6.675781 10.585938 6.835938 10.417969 C 6.914062 10.335938 6.886719 10.246094 6.886719 9.769531 L 6.886719 9.542969 C 6.886719 9.433594 6.886719 9.234375 6.863281 9.046875 C 6.796875 8.847656 5.1875 6.839844 4.773438 6.519531 C 4.652344 6.476562 3.898438 6.402344 3.714844 6.363281 L 3.703125 6.054688 C 3.796875 6.011719 4.632812 6.066406 5.445312 6.035156 C 5.980469 6.015625 7.195312 6.035156 7.347656 6.054688 L 7.308594 6.324219 C 7.148438 6.367188 6.378906 6.382812 6.179688 6.433594 C 6.699219 7.207031 7.519531 8.203125 7.785156 8.59375 C 7.933594 8.378906 9.222656 7.492188 9.261719 7.183594 C 9.0625 7.144531 8.398438 7.050781 8.292969 7.050781 L 8.230469 6.699219 C 8.410156 6.671875 9.367188 6.699219 9.839844 6.699219 C 10.25 6.699219 11.125 6.699219 11.375 6.722656 L 11.148438 7.050781 M 12.015625 10.621094 L 11.707031 10.59375 L 11.703125 9.925781 L 12.09375 9.972656 L 12.445312 9.988281 L 12.347656 10.644531 L 12.015625 10.617188 M 12.414062 9.433594 L 11.835938 9.378906 C 11.898438 9.085938 11.84375 6.847656 11.839844 6.605469 L 11.8125 6.136719 C 11.972656 6.167969 11.945312 6.152344 12.625 6.222656 C 13.039062 6.265625 13.09375 6.285156 13.230469 6.289062 L 13.050781 6.847656 C 12.898438 7.292969 12.460938 9.285156 12.414062 9.433594 Z M 12.414062 9.433594 "/>
</svg>
