<?xml version="1.0" encoding="UTF-8"?>
<svg xmlns="http://www.w3.org/2000/svg" xmlns:xlink="http://www.w3.org/1999/xlink" width="64" height="64" viewBox="0 0 64 64">
<path fill-rule="nonzero" fill="rgb(7.843137%, 74.117647%, 34.901961%)" fill-opacity="1" d="M 15.609375 8.464844 C 15.609375 12.410156 12.410156 15.609375 8.464844 15.609375 C 4.519531 15.609375 1.324219 12.410156 1.324219 8.464844 C 1.324219 4.519531 4.519531 1.324219 8.464844 1.324219 C 12.410156 1.324219 15.609375 4.519531 15.609375 8.464844 Z M 15.609375 8.464844 "/>
<path fill-rule="evenodd" fill="rgb(70.588235%, 91.764706%, 43.137255%)" fill-opacity="1" d="M 7.082031 4.160156 C 9.132812 4.160156 10.796875 5.695312 10.796875 7.585938 C 10.796875 9.480469 9.132812 11.015625 7.082031 11.015625 C 6.535156 11.015625 5.992188 10.902344 5.5 10.683594 C 4.851562 11.238281 4.160156 11.292969 4.160156 11.292969 C 4.53125 10.867188 4.777344 10.292969 4.785156 10.28125 C 3.890625 9.628906 3.367188 8.636719 3.367188 7.585938 C 3.367188 5.695312 5.03125 4.160156 7.082031 4.160156 Z M 7.082031 4.160156 "/>
<path fill-rule="evenodd" fill="rgb(100%, 100%, 100%)" fill-opacity="1" d="M 10.648438 7.058594 C 9.007812 7.058594 7.679688 8.289062 7.679688 9.800781 C 7.679688 11.316406 9.007812 12.542969 10.648438 12.542969 C 11.089844 12.542969 11.519531 12.453125 11.917969 12.277344 C 12.433594 12.722656 12.988281 12.761719 12.988281 12.761719 C 12.691406 12.421875 12.492188 11.964844 12.488281 11.953125 C 13.203125 11.433594 13.621094 10.640625 13.621094 9.800781 C 13.621094 8.289062 12.289062 7.058594 10.648438 7.058594 Z M 10.648438 7.058594 "/>
<path fill-rule="evenodd" fill="rgb(30.196078%, 30.196078%, 30.196078%)" fill-opacity="1" d="M 6.28125 6.4375 C 6.28125 6.753906 6.027344 7.011719 5.710938 7.011719 C 5.394531 7.011719 5.140625 6.753906 5.140625 6.4375 C 5.140625 6.121094 5.394531 5.867188 5.710938 5.867188 C 6.027344 5.867188 6.28125 6.121094 6.28125 6.4375 Z M 6.28125 6.4375 "/>
<path fill-rule="evenodd" fill="rgb(30.196078%, 30.196078%, 30.196078%)" fill-opacity="1" d="M 8.949219 6.4375 C 8.949219 6.753906 8.691406 7.011719 8.375 7.011719 C 8.058594 7.011719 7.804688 6.753906 7.804688 6.4375 C 7.804688 6.121094 8.058594 5.867188 8.375 5.867188 C 8.691406 5.867188 8.949219 6.121094 8.949219 6.4375 Z M 8.949219 6.4375 "/>
<path fill-rule="evenodd" fill="rgb(30.196078%, 30.196078%, 30.196078%)" fill-opacity="1" d="M 10.011719 8.890625 C 10.011719 9.144531 9.804688 9.347656 9.554688 9.347656 C 9.300781 9.347656 9.097656 9.144531 9.097656 8.890625 C 9.097656 8.636719 9.300781 8.433594 9.554688 8.433594 C 9.804688 8.433594 10.011719 8.636719 10.011719 8.890625 Z M 10.011719 8.890625 "/>
<path fill-rule="evenodd" fill="rgb(30.196078%, 30.196078%, 30.196078%)" fill-opacity="1" d="M 12.140625 8.890625 C 12.140625 9.144531 11.9375 9.347656 11.683594 9.347656 C 11.433594 9.347656 11.226562 9.144531 11.226562 8.890625 C 11.226562 8.636719 11.433594 8.433594 11.683594 8.433594 C 11.9375 8.433594 12.140625 8.636719 12.140625 8.890625 Z M 12.140625 8.890625 "/>
</svg>
