<?xml version="1.0" encoding="UTF-8"?>
<svg xmlns="http://www.w3.org/2000/svg" xmlns:xlink="http://www.w3.org/1999/xlink" width="64" height="64" viewBox="0 0 64 64">
<path fill-rule="nonzero" fill="rgb(40.392157%, 67.45098%, 36.862745%)" fill-opacity="1" d="M 32 5 C 46.910156 5 59 17.085938 59 32 C 59 46.910156 46.910156 59 32 59 C 17.085938 59 5 46.910156 5 32 C 5 17.085938 17.085938 5 32 5 Z M 32 5 "/>
<path fill-rule="evenodd" fill="rgb(100%, 100%, 100%)" fill-opacity="1" d="M 30.585938 24.375 C 30.375 23.832031 30.214844 23.8125 29.890625 23.792969 C 29.78125 23.785156 29.65625 23.78125 29.527344 23.78125 C 29.105469 23.78125 28.675781 23.917969 28.414062 24.199219 C 28.097656 24.550781 27.304688 25.367188 27.304688 27.046875 C 27.304688 28.730469 28.4375 30.355469 28.597656 30.578125 C 28.757812 30.808594 30.824219 34.304688 34.027344 35.730469 C 36.53125 36.847656 37.277344 36.75 37.847656 36.617188 C 38.675781 36.417969 39.722656 35.761719 39.984375 34.964844 C 40.25 34.167969 40.25 33.484375 40.171875 33.339844 C 40.089844 33.203125 39.878906 33.113281 39.5625 32.941406 C 39.246094 32.773438 37.683594 31.945312 37.390625 31.832031 C 37.097656 31.71875 36.828125 31.753906 36.609375 32.085938 C 36.296875 32.546875 36 33.019531 35.753906 33.296875 C 35.5625 33.519531 35.253906 33.550781 34.980469 33.425781 C 34.628906 33.269531 33.640625 32.894531 32.429688 31.730469 C 31.484375 30.828125 30.84375 29.707031 30.660156 29.367188 C 30.472656 29.027344 30.640625 28.824219 30.789062 28.636719 C 30.949219 28.425781 31.097656 28.273438 31.257812 28.074219 C 31.417969 27.875 31.503906 27.769531 31.613281 27.535156 C 31.71875 27.308594 31.648438 27.074219 31.566406 26.90625 C 31.488281 26.734375 30.851562 25.050781 30.589844 24.371094 "/>
<path fill-rule="nonzero" fill="rgb(97.647059%, 97.647059%, 97.647059%)" fill-opacity="1" d="M 33.175781 16.738281 C 25.410156 16.738281 19.085938 23.058594 19.089844 30.824219 C 19.089844 33.367188 19.855469 35.820312 21.152344 37.992188 L 17.914062 46.085938 L 25.738281 42.671875 C 27.972656 44.074219 30.523438 44.910156 33.175781 44.914062 C 40.941406 44.914062 47.261719 38.589844 47.261719 30.824219 C 47.261719 23.058594 40.941406 16.738281 33.175781 16.738281 Z M 33.175781 19.085938 C 39.671875 19.085938 44.914062 24.328125 44.914062 30.824219 C 44.914062 37.320312 39.671875 42.566406 33.175781 42.566406 C 30.761719 42.5625 28.40625 41.8125 26.433594 40.421875 L 25.890625 40.042969 L 22.234375 41.640625 L 23.746094 37.828125 L 23.402344 37.316406 C 22.121094 35.394531 21.4375 33.132812 21.4375 30.824219 C 21.4375 24.328125 26.679688 19.085938 33.175781 19.085938 Z M 33.175781 19.085938 "/>
</svg>
