<?xml version="1.0" encoding="UTF-8"?>
<svg xmlns="http://www.w3.org/2000/svg" xmlns:xlink="http://www.w3.org/1999/xlink" width="64" height="64" viewBox="0 0 64 64">
<defs>
<filter id="filter-remove-color" x="0%" y="0%" width="100%" height="100%">
<feColorMatrix color-interpolation-filters="sRGB" values="0 0 0 0 1 0 0 0 0 1 0 0 0 0 1 0 0 0 1 0" />
</filter>
<mask id="mask-0">
<g filter="url(#filter-remove-color)">
<rect x="-6.4" y="-6.4" width="76.8" height="76.8" fill="rgb(0%, 0%, 0%)" fill-opacity="0.75"/>
</g>
</mask>
<clipPath id="clip-0">
<rect x="0" y="0" width="17" height="17"/>
</clipPath>
<g id="source-5647" clip-path="url(#clip-0)">
<path fill-rule="nonzero" fill="rgb(100%, 100%, 100%)" fill-opacity="1" d="M 5.40625 2.910156 C 4.355469 3.484375 3.492188 4.347656 2.910156 5.394531 L 2.910156 5.554688 C 2.910156 5.847656 3.144531 6.085938 3.4375 6.085938 L 5.554688 6.085938 C 5.847656 6.085938 6.085938 5.847656 6.085938 5.554688 L 6.085938 3.4375 C 6.085938 3.144531 5.847656 2.910156 5.554688 2.910156 Z M 5.40625 2.910156 "/>
</g>
<mask id="mask-1">
<g filter="url(#filter-remove-color)">
<rect x="-6.4" y="-6.4" width="76.8" height="76.8" fill="rgb(0%, 0%, 0%)" fill-opacity="0.75"/>
</g>
</mask>
<clipPath id="clip-1">
<rect x="0" y="0" width="17" height="17"/>
</clipPath>
<g id="source-5651" clip-path="url(#clip-1)">
<path fill-rule="nonzero" fill="rgb(100%, 100%, 100%)" fill-opacity="1" d="M 7.40625 2.910156 L 9.523438 2.910156 C 9.816406 2.910156 10.054688 3.148438 10.054688 3.4375 L 10.054688 5.554688 C 10.054688 5.847656 9.816406 6.085938 9.523438 6.085938 L 7.40625 6.085938 C 7.117188 6.085938 6.878906 5.847656 6.878906 5.554688 L 6.878906 3.4375 C 6.878906 3.148438 7.117188 2.910156 7.40625 2.910156 Z M 7.40625 2.910156 "/>
</g>
<mask id="mask-2">
<g filter="url(#filter-remove-color)">
<rect x="-6.4" y="-6.4" width="76.8" height="76.8" fill="rgb(0%, 0%, 0%)" fill-opacity="0.75"/>
</g>
</mask>
<clipPath id="clip-2">
<rect x="0" y="0" width="17" height="17"/>
</clipPath>
<g id="source-5655" clip-path="url(#clip-2)">
<path fill-rule="nonzero" fill="rgb(100%, 100%, 100%)" fill-opacity="1" d="M 11.378906 2.910156 C 11.082031 2.910156 10.847656 3.144531 10.847656 3.4375 L 10.847656 5.554688 C 10.847656 5.847656 11.082031 6.085938 11.378906 6.085938 L 13.492188 6.085938 C 13.789062 6.085938 14.023438 5.847656 14.023438 5.554688 L 14.023438 5.40625 C 13.445312 4.355469 12.585938 3.492188 11.539062 2.910156 Z M 11.378906 2.910156 "/>
</g>
<mask id="mask-3">
<g filter="url(#filter-remove-color)">
<rect x="-6.4" y="-6.4" width="76.8" height="76.8" fill="rgb(0%, 0%, 0%)" fill-opacity="0.75"/>
</g>
</mask>
<clipPath id="clip-3">
<rect x="0" y="0" width="17" height="17"/>
</clipPath>
<g id="source-5659" clip-path="url(#clip-3)">
<path fill-rule="nonzero" fill="rgb(100%, 100%, 100%)" fill-opacity="1" d="M 3.4375 6.878906 L 5.554688 6.878906 C 5.847656 6.878906 6.085938 7.117188 6.085938 7.410156 L 6.085938 9.527344 C 6.085938 9.816406 5.847656 10.054688 5.554688 10.054688 L 3.4375 10.054688 C 3.148438 10.054688 2.910156 9.816406 2.910156 9.527344 L 2.910156 7.410156 C 2.910156 7.117188 3.148438 6.878906 3.4375 6.878906 Z M 3.4375 6.878906 "/>
</g>
<mask id="mask-4">
<g filter="url(#filter-remove-color)">
<rect x="-6.4" y="-6.4" width="76.8" height="76.8" fill="rgb(0%, 0%, 0%)" fill-opacity="0.75"/>
</g>
</mask>
<clipPath id="clip-4">
<rect x="0" y="0" width="17" height="17"/>
</clipPath>
<g id="source-5663" clip-path="url(#clip-4)">
<path fill-rule="nonzero" fill="rgb(100%, 100%, 100%)" fill-opacity="1" d="M 7.40625 6.878906 L 9.523438 6.878906 C 9.816406 6.878906 10.054688 7.117188 10.054688 7.410156 L 10.054688 9.527344 C 10.054688 9.816406 9.816406 10.054688 9.523438 10.054688 L 7.40625 10.054688 C 7.117188 10.054688 6.878906 9.816406 6.878906 9.527344 L 6.878906 7.410156 C 6.878906 7.117188 7.117188 6.878906 7.40625 6.878906 Z M 7.40625 6.878906 "/>
</g>
<mask id="mask-5">
<g filter="url(#filter-remove-color)">
<rect x="-6.4" y="-6.4" width="76.8" height="76.8" fill="rgb(0%, 0%, 0%)" fill-opacity="0.75"/>
</g>
</mask>
<clipPath id="clip-5">
<rect x="0" y="0" width="17" height="17"/>
</clipPath>
<g id="source-5667" clip-path="url(#clip-5)">
<path fill-rule="nonzero" fill="rgb(100%, 100%, 100%)" fill-opacity="1" d="M 11.378906 6.878906 L 13.492188 6.878906 C 13.785156 6.878906 14.023438 7.117188 14.023438 7.410156 L 14.023438 9.527344 C 14.023438 9.816406 13.785156 10.054688 13.492188 10.054688 L 11.378906 10.054688 C 11.085938 10.054688 10.847656 9.816406 10.847656 9.527344 L 10.847656 7.410156 C 10.847656 7.117188 11.085938 6.878906 11.378906 6.878906 Z M 11.378906 6.878906 "/>
</g>
<mask id="mask-6">
<g filter="url(#filter-remove-color)">
<rect x="-6.4" y="-6.4" width="76.8" height="76.8" fill="rgb(0%, 0%, 0%)" fill-opacity="0.75"/>
</g>
</mask>
<clipPath id="clip-6">
<rect x="0" y="0" width="17" height="17"/>
</clipPath>
<g id="source-5671" clip-path="url(#clip-6)">
<path fill-rule="nonzero" fill="rgb(100%, 100%, 100%)" fill-opacity="1" d="M 3.4375 10.851562 C 3.144531 10.851562 2.910156 11.085938 2.910156 11.378906 L 2.910156 11.527344 C 3.488281 12.578125 4.351562 13.445312 5.398438 14.027344 L 5.554688 14.027344 C 5.847656 14.027344 6.085938 13.789062 6.085938 13.496094 L 6.085938 11.378906 C 6.085938 11.085938 5.847656 10.851562 5.554688 10.851562 Z M 3.4375 10.851562 "/>
</g>
<mask id="mask-7">
<g filter="url(#filter-remove-color)">
<rect x="-6.4" y="-6.4" width="76.8" height="76.8" fill="rgb(0%, 0%, 0%)" fill-opacity="0.75"/>
</g>
</mask>
<clipPath id="clip-7">
<rect x="0" y="0" width="17" height="17"/>
</clipPath>
<g id="source-5675" clip-path="url(#clip-7)">
<path fill-rule="nonzero" fill="rgb(100%, 100%, 100%)" fill-opacity="1" d="M 7.40625 10.851562 L 9.523438 10.851562 C 9.816406 10.851562 10.054688 11.085938 10.054688 11.378906 L 10.054688 13.496094 C 10.054688 13.789062 9.816406 14.023438 9.523438 14.023438 L 7.40625 14.023438 C 7.117188 14.023438 6.878906 13.789062 6.878906 13.496094 L 6.878906 11.378906 C 6.878906 11.085938 7.117188 10.851562 7.40625 10.851562 Z M 7.40625 10.851562 "/>
</g>
<mask id="mask-8">
<g filter="url(#filter-remove-color)">
<rect x="-6.4" y="-6.4" width="76.8" height="76.8" fill="rgb(0%, 0%, 0%)" fill-opacity="0.75"/>
</g>
</mask>
<clipPath id="clip-8">
<rect x="0" y="0" width="17" height="17"/>
</clipPath>
<g id="source-5679" clip-path="url(#clip-8)">
<path fill-rule="nonzero" fill="rgb(100%, 100%, 100%)" fill-opacity="1" d="M 11.375 10.851562 C 11.082031 10.851562 10.847656 11.085938 10.847656 11.378906 L 10.847656 13.496094 C 10.847656 13.789062 11.082031 14.023438 11.375 14.023438 L 11.523438 14.023438 C 12.574219 13.449219 13.441406 12.585938 14.023438 11.539062 L 14.023438 11.378906 C 14.023438 11.085938 13.789062 10.851562 13.492188 10.851562 Z M 11.375 10.851562 "/>
</g>
</defs>
<path fill-rule="nonzero" fill="rgb(30.196078%, 30.196078%, 30.196078%)" fill-opacity="1" d="M 15.609375 8.464844 C 15.609375 12.410156 12.410156 15.609375 8.464844 15.609375 C 4.519531 15.609375 1.324219 12.410156 1.324219 8.464844 C 1.324219 4.519531 4.519531 1.324219 8.464844 1.324219 C 12.410156 1.324219 15.609375 4.519531 15.609375 8.464844 Z M 15.609375 8.464844 "/>
<g mask="url(#mask-0)">
<use xlink:href="#source-5647"/>
</g>
<g mask="url(#mask-1)">
<use xlink:href="#source-5651"/>
</g>
<g mask="url(#mask-2)">
<use xlink:href="#source-5655"/>
</g>
<g mask="url(#mask-3)">
<use xlink:href="#source-5659"/>
</g>
<g mask="url(#mask-4)">
<use xlink:href="#source-5663"/>
</g>
<g mask="url(#mask-5)">
<use xlink:href="#source-5667"/>
</g>
<g mask="url(#mask-6)">
<use xlink:href="#source-5671"/>
</g>
<g mask="url(#mask-7)">
<use xlink:href="#source-5675"/>
</g>
<g mask="url(#mask-8)">
<use xlink:href="#source-5679"/>
</g>
</svg>
