<?xml version="1.0" encoding="UTF-8"?>
<svg xmlns="http://www.w3.org/2000/svg" xmlns:xlink="http://www.w3.org/1999/xlink" width="64" height="64" viewBox="0 0 64 64">
<defs>
<filter id="filter-remove-color" x="0%" y="0%" width="100%" height="100%">
<feColorMatrix color-interpolation-filters="sRGB" values="0 0 0 0 1 0 0 0 0 1 0 0 0 0 1 0 0 0 1 0" />
</filter>
<mask id="mask-0">
<g filter="url(#filter-remove-color)">
<rect x="-6.4" y="-6.4" width="76.8" height="76.8" fill="rgb(0%, 0%, 0%)" fill-opacity="0.35"/>
</g>
</mask>
<clipPath id="clip-0">
<rect x="0" y="0" width="64" height="64"/>
</clipPath>
<g id="source-7632" clip-path="url(#clip-0)">
<path fill-rule="nonzero" fill="rgb(0%, 0%, 0%)" fill-opacity="1" d="M 45.503906 12 C 46.332031 12 47.003906 12.671875 47.003906 13.5 C 47.003906 14.328125 46.332031 15 45.503906 15 C 44.675781 15 44.003906 14.328125 44.003906 13.5 C 44.003906 12.671875 44.675781 12 45.503906 12 Z M 45.503906 12 "/>
</g>
<mask id="mask-1">
<g filter="url(#filter-remove-color)">
<rect x="-6.4" y="-6.4" width="76.8" height="76.8" fill="rgb(0%, 0%, 0%)" fill-opacity="0.35"/>
</g>
</mask>
<clipPath id="clip-1">
<rect x="0" y="0" width="64" height="64"/>
</clipPath>
<g id="source-7636" clip-path="url(#clip-1)">
<path fill-rule="nonzero" fill="rgb(0%, 0%, 0%)" fill-opacity="1" d="M 39.5 12 C 40.328125 12 41 12.671875 41 13.5 C 41 14.328125 40.328125 15 39.5 15 C 38.671875 15 38 14.328125 38 13.5 C 38 12.671875 38.671875 12 39.5 12 Z M 39.5 12 "/>
</g>
<mask id="mask-2">
<g filter="url(#filter-remove-color)">
<rect x="-6.4" y="-6.4" width="76.8" height="76.8" fill="rgb(0%, 0%, 0%)" fill-opacity="0.35"/>
</g>
</mask>
<clipPath id="clip-2">
<rect x="0" y="0" width="64" height="64"/>
</clipPath>
<g id="source-7640" clip-path="url(#clip-2)">
<path fill-rule="nonzero" fill="rgb(0%, 0%, 0%)" fill-opacity="1" d="M 33.5 12 C 34.328125 12 35 12.671875 35 13.5 C 35 14.328125 34.328125 15 33.5 15 C 32.671875 15 32 14.328125 32 13.5 C 32 12.671875 32.671875 12 33.5 12 Z M 33.5 12 "/>
</g>
<mask id="mask-3">
<g filter="url(#filter-remove-color)">
<rect x="-6.4" y="-6.4" width="76.8" height="76.8" fill="rgb(0%, 0%, 0%)" fill-opacity="0.1"/>
</g>
</mask>
<clipPath id="clip-3">
<rect x="0" y="0" width="64" height="64"/>
</clipPath>
<g id="source-7644" clip-path="url(#clip-3)">
<path fill-rule="nonzero" fill="rgb(0%, 0%, 0%)" fill-opacity="1" d="M 20 31 L 20 48.511719 C 20 48.78125 20.222656 49 20.5 49 L 49.5 49 C 49.773438 49 50 48.78125 49.996094 48.511719 L 50 31 L 49 31 L 49 48 L 21 48 L 21 31 L 19.996094 31 Z M 20 31 "/>
</g>
<mask id="mask-4">
<g filter="url(#filter-remove-color)">
<rect x="-6.4" y="-6.4" width="76.8" height="76.8" fill="rgb(0%, 0%, 0%)" fill-opacity="0.35"/>
</g>
</mask>
<clipPath id="clip-4">
<rect x="0" y="0" width="64" height="64"/>
</clipPath>
<g id="source-7649" clip-path="url(#clip-4)">
<path fill-rule="nonzero" fill="rgb(0%, 0%, 0%)" fill-opacity="1" d="M 45.5 25 C 46.328125 25 47 25.671875 47 26.5 C 47 27.328125 46.328125 28 45.5 28 C 44.671875 28 44 27.328125 44 26.5 C 44 25.671875 44.671875 25 45.5 25 Z M 45.5 25 "/>
</g>
<mask id="mask-5">
<g filter="url(#filter-remove-color)">
<rect x="-6.4" y="-6.4" width="76.8" height="76.8" fill="rgb(0%, 0%, 0%)" fill-opacity="0.35"/>
</g>
</mask>
<clipPath id="clip-5">
<rect x="0" y="0" width="64" height="64"/>
</clipPath>
<g id="source-7653" clip-path="url(#clip-5)">
<path fill-rule="nonzero" fill="rgb(0%, 0%, 0%)" fill-opacity="1" d="M 39.5 25 C 40.328125 25 41 25.671875 41 26.5 C 41 27.328125 40.328125 28 39.5 28 C 38.671875 28 38 27.328125 38 26.5 C 38 25.671875 38.671875 25 39.5 25 Z M 39.5 25 "/>
</g>
<mask id="mask-6">
<g filter="url(#filter-remove-color)">
<rect x="-6.4" y="-6.4" width="76.8" height="76.8" fill="rgb(0%, 0%, 0%)" fill-opacity="0.35"/>
</g>
</mask>
<clipPath id="clip-6">
<rect x="0" y="0" width="64" height="64"/>
</clipPath>
<g id="source-7657" clip-path="url(#clip-6)">
<path fill-rule="nonzero" fill="rgb(0%, 0%, 0%)" fill-opacity="1" d="M 33.5 25 C 34.328125 25 35 25.671875 35 26.5 C 35 27.328125 34.328125 28 33.5 28 C 32.671875 28 32 27.328125 32 26.5 C 32 25.671875 32.671875 25 33.5 25 Z M 33.5 25 "/>
</g>
</defs>
<path fill-rule="nonzero" fill="rgb(97.647059%, 97.647059%, 97.647059%)" fill-opacity="1" d="M 8.953125 18 C 6.378906 22.214844 5.011719 27.058594 5 32 C 5 46.910156 17.089844 59 32 59 C 46.910156 59 59 46.910156 59 32 C 58.992188 27.058594 57.628906 22.21875 55.058594 18 C 55.054688 18 55.054688 18 55.054688 18 Z M 8.953125 18 "/>
<path fill-rule="nonzero" fill="rgb(40%, 40%, 40%)" fill-opacity="1" d="M 32 5 C 22.574219 5.011719 13.839844 9.941406 8.953125 18 L 55.058594 18 C 50.167969 9.9375 41.429688 5.011719 32 5 Z M 32 5 "/>
<g mask="url(#mask-0)">
<use xlink:href="#source-7632"/>
</g>
<g mask="url(#mask-1)">
<use xlink:href="#source-7636"/>
</g>
<g mask="url(#mask-2)">
<use xlink:href="#source-7640"/>
</g>
<g mask="url(#mask-3)">
<use xlink:href="#source-7644"/>
</g>
<path fill-rule="nonzero" fill="rgb(40%, 40%, 40%)" fill-opacity="1" d="M 21 22 C 20.460938 22 19.996094 22.449219 20 23 L 20 31 L 50 31 L 50 23 C 50 22.449219 49.445312 22 49 22 Z M 21 22 "/>
<g mask="url(#mask-4)">
<use xlink:href="#source-7649"/>
</g>
<g mask="url(#mask-5)">
<use xlink:href="#source-7653"/>
</g>
<g mask="url(#mask-6)">
<use xlink:href="#source-7657"/>
</g>
</svg>
