<?xml version="1.0" encoding="UTF-8"?>
<svg xmlns="http://www.w3.org/2000/svg" xmlns:xlink="http://www.w3.org/1999/xlink" width="64" height="64" viewBox="0 0 64 64">
<defs>
<filter id="filter-remove-color" x="0%" y="0%" width="100%" height="100%">
<feColorMatrix color-interpolation-filters="sRGB" values="0 0 0 0 1 0 0 0 0 1 0 0 0 0 1 0 0 0 1 0" />
</filter>
<mask id="mask-0">
<g filter="url(#filter-remove-color)">
<rect x="-6.4" y="-6.4" width="76.8" height="76.8" fill="rgb(0%, 0%, 0%)" fill-opacity="0.5"/>
</g>
</mask>
<clipPath id="clip-0">
<rect x="0" y="0" width="17" height="17"/>
</clipPath>
<g id="source-1387" clip-path="url(#clip-0)">
<path fill-rule="nonzero" fill="rgb(100%, 100%, 100%)" fill-opacity="1" d="M 11.113281 12.171875 L 13.757812 12.171875 C 14.050781 12.171875 14.285156 12.40625 14.285156 12.699219 C 14.285156 12.992188 14.050781 13.230469 13.757812 13.230469 L 11.113281 13.230469 C 10.820312 13.230469 10.582031 12.992188 10.582031 12.699219 C 10.582031 12.40625 10.820312 12.171875 11.113281 12.171875 Z M 11.113281 12.171875 "/>
</g>
</defs>
<path fill-rule="nonzero" fill="rgb(21.176471%, 22.352941%, 28.627451%)" fill-opacity="1" d="M 15.609375 8.464844 C 15.609375 12.410156 12.410156 15.609375 8.464844 15.609375 C 4.519531 15.609375 1.324219 12.410156 1.324219 8.464844 C 1.324219 4.519531 4.519531 1.324219 8.464844 1.324219 C 12.410156 1.324219 15.609375 4.519531 15.609375 8.464844 Z M 15.609375 8.464844 "/>
<path fill-rule="nonzero" fill="rgb(100%, 100%, 100%)" fill-opacity="1" d="M 4.851562 8.203125 L 4.847656 5.621094 L 7.742188 5.191406 L 7.742188 8.203125 Z M 8.226562 5.113281 L 12.082031 4.496094 L 12.082031 8.203125 L 8.226562 8.203125 Z M 12.085938 8.730469 L 12.082031 12.433594 L 8.226562 11.839844 L 8.226562 8.730469 Z M 7.742188 11.773438 L 4.851562 11.335938 L 4.851562 8.730469 L 7.742188 8.730469 Z M 7.742188 11.773438 "/>
<path fill-rule="nonzero" fill="rgb(100%, 33.333333%, 33.333333%)" fill-opacity="1" d="M 15.875 12.699219 C 15.875 14.453125 14.453125 15.875 12.699219 15.875 C 10.945312 15.875 9.523438 14.453125 9.523438 12.699219 C 9.523438 10.945312 10.945312 9.523438 12.699219 9.523438 C 14.453125 9.523438 15.875 10.945312 15.875 12.699219 Z M 15.875 12.699219 "/>
<g mask="url(#mask-0)">
<use xlink:href="#source-1387"/>
</g>
<path fill-rule="nonzero" fill="rgb(100%, 100%, 100%)" fill-opacity="1" d="M 14.816406 12.699219 C 14.816406 13.285156 14.34375 13.757812 13.757812 13.757812 C 13.171875 13.757812 12.699219 13.285156 12.699219 12.699219 C 12.699219 12.117188 13.171875 11.640625 13.757812 11.640625 C 14.34375 11.640625 14.816406 12.117188 14.816406 12.699219 Z M 14.816406 12.699219 "/>
</svg>
