<?xml version="1.0" encoding="UTF-8"?>
<svg xmlns="http://www.w3.org/2000/svg" xmlns:xlink="http://www.w3.org/1999/xlink" width="64" height="64" viewBox="0 0 64 64">
<path fill-rule="nonzero" fill="rgb(21.176471%, 22.352941%, 28.627451%)" fill-opacity="1" d="M 15.609375 8.464844 C 15.609375 12.410156 12.410156 15.609375 8.464844 15.609375 C 4.519531 15.609375 1.324219 12.410156 1.324219 8.464844 C 1.324219 4.519531 4.519531 1.324219 8.464844 1.324219 C 12.410156 1.324219 15.609375 4.519531 15.609375 8.464844 Z M 15.609375 8.464844 "/>
<path fill-rule="nonzero" fill="rgb(100%, 100%, 100%)" fill-opacity="1" d="M 4.851562 8.199219 L 4.847656 5.617188 L 7.742188 5.1875 L 7.742188 8.199219 Z M 8.226562 5.109375 L 12.082031 4.496094 L 12.082031 8.199219 L 8.226562 8.199219 Z M 12.085938 8.726562 L 12.082031 12.433594 L 8.226562 11.835938 L 8.226562 8.726562 Z M 7.742188 11.769531 L 4.851562 11.335938 L 4.851562 8.726562 L 7.742188 8.726562 Z M 7.742188 11.769531 "/>
<path fill-rule="nonzero" fill="rgb(100%, 33.333333%, 33.333333%)" fill-opacity="1" d="M 15.875 12.699219 C 15.875 14.453125 14.453125 15.875 12.699219 15.875 C 10.945312 15.875 9.523438 14.453125 9.523438 12.699219 C 9.523438 10.945312 10.945312 9.523438 12.699219 9.523438 C 14.453125 9.523438 15.875 10.945312 15.875 12.699219 Z M 15.875 12.699219 "/>
<path fill-rule="nonzero" fill="rgb(100%, 100%, 100%)" fill-opacity="1" d="M 11.390625 11.011719 L 14.382812 14.003906 L 14.011719 14.378906 L 11.015625 11.382812 Z M 11.390625 11.011719 "/>
<path fill-rule="nonzero" fill="rgb(100%, 100%, 100%)" fill-opacity="1" d="M 14.007812 11.011719 L 11.015625 14.003906 L 11.386719 14.378906 L 14.382812 11.382812 Z M 14.007812 11.011719 "/>
</svg>
