<?xml version="1.0" encoding="UTF-8"?>
<svg xmlns="http://www.w3.org/2000/svg" xmlns:xlink="http://www.w3.org/1999/xlink" width="64" height="64" viewBox="0 0 64 64">
<defs>
<filter id="filter-remove-color" x="0%" y="0%" width="100%" height="100%">
<feColorMatrix color-interpolation-filters="sRGB" values="0 0 0 0 1 0 0 0 0 1 0 0 0 0 1 0 0 0 1 0" />
</filter>
<mask id="mask-0">
<g filter="url(#filter-remove-color)">
<rect x="-6.4" y="-6.4" width="76.8" height="76.8" fill="rgb(0%, 0%, 0%)" fill-opacity="0.15"/>
</g>
</mask>
<clipPath id="clip-0">
<rect x="0" y="0" width="17" height="17"/>
</clipPath>
<g id="source-12016" clip-path="url(#clip-0)">
<path fill-rule="nonzero" fill="rgb(0%, 0%, 0%)" fill-opacity="1" d="M 14.289062 12.699219 C 14.289062 13.578125 13.578125 14.289062 12.699219 14.289062 C 11.824219 14.289062 11.113281 13.578125 11.113281 12.699219 C 11.113281 11.824219 11.824219 11.113281 12.699219 11.113281 C 13.578125 11.113281 14.289062 11.824219 14.289062 12.699219 Z M 14.289062 12.699219 "/>
</g>
</defs>
<path fill-rule="nonzero" fill="rgb(21.176471%, 22.352941%, 28.627451%)" fill-opacity="1" d="M 15.609375 8.464844 C 15.609375 12.410156 12.410156 15.609375 8.464844 15.609375 C 4.519531 15.609375 1.324219 12.410156 1.324219 8.464844 C 1.324219 4.519531 4.519531 1.324219 8.464844 1.324219 C 12.410156 1.324219 15.609375 4.519531 15.609375 8.464844 Z M 15.609375 8.464844 "/>
<path fill-rule="nonzero" fill="rgb(100%, 100%, 100%)" fill-opacity="1" d="M 4.851562 8.203125 L 4.847656 5.621094 L 7.742188 5.191406 L 7.742188 8.203125 Z M 8.226562 5.113281 L 12.082031 4.496094 L 12.082031 8.203125 L 8.226562 8.203125 Z M 12.085938 8.730469 L 12.082031 12.433594 L 8.226562 11.839844 L 8.226562 8.730469 Z M 7.742188 11.773438 L 4.851562 11.335938 L 4.851562 8.730469 L 7.742188 8.730469 Z M 7.742188 11.773438 "/>
<path fill-rule="nonzero" fill="rgb(100%, 33.333333%, 33.333333%)" fill-opacity="1" d="M 15.875 12.699219 C 15.875 14.453125 14.453125 15.875 12.699219 15.875 C 10.945312 15.875 9.523438 14.453125 9.523438 12.699219 C 9.523438 10.945312 10.945312 9.523438 12.699219 9.523438 C 14.453125 9.523438 15.875 10.945312 15.875 12.699219 Z M 15.875 12.699219 "/>
<g mask="url(#mask-0)">
<use xlink:href="#source-12016"/>
</g>
<path fill-rule="nonzero" fill="rgb(100%, 100%, 100%)" fill-opacity="1" d="M 12.699219 11.351562 C 11.957031 11.351562 11.355469 11.953125 11.355469 12.695312 C 11.355469 13.4375 11.957031 14.039062 12.699219 14.039062 C 13.441406 14.039062 14.042969 13.4375 14.042969 12.695312 C 14.042969 11.953125 13.441406 11.351562 12.699219 11.351562 Z M 12.699219 11.960938 C 12.894531 11.960938 13.082031 12.039062 13.21875 12.175781 C 13.355469 12.316406 13.433594 12.5 13.433594 12.695312 C 13.433594 13.101562 13.105469 13.429688 12.699219 13.429688 C 12.296875 13.429688 11.96875 13.101562 11.96875 12.695312 C 11.96875 12.292969 12.296875 11.964844 12.699219 11.964844 Z M 12.699219 11.960938 "/>
<path fill-rule="nonzero" fill="rgb(100%, 100%, 100%)" fill-opacity="1" d="M 12.457031 10.804688 L 12.945312 10.804688 L 12.945312 11.65625 L 12.457031 11.65625 Z M 12.457031 13.734375 L 12.945312 13.734375 L 12.945312 14.589844 L 12.457031 14.589844 Z M 14.59375 12.449219 L 14.59375 12.941406 L 13.738281 12.941406 L 13.738281 12.449219 Z M 11.660156 12.449219 L 11.660156 12.941406 L 10.808594 12.941406 L 10.808594 12.449219 Z M 14.210938 13.859375 L 13.867188 14.207031 L 13.261719 13.601562 L 13.605469 13.257812 Z M 12.140625 11.789062 L 11.792969 12.132812 L 11.1875 11.53125 L 11.535156 11.183594 Z M 11.535156 14.207031 L 11.1875 13.859375 L 11.792969 13.257812 L 12.140625 13.601562 Z M 13.605469 12.132812 L 13.261719 11.789062 L 13.867188 11.183594 L 14.210938 11.53125 Z M 13.605469 12.132812 "/>
</svg>
