<?xml version="1.0" encoding="UTF-8"?>
<svg xmlns="http://www.w3.org/2000/svg" xmlns:xlink="http://www.w3.org/1999/xlink" width="64" height="64" viewBox="0 0 64 64">
<path fill-rule="nonzero" fill="rgb(16.078431%, 56.078431%, 76.862745%)" fill-opacity="1" d="M 32 5 C 46.910156 5 59 17.085938 59 32 C 59 46.910156 46.910156 59 32 59 C 17.085938 59 5 46.910156 5 32 C 5 17.085938 17.085938 5 32 5 Z M 32 5 "/>
<path fill-rule="nonzero" fill="rgb(9.803922%, 32.54902%, 43.529412%)" fill-opacity="1" d="M 43.335938 17.875 C 32.398438 18.042969 26.277344 24.277344 23.046875 30.347656 C 20.09375 35.90625 19.648438 40.5 19.5625 41.390625 L 6.679688 41.390625 C 6.976562 42.191406 7.308594 42.976562 7.679688 43.738281 L 20.480469 43.738281 C 20.816406 43.738281 21.140625 43.585938 21.359375 43.335938 C 21.484375 43.1875 21.578125 43.011719 21.617188 42.820312 C 21.621094 42.769531 21.621094 42.71875 21.617188 42.675781 C 21.617188 42.675781 22.167969 37.113281 25.140625 31.523438 C 27.914062 26.308594 32.84375 21.269531 41.644531 20.480469 C 36.40625 30.964844 41.90625 43.078125 41.90625 43.078125 C 41.949219 43.128906 41.996094 43.179688 42.054688 43.222656 C 42.253906 43.523438 42.605469 43.71875 42.964844 43.738281 L 56.316406 43.738281 C 56.6875 42.976562 57.019531 42.191406 57.320312 41.390625 L 43.84375 41.390625 C 43.394531 40.386719 38.335938 28.808594 44.402344 19.671875 C 44.558594 19.398438 44.597656 19.058594 44.511719 18.757812 C 44.46875 18.570312 44.378906 18.390625 44.253906 18.242188 C 44.019531 17.996094 43.675781 17.859375 43.335938 17.875 Z M 43.335938 17.875 "/>
</svg>
