<?xml version="1.0" encoding="UTF-8"?>
<svg xmlns="http://www.w3.org/2000/svg" xmlns:xlink="http://www.w3.org/1999/xlink" width="64" height="64" viewBox="0 0 64 64">
<path fill-rule="nonzero" fill="rgb(34.117647%, 57.647059%, 96.862745%)" fill-opacity="1" d="M 59 32 C 59 46.910156 46.910156 59 32 59 C 17.089844 59 5 46.910156 5 32 C 5 17.089844 17.089844 5 32 5 C 46.910156 5 59 17.089844 59 32 Z M 59 32 "/>
<path fill-rule="nonzero" fill="rgb(100%, 100%, 100%)" fill-opacity="1" d="M 20.199219 39.90625 L 15.863281 26.851562 C 15.429688 25.546875 15.394531 25.554688 16.730469 25.21875 L 19.332031 24.566406 C 20.632812 24.242188 20.632812 24.242188 21.066406 25.546875 L 23.210938 32 L 27.566406 42.515625 C 27.566406 42.515625 27.132812 43.824219 25.832031 43.300781 L 21.933594 41.734375 C 20.632812 41.210938 20.632812 41.210938 20.199219 39.90625 Z M 20.199219 39.90625 "/>
<path fill-rule="nonzero" fill="rgb(80.784314%, 87.843137%, 99.215686%)" fill-opacity="1" d="M 40.320312 45.269531 L 40.507812 44.691406 L 45.992188 22.527344 C 46.316406 21.214844 45.34375 19.464844 44.042969 19.027344 L 41.441406 18.152344 C 40.140625 17.714844 38.359375 18.574219 37.972656 19.902344 L 34.632812 31.363281 L 37.171875 44.691406 Z M 40.320312 45.269531 "/>
<path fill-rule="nonzero" fill="rgb(80.784314%, 87.843137%, 99.215686%)" fill-opacity="1" d="M 25.402344 24.386719 L 23.210938 32 L 26.703125 42.515625 C 26.769531 42.722656 26.953125 42.84375 27.136719 42.84375 C 27.316406 42.84375 27.519531 42.707031 27.570312 42.515625 L 29.558594 34.539062 L 27.019531 23.117188 C 27.019531 23.117188 25.75 23.484375 25.402344 24.386719 Z M 25.402344 24.386719 "/>
<path fill-rule="nonzero" fill="rgb(100%, 100%, 100%)" fill-opacity="1" d="M 31.902344 42.097656 L 26.269531 24.386719 C 25.992188 23.613281 25.402344 24.386719 25.402344 24.386719 C 25.402344 24.386719 25.75 23.058594 27.019531 22.800781 L 31.039062 21.984375 C 32.339844 21.722656 32.335938 21.714844 32.769531 23.074219 L 39.710938 44.699219 C 39.882812 45.242188 40.359375 45.3125 40.511719 44.699219 C 40.1875 46.058594 40.140625 46.175781 38.839844 45.722656 L 33.640625 43.914062 C 32.339844 43.457031 32.339844 43.457031 31.902344 42.097656 Z M 31.902344 42.097656 "/>
</svg>
