<?xml version="1.0" encoding="UTF-8"?>
<svg xmlns="http://www.w3.org/2000/svg" xmlns:xlink="http://www.w3.org/1999/xlink" width="64" height="64" viewBox="0 0 64 64">
<path fill-rule="nonzero" fill="rgb(24.705882%, 31.764706%, 70.980392%)" fill-opacity="1" d="M 15.609375 8.460938 C 15.609375 12.40625 12.410156 15.605469 8.464844 15.605469 C 4.519531 15.605469 1.324219 12.40625 1.324219 8.460938 C 1.324219 4.515625 4.519531 1.316406 8.464844 1.316406 C 12.410156 1.316406 15.609375 4.515625 15.609375 8.460938 Z M 15.609375 8.460938 "/>
<path fill-rule="nonzero" fill="rgb(100%, 100%, 100%)" fill-opacity="1" d="M 8.464844 2.90625 C 5.394531 2.910156 2.910156 5.394531 2.910156 8.464844 C 2.910156 11.53125 5.398438 14.019531 8.464844 14.019531 C 11.53125 14.019531 14.019531 11.535156 14.023438 8.46875 L 13.457031 7.898438 C 13.191406 5.570312 11.355469 3.734375 9.027344 3.46875 Z M 8.464844 2.90625 "/>
<path fill-rule="nonzero" fill="rgb(80%, 80%, 80%)" fill-opacity="1" d="M 5.292969 12.167969 L 5.292969 11.636719 L 9.789062 11.636719 L 9.789062 12.167969 Z M 5.292969 10.84375 L 5.292969 10.316406 L 11.640625 10.316406 L 11.640625 10.84375 Z M 5.292969 9.523438 L 5.292969 8.992188 L 11.640625 8.992188 L 11.640625 9.523438 Z M 5.292969 8.199219 L 5.292969 7.667969 L 11.640625 7.667969 L 11.640625 8.199219 Z M 5.292969 8.199219 "/>
</svg>
