<?xml version="1.0" encoding="UTF-8"?>
<svg xmlns="http://www.w3.org/2000/svg" xmlns:xlink="http://www.w3.org/1999/xlink" width="64" height="64" viewBox="0 0 64 64">
<defs>
<filter id="filter-remove-color" x="0%" y="0%" width="100%" height="100%">
<feColorMatrix color-interpolation-filters="sRGB" values="0 0 0 0 1 0 0 0 0 1 0 0 0 0 1 0 0 0 1 0" />
</filter>
<mask id="mask-0">
<g filter="url(#filter-remove-color)">
<rect x="-6.4" y="-6.4" width="76.8" height="76.8" fill="rgb(0%, 0%, 0%)" fill-opacity="0.5"/>
</g>
</mask>
<clipPath id="clip-0">
<rect x="0" y="0" width="17" height="17"/>
</clipPath>
<g id="source-9353" clip-path="url(#clip-0)">
<path fill-rule="nonzero" fill="rgb(97.647059%, 97.647059%, 97.647059%)" fill-opacity="1" d="M 15.609375 8.464844 C 15.609375 12.410156 12.410156 15.609375 8.464844 15.609375 L 8.464844 8.464844 Z M 15.609375 8.464844 "/>
</g>
<mask id="mask-1">
<g filter="url(#filter-remove-color)">
<rect x="-6.4" y="-6.4" width="76.8" height="76.8" fill="rgb(0%, 0%, 0%)" fill-opacity="0.15"/>
</g>
</mask>
<clipPath id="clip-1">
<rect x="0" y="0" width="17" height="17"/>
</clipPath>
<g id="source-9357" clip-path="url(#clip-1)">
<path fill-rule="nonzero" fill="rgb(0%, 0%, 0%)" fill-opacity="1" d="M 15.609375 8.464844 L 8.464844 8.464844 L 8.464844 15.609375 C 8.378906 15.609375 8.289062 15.605469 8.203125 15.601562 L 8.203125 8.464844 L 1.324219 8.464844 C 1.324219 8.378906 1.328125 8.289062 1.332031 8.203125 L 8.203125 8.203125 L 8.203125 1.335938 C 8.289062 1.332031 8.378906 1.324219 8.464844 1.324219 L 8.464844 8.203125 L 15.597656 8.203125 C 15.601562 8.289062 15.605469 8.378906 15.609375 8.464844 Z M 15.609375 8.464844 "/>
</g>
</defs>
<path fill-rule="nonzero" fill="rgb(38.823529%, 55.294118%, 96.078431%)" fill-opacity="1" d="M 15.609375 8.464844 L 8.464844 8.464844 L 8.464844 15.609375 C 4.519531 15.609375 1.324219 12.410156 1.324219 8.464844 C 1.324219 4.519531 4.519531 1.324219 8.464844 1.324219 C 12.410156 1.324219 15.609375 4.519531 15.609375 8.464844 Z M 15.609375 8.464844 "/>
<g mask="url(#mask-0)">
<use xlink:href="#source-9353"/>
</g>
<g mask="url(#mask-1)">
<use xlink:href="#source-9357"/>
</g>
<path fill-rule="nonzero" fill="rgb(97.647059%, 97.647059%, 97.647059%)" fill-opacity="1" d="M 14.550781 8.464844 C 14.550781 11.828125 11.828125 14.550781 8.464844 14.550781 L 8.464844 8.464844 Z M 14.550781 8.464844 "/>
</svg>
