<?xml version="1.0" encoding="UTF-8"?>
<svg xmlns="http://www.w3.org/2000/svg" xmlns:xlink="http://www.w3.org/1999/xlink" width="64" height="64" viewBox="0 0 64 64">
<path fill-rule="nonzero" fill="rgb(34.901961%, 51.764706%, 92.156863%)" fill-opacity="1" d="M 15.609375 8.460938 C 15.609375 12.40625 12.410156 15.605469 8.464844 15.605469 C 4.519531 15.605469 1.324219 12.40625 1.324219 8.460938 C 1.324219 4.515625 4.519531 1.316406 8.464844 1.316406 C 12.410156 1.316406 15.609375 4.515625 15.609375 8.460938 Z M 15.609375 8.460938 "/>
<path fill-rule="nonzero" fill="rgb(100%, 100%, 100%)" fill-opacity="1" d="M 3.695312 5.574219 C 3.421875 5.574219 3.246094 5.820312 3.363281 6.070312 L 6.082031 11.960938 L 6.328125 12.492188 C 6.441406 12.738281 6.632812 12.980469 6.902344 12.984375 C 7.175781 12.980469 7.367188 12.738281 7.480469 12.492188 L 8.859375 9.5 L 9.953125 7.140625 C 10.027344 6.976562 10.207031 6.8125 10.390625 6.8125 L 11.546875 6.8125 C 11.566406 6.8125 11.585938 6.816406 11.605469 6.820312 C 11.609375 6.820312 11.613281 6.824219 11.617188 6.824219 C 11.683594 6.84375 11.738281 6.886719 11.765625 6.949219 C 11.792969 7.011719 11.789062 7.082031 11.757812 7.140625 L 10.894531 9.011719 L 10.785156 9.246094 L 10.679688 9.480469 L 10.460938 9.949219 L 10.355469 10.183594 L 10.136719 10.652344 C 10.117188 10.699219 10.097656 10.761719 10.027344 10.761719 C 9.960938 10.761719 9.9375 10.695312 9.921875 10.652344 L 9.703125 10.183594 L 9.597656 9.949219 L 9.378906 9.480469 L 9.328125 9.367188 L 8.667969 10.792969 L 9.453125 12.492188 C 9.566406 12.738281 9.761719 12.980469 10.027344 12.984375 C 10.300781 12.980469 10.492188 12.738281 10.605469 12.492188 L 10.851562 11.960938 L 13.570312 6.070312 C 13.6875 5.820312 13.511719 5.574219 13.238281 5.574219 L 9.78125 5.574219 C 9.507812 5.574219 9.242188 5.820312 9.128906 6.070312 L 7.542969 9.5 L 7.445312 9.714844 L 7.335938 9.949219 L 7.230469 10.183594 L 7.011719 10.652344 C 6.992188 10.695312 6.972656 10.761719 6.902344 10.761719 C 6.839844 10.761719 6.816406 10.699219 6.796875 10.652344 L 6.742188 10.539062 L 6.6875 10.417969 L 6.578125 10.183594 L 6.472656 9.949219 L 6.253906 9.480469 L 6.148438 9.246094 L 6.039062 9.011719 L 5.175781 7.140625 C 5.097656 6.976562 5.214844 6.8125 5.398438 6.8125 L 6.546875 6.8125 C 6.726562 6.8125 6.90625 6.976562 6.980469 7.140625 L 7.648438 8.585938 L 8.308594 7.160156 L 7.808594 6.070312 C 7.691406 5.820312 7.429688 5.574219 7.152344 5.574219 Z M 3.695312 5.574219 "/>
</svg>
