<?xml version="1.0" encoding="UTF-8"?>
<svg xmlns="http://www.w3.org/2000/svg" xmlns:xlink="http://www.w3.org/1999/xlink" width="64" height="64" viewBox="0 0 64 64">
<defs>
<filter id="filter-remove-color" x="0%" y="0%" width="100%" height="100%">
<feColorMatrix color-interpolation-filters="sRGB" values="0 0 0 0 1 0 0 0 0 1 0 0 0 0 1 0 0 0 1 0" />
</filter>
<mask id="mask-0">
<g filter="url(#filter-remove-color)">
<rect x="-6.4" y="-6.4" width="76.8" height="76.8" fill="rgb(0%, 0%, 0%)" fill-opacity="0.25"/>
</g>
</mask>
<clipPath id="clip-0">
<rect x="0" y="0" width="64" height="64"/>
</clipPath>
<g id="source-2145" clip-path="url(#clip-0)">
<path fill-rule="nonzero" fill="rgb(100%, 100%, 100%)" fill-opacity="1" d="M 31.574219 4.960938 C 29.503906 4.988281 27.496094 5.257812 25.566406 5.722656 C 25.058594 6.179688 24.304688 6.410156 23.464844 6.386719 C 23.164062 6.675781 23.230469 7.214844 23.066406 7.609375 C 22.929688 7.941406 22.441406 8.296875 22.109375 8.269531 C 21.863281 8.25 21.582031 7.902344 21.582031 7.671875 C 21.582031 7.398438 21.964844 7.242188 21.757812 6.933594 C 19.605469 7.808594 17.601562 8.957031 15.765625 10.328125 C 16.257812 10.144531 16.800781 9.839844 17.246094 9.832031 C 17.320312 9.832031 17.386719 9.835938 17.453125 9.855469 C 17.753906 9.933594 18.542969 10.796875 17.882812 11.078125 C 17.824219 11.105469 16.921875 11.203125 16.765625 11.175781 C 16.535156 11.136719 16.398438 10.820312 16.167969 10.78125 C 15.777344 10.710938 15.285156 11.117188 14.953125 10.933594 C 11.265625 13.910156 8.40625 17.839844 6.691406 22.351562 C 6.847656 22.261719 7.011719 22.167969 7.152344 22.09375 C 7.636719 21.839844 8.042969 21.433594 8.605469 21.398438 C 8.886719 21.394531 9.289062 21.472656 9.558594 21.53125 C 9.808594 21.582031 10.007812 21.75 10.222656 21.761719 C 10.835938 21.808594 10.980469 21.335938 11.476562 21.070312 C 11.988281 21.144531 12.332031 20.984375 12.796875 21.035156 C 13.113281 21.070312 13.34375 21.40625 13.589844 21.425781 C 13.796875 21.449219 13.980469 21.234375 14.183594 21.265625 C 14.378906 21.296875 14.714844 21.722656 14.746094 21.957031 C 14.785156 22.257812 14.527344 22.523438 14.613281 22.847656 C 14.925781 23.167969 15.492188 23.230469 15.933594 23.410156 C 16.226562 23.175781 15.972656 22.730469 15.933594 22.386719 C 15.929688 22.234375 15.957031 22.101562 15.933594 21.957031 C 15.90625 21.722656 15.804688 21.503906 15.804688 21.296875 C 15.796875 20.359375 16.5625 19.917969 17.191406 19.546875 C 17.464844 19.386719 17.679688 19.101562 17.917969 18.984375 C 18.25 18.816406 18.5 18.777344 18.777344 18.621094 C 19.277344 18.34375 19.707031 18.113281 20.097656 17.796875 C 20.28125 17.367188 20.117188 16.796875 20.132812 16.378906 C 20.316406 16.265625 20.46875 16.425781 20.660156 16.410156 C 20.960938 16.347656 20.988281 15.921875 21.160156 15.75 C 21.257812 15.652344 21.53125 15.582031 21.652344 15.488281 C 21.953125 15.25 22.050781 14.894531 22.3125 14.792969 C 22.410156 14.753906 22.625 14.765625 22.773438 14.726562 C 22.96875 14.671875 23.246094 14.441406 23.566406 14.332031 C 23.773438 14.261719 24.25 14.246094 24.328125 14.167969 C 24.425781 14.070312 24.328125 13.789062 24.363281 13.640625 C 24.523438 12.894531 25.648438 12.734375 26.316406 12.484375 C 26.78125 12.308594 27.257812 11.984375 27.769531 12.085938 C 27.667969 12.4375 27.191406 12.3125 27.273438 12.746094 C 27.386719 13.34375 28.183594 12.574219 28.394531 12.484375 C 28.796875 12.3125 29.488281 12.210938 30.015625 12.019531 C 30.480469 11.851562 31.3125 11.59375 30.871094 11.0625 C 30.507812 11.042969 30.332031 11.488281 30.015625 11.625 C 29.796875 11.660156 29.835938 11.441406 29.652344 11.421875 C 29.472656 11.402344 29.375 11.585938 29.191406 11.554688 C 29.011719 11.523438 28.753906 11.242188 28.726562 11.027344 C 28.65625 10.476562 29.195312 10.25 29.421875 9.839844 C 29.269531 9.339844 28.582031 9.738281 28.167969 9.542969 C 28.207031 9.246094 28.515625 9.039062 28.859375 8.984375 C 29.144531 8.933594 29.78125 8.960938 29.949219 9.109375 C 30.046875 9.195312 29.957031 9.402344 30.117188 9.542969 C 30.285156 9.695312 30.488281 9.679688 30.707031 9.644531 C 30.789062 9.269531 30.21875 9.359375 30.28125 9.113281 C 30.726562 8.820312 31.453125 9.0625 32 8.980469 C 32.3125 8.933594 32.644531 8.710938 32.925781 8.554688 C 33.1875 8.402344 33.53125 8.140625 33.816406 8.386719 C 33.890625 8.660156 33.570312 8.746094 33.417969 8.882812 C 32.914062 9.332031 32.394531 9.847656 32 10.371094 C 32.242188 10.605469 32.679688 10.488281 33.089844 10.535156 C 33.246094 10.558594 33.449219 10.605469 33.617188 10.636719 C 33.8125 10.671875 34.023438 10.660156 34.179688 10.699219 C 34.457031 10.765625 34.53125 11.0625 34.804688 11.0625 C 35.257812 11.0625 35.261719 10.574219 35.003906 10.269531 C 35.085938 9.957031 35.210938 9.796875 35.105469 9.578125 C 34.902344 9.171875 34.152344 9.558594 34.113281 9.050781 C 34.089844 8.722656 34.390625 8.734375 34.511719 8.488281 C 34.457031 7.851562 35.03125 7.808594 34.96875 7.238281 C 34.941406 7 34.742188 6.996094 34.574219 6.773438 C 34.488281 6.660156 34.449219 6.429688 34.34375 6.34375 C 34 6.050781 33.296875 6.105469 33.253906 5.550781 C 33.25 5.359375 33.277344 5.191406 33.292969 5.015625 C 32.976562 5 32.660156 4.972656 32.339844 4.96875 Z M 18.710938 11.4375 C 18.863281 11.460938 19.050781 11.625 19.238281 11.640625 C 19.414062 11.644531 19.558594 11.542969 19.667969 11.574219 C 19.945312 11.644531 20.058594 12.0625 19.796875 12.265625 C 19.582031 12.292969 19.496094 12.171875 19.335938 12.203125 C 18.886719 12.28125 18.714844 13.15625 18.378906 13.128906 C 18.0625 13.101562 17.894531 12.328125 18.214844 12.101562 C 18.234375 11.902344 18.066406 11.871094 18.078125 11.671875 C 18.175781 11.550781 18.445312 11.417969 18.710938 11.441406 M 17.222656 11.542969 C 17.3125 11.546875 17.382812 11.570312 17.417969 11.605469 C 17.375 11.957031 17.097656 11.9375 16.824219 12.101562 C 16.355469 12.386719 16.082031 12.816406 15.933594 13.421875 C 15.890625 13.597656 15.429688 14.066406 15.207031 14.019531 C 14.683594 13.910156 15.351562 12.945312 15.472656 12.796875 C 15.601562 12.636719 15.78125 12.488281 15.933594 12.304688 C 16.085938 12.121094 16.1875 11.875 16.332031 11.777344 C 16.488281 11.664062 16.945312 11.535156 17.222656 11.546875 M 21.128906 12.734375 C 21.296875 12.738281 21.445312 12.765625 21.515625 12.832031 C 21.40625 13.269531 20.46875 13.152344 20.125 12.996094 C 20.148438 12.832031 20.402344 12.785156 20.621094 12.765625 C 20.773438 12.757812 20.960938 12.730469 21.128906 12.734375 M 18.992188 13.539062 C 19.101562 13.535156 19.21875 13.558594 19.335938 13.589844 C 19.03125 13.84375 18.703125 13.988281 18.179688 14.152344 C 17.929688 14.230469 17.492188 14.328125 17.453125 14.050781 C 17.398438 13.707031 17.816406 13.785156 18.046875 13.753906 C 18.335938 13.714844 18.652344 13.546875 18.992188 13.539062 M 52.164062 14.027344 C 52.1875 14.273438 52.191406 14.511719 52.125 14.78125 C 52.035156 15.136719 51.710938 15.460938 51.726562 15.773438 C 51.75 15.929688 51.921875 16.085938 51.960938 16.300781 C 51.984375 16.414062 51.90625 16.660156 51.960938 16.765625 C 52.128906 17.089844 52.589844 16.8125 52.886719 16.863281 C 53.179688 16.910156 53.515625 17.328125 53.511719 17.65625 C 53.507812 17.882812 53.296875 18.261719 53.148438 18.480469 C 52.863281 18.917969 52.472656 18.9375 52.0625 19.171875 C 51.714844 19.367188 51.566406 19.691406 51.367188 20.03125 C 51.148438 20.398438 51.011719 20.621094 51.101562 21.152344 C 50.808594 21.738281 50.359375 22.097656 49.75 22.375 C 49.566406 22.457031 49.320312 22.484375 49.15625 22.605469 C 49.023438 22.699219 48.945312 22.957031 48.757812 23.167969 C 48.527344 23.421875 48.285156 23.53125 48.160156 23.726562 C 48.066406 23.882812 48.035156 24.183594 47.933594 24.390625 C 47.789062 24.667969 47.492188 24.800781 47.304688 25.082031 C 47.222656 25.210938 47.164062 25.476562 47.074219 25.644531 C 46.863281 26.027344 46.507812 26.300781 46.542969 26.632812 C 46.582031 26.957031 46.949219 27.011719 46.976562 27.292969 C 46.980469 27.453125 46.871094 27.550781 46.878906 27.726562 C 46.882812 27.980469 47.054688 28.15625 47.074219 28.351562 C 47.125 28.84375 46.90625 29.039062 46.8125 29.375 C 46.769531 29.535156 46.789062 29.710938 46.746094 29.835938 C 46.664062 30.082031 46.324219 30.304688 46.316406 30.597656 C 46.3125 30.804688 46.527344 30.96875 46.542969 31.257812 C 46.550781 31.457031 46.445312 31.671875 46.480469 31.855469 C 46.550781 32.214844 47.195312 32.628906 47.472656 32.910156 C 47.847656 33.285156 48.335938 33.574219 48.496094 33.96875 C 48.632812 34.300781 48.632812 34.738281 48.890625 34.988281 C 49.085938 35.175781 49.402344 35.292969 49.652344 35.484375 C 49.882812 35.664062 50.132812 35.820312 50.378906 36.011719 C 50.78125 36.328125 51.386719 36.953125 52.03125 36.90625 C 52.363281 36.882812 52.707031 36.605469 53.085938 36.542969 C 53.476562 36.472656 53.984375 36.4375 54.378906 36.476562 C 54.679688 36.507812 54.988281 36.6875 55.300781 36.675781 C 55.632812 36.652344 56.011719 36.40625 56.390625 36.242188 C 56.984375 35.984375 57.847656 35.664062 58.71875 35.710938 C 58.882812 34.496094 59 33.261719 59 31.996094 C 59 26.878906 57.570312 22.117188 55.117188 18.042969 C 55.003906 18.035156 54.898438 18.019531 54.773438 18.023438 C 54.4375 18.046875 53.886719 18.046875 53.882812 17.628906 C 53.878906 17.285156 54.207031 17.210938 54.59375 17.1875 C 53.863281 16.070312 53.046875 15.019531 52.164062 14.027344 M 10.882812 26.417969 C 10.332031 26.449219 9.976562 26.476562 9.660156 26.617188 C 8.945312 26.941406 9.085938 27.910156 8.371094 28.136719 C 8.125 28.214844 7.785156 28.21875 7.515625 28.269531 C 7.28125 28.3125 6.996094 28.441406 6.753906 28.433594 C 6.464844 28.429688 5.96875 28.152344 5.796875 27.972656 C 5.679688 27.84375 5.488281 27.402344 5.363281 27.109375 C 5.191406 28.058594 5.070312 29.027344 5 30.007812 C 5.058594 30.019531 5.121094 30.035156 5.171875 30.035156 C 5.484375 30.039062 5.816406 29.714844 6.164062 29.703125 C 6.972656 29.679688 7.324219 30.734375 7.976562 31.058594 C 8.140625 31.140625 8.359375 31.144531 8.570312 31.191406 C 8.742188 31.226562 8.871094 31.300781 9.035156 31.355469 C 9.382812 31.472656 9.8125 31.460938 10.089844 31.585938 C 10.511719 31.773438 10.820312 32.5625 11.179688 32.773438 C 11.203125 32.988281 11.140625 33.273438 11.214844 33.433594 C 11.386719 33.667969 11.628906 33.617188 11.910156 33.765625 C 12.246094 33.949219 12.347656 34.417969 12.667969 34.558594 C 12.777344 34.605469 13.054688 34.601562 13.230469 34.65625 C 13.667969 34.789062 13.808594 35.296875 14.183594 35.183594 C 14.429688 35.113281 14.414062 34.859375 14.453125 34.621094 C 14.617188 34.445312 14.792969 34.167969 15.046875 34.164062 C 15.457031 34.140625 15.492188 34.589844 15.644531 34.984375 C 15.726562 35.210938 15.949219 35.410156 16.007812 35.648438 C 16.109375 36.054688 16.058594 37.285156 15.972656 37.53125 C 15.871094 37.832031 15.460938 37.960938 15.207031 38.292969 C 15.089844 38.449219 15.035156 38.679688 14.945312 38.789062 C 14.78125 38.984375 14.539062 39.039062 14.421875 39.21875 C 14.351562 39.320312 14.285156 39.542969 14.21875 39.679688 C 14.019531 40.101562 13.753906 40.398438 13.921875 40.902344 C 13.992188 41.109375 14.316406 41.25 14.316406 41.496094 C 14.316406 41.78125 13.707031 42.039062 13.65625 42.355469 C 13.621094 42.589844 13.847656 43.007812 13.921875 43.3125 C 13.976562 43.542969 14.414062 43.6875 14.546875 43.839844 C 14.78125 44.101562 14.96875 44.46875 15.175781 44.792969 C 15.597656 45.4375 15.925781 46.21875 16.332031 46.84375 C 16.550781 47.171875 16.847656 47.464844 16.992188 47.800781 C 17.066406 47.972656 17.058594 48.175781 17.125 48.328125 C 17.359375 48.863281 18.402344 49.417969 18.9375 49.683594 C 19.191406 49.804688 19.46875 49.851562 19.703125 49.976562 C 20.050781 50.171875 20.742188 50.695312 20.921875 51.003906 C 21.078125 51.28125 21.175781 51.949219 21.253906 52.390625 C 21.355469 52.96875 21.257812 53.414062 21.289062 54.039062 C 21.308594 54.382812 21.414062 54.722656 21.417969 55.0625 C 21.421875 55.183594 21.359375 55.269531 21.351562 55.390625 C 21.347656 55.804688 21.453125 56.265625 21.417969 56.683594 C 21.417969 56.769531 21.40625 56.839844 21.394531 56.914062 C 24.632812 58.285156 28.199219 59.039062 31.949219 59.039062 C 32.34375 59.039062 32.726562 58.996094 33.113281 58.980469 C 33.125 58.917969 33.132812 58.855469 33.144531 58.808594 C 33.265625 58.472656 33.570312 58.359375 33.769531 58.113281 C 33.921875 57.925781 33.992188 57.707031 34.132812 57.519531 C 34.289062 57.316406 34.425781 57.136719 34.53125 56.957031 C 34.625 56.355469 34.289062 55.933594 34.429688 55.40625 C 34.589844 54.8125 35.40625 54.453125 35.984375 54.183594 C 36.179688 54.09375 36.382812 53.941406 36.542969 53.886719 C 36.941406 53.746094 37.4375 53.824219 37.800781 53.6875 C 38.417969 53.464844 38.484375 52.800781 38.789062 52.238281 C 38.933594 51.96875 39.125 51.703125 39.152344 51.511719 C 39.179688 51.34375 39.089844 51.179688 39.117188 50.980469 C 39.148438 50.78125 39.328125 50.609375 39.382812 50.386719 C 39.457031 50.101562 39.484375 49.683594 39.484375 49.367188 C 39.484375 49.105469 39.363281 48.871094 39.355469 48.636719 C 39.3125 47.78125 39.664062 47.683594 39.980469 47.21875 C 40.136719 46.988281 40.195312 46.722656 40.308594 46.558594 C 40.839844 45.765625 41.761719 45.382812 41.699219 44.183594 C 41.675781 43.785156 41.425781 42.886719 41.136719 42.761719 C 40.96875 42.6875 40.585938 42.753906 40.34375 42.660156 C 39.5625 42.371094 39.101562 41.402344 38.292969 41.339844 C 38.121094 41.320312 37.964844 41.410156 37.769531 41.40625 C 37.449219 41.386719 36.964844 41.183594 36.609375 41.144531 C 36.382812 41.117188 36.085938 41.210938 35.949219 41.144531 C 35.742188 41.042969 35.722656 40.664062 35.554688 40.550781 C 35.421875 40.460938 35.164062 40.429688 34.960938 40.347656 C 34.636719 40.222656 34.378906 40.078125 34.003906 40.050781 C 33.886719 40.046875 33.742188 40.109375 33.605469 40.085938 C 33.398438 40.050781 33.234375 39.804688 33.042969 39.691406 C 32.804688 39.542969 32.582031 39.472656 32.480469 39.261719 C 32.699219 38.550781 32.097656 38.351562 31.953125 37.941406 C 31.886719 37.75 31.917969 37.515625 31.855469 37.34375 C 31.769531 37.097656 31.527344 36.957031 31.257812 36.75 C 30.78125 36.382812 30.355469 36.039062 29.675781 35.957031 C 29.375 35.917969 29.078125 36.046875 28.714844 36.023438 C 28.332031 36 27.847656 35.660156 27.5625 35.332031 C 27.28125 35.011719 27.144531 34.726562 26.902344 34.570312 C 26.671875 34.421875 26.363281 34.425781 26.207031 34.277344 C 26.136719 34.210938 26.148438 34.097656 26.074219 33.945312 C 25.960938 33.703125 25.765625 33.570312 25.910156 33.285156 C 25.648438 33.148438 25.640625 33.53125 25.351562 33.484375 C 25.09375 33.121094 24.878906 32.949219 24.292969 33.054688 C 24.027344 33.105469 23.878906 33.441406 23.566406 33.449219 C 23.3125 33.472656 23.109375 33.164062 22.773438 33.117188 C 22.519531 33.082031 22.230469 33.183594 22.050781 33.152344 C 21.765625 33.097656 21.679688 32.859375 21.421875 32.691406 C 21.234375 32.570312 20.867188 32.355469 20.761719 32.359375 C 20.429688 32.382812 20.195312 33.066406 19.738281 32.824219 C 19.515625 32.542969 20.097656 32.394531 19.835938 32.128906 C 19.632812 31.929688 19.464844 32.21875 19.308594 32.332031 C 19.125 32.457031 18.953125 32.585938 18.75 32.660156 C 18.296875 32.828125 18.011719 32.742188 17.660156 32.925781 C 17.332031 33.09375 17.316406 33.378906 17.132812 33.714844 C 16.980469 33.992188 16.632812 34.394531 16.40625 34.410156 C 16.128906 34.429688 15.863281 34.023438 15.613281 33.914062 C 14.855469 33.585938 14.488281 34.207031 13.863281 34.214844 C 13.277344 34.234375 12.449219 33.273438 12.476562 32.726562 C 12.484375 32.390625 12.667969 31.882812 12.707031 31.46875 C 12.742188 31.140625 12.96875 30.945312 12.972656 30.644531 C 12.976562 30.242188 12.441406 29.933594 12.179688 29.882812 C 11.5625 29.769531 10.707031 30.132812 9.996094 29.847656 C 9.863281 29.625 10.15625 29.46875 10.230469 29.25 C 10.273438 29.128906 10.25 28.960938 10.296875 28.824219 C 10.375 28.613281 10.59375 28.453125 10.691406 28.226562 C 10.765625 28.058594 10.785156 27.8125 10.859375 27.601562 C 10.945312 27.363281 11.101562 27.207031 11.121094 27.039062 C 11.148438 26.816406 11.0625 26.5625 10.886719 26.414062 M 19.71875 33.40625 C 19.941406 33.425781 19.96875 33.886719 19.742188 33.925781 C 19.492188 33.964844 19.371094 33.539062 19.609375 33.429688 C 19.648438 33.40625 19.6875 33.402344 19.71875 33.40625 "/>
</g>
</defs>
<path fill-rule="nonzero" fill="rgb(29.411765%, 57.254902%, 83.921569%)" fill-opacity="1" d="M 31.675781 5.003906 C 41.398438 4.882812 50.433594 10.003906 55.332031 18.40625 C 60.226562 26.808594 60.226562 37.191406 55.332031 45.59375 C 50.433594 53.996094 41.398438 59.117188 31.675781 58.996094 C 16.894531 58.816406 5.003906 46.785156 5.003906 32 C 5.003906 17.214844 16.894531 5.183594 31.675781 5.003906 Z M 31.675781 5.003906 "/>
<g mask="url(#mask-0)">
<use xlink:href="#source-2145"/>
</g>
<path fill-rule="nonzero" fill="rgb(100%, 100%, 100%)" fill-opacity="1" d="M 28 19.003906 L 28 34.003906 L 21 34.003906 L 32.003906 44.996094 L 43 34.003906 L 36 34.003906 L 36 19.003906 Z M 28 19.003906 "/>
</svg>
