<?xml version="1.0" encoding="UTF-8"?>
<svg xmlns="http://www.w3.org/2000/svg" xmlns:xlink="http://www.w3.org/1999/xlink" width="64" height="64" viewBox="0 0 64 64">
<defs>
<filter id="filter-remove-color" x="0%" y="0%" width="100%" height="100%">
<feColorMatrix color-interpolation-filters="sRGB" values="0 0 0 0 1 0 0 0 0 1 0 0 0 0 1 0 0 0 1 0" />
</filter>
<mask id="mask-0">
<g filter="url(#filter-remove-color)">
<rect x="-6.4" y="-6.4" width="76.8" height="76.8" fill="rgb(0%, 0%, 0%)" fill-opacity="0.1"/>
</g>
</mask>
<clipPath id="clip-0">
<rect x="0" y="0" width="64" height="64"/>
</clipPath>
<g id="source-3703" clip-path="url(#clip-0)">
<path fill-rule="evenodd" fill="rgb(100%, 100%, 100%)" fill-opacity="1" d="M 18.292969 17.277344 L 25 12 L 39.386719 42.269531 L 45.871094 36.773438 Z M 18.292969 17.277344 "/>
</g>
<mask id="mask-1">
<g filter="url(#filter-remove-color)">
<rect x="-6.4" y="-6.4" width="76.8" height="76.8" fill="rgb(0%, 0%, 0%)" fill-opacity="0.1"/>
</g>
</mask>
<clipPath id="clip-1">
<rect x="0" y="0" width="64" height="64"/>
</clipPath>
<g id="source-3707" clip-path="url(#clip-1)">
<path fill-rule="evenodd" fill="rgb(100%, 100%, 100%)" fill-opacity="1" d="M 29.433594 31.296875 C 28.601562 30.796875 27.9375 30.070312 27.511719 29.203125 L 36.488281 24.796875 C 36.15625 24.125 35.679688 23.535156 35.089844 23.074219 Z M 29.433594 31.296875 "/>
</g>
<linearGradient id="linear-pattern-0" gradientUnits="userSpaceOnUse" x1="5" y1="6" x2="5" y2="4" gradientTransform="matrix(1, 0, 0, 1, 27, 22)">
<stop offset="0" stop-color="rgb(88.627451%, 87.843137%, 58.823529%)" stop-opacity="1"/>
<stop offset="1" stop-color="rgb(97.647059%, 97.254902%, 82.352941%)" stop-opacity="1"/>
</linearGradient>
</defs>
<path fill-rule="evenodd" fill="rgb(28.627451%, 28.627451%, 29.803922%)" fill-opacity="1" d="M 48 27.121094 C 48 35.835938 40.835938 43 32 43 C 23.164062 43 16 35.835938 16 27.121094 C 16 18.164062 23.164062 11 32 11 C 40.835938 11 48 18.164062 48 27.121094 "/>
<path fill-rule="nonzero" fill="rgb(60%, 60%, 60%)" fill-opacity="1" d="M 59 32 C 59 46.910156 46.910156 59 32 59 C 17.089844 59 5 46.910156 5 32 C 5 17.089844 17.089844 5 32 5 C 46.910156 5 59 17.089844 59 32 Z M 59 32 "/>
<path fill-rule="nonzero" fill="rgb(79.215686%, 79.607843%, 81.176471%)" fill-opacity="1" d="M 32 6 C 17.640625 6 6 17.640625 6 32 C 6.003906 34.449219 6.355469 36.886719 7.039062 39.234375 L 7.039062 37.199219 C 7.039062 35.472656 8.429688 34.082031 10.160156 34.082031 L 11.433594 34.082031 C 14.265625 42.082031 21.472656 47.71875 29.917969 48.535156 L 29.917969 53.839844 C 29.917969 55.570312 28.527344 56.960938 26.800781 56.960938 L 24.792969 56.960938 C 27.132812 57.644531 29.558594 57.992188 32 58 C 46.359375 58 58 46.359375 58 32 C 58 17.640625 46.359375 6 32 6 Z M 32 6 "/>
<path fill-rule="nonzero" fill="rgb(52.156863%, 52.156863%, 54.117647%)" fill-opacity="1" d="M 51 15 C 51 16.105469 50.105469 17 49 17 C 47.894531 17 47 16.105469 47 15 C 47 13.894531 47.894531 13 49 13 C 50.105469 13 51 13.894531 51 15 Z M 51 15 "/>
<path fill-rule="nonzero" fill="rgb(100%, 100%, 100%)" fill-opacity="1" d="M 50 15 C 50 14.449219 49.550781 14 49 14 C 48.449219 14 48 14.449219 48 15 C 48 15.550781 48.449219 16 49 16 C 49.550781 16 50 15.550781 50 15 Z M 50 15 "/>
<path fill-rule="nonzero" fill="rgb(52.156863%, 52.156863%, 54.117647%)" fill-opacity="1" d="M 17 15 C 17 16.105469 16.105469 17 15 17 C 13.894531 17 13 16.105469 13 15 C 13 13.894531 13.894531 13 15 13 C 16.105469 13 17 13.894531 17 15 Z M 17 15 "/>
<path fill-rule="nonzero" fill="rgb(100%, 100%, 100%)" fill-opacity="1" d="M 16 15 C 16 14.449219 15.550781 14 15 14 C 14.449219 14 14 14.449219 14 15 C 14 15.550781 14.449219 16 15 16 C 15.550781 16 16 15.550781 16 15 Z M 16 15 "/>
<path fill-rule="evenodd" fill="rgb(28.627451%, 28.627451%, 29.803922%)" fill-opacity="1" d="M 48 27.121094 C 48 35.835938 40.835938 43 32 43 C 23.164062 43 16 35.835938 16 27.121094 C 16 18.164062 23.164062 11 32 11 C 40.835938 11 48 18.164062 48 27.121094 "/>
<path fill-rule="nonzero" fill="rgb(50.196078%, 50.196078%, 50.196078%)" fill-opacity="1" d="M 32 10 C 22.613281 10 15 17.609375 15 27 C 15 36.386719 22.613281 44 32 44 C 41.386719 44 49 36.386719 49 27 C 49 17.609375 41.386719 10 32 10 Z M 42.417969 37.417969 C 41.074219 38.761719 39.484375 39.835938 37.734375 40.578125 C 35.917969 41.34375 33.96875 41.738281 32 41.730469 C 30.011719 41.730469 28.078125 41.34375 26.265625 40.578125 C 24.515625 39.835938 22.925781 38.761719 21.582031 37.417969 C 18.8125 34.660156 17.257812 30.910156 17.265625 27 C 17.261719 23.089844 18.8125 19.34375 21.582031 16.582031 C 22.921875 15.234375 24.515625 14.164062 26.265625 13.421875 C 28.082031 12.65625 30.03125 12.261719 32 12.269531 C 33.988281 12.269531 35.921875 12.65625 37.734375 13.425781 C 39.484375 14.164062 41.074219 15.238281 42.417969 16.582031 C 45.1875 19.34375 46.738281 23.089844 46.734375 27 C 46.742188 30.910156 45.1875 34.660156 42.417969 37.417969 Z M 42.417969 37.417969 "/>
<path fill-rule="evenodd" fill="rgb(58.039216%, 58.039216%, 58.823529%)" fill-opacity="1" d="M 43.5 46 C 43.222656 46 43 46.222656 43 46.5 L 43 52.5 C 43 52.777344 43.222656 53 43.5 53 C 43.777344 53 44 52.777344 44 52.5 L 44 46.5 C 44 46.222656 43.777344 46 43.5 46 Z M 43.5 46 "/>
<path fill-rule="evenodd" fill="rgb(58.039216%, 58.039216%, 58.823529%)" fill-opacity="1" d="M 41.5 46 C 41.222656 46 41 46.222656 41 46.5 L 41 52.5 C 41 52.777344 41.222656 53 41.5 53 C 41.777344 53 42 52.777344 42 52.5 L 42 46.5 C 42 46.222656 41.777344 46 41.5 46 Z M 41.5 46 "/>
<path fill-rule="evenodd" fill="rgb(58.039216%, 58.039216%, 58.823529%)" fill-opacity="1" d="M 39.5 46 C 39.222656 46 39 46.222656 39 46.5 L 39 52.5 C 39 52.777344 39.222656 53 39.5 53 C 39.777344 53 40 52.777344 40 52.5 L 40 46.5 C 40 46.222656 39.777344 46 39.5 46 Z M 39.5 46 "/>
<path fill-rule="evenodd" fill="rgb(58.039216%, 58.039216%, 58.823529%)" fill-opacity="1" d="M 37.5 46 C 37.222656 46 37 46.222656 37 46.5 L 37 52.5 C 37 52.777344 37.222656 53 37.5 53 C 37.777344 53 38 52.777344 38 52.5 L 38 46.5 C 38 46.222656 37.777344 46 37.5 46 Z M 37.5 46 "/>
<path fill-rule="evenodd" fill="rgb(58.039216%, 58.039216%, 58.823529%)" fill-opacity="1" d="M 35.5 46 C 35.222656 46 35 46.222656 35 46.5 L 35 52.5 C 35 52.777344 35.222656 53 35.5 53 C 35.777344 53 36 52.777344 36 52.5 L 36 46.5 C 36 46.222656 35.777344 46 35.5 46 Z M 35.5 46 "/>
<path fill-rule="nonzero" fill="rgb(41.568627%, 41.568627%, 41.568627%)" fill-opacity="1" d="M 17 49 C 17 50.105469 16.105469 51 15 51 C 13.894531 51 13 50.105469 13 49 C 13 47.894531 13.894531 47 15 47 C 16.105469 47 17 47.894531 17 49 Z M 17 49 "/>
<path fill-rule="nonzero" fill="rgb(100%, 100%, 100%)" fill-opacity="1" d="M 16 49 C 16 48.449219 15.550781 48 15 48 C 14.449219 48 14 48.449219 14 49 C 14 49.550781 14.449219 50 15 50 C 15.550781 50 16 49.550781 16 49 Z M 16 49 "/>
<path fill-rule="nonzero" fill="rgb(100%, 100%, 100%)" fill-opacity="1" d="M 34 27 C 34 28.105469 33.105469 29 32 29 C 30.894531 29 30 28.105469 30 27 C 30 25.894531 30.894531 25 32 25 C 33.105469 25 34 25.894531 34 27 Z M 34 27 "/>
<g mask="url(#mask-0)">
<use xlink:href="#source-3703"/>
</g>
<g mask="url(#mask-1)">
<use xlink:href="#source-3707"/>
</g>
<path fill-rule="evenodd" fill="rgb(52.156863%, 52.156863%, 54.117647%)" fill-opacity="1" d="M 32 30 C 30.34375 30 29 28.65625 29 27 C 29 25.34375 30.34375 24 32 24 C 33.65625 24 35 25.34375 35 27 C 35 28.65625 33.65625 30 32 30 Z M 32 30 "/>
<path fill-rule="evenodd" fill="url(#linear-pattern-0)" d="M 33 27 C 33 27.550781 32.550781 28 32 28 C 31.449219 28 31 27.550781 31 27 C 31 26.449219 31.449219 26 32 26 C 32.550781 26 33 26.449219 33 27 "/>
<path fill-rule="nonzero" fill="rgb(50.196078%, 50.196078%, 50.196078%)" fill-opacity="1" d="M 32 10 C 22.613281 10 15 17.609375 15 27 C 15 36.386719 22.613281 44 32 44 C 41.386719 44 49 36.386719 49 27 C 49 17.609375 41.386719 10 32 10 Z M 42.417969 37.417969 C 41.074219 38.761719 39.484375 39.835938 37.734375 40.578125 C 35.917969 41.34375 33.96875 41.738281 32 41.730469 C 30.011719 41.730469 28.078125 41.34375 26.265625 40.578125 C 24.515625 39.835938 22.925781 38.761719 21.582031 37.417969 C 18.8125 34.660156 17.257812 30.910156 17.265625 27 C 17.261719 23.089844 18.8125 19.34375 21.582031 16.582031 C 22.921875 15.234375 24.515625 14.164062 26.265625 13.421875 C 28.082031 12.65625 30.03125 12.261719 32 12.269531 C 33.988281 12.269531 35.921875 12.65625 37.734375 13.425781 C 39.484375 14.164062 41.074219 15.238281 42.417969 16.582031 C 45.1875 19.34375 46.738281 23.089844 46.734375 27 C 46.742188 30.910156 45.1875 34.660156 42.417969 37.417969 Z M 42.417969 37.417969 "/>
<path fill-rule="nonzero" fill="rgb(100%, 100%, 100%)" fill-opacity="1" d="M 25.296875 50.578125 L 37.625 35.253906 C 37.800781 35.050781 37.90625 34.785156 37.90625 34.5 C 37.90625 33.855469 37.371094 33.335938 36.714844 33.335938 C 36.421875 33.335938 36.152344 33.4375 35.945312 33.609375 L 20.300781 45.683594 C 19.390625 46.335938 18.851562 47.382812 18.847656 48.5 C 18.847656 50.433594 20.449219 52 22.421875 52 C 23.550781 52.003906 24.617188 51.476562 25.296875 50.578125 Z M 25.296875 50.578125 "/>
<path fill-rule="nonzero" fill="rgb(100%, 50.196078%, 50.196078%)" fill-opacity="1" d="M 60 46 C 60 53.730469 53.730469 60 46 60 C 38.269531 60 32 53.730469 32 46 C 32 38.269531 38.269531 32 46 32 C 53.730469 32 60 38.269531 60 46 Z M 60 46 "/>
<path fill-rule="nonzero" fill="rgb(100%, 100%, 100%)" fill-opacity="1" d="M 46 38 C 46.550781 38 47 38.449219 47 39 L 47 49 C 47 49.550781 46.550781 50 46 50 C 45.449219 50 45 49.550781 45 49 L 45 39 C 45 38.449219 45.449219 38 46 38 Z M 46 38 "/>
<path fill-rule="nonzero" fill="rgb(100%, 100%, 100%)" fill-opacity="1" d="M 47 53 C 47 53.550781 46.550781 54 46 54 C 45.449219 54 45 53.550781 45 53 C 45 52.449219 45.449219 52 46 52 C 46.550781 52 47 52.449219 47 53 Z M 47 53 "/>
</svg>
