<?xml version="1.0" encoding="UTF-8"?>
<svg xmlns="http://www.w3.org/2000/svg" xmlns:xlink="http://www.w3.org/1999/xlink" width="64" height="64" viewBox="0 0 64 64">
<path fill-rule="nonzero" fill="rgb(0%, 66.666667%, 87.058824%)" fill-opacity="1" d="M 15.609375 8.460938 C 15.609375 12.40625 12.410156 15.605469 8.464844 15.605469 C 4.519531 15.605469 1.324219 12.40625 1.324219 8.460938 C 1.324219 4.515625 4.519531 1.316406 8.464844 1.316406 C 12.410156 1.316406 15.609375 4.515625 15.609375 8.460938 Z M 15.609375 8.460938 "/>
<path fill-rule="evenodd" fill="rgb(100%, 100%, 100%)" fill-opacity="1" d="M 11.175781 4.230469 C 10.734375 4.296875 10.519531 7.019531 10.714844 7.386719 C 11.054688 7.167969 11.554688 6.117188 11.710938 5.761719 C 11.589844 6.09375 11.4375 7.667969 11.5 7.6875 C 11.632812 7.863281 13.433594 4.890625 12.910156 4.679688 C 12.835938 4.648438 12.328125 5.578125 11.90625 6.527344 C 11.910156 6.121094 12.238281 4.894531 12.105469 4.523438 C 11.839844 4.445312 11.332031 5.609375 11.125 6.152344 C 11.058594 5.875 11.410156 4.363281 11.175781 4.230469 Z M 7.199219 4.515625 C 7.0625 4.519531 6.960938 4.5625 6.921875 4.558594 C 6.070312 4.679688 6.324219 5.878906 6.6875 7 C 6.71875 7.285156 6.417969 7.164062 6.226562 6.863281 C 5.570312 5.261719 5.28125 5.3125 5.097656 5.265625 C 4.921875 5.230469 4.3125 5.550781 4.328125 6.199219 C 4.328125 6.386719 4.5625 7.265625 4.5625 7.535156 C 3.792969 8.855469 3.480469 10.164062 4.445312 11.515625 C 5.414062 12.800781 8.308594 12.84375 8.824219 12.539062 C 9.023438 12.402344 11.972656 10.949219 12.652344 10.386719 C 13.667969 9.546875 12.628906 8.488281 12.382812 8.34375 C 10.28125 6.96875 8.136719 7.253906 8.105469 7.035156 C 8.09375 6.785156 8.101562 6.085938 8.0625 5.835938 C 7.921875 4.679688 7.492188 4.511719 7.199219 4.515625 Z M 10.046875 8.8125 C 9.972656 9.214844 9.160156 10.117188 8.910156 10.378906 C 9.097656 10.164062 10.582031 9.363281 10.621094 9.417969 C 10.839844 9.472656 8.863281 12.035156 8.464844 11.636719 C 8.40625 11.578125 8.902344 10.863281 9.710938 10.242188 C 9.339844 10.402344 8.261719 10.996094 7.867188 11.015625 C 7.6875 10.800781 8.824219 10.082031 9.066406 9.664062 C 8.785156 9.714844 7.304688 10.40625 7.09375 10.242188 C 6.984375 9.8125 9.574219 9.058594 10.046875 8.8125 Z M 10.046875 8.8125 "/>
</svg>
