<?xml version="1.0" encoding="UTF-8"?>
<svg xmlns="http://www.w3.org/2000/svg" xmlns:xlink="http://www.w3.org/1999/xlink" width="64" height="64" viewBox="0 0 64 64">
<defs>
<filter id="filter-remove-color" x="0%" y="0%" width="100%" height="100%">
<feColorMatrix color-interpolation-filters="sRGB" values="0 0 0 0 1 0 0 0 0 1 0 0 0 0 1 0 0 0 1 0" />
</filter>
<mask id="mask-0">
<g filter="url(#filter-remove-color)">
<rect x="-6.4" y="-6.4" width="76.8" height="76.8" fill="rgb(0%, 0%, 0%)" fill-opacity="0.25"/>
</g>
</mask>
<linearGradient id="linear-pattern-0" gradientUnits="userSpaceOnUse" x1="43" y1="44" x2="49" y2="50" gradientTransform="matrix(0.26458, 0, 0, 0.26458, 0, 0)">
<stop offset="0" stop-color="rgb(0%, 0%, 0%)" stop-opacity="1"/>
<stop offset="1" stop-color="rgb(0%, 0%, 0%)" stop-opacity="0"/>
</linearGradient>
<clipPath id="clip-0">
<rect x="0" y="0" width="17" height="17"/>
</clipPath>
<g id="source-13629" clip-path="url(#clip-0)">
<path fill-rule="nonzero" fill="url(#linear-pattern-0)" d="M 15.582031 9.023438 L 9.019531 15.585938 C 12.523438 15.3125 15.308594 12.527344 15.582031 9.023438 Z M 15.582031 9.023438 "/>
</g>
</defs>
<path fill-rule="nonzero" fill="rgb(14.509804%, 41.176471%, 73.333333%)" fill-opacity="0.90196" d="M 15.609375 8.464844 C 15.609375 12.410156 12.410156 15.609375 8.464844 15.609375 C 4.519531 15.609375 1.324219 12.410156 1.324219 8.464844 C 1.324219 4.519531 4.519531 1.324219 8.464844 1.324219 C 12.410156 1.324219 15.609375 4.519531 15.609375 8.464844 Z M 15.609375 8.464844 "/>
<path fill-rule="nonzero" fill="rgb(100%, 100%, 100%)" fill-opacity="1" d="M 6.085938 9.523438 L 9.789062 9.523438 C 9.933594 9.523438 10.054688 9.644531 10.054688 9.789062 C 10.054688 9.9375 9.933594 10.054688 9.789062 10.054688 L 6.085938 10.054688 C 5.941406 10.054688 5.820312 9.9375 5.820312 9.789062 C 5.820312 9.644531 5.941406 9.523438 6.085938 9.523438 Z M 6.085938 9.523438 "/>
<path fill-rule="nonzero" fill="rgb(100%, 100%, 100%)" fill-opacity="1" d="M 4.503906 4.726562 C 4.394531 4.710938 4.292969 4.761719 4.238281 4.855469 C 4.203125 4.914062 4.195312 4.988281 4.214844 5.054688 C 4.230469 5.125 4.277344 5.183594 4.335938 5.21875 L 7.179688 6.855469 L 4.335938 8.496094 C 4.277344 8.53125 4.230469 8.589844 4.214844 8.660156 C 4.195312 8.726562 4.203125 8.800781 4.238281 8.859375 C 4.3125 8.988281 4.476562 9.03125 4.601562 8.957031 L 7.808594 7.105469 C 7.886719 7.058594 7.9375 6.972656 7.9375 6.878906 C 7.9375 6.871094 7.9375 6.863281 7.9375 6.859375 C 7.9375 6.851562 7.9375 6.84375 7.9375 6.835938 C 7.9375 6.742188 7.886719 6.65625 7.808594 6.609375 L 4.601562 4.757812 C 4.570312 4.742188 4.539062 4.730469 4.503906 4.726562 Z M 4.503906 4.726562 "/>
<g mask="url(#mask-0)">
<use xlink:href="#source-13629"/>
</g>
</svg>
