<?xml version="1.0" encoding="UTF-8"?>
<svg xmlns="http://www.w3.org/2000/svg" xmlns:xlink="http://www.w3.org/1999/xlink" width="64" height="64" viewBox="0 0 64 64">
<defs>
<filter id="filter-remove-color" x="0%" y="0%" width="100%" height="100%">
<feColorMatrix color-interpolation-filters="sRGB" values="0 0 0 0 1 0 0 0 0 1 0 0 0 0 1 0 0 0 1 0" />
</filter>
<mask id="mask-0">
<g filter="url(#filter-remove-color)">
<rect x="-6.4" y="-6.4" width="76.8" height="76.8" fill="rgb(0%, 0%, 0%)" fill-opacity="0.15"/>
</g>
</mask>
<clipPath id="clip-0">
<rect x="0" y="0" width="17" height="17"/>
</clipPath>
<g id="source-10900" clip-path="url(#clip-0)">
<path fill-rule="nonzero" fill="rgb(0%, 0%, 0%)" fill-opacity="1" d="M 11.90625 8.460938 C 11.90625 10.359375 10.367188 11.898438 8.46875 11.898438 C 6.566406 11.898438 5.027344 10.359375 5.027344 8.460938 C 5.027344 6.558594 6.566406 5.019531 8.46875 5.019531 C 10.367188 5.019531 11.90625 6.558594 11.90625 8.460938 Z M 11.90625 8.460938 "/>
</g>
</defs>
<path fill-rule="nonzero" fill="rgb(58.823529%, 81.960784%, 43.529412%)" fill-opacity="1" d="M 15.609375 8.460938 C 15.609375 12.40625 12.410156 15.605469 8.464844 15.605469 C 4.519531 15.605469 1.324219 12.40625 1.324219 8.460938 C 1.324219 4.515625 4.519531 1.316406 8.464844 1.316406 C 12.410156 1.316406 15.609375 4.515625 15.609375 8.460938 Z M 15.609375 8.460938 "/>
<g mask="url(#mask-0)">
<use xlink:href="#source-10900"/>
</g>
<path fill-rule="nonzero" fill="rgb(100%, 100%, 100%)" fill-opacity="1" d="M 8.46875 5.550781 C 6.859375 5.550781 5.558594 6.851562 5.558594 8.460938 C 5.558594 10.066406 6.859375 11.371094 8.46875 11.371094 C 10.074219 11.371094 11.378906 10.066406 11.378906 8.460938 C 11.378906 6.851562 10.074219 5.550781 8.46875 5.550781 Z M 8.46875 6.871094 C 9.34375 6.871094 10.054688 7.582031 10.054688 8.460938 C 10.054688 9.335938 9.34375 10.046875 8.46875 10.046875 C 8.046875 10.046875 7.640625 9.882812 7.34375 9.582031 C 7.046875 9.285156 6.878906 8.882812 6.878906 8.460938 C 6.878906 7.582031 7.589844 6.871094 8.46875 6.871094 Z M 8.46875 6.871094 "/>
<path fill-rule="nonzero" fill="rgb(100%, 100%, 100%)" fill-opacity="1" d="M 7.9375 4.359375 L 8.996094 4.359375 L 8.996094 6.210938 L 7.9375 6.210938 Z M 7.9375 10.710938 L 8.996094 10.710938 L 8.996094 12.5625 L 7.9375 12.5625 Z M 12.566406 7.933594 L 12.566406 8.988281 L 10.714844 8.988281 L 10.714844 7.933594 Z M 6.21875 7.933594 L 6.21875 8.988281 L 4.367188 8.988281 L 4.367188 7.933594 Z M 11.738281 10.988281 L 10.992188 11.734375 L 9.683594 10.425781 L 10.429688 9.679688 Z M 7.25 6.496094 L 6.503906 7.246094 L 5.191406 5.933594 L 5.941406 5.1875 Z M 5.941406 11.734375 L 5.191406 10.988281 L 6.503906 9.675781 L 7.25 10.425781 Z M 10.429688 7.246094 L 9.683594 6.496094 L 10.992188 5.1875 L 11.742188 5.9375 Z M 10.429688 7.246094 "/>
</svg>
