<?xml version="1.0" encoding="UTF-8"?>
<svg xmlns="http://www.w3.org/2000/svg" xmlns:xlink="http://www.w3.org/1999/xlink" width="64" height="64" viewBox="0 0 64 64">
<path fill-rule="nonzero" fill="rgb(97.647059%, 97.647059%, 97.647059%)" fill-opacity="1" d="M 15.609375 8.464844 C 15.609375 12.410156 12.410156 15.609375 8.464844 15.609375 C 4.519531 15.609375 1.324219 12.410156 1.324219 8.464844 C 1.324219 4.519531 4.519531 1.324219 8.464844 1.324219 C 12.410156 1.324219 15.609375 4.519531 15.609375 8.464844 Z M 15.609375 8.464844 "/>
<path fill-rule="nonzero" fill="rgb(20%, 20%, 20%)" fill-opacity="1" d="M 5.820312 4.71875 L 10.253906 4.71875 L 10.253906 5.59375 L 6.863281 5.59375 L 6.863281 7.867188 L 9.925781 7.867188 L 9.925781 8.746094 L 6.863281 8.746094 L 6.863281 12.433594 L 5.820312 12.433594 Z M 5.820312 4.71875 "/>
<path fill-rule="nonzero" fill="rgb(20%, 20%, 20%)" fill-opacity="1" d="M 11.378906 9.699219 C 11.105469 9.699219 10.890625 9.808594 10.730469 10.019531 C 10.574219 10.230469 10.496094 10.523438 10.496094 10.890625 C 10.496094 11.261719 10.574219 11.550781 10.730469 11.765625 C 10.886719 11.976562 11.101562 12.082031 11.378906 12.082031 C 11.648438 12.082031 11.859375 11.976562 12.019531 11.761719 C 12.175781 11.546875 12.257812 11.257812 12.257812 10.890625 C 12.257812 10.527344 12.175781 10.234375 12.019531 10.023438 C 11.859375 9.808594 11.648438 9.699219 11.378906 9.699219 Z M 11.378906 9.269531 C 11.816406 9.269531 12.164062 9.414062 12.417969 9.699219 C 12.667969 9.988281 12.792969 10.382812 12.792969 10.890625 C 12.792969 11.394531 12.667969 11.792969 12.414062 12.082031 C 12.164062 12.367188 11.816406 12.511719 11.378906 12.511719 C 10.933594 12.511719 10.585938 12.367188 10.335938 12.082031 C 10.085938 11.792969 9.960938 11.398438 9.960938 10.890625 C 9.960938 10.382812 10.085938 9.988281 10.335938 9.699219 C 10.585938 9.414062 10.933594 9.269531 11.378906 9.269531 Z M 11.378906 9.269531 "/>
</svg>
