<?xml version="1.0" encoding="UTF-8"?>
<svg xmlns="http://www.w3.org/2000/svg" xmlns:xlink="http://www.w3.org/1999/xlink" width="64" height="64" viewBox="0 0 64 64">
<path fill-rule="nonzero" fill="rgb(92.54902%, 31.372549%, 33.72549%)" fill-opacity="1" d="M 32 5 C 46.910156 5 59 17.089844 59 32 C 59 46.910156 46.910156 59 32 59 C 17.089844 59 5 46.910156 5 32 C 5 17.089844 17.089844 5 32 5 Z M 32 5 "/>
<path fill-rule="nonzero" fill="rgb(100%, 100%, 100%)" fill-opacity="1" d="M 31.910156 14 C 22.003906 14.050781 14 22.09375 14 32 C 14 41.941406 22.058594 50 32 50 C 41.941406 50 50 41.941406 50 32 C 50 22.058594 41.941406 14 32 14 C 31.96875 14 31.941406 14 31.910156 14 Z M 27.738281 22.660156 C 28.089844 22.679688 28.414062 22.792969 28.714844 23.003906 L 39.929688 30.730469 C 40.28125 30.980469 40.527344 31.308594 40.664062 31.714844 C 40.800781 32.117188 40.800781 32.527344 40.664062 32.9375 C 40.527344 33.34375 40.28125 33.671875 39.925781 33.917969 L 28.714844 41.644531 C 28.3125 41.921875 27.871094 42.03125 27.386719 41.972656 C 26.898438 41.910156 26.496094 41.699219 26.171875 41.332031 C 25.847656 40.96875 25.679688 40.539062 25.679688 40.050781 L 25.679688 24.597656 C 25.679688 24.109375 25.847656 23.679688 26.171875 23.3125 C 26.496094 22.949219 26.898438 22.734375 27.386719 22.675781 C 27.503906 22.660156 27.625 22.65625 27.742188 22.660156 Z M 27.738281 22.660156 "/>
</svg>
