<?xml version="1.0" encoding="UTF-8"?>
<svg xmlns="http://www.w3.org/2000/svg" xmlns:xlink="http://www.w3.org/1999/xlink" width="64" height="64" viewBox="0 0 64 64">
<defs>
<filter id="filter-remove-color" x="0%" y="0%" width="100%" height="100%">
<feColorMatrix color-interpolation-filters="sRGB" values="0 0 0 0 1 0 0 0 0 1 0 0 0 0 1 0 0 0 1 0" />
</filter>
<mask id="mask-0">
<g filter="url(#filter-remove-color)">
<rect x="-6.4" y="-6.4" width="76.8" height="76.8" fill="rgb(0%, 0%, 0%)" fill-opacity="0.2"/>
</g>
</mask>
<clipPath id="clip-0">
<rect x="0" y="0" width="17" height="17"/>
</clipPath>
<g id="source-2546" clip-path="url(#clip-0)">
<path fill-rule="evenodd" fill="rgb(0%, 0%, 0%)" fill-opacity="1" d="M 3.96875 2.921875 C 2.296875 4.277344 1.324219 6.3125 1.324219 8.464844 C 1.324219 10.617188 2.296875 12.65625 3.96875 14.007812 Z M 3.96875 2.921875 "/>
</g>
</defs>
<path fill-rule="nonzero" fill="rgb(78.431373%, 21.568627%, 21.568627%)" fill-opacity="1" d="M 15.609375 8.464844 C 15.609375 12.410156 12.410156 15.609375 8.464844 15.609375 C 4.519531 15.609375 1.324219 12.410156 1.324219 8.464844 C 1.324219 4.519531 4.519531 1.324219 8.464844 1.324219 C 12.410156 1.324219 15.609375 4.519531 15.609375 8.464844 Z M 15.609375 8.464844 "/>
<path fill-rule="nonzero" fill="rgb(100%, 100%, 100%)" fill-opacity="1" d="M 6.613281 1.570312 C 5.859375 1.773438 5.144531 2.097656 4.496094 2.535156 L 4.496094 7.671875 L 5.558594 6.613281 L 6.613281 7.671875 Z M 6.613281 1.570312 "/>
<g mask="url(#mask-0)">
<use xlink:href="#source-2546"/>
</g>
<path fill-rule="nonzero" fill="rgb(100%, 100%, 100%)" fill-opacity="1" d="M 10.554688 8.542969 C 9.671875 8.542969 9.101562 8.558594 8.738281 8.609375 C 8.554688 8.636719 8.421875 8.675781 8.320312 8.730469 C 8.210938 8.792969 8.136719 8.898438 8.136719 9.019531 C 8.136719 9.101562 8.171875 9.160156 8.238281 9.195312 C 8.28125 9.21875 8.328125 9.222656 8.371094 9.222656 C 8.449219 9.21875 8.53125 9.195312 8.625 9.15625 C 8.636719 9.152344 8.710938 9.136719 8.804688 9.121094 C 8.898438 9.105469 9.023438 9.085938 9.160156 9.074219 C 9.4375 9.042969 9.789062 9.015625 10.132812 9 L 10.988281 8.964844 L 10.820312 9.125 C 10.5625 9.363281 9.710938 10.015625 8.875 10.625 C 8.453125 10.933594 8.039062 11.230469 7.691406 11.46875 C 7.347656 11.707031 7.066406 11.890625 6.953125 11.949219 C 6.804688 12.023438 6.660156 12.101562 6.511719 12.175781 C 6.539062 12.261719 6.554688 12.355469 6.574219 12.429688 C 6.753906 12.4375 6.9375 12.441406 7.121094 12.445312 C 7.226562 12.449219 7.539062 12.484375 7.917969 12.542969 C 8.296875 12.597656 8.757812 12.675781 9.207031 12.757812 C 10.15625 12.9375 10.871094 13.039062 11.410156 13.070312 C 11.945312 13.097656 12.3125 13.058594 12.570312 12.917969 C 12.765625 12.816406 12.949219 12.609375 13.105469 12.386719 C 13.261719 12.167969 13.394531 11.941406 13.394531 11.730469 C 13.394531 11.714844 13.390625 11.671875 13.371094 11.632812 C 13.355469 11.601562 13.332031 11.585938 13.3125 11.574219 C 13.289062 11.558594 13.265625 11.546875 13.230469 11.546875 C 13.191406 11.542969 13.152344 11.554688 13.125 11.574219 C 13.027344 11.644531 12.96875 11.769531 12.910156 11.847656 C 12.757812 12.101562 12.617188 12.238281 12.375 12.332031 C 12.132812 12.421875 11.773438 12.460938 11.226562 12.460938 C 10.742188 12.460938 9.988281 12.390625 9.339844 12.304688 C 9.015625 12.257812 8.714844 12.210938 8.492188 12.164062 L 8.488281 12.164062 C 8.382812 12.140625 8.28125 12.117188 8.21875 12.097656 C 8.292969 12.015625 8.449219 11.890625 8.660156 11.714844 C 10.144531 10.546875 11.390625 9.621094 12.890625 8.542969 Z M 10.554688 8.542969 "/>
</svg>
