<?xml version="1.0" encoding="UTF-8"?>
<svg xmlns="http://www.w3.org/2000/svg" xmlns:xlink="http://www.w3.org/1999/xlink" width="24" height="24" viewBox="0 0 24 24">
<path fill-rule="nonzero" fill="rgb(100%, 100%, 100%)" fill-opacity="1" d="M 12.859375 3.011719 C 12.476562 3.0625 12.136719 3.339844 12.03125 3.742188 L 12.03125 3.75 C 10.207031 3.734375 8.570312 5.070312 8.097656 6.828125 C 8.097656 6.828125 6.804688 11.65625 5.042969 11.828125 C 5.023438 11.835938 5.011719 11.851562 4.992188 11.859375 C 4.917969 11.890625 4.847656 11.933594 4.789062 11.988281 C 4.765625 12.011719 4.738281 12.023438 4.71875 12.046875 C 4.640625 12.132812 4.582031 12.234375 4.550781 12.347656 C 4.441406 12.75 4.679688 13.160156 5.082031 13.265625 L 15.21875 15.984375 C 15.621094 16.09375 16.03125 15.855469 16.140625 15.453125 C 16.167969 15.339844 16.167969 15.222656 16.144531 15.109375 C 16.136719 15.078125 16.121094 15.050781 16.113281 15.023438 C 16.089844 14.945312 16.050781 14.875 16.003906 14.8125 C 15.988281 14.792969 15.988281 14.773438 15.972656 14.757812 C 14.53125 13.730469 15.828125 8.898438 15.828125 8.898438 C 16.296875 7.136719 15.546875 5.164062 13.960938 4.269531 L 13.964844 4.257812 C 14.105469 3.722656 13.789062 3.175781 13.257812 3.035156 C 13.121094 2.996094 12.988281 2.992188 12.859375 3.011719 Z M 8.867188 15.320312 C 8.875 16.277344 9.566406 17.09375 10.511719 17.265625 C 11.332031 17.410156 12.15625 17.03125 12.582031 16.316406 Z M 8.867188 15.320312 "/>
</svg>
