<?xml version="1.0" encoding="UTF-8"?>
<svg xmlns="http://www.w3.org/2000/svg" xmlns:xlink="http://www.w3.org/1999/xlink" width="24" height="24" viewBox="0 0 24 24">
<path fill-rule="nonzero" fill="rgb(100%, 100%, 100%)" fill-opacity="1" d="M 13.988281 3 C 13.601562 3.003906 13.230469 3.234375 13.074219 3.617188 L 13.070312 3.625 C 11.265625 3.371094 9.46875 4.480469 8.769531 6.164062 C 8.769531 6.164062 6.855469 10.785156 5.085938 10.722656 C 5.066406 10.726562 5.050781 10.742188 5.03125 10.746094 C 4.953125 10.769531 4.882812 10.800781 4.816406 10.847656 C 4.789062 10.867188 4.761719 10.875 4.738281 10.898438 C 4.648438 10.972656 4.578125 11.066406 4.53125 11.175781 C 4.371094 11.558594 4.554688 11.992188 4.9375 12.152344 L 14.636719 16.171875 C 15.019531 16.332031 15.457031 16.148438 15.617188 15.765625 C 15.660156 15.355469 15.675781 15.539062 15.363281 15.425781 C 15.664062 15.394531 15.652344 15.363281 15.648438 15.335938 C 15.632812 15.253906 15.605469 15.179688 15.566406 15.109375 C 15.554688 15.09375 15.554688 15.070312 15.542969 15.054688 C 14.246094 13.847656 16.160156 9.226562 16.160156 9.226562 C 16.859375 7.542969 16.371094 5.488281 14.914062 4.390625 L 14.917969 4.382812 C 15.132812 3.871094 14.890625 3.289062 14.378906 3.078125 C 14.25 3.023438 14.121094 3 13.988281 3 Z M 6.894531 14.050781 C 6.785156 14.878906 7.191406 15.71875 7.980469 16.113281 C 8.855469 16.542969 9.890625 16.277344 10.460938 15.527344 Z M 6.894531 14.050781 "/>
</svg>
