<?xml version="1.0" encoding="UTF-8"?>
<svg xmlns="http://www.w3.org/2000/svg" xmlns:xlink="http://www.w3.org/1999/xlink" width="24" height="24" viewBox="0 0 24 24">
<path fill-rule="nonzero" fill="rgb(100%, 100%, 100%)" fill-opacity="1" d="M 13.878906 3.007812 C 13.625 3.042969 13.386719 3.171875 13.21875 3.390625 L 13.210938 3.398438 C 11.535156 2.6875 9.511719 3.292969 8.398438 4.738281 C 8.398438 4.738281 5.355469 8.707031 3.664062 8.1875 C 3.644531 8.1875 3.625 8.199219 3.605469 8.199219 C 3.527344 8.199219 3.445312 8.210938 3.367188 8.238281 C 3.339844 8.25 3.308594 8.253906 3.28125 8.265625 C 3.175781 8.316406 3.082031 8.386719 3.007812 8.480469 C 2.757812 8.808594 2.820312 9.28125 3.148438 9.53125 L 11.476562 15.921875 C 11.808594 16.175781 12.277344 16.113281 12.53125 15.785156 C 12.597656 15.691406 12.648438 15.582031 12.363281 15.46875 C 12.671875 15.4375 12.667969 15.40625 12.667969 15.375 C 12.675781 15.296875 12.667969 15.214844 12.648438 15.136719 C 12.644531 15.117188 12.648438 15.097656 12.644531 15.078125 C 11.703125 13.578125 14.746094 9.609375 14.746094 9.609375 C 15.855469 8.160156 15.921875 6.050781 14.796875 4.617188 L 14.800781 4.609375 C 15.140625 4.171875 15.054688 3.542969 14.617188 3.207031 C 14.398438 3.039062 14.132812 2.976562 13.878906 3.007812 Z M 3.167969 10.808594 C 3.042969 11.386719 3.179688 11.988281 3.539062 12.457031 C 4.128906 13.222656 5.183594 13.457031 6.039062 13.011719 Z M 3.167969 10.808594 "/>
</svg>
