<?xml version="1.0" encoding="UTF-8"?>
<svg xmlns="http://www.w3.org/2000/svg" xmlns:xlink="http://www.w3.org/1999/xlink" width="24" height="24" viewBox="0 0 24 24">
<path fill-rule="nonzero" fill="rgb(100%, 100%, 100%)" fill-opacity="1" d="M 15.515625 3 C 15.125 3.003906 14.757812 3.238281 14.597656 3.621094 L 14.59375 3.628906 C 12.789062 3.375 10.996094 4.484375 10.296875 6.167969 C 10.296875 6.167969 8.382812 10.785156 6.613281 10.722656 C 6.59375 10.730469 6.578125 10.742188 6.558594 10.75 C 6.484375 10.769531 6.410156 10.804688 6.34375 10.847656 C 6.316406 10.867188 6.289062 10.878906 6.265625 10.898438 C 6.175781 10.972656 6.105469 11.066406 6.058594 11.175781 C 5.898438 11.558594 6.082031 11.996094 6.464844 12.15625 L 16.164062 16.171875 C 16.550781 16.332031 16.984375 16.152344 17.144531 15.769531 C 17.1875 15.660156 17.203125 15.542969 17.191406 15.425781 C 17.191406 15.394531 17.179688 15.367188 17.171875 15.335938 C 17.15625 15.257812 17.128906 15.179688 17.089844 15.113281 C 17.082031 15.09375 17.082031 15.074219 17.070312 15.058594 C 15.773438 13.847656 17.6875 9.226562 17.6875 9.226562 C 17.859375 8.8125 17.957031 8.378906 17.988281 7.941406 C 17.695312 8.007812 17.386719 8.011719 17.09375 7.945312 C 16.796875 7.882812 16.523438 7.75 16.285156 7.5625 C 16.046875 7.375 15.855469 7.140625 15.726562 6.867188 C 15.59375 6.597656 15.523438 6.296875 15.523438 5.996094 C 15.523438 5.65625 15.609375 5.324219 15.773438 5.027344 C 15.9375 4.730469 16.175781 4.480469 16.464844 4.300781 C 16.621094 3.8125 16.386719 3.277344 15.90625 3.078125 C 15.777344 3.023438 15.648438 3 15.515625 3 Z M 10.148438 14.753906 C 10.039062 15.699219 10.613281 16.617188 11.558594 16.898438 C 12.367188 17.136719 13.203125 16.84375 13.695312 16.21875 Z M 10.148438 14.753906 "/>
<path fill-rule="nonzero" fill="rgb(82.745098%, 21.176471%, 21.176471%)" fill-opacity="1" d="M 18.523438 5.996094 C 18.523438 6.261719 18.417969 6.515625 18.230469 6.703125 C 18.042969 6.890625 17.789062 6.996094 17.523438 6.996094 C 17.257812 6.996094 17.003906 6.890625 16.816406 6.703125 C 16.628906 6.515625 16.523438 6.261719 16.523438 5.996094 C 16.523438 5.730469 16.628906 5.476562 16.816406 5.289062 C 17.003906 5.101562 17.257812 4.996094 17.523438 4.996094 C 17.789062 4.996094 18.042969 5.101562 18.230469 5.289062 C 18.417969 5.476562 18.523438 5.730469 18.523438 5.996094 Z M 18.523438 5.996094 "/>
</svg>
