<?xml version="1.0" encoding="UTF-8"?>
<svg xmlns="http://www.w3.org/2000/svg" xmlns:xlink="http://www.w3.org/1999/xlink" width="24" height="24" viewBox="0 0 24 24">
<path fill-rule="nonzero" fill="rgb(100%, 100%, 100%)" fill-opacity="1" d="M 6.355469 3 L 5.414062 3.941406 L 8.121094 6.648438 L 8.542969 6.230469 C 8.199219 6.84375 8 7.542969 8 8.261719 C 8 8.261719 8 13.265625 6.339844 13.886719 C 6.324219 13.894531 6.316406 13.914062 6.300781 13.925781 C 6.238281 13.976562 6.183594 14.035156 6.136719 14.101562 C 6.121094 14.128906 6.101562 14.152344 6.085938 14.179688 C 6.03125 14.28125 6 14.398438 6 14.515625 C 6 14.628906 6.335938 15.265625 6.75 15.265625 L 17.25 15.265625 C 17.363281 15.265625 18 14.628906 18 14.515625 C 18 14.398438 17.96875 14.28125 17.914062 14.179688 C 17.898438 14.152344 17.878906 14.128906 17.859375 14.101562 C 17.816406 14.035156 17.761719 13.976562 17.699219 13.925781 C 17.683594 13.914062 17.675781 13.894531 17.660156 13.886719 C 16 13.265625 16 8.261719 16 8.261719 C 15.996094 6.441406 14.765625 4.726562 13 4.273438 L 13 4.261719 C 13 4 12.894531 3.742188 12.707031 3.554688 C 12.519531 3.367188 12.265625 3.261719 12 3.261719 C 11.734375 3.261719 11.480469 3.367188 11.292969 3.554688 C 11.105469 3.742188 11 4 11 4.261719 L 11 4.273438 C 10.179688 4.484375 9.484375 4.976562 8.964844 5.613281 Z M 10.066406 16.265625 C 10.175781 16.691406 10.425781 17.074219 10.777344 17.34375 C 11.128906 17.617188 11.558594 17.761719 12 17.765625 C 12.441406 17.761719 12.875 17.617188 13.222656 17.34375 C 13.574219 17.074219 13.824219 16.691406 13.933594 16.265625 Z M 10.066406 16.265625 "/>
</svg>
