<?xml version="1.0" encoding="UTF-8"?>
<svg xmlns="http://www.w3.org/2000/svg" xmlns:xlink="http://www.w3.org/1999/xlink" width="24" height="24" viewBox="0 0 24 24">
<path fill-rule="nonzero" fill="rgb(100%, 100%, 100%)" fill-opacity="1" d="M 12.632812 3.007812 C 12.082031 2.9375 11.582031 3.324219 11.511719 3.871094 L 11.507812 3.878906 C 9.699219 4.101562 8.253906 5.636719 8.011719 7.445312 C 8.011719 7.445312 7.363281 12.402344 5.636719 12.800781 C 5.617188 12.808594 5.605469 12.828125 5.585938 12.839844 C 5.519531 12.878906 5.457031 12.929688 5.40625 12.992188 C 5.386719 13.015625 5.363281 13.035156 5.34375 13.058594 C 5.277344 13.15625 5.230469 13.265625 5.214844 13.378906 C 5.160156 13.792969 5.449219 14.167969 5.859375 14.222656 L 16.269531 15.59375 C 16.683594 15.648438 17.058594 15.359375 17.109375 14.945312 C 17.125 14.832031 17.109375 14.714844 17.070312 14.605469 C 17.058594 14.574219 17.042969 14.550781 17.03125 14.523438 C 16.996094 14.449219 16.945312 14.382812 16.890625 14.328125 C 16.875 14.3125 16.871094 14.292969 16.855469 14.277344 C 15.292969 13.445312 15.945312 8.488281 15.945312 8.488281 C 16.179688 6.679688 15.183594 4.824219 13.492188 4.140625 L 13.492188 4.132812 C 13.5625 3.585938 13.179688 3.082031 12.632812 3.007812 Z M 10.359375 15.804688 C 10.515625 16.773438 11.351562 17.484375 12.332031 17.488281 C 13.121094 17.484375 13.832031 17.023438 14.15625 16.304688 Z M 10.359375 15.804688 "/>
</svg>
