<?xml version="1.0" encoding="UTF-8"?>
<svg xmlns="http://www.w3.org/2000/svg" xmlns:xlink="http://www.w3.org/1999/xlink" width="24" height="24" viewBox="0 0 24 24">
<path fill-rule="nonzero" fill="rgb(100%, 100%, 100%)" fill-opacity="1" d="M 6.351562 3 L 5.414062 3.941406 L 10.832031 9.359375 L 9.53125 9.359375 L 8.03125 7.863281 C 8.019531 7.996094 8 8.128906 8 8.261719 C 8 8.261719 8 13.265625 6.339844 13.886719 C 6.324219 13.894531 6.316406 13.914062 6.300781 13.925781 C 6.238281 13.976562 6.183594 14.035156 6.136719 14.101562 C 6.121094 14.128906 6.101562 14.152344 6.085938 14.179688 C 6.03125 14.28125 6 14.398438 6 14.515625 C 6 14.628906 6.335938 15.265625 6.75 15.265625 L 17.25 15.265625 C 17.363281 15.265625 18 14.628906 18 14.515625 C 18 14.398438 17.96875 14.28125 17.914062 14.179688 C 17.898438 14.152344 17.878906 14.128906 17.859375 14.101562 C 17.816406 14.035156 17.761719 13.976562 17.699219 13.925781 C 17.683594 13.914062 17.675781 13.894531 17.660156 13.886719 C 16 13.265625 16 8.261719 16 8.261719 C 15.996094 6.441406 14.765625 4.726562 13 4.273438 L 13 4.261719 C 13 3.710938 12.550781 3.261719 12 3.261719 C 11.449219 3.261719 11 3.710938 11 4.261719 L 11 4.273438 C 10.179688 4.484375 9.484375 4.972656 8.964844 5.613281 Z M 10.066406 16.265625 C 10.292969 17.144531 11.089844 17.761719 12 17.765625 C 12.910156 17.761719 13.707031 17.144531 13.933594 16.265625 Z M 10.066406 16.265625 "/>
</svg>
