<?xml version="1.0" encoding="UTF-8"?>
<svg xmlns="http://www.w3.org/2000/svg" xmlns:xlink="http://www.w3.org/1999/xlink" width="24" height="24" viewBox="0 0 24 24">
<path fill-rule="nonzero" fill="rgb(100%, 100%, 100%)" fill-opacity="1" d="M 13.488281 3 C 13.101562 3.003906 12.730469 3.234375 12.574219 3.617188 L 12.570312 3.625 C 10.765625 3.371094 8.96875 4.480469 8.269531 6.164062 C 8.269531 6.164062 6.355469 10.785156 4.585938 10.722656 C 4.566406 10.726562 4.550781 10.742188 4.53125 10.746094 C 4.453125 10.769531 4.382812 10.800781 4.316406 10.847656 C 4.289062 10.867188 4.261719 10.875 4.238281 10.898438 C 4.148438 10.972656 4.078125 11.066406 4.03125 11.175781 C 3.871094 11.558594 4.054688 11.992188 4.4375 12.152344 L 14.136719 16.171875 C 14.519531 16.332031 14.957031 16.148438 15.117188 15.765625 C 15.160156 15.355469 15.175781 15.539062 15.164062 15.425781 C 15.164062 15.394531 15.152344 15.363281 15.148438 15.335938 C 15.132812 15.253906 15.105469 15.179688 15.066406 15.109375 C 15.054688 15.09375 15.054688 15.070312 15.042969 15.054688 C 13.746094 13.847656 15.660156 9.226562 15.660156 9.226562 C 16.359375 7.542969 15.871094 5.488281 14.414062 4.390625 L 14.417969 4.382812 C 14.632812 3.871094 14.390625 3.289062 13.878906 3.078125 C 13.75 3.023438 13.621094 3 13.488281 3 Z M 7.117188 14.34375 C 6.992188 15.246094 7.488281 16.121094 8.332031 16.472656 C 9.171875 16.820312 10.144531 16.554688 10.691406 15.824219 Z M 7.117188 14.34375 "/>
</svg>
