<?xml version="1.0" encoding="UTF-8"?>
<svg xmlns="http://www.w3.org/2000/svg" xmlns:xlink="http://www.w3.org/1999/xlink" width="24" height="24" viewBox="0 0 24 24">
<path fill-rule="nonzero" fill="rgb(100%, 100%, 100%)" fill-opacity="1" d="M 14.515625 3 C 14.125 3.003906 13.757812 3.238281 13.597656 3.621094 L 13.59375 3.628906 C 11.789062 3.375 9.996094 4.484375 9.296875 6.167969 C 9.296875 6.167969 7.382812 10.785156 5.613281 10.722656 C 5.59375 10.730469 5.578125 10.742188 5.558594 10.75 C 5.484375 10.769531 5.410156 10.804688 5.34375 10.847656 C 5.316406 10.867188 5.289062 10.878906 5.265625 10.898438 C 5.175781 10.972656 5.105469 11.066406 5.058594 11.171875 C 4.898438 11.558594 5.082031 11.996094 5.464844 12.15625 L 15.164062 16.171875 C 15.550781 16.332031 15.984375 16.152344 16.144531 15.769531 C 16.1875 15.660156 16.203125 15.542969 16.191406 15.425781 C 16.191406 15.394531 16.179688 15.367188 16.171875 15.335938 C 16.15625 15.257812 16.128906 15.179688 16.089844 15.109375 C 16.082031 15.09375 16.082031 15.074219 16.070312 15.054688 C 14.890625 13.957031 16.316406 10.1875 16.589844 9.492188 C 16.125 9.5 15.664062 9.417969 15.230469 9.246094 C 14.796875 9.074219 14.40625 8.816406 14.074219 8.492188 C 13.742188 8.167969 13.476562 7.777344 13.296875 7.347656 C 13.117188 6.921875 13.023438 6.460938 13.023438 5.996094 C 13.023438 5.402344 13.175781 4.820312 13.464844 4.300781 C 13.75 3.78125 14.167969 3.34375 14.667969 3.03125 C 14.617188 3.023438 14.566406 3 14.515625 3 Z M 10.140625 15.171875 C 10.113281 16.136719 10.78125 17.003906 11.757812 17.1875 C 12.449219 17.320312 13.121094 17.070312 13.574219 16.59375 Z M 10.140625 15.171875 "/>
<path fill-rule="nonzero" fill="rgb(82.745098%, 21.176471%, 21.176471%)" fill-opacity="1" d="M 19.023438 5.996094 C 19.023438 6.660156 18.761719 7.296875 18.292969 7.765625 C 17.824219 8.234375 17.1875 8.496094 16.523438 8.496094 C 15.863281 8.496094 15.226562 8.234375 14.757812 7.765625 C 14.289062 7.296875 14.023438 6.660156 14.023438 5.996094 C 14.023438 5.332031 14.289062 4.695312 14.757812 4.226562 C 15.226562 3.757812 15.863281 3.496094 16.523438 3.496094 C 17.1875 3.496094 17.824219 3.757812 18.292969 4.226562 C 18.761719 4.695312 19.023438 5.332031 19.023438 5.996094 Z M 19.023438 5.996094 "/>
</svg>
