<?xml version="1.0" encoding="UTF-8"?>
<svg xmlns="http://www.w3.org/2000/svg" xmlns:xlink="http://www.w3.org/1999/xlink" width="24" height="24" viewBox="0 0 24 24">
<defs>
<filter id="filter-remove-color" x="0%" y="0%" width="100%" height="100%">
<feColorMatrix color-interpolation-filters="sRGB" values="0 0 0 0 1 0 0 0 0 1 0 0 0 0 1 0 0 0 1 0" />
</filter>
<mask id="mask-0">
<g filter="url(#filter-remove-color)">
<rect x="-2.4" y="-2.4" width="28.8" height="28.8" fill="rgb(0%, 0%, 0%)" fill-opacity="0.4"/>
</g>
</mask>
<clipPath id="clip-0">
<rect x="0" y="0" width="24" height="24"/>
</clipPath>
<g id="source-7266" clip-path="url(#clip-0)">
<path fill-rule="nonzero" fill="rgb(100%, 100%, 100%)" fill-opacity="1" d="M 6.351562 3 L 5.410156 3.941406 L 18.953125 17.484375 L 19.894531 16.542969 L 17.976562 14.625 C 17.984375 14.585938 18 14.546875 18 14.503906 C 18 14.386719 17.96875 14.273438 17.914062 14.171875 C 17.898438 14.140625 17.878906 14.121094 17.863281 14.09375 C 17.816406 14.027344 17.761719 13.96875 17.699219 13.917969 C 17.683594 13.90625 17.675781 13.886719 17.660156 13.875 C 16 13.253906 16 8.253906 16 8.253906 C 15.996094 6.433594 14.765625 4.71875 13 4.265625 L 13 4.253906 C 13 3.988281 12.894531 3.734375 12.707031 3.546875 C 12.519531 3.359375 12.265625 3.253906 12 3.253906 C 11.734375 3.253906 11.480469 3.359375 11.292969 3.546875 C 11.105469 3.734375 11 3.988281 11 4.253906 L 11 4.265625 C 10.179688 4.476562 9.480469 4.96875 8.960938 5.609375 Z M 8.03125 7.871094 C 8.019531 8 8 8.125 8 8.253906 C 8 8.253906 8 13.253906 6.339844 13.875 C 6.324219 13.886719 6.316406 13.90625 6.300781 13.917969 C 6.238281 13.96875 6.183594 14.027344 6.140625 14.09375 C 6.121094 14.121094 6.101562 14.140625 6.085938 14.171875 C 6.03125 14.273438 6 14.386719 6 14.503906 C 6 14.921875 6.335938 15.253906 6.75 15.253906 L 15.410156 15.253906 Z M 10.066406 16.253906 C 10.175781 16.683594 10.425781 17.0625 10.777344 17.335938 C 11.128906 17.605469 11.558594 17.753906 12 17.753906 C 12.441406 17.753906 12.875 17.605469 13.222656 17.335938 C 13.574219 17.0625 13.824219 16.683594 13.9375 16.253906 Z M 10.066406 16.253906 "/>
</g>
</defs>
<g mask="url(#mask-0)">
<use xlink:href="#source-7266"/>
</g>
</svg>
