<?xml version="1.0" encoding="UTF-8"?>
<svg xmlns="http://www.w3.org/2000/svg" xmlns:xlink="http://www.w3.org/1999/xlink" width="24" height="24" viewBox="0 0 24 24">
<path fill-rule="nonzero" fill="rgb(100%, 100%, 100%)" fill-opacity="1" d="M 14.125 3.007812 C 13.734375 2.960938 13.339844 3.140625 13.132812 3.5 L 13.128906 3.507812 C 11.371094 3.019531 9.449219 3.886719 8.535156 5.460938 C 8.535156 5.460938 6.035156 9.792969 4.289062 9.5 C 4.269531 9.503906 4.25 9.515625 4.230469 9.519531 C 4.152344 9.53125 4.074219 9.554688 4.003906 9.589844 C 3.972656 9.605469 3.945312 9.613281 3.917969 9.628906 C 3.820312 9.691406 3.738281 9.777344 3.679688 9.875 C 3.46875 10.238281 3.589844 10.691406 3.953125 10.898438 L 13.042969 16.148438 C 13.40625 16.359375 13.863281 16.238281 14.070312 15.875 C 14.125 15.773438 14.15625 15.660156 14.160156 15.542969 C 14.164062 15.511719 14.15625 15.484375 14.15625 15.453125 C 14.148438 15.371094 14.132812 15.292969 14.101562 15.21875 C 14.09375 15.199219 14.097656 15.179688 14.089844 15.160156 C 12.960938 13.792969 15.464844 9.460938 15.464844 9.460938 C 16.371094 7.882812 16.160156 5.785156 14.859375 4.507812 L 14.863281 4.5 C 15.140625 4.019531 14.976562 3.410156 14.5 3.132812 C 14.378906 3.0625 14.253906 3.023438 14.125 3.007812 Z M 4.851562 12.539062 C 4.707031 13.234375 4.929688 13.984375 5.511719 14.472656 C 6.277344 15.117188 7.378906 15.082031 8.109375 14.441406 L 4.996094 12.644531 C 4.933594 12.609375 4.90625 12.574219 4.851562 12.539062 Z M 4.851562 12.539062 "/>
</svg>
