<?xml version="1.0" encoding="UTF-8"?>
<svg xmlns="http://www.w3.org/2000/svg" xmlns:xlink="http://www.w3.org/1999/xlink" width="24" height="24" viewBox="0 0 24 24">
<path fill-rule="nonzero" fill="rgb(100%, 100%, 100%)" fill-opacity="1" d="M 11.070312 3.742188 C 9.851562 4.074219 8.796875 4.972656 8.296875 6.167969 C 8.296875 6.167969 6.382812 10.789062 4.613281 10.726562 C 4.59375 10.734375 4.578125 10.746094 4.558594 10.753906 C 4.484375 10.773438 4.410156 10.808594 4.34375 10.851562 C 4.316406 10.871094 4.289062 10.882812 4.265625 10.902344 C 4.175781 10.976562 4.105469 11.070312 4.058594 11.175781 C 3.898438 11.5625 4.082031 12 4.464844 12.15625 L 14.164062 16.175781 C 14.550781 16.335938 14.984375 16.15625 15.144531 15.773438 C 15.1875 15.664062 15.203125 15.546875 15.191406 15.429688 C 15.191406 15.398438 15.179688 15.371094 15.171875 15.339844 C 15.15625 15.261719 15.128906 15.183594 15.089844 15.113281 C 15.082031 15.097656 15.082031 15.078125 15.070312 15.058594 C 14.300781 14.339844 14.667969 12.417969 15.089844 10.972656 C 13.84375 10.867188 12.6875 10.296875 11.839844 9.375 C 10.996094 8.453125 10.527344 7.25 10.523438 6 C 10.527344 5.214844 10.714844 4.441406 11.070312 3.742188 Z M 9.929688 15.503906 C 10.003906 16.441406 10.734375 17.226562 11.703125 17.332031 C 12.273438 17.394531 12.808594 17.207031 13.214844 16.863281 Z M 9.929688 15.503906 "/>
<path fill-rule="nonzero" fill="rgb(82.745098%, 21.176471%, 21.176471%)" fill-opacity="1" d="M 19.523438 6 C 19.523438 7.0625 19.101562 8.078125 18.351562 8.828125 C 17.601562 9.578125 16.585938 10 15.523438 10 C 14.464844 10 13.445312 9.578125 12.695312 8.828125 C 11.945312 8.078125 11.523438 7.0625 11.523438 6 C 11.523438 4.9375 11.945312 3.921875 12.695312 3.171875 C 13.445312 2.421875 14.464844 2 15.523438 2 C 16.585938 2 17.601562 2.421875 18.351562 3.171875 C 19.101562 3.921875 19.523438 4.9375 19.523438 6 Z M 19.523438 6 "/>
</svg>
