<?xml version="1.0" encoding="UTF-8"?>
<svg xmlns="http://www.w3.org/2000/svg" xmlns:xlink="http://www.w3.org/1999/xlink" width="32" height="32" viewBox="0 0 32 32">
<defs>
<filter id="filter-remove-color" x="0%" y="0%" width="100%" height="100%">
<feColorMatrix color-interpolation-filters="sRGB" values="0 0 0 0 1 0 0 0 0 1 0 0 0 0 1 0 0 0 1 0" />
</filter>
<mask id="mask-0">
<g filter="url(#filter-remove-color)">
<rect x="-3.2" y="-3.2" width="38.4" height="38.4" fill="rgb(0%, 0%, 0%)" fill-opacity="0.4"/>
</g>
</mask>
<clipPath id="clip-0">
<rect x="0" y="0" width="64" height="64"/>
</clipPath>
<g id="source-7112" clip-path="url(#clip-0)">
<path fill-rule="nonzero" fill="rgb(0%, 0%, 0%)" fill-opacity="1" d="M 22 50 C 22 51.105469 21.105469 52 20 52 C 18.894531 52 18 51.105469 18 50 C 18 48.894531 18.894531 48 20 48 C 21.105469 48 22 48.894531 22 50 Z M 22 50 "/>
</g>
<mask id="mask-1">
<g filter="url(#filter-remove-color)">
<rect x="-3.2" y="-3.2" width="38.4" height="38.4" fill="rgb(0%, 0%, 0%)" fill-opacity="0.4"/>
</g>
</mask>
<clipPath id="clip-1">
<rect x="0" y="0" width="64" height="64"/>
</clipPath>
<g id="source-7118" clip-path="url(#clip-1)">
<path fill-rule="nonzero" fill="rgb(0%, 0%, 0%)" fill-opacity="1" d="M 46 50 C 46 51.105469 45.105469 52 44 52 C 42.894531 52 42 51.105469 42 50 C 42 48.894531 42.894531 48 44 48 C 45.105469 48 46 48.894531 46 50 Z M 46 50 "/>
</g>
</defs>
<path fill-rule="nonzero" fill="rgb(24.705882%, 24.705882%, 24.705882%)" fill-opacity="1" d="M 60 32 C 60 47.464844 47.464844 60 32 60 C 16.535156 60 4 47.464844 4 32 C 4 16.535156 16.535156 4 32 4 C 47.464844 4 60 16.535156 60 32 Z M 60 32 "/>
<path fill-rule="nonzero" fill="rgb(11.764706%, 69.803922%, 60.784314%)" fill-opacity="1" d="M 8.820312 20.285156 C 8.527344 20.851562 8.253906 21.429688 8 22.015625 L 8 39.285156 C 8 40.789062 8.890625 42 10 42 L 54 42 C 55.109375 42 56 40.789062 56 39.285156 L 56 22.054688 C 55.757812 21.457031 55.492188 20.867188 55.207031 20.285156 Z M 8.820312 20.285156 "/>
<path fill-rule="nonzero" fill="rgb(0%, 44.313725%, 88.627451%)" fill-opacity="1" d="M 32 6 C 22.199219 6.011719 13.234375 11.535156 8.820312 20.285156 L 55.207031 20.285156 C 50.785156 11.527344 41.808594 6 31.996094 6 Z M 32 6 "/>
<path fill-rule="nonzero" fill="rgb(30.196078%, 30.196078%, 30.196078%)" fill-opacity="1" d="M 18 26 C 14.675781 26 12 28.675781 12 32 C 12 35.324219 14.675781 38 18 38 L 46 38 C 49.324219 38 52 35.324219 52 32 C 52 28.675781 49.324219 26 46 26 Z M 18 26 "/>
<g mask="url(#mask-0)">
<use xlink:href="#source-7112"/>
</g>
<path fill-rule="nonzero" fill="rgb(80%, 80%, 80%)" fill-opacity="1" d="M 24 28 L 40 28 L 40 36.003906 L 24 36.003906 Z M 24 28 "/>
<path fill-rule="nonzero" fill="rgb(52.941176%, 30.980392%, 16.078431%)" fill-opacity="1" d="M 24 28 L 24 36.003906 L 31.347656 36.003906 C 31.777344 34.710938 31.996094 33.359375 32 32 C 31.996094 30.640625 31.777344 29.289062 31.347656 28 Z M 24 28 "/>
<g mask="url(#mask-1)">
<use xlink:href="#source-7118"/>
</g>
</svg>
