<?xml version="1.0" encoding="UTF-8"?>
<svg xmlns="http://www.w3.org/2000/svg" xmlns:xlink="http://www.w3.org/1999/xlink" width="32" height="32" viewBox="0 0 32 32">
<path fill-rule="nonzero" fill="rgb(36.078431%, 62.745098%, 83.921569%)" fill-opacity="1" d="M 15.875 8.464844 C 15.875 12.554688 12.558594 15.875 8.46875 15.875 C 4.375 15.875 1.058594 12.554688 1.058594 8.464844 C 1.058594 4.375 4.375 1.058594 8.46875 1.058594 C 12.558594 1.058594 15.875 4.375 15.875 8.464844 Z M 15.875 8.464844 "/>
<path fill-rule="nonzero" fill="rgb(100%, 100%, 100%)" fill-opacity="1" d="M 8.46875 3.90625 C 5.949219 3.90625 3.90625 5.945312 3.90625 8.464844 C 3.90625 10.984375 5.949219 13.023438 8.46875 13.023438 C 10.984375 13.023438 13.027344 10.984375 13.027344 8.464844 C 13.027344 5.949219 10.984375 3.90625 8.46875 3.90625 Z M 8.875 4.394531 C 9.316406 4.433594 9.746094 4.535156 10.136719 4.707031 C 10.101562 4.746094 10.078125 4.789062 10.0625 4.839844 C 9.941406 5.199219 9.765625 5.027344 9.972656 5.476562 C 10.183594 5.929688 10.359375 6.042969 10.417969 5.835938 C 10.480469 5.625 10.269531 5.328125 10.507812 5.449219 C 10.75 5.566406 10.925781 5.414062 10.746094 5.683594 C 10.566406 5.957031 10.570312 6.101562 10.359375 6.042969 C 10.148438 5.984375 10.152344 6.398438 9.945312 6.457031 C 9.734375 6.519531 9.660156 6.367188 9.660156 6.519531 C 9.660156 6.667969 9.78125 6.527344 9.75 6.769531 C 9.742188 6.84375 9.742188 6.855469 9.734375 6.890625 C 9.539062 6.832031 9.449219 6.804688 9.304688 6.859375 C 9.15625 6.917969 8.976562 7.304688 8.976562 7.304688 C 9.164062 7.492188 9.253906 7.628906 9.320312 7.691406 C 9.277344 7.710938 9.226562 7.722656 9.1875 7.75 C 8.886719 7.960938 8.652344 8 8.5625 8.300781 C 8.472656 8.601562 8.5 8.324219 8.5 8.6875 C 8.5 9.046875 8.410156 8.804688 8.589844 9.132812 C 8.769531 9.464844 9.210938 9.621094 9.421875 9.804688 C 9.632812 9.984375 9.851562 9.410156 10.269531 9.953125 C 10.691406 10.492188 10.71875 10.273438 10.566406 10.578125 C 10.417969 10.875 10.269531 10.976562 10.210938 11.097656 C 10.152344 11.214844 10.328125 11.628906 10.539062 11.71875 L 10.554688 11.71875 C 10.542969 11.746094 10.535156 11.769531 10.523438 11.792969 C 10.25 11.917969 9.917969 12.089844 9.855469 12.105469 C 9.707031 12.148438 9.179688 12.238281 8.800781 12.34375 C 8.75 12.359375 8.714844 12.359375 8.695312 12.359375 C 8.742188 12.308594 9.117188 12.113281 9.304688 12.003906 C 9.558594 11.855469 9.289062 11.867188 9.289062 11.867188 C 9.289062 11.867188 8.882812 11.824219 8.054688 11.824219 C 7.640625 11.824219 7.460938 11.84375 7.371094 11.867188 C 7.339844 11.878906 7.308594 11.894531 7.28125 11.914062 C 7.261719 11.933594 7.246094 11.953125 7.207031 11.972656 C 7.058594 12.058594 7.296875 12.148438 7.105469 12.210938 C 6.960938 12.257812 6.945312 12.210938 6.820312 12.121094 C 6.910156 12.035156 7.03125 11.929688 7.179688 11.75 C 7.449219 11.421875 7.535156 11.484375 7.625 11.183594 C 7.714844 10.886719 6.867188 10.976562 6.867188 10.796875 C 6.867188 10.621094 6.71875 10.5 6.449219 10.382812 C 6.179688 10.265625 6.363281 10.203125 6.0625 10.113281 C 5.761719 10.027344 5.425781 10.5625 5.335938 10.382812 C 5.246094 10.203125 5.617188 10.203125 5.617188 9.996094 C 5.617188 9.792969 5.1875 10.148438 5.113281 9.890625 C 5.109375 9.882812 5.097656 9.882812 5.097656 9.875 C 5.089844 9.839844 5.09375 9.816406 5.097656 9.789062 C 5.117188 9.574219 5.363281 9.488281 5.46875 9.28125 C 5.589844 9.042969 5.527344 9.460938 5.675781 9.667969 C 5.828125 9.878906 5.765625 9.402344 5.675781 9.136719 C 5.585938 8.867188 5.734375 8.867188 5.945312 8.511719 C 6.152344 8.152344 6.152344 7.945312 6.152344 7.675781 C 6.152344 7.410156 6.296875 7.378906 6.597656 7.113281 C 6.738281 6.988281 6.84375 6.882812 6.925781 6.785156 C 6.945312 6.773438 6.964844 6.773438 6.984375 6.769531 C 7.304688 6.640625 7.4375 6.449219 7.714844 5.878906 C 7.988281 5.304688 7.605469 5.839844 7.519531 5.816406 C 7.4375 5.796875 7.3125 5.644531 7.015625 5.476562 C 6.964844 5.445312 6.910156 5.425781 6.851562 5.417969 L 7.402344 4.511719 C 7.578125 4.464844 7.765625 4.429688 7.949219 4.40625 C 8.019531 4.789062 7.980469 5.148438 7.980469 5.148438 C 7.980469 5.148438 7.878906 5.273438 7.878906 5.359375 C 7.878906 5.441406 8.445312 4.65625 8.53125 4.613281 C 8.617188 4.570312 8.832031 4.839844 8.875 4.4375 C 8.875 4.414062 8.871094 4.414062 8.875 4.394531 Z M 9.628906 5.996094 C 9.609375 6.003906 9.589844 6.007812 9.570312 6.015625 C 9.570312 6.117188 9.53125 6.195312 9.511719 6.238281 C 9.5 6.21875 9.46875 6.191406 9.46875 6.191406 C 9.421875 6.273438 9.324219 6.347656 9.421875 6.324219 C 9.519531 6.304688 9.597656 6.363281 9.527344 6.28125 C 9.515625 6.265625 9.519531 6.269531 9.511719 6.265625 C 9.523438 6.277344 9.550781 6.28125 9.601562 6.28125 L 9.734375 6.28125 C 9.664062 6.335938 9.585938 6.359375 9.691406 6.386719 C 9.832031 6.421875 9.898438 6.429688 9.898438 6.402344 C 9.890625 6.355469 9.875 6.308594 9.855469 6.265625 C 9.882812 6.253906 9.90625 6.242188 9.882812 6.191406 C 9.839844 6.101562 9.769531 6.011719 9.675781 6 C 9.660156 5.996094 9.644531 5.996094 9.628906 5.996094 Z M 11.949219 6.25 C 12.027344 6.367188 12.097656 6.484375 12.160156 6.605469 C 12.117188 6.847656 12.011719 7.007812 12.1875 7.007812 C 12.238281 7.007812 12.28125 7 12.320312 6.992188 C 12.328125 7.007812 12.332031 7.023438 12.335938 7.035156 C 12.035156 7.035156 11.890625 7.128906 11.742188 7.097656 C 11.589844 7.066406 11.175781 7.039062 11.445312 6.769531 C 11.601562 6.613281 11.800781 6.359375 11.949219 6.25 Z M 10.078125 6.800781 C 10.105469 6.8125 10.128906 6.839844 10.152344 6.890625 C 10.242188 7.097656 10.390625 7.273438 10.269531 7.304688 C 10.152344 7.335938 10.09375 7.367188 10.09375 7.367188 C 10.09375 7.367188 10.507812 7.636719 10.539062 7.335938 C 10.566406 7.035156 10.417969 6.859375 10.417969 6.859375 C 10.417969 6.859375 10.625 7.066406 10.6875 7.1875 C 10.746094 7.308594 10.746094 7.1875 10.894531 7.335938 C 11.046875 7.484375 11.011719 6.738281 11.222656 6.949219 C 11.433594 7.160156 11.566406 7.15625 11.503906 7.304688 C 11.445312 7.457031 11.890625 7.125 11.890625 7.425781 C 11.890625 7.714844 12.074219 7.832031 11.714844 7.972656 C 11.574219 7.964844 11.464844 7.941406 11.445312 7.902344 C 11.382812 7.78125 11.042969 7.871094 11.042969 7.871094 C 10.144531 7.648438 9.753906 7.574219 9.496094 7.617188 C 9.503906 7.609375 9.507812 7.609375 9.511719 7.601562 C 9.644531 7.367188 9.890625 7.039062 9.808594 6.917969 C 9.925781 6.855469 10.015625 6.78125 10.078125 6.800781 Z M 12.605469 8.300781 C 12.605469 8.363281 12.605469 8.421875 12.605469 8.480469 C 12.605469 8.648438 12.59375 8.820312 12.574219 8.984375 C 12.304688 8.746094 11.921875 8.75 11.921875 8.75 C 11.921875 8.75 12.15625 8.480469 12.484375 8.363281 C 12.527344 8.347656 12.566406 8.328125 12.605469 8.300781 Z M 12.605469 8.300781 "/>
</svg>
