<?xml version="1.0" encoding="UTF-8"?>
<svg xmlns="http://www.w3.org/2000/svg" xmlns:xlink="http://www.w3.org/1999/xlink" width="32" height="32" viewBox="0 0 32 32">
<defs>
<filter id="filter-remove-color" x="0%" y="0%" width="100%" height="100%">
<feColorMatrix color-interpolation-filters="sRGB" values="0 0 0 0 1 0 0 0 0 1 0 0 0 0 1 0 0 0 1 0" />
</filter>
<mask id="mask-0">
<g filter="url(#filter-remove-color)">
<rect x="-3.2" y="-3.2" width="38.4" height="38.4" fill="rgb(0%, 0%, 0%)" fill-opacity="0.6"/>
</g>
</mask>
<clipPath id="clip-0">
<rect x="0" y="0" width="64" height="64"/>
</clipPath>
<g id="source-1337" clip-path="url(#clip-0)">
<path fill-rule="nonzero" fill="rgb(61.960784%, 93.333333%, 35.294118%)" fill-opacity="1" d="M 46 21 C 46 21.550781 45.550781 22 45 22 C 44.449219 22 44 21.550781 44 21 C 44 20.449219 44.449219 20 45 20 C 45.550781 20 46 20.449219 46 21 Z M 46 21 "/>
</g>
<mask id="mask-1">
<g filter="url(#filter-remove-color)">
<rect x="-3.2" y="-3.2" width="38.4" height="38.4" fill="rgb(0%, 0%, 0%)" fill-opacity="0.3"/>
</g>
</mask>
<clipPath id="clip-1">
<rect x="0" y="0" width="64" height="64"/>
</clipPath>
<g id="source-1341" clip-path="url(#clip-1)">
<path fill-rule="nonzero" fill="rgb(61.960784%, 93.333333%, 35.294118%)" fill-opacity="1" d="M 42 21 C 42 21.550781 41.550781 22 41 22 C 40.449219 22 40 21.550781 40 21 C 40 20.449219 40.449219 20 41 20 C 41.550781 20 42 20.449219 42 21 Z M 42 21 "/>
</g>
<mask id="mask-2">
<g filter="url(#filter-remove-color)">
<rect x="-3.2" y="-3.2" width="38.4" height="38.4" fill="rgb(0%, 0%, 0%)" fill-opacity="0.25"/>
</g>
</mask>
<clipPath id="clip-2">
<rect x="0" y="0" width="64" height="64"/>
</clipPath>
<g id="source-1345" clip-path="url(#clip-2)">
<path fill-rule="nonzero" fill="rgb(0%, 0%, 0%)" fill-opacity="1" d="M 15.378906 22.414062 L 18.914062 18.878906 C 19.109375 18.683594 19.425781 18.683594 19.621094 18.878906 C 19.816406 19.074219 19.816406 19.390625 19.621094 19.585938 L 16.085938 23.121094 C 15.890625 23.316406 15.574219 23.316406 15.378906 23.121094 C 15.183594 22.925781 15.183594 22.609375 15.378906 22.414062 Z M 15.378906 22.414062 "/>
</g>
<mask id="mask-3">
<g filter="url(#filter-remove-color)">
<rect x="-3.2" y="-3.2" width="38.4" height="38.4" fill="rgb(0%, 0%, 0%)" fill-opacity="0.25"/>
</g>
</mask>
<clipPath id="clip-3">
<rect x="0" y="0" width="64" height="64"/>
</clipPath>
<g id="source-1349" clip-path="url(#clip-3)">
<path fill-rule="nonzero" fill="rgb(0%, 0%, 0%)" fill-opacity="1" d="M 18.378906 22.414062 L 21.914062 18.878906 C 22.109375 18.683594 22.425781 18.683594 22.621094 18.878906 C 22.816406 19.074219 22.816406 19.390625 22.621094 19.585938 L 19.085938 23.121094 C 18.890625 23.316406 18.574219 23.316406 18.378906 23.121094 C 18.183594 22.925781 18.183594 22.609375 18.378906 22.414062 Z M 18.378906 22.414062 "/>
</g>
<mask id="mask-4">
<g filter="url(#filter-remove-color)">
<rect x="-3.2" y="-3.2" width="38.4" height="38.4" fill="rgb(0%, 0%, 0%)" fill-opacity="0.25"/>
</g>
</mask>
<clipPath id="clip-4">
<rect x="0" y="0" width="64" height="64"/>
</clipPath>
<g id="source-1353" clip-path="url(#clip-4)">
<path fill-rule="nonzero" fill="rgb(0%, 0%, 0%)" fill-opacity="1" d="M 21.609375 22.414062 L 25.144531 18.878906 C 25.339844 18.683594 25.65625 18.683594 25.851562 18.878906 C 26.046875 19.074219 26.046875 19.390625 25.851562 19.585938 L 22.316406 23.121094 C 22.121094 23.316406 21.804688 23.316406 21.609375 23.121094 C 21.414062 22.925781 21.414062 22.609375 21.609375 22.414062 Z M 21.609375 22.414062 "/>
</g>
<mask id="mask-5">
<g filter="url(#filter-remove-color)">
<rect x="-3.2" y="-3.2" width="38.4" height="38.4" fill="rgb(0%, 0%, 0%)" fill-opacity="0.6"/>
</g>
</mask>
<clipPath id="clip-5">
<rect x="0" y="0" width="64" height="64"/>
</clipPath>
<g id="source-1359" clip-path="url(#clip-5)">
<path fill-rule="nonzero" fill="rgb(61.960784%, 93.333333%, 35.294118%)" fill-opacity="1" d="M 46 33 C 46 33.550781 45.550781 34 45 34 C 44.449219 34 44 33.550781 44 33 C 44 32.449219 44.449219 32 45 32 C 45.550781 32 46 32.449219 46 33 Z M 46 33 "/>
</g>
<mask id="mask-6">
<g filter="url(#filter-remove-color)">
<rect x="-3.2" y="-3.2" width="38.4" height="38.4" fill="rgb(0%, 0%, 0%)" fill-opacity="0.3"/>
</g>
</mask>
<clipPath id="clip-6">
<rect x="0" y="0" width="64" height="64"/>
</clipPath>
<g id="source-1363" clip-path="url(#clip-6)">
<path fill-rule="nonzero" fill="rgb(61.960784%, 93.333333%, 35.294118%)" fill-opacity="1" d="M 42 33 C 42 33.550781 41.550781 34 41 34 C 40.449219 34 40 33.550781 40 33 C 40 32.449219 40.449219 32 41 32 C 41.550781 32 42 32.449219 42 33 Z M 42 33 "/>
</g>
<mask id="mask-7">
<g filter="url(#filter-remove-color)">
<rect x="-3.2" y="-3.2" width="38.4" height="38.4" fill="rgb(0%, 0%, 0%)" fill-opacity="0.25"/>
</g>
</mask>
<clipPath id="clip-7">
<rect x="0" y="0" width="64" height="64"/>
</clipPath>
<g id="source-1367" clip-path="url(#clip-7)">
<path fill-rule="nonzero" fill="rgb(0%, 0%, 0%)" fill-opacity="1" d="M 15.378906 34.414062 L 18.914062 30.878906 C 19.109375 30.683594 19.425781 30.683594 19.621094 30.878906 C 19.816406 31.074219 19.816406 31.390625 19.621094 31.585938 L 16.085938 35.121094 C 15.890625 35.316406 15.574219 35.316406 15.378906 35.121094 C 15.183594 34.925781 15.183594 34.609375 15.378906 34.414062 Z M 15.378906 34.414062 "/>
</g>
<mask id="mask-8">
<g filter="url(#filter-remove-color)">
<rect x="-3.2" y="-3.2" width="38.4" height="38.4" fill="rgb(0%, 0%, 0%)" fill-opacity="0.25"/>
</g>
</mask>
<clipPath id="clip-8">
<rect x="0" y="0" width="64" height="64"/>
</clipPath>
<g id="source-1371" clip-path="url(#clip-8)">
<path fill-rule="nonzero" fill="rgb(0%, 0%, 0%)" fill-opacity="1" d="M 18.378906 34.414062 L 21.914062 30.878906 C 22.109375 30.683594 22.425781 30.683594 22.621094 30.878906 C 22.816406 31.074219 22.816406 31.390625 22.621094 31.585938 L 19.085938 35.121094 C 18.890625 35.316406 18.574219 35.316406 18.378906 35.121094 C 18.183594 34.925781 18.183594 34.609375 18.378906 34.414062 Z M 18.378906 34.414062 "/>
</g>
<mask id="mask-9">
<g filter="url(#filter-remove-color)">
<rect x="-3.2" y="-3.2" width="38.4" height="38.4" fill="rgb(0%, 0%, 0%)" fill-opacity="0.25"/>
</g>
</mask>
<clipPath id="clip-9">
<rect x="0" y="0" width="64" height="64"/>
</clipPath>
<g id="source-1375" clip-path="url(#clip-9)">
<path fill-rule="nonzero" fill="rgb(0%, 0%, 0%)" fill-opacity="1" d="M 21.609375 34.414062 L 25.144531 30.878906 C 25.339844 30.683594 25.65625 30.683594 25.851562 30.878906 C 26.046875 31.074219 26.046875 31.390625 25.851562 31.585938 L 22.316406 35.121094 C 22.121094 35.316406 21.804688 35.316406 21.609375 35.121094 C 21.414062 34.925781 21.414062 34.609375 21.609375 34.414062 Z M 21.609375 34.414062 "/>
</g>
<mask id="mask-10">
<g filter="url(#filter-remove-color)">
<rect x="-3.2" y="-3.2" width="38.4" height="38.4" fill="rgb(0%, 0%, 0%)" fill-opacity="0.6"/>
</g>
</mask>
<clipPath id="clip-10">
<rect x="0" y="0" width="64" height="64"/>
</clipPath>
<g id="source-1381" clip-path="url(#clip-10)">
<path fill-rule="nonzero" fill="rgb(61.960784%, 93.333333%, 35.294118%)" fill-opacity="1" d="M 46 45 C 46 45.550781 45.550781 46 45 46 C 44.449219 46 44 45.550781 44 45 C 44 44.449219 44.449219 44 45 44 C 45.550781 44 46 44.449219 46 45 Z M 46 45 "/>
</g>
<mask id="mask-11">
<g filter="url(#filter-remove-color)">
<rect x="-3.2" y="-3.2" width="38.4" height="38.4" fill="rgb(0%, 0%, 0%)" fill-opacity="0.3"/>
</g>
</mask>
<clipPath id="clip-11">
<rect x="0" y="0" width="64" height="64"/>
</clipPath>
<g id="source-1385" clip-path="url(#clip-11)">
<path fill-rule="nonzero" fill="rgb(61.960784%, 93.333333%, 35.294118%)" fill-opacity="1" d="M 42 45 C 42 45.550781 41.550781 46 41 46 C 40.449219 46 40 45.550781 40 45 C 40 44.449219 40.449219 44 41 44 C 41.550781 44 42 44.449219 42 45 Z M 42 45 "/>
</g>
<mask id="mask-12">
<g filter="url(#filter-remove-color)">
<rect x="-3.2" y="-3.2" width="38.4" height="38.4" fill="rgb(0%, 0%, 0%)" fill-opacity="0.25"/>
</g>
</mask>
<clipPath id="clip-12">
<rect x="0" y="0" width="64" height="64"/>
</clipPath>
<g id="source-1389" clip-path="url(#clip-12)">
<path fill-rule="nonzero" fill="rgb(0%, 0%, 0%)" fill-opacity="1" d="M 15.378906 46.414062 L 18.914062 42.878906 C 19.109375 42.683594 19.425781 42.683594 19.621094 42.878906 C 19.816406 43.074219 19.816406 43.390625 19.621094 43.585938 L 16.085938 47.121094 C 15.890625 47.316406 15.574219 47.316406 15.378906 47.121094 C 15.183594 46.925781 15.183594 46.609375 15.378906 46.414062 Z M 15.378906 46.414062 "/>
</g>
<mask id="mask-13">
<g filter="url(#filter-remove-color)">
<rect x="-3.2" y="-3.2" width="38.4" height="38.4" fill="rgb(0%, 0%, 0%)" fill-opacity="0.25"/>
</g>
</mask>
<clipPath id="clip-13">
<rect x="0" y="0" width="64" height="64"/>
</clipPath>
<g id="source-1393" clip-path="url(#clip-13)">
<path fill-rule="nonzero" fill="rgb(0%, 0%, 0%)" fill-opacity="1" d="M 18.378906 46.414062 L 21.914062 42.878906 C 22.109375 42.683594 22.425781 42.683594 22.621094 42.878906 C 22.816406 43.074219 22.816406 43.390625 22.621094 43.585938 L 19.085938 47.121094 C 18.890625 47.316406 18.574219 47.316406 18.378906 47.121094 C 18.183594 46.925781 18.183594 46.609375 18.378906 46.414062 Z M 18.378906 46.414062 "/>
</g>
<mask id="mask-14">
<g filter="url(#filter-remove-color)">
<rect x="-3.2" y="-3.2" width="38.4" height="38.4" fill="rgb(0%, 0%, 0%)" fill-opacity="0.25"/>
</g>
</mask>
<clipPath id="clip-14">
<rect x="0" y="0" width="64" height="64"/>
</clipPath>
<g id="source-1397" clip-path="url(#clip-14)">
<path fill-rule="nonzero" fill="rgb(0%, 0%, 0%)" fill-opacity="1" d="M 21.609375 46.414062 L 25.144531 42.878906 C 25.339844 42.683594 25.65625 42.683594 25.851562 42.878906 C 26.046875 43.074219 26.046875 43.390625 25.851562 43.585938 L 22.316406 47.121094 C 22.121094 47.316406 21.804688 47.316406 21.609375 47.121094 C 21.414062 46.925781 21.414062 46.609375 21.609375 46.414062 Z M 21.609375 46.414062 "/>
</g>
</defs>
<path fill-rule="nonzero" fill="rgb(94.901961%, 94.901961%, 94.901961%)" fill-opacity="1" d="M 60 32 C 60 47.464844 47.464844 60 32 60 C 16.535156 60 4 47.464844 4 32 C 4 16.535156 16.535156 4 32 4 C 47.464844 4 60 16.535156 60 32 Z M 60 32 "/>
<path fill-rule="nonzero" fill="rgb(40%, 40%, 40%)" fill-opacity="1" d="M 52 24 L 52 18 C 52 16.894531 51.148438 16 50.09375 16 L 13.90625 16 C 12.851562 16 12 16.894531 12 18 L 12 24 C 12 25.105469 12.851562 26 13.90625 26 L 50.09375 26 C 51.148438 26 52 25.105469 52 24 Z M 52 24 "/>
<g mask="url(#mask-0)">
<use xlink:href="#source-1337"/>
</g>
<g mask="url(#mask-1)">
<use xlink:href="#source-1341"/>
</g>
<g mask="url(#mask-2)">
<use xlink:href="#source-1345"/>
</g>
<g mask="url(#mask-3)">
<use xlink:href="#source-1349"/>
</g>
<g mask="url(#mask-4)">
<use xlink:href="#source-1353"/>
</g>
<path fill-rule="nonzero" fill="rgb(40%, 40%, 40%)" fill-opacity="1" d="M 52 36 L 52 30 C 52 28.894531 51.148438 28 50.09375 28 L 13.90625 28 C 12.851562 28 12 28.894531 12 30 L 12 36 C 12 37.105469 12.851562 38 13.90625 38 L 50.09375 38 C 51.148438 38 52 37.105469 52 36 Z M 52 36 "/>
<g mask="url(#mask-5)">
<use xlink:href="#source-1359"/>
</g>
<g mask="url(#mask-6)">
<use xlink:href="#source-1363"/>
</g>
<g mask="url(#mask-7)">
<use xlink:href="#source-1367"/>
</g>
<g mask="url(#mask-8)">
<use xlink:href="#source-1371"/>
</g>
<g mask="url(#mask-9)">
<use xlink:href="#source-1375"/>
</g>
<g mask="url(#mask-10)">
<use xlink:href="#source-1381"/>
</g>
<g mask="url(#mask-11)">
<use xlink:href="#source-1385"/>
</g>
<g mask="url(#mask-12)">
<use xlink:href="#source-1389"/>
</g>
<g mask="url(#mask-13)">
<use xlink:href="#source-1393"/>
</g>
<g mask="url(#mask-14)">
<use xlink:href="#source-1397"/>
</g>
</svg>
