<?xml version="1.0" encoding="UTF-8"?>
<svg xmlns="http://www.w3.org/2000/svg" xmlns:xlink="http://www.w3.org/1999/xlink" width="24" height="24" viewBox="0 0 24 24">
<path fill-rule="nonzero" fill="rgb(100%, 100%, 100%)" fill-opacity="1" d="M 15.167969 6 C 14.609375 6.003906 14.035156 6.191406 13.597656 6.46875 C 13.722656 6.386719 13.207031 6.675781 12.003906 6.675781 C 10.796875 6.675781 10.277344 6.386719 10.402344 6.46875 C 9.996094 6.207031 9.363281 6.007812 8.839844 6.007812 C 8.316406 6.007812 7.84375 6.128906 7.390625 6.335938 L 7.382812 6.34375 L 7.371094 6.347656 C 5.527344 7.226562 4.882812 8.886719 4.410156 10.765625 L 4.410156 10.769531 C 4.207031 11.582031 4.082031 12.449219 4.03125 13.269531 C 3.976562 14.089844 3.929688 14.753906 4.164062 15.617188 L 4.164062 15.625 L 4.167969 15.628906 C 4.3125 16.152344 4.558594 16.761719 5.121094 17.265625 C 5.683594 17.773438 6.488281 18 7.097656 18 L 7.132812 18 C 9.113281 17.964844 10.210938 16.769531 11.066406 15.394531 C 10.796875 15.75 11.328125 15.328125 11.949219 15.347656 L 12.070312 15.347656 C 12.671875 15.324219 13.203125 15.746094 12.929688 15.390625 C 13.789062 16.765625 14.898438 17.964844 16.875 18 L 16.90625 18 C 17.519531 18 18.324219 17.769531 18.882812 17.265625 C 19.441406 16.757812 19.6875 16.15625 19.832031 15.628906 L 19.835938 15.625 L 19.839844 15.617188 C 20.070312 14.753906 20.023438 14.089844 19.972656 13.269531 C 19.917969 12.449219 19.792969 11.582031 19.59375 10.773438 L 19.59375 10.769531 C 19.117188 8.890625 18.472656 7.230469 16.632812 6.351562 C 16.222656 6.15625 15.730469 6 15.179688 6.003906 C 15.175781 6.003906 15.171875 6 15.171875 6 Z M 15.179688 8 C 15.359375 8 15.554688 8.046875 15.769531 8.152344 C 16.539062 8.519531 17.261719 9.707031 17.652344 11.253906 C 17.980469 12.578125 18.101562 14.375 17.90625 15.097656 C 17.734375 15.726562 17.433594 16 16.910156 16 C 16.121094 15.988281 15.140625 15.207031 14.511719 14.160156 C 14.058594 13.578125 13.011719 13.3125 12.007812 13.347656 C 10.992188 13.320312 9.941406 13.578125 9.492188 14.160156 C 8.859375 15.207031 7.878906 15.988281 7.097656 16 C 6.566406 16 6.265625 15.726562 6.09375 15.097656 C 5.898438 14.375 6.019531 12.578125 6.347656 11.253906 C 6.738281 9.707031 7.460938 8.519531 8.234375 8.152344 C 8.449219 8.050781 8.660156 8.007812 8.839844 8.007812 C 9.019531 8.007812 9.167969 8.050781 9.328125 8.152344 C 9.722656 8.40625 10.550781 8.671875 12.007812 8.671875 C 13.453125 8.671875 14.277344 8.40625 14.675781 8.152344 C 14.832031 8.050781 15 8 15.179688 8 Z M 15.179688 8 "/>
<path fill-rule="nonzero" fill="rgb(100%, 100%, 100%)" fill-opacity="1" d="M 8 9 L 9 9 L 9 10 L 10 10 L 10 11 L 9 11 L 9 12 L 8 12 L 8 11 L 7 11 L 7 10 L 8 10 Z M 15.5 9 C 15.777344 9 16 9.222656 16 9.5 C 16 9.777344 15.777344 10 15.5 10 C 15.222656 10 15 9.777344 15 9.5 C 15 9.222656 15.222656 9 15.5 9 Z M 14.5 10 C 14.777344 10 15 10.222656 15 10.5 C 15 10.777344 14.777344 11 14.5 11 C 14.222656 11 14 10.777344 14 10.5 C 14 10.222656 14.222656 10 14.5 10 Z M 16.5 10 C 16.777344 10 17 10.222656 17 10.5 C 17 10.777344 16.777344 11 16.5 11 C 16.222656 11 16 10.777344 16 10.5 C 16 10.222656 16.222656 10 16.5 10 Z M 15.5 11 C 15.777344 11 16 11.222656 16 11.5 C 16 11.777344 15.777344 12 15.5 12 C 15.222656 12 15 11.777344 15 11.5 C 15 11.222656 15.222656 11 15.5 11 Z M 15.5 11 "/>
</svg>
