<?xml version="1.0" encoding="UTF-8"?>
<svg xmlns="http://www.w3.org/2000/svg" xmlns:xlink="http://www.w3.org/1999/xlink" width="24" height="24" viewBox="0 0 24 24">
<path fill-rule="nonzero" fill="rgb(100%, 100%, 100%)" fill-opacity="1" d="M 7 5 C 5.890625 5 5 5.890625 5 7 L 5 17 C 5 18.109375 5.890625 19 7 19 L 17 19 C 18.109375 19 19 18.109375 19 17 L 19 7 C 19 5.890625 18.109375 5 17 5 Z M 7 7 L 17 7 L 17 17 L 7 17 Z M 10 10.5 L 8 15 C 8 15.554688 8.359375 16 8.800781 16 L 15.199219 16 C 15.640625 16 16 15.554688 16 15 L 14.398438 11.558594 L 12.800781 14 Z M 10 10.5 "/>
</svg>
