<?xml version="1.0" encoding="UTF-8"?>
<svg xmlns="http://www.w3.org/2000/svg" xmlns:xlink="http://www.w3.org/1999/xlink" width="24" height="24" viewBox="0 0 24 24">
<path fill-rule="nonzero" fill="rgb(100%, 100%, 100%)" fill-opacity="1" d="M 11 5 C 9.890625 5 9 5.890625 9 7 L 9 13.179688 C 8.679688 13.066406 8.34375 13 8 13 C 6.34375 13 5 14.34375 5 16 C 5 17.65625 6.34375 19 8 19 C 9.65625 19 11 17.65625 11 16 L 11 7 L 17 7 L 17 13.179688 C 16.679688 13.066406 16.34375 13 16 13 C 14.34375 13 13 14.34375 13 16 C 13 17.65625 14.34375 19 16 19 C 17.65625 19 19 17.65625 19 16 L 19 7 C 19 5.890625 18.109375 5 17 5 Z M 8 15 C 8.550781 15 9 15.449219 9 16 C 9 16.550781 8.550781 17 8 17 C 7.449219 17 7 16.550781 7 16 C 7 15.449219 7.449219 15 8 15 Z M 16 15 C 16.550781 15 17 15.449219 17 16 C 17 16.550781 16.550781 17 16 17 C 15.449219 17 15 16.550781 15 16 C 15 15.449219 15.449219 15 16 15 Z M 16 15 "/>
</svg>
