<?xml version="1.0" encoding="UTF-8"?>
<svg xmlns="http://www.w3.org/2000/svg" xmlns:xlink="http://www.w3.org/1999/xlink" width="24" height="24" viewBox="0 0 24 24">
<path fill-rule="nonzero" fill="rgb(100%, 100%, 100%)" fill-opacity="1" d="M 7 5 C 5.890625 5 5 5.890625 5 7 L 5 17 C 5 18.109375 5.890625 19 7 19 L 17 19 C 18.109375 19 19 18.109375 19 17 L 19 7 C 19 5.890625 18.109375 5 17 5 L 15 5 L 16 9 L 15 9 L 14 5 L 12 5 L 13 9 L 12 9 L 11 5 L 9 5 L 10 9 L 9 9 L 8 5 Z M 7 10 L 17 10 L 17 17 L 7 17 Z M 7 10 "/>
</svg>
