<?xml version="1.0" encoding="UTF-8"?>
<svg xmlns="http://www.w3.org/2000/svg" xmlns:xlink="http://www.w3.org/1999/xlink" width="24" height="24" viewBox="0 0 24 24">
<path fill-rule="nonzero" fill="rgb(100%, 100%, 100%)" fill-opacity="1" d="M 7 5 C 6.445312 5 6 5.445312 6 6 L 6 15 L 7 15 L 7 14 L 8 14 L 8 7 L 13 7 L 13 10 L 16 10 L 16 19 L 17 19 L 17 18 L 18 18 L 18 9 L 14 5 Z M 17 19 L 17 20 L 18 20 L 18 19 Z M 16 19 L 15 19 L 15 20 L 16 20 Z M 15 19 L 15 18 L 14 18 L 14 19 Z M 14 19 L 13 19 L 13 20 L 14 20 Z M 13 19 L 13 18 L 12 18 L 12 19 Z M 12 19 L 11 19 L 11 20 L 12 20 Z M 11 19 L 11 18 L 10 18 L 10 19 Z M 10 19 L 9 19 L 9 20 L 10 20 Z M 9 19 L 9 18 L 8 18 L 8 19 Z M 8 19 L 7 19 L 7 20 L 8 20 Z M 7 19 L 7 18 L 6 18 L 6 19 Z M 7 18 L 8 18 L 8 17 L 7 17 Z M 7 17 L 7 16 L 6 16 L 6 17 Z M 7 16 L 8 16 L 8 15 L 7 15 Z M 7 16 "/>
</svg>
