<?xml version="1.0" encoding="UTF-8"?>
<svg xmlns="http://www.w3.org/2000/svg" xmlns:xlink="http://www.w3.org/1999/xlink" width="24" height="24" viewBox="0 0 24 24">
<defs>
<filter id="filter-remove-color" x="0%" y="0%" width="100%" height="100%">
<feColorMatrix color-interpolation-filters="sRGB" values="0 0 0 0 1 0 0 0 0 1 0 0 0 0 1 0 0 0 1 0" />
</filter>
<mask id="mask-0">
<g filter="url(#filter-remove-color)">
<rect x="-2.4" y="-2.4" width="28.8" height="28.8" fill="rgb(0%, 0%, 0%)" fill-opacity="0.5"/>
</g>
</mask>
<clipPath id="clip-0">
<rect x="0" y="0" width="24" height="24"/>
</clipPath>
<g id="source-1315" clip-path="url(#clip-0)">
<path fill-rule="nonzero" fill="rgb(100%, 100%, 100%)" fill-opacity="1" d="M 6 5 C 5.445312 5 5 5.445312 5 6 L 5 9 L 11 9 L 12 7 L 19 7 L 19 6 C 19 5.445312 18.554688 5 18 5 Z M 6 5 "/>
</g>
</defs>
<g mask="url(#mask-0)">
<use xlink:href="#source-1315"/>
</g>
<path fill-rule="nonzero" fill="rgb(100%, 100%, 100%)" fill-opacity="1" d="M 12.917969 7 L 11.859375 7.28125 L 11 9 L 5.453125 9 L 4.28125 9.3125 C 4.109375 9.492188 4 9.730469 4 10 L 4 11.460938 L 19.628906 7.273438 C 19.625 7.265625 19.617188 7.265625 19.613281 7.261719 C 19.527344 7.1875 19.4375 7.125 19.339844 7.082031 C 19.230469 7.03125 19.113281 7 19 7 Z M 20 8.226562 L 4 12.519531 L 4 14.589844 L 20 10.296875 Z M 20 11.351562 L 4 15.644531 L 4 17.714844 L 20 13.425781 Z M 20 14.480469 L 4.28125 18.695312 C 4.464844 18.882812 4.714844 19 5 19 L 10.863281 19 L 20 16.550781 Z M 20 17.609375 L 14.804688 19 L 19 19 C 19.554688 19 20 18.554688 20 18 Z M 20 17.609375 "/>
</svg>
