<?xml version="1.0" encoding="UTF-8"?>
<svg xmlns="http://www.w3.org/2000/svg" xmlns:xlink="http://www.w3.org/1999/xlink" width="24" height="24" viewBox="0 0 24 24">
<path fill-rule="nonzero" fill="rgb(100%, 100%, 100%)" fill-opacity="1" d="M 11.5 5.414062 C 11.246094 5.414062 10.988281 5.511719 10.792969 5.707031 L 5.136719 11.363281 C 4.746094 11.753906 4.746094 12.386719 5.136719 12.777344 C 5.375 13.015625 5.695312 13.089844 6 13.042969 L 6 18 L 8 18 L 8 11.328125 L 11.5 7.828125 L 15 11.328125 L 15 18 L 17 18 L 17 13.042969 C 17.304688 13.089844 17.625 13.015625 17.863281 12.777344 C 18.253906 12.386719 18.253906 11.753906 17.863281 11.363281 L 12.207031 5.707031 C 12.011719 5.511719 11.753906 5.414062 11.5 5.414062 Z M 11.5 13 C 10.667969 13 10 13.667969 10 14.5 L 10 18 L 13 18 L 13 14.5 C 13 13.667969 12.332031 13 11.5 13 Z M 11.5 13 "/>
</svg>
