<?xml version="1.0" encoding="UTF-8"?>
<svg xmlns="http://www.w3.org/2000/svg" xmlns:xlink="http://www.w3.org/1999/xlink" width="24" height="24" viewBox="0 0 24 24">
<path fill-rule="nonzero" fill="rgb(100%, 100%, 100%)" fill-opacity="1" d="M 12 5 C 8.132812 5 5 8.132812 5 12 C 5 15.867188 8.132812 19 12 19 C 15.867188 19 19 15.867188 19 12 C 19 8.132812 15.867188 5 12 5 Z M 12 7 C 14.761719 7 17 9.238281 17 12 C 17 14.761719 14.761719 17 12 17 C 9.238281 17 7 14.761719 7 12 C 7 9.238281 9.238281 7 12 7 Z M 11.625 8.003906 C 11.492188 8.015625 11.359375 8.023438 11.230469 8.050781 C 10.972656 8.101562 10.730469 8.171875 10.492188 8.273438 C 9.363281 8.75 8.511719 9.742188 8.207031 10.953125 C 8.214844 10.960938 8.222656 10.964844 8.230469 10.976562 C 8.445312 11.199219 9 11.515625 9.410156 11.664062 C 9.636719 11.746094 10.070312 11.871094 10.367188 11.933594 C 10.667969 11.996094 10.867188 12.054688 10.835938 12.058594 C 10.804688 12.058594 10.671875 12.160156 10.539062 12.277344 C 10.289062 12.503906 10.160156 12.707031 10.050781 13.066406 C 9.992188 13.261719 9.996094 13.328125 10.074219 13.433594 C 10.121094 13.496094 10.332031 13.648438 10.539062 13.777344 C 10.75 13.90625 10.996094 14.085938 11.082031 14.171875 C 11.40625 14.484375 11.621094 15.046875 11.621094 15.597656 C 11.621094 15.734375 11.636719 15.808594 11.644531 15.84375 C 11.671875 15.84375 11.695312 15.839844 11.71875 15.84375 C 11.78125 15.820312 11.871094 15.789062 12.015625 15.71875 C 13.21875 15.117188 13.765625 14.339844 13.710938 13.3125 C 13.667969 12.488281 13.28125 12.191406 11.722656 11.859375 C 10.570312 11.617188 9.953125 11.199219 9.953125 10.679688 C 9.953125 10.542969 10 10.460938 10.148438 10.3125 C 10.308594 10.152344 10.34375 10.140625 10.46875 10.164062 C 10.546875 10.179688 10.753906 10.285156 10.910156 10.410156 C 11.265625 10.691406 11.4375 10.804688 11.625 10.804688 C 11.703125 10.804688 11.769531 10.792969 11.769531 10.78125 C 11.769531 10.769531 11.710938 10.675781 11.648438 10.582031 C 11.292969 10.058594 11.316406 9.082031 11.699219 8.25 C 11.757812 8.117188 11.800781 8.027344 11.796875 8.003906 C 11.742188 8.003906 11.675781 7.996094 11.625 8.003906 Z M 15.308594 9.847656 C 15.238281 9.800781 14.65625 10.410156 14.523438 10.679688 C 14.257812 11.210938 14.359375 11.5625 14.988281 12.230469 C 15.210938 12.460938 15.472656 12.773438 15.554688 12.917969 C 15.636719 13.0625 15.707031 13.183594 15.726562 13.164062 C 15.746094 13.140625 15.804688 12.976562 15.847656 12.796875 C 15.96875 12.324219 15.976562 11.5 15.847656 11.027344 C 15.75 10.65625 15.402344 9.902344 15.308594 9.847656 Z M 15.308594 9.847656 "/>
</svg>
