<?xml version="1.0" encoding="UTF-8"?>
<svg xmlns="http://www.w3.org/2000/svg" xmlns:xlink="http://www.w3.org/1999/xlink" width="24" height="24" viewBox="0 0 24 24">
<path fill-rule="nonzero" fill="rgb(100%, 100%, 100%)" fill-opacity="1" d="M 10 4.996094 C 9 4.996094 9 5.996094 9 5.996094 L 6 5.996094 C 6 5.996094 5 6 5 7 L 5 8.003906 L 18 8 L 18 7 C 18 6 17 5.996094 17 5.996094 L 14 5.996094 C 14 5.996094 14 4.996094 13 4.996094 Z M 6 9.003906 L 6 18.003906 C 6 18.527344 6.476562 19.003906 7 19.003906 L 16 19.003906 C 16.523438 19.003906 17 18.527344 17 18.003906 L 17 9.003906 L 15 9.003906 L 15 17.003906 L 8 17.003906 L 8 9.003906 Z M 6 9.003906 "/>
</svg>
