<?xml version="1.0" encoding="UTF-8"?>
<svg xmlns="http://www.w3.org/2000/svg" xmlns:xlink="http://www.w3.org/1999/xlink" width="20" height="20" viewBox="0 0 20 20">
<path fill-rule="evenodd" fill="rgb(83.529412%, 15.294118%, 20.784314%)" fill-opacity="1" d="M 2.652344 4.5 C 3.675781 4.5 4.503906 3.671875 4.503906 2.648438 C 4.503906 1.625 3.675781 0.796875 2.652344 0.796875 C 1.628906 0.796875 0.800781 1.625 0.800781 2.648438 C 0.800781 3.671875 1.628906 4.5 2.652344 4.5 "/>
<path fill-rule="evenodd" fill="rgb(83.529412%, 15.294118%, 20.784314%)" fill-opacity="1" d="M 2.652344 4.34375 C 3.585938 4.34375 4.34375 3.585938 4.34375 2.648438 C 4.34375 1.710938 3.585938 0.953125 2.652344 0.953125 C 1.714844 0.953125 0.957031 1.710938 0.957031 2.648438 C 0.957031 3.585938 1.714844 4.34375 2.652344 4.34375 "/>
<path fill-rule="evenodd" fill="rgb(62.352941%, 11.372549%, 16.862745%)" fill-opacity="1" d="M 1.777344 3.304688 L 3.308594 1.773438 C 3.367188 1.714844 3.460938 1.714844 3.523438 1.773438 L 3.523438 1.777344 C 3.582031 1.835938 3.582031 1.933594 3.523438 1.992188 L 1.996094 3.523438 C 1.9375 3.582031 1.839844 3.582031 1.78125 3.523438 L 1.777344 3.519531 C 1.71875 3.460938 1.71875 3.363281 1.777344 3.304688 "/>
<path fill-rule="evenodd" fill="rgb(62.352941%, 11.372549%, 16.862745%)" fill-opacity="1" d="M 1.996094 1.773438 L 3.523438 3.304688 C 3.582031 3.363281 3.582031 3.460938 3.523438 3.519531 L 3.523438 3.523438 C 3.460938 3.582031 3.367188 3.582031 3.308594 3.523438 L 1.777344 1.992188 C 1.71875 1.933594 1.71875 1.835938 1.777344 1.777344 L 1.78125 1.773438 C 1.839844 1.714844 1.9375 1.714844 1.996094 1.773438 "/>
</svg>
