<?xml version="1.0" encoding="UTF-8"?>
<svg xmlns="http://www.w3.org/2000/svg" xmlns:xlink="http://www.w3.org/1999/xlink" width="20" height="20" viewBox="0 0 20 20">
<path fill-rule="evenodd" fill="rgb(7.45098%, 75.686275%, 11.764706%)" fill-opacity="1" d="M 2.652344 4.542969 C 3.675781 4.542969 4.503906 3.714844 4.503906 2.691406 C 4.503906 1.667969 3.675781 0.839844 2.652344 0.839844 C 1.628906 0.839844 0.800781 1.667969 0.800781 2.691406 C 0.800781 3.714844 1.628906 4.542969 2.652344 4.542969 "/>
<path fill-rule="evenodd" fill="rgb(22.352941%, 91.764706%, 28.627451%)" fill-opacity="1" d="M 2.652344 4.386719 C 3.585938 4.386719 4.347656 3.628906 4.347656 2.691406 C 4.347656 1.757812 3.585938 0.996094 2.652344 0.996094 C 1.714844 0.996094 0.957031 1.757812 0.957031 2.691406 C 0.957031 3.628906 1.714844 4.386719 2.652344 4.386719 "/>
<path fill-rule="evenodd" fill="rgb(4.313725%, 45.490196%, 2.745098%)" fill-opacity="1" d="M 2.148438 1.746094 L 3.308594 1.746094 C 3.460938 1.746094 3.589844 1.875 3.589844 2.027344 L 3.589844 3.183594 Z M 3.15625 3.636719 L 1.996094 3.636719 C 1.839844 3.636719 1.714844 3.511719 1.714844 3.355469 L 1.714844 2.195312 L 3.15625 3.636719 "/>
</svg>
