<?xml version="1.0" encoding="UTF-8"?>
<svg xmlns="http://www.w3.org/2000/svg" xmlns:xlink="http://www.w3.org/1999/xlink" width="20" height="20" viewBox="0 0 20 20">
<path fill-rule="evenodd" fill="rgb(7.45098%, 75.686275%, 11.764706%)" fill-opacity="1" d="M 2.621094 4.457031 C 3.644531 4.457031 4.472656 3.628906 4.472656 2.605469 C 4.472656 1.582031 3.644531 0.753906 2.621094 0.753906 C 1.597656 0.753906 0.769531 1.582031 0.769531 2.605469 C 0.769531 3.628906 1.597656 4.457031 2.621094 4.457031 "/>
<path fill-rule="evenodd" fill="rgb(7.45098%, 75.686275%, 11.764706%)" fill-opacity="1" d="M 2.621094 4.300781 C 3.558594 4.300781 4.316406 3.542969 4.316406 2.605469 C 4.316406 1.667969 3.558594 0.910156 2.621094 0.910156 C 1.6875 0.910156 0.925781 1.667969 0.925781 2.605469 C 0.925781 3.542969 1.6875 4.300781 2.621094 4.300781 "/>
<path fill-rule="evenodd" fill="rgb(4.313725%, 45.490196%, 2.745098%)" fill-opacity="1" d="M 2.121094 1.660156 L 3.277344 1.660156 C 3.433594 1.660156 3.558594 1.785156 3.558594 1.941406 L 3.558594 3.097656 Z M 3.128906 3.550781 L 1.964844 3.550781 C 1.8125 3.550781 1.683594 3.425781 1.683594 3.269531 L 1.683594 2.109375 L 3.128906 3.550781 "/>
</svg>
