<?xml version="1.0" encoding="UTF-8"?>
<svg xmlns="http://www.w3.org/2000/svg" xmlns:xlink="http://www.w3.org/1999/xlink" width="20" height="20" viewBox="0 0 20 20">
<path fill-rule="evenodd" fill="rgb(98.039216%, 77.254902%, 21.176471%)" fill-opacity="1" d="M 2.636719 4.503906 C 3.660156 4.503906 4.488281 3.675781 4.488281 2.652344 C 4.488281 1.628906 3.660156 0.800781 2.636719 0.800781 C 1.613281 0.800781 0.785156 1.628906 0.785156 2.652344 C 0.785156 3.675781 1.613281 4.503906 2.636719 4.503906 "/>
<path fill-rule="evenodd" fill="rgb(98.039216%, 77.254902%, 21.176471%)" fill-opacity="1" d="M 2.636719 4.347656 C 3.574219 4.347656 4.332031 3.585938 4.332031 2.652344 C 4.332031 1.714844 3.574219 0.957031 2.636719 0.957031 C 1.699219 0.957031 0.941406 1.714844 0.941406 2.652344 C 0.941406 3.585938 1.699219 4.347656 2.636719 4.347656 "/>
<path fill-rule="evenodd" fill="rgb(59.215686%, 34.901961%, 7.843137%)" fill-opacity="1" d="M 1.554688 2.496094 L 3.71875 2.496094 C 3.800781 2.496094 3.871094 2.566406 3.871094 2.648438 L 3.871094 2.652344 C 3.871094 2.738281 3.800781 2.804688 3.71875 2.804688 L 1.554688 2.804688 C 1.472656 2.804688 1.402344 2.738281 1.402344 2.652344 L 1.402344 2.648438 C 1.402344 2.566406 1.472656 2.496094 1.554688 2.496094 "/>
</svg>
