<?xml version="1.0" encoding="UTF-8"?>
<svg xmlns="http://www.w3.org/2000/svg" xmlns:xlink="http://www.w3.org/1999/xlink" width="20" height="20" viewBox="0 0 20 20">
<path fill-rule="evenodd" fill="rgb(85.490196%, 61.960784%, 6.27451%)" fill-opacity="1" d="M 2.621094 4.539062 C 3.644531 4.539062 4.472656 3.710938 4.472656 2.6875 C 4.472656 1.664062 3.644531 0.835938 2.621094 0.835938 C 1.597656 0.835938 0.769531 1.664062 0.769531 2.6875 C 0.769531 3.710938 1.597656 4.539062 2.621094 4.539062 "/>
<path fill-rule="evenodd" fill="rgb(98.039216%, 77.254902%, 21.176471%)" fill-opacity="1" d="M 2.621094 4.382812 C 3.558594 4.382812 4.316406 3.621094 4.316406 2.6875 C 4.316406 1.75 3.558594 0.992188 2.621094 0.992188 C 1.6875 0.992188 0.925781 1.75 0.925781 2.6875 C 0.925781 3.621094 1.6875 4.382812 2.621094 4.382812 "/>
<path fill-rule="evenodd" fill="rgb(59.215686%, 34.901961%, 7.843137%)" fill-opacity="1" d="M 1.539062 2.53125 L 3.703125 2.53125 C 3.785156 2.53125 3.855469 2.601562 3.855469 2.683594 L 3.855469 2.6875 C 3.855469 2.773438 3.785156 2.839844 3.703125 2.839844 L 1.539062 2.839844 C 1.457031 2.839844 1.386719 2.773438 1.386719 2.6875 L 1.386719 2.683594 C 1.386719 2.601562 1.457031 2.53125 1.539062 2.53125 "/>
</svg>
