<?xml version="1.0" encoding="UTF-8"?>
<svg xmlns="http://www.w3.org/2000/svg" xmlns:xlink="http://www.w3.org/1999/xlink" width="20" height="20" viewBox="0 0 20 20">
<path fill-rule="evenodd" fill="rgb(83.529412%, 15.294118%, 20.784314%)" fill-opacity="1" d="M 2.652344 4.515625 C 3.675781 4.515625 4.503906 3.6875 4.503906 2.664062 C 4.503906 1.640625 3.675781 0.8125 2.652344 0.8125 C 1.628906 0.8125 0.800781 1.640625 0.800781 2.664062 C 0.800781 3.6875 1.628906 4.515625 2.652344 4.515625 "/>
<path fill-rule="evenodd" fill="rgb(94.901961%, 31.372549%, 33.72549%)" fill-opacity="1" d="M 2.652344 4.355469 C 3.585938 4.355469 4.347656 3.597656 4.347656 2.664062 C 4.347656 1.726562 3.585938 0.96875 2.652344 0.96875 C 1.714844 0.96875 0.957031 1.726562 0.957031 2.664062 C 0.957031 3.597656 1.714844 4.355469 2.652344 4.355469 "/>
<path fill-rule="evenodd" fill="rgb(62.352941%, 11.372549%, 16.862745%)" fill-opacity="1" d="M 1.777344 3.320312 L 3.308594 1.789062 C 3.367188 1.730469 3.460938 1.730469 3.523438 1.789062 L 3.523438 1.792969 C 3.582031 1.851562 3.582031 1.949219 3.523438 2.007812 L 1.996094 3.535156 C 1.9375 3.59375 1.839844 3.59375 1.78125 3.535156 L 1.777344 3.535156 C 1.71875 3.472656 1.71875 3.378906 1.777344 3.320312 "/>
<path fill-rule="evenodd" fill="rgb(62.352941%, 11.372549%, 16.862745%)" fill-opacity="1" d="M 1.996094 1.789062 L 3.523438 3.320312 C 3.582031 3.378906 3.582031 3.476562 3.523438 3.535156 C 3.460938 3.597656 3.367188 3.597656 3.308594 3.535156 L 1.777344 2.007812 C 1.71875 1.949219 1.71875 1.851562 1.777344 1.792969 L 1.78125 1.789062 C 1.839844 1.730469 1.9375 1.730469 1.996094 1.789062 "/>
</svg>
