<?xml version="1.0" encoding="UTF-8"?>
<svg xmlns="http://www.w3.org/2000/svg" xmlns:xlink="http://www.w3.org/1999/xlink" width="22" height="22" viewBox="0 0 22 22">
<path fill-rule="nonzero" fill="rgb(100%, 100%, 100%)" fill-opacity="1" d="M 11 4 C 7.136719 4 4 7.136719 4 11 C 4 14.863281 7.136719 18 11 18 C 14.863281 18 18 14.863281 18 11 C 18 7.136719 14.863281 4 11 4 Z M 11 6 C 12.019531 6 12.960938 6.289062 13.75 6.8125 L 6.8125 13.75 C 6.289062 12.957031 6 12.019531 6 11 C 6 8.242188 8.242188 6 11 6 Z M 15.1875 8.25 C 15.710938 9.042969 16 9.980469 16 11 C 16 13.757812 13.757812 16 11 16 C 9.980469 16 9.039062 15.710938 8.25 15.1875 Z M 15.1875 8.25 "/>
</svg>
