<?xml version="1.0" encoding="UTF-8"?>
<svg xmlns="http://www.w3.org/2000/svg" xmlns:xlink="http://www.w3.org/1999/xlink" width="22" height="22" viewBox="0 0 22 22">
<path fill-rule="nonzero" fill="rgb(100%, 100%, 100%)" fill-opacity="1" d="M 4 4 L 4 6.179688 C 10.527344 6.179688 15.816406 11.46875 15.816406 18 L 18 18 C 18 10.265625 11.730469 4 4 4 Z M 4 8.359375 L 4 10.542969 C 8.117188 10.542969 11.453125 13.878906 11.453125 18 L 13.636719 18 C 13.636719 12.675781 9.320312 8.359375 4 8.359375 Z M 6.089844 13.820312 C 4.933594 13.820312 4 14.757812 4 15.910156 C 4 17.066406 4.933594 18.003906 6.089844 18.003906 C 7.246094 18.003906 8.179688 17.066406 8.179688 15.910156 C 8.179688 14.757812 7.246094 13.820312 6.089844 13.820312 Z M 6.089844 13.820312 "/>
</svg>
