<?xml version="1.0" encoding="UTF-8"?>
<svg xmlns="http://www.w3.org/2000/svg" xmlns:xlink="http://www.w3.org/1999/xlink" width="22" height="22" viewBox="0 0 22 22">
<path fill-rule="nonzero" fill="rgb(85.490196%, 26.666667%, 32.54902%)" fill-opacity="1" d="M 5 3 C 3.890625 3 3 3.890625 3 5 L 3 17 C 3 18.109375 3.890625 19 5 19 L 17 19 C 18.109375 19 19 18.109375 19 17 L 19 5 C 19 3.890625 18.109375 3 17 3 Z M 5 6 L 17 6 C 17.554688 6 18 6.445312 18 7 L 18 17 C 18 17.554688 17.554688 18 17 18 L 5 18 C 4.445312 18 4 17.554688 4 17 L 4 7 C 4 6.445312 4.445312 6 5 6 Z M 5 6 "/>
<path fill-rule="nonzero" fill="rgb(85.490196%, 26.666667%, 32.54902%)" fill-opacity="1" d="M 8 11 L 14 11 C 14.554688 11 15 11.445312 15 12 C 15 12.554688 14.554688 13 14 13 L 8 13 C 7.445312 13 7 12.554688 7 12 C 7 11.445312 7.445312 11 8 11 Z M 8 11 "/>
</svg>
