<?xml version="1.0" encoding="UTF-8"?>
<svg xmlns="http://www.w3.org/2000/svg" xmlns:xlink="http://www.w3.org/1999/xlink" width="22" height="22" viewBox="0 0 22 22">
<defs>
<filter id="filter-remove-color" x="0%" y="0%" width="100%" height="100%">
<feColorMatrix color-interpolation-filters="sRGB" values="0 0 0 0 1 0 0 0 0 1 0 0 0 0 1 0 0 0 1 0" />
</filter>
<mask id="mask-0">
<g filter="url(#filter-remove-color)">
<rect x="-2.2" y="-2.2" width="26.4" height="26.4" fill="rgb(0%, 0%, 0%)" fill-opacity="0.3"/>
</g>
</mask>
<clipPath id="clip-0">
<rect x="0" y="0" width="22" height="22"/>
</clipPath>
<g id="source-2047" clip-path="url(#clip-0)">
<path fill-rule="nonzero" fill="rgb(100%, 100%, 100%)" fill-opacity="1" d="M 5 4 C 4 4 4 5 4 5 L 4 17 C 4 18 5 18 5 18 L 12 18 L 12 16 L 6 16 L 6 9 L 16 9 L 16 12 L 18 12 L 18 5 C 18 4 17 4 17 4 Z M 5 4 "/>
</g>
</defs>
<path fill-rule="nonzero" fill="rgb(100%, 100%, 100%)" fill-opacity="1" d="M 13 13 L 13 14.414062 L 14.585938 16 L 13 17.585938 L 13 19 L 14.414062 19 L 16 17.414062 L 17.585938 19 L 19 19 L 19 17.585938 L 17.414062 16 L 19 14.414062 L 19 13 L 17.585938 13 L 16 14.585938 L 14.414062 13 Z M 13 13 "/>
<g mask="url(#mask-0)">
<use xlink:href="#source-2047"/>
</g>
</svg>
