<?xml version="1.0" encoding="UTF-8"?>
<svg xmlns="http://www.w3.org/2000/svg" xmlns:xlink="http://www.w3.org/1999/xlink" width="22" height="22" viewBox="0 0 22 22">
<path fill-rule="nonzero" fill="rgb(100%, 100%, 100%)" fill-opacity="1" d="M 5 4 C 4 4 4 5 4 5 L 4 17 C 4 18 5 18 5 18 L 11.761719 18 C 11.363281 17.402344 11.113281 16.714844 11.03125 16 L 6 16 L 6 9 L 16 9 L 16 11.03125 C 16.714844 11.109375 17.402344 11.359375 18 11.761719 L 18 5 C 18 4 17 4 17 4 Z M 15.5 12 C 13.566406 12 12 13.566406 12 15.5 C 12 17.433594 13.566406 19 15.5 19 C 17.433594 19 19 17.433594 19 15.5 C 19 13.566406 17.433594 12 15.5 12 Z M 15 13 L 16 13 L 16 15 L 18 15 L 18 16 L 15 16 Z M 15 13 "/>
</svg>
