<?xml version="1.0" encoding="UTF-8"?>
<svg xmlns="http://www.w3.org/2000/svg" xmlns:xlink="http://www.w3.org/1999/xlink" width="22" height="22" viewBox="0 0 22 22">
<defs>
<filter id="filter-remove-color" x="0%" y="0%" width="100%" height="100%">
<feColorMatrix color-interpolation-filters="sRGB" values="0 0 0 0 1 0 0 0 0 1 0 0 0 0 1 0 0 0 1 0" />
</filter>
<mask id="mask-0">
<g filter="url(#filter-remove-color)">
<rect x="-2.2" y="-2.2" width="26.4" height="26.4" fill="rgb(0%, 0%, 0%)" fill-opacity="0.3"/>
</g>
</mask>
<clipPath id="clip-0">
<rect x="0" y="0" width="22" height="22"/>
</clipPath>
<g id="source-15693" clip-path="url(#clip-0)">
<path fill-rule="nonzero" fill="rgb(100%, 100%, 100%)" fill-opacity="1" d="M 11 4 L 6.90625 8.089844 L 4.09375 8.09375 L 4.09375 13.90625 L 6.910156 13.90625 L 11 18 Z M 13 4 L 13 5.5 C 15.320312 6.238281 17 8.429688 17 11 C 17 13.570312 15.320312 15.761719 13 16.5 L 13 18 C 16.152344 17.21875 18.5 14.398438 18.5 11 C 18.5 7.601562 16.152344 4.78125 13 4 Z M 13 8 L 13 14 C 14.058594 13.421875 14.789062 12.300781 14.789062 11 C 14.789062 9.699219 14.070312 8.578125 13 8 Z M 13 8 "/>
</g>
</defs>
<g mask="url(#mask-0)">
<use xlink:href="#source-15693"/>
</g>
</svg>
