<?xml version="1.0" encoding="UTF-8"?>
<svg xmlns="http://www.w3.org/2000/svg" xmlns:xlink="http://www.w3.org/1999/xlink" width="22" height="22" viewBox="0 0 22 22">
<path fill-rule="nonzero" fill="rgb(100%, 100%, 100%)" fill-opacity="1" d="M 11 3 C 10.449219 3 10 3.449219 10 4 C 10 4.550781 10.449219 5 11 5 C 11.550781 5 12 4.550781 12 4 C 12 3.449219 11.550781 3 11 3 Z M 11 5 L 5.398438 5 C 4.625 5 4 5.894531 4 6.632812 L 4 13.300781 C 4 14.039062 4.625 15 5.398438 15 L 9.601562 15 L 9.601562 16 L 6.800781 16 L 6.800781 18 L 15.199219 18 L 15.199219 16 L 12.398438 16 L 12.398438 15 L 16.597656 15 C 17.375 15 18 14.039062 18 13.300781 L 18 6.632812 C 18 5.894531 17.375 5 16.597656 5 Z M 6.5 7 L 15.5 7 C 16.332031 7 17 7.445312 17 8 C 17 8.554688 16.332031 9 15.5 9 L 6.5 9 C 5.667969 9 5 8.554688 5 8 C 5 7.445312 5.667969 7 6.5 7 Z M 6.5 7 "/>
</svg>
