<?xml version="1.0" encoding="UTF-8"?>
<svg xmlns="http://www.w3.org/2000/svg" xmlns:xlink="http://www.w3.org/1999/xlink" width="22" height="22" viewBox="0 0 22 22">
<path fill-rule="nonzero" fill="rgb(100%, 100%, 100%)" fill-opacity="1" d="M 8 3 C 7.832031 3 7.667969 3.007812 7.5 3.023438 C 7.332031 3.042969 7.167969 3.066406 7.007812 3.101562 C 6.992188 3.101562 6.980469 3.105469 6.964844 3.109375 C 6.660156 3.175781 6.363281 3.265625 6.078125 3.386719 C 6.070312 3.390625 6.058594 3.390625 6.054688 3.394531 L 6.039062 3.402344 C 5.757812 3.523438 5.492188 3.667969 5.242188 3.835938 C 5.226562 3.84375 5.207031 3.851562 5.191406 3.863281 C 4.945312 4.035156 4.710938 4.226562 4.5 4.4375 C 4.484375 4.453125 4.46875 4.464844 4.453125 4.480469 C 4.25 4.6875 4.066406 4.90625 3.90625 5.144531 C 3.882812 5.179688 3.855469 5.207031 3.832031 5.242188 C 3.679688 5.476562 3.546875 5.722656 3.4375 5.976562 C 3.417969 6.019531 3.394531 6.0625 3.375 6.105469 C 3.269531 6.371094 3.183594 6.644531 3.125 6.921875 C 3.113281 6.976562 3.097656 7.027344 3.085938 7.078125 C 3.074219 7.15625 3.0625 7.230469 3.054688 7.308594 C 3.039062 7.394531 3.027344 7.480469 3.023438 7.566406 C 3.007812 7.710938 3 7.855469 3 8 C 3 8.265625 3.023438 8.527344 3.070312 8.789062 C 3.074219 8.832031 3.078125 8.875 3.085938 8.917969 C 3.136719 9.167969 3.199219 9.410156 3.285156 9.648438 C 3.296875 9.683594 3.308594 9.714844 3.320312 9.75 C 3.410156 9.992188 3.519531 10.226562 3.648438 10.453125 C 3.65625 10.46875 3.664062 10.484375 3.671875 10.5 C 3.804688 10.726562 3.957031 10.945312 4.121094 11.148438 C 4.125 11.152344 4.128906 11.160156 4.132812 11.164062 C 4.300781 11.367188 4.484375 11.554688 4.679688 11.730469 C 4.703125 11.75 4.726562 11.769531 4.75 11.789062 C 4.945312 11.960938 5.160156 12.117188 5.382812 12.257812 C 5.394531 12.261719 5.40625 12.269531 5.421875 12.273438 C 5.90625 12.570312 6.4375 12.777344 6.992188 12.890625 C 6.996094 12.894531 6.996094 12.894531 7 12.894531 L 7 19 L 9 19 L 9 12.898438 C 9.222656 12.851562 9.441406 12.789062 9.65625 12.710938 C 9.695312 12.699219 9.730469 12.6875 9.765625 12.671875 C 10.1875 12.511719 10.585938 12.296875 10.945312 12.03125 C 10.976562 12.011719 11.003906 11.988281 11.035156 11.964844 C 11.210938 11.832031 11.375 11.6875 11.53125 11.53125 C 11.695312 11.371094 11.84375 11.199219 11.980469 11.015625 C 12 10.992188 12.015625 10.964844 12.035156 10.9375 C 12.15625 10.773438 12.269531 10.597656 12.371094 10.414062 C 12.382812 10.398438 12.390625 10.378906 12.398438 10.359375 C 12.511719 10.15625 12.609375 9.941406 12.691406 9.71875 C 12.691406 9.71875 12.691406 9.714844 12.695312 9.714844 L 12.695312 9.703125 C 12.777344 9.476562 12.84375 9.242188 12.890625 9.007812 C 12.894531 9.003906 12.894531 9.003906 12.894531 9 L 19 9 L 19 7 L 12.898438 7 C 12.84375 6.730469 12.761719 6.46875 12.664062 6.210938 C 12.652344 6.1875 12.644531 6.160156 12.632812 6.132812 C 12.539062 5.902344 12.429688 5.679688 12.304688 5.464844 C 12.273438 5.417969 12.246094 5.371094 12.214844 5.320312 C 12.085938 5.117188 11.941406 4.921875 11.785156 4.734375 C 11.761719 4.710938 11.738281 4.6875 11.714844 4.664062 C 11.558594 4.488281 11.390625 4.328125 11.214844 4.179688 C 11.1875 4.15625 11.164062 4.132812 11.136719 4.109375 C 10.945312 3.957031 10.746094 3.820312 10.539062 3.699219 C 10.492188 3.671875 10.445312 3.644531 10.398438 3.617188 C 10.1875 3.503906 9.96875 3.402344 9.746094 3.320312 C 9.703125 3.300781 9.65625 3.289062 9.613281 3.273438 C 9.382812 3.191406 9.144531 3.128906 8.90625 3.085938 C 8.890625 3.082031 8.878906 3.078125 8.863281 3.078125 C 8.578125 3.027344 8.289062 3 8 3 Z M 8 3 "/>
</svg>
