<?xml version="1.0" encoding="UTF-8"?>
<svg xmlns="http://www.w3.org/2000/svg" xmlns:xlink="http://www.w3.org/1999/xlink" width="22" height="22" viewBox="0 0 22 22">
<path fill-rule="nonzero" fill="rgb(100%, 100%, 100%)" fill-opacity="1" d="M 13 3 L 13 9.101562 C 12.777344 9.148438 12.558594 9.210938 12.34375 9.289062 C 12.304688 9.300781 12.269531 9.3125 12.234375 9.328125 C 11.8125 9.488281 11.414062 9.703125 11.054688 9.96875 C 11.023438 9.988281 10.996094 10.011719 10.964844 10.035156 C 10.789062 10.167969 10.625 10.3125 10.46875 10.46875 C 10.304688 10.628906 10.15625 10.800781 10.019531 10.984375 C 10 11.007812 9.984375 11.035156 9.964844 11.0625 C 9.84375 11.226562 9.730469 11.402344 9.628906 11.585938 C 9.617188 11.601562 9.609375 11.621094 9.601562 11.640625 C 9.488281 11.84375 9.390625 12.058594 9.308594 12.28125 C 9.308594 12.28125 9.308594 12.285156 9.304688 12.285156 L 9.304688 12.296875 C 9.222656 12.523438 9.15625 12.757812 9.109375 12.992188 C 9.105469 12.996094 9.105469 12.996094 9.105469 13 L 3 13 L 3 15 L 9.101562 15 C 9.15625 15.269531 9.238281 15.53125 9.335938 15.785156 C 9.347656 15.8125 9.355469 15.839844 9.367188 15.867188 C 9.460938 16.097656 9.570312 16.320312 9.695312 16.535156 C 9.726562 16.585938 9.753906 16.628906 9.785156 16.675781 C 9.914062 16.882812 10.058594 17.078125 10.214844 17.265625 C 10.238281 17.289062 10.261719 17.3125 10.285156 17.339844 C 10.441406 17.511719 10.609375 17.671875 10.785156 17.824219 C 10.8125 17.84375 10.835938 17.867188 10.863281 17.890625 C 11.054688 18.042969 11.253906 18.179688 11.460938 18.300781 C 11.507812 18.328125 11.554688 18.355469 11.601562 18.378906 C 11.8125 18.496094 12.03125 18.597656 12.253906 18.683594 C 12.296875 18.699219 12.34375 18.710938 12.386719 18.726562 C 12.617188 18.808594 12.855469 18.871094 13.09375 18.917969 C 13.109375 18.917969 13.121094 18.921875 13.136719 18.921875 C 13.421875 18.972656 13.710938 19 14 19 C 14.167969 19 14.335938 18.992188 14.5 18.972656 C 14.667969 18.957031 14.832031 18.933594 14.996094 18.902344 C 15.007812 18.898438 15.019531 18.894531 15.035156 18.890625 C 15.339844 18.824219 15.636719 18.734375 15.921875 18.613281 C 15.929688 18.609375 15.941406 18.609375 15.949219 18.605469 L 15.964844 18.597656 C 16.242188 18.476562 16.507812 18.332031 16.757812 18.167969 C 16.773438 18.15625 16.792969 18.148438 16.808594 18.136719 C 17.054688 17.964844 17.289062 17.773438 17.5 17.5625 C 17.515625 17.546875 17.53125 17.535156 17.546875 17.519531 C 17.75 17.3125 17.933594 17.09375 18.09375 16.855469 C 18.117188 16.820312 18.144531 16.792969 18.167969 16.757812 C 18.320312 16.523438 18.453125 16.277344 18.5625 16.023438 C 18.582031 15.980469 18.605469 15.9375 18.625 15.894531 C 18.730469 15.628906 18.816406 15.355469 18.875 15.078125 C 18.886719 15.023438 18.902344 14.972656 18.910156 14.921875 C 18.925781 14.84375 18.9375 14.769531 18.949219 14.691406 C 18.960938 14.605469 18.972656 14.519531 18.980469 14.433594 C 18.992188 14.289062 19 14.144531 19 14 C 18.996094 13.734375 18.976562 13.472656 18.933594 13.210938 C 18.925781 13.167969 18.921875 13.125 18.910156 13.082031 C 18.863281 12.832031 18.800781 12.589844 18.714844 12.351562 C 18.703125 12.316406 18.691406 12.285156 18.675781 12.25 C 18.589844 12.007812 18.480469 11.773438 18.355469 11.546875 C 18.34375 11.53125 18.335938 11.515625 18.328125 11.5 C 18.195312 11.273438 18.042969 11.054688 17.878906 10.851562 C 17.875 10.847656 17.871094 10.839844 17.867188 10.835938 C 17.699219 10.632812 17.515625 10.445312 17.316406 10.269531 C 17.296875 10.25 17.273438 10.230469 17.25 10.210938 C 17.054688 10.039062 16.839844 9.882812 16.617188 9.742188 C 16.605469 9.738281 16.59375 9.730469 16.578125 9.726562 C 16.09375 9.429688 15.5625 9.222656 15.003906 9.109375 C 15.003906 9.105469 15.003906 9.105469 15 9.105469 L 15 3 Z M 13 3 "/>
</svg>
