<?xml version="1.0" encoding="UTF-8"?>
<svg xmlns="http://www.w3.org/2000/svg" xmlns:xlink="http://www.w3.org/1999/xlink" width="22" height="22" viewBox="0 0 22 22">
<path fill-rule="nonzero" fill="rgb(100%, 100%, 100%)" fill-opacity="1" d="M 14 3 C 13.710938 3 13.421875 3.027344 13.136719 3.078125 C 13.121094 3.078125 13.109375 3.082031 13.09375 3.085938 C 12.855469 3.128906 12.617188 3.191406 12.386719 3.273438 C 12.34375 3.289062 12.296875 3.300781 12.253906 3.320312 C 12.03125 3.402344 11.8125 3.503906 11.601562 3.617188 C 11.554688 3.644531 11.507812 3.671875 11.460938 3.699219 C 11.253906 3.820312 11.054688 3.957031 10.863281 4.109375 C 10.835938 4.132812 10.8125 4.15625 10.785156 4.179688 C 10.609375 4.328125 10.441406 4.488281 10.285156 4.664062 C 10.261719 4.6875 10.238281 4.710938 10.214844 4.734375 C 10.058594 4.921875 9.914062 5.117188 9.785156 5.320312 C 9.753906 5.371094 9.726562 5.417969 9.695312 5.464844 C 9.570312 5.679688 9.460938 5.902344 9.367188 6.132812 C 9.355469 6.160156 9.347656 6.1875 9.335938 6.210938 C 9.238281 6.46875 9.15625 6.730469 9.101562 7 L 3 7 L 3 9 L 9.105469 9 C 9.105469 9.003906 9.105469 9.003906 9.109375 9.007812 C 9.15625 9.242188 9.222656 9.476562 9.304688 9.703125 L 9.304688 9.714844 C 9.308594 9.714844 9.308594 9.71875 9.308594 9.71875 C 9.390625 9.941406 9.488281 10.15625 9.601562 10.359375 C 9.609375 10.378906 9.617188 10.398438 9.628906 10.414062 C 9.730469 10.597656 9.84375 10.773438 9.964844 10.9375 C 9.984375 10.964844 10 10.992188 10.019531 11.015625 C 10.15625 11.199219 10.304688 11.371094 10.46875 11.53125 C 10.625 11.6875 10.789062 11.832031 10.964844 11.964844 C 10.996094 11.988281 11.023438 12.011719 11.054688 12.03125 C 11.414062 12.296875 11.8125 12.511719 12.234375 12.671875 C 12.269531 12.6875 12.304688 12.699219 12.34375 12.710938 C 12.558594 12.789062 12.777344 12.851562 13 12.898438 L 13 19 L 15 19 L 15 12.894531 C 15.003906 12.894531 15.003906 12.894531 15.003906 12.890625 C 15.5625 12.777344 16.09375 12.570312 16.578125 12.273438 C 16.59375 12.269531 16.605469 12.261719 16.617188 12.257812 C 16.839844 12.117188 17.054688 11.960938 17.25 11.789062 C 17.273438 11.769531 17.296875 11.75 17.316406 11.730469 C 17.515625 11.554688 17.699219 11.367188 17.867188 11.164062 C 17.871094 11.160156 17.875 11.152344 17.878906 11.148438 C 18.042969 10.945312 18.195312 10.726562 18.328125 10.5 C 18.335938 10.484375 18.34375 10.46875 18.355469 10.453125 C 18.480469 10.226562 18.589844 9.992188 18.675781 9.75 C 18.691406 9.714844 18.703125 9.683594 18.714844 9.648438 C 18.800781 9.410156 18.863281 9.167969 18.910156 8.917969 C 18.921875 8.875 18.925781 8.832031 18.933594 8.789062 C 18.976562 8.527344 18.996094 8.265625 19 8 C 19 7.855469 18.992188 7.710938 18.980469 7.566406 C 18.96875 7.480469 18.960938 7.394531 18.949219 7.308594 C 18.9375 7.230469 18.925781 7.15625 18.910156 7.078125 C 18.902344 7.027344 18.890625 6.976562 18.875 6.921875 C 18.816406 6.644531 18.730469 6.371094 18.625 6.105469 C 18.605469 6.0625 18.585938 6.019531 18.5625 5.976562 C 18.453125 5.722656 18.320312 5.476562 18.167969 5.242188 C 18.144531 5.207031 18.117188 5.179688 18.09375 5.144531 C 17.933594 4.90625 17.75 4.6875 17.546875 4.480469 C 17.53125 4.464844 17.515625 4.453125 17.5 4.4375 C 17.289062 4.226562 17.054688 4.035156 16.808594 3.863281 C 16.792969 3.851562 16.773438 3.84375 16.757812 3.835938 C 16.507812 3.667969 16.242188 3.523438 15.964844 3.402344 L 15.949219 3.394531 C 15.941406 3.390625 15.929688 3.390625 15.921875 3.386719 C 15.636719 3.265625 15.339844 3.175781 15.035156 3.109375 C 15.019531 3.105469 15.007812 3.101562 14.996094 3.101562 C 14.832031 3.066406 14.667969 3.042969 14.5 3.023438 C 14.335938 3.007812 14.167969 3 14 3 Z M 14 3 "/>
</svg>
