<?xml version="1.0" encoding="UTF-8"?>
<svg xmlns="http://www.w3.org/2000/svg" xmlns:xlink="http://www.w3.org/1999/xlink" width="22" height="22" viewBox="0 0 22 22">
<path fill-rule="nonzero" fill="rgb(100%, 100%, 100%)" fill-opacity="1" d="M 7 3 L 7 9.105469 C 6.996094 9.105469 6.996094 9.105469 6.992188 9.109375 C 6.4375 9.222656 5.90625 9.429688 5.421875 9.726562 C 5.40625 9.730469 5.394531 9.738281 5.382812 9.742188 C 5.160156 9.882812 4.945312 10.039062 4.75 10.210938 C 4.726562 10.230469 4.703125 10.25 4.679688 10.269531 C 4.484375 10.445312 4.300781 10.632812 4.132812 10.835938 C 4.128906 10.839844 4.125 10.847656 4.121094 10.851562 C 3.957031 11.054688 3.804688 11.273438 3.671875 11.5 C 3.664062 11.515625 3.65625 11.53125 3.648438 11.546875 C 3.519531 11.773438 3.410156 12.007812 3.320312 12.25 C 3.308594 12.285156 3.296875 12.316406 3.285156 12.351562 C 3.199219 12.589844 3.136719 12.832031 3.085938 13.082031 C 3.078125 13.125 3.074219 13.167969 3.070312 13.210938 C 3.023438 13.472656 3 13.734375 3 14 C 3 14.144531 3.007812 14.289062 3.023438 14.433594 C 3.027344 14.519531 3.039062 14.605469 3.054688 14.691406 C 3.0625 14.769531 3.074219 14.84375 3.085938 14.921875 C 3.097656 14.972656 3.113281 15.023438 3.125 15.078125 C 3.183594 15.355469 3.269531 15.628906 3.375 15.894531 C 3.394531 15.9375 3.417969 15.980469 3.4375 16.023438 C 3.546875 16.277344 3.679688 16.523438 3.832031 16.757812 C 3.855469 16.792969 3.882812 16.820312 3.90625 16.855469 C 4.066406 17.09375 4.25 17.3125 4.453125 17.519531 C 4.46875 17.535156 4.484375 17.546875 4.5 17.5625 C 4.710938 17.773438 4.945312 17.964844 5.191406 18.136719 C 5.207031 18.148438 5.226562 18.15625 5.242188 18.167969 C 5.492188 18.332031 5.757812 18.476562 6.039062 18.597656 L 6.054688 18.605469 C 6.058594 18.609375 6.070312 18.609375 6.078125 18.613281 C 6.363281 18.734375 6.660156 18.824219 6.964844 18.890625 C 6.980469 18.894531 6.992188 18.898438 7.007812 18.902344 C 7.167969 18.933594 7.332031 18.957031 7.5 18.972656 C 7.667969 18.992188 7.832031 19 8 19 C 8.289062 19 8.578125 18.972656 8.863281 18.921875 C 8.878906 18.921875 8.890625 18.917969 8.90625 18.917969 C 9.144531 18.871094 9.382812 18.808594 9.613281 18.726562 C 9.65625 18.710938 9.703125 18.699219 9.746094 18.683594 C 9.96875 18.597656 10.1875 18.496094 10.398438 18.378906 C 10.445312 18.355469 10.492188 18.328125 10.539062 18.300781 C 10.746094 18.179688 10.945312 18.042969 11.136719 17.890625 C 11.164062 17.867188 11.1875 17.84375 11.214844 17.824219 C 11.390625 17.671875 11.558594 17.511719 11.714844 17.339844 C 11.738281 17.3125 11.761719 17.289062 11.785156 17.265625 C 11.941406 17.078125 12.085938 16.882812 12.214844 16.675781 C 12.246094 16.628906 12.273438 16.582031 12.304688 16.535156 C 12.429688 16.320312 12.539062 16.097656 12.632812 15.867188 C 12.644531 15.839844 12.652344 15.8125 12.664062 15.785156 C 12.761719 15.53125 12.84375 15.269531 12.898438 15 L 19 15 L 19 13 L 12.894531 13 C 12.894531 12.996094 12.894531 12.996094 12.890625 12.992188 C 12.84375 12.757812 12.777344 12.523438 12.695312 12.296875 L 12.695312 12.285156 C 12.691406 12.285156 12.691406 12.28125 12.691406 12.28125 C 12.609375 12.058594 12.511719 11.84375 12.398438 11.640625 C 12.390625 11.621094 12.382812 11.601562 12.371094 11.585938 C 12.269531 11.402344 12.15625 11.226562 12.035156 11.0625 C 12.015625 11.035156 12 11.007812 11.980469 10.984375 C 11.84375 10.800781 11.695312 10.628906 11.53125 10.46875 C 11.375 10.3125 11.210938 10.167969 11.035156 10.035156 C 11.003906 10.011719 10.976562 9.988281 10.945312 9.96875 C 10.585938 9.703125 10.1875 9.488281 9.765625 9.328125 C 9.730469 9.3125 9.695312 9.300781 9.65625 9.289062 C 9.441406 9.210938 9.222656 9.148438 9 9.101562 L 9 3 Z M 7 3 "/>
</svg>
