<?xml version="1.0" encoding="UTF-8"?>
<svg xmlns="http://www.w3.org/2000/svg" xmlns:xlink="http://www.w3.org/1999/xlink" width="22" height="22" viewBox="0 0 22 22">
<path fill-rule="nonzero" fill="rgb(100%, 100%, 100%)" fill-opacity="1" d="M 11 4 C 7.6875 4 5 6.6875 5 10 C 5 12.085938 6.070312 13.925781 7.6875 15 L 7 15 C 5 15 5 17 5 17 L 5 18 L 17 18 L 17 17 C 17 17 17 15 15 15 L 14.3125 15 C 15.929688 13.925781 17 12.085938 17 10 C 17 6.6875 14.3125 4 11 4 Z M 11 8.003906 C 12.105469 8.003906 13 8.898438 13 10.003906 C 13 11.109375 12.105469 12.003906 11 12.003906 C 9.894531 12.003906 9 11.109375 9 10.003906 C 9 8.898438 9.894531 8.003906 11 8.003906 Z M 11 8.003906 "/>
</svg>
