<?xml version="1.0" encoding="UTF-8"?>
<svg xmlns="http://www.w3.org/2000/svg" xmlns:xlink="http://www.w3.org/1999/xlink" width="22" height="22" viewBox="0 0 22 22">
<path fill-rule="nonzero" fill="rgb(100%, 100%, 100%)" fill-opacity="1" d="M 5 4 C 3.890625 4 3 4.890625 3 6 L 3 16 C 3 17.109375 3.890625 18 5 18 L 15 18 C 16.109375 18 17 17.109375 17 16 L 17 12.992188 L 15 13 L 15 16 L 5 16 L 5 6 L 15 6 L 15 9 L 17 8.992188 L 17 6 C 17 4.890625 16.109375 4 15 4 Z M 10.789062 7 L 6.789062 11 L 10.789062 15.042969 L 12.175781 13.65625 L 10.539062 12.023438 L 18 12 L 18 10 L 10.539062 10.023438 L 12.175781 8.386719 Z M 10.789062 7 "/>
</svg>
