<?xml version="1.0" encoding="UTF-8"?>
<svg xmlns="http://www.w3.org/2000/svg" xmlns:xlink="http://www.w3.org/1999/xlink" width="22" height="22" viewBox="0 0 22 22">
<path fill-rule="nonzero" fill="rgb(100%, 100%, 100%)" fill-opacity="1" d="M 4 4 L 4 10 L 10 10 L 10 4 Z M 12 4 L 12 10 L 18 10 L 18 4 Z M 4 12 L 4 18 L 10 18 L 10 12 Z M 15 12 C 13 12 13 13 13 13 L 13 15 L 12 15 L 12 18 L 18 18 L 18 15 L 17 15 L 17 13 C 17 13 17 12 15 12 Z M 15 13 C 15.371094 13 16 13.222656 16 13.5 L 16 15 L 14 15 L 14 13.5 C 14 13.222656 14.628906 13 15 13 Z M 15 13 "/>
</svg>
