<?xml version="1.0" encoding="UTF-8"?>
<svg xmlns="http://www.w3.org/2000/svg" xmlns:xlink="http://www.w3.org/1999/xlink" width="22" height="22" viewBox="0 0 22 22">
<path fill-rule="nonzero" fill="rgb(100%, 100%, 100%)" fill-opacity="1" d="M 17.996094 4.007812 C 17.8125 3.789062 11.359375 9.25 9.53125 11.507812 C 9.265625 11.839844 9.199219 12.078125 8.851562 12.695312 C 9.074219 12.875 9.507812 13.28125 9.808594 13.988281 C 10.410156 13.601562 10.691406 13.542969 11.007812 13.238281 C 13.085938 11.269531 18.171875 4.210938 17.996094 4.007812 Z M 7.914062 13.21875 C 7.132812 13.242188 6.382812 13.90625 5.863281 15.3125 C 5.269531 16.917969 4.207031 17.5625 4 17.519531 C 5.109375 17.972656 8.492188 19.128906 9.332031 14.730469 C 8.976562 13.671875 8.25 13.246094 8.25 13.246094 C 8.136719 13.222656 8.027344 13.214844 7.914062 13.21875 Z M 7.914062 13.21875 "/>
</svg>
