<?xml version="1.0" encoding="UTF-8"?>
<svg xmlns="http://www.w3.org/2000/svg" xmlns:xlink="http://www.w3.org/1999/xlink" width="22" height="22" viewBox="0 0 22 22">
<path fill-rule="nonzero" fill="rgb(100%, 100%, 100%)" fill-opacity="1" d="M 6 4.003906 C 6 4.003906 5 4.003906 5 5.003906 L 5 7.753906 L 7 8.910156 L 7 6.003906 L 15 6.003906 L 15 14.980469 L 3 7.992188 L 3 14.992188 L 15 14.992188 L 15 16.003906 L 5 16.003906 L 5 17.003906 C 5 18.003906 6 18.003906 6 18.003906 L 16 18.003906 C 16 18.003906 17 18.003906 17 17.003906 L 17 5.003906 C 17 4.003906 16 4.003906 16 4.003906 Z M 5 11.046875 L 8.117188 13.023438 L 5 13.023438 Z M 5 11.046875 "/>
</svg>
