<?xml version="1.0" encoding="UTF-8"?>
<svg xmlns="http://www.w3.org/2000/svg" xmlns:xlink="http://www.w3.org/1999/xlink" width="22" height="22" viewBox="0 0 22 22">
<path fill-rule="nonzero" fill="rgb(100%, 100%, 100%)" fill-opacity="1" d="M 4 5 L 4 7 L 10 7 L 10 5 Z M 12 5 L 12 7 L 18 7 L 18 5 Z M 4 8 L 4 10 L 10 10 L 10 8 Z M 12 8 L 12 10 L 18 10 L 18 8 Z M 4 11 L 4 13 L 10 13 L 10 11 Z M 12 11 L 12 13 L 18 13 L 18 11 Z M 4 14 L 4 16 L 10 16 L 10 14 Z M 12 14 L 12 16 L 18 16 L 18 14 Z M 12 14 "/>
</svg>
