<?xml version="1.0" encoding="UTF-8"?>
<svg xmlns="http://www.w3.org/2000/svg" xmlns:xlink="http://www.w3.org/1999/xlink" width="22" height="22" viewBox="0 0 22 22">
<path fill-rule="nonzero" fill="rgb(100%, 100%, 100%)" fill-opacity="1" d="M 3.5 3 L 3.089844 3.21875 L 3.039062 3.683594 L 3.390625 3.988281 L 3.5 4 L 4.5 4 L 4.914062 3.78125 L 4.964844 3.316406 L 4.609375 3.011719 L 4.5 3 Z M 6.5 3 L 6.089844 3.21875 L 6.039062 3.683594 L 6.390625 3.988281 L 6.5 4 L 7.5 4 L 7.914062 3.78125 L 7.964844 3.316406 L 7.609375 3.011719 L 7.5 3 Z M 9.5 3 L 9.089844 3.21875 L 9.039062 3.683594 L 9.390625 3.988281 L 9.5 4 L 10.5 4 L 10.914062 3.78125 L 10.964844 3.316406 L 10.609375 3.011719 L 10.5 3 Z M 12.5 3 L 12.089844 3.21875 L 12.039062 3.683594 L 12.390625 3.988281 L 12.5 4 L 13.5 4 L 13.914062 3.78125 L 13.964844 3.316406 L 13.609375 3.011719 L 13.5 3 Z M 15.5 3 L 15.089844 3.21875 L 15.035156 3.683594 L 15.390625 3.988281 L 15.5 4 L 16.5 4 L 16.914062 3.78125 L 16.964844 3.316406 L 16.609375 3.011719 L 16.5 3 Z M 18.5 3.5 L 18 4.5 L 18.21875 4.914062 L 18.683594 4.964844 L 18.988281 4.609375 L 19 4.5 Z M 3.316406 5.035156 L 3.007812 5.390625 L 3 5.5 L 3 6.5 L 3.21875 6.914062 L 3.683594 6.964844 L 3.988281 6.609375 L 4 6.5 L 4 5.5 L 3.78125 5.085938 Z M 6 6 L 6 8 L 12 8 L 12 6 Z M 18.316406 6.035156 L 18.011719 6.390625 L 18 6.5 L 18 7.5 L 18.21875 7.914062 L 18.683594 7.964844 L 18.988281 7.609375 L 19 7.5 L 19 6.5 L 18.78125 6.085938 Z M 3.316406 8.035156 L 3.007812 8.390625 L 3 8.5 L 3 9.5 L 3.21875 9.914062 L 3.683594 9.964844 L 3.988281 9.609375 L 4 9.5 L 4 8.5 L 3.78125 8.085938 Z M 18.316406 9.035156 L 18.011719 9.390625 L 18 9.5 L 18 10.5 L 18.21875 10.914062 L 18.683594 10.964844 L 18.988281 10.609375 L 19 10.5 L 19 9.5 L 18.78125 9.085938 Z M 8 10 L 8 12 L 14 12 L 14 10 Z M 3.316406 11.035156 L 3.007812 11.390625 L 3 11.5 L 3 12.5 L 3.21875 12.914062 L 3.683594 12.964844 L 3.988281 12.609375 L 4 12.5 L 4 11.5 L 3.78125 11.085938 Z M 18.316406 12.035156 L 18.011719 12.390625 L 18 12.5 L 18 13.5 L 18.21875 13.914062 L 18.683594 13.964844 L 18.988281 13.609375 L 19 13.5 L 19 12.5 L 18.78125 12.085938 Z M 10 14 L 10 16 L 16 16 L 16 14 Z M 3.316406 14.035156 L 3.007812 14.390625 L 3 14.5 L 3 15.5 L 3.21875 15.914062 L 3.683594 15.964844 L 3.988281 15.609375 L 4 15.5 L 4 14.5 L 3.78125 14.085938 Z M 18.316406 15.035156 L 18.011719 15.390625 L 18 15.5 L 18 16.5 L 18.21875 16.914062 L 18.683594 16.964844 L 18.988281 16.609375 L 19 16.5 L 19 15.5 L 18.78125 15.085938 Z M 3.320312 17.035156 L 3.007812 17.390625 L 3 17.5 L 3.5 18.5 L 4 17.5 L 3.78125 17.085938 Z M 5.507812 18 L 5.085938 18.21875 L 5.03125 18.683594 L 5.382812 18.988281 L 5.507812 19 L 6.507812 19 L 6.921875 18.78125 L 6.96875 18.316406 L 6.617188 18.011719 L 6.507812 18 Z M 8.507812 18 L 8.085938 18.21875 L 8.03125 18.683594 L 8.382812 18.988281 L 8.507812 19 L 9.507812 19 L 9.921875 18.78125 L 9.96875 18.316406 L 9.617188 18.011719 L 9.507812 18 Z M 11.507812 18 L 11.085938 18.21875 L 11.03125 18.683594 L 11.382812 18.988281 L 11.507812 19 L 12.507812 19 L 12.921875 18.78125 L 12.96875 18.316406 L 12.617188 18.011719 L 12.507812 18 Z M 14.503906 18 L 14.082031 18.21875 L 14.03125 18.683594 L 14.386719 18.988281 L 14.503906 19 L 15.503906 19 L 15.921875 18.78125 L 15.96875 18.316406 L 15.617188 18.011719 L 15.503906 18 Z M 17.503906 18 L 17.082031 18.21875 L 17.03125 18.683594 L 17.386719 18.988281 L 17.503906 19 L 18.503906 18.5 Z M 17.503906 18 "/>
</svg>
