<?xml version="1.0" encoding="UTF-8"?>
<svg xmlns="http://www.w3.org/2000/svg" xmlns:xlink="http://www.w3.org/1999/xlink" width="22" height="22" viewBox="0 0 22 22">
<defs>
<filter id="filter-remove-color" x="0%" y="0%" width="100%" height="100%">
<feColorMatrix color-interpolation-filters="sRGB" values="0 0 0 0 1 0 0 0 0 1 0 0 0 0 1 0 0 0 1 0" />
</filter>
<mask id="mask-0">
<g filter="url(#filter-remove-color)">
<rect x="-2.2" y="-2.2" width="26.4" height="26.4" fill="rgb(0%, 0%, 0%)" fill-opacity="0.3"/>
</g>
</mask>
<clipPath id="clip-0">
<rect x="0" y="0" width="22" height="22"/>
</clipPath>
<g id="source-11548" clip-path="url(#clip-0)">
<path fill-rule="nonzero" fill="rgb(100%, 100%, 100%)" fill-opacity="1" d="M 5 5 C 5 5 3 5 3 7 L 3 15 C 3 17 5 17 5 17 L 16 17 C 16 17 18 17 18 15 L 18 7 C 18 5 16 5 16 5 Z M 5.25 7 L 6.75 7 C 6.886719 7 7 7.113281 7 7.25 L 7 8.75 C 7 8.886719 6.886719 9 6.75 9 L 5.25 9 C 5.113281 9 5 8.886719 5 8.75 L 5 7.25 C 5 7.113281 5.113281 7 5.25 7 Z M 8.25 7 L 9.75 7 C 9.886719 7 10 7.113281 10 7.25 L 10 8.75 C 10 8.886719 9.886719 9 9.75 9 L 8.25 9 C 8.113281 9 8 8.886719 8 8.75 L 8 7.25 C 8 7.113281 8.113281 7 8.25 7 Z M 11.25 7 L 12.75 7 C 12.886719 7 13 7.113281 13 7.25 L 13 8.75 C 13 8.886719 12.886719 9 12.75 9 L 11.25 9 C 11.113281 9 11 8.886719 11 8.75 L 11 7.25 C 11 7.113281 11.113281 7 11.25 7 Z M 14.25 7 L 15.75 7 C 15.890625 7 16 7.113281 16 7.25 L 16 8.75 C 16 8.886719 15.890625 9 15.75 9 L 14.25 9 C 14.113281 9 14 8.886719 14 8.75 L 14 7.25 C 14 7.113281 14.113281 7 14.25 7 Z M 5.25 10 L 6.75 10 C 6.886719 10 7 10.113281 7 10.25 L 7 11.75 C 7 11.886719 6.886719 12 6.75 12 L 5.25 12 C 5.113281 12 5 11.886719 5 11.75 L 5 10.25 C 5 10.113281 5.113281 10 5.25 10 Z M 8.25 10 L 9.75 10 C 9.886719 10 10 10.113281 10 10.25 L 10 11.75 C 10 11.886719 9.886719 12 9.75 12 L 8.25 12 C 8.113281 12 8 11.886719 8 11.75 L 8 10.25 C 8 10.113281 8.113281 10 8.25 10 Z M 11.25 10 L 12.75 10 C 12.886719 10 13 10.113281 13 10.25 L 13 11.75 C 13 11.886719 12.886719 12 12.75 12 L 11.25 12 C 11.113281 12 11 11.886719 11 11.75 L 11 10.25 C 11 10.113281 11.113281 10 11.25 10 Z M 14.25 10 L 15.75 10 C 15.890625 10 16 10.113281 16 10.25 L 16 11.75 C 16 11.886719 15.890625 12 15.75 12 L 14.25 12 C 14.113281 12 14 11.886719 14 11.75 L 14 10.25 C 14 10.113281 14.113281 10 14.25 10 Z M 7.25 13 L 13.75 13 C 13.890625 13 14 13.113281 14 13.25 L 14 14.75 C 14 14.890625 13.890625 15 13.75 15 L 7.25 15 C 7.113281 15 7 14.890625 7 14.75 L 7 13.25 C 7 13.113281 7.113281 13 7.25 13 Z M 7.25 13 "/>
</g>
</defs>
<g mask="url(#mask-0)">
<use xlink:href="#source-11548"/>
</g>
</svg>
