<?xml version="1.0" encoding="UTF-8"?>
<svg xmlns="http://www.w3.org/2000/svg" xmlns:xlink="http://www.w3.org/1999/xlink" width="22" height="22" viewBox="0 0 22 22">
<path fill-rule="nonzero" fill="rgb(100%, 100%, 100%)" fill-opacity="1" d="M 2.902344 0.792969 C 2.480469 0.792969 2.121094 0.867188 1.796875 1.03125 C 1.6875 1.085938 1.671875 1.105469 1.675781 1.164062 C 1.691406 1.285156 1.753906 1.296875 1.9375 1.214844 C 2.277344 1.0625 2.445312 1.027344 2.875 1.027344 C 3.367188 1.027344 3.550781 1.070312 3.957031 1.28125 C 4.027344 1.316406 4.246094 1.484375 4.328125 1.394531 C 4.410156 1.3125 4.367188 1.246094 4.15625 1.125 C 3.742188 0.890625 3.382812 0.796875 2.902344 0.792969 Z M 2.886719 1.277344 C 2.335938 1.277344 1.78125 1.496094 1.378906 1.933594 C 1.21875 2.101562 1.039062 2.382812 1.039062 2.449219 C 1.039062 2.53125 1.070312 2.574219 1.128906 2.574219 C 1.175781 2.574219 1.226562 2.523438 1.339844 2.351562 C 1.59375 1.972656 1.921875 1.71875 2.347656 1.578125 C 2.675781 1.46875 3.058594 1.484375 3.429688 1.578125 C 3.910156 1.734375 4.320312 2.085938 4.542969 2.527344 C 4.59375 2.625 4.621094 2.652344 4.667969 2.652344 C 4.75 2.652344 4.800781 2.59375 4.777344 2.515625 C 4.742188 2.394531 4.546875 2.09375 4.402344 1.9375 C 3.996094 1.5 3.441406 1.277344 2.886719 1.277344 Z M 2.914062 1.761719 C 2.796875 1.757812 2.675781 1.769531 2.558594 1.792969 C 1.988281 1.914062 1.515625 2.371094 1.363281 2.953125 C 1.28125 3.257812 1.320312 3.761719 1.453125 4.160156 C 1.492188 4.28125 1.511719 4.308594 1.566406 4.3125 C 1.699219 4.328125 1.710938 4.265625 1.632812 3.996094 C 1.410156 3.21875 1.601562 2.558594 2.160156 2.199219 C 2.710938 1.84375 3.464844 1.949219 3.898438 2.441406 C 4.167969 2.75 4.316406 3.269531 4.195312 3.5 C 4.121094 3.648438 3.929688 3.738281 3.773438 3.699219 C 3.660156 3.671875 3.527344 3.53125 3.507812 3.425781 C 3.449219 3.046875 3.363281 2.898438 3.144531 2.796875 C 2.957031 2.710938 2.804688 2.714844 2.621094 2.804688 C 2.453125 2.890625 2.320312 3.066406 2.296875 3.242188 C 2.285156 3.304688 2.289062 3.441406 2.304688 3.542969 C 2.398438 4.191406 2.859375 4.703125 3.496094 4.859375 C 3.574219 4.882812 3.707031 4.894531 3.785156 4.890625 L 3.933594 4.886719 C 4.015625 4.84375 4.019531 4.75 3.933594 4.703125 L 3.726562 4.671875 C 3.46875 4.632812 3.359375 4.597656 3.183594 4.496094 C 2.796875 4.277344 2.519531 3.808594 2.519531 3.367188 C 2.519531 3.171875 2.589844 3.058594 2.761719 2.984375 C 2.886719 2.933594 2.890625 2.933594 3.011719 2.984375 C 3.171875 3.050781 3.246094 3.160156 3.265625 3.347656 C 3.300781 3.695312 3.539062 3.921875 3.871094 3.921875 C 4.132812 3.921875 4.355469 3.75 4.4375 3.488281 C 4.511719 3.226562 4.410156 2.792969 4.191406 2.460938 C 3.902344 2.023438 3.425781 1.769531 2.914062 1.761719 Z M 2.898438 2.261719 C 2.734375 2.261719 2.5625 2.292969 2.425781 2.347656 C 2.210938 2.453125 2.007812 2.660156 1.902344 2.882812 C 1.820312 3.054688 1.816406 3.078125 1.816406 3.367188 C 1.816406 3.722656 1.859375 3.910156 2.011719 4.226562 C 2.144531 4.5 2.324219 4.738281 2.527344 4.902344 C 2.703125 5.042969 2.722656 5.050781 2.792969 4.996094 C 2.867188 4.941406 2.828125 4.847656 2.675781 4.734375 C 2.511719 4.609375 2.335938 4.382812 2.21875 4.144531 C 2.019531 3.753906 1.972656 3.269531 2.097656 2.992188 C 2.191406 2.792969 2.332031 2.644531 2.511719 2.554688 C 2.730469 2.449219 3.046875 2.449219 3.261719 2.554688 C 3.519531 2.683594 3.6875 2.914062 3.742188 3.230469 C 3.777344 3.417969 3.832031 3.480469 3.914062 3.429688 C 3.949219 3.40625 3.957031 3.367188 3.953125 3.222656 C 3.945312 2.871094 3.699219 2.519531 3.34375 2.34375 C 3.222656 2.285156 3.0625 2.257812 2.898438 2.261719 Z M 2.898438 2.261719 "/>
<path fill-rule="nonzero" fill="rgb(100%, 100%, 100%)" fill-opacity="1" d="M 3.628906 4.386719 C 3.175781 4.289062 2.828125 3.890625 2.789062 3.429688 C 2.777344 3.28125 2.78125 3.265625 2.832031 3.238281 C 2.929688 3.183594 2.984375 3.238281 3.003906 3.402344 C 3.050781 3.816406 3.355469 4.128906 3.761719 4.183594 C 3.960938 4.210938 4.027344 4.285156 3.929688 4.382812 C 3.882812 4.429688 3.828125 4.433594 3.628906 4.386719 Z M 3.628906 4.386719 "/>
</svg>
