<?xml version="1.0" encoding="UTF-8"?>
<svg xmlns="http://www.w3.org/2000/svg" xmlns:xlink="http://www.w3.org/1999/xlink" width="22" height="22" viewBox="0 0 22 22">
<path fill-rule="nonzero" fill="rgb(100%, 100%, 100%)" fill-opacity="1" d="M 2.910156 2.117188 L 2.910156 2.378906 L 3.179688 2.644531 L 3.703125 2.644531 L 3.703125 3.171875 L 4.199219 3.664062 C 4.273438 3.6875 4.347656 3.703125 4.425781 3.703125 L 5.292969 3.703125 L 5.292969 2.117188 L 4.425781 2.117188 C 4.203125 2.117188 3.988281 2.214844 3.835938 2.382812 L 3.441406 2.382812 L 3.441406 2.117188 Z M 0.527344 2.382812 L 0.527344 3.441406 L 2.90625 3.441406 L 2.640625 3.175781 L 0.792969 3.175781 L 0.792969 2.644531 L 2.113281 2.644531 L 1.847656 2.382812 Z M 4.425781 2.382812 L 5.027344 2.382812 L 5.027344 3.441406 L 4.425781 3.441406 C 4.238281 3.4375 4.0625 3.339844 3.96875 3.175781 L 3.96875 2.644531 C 4.0625 2.480469 4.238281 2.382812 4.425781 2.382812 Z M 4.425781 2.382812 "/>
<path fill-rule="nonzero" fill="rgb(85.490196%, 26.666667%, 32.54902%)" fill-opacity="1" d="M 0.792969 0.980469 L 0.980469 0.792969 L 5.027344 4.839844 L 4.839844 5.027344 Z M 0.792969 0.980469 "/>
</svg>
