<?xml version="1.0" encoding="UTF-8"?>
<svg xmlns="http://www.w3.org/2000/svg" xmlns:xlink="http://www.w3.org/1999/xlink" width="22" height="22" viewBox="0 0 22 22">
<path fill-rule="nonzero" fill="rgb(100%, 100%, 100%)" fill-opacity="1" d="M 5.292969 3.703125 L 4.425781 3.703125 C 4.203125 3.703125 3.988281 3.609375 3.835938 3.441406 L 0.527344 3.441406 L 0.527344 2.382812 L 2.910156 2.382812 L 2.910156 2.117188 L 3.441406 2.117188 L 3.441406 2.382812 L 3.835938 2.382812 C 3.988281 2.214844 4.203125 2.117188 4.425781 2.117188 L 5.292969 2.117188 Z M 5.027344 3.441406 L 5.027344 2.382812 L 4.425781 2.382812 C 4.238281 2.382812 4.0625 2.480469 3.96875 2.644531 L 3.96875 3.175781 C 4.0625 3.339844 4.238281 3.4375 4.425781 3.441406 Z M 3.703125 3.175781 L 3.703125 2.644531 L 0.792969 2.644531 L 0.792969 3.175781 Z M 3.703125 3.175781 "/>
</svg>
