<?xml version="1.0" encoding="UTF-8"?>
<svg xmlns="http://www.w3.org/2000/svg" xmlns:xlink="http://www.w3.org/1999/xlink" width="22" height="22" viewBox="0 0 22 22">
<path fill-rule="nonzero" fill="rgb(100%, 100%, 100%)" fill-opacity="1" d="M 5.25 7.003906 C 5.113281 7.003906 5 7.117188 5 7.253906 L 5 8.753906 C 5 8.890625 5.113281 9.003906 5.25 9.003906 L 6.75 9.003906 C 6.886719 9.003906 7 8.890625 7 8.753906 L 7 7.253906 C 7 7.117188 6.886719 7.003906 6.75 7.003906 Z M 8.25 7.003906 C 8.113281 7.003906 8 7.117188 8 7.253906 L 8 8.753906 C 8 8.890625 8.113281 9.003906 8.25 9.003906 L 9.75 9.003906 C 9.886719 9.003906 10 8.890625 10 8.753906 L 10 7.253906 C 10 7.117188 9.886719 7.003906 9.75 7.003906 Z M 11.25 7.003906 C 11.113281 7.003906 11 7.117188 11 7.253906 L 11 8.753906 C 11 8.890625 11.113281 9.003906 11.25 9.003906 L 12.75 9.003906 C 12.886719 9.003906 13 8.890625 13 8.753906 L 13 7.253906 C 13 7.117188 12.886719 7.003906 12.75 7.003906 Z M 14.25 7.003906 C 14.113281 7.003906 14 7.117188 14 7.253906 L 14 8.753906 C 14 8.890625 14.113281 9.003906 14.25 9.003906 L 15.75 9.003906 C 15.886719 9.003906 16 8.890625 16 8.753906 L 16 7.253906 C 16 7.117188 15.886719 7.003906 15.75 7.003906 Z M 5.25 10.003906 C 5.113281 10.003906 5 10.117188 5 10.253906 L 5 11.753906 C 5 11.890625 5.113281 12.003906 5.25 12.003906 L 6.75 12.003906 C 6.886719 12.003906 7 11.890625 7 11.753906 L 7 10.253906 C 7 10.117188 6.886719 10.003906 6.75 10.003906 Z M 8.25 10.003906 C 8.113281 10.003906 8 10.117188 8 10.253906 L 8 11.753906 C 8 11.890625 8.113281 12.003906 8.25 12.003906 L 9.75 12.003906 C 9.886719 12.003906 10 11.890625 10 11.753906 L 10 10.253906 C 10 10.117188 9.886719 10.003906 9.75 10.003906 Z M 11.25 10.003906 C 11.113281 10.003906 11 10.117188 11 10.253906 L 11 11.753906 C 11 11.890625 11.113281 12.003906 11.25 12.003906 L 12.75 12.003906 C 12.886719 12.003906 13 11.890625 13 11.753906 L 13 10.253906 C 13 10.117188 12.886719 10.003906 12.75 10.003906 Z M 14.25 10.003906 C 14.113281 10.003906 14 10.117188 14 10.253906 L 14 11.753906 C 14 11.890625 14.113281 12.003906 14.25 12.003906 L 15.75 12.003906 C 15.886719 12.003906 16 11.890625 16 11.753906 L 16 10.253906 C 16 10.117188 15.886719 10.003906 15.75 10.003906 Z M 5.25 13.003906 C 5.113281 13.003906 5 13.117188 5 13.253906 L 5 14.753906 C 5 14.890625 5.113281 15.003906 5.25 15.003906 L 6.75 15.003906 C 6.886719 15.003906 7 14.890625 7 14.753906 L 7 13.253906 C 7 13.117188 6.886719 13.003906 6.75 13.003906 Z M 8.25 13.003906 C 8.113281 13.003906 8 13.117188 8 13.253906 L 8 14.753906 C 8 14.890625 8.113281 15.003906 8.25 15.003906 L 9.75 15.003906 C 9.886719 15.003906 10 14.890625 10 14.753906 L 10 13.253906 C 10 13.117188 9.886719 13.003906 9.75 13.003906 Z M 11.25 13.003906 C 11.113281 13.003906 11 13.117188 11 13.253906 L 11 14.753906 C 11 14.890625 11.113281 15.003906 11.25 15.003906 L 12.75 15.003906 C 12.886719 15.003906 13 14.890625 13 14.753906 L 13 13.253906 C 13 13.117188 12.886719 13.003906 12.75 13.003906 Z M 14.25 13.003906 C 14.113281 13.003906 14 13.117188 14 13.253906 L 14 14.753906 C 14 14.890625 14.113281 15.003906 14.25 15.003906 L 15.75 15.003906 C 15.886719 15.003906 16 14.890625 16 14.753906 L 16 13.253906 C 16 13.117188 15.886719 13.003906 15.75 13.003906 Z M 14.25 13.003906 "/>
</svg>
