<?xml version="1.0" encoding="UTF-8"?>
<svg xmlns="http://www.w3.org/2000/svg" xmlns:xlink="http://www.w3.org/1999/xlink" width="22" height="22" viewBox="0 0 22 22">
<path fill-rule="nonzero" fill="rgb(100%, 100%, 100%)" fill-opacity="1" d="M 9.5 4 C 9 4 9 4.5 9 4.5 L 9 12.5 C 9 13 9.5 13 9.5 13 L 18.5 13 C 18.5 13 19 13 19 12.5 L 19 4.5 C 19 4 18.5 4 18.5 4 Z M 11 7 L 17 7 L 17 10.996094 L 11 10.996094 Z M 4.519531 9 C 4.519531 9 4 9 4 9.5 L 4 17.5 C 4 18 4.5 18 4.5 18 L 13.5 18 C 13.5 18 14 17.976562 14 17.5 L 14 14 L 12 14 L 12 16 L 6 16 L 6 12 L 8 12 L 8 9 Z M 4.519531 9 "/>
</svg>
