<?xml version="1.0" encoding="UTF-8"?>
<svg xmlns="http://www.w3.org/2000/svg" xmlns:xlink="http://www.w3.org/1999/xlink" width="22" height="22" viewBox="0 0 22 22">
<path fill-rule="nonzero" fill="rgb(100%, 100%, 100%)" fill-opacity="1" d="M 3 5.007812 L 3 17.011719 L 13 17.011719 L 13 7.007812 C 13 5.007812 11 5.007812 11 5.007812 Z M 13 5.007812 C 13 5.007812 14 5.007812 14 7.007812 L 14 17.011719 L 15 17.011719 L 15 7.007812 C 15 5.007812 13 5.007812 13 5.007812 Z M 15 5.007812 C 15 5.007812 16 5.007812 16 7.007812 L 16 17.011719 L 17 17.011719 L 17 7.007812 C 17 5.007812 15 5.007812 15 5.007812 Z M 6 8.007812 L 10.5 11.007812 L 6 14.011719 Z M 6 8.007812 "/>
</svg>
