<?xml version="1.0" encoding="UTF-8"?>
<svg xmlns="http://www.w3.org/2000/svg" xmlns:xlink="http://www.w3.org/1999/xlink" width="22" height="22" viewBox="0 0 22 22">
<path fill-rule="nonzero" fill="rgb(100%, 100%, 100%)" fill-opacity="1" d="M 9 6 L 8.992188 8 L 11.914062 8.011719 C 11.859375 8.011719 12 8.171875 12 8.09375 L 12 9.015625 L 10.996094 9.015625 C 9.28125 9.015625 7.964844 10.144531 7.941406 11.5 C 7.929688 12.179688 8.246094 12.863281 8.804688 13.324219 C 9.359375 13.785156 10.117188 14.023438 10.996094 14.023438 L 14 14.023438 L 14 8.09375 C 14 6.921875 13.113281 6.011719 11.914062 6.011719 L 9.007812 6 Z M 2.996094 8 L 2.996094 14 L 6.996094 11 Z M 18.996094 8 L 14.996094 11 L 18.996094 14 Z M 10.996094 11.015625 L 12 11.015625 L 12 12.023438 L 10.996094 12.023438 C 10.476562 12.023438 10.203125 11.886719 10.078125 11.78125 C 9.949219 11.675781 9.941406 11.609375 9.941406 11.539062 C 9.945312 11.394531 10.027344 11.015625 10.996094 11.015625 Z M 10.996094 11.015625 "/>
</svg>
