<?xml version="1.0" encoding="UTF-8"?>
<svg xmlns="http://www.w3.org/2000/svg" xmlns:xlink="http://www.w3.org/1999/xlink" width="22" height="22" viewBox="0 0 22 22">
<path fill-rule="nonzero" fill="rgb(100%, 100%, 100%)" fill-opacity="1" d="M 5.339844 3.9375 L 3.933594 5.34375 L 8.625 10.039062 C 7.863281 10.125 7.191406 10.464844 6.746094 10.96875 C 6.230469 11.554688 5.988281 12.28125 5.996094 13 C 6.003906 13.71875 6.265625 14.453125 6.777344 15.03125 C 7.289062 15.609375 8.085938 16 8.996094 16 L 14.589844 16 L 16.652344 18.0625 L 18.058594 16.65625 Z M 9.402344 6 L 11.402344 8 L 12.996094 8 C 13.425781 8 13.996094 8.613281 13.996094 9 L 13.996094 10 L 13.402344 10 L 15.996094 12.59375 L 15.996094 9 C 15.996094 7.367188 14.675781 6 12.996094 6 Z M 8.996094 12 L 10.589844 12 L 12.589844 14 L 8.996094 14 C 8.597656 14 8.429688 13.890625 8.277344 13.71875 C 8.125 13.546875 8 13.28125 7.996094 13 C 7.992188 12.71875 8.101562 12.445312 8.246094 12.28125 C 8.390625 12.117188 8.574219 12 8.996094 12 Z M 8.996094 12 "/>
</svg>
