<?xml version="1.0" encoding="UTF-8"?>
<svg xmlns="http://www.w3.org/2000/svg" xmlns:xlink="http://www.w3.org/1999/xlink" width="22" height="22" viewBox="0 0 22 22">
<path fill-rule="nonzero" fill="rgb(100%, 100%, 100%)" fill-opacity="1" d="M 5 4 C 5 4 4 4 4 5 L 4 9.992188 L 6 10 L 6 9 L 6.796875 9 L 9.210938 6.585938 L 11.625 9 L 16 9 L 16 16 L 10.660156 16 L 9.214844 17.457031 L 7.765625 16 L 6.007812 16 L 6.007812 14.011719 L 4.007812 14.003906 L 4.007812 17 C 4.007812 17 4.007812 18 5.007812 18 L 17.011719 18 C 18.011719 18 18.011719 17 18.011719 17 L 18.011719 5 C 18.011719 5 18.011719 4 17.011719 4 Z M 9.210938 8 L 7.824219 9.386719 L 9.460938 11.023438 L 3.007812 11 L 3.007812 13 L 9.46875 13.019531 L 7.835938 14.65625 L 9.21875 16.042969 L 13.222656 12 Z M 9.210938 8 "/>
</svg>
