<?xml version="1.0" encoding="UTF-8"?>
<svg xmlns="http://www.w3.org/2000/svg" xmlns:xlink="http://www.w3.org/1999/xlink" width="22" height="22" viewBox="0 0 22 22">
<path fill-rule="nonzero" fill="rgb(100%, 100%, 100%)" fill-opacity="1" d="M 11 4.003906 C 7.132812 4.003906 4 7.136719 4 11.003906 C 4 14.871094 7.132812 18.003906 11 18.003906 C 14.867188 18.003906 18 14.871094 18 11.003906 C 18 7.136719 14.867188 4.003906 11 4.003906 Z M 11 6.753906 C 11.691406 6.753906 12.25 7.3125 12.25 8.003906 C 12.25 8.695312 11.691406 9.253906 11 9.253906 C 10.308594 9.253906 9.75 8.695312 9.75 8.003906 C 9.75 7.3125 10.308594 6.753906 11 6.753906 Z M 10 10.003906 L 12 10.003906 L 12 15.003906 L 10 15.003906 Z M 10 10.003906 "/>
</svg>
