<?xml version="1.0" encoding="UTF-8"?>
<svg xmlns="http://www.w3.org/2000/svg" xmlns:xlink="http://www.w3.org/1999/xlink" width="22" height="22" viewBox="0 0 22 22">
<path fill-rule="nonzero" fill="rgb(100%, 100%, 100%)" fill-opacity="1" d="M 5.96875 5 C 5.96875 5 4 5 4 7 L 4 13 C 4 14.109375 4.890625 15 6 15 L 11 15 L 13 18.003906 L 15 15 L 16 15 C 16 15 18 15 18 13 L 18 7 C 18 5 16 5 16 5 Z M 8 7 L 10 7 L 12 9.65625 L 12 7 L 14 7 L 14 13 L 12 13 L 10 10.320312 L 10 13 L 8 13 Z M 8 7 "/>
</svg>
