<?xml version="1.0" encoding="UTF-8"?>
<svg xmlns="http://www.w3.org/2000/svg" xmlns:xlink="http://www.w3.org/1999/xlink" width="22" height="22" viewBox="0 0 22 22">
<defs>
<filter id="filter-remove-color" x="0%" y="0%" width="100%" height="100%">
<feColorMatrix color-interpolation-filters="sRGB" values="0 0 0 0 1 0 0 0 0 1 0 0 0 0 1 0 0 0 1 0" />
</filter>
<mask id="mask-0">
<g filter="url(#filter-remove-color)">
<rect x="-2.2" y="-2.2" width="26.4" height="26.4" fill="rgb(0%, 0%, 0%)" fill-opacity="0.3"/>
</g>
</mask>
<clipPath id="clip-0">
<rect x="0" y="0" width="22" height="22"/>
</clipPath>
<g id="source-4538" clip-path="url(#clip-0)">
<path fill-rule="nonzero" fill="rgb(100%, 100%, 100%)" fill-opacity="1" d="M 17 5.398438 C 16.957031 6.398438 16.769531 7.433594 16.121094 8.367188 C 15.289062 9.566406 13.75 10.511719 11.078125 11.046875 C 8.539062 11.558594 7.210938 12.542969 6.390625 13.703125 C 6.238281 13.921875 6.121094 14.15625 6 14.390625 L 6 16 L 17 16 Z M 17 5.398438 "/>
</g>
</defs>
<path fill-rule="nonzero" fill="rgb(100%, 100%, 100%)" fill-opacity="1" d="M 4 4 L 4 18 L 4.390625 18 C 4.464844 18.019531 4.542969 18.019531 4.617188 18 L 18 18 L 18 16 L 6 16 L 6 14.390625 C 6.121094 14.15625 6.238281 13.921875 6.390625 13.703125 C 7.210938 12.542969 8.539062 11.558594 11.078125 11.046875 C 13.75 10.511719 15.289062 9.566406 16.121094 8.367188 C 16.953125 7.171875 17.03125 5.808594 17.015625 4.570312 C 17.011719 4.4375 16.957031 4.308594 16.863281 4.214844 C 16.765625 4.121094 16.632812 4.070312 16.5 4.074219 C 16.222656 4.082031 16.007812 4.3125 16.015625 4.585938 C 16.03125 5.769531 15.945312 6.871094 15.296875 7.796875 C 14.652344 8.726562 13.40625 9.558594 10.878906 10.070312 C 8.523438 10.542969 6.996094 11.460938 6 12.589844 L 6 4 Z M 4 4 "/>
<g mask="url(#mask-0)">
<use xlink:href="#source-4538"/>
</g>
</svg>
