<?xml version="1.0" encoding="UTF-8"?>
<svg xmlns="http://www.w3.org/2000/svg" xmlns:xlink="http://www.w3.org/1999/xlink" width="22" height="22" viewBox="0 0 22 22">
<path fill-rule="nonzero" fill="rgb(100%, 100%, 100%)" fill-opacity="1" d="M 4 4 L 4 6 L 8 6 L 8 8 L 10 8 L 10 4 Z M 10 8 L 10 10 L 14 10 L 14 8 Z M 14 8 L 16 8 L 16 6 L 14 6 Z M 14 6 L 14 4 L 12 4 L 12 6 Z M 10 10 L 8 10 L 8 12 L 10 12 Z M 8 12 L 6 12 L 6 14 L 8 14 Z M 6 12 L 6 10 L 4 10 L 4 12 Z M 6 10 L 8 10 L 8 8 L 6 8 Z M 14 12 L 14 14 L 16 14 L 16 12 Z M 16 14 L 16 18 L 18 18 L 18 14 Z M 10 14 L 10 16 L 12 16 L 12 14 Z M 12 16 L 12 18 L 14 18 L 14 16 Z M 6 16 L 6 18 L 8 18 L 8 16 Z M 6 16 "/>
</svg>
