<?xml version="1.0" encoding="UTF-8"?>
<svg xmlns="http://www.w3.org/2000/svg" xmlns:xlink="http://www.w3.org/1999/xlink" width="22" height="22" viewBox="0 0 22 22">
<path fill-rule="nonzero" fill="rgb(100%, 100%, 100%)" fill-opacity="1" d="M 16.03125 4.03125 C 15.933594 4.03125 15.875 4.0625 15.875 4.0625 L 4.0625 6.125 C 3.078125 6.296875 3.25 7.28125 3.25 7.28125 L 3.71875 10 L 6.8125 10 L 7.9375 8.0625 L 10.375 10 L 12.6875 10 L 13.59375 8.78125 L 15.34375 10 L 17.9375 10 L 17.03125 4.875 C 16.902344 4.136719 16.316406 4.027344 16.03125 4.03125 Z M 4 11 L 4 12 L 5 12 L 5 11 Z M 6 11 L 6 12 L 7 12 L 7 11 Z M 8 11 L 8 12 L 9 12 L 9 11 Z M 10 11 L 10 12 L 11 12 L 11 11 Z M 12 11 L 12 12 L 13 12 L 13 11 Z M 14 11 L 14 12 L 15 12 L 15 11 Z M 16 11 L 16 12 L 17 12 L 17 11 Z M 18 11 L 18 12 L 19 12 L 19 11 Z M 4.25 13 L 4.96875 17.15625 C 5.140625 18.140625 6.125 17.96875 6.125 17.96875 L 17.9375 15.875 C 17.9375 15.875 18.921875 15.703125 18.75 14.71875 L 18.4375 13 L 16.4375 13 L 16.625 14.0625 L 6.78125 15.8125 L 6.28125 13 Z M 4.25 13 "/>
</svg>
