<?xml version="1.0" encoding="UTF-8"?>
<svg xmlns="http://www.w3.org/2000/svg" xmlns:xlink="http://www.w3.org/1999/xlink" width="22" height="22" viewBox="0 0 22 22">
<path fill-rule="nonzero" fill="rgb(100%, 100%, 100%)" fill-opacity="1" d="M 5.34375 3.9375 L 3.9375 5.34375 L 6.050781 7.457031 C 3.851562 8.929688 3 11 3 11 C 3 11 5 16.003906 11 16.003906 C 12.179688 16.003906 13.191406 15.796875 14.078125 15.484375 L 16.65625 18.0625 L 18.0625 16.65625 Z M 11 6.003906 C 10.476562 6.003906 9.992188 6.054688 9.53125 6.125 L 11.449219 8.042969 C 12.75 8.238281 13.769531 9.257812 13.964844 10.558594 L 17.074219 13.667969 C 18.449219 12.367188 19 11.003906 19 11.003906 C 19 11.003906 17 6.003906 11 6.003906 Z M 8.300781 9.707031 L 12.296875 13.703125 C 11.890625 13.898438 11.449219 14.003906 11 14.003906 C 9.34375 14.003906 8 12.660156 8 11.003906 C 8 10.554688 8.105469 10.113281 8.300781 9.707031 Z M 8.300781 9.707031 "/>
</svg>
