<?xml version="1.0" encoding="UTF-8"?>
<svg xmlns="http://www.w3.org/2000/svg" xmlns:xlink="http://www.w3.org/1999/xlink" width="22" height="22" viewBox="0 0 22 22">
<path fill-rule="nonzero" fill="rgb(100%, 100%, 100%)" fill-opacity="1" d="M 5 4 C 3.96875 4.0625 4 5 4 5 L 4 17 C 4 17 3.96875 17.9375 5 18 L 17 18 C 18 18 18 17 18 17 L 18 5 C 18 5 18 4 17 4 L 14 4 L 14 6 L 16 6 L 16 13 L 13.003906 13 C 13.003906 14.109375 12.113281 15 11.003906 15 C 9.894531 15 9.003906 14.109375 9.003906 13 L 6.003906 13 L 6.003906 6 L 8.003906 6 L 8.003906 4 Z M 9 4 L 9 8 L 7 8 L 11 13 L 15 8 L 13 8 L 13 4 Z M 9 4 "/>
</svg>
