<?xml version="1.0" encoding="UTF-8"?>
<svg xmlns="http://www.w3.org/2000/svg" xmlns:xlink="http://www.w3.org/1999/xlink" width="22" height="22" viewBox="0 0 22 22">
<path fill-rule="nonzero" fill="rgb(100%, 100%, 100%)" fill-opacity="1" d="M 11 4 C 7.132812 4 4 7.132812 4 11 C 4 14.863281 7.132812 18 11 18 C 14.867188 18 18 14.863281 18 11 C 18 7.132812 14.867188 4 11 4 Z M 8 8 C 8.554688 8 9 8.453125 9 9 C 9 9.550781 8.554688 10 8 10 C 7.445312 10 7 9.550781 7 9 C 7 8.453125 7.445312 8 8 8 Z M 14 8 C 14.554688 8 15 8.453125 15 9 C 15 9.550781 14.554688 10 14 10 C 13.445312 10 13 9.550781 13 9 C 13 8.453125 13.445312 8 14 8 Z M 7.007812 13 L 14.992188 13 C 14.050781 14.257812 12.570312 15 11 15 C 9.429688 15 7.949219 14.257812 7.007812 13 Z M 7.007812 13 "/>
</svg>
