<?xml version="1.0" encoding="UTF-8"?>
<svg xmlns="http://www.w3.org/2000/svg" xmlns:xlink="http://www.w3.org/1999/xlink" width="22" height="22" viewBox="0 0 22 22">
<path fill-rule="nonzero" fill="rgb(100%, 100%, 100%)" fill-opacity="1" d="M 7 3 C 6 3 6 4 6 4 L 6 18 C 6 18 6 19 7 19 L 15 19 C 16 19 16 18 16 18 L 16 4 C 16 4 16 3 15 3 Z M 8 6.003906 L 14 6.003906 L 14 15 L 8 15 Z M 11 16 C 11.550781 16 12 16.449219 12 17 C 12 17.550781 11.550781 18 11 18 C 10.449219 18 10 17.550781 10 17 C 10 16.449219 10.449219 16 11 16 Z M 11 16 "/>
</svg>
