<?xml version="1.0" encoding="UTF-8"?>
<svg xmlns="http://www.w3.org/2000/svg" xmlns:xlink="http://www.w3.org/1999/xlink" width="22" height="22" viewBox="0 0 22 22">
<path fill-rule="nonzero" fill="rgb(100%, 100%, 100%)" fill-opacity="1" d="M 6 6 L 6 8 L 16 8 L 16 6 Z M 6 10 L 6 12 L 12.6875 12 C 13.457031 11.382812 14.4375 11 15.5 11 C 15.671875 11 15.832031 11.042969 16 11.0625 L 16 10 Z M 6 14 L 6 16 L 11.0625 16 C 11.042969 15.832031 11 15.671875 11 15.5 C 11 14.96875 11.113281 14.472656 11.28125 14 Z M 6 14 "/>
<path fill-rule="nonzero" fill="rgb(32.156863%, 58.039216%, 88.627451%)" fill-opacity="1" d="M 15.5 12 C 13.566406 12 12 13.566406 12 15.5 C 12 17.433594 13.566406 19 15.5 19 C 17.433594 19 19 17.433594 19 15.5 C 19 13.566406 17.433594 12 15.5 12 Z M 13 15 L 18 15 L 18 16 L 13 16 Z M 13 15 "/>
</svg>
