<?xml version="1.0" encoding="UTF-8"?>
<svg xmlns="http://www.w3.org/2000/svg" xmlns:xlink="http://www.w3.org/1999/xlink" width="22" height="22" viewBox="0 0 22 22">
<path fill-rule="nonzero" fill="rgb(100%, 100%, 100%)" fill-opacity="1" d="M 7 5 L 7 7 L 14 7 C 15.679688 7 17 8.320312 17 10 C 17 11.679688 15.679688 13 14 13 L 13 13 L 13 11 L 8 14 L 13 17 L 13 15 L 14 15 C 16.75 15.101562 19 12.753906 19 10 C 19 7.246094 16.753906 5 14 5 Z M 5 12 C 3.894531 12 3 12.894531 3 14 C 3 15.105469 3.894531 16 5 16 C 6.105469 16 7 15.105469 7 14 C 7 12.894531 6.105469 12 5 12 Z M 5 12 "/>
</svg>
