<?xml version="1.0" encoding="UTF-8"?>
<svg xmlns="http://www.w3.org/2000/svg" xmlns:xlink="http://www.w3.org/1999/xlink" width="22" height="22" viewBox="0 0 22 22">
<path fill-rule="nonzero" fill="rgb(100%, 100%, 100%)" fill-opacity="1" d="M 5 3.992188 L 5 4 C 3.96875 4.0625 4 5 4 5 L 4 17 C 4 17 3.96875 17.9375 5 18 L 17 18 C 18 18 18 17 18 17 L 18 5 C 18 5 18 4 17 4 L 11.46875 4 L 11.78125 4.375 L 13.09375 6 L 16 6 L 16 13 L 13 13 C 13 14.109375 12.109375 15 11 15 C 9.890625 15 9 14.109375 9 13 L 6 13 L 6 6 L 8.90625 6 L 10.21875 4.375 L 10.53125 3.992188 Z M 11 5 L 7 10 L 9 10 L 9 12 L 13 12 L 13 10 L 15 10 Z M 11 5 "/>
</svg>
