<?xml version="1.0" encoding="UTF-8"?>
<svg xmlns="http://www.w3.org/2000/svg" xmlns:xlink="http://www.w3.org/1999/xlink" width="22" height="22" viewBox="0 0 22 22">
<path fill-rule="nonzero" fill="rgb(100%, 100%, 100%)" fill-opacity="1" d="M 11 4.003906 C 8.238281 4.003906 6 6.242188 6 9.003906 C 6 9.175781 6.015625 9.335938 6.03125 9.503906 C 6.046875 9.671875 6.066406 9.839844 6.09375 10.003906 C 6.667969 13.519531 9 16.003906 11 18.003906 C 13 16.003906 15.332031 13.519531 15.90625 10.003906 C 15.933594 9.839844 15.953125 9.671875 15.96875 9.503906 C 15.984375 9.335938 16 9.175781 16 9.003906 C 16 6.242188 13.761719 4.003906 11 4.003906 Z M 11 7.003906 C 12.105469 7.003906 13 7.898438 13 9.003906 C 13 10.109375 12.105469 11.003906 11 11.003906 C 9.894531 11.003906 9 10.109375 9 9.003906 C 9 7.898438 9.894531 7.003906 11 7.003906 Z M 11 7.003906 "/>
</svg>
