<?xml version="1.0" encoding="UTF-8"?>
<svg xmlns="http://www.w3.org/2000/svg" xmlns:xlink="http://www.w3.org/1999/xlink" width="22" height="22" viewBox="0 0 22 22">
<defs>
<filter id="filter-remove-color" x="0%" y="0%" width="100%" height="100%">
<feColorMatrix color-interpolation-filters="sRGB" values="0 0 0 0 1 0 0 0 0 1 0 0 0 0 1 0 0 0 1 0" />
</filter>
<mask id="mask-0">
<g filter="url(#filter-remove-color)">
<rect x="-2.2" y="-2.2" width="26.4" height="26.4" fill="rgb(0%, 0%, 0%)" fill-opacity="0.3"/>
</g>
</mask>
<clipPath id="clip-0">
<rect x="0" y="0" width="22" height="22"/>
</clipPath>
<g id="source-10795" clip-path="url(#clip-0)">
<path fill-rule="nonzero" fill="rgb(100%, 100%, 100%)" fill-opacity="1" d="M 7.800781 3.769531 C 6.957031 3.820312 5.992188 4.085938 4.832031 4.664062 L 4.496094 4.832031 L 4.664062 5.167969 C 5.390625 6.625 5.554688 7.667969 5.46875 8.523438 C 5.386719 9.382812 5.039062 10.082031 4.664062 10.832031 C 4.289062 11.582031 3.886719 12.382812 3.78125 13.398438 C 3.679688 14.417969 3.890625 15.625 4.664062 17.167969 L 4.832031 17.503906 L 5.167969 17.335938 C 6.625 16.609375 7.667969 16.445312 8.523438 16.527344 C 9.382812 16.613281 10.082031 16.960938 10.832031 17.335938 C 11.582031 17.710938 12.382812 18.113281 13.398438 18.214844 C 14.417969 18.320312 15.625 18.109375 17.167969 17.335938 L 17.503906 17.167969 L 17.335938 16.832031 C 16.609375 15.375 16.445312 14.332031 16.53125 13.472656 C 16.613281 12.617188 16.960938 11.917969 17.335938 11.167969 C 17.710938 10.417969 18.113281 9.617188 18.21875 8.597656 C 18.320312 7.582031 18.109375 6.375 17.335938 4.832031 L 17.167969 4.496094 L 16.832031 4.664062 C 15.375 5.390625 14.332031 5.554688 13.476562 5.46875 C 12.617188 5.382812 11.917969 5.039062 11.167969 4.664062 C 10.417969 4.289062 9.617188 3.882812 8.601562 3.78125 C 8.34375 3.757812 8.078125 3.753906 7.800781 3.769531 Z M 7.800781 3.769531 "/>
</g>
</defs>
<g mask="url(#mask-0)">
<use xlink:href="#source-10795"/>
</g>
<path fill-rule="nonzero" fill="rgb(100%, 100%, 100%)" fill-opacity="1" d="M 3 3 L 3 6 L 6 6 L 6 3 Z M 16 3 L 16 6 L 19 6 L 19 3 Z M 3 16 L 3 19 L 6 19 L 6 16 Z M 16 16 L 16 19 L 19 19 L 19 16 Z M 16 16 "/>
</svg>
