<?xml version="1.0" encoding="UTF-8"?>
<svg xmlns="http://www.w3.org/2000/svg" xmlns:xlink="http://www.w3.org/1999/xlink" width="22" height="22" viewBox="0 0 22 22">
<path fill-rule="nonzero" fill="rgb(100%, 100%, 100%)" fill-opacity="1" d="M 11 3 C 9.339844 3 8 4.339844 8 6 L 8 11.003906 C 8 12.664062 9.339844 14 11 14 C 12.660156 14 14 12.664062 14 11.003906 L 14 6 C 14 4.339844 12.660156 3 11 3 Z M 5 10.007812 L 5 11.003906 C 5 13.96875 7.167969 16.429688 10 16.910156 L 10 19 L 12 19 L 12 16.910156 C 14.832031 16.429688 17 13.96875 17 11.003906 L 17 10.007812 L 15 10.007812 L 15 11.003906 C 15 13.238281 13.234375 15 11 15 C 8.765625 15 7 13.238281 7 11.003906 L 7 10.007812 Z M 5 10.007812 "/>
</svg>
