<?xml version="1.0" encoding="UTF-8"?>
<svg xmlns="http://www.w3.org/2000/svg" xmlns:xlink="http://www.w3.org/1999/xlink" width="22" height="22" viewBox="0 0 22 22">
<defs>
<filter id="filter-remove-color" x="0%" y="0%" width="100%" height="100%">
<feColorMatrix color-interpolation-filters="sRGB" values="0 0 0 0 1 0 0 0 0 1 0 0 0 0 1 0 0 0 1 0" />
</filter>
<mask id="mask-0">
<g filter="url(#filter-remove-color)">
<rect x="-2.2" y="-2.2" width="26.4" height="26.4" fill="rgb(0%, 0%, 0%)" fill-opacity="0.3"/>
</g>
</mask>
<clipPath id="clip-0">
<rect x="0" y="0" width="22" height="22"/>
</clipPath>
<g id="source-7317" clip-path="url(#clip-0)">
<path fill-rule="nonzero" fill="rgb(100%, 100%, 100%)" fill-opacity="1" d="M 11 3 C 9.339844 3 8 4.339844 8 6 L 8 11 C 8 12.664062 9.339844 14 11 14 C 12.660156 14 14 12.664062 14 11 L 14 6 C 14 4.339844 12.660156 3 11 3 Z M 5 10.003906 L 5 11 C 5 13.96875 7.167969 16.429688 10 16.90625 L 10 19 L 12 19 L 12 16.90625 C 14.832031 16.429688 17 13.96875 17 11 L 17 10.003906 L 15 10.003906 L 15 11 C 15 13.234375 13.234375 15 11 15 C 8.765625 15 7 13.234375 7 11 L 7 10.003906 Z M 5 10.003906 "/>
</g>
</defs>
<g mask="url(#mask-0)">
<use xlink:href="#source-7317"/>
</g>
</svg>
