<?xml version="1.0" encoding="UTF-8"?>
<svg xmlns="http://www.w3.org/2000/svg" xmlns:xlink="http://www.w3.org/1999/xlink" width="22" height="22" viewBox="0 0 22 22">
<path fill-rule="nonzero" fill="rgb(100%, 100%, 100%)" fill-opacity="1" d="M 16 3 L 16 5 L 3 5 L 3 6 L 16 6 L 16 7.652344 C 15.882812 7.589844 15.761719 7.539062 15.636719 7.5 L 15.628906 7.496094 C 14.570312 7.179688 13.457031 7.777344 13.140625 8.832031 C 13.121094 8.886719 13.109375 8.945312 13.097656 9 L 13 9 L 13 7 L 12 7 L 12 9 L 3 9 L 3 10 L 12 10 L 12 11.652344 C 11.882812 11.589844 11.761719 11.539062 11.636719 11.5 L 11.628906 11.496094 C 10.570312 11.179688 9.457031 11.777344 9.140625 12.832031 C 9.121094 12.886719 9.109375 12.945312 9.097656 13 L 9 13 L 9 11 L 8 11 L 8 13 L 3 13 L 3 14 L 8 14 L 8 15.652344 C 7.882812 15.589844 7.761719 15.539062 7.636719 15.5 L 7.628906 15.496094 C 6.570312 15.179688 5.457031 15.777344 5.140625 16.832031 C 5.121094 16.886719 5.109375 16.945312 5.097656 17 L 3 17 L 3 18 L 5.144531 18 C 5.339844 18.632812 5.835938 19.128906 6.46875 19.320312 C 7.523438 19.640625 8.636719 19.050781 8.960938 18 L 19 18 L 19 17 L 9.003906 17 C 9.003906 16.992188 9 16.988281 9 16.980469 L 9 14 L 9.144531 14 C 9.339844 14.632812 9.839844 15.128906 10.472656 15.320312 C 11.523438 15.640625 12.636719 15.050781 12.960938 14 L 19 14 L 19 13 L 13.003906 13 C 13.003906 12.992188 13 12.988281 13 12.980469 L 13 10 L 13.144531 10 C 13.339844 10.632812 13.839844 11.128906 14.472656 11.320312 C 15.523438 11.640625 16.636719 11.050781 16.960938 10 L 19 10 L 19 9 L 17.003906 9 C 17.003906 8.992188 17 8.988281 17 8.980469 L 17 6 L 19 6 L 19 5 L 17 5 L 17 3 Z M 15.058594 8.457031 C 15.144531 8.457031 15.230469 8.46875 15.3125 8.492188 L 15.339844 8.5 C 15.851562 8.65625 16.144531 9.199219 15.988281 9.71875 C 15.835938 10.234375 15.292969 10.527344 14.777344 10.378906 C 14.261719 10.226562 13.960938 9.6875 14.109375 9.167969 C 14.230469 8.746094 14.617188 8.453125 15.058594 8.457031 Z M 11.058594 12.457031 C 11.144531 12.457031 11.230469 12.46875 11.3125 12.492188 L 11.339844 12.5 C 11.851562 12.65625 12.144531 13.199219 11.988281 13.71875 C 11.835938 14.234375 11.292969 14.527344 10.777344 14.378906 C 10.261719 14.226562 9.960938 13.6875 10.109375 13.167969 C 10.230469 12.746094 10.617188 12.453125 11.058594 12.457031 Z M 7.054688 16.457031 C 7.144531 16.457031 7.230469 16.46875 7.3125 16.492188 L 7.339844 16.5 C 7.851562 16.65625 8.144531 17.199219 7.988281 17.71875 C 7.835938 18.234375 7.292969 18.527344 6.777344 18.378906 C 6.261719 18.226562 5.960938 17.6875 6.109375 17.167969 C 6.230469 16.746094 6.617188 16.453125 7.054688 16.457031 Z M 7.054688 16.457031 "/>
</svg>
