<?xml version="1.0" encoding="UTF-8"?>
<svg xmlns="http://www.w3.org/2000/svg" xmlns:xlink="http://www.w3.org/1999/xlink" width="22" height="22" viewBox="0 0 22 22">
<path fill-rule="nonzero" fill="rgb(100%, 100%, 100%)" fill-opacity="1" d="M 8 4 L 8 14 L 9 14 L 9 6 L 16 6 L 16 14 L 17 14 L 17 4 Z M 5.085938 14.300781 L 4.378906 15.007812 L 5.792969 16.421875 L 4.378906 17.835938 L 5.085938 18.542969 L 6.5 17.128906 L 7.914062 18.542969 L 8.621094 17.835938 L 7.207031 16.421875 L 8.621094 15.007812 L 7.914062 14.300781 L 6.5 15.714844 Z M 13.085938 14.300781 L 12.378906 15.007812 L 13.792969 16.421875 L 12.378906 17.835938 L 13.085938 18.542969 L 14.5 17.128906 L 15.914062 18.542969 L 16.621094 17.835938 L 15.207031 16.421875 L 16.621094 15.007812 L 15.914062 14.300781 L 14.5 15.714844 Z M 13.085938 14.300781 "/>
</svg>
