<?xml version="1.0" encoding="UTF-8"?>
<svg xmlns="http://www.w3.org/2000/svg" xmlns:xlink="http://www.w3.org/1999/xlink" width="22" height="22" viewBox="0 0 22 22">
<path fill-rule="nonzero" fill="rgb(100%, 100%, 100%)" fill-opacity="1" d="M 12.011719 3.007812 L 12.011719 5.007812 L 3.011719 5.007812 L 3.011719 6.007812 L 12.011719 6.007812 L 12.011719 7.785156 C 11.898438 7.722656 11.773438 7.671875 11.648438 7.632812 L 11.640625 7.628906 C 10.585938 7.3125 9.472656 7.910156 9.152344 8.964844 C 9.148438 8.980469 9.144531 8.992188 9.140625 9.007812 L 3.011719 9.007812 L 3.011719 10.007812 L 9.125 10.007812 C 9.289062 10.695312 9.804688 11.246094 10.484375 11.453125 C 10.585938 11.484375 10.6875 11.507812 10.792969 11.519531 C 10.019531 11.625 9.378906 12.171875 9.152344 12.917969 C 9.144531 12.949219 9.136719 12.976562 9.128906 13.007812 L 3.011719 13.007812 L 3.011719 14.007812 L 9.132812 14.007812 C 9.3125 14.675781 9.824219 15.207031 10.484375 15.40625 C 10.585938 15.4375 10.6875 15.460938 10.789062 15.472656 C 10.019531 15.578125 9.378906 16.125 9.152344 16.871094 C 9.136719 16.917969 9.125 16.960938 9.117188 17.007812 L 3.011719 17.007812 L 3.011719 18.007812 L 9.144531 18.007812 C 9.335938 18.65625 9.839844 19.164062 10.484375 19.363281 C 11.539062 19.683594 12.65625 19.085938 12.976562 18.03125 C 12.976562 18.023438 12.980469 18.015625 12.980469 18.007812 L 19.011719 18.007812 L 19.011719 17.007812 L 13.011719 17.007812 L 13.011719 14.007812 L 19.011719 14.007812 L 19.011719 13.007812 L 13.011719 13.007812 L 13.011719 10.007812 L 19.011719 10.007812 L 19.011719 9.007812 L 13.011719 9.007812 L 13.011719 6.007812 L 19.011719 6.007812 L 19.011719 5.007812 L 13.011719 5.007812 L 13.011719 3.007812 Z M 11.070312 8.5625 C 11.15625 8.5625 11.242188 8.574219 11.324219 8.597656 L 11.351562 8.605469 C 11.867188 8.761719 12.15625 9.304688 12.003906 9.820312 C 11.851562 10.335938 11.308594 10.632812 10.789062 10.484375 C 10.273438 10.332031 9.976562 9.792969 10.121094 9.273438 C 10.242188 8.851562 10.628906 8.558594 11.070312 8.5625 Z M 12.011719 11.296875 L 12.011719 11.738281 C 11.898438 11.675781 11.773438 11.625 11.648438 11.585938 L 11.640625 11.582031 C 11.542969 11.554688 11.441406 11.53125 11.339844 11.519531 C 11.574219 11.484375 11.804688 11.410156 12.011719 11.296875 Z M 11.070312 12.515625 C 11.15625 12.515625 11.242188 12.527344 11.324219 12.550781 L 11.351562 12.558594 C 11.867188 12.71875 12.15625 13.261719 12.003906 13.777344 C 11.847656 14.292969 11.308594 14.585938 10.789062 14.4375 C 10.273438 14.285156 9.976562 13.746094 10.121094 13.226562 C 10.242188 12.804688 10.628906 12.515625 11.070312 12.515625 Z M 12.011719 15.253906 L 12.011719 15.695312 C 11.898438 15.628906 11.773438 15.578125 11.648438 15.539062 L 11.640625 15.539062 C 11.539062 15.507812 11.441406 15.488281 11.335938 15.472656 C 11.574219 15.441406 11.804688 15.367188 12.011719 15.253906 Z M 11.070312 16.472656 C 11.15625 16.472656 11.242188 16.484375 11.324219 16.507812 L 11.351562 16.511719 C 11.867188 16.667969 12.160156 17.214844 12.003906 17.730469 C 11.847656 18.246094 11.308594 18.542969 10.789062 18.390625 C 10.273438 18.238281 9.976562 17.699219 10.121094 17.183594 C 10.242188 16.757812 10.628906 16.46875 11.070312 16.472656 Z M 11.070312 16.472656 "/>
</svg>
