<?xml version="1.0" encoding="UTF-8"?>
<svg xmlns="http://www.w3.org/2000/svg" xmlns:xlink="http://www.w3.org/1999/xlink" width="22" height="22" viewBox="0 0 22 22">
<path fill-rule="nonzero" fill="rgb(100%, 100%, 100%)" fill-opacity="1" d="M 10.5 4 C 6.359375 4 3 7.359375 3 11.5 C 3 15.640625 6.359375 19 10.5 19 C 14.640625 19 18 15.640625 18 11.5 C 18 7.359375 14.640625 4 10.5 4 Z M 6 7 L 10 7 L 10 12 L 7 12 L 7 15 L 10 15 L 10 16 L 6 16 L 6 11 L 9 11 L 9 8 L 6 8 Z M 11 7 L 12 7 L 12 11 L 14 11 L 14 7 L 15 7 L 15 16 L 14 16 L 14 12 L 11 12 Z M 11 7 "/>
</svg>
