<?xml version="1.0" encoding="UTF-8"?>
<svg xmlns="http://www.w3.org/2000/svg" xmlns:xlink="http://www.w3.org/1999/xlink" width="22" height="22" viewBox="0 0 22 22">
<path fill-rule="nonzero" fill="rgb(100%, 100%, 100%)" fill-opacity="1" d="M 11 4 C 10.734375 4 10.480469 4.105469 10.292969 4.292969 C 10.105469 4.480469 10 4.734375 10 5 L 10 5.011719 C 8.234375 5.464844 7.003906 7.179688 7 9 C 7 9 7 14 5.339844 14.621094 C 5.324219 14.632812 5.316406 14.652344 5.300781 14.664062 C 5.238281 14.714844 5.183594 14.773438 5.140625 14.839844 C 5.121094 14.867188 5.101562 14.886719 5.085938 14.914062 C 5.03125 15.019531 5 15.132812 5 15.25 C 5 15.664062 5.335938 16 5.75 16 L 16.25 16 C 16.664062 16 17 15.664062 17 15.25 C 17 15.132812 16.96875 15.019531 16.914062 14.914062 C 16.898438 14.886719 16.878906 14.867188 16.863281 14.839844 C 16.816406 14.773438 16.761719 14.714844 16.699219 14.664062 C 16.683594 14.652344 16.675781 14.632812 16.660156 14.621094 C 15 14 15 9 15 9 C 14.996094 7.175781 13.765625 5.464844 12 5.011719 L 12 5 C 12 4.734375 11.894531 4.480469 11.707031 4.292969 C 11.519531 4.105469 11.265625 4 11 4 Z M 9.066406 17 C 9.175781 17.429688 9.425781 17.808594 9.777344 18.082031 C 10.128906 18.351562 10.558594 18.5 11 18.5 C 11.441406 18.5 11.875 18.351562 12.222656 18.082031 C 12.574219 17.808594 12.824219 17.429688 12.9375 17 Z M 9.066406 17 "/>
<path fill-rule="nonzero" fill="rgb(85.490196%, 26.666667%, 32.54902%)" fill-opacity="1" d="M 3 3.707031 L 18.292969 19 L 19 18.292969 L 3.707031 3 Z M 3 3.707031 "/>
</svg>
