<?xml version="1.0" encoding="UTF-8"?>
<svg xmlns="http://www.w3.org/2000/svg" xmlns:xlink="http://www.w3.org/1999/xlink" width="22" height="22" viewBox="0 0 22 22">
<path fill-rule="nonzero" fill="rgb(100%, 100%, 100%)" fill-opacity="1" d="M 15.035156 4.207031 C 14.941406 4.207031 14.878906 4.21875 14.878906 4.21875 L 5.039062 5.96875 C 4.050781 6.140625 4.226562 7.125 4.226562 7.125 L 4.726562 10 L 16.910156 10 L 16.035156 5.03125 C 15.90625 4.292969 15.320312 4.203125 15.035156 4.207031 Z M 4 11 L 4 12 L 5 12 L 5 11 Z M 6 11 L 6 12 L 7 12 L 7 11 Z M 8 11 L 8 12 L 9 12 L 9 11 Z M 10 11 L 10 12 L 11 12 L 11 11 Z M 12 11 L 12 12 L 13 12 L 13 11 Z M 14 11 L 14 12 L 15 12 L 15 11 Z M 16 11 L 16 12 L 17 12 L 17 11 Z M 18 11 L 18 12 L 19 12 L 19 11 Z M 5.25 13 L 5.96875 16.96875 C 6.140625 17.953125 7.125 17.78125 7.125 17.78125 L 16.96875 16.03125 C 16.96875 16.03125 17.953125 15.859375 17.78125 14.875 L 17.441406 13 Z M 5.25 13 "/>
</svg>
