<?xml version="1.0" encoding="UTF-8"?>
<svg xmlns="http://www.w3.org/2000/svg" xmlns:xlink="http://www.w3.org/1999/xlink" width="22" height="22" viewBox="0 0 22 22">
<path fill-rule="nonzero" fill="rgb(100%, 100%, 100%)" fill-opacity="1" d="M 7.5 7 C 5.015625 7 3 9.015625 3 11.5 C 3 13.984375 5.015625 16 7.5 16 C 9.40625 15.996094 11.101562 14.796875 11.734375 13 L 15 12.996094 L 15 14.996094 L 18 14.996094 L 18 12.992188 L 19 12.996094 L 19 9.996094 L 11.734375 10 C 11.101562 8.203125 9.40625 7.003906 7.5 7 Z M 7.5 10 C 8.328125 10 9 10.671875 9 11.5 C 9 12.328125 8.328125 13 7.5 13 C 6.671875 13 6 12.328125 6 11.5 C 6 10.671875 6.671875 10 7.5 10 Z M 7.5 10 "/>
</svg>
