<?xml version="1.0" encoding="UTF-8"?>
<svg xmlns="http://www.w3.org/2000/svg" xmlns:xlink="http://www.w3.org/1999/xlink" width="22" height="22" viewBox="0 0 22 22">
<path fill-rule="nonzero" fill="rgb(100%, 100%, 100%)" fill-opacity="1" d="M 15 3.003906 C 13.34375 3.003906 12 4.347656 12 6.003906 C 12 6.234375 12.042969 6.445312 12.09375 6.660156 L 8.875 8.660156 C 8.363281 8.25 7.710938 8.003906 7 8.003906 C 5.34375 8.003906 4 9.347656 4 11.003906 C 4 12.660156 5.34375 14.003906 7 14.003906 C 7.710938 14.003906 8.363281 13.757812 8.875 13.347656 L 12.09375 15.347656 C 12.042969 15.5625 12 15.773438 12 16.003906 C 12 17.660156 13.34375 19.003906 15 19.003906 C 16.65625 19.003906 18 17.660156 18 16.003906 C 18 14.347656 16.65625 13.003906 15 13.003906 C 14.289062 13.003906 13.636719 13.25 13.125 13.660156 L 9.90625 11.660156 C 9.957031 11.445312 10 11.234375 10 11.003906 C 10 10.773438 9.957031 10.5625 9.90625 10.347656 L 13.125 8.347656 C 13.636719 8.757812 14.289062 9.003906 15 9.003906 C 16.65625 9.003906 18 7.660156 18 6.003906 C 18 4.347656 16.65625 3.003906 15 3.003906 Z M 15 3.003906 "/>
</svg>
