<?xml version="1.0" encoding="UTF-8"?>
<svg xmlns="http://www.w3.org/2000/svg" xmlns:xlink="http://www.w3.org/1999/xlink" width="22" height="22" viewBox="0 0 22 22">
<path fill-rule="nonzero" fill="rgb(100%, 100%, 100%)" fill-opacity="1" d="M 4 4 L 4 6 L 18 6 L 18 4 Z M 12 8 L 12 18 L 14 18 L 14 15 L 16 15 L 16 18 L 18 18 L 18 8 Z M 4 8.003906 L 4 10.003906 L 10 10.003906 L 10 8.003906 Z M 14 10 L 16 10 L 16 13 L 14 13 Z M 4 12.003906 L 4 14.003906 L 10 14.003906 L 10 12.003906 Z M 4 16 L 4 18 L 10 18 L 10 16 Z M 4 16 "/>
</svg>
