<?xml version="1.0" encoding="UTF-8"?>
<svg xmlns="http://www.w3.org/2000/svg" xmlns:xlink="http://www.w3.org/1999/xlink" width="22" height="22" viewBox="0 0 22 22">
<path fill-rule="nonzero" fill="rgb(100%, 100%, 100%)" fill-opacity="1" d="M 6 4.003906 C 6 4.003906 5 4.003906 5 5.003906 L 5 14.003906 C 5 14.003906 5 15.003906 6 15.003906 L 7 15.003906 L 7 6.003906 L 15 6.003906 L 15 5.003906 C 15 4.003906 14 4.003906 14 4.003906 Z M 9 7.003906 C 9 7.003906 8 7.003906 8 8.003906 L 8 18.003906 C 8 19.003906 9 19.003906 9 19.003906 L 17 19.003906 C 17 19.003906 18 19.003906 18 18 L 18 8.003906 C 18 7.003906 17 7.003906 17 7.003906 Z M 10 9.003906 L 16 9.003906 L 16 17.003906 L 10 17.003906 Z M 10 9.003906 "/>
</svg>
