<?xml version="1.0" encoding="UTF-8"?>
<svg xmlns="http://www.w3.org/2000/svg" xmlns:xlink="http://www.w3.org/1999/xlink" width="22" height="22" viewBox="0 0 22 22">
<path fill-rule="nonzero" fill="rgb(100%, 100%, 100%)" fill-opacity="1" d="M 11 3 C 8.789062 3 7 4.789062 7 7 C 7 9.210938 8.789062 11 11 11 C 13.210938 11 15 9.210938 15 7 C 15 4.789062 13.210938 3 11 3 Z M 11 11.984375 C 6.972656 11.992188 3.503906 15.003906 3 19 L 12.714844 19 C 11.679688 18.171875 11 16.917969 11 15.5 C 11 14.097656 11.664062 12.839844 12.683594 12.015625 C 11.941406 12 11.1875 11.988281 11 11.984375 Z M 15.5 12 C 13.566406 12 12 13.566406 12 15.5 C 12 17.433594 13.566406 19 15.5 19 C 17.433594 19 19 17.433594 19 15.5 C 19 13.566406 17.433594 12 15.5 12 Z M 15 13 L 16 13 L 16 14 L 15 14 Z M 15 15 L 16 15 L 16 18 L 15 18 Z M 15 15 "/>
</svg>
