<?xml version="1.0" encoding="UTF-8"?>
<svg xmlns="http://www.w3.org/2000/svg" xmlns:xlink="http://www.w3.org/1999/xlink" width="22" height="22" viewBox="0 0 22 22">
<path fill-rule="nonzero" fill="rgb(100%, 100%, 100%)" fill-opacity="1" d="M 6 4.03125 C 5 4.03125 5 5.03125 5 5.03125 L 5 17.03125 C 5 17.03125 5 18.03125 6 18.03125 L 16 18.03125 C 16 18.03125 17 18.03125 17 17.03125 L 17 5.03125 C 17 5.03125 17 4.03125 16 4.03125 Z M 11 6.03125 C 13.210938 6.03125 15 7.820312 15 10.03125 C 15 12.238281 13.210938 14.03125 11 14.03125 L 7 14.03125 L 7 10.03125 C 7 7.820312 8.789062 6.03125 11 6.03125 Z M 11 8.03125 C 9.894531 8.03125 9 8.925781 9 10.03125 C 9 11.132812 9.894531 12.03125 11 12.03125 C 12.105469 12.03125 13 11.132812 13 10.03125 C 13 8.925781 12.105469 8.03125 11 8.03125 Z M 11 8.03125 "/>
</svg>
