<?xml version="1.0" encoding="UTF-8"?>
<svg xmlns="http://www.w3.org/2000/svg" xmlns:xlink="http://www.w3.org/1999/xlink" width="22" height="22" viewBox="0 0 22 22">
<path fill-rule="nonzero" fill="rgb(100%, 100%, 100%)" fill-opacity="1" d="M 10 15.5 C 10 16.878906 8.878906 18 7.5 18 C 6.121094 18 5 16.878906 5 15.5 C 5 14.121094 6.121094 13 7.5 13 C 8.878906 13 10 14.121094 10 15.5 Z M 10 15.5 "/>
<path fill-rule="nonzero" fill="rgb(100%, 100%, 100%)" fill-opacity="1" d="M 10 6.5 C 10 7.878906 8.878906 9 7.5 9 C 6.121094 9 5 7.878906 5 6.5 C 5 5.121094 6.121094 4 7.5 4 C 8.878906 4 10 5.121094 10 6.5 Z M 10 6.5 "/>
<path fill-rule="nonzero" fill="rgb(100%, 100%, 100%)" fill-opacity="1" d="M 17 13.5 C 17 14.878906 15.878906 16 14.5 16 C 13.121094 16 12 14.878906 12 13.5 C 12 12.121094 13.121094 11 14.5 11 C 15.878906 11 17 12.121094 17 13.5 Z M 17 13.5 "/>
<path fill="none" stroke-width="1" stroke-linecap="butt" stroke-linejoin="miter" stroke="rgb(100%, 100%, 100%)" stroke-opacity="1" stroke-miterlimit="4" d="M 7.5 15.5 L 7.5 6.5 L 14.5 13.5 "/>
</svg>
