<?xml version="1.0" encoding="UTF-8"?>
<svg xmlns="http://www.w3.org/2000/svg" xmlns:xlink="http://www.w3.org/1999/xlink" width="22" height="22" viewBox="0 0 22 22">
<path fill-rule="nonzero" fill="rgb(100%, 100%, 100%)" fill-opacity="1" d="M 12 4.003906 L 13.21875 5.910156 L 8.8125 8.660156 C 8.296875 8.25 7.660156 8.003906 7 8.003906 C 5.429688 8.003906 4 9.433594 4 11.003906 C 4 12.574219 5.429688 14.003906 7 14.003906 C 7.660156 14.003906 8.296875 13.726562 8.8125 13.316406 L 13.21875 16.09375 L 12 18 L 18 18 L 15.5 12.5 L 14.28125 14.4375 L 9.90625 11.65625 C 9.960938 11.445312 10 11.226562 10 11 C 10 10.777344 9.960938 10.558594 9.90625 10.34375 L 14.28125 7.566406 L 15.5 9.503906 L 18 4.003906 Z M 12 4.003906 "/>
</svg>
