<?xml version="1.0" encoding="UTF-8"?>
<svg xmlns="http://www.w3.org/2000/svg" xmlns:xlink="http://www.w3.org/1999/xlink" width="22" height="22" viewBox="0 0 22 22">
<path fill-rule="nonzero" fill="rgb(100%, 100%, 100%)" fill-opacity="1" d="M 6 5.03125 L 6 6.03125 L 7 6.03125 L 7 5.03125 Z M 6 7.03125 L 6 8.03125 L 7 8.03125 L 7 7.03125 Z M 6 9.03125 L 6 10.03125 L 7 10.03125 L 7 9.03125 Z M 6 11.03125 L 6 12.03125 L 7 12.03125 L 7 11.03125 Z M 6 13.03125 L 6 14.03125 L 7 14.03125 L 7 13.03125 Z M 4 15.03125 L 4 16.03125 L 5 16.03125 L 5 15.03125 Z M 6 15.03125 L 6 16.03125 L 7 16.03125 L 7 15.03125 Z M 8 15.03125 L 8 16.03125 L 9 16.03125 L 9 15.03125 Z M 10 15.03125 L 10 16.03125 L 11 16.03125 L 11 15.03125 Z M 12 15.03125 L 12 16.03125 L 13 16.03125 L 13 15.03125 Z M 14 15.03125 L 14 16.03125 L 15 16.03125 L 15 15.03125 Z M 16 15.03125 L 16 16.03125 L 17 16.03125 L 17 15.03125 Z M 6 17.03125 L 6 18.03125 L 7 18.03125 L 7 17.03125 Z M 6 17.03125 "/>
</svg>
