<?xml version="1.0" encoding="UTF-8"?>
<svg xmlns="http://www.w3.org/2000/svg" xmlns:xlink="http://www.w3.org/1999/xlink" width="22" height="22" viewBox="0 0 22 22">
<path fill-rule="nonzero" fill="rgb(100%, 100%, 100%)" fill-opacity="1" d="M 11 3 C 6.582031 3 3 6.582031 3 11 C 3 15.417969 6.582031 19 11 19 C 15.417969 19 19 15.417969 19 11 C 19 6.582031 15.417969 3 11 3 Z M 9 6 L 15 6 L 15 14 C 15 15.105469 14.105469 16 13 16 C 11.894531 16 11 15.105469 11 14 C 11 12.894531 11.894531 12 13 12 C 13.351562 12 13.695312 12.09375 14 12.269531 L 14 8 L 10 8 L 10 14 C 10 15.105469 9.105469 16 8 16 C 6.894531 16 6 15.105469 6 14 C 6 12.894531 6.894531 12 8 12 C 8.351562 12 8.695312 12.09375 9 12.269531 Z M 9 6 "/>
</svg>
