<?xml version="1.0" encoding="UTF-8"?>
<svg xmlns="http://www.w3.org/2000/svg" xmlns:xlink="http://www.w3.org/1999/xlink" width="22" height="22" viewBox="0 0 22 22">
<path fill-rule="nonzero" fill="rgb(100%, 100%, 100%)" fill-opacity="1" d="M 6 4.007812 C 4.890625 4.007812 4 4.902344 4 6.007812 L 4 16.011719 C 4 17.117188 4.890625 18.011719 6 18.011719 L 16 18.011719 C 17.109375 18.011719 18 17.117188 18 16.011719 L 18 6.007812 C 18 4.902344 17.109375 4.007812 16 4.007812 Z M 7 6 L 15 6 L 15 8 L 7 8 Z M 7 10 L 15 10 L 15 12 L 7 12 Z M 7 14 L 12 14 L 12 16 L 7 16 Z M 7 14 "/>
</svg>
