<?xml version="1.0" encoding="UTF-8"?>
<svg xmlns="http://www.w3.org/2000/svg" xmlns:xlink="http://www.w3.org/1999/xlink" width="22" height="22" viewBox="0 0 22 22">
<path fill-rule="nonzero" fill="rgb(100%, 100%, 100%)" fill-opacity="1" d="M 11 3 C 6.582031 3 3 6.582031 3 11 C 3 15.417969 6.582031 19 11 19 C 15.417969 19 19 15.417969 19 11 C 19 6.582031 15.417969 3 11 3 Z M 12.546875 4.910156 C 12.546875 10.636719 16.9375 11.464844 15.816406 14.726562 C 15.179688 16.585938 13.621094 18 10.90625 18 C 10.898438 18 10.890625 18 10.882812 18 C 12.226562 17.992188 13 17.289062 13.316406 16.363281 C 13.875 14.734375 11.679688 14.320312 11.679688 11.453125 C 9.632812 12.273438 8.410156 14.191406 8.410156 15.546875 C 8.410156 16.71875 9.230469 17.695312 10.328125 17.9375 C 7.894531 17.648438 6 15.601562 6 13.09375 C 6 10.378906 8.453125 6.546875 12.546875 4.910156 Z M 12.546875 4.910156 "/>
</svg>
