<?xml version="1.0" encoding="UTF-8"?>
<svg xmlns="http://www.w3.org/2000/svg" xmlns:xlink="http://www.w3.org/1999/xlink" width="22" height="22" viewBox="0 0 22 22">
<path fill-rule="nonzero" fill="rgb(100%, 100%, 100%)" fill-opacity="1" d="M 6 4 L 6 6 L 16 6 L 16 4 Z M 5 6 C 3.890625 6 3 6.890625 3 8 L 3 16 C 3 17.109375 3.890625 18 5 18 L 11 18 L 11 13 L 5 10 Z M 17 6 L 17 10 L 15 11 L 18 11 C 18.363281 11 18.703125 11.109375 19 11.28125 L 19 8 C 19 6.890625 18.109375 6 17 6 Z M 6 8 L 6 10 L 16 10 L 16 8 Z M 13 12 C 12.445312 12 12 12.445312 12 13 L 12 18 C 12 18.554688 12.445312 19 13 19 L 18 19 C 18.554688 19 19 18.554688 19 18 L 19 13 C 19 12.445312 18.554688 12 18 12 Z M 13 13 L 14 13 L 14 14 L 15 14 L 15 15 L 16 15 L 16 14 L 17 14 L 17 13 L 18 13 L 18 18 L 17 18 L 17 15 L 16 15 L 16 16 L 15 16 L 15 15 L 14 15 L 14 18 L 13 18 Z M 13 13 "/>
</svg>
