<?xml version="1.0" encoding="UTF-8"?>
<svg xmlns="http://www.w3.org/2000/svg" xmlns:xlink="http://www.w3.org/1999/xlink" width="22" height="22" viewBox="0 0 22 22">
<path fill-rule="nonzero" fill="rgb(32.156863%, 58.039216%, 88.627451%)" fill-opacity="1" d="M 11 4.003906 C 7.132812 4.003906 4 7.136719 4 11.003906 C 4 14.871094 7.132812 18.003906 11 18.003906 C 14.867188 18.003906 18 14.871094 18 11.003906 C 18 7.136719 14.867188 4.003906 11 4.003906 Z M 10 7.003906 L 12 7.003906 L 12 12.003906 L 10 12.003906 Z M 11 12.753906 C 11.691406 12.753906 12.25 13.3125 12.25 14.003906 C 12.25 14.695312 11.691406 15.253906 11 15.253906 C 10.308594 15.253906 9.75 14.695312 9.75 14.003906 C 9.75 13.3125 10.308594 12.753906 11 12.753906 Z M 11 12.753906 "/>
</svg>
