<?xml version="1.0" encoding="UTF-8"?>
<svg xmlns="http://www.w3.org/2000/svg" xmlns:xlink="http://www.w3.org/1999/xlink" width="22" height="22" viewBox="0 0 22 22">
<path fill-rule="nonzero" fill="rgb(100%, 100%, 100%)" fill-opacity="1" d="M 11 3 C 9.894531 3 9 3.894531 9 5 L 5 5 C 4.445312 5 4 5.445312 4 6 L 4 17 C 4 17.554688 4.445312 18 5 18 L 14 18 L 14 15 L 7 15 L 7 14 L 14 14 L 14 12 L 7 12 L 7 11 L 14 11 L 14 9 L 7 9 L 7 8 L 15 8 L 15 9 L 18 9 L 18 6 C 18 5.445312 17.554688 5 17 5 L 13 5 C 13 3.894531 12.105469 3 11 3 Z M 11 4 C 11.550781 4 12 4.449219 12 5 C 12 5.550781 11.550781 6 11 6 C 10.449219 6 10 5.550781 10 5 C 10 4.449219 10.449219 4 11 4 Z M 11 4 "/>
<path fill-rule="nonzero" fill="rgb(32.156863%, 58.039216%, 88.627451%)" fill-opacity="1" d="M 15 10 L 15 14 L 15.25 16 L 16.75 16 L 17 14 L 17 10 Z M 15 17 L 15 19 L 17 19 L 17 17 Z M 15 17 "/>
</svg>
