<?xml version="1.0" encoding="UTF-8"?>
<svg xmlns="http://www.w3.org/2000/svg" xmlns:xlink="http://www.w3.org/1999/xlink" width="22" height="22" viewBox="0 0 22 22">
<defs>
<filter id="filter-remove-color" x="0%" y="0%" width="100%" height="100%">
<feColorMatrix color-interpolation-filters="sRGB" values="0 0 0 0 1 0 0 0 0 1 0 0 0 0 1 0 0 0 1 0" />
</filter>
<mask id="mask-0">
<g filter="url(#filter-remove-color)">
<rect x="-2.2" y="-2.2" width="26.4" height="26.4" fill="rgb(0%, 0%, 0%)" fill-opacity="0.3"/>
</g>
</mask>
<clipPath id="clip-0">
<rect x="0" y="0" width="22" height="22"/>
</clipPath>
<g id="source-10617" clip-path="url(#clip-0)">
<path fill-rule="nonzero" fill="rgb(100%, 100%, 100%)" fill-opacity="1" d="M 11 3 C 9.894531 3 9 3.894531 9 5 L 5 5 C 4.445312 5 4 5.449219 4 6 L 4 17 C 4 17.550781 4.445312 18 5 18 L 13 18 L 13 15 L 7 15 L 7 14 L 13 14 L 13 13 L 18 13 L 18 6 C 18 5.449219 17.554688 5 17 5 L 13 5 C 13 3.894531 12.105469 3 11 3 Z M 11 4 C 11.550781 4 12 4.449219 12 5 C 12 5.550781 11.550781 6 11 6 C 10.449219 6 10 5.550781 10 5 C 10 4.449219 10.449219 4 11 4 Z M 7 8 L 15 8 L 15 9 L 7 9 Z M 7 11 L 15 11 L 15 12 L 7 12 Z M 7 11 "/>
</g>
</defs>
<g mask="url(#mask-0)">
<use xlink:href="#source-10617"/>
</g>
<path fill-rule="nonzero" fill="rgb(100%, 100%, 100%)" fill-opacity="1" d="M 14 14 L 14 15 C 14 15.28125 14.101562 15.539062 14.28125 15.71875 L 15.058594 16.5 L 14.28125 17.28125 C 14.101562 17.460938 14 17.71875 14 18 L 14 19 L 15 19 C 15.28125 19 15.539062 18.898438 15.71875 18.71875 L 16.5 17.941406 L 17.28125 18.71875 C 17.460938 18.898438 17.71875 19 18 19 L 19 19 L 19 18 C 19 17.71875 18.898438 17.460938 18.71875 17.28125 L 17.941406 16.5 L 18.71875 15.71875 C 18.898438 15.539062 19 15.28125 19 15 L 19 14 L 18 14 C 17.71875 14 17.460938 14.101562 17.28125 14.28125 L 16.5 15.058594 L 15.71875 14.28125 C 15.539062 14.101562 15.28125 14 15 14 Z M 14 14 "/>
</svg>
