<?xml version="1.0" encoding="UTF-8"?>
<svg xmlns="http://www.w3.org/2000/svg" xmlns:xlink="http://www.w3.org/1999/xlink" width="22" height="22" viewBox="0 0 22 22">
<path fill-rule="nonzero" fill="rgb(100%, 100%, 100%)" fill-opacity="1" d="M 11 4.003906 C 7.132812 4.003906 4 7.136719 4 11.003906 C 4 14.871094 7.132812 18.003906 11 18.003906 C 14.867188 18.003906 18 14.871094 18 11.003906 C 18 7.136719 14.867188 4.003906 11 4.003906 Z M 10 6 L 12 6 L 12 12 L 10 12 Z M 11 13 C 11.550781 13 12 13.449219 12 14 C 12 14.550781 11.550781 15 11 15 C 10.449219 15 10 14.550781 10 14 C 10 13.449219 10.449219 13 11 13 Z M 11 13 "/>
</svg>
