<?xml version="1.0" encoding="UTF-8"?>
<svg xmlns="http://www.w3.org/2000/svg" xmlns:xlink="http://www.w3.org/1999/xlink" width="22" height="22" viewBox="0 0 22 22">
<path fill-rule="nonzero" fill="rgb(100%, 100%, 100%)" fill-opacity="1" d="M 5.058594 6 L 7.203125 7.632812 L 5 9.308594 L 5 9.34375 L 7.179688 11 L 7.226562 11 L 9.40625 9.34375 L 7.203125 7.664062 L 9.394531 6 Z M 9.464844 6 L 11.609375 7.632812 L 13.753906 6 Z M 13.917969 6 L 16 7.585938 L 16 6 Z M 11.65625 7.664062 L 9.453125 9.34375 L 11.632812 11 L 13.835938 9.328125 Z M 13.835938 9.328125 L 16 10.96875 L 16 7.679688 Z M 14.007812 12.015625 L 14.007812 14.007812 L 12.007812 14.007812 L 12.007812 15.003906 L 14.007812 15.003906 L 14.007812 17 L 17.011719 14.503906 Z M 7 13.992188 L 7 15.019531 L 8 15.019531 L 8 13.992188 Z M 9.015625 13.992188 L 9.015625 15.019531 L 10.988281 15.019531 L 10.988281 13.992188 Z M 9.015625 13.992188 "/>
</svg>
