<?xml version="1.0" encoding="UTF-8"?>
<svg xmlns="http://www.w3.org/2000/svg" xmlns:xlink="http://www.w3.org/1999/xlink" width="22" height="22" viewBox="0 0 22 22">
<defs>
<filter id="filter-remove-color" x="0%" y="0%" width="100%" height="100%">
<feColorMatrix color-interpolation-filters="sRGB" values="0 0 0 0 1 0 0 0 0 1 0 0 0 0 1 0 0 0 1 0" />
</filter>
<mask id="mask-0">
<g filter="url(#filter-remove-color)">
<rect x="-2.2" y="-2.2" width="26.4" height="26.4" fill="rgb(0%, 0%, 0%)" fill-opacity="0.3"/>
</g>
</mask>
<clipPath id="clip-0">
<rect x="0" y="0" width="22" height="22"/>
</clipPath>
<g id="source-12045" clip-path="url(#clip-0)">
<path fill-rule="nonzero" fill="rgb(100%, 100%, 100%)" fill-opacity="1" d="M 5 5 L 5 12 L 13 12 L 13 11 L 17 11 L 17 5 Z M 5 5 "/>
</g>
</defs>
<path fill-rule="nonzero" fill="rgb(100%, 100%, 100%)" fill-opacity="1" d="M 5 5 L 5 6 L 16 6 L 16 11 L 17 11 L 17 5 Z M 5 8 L 5 9 L 12 9 L 12 12 L 13 12 L 13 8 Z M 14.007812 12.015625 L 14.007812 14.007812 L 12.007812 14.007812 L 12.007812 15.003906 L 14.007812 15.003906 L 14.007812 17 L 17.011719 14.503906 Z M 7 13.992188 L 7 15.019531 L 8 15.019531 L 8 13.992188 Z M 9.015625 13.992188 L 9.015625 15.019531 L 10.988281 15.019531 L 10.988281 13.992188 Z M 9.015625 13.992188 "/>
<g mask="url(#mask-0)">
<use xlink:href="#source-12045"/>
</g>
</svg>
