<?xml version="1.0" encoding="UTF-8"?>
<svg xmlns="http://www.w3.org/2000/svg" xmlns:xlink="http://www.w3.org/1999/xlink" width="22" height="22" viewBox="0 0 22 22">
<path fill-rule="nonzero" fill="rgb(100%, 100%, 100%)" fill-opacity="1" d="M 5.507812 5 C 5.230469 5 5.007812 5.222656 5.007812 5.5 C 5.007812 5.777344 5.230469 6 5.507812 6 L 11.003906 6 C 12.65625 6 13.894531 6.46875 14.722656 7.242188 C 15.550781 8.015625 16 9.109375 16 10.5 C 16 10.777344 16.222656 11 16.5 11 C 16.777344 11 17 10.777344 17 10.5 C 17 8.890625 16.449219 7.484375 15.40625 6.507812 C 14.359375 5.53125 12.847656 5 11.003906 5 Z M 5.507812 8 C 5.230469 8 5.007812 8.222656 5.007812 8.5 C 5.007812 8.777344 5.230469 9 5.507812 9 L 9.503906 9 C 10.6875 9 11.414062 9.238281 11.84375 9.648438 C 12.277344 10.058594 12.5 10.722656 12.5 11.800781 C 12.503906 12.078125 12.726562 12.300781 13 12.300781 C 13.277344 12.300781 13.5 12.078125 13.5 11.800781 C 13.5 10.578125 13.226562 9.589844 12.535156 8.925781 C 11.839844 8.261719 10.820312 8 9.503906 8 Z M 14.007812 12.015625 L 14.007812 14.007812 L 12.007812 14.007812 L 12.007812 15.003906 L 14.007812 15.003906 L 14.007812 17 L 17.011719 14.503906 Z M 7 13.992188 L 7 15.019531 L 8 15.019531 L 8 13.992188 Z M 9.015625 13.992188 L 9.015625 15.019531 L 10.988281 15.019531 L 10.988281 13.992188 Z M 9.015625 13.992188 "/>
</svg>
