<?xml version="1.0" encoding="UTF-8"?>
<svg xmlns="http://www.w3.org/2000/svg" xmlns:xlink="http://www.w3.org/1999/xlink" width="22" height="22" viewBox="0 0 22 22">
<path fill-rule="nonzero" fill="rgb(100%, 100%, 100%)" fill-opacity="1" d="M 1.324219 1.851562 L 1.324219 2.117188 L 4.496094 2.117188 L 4.496094 1.851562 Z M 1.324219 2.644531 L 1.324219 2.910156 L 4.496094 2.910156 L 4.496094 2.644531 Z M 1.324219 3.175781 L 1.324219 3.441406 L 4.496094 3.441406 L 4.496094 3.175781 Z M 1.324219 3.703125 L 1.324219 3.96875 L 4.496094 3.96875 L 4.496094 3.703125 Z M 1.324219 4.234375 L 1.324219 4.496094 L 4.496094 4.496094 L 4.496094 4.234375 Z M 1.324219 4.761719 L 1.324219 5.027344 L 3.96875 5.027344 L 3.96875 4.761719 Z M 1.324219 4.761719 "/>
<path fill-rule="nonzero" fill="rgb(100%, 100%, 100%)" fill-opacity="1" d="M 0.792969 0.792969 L 0.792969 1.324219 L 0.265625 1.324219 L 0.265625 1.585938 L 0.792969 1.585938 L 0.792969 5.027344 L 1.058594 5.027344 L 1.058594 1.585938 L 4.761719 1.585938 L 4.761719 5.027344 L 5.027344 5.027344 L 5.027344 1.324219 L 1.058594 1.324219 L 1.058594 0.792969 Z M 0.792969 0.792969 "/>
</svg>
