<?xml version="1.0" encoding="UTF-8"?>
<svg xmlns="http://www.w3.org/2000/svg" xmlns:xlink="http://www.w3.org/1999/xlink" width="22" height="22" viewBox="0 0 22 22">
<defs>
<filter id="filter-remove-color" x="0%" y="0%" width="100%" height="100%">
<feColorMatrix color-interpolation-filters="sRGB" values="0 0 0 0 1 0 0 0 0 1 0 0 0 0 1 0 0 0 1 0" />
</filter>
<mask id="mask-0">
<g filter="url(#filter-remove-color)">
<rect x="-2.2" y="-2.2" width="26.4" height="26.4" fill="rgb(0%, 0%, 0%)" fill-opacity="0.5"/>
</g>
</mask>
<clipPath id="clip-0">
<rect x="0" y="0" width="6" height="6"/>
</clipPath>
<g id="source-16603" clip-path="url(#clip-0)">
<path fill-rule="nonzero" fill="rgb(100%, 100%, 100%)" fill-opacity="1" d="M 1.324219 1.058594 L 1.324219 1.324219 L 4.496094 1.324219 L 4.496094 1.058594 Z M 1.585938 1.585938 L 1.585938 1.851562 L 4.496094 1.851562 L 4.496094 1.585938 Z M 1.324219 4.761719 L 1.324219 5.027344 L 4.234375 5.027344 L 4.234375 4.761719 Z M 1.324219 4.761719 "/>
</g>
</defs>
<g mask="url(#mask-0)">
<use xlink:href="#source-16603"/>
</g>
<path fill-rule="nonzero" fill="rgb(100%, 100%, 100%)" fill-opacity="1" d="M 1.585938 2.644531 L 1.585938 2.910156 L 4.234375 2.910156 L 4.234375 2.644531 Z M 1.585938 3.175781 L 1.585938 3.441406 L 4.234375 3.441406 L 4.234375 3.175781 Z M 1.585938 3.703125 L 1.585938 3.96875 L 4.234375 3.96875 L 4.234375 3.703125 Z M 1.585938 3.703125 "/>
<path fill-rule="nonzero" fill="rgb(100%, 100%, 100%)" fill-opacity="1" d="M 1.058594 1.585938 L 1.058594 2.117188 L 0.527344 2.117188 L 0.527344 2.382812 L 1.058594 2.382812 L 1.058594 4.496094 L 4.496094 4.496094 L 4.496094 5.027344 L 4.761719 5.027344 L 4.761719 4.496094 L 5.292969 4.496094 L 5.292969 4.234375 L 4.761719 4.234375 L 4.761719 2.117188 L 1.324219 2.117188 L 1.324219 1.585938 Z M 1.324219 2.382812 L 4.496094 2.382812 L 4.496094 4.234375 L 1.324219 4.234375 Z M 1.324219 2.382812 "/>
</svg>
