<?xml version="1.0" encoding="UTF-8"?>
<svg xmlns="http://www.w3.org/2000/svg" xmlns:xlink="http://www.w3.org/1999/xlink" width="22" height="22" viewBox="0 0 22 22">
<path fill-rule="nonzero" fill="rgb(100%, 100%, 100%)" fill-opacity="1" d="M 11.007812 4.6875 C 9.179688 4.6875 7.683594 6.242188 7.632812 8.179688 C 7.585938 8.191406 7.542969 8.210938 7.5 8.234375 C 7.078125 8.464844 6.96875 9.179688 7.257812 9.84375 C 7.488281 10.375 7.902344 10.707031 8.273438 10.695312 C 8.558594 12.46875 9.675781 13.789062 11.007812 13.789062 C 11.015625 13.789062 11.015625 13.789062 11.023438 13.789062 C 12.355469 13.789062 13.472656 12.46875 13.753906 10.695312 C 14.128906 10.707031 14.542969 10.375 14.773438 9.84375 C 15.0625 9.179688 14.953125 8.464844 14.53125 8.234375 C 14.488281 8.210938 14.445312 8.191406 14.402344 8.179688 C 14.347656 6.242188 12.851562 4.6875 11.023438 4.6875 C 11.015625 4.6875 11.015625 4.6875 11.007812 4.6875 Z M 13.394531 14.074219 C 13.105469 14.761719 12.121094 15.277344 10.945312 15.277344 C 9.777344 15.277344 8.800781 14.769531 8.507812 14.085938 C 6.035156 14.339844 4.238281 14.960938 4.023438 15.691406 C 4.019531 15.699219 4.023438 15.707031 4.023438 15.714844 C 4.015625 15.742188 4.011719 15.765625 4.007812 15.792969 C 4.007812 15.804688 4 15.8125 4 15.824219 C 4 15.828125 4 15.832031 4 15.835938 L 4 17.652344 C 4 17.84375 4.15625 18 4.351562 18 L 17.648438 18 C 17.84375 18 18 17.84375 18 17.652344 L 18 15.835938 C 18 15.828125 18 15.820312 18 15.8125 C 17.996094 15.769531 17.980469 15.734375 17.96875 15.691406 C 17.746094 14.949219 15.910156 14.320312 13.394531 14.074219 Z M 13.394531 14.074219 "/>
</svg>
