<?xml version="1.0" encoding="UTF-8"?>
<svg xmlns="http://www.w3.org/2000/svg" xmlns:xlink="http://www.w3.org/1999/xlink" width="22" height="22" viewBox="0 0 22 22">
<path fill-rule="nonzero" fill="rgb(100%, 100%, 100%)" fill-opacity="1" d="M 13.636719 3.996094 C 13.175781 4.011719 12.746094 4.285156 12.535156 4.71875 C 10.605469 4.601562 8.757812 5.757812 8.074219 7.671875 C 7.464844 9.402344 6.234375 11.640625 5.597656 11.757812 C 5.46875 11.828125 5.359375 11.945312 5.304688 12.09375 C 5.1875 12.429688 5.359375 12.792969 5.691406 12.914062 L 14.992188 16.242188 C 15.324219 16.359375 15.6875 16.191406 15.808594 15.859375 C 15.859375 15.707031 15.851562 15.546875 15.796875 15.40625 C 15.378906 14.914062 15.847656 12.402344 16.472656 10.679688 C 17.160156 8.765625 16.464844 6.699219 14.898438 5.5625 C 15.046875 4.9375 14.71875 4.292969 14.097656 4.070312 C 13.945312 4.015625 13.789062 3.992188 13.636719 3.996094 Z M 9.742188 15.71875 C 9.449219 16.546875 10.011719 17.507812 11.007812 17.863281 C 12 18.21875 13.046875 17.835938 13.34375 17.003906 Z M 9.742188 15.71875 "/>
</svg>
