<?xml version="1.0" encoding="UTF-8"?>
<svg xmlns="http://www.w3.org/2000/svg" xmlns:xlink="http://www.w3.org/1999/xlink" width="22" height="22" viewBox="0 0 22 22">
<path fill-rule="nonzero" fill="rgb(100%, 100%, 100%)" fill-opacity="1" d="M 11 3.757812 L 3 11.570312 L 4.523438 13.125 L 5.664062 12.140625 L 6.429688 18.234375 L 15.574219 18.234375 L 16.332031 12.140625 L 17.476562 13.09375 L 19 11.570312 Z M 11 9.09375 C 12.261719 9.09375 13.285156 10.117188 13.285156 11.378906 C 13.285156 12.640625 12.261719 13.664062 11 13.664062 C 9.738281 13.664062 8.714844 12.640625 8.714844 11.378906 C 8.714844 10.117188 9.738281 9.09375 11 9.09375 Z M 11 15.1875 C 11.421875 15.1875 11.761719 15.53125 11.761719 15.953125 C 11.761719 16.371094 11.421875 16.714844 11 16.714844 C 10.578125 16.714844 10.238281 16.371094 10.238281 15.953125 C 10.238281 15.53125 10.578125 15.1875 11 15.1875 Z M 11 15.1875 "/>
</svg>
