<?xml version="1.0" encoding="UTF-8"?>
<svg xmlns="http://www.w3.org/2000/svg" xmlns:xlink="http://www.w3.org/1999/xlink" width="22" height="22" viewBox="0 0 22 22">
<path fill-rule="nonzero" fill="rgb(100%, 100%, 100%)" fill-opacity="1" d="M 13.03125 4 C 12.882812 4.003906 12.730469 4.015625 12.570312 4.039062 C 12.003906 4.117188 11.320312 4.390625 10.554688 4.796875 C 9.015625 3.945312 7.8125 3.894531 6.804688 4.15625 C 5.738281 4.429688 4.867188 4.882812 3.515625 4.84375 L 3 4.828125 L 3 19 L 14.785156 19 C 14.304688 18.46875 14 17.769531 14 17 C 14 15.816406 14.707031 14.789062 15.714844 14.304688 C 15.226562 14.167969 14.734375 14.019531 14.1875 13.882812 C 13.210938 13.636719 12.097656 13.695312 11 14.367188 L 11 5.671875 C 11.703125 5.285156 12.246094 5.070312 12.679688 5.007812 C 12.917969 4.972656 13.132812 4.976562 13.339844 5 C 13.542969 5.027344 13.742188 5.078125 13.949219 5.140625 C 14.484375 5.300781 15.144531 5.554688 16 5.703125 L 16 14.1875 C 16.316406 14.074219 16.648438 14 17 14 C 17.351562 14 17.683594 14.074219 18 14.1875 L 18 4.84375 L 17.484375 4.863281 C 15.964844 4.917969 15.210938 4.464844 14.234375 4.171875 C 13.867188 4.0625 13.472656 3.992188 13.03125 4 Z M 8.21875 4.992188 C 8.71875 5.03125 9.28125 5.214844 10 5.609375 L 10 14.335938 C 8.894531 13.695312 7.789062 13.644531 6.816406 13.890625 C 6.164062 14.050781 5.570312 14.238281 5 14.390625 L 5 5.664062 C 5.800781 5.515625 6.472656 5.28125 7.054688 5.132812 C 7.285156 5.074219 7.507812 5.023438 7.738281 5 C 7.894531 4.984375 8.050781 4.980469 8.21875 4.992188 Z M 17 15 C 15.894531 15 15 15.894531 15 17 C 15 18.105469 15.894531 19 17 19 C 18.105469 19 19 18.105469 19 17 C 19 15.894531 18.105469 15 17 15 Z M 17 15 "/>
</svg>
