<?xml version="1.0" encoding="UTF-8"?>
<svg xmlns="http://www.w3.org/2000/svg" xmlns:xlink="http://www.w3.org/1999/xlink" width="22" height="22" viewBox="0 0 22 22">
<path fill-rule="nonzero" fill="rgb(100%, 100%, 100%)" fill-opacity="1" d="M 13.03125 4 C 12.882812 4.003906 12.730469 4.015625 12.570312 4.039062 C 12.003906 4.117188 11.320312 4.390625 10.554688 4.796875 C 9.015625 3.945312 7.8125 3.894531 6.804688 4.15625 C 5.738281 4.429688 4.867188 4.882812 3.515625 4.84375 L 3 4.828125 L 3 19 L 18 19 L 18 4.84375 L 17.484375 4.859375 C 15.964844 4.917969 15.210938 4.464844 14.234375 4.171875 C 13.863281 4.0625 13.472656 3.992188 13.03125 4 Z M 8.21875 4.992188 C 8.71875 5.03125 9.28125 5.214844 10 5.609375 L 10 14.332031 C 8.894531 13.691406 7.789062 13.644531 6.816406 13.886719 C 6.164062 14.050781 5.570312 14.238281 5 14.390625 L 5 5.664062 C 5.800781 5.515625 6.472656 5.28125 7.054688 5.132812 C 7.285156 5.074219 7.507812 5.023438 7.738281 5 C 7.894531 4.984375 8.050781 4.980469 8.21875 4.992188 Z M 13.339844 5 C 13.542969 5.027344 13.742188 5.078125 13.949219 5.140625 C 14.484375 5.300781 15.144531 5.554688 16 5.703125 L 16 14.386719 C 15.429688 14.230469 14.835938 14.042969 14.1875 13.878906 C 13.210938 13.636719 12.097656 13.695312 11 14.367188 L 11 5.667969 C 11.703125 5.28125 12.246094 5.070312 12.679688 5.007812 C 12.917969 4.972656 13.132812 4.976562 13.339844 5 Z M 13.339844 5 "/>
</svg>
