<?xml version="1.0" encoding="UTF-8"?>
<svg xmlns="http://www.w3.org/2000/svg" xmlns:xlink="http://www.w3.org/1999/xlink" width="22" height="22" viewBox="0 0 22 22">
<path fill-rule="nonzero" fill="rgb(100%, 100%, 100%)" fill-opacity="1" d="M 12 5 L 12 17 L 13 17 L 13 5 Z M 4 6 L 4 8 L 6 8 L 6 6 Z M 8 6 L 8 8 L 10 8 L 10 6 Z M 15 6 L 15 7 L 17 7 L 17 6 Z M 15 9 L 15 10 L 17 10 L 17 9 Z M 4 10 L 4 12 L 6 12 L 6 10 Z M 8 10 L 8 12 L 10 12 L 10 10 Z M 15 12 L 15 13 L 17 13 L 17 12 Z M 4 14 L 4 16 L 6 16 L 6 14 Z M 8 14 L 8 16 L 10 16 L 10 14 Z M 15 15 L 15 16 L 17 16 L 17 15 Z M 15 15 "/>
</svg>
