<?xml version="1.0" encoding="UTF-8"?>
<svg xmlns="http://www.w3.org/2000/svg" xmlns:xlink="http://www.w3.org/1999/xlink" width="22" height="22" viewBox="0 0 22 22">
<path fill-rule="nonzero" fill="rgb(100%, 100%, 100%)" fill-opacity="1" d="M 11 4.003906 C 7.15625 4.003906 4 7.160156 4 11.003906 C 4 14.847656 7.15625 18.003906 11 18.003906 C 14.84375 18.003906 18 14.847656 18 11.003906 C 18 7.160156 14.84375 4.003906 11 4.003906 Z M 11 7 C 12.105469 7 13 7.894531 13 9 C 13 10.105469 12.105469 11 11 11 C 9.894531 11 9 10.105469 9 9 C 9 7.894531 9.894531 7 11 7 Z M 11 12 C 15 12 15 14.402344 15 14.402344 L 15 15 L 7 15 L 7 14.402344 C 7 14.402344 7 12.003906 11 12 Z M 11 12 "/>
</svg>
