<?xml version="1.0" encoding="UTF-8"?>
<svg xmlns="http://www.w3.org/2000/svg" xmlns:xlink="http://www.w3.org/1999/xlink" width="22" height="22" viewBox="0 0 22 22">
<path fill-rule="nonzero" fill="rgb(100%, 100%, 100%)" fill-opacity="1" d="M 10.5 6.003906 C 9.675781 6.003906 9 6.679688 9 7.503906 C 9 8.328125 9.675781 9.003906 10.5 9.003906 C 11.324219 9.003906 12 8.328125 12 7.503906 C 12 6.679688 11.324219 6.003906 10.5 6.003906 Z M 10.5 10.003906 C 9.675781 10.003906 9 10.679688 9 11.503906 C 9 12.328125 9.675781 13.003906 10.5 13.003906 C 11.324219 13.003906 12 12.328125 12 11.503906 C 12 10.679688 11.324219 10.003906 10.5 10.003906 Z M 10.5 14.003906 C 9.675781 14.003906 9 14.679688 9 15.503906 C 9 16.328125 9.675781 17.003906 10.5 17.003906 C 11.324219 17.003906 12 16.328125 12 15.503906 C 12 14.679688 11.324219 14.003906 10.5 14.003906 Z M 10.5 14.003906 "/>
</svg>
