<?xml version="1.0" encoding="UTF-8"?>
<svg xmlns="http://www.w3.org/2000/svg" xmlns:xlink="http://www.w3.org/1999/xlink" width="22" height="22" viewBox="0 0 22 22">
<path fill-rule="nonzero" fill="rgb(100%, 100%, 100%)" fill-opacity="1" d="M 8 5.003906 L 7 6.003906 L 6 6.003906 C 4 6.003906 4 8.003906 4 8.003906 L 4 15.003906 C 4 17.003906 6 17.003906 6 17.003906 L 16 17.003906 C 18 17.003906 18 15.003906 18 15.003906 L 18 8.003906 C 18 6.003906 16 6.003906 16 6.003906 L 15 6.003906 L 14 5.003906 Z M 11 8.003906 C 12.65625 8.003906 14 9.347656 14 11.003906 C 14 12.660156 12.65625 14.003906 11 14.003906 C 9.34375 14.003906 8 12.660156 8 11.003906 C 8 9.347656 9.34375 8.003906 11 8.003906 Z M 11 8.003906 "/>
</svg>
