<?xml version="1.0" encoding="UTF-8"?>
<svg xmlns="http://www.w3.org/2000/svg" xmlns:xlink="http://www.w3.org/1999/xlink" width="22" height="22" viewBox="0 0 22 22">
<path fill-rule="nonzero" fill="rgb(100%, 100%, 100%)" fill-opacity="1" d="M 3.96875 2.644531 L 3.96875 4.519531 L 3.363281 3.914062 L 3.175781 4.101562 L 4.101562 5.027344 L 5.027344 4.101562 L 4.839844 3.914062 L 4.234375 4.519531 L 4.234375 2.644531 Z M 3.96875 2.644531 "/>
<path fill-rule="nonzero" fill="rgb(100%, 100%, 100%)" fill-opacity="1" d="M 0.792969 0.792969 L 0.792969 1.058594 L 4.496094 1.058594 L 4.496094 0.792969 Z M 0.792969 0.792969 "/>
<path fill-rule="nonzero" fill="rgb(100%, 100%, 100%)" fill-opacity="1" d="M 0.792969 1.585938 L 0.792969 1.851562 L 3.96875 1.851562 L 3.96875 1.585938 Z M 0.792969 1.585938 "/>
<path fill-rule="nonzero" fill="rgb(100%, 100%, 100%)" fill-opacity="1" d="M 0.792969 2.382812 L 0.792969 2.644531 L 3.441406 2.644531 L 3.441406 2.382812 Z M 0.792969 2.382812 "/>
<path fill-rule="nonzero" fill="rgb(100%, 100%, 100%)" fill-opacity="1" d="M 0.792969 5.027344 L 0.792969 4.761719 L 1.851562 4.761719 L 1.851562 5.027344 Z M 0.792969 5.027344 "/>
<path fill-rule="nonzero" fill="rgb(100%, 100%, 100%)" fill-opacity="1" d="M 0.792969 4.234375 L 0.792969 3.96875 L 2.382812 3.96875 L 2.382812 4.234375 Z M 0.792969 4.234375 "/>
<path fill-rule="nonzero" fill="rgb(100%, 100%, 100%)" fill-opacity="1" d="M 0.792969 3.441406 L 0.792969 3.175781 L 2.910156 3.175781 L 2.910156 3.441406 Z M 0.792969 3.441406 "/>
</svg>
