<?xml version="1.0" encoding="UTF-8"?>
<svg xmlns="http://www.w3.org/2000/svg" xmlns:xlink="http://www.w3.org/1999/xlink" width="22" height="22" viewBox="0 0 22 22">
<path fill-rule="nonzero" fill="rgb(100%, 100%, 100%)" fill-opacity="1" d="M 6.5 10 C 5.675781 10 5 10.675781 5 11.5 C 5 12.324219 5.675781 13 6.5 13 C 7.324219 13 8 12.324219 8 11.5 C 8 10.675781 7.324219 10 6.5 10 Z M 10.5 10 C 9.675781 10 9 10.675781 9 11.5 C 9 12.324219 9.675781 13 10.5 13 C 11.324219 13 12 12.324219 12 11.5 C 12 10.675781 11.324219 10 10.5 10 Z M 14.5 10 C 13.675781 10 13 10.675781 13 11.5 C 13 12.324219 13.675781 13 14.5 13 C 15.324219 13 16 12.324219 16 11.5 C 16 10.675781 15.324219 10 14.5 10 Z M 14.5 10 "/>
</svg>
