<?xml version="1.0" encoding="UTF-8"?>
<svg xmlns="http://www.w3.org/2000/svg" xmlns:xlink="http://www.w3.org/1999/xlink" width="22" height="22" viewBox="0 0 22 22">
<defs>
<filter id="filter-remove-color" x="0%" y="0%" width="100%" height="100%">
<feColorMatrix color-interpolation-filters="sRGB" values="0 0 0 0 1 0 0 0 0 1 0 0 0 0 1 0 0 0 1 0" />
</filter>
<mask id="mask-0">
<g filter="url(#filter-remove-color)">
<rect x="-2.2" y="-2.2" width="26.4" height="26.4" fill="rgb(0%, 0%, 0%)" fill-opacity="0.3"/>
</g>
</mask>
<clipPath id="clip-0">
<rect x="0" y="0" width="22" height="22"/>
</clipPath>
<g id="source-7533" clip-path="url(#clip-0)">
<path fill-rule="nonzero" fill="rgb(100%, 100%, 100%)" fill-opacity="1" d="M 5 6.035156 C 4.445312 6.035156 4 6.480469 4 7.035156 L 4 15.035156 C 4 15.589844 4.445312 16.035156 5 16.035156 L 17 16.035156 C 17.554688 16.035156 18 15.589844 18 15.035156 L 18 7.035156 C 18 6.480469 17.554688 6.035156 17 6.035156 Z M 6 11.035156 L 8 11.035156 L 8 12.035156 L 6 12.035156 Z M 9 11.035156 L 13 11.035156 L 13 12.035156 L 9 12.035156 Z M 14 11.035156 L 16 11.035156 L 16 12.035156 L 14 12.035156 Z M 6 13.035156 L 7 13.035156 L 7 14.035156 L 6 14.035156 Z M 8 13.035156 L 12 13.035156 L 12 14.035156 L 8 14.035156 Z M 13 13.035156 L 16 13.035156 L 16 14.035156 L 13 14.035156 Z M 13 13.035156 "/>
</g>
</defs>
<g mask="url(#mask-0)">
<use xlink:href="#source-7533"/>
</g>
</svg>
