<?xml version="1.0" encoding="UTF-8"?>
<svg xmlns="http://www.w3.org/2000/svg" xmlns:xlink="http://www.w3.org/1999/xlink" width="22" height="22" viewBox="0 0 22 22">
<path fill-rule="nonzero" fill="rgb(100%, 100%, 100%)" fill-opacity="1" d="M 9 5 C 7.34375 5 6 6.34375 6 8 C 6 9.65625 7.34375 11 9 11 C 10.65625 11 12 9.65625 12 8 C 12 6.34375 10.65625 5 9 5 Z M 13.996094 6.945312 L 14 6.949219 C 13.613281 6.949219 13.246094 7.039062 12.914062 7.1875 C 12.96875 7.449219 13 7.71875 13 8 C 13 9.101562 12.546875 10.101562 11.816406 10.828125 C 12.277344 11.527344 13.074219 12 13.996094 12 C 15.429688 12 16.589844 10.867188 16.589844 9.472656 C 16.589844 8.078125 15.429688 6.945312 13.996094 6.945312 Z M 9 12.996094 C 3 13 3 17 3 17 L 3 18 L 15 18 L 15 17 C 15 17 15 12.988281 9 13 Z M 14 13 C 13.804688 13 13.628906 13.011719 13.449219 13.019531 C 14.144531 13.421875 14.675781 13.898438 15.050781 14.398438 C 15.992188 15.660156 16 17 16 17 L 19 17 L 19 16 C 19 16 19 13 14 13 Z M 14 13 "/>
</svg>
