<?xml version="1.0" encoding="UTF-8"?>
<svg xmlns="http://www.w3.org/2000/svg" xmlns:xlink="http://www.w3.org/1999/xlink" width="22" height="22" viewBox="0 0 22 22">
<path fill-rule="nonzero" fill="rgb(100%, 100%, 100%)" fill-opacity="1" d="M 6.1875 5.003906 C 5.527344 5.003906 5 5.554688 5 6.222656 L 5 10.003906 L 7 10.003906 L 7 7.003906 L 10 7.003906 L 10 5.003906 Z M 12 5.003906 L 12 7.003906 L 15 7.003906 L 15 10.003906 L 17 10.003906 L 17 6.222656 C 17 5.554688 16.476562 5.003906 15.8125 5.003906 Z M 8 8 L 8 12 L 10 12 L 10 14 L 14 14 L 14 10 L 12 10 L 12 8 Z M 5 12.003906 L 5 15.785156 C 5 16.453125 5.527344 17.003906 6.1875 17.003906 L 10 17.003906 L 10 15.003906 L 7 15.003906 L 7 12.003906 Z M 15 12.003906 L 15 15.003906 L 12 15.003906 L 12 17.003906 L 15.8125 17.003906 C 16.476562 17.003906 17 16.453125 17 15.785156 L 17 12.003906 Z M 15 12.003906 "/>
</svg>
