<?xml version="1.0" encoding="UTF-8"?>
<svg xmlns="http://www.w3.org/2000/svg" xmlns:xlink="http://www.w3.org/1999/xlink" width="48" height="48" viewBox="0 0 48 48">
<defs>
<filter id="filter-remove-color" x="0%" y="0%" width="100%" height="100%">
<feColorMatrix color-interpolation-filters="sRGB" values="0 0 0 0 1 0 0 0 0 1 0 0 0 0 1 0 0 0 1 0" />
</filter>
<mask id="mask-0">
<g filter="url(#filter-remove-color)">
<rect x="-4.8" y="-4.8" width="57.6" height="57.6" fill="rgb(0%, 0%, 0%)" fill-opacity="0.2"/>
</g>
</mask>
<clipPath id="clip-0">
<rect x="0" y="0" width="48" height="48"/>
</clipPath>
<g id="source-3431" clip-path="url(#clip-0)">
<path fill-rule="nonzero" fill="rgb(0%, 0%, 0%)" fill-opacity="1" d="M 42 17 L 6 17 C 4.894531 17 4 17.894531 4 19 L 4 41 C 4 42.105469 4.894531 43 6 43 L 42 43 C 43.105469 43 44 42.105469 44 41 L 44 19 C 44 17.894531 43.105469 17 42 17 Z M 42 17 "/>
</g>
<mask id="mask-1">
<g filter="url(#filter-remove-color)">
<rect x="-4.8" y="-4.8" width="57.6" height="57.6" fill="rgb(0%, 0%, 0%)" fill-opacity="0.2"/>
</g>
</mask>
<clipPath id="clip-1">
<rect x="0" y="0" width="48" height="48"/>
</clipPath>
<g id="source-3436" clip-path="url(#clip-1)">
<path fill-rule="nonzero" fill="rgb(0%, 0%, 0%)" fill-opacity="1" d="M 42 15 L 6 15 C 4.894531 15 4 15.894531 4 17 L 4 39 C 4 40.105469 4.894531 41 6 41 L 42 41 C 43.105469 41 44 40.105469 44 39 L 44 17 C 44 15.894531 43.105469 15 42 15 Z M 42 15 "/>
</g>
<mask id="mask-2">
<g filter="url(#filter-remove-color)">
<rect x="-4.8" y="-4.8" width="57.6" height="57.6" fill="rgb(0%, 0%, 0%)" fill-opacity="0.1"/>
</g>
</mask>
<clipPath id="clip-2">
<rect x="0" y="0" width="48" height="48"/>
</clipPath>
<g id="source-3442" clip-path="url(#clip-2)">
<path fill-rule="nonzero" fill="rgb(100%, 100%, 100%)" fill-opacity="1" d="M 6 6 C 4.890625 6 4 6.890625 4 8 L 4 9 C 4 7.890625 4.890625 7 6 7 L 20 7 C 21.109375 7 22 7.890625 22 9 L 22 8 C 22 6.890625 21.109375 6 20 6 Z M 22 10 L 22 11 L 42 11 C 43.109375 11 44 11.890625 44 13 L 44 12 C 44 10.890625 43.109375 10 42 10 Z M 22 10 "/>
</g>
</defs>
<g mask="url(#mask-0)">
<use xlink:href="#source-3431"/>
</g>
<path fill-rule="nonzero" fill="rgb(21.176471%, 22.352941%, 28.627451%)" fill-opacity="1" d="M 4 34 C 4 35.109375 4.890625 36 6 36 L 42 36 C 43.109375 36 44 35.109375 44 34 L 44 12 C 44 10.890625 43.109375 10 42 10 L 22 10 L 22 8 C 22 6.890625 21.109375 6 20 6 L 6 6 C 4.890625 6 4 6.890625 4 8 "/>
<g mask="url(#mask-1)">
<use xlink:href="#source-3436"/>
</g>
<path fill-rule="nonzero" fill="rgb(49.411765%, 50.980392%, 62.745098%)" fill-opacity="1" d="M 40 13 L 8 13 C 6.894531 13 6 13.894531 6 15 L 6 27 C 6 28.105469 6.894531 29 8 29 L 40 29 C 41.105469 29 42 28.105469 42 27 L 42 15 C 42 13.894531 41.105469 13 40 13 Z M 40 13 "/>
<path fill-rule="nonzero" fill="rgb(21.176471%, 22.352941%, 28.627451%)" fill-opacity="1" d="M 42 16 L 6 16 C 4.894531 16 4 16.894531 4 18 L 4 40 C 4 41.105469 4.894531 42 6 42 L 42 42 C 43.105469 42 44 41.105469 44 40 L 44 18 C 44 16.894531 43.105469 16 42 16 Z M 42 16 "/>
<g mask="url(#mask-2)">
<use xlink:href="#source-3442"/>
</g>
<path fill-rule="nonzero" fill="rgb(49.411765%, 50.980392%, 62.745098%)" fill-opacity="1" d="M 27.09375 20.210938 L 26.382812 20.015625 C 26.289062 19.988281 26.199219 19.996094 26.113281 20.046875 C 26.023438 20.097656 25.964844 20.171875 25.933594 20.269531 L 21.652344 35.085938 C 21.625 35.183594 21.632812 35.277344 21.683594 35.367188 C 21.730469 35.453125 21.808594 35.511719 21.90625 35.542969 L 22.617188 35.738281 C 22.710938 35.769531 22.800781 35.761719 22.886719 35.710938 C 22.976562 35.660156 23.035156 35.585938 23.066406 35.488281 L 27.347656 20.671875 C 27.375 20.570312 27.367188 20.476562 27.316406 20.390625 C 27.265625 20.300781 27.191406 20.242188 27.09375 20.210938 Z M 27.09375 20.210938 "/>
<path fill-rule="nonzero" fill="rgb(49.411765%, 50.980392%, 62.745098%)" fill-opacity="1" d="M 20.679688 23.105469 C 20.679688 23.003906 20.640625 22.917969 20.5625 22.839844 L 19.988281 22.265625 C 19.914062 22.191406 19.824219 22.152344 19.726562 22.152344 C 19.625 22.152344 19.539062 22.191406 19.460938 22.265625 L 14.113281 27.613281 C 14.039062 27.691406 14 27.777344 14 27.878906 C 14 27.976562 14.039062 28.066406 14.113281 28.140625 L 19.460938 33.488281 C 19.539062 33.566406 19.625 33.605469 19.726562 33.605469 C 19.824219 33.605469 19.914062 33.566406 19.988281 33.488281 L 20.5625 32.917969 C 20.640625 32.839844 20.679688 32.75 20.679688 32.652344 C 20.679688 32.554688 20.640625 32.464844 20.5625 32.386719 L 16.054688 27.878906 L 20.5625 23.367188 C 20.640625 23.292969 20.679688 23.203125 20.679688 23.105469 Z M 20.679688 23.105469 "/>
<path fill-rule="nonzero" fill="rgb(49.411765%, 50.980392%, 62.745098%)" fill-opacity="1" d="M 34.886719 27.613281 L 29.539062 22.265625 C 29.460938 22.191406 29.375 22.152344 29.273438 22.152344 C 29.175781 22.152344 29.085938 22.191406 29.007812 22.265625 L 28.4375 22.839844 C 28.359375 22.917969 28.320312 23.003906 28.320312 23.105469 C 28.320312 23.203125 28.359375 23.292969 28.4375 23.367188 L 32.945312 27.878906 L 28.4375 32.386719 C 28.359375 32.464844 28.320312 32.554688 28.320312 32.652344 C 28.320312 32.75 28.359375 32.839844 28.4375 32.917969 L 29.007812 33.488281 C 29.085938 33.566406 29.175781 33.605469 29.273438 33.605469 C 29.375 33.605469 29.460938 33.566406 29.539062 33.488281 L 34.886719 28.140625 C 34.960938 28.066406 35 27.976562 35 27.878906 C 35 27.777344 34.960938 27.691406 34.886719 27.613281 Z M 34.886719 27.613281 "/>
</svg>
