<?xml version="1.0" encoding="UTF-8"?>
<svg xmlns="http://www.w3.org/2000/svg" xmlns:xlink="http://www.w3.org/1999/xlink" width="22.999983" height="32.000011" viewBox="0 0 22.999983 32.000011">
<defs>
<filter id="filter-remove-color" x="0%" y="0%" width="100%" height="100%">
<feColorMatrix color-interpolation-filters="sRGB" values="0 0 0 0 1 0 0 0 0 1 0 0 0 0 1 0 0 0 1 0" />
</filter>
<clipPath id="clip-0">
<path clip-rule="nonzero" d="M 0 0 L 23 0 L 23 23 L 0 23 Z M 0 0 "/>
</clipPath>
<mask id="mask-0">
<g filter="url(#filter-remove-color)">
<rect x="-2.299998" y="-3.200001" width="27.599979" height="38.400014" fill="rgb(0%, 0%, 0%)" fill-opacity="0.95"/>
</g>
</mask>
<clipPath id="clip-1">
<path clip-rule="nonzero" d="M 5 5 L 27 5 L 27 23 L 5 23 Z M 5 5 "/>
</clipPath>
<clipPath id="clip-2">
<rect x="0" y="0" width="33" height="23"/>
</clipPath>
<g id="source-13128" clip-path="url(#clip-2)">
<g clip-path="url(#clip-1)">
<path fill-rule="nonzero" fill="rgb(11.764706%, 12.156863%, 16.078431%)" fill-opacity="1" d="M 6.398438 5 L 25.601562 5 C 26.375 5 27 5.625 27 6.398438 L 27 24.601562 C 27 25.375 26.375 26 25.601562 26 L 6.398438 26 C 5.625 26 5 25.375 5 24.601562 L 5 6.398438 C 5 5.625 5.625 5 6.398438 5 Z M 6.398438 5 "/>
</g>
</g>
<mask id="mask-1">
<g filter="url(#filter-remove-color)">
<rect x="-2.299998" y="-3.200001" width="27.599979" height="38.400014" fill="rgb(0%, 0%, 0%)" fill-opacity="0.75"/>
</g>
</mask>
<mask id="mask-2">
<g filter="url(#filter-remove-color)">
<rect x="-5.059996" y="-7.040003" width="33.119975" height="46.080016" fill="rgb(0%, 0%, 0%)" fill-opacity="0.02"/>
</g>
</mask>
<clipPath id="clip-3">
<path clip-rule="nonzero" d="M 0 0 L 33 0 L 33 23 L 0 23 Z M 0 0 "/>
</clipPath>
<clipPath id="clip-4">
<rect x="0" y="0" width="33" height="23"/>
</clipPath>
<g id="source-13133" clip-path="url(#clip-4)">
<g clip-path="url(#clip-3)">
<path fill="none" stroke-width="1" stroke-linecap="round" stroke-linejoin="miter" stroke="rgb(0%, 0%, 0%)" stroke-opacity="1" stroke-miterlimit="4" d="M 434.499928 362.499939 L 449.499928 362.499939 C 453.917897 362.499939 457.499928 366.08197 457.499928 370.499939 L 457.499928 385.499939 C 457.499928 389.917908 453.917897 393.499939 449.499928 393.499939 L 434.499928 393.499939 C 430.081959 393.499939 426.499928 389.917908 426.499928 385.499939 L 426.499928 370.499939 C 426.499928 366.08197 430.081959 362.499939 434.499928 362.499939 Z M 434.499928 362.499939 " transform="matrix(1, 0, 0, 1, -425.999928, -361.999939)"/>
</g>
</g>
<mask id="mask-3">
<g filter="url(#filter-remove-color)">
<rect x="-5.059996" y="-7.040003" width="33.119975" height="46.080016" fill="rgb(0%, 0%, 0%)" fill-opacity="0.07"/>
</g>
</mask>
<clipPath id="clip-5">
<path clip-rule="nonzero" d="M 0 0 L 33 0 L 33 23 L 0 23 Z M 0 0 "/>
</clipPath>
<clipPath id="clip-6">
<rect x="0" y="0" width="33" height="23"/>
</clipPath>
<g id="source-13137" clip-path="url(#clip-6)">
<g clip-path="url(#clip-5)">
<path fill="none" stroke-width="1" stroke-linecap="round" stroke-linejoin="miter" stroke="rgb(0%, 0%, 0%)" stroke-opacity="1" stroke-miterlimit="4" d="M 434.499928 363.499939 L 449.499928 363.499939 C 453.367115 363.499939 456.499928 366.632751 456.499928 370.499939 L 456.499928 385.499939 C 456.499928 389.367126 453.367115 392.499939 449.499928 392.499939 L 434.499928 392.499939 C 430.63274 392.499939 427.499928 389.367126 427.499928 385.499939 L 427.499928 370.499939 C 427.499928 366.632751 430.63274 363.499939 434.499928 363.499939 Z M 434.499928 363.499939 " transform="matrix(1, 0, 0, 1, -425.999928, -361.999939)"/>
</g>
</g>
<mask id="mask-4">
<g filter="url(#filter-remove-color)">
<rect x="-5.059996" y="-7.040003" width="33.119975" height="46.080016" fill="rgb(0%, 0%, 0%)" fill-opacity="0.13"/>
</g>
</mask>
<clipPath id="clip-7">
<path clip-rule="nonzero" d="M 0 0 L 33 0 L 33 23 L 0 23 Z M 0 0 "/>
</clipPath>
<clipPath id="clip-8">
<rect x="0" y="0" width="33" height="23"/>
</clipPath>
<g id="source-13141" clip-path="url(#clip-8)">
<g clip-path="url(#clip-7)">
<path fill="none" stroke-width="1" stroke-linecap="round" stroke-linejoin="miter" stroke="rgb(0%, 0%, 0%)" stroke-opacity="1" stroke-miterlimit="4" d="M 434.499928 364.499939 L 449.499928 364.499939 C 452.812428 364.499939 455.499928 367.187439 455.499928 370.499939 L 455.499928 385.499939 C 455.499928 388.812439 452.812428 391.499939 449.499928 391.499939 L 434.499928 391.499939 C 431.187428 391.499939 428.499928 388.812439 428.499928 385.499939 L 428.499928 370.499939 C 428.499928 367.187439 431.187428 364.499939 434.499928 364.499939 Z M 434.499928 364.499939 " transform="matrix(1, 0, 0, 1, -425.999928, -361.999939)"/>
</g>
</g>
<mask id="mask-5">
<g filter="url(#filter-remove-color)">
<rect x="-5.059996" y="-7.040003" width="33.119975" height="46.080016" fill="rgb(0%, 0%, 0%)" fill-opacity="0.2"/>
</g>
</mask>
<clipPath id="clip-9">
<path clip-rule="nonzero" d="M 0 0 L 33 0 L 33 23 L 0 23 Z M 0 0 "/>
</clipPath>
<clipPath id="clip-10">
<rect x="0" y="0" width="33" height="23"/>
</clipPath>
<g id="source-13145" clip-path="url(#clip-10)">
<g clip-path="url(#clip-9)">
<path fill="none" stroke-width="1" stroke-linecap="round" stroke-linejoin="miter" stroke="rgb(0%, 0%, 0%)" stroke-opacity="1" stroke-miterlimit="4" d="M 434.499928 365.499939 L 449.499928 365.499939 C 452.261647 365.499939 454.499928 367.73822 454.499928 370.499939 L 454.499928 385.499939 C 454.499928 388.261658 452.261647 390.499939 449.499928 390.499939 L 434.499928 390.499939 C 431.738209 390.499939 429.499928 388.261658 429.499928 385.499939 L 429.499928 370.499939 C 429.499928 367.73822 431.738209 365.499939 434.499928 365.499939 Z M 434.499928 365.499939 " transform="matrix(1, 0, 0, 1, -425.999928, -361.999939)"/>
</g>
</g>
<mask id="mask-6">
<g filter="url(#filter-remove-color)">
<rect x="-5.059996" y="-7.040003" width="33.119975" height="46.080016" fill="rgb(0%, 0%, 0%)" fill-opacity="0.25"/>
</g>
</mask>
<clipPath id="clip-11">
<rect x="0" y="0" width="33" height="23"/>
</clipPath>
<g id="source-13149" clip-path="url(#clip-11)">
</g>
<clipPath id="clip-12">
<rect x="0" y="0" width="33" height="23"/>
</clipPath>
<g id="source-13151" clip-path="url(#clip-12)">
<g mask="url(#mask-2)">
<use xlink:href="#source-13133"/>
</g>
<g mask="url(#mask-3)">
<use xlink:href="#source-13137"/>
</g>
<g mask="url(#mask-4)">
<use xlink:href="#source-13141"/>
</g>
<g mask="url(#mask-5)">
<use xlink:href="#source-13145"/>
</g>
<g mask="url(#mask-6)">
<use xlink:href="#source-13149"/>
</g>
</g>
<mask id="mask-7">
<g filter="url(#filter-remove-color)">
<rect x="-2.299998" y="-3.200001" width="27.599979" height="38.400014" fill="rgb(0%, 0%, 0%)" fill-opacity="0.2"/>
</g>
</mask>
<clipPath id="clip-13">
<rect x="0" y="0" width="33" height="23"/>
</clipPath>
<g id="source-13155" clip-path="url(#clip-13)">
<path fill-rule="nonzero" fill="rgb(0%, 0%, 0%)" fill-opacity="1" d="M 5 22 L 27 22 L 27 23 L 5 23 Z M 5 22 "/>
</g>
</defs>
<g clip-path="url(#clip-0)">
<path fill="none" stroke-width="1" stroke-linecap="round" stroke-linejoin="miter" stroke="rgb(13.72549%, 15.686275%, 19.215686%)" stroke-opacity="1" stroke-miterlimit="4" d="M 6.499989 1024.862183 L 25.499989 1024.862183 C 26.605458 1024.862183 27.499989 1025.756714 27.499989 1026.862183 L 27.499989 1044.862183 C 27.499989 1045.967651 26.605458 1046.862183 25.499989 1046.862183 L 6.499989 1046.862183 C 5.39452 1046.862183 4.499989 1045.967651 4.499989 1044.862183 L 4.499989 1026.862183 C 4.499989 1025.756714 5.39452 1024.862183 6.499989 1024.862183 Z M 6.499989 1024.862183 " transform="matrix(1, 0, 0, 1, 0.0000109756, -1020.362183)"/>
</g>
<g mask="url(#mask-0)">
<use xlink:href="#source-13128"/>
</g>
<g mask="url(#mask-1)">
<use xlink:href="#source-13151"/>
</g>
<g mask="url(#mask-7)">
<use xlink:href="#source-13155"/>
</g>
</svg>
