<?xml version="1.0" encoding="UTF-8"?>
<svg xmlns="http://www.w3.org/2000/svg" xmlns:xlink="http://www.w3.org/1999/xlink" width="22" height="22" viewBox="0 0 22 22">
<path fill-rule="nonzero" fill="rgb(100%, 100%, 100%)" fill-opacity="1" d="M 11 4 C 10.445312 4 10 4.445312 10 5 L 10 10.585938 L 8.171875 8.757812 C 7.78125 8.367188 7.148438 8.367188 6.757812 8.757812 C 6.367188 9.148438 6.367188 9.78125 6.757812 10.171875 L 10.28125 13.699219 C 10.378906 13.792969 10.492188 13.871094 10.617188 13.925781 C 10.863281 14.023438 11.132812 14.027344 11.375 13.929688 C 11.378906 13.925781 11.378906 13.925781 11.382812 13.925781 C 11.503906 13.875 11.617188 13.800781 11.710938 13.707031 L 15.246094 10.171875 C 15.636719 9.78125 15.636719 9.148438 15.246094 8.757812 C 14.851562 8.367188 14.222656 8.367188 13.832031 8.757812 L 12 10.585938 L 12 5 C 12 4.445312 11.554688 4 11 4 Z M 5 14 L 5 16 C 5 17.109375 5.890625 18 7 18 L 15 18 C 16.109375 18 17 17.109375 17 16 L 17 14 L 15 14 L 15 16 L 7 16 L 7 14 Z M 5 14 "/>
</svg>
