<?xml version="1.0" encoding="UTF-8"?>
<svg xmlns="http://www.w3.org/2000/svg" xmlns:xlink="http://www.w3.org/1999/xlink" width="22" height="22" viewBox="0 0 22 22">
<path fill-rule="nonzero" fill="rgb(100%, 100%, 100%)" fill-opacity="1" d="M 6 4 C 4.890625 4 4 4.890625 4 6 L 4 16 C 4 17.109375 4.890625 18 6 18 L 16 18 C 17.109375 18 18 17.109375 18 16 L 18 6 C 18 4.890625 17.109375 4 16 4 L 14 4 L 15 8 L 14 8 L 13 4 L 11 4 L 12 8 L 11 8 L 10 4 L 8 4 L 9 8 L 8 8 L 7 4 Z M 6 9 L 16 9 L 16 16 L 6 16 Z M 6 9 "/>
</svg>
