<?xml version="1.0" encoding="UTF-8"?>
<svg xmlns="http://www.w3.org/2000/svg" xmlns:xlink="http://www.w3.org/1999/xlink" width="22" height="22" viewBox="0 0 22 22">
<path fill-rule="nonzero" fill="rgb(100%, 100%, 100%)" fill-opacity="1" d="M 14.167969 5 C 13.609375 5.003906 13.035156 5.191406 12.597656 5.46875 C 12.722656 5.386719 12.207031 5.675781 11.003906 5.675781 C 9.796875 5.675781 9.277344 5.386719 9.402344 5.46875 C 8.996094 5.207031 8.363281 5.007812 7.839844 5.007812 C 7.316406 5.007812 6.84375 5.128906 6.390625 5.335938 L 6.382812 5.34375 L 6.371094 5.347656 C 4.527344 6.226562 3.882812 7.886719 3.410156 9.765625 L 3.410156 9.769531 C 3.207031 10.582031 3.082031 11.449219 3.03125 12.269531 C 2.976562 13.089844 2.929688 13.753906 3.164062 14.617188 L 3.164062 14.625 L 3.167969 14.628906 C 3.3125 15.152344 3.558594 15.761719 4.121094 16.265625 C 4.683594 16.773438 5.488281 17 6.097656 17 L 6.132812 17 C 8.113281 16.964844 9.210938 15.769531 10.066406 14.394531 C 9.796875 14.75 10.328125 14.328125 10.949219 14.347656 L 11.070312 14.347656 C 11.671875 14.324219 12.203125 14.746094 11.929688 14.390625 C 12.789062 15.765625 13.898438 16.964844 15.875 17 L 15.90625 17 C 16.519531 17 17.324219 16.769531 17.882812 16.265625 C 18.441406 15.757812 18.6875 15.15625 18.832031 14.628906 L 18.835938 14.625 L 18.839844 14.617188 C 19.070312 13.753906 19.023438 13.089844 18.972656 12.269531 C 18.917969 11.449219 18.792969 10.582031 18.59375 9.773438 L 18.59375 9.769531 C 18.117188 7.890625 17.472656 6.230469 15.632812 5.351562 C 15.222656 5.15625 14.730469 5 14.179688 5.003906 C 14.175781 5.003906 14.171875 5 14.171875 5 Z M 14.179688 7 C 14.359375 7 14.554688 7.046875 14.769531 7.152344 C 15.539062 7.519531 16.261719 8.707031 16.652344 10.253906 C 16.980469 11.578125 17.101562 13.375 16.90625 14.097656 C 16.734375 14.726562 16.433594 15 15.910156 15 C 15.121094 14.988281 14.140625 14.207031 13.511719 13.160156 C 13.058594 12.578125 12.011719 12.3125 11.007812 12.347656 C 9.992188 12.320312 8.941406 12.578125 8.492188 13.160156 C 7.859375 14.207031 6.878906 14.988281 6.097656 15 C 5.566406 15 5.265625 14.726562 5.09375 14.097656 C 4.898438 13.375 5.019531 11.578125 5.347656 10.253906 C 5.738281 8.707031 6.460938 7.519531 7.234375 7.152344 C 7.449219 7.050781 7.660156 7.007812 7.839844 7.007812 C 8.019531 7.007812 8.167969 7.050781 8.328125 7.152344 C 8.722656 7.40625 9.550781 7.671875 11.007812 7.671875 C 12.453125 7.671875 13.277344 7.40625 13.675781 7.152344 C 13.832031 7.050781 14 7 14.179688 7 Z M 14.179688 7 "/>
<path fill-rule="nonzero" fill="rgb(100%, 100%, 100%)" fill-opacity="1" d="M 7 8 L 8 8 L 8 9 L 9 9 L 9 10 L 8 10 L 8 11 L 7 11 L 7 10 L 6 10 L 6 9 L 7 9 Z M 14.5 8 C 14.777344 8 15 8.222656 15 8.5 C 15 8.777344 14.777344 9 14.5 9 C 14.222656 9 14 8.777344 14 8.5 C 14 8.222656 14.222656 8 14.5 8 Z M 13.5 9 C 13.777344 9 14 9.222656 14 9.5 C 14 9.777344 13.777344 10 13.5 10 C 13.222656 10 13 9.777344 13 9.5 C 13 9.222656 13.222656 9 13.5 9 Z M 15.5 9 C 15.777344 9 16 9.222656 16 9.5 C 16 9.777344 15.777344 10 15.5 10 C 15.222656 10 15 9.777344 15 9.5 C 15 9.222656 15.222656 9 15.5 9 Z M 14.5 10 C 14.777344 10 15 10.222656 15 10.5 C 15 10.777344 14.777344 11 14.5 11 C 14.222656 11 14 10.777344 14 10.5 C 14 10.222656 14.222656 10 14.5 10 Z M 14.5 10 "/>
</svg>
