<?xml version="1.0" encoding="UTF-8"?>
<svg xmlns="http://www.w3.org/2000/svg" xmlns:xlink="http://www.w3.org/1999/xlink" width="22" height="22" viewBox="0 0 22 22">
<path fill-rule="nonzero" fill="rgb(100%, 100%, 100%)" fill-opacity="1" d="M 11 4 C 7.132812 4 4 7.132812 4 11 C 4 14.867188 7.132812 18 11 18 C 14.867188 18 18 14.867188 18 11 C 18 7.132812 14.867188 4 11 4 Z M 11 6 C 13.761719 6 16 8.238281 16 11 C 16 13.761719 13.761719 16 11 16 C 8.238281 16 6 13.761719 6 11 C 6 8.238281 8.238281 6 11 6 Z M 10.625 7.003906 C 10.492188 7.015625 10.359375 7.023438 10.230469 7.050781 C 9.972656 7.101562 9.730469 7.171875 9.492188 7.273438 C 8.363281 7.75 7.511719 8.742188 7.207031 9.953125 C 7.214844 9.960938 7.222656 9.964844 7.230469 9.976562 C 7.445312 10.199219 8 10.515625 8.410156 10.664062 C 8.636719 10.746094 9.070312 10.871094 9.367188 10.933594 C 9.667969 10.996094 9.867188 11.054688 9.835938 11.058594 C 9.804688 11.058594 9.671875 11.160156 9.539062 11.277344 C 9.289062 11.503906 9.160156 11.707031 9.050781 12.066406 C 8.992188 12.261719 8.996094 12.328125 9.074219 12.433594 C 9.121094 12.496094 9.332031 12.648438 9.539062 12.777344 C 9.75 12.90625 9.996094 13.085938 10.082031 13.171875 C 10.40625 13.484375 10.621094 14.046875 10.621094 14.597656 C 10.621094 14.734375 10.636719 14.808594 10.644531 14.84375 C 10.671875 14.84375 10.695312 14.839844 10.71875 14.84375 C 10.78125 14.820312 10.871094 14.789062 11.015625 14.71875 C 12.21875 14.117188 12.765625 13.339844 12.710938 12.3125 C 12.667969 11.488281 12.28125 11.191406 10.722656 10.859375 C 9.570312 10.617188 8.953125 10.199219 8.953125 9.679688 C 8.953125 9.542969 9 9.460938 9.148438 9.3125 C 9.308594 9.152344 9.34375 9.140625 9.46875 9.164062 C 9.546875 9.179688 9.753906 9.285156 9.910156 9.410156 C 10.265625 9.691406 10.4375 9.804688 10.625 9.804688 C 10.703125 9.804688 10.769531 9.792969 10.769531 9.78125 C 10.769531 9.769531 10.710938 9.675781 10.648438 9.582031 C 10.292969 9.058594 10.316406 8.082031 10.699219 7.25 C 10.757812 7.117188 10.800781 7.027344 10.796875 7.003906 C 10.742188 7.003906 10.675781 6.996094 10.625 7.003906 Z M 14.308594 8.847656 C 14.238281 8.800781 13.65625 9.410156 13.523438 9.679688 C 13.257812 10.210938 13.359375 10.5625 13.988281 11.230469 C 14.210938 11.460938 14.472656 11.773438 14.554688 11.917969 C 14.636719 12.0625 14.707031 12.183594 14.726562 12.164062 C 14.746094 12.140625 14.804688 11.976562 14.847656 11.796875 C 14.96875 11.324219 14.976562 10.5 14.847656 10.027344 C 14.75 9.65625 14.402344 8.902344 14.308594 8.847656 Z M 14.308594 8.847656 "/>
</svg>
