<?xml version="1.0" encoding="UTF-8"?>
<svg xmlns="http://www.w3.org/2000/svg" xmlns:xlink="http://www.w3.org/1999/xlink" width="22" height="22" viewBox="0 0 22 22">
<defs>
<filter id="filter-remove-color" x="0%" y="0%" width="100%" height="100%">
<feColorMatrix color-interpolation-filters="sRGB" values="0 0 0 0 1 0 0 0 0 1 0 0 0 0 1 0 0 0 1 0" />
</filter>
<mask id="mask-0">
<g filter="url(#filter-remove-color)">
<rect x="-2.2" y="-2.2" width="26.4" height="26.4" fill="rgb(0%, 0%, 0%)" fill-opacity="0.5"/>
</g>
</mask>
<clipPath id="clip-0">
<rect x="0" y="0" width="22" height="22"/>
</clipPath>
<g id="source-12708" clip-path="url(#clip-0)">
<path fill-rule="nonzero" fill="rgb(100%, 100%, 100%)" fill-opacity="1" d="M 5 4 C 4.445312 4 4 4.445312 4 5 L 4 8 L 10 8 L 11 6 L 18 6 L 18 5 C 18 4.445312 17.554688 4 17 4 Z M 5 4 "/>
</g>
</defs>
<g mask="url(#mask-0)">
<use xlink:href="#source-12708"/>
</g>
<path fill-rule="nonzero" fill="rgb(100%, 100%, 100%)" fill-opacity="1" d="M 11.917969 6 L 10.859375 6.28125 L 10 8 L 4.453125 8 L 3.28125 8.3125 C 3.109375 8.492188 3 8.730469 3 9 L 3 10.460938 L 18.628906 6.273438 C 18.625 6.265625 18.617188 6.265625 18.613281 6.261719 C 18.527344 6.1875 18.4375 6.125 18.339844 6.082031 C 18.230469 6.03125 18.113281 6 18 6 Z M 19 7.226562 L 3 11.519531 L 3 13.589844 L 19 9.296875 Z M 19 10.351562 L 3 14.644531 L 3 16.714844 L 19 12.425781 Z M 19 13.480469 L 3.28125 17.695312 C 3.464844 17.882812 3.714844 18 4 18 L 9.863281 18 L 19 15.550781 Z M 19 16.609375 L 13.804688 18 L 18 18 C 18.554688 18 19 17.554688 19 17 Z M 19 16.609375 "/>
</svg>
