<?xml version="1.0" encoding="UTF-8"?>
<svg xmlns="http://www.w3.org/2000/svg" xmlns:xlink="http://www.w3.org/1999/xlink" width="22" height="22" viewBox="0 0 22 22">
<path fill-rule="nonzero" fill="rgb(100%, 100%, 100%)" fill-opacity="1" d="M 10.5 4.414062 C 10.246094 4.414062 9.988281 4.511719 9.792969 4.707031 L 4.136719 10.363281 C 3.746094 10.753906 3.746094 11.386719 4.136719 11.777344 C 4.375 12.015625 4.695312 12.089844 5 12.042969 L 5 17 L 7 17 L 7 10.328125 L 10.5 6.828125 L 14 10.328125 L 14 17 L 16 17 L 16 12.042969 C 16.304688 12.089844 16.625 12.015625 16.863281 11.777344 C 17.253906 11.386719 17.253906 10.753906 16.863281 10.363281 L 11.207031 4.707031 C 11.011719 4.511719 10.753906 4.414062 10.5 4.414062 Z M 10.5 12 C 9.667969 12 9 12.667969 9 13.5 L 9 17 L 12 17 L 12 13.5 C 12 12.667969 11.332031 12 10.5 12 Z M 10.5 12 "/>
</svg>
