<?xml version="1.0" encoding="UTF-8"?>
<svg xmlns="http://www.w3.org/2000/svg" xmlns:xlink="http://www.w3.org/1999/xlink" width="22" height="22" viewBox="0 0 22 22">
<path fill-rule="nonzero" fill="rgb(100%, 100%, 100%)" fill-opacity="1" d="M 9 3.996094 C 8 3.996094 8 4.996094 8 4.996094 L 5 4.996094 C 5 4.996094 4 5 4 6 L 4 7.003906 L 17 7 L 17 6 C 17 5 16 4.996094 16 4.996094 L 13 4.996094 C 13 4.996094 13 3.996094 12 3.996094 Z M 5 8.003906 L 5 17.003906 C 5 17.527344 5.476562 18.003906 6 18.003906 L 15 18.003906 C 15.523438 18.003906 16 17.527344 16 17.003906 L 16 8.003906 L 14 8.003906 L 14 16.003906 L 7 16.003906 L 7 8.003906 Z M 5 8.003906 "/>
</svg>
