<?xml version="1.0" encoding="UTF-8"?>
<svg xmlns="http://www.w3.org/2000/svg" xmlns:xlink="http://www.w3.org/1999/xlink" width="16" height="16" viewBox="0 0 16 16">
<defs>
<filter id="filter-remove-color" x="0%" y="0%" width="100%" height="100%">
<feColorMatrix color-interpolation-filters="sRGB" values="0 0 0 0 1 0 0 0 0 1 0 0 0 0 1 0 0 0 1 0" />
</filter>
<mask id="mask-0">
<g filter="url(#filter-remove-color)">
<rect x="-1.6" y="-1.6" width="19.2" height="19.2" fill="rgb(0%, 0%, 0%)" fill-opacity="0.15"/>
</g>
</mask>
<clipPath id="clip-0">
<rect x="0" y="0" width="5" height="5"/>
</clipPath>
<g id="source-5372" clip-path="url(#clip-0)">
<path fill-rule="nonzero" fill="rgb(0%, 0%, 0%)" fill-opacity="1" d="M 3.042969 2.117188 C 3.042969 2.628906 2.628906 3.042969 2.117188 3.042969 C 1.605469 3.042969 1.191406 2.628906 1.191406 2.117188 C 1.191406 1.605469 1.605469 1.191406 2.117188 1.191406 C 2.628906 1.191406 3.042969 1.605469 3.042969 2.117188 Z M 3.042969 2.117188 "/>
</g>
</defs>
<path fill-rule="nonzero" fill="rgb(70.980392%, 73.333333%, 75.294118%)" fill-opacity="1" d="M 3.96875 2.117188 C 3.96875 3.140625 3.140625 3.96875 2.117188 3.96875 C 1.09375 3.96875 0.265625 3.140625 0.265625 2.117188 C 0.265625 1.09375 1.09375 0.265625 2.117188 0.265625 C 3.140625 0.265625 3.96875 1.09375 3.96875 2.117188 Z M 3.96875 2.117188 "/>
<g mask="url(#mask-0)">
<use xlink:href="#source-5372"/>
</g>
<path fill-rule="nonzero" fill="rgb(100%, 100%, 100%)" fill-opacity="1" d="M 2.117188 1.332031 C 1.683594 1.332031 1.332031 1.683594 1.332031 2.117188 C 1.332031 2.550781 1.683594 2.898438 2.117188 2.898438 C 2.550781 2.898438 2.898438 2.546875 2.898438 2.117188 C 2.898438 1.683594 2.550781 1.332031 2.117188 1.332031 Z M 2.117188 1.6875 C 2.351562 1.6875 2.542969 1.878906 2.542969 2.117188 C 2.542969 2.230469 2.5 2.339844 2.417969 2.417969 C 2.339844 2.5 2.230469 2.542969 2.117188 2.542969 C 2.003906 2.542969 1.894531 2.5 1.8125 2.417969 C 1.734375 2.339844 1.6875 2.230469 1.6875 2.117188 C 1.6875 2.003906 1.734375 1.894531 1.8125 1.8125 C 1.894531 1.734375 2.003906 1.6875 2.117188 1.6875 Z M 2.117188 1.6875 "/>
<path fill-rule="nonzero" fill="rgb(100%, 100%, 100%)" fill-opacity="1" d="M 1.972656 1.011719 L 2.257812 1.011719 L 2.257812 1.511719 L 1.972656 1.511719 Z M 1.972656 2.722656 L 2.257812 2.722656 L 2.257812 3.21875 L 1.972656 3.21875 Z M 3.222656 1.972656 L 3.222656 2.257812 L 2.722656 2.257812 L 2.722656 1.972656 Z M 1.511719 1.972656 L 1.511719 2.257812 L 1.011719 2.257812 L 1.011719 1.972656 Z M 2.996094 2.796875 L 2.796875 2.996094 L 2.445312 2.644531 L 2.644531 2.445312 Z M 1.789062 1.589844 L 1.589844 1.789062 L 1.234375 1.4375 L 1.4375 1.234375 Z M 1.4375 2.996094 L 1.234375 2.796875 L 1.589844 2.445312 L 1.789062 2.644531 Z M 2.644531 1.789062 L 2.445312 1.589844 L 2.796875 1.234375 L 2.996094 1.4375 Z M 2.644531 1.789062 "/>
</svg>
