<?xml version="1.0" encoding="UTF-8"?>
<svg xmlns="http://www.w3.org/2000/svg" xmlns:xlink="http://www.w3.org/1999/xlink" width="16" height="16" viewBox="0 0 16 16">
<path fill-rule="nonzero" fill="rgb(36.078431%, 64.313725%, 92.941176%)" fill-opacity="1" d="M 0.335938 1.40625 L 3.328125 1.40625 C 3.367188 1.40625 3.398438 1.4375 3.398438 1.476562 L 3.398438 3.328125 C 3.398438 3.367188 3.367188 3.398438 3.328125 3.398438 L 0.335938 3.398438 C 0.296875 3.398438 0.265625 3.367188 0.265625 3.328125 L 0.265625 1.476562 C 0.265625 1.4375 0.296875 1.40625 0.335938 1.40625 Z M 0.335938 1.40625 "/>
<path fill-rule="nonzero" fill="rgb(62.745098%, 92.54902%, 100%)" fill-opacity="1" d="M 1.476562 0.335938 C 1.4375 0.335938 1.402344 0.367188 1.402344 0.40625 L 1.402344 1.832031 C 1.402344 1.871094 1.4375 1.902344 1.476562 1.902344 L 2.574219 1.902344 L 2.972656 2.257812 C 3.023438 2.269531 3.042969 2.238281 3.042969 2.1875 L 3.042969 1.902344 L 3.898438 1.902344 C 3.917969 1.902344 3.933594 1.894531 3.949219 1.882812 C 3.960938 1.867188 3.96875 1.851562 3.96875 1.832031 L 3.96875 0.40625 C 3.96875 0.386719 3.960938 0.371094 3.949219 0.355469 C 3.933594 0.34375 3.917969 0.335938 3.898438 0.335938 Z M 1.476562 0.335938 "/>
<path fill-rule="nonzero" fill="rgb(36.078431%, 64.313725%, 92.941176%)" fill-opacity="1" d="M 0.976562 2.683594 L 1.761719 2.683594 C 1.800781 2.683594 1.84375 2.71875 1.832031 2.757812 L 1.695312 3.253906 C 1.683594 3.292969 1.648438 3.300781 1.617188 3.324219 L 0.976562 3.894531 C 0.925781 3.90625 0.90625 3.875 0.90625 3.824219 L 0.90625 2.757812 C 0.90625 2.714844 0.9375 2.683594 0.976562 2.683594 Z M 0.976562 2.683594 "/>
</svg>
