<?xml version="1.0" encoding="UTF-8"?>
<svg xmlns="http://www.w3.org/2000/svg" xmlns:xlink="http://www.w3.org/1999/xlink" width="16" height="16" viewBox="0 0 16 16">
<path fill-rule="nonzero" fill="rgb(44.313725%, 66.666667%, 45.882353%)" fill-opacity="1" d="M 3.96875 2.117188 C 3.96875 3.140625 3.140625 3.96875 2.117188 3.96875 C 1.09375 3.96875 0.265625 3.140625 0.265625 2.117188 C 0.265625 1.09375 1.09375 0.265625 2.117188 0.265625 C 3.140625 0.265625 3.96875 1.09375 3.96875 2.117188 Z M 3.96875 2.117188 "/>
<path fill-rule="nonzero" fill="rgb(100%, 100%, 100%)" fill-opacity="1" d="M 2.117188 1.261719 C 1.914062 1.261719 1.738281 1.40625 1.699219 1.605469 C 1.65625 1.800781 1.761719 2.003906 1.949219 2.082031 L 1.6875 2.972656 L 2.542969 2.972656 L 2.285156 2.082031 C 2.46875 2.003906 2.574219 1.800781 2.535156 1.605469 C 2.492188 1.40625 2.320312 1.261719 2.117188 1.261719 Z M 2.117188 1.261719 "/>
</svg>
