<?xml version="1.0" encoding="UTF-8"?>
<svg xmlns="http://www.w3.org/2000/svg" xmlns:xlink="http://www.w3.org/1999/xlink" width="16" height="16" viewBox="0 0 16 16">
<path fill-rule="nonzero" fill="rgb(44.313725%, 64.705882%, 90.980392%)" fill-opacity="1" d="M 3.96875 2.117188 C 3.96875 3.140625 3.140625 3.96875 2.117188 3.96875 C 1.09375 3.96875 0.265625 3.140625 0.265625 2.117188 C 0.265625 1.09375 1.09375 0.265625 2.117188 0.265625 C 3.140625 0.265625 3.96875 1.09375 3.96875 2.117188 Z M 3.96875 2.117188 "/>
<path fill-rule="nonzero" fill="rgb(100%, 100%, 100%)" fill-opacity="1" d="M 1.851562 1.851562 L 1.851562 3.175781 L 2.382812 3.175781 L 2.382812 1.851562 Z M 2.382812 1.324219 C 2.382812 1.46875 2.261719 1.585938 2.117188 1.585938 C 1.96875 1.585938 1.851562 1.46875 1.851562 1.324219 C 1.851562 1.175781 1.96875 1.058594 2.117188 1.058594 C 2.261719 1.058594 2.382812 1.175781 2.382812 1.324219 Z M 2.382812 1.324219 "/>
</svg>
