<?xml version="1.0" encoding="UTF-8"?>
<svg xmlns="http://www.w3.org/2000/svg" xmlns:xlink="http://www.w3.org/1999/xlink" width="16" height="16" viewBox="0 0 16 16">
<path fill-rule="nonzero" fill="rgb(92.54902%, 92.54902%, 92.54902%)" fill-opacity="1" d="M 0.636719 0.636719 C 0.140625 1.746094 0.140625 2.488281 0.636719 3.597656 C 1.621094 4.09375 2.609375 4.09375 3.597656 3.597656 C 4.09375 2.488281 4.09375 1.746094 3.597656 0.636719 C 2.609375 0.140625 1.621094 0.140625 0.636719 0.636719 Z M 0.636719 0.636719 "/>
<path fill-rule="nonzero" fill="rgb(40%, 40%, 40%)" fill-opacity="1" d="M 3.722656 2.117188 C 3.722656 3.003906 3.003906 3.722656 2.117188 3.722656 C 1.230469 3.722656 0.511719 3.003906 0.511719 2.117188 C 0.511719 1.230469 1.230469 0.511719 2.117188 0.511719 C 3.003906 0.511719 3.722656 1.230469 3.722656 2.117188 Z M 3.722656 2.117188 "/>
<path fill-rule="nonzero" fill="rgb(100%, 74.117647%, 33.333333%)" fill-opacity="1" d="M 3.351562 2.117188 C 3.351562 2.800781 2.796875 3.351562 2.117188 3.351562 C 1.433594 3.351562 0.882812 2.800781 0.882812 2.117188 C 0.882812 1.433594 1.433594 0.882812 2.117188 0.882812 C 2.796875 0.882812 3.351562 1.433594 3.351562 2.117188 Z M 3.351562 2.117188 "/>
<path fill-rule="nonzero" fill="rgb(92.54902%, 92.54902%, 92.54902%)" fill-opacity="1" d="M 1.003906 0.757812 C 1.003906 0.894531 0.894531 1.007812 0.757812 1.007812 C 0.621094 1.007812 0.511719 0.894531 0.511719 0.757812 C 0.511719 0.621094 0.621094 0.511719 0.757812 0.511719 C 0.894531 0.511719 1.003906 0.621094 1.003906 0.757812 Z M 1.003906 3.476562 C 1.003906 3.613281 0.894531 3.722656 0.757812 3.722656 C 0.621094 3.722656 0.511719 3.613281 0.511719 3.476562 C 0.511719 3.339844 0.621094 3.226562 0.757812 3.226562 C 0.894531 3.226562 1.003906 3.339844 1.003906 3.476562 Z M 3.722656 3.476562 C 3.722656 3.613281 3.613281 3.722656 3.476562 3.722656 C 3.339844 3.722656 3.226562 3.613281 3.226562 3.476562 C 3.226562 3.339844 3.339844 3.226562 3.476562 3.226562 C 3.613281 3.226562 3.722656 3.339844 3.722656 3.476562 Z M 3.722656 0.757812 C 3.722656 0.894531 3.613281 1.007812 3.476562 1.007812 C 3.339844 1.007812 3.226562 0.894531 3.226562 0.757812 C 3.226562 0.621094 3.339844 0.511719 3.476562 0.511719 C 3.613281 0.511719 3.722656 0.621094 3.722656 0.757812 Z M 3.722656 0.757812 "/>
<path fill-rule="nonzero" fill="rgb(30.196078%, 30.196078%, 30.196078%)" fill-opacity="1" d="M 2.980469 2.117188 C 2.980469 2.59375 2.59375 2.980469 2.117188 2.980469 C 1.640625 2.980469 1.253906 2.59375 1.253906 2.117188 C 1.253906 1.640625 1.640625 1.253906 2.117188 1.253906 C 2.59375 1.253906 2.980469 1.640625 2.980469 2.117188 Z M 2.980469 2.117188 "/>
<path fill-rule="nonzero" fill="rgb(100%, 100%, 100%)" fill-opacity="1" d="M 2.609375 1.871094 C 2.617188 1.960938 2.570312 2.050781 2.492188 2.097656 C 2.414062 2.144531 2.3125 2.144531 2.234375 2.097656 C 2.15625 2.050781 2.109375 1.960938 2.117188 1.871094 C 2.117188 1.734375 2.226562 1.621094 2.363281 1.621094 C 2.5 1.621094 2.609375 1.734375 2.609375 1.871094 Z M 2.609375 1.871094 "/>
</svg>
