<?xml version="1.0" encoding="UTF-8"?>
<svg xmlns="http://www.w3.org/2000/svg" xmlns:xlink="http://www.w3.org/1999/xlink" width="16" height="16" viewBox="0 0 16 16">
<path fill="none" stroke-width="1.02" stroke-linecap="butt" stroke-linejoin="miter" stroke="rgb(0%, 0%, 0%)" stroke-opacity="0.059" stroke-miterlimit="4" d="M 2.384856 282.453814 L 10.840723 282.453814 C 11.141644 282.453814 11.38238 282.679757 11.38238 282.981014 L 11.38238 291.446338 C 11.38238 291.732532 11.141644 291.973537 10.840723 291.973537 L 2.384856 291.973537 C 2.083935 291.973537 1.858245 291.732532 1.858245 291.446338 L 1.858245 282.981014 C 1.858245 282.679757 2.083935 282.453814 2.384856 282.453814 Z M 2.384856 282.453814 " transform="matrix(0.25962, 0, 0, 0.25933, -0.084, -72.779999)"/>
<path fill-rule="nonzero" fill="rgb(100%, 100%, 100%)" fill-opacity="1" d="M 0.535156 0.46875 L 2.730469 0.46875 C 2.808594 0.46875 2.871094 0.527344 2.871094 0.605469 L 2.871094 2.800781 C 2.871094 2.875 2.808594 2.9375 2.730469 2.9375 L 0.535156 2.9375 C 0.457031 2.9375 0.398438 2.875 0.398438 2.800781 L 0.398438 0.605469 C 0.398438 0.527344 0.457031 0.46875 0.535156 0.46875 Z M 0.535156 0.46875 "/>
<path fill-rule="nonzero" fill="rgb(100%, 100%, 100%)" fill-opacity="1" d="M 0.535156 0.46875 L 2.730469 0.46875 C 2.808594 0.46875 2.871094 0.527344 2.871094 0.605469 L 2.871094 2.800781 C 2.871094 2.875 2.808594 2.9375 2.730469 2.9375 L 0.535156 2.9375 C 0.457031 2.9375 0.398438 2.875 0.398438 2.800781 L 0.398438 0.605469 C 0.398438 0.527344 0.457031 0.46875 0.535156 0.46875 Z M 0.535156 0.46875 "/>
<path fill-rule="nonzero" fill="rgb(80%, 80%, 80%)" fill-opacity="1" d="M 1.683594 1.0625 C 1.527344 1.0625 1.402344 1.121094 1.3125 1.238281 C 1.222656 1.351562 1.175781 1.507812 1.175781 1.707031 C 1.175781 1.90625 1.222656 2.066406 1.3125 2.179688 C 1.402344 2.296875 1.527344 2.355469 1.683594 2.355469 C 1.839844 2.355469 1.960938 2.296875 2.050781 2.179688 C 2.140625 2.066406 2.1875 1.90625 2.1875 1.707031 C 2.1875 1.507812 2.140625 1.351562 2.050781 1.238281 C 1.960938 1.121094 1.839844 1.0625 1.683594 1.0625 Z M 1.683594 0.886719 C 1.90625 0.886719 2.082031 0.964844 2.214844 1.109375 C 2.347656 1.257812 2.414062 1.457031 2.414062 1.707031 C 2.414062 1.957031 2.347656 2.160156 2.214844 2.304688 C 2.082031 2.457031 1.90625 2.527344 1.683594 2.527344 C 1.460938 2.527344 1.285156 2.457031 1.148438 2.304688 C 1.015625 2.160156 0.949219 1.957031 0.949219 1.707031 C 0.949219 1.457031 1.015625 1.257812 1.148438 1.109375 C 1.285156 0.964844 1.460938 0.886719 1.683594 0.886719 Z M 0.828125 0.484375 "/>
<path fill-rule="nonzero" fill="rgb(33.333333%, 51.372549%, 100%)" fill-opacity="1" d="M 1.632812 1.429688 L 3.832031 1.429688 C 3.90625 1.429688 3.96875 1.488281 3.96875 1.566406 L 3.96875 3.761719 C 3.96875 3.835938 3.90625 3.898438 3.832031 3.898438 L 1.632812 3.898438 C 1.558594 3.898438 1.496094 3.835938 1.496094 3.761719 L 1.496094 1.566406 C 1.496094 1.488281 1.558594 1.429688 1.632812 1.429688 Z M 1.632812 1.429688 "/>
<path fill-rule="nonzero" fill="rgb(100%, 100%, 100%)" fill-opacity="1" d="M 2.386719 2.703125 L 2.386719 3.28125 L 2.730469 3.28125 C 2.84375 3.28125 2.929688 3.257812 2.984375 3.210938 C 3.042969 3.160156 3.070312 3.089844 3.070312 2.992188 C 3.070312 2.890625 3.042969 2.820312 2.984375 2.773438 C 2.929688 2.726562 2.84375 2.703125 2.730469 2.703125 Z M 2.386719 2.050781 L 2.386719 2.527344 L 2.703125 2.527344 C 2.808594 2.527344 2.886719 2.511719 2.9375 2.472656 C 2.988281 2.433594 3.015625 2.371094 3.015625 2.289062 C 3.015625 2.210938 2.988281 2.152344 2.9375 2.113281 C 2.886719 2.070312 2.808594 2.050781 2.703125 2.050781 Z M 2.175781 1.875 L 2.71875 1.875 C 2.882812 1.875 3.007812 1.910156 3.09375 1.976562 C 3.183594 2.046875 3.230469 2.140625 3.230469 2.265625 C 3.230469 2.363281 3.207031 2.441406 3.160156 2.496094 C 3.117188 2.554688 3.050781 2.589844 2.960938 2.605469 C 3.066406 2.628906 3.148438 2.675781 3.203125 2.746094 C 3.265625 2.820312 3.292969 2.90625 3.292969 3.015625 C 3.292969 3.15625 3.246094 3.265625 3.148438 3.34375 C 3.054688 3.417969 2.917969 3.457031 2.742188 3.457031 L 2.175781 3.457031 Z M 1.960938 1.445312 "/>
</svg>
