<?xml version="1.0" encoding="UTF-8"?>
<svg xmlns="http://www.w3.org/2000/svg" xmlns:xlink="http://www.w3.org/1999/xlink" width="16" height="16" viewBox="0 0 16 16">
<defs>
<filter id="filter-remove-color" x="0%" y="0%" width="100%" height="100%">
<feColorMatrix color-interpolation-filters="sRGB" values="0 0 0 0 1 0 0 0 0 1 0 0 0 0 1 0 0 0 1 0" />
</filter>
<mask id="mask-0">
<g filter="url(#filter-remove-color)">
<rect x="-1.6" y="-1.6" width="19.2" height="19.2" fill="rgb(0%, 0%, 0%)" fill-opacity="0.35"/>
</g>
</mask>
<clipPath id="clip-0">
<rect x="0" y="0" width="5" height="5"/>
</clipPath>
<g id="source-6952" clip-path="url(#clip-0)">
<path fill-rule="nonzero" fill="rgb(100%, 100%, 100%)" fill-opacity="1" d="M 1.324219 1.585938 L 2.382812 1.585938 C 2.671875 1.585938 2.910156 1.824219 2.910156 2.117188 C 2.910156 2.410156 2.671875 2.644531 2.382812 2.644531 L 1.324219 2.644531 C 1.03125 2.644531 0.792969 2.410156 0.792969 2.117188 C 0.792969 1.824219 1.03125 1.585938 1.324219 1.585938 Z M 1.324219 1.585938 "/>
</g>
</defs>
<path fill-rule="nonzero" fill="rgb(36.470588%, 63.921569%, 93.333333%)" fill-opacity="1" d="M 3.96875 2.117188 C 3.96875 3.140625 3.140625 3.96875 2.117188 3.96875 C 1.09375 3.96875 0.265625 3.140625 0.265625 2.117188 C 0.265625 1.09375 1.09375 0.265625 2.117188 0.265625 C 3.140625 0.265625 3.96875 1.09375 3.96875 2.117188 Z M 3.96875 2.117188 "/>
<g mask="url(#mask-0)">
<use xlink:href="#source-6952"/>
</g>
<path fill-rule="nonzero" fill="rgb(100%, 100%, 100%)" fill-opacity="1" d="M 3.4375 2.117188 C 3.4375 2.554688 3.082031 2.910156 2.644531 2.910156 C 2.207031 2.910156 1.851562 2.554688 1.851562 2.117188 C 1.851562 1.679688 2.207031 1.324219 2.644531 1.324219 C 3.082031 1.324219 3.4375 1.679688 3.4375 2.117188 Z M 3.4375 2.117188 "/>
</svg>
