<?xml version="1.0" encoding="UTF-8"?>
<svg xmlns="http://www.w3.org/2000/svg" xmlns:xlink="http://www.w3.org/1999/xlink" width="16" height="16" viewBox="0 0 16 16">
<path fill="none" stroke-width="0.52916" stroke-linecap="butt" stroke-linejoin="miter" stroke="rgb(0%, 0%, 0%)" stroke-opacity="0.059" stroke-miterlimit="4" d="M 3.96875 2.117188 C 3.96875 3.140625 3.140625 3.96875 2.117188 3.96875 C 1.09375 3.96875 0.265625 3.140625 0.265625 2.117188 C 0.265625 1.09375 1.09375 0.265625 2.117188 0.265625 C 3.140625 0.265625 3.96875 1.09375 3.96875 2.117188 Z M 3.96875 2.117188 "/>
<path fill-rule="nonzero" fill="rgb(100%, 100%, 100%)" fill-opacity="1" d="M 3.96875 2.117188 C 3.96875 3.140625 3.140625 3.96875 2.117188 3.96875 C 1.09375 3.96875 0.265625 3.140625 0.265625 2.117188 C 0.265625 1.09375 1.09375 0.265625 2.117188 0.265625 C 3.140625 0.265625 3.96875 1.09375 3.96875 2.117188 Z M 3.96875 2.117188 "/>
<path fill-rule="nonzero" fill="rgb(100%, 100%, 100%)" fill-opacity="1" d="M 3.703125 2.117188 C 3.703125 2.992188 2.992188 3.703125 2.117188 3.703125 C 1.238281 3.703125 0.53125 2.992188 0.53125 2.117188 C 0.53125 1.238281 1.238281 0.53125 2.117188 0.53125 C 2.992188 0.53125 3.703125 1.238281 3.703125 2.117188 Z M 3.703125 2.117188 "/>
<path fill-rule="nonzero" fill="rgb(29.803922%, 56.078431%, 84.705882%)" fill-opacity="1" d="M 2.074219 0.792969 C 1.738281 0.804688 1.417969 0.941406 1.179688 1.179688 C 0.710938 1.652344 0.664062 2.402344 1.070312 2.925781 L 1.351562 2.648438 C 1.09375 2.277344 1.136719 1.777344 1.457031 1.457031 C 1.710938 1.203125 2.089844 1.117188 2.429688 1.238281 L 2.429688 1.570312 L 2.925781 1.070312 C 2.683594 0.882812 2.382812 0.785156 2.074219 0.792969 Z M 2.074219 0.792969 "/>
<path fill-rule="nonzero" fill="rgb(42.745098%, 86.27451%, 90.588235%)" fill-opacity="1" d="M 3.160156 1.304688 L 2.882812 1.585938 C 3.140625 1.957031 3.097656 2.457031 2.777344 2.777344 C 2.523438 3.03125 2.144531 3.117188 1.804688 2.996094 L 1.804688 2.660156 L 1.304688 3.160156 C 1.832031 3.570312 2.582031 3.523438 3.054688 3.054688 C 3.523438 2.582031 3.570312 1.832031 3.160156 1.304688 Z M 3.160156 1.304688 "/>
</svg>
