<?xml version="1.0" encoding="UTF-8"?>
<svg xmlns="http://www.w3.org/2000/svg" xmlns:xlink="http://www.w3.org/1999/xlink" width="16" height="16" viewBox="0 0 16 16">
<path fill-rule="nonzero" fill="rgb(44.313725%, 66.666667%, 45.882353%)" fill-opacity="1" d="M 3.96875 2.117188 C 3.96875 3.140625 3.140625 3.96875 2.117188 3.96875 C 1.09375 3.96875 0.265625 3.140625 0.265625 2.117188 C 0.265625 1.09375 1.09375 0.265625 2.117188 0.265625 C 3.140625 0.265625 3.96875 1.09375 3.96875 2.117188 Z M 3.96875 2.117188 "/>
<path fill-rule="nonzero" fill="rgb(100%, 100%, 100%)" fill-opacity="1" d="M 1.34375 1.34375 C 1.335938 1.351562 1.332031 1.359375 1.332031 1.367188 C 1.332031 1.378906 1.335938 1.386719 1.34375 1.394531 L 2.804688 2.855469 C 2.886719 2.933594 3.015625 2.929688 3.097656 2.851562 C 3.179688 2.773438 3.183594 2.644531 3.109375 2.558594 C 3.109375 2.554688 3.109375 2.554688 3.105469 2.550781 C 3.097656 2.546875 3.089844 2.542969 3.082031 2.542969 C 3.070312 2.542969 3.0625 2.546875 3.054688 2.550781 C 3.050781 2.558594 3.046875 2.566406 3.046875 2.578125 C 3.046875 2.585938 3.050781 2.597656 3.054688 2.601562 C 3.097656 2.636719 3.113281 2.691406 3.101562 2.742188 C 3.085938 2.796875 3.046875 2.835938 2.996094 2.847656 C 2.945312 2.863281 2.890625 2.84375 2.855469 2.804688 L 1.394531 1.34375 C 1.386719 1.335938 1.378906 1.332031 1.367188 1.332031 C 1.359375 1.332031 1.351562 1.335938 1.34375 1.34375 Z M 1.34375 1.34375 "/>
<path fill-rule="nonzero" fill="rgb(100%, 100%, 100%)" fill-opacity="1" d="M 1.441406 1.441406 C 1.105469 1.773438 1.105469 2.316406 1.441406 2.648438 L 2.648438 1.441406 C 2.316406 1.109375 1.773438 1.109375 1.441406 1.441406 Z M 1.441406 1.441406 "/>
</svg>
